<?xml version="1.0" encoding="UTF-8" standalone="no"?>
<!-- Created with Inkscape (http://www.inkscape.org/) -->

<svg
   xmlns:dc="http://purl.org/dc/elements/1.1/"
   xmlns:cc="http://creativecommons.org/ns#"
   xmlns:rdf="http://www.w3.org/1999/02/22-rdf-syntax-ns#"
   xmlns:svg="http://www.w3.org/2000/svg"
   xmlns="http://www.w3.org/2000/svg"
   xmlns:sodipodi="http://sodipodi.sourceforge.net/DTD/sodipodi-0.dtd"
   xmlns:inkscape="http://www.inkscape.org/namespaces/inkscape"
   width="48"
   height="48"
   viewBox="0 0 12.7 12.7"
   version="1.1"
   id="svg8"
   inkscape:version="0.92.2 (5c3e80d, 2017-08-06)"
   sodipodi:docname="application-users.svg">
  <defs
     id="defs2" />
  <sodipodi:namedview
     id="base"
     pagecolor="#ffffff"
     bordercolor="#666666"
     borderopacity="1.0"
     inkscape:pageopacity="0.0"
     inkscape:pageshadow="2"
     inkscape:zoom="8"
     inkscape:cx="24.42995"
     inkscape:cy="18.421747"
     inkscape:document-units="mm"
     inkscape:current-layer="layer1"
     showgrid="true"
     inkscape:window-width="1360"
     inkscape:window-height="718"
     inkscape:window-x="0"
     inkscape:window-y="24"
     inkscape:window-maximized="1"
     units="px">
    <inkscape:grid
       type="xygrid"
       id="grid815" />
  </sodipodi:namedview>
  <metadata
     id="metadata5">
    <rdf:RDF>
      <cc:Work
         rdf:about="">
        <dc:format>image/svg+xml</dc:format>
        <dc:type
           rdf:resource="http://purl.org/dc/dcmitype/StillImage" />
        <dc:title />
      </cc:Work>
    </rdf:RDF>
  </metadata>
  <g
     inkscape:label="Capa 1"
     inkscape:groupmode="layer"
     id="layer1"
     transform="translate(0,-284.3)">
    <rect
       style="opacity:1;fill:#414d60;fill-opacity:1;fill-rule:nonzero;stroke:none;stroke-width:0.29205534;stroke-linecap:round;stroke-linejoin:miter;stroke-miterlimit:4;stroke-dasharray:none;stroke-dashoffset:0;stroke-opacity:0.8802817"
       id="rect817"
       width="8.7312498"
       height="11.377084"
       x="1.8520833"
       y="285.09375"
       ry="0.36506954" />
    <path
       style="fill:#ffffff;fill-opacity:0.23529412;fill-rule:evenodd;stroke:none;stroke-width:0.07301383px;stroke-linecap:butt;stroke-linejoin:miter;stroke-opacity:1"
       d="M 2.38125,285.62292 H 5.0270833 L 2.38125,288.26875 Z"
       id="path819"
       inkscape:connector-curvature="0"
       sodipodi:nodetypes="cccc" />
    <path
       style="fill:#ffffff;fill-opacity:1;stroke:none;stroke-width:1.0153712;stroke-linecap:round;stroke-linejoin:round;stroke-miterlimit:4;stroke-dasharray:none;stroke-dashoffset:0;stroke-opacity:1"
       d="m 6.8538448,288.59379 a 0.9594653,0.9594653 0 0 0 -0.9332764,0.91674 0.9594653,0.9594653 0 0 0 0.9146728,1.00098 0.9594653,0.9594653 0 0 0 1.0025229,-0.91261 v -0.007 a 0.9594653,0.9594653 0 0 0 -0.9177734,-0.99736 0.9594653,0.9594653 0 0 0 -0.066146,-5.2e-4 z m -1.5037842,0.29404 a 0.78147602,0.78147602 0 0 0 -0.7601603,0.74673 0.78147602,0.78147602 0 0 0 0.745174,0.81545 0.78147602,0.78147602 0 0 0 0.5555219,-0.19844 c -0.1520037,-0.19222 -0.2454061,-0.43153 -0.2346111,-0.67489 0.00819,-0.18529 0.072605,-0.37358 0.175183,-0.53847 a 0.78147602,0.78147602 0 0 0 -0.427364,-0.14986 0.78147602,0.78147602 0 0 0 -0.053744,-5.2e-4 z m 0.020671,1.83658 c -0.7003775,0 -1.4006849,0.59242 -1.5084351,1.77767 0.3406749,0.0681 0.6587543,0.11241 0.9699667,0.13746 0.1749357,-0.83552 0.597602,-1.47175 1.0970906,-1.78232 -0.1784903,-0.0876 -0.3682259,-0.13281 -0.5586222,-0.13281 z m 1.5084351,0.12403 c -0.8598959,0 -1.7197917,0.7276 -1.8520834,2.18281 1.3229167,0.26458 2.38125,0.26458 3.7041667,0 -0.1322917,-1.45521 -0.9921875,-2.18281 -1.8520833,-2.18281 z"
       id="path820"
       inkscape:connector-curvature="0" />
  </g>
</svg>
