<?xml version="1.0" encoding="UTF-8" standalone="no"?>
<!-- Created with Inkscape (http://www.inkscape.org/) -->

<svg
   xmlns:dc="http://purl.org/dc/elements/1.1/"
   xmlns:cc="http://creativecommons.org/ns#"
   xmlns:rdf="http://www.w3.org/1999/02/22-rdf-syntax-ns#"
   xmlns:svg="http://www.w3.org/2000/svg"
   xmlns="http://www.w3.org/2000/svg"
   xmlns:sodipodi="http://sodipodi.sourceforge.net/DTD/sodipodi-0.dtd"
   xmlns:inkscape="http://www.inkscape.org/namespaces/inkscape"
   width="48"
   height="48"
   viewBox="0 0 12.7 12.7"
   version="1.1"
   id="svg8"
   inkscape:version="0.92.3 (2405546, 2018-03-11)"
   sodipodi:docname="application-pkix-cert.svg">
  <defs
     id="defs2" />
  <sodipodi:namedview
     id="base"
     pagecolor="#ffffff"
     bordercolor="#666666"
     borderopacity="1.0"
     inkscape:pageopacity="0.0"
     inkscape:pageshadow="2"
     inkscape:zoom="11.2"
     inkscape:cx="-3.0108321"
     inkscape:cy="23.577794"
     inkscape:document-units="mm"
     inkscape:current-layer="layer1"
     showgrid="true"
     inkscape:window-width="1360"
     inkscape:window-height="732"
     inkscape:window-x="0"
     inkscape:window-y="0"
     inkscape:window-maximized="1"
     units="px">
    <inkscape:grid
       type="xygrid"
       id="grid815" />
  </sodipodi:namedview>
  <metadata
     id="metadata5">
    <rdf:RDF>
      <cc:Work
         rdf:about="">
        <dc:format>image/svg+xml</dc:format>
        <dc:type
           rdf:resource="http://purl.org/dc/dcmitype/StillImage" />
        <dc:title></dc:title>
      </cc:Work>
    </rdf:RDF>
  </metadata>
  <g
     inkscape:label="Capa 1"
     inkscape:groupmode="layer"
     id="layer1"
     transform="translate(0,-284.3)">
    <rect
       style="opacity:1;fill:#588772;fill-opacity:1;fill-rule:nonzero;stroke:none;stroke-width:0.29205534;stroke-linecap:round;stroke-linejoin:miter;stroke-miterlimit:4;stroke-dasharray:none;stroke-dashoffset:0;stroke-opacity:0.8802817"
       id="rect817"
       width="8.7312498"
       height="11.377084"
       x="1.8520833"
       y="285.09375"
       ry="0.36506954" />
    <path
       style="fill:#ffffff;fill-opacity:0.23529412;fill-rule:evenodd;stroke:none;stroke-width:0.07301383px;stroke-linecap:butt;stroke-linejoin:miter;stroke-opacity:1"
       d="M 2.38125,285.62292 H 5.0270833 L 2.38125,288.26875 Z"
       id="path819"
       inkscape:connector-curvature="0"
       sodipodi:nodetypes="cccc" />
    <path
       id="path919-7"
       d="m 6.3500003,288.67802 a 0.79375,0.79375 0 0 0 -0.7043497,0.42943 0.79375,0.79375 0 0 0 -0.221692,-0.0325 0.79375,0.79375 0 0 0 -0.79375,0.79375 0.79375,0.79375 0 0 0 0.032039,0.22117 0.79375,0.79375 0 0 0 -0.4289145,0.70482 0.79375,0.79375 0 0 0 0.4294312,0.70435 0.79375,0.79375 0 0 0 -0.032556,0.22169 0.79375,0.79375 0 0 0 0.79375,0.79375 0.79375,0.79375 0 0 0 0.1322917,-0.0124 v 1.20302 c 9.26e-5,0.23565 0.2849657,0.35364 0.4516519,0.18707 L 6.35,293.55007 l 0.342098,0.3421 c 0.1666862,0.16657 0.4515594,0.0486 0.451652,-0.18707 v -1.20302 a 0.79375,0.79375 0 0 0 0.1322916,0.0124 0.79375,0.79375 0 0 0 0.79375,-0.79375 0.79375,0.79375 0 0 0 -0.032039,-0.22118 0.79375,0.79375 0 0 0 0.4289144,-0.70486 0.79375,0.79375 0 0 0 -0.4294312,-0.70435 0.79375,0.79375 0 0 0 0.032556,-0.22169 0.79375,0.79375 0 0 0 -0.79375,-0.79375 0.79375,0.79375 0 0 0 -0.2211752,0.032 0.79375,0.79375 0 0 0 -0.7048663,-0.42888 z m 0,0.79375 a 1.3229167,1.3229167 0 0 1 1.3229166,1.32292 1.3229167,1.3229167 0 0 1 -1.3229166,1.32291 1.3229167,1.3229167 0 0 1 -1.3229167,-1.32291 1.3229167,1.3229167 0 0 1 1.3229167,-1.32292 z m 0,0.26458 a 1.0583333,1.0583333 0 0 0 -1.0583334,1.05834 1.0583333,1.0583333 0 0 0 1.0583334,1.05833 1.0583333,1.0583333 0 0 0 1.0583333,-1.05833 1.0583333,1.0583333 0 0 0 -1.0583333,-1.05834 z"
       style="fill:#ffffff;stroke-width:0.26458332"
       inkscape:connector-curvature="0" />
  </g>
</svg>
