<?xml version="1.0" encoding="UTF-8" standalone="no"?>
<!-- Created with Inkscape (http://www.inkscape.org/) -->

<svg
   xmlns:dc="http://purl.org/dc/elements/1.1/"
   xmlns:cc="http://creativecommons.org/ns#"
   xmlns:rdf="http://www.w3.org/1999/02/22-rdf-syntax-ns#"
   xmlns:svg="http://www.w3.org/2000/svg"
   xmlns="http://www.w3.org/2000/svg"
   xmlns:sodipodi="http://sodipodi.sourceforge.net/DTD/sodipodi-0.dtd"
   xmlns:inkscape="http://www.inkscape.org/namespaces/inkscape"
   width="48"
   height="48"
   viewBox="0 0 12.7 12.7"
   version="1.1"
   id="svg8"
   inkscape:version="0.92.2 (5c3e80d, 2017-08-06)"
   sodipodi:docname="application-x-cd-image.svg">
  <defs
     id="defs2" />
  <sodipodi:namedview
     id="base"
     pagecolor="#ffffff"
     bordercolor="#666666"
     borderopacity="1.0"
     inkscape:pageopacity="0.0"
     inkscape:pageshadow="2"
     inkscape:zoom="3.959798"
     inkscape:cx="16.167575"
     inkscape:cy="11.120798"
     inkscape:document-units="mm"
     inkscape:current-layer="layer1"
     showgrid="true"
     inkscape:window-width="1360"
     inkscape:window-height="718"
     inkscape:window-x="0"
     inkscape:window-y="24"
     inkscape:window-maximized="1"
     units="px">
    <inkscape:grid
       type="xygrid"
       id="grid815" />
  </sodipodi:namedview>
  <metadata
     id="metadata5">
    <rdf:RDF>
      <cc:Work
         rdf:about="">
        <dc:format>image/svg+xml</dc:format>
        <dc:type
           rdf:resource="http://purl.org/dc/dcmitype/StillImage" />
        <dc:title></dc:title>
      </cc:Work>
    </rdf:RDF>
  </metadata>
  <g
     inkscape:label="Capa 1"
     inkscape:groupmode="layer"
     id="layer1"
     transform="translate(0,-284.3)">
    <rect
       style="opacity:1;fill:#666666;fill-opacity:1;fill-rule:nonzero;stroke:none;stroke-width:0.29205534;stroke-linecap:round;stroke-linejoin:miter;stroke-miterlimit:4;stroke-dasharray:none;stroke-dashoffset:0;stroke-opacity:0.8802817"
       id="rect817"
       width="8.7312498"
       height="11.377084"
       x="1.8520833"
       y="285.09375"
       ry="0.36506954" />
    <path
       style="fill:#ffffff;fill-opacity:0.23529412;fill-rule:evenodd;stroke:none;stroke-width:0.07301383px;stroke-linecap:butt;stroke-linejoin:miter;stroke-opacity:1"
       d="M 2.38125,285.62292 H 5.0270833 L 2.38125,288.26875 Z"
       id="path819"
       inkscape:connector-curvature="0"
       sodipodi:nodetypes="cccc" />
    <path
       style="fill:#ffffff;fill-opacity:0.87730062;stroke:none;stroke-width:0.62315392;stroke-linecap:round;stroke-linejoin:round;stroke-miterlimit:4;stroke-dasharray:none;stroke-dashoffset:0;stroke-opacity:1"
       d="M 23.259766 13.007812 A 11.449732 11.449732 0 0 0 12.125 23.947266 A 11.449732 11.449732 0 0 0 23.039062 35.890625 A 11.449732 11.449732 0 0 0 35.001953 25 L 35.005859 24.916016 A 11.449732 11.449732 0 0 0 24.048828 13.013672 A 11.449732 11.449732 0 0 0 23.259766 13.007812 z M 23.431641 19.455078 A 4.9999998 4.9999998 0 0 1 23.775391 19.457031 A 4.9999998 4.9999998 0 0 1 28.560547 24.65625 L 28.558594 24.691406 A 4.9999998 4.9999998 0 0 1 23.333984 29.447266 A 4.9999998 4.9999998 0 0 1 18.570312 24.232422 A 4.9999998 4.9999998 0 0 1 23.431641 19.455078 z "
       transform="matrix(0.26458333,0,0,0.26458333,0,284.3)"
       id="path817" />
    <path
       style="fill:#ffffff;fill-opacity:0.41717792;stroke:none;stroke-width:0.68031496;stroke-linecap:round;stroke-linejoin:round;stroke-miterlimit:4;stroke-dasharray:none;stroke-dashoffset:0;stroke-opacity:1"
       d="M 23.404297 18.455078 A 5.9999999 5.9999999 0 0 0 17.570312 24.1875 A 5.9999999 5.9999999 0 0 0 23.289062 30.447266 A 5.9999999 5.9999999 0 0 0 29.558594 24.740234 L 29.560547 24.695312 A 5.9999999 5.9999999 0 0 0 23.818359 18.458984 A 5.9999999 5.9999999 0 0 0 23.404297 18.455078 z M 23.488281 21.59375 A 2.8611674 2.8611674 0 0 1 23.685547 21.59375 A 2.8611674 2.8611674 0 0 1 26.423828 24.568359 L 26.421875 24.589844 A 2.8611674 2.8611674 0 0 1 23.433594 27.310547 A 2.8611674 2.8611674 0 0 1 20.707031 24.326172 A 2.8611674 2.8611674 0 0 1 23.488281 21.59375 z "
       transform="matrix(0.26458333,0,0,0.26458333,0,284.3)"
       id="path825" />
  </g>
</svg>
