<?xml version="1.0" encoding="UTF-8" standalone="no"?>
<!-- Created with Inkscape (http://www.inkscape.org/) -->

<svg
   xmlns:dc="http://purl.org/dc/elements/1.1/"
   xmlns:cc="http://creativecommons.org/ns#"
   xmlns:rdf="http://www.w3.org/1999/02/22-rdf-syntax-ns#"
   xmlns:svg="http://www.w3.org/2000/svg"
   xmlns="http://www.w3.org/2000/svg"
   xmlns:sodipodi="http://sodipodi.sourceforge.net/DTD/sodipodi-0.dtd"
   xmlns:inkscape="http://www.inkscape.org/namespaces/inkscape"
   width="48"
   height="48"
   viewBox="0 0 12.7 12.7"
   version="1.1"
   id="svg8"
   inkscape:version="0.92.3 (2405546, 2018-03-11)"
   sodipodi:docname="application-x-sharedlib.svg">
  <defs
     id="defs2" />
  <sodipodi:namedview
     id="base"
     pagecolor="#ffffff"
     bordercolor="#666666"
     borderopacity="1.0"
     inkscape:pageopacity="0.0"
     inkscape:pageshadow="2"
     inkscape:zoom="16"
     inkscape:cx="18.984122"
     inkscape:cy="22.339382"
     inkscape:document-units="mm"
     inkscape:current-layer="layer1"
     showgrid="true"
     inkscape:window-width="1841"
     inkscape:window-height="1023"
     inkscape:window-x="79"
     inkscape:window-y="27"
     inkscape:window-maximized="1"
     units="px"
     inkscape:snap-grids="false">
    <inkscape:grid
       type="xygrid"
       id="grid815" />
  </sodipodi:namedview>
  <metadata
     id="metadata5">
    <rdf:RDF>
      <cc:Work
         rdf:about="">
        <dc:format>image/svg+xml</dc:format>
        <dc:type
           rdf:resource="http://purl.org/dc/dcmitype/StillImage" />
        <dc:title></dc:title>
      </cc:Work>
    </rdf:RDF>
  </metadata>
  <g
     inkscape:label="Capa 1"
     inkscape:groupmode="layer"
     id="layer1"
     transform="translate(0,-284.3)">
    <rect
       style="opacity:1;fill:#836e97;fill-opacity:1;fill-rule:nonzero;stroke:none;stroke-width:0.29205534;stroke-linecap:round;stroke-linejoin:miter;stroke-miterlimit:4;stroke-dasharray:none;stroke-dashoffset:0;stroke-opacity:0.8802817"
       id="rect817"
       width="8.7312498"
       height="11.377084"
       x="1.8520833"
       y="285.09375"
       ry="0.36506954" />
    <path
       style="fill:#ffffff;fill-opacity:0.23529412;fill-rule:evenodd;stroke:none;stroke-width:0.07301383px;stroke-linecap:butt;stroke-linejoin:miter;stroke-opacity:1"
       d="M 2.38125,285.62292 H 5.0270833 L 2.38125,288.26875 Z"
       id="path819"
       inkscape:connector-curvature="0"
       sodipodi:nodetypes="cccc" />
    <g
       id="g923"
       transform="matrix(0.01343535,0,0,0.01343535,3.0939647,288.2849)">
	<path
   inkscape:connector-curvature="0"
   d="m 476.84591,423.01328 h -80.975 l 28.668,-8.963 c 4.753,-1.48 8.643,-4.723 10.953,-9.129 2.31,-4.405 2.764,-9.448 1.279,-14.198 L 329.93391,48.831281 c -2.438,-7.822 -9.57,-13.077 -17.752,-13.077 -1.885,0 -3.758,0.288 -5.56,0.853 l -65.677,20.52 c -0.63,0.196 -1.24,0.426 -1.833,0.682 v -2.704 c 0,-10.263 -8.346,-18.613 -18.604,-18.613 h -69.24 c -4.392,0 -8.426,1.539 -11.611,4.094 -3.191,-2.555 -7.233,-4.094 -11.633,-4.094 H 58.700915 c -10.269,0 -18.625,8.35 -18.625,18.613 V 423.01328 H 0.84591472 c -3.86600002,0 -7.00000002,3.134 -7.00000002,7 0,3.866 3.134,7 7.00000002,7 H 476.84591 c 3.866,0 7,-3.134 7,-7 0,-3.866 -3.134,-7 -7,-7 z m -53.753,-24.592 c -0.572,1.092 -1.537,1.896 -2.725,2.265 l -65.67,20.531 c -0.448,0.141 -0.908,0.211 -1.368,0.211 -2.003,0 -3.82,-1.337 -4.418,-3.251 l -78.76,-252.064 74.492,-23.267 78.764,252.053 c 0.37,1.18 0.257,2.431 -0.315,3.522 z m -82.624,-268.937 -74.492,23.267 -8.518,-27.26 74.49,-23.271 z m -95.352,-58.991999 65.687,-20.523 c 0.452,-0.142 0.916,-0.214 1.378,-0.214 2.02,0 3.781,1.302 4.387,3.247 l 11.205,35.856 -74.49,23.270999 -11.195,-35.829999 c -0.759,-2.445 0.599,-5.049 3.028,-5.807 z m 90.668,352.520999 h -96.674 v -309.3 z m -189.122,-224.024 h 78.448 v 19.492 h -78.448 z m 78.449,-14 h -78.448 v -68.511 h 78.448 z m -92.449,-49.923 H 54.075915 v -18.588 h 78.586995 z m -78.586995,14 h 78.586995 v 18.599 H 54.075915 Z m 92.586995,83.415 h 78.448 v 190.533 h -78.448 z m 4.605,-181.988999 h 69.24 c 2.538,0 4.604,2.069 4.604,4.613 v 47.371999 h -78.448 V 55.106281 c -10e-4,-2.544 2.065,-4.614 4.604,-4.614 z m -92.566995,0 h 69.321995 c 2.559,0 4.64,2.069 4.64,4.613 V 102.47728 H 54.075915 V 55.106281 c 0,-2.544 2.076,-4.614 4.625,-4.614 z m -4.625,131.172999 h 78.586995 v 241.349 H 54.075915 Z"
   id="path921"
   style="opacity:1;fill:#e9ffff;fill-opacity:1" />

</g>
    <g
       id="g925"
       transform="matrix(0.01343535,0,0,0.01343535,3.176647,288.26836)">
</g>
    <g
       id="g927"
       transform="matrix(0.01343535,0,0,0.01343535,3.176647,288.26836)">
</g>
    <g
       id="g929"
       transform="matrix(0.01343535,0,0,0.01343535,3.176647,288.26836)">
</g>
    <g
       id="g931"
       transform="matrix(0.01343535,0,0,0.01343535,3.176647,288.26836)">
</g>
    <g
       id="g933"
       transform="matrix(0.01343535,0,0,0.01343535,3.176647,288.26836)">
</g>
    <g
       id="g935"
       transform="matrix(0.01343535,0,0,0.01343535,3.176647,288.26836)">
</g>
    <g
       id="g937"
       transform="matrix(0.01343535,0,0,0.01343535,3.176647,288.26836)">
</g>
    <g
       id="g939"
       transform="matrix(0.01343535,0,0,0.01343535,3.176647,288.26836)">
</g>
    <g
       id="g941"
       transform="matrix(0.01343535,0,0,0.01343535,3.176647,288.26836)">
</g>
    <g
       id="g943"
       transform="matrix(0.01343535,0,0,0.01343535,3.176647,288.26836)">
</g>
    <g
       id="g945"
       transform="matrix(0.01343535,0,0,0.01343535,3.176647,288.26836)">
</g>
    <g
       id="g947"
       transform="matrix(0.01343535,0,0,0.01343535,3.176647,288.26836)">
</g>
    <g
       id="g949"
       transform="matrix(0.01343535,0,0,0.01343535,3.176647,288.26836)">
</g>
    <g
       id="g951"
       transform="matrix(0.01343535,0,0,0.01343535,3.176647,288.26836)">
</g>
    <g
       id="g953"
       transform="matrix(0.01343535,0,0,0.01343535,3.176647,288.26836)">
</g>
  </g>
</svg>
