<?xml version="1.0" encoding="UTF-8" standalone="no"?>
<!-- Created with Inkscape (http://www.inkscape.org/) -->

<svg
   xmlns:dc="http://purl.org/dc/elements/1.1/"
   xmlns:cc="http://creativecommons.org/ns#"
   xmlns:rdf="http://www.w3.org/1999/02/22-rdf-syntax-ns#"
   xmlns:svg="http://www.w3.org/2000/svg"
   xmlns="http://www.w3.org/2000/svg"
   xmlns:xlink="http://www.w3.org/1999/xlink"
   xmlns:sodipodi="http://sodipodi.sourceforge.net/DTD/sodipodi-0.dtd"
   xmlns:inkscape="http://www.inkscape.org/namespaces/inkscape"
   width="48"
   height="48"
   viewBox="0 0 12.7 12.7"
   version="1.1"
   id="svg8"
   inkscape:version="0.92.2 (5c3e80d, 2017-08-06)"
   sodipodi:docname="application-x-deb.svg">
  <defs
     id="defs2">
    <linearGradient
       id="linearGradient3866">
      <stop
         style="stop-color:#000000;stop-opacity:0.52083331"
         offset="0"
         id="stop3868" />
      <stop
         style="stop-color:#2883c3;stop-opacity:0;"
         offset="1"
         id="stop3870" />
    </linearGradient>
    <linearGradient
       id="linearGradient3874">
      <stop
         style="stop-color:#000d0e;stop-opacity:0.84105963;"
         offset="0"
         id="stop3876" />
      <stop
         style="stop-color:#000000;stop-opacity:0;"
         offset="1"
         id="stop3878" />
    </linearGradient>
    <clipPath
       id="clipPath892"
       clipPathUnits="userSpaceOnUse">
      <path
         inkscape:connector-curvature="0"
         id="path894"
         d="M 38.524123,20.232391 V 51.2388 h 3.597154 V 20.232391 Z M 14.125746,21.0025 V 52.010565 H 17.7229 V 21.0025 Z M 5.9924018,21.259203 V 52.267267 H 9.591212 V 21.259203 Z m 24.3983772,1.37129 v 31.006409 h 3.597153 V 22.630493 Z m -20.330877,1.626338 v 31.008065 h 3.597154 V 24.256831 Z m 24.396721,0.08612 v 31.008065 h 3.598809 V 24.342951 Z M 1.9265577,25.798705 V 56.80677 H 5.5237118 V 25.798705 Z m 16.2650323,0.08612 v 31.008064 h 3.597155 V 25.884825 Z m 24.398377,0 v 31.008064 h 3.597154 V 25.884825 Z m -16.265033,2.22752 v 31.006408 h 3.597155 V 28.112345 Z M 22.25909,30.76715 v 31.008065 h 3.597155 V 30.76715 Z"
         style="fill:#ffffff;fill-opacity:0.25520833;stroke:none;stroke-width:1.52630627;stroke-linecap:round;stroke-linejoin:round;stroke-miterlimit:4;stroke-dasharray:none;stroke-opacity:1" />
    </clipPath>
    <clipPath
       clipPathUnits="userSpaceOnUse"
       id="clipPath3881">
      <path
         sodipodi:type="arc"
         style="fill:#008dff;fill-opacity:1;fill-rule:evenodd;stroke:none"
         id="path3883"
         sodipodi:cx="539.5"
         sodipodi:cy="152.5"
         sodipodi:rx="103.5"
         sodipodi:ry="103.5"
         d="m 643,152.5 a 103.5,103.5 0 1 1 -207,0 103.5,103.5 0 1 1 207,0 z"
         transform="translate(-412,-17)" />
    </clipPath>
    <linearGradient
       id="linearGradient4019">
      <stop
         offset="0"
         style="stop-color:#adcce1;stop-opacity:1;"
         id="stop4021" />
      <stop
         offset="0.26238"
         style="stop-color:#6bbfe1;stop-opacity:1;"
         id="stop4023" />
      <stop
         offset="0.74620908"
         style="stop-color:#2596d1;stop-opacity:1;"
         id="stop4025" />
      <stop
         offset="1"
         style="stop-color:#2372c0;stop-opacity:1;"
         id="stop4027" />
    </linearGradient>
    <linearGradient
       id="linearGradient4085">
      <stop
         offset="0"
         style="stop-color:#ffffff;stop-opacity:1"
         id="stop4087" />
      <stop
         offset="0.06316455"
         style="stop-color:#ffffff;stop-opacity:0.2"
         id="stop4089" />
      <stop
         offset="0.95056331"
         style="stop-color:#ffffff;stop-opacity:0.2"
         id="stop4091" />
      <stop
         offset="1"
         style="stop-color:#ffffff;stop-opacity:0.39215687"
         id="stop4093" />
    </linearGradient>
    <filter
       id="filter3174"
       color-interpolation-filters="sRGB">
      <feGaussianBlur
         stdDeviation="1.71"
         id="feGaussianBlur3176" />
    </filter>
    <linearGradient
       gradientTransform="scale(1.0058652,0.994169)"
       gradientUnits="userSpaceOnUse"
       id="ButtonShadow"
       y2="7.0165396"
       x2="45.447727"
       y1="92.539597"
       x1="45.447727">
      <stop
         offset="0"
         style="stop-color:#000000;stop-opacity:1"
         id="stop3750" />
      <stop
         offset="1"
         style="stop-color:#000000;stop-opacity:0.58823532"
         id="stop3752" />
    </linearGradient>
    <linearGradient
       id="linearGradient5048-8-7">
      <stop
         offset="0"
         style="stop-color:#000000;stop-opacity:0"
         id="stop5050-4-2" />
      <stop
         offset="0.5"
         style="stop-color:#000000;stop-opacity:1"
         id="stop5056-7-4" />
      <stop
         offset="1"
         style="stop-color:#000000;stop-opacity:0"
         id="stop5052-0-1-7" />
    </linearGradient>
    <linearGradient
       id="linearGradient5060-29-0">
      <stop
         offset="0"
         style="stop-color:#000000;stop-opacity:1"
         id="stop5062-9-7" />
      <stop
         offset="1"
         style="stop-color:#000000;stop-opacity:0"
         id="stop5064-08-2" />
    </linearGradient>
    <linearGradient
       id="linearGradient3851">
      <stop
         id="stop3853"
         style="stop-color:#5b8da7;stop-opacity:1;"
         offset="0" />
      <stop
         id="stop3855"
         style="stop-color:#1c3447;stop-opacity:1;"
         offset="1" />
    </linearGradient>
    <filter
       id="filter3174-0"
       color-interpolation-filters="sRGB">
      <feGaussianBlur
         stdDeviation="1.71"
         id="feGaussianBlur3176-9" />
    </filter>
    <clipPath
       id="clipPath916"
       clipPathUnits="userSpaceOnUse">
      <g
         id="g920"
         inkscape:label="circulo"
         style="display:inline;opacity:0.98999999;fill:#126136;fill-opacity:1"
         transform="matrix(1.1503549,0,0,1.1503549,-4.4861245,-7.5255648)">
        <path
           style="fill:#126136;fill-opacity:1;stroke:none;stroke-width:1.4909519"
           d="M 44.322082,27.405077 A 19.729762,19.729765 0 0 1 24.59232,47.134842 19.729762,19.729765 0 0 1 4.8625579,27.405077 19.729762,19.729765 0 0 1 24.59232,7.6753138 19.729762,19.729765 0 0 1 44.322082,27.405077 Z"
           id="path918"
           inkscape:connector-curvature="0" />
      </g>
    </clipPath>
    <clipPath
       clipPathUnits="userSpaceOnUse"
       id="clipPath3866">
      <path
         d="m 1444,449 a 312,312 0 1 1 -624,0 312,312 0 1 1 624,0 z"
         sodipodi:ry="312"
         sodipodi:rx="312"
         sodipodi:cy="449"
         sodipodi:cx="1132"
         id="path3868"
         style="fill:#44abb1;fill-opacity:1;fill-rule:evenodd;stroke:none"
         sodipodi:type="arc"
         transform="matrix(0.68724124,0,0,0.68724124,-521.35527,-47.661719)" />
    </clipPath>
    <linearGradient
       inkscape:collect="always"
       id="linearGradient4118">
      <stop
         style="stop-color:#0eb474;stop-opacity:1;"
         offset="0"
         id="stop4120" />
      <stop
         style="stop-color:#0eb474;stop-opacity:0;"
         offset="1"
         id="stop4122" />
    </linearGradient>
    <linearGradient
       id="linearGradient3837"
       inkscape:collect="always">
      <stop
         id="stop3839"
         offset="0"
         style="stop-color:#7db257;stop-opacity:1;" />
      <stop
         id="stop3841"
         offset="1"
         style="stop-color:#7db257;stop-opacity:0;" />
    </linearGradient>
    <linearGradient
       gradientUnits="userSpaceOnUse"
       y2="356.66208"
       x2="316.05505"
       y1="546.63525"
       x1="502.83536"
       id="linearGradient3843"
       xlink:href="#linearGradient3837"
       inkscape:collect="always" />
    <clipPath
       id="clipPath3847"
       clipPathUnits="userSpaceOnUse">
      <path
         sodipodi:type="arc"
         style="fill:url(#linearGradient3843);fill-opacity:1;fill-rule:evenodd;stroke:none"
         id="path3849"
         sodipodi:cx="322.4407"
         sodipodi:cy="342.29437"
         sodipodi:rx="260.2153"
         sodipodi:ry="260.2153"
         d="m 582.65601,342.29437 a 260.2153,260.2153 0 1 1 -520.430607,0 260.2153,260.2153 0 1 1 520.430607,0 z"
         transform="matrix(0.88586957,0,0,0.88586957,-24.010886,495.98978)" />
    </clipPath>
    <clipPath
       clipPathUnits="userSpaceOnUse"
       id="clipPath3344">
      <path
         transform="matrix(0.09964174,0,0,0.09964174,-8.1283951,-10.106867)"
         d="m 582.65601,342.29437 a 260.2153,260.2153 0 1 1 -520.430607,0 260.2153,260.2153 0 1 1 520.430607,0 z"
         sodipodi:ry="260.2153"
         sodipodi:rx="260.2153"
         sodipodi:cy="342.29437"
         sodipodi:cx="322.4407"
         id="path3346"
         style="fill:#0eb474;fill-opacity:1;fill-rule:evenodd;stroke:none"
         sodipodi:type="arc" />
    </clipPath>
    <linearGradient
       inkscape:collect="always"
       xlink:href="#linearGradient4118"
       id="linearGradient4124"
       x1="62.225403"
       y1="342.29437"
       x2="582.65601"
       y2="342.29437"
       gradientUnits="userSpaceOnUse" />
    <linearGradient
       id="linearGradient3764"
       x1="1"
       x2="47"
       gradientUnits="userSpaceOnUse"
       gradientTransform="matrix(0,-1,1,0,-1.5e-6,47.999998)">
      <stop
         style="stop-color:#7ca339;stop-opacity:1"
         id="stop882" />
      <stop
         offset="1"
         style="stop-color:#87b23e;stop-opacity:1"
         id="stop884" />
    </linearGradient>
  </defs>
  <sodipodi:namedview
     id="base"
     pagecolor="#ffffff"
     bordercolor="#666666"
     borderopacity="1.0"
     inkscape:pageopacity="0.0"
     inkscape:pageshadow="2"
     inkscape:zoom="2.8"
     inkscape:cx="-46.101476"
     inkscape:cy="17.470238"
     inkscape:document-units="mm"
     inkscape:current-layer="layer1"
     showgrid="true"
     inkscape:window-width="1360"
     inkscape:window-height="718"
     inkscape:window-x="0"
     inkscape:window-y="24"
     inkscape:window-maximized="1"
     units="px">
    <inkscape:grid
       type="xygrid"
       id="grid815" />
  </sodipodi:namedview>
  <metadata
     id="metadata5">
    <rdf:RDF>
      <cc:Work
         rdf:about="">
        <dc:format>image/svg+xml</dc:format>
        <dc:type
           rdf:resource="http://purl.org/dc/dcmitype/StillImage" />
        <dc:title></dc:title>
      </cc:Work>
    </rdf:RDF>
  </metadata>
  <g
     inkscape:label="Capa 1"
     inkscape:groupmode="layer"
     id="layer1"
     transform="translate(0,-284.3)">
    <rect
       style="opacity:1;fill:#d19696;fill-opacity:1;fill-rule:nonzero;stroke:none;stroke-width:0.29205534;stroke-linecap:round;stroke-linejoin:miter;stroke-miterlimit:4;stroke-dasharray:none;stroke-dashoffset:0;stroke-opacity:0.8802817"
       id="rect817"
       width="8.7312498"
       height="11.377084"
       x="1.8520833"
       y="285.09375"
       ry="0.36506954" />
    <path
       style="fill:#ffffff;fill-opacity:0.23529412;fill-rule:evenodd;stroke:none;stroke-width:0.07301383px;stroke-linecap:butt;stroke-linejoin:miter;stroke-opacity:1"
       d="M 2.38125,285.62292 H 5.0270833 L 2.38125,288.26875 Z"
       id="path819"
       inkscape:connector-curvature="0"
       sodipodi:nodetypes="cccc" />
    <path
       style="fill:#ffffff;fill-opacity:1;stroke:none;stroke-width:0.17999999;stroke-linecap:round;stroke-linejoin:round;stroke-miterlimit:4;stroke-dasharray:none;stroke-dashoffset:0;stroke-opacity:1"
       d="m 4.8508665,287.53339 v 0.43977 a 1.8531416,1.8531416 0 0 0 -0.6009968,0.25011 l -0.3116087,-0.3116 -0.5612062,0.5612 0.3116088,0.31161 a 1.8531416,1.8531416 0 0 0 -0.2490803,0.601 H 2.9987832 v 0.79375 h 0.4397666 a 1.8531416,1.8531416 0 0 0 0.2501138,0.60099 l -0.3116088,0.31161 0.5612062,0.56121 0.311092,-0.31109 a 1.8531416,1.8531416 0 0 0 0.6015135,0.24856 v 0.4408 h 0.79375 v -0.43977 a 1.8531416,1.8531416 0 0 0 0.6009971,-0.25011 l 0.3116088,0.31161 0.5612061,-0.56121 -0.3110921,-0.31109 A 1.8531416,1.8531416 0 0 0 7.0559,290.17923 h 0.4407998 v -0.79375 H 7.0569335 a 1.8531416,1.8531416 0 0 0 -0.2501141,-0.601 l 0.3116091,-0.31161 -0.5612061,-0.5612 -0.3116088,0.3116 a 1.8531416,1.8531416 0 0 0 -0.6009971,-0.24908 v -0.4408 z m 0.3617352,0.92605 a 1.3234591,1.3234591 0 0 1 0.090951,5.1e-4 1.3234591,1.3234591 0 0 1 1.2665893,1.37615 l -5.168e-4,0.009 a 1.3234591,1.3234591 0 0 1 -1.3828612,1.25884 1.3234591,1.3234591 0 0 1 -1.2614216,-1.38028 1.3234591,1.3234591 0 0 1 1.2872598,-1.26452 z"
       id="rect984"
       inkscape:connector-curvature="0" />
    <path
       style="fill:#ffffff;fill-opacity:1;stroke:none;stroke-width:0.17999999;stroke-linecap:round;stroke-linejoin:round;stroke-miterlimit:4;stroke-dasharray:none;stroke-dashoffset:0;stroke-opacity:1"
       d="m 8.1509237,290.41539 v 0.29455 a 1.1906249,1.1906249 0 0 0 -0.3684532,0.15348 l -0.2087727,-0.20877 -0.3741372,0.37414 0.2087726,0.20877 A 1.1906249,1.1906249 0 0 0 7.255371,291.60601 H 6.9602987 v 0.52917 h 0.2945556 a 1.1906249,1.1906249 0 0 0 0.1534789,0.36845 l -0.2087726,0.20878 0.3741372,0.37413 0.2087727,-0.20877 a 1.1906249,1.1906249 0 0 0 0.3684532,0.15296 v 0.29508 h 0.5291666 v -0.29456 a 1.1906249,1.1906249 0 0 0 0.3679362,-0.154 l 0.2092894,0.20929 0.3741375,-0.37413 -0.2082562,-0.20826 a 1.1906249,1.1906249 0 0 0 0.1524455,-0.36897 h 0.2950726 v -0.52917 H 9.5761594 a 1.1906249,1.1906249 0 0 0 -0.1534789,-0.36845 l 0.2087729,-0.20877 -0.3741375,-0.37414 -0.2087727,0.20877 a 1.1906249,1.1906249 0 0 0 -0.3684529,-0.15296 v -0.29507 z m 0.2433957,0.66146 a 0.79386204,0.79386204 0 0 1 0.054777,5.1e-4 0.79386204,0.79386204 0 0 1 0.7596437,0.82528 l -5.17e-4,0.006 a 0.79386204,0.79386204 0 0 1 -0.8294066,0.75551 0.79386204,0.79386204 0 0 1 -0.756543,-0.82837 0.79386204,0.79386204 0 0 1 0.7720457,-0.75861 z"
       id="rect988"
       inkscape:connector-curvature="0" />
  </g>
</svg>
