<?xml version="1.0" encoding="UTF-8" standalone="no"?>
<!-- Created with Inkscape (http://www.inkscape.org/) -->

<svg
   xmlns:dc="http://purl.org/dc/elements/1.1/"
   xmlns:cc="http://creativecommons.org/ns#"
   xmlns:rdf="http://www.w3.org/1999/02/22-rdf-syntax-ns#"
   xmlns:svg="http://www.w3.org/2000/svg"
   xmlns="http://www.w3.org/2000/svg"
   xmlns:sodipodi="http://sodipodi.sourceforge.net/DTD/sodipodi-0.dtd"
   xmlns:inkscape="http://www.inkscape.org/namespaces/inkscape"
   width="48"
   height="48"
   viewBox="0 0 12.7 12.7"
   version="1.1"
   id="svg8"
   inkscape:version="0.92.2 (5c3e80d, 2017-08-06)"
   sodipodi:docname="gdsheet.svg">
  <defs
     id="defs2" />
  <sodipodi:namedview
     id="base"
     pagecolor="#ffffff"
     bordercolor="#666666"
     borderopacity="1.0"
     inkscape:pageopacity="0.0"
     inkscape:pageshadow="2"
     inkscape:zoom="3.7712362"
     inkscape:cx="17.861739"
     inkscape:cy="25.24037"
     inkscape:document-units="mm"
     inkscape:current-layer="layer1"
     showgrid="true"
     inkscape:window-width="1360"
     inkscape:window-height="718"
     inkscape:window-x="0"
     inkscape:window-y="24"
     inkscape:window-maximized="1"
     units="px">
    <inkscape:grid
       type="xygrid"
       id="grid815" />
  </sodipodi:namedview>
  <metadata
     id="metadata5">
    <rdf:RDF>
      <cc:Work
         rdf:about="">
        <dc:format>image/svg+xml</dc:format>
        <dc:type
           rdf:resource="http://purl.org/dc/dcmitype/StillImage" />
        <dc:title></dc:title>
      </cc:Work>
    </rdf:RDF>
  </metadata>
  <g
     inkscape:label="Capa 1"
     inkscape:groupmode="layer"
     id="layer1"
     transform="translate(0,-284.3)">
    <rect
       style="opacity:1;fill:#a7ac93;fill-opacity:1;fill-rule:nonzero;stroke:none;stroke-width:0.29205534;stroke-linecap:round;stroke-linejoin:miter;stroke-miterlimit:4;stroke-dasharray:none;stroke-dashoffset:0;stroke-opacity:0.8802817"
       id="rect817"
       width="8.7312498"
       height="11.377084"
       x="1.8520833"
       y="285.09375"
       ry="0.36506954" />
    <path
       style="fill:#ffffff;fill-opacity:0.23529412;fill-rule:evenodd;stroke:none;stroke-width:0.07301383px;stroke-linecap:butt;stroke-linejoin:miter;stroke-opacity:1"
       d="M 2.38125,285.62292 H 5.0270833 L 2.38125,288.26875 Z"
       id="path819"
       inkscape:connector-curvature="0"
       sodipodi:nodetypes="cccc" />
    <path
       style="color:#000000;font-style:normal;font-variant:normal;font-weight:normal;font-stretch:normal;font-size:medium;line-height:normal;font-family:sans-serif;font-variant-ligatures:normal;font-variant-position:normal;font-variant-caps:normal;font-variant-numeric:normal;font-variant-alternates:normal;font-feature-settings:normal;text-indent:0;text-align:start;text-decoration:none;text-decoration-line:none;text-decoration-style:solid;text-decoration-color:#000000;letter-spacing:normal;word-spacing:normal;text-transform:none;writing-mode:lr-tb;direction:ltr;text-orientation:mixed;dominant-baseline:auto;baseline-shift:baseline;text-anchor:start;white-space:normal;shape-padding:0;clip-rule:nonzero;display:inline;overflow:visible;visibility:visible;opacity:1;isolation:auto;mix-blend-mode:normal;color-interpolation:sRGB;color-interpolation-filters:linearRGB;solid-color:#000000;solid-opacity:1;vector-effect:none;fill:#ffffff;fill-opacity:1;fill-rule:nonzero;stroke:none;stroke-width:1.88976383;stroke-linecap:butt;stroke-linejoin:miter;stroke-miterlimit:4;stroke-dasharray:none;stroke-dashoffset:0;stroke-opacity:1;color-rendering:auto;image-rendering:auto;shape-rendering:auto;text-rendering:auto;enable-background:accumulate"
       d="M 11.058594 15.054688 L 11.058594 16 L 11.058594 34.941406 L 35.943359 34.941406 L 35.943359 15.054688 L 11.058594 15.054688 z M 12.947266 16.945312 L 16.498047 16.945312 L 16.498047 20.501953 L 13 20.501953 L 12.947266 20.501953 L 12.947266 16.945312 z M 17.501953 16.945312 L 34.052734 16.945312 L 34.052734 20.501953 L 34.001953 20.501953 L 17.501953 20.501953 L 17.501953 16.945312 z M 12.947266 21.498047 L 13 21.498047 L 16.498047 21.498047 L 16.498047 24.496094 L 13 24.496094 L 12.947266 24.496094 L 12.947266 21.498047 z M 17.501953 21.498047 L 34.001953 21.498047 L 34.052734 21.498047 L 34.052734 24.496094 L 34.001953 24.496094 L 17.501953 24.496094 L 17.501953 21.498047 z M 12.947266 25.5 L 13 25.5 L 16.498047 25.5 L 16.498047 28.496094 L 13 28.496094 L 12.947266 28.496094 L 12.947266 25.5 z M 17.501953 25.5 L 34.001953 25.5 L 34.052734 25.5 L 34.052734 28.496094 L 34.001953 28.496094 L 17.501953 28.496094 L 17.501953 25.5 z M 12.947266 29.501953 L 13 29.501953 L 16.498047 29.501953 L 16.498047 33.050781 L 12.947266 33.050781 L 12.947266 29.501953 z M 17.501953 29.501953 L 34.001953 29.501953 L 34.052734 29.501953 L 34.052734 33.050781 L 17.501953 33.050781 L 17.501953 29.501953 z "
       transform="matrix(0.26458333,0,0,0.26458333,0,284.3)"
       id="path880" />
  </g>
</svg>
