<?xml version="1.0" encoding="UTF-8" standalone="no"?>
<!-- Created with Inkscape (http://www.inkscape.org/) -->

<svg
   xmlns:dc="http://purl.org/dc/elements/1.1/"
   xmlns:cc="http://creativecommons.org/ns#"
   xmlns:rdf="http://www.w3.org/1999/02/22-rdf-syntax-ns#"
   xmlns:svg="http://www.w3.org/2000/svg"
   xmlns="http://www.w3.org/2000/svg"
   xmlns:sodipodi="http://sodipodi.sourceforge.net/DTD/sodipodi-0.dtd"
   xmlns:inkscape="http://www.inkscape.org/namespaces/inkscape"
   width="48"
   height="48"
   viewBox="0 0 12.7 12.7"
   version="1.1"
   id="svg8"
   inkscape:version="0.92.3 (2405546, 2018-03-11)"
   sodipodi:docname="text-x-c++src.svg">
  <defs
     id="defs2" />
  <sodipodi:namedview
     id="base"
     pagecolor="#ffffff"
     bordercolor="#666666"
     borderopacity="1.0"
     inkscape:pageopacity="0.0"
     inkscape:pageshadow="2"
     inkscape:zoom="14.222222"
     inkscape:cx="7.6148738"
     inkscape:cy="24.895087"
     inkscape:document-units="mm"
     inkscape:current-layer="layer1"
     showgrid="true"
     inkscape:window-width="1841"
     inkscape:window-height="1023"
     inkscape:window-x="79"
     inkscape:window-y="27"
     inkscape:window-maximized="1"
     units="px"
     inkscape:measure-start="0,0"
     inkscape:measure-end="0,0">
    <inkscape:grid
       type="xygrid"
       id="grid815" />
  </sodipodi:namedview>
  <metadata
     id="metadata5">
    <rdf:RDF>
      <cc:Work
         rdf:about="">
        <dc:format>image/svg+xml</dc:format>
        <dc:type
           rdf:resource="http://purl.org/dc/dcmitype/StillImage" />
        <dc:title />
      </cc:Work>
    </rdf:RDF>
  </metadata>
  <g
     inkscape:label="Capa 1"
     inkscape:groupmode="layer"
     id="layer1"
     transform="translate(0,-284.3)">
    <rect
       style="opacity:1;fill:#808080;fill-opacity:1;fill-rule:nonzero;stroke:none;stroke-width:0.29205534;stroke-linecap:round;stroke-linejoin:miter;stroke-miterlimit:4;stroke-dasharray:none;stroke-dashoffset:0;stroke-opacity:0.8802817"
       id="rect817"
       width="8.7312498"
       height="11.377084"
       x="1.8520833"
       y="285.09375"
       ry="0.36506954" />
    <path
       style="fill:#ffffff;fill-opacity:0.23529412;fill-rule:evenodd;stroke:none;stroke-width:0.07301383px;stroke-linecap:butt;stroke-linejoin:miter;stroke-opacity:1"
       d="M 2.38125,285.62292 H 5.0270833 L 2.38125,288.26875 Z"
       id="path819"
       inkscape:connector-curvature="0"
       sodipodi:nodetypes="cccc" />
    <path
       style="color:#000000;font-style:normal;font-variant:normal;font-weight:normal;font-stretch:normal;font-size:medium;line-height:normal;font-family:sans-serif;font-variant-ligatures:normal;font-variant-position:normal;font-variant-caps:normal;font-variant-numeric:normal;font-variant-alternates:normal;font-feature-settings:normal;text-indent:0;text-align:start;text-decoration:none;text-decoration-line:none;text-decoration-style:solid;text-decoration-color:#000000;letter-spacing:normal;word-spacing:normal;text-transform:none;writing-mode:lr-tb;direction:ltr;text-orientation:mixed;dominant-baseline:auto;baseline-shift:baseline;text-anchor:start;white-space:normal;shape-padding:0;clip-rule:nonzero;display:inline;overflow:visible;visibility:visible;opacity:1;isolation:auto;mix-blend-mode:normal;color-interpolation:sRGB;color-interpolation-filters:linearRGB;solid-color:#000000;solid-opacity:1;vector-effect:none;fill:#ffffff;fill-opacity:1;fill-rule:nonzero;stroke:none;stroke-width:0.8073765;stroke-linecap:butt;stroke-linejoin:round;stroke-miterlimit:4;stroke-dasharray:none;stroke-dashoffset:0;stroke-opacity:1;color-rendering:auto;image-rendering:auto;shape-rendering:auto;text-rendering:auto;enable-background:accumulate"
       d="m 4.8119497,288.56951 c -0.4354415,-0.0459 -0.8392166,0.16172 -1.1006813,0.46676 -0.5229296,0.61009 -0.696993,1.56527 -0.696993,2.53252 0,0.96724 0.1831942,1.94405 0.6843777,2.59559 0.2505918,0.32576 0.6221358,0.57445 1.0596817,0.5866 0.4375459,0.0122 0.8791883,-0.1929 1.326179,-0.5803 l -0.5282639,-0.61026 c -0.3540781,0.30686 -0.4123154,0.38772 -0.5755711,0.38319 -0.1632557,-0.005 -0.2915914,-0.0763 -0.4415341,-0.27123 -0.2998853,-0.38985 -0.5172255,-1.25508 -0.5172255,-2.10359 0,-0.84851 0.224894,-1.68291 0.5030334,-2.00741 0.1390696,-0.16225 0.2367511,-0.20668 0.4021113,-0.18923 0.1653602,0.0174 0.2462119,0.14371 0.6086862,0.50619 L 6.1065905,289.3075 C 5.667996,288.86891 5.2473912,288.61547 4.8119497,288.56951 Z"
       id="path977"
       inkscape:connector-curvature="0"
       sodipodi:nodetypes="cssscccccsccccc" />
    <path
       style="fill:#506d60;fill-opacity:1;stroke-width:0.0703125"
       d="M 8.2332476,45.9669 C 8.1945758,45.953774 8.0765037,45.923991 7.9708653,45.900713 7.7322879,45.848143 7.3162059,45.48953 7.1573902,45.199595 7.0459025,44.996062 7.0366155,43.628536 7.0181494,24.69636 7.0038605,10.046673 7.0199796,4.3233015 7.0761711,4.0947968 7.179159,3.6759927 7.4477577,3.3360428 7.8032102,3.1746253 8.0830204,3.0475583 8.6041928,3.0431465 23.51144,3.0416535 c 15.166432,-0.00152 15.42323,7.072e-4 15.688421,0.1359976 0.337942,0.172405 0.612722,0.4944069 0.710349,0.8324238 0.05289,0.1831083 0.06911,6.3185111 0.05461,20.6511281 l -0.02063,20.390626 -0.164323,0.264294 c -0.09038,0.145361 -0.311861,0.351025 -0.492187,0.457031 l -0.327865,0.192737 -15.328126,0.01244 c -8.430468,0.0068 -15.3597655,0.0017 -15.3984374,-0.01143 z M 18.952174,39.457688 c 1.104482,-0.179199 2.213635,-0.704973 3.433466,-1.627574 0.56902,-0.430369 0.640991,-0.508134 0.563172,-0.608512 -0.04907,-0.0633 -0.4985,-0.589695 -0.998729,-1.169773 -0.500231,-0.580078 -0.917744,-1.065844 -0.927807,-1.079479 -0.01006,-0.01364 -0.284951,0.212452 -0.61086,0.502416 -0.900817,0.801462 -1.119769,0.928002 -1.594551,0.921552 -1.59453,-0.02166 -2.88908,-2.507532 -3.45655,-6.637458 -0.120529,-0.877176 -0.122258,-3.551608 -0.0029,-4.5 0.362604,-2.881433 1.241059,-5.113374 2.290008,-5.81836 0.280801,-0.188723 0.407178,-0.228515 0.725734,-0.228515 0.217397,0 0.497755,0.05256 0.642444,0.120445 0.141196,0.06625 0.628562,0.501113 1.083036,0.966374 l 0.826316,0.845928 1.107277,-1.11203 1.107279,-1.112029 -0.457031,-0.422047 C 21.599773,17.498808 20.431059,16.7437 19.39341,16.373562 c -0.578508,-0.206358 -0.671104,-0.218804 -1.632818,-0.219468 -0.888879,-6.33e-4 -1.0781,0.02018 -1.476563,0.162255 -2.160326,0.770281 -3.754624,3.060924 -4.461891,6.410718 -0.333078,1.577545 -0.415177,2.485621 -0.419606,4.641168 -0.0025,1.238066 0.03107,2.299493 0.08797,2.777344 0.508682,4.272485 1.88108,7.214401 3.993939,8.561535 1.130025,0.720489 2.211041,0.95447 3.467735,0.750574 z M 13.998873,10.001047 18.990689,5.0088594 h -5.00958 -5.0095801 v 4.9921876 c 0,2.745703 0.00799,4.992188 0.017764,4.992188 0.00977,0 2.2640811,-2.246485 5.0095801,-4.992188 z"
       id="path13"
       inkscape:connector-curvature="0"
       transform="matrix(0.26458333,0,0,0.26458333,0,284.3)" />
    <path
       style="fill:#65897a;fill-opacity:1;stroke:none;stroke-width:0.01757812"
       d="M 9.0057577,9.9997427 V 5.0208122 h 4.9746093 c 2.736035,0 4.97461,0.002 4.97461,0.00444 0,0.00244 -2.238575,2.2429591 -4.97461,4.9789308 l -4.9746093,4.974493 z"
       id="path831"
       inkscape:connector-curvature="0"
       transform="matrix(0.26458333,0,0,0.26458333,0,284.3)" />
    <g
       aria-label="++"
       style="font-style:normal;font-weight:normal;font-size:10.58333302px;line-height:1.25;font-family:sans-serif;letter-spacing:0px;word-spacing:0px;fill:#000000;fill-opacity:1;stroke:none;stroke-width:0.26458332"
       id="text835"
       transform="translate(-0.07118623,-0.37412)">
      <path
         d="m 6.1566029,291.02412 v 0.90261 h 0.8991699 v 0.40653 H 6.1566029 v 0.90261 H 5.7466366 v -0.90261 H 4.8474667 v -0.40653 h 0.8991699 v -0.90261 z"
         style="font-style:normal;font-variant:normal;font-weight:bold;font-stretch:normal;font-size:3.52777767px;font-family:sans-serif;-inkscape-font-specification:'sans-serif, Bold';font-variant-ligatures:normal;font-variant-caps:normal;font-variant-numeric:normal;font-feature-settings:normal;text-align:start;writing-mode:lr-tb;text-anchor:start;fill:#ffffff;fill-opacity:1;stroke-width:0.26458332"
         id="path820"
         inkscape:connector-curvature="0" />
      <path
         d="m 9.1124948,291.02412 v 0.90261 h 0.8991702 v 0.40653 H 9.1124948 v 0.90261 H 8.7025284 v -0.90261 H 7.8033585 v -0.40653 h 0.8991699 v -0.90261 z"
         style="font-style:normal;font-variant:normal;font-weight:bold;font-stretch:normal;font-size:3.52777767px;font-family:sans-serif;-inkscape-font-specification:'sans-serif, Bold';font-variant-ligatures:normal;font-variant-caps:normal;font-variant-numeric:normal;font-feature-settings:normal;text-align:start;writing-mode:lr-tb;text-anchor:start;fill:#ffffff;fill-opacity:1;stroke-width:0.26458332"
         id="path822"
         inkscape:connector-curvature="0" />
    </g>
  </g>
</svg>
