<svg height="16.15" width="16" xmlns="http://www.w3.org/2000/svg"><g color="#000" fill="#5d656b" font-family="sans-serif" font-weight="400"><path d="M2 10.15v.86c0 2.831 2.695 5.14 6 5.14s6-2.309 6-5.14v-.86H6zm1 .857h3v.003c0 .941.902 1.713 2 1.713 1.099 0 2-.772 2-1.713v-.003h3v.003c0 2.37-2.232 4.283-5 4.283-2.767 0-5-1.912-5-4.283zm4 0h2v.003c0 .478-.442.857-1 .857s-1-.379-1-.857z" overflow="visible" style="line-height:normal;font-variant-ligatures:normal;font-variant-position:normal;font-variant-caps:normal;font-variant-numeric:normal;font-variant-alternates:normal;font-feature-settings:normal;text-indent:0;text-align:start;text-decoration-line:none;text-decoration-style:solid;text-decoration-color:#000;text-transform:none;text-orientation:mixed;shape-padding:0;isolation:auto;mix-blend-mode:normal"/><path d="M2.48 1.007s-.34.009-.69.197a1.564 1.564 0 0 0-.788 1.27v-.03l-1 8a.5.5 0 0 0 0 .145l.25 1.5c.036.22.123.433.29.611a.987.987 0 0 0 .702.307h1.25a.5.5 0 1 0 0-1H1.27c-.01-.01-.023-.035-.031-.082L1 10.497l.99-7.927a.5.5 0 0 0 0-.03c.023-.322.13-.382.262-.453.132-.07.258-.08.258-.08H13.5a.5.5 0 0 0 .035-.002s.11-.002.223.053c.112.054.22.094.244.48a.5.5 0 0 0 0 .031l.99 7.928-.236 1.428c-.01.047-.027.072-.033.082H13.5a.5.5 0 1 0 0 1h1.25a.987.987 0 0 0 .703-.307c.166-.178.255-.392.291-.611l.25-1.5a.5.5 0 0 0 0-.145L15 2.476c-.042-.678-.435-1.139-.807-1.319-.371-.18-.726-.148-.726-.148l.033-.002h-11a.5.5 0 0 0-.02 0z" fill-rule="evenodd" overflow="visible" style="line-height:normal;font-variant-ligatures:normal;font-variant-position:normal;font-variant-caps:normal;font-variant-numeric:normal;font-variant-alternates:normal;font-feature-settings:normal;text-indent:0;text-align:start;text-decoration-line:none;text-decoration-style:solid;text-decoration-color:#000;text-transform:none;text-orientation:mixed;shape-padding:0;isolation:auto;mix-blend-mode:normal"/><path d="M.5 10.007v2h2v-2zm13 0v2h2v-2z" fill-rule="evenodd" overflow="visible" style="line-height:normal;font-variant-ligatures:normal;font-variant-position:normal;font-variant-caps:normal;font-variant-numeric:normal;font-variant-alternates:normal;font-feature-settings:normal;text-indent:0;text-align:start;text-decoration-line:none;text-decoration-style:solid;text-decoration-color:#000;text-transform:none;text-orientation:mixed;shape-padding:0;isolation:auto;mix-blend-mode:normal"/><path d="M2 10.007v1h12v-1z" fill-rule="evenodd" overflow="visible" style="line-height:normal;font-variant-ligatures:normal;font-variant-position:normal;font-variant-caps:normal;font-variant-numeric:normal;font-variant-alternates:normal;font-feature-settings:normal;text-indent:0;text-align:start;text-decoration-line:none;text-decoration-style:solid;text-decoration-color:#000;text-transform:none;text-orientation:mixed;shape-padding:0;isolation:auto;mix-blend-mode:normal"/></g></svg>