<svg xmlns="http://www.w3.org/2000/svg" width="16" height="16.031" enable-background="new"><defs><filter id="a" color-interpolation-filters="sRGB"><feBlend mode="darken" in2="BackgroundImage"/></filter></defs><g transform="translate(-301 116.035)" filter="url(#a)" fill="#5d656b"><path d="M304.438-115.003a.512.512 0 0 0-.344.406L302-111.003v3h14v-3l-1.906-3.594a.517.517 0 0 0-.5-.406h-9a.489.489 0 0 0-.094 0 .651.651 0 0 0-.062 0zm.562 1h8.188l1.687 3h-11.75zm-2 4h12v1h-12z" enable-background="new"/><path d="M302-100.003h14v-3h-14zm1-2h12v1h-12zM302-104.003h14v-3h-14zm1-2h12v1h-12z"/></g></svg>