<svg xmlns="http://www.w3.org/2000/svg" width="16" height="16" enable-background="new"><defs><filter id="a" color-interpolation-filters="sRGB"><feBlend mode="darken" in2="BackgroundImage"/></filter></defs><g transform="translate(-281 117.035)" filter="url(#a)" fill="#5d656b"><path d="M289.5-112.003a2.5 2.5 0 1 0 0 5 2.5 2.5 0 0 0 0-5zm0 1a1.5 1.5 0 1 1 0 3 1.5 1.5 0 0 1 0-3zM288-106.003h3v1h-3zM288-104.003h3v1h-3zM283.843-113.039l2.122-2.121.707.707-2.122 2.121zM285.257-111.625l2.122-2.12.707.706-2.121 2.122zM293.036-115.16l2.121 2.121-2.121 2.122-2.122-2.122z"/></g></svg>