<svg width="16" height="16" enable-background="new" version="1.1" xmlns="http://www.w3.org/2000/svg">
 <g class="ColorScheme-Text" color="#5d656b" fill="currentColor">
  <path d="m3 0c-1.108 0-2 0.892-2 2v12c0 1.108 0.892 2 2 2h10c1.108 0 2-0.892 2-2v-12c0-1.108-0.892-2-2-2zm0 1h10c0.554 0 1 0.446 1 1v12c0 0.554-0.446 1-1 1h-10c-0.554 0-1-0.446-1-1v-12c0-0.554 0.446-1 1-1z"/>
  <path d="m8 13c-2.209 0-4-1.7909-4-4s1.791-4 4-4h4v4c0 2.2091-1.7909 4-4 4zm0-2c1.1046 0 2-0.8954 2-2s-0.8954-2-2-2-2 0.8954-2 2 0.8954 2 2 2z"/>
  <rect x="3" y="2" width="1" height="1" ry=".5"/>
  <rect x="12" y="2" width="1" height="1" ry=".5"/>
  <rect x="3" y="13" width="1" height="1" ry=".5"/>
  <rect x="12" y="13" width="1" height="1" ry=".5"/>
 </g>
</svg>
