<svg height="16.004" width="16" xmlns="http://www.w3.org/2000/svg"><path color="#000" d="M6.5 1.004a4.501 4.501 0 0 0-4.5 4.5v6c0 2.484 2.016 4.5 4.5 4.5h2c2.484 0 4.5-2.016 4.5-4.5v-6c0-2.484-2.016-4.5-4.5-4.5zm0 1H7v4H3v-.5c0-1.948 1.553-3.5 3.5-3.5zm1.5 0h.5c1.948 0 3.5 1.552 3.5 3.5v.5H8zm-5 5h9v4.5c0 1.948-1.552 3.5-3.5 3.5h-2a3.481 3.481 0 0 1-3.5-3.5z" fill="#5d656b" font-family="sans-serif" font-weight="400" overflow="visible" style="line-height:normal;font-variant-ligatures:normal;font-variant-position:normal;font-variant-caps:normal;font-variant-numeric:normal;font-variant-alternates:normal;font-feature-settings:normal;text-indent:0;text-align:start;text-decoration-line:none;text-decoration-style:solid;text-decoration-color:#000;text-transform:none;text-orientation:mixed;shape-padding:0;isolation:auto;mix-blend-mode:normal"/></svg>