<svg height="16" width="16" xmlns="http://www.w3.org/2000/svg"><path d="M3 2.003v11c0 .834.564 1.526 1.053 1.77.488.244.947.23.947.23h7s.459.014.947-.23c.489-.244 1.053-.936 1.053-1.77V4.558l-.324-.324-1.906-1.906-.325-.325H11zm1 1h1v2h1v-2h1v2h1v-2h1v2h1v-2h1.031l.031.032 1.906 1.906.031.031v8.031c0 1-1 1-1 1h-7s-1 0-1-1z" fill="#5d656b" font-family="sans-serif" font-weight="400" overflow="visible" style="line-height:normal;font-variant-ligatures:normal;font-variant-position:normal;font-variant-caps:normal;font-variant-numeric:normal;font-variant-alternates:normal;font-feature-settings:normal;text-indent:0;text-align:start;text-decoration-line:none;text-decoration-style:solid;text-decoration-color:#000;text-transform:none;text-orientation:mixed;shape-padding:0;isolation:auto;mix-blend-mode:normal" color="#000"/></svg>