<svg xmlns="http://www.w3.org/2000/svg" width="16" height="16.002" enable-background="new"><defs><filter id="a" color-interpolation-filters="sRGB"><feBlend mode="darken" in2="BackgroundImage"/></filter></defs><g transform="translate(-501 156.006)" filter="url(#a)" fill="#5d656b"><path d="M502.344-156.003a.5.5 0 0 0-.313.656l1.97 5.875-1 6.406v3.063h12v-3.062l-1-6.438 1.718-5.875a.5.5 0 0 0-.469-.625H502.5a.5.5 0 0 0-.094 0 .5.5 0 0 0-.062 0zm.844 1h11.406l-1.469 5h-8.281l-1.656-5zm1.75 6h8.125l.937 6h-10l.938-6zm-.938 7h1v1h-1v-1z"/><path style="line-height:normal;-inkscape-font-specification:Sans;text-indent:0;text-align:start;text-decoration-line:none;text-transform:none;block-progression:tb;marker:none" d="M512.469-145.847l-7.188 1.812v.032h7.438l-.25-1.844z" color="#000" font-weight="400" font-family="Sans" overflow="visible" enable-background="accumulate"/><path style="line-height:normal;-inkscape-font-specification:Sans;text-indent:0;text-align:start;text-decoration-line:none;text-transform:none;block-progression:tb;marker:none" d="M505.813-148.003l-.375 2.875 6.906-1.75-.156-1.125zM504.563-154.003l1 3h6.812l.875-3h-8.687z" color="#000" font-weight="400" font-family="Sans" overflow="visible" opacity=".35" enable-background="accumulate"/></g></svg>