<?xml version="1.0" encoding="UTF-8" standalone="no"?>
<svg
   xmlns:dc="http://purl.org/dc/elements/1.1/"
   xmlns:cc="http://creativecommons.org/ns#"
   xmlns:rdf="http://www.w3.org/1999/02/22-rdf-syntax-ns#"
   xmlns:svg="http://www.w3.org/2000/svg"
   xmlns="http://www.w3.org/2000/svg"
   xmlns:sodipodi="http://sodipodi.sourceforge.net/DTD/sodipodi-0.dtd"
   xmlns:inkscape="http://www.inkscape.org/namespaces/inkscape"
   width="22pt"
   height="22pt"
   viewBox="0 0 22 22"
   version="1.1"
   id="svg4"
   sodipodi:docname="caffeine-cup-empty.svg"
   inkscape:version="0.92.3 (2405546, 2018-03-11)">
  <metadata
     id="metadata10">
    <rdf:RDF>
      <cc:Work
         rdf:about="">
        <dc:format>image/svg+xml</dc:format>
        <dc:type
           rdf:resource="http://purl.org/dc/dcmitype/StillImage" />
      </cc:Work>
    </rdf:RDF>
  </metadata>
  <defs
     id="defs8" />
  <sodipodi:namedview
     pagecolor="#ffffff"
     bordercolor="#666666"
     borderopacity="1"
     objecttolerance="10"
     gridtolerance="10"
     guidetolerance="10"
     inkscape:pageopacity="0"
     inkscape:pageshadow="2"
     inkscape:window-width="854"
     inkscape:window-height="480"
     id="namedview6"
     showgrid="false"
     inkscape:zoom="8.0454545"
     inkscape:cx="14.666667"
     inkscape:cy="14.666667"
     inkscape:window-x="0"
     inkscape:window-y="28"
     inkscape:window-maximized="0"
     inkscape:current-layer="svg4" />
  <path
     d="M3.637 9.723a.905.905 0 0 0-.907.91v4.094c0 .05.004.101.012.148a3.97 3.97 0 0 0-.012.305c0 2.27 2.028 4.093 4.547 4.093h4.547c1.992 0 3.676-1.14 4.297-2.738.082.008.168.008.25.008 1.512 0 2.73-.957 2.73-2.148V12.78c0-1.191-1.218-2.148-2.73-2.148a.905.905 0 0 0-.906-.91zm12.734 2.73c.934 0 1.68.516 1.68 1.156v.868c0 .64-.746 1.16-1.68 1.16-.008 0-.016 0-.027-.004a3.97 3.97 0 0 0 .016-.758.914.914 0 0 0 .011-.148zm0 0"
     fill="#bdbdbd"
     id="path2"
     style="fill:#1e1c1e;fill-opacity:1" />
</svg>
