<?xml version="1.0" encoding="UTF-8" standalone="no"?>
<svg
   xmlns:dc="http://purl.org/dc/elements/1.1/"
   xmlns:cc="http://creativecommons.org/ns#"
   xmlns:rdf="http://www.w3.org/1999/02/22-rdf-syntax-ns#"
   xmlns:svg="http://www.w3.org/2000/svg"
   xmlns="http://www.w3.org/2000/svg"
   xmlns:sodipodi="http://sodipodi.sourceforge.net/DTD/sodipodi-0.dtd"
   xmlns:inkscape="http://www.inkscape.org/namespaces/inkscape"
   width="22pt"
   height="22pt"
   viewBox="0 0 22 22"
   version="1.1"
   id="svg10"
   sodipodi:docname="clementine-panel.svg"
   inkscape:version="0.92.3 (2405546, 2018-03-11)">
  <metadata
     id="metadata16">
    <rdf:RDF>
      <cc:Work
         rdf:about="">
        <dc:format>image/svg+xml</dc:format>
        <dc:type
           rdf:resource="http://purl.org/dc/dcmitype/StillImage" />
      </cc:Work>
    </rdf:RDF>
  </metadata>
  <defs
     id="defs14" />
  <sodipodi:namedview
     pagecolor="#ffffff"
     bordercolor="#666666"
     borderopacity="1"
     objecttolerance="10"
     gridtolerance="10"
     guidetolerance="10"
     inkscape:pageopacity="0"
     inkscape:pageshadow="2"
     inkscape:window-width="854"
     inkscape:window-height="480"
     id="namedview12"
     showgrid="false"
     inkscape:zoom="8.0454545"
     inkscape:cx="14.666667"
     inkscape:cy="14.666667"
     inkscape:window-x="0"
     inkscape:window-y="28"
     inkscape:window-maximized="0"
     inkscape:current-layer="svg10" />
  <path
     inkscape:connector-curvature="0"
     style="fill:#1e1c1e;fill-opacity:0.45490196"
     id="path2"
     d="M 9.676,2.902 C 7.184,3.164 4.136,7 4.136,11 c 0,4.586 3.106,8.273 6.966,8.273 1.699,0 7.835,-1.742 6.964,-3.265 -0.87,-1.524 -4.789,-1.742 -6.53,-6.313 C 10.883,7.953 11.102,2.727 9.676,2.902 Z m 0,0" />
  <path
     inkscape:connector-curvature="0"
     style="fill:#1e1c1e;fill-opacity:0.44"
     id="path4"
     d="M 8.46,3.379 C 6.353,4.562 4.313,7.727 4.313,11 c 0,4.586 3.106,8.273 6.965,8.273 1.133,0 4.23,-0.773 5.918,-1.738 -0.023,0 -0.047,-0.004 -0.07,-0.004 C 11.61,17.496 7.185,13.336 7.185,8.171 7.185,6.566 7.61,5.059 8.368,3.738 8.396,3.618 8.427,3.496 8.462,3.378 Z m 0,0" />
  <path
     inkscape:connector-curvature="0"
     style="fill:#1e1c1e;fill-opacity:1"
     id="path6"
     d="M 7.75,3.723 C 5.844,5.102 4.137,8.003 4.137,11 c 0,4.586 3.105,8.273 6.965,8.273 0.957,0 3.32,-0.55 5.046,-1.304 h -0.039 c -5.187,0 -9.363,-4.352 -9.363,-9.754 V 8.129 c 0,-1.59 0.363,-3.086 1.004,-4.406 z m 0,0" />
</svg>
