<svg xmlns="http://www.w3.org/2000/svg" xmlns:xlink="http://www.w3.org/1999/xlink" height="32" width="32"><defs><linearGradient id="a"><stop offset="0" stop-color="#f89b7e"/><stop offset=".262" stop-color="#e35d4f"/><stop offset=".661" stop-color="#c6262e"/><stop offset="1" stop-color="#690b2c"/></linearGradient><radialGradient gradientTransform="matrix(0 2.08567 -2.57665 0 51.562 1.954)" gradientUnits="userSpaceOnUse" xlink:href="#a" id="b" fy="9.994" fx="8.863" r="12.672" cy="9.994" cx="8.863"/></defs><path style="marker:none" d="M11.799 24.5s.097 1.899-.387 2.5-1.447.5-1.447.5c-.618.063-.623 2 0 2h12.07c.623 0 .618-1.938 0-2 0 0-.963.101-1.447-.5-.484-.601-.387-2.5-.387-2.5H11.8z" color="#000" fill="#e3e3e3" stroke="#000" stroke-width="2" overflow="visible" opacity=".15"/><path d="M11.799 24.5s.097 1.899-.387 2.5-1.447.5-1.447.5c-.618.063-.623 2 0 2h12.07c.623 0 .618-1.938 0-2 0 0-.963.101-1.447-.5-.484-.601-.387-2.5-.387-2.5H11.8z" style="marker:none" color="#000" fill="#f2f2f2" overflow="visible"/><rect y="2.5" x=".5" ry=".667" rx=".689" height="22" width="31" fill="#505050" stroke="#000" stroke-linecap="round" stroke-linejoin="round" stroke-dashoffset=".5"/><path d="M11 6v1h4V6h-4zm6 0v1h4V6h-4zM6 11v4h1v-4H6zm19 0v4h1v-4h-1zm-14 8v1h4v-1h-4zm6 0v1h4v-1h-4z" opacity=".5" fill="#fff" fill-rule="evenodd"/><path d="M25.467 17.5c0 2 0 2-1.967 2m-15-.017c-2 0-2 0-2-1.966m18.967-9c0-2 0-2-1.967-2m-15 .016c-2 0-2 0-2 1.967" opacity=".5" fill="none" stroke="#fff" stroke-linecap="round"/><path d="M25.222 23.224L21.036 15.5s-2.923 6.148 4.186 10.089zM25.97 23.224l4.187-7.724s2.923 6.148-4.187 10.089z" fill="#e6e6e6"/><path style="marker:none" d="M23.858 26.223c-.974.052-3.57.64-3.57 2.462 0 2.082 1.542 2.815 2.468 2.815.925 0 2.432-.704 2.468-2.815.029-1.682-.575-2.359-1.058-2.462a1.506 1.506 0 0 0-.308 0zm3.129 0c-.483.103-1.086.78-1.058 2.462.036 2.111 1.543 2.815 2.469 2.815.925 0 2.468-.733 2.468-2.815 0-2.081-3.396-2.566-3.879-2.462zm-3.13 1.32s.31 3.611-1.586 2.198c-2.108-1.572 1.587-2.199 1.587-2.199zm3.439 0s3.695.626 1.586 2.198c-1.896 1.413-1.586-2.199-1.586-2.199z" color="#000" fill="url(#b)" overflow="visible" transform="matrix(1.12014 0 0 1.12014 -3.074 -3.784)"/><circle cx="25.661" cy="25.807" r="1" fill="#e6e6e6" stroke="#bcbcbc" stroke-width="2" stroke-linecap="round" stroke-linejoin="round" paint-order="markers stroke fill"/></svg>