<svg xmlns="http://www.w3.org/2000/svg" xmlns:xlink="http://www.w3.org/1999/xlink" height="32" width="32"><defs><linearGradient id="i"><stop offset="0" stop-opacity=".22"/><stop offset="1" stop-opacity=".37"/></linearGradient><linearGradient gradientTransform="matrix(.42123 -.4241 .56755 .5658 -2.604 11.12)" gradientUnits="userSpaceOnUse" xlink:href="#a" id="k" y2="26.03" x2="9" y1="29.057" x1="9"/><linearGradient id="a"><stop offset="0" stop-color="#ece5a5"/><stop offset="1" stop-color="#fcfbf2"/></linearGradient><linearGradient gradientTransform="matrix(.36997 .016 .01595 .37021 12.719 8.722)" gradientUnits="userSpaceOnUse" xlink:href="#b" id="l" y2="41.392" x2="9.522" y1="37.372" x1="5.518"/><linearGradient id="b"><stop offset="0" stop-color="#dbce48"/><stop offset="1" stop-color="#c5b625"/></linearGradient><linearGradient id="c"><stop offset="0" stop-color="#181818"/><stop offset=".135" stop-color="#dbdbdb"/><stop offset=".202" stop-color="#a4a4a4"/><stop offset=".27" stop-color="#fff"/><stop offset=".447" stop-color="#8d8d8d"/><stop offset=".571" stop-color="#959595"/><stop offset=".72" stop-color="#cecece"/><stop offset="1" stop-color="#181818"/></linearGradient><linearGradient gradientTransform="matrix(.6863 0 0 1.44078 1.15 -25.863)" gradientUnits="userSpaceOnUse" xlink:href="#d" id="j" y2="19.562" x2="21.862" y1="38.581" x1="21.862"/><linearGradient id="d"><stop offset="0" stop-color="#8e8e8e"/><stop offset="1" stop-color="#b5b5b5"/></linearGradient><linearGradient id="e"><stop offset="0" stop-color="#f4f4f4"/><stop offset="1" stop-color="#dbdbdb"/></linearGradient><linearGradient id="f"><stop offset="0"/><stop offset="1" stop-opacity="0"/></linearGradient><linearGradient id="g"><stop offset="0" stop-opacity="0"/><stop offset=".5"/><stop offset="1" stop-opacity="0"/></linearGradient><linearGradient id="h"><stop offset="0" stop-color="#fff"/><stop offset=".01" stop-color="#fff" stop-opacity=".235"/><stop offset=".99" stop-color="#fff" stop-opacity=".157"/><stop offset="1" stop-color="#fff" stop-opacity=".392"/></linearGradient></defs><rect width="22" height="26" x="5" y="3" ry=".441" rx=".458" opacity=".15" fill="#a0a0a0" stroke="#0c0c0c" stroke-width="2" stroke-linecap="round" stroke-linejoin="round" paint-order="markers stroke fill"/><rect rx="0" ry="0" y="3" x="5" height="26" width="22" fill="#f9f9f9" paint-order="markers stroke fill"/><path d="M11.861 25h1.215v1H11.86v-1zm1.456 0H15v1h-1.683v-1zM9 25h2.62v1H9v-1zm7.409-4h1.463v1h-1.463v-1zm5.338 0H25v1h-3.253v-1zm-7.118 0H16.2v1h-1.57v-1zm-3.461 0h3.253v1h-3.253v-1zM9 21h1.96v1H9v-1zm13.645 2H23v1h-.355v-1zm-1.703 0h1.52v1h-1.52v-1zm-2.577 0h2.26v1h-2.26v-1zm-1.926 0h1.721v1H16.44v-1zm-1.412 0H16.1v1h-1.072v-1zm-1.255 0h1.072v1h-1.072v-1zm-.694 0h.557v1h-.557v-1zm-1.434 0h1.184v1h-1.184v-1zM9 23h2.461v1H9v-1zm1.285-10H14v1h-3.715v-1zM9 13h1.02v1H9v-1zm7.681-2H18.2v1H16.68v-1zm3.243 0H22v1h-2.076v-1zm-1.51 0h1.294v1h-1.294v-1zm-3.578 0h1.63v1h-1.63v-1zm-3.589 0h3.374v1h-3.374v-1zM9 11h2.032v1H9v-1zm8.871-2H20v1h-2.129V9zm-1.834 0h1.623v1h-1.623V9zm-1.221 0h1.01v1h-1.01V9zm-1.222 0h1.01v1h-1.01V9zm-.736 0h.524v1h-.524V9zM11.53 9h1.116v1H11.53V9zM9 9h2.319v1H9V9zm13.245-2H23v1h-.755V7zM19.57 7h2.466v1H19.57V7zm-3.455 0h3.246v1h-3.246V7zm-1.462 0h1.253v1h-1.253V7zm-.769 0h.56v1h-.56V7zm-1.483 0h1.274v1h-1.274V7zm-1.657 0h1.448v1h-1.448V7zM9 7h1.535v1H9V7zm7.88 10h2.905v1h-2.904v-1zm-1.458 0h1.233v1h-1.233v-1zm-3.314 0h3.088v1h-3.088v-1zM9 17h2.882v1H9v-1zm7.039 2h1.629v1h-1.63v-1zm-1.336 0h1.014v1h-1.014v-1zm-1.187 0h1.014v1h-1.014v-1zm-.657 0h.526v1h-.526v-1zm-1.357 0h1.12v1h-1.12v-1zM9 19h2.329v1H9v-1zm10.54-4H22v1h-2.46v-1zm-3.444 0h3.236v1h-3.236v-1zm-1.458 0h1.25v1h-1.25v-1zm-.767 0h.558v1h-.558v-1zm-1.48 0h1.271v1h-1.27v-1zm-1.652 0h1.444v1h-1.444v-1zM9 15h1.53v1H9v-1z" opacity=".7" fill="url(#j)"/><path d="M16.274 20.438c.312-.233 1.19.204 1.995 1.002.804.796 1.228 1.647.998 1.961l.02.019 11.22-11.217c.286-.285-.157-1.185-.988-2.008-.832-.823-1.739-1.26-2.024-.974z" fill="#a0a0a0" stroke="#0c0c0c" stroke-width=".5" stroke-linejoin="round" stroke-opacity=".564"/><path d="M26.15 10.578c.312-.234 1.19.204 1.995 1.002.804.795 1.228 1.647.998 1.96 0 .002.02.018.02.02l1.369-1.37.028-.027c0-.002-.02-.018-.02-.019.23-.314-.194-1.165-.997-1.961-.806-.798-1.683-1.236-1.996-1.002l-.028.028-1.37 1.369z" opacity=".8" fill="#ffb6ed" stroke="#e28ccd" stroke-width=".5" stroke-linejoin="round"/><path d="M16.276 20.578c.294-.221 1.12.194 1.88.951.757.755 1.156 1.563.94 1.86 0 .002.019.017.018.018l7.28-7.329.025-.026c.001-.001-.018-.017-.017-.018.216-.298-.183-1.105-.94-1.86-.76-.757-1.586-1.172-1.88-.951l-.027.026-7.28 7.33z" opacity=".6" fill="#0c0c0c"/><path d="M14.25 25.395l4.81-1.965.04-.041c.216-.298-.188-1.106-.945-1.86-.76-.758-1.585-1.17-1.879-.95l-2.026 4.816z" fill="url(#k)" fill-rule="evenodd" stroke="url(#l)" stroke-width=".5"/><path d="M14.799 24.091l-.549 1.299 1.312-.539c-.105-.126-.203-.254-.329-.38a5.325 5.325 0 0 0-.434-.38z" fill="#0c0c0c" fill-rule="evenodd" stroke="#0c0c0c" stroke-width=".5"/><rect width="1" height="22" x="7" y="5" ry=".478" fill="#f7abab" fill-opacity=".592" paint-order="markers stroke fill"/></svg>