<svg xmlns="http://www.w3.org/2000/svg" width="32" height="32"><defs><linearGradient id="e"><stop offset="0" stop-color="#fafafa"/><stop offset="1" stop-color="#d4d4d4"/></linearGradient><linearGradient id="d"><stop offset="0" stop-color="#fff"/><stop offset=".063" stop-color="#fff" stop-opacity=".235"/><stop offset=".951" stop-color="#fff" stop-opacity=".157"/><stop offset="1" stop-color="#fff" stop-opacity=".392"/></linearGradient><linearGradient id="a"><stop offset="0" stop-color="#181818"/><stop offset="1" stop-color="#181818" stop-opacity="0"/></linearGradient><linearGradient id="b"><stop offset="0" stop-color="#181818"/><stop offset="1" stop-color="#181818" stop-opacity="0"/></linearGradient><linearGradient id="c"><stop offset="0" stop-color="#181818" stop-opacity="0"/><stop offset=".5" stop-color="#181818"/><stop offset="1" stop-color="#181818" stop-opacity="0"/></linearGradient></defs><rect width="26" height="26" rx="1.615" ry="1.615" x="3" y="3" style="marker:none" color="#000" overflow="visible" fill="#efefef"/><rect width="27" height="27" rx="2.16" ry="2.16" x="2.5" y="2.5" style="marker:none" color="#000" overflow="visible" fill="none" stroke="#555761" stroke-linecap="round" stroke-linejoin="round" opacity=".3"/><path d="M25 12.278q0 .888-.275 1.626-.275.738-.776 1.144-.5.407-1.15.407-.538 0-.907-.326-.37-.325-.438-.831h-.05q-.25.544-.72.85-.462.307-1.1.307-.938 0-1.47-.638-.525-.644-.525-1.745 0-1.276.738-2.07.738-.8 1.939-.8.425 0 .963.08.538.076.97.213l-.157 2.94v.137q0 1.113.832 1.113.569 0 .925-.669.357-.675.357-1.75 0-1.133-.463-1.983-.463-.85-1.32-1.307-.85-.463-1.957-.463-1.395 0-2.427.581-1.032.576-1.576 1.651-.544 1.07-.544 2.477 0 1.907 1.007 2.933 1.007 1.026 2.902 1.026 1.313 0 2.727-.538v.832Q21.304 18 19.778 18q-2.27 0-3.527-1.245Q15 15.505 15 13.265q0-1.625.67-2.895.668-1.27 1.907-1.963 1.238-.7 2.839-.7 1.344 0 2.389.568 1.05.563 1.62 1.607.575 1.039.575 2.396zm-6.467.819q0 1.588 1.22 1.588 1.295 0 1.407-1.957l.088-1.632q-.45-.125-.982-.125-.813 0-1.276.562-.457.563-.457 1.564z" font-weight="400" font-size="12.808" font-family="Open Sans" letter-spacing="0" word-spacing="0" opacity=".7" fill="#555761"/><path d="M3 25.385v2C3 28.28 3.72 29 4.615 29h22.77C28.28 29 29 28.28 29 27.385v-2C29 26.28 28.28 27 27.385 27H4.615C3.72 27 3 26.28 3 25.385z" style="marker:none" color="#000" overflow="visible" opacity=".1"/></svg>