<svg width="32" height="32" version="1.1" xmlns="http://www.w3.org/2000/svg" xmlns:xlink="http://www.w3.org/1999/xlink">
 <g transform="translate(-384.57 -515.8)">
  <rect x="387.57" y="518.8" width="26" height="26" rx="1.5" ry="1.5" fill="#434b50" stroke="#2e3336" stroke-linecap="round" stroke-linejoin="round" stroke-width="2" style="paint-order:markers stroke fill"/>
  <rect x="387.57" y="518.8" width="26" height="26" rx="1.5" ry="1.5" fill="#434b50" style="paint-order:markers stroke fill"/>
  <g transform="translate(.22633 -.30671)" fill="#f2f2f2">
   <g transform="matrix(1.2917 0 0 1.2917 -112.75 -147.73)">
    <path d="m399.57 526.8v2.9972h2.1708c0.65505 0 1.1393-0.13463 1.4528-0.40389 0.31748-0.27327 0.47622-0.68921 0.47622-1.2478 0-0.56263-0.15874-0.67635-0.47622-0.9416-0.31347-0.26925-0.79773-0.40388-1.4528-0.40389h-2.1708m0-4.0015v3.0129h2.2199c0.59476 0 1.0707-0.11051 1.3601-0.33155 0.29336-0.22505 0.44004-0.86684 0.44006-1.325-1e-5 -0.45411-0.14669-0.7937-0.44006-1.0188-0.28936-0.22505-0.76533-0.33757-1.3601-0.33758h-2.2199m-1-1.0007h3.1105c0.92833 1e-5 1.6437 0.19291 2.146 0.5787 0.50233 0.38581 0.75351 0.93437 0.75351 1.6457 0 0.55058-0.1286 1.2888-0.3858 1.6143-0.25721 0.32553-0.63497 0.52847-1.1333 0.60884 1.247 0.30952 1.8647 1.1714 1.8928 2.0327-1e-5 0.80375-0.27328 1.4246-0.81983 1.8627-0.54656 0.43804-1.3242 0.65706-2.3329 0.65706h-3.2311v-9" fill="#f2f2f2" stroke-width=".77415"/>
   </g>
   <path d="m397.35 532.84c-1.109-3.2058-1.7844-4.8621-1.9001-5.2596-2e-5 1e-5 -0.57557 1.6563-1.8528 5.2596h3.7529m1.8055 5.0743-1.364-3.9368h-4.6517l-1.4113 3.9368h-1.3876l4.4782-11.626h1.3955l4.3442 11.626h-1.4034"/>
  </g>
 </g>
</svg>
