<svg width="32" height="32" version="1.1" xmlns="http://www.w3.org/2000/svg">
 <path d="m8.9181 6.0016a7.0835 7.0823 0 0 0-6.8031 9.0442l-1.0457 8.1688a2.1953 2.1949 0 0 0-0.069291 0.53535c0 1.2407 1.0331 2.2453 2.3087 2.2453a2.3307 2.3303 0 0 0 1.7732-0.81247v0.0031l4.526-5.0701a7.0677 7.0666 0 0 0 3.2157-1.1305h6.3528c0.96378 0.63927 2.0693 1.014 3.2157 1.1305l4.526 5.0701a2.3307 2.3303 0 0 0 1.7732 0.81247c1.2756 4.9e-5 2.3087-1.0077 2.3087-2.2484a2.1858 2.1855 0 0 0-0.06929-0.53535l-1.0457-8.1688a7.0835 7.0823 0 0 0-6.8-9.0474h-14.167z" fill="#fff" stroke="#000" stroke-linecap="round" stroke-linejoin="round" stroke-opacity=".25" stroke-width="2"/>
 <path d="m8.9181 6.0016a7.0835 7.0823 0 0 0-6.8031 9.0442l-1.0457 8.1688a2.1953 2.1949 0 0 0-0.069291 0.53535c0 1.2407 1.0331 2.2453 2.3087 2.2453a2.3307 2.3303 0 0 0 1.7732-0.81247v0.0031l4.526-5.0701a7.0677 7.0666 0 0 0 3.2157-1.1305h6.3528c0.96378 0.63927 2.0693 1.014 3.2157 1.1305l4.526 5.0701a2.3307 2.3303 0 0 0 1.7732 0.81247c1.2756 4.9e-5 2.3087-1.0077 2.3087-2.2484a2.1858 2.1855 0 0 0-0.06929-0.53535l-1.0457-8.1688a7.0835 7.0823 0 0 0-6.8-9.0474h-14.167z" fill="#f9f9f9" stroke-width="5.6688"/>
 <g stroke="#000" stroke-linecap="round" stroke-linejoin="round" stroke-opacity=".25" stroke-width=".6">
  <path d="m23 9a1.0002 1 0 0 0-1.0002 1 1.0002 1 0 0 0 1.0002 1 1.0002 1 0 0 0 1.0002-1 1.0002 1 0 0 0-1.0002-1z" fill="#27ae60"/>
  <path d="m21 11a1 0.99984 0 0 0-1 0.99984 1 0.99984 0 0 0 1 0.99984 1 0.99984 0 0 0 1-0.99984 1 0.99984 0 0 0-1-0.99984z" fill="#f36137"/>
  <path d="m25 11a1 0.99984 0 0 0-1 0.99984 1 0.99984 0 0 0 1 0.99984 1 0.99984 0 0 0 1-0.99984 1 0.99984 0 0 0-1-0.99984z" fill="#f05242"/>
  <path d="m23 13a1 0.99984 0 0 0-1 0.99984 1 0.99984 0 0 0 1 0.99984 1 0.99984 0 0 0 1-0.99984 1 0.99984 0 0 0-1-0.99984z" fill="#2980b9"/>
 </g>
 <circle cx="8.4984" cy="11.5" r="2.5" fill="#f88e45" stroke="#cf6f23" stroke-linejoin="round" style="paint-order:stroke markers fill"/>
 <circle cx="8.4984" cy="11.5" r="2.5" fill="#f88e45" stroke-width="5.6675" style="paint-order:stroke markers fill"/>
 <circle cx="12" cy="19" r="3" fill="#b3b3b3" fill-opacity=".97812"/>
 <circle cx="12" cy="19" r="2" fill="#666"/>
 <circle cx="20" cy="19" r="3" fill="#b3b3b3" fill-opacity=".97812"/>
 <circle cx="20" cy="19" r="2" fill="#666"/>
</svg>
