<svg width="32" height="32" version="1.1" viewBox="0 0 32 32" xmlns="http://www.w3.org/2000/svg">
 <g transform="translate(-384.57 -515.8)">
  <rect x="387.57" y="518.8" width="26" height="26" rx="1.5" ry="1.5" fill="#239654" stroke="#23a159" stroke-linecap="round" stroke-linejoin="round" stroke-width="2" style="paint-order:markers stroke fill"/>
  <rect x="387.57" y="518.8" width="26" height="26" rx="1.5" ry="1.5" fill="#48cd7c" style="paint-order:markers stroke fill"/>
  <path d="m411.52 523.61a1.5162 1.5162 0 1 0-2.2847 1.6564c-0.0779 1.1138-0.40761 2.4664-1.3864 3.6529-2.7598-3.1493-3.9256-4.4344-4.4656-4.9562a4.154 4.154 0 0 1 0.69061-0.35828c0.36348 0.30116 0.86456 0.43357 1.3578 0.30116a1.5136 1.5136 0 1 0-1.8875-1.6824c-1.1424 0.4855-5.0367 2.643-4.4552 9.3621-4.2683 0.12462-6.5114 1.254-7.5318 1.9913a1.5188 1.5188 0 1 0-0.0649 2.9104 1.5136 1.5136 0 0 0 1.1268-1.4279l4.4604 4.6836c-0.10385 0.0649-0.2077 0.12462-0.30636 0.17655a1.5162 1.5162 0 1 0 0.61531 1.3656c2.0848-1.0359 3.8139-3.5828 3.3622-8.225 1.3397 0 2.5729-0.15577 3.6841-0.44656 1.6564-0.43617 3.0376-1.1839 4.0787-2.2276 1.3189-1.3163 2.0692-3.0402 2.199-5.0238a1.5162 1.5162 0 0 0 0.81004-1.7525zm-13.846 15.681-4.6551-4.8914c0.29857-0.16097 0.66983-0.33492 1.1268-0.50108l4.3591 4.3435a4.4552 4.4552 0 0 1-0.8308 1.0437zm1.1735-1.7525-3.9074-3.8918a14.591 14.591 0 0 1 2.1445-0.42059l2.2328 2.1289c-0.0649 0.87234-0.23366 1.5915-0.46992 2.1834zm-0.79186-4.4136a18.979 18.979 0 0 1 1.2073-0.0597c0.0519 0.45695 0.0779 0.88792 0.0831 1.2904zm2.5236-1.5448a12.579 12.579 0 0 1 0.0104-2.7001l2.1809 2.5573a14.783 14.783 0 0 1-2.1938 0.14279zm3.0376-0.29338-2.8611-3.357a7.1916 7.1916 0 0 1 0.61531-1.7161 294.44 294.44 0 0 1 4.0242 4.5071c-0.54522 0.23626-1.1372 0.42579-1.7784 0.56598zm2.4638-0.90868c-2.4249-2.7624-3.6607-4.1436-4.3202-4.829 0.32972-0.4829 0.688-0.86196 1.0281-1.1476 0.58416 0.57638 2.8481 3.1259 4.5486 5.0627a6.5166 6.5166 0 0 1-1.2566 0.91389z" fill="#fff" stroke-width="3.7796"/>
 </g>
</svg>
