<svg xmlns="http://www.w3.org/2000/svg" xmlns:xlink="http://www.w3.org/1999/xlink" width="32" height="32"><defs><linearGradient gradientTransform="translate(-206 -58)" gradientUnits="userSpaceOnUse" xlink:href="#a" id="b" y2="76.997" x2="227.204" y1="63.106" x1="227.204"/><linearGradient id="a"><stop offset="0" stop-color="#fff5ef"/><stop offset="1" stop-color="#fef8dd"/></linearGradient></defs><rect y="9.5" x="5.5" ry="0" rx="0" height="20" width="13" fill="#61aff3"/><path style="line-height:normal;text-indent:0;text-align:start;text-decoration-line:none;text-decoration-style:solid;text-decoration-color:#000;text-transform:none;white-space:normal;isolation:auto;mix-blend-mode:normal;solid-color:#000;solid-opacity:1;marker:none" d="M2.5 9a.5.5 0 0 0-.5.5v20a.5.5 0 0 0 .5.5h19a.5.5 0 0 0 .5-.5v-20a.5.5 0 0 0-.5-.5H5zm.5 1h2v1H3zm3 0h12v19H6zm13 0h2v1h-2zM3 13h2v1H3zm16 0h2v1h-2zM3 16h2v1H3zm16 0h2v1h-2zM3 19h2v1H3zm16 0h2v1h-2zM3 22h2v1H3zm16 0h2v1h-2zM3 25h2v1H3zm16 0h2v1h-2zM3 28h2v1H3zm16 0h2v1h-2z" color="#000" font-weight="400" font-family="sans-serif" overflow="visible" opacity=".7"/><path style="marker:none" d="M6.5 19.5h11" display="block" overflow="visible" opacity=".7" fill="none" stroke="#000" stroke-linecap="square" stroke-linejoin="round"/><path style="marker:none" d="M19 28h2v1h-2zm0-3h2v1h-2zm0-3h2v1h-2zM3 28h2v1H3zm0-3h2v1H3zm0-3h2v1H3zm0-3h2v1H3zm0-3h2v1H3zm0-3h2v1H3zm0-3h2v1H3z" color="#000" overflow="visible" opacity=".3" fill="#e6e6e6"/><rect width="19" height="19" rx="1" ry="1" x="10.5" y="2.5" style="marker:none" color="#000" overflow="visible" fill="#fb9347"/><path d="M20.42 5.005c-.453-.053-.516.33-.469.633-.004 3.026.01 6.055-.006 9.08-.11.103-.322-.068-.463-.023-1.535-.085-3.212.918-3.365 2.365-.181 1.15 1.168 2.097 2.371 1.918 1.516-.145 2.7-1.523 2.503-2.884.004-2.396-.01-4.795.006-7.19.103-.106.257.121.366.132 1.22.65 2.298 1.722 2.37 3.057.08 1.043-.27 2.063-.664 3.03 1.321-1.465 1.744-3.603.826-5.334-.47-1.005-1.529-1.624-2.122-2.557-.437-.624-.77-1.32-.874-2.057-.086-.153-.312-.172-.48-.17z" fill="url(#b)"/><rect width="19" height="19" rx="1" ry="1" x="10.5" y="2.5" style="marker:none" color="#000" overflow="visible" opacity=".5" fill="none" stroke="#a62100" stroke-linecap="round" stroke-linejoin="round"/></svg>