<svg width="32" height="32" version="1.1" xmlns="http://www.w3.org/2000/svg" xmlns:xlink="http://www.w3.org/1999/xlink">
 <g transform="translate(-384.57 -515.8)">
  <g transform="matrix(.66667 0 0 .66667 152.19 181.93)">
   <rect x="353.07" y="505.3" width="39" height="39" rx="2.25" ry="2.25" fill="#434b50" stroke="#2e3336" stroke-linecap="round" stroke-linejoin="round" stroke-width="3" style="paint-order:markers stroke fill"/>
   <rect x="353.07" y="505.3" width="39" height="39" rx="2.25" ry="2.25" fill="#434b50" stroke-width="1.5" style="paint-order:markers stroke fill"/>
   <g transform="rotate(-24.276 -1.5581 -.81089)" fill="#f2f2f2">
    <path d="m106.24 636.72-0.14368-1.0245 3.2297-3.5858c0.21655-0.24155 0.42479-0.5539 0.62469-0.93705 0.20407-0.38314 0.35191-0.70798 0.44354-0.97453l0.14368-0.39355c-1e-5 -0.51641-0.14369-0.91622-0.43104-1.1994-0.28737-0.28736-0.6955-0.43104-1.2244-0.43104-0.88291 0-1.5784 0.25613-2.0865 0.76837l-0.36232-0.93704c0.57472-0.5414 1.416-0.8121 2.5238-0.81211 0.84958 1e-5 1.5263 0.23115 2.0303 0.69342 0.50392 0.45811 0.75588 1.0724 0.75588 1.8428-0.0167 0.0583-0.0417 0.13744-0.075 0.23739-0.0333 0.0958-0.1062 0.28528-0.21864 0.56847-0.10829 0.2832-0.22282 0.55182-0.34359 0.80586-0.12078 0.25405-0.27487 0.53308-0.46227 0.83709-0.18325 0.30403-0.37066 0.55807-0.56223 0.76213l-2.6362 2.8174h4.3292l-0.0687 0.96203h-5.4661"/>
    <path d="m116.49 632.23h2.4363v0.84958h-2.4426v2.68h-0.85584v-2.68h-2.48v-0.84958h2.4863v-2.6487h0.85583v2.6487"/>
    <path d="m120.26 636.72-0.14368-1.0245 3.2297-3.5858c0.21655-0.24155 0.42479-0.5539 0.62469-0.93705 0.20407-0.38314 0.35191-0.70798 0.44354-0.97453l0.14368-0.39355c-1e-5 -0.51641-0.14369-0.91622-0.43104-1.1994-0.28737-0.28736-0.6955-0.43104-1.2244-0.43104-0.88291 0-1.5784 0.25613-2.0865 0.76837l-0.36232-0.93704c0.57472-0.5414 1.416-0.8121 2.5238-0.81211 0.84958 1e-5 1.5263 0.23115 2.0303 0.69342 0.50392 0.45811 0.75588 1.0724 0.75588 1.8428-0.0167 0.0583-0.0417 0.13744-0.075 0.23739-0.0333 0.0958-0.1062 0.28528-0.21864 0.56847-0.10829 0.2832-0.22282 0.55182-0.34359 0.80586-0.12078 0.25405-0.27487 0.53308-0.46227 0.83709-0.18325 0.30403-0.37066 0.55807-0.56223 0.76213l-2.6362 2.8174h4.3292l-0.0687 0.96203h-5.4661"/>
    <path d="m127.35 634.36v-0.88707h6.0283v0.88707h-6.0283m-6e-3 -2.6362v-0.89956h6.0346v0.89956h-6.0346"/>
    <path d="m141.2 634.4h-1.062v2.3176h-1.0495v-2.3176h-4.223v-0.95578l4.1043-6.0721h1.1682v6.122h1.1494l-0.0875 0.90581m-2.1115-5.6098-3.1235 4.704h3.1235v-4.704"/>
   </g>
   <rect x="375.57" y="542.8" width="5.9999" height="1.5" color="#000000" fill="#007ad9" style="text-decoration-line:none"/>
   <rect x="383.07" y="542.8" width="6" height="1.5" color="#000000" fill="#d6d6d6" style="text-decoration-line:none"/>
  </g>
 </g>
</svg>
