<svg width="32" height="32" version="1.1" viewBox="0 0 32 32" xmlns="http://www.w3.org/2000/svg">
 <g transform="translate(-384.57 -515.8)">
  <rect x="387.57" y="518.8" width="26" height="26" rx="1.5" ry="1.5" fill="none" stroke="#202020" stroke-linecap="round" stroke-linejoin="round" stroke-width="2" style="paint-order:markers stroke fill"/>
  <rect x="387.57" y="518.8" width="26" height="26" rx="1.5" ry="1.5" fill="#393c3f" style="paint-order:markers stroke fill"/>
  <path d="m399.29 519.8v2.7865a3.842 3.842 0 0 0-2.5623 3.6204 3.842 3.842 0 0 0 1.9551 3.3433l-1.8492 6.9031h-1.3857v1.2849h1.0431l-1.0355 3.8597 0.73064 2.202 1.6275-6.0644h5.5126l1.6225 6.0644 0.73316-2.202-1.033-3.8624h1.0456v-1.2798h-1.3907l-1.8492-6.9031a3.842 3.842 0 0 0 1.9601-3.3458 3.842 3.842 0 0 0-2.5623-3.6204v-2.7865zm1.2824 5.1244a1.2798 1.2798 0 0 1 1.2798 1.2798 1.2798 1.2798 0 0 1-1.2798 1.2824 1.2798 1.2798 0 0 1-1.2824-1.2824 1.2798 1.2798 0 0 1 1.2824-1.2798zm-0.68025 5.059a3.842 3.842 0 0 0 0.68025 0.0655 3.842 3.842 0 0 0 0.67772-0.0605l1.7308 6.465h-4.8247z" fill="#fff" stroke-width="3.7796"/>
  <path transform="translate(384.57 515.8)" d="m8 3v5.6504c-0.17061 0.11508-0.33194 0.24234-0.50781 0.34961h-4.4922v1h2.4434c-0.786 0.31253-1.5968 0.57448-2.4434 0.73633v1.0273c1.7136-0.30285 3.3275-0.91074 4.7871-1.7637h0.21289v12h-5v1h5v6h1v-6h13.723c-2.0086 1.5352-3.6172 3.5874-4.6094 6h1.1035c0.87104-1.9426 2.1813-3.6128 3.7832-4.9219v4.9219h1v-5.6504c0.17061-0.11508 0.33194-0.24234 0.50781-0.34961h4.4922v-1h-2.4434c0.786-0.31253 1.5968-0.57448 2.4434-0.73633v-1.0273c-1.7134 0.30281-3.3276 0.91092-4.7871 1.7637h-0.21289v-12h5v-1h-5v-6h-1v6h-13.723c2.0086-1.5352 3.6172-3.5874 4.6094-6h-1.1035c-0.87104 1.9426-2.1813 3.6128-3.7832 4.9219v-4.9219h-1zm1 7h14v12h-14v-12z" fill="#fff" opacity=".1" stroke-linecap="square" stroke-width=".1"/>
 </g>
</svg>
