<svg xmlns="http://www.w3.org/2000/svg" height="32" width="32"><defs><linearGradient id="f"><stop offset="0"/><stop offset="1" stop-opacity="0"/></linearGradient><linearGradient id="a"><stop offset="0" stop-color="#fff"/><stop offset=".038" stop-color="#fff" stop-opacity=".235"/><stop offset=".962" stop-color="#fff" stop-opacity=".157"/><stop offset="1" stop-color="#fff" stop-opacity=".392"/></linearGradient><linearGradient id="b"><stop offset="0" stop-color="#919caf"/><stop offset=".262" stop-color="#68758e"/><stop offset=".705" stop-color="#485a6c"/><stop offset="1" stop-color="#444c5c"/></linearGradient><linearGradient id="c"><stop offset="0" stop-color="#181818"/><stop offset="1" stop-color="#181818" stop-opacity="0"/></linearGradient><linearGradient id="d"><stop offset="0" stop-color="#181818"/><stop offset="1" stop-color="#181818" stop-opacity="0"/></linearGradient><linearGradient id="e"><stop offset="0" stop-color="#181818" stop-opacity="0"/><stop offset=".5" stop-color="#181818"/><stop offset="1" stop-color="#181818" stop-opacity="0"/></linearGradient></defs><rect ry="1.5" rx="1.5" y="3" x="3" height="26" width="26" opacity=".75" fill="none" stroke="#2f3741" stroke-width="2" stroke-linecap="round" stroke-linejoin="round" paint-order="markers stroke fill"/><rect width="26" height="26" x="3" y="3" rx="1.5" ry="1.5" fill="#6e7a8e" paint-order="markers stroke fill"/><path style="isolation:auto;mix-blend-mode:normal;solid-color:#000;solid-opacity:1;marker:none;filter-blend-mode:normal;filter-gaussianBlur-deviation:0" d="M14.857 8c-.206 0-.377.794-.478 1.93a6.286 6.286 0 0 0-1.519.638c-.877-.735-1.562-1.18-1.708-1.033l-1.617 1.617c-.146.146.298.831 1.033 1.708a6.286 6.286 0 0 0-.633 1.52c-1.138.1-1.935.271-1.935.477v2.286c0 .206.794.377 1.93.478a6.286 6.286 0 0 0 .636 1.522c-.734.876-1.177 1.56-1.031 1.705l1.617 1.617c.145.146.828-.296 1.703-1.029a6.286 6.286 0 0 0 1.524.629c.101 1.138.272 1.935.478 1.935h2.286c.206 0 .377-.794.478-1.93a6.286 6.286 0 0 0 1.519-.638c.877.735 1.562 1.18 1.708 1.033l1.617-1.617c.146-.146-.298-.831-1.033-1.708a6.286 6.286 0 0 0 .633-1.52c1.138-.1 1.935-.271 1.935-.477v-2.286c0-.206-.794-.377-1.93-.478a6.286 6.286 0 0 0-.636-1.522c.734-.876 1.177-1.56 1.031-1.705l-1.617-1.617c-.145-.146-.828.296-1.703 1.029a6.286 6.286 0 0 0-1.524-.629C17.52 8.797 17.349 8 17.143 8h-2.286zM16 13.143A2.857 2.857 0 0 1 18.857 16 2.857 2.857 0 0 1 16 18.857 2.857 2.857 0 0 1 13.143 16 2.857 2.857 0 0 1 16 13.143z" color="#000" overflow="visible" fill="#455365"/><path d="M15.11 8.5c-.018.051-.03.077-.05.16-.072.298-.14.765-.188 1.317a.493.493 0 0 1-.361.434c-.49.133-.959.33-1.397.587a.493.493 0 0 1-.566-.047 10.182 10.182 0 0 0-1.072-.806c-.072-.044-.099-.054-.148-.078l-1.26 1.26c.023.05.032.077.077.15.162.262.448.643.806 1.07a.493.493 0 0 1 .049.565 5.78 5.78 0 0 0-.584 1.397.493.493 0 0 1-.433.363c-.554.049-1.023.116-1.323.187-.083.02-.108.033-.16.051v1.78c.052.018.077.03.16.05.299.072.765.14 1.317.188a.493.493 0 0 1 .434.363c.132.49.329.961.585 1.401a.493.493 0 0 1-.047.564c-.357.427-.642.806-.804 1.068-.044.072-.054.1-.078.148l1.259 1.259c.049-.024.076-.032.148-.076.262-.162.642-.446 1.068-.802a.493.493 0 0 1 .562-.05c.44.255.912.45 1.403.58a.493.493 0 0 1 .365.434c.049.554.116 1.023.187 1.323.02.083.033.108.051.16h1.78c.018-.052.03-.077.05-.16.072-.298.139-.765.188-1.317a.493.493 0 0 1 .361-.434c.49-.133.959-.33 1.397-.587a.493.493 0 0 1 .566.047c.428.358.81.644 1.072.806.072.044.099.054.148.078l1.26-1.26c-.023-.05-.032-.077-.077-.15a10.182 10.182 0 0 0-.806-1.07.493.493 0 0 1-.049-.565 5.78 5.78 0 0 0 .584-1.397.493.493 0 0 1 .433-.363 10.098 10.098 0 0 0 1.323-.187c.083-.02.108-.033.16-.051v-1.78c-.052-.018-.077-.03-.16-.05a10.006 10.006 0 0 0-1.317-.188.493.493 0 0 1-.434-.363 5.783 5.783 0 0 0-.585-1.401.493.493 0 0 1 .047-.564c.357-.427.642-.806.804-1.068.044-.072.054-.1.078-.148l-1.259-1.259c-.049.024-.076.032-.148.076-.262.162-.642.446-1.068.802a.493.493 0 0 1-.562.05 5.786 5.786 0 0 0-1.403-.58.493.493 0 0 1-.365-.434 10.096 10.096 0 0 0-.187-1.323c-.02-.083-.033-.108-.051-.16h-1.78z" style="isolation:auto;mix-blend-mode:normal;solid-color:#000;solid-opacity:1;marker:none" color="#000" overflow="visible" opacity=".75" fill="none" stroke="#474c59" stroke-width="1.00021922"/><path style="marker:none" d="M16 19.374c1.983.058 3.687-1.922 3.325-3.878-.247-1.964-2.445-3.356-4.32-2.704-1.841.522-2.906 2.772-2.102 4.52.508 1.224 1.77 2.076 3.098 2.062z" overflow="visible" opacity=".75" fill="none" stroke="#474c59"/></svg>