<svg xmlns="http://www.w3.org/2000/svg" width="32" height="32"><rect width="18" height="18" rx=".541" ry=".541" x="3" y="-29" transform="scale(1 -1)" style="marker:none" color="#000" fill="#f2f2f2" overflow="visible"/><path style="text-align:start;line-height:125%;-inkscape-font-specification:Open Sans Semi-Bold" d="M10.094 14.25c-.005.055-.009.197-.031.406-.041.332-.072.612-.094.844l-.031.438-.032.312c-.513.036-1.066.063-1.625.063-.372 0-.743-.036-1.125-.063l.094.969c.145.009.349.031.594.031.631 0 1.274-.04 1.968-.094-.068.813-.08 1.534-.093 2.157-.459.25-.826.492-1.094.687C7.222 21.058 6.5 22.219 6.5 23.531 6.5 24.5 6.923 25 7.75 25c.686 0 1.41-.294 2.188-.844.077.486.133.81.156.938l1-.375a8.242 8.242 0 0 1-.219-1.313 10.81 10.81 0 0 0 1.594-1.906H11.5c-.057 0-.102-.022-.156-.031-.19.262-.381.513-.594.75-.018-.27-.02-.742-.031-1.094a.994.994 0 0 1-.219-.625v-6.219l-.406-.031zm-.406 6.031c.013 1.154.056 2.086.124 2.813-.667.613-1.289.937-1.874.937-.268 0-.407-.169-.407-.468 0-.064-.017-.111-.031-.157a.428.428 0 0 0 .031-.156c.055-.704.43-1.42 1.157-2.156.34-.359.682-.622 1-.813zm6.687 1.219c.012.103.031.203.031.313 0 .899-.44 1.61-1.312 2.156-.686.431-1.601.72-2.75.843l.594.938c1.312-.186 2.34-.566 3.093-1.125.968-.718 1.469-1.668 1.469-2.813 0-.108-.022-.208-.031-.312h-1.094z" font-size="13.951" font-weight="600" letter-spacing="0" word-spacing="0" fill="#666" font-family="Open Sans"/><rect width="19" height="19" rx="1" ry="1" x="2.5" y="10.5" style="marker:none" color="#000" fill="none" stroke="#000" stroke-linecap="round" stroke-linejoin="round" stroke-opacity=".196" overflow="visible"/><rect width="19" height="19" rx="1" ry="1" x="10.5" y="2.5" style="marker:none" color="#000" fill="#51a6f5" overflow="visible"/><rect width="19" height="19" rx="1" ry="1" x="10.5" y="2.5" style="marker:none;isolation:auto;mix-blend-mode:normal;solid-color:#000;solid-opacity:1;filter-blend-mode:normal;filter-gaussianBlur-deviation:0" opacity=".5" color="#000" stroke="#002e99" stroke-linecap="round" stroke-linejoin="round" overflow="visible" fill="none"/><path style="text-align:start;line-height:125%;-inkscape-font-specification:Open Sans Semi-Bold" d="M22.881 17l-1.047-3h-3.697l-1.032 3h-1.717l3.726-10h1.772l3.726 10h-1.73zm-1.39-4L20 8.652 18.48 13z" font-size="13.951" font-weight="600" letter-spacing="0" word-spacing="0" fill="#fff" font-family="Open Sans"/></svg>