<svg width="32" height="32" version="1.1" xmlns="http://www.w3.org/2000/svg" xmlns:xlink="http://www.w3.org/1999/xlink">
 <g transform="scale(3.7794)" style="paint-order:markers stroke fill">
  <path d="m1.588 1.058c-0.147 0-0.133 0.133-0.133 0.265h-0.529c-0.132 0-0.132 0-0.132 0.132v2.778c0 0.147 0.118 0.265 0.264 0.265h6.35a0.264 0.264 0 0 0 0.265-0.265v-2.778c0-0.132 0-0.132-0.133-0.132h-3.704c0-0.132 0.015-0.265-0.132-0.265z" fill="#fff" fill-opacity=".976" stroke="#000" stroke-opacity=".268" stroke-width=".529"/>
  <path d="m1.587 1.058c-0.146 0-0.132 0.133-0.132 0.265h-0.529c-0.132 0-0.132 0-0.132 0.132v2.778c0 0.147 0.118 0.265 0.264 0.265h6.35a0.264 0.264 0 0 0 0.265-0.265v-2.778c0-0.132 0-0.132-0.132-0.132h-3.705c0-0.132 0.015-0.265-0.132-0.265z" fill="#fff" fill-opacity=".976"/>
  <path d="m4.233 2.117c-0.146 0-0.19 0.138-0.264 0.265l-0.154 0.264h-3.418c-0.132 0-0.132 0.132-0.132 0.132v4.498c0 0.132 0.132 0.132 0.132 0.132h7.673c0.132 0 0.132-0.132 0.132-0.132v-5.027c0-0.132-0.132-0.132-0.132-0.132z" fill="none" stroke="#003779" stroke-opacity=".561" stroke-width=".529"/>
  <path d="m4.233 2.117c-0.146 0-0.19 0.138-0.264 0.264l-0.155 0.265h-3.417c-0.132 0-0.132 0.132-0.132 0.132v4.498c0 0.132 0.132 0.132 0.132 0.132h7.673c0.132 0 0.132-0.132 0.132-0.132v-5.027c0-0.132-0.132-0.132-0.132-0.132z" fill="#6ba4e7"/>
 </g>
 <path d="m16.014 13-6.089 6.09 1.179 1.178 0.982-0.982v4.714h3.143v-2.357c0-0.435 0.35-0.786 0.785-0.786 0.436 0 0.786 0.35 0.786 0.786v2.357h3.143v-4.714l0.982 0.982 1.179-1.179zm2.357 0.786v0.589l1.572 1.571v-2.16z" color="#000000" fill-opacity=".235" overflow="visible"/>
</svg>
