<svg width="32" height="32" version="1.1" xmlns="http://www.w3.org/2000/svg" xmlns:xlink="http://www.w3.org/1999/xlink">
 <path d="m13 26v1.5c0 0.277 0.223 0.5 0.5 0.5h13c0.277 0 0.5136-0.22333 0.5-0.5v-1.5h-13.5zm-8 0v1.5c0 0.277 0.223 0.5 0.5 0.5h5c0.277 0 0.47772-0.2239 0.5-0.5v-1.5h-5.5z" fill="#fbc02d" stroke="#ba8708" stroke-width="2"/>
 <path d="m13 26v1.5c0 0.277 0.223 0.5 0.5 0.5h13c0.277 0 0.5136-0.22333 0.5-0.5v-1.5h-13.5zm-8 0v1.5c0 0.277 0.223 0.5 0.5 0.5h5c0.277 0 0.47772-0.2239 0.5-0.5v-1.5h-5.5z" fill="#fbc02d" stroke-width=".5"/>
 <rect x="1" y="3" width="30" height="23" rx="2" ry="2" fill="#29702c" stroke-width=".54163"/>
 <g stroke-width=".5">
  <rect x="2" y="4" width="28" height="21" rx="1" ry="1" fill="#388e3c"/>
  <path d="m9 17.5-5 4v1.5l3-2v1l-3 2h2l0.5 1h2.5v-2.5l3-2.5h1.5l-3 2.5v2.5h19c0.277 0 0.5-0.223 0.5-0.5v-1.546l-3.5-4.454h-1l-1-1z" fill="#43a047" fill-rule="evenodd"/>
  <circle cx="29.25" cy="24.25" r=".75" fill="#fbc02d"/>
  <circle cx="29.25" cy="24.25" r=".25" fill="#263238"/>
  <circle cx="29.25" cy="4.75" r=".75" fill="#fbc02d"/>
  <circle cx="29.25" cy="4.75" r=".25" fill="#263238"/>
  <circle cx="2.75" cy="24.25" r=".75" fill="#fbc02d"/>
  <circle cx="2.75" cy="24.25" r=".25" fill="#263238"/>
  <circle cx="2.75" cy="4.75" r=".75" fill="#fbc02d"/>
  <circle cx="2.75" cy="4.75" r=".25" fill="#263238"/>
  <path d="m5 4v4l-1 1v1l1.5 1.5h19l3.5-4h2v-0.5h-2v-2l-4 4.5h-1.5l4-4.5-1-1z" fill="#43a047" fill-rule="evenodd"/>
 </g>
 <rect x="8" y="10" width="15" height="9" rx="1" ry="1" fill="#2a363c" stroke-width=".609"/>
 <rect x="9" y="11" width="13" height="7" ry="0" fill="#37474f" stroke-width=".5"/>
 <rect x="6" y="6" width="8" height="3" rx=".62261" ry=".62261" fill="#263238" stroke-width=".53452"/>
 <path d="m7 7h2v1h-2zm3 0h1v1h-1z" fill="#90a4ae" stroke-width=".70711"/>
 <rect x="18" y="20" width="8.5" height="3" ry=".5" fill="#eceff1" stroke-width=".5"/>
 <path d="m19 21h3v0.99998h-3z" fill="#37474f" stroke-width=".77459"/>
 <path d="m24 22 1-1 1 1z" fill="#37474f" fill-rule="evenodd" stroke-width=".40825"/>
 <rect x="12" y="7" width="1" height="1" ry="0" fill="#90a4ae" stroke-width=".5"/>
 <path d="m10 12h1v5h-1zm2 0h1v5h-1zm2 0h1v5h-1zm2 0h1v5h-1zm2 0h1v5h-1zm2 0h1v5h-1z" fill="#dfdfdf" fill-rule="evenodd" opacity=".15" stroke-width=".5" paint-order="fill markers stroke"/>
</svg>
