<svg xmlns="http://www.w3.org/2000/svg" height="32" width="32"><defs><linearGradient id="a"><stop offset="0"/><stop offset="1" stop-opacity="0"/></linearGradient><linearGradient id="d"><stop offset="0" stop-color="#d1ff82"/><stop offset=".262" stop-color="#9bdb4d"/><stop offset=".661" stop-color="#68b723"/><stop offset="1" stop-color="#3a9104"/></linearGradient><linearGradient id="c"><stop offset="0" stop-color="#fff"/><stop offset=".333" stop-color="#fff" stop-opacity=".235"/><stop offset=".951" stop-color="#fff" stop-opacity=".157"/><stop offset="1" stop-color="#fff" stop-opacity=".392"/></linearGradient><linearGradient id="b"><stop offset="0" stop-color="#8cd5ff"/><stop offset=".262" stop-color="#64baff"/><stop offset=".705" stop-color="#3689e6"/><stop offset="1" stop-color="#0d52bf"/></linearGradient></defs><path d="M21 2.5c3.601 0 6.5 2.899 6.5 6.5v2c0 3.601-2.899 6.5-6.5 6.5H8c-.29 0-.564-.026-.843-.063C5.95 18.997 3.754 19.482 2 18.47a3.918 3.918 0 0 1-.781-.625 8.122 8.122 0 0 0 2.313-2.125A6.484 6.484 0 0 1 1.5 11V9c0-3.601 2.9-6.5 6.5-6.5h13z" fill="#c0f471" stroke="#206c00" stroke-opacity=".392"/><path d="M11 13.5A6.486 6.486 0 0 0 4.5 20v2c0 3.601 2.899 6.5 6.5 6.5h13c.29 0 .564-.026.844-.063 1.205 1.559 3.402 2.044 5.156 1.032.3-.173.545-.394.781-.625a8.122 8.122 0 0 1-2.312-2.125A6.484 6.484 0 0 0 30.5 22v-2c0-3.601-2.899-6.5-6.5-6.5H11z" fill="#84d0ff" stroke="#002e99" stroke-opacity=".498" opacity=".75"/><path d="M9 23v2h2v-2H9zm3 0v2h2v-2h-2zm3 0v2h2v-2h-2z" fill="#002e99" fill-opacity=".498"/></svg>