<svg xmlns="http://www.w3.org/2000/svg" width="32" height="32"><path d="M16 1.5C8 1.5 1.5 8 1.5 16S8 30.5 16 30.5 30.5 24 30.5 16 24 1.5 16 1.5z" style="marker:none" color="#000" fill="#60b5fd" overflow="visible"/><path d="M16.177 1.465l-1.724.2-1.968.487c.167-.055.336-.102.509-.155l-.133-.222c-.413.084-.816.172-1.216.288l-.066.023c-.47.138-.923.284-1.37.465l-.045.044-.088.022c-.102.043-.208.088-.31.133l-.198.377-.11-.244c-.093.043-.198.088-.288.133l.044.421-.486.377-.266.709h.575l.221-.466.089-.155c.256-.172.512-.366.773-.531l.597.177c.396.255.797.52 1.194.775l.574-.51-.64-.265-.31-.576-1.127-.111-.023-.11.487.088.265-.266.619-.11c.144-.067.297-.124.442-.178l-.398.332 1.37.886v.532l-.53.51.707 1.329.487-.244.619-.886a20.6 20.6 0 0 0 2.41-.886l-.045.332.42.244.707-.443-.353-.399-.487.266-.155-.044c.035-.016.076-.03.111-.045l.707-1.728-1.547-.576h-.044zM9.258 4.057l.597.377h.464v-.443l-.575-.244zm-1.768 0l-.243.643s-.44.062-.553.088C5.239 6.06 2.293 8.804 1.61 13.983c.027.12.486.82.486.82l1.105.62 1.128.288.464.554.752.531.42-.066.309.133v.11l-.398 1.064-.331.465.088.222-.243.864.928 1.64.973.775.42.598-.044 1.196.31.665-.31 1.307a.22.22 0 0 0 0 .133c.04.13 1.707 1.005 1.812.93.026-.018.021-.027.044-.044a7.22 7.22 0 0 1-.928-3.545c0-2.042.856-3.864 2.21-5.184l-.397-.753-.796-.177-.42-1.064-1.04.111-.905-.62-.973.797v.111c-.289-.079-.627-.094-.884-.244l-.2-.576v-.62l-.662.066c.053-.398.123-.798.177-1.196h-.376l-.398.465-.354.155-.53-.288-.044-.62.11-.665.774-.598h.64l.133-.332.774.177.597.71.088-1.175 1.017-.776.354-.841.773-.31.398-.577.95-.155.51-.686H8.66l.907-.4h.64l.818-.265.155.731.354-.51-.398-.265.088-.31-.331-.289-.354-.088.089-.377-.266-.51-.64.244.11-.465-.752-.399-.574.953.066.354-.597.244-.354.731-.176-.687-.995-.398-.177-.51 1.348-.731.597-.532.044-.62-.331-.177zm13.66.266l-.11.067v.376l-1.04.62.2.931.597-.399.398.4.42.243.287-.687-.155-.42.089-.156a8.282 8.282 0 0 0-.686-.975zm-2.763.886v.4l.221.22v.599l-.132.753.663-.11.486-.466-.442-.376c-.14-.353-.267-.681-.442-1.02zm-.574.776l-.398.11.11.71.509-.266zm3.05.399l-.376.265.155.4h-.597l-.331.509-.398.443-.73.155.42.399.11.399h-.53l-.707.376v1.064h.31l.309.31.685-.31.265-.665.487-.288.11-.222.818-.221.442.487.508.244-.287.532.42-.111.221-.532-.552-.62h.243l.552.443.11.576.266.288c.095-.462.155-.95.155-1.44a7.819 7.819 0 0 0-.553-2.37l-.685.553-.84-.2zm-.376 4.231l-1.039.11-.906.222c-.52.56-1.076 1.147-1.57 1.729l-.574 1.329.265.288-.486.709.42.93a7.118 7.118 0 0 0 5.835-4.409l-.22.222-1.017-.953z" style="marker:none" color="#000" overflow="visible" opacity=".5" fill="#002e99"/><path style="marker:none" d="M15.719 1.5c2.284 0 7.343 4.086 7.343 10.214 0 3.897-3.187 5.286-7.093 5.286l-.375.031c-3.836.195-6.907 3.344-6.907 7.219 0 2.147.948 4.082 2.438 5.406 1.523.544 3.166.844 4.875.844 7.83 0 14.2-6.235 14.469-14-.264-7.798-6.633-14.98-14.47-15h-.28z" color="#000" overflow="visible" opacity=".3"/><path d="M15.484 1.403c3.775 0 7.194 3.432 7.453 7.468 0 3.915-3.174 7.096-7.08 7.096l-.373.023a7.27 7.27 0 0 0 0 14.518v.023c.124.003.247 0 .373 0 8.018 0 14.533-6.529 14.533-14.564S23.875 1.403 15.857 1.403c-.126 0-.249-.003-.373 0z" style="marker:none" color="#000" overflow="visible" fill="#97d84a"/><path d="M15.602 1.477c3.775 0 7.19 3.352 7.45 7.388 0 3.915-3.167 7.112-7.074 7.112l-.376.022c-3.836.196-7.022 3.352-7.022 7.245 0 3.892 3.186 7.071 7.022 7.267v.022c.125.003.25 0 .376 0M16 1.466c-8 0-14.5 6.514-14.5 14.533C1.5 24.02 8 30.533 16 30.533s14.5-6.515 14.5-14.534C30.5 7.98 24 1.466 16 1.466z" style="marker:none" color="#000" overflow="visible" opacity=".3" fill="none" stroke="#002728"/></svg>