<svg xmlns="http://www.w3.org/2000/svg" width="32" height="32"><defs><linearGradient id="e"><stop offset="0" stop-color="#ffa154"/><stop offset="1" stop-color="#f37329"/></linearGradient><linearGradient id="a"><stop offset="0" stop-color="#fff"/><stop offset=".042" stop-color="#fff" stop-opacity=".235"/><stop offset=".958" stop-color="#fff" stop-opacity=".157"/><stop offset="1" stop-color="#fff" stop-opacity=".392"/></linearGradient><linearGradient id="b"><stop offset="0" stop-color="#181818"/><stop offset="1" stop-color="#181818" stop-opacity="0"/></linearGradient><linearGradient id="c"><stop offset="0" stop-color="#181818"/><stop offset="1" stop-color="#181818" stop-opacity="0"/></linearGradient><linearGradient id="d"><stop offset="0" stop-color="#181818" stop-opacity="0"/><stop offset=".5" stop-color="#181818"/><stop offset="1" stop-color="#181818" stop-opacity="0"/></linearGradient></defs><rect style="marker:none" y="2.5" x="2.5" ry="2.16" rx="2.16" height="27" width="27" color="#000" overflow="visible" fill="#fd9a4d"/><rect style="marker:none" y="2.5" x="2.5" ry="2.16" rx="2.16" height="27" width="27" color="#000" overflow="visible" opacity=".35" fill="none" stroke="#a62100" stroke-linecap="round" stroke-linejoin="round"/><path style="line-height:125%;text-align:start" d="M6.095 24.352c0-.46.159-.847.477-1.16a1.586 1.586 0 0 1 1.167-.477c.449 0 .83.159 1.142.477.318.313.477.7.477 1.16 0 .45-.16.834-.477 1.152-.313.313-.693.47-1.142.47-.46 0-.849-.157-1.167-.47a1.552 1.552 0 0 1-.477-1.152M6 16.956v2.725c3.48 0 6.307 2.832 6.307 6.319h2.734c0-4.995-4.056-9.044-9.041-9.044zm.005-5.962v3.012c6.608 0 11.973 5.373 11.973 11.99H21c0-8.284-6.724-15.002-14.995-15.002z" font-weight="700" font-size="13.59" font-family="Bitstream Vera Serif" fill="#fff"/></svg>