<svg xmlns="http://www.w3.org/2000/svg" width="32" height="32"><defs><linearGradient id="a"><stop offset="0" stop-color="#fff"/><stop offset=".063" stop-color="#fff" stop-opacity=".235"/><stop offset=".951" stop-color="#fff" stop-opacity=".157"/><stop offset="1" stop-color="#fff" stop-opacity=".392"/></linearGradient><linearGradient id="b"><stop offset="0" stop-color="#fff"/><stop offset=".063" stop-color="#fff" stop-opacity=".235"/><stop offset=".951" stop-color="#fff" stop-opacity=".157"/><stop offset="1" stop-color="#fff" stop-opacity=".392"/></linearGradient><linearGradient id="c"><stop offset="0" stop-color="#fff0bf"/><stop offset="1" stop-color="#fdde76"/></linearGradient><linearGradient id="d"><stop offset="0" stop-color="#ffeeb6"/><stop offset="1" stop-color="#feeeb7"/></linearGradient><linearGradient id="e"><stop offset="0" stop-color="#969696"/><stop offset=".5" stop-color="#858585" stop-opacity=".635"/><stop offset="1" stop-color="#939393" stop-opacity="0"/></linearGradient><linearGradient id="f"><stop offset="0" stop-color="#b67926"/><stop offset="1" stop-color="#eab41a"/></linearGradient><linearGradient id="g"><stop offset="0" stop-color="#fff"/><stop offset=".063" stop-color="#fff" stop-opacity=".235"/><stop offset=".951" stop-color="#fff" stop-opacity=".157"/><stop offset="1" stop-color="#fff" stop-opacity=".392"/></linearGradient><linearGradient id="h"><stop offset="0" stop-color="#fff"/><stop offset="1" stop-color="#fff" stop-opacity="0"/></linearGradient><linearGradient id="i"><stop offset="0" stop-color="#fff"/><stop offset="1" stop-color="#fff" stop-opacity="0"/></linearGradient><linearGradient id="j"><stop offset="0"/><stop offset=".5" stop-opacity=".498"/><stop offset="1" stop-opacity="0"/></linearGradient><linearGradient id="k"><stop offset="0" stop-color="#fff"/><stop offset="1" stop-color="#fff" stop-opacity="0"/></linearGradient><linearGradient id="l"><stop offset="0" stop-color="#a0a0a0"/><stop offset=".5" stop-color="#8f8f8f" stop-opacity=".635"/><stop offset="1" stop-color="#9d9d9d" stop-opacity="0"/></linearGradient><linearGradient id="m"><stop offset="0" stop-color="#f4f4f4"/><stop offset="1" stop-color="#dbdbdb"/></linearGradient><linearGradient id="n"><stop offset="0" stop-color="#fff3cb"/><stop offset=".262" stop-color="#fdde76"/><stop offset=".661" stop-color="#f9c440"/><stop offset="1" stop-color="#e48b20"/></linearGradient><linearGradient id="o"><stop offset="0" stop-color="#b67926"/><stop offset="1" stop-color="#eab41a"/></linearGradient><linearGradient id="p"><stop offset="0" stop-color="#181818"/><stop offset="1" stop-color="#181818" stop-opacity="0"/></linearGradient><linearGradient id="q"><stop offset="0" stop-color="#181818"/><stop offset="1" stop-color="#181818" stop-opacity="0"/></linearGradient><linearGradient id="r"><stop offset="0" stop-color="#181818" stop-opacity="0"/><stop offset=".5" stop-color="#181818"/><stop offset="1" stop-color="#181818" stop-opacity="0"/></linearGradient></defs><rect style="marker:none" y="2.5" x="2.5" ry="2.16" rx="2.16" height="27" width="27" color="#000" overflow="visible" fill="#fbd15b" stroke="#b67926" stroke-linecap="round" stroke-linejoin="round"/><rect width="27" height="27" rx="2.16" ry="2.16" x="2.5" y="2.5" style="marker:none" color="#000" overflow="visible" fill="#fbd15b"/><path style="marker:none" d="M10 23h12v-2.5H10z" color="#000" overflow="visible" fill="#b3b3b3"/><path d="M10.497 22.5h11.006" opacity=".2" fill="none" stroke="#000" stroke-linecap="square"/><path style="marker:none" d="M4.695 4.507c-.207 0-.195.02-.195.174v14.414c0 .288-.035.385.333.385h4.268c.778 0 1.432-.148 1.399.73v2.27h11v-2.36c0-.646.692-.64 1.32-.64h4.456c.229 0 .224-.007.224-.24V4.673c0-.224-.01-.166-.204-.166z" color="#000" overflow="visible" opacity=".3" fill="none" stroke="#b67926"/><g transform="matrix(1.1 0 0 1.09842 -1.6 -2.667)"><rect width="20" height="13.182" rx="2.821" ry="2.821" x="6" y="7.818" style="marker:none" overflow="visible" fill="#8f8f8f" fill-rule="evenodd"/><rect width="20" height="13" rx="1" ry="1" x="6" y="7" style="marker:none" overflow="visible" fill="#f9f9f9" fill-rule="evenodd"/><path d="M13.483 14.129l-6.348 5.54zm5.049.025l6.392 5.413z" style="marker:none" overflow="visible" fill="none" stroke="#a0a0a0" stroke-width=".91" opacity=".5"/><path d="M6.22 8.384L16 15.958l9.928-7.625" style="marker:none" overflow="visible" fill="none" stroke="#969696" stroke-width=".91" opacity=".5"/></g><path style="marker:none" d="M4.5 3C3.669 3 3 3.669 3 4.5v15c0 .831.669 1.5 1.5 1.5H10v-1H4.5a.499.499 0 0 1-.5-.5v-15c0-.277.223-.5.5-.5h23c.277 0 .5.223.5.5v15c0 .277-.223.5-.5.5H22v1h5.5c.831 0 1.5-.669 1.5-1.5v-15c0-.831-.669-1.5-1.5-1.5zM10 21.5v1.364c0 .63.515 1.136 1.154 1.136h9.692c.64 0 1.154-.507 1.154-1.136V21.5c0 .63-.515 1.5-1.154 1.5h-9.692c-.64 0-1.154-.87-1.154-1.5z" color="#000" overflow="visible" fill="#fdecbb"/></svg>