<svg xmlns="http://www.w3.org/2000/svg" width="32" height="32"><rect style="marker:none" y="2.5" x="2.5" ry="2.16" rx="2.16" height="27" width="27" color="#000" overflow="visible" fill="#fe9e51"/><rect style="marker:none" y="2.5" x="2.5" ry="2.16" rx="2.16" height="27" width="27" color="#000" overflow="visible" opacity=".35" fill="none" stroke="#a62100" stroke-linecap="round" stroke-linejoin="round"/><path style="marker:none" d="M16.467 6c-.54-.077-.453.423-.445.774-.006 4.169.012 8.34-.009 12.508-.145.325-.552.01-.8.072-1.735-.054-3.602 1.195-3.848 3.03-.253 1.38 1.032 2.594 2.322 2.615 1.918.053 3.578-1.878 3.334-3.814.007-3.328-.013-6.66.01-9.986.131-.316.486-.019.651.095 1.521.92 2.85 2.446 2.945 4.327.081 1.089-.147 2.173-.46 3.208 1.398-2.301 1.322-5.504-.406-7.606-1.33-1.388-2.58-3.045-2.833-5.03-.05-.187-.307-.185-.46-.192z" color="#000" overflow="visible" fill="#fff6ea"/></svg>