<svg xmlns="http://www.w3.org/2000/svg" xmlns:xlink="http://www.w3.org/1999/xlink" version="1.0" width="32" height="32"><defs><linearGradient id="b"><stop offset="0"/><stop offset="1" stop-opacity="0"/></linearGradient><linearGradient id="a"><stop offset="0" stop-opacity="0"/><stop offset=".5"/><stop offset="1" stop-opacity="0"/></linearGradient><linearGradient id="s"><stop offset="0" stop-color="#fff"/><stop offset="1" stop-color="#fff" stop-opacity="0"/></linearGradient><linearGradient id="c"><stop offset="0" stop-opacity=".318"/><stop offset="1" stop-opacity=".24"/></linearGradient><linearGradient id="d"><stop offset="0" stop-color="#fff"/><stop offset=".036" stop-color="#fff" stop-opacity=".235"/><stop offset=".951" stop-color="#fff" stop-opacity=".157"/><stop offset="1" stop-color="#fff" stop-opacity=".392"/></linearGradient><linearGradient id="e"><stop offset="0" stop-color="#f4f4f4"/><stop offset="1" stop-color="#dbdbdb"/></linearGradient><linearGradient xlink:href="#e" id="z" gradientUnits="userSpaceOnUse" gradientTransform="matrix(.85714 0 0 .52148 -4.571 1.684)" x1="25.132" y1=".985" x2="25.132" y2="47.013"/><linearGradient id="u"><stop offset="0" stop-color="#ff54d2" stop-opacity="0"/><stop offset=".324" stop-color="#ff54d2" stop-opacity="0"/><stop offset=".561" stop-color="#ff54d2" stop-opacity=".252"/><stop offset="1" stop-color="#ff54d2" stop-opacity=".478"/></linearGradient><linearGradient id="t"><stop offset="0" stop-color="#fff" stop-opacity="0"/><stop offset=".405" stop-color="#fff" stop-opacity="0"/><stop offset="1" stop-color="#fff" stop-opacity=".478"/></linearGradient><linearGradient id="l"><stop offset="0" stop-color="#fff"/><stop offset=".338" stop-color="#fff" stop-opacity=".235"/><stop offset=".62" stop-color="#fff" stop-opacity=".157"/><stop offset="1" stop-color="#fff" stop-opacity=".392"/></linearGradient><linearGradient id="r"><stop offset="0" stop-color="#ff54d2" stop-opacity="0"/><stop offset=".324" stop-color="#f62b68"/><stop offset=".561" stop-color="#ff0105"/><stop offset="1" stop-color="#ff54d2" stop-opacity=".478"/></linearGradient><linearGradient id="p"><stop offset="0" stop-color="#612f91"/><stop offset="1" stop-color="#1a4aa2"/></linearGradient><linearGradient gradientTransform="matrix(.2211 0 0 .2211 6.693 6.693)" gradientUnits="userSpaceOnUse" id="q" y2="45.369" x2="7.078" y1="3.082" x1="7.078"><stop offset="0" stop-color="#170418"/><stop offset="1" stop-color="#50386b"/></linearGradient><linearGradient id="o"><stop offset="0" stop-color="#07132d"/><stop offset="1" stop-color="#425479"/></linearGradient><linearGradient id="n"><stop offset="0" stop-color="#2d3955"/><stop offset=".725" stop-color="#2b3853"/><stop offset=".75" stop-color="#192640"/><stop offset="1" stop-color="#08142e"/></linearGradient><linearGradient id="m"><stop offset="0" stop-color="#7a8498"/><stop offset="1" stop-color="#34405c"/></linearGradient><linearGradient id="k"><stop offset="0" stop-color="#fff"/><stop offset=".424" stop-color="#fff" stop-opacity=".235"/><stop offset=".821" stop-color="#fff" stop-opacity=".157"/><stop offset="1" stop-color="#fff" stop-opacity=".392"/></linearGradient><linearGradient id="f"><stop offset="0" stop-color="#7a0f01"/><stop offset="1" stop-color="#d31807"/></linearGradient><linearGradient id="g"><stop offset="0" stop-color="#ec4502"/><stop offset="1" stop-color="#fe7617"/></linearGradient><linearGradient id="h"><stop offset="0" stop-color="#0b85e9"/><stop offset="1" stop-color="#69d1ef"/></linearGradient><linearGradient id="i"><stop offset="0" stop-color="#e89c42"/><stop offset="1" stop-color="#faca67"/></linearGradient><linearGradient xlink:href="#e" id="v" gradientUnits="userSpaceOnUse" gradientTransform="matrix(.85714 0 0 .52148 -4.571 1.684)" x1="25.132" y1=".985" x2="25.132" y2="47.013"/><linearGradient xlink:href="#i" id="w" gradientUnits="userSpaceOnUse" gradientTransform="matrix(.17104 0 0 .1707 37.255 9.744)" x1="-96.557" y1="110.925" x2="-96.557" y2="39.992"/><linearGradient xlink:href="#g" id="x" gradientUnits="userSpaceOnUse" gradientTransform="matrix(.11022 .00852 -.00909 .10377 31.66 14.157)" x1="-211.289" y1="88.75" x2="-208.497" y2="75.191"/><linearGradient xlink:href="#f" id="y" gradientUnits="userSpaceOnUse" gradientTransform="matrix(.10884 0 0 .10845 26.793 11.848)" x1="-184.924" y1="113.979" x2="-175.253" y2="88.801"/><radialGradient cx="23.896" cy="3.99" r="20.397" id="j" gradientUnits="userSpaceOnUse" gradientTransform="matrix(0 1.23165 -1.62575 0 18.487 -28.722)"><stop offset="0" stop-color="#fff"/><stop offset=".262" stop-color="#ddd"/><stop offset=".661" stop-color="#abacae"/><stop offset="1" stop-color="#89898b"/></radialGradient></defs><path d="M1 5l28 .002V27H1z" fill="url(#v)" transform="matrix(.93783 .16532 -.16536 .93758 4.579 -1.481)"/><path d="M28.5 26.5h-27v-21h27z" fill="none" stroke="#fff" stroke-width="1.05" stroke-linecap="round" stroke-linejoin="round" transform="matrix(.93783 .16532 -.16536 .93758 4.579 -1.481)"/><path d="M2 6v20h26V6z" style="marker:none" color="#000" overflow="visible" fill="url(#w)" transform="matrix(.93783 .16532 -.16536 .93758 4.579 -1.481)"/><path d="M7.936 16.912a.861.861 0 0 0-.338-.02c-.478.071-.582.358-.647.493a1.596 1.596 0 0 0-.12.36c-.054.23-.087.477-.12.724-.026.203-.05.383-.073.541-.162.008-.34.016-.544.023-.257.01-.516.017-.76.049a1.721 1.721 0 0 0-.387.086.887.887 0 0 0-.273.144.783.783 0 0 0-.291.488c-.067.453.191.639.308.742.118.103.217.162.325.224.217.124.461.237.7.346.198.09.37.173.524.247-.039.148-.085.31-.137.496-.065.233-.13.467-.169.696-.02.114-.036.223-.026.377a.846.846 0 0 0 .472.716c.436.209.698.04.836-.031.137-.072.227-.145.321-.222.188-.154.37-.335.55-.514.148-.147.28-.278.398-.39.138.082.29.176.462.284.216.135.434.273.653.383.11.055.212.105.37.146a.97.97 0 0 0 .317.037.859.859 0 0 0 .54-.226c.337-.323.245-.618.212-.765a1.632 1.632 0 0 0-.128-.36c-.1-.219-.232-.442-.36-.662a28.64 28.64 0 0 1-.276-.483c.124-.097.261-.202.42-.321.199-.15.398-.3.573-.46.087-.081.17-.159.257-.287a.773.773 0 0 0 .057-.833c-.229-.408-.55-.418-.707-.438a1.89 1.89 0 0 0-.401-.004 8.77 8.77 0 0 0-.773.103c-.214.035-.402.066-.57.09a29.897 29.897 0 0 1-.2-.484 7.361 7.361 0 0 0-.299-.665c-.055-.105-.106-.202-.21-.323a.924.924 0 0 0-.486-.307zm.897 1.801c.003 0 .023.01.027.01l-.038.004c-.012 0-.018-.015.01-.014zm.406.214c.03.034.026.046.02.037a1.956 1.956 0 0 1-.02-.037zm-2.31.05c.032-.009.031.01.021.011l-.045.004c.005-.001.021-.015.025-.016zm-.335.287c-.002.009-.005.032-.007.037-.003.012-.013 0 .007-.037zm3.541 1.31c-.005-.011.01-.007.018.034-.003-.008-.016-.029-.018-.033zm-.064.432c-.025.037-.04.038-.032.03l.032-.03zm-3.766.06l-.008.042c-.004-.044.01-.054.008-.043zm.178.413c.008.004.03.015.033.018.012.007 0 .012-.033-.018zm2.226.806c.011-.008.01.008-.03.027l.03-.027zm-.496.048l.041.024c-.045-.012-.052-.028-.041-.024z" style="marker:none" color="#000" overflow="visible" opacity=".05"/><path d="M5.318 5.292L3.484 15.69a8.3 8.3 0 0 0 2.046.632c2.144.378 1.965-.395 3.812-.07 1.846.326 2.727 1.693 5.223 2.133 3.092.545 4.136-1.223 6.583-.792 1.91.337 1.87 1.399 3.973 1.77 1.42.25 1.988-.212 2.93-.41L29.7 9.59z" style="marker:none" color="#000" overflow="visible" opacity=".07"/><path d="M5.462 4.475l-1.688 9.57c.333.23.765.462 1.26.55 1.132.199 2.4-.518 4.29-.185 1.89.333 3.109 1.73 5.492 2.15 2.382.42 3.211-1.143 6.25-.608 3.038.536 2.567 1.536 4.47 1.871 1.31.231 1.95-.127 2.763-.282l1.547-8.768z" fill="#2197ea"/><path d="M21.314 14.542c-1.596-.282-2.68-.008-3.575.267-.896.275-1.581.534-2.675.341-1.123-.198-1.964-.622-2.798-1.063-.833-.44-1.663-.906-2.693-1.088-1.013-.178-1.87-.084-2.577.03-.707.115-1.26.234-1.713.155-.41-.072-.784-.282-1.085-.49a.428.427 8.896 0 0-.172-.074l-.32 1.81c.536.24 1.221.472 2.048.618 1.12.198 1.725.094 2.188-.013.463-.107.756-.209 1.624-.056.834.147 1.457.535 2.228.977.77.442 1.681.924 2.996 1.155 1.632.288 2.786-.041 3.75-.365.964-.323 1.718-.623 2.832-.427.879.155 1.248.45 1.744.806.495.357 1.109.766 2.23.964 1.427.251 2.146-.167 2.922-.369l.28-1.59a.428.427 8.896 0 0-.157.001c-.892.17-1.395.496-2.607.282-.873-.154-1.11-.41-1.633-.787-.523-.376-1.269-.808-2.837-1.084z" style="marker:none" color="#000" overflow="visible" opacity=".1" fill="#fff"/><path d="M21.181 15.296c-3.038-.535-3.867 1.029-6.25.609-2.383-.42-3.602-1.818-5.491-2.151-1.89-.333-3.158.384-4.29.184-.496-.087-.927-.32-1.26-.55l-.168.954a8.3 8.3 0 0 0 2.045.631c2.145.378 1.966-.394 3.812-.069 1.847.326 2.728 1.692 5.224 2.132 3.092.546 4.136-1.223 6.582-.792 1.91.337 1.871 1.399 3.974 1.77 1.42.25 1.988-.211 2.93-.41l.126-.719c-.813.155-1.454.513-2.764.282-1.903-.335-1.432-1.335-4.47-1.87z" style="marker:none" color="#000" overflow="visible" opacity=".3" fill="#fff"/><path d="M21.065 15.952c-3.038-.535-3.867 1.029-6.25.609-2.382-.42-3.601-1.818-5.491-2.151-1.89-.333-3.158.384-4.29.184-.495-.087-.927-.32-1.26-.55l-.168.954a8.3 8.3 0 0 0 2.046.631c2.144.378 1.965-.394 3.812-.069 1.846.326 2.727 1.692 5.223 2.133 3.093.545 4.136-1.224 6.583-.793 1.91.337 1.87 1.4 3.973 1.77 1.42.25 1.988-.211 2.93-.41l.126-.719c-.813.155-1.453.513-2.764.282-1.902-.335-1.431-1.335-4.47-1.87z" style="marker:none" color="#000" overflow="visible" fill="#fff"/><path d="M7.73 17.602c-.262.039-.286 1.868-.478 2.04-.185.165-2.084.03-2.12.27-.036.25 1.803.87 1.92 1.099.112.22-.573 1.884-.341 1.995.24.115 1.398-1.331 1.662-1.361.255-.029 1.731 1.13 1.91.958.185-.178-.937-1.69-.89-1.938.044-.238 1.64-1.184 1.52-1.401-.126-.225-1.978.284-2.213.16-.228-.118-.716-1.86-.97-1.822z" style="marker:none" color="#000" overflow="visible" opacity=".15"/><path d="M6.74 18.45c.255-.085 1.08 1.63 1.336 1.711.266.084 2.086-.781 2.257-.572.165.202-1.313 1.472-1.316 1.727-.003.264 1.433 1.626 1.274 1.844-.153.21-1.891-.72-2.15-.645-.267.08-1.2 1.787-1.47 1.712-.259-.072.145-1.917-.012-2.125-.162-.215-2.175-.522-2.183-.786-.007-.255 1.981-.464 2.143-.669.167-.212-.144-2.109.12-2.197z" style="marker:none" color="#000" overflow="visible" fill="url(#x)" transform="matrix(.93783 .16532 -.16536 .93758 4.579 -1.481)"/><path d="M7.865 16.931l-.082.054-.003.003c-.2.312-.235 1.827-.41 1.982a.128.128 0 0 1-.03.02l.051.05c1.09.543.506-2.03.49-2.103-.006-.002-.01-.006-.016-.006z" opacity=".5" fill="#9d0f06"/><path d="M4.866 21.273c-.242.002-.381.013-.381.013V21.344c.141.257 2.016.552 2.173.76.157.207-.246 2.052.014 2.124.268.075 1.201-1.633 1.469-1.711.257-.076 1.974.842 2.146.647l-.003-.003c-1.448-1.756-4.373-1.897-5.418-1.888z" opacity=".75" fill="url(#y)" transform="matrix(.93783 .16532 -.16536 .93758 4.579 -1.481)"/><path d="M.5 4.5l29 .002V27.5H.5v-23z" fill="none" stroke="#000" stroke-width="1.05" stroke-linejoin="round" stroke-opacity=".196" transform="matrix(.93783 .16532 -.16536 .93758 4.579 -1.481)"/><g><path d="M1 5l28 .002V27H1z" fill="url(#z)" transform="translate(1 2)"/><path d="M29.5 28.5h-27v-21h27z" fill="none" stroke="#fff" stroke-linecap="round" stroke-linejoin="round"/><path style="marker:none" d="M3 8v20h26V8z" color="#000" overflow="visible" fill="#f5bc5c"/><path d="M3 8v10.206c.386.178.875.34 1.403.34 1.207 0 2.388-.974 4.403-.974 2.015 0 3.53 1.224 6.071 1.224s3.113-1.769 6.353-1.769c3.24 0 2.935 1.12 4.963 1.12 1.398 0 1.994-.487 2.807-.796V8z" fill="#44b3ed"/><path style="marker:none" d="M21.23 15.523c-1.702 0-2.773.48-3.65.928-.876.448-1.537.84-2.703.84-1.198 0-2.145-.285-3.087-.589-.943-.304-1.886-.634-2.984-.634-1.08 0-1.949.254-2.66.501-.71.248-1.26.472-1.743.472-.436 0-.862-.149-1.211-.31A.45.449 0 0 0 3 16.687v1.931c.598.15 1.349.266 2.23.266 1.194 0 1.802-.218 2.26-.413.46-.195.744-.354 1.67-.354.89 0 1.604.288 2.482.605.878.316 1.907.648 3.31.648 1.74 0 2.873-.55 3.81-1.061.938-.51 1.664-.958 2.852-.958.937 0 1.372.237 1.95.516.577.278 1.286.59 2.481.59 1.522 0 2.19-.564 2.955-.915v-1.695a.45.449 0 0 0-.163.03c-.89.338-1.351.766-2.644.766-.931 0-1.222-.223-1.832-.516-.61-.293-1.46-.604-3.131-.604z" color="#000" overflow="visible" opacity=".1" fill="#fff"/><path style="marker:none" d="M21.23 16.327c-3.24 0-3.812 1.77-6.353 1.77-2.54 0-4.056-1.224-6.071-1.224-2.015 0-3.196.973-4.403.973-.528 0-1.017-.162-1.403-.34v1.018c.58.154 1.334.28 2.23.28 2.287 0 1.961-.767 3.93-.767 1.97 0 3.13 1.253 5.791 1.253 3.297 0 4.054-2.02 6.663-2.02 2.037 0 2.19 1.106 4.431 1.106 1.515 0 2.018-.58 2.955-.958v-.766c-.813.309-1.41.796-2.807.796-2.028 0-1.724-1.12-4.963-1.12z" color="#000" overflow="visible" opacity=".3" fill="#fff"/><path style="marker:none" d="M21.23 17.027c-3.24 0-3.812 1.77-6.353 1.77-2.54 0-4.056-1.225-6.071-1.225-2.015 0-3.196.973-4.403.973-.528 0-1.017-.161-1.403-.339v1.018c.58.154 1.334.28 2.23.28 2.287 0 1.961-.767 3.93-.767 1.97 0 3.13 1.253 5.791 1.253 3.297 0 4.054-2.02 6.663-2.02 2.037 0 2.19 1.106 4.431 1.106 1.515 0 2.018-.58 2.955-.958v-.767c-.813.31-1.41.796-2.807.796-2.028 0-1.724-1.12-4.963-1.12z" color="#000" overflow="visible" fill="#fff"/><path style="marker:none" d="M7.74 20.45c.255-.085 1.08 1.63 1.336 1.711.266.084 2.086-.781 2.257-.572.165.202-1.313 1.472-1.316 1.727-.003.264 1.433 1.626 1.274 1.844-.153.21-1.891-.72-2.15-.645-.267.08-1.2 1.787-1.47 1.712-.259-.072.145-1.917-.012-2.125-.162-.215-2.175-.522-2.183-.786-.007-.255 1.981-.464 2.143-.669.167-.212-.144-2.109.12-2.197z" color="#000" overflow="visible" fill="#fc6801"/><path d="M1.5 6.5l29 .002V29.5h-29v-23z" fill="none" stroke="#000" stroke-linejoin="round" stroke-opacity=".196"/></g><g transform="matrix(.37931 0 0 .37931 19.931 19.93)" stroke-width="2.636"><path d="M16 1.5C8 1.5 1.5 8 1.5 16S8 30.5 16 30.5 30.5 24 30.5 16 24 1.5 16 1.5z" style="marker:none" color="#000" overflow="visible" opacity=".15" fill="none" stroke="#000"/><path d="M16 1.5C8 1.5 1.5 8 1.5 16S8 30.5 16 30.5 30.5 24 30.5 16 24 1.5 16 1.5z" style="marker:none" color="#000" overflow="visible" fill="#f9f9f9"/><path d="M16 6C10.482 6 6 10.483 6 16c0 5.518 4.482 10 10 10s10-4.482 10-10S21.517 6 16 6z" style="marker:none" color="#000" overflow="visible" fill="#e6e6e6"/><path d="M25 16a9 9 0 0 1-18 0 9 9 0 1 1 18 0z" style="marker:none" color="#000" overflow="visible" fill="#ccc"/><path d="M16 14c-1.104 0-2 .897-2 2 0 1.104.896 2 2 2 1.103 0 2-.896 2-2 0-1.103-.897-2-2-2z" opacity=".5" fill="none"/><path d="M21.5 16a5.5 5.5 0 1 0-11 0 5.5 5.5 0 0 0 11 0z" style="marker:none" color="#000" overflow="visible" opacity=".5" fill="none" stroke="#fff"/><circle r="5" cy="16" cx="16" opacity=".5" paint-order="markers stroke fill"/><circle cx="16" cy="16" r="4" opacity=".5" paint-order="markers stroke fill"/><path d="M14.44 14.351a.773.809 0 0 1-1.546 0 .773.809 0 1 1 1.547 0z" style="marker:none" color="#000" overflow="visible" opacity=".4" fill="#feffff"/></g></svg>