<svg xmlns="http://www.w3.org/2000/svg" width="32" height="32"><rect width="26" height="25" rx="1.5" ry="1.5" x="3" y="4" style="marker:none" color="#000" overflow="visible" fill="#fafafa"/><path d="M2.5 10v17.5c0 1.108.892 2 2 2h23c1.108 0 2-.892 2-2V10" style="marker:none" color="#000" overflow="visible" opacity=".2" fill="none" stroke="#000"/><path d="M25.5 22.5h-19zm-.014-8.981L6.5 13.505V25.5h19zM25.5 19.5h-19m19-3h-19m3.013-2.969L9.487 25.5m4.016-11.917L13.498 25.5m4-11.958l.005 11.958m3.987-12l.02 12" opacity=".25" fill="none" stroke="#5e553c"/><path d="M4.5 3.5c-1.108 0-2 .892-2 2v4h27v-4c0-1.108-.892-2-2-2z" style="marker:none" color="#000" overflow="visible" fill="#9add49"/><path d="M2.5 9.5v-4c0-1.108.892-2 2-2h23c1.108 0 2 .892 2 2v4z" style="marker:none" color="#000" overflow="visible" opacity=".25" fill="none" stroke="#126400"/><path d="M6.26 6.5c0 1-1.5 1-1.5 0s1.5-1 1.5 0zM27.25 6.5c0 1-1.5 1-1.5 0s1.5-1 1.5 0z" style="marker:none" color="#000" overflow="visible" opacity=".4" fill="#126400"/></svg>