<svg xmlns="http://www.w3.org/2000/svg" xmlns:xlink="http://www.w3.org/1999/xlink" width="32" height="32"><defs><linearGradient id="a"><stop offset="0" stop-color="#fff"/><stop offset=".123" stop-color="#fff" stop-opacity=".235"/><stop offset=".937" stop-color="#fff" stop-opacity=".157"/><stop offset="1" stop-color="#fff" stop-opacity=".392"/></linearGradient><linearGradient id="b"><stop offset="0" stop-color="#5f5f5f"/><stop offset=".262" stop-color="#4f4f4f"/><stop offset=".705" stop-color="#3b3b3b"/><stop offset="1" stop-color="#2b2b2b"/></linearGradient><linearGradient id="c"><stop offset="0" stop-color="#272727"/><stop offset="1" stop-color="#454545"/></linearGradient><linearGradient id="d"><stop offset="0" stop-color="#fff"/><stop offset=".027" stop-color="#fff" stop-opacity=".235"/><stop offset=".974" stop-color="#fff" stop-opacity=".157"/><stop offset="1" stop-color="#fff" stop-opacity=".392"/></linearGradient><linearGradient id="e"><stop offset="0" stop-color="#5f5f5f"/><stop offset=".262" stop-color="#4f4f4f"/><stop offset=".705" stop-color="#3b3b3b"/><stop offset="1" stop-color="#2b2b2b"/></linearGradient><linearGradient id="f"><stop offset="0" stop-color="#272727"/><stop offset="1" stop-color="#454545"/></linearGradient><linearGradient id="g"><stop offset="0" stop-color="#ddcfbd"/><stop offset="1" stop-color="#856f50"/></linearGradient><linearGradient id="h"><stop offset="0" stop-color="#a79071"/><stop offset="1" stop-color="#6f5d45"/></linearGradient><linearGradient x1="10.654" y1="1" x2="10.654" y2="3" id="o" xlink:href="#i" gradientUnits="userSpaceOnUse" gradientTransform="matrix(.6 0 0 .75 .6 .125)"/><linearGradient id="i"><stop offset="0" stop-color="#eee"/><stop offset="1" stop-color="#d9d9da"/></linearGradient><linearGradient x1="24" y1="44" x2="24" y2="3.899" id="p" xlink:href="#j" gradientUnits="userSpaceOnUse" gradientTransform="matrix(.6 0 0 .07692 1.8 .154)"/><linearGradient id="j"><stop offset="0" stop-color="#272727"/><stop offset="1" stop-color="#454545"/></linearGradient><linearGradient id="k"><stop offset="0" stop-color="#9b876c"/><stop offset=".954" stop-color="#9b876c"/><stop offset=".957" stop-color="#c2c2c2"/><stop offset="1" stop-color="#c2c2c2"/></linearGradient><linearGradient id="l"><stop offset="0" stop-color="#181818"/><stop offset="1" stop-color="#181818" stop-opacity="0"/></linearGradient><linearGradient id="m"><stop offset="0" stop-color="#181818"/><stop offset="1" stop-color="#181818" stop-opacity="0"/></linearGradient><linearGradient id="n"><stop offset="0" stop-color="#181818" stop-opacity="0"/><stop offset=".5" stop-color="#181818"/><stop offset="1" stop-color="#181818" stop-opacity="0"/></linearGradient></defs><path d="M27.491 2.304c-.203-.655-.076-1.17-.188-1.795H6.509L6.63 2.49" fill="#eee" stroke="#9b876c" stroke-width="1.017" stroke-linejoin="round" stroke-miterlimit="0"/><path style="marker:none" d="M7.5 3.5H5.1c-.342 0-.6-.032-.6-.073V1.33c0-.666.336-.83.775-.83H7.5" color="#000" overflow="visible" fill="url(#o)" stroke="url(#p)" stroke-linecap="round" stroke-linejoin="round"/><rect y="2.51" x="5.51" ry=".5" rx=".5" height="26.981" width="21.981" fill="#cebeaa" stroke="#a79071" stroke-width="1.019" stroke-linecap="round" stroke-linejoin="round" stroke-miterlimit="0"/><path style="marker:none" d="M7.5 2.5v27H5.1c-.343 0-.6-.286-.6-.659V2.5z" color="#000" overflow="visible" fill="#5f5f5f" stroke="#272727" stroke-linecap="round" stroke-linejoin="round"/><path style="marker:none" d="M16.942 9.53c-.625-.147-1.375.303-1.375.303l-.673.336s-.729.637-.737.853c-.41.727-.223 1.608-.265 2.403.04.682-.434 1.188-.196 1.88-.035.669.516 1.06.87 1.544.398.611.938 1.41.512 2.14-.787 1.143-2.095 1.748-3.29 2.37-.406.041-.253.431-.28.709-.001.221-.074.514.25.41H22.5v-1.147c-1.157-.586-2.364-1.214-3.175-2.256-.487-.698.001-1.537.386-2.158.3-.517.925-.847.934-1.506.23-.669-.117-1.223-.182-1.86-.085-.846.144-1.771-.26-2.558-.547-.805-1.55-1.158-2.459-1.374a4.225 4.225 0 0 0-.802-.09z" color="#000" overflow="visible" fill="#585858" stroke="#272727" stroke-linecap="round" stroke-linejoin="round"/></svg>