<svg width="32" height="32" version="1.1" xmlns="http://www.w3.org/2000/svg">
 <path d="m16 1.5c-8 0-14.5 6.5-14.5 14.5s6.5 14.5 14.5 14.5 14.5-6.5 14.5-14.5-6.5-14.5-14.5-14.5z" color="#000000" fill="none" opacity=".15" overflow="visible" stroke="#000"/>
 <path d="m16 2c-7.725 0-14 6.275-14 14s6.275 14 14 14 14-6.275 14-14-6.275-14-14-14z" color="#000000" fill="#f9f9f9" overflow="visible"/>
 <g stroke-opacity=".55">
  <path d="m16 2c-7.756 0-14 6.244-14 14h4.9c0-5.0414 4.0586-9.1 9.1-9.1zm9.1 14c0 5.0414-4.0586 9.1-9.1 9.1v4.9c7.756 0 14-6.244 14-14z" fill="#404447" stroke-width="1.96"/>
  <path d="m16 5c-6.094 0-11 4.906-11 11s4.906 11 11 11 11-4.906 11-11h-4.5294c0 3.5847-2.8858 6.4706-6.4706 6.4706-3.5847 0-6.4706-2.8858-6.4706-6.4706 0-3.5847 2.8858-6.4706 6.4706-6.4706z" fill="#83959d" stroke-width="1.8118"/>
  <g transform="matrix(.60736 0 0 .60736 1.5706 1.5706)" stroke-width="2.8">
   <path d="m23.758 10.586c-7.2972 0-13.172 5.8746-13.172 13.172s5.8746 13.172 13.172 13.172 13.172-5.8746 13.172-13.172-5.8746-13.172-13.172-13.172z" fill="#20cdab" stroke-width="3.0734"/>
  </g>
 </g>
 <circle cx="16" cy="16" r="4" fill="#f9f9f9" stroke-linecap="round" stroke-linejoin="round" stroke-opacity=".25" stroke-width="2"/>
</svg>
