<svg width="32" height="32" version="1.1" xmlns="http://www.w3.org/2000/svg" xmlns:xlink="http://www.w3.org/1999/xlink">
 <rect x="2" y="2" width="28" height="28" rx="2" ry="2" fill="#1f212a" stroke-width=".53846" style="paint-order:stroke markers fill"/>
 <rect x="3" y="3" width="26" height="26" rx="1" ry="1" fill="#3e4245" stroke-width=".5" style="paint-order:stroke markers fill"/>
 <path d="m6 7h12v1h-12z" fill="#fff" stroke-width=".5"/>
 <rect x="3" y="11" width="26" height="1" rx="0" ry="0" fill="#00000f" fill-rule="evenodd" opacity=".5" stroke-width=".40825" style="paint-order:fill markers stroke"/>
 <rect x="3" y="20" width="26" height="1" rx="0" ry="0" fill="#00000f" fill-rule="evenodd" opacity=".5" stroke-width=".40825" style="paint-order:fill markers stroke"/>
 <g fill="#72d406">
  <circle cx="21.5" cy="7.5" r=".5" opacity=".5" stroke="#508e0b" stroke-linecap="round" stroke-linejoin="round"/>
  <circle cx="21.5" cy="7.5" r=".5" stroke-width=".25"/>
  <circle cx="25.5" cy="7.5" r=".5" opacity=".5" stroke="#508e0b" stroke-linecap="round" stroke-linejoin="round"/>
  <circle cx="25.5" cy="7.5" r=".5" stroke-width=".25"/>
 </g>
 <path d="m6 16h12v1h-12z" fill="#fff" stroke-width=".5"/>
 <g fill="#72d406">
  <circle cx="21.5" cy="16.5" r=".5" opacity=".5" stroke="#508e0b" stroke-linecap="round" stroke-linejoin="round"/>
  <circle cx="21.5" cy="16.5" r=".5" stroke-width=".25"/>
  <circle cx="25.5" cy="16.5" r=".5" opacity=".5" stroke="#508e0b" stroke-linecap="round" stroke-linejoin="round"/>
  <circle cx="25.5" cy="16.5" r=".5" stroke-width=".25"/>
 </g>
 <path d="m6 25h12v1h-12z" fill="#fff" stroke-width=".5"/>
 <g fill="#72d406">
  <circle cx="21.5" cy="25.5" r=".5" opacity=".5" stroke="#508e0b" stroke-linecap="round" stroke-linejoin="round"/>
  <circle cx="21.5" cy="25.5" r=".5" stroke-width=".25"/>
  <circle cx="25.5" cy="25.5" r=".5" opacity=".5" stroke="#508e0b" stroke-linecap="round" stroke-linejoin="round"/>
  <circle cx="25.5" cy="25.5" r=".5" stroke-width=".25"/>
 </g>
 <rect x="16" y="14" width="16" height="16" rx="2" fill="#eff0f1" stroke="#000" stroke-opacity=".25"/>
 <path d="m22 16v4h1v-3h2v3h1v-4zm-2.293 4-0.707 0.707 5 5 5-5-0.707-0.707-4.293 4.293-1-1zm-1.707 6v2h12v-2h-1v1h-10v-1z" fill="#232629"/>
</svg>
