<svg xmlns="http://www.w3.org/2000/svg" width="32" height="32"><g transform="translate(130.042 40.553)"><path d="M-114.042-37.053c-2.078 0-3.564.465-4.637 1.213-1.073.749-1.744 1.786-2.17 2.976-.85 2.38-.68 5.357-.68 7.576 0 4.14.482 7.473 1.749 9.745 1.266 2.271 3.282 3.49 5.738 3.49 2.455 0 4.471-1.219 5.738-3.49 1.266-2.272 1.748-5.605 1.748-9.745 0-2.22.17-5.195-.68-7.576-.426-1.19-1.097-2.227-2.17-2.976-1.073-.748-2.56-1.213-4.636-1.213z" fill="#fafafa"/><path d="M-106.062-25.303c0 8.5-2.743 13.75-7.98 13.75-5.238 0-7.981-5.25-7.981-13.75 0-4.5-.748-12.25 7.98-12.25 8.73 0 7.981 7.75 7.981 12.25z" fill="none" stroke="#2c3854" stroke-opacity=".216"/><rect ry="0" rx="0" y="-37.053" x="-114.542" height="8" width="1" fill="#2c3854" fill-opacity=".122"/><rect rx="2" ry="1.5" y="-32.053" x="-115.542" height="6" width="3" fill="#8e949f"/></g></svg>