<svg width="32" height="32" version="1.1" xmlns="http://www.w3.org/2000/svg">
 <rect transform="scale(1,-1)" x="1.165e-5" y="-31" width="32" height="30" rx="2" ry="2" opacity=".25" stroke-width="1.0351"/>
 <path d="m2 30c-0.55402 0-1-0.44599-1-1v-3h30v3c0 0.55401-0.44599 1-1 1z" fill="#e4e4e4" stroke-width="1.1859"/>
 <path d="m16 30v-5h15v4c0 0.55401-0.44599 1-1 1z" fill="#666" stroke-width="1.1859"/>
 <g fill-rule="evenodd" stroke-width="1.083">
  <path d="m15.999 17.971-5.8948 7.0248h4.3148l1.5799-7.0248z" fill="#139dcb"/>
  <path d="m15.999 17.971-1.5799 7.0248h3.1598z" fill="#3ed4f0"/>
  <path d="m15.999 17.971 1.5799 7.0248h4.3148l-5.8948-7.0248z" fill="#32d439"/>
  <path d="m15.999 17.971 5.8948 7.0248h9.1048v-2.2235z" fill="#cee834"/>
  <path d="m30.998 13.172-15 4.7989 15 4.8013z" fill="#ffe600"/>
  <path d="m29.4 1.9977-13.401 15.974 15-4.7989v-11.175h-1.5987z" fill="#f7ac1b"/>
  <path d="m19.593 1.9977-3.5951 15.974 13.401-15.974h-9.8058z" fill="#fa7c1a"/>
  <path d="m12.404 1.9977 3.5951 15.974 3.5951-15.974h-7.1901z" fill="#ee332c"/>
  <path d="m15.999 17.971-15 4.8013v2.2235h9.1048z" fill="#421ca8"/>
  <path d="m0.99896 13.172v9.6003l15-4.8013z" fill="#e861e2"/>
  <path d="m2.5975 1.9977 13.401 15.974-3.5951-15.974h-9.8058z" fill="#ff5474"/>
  <path d="m0.99896 1.9977v11.175l15 4.7989-13.401-15.974h-1.5987z" fill="#e92f61"/>
 </g>
 <rect x=".99896" y="2.0003" width="29.999" height="22.999" fill="#fff" opacity=".35" stroke-width="1.17"/>
 <rect transform="scale(1,-1)" x="27" y="-29" width="2" height="2" rx="1" fill="#f9f9f9"/>
 <rect transform="scale(1,-1)" x="1" y="-26" width="30" height="1" ry="0" opacity=".25"/>
 <path d="m3 27v1h1v-1zm1 1v1h1v-1z" fill="#999"/>
 <path d="m22.574 7.0065a1.75 7.8749 44.998 0 0-6.5143 4.4605 1.75 7.8749 44.998 0 0-3.1 3.5992c0.9415 0.29981 1.6757 1.034 1.9755 1.9756a1.75 7.8749 44.998 0 0 3.599-3.1002 1.75 7.8749 44.998 0 0 4.3304-6.8053 1.75 7.8749 44.998 0 0-0.29051-0.1299m-10.074 9.3244c-3.4998 0.93784-0.87497 3.1535-3.4998 4.669 3.5028 0 5.2498-1.7508 5.2498-2.919 0-0.58179 0.0591-1.6533-1.7499-1.75z" fill="#fff"/>
</svg>
