<svg width="32" height="32" version="1.1" xmlns="http://www.w3.org/2000/svg" xmlns:xlink="http://www.w3.org/1999/xlink">
 <linearGradient id="k" x1="15" x2="9" y1="9" y2="9" gradientTransform="matrix(1.6667 0 0 5 -10 -33)" gradientUnits="userSpaceOnUse">
  <stop stop-color="#abdaf9" offset="0"/>
  <stop stop-color="#abdaf9" stop-opacity="0" offset="1"/>
 </linearGradient>
 <g>
  <rect transform="scale(1,-1)" x="1.165e-5" y="-31" width="32" height="30" rx="2" ry="2" opacity=".25" stroke-width="1.0351"/>
  <rect transform="scale(1,-1)" x="1" y="-30" width="30" height="28" rx="1" ry="1" fill="#eee" stroke-width=".96825"/>
  <path d="m2 30c-0.55402 0-1-0.44599-1-1v-3h30v3c0 0.55401-0.44599 1-1 1z" fill="#e4e4e4" stroke-width="1.1859"/>
 </g>
 <rect transform="scale(1,-1)" x="27" y="-29" width="2" height="2" rx="1" fill="#999"/>
 <rect transform="scale(1,-1)" x="1" y="-26" width="30" height="1" ry="0" opacity=".25"/>
 <path d="m3 27v1h1v-1zm1 1v1h1v-1z" fill="#999"/>
 <path d="M5 7h10v5H5z" fill="url(#k)" fill-rule="evenodd"/>
 <path d="M15.594 21.041L22 21l.725-7.251c.152-1.47-1.67-2.082-2.175-.725.006-1.63-1.67-1.834-2.176-.726.064-1.346-1.647-1.867-2.175-.725v-2.9c0-2.175-2.175-2.175-2.175 0v6.526c-3.626-3.626-4.515-1.02-4.515-1.02 2.464 1.663 3.97 6.876 6.085 6.862z" fill="#888"/>
</svg>
