<svg width="32" height="32" version="1.1" xmlns="http://www.w3.org/2000/svg">
 <g transform="translate(-384.57 -515.8)">
  <rect x="392.07" y="517.3" width="17" height="29" rx="2" ry="2" fill="#525765"/>
  <rect x="392.07" y="517.3" width="17" height="29" rx="2" ry="2" fill="none" opacity=".65" stroke="#000"/>
  <path d="m396.57 517.3c0 0.831 0.28772 1.5 0.64453 1.5h6.7109c0.35681 0 0.64453-0.669 0.64453-1.5h-8z" fill-rule="evenodd" opacity=".5" style="paint-order:stroke fill markers"/>
  <g fill="#fff">
   <path d="m399.07 527.8c-0.27614 0-0.5 0.22386-0.5 0.5s0.22386 0.5 0.5 0.5 0.5-0.22386 0.5-0.5-0.22386-0.5-0.5-0.5z"/>
   <path d="m402.57 527.8-1 1 2 2-2 2 1 1 3-3-1-1z"/>
   <path d="m397.57 530.8c-0.55228 0-1 0.44772-1 1s0.44772 1 1 1 1-0.44772 1-1-0.44772-1-1-1z"/>
   <path d="m400.07 533.8c-0.82843 0-1.5 0.67157-1.5 1.5s0.67157 1.5 1.5 1.5 1.5-0.67157 1.5-1.5-0.67157-1.5-1.5-1.5z"/>
  </g>
 </g>
</svg>
