<svg xmlns="http://www.w3.org/2000/svg" width="32" height="32"><defs><linearGradient id="e"><stop offset="0" stop-color="#fafafa"/><stop offset="1" stop-color="#d4d4d4"/></linearGradient><linearGradient id="d"><stop offset="0" stop-color="#fff"/><stop offset=".04" stop-color="#fff" stop-opacity=".235"/><stop offset=".958" stop-color="#fff" stop-opacity=".157"/><stop offset="1" stop-color="#fff" stop-opacity=".392"/></linearGradient><linearGradient id="a"><stop offset="0" stop-color="#181818"/><stop offset="1" stop-color="#181818" stop-opacity="0"/></linearGradient><linearGradient id="b"><stop offset="0" stop-color="#181818"/><stop offset="1" stop-color="#181818" stop-opacity="0"/></linearGradient><linearGradient id="c"><stop offset="0" stop-color="#181818" stop-opacity="0"/><stop offset=".5" stop-color="#181818"/><stop offset="1" stop-color="#181818" stop-opacity="0"/></linearGradient><linearGradient id="f"><stop offset="0" stop-color="#fff"/><stop offset=".508" stop-color="#fff" stop-opacity=".235"/><stop offset=".835" stop-color="#fff" stop-opacity=".157"/><stop offset="1" stop-color="#fff" stop-opacity=".392"/></linearGradient><linearGradient id="g"><stop offset="0" stop-color="#ed5353"/><stop offset="1" stop-color="#c6262e"/></linearGradient></defs><rect transform="scale(1 -1)" width="26" height="26" rx="1.615" ry="1.615" x="3" y="-29" style="marker:none" color="#000" overflow="visible" fill="#f2f2f2"/><rect width="27" height="27" rx="2.16" ry="2.16" x="2.5" y="2.5" style="marker:none" color="#000" overflow="visible" opacity=".35" fill="none" stroke="#555761" stroke-linecap="round" stroke-linejoin="round"/><path d="M8 .5A6.504 6.504 0 0 0 1.5 7c0 3.586 2.914 6.5 6.5 6.5s6.5-2.914 6.5-6.5S11.586.5 8 .5z" fill="#e7595b"/><path style="marker:none" d="M8 .5A6.504 6.504 0 0 0 1.5 7c0 3.586 2.914 6.5 6.5 6.5s6.5-2.914 6.5-6.5S11.586.5 8 .5z" color="#000" overflow="visible" opacity=".35" fill="none" stroke="#6f0000" stroke-linecap="round" stroke-linejoin="round"/></svg>