<svg width="32" height="32" version="1.1" xmlns="http://www.w3.org/2000/svg" xmlns:xlink="http://www.w3.org/1999/xlink">
 <defs>
  <clipPath id="p">
   <path d="m14.674 8c-0.07 2.905-0.988 5.45-2.754 7.635-0.07-0.86-0.336-1.72-0.8-2.58-0.047 0.65-0.31 1.517-0.786 2.597-0.476 1.081-0.772 1.864-0.889 2.352-0.255 1.232-0.11 2.313 0.436 3.242 0.546 0.93 1.621 1.848 3.224 2.754 2.145 1.289 3.363 0.99 5.37 0 1.138-0.65 2.044-1.366 2.718-2.145 0.674-0.778 1.103-1.533 1.29-2.265a6.421 6.421 0 0 0 0.156-2.266 6.628 6.628 0 0 0-0.557-2.11c-0.29-0.627-0.622-1.219-0.994-1.777-0.372-0.557-0.708-0.998-1.01-1.324-0.302-0.325-0.546-0.558-0.732-0.697 0.162 0.442 0.22 0.918 0.174 1.43a4.39 4.39 0 0 1-0.348 1.394 6.216 6.216 0 0 0-0.611-2.092c-0.337-0.697-0.697-1.273-1.08-1.726a10.852 10.852 0 0 0-1.325-1.307c-0.5-0.418-0.843-0.69-1.029-0.818a9.263 9.263 0 0 0-0.453-0.297z" color="#000000" fill="url(#i)" overflow="visible" solid-color="#000000" style="isolation:auto;mix-blend-mode:normal"/>
  </clipPath>
  <radialGradient id="m" cx="4.993" cy="43.5" r="2.5" gradientTransform="matrix(2.0038 0 0 1.4 27.988 -17.4)" gradientUnits="userSpaceOnUse" xlink:href="#a-3"/>
  <linearGradient id="a-3">
   <stop stop-color="#181818" offset="0"/>
   <stop stop-color="#181818" stop-opacity="0" offset="1"/>
  </linearGradient>
  <radialGradient id="n" cx="4.993" cy="43.5" r="2.5" gradientTransform="matrix(2.0038 0 0 1.4 -20.012 -104.4)" gradientUnits="userSpaceOnUse" xlink:href="#a-3"/>
  <linearGradient id="o" x1="25.058" x2="25.058" y1="47.028" y2="39.999" gradientUnits="userSpaceOnUse">
   <stop stop-color="#181818" stop-opacity="0" offset="0"/>
   <stop stop-color="#181818" offset=".5"/>
   <stop stop-color="#181818" stop-opacity="0" offset="1"/>
  </linearGradient>
 </defs>
 <g fill="#bf413b">
  <path d="m3.5 2.5c-0.554 0-1 0.446-1 1v4c0 0.554 0.446 1 1 1h4c0.554 0 1-0.446 1-1 0 0.554 0.446 1 1 1h10c0.554 0 1-0.446 1-1 0 0.554 0.446 1 1 1h7c0.554 0 1-0.446 1-1v-4c0-0.554-0.446-1-1-1h-7c-0.554 0-1 0.446-1 1 0-0.554-0.446-1-1-1h-10c-0.554 0-1 0.446-1 1 0-0.554-0.446-1-1-1z" color="#000000" overflow="visible" solid-color="#000000" style="isolation:auto;mix-blend-mode:normal"/>
  <path d="m3.5 14.5c-0.554 0-1 0.446-1 1v4c0 0.554 0.446 1 1 1h4c0.554 0 1-0.446 1-1 0 0.554 0.446 1 1 1h10c0.554 0 1-0.446 1-1 0 0.554 0.446 1 1 1h7c0.554 0 1-0.446 1-1v-4c0-0.554-0.446-1-1-1h-7c-0.554 0-1 0.446-1 1 0-0.554-0.446-1-1-1h-10c-0.554 0-1 0.446-1 1 0-0.554-0.446-1-1-1z" color="#000000" overflow="visible" solid-color="#000000" style="isolation:auto;mix-blend-mode:normal"/>
  <path d="m3.5 20.5c-0.554 0-1 0.446-1 1v4c0 0.554 0.446 1 1 1h7c0.554 0 1-0.446 1-1 0 0.554 0.446 1 1 1h10c0.554 0 1-0.446 1-1 0 0.554 0.446 1 1 1h4c0.554 0 1-0.446 1-1v-4c0-0.554-0.446-1-1-1h-4c-0.554 0-1 0.446-1 1 0-0.554-0.446-1-1-1h-10c-0.554 0-1 0.446-1 1 0-0.554-0.446-1-1-1zm0-12c-0.554 0-1 0.446-1 1v4c0 0.554 0.446 1 1 1h7c0.554 0 1-0.446 1-1 0 0.554 0.446 1 1 1h10c0.554 0 1-0.446 1-1 0 0.554 0.446 1 1 1h4c0.554 0 1-0.446 1-1v-4c0-0.554-0.446-1-1-1h-4c-0.554 0-1 0.446-1 1 0-0.554-0.446-1-1-1h-10c-0.554 0-1 0.446-1 1 0-0.554-0.446-1-1-1z" color="#000000" overflow="visible"/>
 </g>
 <g fill="none" stroke="#681d22" stroke-linecap="round" stroke-linejoin="round">
  <rect transform="scale(-1,1)" x="-29.5" y="20.5" width="6" height="6" rx="1" ry="1" color="#000000" opacity=".35" overflow="visible"/>
  <rect transform="scale(-1,1)" x="-23.5" y="20.5" width="12" height="6" rx="1" ry="1" color="#000000" opacity=".5" overflow="visible"/>
  <rect transform="scale(-1,1)" x="-11.5" y="20.5" width="9" height="6" rx="1" ry="1" color="#000000" opacity=".35" overflow="visible"/>
  <rect transform="scale(-1,1)" x="-29.5" y="8.5" width="6" height="6" rx="1" ry="1" color="#000000" opacity=".35" overflow="visible"/>
  <rect transform="scale(-1,1)" x="-23.5" y="8.5" width="12" height="6" rx="1" ry="1" color="#000000" opacity=".35" overflow="visible"/>
  <rect transform="scale(-1,1)" x="-11.5" y="8.5" width="9" height="6" rx="1" ry="1" color="#000000" opacity=".35" overflow="visible"/>
  <rect x="2.5" y="14.5" width="6" height="6" rx="1" ry="1" color="#000000" opacity=".35" overflow="visible"/>
  <rect x="8.5" y="14.5" width="12" height="6" rx="1" ry="1" color="#000000" opacity=".5" overflow="visible"/>
  <rect x="20.5" y="14.5" width="9" height="6" rx="1" ry="1" color="#000000" opacity=".35" overflow="visible"/>
  <rect x="2.5" y="2.5" width="6" height="6" rx="1" ry="1" color="#000000" opacity=".35" overflow="visible"/>
  <rect x="8.5" y="2.5" width="12" height="6" rx="1" ry="1" color="#000000" opacity=".35" overflow="visible"/>
  <rect x="20.5" y="2.5" width="9" height="6" rx="1" ry="1" color="#000000" opacity=".35" overflow="visible"/>
 </g>
 <g opacity=".4">
  <path transform="matrix(.73684 0 0 .57143 -1.684 4.143)" d="m38 40h5v7h-5z" fill="url(#m)"/>
  <path transform="matrix(-.73684 0 0 -.57143 -1.684 4.143)" d="m-10-47h5v7h-5z" fill="url(#n)"/>
  <path transform="matrix(.73684 0 0 .57143 -1.684 4.143)" d="m10 40h28v7h-28z" fill="url(#o)"/>
 </g>
 <path d="m3.5 26.5c-0.554 0-1 0.446-1 1v1c0 0.554 0.446 1 1 1h4c0.554 0 1-0.446 1-1 0 0.554 0.446 1 1 1h10c0.554 0 1-0.446 1-1 0 0.554 0.446 1 1 1h7c0.554 0 1-0.446 1-1v-1c0-0.554-0.446-1-1-1h-7c-0.554 0-1 0.446-1 1 0-0.554-0.446-1-1-1h-10c-0.554 0-1 0.446-1 1 0-0.554-0.446-1-1-1z" color="#000000" fill="#bf413b" overflow="visible" solid-color="#000000" style="isolation:auto;mix-blend-mode:normal"/>
 <g fill="none" stroke="#681d22" stroke-linecap="round" stroke-linejoin="round">
  <rect x="2.5" y="26.5" width="6" height="3" rx="1" ry="1" color="#000000" opacity=".35" overflow="visible"/>
  <rect x="8.5" y="26.5" width="12" height="3" rx="1" ry="1" color="#000000" opacity=".35" overflow="visible"/>
  <rect x="20.5" y="26.5" width="9" height="3" rx="1" ry="1" color="#000000" opacity=".35" overflow="visible"/>
 </g>
 <g color="#000000">
  <path d="m14.674 8c-0.07 2.905-0.988 5.45-2.754 7.635-0.07-0.86-0.336-1.72-0.8-2.58-0.047 0.65-0.31 1.517-0.786 2.597-0.476 1.081-0.772 1.864-0.889 2.352-0.255 1.232-0.11 2.313 0.436 3.242 0.546 0.93 1.621 1.848 3.224 2.754 2.27 0.758 3.363 0.99 5.37 0 1.138-0.65 2.044-1.366 2.718-2.145 0.674-0.778 1.103-1.533 1.29-2.265a6.421 6.421 0 0 0 0.156-2.266 6.628 6.628 0 0 0-0.557-2.11c-0.29-0.627-0.622-1.219-0.994-1.777-0.372-0.557-0.708-0.998-1.01-1.324-0.302-0.325-0.546-0.558-0.732-0.697 0.162 0.442 0.22 0.918 0.174 1.43a4.39 4.39 0 0 1-0.348 1.394 6.216 6.216 0 0 0-0.611-2.092c-0.337-0.697-0.697-1.273-1.08-1.726a10.852 10.852 0 0 0-1.325-1.307c-0.5-0.418-0.843-0.69-1.029-0.818a9.263 9.263 0 0 0-0.453-0.297z" fill="none" opacity=".3" overflow="visible" solid-color="#000000" stroke="#662c05" stroke-linejoin="round" stroke-width="2" style="isolation:auto;mix-blend-mode:normal"/>
  <path d="m14.674 9c-0.07 2.905-0.988 5.45-2.754 7.635-0.07-0.86-0.336-1.72-0.8-2.58-0.047 0.65-0.31 1.517-0.786 2.597-0.476 1.081-0.772 1.864-0.889 2.352-0.255 1.232-0.11 2.313 0.436 3.242 0.546 0.93 1.621 1.848 3.224 2.754 2.114 0.789 3.363 0.99 5.37 0 1.138-0.65 2.044-1.366 2.718-2.145 0.674-0.778 1.103-1.533 1.29-2.265a6.421 6.421 0 0 0 0.156-2.266 6.628 6.628 0 0 0-0.557-2.11c-0.29-0.627-0.622-1.219-0.994-1.776-0.372-0.558-0.708-1-1.01-1.325s-0.546-0.558-0.732-0.697c0.162 0.442 0.22 0.918 0.174 1.43a4.39 4.39 0 0 1-0.348 1.394 6.216 6.216 0 0 0-0.611-2.092c-0.337-0.697-0.697-1.273-1.08-1.726a10.852 10.852 0 0 0-1.325-1.307c-0.5-0.418-0.843-0.69-1.029-0.818a9.263 9.263 0 0 0-0.453-0.297z" fill="#662c05" opacity=".15" overflow="visible" solid-color="#000000" style="isolation:auto;mix-blend-mode:normal"/>
  <path d="m14.674 8c-0.07 2.905-0.988 5.45-2.754 7.635-0.07-0.86-0.336-1.72-0.8-2.58-0.047 0.65-0.31 1.517-0.786 2.597-0.476 1.081-0.772 1.864-0.889 2.352-0.255 1.232-0.11 2.313 0.436 3.242 0.546 0.93 1.621 1.848 3.224 2.754 2.426 0.945 3.363 0.99 5.37 0 1.138-0.65 2.044-1.366 2.718-2.145 0.674-0.778 1.103-1.533 1.29-2.265a6.421 6.421 0 0 0 0.156-2.266 6.628 6.628 0 0 0-0.557-2.11c-0.29-0.627-0.622-1.219-0.994-1.777-0.372-0.557-0.708-0.998-1.01-1.324-0.302-0.325-0.546-0.558-0.732-0.697 0.162 0.442 0.22 0.918 0.174 1.43a4.39 4.39 0 0 1-0.348 1.394 6.216 6.216 0 0 0-0.611-2.092c-0.337-0.697-0.697-1.273-1.08-1.726a10.852 10.852 0 0 0-1.325-1.307c-0.5-0.418-0.843-0.69-1.029-0.818a9.263 9.263 0 0 0-0.453-0.297z" fill="#fbd25c" overflow="visible" solid-color="#000000" style="isolation:auto;mix-blend-mode:normal"/>
  <path d="m18.474 24c0.767-1.534 0.918-3.19 0.453-4.967-0.465-1.778-1.383-3.143-2.754-4.096 0.116 0.511 0.053 1.353-0.191 2.527s-0.634 2.063-1.168 2.667c0.093-0.744 0.116-1.348 0.07-1.813-0.047-0.465-0.117-0.813-0.21-1.046l-0.174-0.313c-0.14 0.836-0.5 1.673-1.08 2.51a6.618 6.618 0 0 0-0.68 1.22c-0.151 0.371-0.21 0.848-0.175 1.429 0.035 0.58 0.215 1.208 0.54 1.882 0 0 0.92 0.75 1.944 0.75 2.482 0 2.595-0.276 3.425-0.75z" clip-path="url(#p)" fill="none" overflow="visible" solid-color="#000000" stroke="#ba8234" stroke-linejoin="round" stroke-opacity=".273" stroke-width="2" style="isolation:auto;mix-blend-mode:normal"/>
  <path d="m18.474 24c0.767-1.534 0.918-3.19 0.453-4.967-0.465-1.778-1.383-3.143-2.754-4.096 0.116 0.511 0.053 1.353-0.191 2.527s-0.634 2.063-1.168 2.667c0.093-0.744 0.116-1.348 0.07-1.813-0.047-0.465-0.117-0.813-0.21-1.046l-0.174-0.313c-0.14 0.836-0.5 1.673-1.08 2.51a6.618 6.618 0 0 0-0.68 1.22c-0.151 0.371-0.21 0.848-0.175 1.429 0.035 0.58 0.215 1.208 0.54 1.882 0 0 0.92 0.75 1.944 0.75 2.482 0 2.595-0.276 3.425-0.75z" fill="#fdedc6" overflow="visible" solid-color="#000000" style="isolation:auto;mix-blend-mode:normal"/>
 </g>
</svg>
