<svg width="32" height="32" version="1.1" xmlns="http://www.w3.org/2000/svg" xmlns:xlink="http://www.w3.org/1999/xlink">
 <path d="m13.24 21.998c-0.404 0-0.73 0.275-0.729 0.616v4.845l-2.277 0.154c-0.404 0-0.728 0.275-0.728 0.616v0.769h13v-0.769c0-0.34-0.325-0.616-0.729-0.616l-2.267-0.154v-4.845c0-0.341-0.325-0.616-0.729-0.616z" fill="none" stroke="#42557f" stroke-opacity=".291"/>
 <path d="m13.46 21.915c-0.26 0-0.452 0.184-0.45 0.407v5.349l-2.545 0.184h-0.01c-0.26 0-0.45 0.184-0.45 0.407v0.269h12v-0.269c0-0.223-0.19-0.407-0.45-0.407h-0.012l-2.543-0.184v-5.349c0-0.223-0.19-0.407-0.45-0.407z" fill="#fafafa"/>
 <rect x="1.5" y="2.998" width="29" height="19" rx="1" ry="1" fill="#434855" stroke="#252831" stroke-dashoffset=".5" stroke-linecap="round" stroke-linejoin="round" stroke-opacity=".784"/>
 <path d="m2 3.498h28v18h-28z" fill="#4d4d4d" fill-rule="evenodd"/>
 <path d="m7.999 5h10v1h-10zm0 6h8v1h-8zm0 2h8v1h-8zm0 2h6v1h-6zm0-8h8v1h-8zm0 2h6v1h-6zm0 8h10v1h-10zm0 2h6v1h-6z" fill="#e6e6e6" stroke-width="1.4142"/>
 <path d="m4 5h3v1h-3zm0 2h3v1h-3zm0 2h3v1h-3zm0 2h3v1h-3zm0 2h3v1h-3zm0 2h3v1h-3zm0 2h3v1h-3zm0 2h3v1h-3z" fill="#11d116"/>
</svg>
