<svg xmlns="http://www.w3.org/2000/svg" version="1.0" width="32" height="32"><defs><linearGradient id="a"><stop offset="0"/><stop offset="1" stop-opacity="0"/></linearGradient><linearGradient id="b"><stop offset="0" stop-color="#a0a0a0"/><stop offset="1" stop-color="#4a4a4a"/></linearGradient><linearGradient id="c"><stop offset="0" stop-color="#babdb6"/><stop offset=".437" stop-color="#eeeeec"/><stop offset="1" stop-color="#555753"/></linearGradient><linearGradient id="d"><stop offset="0" stop-color="#fff"/><stop offset="1" stop-color="#fff" stop-opacity="0"/></linearGradient><linearGradient id="e"><stop offset="0" stop-color="#383937"/><stop offset="1" stop-color="#595b57"/></linearGradient><linearGradient id="f"><stop offset="0" stop-color="#4b4b4b"/><stop offset="1" stop-color="#babdb6"/></linearGradient><linearGradient id="g"><stop offset="0" stop-color="#eeeeec"/><stop offset="1" stop-color="#61635f"/></linearGradient><linearGradient id="h"><stop offset="0" stop-color="#fff"/><stop offset="1" stop-color="#fff" stop-opacity="0"/></linearGradient><linearGradient id="i"><stop offset="0" stop-color="#fff" stop-opacity="0"/><stop offset=".5" stop-color="#fff"/><stop offset="1" stop-color="#fff" stop-opacity="0"/></linearGradient><linearGradient id="j"><stop offset="0" stop-color="#fff"/><stop offset="1" stop-color="#fff" stop-opacity="0"/></linearGradient><linearGradient id="k"><stop offset="0" stop-color="#4c4c4c"/><stop offset="1" stop-color="#d3d7cf"/></linearGradient><linearGradient id="l"><stop offset="0" stop-color="#767973"/><stop offset="1" stop-color="#202120"/></linearGradient><linearGradient id="m"><stop offset="0" stop-color="#878a85"/><stop offset="1" stop-color="#3e3f3d"/></linearGradient><linearGradient id="n"><stop offset="0" stop-color="#e8e8e8"/><stop offset="1" stop-color="#a5a6a8"/></linearGradient><linearGradient id="o"><stop offset="0"/><stop offset="1" stop-opacity="0"/></linearGradient><linearGradient id="p"><stop offset="0" stop-color="#fff"/><stop offset="1" stop-color="#fff" stop-opacity="0"/></linearGradient></defs><g transform="translate(2 2)"><path d="M14 .5c-2.57 0-5.087.695-7.255 2.077h-2.74c-.769 0-1.428.66-1.428 1.428V6.77C1.199 8.93.505 11.438.5 14c0 2.57.695 5.087 2.077 7.255v2.74c0 .769.66 1.428 1.428 1.428H6.77C8.93 26.801 11.438 27.495 14 27.5c2.57 0 5.087-.695 7.255-2.077h2.74c.769 0 1.428-.66 1.428-1.428V21.23c1.378-2.16 2.072-4.669 2.077-7.231 0-2.57-.695-5.087-2.077-7.255v-2.74c0-.769-.66-1.428-1.428-1.428H21.23C19.07 1.199 16.562.505 14 .5z" fill="#61697f" stroke="#252831" stroke-opacity=".784"/><circle r="11.5" cy="14" cx="14" fill="#ffff8f" stroke="#252831" stroke-opacity=".784"/><rect ry="1.5" rx="1.5" y="4" x="4" height="1" width="1" fill="#b2b7bf"/><rect ry="1.5" rx="1.5" y="4" x="23" height="1" width="1" fill="#b2b7bf"/><rect ry="1.5" rx="1.5" y="23" x="23" height="1" width="1" fill="#b2b7bf"/><rect ry="1.5" rx="1.5" y="23" x="4" height="1" width="1" fill="#b2b7bf"/><circle r="4" cy="14" cx="14" fill="#4c5263"/></g></svg>