<svg width="32" height="32" version="1.1" xmlns="http://www.w3.org/2000/svg">
 <circle cx="16" cy="16" r="15" opacity=".2" stroke-width=".71429"/>
 <circle cx="16" cy="16" r="14" fill="#fcfcfc" stroke-width=".66667"/>
 <g fill-rule="evenodd" stroke-width=".54545">
  <path d="m16 16-8.4948 8.4908c1.4662 1.466 3.3184 2.5403 5.3874 3.0905z" fill="#139dcb"/>
  <path d="m16 16-3.1074 11.581c0.99192 0.26374 2.0302 0.41869 3.1074 0.41869s2.1155-0.15494 3.1074-0.41869z" fill="#3ed4f0"/>
  <path d="m16 16 3.1074 11.581c2.069-0.55014 3.9212-1.6244 5.3874-3.0905z" fill="#32d439"/>
  <path d="m16 16 8.4948 8.4908c1.4659-1.4657 2.5394-3.3144 3.0897-5.3826z" fill="#cee834"/>
  <path d="m27.584 12.892-11.584 3.1082 11.584 3.1082c0.26401-0.99221 0.41551-2.0306 0.41551-3.1082s-0.1515-2.116-0.41551-3.1082z" fill="#ffe600"/>
  <path d="m24.495 7.5092-8.4948 8.4908 11.584-3.1082c-0.55032-2.0682-1.6238-3.9169-3.0897-5.3826z" fill="#f7ac1b"/>
  <path d="m19.107 4.4187-3.1074 11.581 8.4948-8.4908c-1.4662-1.466-3.3184-2.5403-5.3874-3.0905z" fill="#fa7c1a"/>
  <path d="m16 4c-1.0772 0-2.1155 0.15494-3.1074 0.41869l3.1074 11.581 3.1074-11.581c-0.99192-0.26374-2.0302-0.41869-3.1074-0.41869z" fill="#ee332c"/>
  <path d="m16 16-11.584 3.1082c0.55032 2.0682 1.6238 3.9169 3.0897 5.3826z" fill="#421ca8"/>
  <path d="m4.4155 12.892c-0.26401 0.99221-0.41551 2.0306-0.41551 3.1082s0.1515 2.116 0.41551 3.1082l11.584-3.1082z" fill="#e861e2"/>
  <path d="m12.893 4.4187c-2.069 0.55014-3.9212 1.6244-5.3874 3.0905l8.4948 8.4908z" fill="#ff5474"/>
  <path d="m7.5052 7.5092c-1.4659 1.4657-2.5394 3.3144-3.0897 5.3826l11.584 3.1082z" fill="#e92f61"/>
 </g>
 <circle cx="16" cy="16" r="11.667" fill="none" stroke="#4f6698" stroke-opacity=".267" stroke-width=".66667"/>
 <circle cx="16" cy="16" r="12" fill="#fff" opacity=".25" stroke-width=".65761"/>
</svg>
