<svg xmlns="http://www.w3.org/2000/svg" width="32" height="32"><defs><linearGradient id="b"><stop offset="0" stop-color="#fff"/><stop offset=".508" stop-color="#fff" stop-opacity=".235"/><stop offset=".835" stop-color="#fff" stop-opacity=".157"/><stop offset="1" stop-color="#fff" stop-opacity=".392"/></linearGradient><linearGradient id="a"><stop offset="0" stop-color="#3d3d3d"/><stop offset=".5" stop-color="#686868" stop-opacity=".498"/><stop offset="1" stop-color="#686868" stop-opacity="0"/></linearGradient><linearGradient id="c"><stop offset="0" stop-color="#64baff"/><stop offset="1" stop-color="#3689e6"/></linearGradient></defs><path style="marker:none" d="M16 1.5C8 1.5 1.5 8 1.5 16S8 30.5 16 30.5 30.5 24 30.5 16 24 1.5 16 1.5z" color="#000" overflow="visible" opacity=".99" fill="#5eb4fc" fill-opacity=".992"/><path style="marker:none;font-variant-east_asian:normal;isolation:auto;mix-blend-mode:normal;solid-color:#000;solid-opacity:1;filter-blend-mode:normal;filter-gaussianBlur-deviation:0" d="M16 1.502C8 1.502 1.502 8 1.502 16 1.502 24 8 30.498 16 30.498 24 30.498 30.498 24 30.498 16 30.498 8 24 1.502 16 1.502z" fill="none" stroke="#002e99" stroke-linecap="round" stroke-linejoin="round" opacity=".35" color="#000" overflow="visible"/><path d="M18.3 9.176a2.187 2.187 0 0 1-2.196 2.175 2.187 2.187 0 0 1-2.196-2.175c0-1.201.984-2.176 2.196-2.176 1.212 0 2.196.975 2.196 2.176zm5.48 2.313a.651.651 0 0 0-.28.116L16 12.764l-7.46-1.175a.688.688 0 0 0-.68-.077.67.67 0 0 0-.36.578c-.003.233.147.433.36.54l5.846 1.838-.04 4.218-2.063 6.318c-.199.287-.138.657.16.849.298.191.72.133.92-.155l3.328-6.819 3.266 6.807c.177.299.57.402.88.232a.61.61 0 0 0 .24-.849l-2.025-6.345-.08-3.97 5.928-2.146a.621.621 0 0 0 .24-.733c-.104-.264-.389-.418-.68-.386z" fill="#fff"/></svg>