<svg width="32" height="32" version="1.1" xmlns="http://www.w3.org/2000/svg" xmlns:xlink="http://www.w3.org/1999/xlink">
 <defs>
  <linearGradient id="m" x1="4.49" x2="47.5" y1="23" y2="23" gradientTransform="matrix(.64663 0 0 -.64663 -.478 30.873)" gradientUnits="userSpaceOnUse" xlink:href="#h"/>
  <linearGradient id="h">
   <stop stop-color="#fff" offset="0"/>
   <stop stop-color="#fff" stop-opacity="0" offset="1"/>
  </linearGradient>
  <linearGradient id="l" x1="48.127" x2="2.873" y1="25.828" y2="24.414" gradientTransform="matrix(.45724 -.45724 -.45724 -.45724 14.748 38.235)" gradientUnits="userSpaceOnUse" xlink:href="#h"/>
  <linearGradient id="k" x1="46.006" x2="4.287" y1="23.707" y2="27.243" gradientTransform="matrix(.45724 .45724 -.45724 .45724 14.869 -6.1764)" gradientUnits="userSpaceOnUse" xlink:href="#h"/>
  <linearGradient id="j" x1="3.5" x2="47.5" y1="23" y2="23" gradientTransform="matrix(0 .64663 .64663 0 1.14 -.489)" gradientUnits="userSpaceOnUse" xlink:href="#h"/>
 </defs>
 <path d="m16 1.5c-8 0-14.5 6.5-14.5 14.5s6.5 14.5 14.5 14.5 14.5-6.5 14.5-14.5-6.5-14.5-14.5-14.5z" color="#000000" fill="#808080" overflow="visible" stroke="#05111e" stroke-opacity=".518"/>
 <path d="m18.614 28.594a6.143 13.903 0 0 0-2.617-26.496" fill="none" opacity=".8" stroke="url(#j)" stroke-linecap="round" stroke-linejoin="round"/>
 <path d="m17.467 28.185a1.293 1.293 0 0 0 2.586 0 1.293 1.293 0 1 0-2.586 0z" color="#000000" fill="#fff" overflow="visible"/>
 <path d="m25.842 25.83a13.903 6.143 45 0 1-20.564-17.46" fill="none" opacity=".8" stroke="url(#k)" stroke-linecap="round" stroke-linejoin="round"/>
 <path d="m6.635 8.827a1.293 1.293 0 0 1-2.586 0 1.293 1.293 0 1 1 2.586 0z" color="#000000" fill="#fff" overflow="visible"/>
 <path d="m25.967 6.509a6.143 13.903 45 0 0-20.554 14.841" fill="none" opacity=".8" stroke="url(#l)" stroke-linecap="round" stroke-linejoin="round"/>
 <path d="m5.222 23.516a1.2935 1.2935 0 0 0 0-2.587 1.2935 1.2935 0 1 0 0 2.587z" fill="#fff"/>
 <path d="m27.853 12.781a13.903 6.143 0 0 0-25.729 3.506" fill="none" stroke="url(#m)" stroke-linecap="round" stroke-linejoin="round"/>
 <path d="m29.389 13.03a1.2935 1.2935 0 0 0-2.587 0 1.2935 1.2935 0 1 0 2.587 0z" color="#000000" fill="#fff" overflow="visible"/>
 <path d="M16 9a2 2 0 0 0-2 2 2 2 0 0 0 .031.338A6 6 0 0 0 10 17a6 6 0 0 0 6 6 6 6 0 0 0 6-6 6 6 0 0 0-1.135-3.502A1 1 0 0 0 21 13a1 1 0 0 0-1-1 1 1 0 0 0-.5.135 6 6 0 0 0-1.53-.795A2 2 0 0 0 18 11a2 2 0 0 0-2-2zm0 1a1 1 0 0 1 1 1 1 1 0 0 1-.006.084A6 6 0 0 0 16 11a6 6 0 0 0-.996.09A1 1 0 0 1 15 11a1 1 0 0 1 1-1zm0 2a5 5 0 0 1 .441.021 5 5 0 0 1 .059.004 5 5 0 0 1 .13.02 5 5 0 0 1 .32.05 5 5 0 0 1 .134.03 5 5 0 0 1 .37.096 5 5 0 0 1 .103.03 5 5 0 0 1 .002 0 5 5 0 0 1 .062.024 5 5 0 0 1 .342.133 5 5 0 0 1 .133.06 5 5 0 0 1 .328.167 5 5 0 0 1 .088.05 5 5 0 0 1 .365.235 5 5 0 0 1 .014.008 5 5 0 0 1 .06.045 5 5 0 0 1 .049.035 5 5 0 0 1 .992.992 5 5 0 0 1 .002.004 5 5 0 0 1 .266.39 5 5 0 0 1 .013.02 5 5 0 0 1 .008.016 5 5 0 0 1 .225.416 5 5 0 0 1 .004.007 5 5 0 0 1 .004.008 5 5 0 0 1 .175.422 5 5 0 0 1 .022.059 5 5 0 0 1 .12.388 5 5 0 0 1 .03.123 5 5 0 0 1 .065.323 5 5 0 0 1 .031.2 5 5 0 0 1 .025.28A5 5 0 0 1 21 17a5 5 0 0 1-.021.441 5 5 0 0 1-.026.21 5 5 0 0 1-.043.275 5 5 0 0 1-.053.236 5 5 0 0 1-.06.242 5 5 0 0 1-.084.25 5 5 0 0 1-.08.221 5 5 0 0 1-.12.262 5 5 0 0 1-.085.177 5 5 0 0 1-.145.254 5 5 0 0 1-.115.188 5 5 0 0 1-.158.22 5 5 0 0 1-.137.18 5 5 0 0 1-.174.2 5 5 0 0 1-.166.177 5 5 0 0 1-.178.166 5 5 0 0 1-.199.174 5 5 0 0 1-.18.137 5 5 0 0 1-.22.158 5 5 0 0 1-.188.115 5 5 0 0 1-.254.145 5 5 0 0 1-.177.086 5 5 0 0 1-.262.119 5 5 0 0 1-.22.08 5 5 0 0 1-.25.084 5 5 0 0 1-.243.06 5 5 0 0 1-.236.053 5 5 0 0 1-.276.043 5 5 0 0 1-.209.026A5 5 0 0 1 16 22a5 5 0 0 1-.441-.021 5 5 0 0 1-.21-.026 5 5 0 0 1-.275-.043 5 5 0 0 1-.236-.053 5 5 0 0 1-.242-.06 5 5 0 0 1-.25-.084 5 5 0 0 1-.221-.08 5 5 0 0 1-.262-.12 5 5 0 0 1-.177-.085 5 5 0 0 1-.254-.145 5 5 0 0 1-.188-.115 5 5 0 0 1-.22-.158 5 5 0 0 1-.18-.137 5 5 0 0 1-.2-.174 5 5 0 0 1-.177-.166 5 5 0 0 1-.166-.178 5 5 0 0 1-.174-.199 5 5 0 0 1-.137-.18 5 5 0 0 1-.158-.22 5 5 0 0 1-.115-.188 5 5 0 0 1-.145-.254 5 5 0 0 1-.086-.177 5 5 0 0 1-.119-.262 5 5 0 0 1-.08-.22 5 5 0 0 1-.084-.25 5 5 0 0 1-.06-.243 5 5 0 0 1-.053-.236 5 5 0 0 1-.043-.276 5 5 0 0 1-.026-.209A5 5 0 0 1 11 17a5 5 0 0 1 .021-.441 5 5 0 0 1 .024-.19 5 5 0 0 1 .05-.318 5 5 0 0 1 .032-.145 5 5 0 0 1 .088-.342 5 5 0 0 1 .047-.142 5 5 0 0 1 .117-.322 5 5 0 0 1 .072-.16 5 5 0 0 1 .145-.295 5 5 0 0 1 .068-.122 5 5 0 0 1 .195-.318 5 5 0 0 1 .063-.086 5 5 0 0 1 .246-.322 5 5 0 0 1 .039-.045 5 5 0 0 1 .314-.336 5 5 0 0 1 .37-.324 5 5 0 0 1 .023-.02 5 5 0 0 1 .377-.267 5 5 0 0 1 .041-.026 5 5 0 0 1 .406-.232 5 5 0 0 1 .455-.203 5 5 0 0 1 1.121-.291 5 5 0 0 1 .026-.004 5 5 0 0 1 .021-.002 5 5 0 0 1 .371-.033 5 5 0 0 1 .114-.008A5 5 0 0 1 16 12zm0 1v3a1 1 0 0 1 1 1h3a4 4 0 0 0-.018-.338 4 4 0 0 0-.025-.21 4 4 0 0 0-.027-.186 4 4 0 0 0-.051-.223 4 4 0 0 0-.04-.154 4 4 0 0 0-.07-.215 4 4 0 0 0-.066-.18 4 4 0 0 0-.078-.174 4 4 0 0 0-.09-.185 4 4 0 0 0-.094-.164 4 4 0 0 0-.115-.188 4 4 0 0 0-.097-.135 4 4 0 0 0-.141-.185 4 4 0 0 0-.113-.129 4 4 0 0 0-.149-.16 4 4 0 0 0-.16-.149 4 4 0 0 0-.129-.113 4 4 0 0 0-.185-.14 4 4 0 0 0-.135-.098 4 4 0 0 0-.188-.115 4 4 0 0 0-.164-.094 4 4 0 0 0-.185-.09 4 4 0 0 0-.174-.078 4 4 0 0 0-.18-.067 4 4 0 0 0-.215-.07 4 4 0 0 0-.154-.039 4 4 0 0 0-.223-.05 4 4 0 0 0-.185-.028 4 4 0 0 0-.211-.025A4 4 0 0 0 16 13z" fill="#ffdf60"/>
</svg>
