<svg width="32" height="32" version="1.1" xmlns="http://www.w3.org/2000/svg" xmlns:xlink="http://www.w3.org/1999/xlink">
 <g>
  <rect transform="scale(1,-1)" x="1.165e-5" y="-31" width="32" height="30" rx="2" ry="2" opacity=".25" stroke-width="1.0351"/>
  <rect transform="scale(1,-1)" x="1" y="-30" width="30" height="28" rx="1" ry="1" fill="#eee" stroke-width=".96825"/>
  <path d="m2 30c-0.55402 0-1-0.44599-1-1v-3h30v3c0 0.55401-0.44599 1-1 1z" fill="#e4e4e4" stroke-width="1.1859"/>
 </g>
 <rect transform="scale(1,-1)" x="27" y="-29" width="2" height="2" rx="1" fill="#999"/>
 <g>
  <rect transform="scale(1,-1)" x="1" y="-26" width="30" height="1" ry="0" opacity=".25"/>
  <path d="m3 27v1h1v-1zm1 1v1h1v-1z" fill="#999"/>
  <path d="M 10.5,7 9.96875,7.96875 9,8.5 9.96875,9.03125 10.5,10 11.03125,9.03125 12,8.5 11.03125,7.96875 Z m 4,0 L 13.96875,7.96875 13,8.5 13.96875,9.03125 14.5,10 15.03125,9.03125 16,8.5 15.03125,7.96875 Z M 20.154297,7 9,18.154297 11.845703,21 23,9.8457031 Z m 0,1.421875 1.421875,1.4238281 L 18.25,13.175781 16.826172,11.751953 Z M 12.5,10 11.96875,10.96875 11,11.5 11.96875,12.03125 12.5,13 13.03125,12.03125 14,11.5 13.03125,10.96875 Z" fill="#888"/>
 </g>
</svg>
