<svg version="1.1" viewBox="0 0 32 32" xmlns="http://www.w3.org/2000/svg">
 <path d="m16 1c-8.2843 0-15 6.7157-15 15s6.7157 15 15 15 15-6.7157 15-15-6.7157-15-15-15zm0 2.1429c7.1229 0 12.857 5.7343 12.857 12.857 0 7.1229-5.7343 12.857-12.857 12.857-7.1229 0-12.857-5.7343-12.857-12.857 0-7.1229 5.7343-12.857 12.857-12.857z" fill="#999" stroke-width="1.0714"/>
 <path d="m16 4c6.648 0 12 5.352 12 12s-5.352 12-12 12-12-5.352-12-12 5.352-12 12-12z" fill="#f2f3f4" stroke-width=".85714"/>
 <path d="m16.5 6h-1v-2h1z" fill="#4d4d4d" stroke-width="1.4142"/>
 <path d="m18 18-9 5 5-9z" fill="#3f4041" stroke-width=".52702"/>
 <path d="m14 14 9-5-5 9z" fill="#d8273b" stroke-width=".52702"/>
 <path d="m17 16a1 1 0 0 1-1 1 1 1 0 0 1-1-1 1 1 0 0 1 1-1 1 1 0 0 1 1 1z" fill="#bdc3c7"/>
 <path d="m16.5 16a0.5 0.5 0 0 1-0.5 0.5 0.5 0.5 0 0 1-0.5-0.5 0.5 0.5 0 0 1 0.5-0.5 0.5 0.5 0 0 1 0.5 0.5z" fill="#9fa5a8"/>
 <g fill="#4d4d4d" stroke-width="1.4142">
  <path d="m6 15.5v1h-2v-1z"/>
  <path d="m28 15.5v1h-2v-1z"/>
  <path d="m16.5 28h-1v-2h1z"/>
 </g>
 <path d="m16 2c-7.732 0-14 6.268-14 14s6.268 14 14 14 14-6.268 14-14-6.268-14-14-14zm0 2c6.648 0 12 5.352 12 12s-5.352 12-12 12-12-5.352-12-12 5.352-12 12-12z" fill="#ccc"/>
</svg>
