<svg width="32" height="32" version="1.1" xmlns="http://www.w3.org/2000/svg" xmlns:xlink="http://www.w3.org/1999/xlink">
 <path d="M16 2C12.59 3.806 9.18 4.544 5.77 5.23v13.463c0 3.77 5.526 8.918 10.23 11.307 4.704-2.389 10.23-7.537 10.23-11.307V5.231C22.82 4.544 19.41 3.806 16 2z" fill="#264b5a" stroke="#000" stroke-linecap="round" stroke-linejoin="round" stroke-opacity=".25"/>
 <g stroke-width=".538">
  <path d="M20.752 5.419l-9.487 18.974c1.473 1.373 3.127 2.636 4.735 3.453 3.98-2.021 8.615-6.503 8.615-9.692V6.308a61.098 61.098 0 0 1-3.863-.889z" fill="#d85746"/>
  <path d="M16 3.615c-2.886 1.529-5.73 2.112-8.615 2.693v11.846c0 1.9 1.707 4.215 3.88 6.24l9.487-18.975c-1.58-.426-3.16-.96-4.752-1.804z" fill="#f9f9f9"/>
 </g>
 <g stroke-width="1.857">
  <path transform="translate(-1.23 -1.23) scale(.53846)" d="m24 14 16 32 8-16h-4l-1 2h-6l-9-18zm14 20h4l-2 4z" fill="#f9f9f9"/>
  <path transform="translate(-1.23 -1.23) scale(.53846)" d="m24 14-8 16h4l1-2h6l8.5 17h4zm0 8 2 4h-4z" fill="#d85746"/>
 </g>
</svg>
