<svg width="32" height="32" version="1.1" xmlns="http://www.w3.org/2000/svg" xmlns:xlink="http://www.w3.org/1999/xlink">
 <g transform="translate(-117.7,-413.07)">
  <path d="m122.7 415.07v28h22v-28z" fill="#e1e3e7"/>
  <rect x="122.2" y="414.57" width="23" height="29" rx=".5" ry=".5" fill="none" stroke="#000" stroke-opacity=".24"/>
  <g fill="#8c8c8c">
   <rect x="123.7" y="416.07" width="1" height="1" rx="1" ry="1"/>
   <rect x="142.7" y="416.07" width="1" height="1" rx="1" ry="1"/>
   <rect x="142.7" y="441.07" width="1" height="1" rx="1" ry="1"/>
   <rect x="123.7" y="441.07" width="1" height="1" rx="1" ry="1"/>
   <rect x="123.7" y="428.07" width="1" height="1" rx="1" ry="1"/>
   <rect x="142.7" y="428.07" width="1" height="1" rx="1" ry="1"/>
  </g>
  <path d="m137.3 417.57-9.239 8.892a8.5 8.074 0 0 0-2.867 6.034 8.5 8.074 0 0 0 8.5 8.074 8.5 8.074 0 0 0 8.5-8.074 8.5 8.074 0 0 0-0.016-0.417 0.222 0.222 0 0 0 0.016-0.073v-14.191a0.25 0.25 0 0 0-0.258-0.245z" fill="#edeff3" stroke="#cbcdd1"/>
  <rect x="126.2" y="418.57" width="11" height="6" rx="1.5" ry="1.5" fill="#4c5263" stroke="#323642"/>
  <path d="m127.7 419.74v0.667h1.594v-0.667zm1.804 0v0.667h1.51v-0.667zm1.72 0v0.667h1.322v-0.667zm1.532 0v0.667h0.588v-0.667zm-5.056 1.333v0.667h2.538v-0.667zm2.79 0v0.667h1.217v-0.667zm1.448 0v0.667h0.566v-0.667zm-4.238 2v0.667h2.811v-0.667zm3.02 0v0.667h1.473v-0.667zm2.313 0v0.667h2.667v-0.667z" fill="#e9eaee"/>
 </g>
 <path d="m16 11c-4.432 0-8 3.568-8 8s3.568 8 8 8 8-3.568 8-8-3.568-8-8-8m0 1c3.878 0 7 3.122 7 7s-3.122 7-7 7-7-3.122-7-7 3.122-7 7-7m-1 1v7h6v-1h-5v-6z" fill="#666"/>
</svg>
