<svg width="32" height="32" version="1.1" xmlns="http://www.w3.org/2000/svg" xmlns:xlink="http://www.w3.org/1999/xlink">
 <rect x="2" y="2" width="28" height="28" rx="2" ry="2" fill="#1f212a" stroke-width=".53846" style="paint-order:stroke markers fill"/>
 <rect x="3" y="3" width="26" height="26" rx="1" ry="1" fill="#3e4245" stroke-width=".5" style="paint-order:stroke markers fill"/>
 <path d="m6 7h12v1h-12z" fill="#fff" stroke-width=".5"/>
 <rect x="3" y="11" width="26" height="1" rx="0" ry="0" fill="#00000f" fill-rule="evenodd" opacity=".5" stroke-width=".40825" style="paint-order:fill markers stroke"/>
 <rect x="3" y="20" width="26" height="1" rx="0" ry="0" fill="#00000f" fill-rule="evenodd" opacity=".5" stroke-width=".40825" style="paint-order:fill markers stroke"/>
 <g fill="#72d406">
  <circle cx="21.5" cy="7.5" r=".5" opacity=".5" stroke="#508e0b" stroke-linecap="round" stroke-linejoin="round"/>
  <circle cx="21.5" cy="7.5" r=".5" stroke-width=".25"/>
  <circle cx="25.5" cy="7.5" r=".5" opacity=".5" stroke="#508e0b" stroke-linecap="round" stroke-linejoin="round"/>
  <circle cx="25.5" cy="7.5" r=".5" stroke-width=".25"/>
 </g>
 <path d="m6 16h12v1h-12z" fill="#fff" stroke-width=".5"/>
 <g fill="#72d406">
  <circle cx="21.5" cy="16.5" r=".5" opacity=".5" stroke="#508e0b" stroke-linecap="round" stroke-linejoin="round"/>
  <circle cx="21.5" cy="16.5" r=".5" stroke-width=".25"/>
  <circle cx="25.5" cy="16.5" r=".5" opacity=".5" stroke="#508e0b" stroke-linecap="round" stroke-linejoin="round"/>
  <circle cx="25.5" cy="16.5" r=".5" stroke-width=".25"/>
 </g>
 <path d="m6 25h12v1h-12z" fill="#fff" stroke-width=".5"/>
 <g fill="#72d406">
  <circle cx="21.5" cy="25.5" r=".5" opacity=".5" stroke="#508e0b" stroke-linecap="round" stroke-linejoin="round"/>
  <circle cx="21.5" cy="25.5" r=".5" stroke-width=".25"/>
  <circle cx="25.5" cy="25.5" r=".5" opacity=".5" stroke="#508e0b" stroke-linecap="round" stroke-linejoin="round"/>
  <circle cx="25.5" cy="25.5" r=".5" stroke-width=".25"/>
 </g>
 <rect x="16" y="14" width="16" height="16" rx="2" fill="#eff0f1" stroke="#000" stroke-opacity=".25"/>
 <path d="M18 16v12h12V18h-4.992l-2-2-.008.008V16h-4zm1 1h3.592l1.002 1H23v.008L22.992 18l-2 2H19zm0 4h10v6H19z" fill="#232629"/>
</svg>
