<svg width="32" height="32" version="1.1" xmlns="http://www.w3.org/2000/svg" xmlns:xlink="http://www.w3.org/1999/xlink">
 <g>
  <rect transform="scale(1,-1)" x="1.165e-5" y="-31" width="32" height="30" rx="2" ry="2" opacity=".25" stroke-width="1.0351"/>
  <rect transform="scale(1,-1)" x="1" y="-30" width="30" height="28" rx="1" ry="1" fill="#eee" stroke-width=".96825"/>
  <path d="m2 30c-0.55402 0-1-0.44599-1-1v-3h30v3c0 0.55401-0.44599 1-1 1z" fill="#e4e4e4" stroke-width="1.1859"/>
 </g>
 <rect transform="scale(1,-1)" x="27" y="-29" width="2" height="2" rx="1" fill="#999"/>
 <g>
  <rect transform="scale(1,-1)" x="1" y="-26" width="30" height="1" ry="0" opacity=".25"/>
  <path d="m3 27v1h1v-1zm1 1v1h1v-1z" fill="#999"/>
  <g fill="#888" fill-rule="evenodd">
   <path transform="translate(-384.57 -515.8)" d="m400.57 523.8a1 1 0 0 0-1 1h2a1 1 0 0 0-1-1zm0 2a6 6 0 0 0-6 6h12a6 6 0 0 0-6-6z"/>
   <path transform="translate(-384.57 -515.8)" d="m394.57 532.8a1 1 0 0 0-1 1v2h14v-2a1 1 0 0 0-1-1z"/>
  </g>
 </g>
</svg>
