<svg width="32" height="32" version="1.1" xmlns="http://www.w3.org/2000/svg" xmlns:xlink="http://www.w3.org/1999/xlink">
 <defs>
  <linearGradient id="o" x1="10.654" x2="10.654" y1="1" y2="3" gradientTransform="matrix(.6 0 0 .75 .6 .125)" gradientUnits="userSpaceOnUse">
   <stop stop-color="#eee" offset="0"/>
   <stop stop-color="#d9d9da" offset="1"/>
  </linearGradient>
  <linearGradient id="p" x1="24" x2="24" y1="44" y2="3.899" gradientTransform="matrix(.6 0 0 .07692 1.8 .154)" gradientUnits="userSpaceOnUse">
   <stop stop-color="#272727" offset="0"/>
   <stop stop-color="#454545" offset="1"/>
  </linearGradient>
 </defs>
 <g stroke="#000" stroke-linecap="round" stroke-linejoin="round" stroke-opacity=".25">
  <path d="m28 6h2v4h-2z" fill="#5bd68f"/>
  <path d="m28 12h2v4h-2z" fill="#459fd9"/>
  <path d="m28 18h2v4h-2z" fill="#de5461"/>
 </g>
 <path d="m27.491 2.304c-0.203-0.655-0.076-1.17-0.188-1.795h-20.794l0.121 1.981" fill="#eee" stroke="#9b876c" stroke-linejoin="round" stroke-miterlimit="0" stroke-width="1.017"/>
 <g stroke-linecap="round" stroke-linejoin="round">
  <path d="m7.5 3.5h-2.4c-0.342 0-0.6-0.032-0.6-0.073v-2.097c0-0.666 0.336-0.83 0.775-0.83h2.225" color="#000000" fill="url(#o)" overflow="visible" stroke="url(#p)"/>
  <rect x="5.51" y="2.51" width="21.981" height="26.981" rx=".5" ry=".5" fill="#cebeaa" stroke="#a79071" stroke-miterlimit="0" stroke-width="1.019"/>
  <path d="m7.5 2.5v27h-2.4c-0.343 0-0.6-0.286-0.6-0.659v-26.341z" color="#000000" fill="#5f5f5f" overflow="visible" stroke="#272727"/>
  <path d="m16.942 9.53c-0.625-0.147-1.375 0.303-1.375 0.303l-0.673 0.336s-0.729 0.637-0.737 0.853c-0.41 0.727-0.223 1.608-0.265 2.403 0.04 0.682-0.434 1.188-0.196 1.88-0.035 0.669 0.516 1.06 0.87 1.544 0.398 0.611 0.938 1.41 0.512 2.14-0.787 1.143-2.095 1.748-3.29 2.37-0.406 0.041-0.253 0.431-0.28 0.709-1e-3 0.221-0.074 0.514 0.25 0.41h10.742v-1.147c-1.157-0.586-2.364-1.214-3.175-2.256-0.487-0.698 1e-3 -1.537 0.386-2.158 0.3-0.517 0.925-0.847 0.934-1.506 0.23-0.669-0.117-1.223-0.182-1.86-0.085-0.846 0.144-1.771-0.26-2.558-0.547-0.805-1.55-1.158-2.459-1.374a4.225 4.225 0 0 0-0.802-0.09z" color="#000000" fill="#585858" overflow="visible" stroke="#272727"/>
 </g>
</svg>
