<svg width="32" height="32" version="1.1" xmlns="http://www.w3.org/2000/svg">
 <rect x="1.165e-5" y="1" width="32" height="30" rx="2" ry="2" opacity=".25" stroke-width="1.0351"/>
 <rect x="1" y="2" width="30" height="28" rx="1" ry="1" fill="#eee" stroke-width=".96825"/>
 <path d="m2 2c-0.55402 0-1 0.44599-1 1v5h30v-5c0-0.55401-0.44599-1-1-1z" fill="#e4e4e4" stroke-width="1.1859"/>
 <rect x="27" y="4" width="2" height="2" rx="1" fill="#999"/>
 <rect x="1" y="8" width="30" height="1" ry="0" opacity=".25"/>
 <g stroke-width=".57977">
  <path d="m6.0013 14.001h1.7647l2.0588 5.7143 2.0588-5.7143h1.7647l-2.9412 8h-1.7647z" fill="#f84d5e"/>
  <path d="m12.472 22.001 2.9412-8h1.7647l-2.9412 8zm5.8824 0 2.9412-8h1.7647l-2.9412 8z" fill="#3f4144"/>
  <path d="m10.707 22.001 2.9412-8h1.7647l-2.9412 8zm5.8824 0 2.9412-8h1.7647l-2.9412 8z" fill="#8a9596"/>
  <path d="m18.354 22.001h-1.7647l-2.9412-8h1.7647zm5.8824 0h-1.7647l-2.9412-8h1.7647z" fill="#bcc1c5"/>
  <path d="m15.413 14.001 2.9412 8h1.7647l-2.9412-8zm5.8824 0 2.9412 8h1.7647l-2.9412-8z" fill="#585858"/>
 </g>
</svg>
