<svg width="32" height="32" version="1.1" xmlns="http://www.w3.org/2000/svg" xmlns:xlink="http://www.w3.org/1999/xlink">
 <path d="M11.402 5.982V24.65l4.177-5.094 2.755 6.649a1.333 1.333 0 1 0 2.463-1.021l-2.815-6.795 5.839.014L11.4 5.982z" fill-rule="evenodd" opacity=".2" stroke="#000" stroke-linejoin="round" stroke-width="2"/>
 <path d="M10.068 4.649v18.667l4.177-5.094L17 24.87a1.333 1.333 0 1 0 2.464-1.02l-2.815-6.795 5.838.013-12.419-12.42z" fill="none" stroke="#fff" stroke-width="2"/>
 <path d="M10.068 4.649v18.667l4.177-5.094L17 24.87a1.333 1.333 0 1 0 2.464-1.02l-2.815-6.795 5.838.013-12.419-12.42z" fill="#333" fill-rule="evenodd"/>
</svg>
