<svg width="32" height="32" version="1.1" xmlns="http://www.w3.org/2000/svg">
 <path d="m13.24 22.474c-0.404 0-0.73 0.275-0.729 0.616v4.845l-2.277 0.154c-0.404 0-0.728 0.275-0.728 0.616v0.769h13v-0.769c0-0.34-0.325-0.616-0.729-0.616l-2.267-0.154v-4.845c0-0.341-0.325-0.616-0.729-0.616z" fill="none" stroke="#42557f" stroke-opacity=".291"/>
 <path d="m13.46 22.384c-0.26 0-0.452 0.184-0.45 0.407v5.349l-2.545 0.184h-0.01c-0.26 0-0.45 0.184-0.45 0.407v0.269h12v-0.269c0-0.223-0.19-0.407-0.45-0.407h-0.012l-2.543-0.184v-5.349c0-0.223-0.19-0.407-0.45-0.407z" fill="#fafafa"/>
 <rect x="1" y="2" width="30" height="21" rx="1.0345" ry="1.1053" fill="#434855" stroke="#252831" stroke-dashoffset=".5" stroke-linecap="round" stroke-linejoin="round" stroke-opacity=".784" stroke-width="2"/>
 <path d="m2 3h28v19.071h-28z" fill="#5294e2" fill-rule="evenodd" stroke-width="1.0293"/>
 <path d="m16 5c-1.662 0-3 1.338-3 3v4h-2v7h10v-7h-2v-4c0-1.662-1.338-3-3-3zm0 1c1.2465 0 2 0.5458 2 2v4h-4v-4c0-1.4542 0.75351-2 2-2z" fill="#fff"/>
</svg>
