<svg width="32" height="32" version="1.1" xmlns="http://www.w3.org/2000/svg">
 <path d="m13.24 22.474c-0.404 0-0.73 0.275-0.729 0.616v4.845l-2.277 0.154c-0.404 0-0.728 0.275-0.728 0.616v0.769h13v-0.769c0-0.34-0.325-0.616-0.729-0.616l-2.267-0.154v-4.845c0-0.341-0.325-0.616-0.729-0.616z" fill="none" stroke="#42557f" stroke-opacity=".291"/>
 <path d="m13.46 22.384c-0.26 0-0.452 0.184-0.45 0.407v5.349l-2.545 0.184h-0.01c-0.26 0-0.45 0.184-0.45 0.407v0.269h12v-0.269c0-0.223-0.19-0.407-0.45-0.407h-0.012l-2.543-0.184v-5.349c0-0.223-0.19-0.407-0.45-0.407z" fill="#fafafa"/>
 <rect x="1" y="2" width="30" height="21" rx="1.0345" ry="1.1053" fill="#434855" stroke="#252831" stroke-dashoffset=".5" stroke-linecap="round" stroke-linejoin="round" stroke-opacity=".784" stroke-width="2"/>
 <path d="m2 3h28v19.071h-28z" fill="#5294e2" fill-rule="evenodd" stroke-width="1.0293"/>
 <rect transform="scale(1,-1)" x="9" y="-12" width="14" height="3" fill="#fff" opacity=".5"/>
 <rect transform="scale(1,-1)" x="9" y="-16" width="14" height="3" fill="#fff" opacity=".5"/>
 <g fill="#4d4d4d">
  <circle cx="10.5" cy="10.5" r=".5"/>
  <circle cx="10.5" cy="14.5" r=".5"/>
  <circle cx="12.5" cy="14.5" r=".5"/>
  <circle cx="14.5" cy="14.5" r=".5"/>
 </g>
</svg>
