<svg width="32" height="32" version="1.1" xmlns="http://www.w3.org/2000/svg" xmlns:xlink="http://www.w3.org/1999/xlink">
 <g>
  <rect x="1.165e-5" y="1" width="32" height="30" rx="2" ry="2" opacity=".25" stroke-width="1.0351"/>
  <rect x="1" y="2" width="30" height="28" rx="1" ry="1" fill="#eee" stroke-width=".96825"/>
  <path d="m2 2c-0.55402 0-1 0.44599-1 1v5h30v-5c0-0.55401-0.44599-1-1-1z" fill="#e4e4e4" stroke-width="1.1859"/>
 </g>
 <rect x="27" y="4" width="2" height="2" rx="1" fill="#999"/>
 <rect x="1" y="8" width="30" height="1" ry="0" opacity=".25"/>
 <path d="m9 13h14v9h-14z" fill="#fcfcfc"/>
 <g transform="translate(0,1)" fill="#808080">
  <path d="m16 12a9 9 0 0 0-7.877 4.668c0.129 0.364 0.357 0.677 0.656 0.908a8 8 0 0 1 7.221-4.576 4 4 0 0 0-4 4 4 4 0 0 0 4 4 4 4 0 0 0 4-4 4 4 0 0 0-3.65-3.982 8 8 0 0 1 6.87 4.558c0.302-0.234 0.533-0.55 0.66-0.918a9 9 0 0 0-7.88-4.658zm0 2a3 3 0 0 1 3 3 3 3 0 0 1-3 3 3 3 0 0 1-3-3 3 3 0 0 1 3-3zm0 1a2 2 0 0 0-2 2 2 2 0 0 0 2 2 2 2 0 0 0 2-2 2 2 0 0 0-0.09-0.588 1 1 0 0 1-0.91 0.588 1 1 0 0 1-1-1 1 1 0 0 1 0.59-0.91 2 2 0 0 0-0.59-0.09z"/>
  <path d="m8 11v11h7v2h-3v1h8v-1h-3v-2h7v-11h-15zm1 1h14v9h-14z"/>
 </g>
</svg>
