<svg xmlns="http://www.w3.org/2000/svg" xmlns:xlink="http://www.w3.org/1999/xlink" width="32" height="32"><defs><linearGradient x1="19.875" y1="38.245" x2="19.875" y2="-61.256" id="e" xlink:href="#a" gradientUnits="userSpaceOnUse" gradientTransform="matrix(-.3 0 0 .3 34.259 19.3)"/><linearGradient id="a"><stop offset="0" stop-color="#365a7c"/><stop offset="1" stop-color="#5ea1ca"/></linearGradient><linearGradient id="b"><stop offset="0"/><stop offset="1" stop-opacity="0"/></linearGradient><clipPath clipPathUnits="userSpaceOnUse" id="c"><circle cx="14.991" cy="21.819" r="7.6" fill="#be0505" stroke-width="3.708" stroke-linejoin="round"/></clipPath><radialGradient xlink:href="#b" id="d" gradientUnits="userSpaceOnUse" gradientTransform="matrix(.04372 0 0 .01647 .205 21.294)" cx="605.714" cy="486.648" fx="605.714" fy="486.648" r="117.143"/></defs><rect style="marker:none" y="3.5" x="1.5" ry="2.08" rx="2" height="26" width="29" color="#000" overflow="visible" fill="#5ab0fa"/><path d="M5.5 25.5c-.554 0-1 .446-1 1v2h23v-2c0-.554-.446-1-1-1z" opacity=".7" fill="#fff" stroke="#fff"/><path style="marker:none" d="M8.207 23.493H5.793a.3.3 0 0 0-.3.3v2.414a.3.3 0 0 0 .3.3h2.414a.3.3 0 0 0 .3-.3v-2.414a.3.3 0 0 0-.3-.3z" color="#000" overflow="visible" fill="#f7f7f7" stroke="#fff" stroke-width=".985"/><rect style="isolation:auto;mix-blend-mode:normal;solid-color:#000;solid-opacity:1;marker:none" y="3.5" x="1.5" ry="2.08" rx="2" height="26" width="29" color="#000" overflow="visible" opacity=".35" stroke="#002e99" stroke-linecap="round" stroke-linejoin="round" fill="none"/><path style="marker:none" d="M26.207 22.493h-2.414a.3.3 0 0 0-.3.3v2.414a.3.3 0 0 0 .3.3h2.414a.3.3 0 0 0 .3-.3v-2.414a.3.3 0 0 0-.3-.3z" color="#000" overflow="visible" fill="#f7f7f7" stroke="#fff" stroke-width=".985"/><g transform="matrix(1.25 0 0 1.25 .76 -7.773)" clip-path="url(#c)"><path style="marker:none" d="M26.556 27.333v4c2.252.008 5.444-.896 5.444-2s-2.513-2-5.444-2z" overflow="visible" opacity=".402" fill="url(#d)"/><path style="marker:none" d="M8.207 23.493H5.793a.3.3 0 0 0-.3.3v2.414a.3.3 0 0 0 .3.3h2.414a.3.3 0 0 0 .3-.3v-2.414a.3.3 0 0 0-.3-.3zM14.207 23.493h-2.414a.3.3 0 0 0-.3.3v2.414a.3.3 0 0 0 .3.3h2.414a.3.3 0 0 0 .3-.3v-2.414a.3.3 0 0 0-.3-.3zM20.207 23.493h-2.414a.3.3 0 0 0-.3.3v2.414a.3.3 0 0 0 .3.3h2.414a.3.3 0 0 0 .3-.3v-2.414a.3.3 0 0 0-.3-.3z" color="#000" overflow="visible" fill="#f7f7f7" stroke="#fff" stroke-width=".985"/><path style="marker:none" d="M27.118 22h-4.236a.88.88 0 0 0-.882.882v4.236a.88.88 0 0 0 .882.882h4.236a.88.88 0 0 0 .882-.882v-4.236a.88.88 0 0 0-.882-.882z" color="#000" overflow="visible" opacity=".3" fill="url(#e)"/><path style="marker:none" d="M26.207 23.493h-2.414a.3.3 0 0 0-.3.3v2.414a.3.3 0 0 0 .3.3h2.414a.3.3 0 0 0 .3-.3v-2.414a.3.3 0 0 0-.3-.3z" color="#000" overflow="visible" fill="#f7f7f7" stroke="#fff" stroke-width=".985"/></g><path style="marker:none" d="M19.685 7.506A11.5 11.5 0 0 0 7.85 19.002a11.5 11.5 0 0 0 23 0A11.5 11.5 0 0 0 19.685 7.506zm-.333 2.994c4.709 0 8.5 3.791 8.5 8.5s-3.791 8.5-8.5 8.5a8.481 8.481 0 0 1-8.5-8.5c0-4.71 3.79-8.5 8.5-8.5z" color="#000" overflow="visible" fill="#737d92"/><path d="M30.85 19.002a11.5 11.498 0 0 1-23 0 11.5 11.498 0 1 1 23 0z" opacity=".2" fill="none" stroke="#000"/><rect style="marker:none" transform="rotate(90)" y="-23.351" x="12" ry="25" rx="25" height="8" width="7" color="#000" overflow="visible" opacity=".15" fill="#fff"/><circle cx="19.38" cy="18.955" r="8.5" opacity=".35" fill="#fff" paint-order="markers stroke fill"/></svg>