<svg xmlns="http://www.w3.org/2000/svg" height="32" width="32"><defs><linearGradient id="b"><stop offset="0" stop-color="#181818" stop-opacity="0"/><stop offset=".5" stop-color="#181818"/><stop offset="1" stop-color="#181818" stop-opacity="0"/></linearGradient><linearGradient id="a"><stop offset="0" stop-color="#181818"/><stop offset="1" stop-color="#181818" stop-opacity="0"/></linearGradient><linearGradient id="d"><stop offset="0" stop-color="#fafafa"/><stop offset="1" stop-color="#e1e1e1"/></linearGradient><linearGradient gradientTransform="matrix(.40394 0 0 .42567 4.55 -4.793)" gradientUnits="userSpaceOnUse" id="e" y2="57.61" x2="83.24" y1="42.457" x1="83.24"><stop offset="0" stop-color="#e5e5e5"/><stop offset="1" stop-color="#d4d4d4"/></linearGradient><linearGradient id="c"><stop offset="0" stop-color="#fff"/><stop offset="0" stop-color="#fff" stop-opacity=".235"/><stop offset="1" stop-color="#fff" stop-opacity=".157"/><stop offset="1" stop-color="#fff" stop-opacity=".392"/></linearGradient></defs><rect width="20" height="17" rx=".5" ry=".5" x="2" y="12" style="isolation:auto;mix-blend-mode:normal;solid-color:#000;solid-opacity:1;marker:none" color="#000" overflow="visible" fill="#f2f2f2"/><path d="M2.5 11.5c-.554 0-1 .446-1 1V17h21v-4.5c0-.554-.446-1-1-1z" style="isolation:auto;mix-blend-mode:normal;solid-color:#000;solid-opacity:1;marker:none" color="#000" overflow="visible" fill="#e8e8e8"/><rect width="21" height="18" rx="1" ry="1" x="1.5" y="11.5" style="marker:none" color="#000" overflow="visible" opacity=".15" fill="none" stroke="#0e141f" stroke-linecap="round" stroke-linejoin="round"/><path d="M2 16.5h20" opacity=".1" fill="none" stroke="#000"/><rect width="20" height="17" rx=".5" ry=".5" x="10" y="3" style="isolation:auto;mix-blend-mode:normal;solid-color:#000;solid-opacity:1;marker:none" color="#000" overflow="visible" fill="#eee"/><path d="M10.5 2.5c-.554 0-1 .446-1 1V8h21V3.5c0-.554-.446-1-1-1z" style="isolation:auto;mix-blend-mode:normal;solid-color:#000;solid-opacity:1;marker:none" color="#000" overflow="visible" fill="#e4e4e4"/><rect width="21" height="18" rx="1" ry="1" x="9.5" y="2.5" style="marker:none" color="#000" overflow="visible" opacity=".25" fill="none" stroke="#0e141f" stroke-linecap="round" stroke-linejoin="round"/><path d="M10 7.5h20" opacity=".2" fill="none" stroke="#000"/></svg>