<svg xmlns="http://www.w3.org/2000/svg" width="32" height="32"><rect style="marker:none" y="8" x="6.894" ry="1.583" rx="1.5" height="19" width="22" color="#000" overflow="visible" fill="#e6e6e6"/><path style="marker:none" d="M16.75 27.5h10.656c1.108 0 2-.892 2-2v-16c0-1.108-.892-2-2-2H17.75" color="#000" overflow="visible" fill="none" stroke="#000" stroke-linecap="round" stroke-linejoin="round" stroke-opacity=".196"/><path style="marker:none" d="M9.974 3c-1.654.04-3.516.14-5.079 1.213a.586.581 0 0 0-.114.094c-1.624 1.88-1.33 4.375-1.585 6.289a.586.581 0 0 0-.019.038c-.294 4.903-.277 9.875.477 14.774a.586.581 0 0 0 0 .019c.246 1.297 1.06 2.674 2.559 3.03.014.004.023.016.038.02v-.02c2.274.692 4.73.692 7.006.171 1.18-.27 2.401-.995 2.826-2.31.002-.006-.002-.014 0-.02.554-1.572.543-3.19.706-4.66a.586.581 0 0 0 .02-.018c.303-4.714.282-9.474-.325-14.187-.084-.669-.22-1.405-.554-2.084-.33-.672-.869-1.28-1.66-1.61-.005-.001.003-.017 0-.019-.006-.002-.014.003-.02 0-1.385-.617-2.898-.667-4.238-.72a.586.581 0 0 0-.038 0z" color="#000" overflow="visible" fill="#f9f9f9"/><path style="marker:none" d="M9.972 2.5c-1.772.04-3.767.145-5.441 1.26a.627.603 0 0 0-.123.097c-1.74 1.953-1.424 4.544-1.698 6.53a.627.603 0 0 0-.02.04c-.315 5.092-.298 10.256.511 15.343a.627.603 0 0 0 0 .02c.263 1.346 1.135 2.776 2.741 3.147.016.004.025.016.04.02v-.02c2.438.718 5.069.718 7.508.177 1.263-.281 2.572-1.034 3.027-2.4.002-.006-.002-.014 0-.02.594-1.632.583-3.312.757-4.838a.627.603 0 0 0 .02-.02c.326-4.896.303-9.838-.347-14.733-.09-.694-.236-1.458-.593-2.164-.354-.697-.931-1.329-1.78-1.672-.004 0 .004-.018 0-.02-.006-.002-.014.003-.02 0-1.485-.64-3.106-.692-4.541-.747a.627.603 0 0 0-.041 0z" color="#000" overflow="visible" fill="none" stroke="#000" stroke-linecap="round" stroke-linejoin="round" stroke-opacity=".137"/></svg>