<svg width="32" height="32" version="1.1" xmlns="http://www.w3.org/2000/svg">
 <g transform="translate(-384.57 -515.8)">
  <g transform="translate(384.57 515.8)">
   <rect x="1.165e-5" y="1" width="32" height="30" rx="2" ry="2" opacity=".25" stroke-width="1.0351"/>
   <rect x="1" y="2" width="30" height="28" rx="1" ry="1" fill="#eee" stroke-width=".96825"/>
   <path d="m2 2c-0.55402 0-1 0.44599-1 1v5h30v-5c0-0.55401-0.44599-1-1-1z" fill="#e4e4e4" stroke-width="1.1859"/>
  </g>
  <rect x="411.57" y="519.8" width="2" height="2" rx="1" fill="#999"/>
  <rect x="385.57" y="523.8" width="30" height="1" ry="0" opacity=".25"/>
  <g stroke-width="2">
   <path transform="translate(384.57 515.8)" d="m2 12v1h22v-1zm0 3v1h9v-1zm16 0v12h12v-12zm1 1h10v10h-10v-1zm0 9h2l2-2-1-1zm10 0-3-3-3 3zm-7.5-8c-0.831 0-1.5 0.669-1.5 1.5s0.669 1.5 1.5 1.5 1.5-0.669 1.5-1.5-0.669-1.5-1.5-1.5zm-19.5 1v1h14v-1zm0 3v1h11v-1zm0 3v1h14v-1z" color="#000000" fill="#666"/>
   <path transform="translate(384.57 515.8)" d="m24 15c-3.3137 0-6 2.6863-6 6s2.6863 6 6 6 6-2.6863 6-6-2.6863-6-6-6zm0 1c2.7614 0 5 2.2386 5 5 0 1.2051-0.44421 2.2949-1.1543 3.1582l-7.0039-7.0039c0.86335-0.71008 1.9531-1.1543 3.1582-1.1543zm-3.8457 1.8418 7.0039 7.0039c-0.86335 0.71008-1.9531 1.1543-3.1582 1.1543-2.7614 0-5-2.2386-5-5 0-1.2051 0.44421-2.2949 1.1543-3.1582z" color="#000000" fill="#da4453"/>
   <path transform="translate(384.57 515.8)" d="m24 15c-3.3137 0-6 2.6863-6 6s2.6863 6 6 6 6-2.6863 6-6-2.6863-6-6-6zm0 1c2.7614 0 5 2.2386 5 5 0 1.2051-0.44421 2.2949-1.1543 3.1582l-7.0039-7.0039c0.86335-0.71008 1.9531-1.1543 3.1582-1.1543zm-3.8457 1.8418 7.0039 7.0039c-0.86335 0.71008-1.9531 1.1543-3.1582 1.1543-2.7614 0-5-2.2386-5-5 0-1.2051 0.44421-2.2949 1.1543-3.1582z" color="#000000" fill="#da4453"/>
  </g>
 </g>
</svg>
