<svg width="32" height="32" version="1.1" xmlns="http://www.w3.org/2000/svg" xmlns:xlink="http://www.w3.org/1999/xlink">
 <defs>
  <radialGradient id="radialGradient4227" cx="400.57" cy="531.8" r="14" gradientTransform="matrix(1.0769 0 0 1.0769 -415.39 -556.71)" gradientUnits="userSpaceOnUse">
   <stop stop-color="#566069" offset="0"/>
   <stop stop-color="#18222a" offset="1"/>
  </radialGradient>
 </defs>
 <g stroke-linejoin="round" stroke-width="1.0769">
  <rect x="2" y="2" width="28" height="28" rx="1.0769" fill="url(#radialGradient4227)"/>
  <rect x="3.0769" y="3.0769" width="25.846" height="25.846" rx=".53847" fill="#4d5760"/>
  <rect x="3.0769" y="24.615" width="11.846" height="4.3077" rx="2.8538e-5" fill="#83878a"/>
  <rect x="17.077" y="24.615" width="11.846" height="4.3077" rx="2.8538e-5" fill="#83878a"/>
 </g>
 <path d="m13.846 8.1923a2.1538 2.1538 0 0 0-2.1538 2.1538 2.1538 2.1538 0 0 0 1.6154 2.0844v-1.1548a1.0769 1.0769 0 0 1-0.53846-0.92969 1.0769 1.0769 0 0 1 1.0769-1.0769 1.0769 1.0769 0 0 1 1.0769 1.0769 1.0769 1.0769 0 0 1-0.01077 0.14514l0.90865 0.70673a2.1538 2.1538 0 0 0 0.17879-0.85187 2.1538 2.1538 0 0 0-2.1539-2.1538zm0 2.1538 0.0065 10.5 3.2245-4.3077h4.8462l-8.0769-6.1923z" fill="#1fb5f8" stroke-linejoin="round" stroke-width="1.0769"/>
</svg>
