<svg width="32" height="32" version="1.1" xmlns="http://www.w3.org/2000/svg">
 <g transform="translate(-384.57 -515.8)">
  <g transform="translate(0 .31528)">
   <path d="m397.62 527.98c0.312 1.542 0.585 2.708 0.332 4.25-1.972 1.71-7.214 2.48-7.207 4.25l-0.677 5.313c0 1.76 4.701 3.187 10.5 3.187s10.5-1.427 10.5-3.187l-0.677-5.313c-9e-3 -1.516-5.281-2.48-7.229-4.25-0.166-1.431 0.066-2.819 0.354-4.25z" fill="#e6e6e6" stroke="#b8b8b8"/>
   <path d="m400.57 517.98c-2.485 0-4.5 2-4.5 4.466 0.02 0.913 0.093 1.998 0.6 4.467 0.3 0.957 2.976 3.709 3 4.028 0.582 0.319 1.5 0.319 2.1 0 0-0.319 2.4-3.071 2.7-4.028 0.57-2.566 0.57-3.51 0.6-4.467 0-2.466-2.015-4.466-4.5-4.466z" fill="#f2f2f2" stroke="#cacaca"/>
  </g>
  <circle cx="408.07" cy="541.3" r="6.5" fill="#2f94e4" fill-opacity=".98431"/>
  <circle cx="408.07" cy="541.3" r="5.5" fill="#5db5fc" fill-opacity=".98431"/>
  <circle cx="408.07" cy="538.3" r=".5" fill="#fff" fill-opacity=".98431"/>
  <rect x="407.57" y="539.8" width="1" height="5" rx=".5" ry=".5" fill="#fff" fill-opacity=".98431"/>
 </g>
</svg>
