<svg xmlns="http://www.w3.org/2000/svg" height="32" width="32"><rect width="27" height="27" rx="2.16" ry="2.16" x="2.5" y="2.5" style="marker:none" color="#000" overflow="visible" fill="#c898f4"/><rect width="27" height="27" rx="2.16" ry="2.16" x="2.5" y="2.5" style="isolation:auto;mix-blend-mode:normal;solid-color:#000;solid-opacity:1;marker:none" color="#000" overflow="visible" opacity=".35" fill="none" stroke="#7239b3"/><path d="M19.5 9a2.5 2.5 0 0 0-2.5 2.5 2.5 2.5 0 0 0 .088.654l-3.943 2.465A2.5 2.5 0 0 0 11.5 14 2.5 2.5 0 0 0 9 16.5a2.5 2.5 0 0 0 2.5 2.5 2.5 2.5 0 0 0 1.602-.582l3.974 2.484A2.5 2.5 0 0 0 17 21.5a2.5 2.5 0 0 0 2.5 2.5 2.5 2.5 0 0 0 2.5-2.5 2.5 2.5 0 0 0-2.5-2.5 2.5 2.5 0 0 0-1.645.621l-3.945-2.467A2.5 2.5 0 0 0 14 16.5a2.5 2.5 0 0 0-.076-.6l3.972-2.482A2.5 2.5 0 0 0 19.5 14a2.5 2.5 0 0 0 2.5-2.5A2.5 2.5 0 0 0 19.5 9z" style="isolation:auto;mix-blend-mode:normal;solid-color:#000;solid-opacity:1" color="#000" overflow="visible" fill="#fff" fill-rule="evenodd"/></svg>