<svg xmlns="http://www.w3.org/2000/svg" width="32" height="32"><rect width="27" height="27" rx="2.16" ry="2.16" x="2.5" y="2.5" style="marker:none" color="#000" overflow="visible" fill="#6b7890"/><rect width="27" height="27" rx="2.16" ry="2.16" x="2.5" y="2.5" style="marker:none" color="#000" overflow="visible" opacity=".35" fill="none" stroke="#1c2c38" stroke-linecap="round" stroke-linejoin="round"/><path style="marker:none" d="M11.438 6c-.426-.024-.483.444-.438.75v6c-.261-.055-.612-.024-.906.063-.885.235-1.667 1.047-1.594 1.968.102.863 1.126 1.413 1.969 1.156.954-.225 1.5-1.054 1.5-2.124v-4.75c.793.419 1.516 1.202 1.5 2.124.008.668-.174 1.33-.438 1.938-.035.073.037.128.094.156.153.043.226-.155.313-.25.92-1.235.994-3.037 0-4.25-.353-.43-.822-.812-1.063-1.312a3.425 3.425 0 0 1-.469-1.25c-.097-.159-.285-.22-.469-.219zm6 7a.435.435 0 0 0-.438.438v8.124c0 .25.2.438.438.438h7.125a.435.435 0 0 0 .437-.438v-8.125c0-.249-.2-.437-.438-.437zm.125.594h.593v.594h-.593zm6.28 0h.595v.594h-.594zM19 13.938h4c.158 0 .281.146.281.312v2.5c0 .166-.123.313-.281.313h-4c-.158 0-.281-.147-.281-.313v-2.5c0-.166.123-.313.281-.313zm-1.438.874h.594v.594h-.593zm6.282 0h.593v.594h-.593zM17.562 16h.594v.594h-.593zm6.282 0h.593v.594h-.593zm-6.282 1.188h.594v.625h-.593zm6.282 0h.593v.625h-.593zm-4.844.75h4c.158 0 .281.146.281.312v2.5c0 .166-.123.313-.281.313h-4c-.158 0-.281-.147-.281-.313v-2.5c0-.166.123-.313.281-.313zm-1.438.468h.594V19h-.593zm6.282 0h.593V19h-.593zM13 18l-5 5.125h2.156l-.969 2.031c-.353.71.887 1.124 1.126.594l.968-1.938L13 25.438zm4.563 1.594h.593v.593h-.593zm6.28 0h.595v.593h-.594zm-6.28 1.218h.593v.594h-.593zm6.28 0h.595v.594h-.594z" color="#000" overflow="visible" fill="#fff"/></svg>