<svg width="32" height="32" version="1.1" xmlns="http://www.w3.org/2000/svg" xmlns:xlink="http://www.w3.org/1999/xlink">
 <g transform="translate(-384.57 -515.8)">
  <g>
   <rect x="384.57" y="516.8" width="32" height="30" rx="2" ry="2" opacity=".25" stroke-width="1.0351"/>
   <rect x="385.57" y="517.8" width="30" height="28" rx="1" ry="1" fill="#eee" stroke-width=".96825"/>
   <path transform="translate(384.57 515.8)" d="m2 2c-0.55402 0-1 0.44599-1 1v5h30v-5c0-0.55401-0.44599-1-1-1h-28z" fill="#e4e4e4" stroke-width="1.1859"/>
  </g>
  <rect x="411.57" y="519.8" width="2" height="2" rx="1" fill="#999"/>
  <path d="m405 527.8c-2.844 0-3.3775 4.1552-1.7774 4.1552 1.5995 0 4.6217-4.1552 1.7774-4.1552zm-4.3806 0.63928c-0.0448-1.6e-4 -0.0935 4e-3 -0.14392 9e-3 -1.6116 0.19573-1.0444 2.8184-0.18648 2.8673 0.83075 0.0477 1.7396-2.8715 0.32984-2.876zm-2.7945 0.96823c-0.0986-6e-3 -0.20775 0.012-0.32927 0.0598-1.2954 0.51147-0.19656 2.6228 0.52863 2.4809 0.65821-0.12861 0.75257-2.4813-0.19936-2.5408zm-2.1144 1.7261c-0.11259-3e-3 -0.23407 0.0343-0.36399 0.12733-1.0369 0.74409 0.34888 2.5417 0.95899 2.263 0.53368-0.24414 0.1932-2.3629-0.59514-2.3903zm6.1242 1.7161c-2.2467-0.037-5.2104 1.0592-5.716 3.2612-0.54711 2.3828 2.2538 5.689 5.1758 5.689 1.4375 0 3.0955-1.2632 3.4059-2.8629 0.23688-1.2197-2.788-0.73091-2.6795 0.0761 0.13048 0.96751-0.72956 1.4458-1.5717 0.82217-2.6808-1.9855 4.4388-2.9763 3.9692-5.689-0.14616-0.84444-1.2358-1.2744-2.5838-1.2966z" fill="#808080"/>
  <rect x="385.57" y="523.8" width="30" height="1" ry="0" opacity=".25"/>
 </g>
</svg>
