<svg xmlns="http://www.w3.org/2000/svg" width="32" height="32"><defs><linearGradient id="a"><stop offset="0" stop-color="#fff"/><stop offset=".063" stop-color="#fff" stop-opacity=".235"/><stop offset=".951" stop-color="#fff" stop-opacity=".157"/><stop offset="1" stop-color="#fff" stop-opacity=".392"/></linearGradient><linearGradient id="c"><stop offset="0" stop-color="#181818"/><stop offset="1" stop-color="#181818" stop-opacity="0"/></linearGradient><linearGradient id="d"><stop offset="0" stop-color="#181818"/><stop offset="1" stop-color="#181818" stop-opacity="0"/></linearGradient><linearGradient id="e"><stop offset="0" stop-color="#181818" stop-opacity="0"/><stop offset=".5" stop-color="#181818"/><stop offset="1" stop-color="#181818" stop-opacity="0"/></linearGradient><linearGradient id="b"><stop offset="0" stop-color="#fff3cb"/><stop offset=".262" stop-color="#fdde76"/><stop offset=".661" stop-color="#f9c440"/><stop offset="1" stop-color="#e48b20"/></linearGradient></defs><rect style="marker:none" y="2.5" x="2.5" ry="2.16" rx="2.16" height="27" width="27" color="#000" overflow="visible" fill="#fcda6e"/><rect style="isolation:auto;mix-blend-mode:normal;solid-color:#000;solid-opacity:1;marker:none" y="2.5" x="2.5" ry="2.16" rx="2.16" height="27" width="27" color="#000" overflow="visible" opacity=".35" fill="none" stroke="#915f00" stroke-linecap="round"/><path d="M12.578 6a2.5 2.5 0 1 0 0 5 2.5 2.5 0 0 0 0-5zm-2 6a1 1 0 0 0-.924.615l-2.5 5c-.552 1.247 1.35 2.04 1.846.77l1.11-2.66-.036.275v9c0 .554.446 1 1 1h.004c.554 0 1-.446 1-1l-.004-5h1l.004 5c0 .554.446 1 1 1s1-.446 1-1l-.004-9-.037-.299 1.117 2.684a1 1 0 0 0 1.43.502l1.53.918c-.014.065-.04.126-.04.195v5.5a.499.499 0 1 0 1 0V23h1.004v2.5a.499.499 0 1 0 1 0v-4.791l1.143 1.145c.47.49 1.197-.236.707-.708l-1.996-2a.5.5 0 0 0-.354-.146h-1.865l-1.627-.979c0-.14-.03-.278-.086-.406l-2.5-5a1 1 0 0 0-.922-.615zm9.996 2.75c-.963 0-1.75.786-1.75 1.75s.787 1.75 1.75 1.75c.964 0 1.75-.786 1.75-1.75s-.786-1.75-1.75-1.75z" fill="#333"/></svg>