<svg width="32" height="32" version="1.1" xmlns="http://www.w3.org/2000/svg" xmlns:xlink="http://www.w3.org/1999/xlink">
 <g transform="translate(254.85 85.085)">
  <g transform="matrix(.49175 0 0 .5121 -229 -81.068)">
   <rect x="-39.333" y="-1" width="38.667" height="19.5" rx=".61" ry=".586" fill="none" stroke="#4f6698" stroke-opacity=".267" stroke-width="1.993"/>
   <path d="m-38.317-0.023h36.604v17.575h-36.604z" fill="#fafafa"/>
  </g>
  <rect x="-254.35" y="-74.579" width="31" height="15" rx="1" ry="1" fill="#4c5263" stroke="#262830" stroke-opacity=".784"/>
  <rect x="-248.35" y="-63.579" width="19" height="7" rx=".3" ry=".3" fill="none" stroke="#4f6698" stroke-opacity=".267"/>
  <circle cx="-228.85" cy="-70.079" r="1" fill="#82b2ea"/>
  <rect x="-248.85" y="-64.079" width="20" height="1.333" rx=".3" ry=".3" fill-opacity=".404"/>
  <path d="m-247.85-63.079h18v6h-18z" fill="#fafafa"/>
  <path d="m-230.85-58.08v-1h-1.595v1zm-1.805 0v-1h-1.51v1zm-1.72 0v-1h-1.322v1zm-1.532 0v-1h-0.588v1zm-0.797 0v-1h-1.301v1zm-1.532 0v-1h-3.357v1zm7.386-2v-1h-2.54v1zm-2.791 0v-1h-1.217v1zm-1.448 0v-1h-0.566v1zm-0.818 0v-1h-1.091v1zm-1.343 0v-1h-1.091v1zm-1.322 0v-1h-1.783v1zm-2.035 0v-1h-2.33v1z" fill="#b4bfd8" fill-opacity=".643"/>
 </g>
</svg>
