<svg width="32" height="32" version="1.1" viewBox="0 0 32 32" xmlns="http://www.w3.org/2000/svg">
 <g transform="translate(-384.57 -515.8)">
  <path d="m386.12 519.3c-0.58 0-1.05 0.475-1.05 1.064v20.436h31v-20.436c0-0.589-0.469-1.064-1.05-1.064z" color="#000000" fill="#1ea8f7" overflow="visible"/>
  <path d="m386.12 518.8c-0.852 0-1.55 0.71-1.55 1.564v20.436h1v-20.436c0-0.324 0.24-0.564 0.55-0.564h28.9c0.31 0 0.55 0.24 0.55 0.564v20.436h1v-20.436c0-0.854-0.697-1.564-1.55-1.564z" color="#000000" fill="#00377a" font-family="sans-serif" font-weight="400" opacity=".35" overflow="visible" solid-color="#000000" style="isolation:auto;mix-blend-mode:normal;text-decoration-color:#000000;text-decoration-line:none;text-decoration-style:solid;text-indent:0;text-transform:none;white-space:normal"/>
  <path d="m396.98 525.81a0.504 0.504 0 0 0-0.406 0.5v8.99a0.504 0.504 0 0 0 0.75 0.438l7.996-4.496a0.503 0.503 0 0 0 0-0.874l-7.996-4.496a0.504 0.504 0 0 0-0.344-0.062z" fill="#fff" fill-rule="evenodd"/>
  <path d="m385.07 540.8v3.436c0 0.589 0.469 1.064 1.05 1.064h28.9c0.581 0 1.05-0.475 1.05-1.064v-3.436z" color="#000000" fill="#546268" overflow="visible"/>
  <path d="m384.57 540.8v3.436c0 0.854 0.697 1.564 1.55 1.564h28.9c0.853 0 1.55-0.71 1.55-1.564v-3.436h-1v3.436c0 0.324-0.24 0.564-0.55 0.564h-28.9c-0.31 0-0.55-0.24-0.55-0.564v-3.436z" color="#000000" font-family="sans-serif" font-weight="400" opacity=".35" overflow="visible" solid-color="#000000" style="isolation:auto;mix-blend-mode:normal;text-decoration-color:#000000;text-decoration-line:none;text-decoration-style:solid;text-indent:0;text-transform:none;white-space:normal"/>
  <path d="m387.03 542.8h27.074c0.257 0 0.463 0.206 0.463 0.463v0.074a0.462 0.462 0 0 1-0.463 0.463h-27.074a0.462 0.462 0 0 1-0.463-0.463v-0.074c0-0.257 0.206-0.463 0.463-0.463z" opacity=".4"/>
  <circle cx="393.07" cy="543.3" r="1.5" fill="#161b1e"/>
  <path d="m385.57 540.8v1h30v-1z" color="#000000" fill-rule="evenodd" font-family="sans-serif" font-weight="400" opacity=".5" overflow="visible" solid-color="#000000" style="isolation:auto;mix-blend-mode:normal;text-decoration-color:#000000;text-decoration-line:none;text-decoration-style:solid;text-indent:0;text-transform:none;white-space:normal"/>
 </g>
</svg>
