<svg width="32" height="32" version="1.1" viewBox="0 0 32 32" xmlns="http://www.w3.org/2000/svg">
 <linearGradient id="m" x1="16" x2="16" y1="18" y2="6" gradientTransform="translate(0,1)" gradientUnits="userSpaceOnUse">
  <stop stop-color="#f0f0f0" offset="0"/>
  <stop stop-color="#fcfcfc" offset="1"/>
 </linearGradient>
 <linearGradient id="n" x1="19.514" x2="15" y1="15.555" y2="11" gradientTransform="translate(0,1)" gradientUnits="userSpaceOnUse">
  <stop stop-color="#f3f3f3" offset="0"/>
  <stop stop-color="#fcfcfc" stop-opacity="0" offset="1"/>
 </linearGradient>
 <path d="m13.24 22.474c-0.404 0-0.73 0.275-0.729 0.616v4.845l-2.277 0.154c-0.404 0-0.728 0.275-0.728 0.616v0.769h13v-0.769c0-0.34-0.325-0.616-0.729-0.616l-2.267-0.154v-4.845c0-0.341-0.325-0.616-0.729-0.616z" fill="none" stroke="#42557f" stroke-opacity=".291"/>
 <path d="m13.46 22.384c-0.26 0-0.452 0.184-0.45 0.407v5.349l-2.545 0.184h-0.01c-0.26 0-0.45 0.184-0.45 0.407v0.269h12v-0.269c0-0.223-0.19-0.407-0.45-0.407h-0.012l-2.543-0.184v-5.349c0-0.223-0.19-0.407-0.45-0.407z" fill="#fafafa"/>
 <rect x="1" y="2" width="30" height="21" rx="1.0345" ry="1.1053" fill="#434855" stroke="#252831" stroke-dashoffset=".5" stroke-linecap="round" stroke-linejoin="round" stroke-opacity=".784" stroke-width="2"/>
 <path d="m2 3h28v19.071h-28z" fill="#5294e2" fill-rule="evenodd" stroke-width="1.0293"/>
 <path d="m16 7a6 6 0 0 0-6 6 6 6 0 0 0 6 6 6 6 0 0 0 6-6 6 6 0 0 0-6-6zm0 1a5 5 0 0 1 5 5 5 5 0 0 1-5 5 5 5 0 0 1-5-5 5 5 0 0 1 5-5z" fill="url(#n)"/>
 <path d="m16 7a6 6 0 0 0-6 6 6 6 0 0 0 6 6 6 6 0 0 0 4.2148-1.7363l-0.70117-0.70898a5 5 0 0 1-3.5137 1.4453 5 5 0 0 1-5-5 5 5 0 0 1 5-5z" fill="url(#m)"/>
</svg>
