<svg xmlns="http://www.w3.org/2000/svg" height="32" width="32"><rect ry=".493" y="282.366" x="2.117" height="12.335" width="12.713" fill="none" paint-order="stroke markers fill" transform="matrix(2.20472 0 0 2.26772 -2.667 -638.311)" stroke-width=".894" stroke="#003ac8" stroke-opacity=".627"/><g transform="matrix(2.20472 0 0 2.11653 -2.667 -594.69)" stroke-width=".926" stroke-opacity=".627" paint-order="stroke markers fill"><rect width="12.7" height="13.229" x="2.117" y="281.919" ry=".529" fill="#7cb2ff"/><path d="M2.646 281.919a.528.528 0 0 0-.53.529v5.045a9.26 9.26 0 0 0 8.467 5.538 9.26 9.26 0 0 0 4.234-1.027v-9.556a.528.528 0 0 0-.53-.53z" opacity=".1" fill="#00f"/></g><path d="M8.979 5.986a6.923 6.923 0 0 0 6.923 6.923 6.923 6.923 0 0 0 6.923-6.923h-1.731a5.192 5.192 0 0 1-5.192 5.193 5.192 5.192 0 0 1-5.193-5.193z" fill="#fff" paint-order="stroke markers fill"/><path style="marker:none" d="M24 16.5a7.505 7.505 0 0 0-7.5 7.5c0 4.138 3.362 7.5 7.5 7.5s7.5-3.362 7.5-7.5-3.362-7.5-7.5-7.5z" opacity=".8" color="#000" fill="none" stroke="#000" stroke-opacity=".322" overflow="visible"/><path style="marker:none" d="M24 17c-3.862 0-7 3.138-7 7s3.138 7 7 7 7-3.138 7-7-3.138-7-7-7z" color="#000" fill="#fff" overflow="visible"/><path style="marker:none" d="M23 20v4h-3l4 4 4-4h-3v-4z" color="#000" fill="#208ae4" overflow="visible"/></svg>