<svg width="32" height="32" version="1.0" xmlns="http://www.w3.org/2000/svg">
 <path d="m7.554 13.5c0.238 1.179 0.146 2.07-0.047 3.25-1.502 1.308-5.497 1.896-5.49 3.25l-0.517 4.063c0 1.346 3.582 2.437 8 2.437s8-1.091 8-2.437l-0.516-4.063c-6e-3 -1.159-4.024-1.896-5.508-3.25-0.126-1.094-0.15-2.156 0.07-3.25z" fill="#f5f5f5" stroke="#dbdbdb"/>
 <path d="m9.5 6.5c-1.657 0-3 1.363-3 3.045 0.013 0.623 0.062 1.362 0.4 3.045 0.2 0.653 1.984 2.83 2 3.047 0.388 0.218 1 0.218 1.4 0 0-0.218 1.6-2.394 1.8-3.047 0.38-1.75 0.38-2.392 0.4-3.045 0-1.682-1.343-3.045-3-3.045z" fill="#fff" stroke="#e5e5e5"/>
 <path d="M17.052 12.5c.312 1.542.585 2.708.332 4.25-1.972 1.71-7.214 2.48-7.207 4.25L9.5 26.313c0 1.76 4.701 3.187 10.5 3.187s10.5-1.427 10.5-3.187L29.823 21c-.009-1.516-5.281-2.48-7.229-4.25-.166-1.431.066-2.819.354-4.25z" fill="#e6e6e6" stroke="#b8b8b8"/>
 <path d="M20 2.5c-2.485 0-4.5 2-4.5 4.466.02.913.093 1.998.6 4.467.3.957 2.976 3.709 3 4.028.582.319 1.5.319 2.1 0 0-.319 2.4-3.071 2.7-4.028.57-2.566.57-3.51.6-4.467C24.5 4.5 22.485 2.5 20 2.5z" fill="#f2f2f2" stroke="#cacaca"/>
</svg>
