<svg xmlns="http://www.w3.org/2000/svg" width="32" height="32"><rect style="marker:none;isolation:auto;mix-blend-mode:normal;solid-color:#000;solid-opacity:1;filter-blend-mode:normal;filter-gaussianBlur-deviation:0" y="2.5" x="2.5" ry="2.16" rx="2.16" height="27" width="27" color="#000" overflow="visible" opacity=".9" fill="#333"/><rect style="marker:none" y="2.5" x="2.5" ry="2.16" rx="2.16" height="27" width="27" color="#000" overflow="visible" opacity=".75" fill="none" stroke="#000" stroke-linecap="round" stroke-linejoin="round"/><path style="isolation:auto;mix-blend-mode:normal;solid-color:#000;solid-opacity:1;marker:none" d="M9 8v1.053c-.5.072-.912.221-1.23.455-.454.335-.676.784-.676 1.38 0 .316.07.588.207.817.14.234.325.438.56.615.232.175.593.366 1.078.565a.125.109 0 0 1 .002 0c.527.218.871.374 1.055.482.182.105.324.219.424.342.102.124.152.27.152.426a.73.73 0 0 1-.353.646c-.229.144-.543.205-.932.205-.325 0-.682-.042-1.068-.13-.336-.078-.759-.225-1.219-.397v1.154c.585.238 1.252.365 2 .381v1.324h1v-1.386c.508-.08.932-.227 1.258-.455.497-.346.742-.807.742-1.415 0-.438-.133-.796-.395-1.09a.125.109 0 0 1-.001 0c-.259-.292-.757-.602-1.5-.911-.571-.238-.93-.402-1.1-.5a.125.109 0 0 1-.002-.002c-.16-.099-.283-.2-.365-.313a.125.109 0 0 1 0-.002.688.688 0 0 1-.123-.402c0-.237.103-.446.3-.596.202-.153.482-.223.825-.223.282 0 .569.03.857.092.26.056.597.164.969.293l.455-.957a8.88 8.88 0 0 0-1.06-.322.125.109 0 0 1-.003 0A5.173 5.173 0 0 0 10 9.018V8H9zm5 9v1h5v-1h-5z" color="#000" overflow="visible" fill="#fff"/></svg>