<svg width="32" height="32" version="1.1" viewBox="0 0 32 32" xmlns="http://www.w3.org/2000/svg">
 <g transform="translate(-384.57 -515.8)">
  <rect x="384.57" y="516.8" width="32" height="30" rx="2" ry="2" opacity=".25" stroke-width="1.0351"/>
  <rect x="385.57" y="517.8" width="30" height="28" rx="1" ry="1" fill="#eee" stroke-width=".96825"/>
  <path d="m386.57 517.8c-0.55402 0-1 0.44599-1 1v5h30v-5c0-0.55401-0.44599-1-1-1z" fill="#e4e4e4" stroke-width="1.1859"/>
  <rect x="394.57" y="526.8" width="18" height="16" rx="2" ry="2" opacity=".25" stroke-width="5.8552"/>
  <rect x="411.57" y="519.8" width="2" height="2" rx="1" fill="#999"/>
  <rect x="385.57" y="523.8" width="30" height="1" ry="0" opacity=".25"/>
  <rect x="395.57" y="529.8" width="16" height="12" rx="1" ry="1" fill="#fff" stroke-width="4.3642"/>
  <path d="m396.57 527.8c-0.55402 0-1 0.44599-1 1v3h16v-3c0-0.55401-0.44598-1-1-1z" fill="#e4e4e4" stroke-width="2.7602"/>
  <rect x="395.57" y="530.8" width="16" height="1" ry="0" opacity=".25" stroke-linecap="round" stroke-linejoin="round" stroke-opacity=".46"/>
 </g>
</svg>
