<svg width="32" height="32" version="1.1" xmlns="http://www.w3.org/2000/svg" xmlns:xlink="http://www.w3.org/1999/xlink">
 <rect x="2.5139" y="1.5023" width="28.029" height="27.972" ry="1.118" fill="none" stroke="#306600" stroke-opacity=".627" stroke-width="1.999" style="paint-order:stroke markers fill"/>
 <g transform="matrix(2.2047,0,0,2.1165,-2.1535,-595.2)" stroke-opacity=".627" stroke-width=".926" style="paint-order:stroke markers fill">
  <rect x="2.117" y="281.92" width="12.7" height="13.229" ry=".529" fill="#8bbe43"/>
  <path d="m2.646 281.92a0.528 0.528 0 0 0-0.53 0.529v5.045a9.26 9.26 0 0 0 8.467 5.538 9.26 9.26 0 0 0 4.234-1.027v-9.556a0.528 0.528 0 0 0-0.53-0.53z" fill="#fff" opacity=".1"/>
 </g>
 <path d="m9.4925 5.4723a6.923 6.923 0 0 0 6.923 6.923 6.923 6.923 0 0 0 6.923-6.923h-1.731a5.192 5.192 0 0 1-5.192 5.193 5.192 5.192 0 0 1-5.193-5.193z" fill="#fff" style="paint-order:stroke markers fill"/>
 <path d="m3.4995 23.5v5h5v-5zm1 1h1v1h1v-1h1v2h-1v1h-1v-1h-1z" fill="#fff"/>
 <path d="m24 16.5a7.505 7.505 0 0 0-7.5 7.5c0 4.138 3.362 7.5 7.5 7.5s7.5-3.362 7.5-7.5-3.362-7.5-7.5-7.5z" color="#000000" fill="none" opacity=".8" overflow="visible" stroke="#000" stroke-opacity=".322"/>
 <path d="m24 17c-3.862 0-7 3.138-7 7s3.138 7 7 7 7-3.138 7-7-3.138-7-7-7z" color="#000000" fill="#fff" overflow="visible"/>
 <path d="m23 18v1.102a5 5 0 0 0-1.754 0.73l-0.781-0.781-1.414 1.414 0.781 0.781a5 5 0 0 0-0.727 1.754h-1.105v2h1.102a5 5 0 0 0 0.73 1.754l-0.781 0.781 1.414 1.414 0.781-0.781a5 5 0 0 0 1.754 0.727v1.105h2v-1.102a5 5 0 0 0 1.754-0.73l0.781 0.781 1.414-1.414-0.781-0.781a5 5 0 0 0 0.727-1.754h1.105v-2h-1.102a5 5 0 0 0-0.73-1.754l0.781-0.781-1.414-1.414-0.781 0.781a5 5 0 0 0-1.754-0.727v-1.105zm1 2a4 4 0 0 1 2.87 1.213 4 4 0 0 1 1.13 2.787 4 4 0 0 1-1.213 2.87 4 4 0 0 1-2.787 1.13 4 4 0 0 1-2.87-1.213 4 4 0 0 1-1.13-2.787 4 4 0 0 1 1.213-2.87 4 4 0 0 1 2.787-1.13zm-1 2v4l3-2z" fill="#8bbe43"/>
</svg>
