<svg width="32" height="32" version="1.1" xmlns="http://www.w3.org/2000/svg">
 <rect x="2.5139" y="1.5023" width="28.029" height="27.972" ry="1.118" fill="none" stroke="#306600" stroke-opacity=".627" stroke-width="1.999" style="paint-order:stroke markers fill"/>
 <g transform="matrix(2.2047 0 0 2.1165 -2.1535 -595.2)" stroke-opacity=".627" stroke-width=".926" style="paint-order:stroke markers fill">
  <rect x="2.117" y="281.92" width="12.7" height="13.229" ry=".529" fill="#8bbe43"/>
  <path d="m2.646 281.92a0.528 0.528 0 0 0-0.53 0.529v5.045a9.26 9.26 0 0 0 8.467 5.538 9.26 9.26 0 0 0 4.234-1.027v-9.556a0.528 0.528 0 0 0-0.53-0.53z" fill="#fff" opacity=".1"/>
 </g>
 <path d="m9.4925 5.4723a6.923 6.923 0 0 0 6.923 6.923 6.923 6.923 0 0 0 6.923-6.923h-1.731a5.192 5.192 0 0 1-5.192 5.193 5.192 5.192 0 0 1-5.193-5.193z" fill="#fff" style="paint-order:stroke markers fill"/>
 <path d="m3.4995 23.5v5h5v-5zm1 1h1v1h1v-1h1v2h-1v1h-1v-1h-1z" fill="#fff"/>
 <path d="m24 16.5a7.505 7.505 0 0 0-7.5 7.5c0 4.138 3.362 7.5 7.5 7.5s7.5-3.362 7.5-7.5-3.362-7.5-7.5-7.5z" color="#000000" fill="none" opacity=".8" overflow="visible" stroke="#000" stroke-opacity=".322"/>
 <path d="m24 17c-3.862 0-7 3.138-7 7s3.138 7 7 7 7-3.138 7-7-3.138-7-7-7z" color="#000000" fill="#fff" overflow="visible"/>
 <path d="m24 18a6 6 0 1 0 0 12 6 6 0 0 0 0-12zm0 1c0.173 0 0.332 0.014 0.5 0.031 0.04 4e-3 0.085-5e-3 0.125 0 0.053 7e-3 0.104 0.023 0.156 0.032 0.144 0.022 0.267 0.059 0.407 0.093 0.256 0.064 0.51 0.149 0.75 0.25 0.131 0.056 0.249 0.121 0.375 0.188v0.031c0.028 0.013 0.044 0.067 0.093 0.094 0.018 0.01 0.015 0.022 0.032 0.031 0.028 0.016 0.068 0.034 0.062 0.063-8e-3 0.04-0.066 0.031-0.094 0.062 4e-3 0.058-0.047 0.055-0.062 0.094 9e-3 0.025 0.058 0.032 0.062 0.062-5e-3 0.032-0.074 0.03-0.062 0.063 0.054 0.042 0.105 0.01 0.156 0 0.112-0.014 0.212-6e-3 0.281-0.063-9e-3 -0.053 0.1-0.045 0.094-0.093 0.029 0.02 0.065 0.04 0.094 0.062-0.011 0.01-0.02 0.026-0.032 0.031-0.02 0.01-0.043 0.02-0.062 0.032l-0.094 0.062c-0.023 0.016-0.07 0.094-0.093 0.094-0.03 0-0.073-0.038-0.094-0.032-0.03 0.01-0.029 0.051-0.063 0.063-0.066 0.024-0.196-0.036-0.218 0.063 0.028 0.057 0.137 0.03 0.187 0.062a0.31 0.31 0 0 1 0.094 0.125 0.59 0.59 0 0 1 0 0.188c-0.031 0.08-0.127 0.063-0.219 0.062h-0.063c-0.154-0.01-0.305-0.08-0.375 0.031 5e-3 0.085 0.02 0.145 0 0.219-0.013 0.054-0.096 0.11-0.093 0.156 0 0.024 0.056 0.06 0.062 0.094 4e-3 0.018-8e-3 0.045 0 0.063 0.026 0.049 0.08-0.01 0.125 0 0.044 0.01 0.094 0.075 0.094 0.125a0.26 0.26 0 0 1-0.031 0.125c-0.044 0.066-0.125 0.057-0.188 0.093-0.052 0.03-0.062 0.105-0.093 0.157-0.033 0.056-0.076 0.076-0.063 0.156a0.365 0.365 0 0 1-0.188 0.187c-0.027 0.012-0.068 0.014-0.093 0.032-0.02 0.014-0.035 0.061-0.063 0.093-0.035 0.04-0.074 0.064-0.093 0.094-0.015 0.023-0.017 0.062-0.032 0.094-0.022 0.042-0.066 0.051-0.093 0.093-0.013 0.02-0.018 0.068-0.032 0.094-0.032 0.058-0.068 0.106-0.062 0.157 5e-3 0.048 0.06 0.05 0.062 0.093 3e-3 0.024-0.032 0.036-0.031 0.063 1e-3 0.038 0.028 0.063 0.031 0.093 7e-3 0.074-0.048 0.106-0.062 0.157-7e-3 0.024 6e-3 0.042 0 0.062-0.012 0.037-0.062 0.081-0.063 0.125 0 0.031 0.06 0.05 0.063 0.094 2e-3 0.029-0.037 0.066-0.032 0.094 0.011 0.054 0.115 0.114 0.157 0.156 0.057 0.057 0.131 0.096 0.156 0.156 0.021 0.051 0.024 0.15 0.063 0.188 0.028 0.028 0.088 0.032 0.125 0.062 0.034 0.027 0.056 0.033 0.093 0.063 0.061 0.048 0.153 0.163 0.25 0.156 0.051-0.01 0.1-0.052 0.157-0.063 0.059-0.01 0.127-0.036 0.187-0.03 0.046 0.01 0.108 0.033 0.156 0.03 0.05-0.01 0.1-6e-3 0.157-0.03 0.099-0.044 0.262-0.115 0.406-0.095 0.11 0.016 0.11 0.139 0.187 0.188 0.088 0.01 0.149-0.017 0.219 0 0.053 0.013 0.12 0.083 0.125 0.125 5e-3 0.043-0.057 0.098-0.063 0.125-0.013 0.058 0.01 0.12 0 0.156-8e-3 0.03-0.032 0.065-0.03 0.094 0 0.026 0.035 0.09 0.062 0.125 0.033 0.042 0.085 0.08 0.125 0.125 0.073 0.084 0.105 0.17 0.156 0.281 0.013 0.028-0.012 0.058 0 0.094-0.022 0.168-0.078 0.283-0.188 0.469-0.051 0.06-0.126 0.112-0.125 0.187-3e-3 0.18 0.102 0.295 0.094 0.469-0.018 0.234 0.018 0.25 0 0.375 0.08 0.04 0.023 0.167 0 0.25-0.034 0.099-0.074 0.121-0.093 0.188 0.053 0.023 0.128 0.013 0.187 0l-0.094 0.093a5.203 5.203 0 0 1-0.75 0.625 4.94 4.94 0 0 1-1.718 0.75 4.985 4.985 0 0 1-1.063 0.094c-0.19 0-0.378-0.01-0.563-0.031-0.146-0.017-0.294-0.034-0.437-0.063-0.283-0.058-0.549-0.177-0.813-0.281-9e-3 -0.017-0.033-0.042-0.03-0.063 0.051-0.022 0.149 0.074 0.187 0 0.019-0.035-0.025-0.12 0-0.156 0.018-0.024 0.119-0.024 0.156-0.031 0.053-0.01 0.126-0.017 0.156-0.031 0.033-0.021 0.069-0.095 0.063-0.157-3e-3 -0.029-0.04-0.036-0.063-0.062-0.019-0.022 0.013-0.042 0-0.063-0.024-0.035-0.083-0.042-0.093-0.093 0.072-0.014 0.177 0.06 0.28 0.031 0.05-0.014 0.134-0.11 0.157-0.156 7e-3 -0.014-8e-3 -0.045 0-0.063 9e-3 -0.018 0.028-0.052 0.031-0.062 7e-3 -0.027-6e-3 -0.014 0-0.032 0.018-0.05 0.064-0.088 0.094-0.125 0.023-0.028 0.073-0.064 0.094-0.093 0.024-0.031 0.015-0.035 0.031-0.063 0.015-0.09-0.053-0.17-0.031-0.25 0.024-0.09 0.163-0.146 0.25-0.187 0.03-0.014 0.068-0.023 0.093-0.032 0.06-0.02 0.132-0.042 0.188-0.062 0.094-0.034 0.11-0.102 0.156-0.188 0.022-0.04 0.059-0.095 0.063-0.125 4e-3 -0.026-5e-3 -0.031 0-0.062 5e-3 -0.029-8e-3 -0.06 0-0.094 0.01-0.043 0.031-0.14 0.031-0.187 0-0.04-0.03-0.058-0.031-0.094-7e-3 -0.13 0.046-0.117 0.093-0.188 0.024-0.035 0.046-0.1 0.063-0.125 0.081-0.12 0.229-0.161 0.219-0.343-4e-3 -0.06-0.05-0.2-0.094-0.219-0.025-0.011-0.057-0.018-0.094-0.031-0.118-0.044-0.22-0.178-0.343-0.188h-0.063c-0.048 0-0.102-0.024-0.156-0.031-0.034-0.01-0.105 0.01-0.125 0-0.031-0.015-0.038-0.077-0.063-0.094-0.02-0.014-0.063-0.02-0.093-0.031-0.05-0.018-0.068-0.059-0.125-0.063-0.018 0-0.043 0.01-0.063 0-0.031-0.01-0.065-0.013-0.094-0.03-0.036-0.023-0.078-0.032-0.093-0.063 0.033-0.108-0.072-0.125-0.094-0.188-0.01-0.029 0.01-0.099 0-0.125-0.013-0.037-0.053-0.062-0.094-0.093a0.374 0.374 0 0 0-0.219-0.094c-0.046-0.01-0.101 0.01-0.156 0a0.356 0.356 0 0 1-0.188-0.094c-0.042-0.049-0.056-0.102-0.093-0.125-0.035-0.022-0.07-0.04-0.094-0.063-0.011-0.01-0.021-8e-3 -0.031-0.03-0.018-0.038-0.054-0.05-0.032-0.095-0.04-0.02-0.019 0.039-0.062 0.032-0.039-0.055-0.068-0.11-0.156-0.094-0.04 0.01-0.078 0.093-0.125 0.094-0.04 0-0.074-0.086-0.125-0.094-0.04-0.01-0.098 0.036-0.125 0.031-0.043-0.01-0.055-0.036-0.094-0.062-0.029-0.02-0.078-0.064-0.094-0.063-0.05 0-0.087 0.1-0.156 0.063-0.034-0.043 0.071-0.054 0.031-0.094-0.03-0.029-0.038 0.017-0.062 0.031-0.028 0.018-0.063 0.02-0.094 0.032-0.069 0.026-0.134 0.033-0.188 0.062a0.185 0.185 0 0 0-0.093 0.094c-0.023 0.042-0.059 0.123-0.094 0.125-0.042 0-0.056-0.046-0.094-0.063-0.115-0.05-0.186 0.03-0.281 0.032-0.088 0-0.223-0.136-0.219-0.22 3e-3 -0.05 0.026-0.124 0.032-0.187 5e-3 -0.05 0.061-0.11 0.062-0.156 1e-3 -0.062-0.116-0.087-0.156-0.094-0.094-0.017-0.206 0.042-0.313 0-0.02-0.034 0.02-0.06 0.032-0.093 7e-3 -0.018-7e-3 -0.042 0-0.063 0.011-0.032 0.078-0.06 0.093-0.094 0.011-0.026-0.01-0.06 0-0.093 0.013-0.036 0.06-0.068 0.063-0.094 4e-3 -0.034-0.036-0.072-0.063-0.094-0.083 0.01-0.14 7e-3 -0.187 0.031-0.108 0.05-0.079 0.185-0.188 0.219a0.914 0.914 0 0 1-0.125 0.031c-0.018 0.01-0.042-2e-3 -0.062 0 2e-3 -0.01-2e-3 -0.02 0-0.031 4e-3 -0.023 0.026-0.04 0.031-0.063a4.91 4.91 0 0 1 0.313-0.937h0.03c0.039 0.01 0.062 0.06 0.095 0.063 0.091 0.01 0.111-0.085 0.187-0.125 0.078 0.01 0.117-0.01 0.188 0 0.048 0.01 0.118 0.058 0.156 0.062 0.032 0 0.032-0.035 0.062-0.031 0.03 0.01 0.089 0.057 0.094 0.093 5e-3 0.045-0.044 0.107-0.031 0.157 0.047 0.048 0.152 0.065 0.218 0.093 0.044-0.037 7e-3 -0.104 0-0.156 0-0.023 3e-3 -0.072 0-0.093-4e-3 -0.036-0.03-0.063-0.03-0.094 0-0.143 0.122-0.194 0.218-0.25 0.041-0.024 0.089-0.076 0.125-0.094 0.051-0.025 0.083-7e-3 0.125-0.031 0.076-0.043 0.129-0.108 0.188-0.157 0.027-0.065-3e-3 -0.154 0-0.218 0.027-0.017 0.064 0 0.093 0 0.046-0.01 0.068-0.068 0.094-0.094 0.015-0.015 0.044-0.016 0.063-0.031 0.045-0.036 0.053-0.078 0.093-0.094a0.26 0.26 0 0 1 0.063-0.031c0.03-0.01 0.077-0.014 0.125-0.032 0.03-0.01 0.113-0.018 0.125-0.03 0.015-0.016-4e-3 -0.072 0-0.095 0.024-0.112 0.18-0.118 0.281-0.156 0.07-0.026 0.14-0.107 0.219-0.093-0.015 0.054-0.076 0.06-0.063 0.125 0.017 0.09 0.125-0.019 0.157-0.032 0.06-0.026 0.17-0.063 0.25-0.093 0.07-0.025 0.19-0.045 0.125-0.125-0.055-0.01-0.078 0.042-0.125 0.062-0.033 0.01-0.035-0.028-0.063-0.031-0.027 0-0.035 0.036-0.063 0.031-0.027-0.01-0.058-0.06-0.062-0.094-0.011-0.084 0.06-0.094 0.094-0.156-0.023-0.076-0.124-0.033-0.188-0.063a0.113 0.113 0 0 1 0.094-0.093c0.043-0.01 0.162 8e-3 0.188 0.031 0.015 0.013-0.023 0.042 0 0.063 0.026 0.023 0.06 0.01 0.093 0 0.012-0.057-0.072-0.026-0.062-0.063 0.068-0.044 0.198-0.02 0.281-0.031a0.68 0.68 0 0 0 0.156-0.063c0.04-0.023 0.052-0.069 0.094-0.031 0.012 0.041-8e-3 0.072-0.031 0.094-0.077 0.068-0.159 0.14-0.219 0.218 0.037 0.036 0.094 0.025 0.156 0.032 0.024 0.01 0.069-5e-3 0.094 0 0.03 0.01 0.07-0.01 0.094 0 0.042 0.01 0.052 0.093 0.093 0.093 0.068 0 0.04-0.08 0-0.125 0.012-0.047 0.049-0.091 0.032-0.125-0.031-0.062-0.15 0.019-0.157-0.062-3e-3 -0.05 0.045-0.056 0.063-0.094-8e-3 -0.096 0.072-0.1 0.063-0.187-5e-3 -0.036-0.038-0.029-0.063-0.063-0.013-0.018-0.016-0.08-0.031-0.093-0.052-0.044-0.15-0.01-0.157-0.094-2e-3 -0.05 7e-3 -0.103 0-0.157-7e-3 -0.05-0.05-0.208-0.093-0.218-0.056-0.012-0.09 0.093-0.157 0.125a0.376 0.376 0 0 1-0.156 0.031c-0.024-0.01-0.06-0.015-0.062-0.063-4e-3 -0.042 0.047-0.06 0.062-0.093 4e-3 -8e-3 -2e-3 -0.02 0-0.032 0.073-0.02 0.145-0.045 0.219-0.062 0.042-0.01 0.083-0.023 0.125-0.031 0.03-6e-3 0.064 5e-3 0.094 0a5.01 5.01 0 0 1 0.906-0.094zm-2.031 0.469c-0.032 0.182-0.203 0.255-0.407 0.25-0.045 0.044-6e-3 0.126-0.03 0.187-0.022 0.051-0.106 0.098-0.157 0.094-0.037 0-0.094-0.059-0.094-0.094 0-0.043 0.069-0.044 0.032-0.093 1e-3 -0.01 0.02-0.022 0.03-0.032 0.021-0.012 0.043-0.019 0.063-0.031 0.181-0.112 0.367-0.193 0.563-0.281zm4.187 0.187c-0.018 0.01-0.015 0.022-0.031 0.032-0.038 0.023-0.065 0.051-0.094 0.062-0.04 0.015-0.087 0.025-0.093 0.063-5e-3 0.03 0.032 0.033 0.03 0.062-0.014 0.037-0.022 0.049-0.03 0.094 0.05 0.083 0.155-0.019 0.218-0.032 0.028-0.01 0.048-7e-3 0.063-0.03 0.017-0.028 0.018-0.056 0.031-0.095 0.014-0.042 0.068-0.056 0.063-0.093-4e-3 -0.037-0.095-0.068-0.157-0.063zm-5.468 0.625c0.047 0.038 0.114 0.12 0.03 0.157a0.516 0.516 0 0 1-0.155 0.03c-0.01 0-0.023-0.023-0.032-0.03 0.052-0.05 0.103-0.109 0.157-0.157zm0.187 0.188c0.024 0 0.034 0.06 0.063 0.062 0.027 0 0.046-0.035 0.062-0.031 0.042 0.011 0.071 0.094 0.031 0.125-0.033 0.01-0.038-0.035-0.062-0.031-0.068 0.012-0.106 0.16-0.157 0.156-0.048-0.01-0.08-0.121-0.03-0.156 0-0.03-3e-3 -0.032 0-0.063 0.014-0.018 0.053-0.065 0.093-0.062zm-0.25 0.031c0.014 0 0.026-0.01 0.031 0-7e-3 0.053-0.021 0.069-0.062 0.094-0.071 0.043-0.133 0.096-0.157 0.187-7e-3 0.027-0.09 0.1-0.125 0.094-0.079-0.017 0.045-0.165 0.063-0.188 0.02-0.025 0.04-0.033 0.063-0.062 0.022-0.028 0.04-0.078 0.062-0.094a0.246 0.246 0 0 1 0.125-0.031zm6.781 0.156c0.08-0.01 0.12 0.078 0.157 0.125 0.03 0.04 0.107 0.098 0.156 0.125 0.028 0.015 0.062 0.049 0.093 0.063 0.065 0.029 0.185 0.123 0.188 0.187 1e-3 0.032-0.036 0.064-0.031 0.094 0.049 0.01 0.092-0.076 0.093-0.125 0.092 0.13 0.171 0.268 0.25 0.406 0.038 0.066 0.09 0.12 0.125 0.188-0.044 0.013-0.055 0.02-0.062 0.062-0.01 0.056 0.021 0.147-0.063 0.157-0.052 0.01-0.114-0.046-0.187-0.063-0.03-0.01-0.07 0.01-0.094 0-0.055-0.018-0.046-0.092-0.093-0.125a0.501 0.501 0 0 0-0.157-0.063c-0.027 0-0.034 0.01-0.062 0-0.034-0.01-0.097 0.014-0.125 0a0.321 0.321 0 0 1-0.094-0.093c-0.011-0.037 0.092-0.063 0.094-0.094 2e-3 -0.024-0.027-0.057-0.032-0.094-3e-3 -0.022 5e-3 -0.047 0-0.062-7e-3 -0.026-0.052-0.03-0.093-0.032h-0.094c-0.044 0-0.133-4e-3 -0.188 0-0.033 0-0.062-3e-3 -0.093 0-0.087 0.01-0.151-0.01-0.219 0a0.628 0.628 0 0 0-0.188 0.063l-0.062 0.031a0.411 0.411 0 0 1-0.063 0.032c-0.027 0.013-0.066 0.054-0.093 0.062-0.04 0.01-0.086-0.01-0.157 0-0.05 0-0.123-0.033-0.125-0.094 0-0.093 0.163-0.045 0.25-0.062 0.033-0.01 0.054-0.039 0.094-0.063 0.02-0.01 0.014-0.019 0.032-0.031 0.03-0.021 0.088-0.07 0.093-0.094 4e-3 -0.022-3e-3 -0.045 0-0.062 4e-3 -0.021 0.036-0.035 0.063-0.063 0.042-0.042 0.073-0.098 0.125-0.125 0.035-0.018 0.077-0.033 0.093-0.062 4e-3 -0.032 0-0.033 0-0.063a0.13 0.13 0 0 1 0.063-0.031c0.054-0.012 0.093 3e-3 0.156 0 0.027 0 0.065 0.013 0.094 0 0.024-0.016 0.038-0.05 0.063-0.063a0.247 0.247 0 0 1 0.093-0.03zm0.563 0.594h-0.125c-0.044 0-0.1-0.023-0.125 0 0.037 0.06 0.104 0.079 0.187 0.094a0.193 0.193 0 0 0 0.063-0.094zm-6.844-0.563h0.094c0.025 0 0.052-0.01 0.062 0-0.016 0.066-0.167 0.056-0.218 0.032 2e-3 -0.025 0.03-0.028 0.062-0.032zm-0.219 0.125c-0.043 0.032-0.087 0.073-0.156 0.094-0.038 0.012-0.087 0.011-0.094-0.031-8e-3 -0.052 0.06-0.026 0.094-0.031 0.044-0.01 0.105-0.03 0.156-0.032zm6.5 0c-0.033 0.011-0.049 0.084 0 0.094 0.023-0.014 0.038-0.05 0.032-0.093-0.013-0.014-0.022-0.01-0.032 0zm-0.062 0.157c0 0.056 0.01 0.107 0 0.156 0.032 0.062 0.109 0.01 0.125-0.031 0.019-0.104-0.015-0.138-0.063-0.125-0.016 0.01-0.045-0.013-0.062 0zm-8.282 2.343c0.057 0.051 0.09 0.123 0.157 0.157a0.469 0.469 0 0 0 0.093 0.031c0.027 0.01 0.038-8e-3 0.063 0 0.053 0.018 0.114 0.043 0.156 0.063 0.064 0.028 0.133 0.124 0.188 0.156 3e-3 0.032-0.01 0.07 0 0.093 0.026 0.035 0.051 0.07 0.093 0.094 0.051 0.028 0.078 0.072 0.125 0.094 0.017 0.01 0.037-0.01 0.063 0 0.066 0.02 0.1 0.11 0.156 0.094 0.037-0.011 0.026-0.058 0.032-0.094 0.025-0.027 0.054-0.063 0.093-0.063 0.062 0 0.071 0.096 0.094 0.157 0.013 0.034 0.054 0.057 0.063 0.093a0.943 0.943 0 0 1 0 0.282c-0.016 0.046-0.087 0.043-0.125 0.093-0.018 0.024-0.018 0.077-0.032 0.094-0.024 0.03-0.044 0.035-0.062 0.063a0.449 0.449 0 0 0-0.032 0.062c-0.03 0.064-0.087 0.11-0.062 0.188 0.01 0.03 0.063 0.056 0.063 0.093 0 0.044-0.087 0.077-0.094 0.125-5e-3 0.035 0.02 0.079 0.031 0.125 8e-3 0.035 0.073 0.071 0.094 0.094 0.035 0.04 0.061 0.107 0.093 0.157 0.063 0.097 0.095 0.217 0.157 0.312 0.033 0.049 0.103 0.073 0.125 0.125 0.01 0.026-0.01 0.07 0 0.094 0.036 0.08 0.2 0.179 0.281 0.218 0.038 0.02 0.09 0.012 0.125 0.032 0.053 0.03 0.16 0.11 0.188 0.156 0.023 0.042 0.019 0.152 0.03 0.219 0.016 0.088-3e-3 0.155 0 0.25 4e-3 0.052 0.032 0.073 0.032 0.125v0.093c-1e-3 0.062 5e-3 0.125 0 0.188a0.598 0.598 0 0 0 0 0.094c3e-3 0.03 0.03 0.034 0.031 0.062 2e-3 0.03-0.034 0.071-0.031 0.094 7e-3 0.063 0.05 0.098 0.063 0.156 0.01 0.046 0.037 0.164 0.03 0.219-3e-3 0.029-0.026 0.06-0.03 0.094-3e-3 0.026 3e-3 0.038 0 0.062-3e-3 0.023 5e-3 0.044 0 0.063-0.032-0.02-0.063-0.042-0.094-0.063a5.203 5.203 0 0 1-0.75-0.625l-0.094-0.093a5.2 5.2 0 0 1-0.5-0.625c-0.014-0.02-0.018-0.043-0.031-0.063a4.824 4.824 0 0 1-0.438-0.813c-9e-3 -0.02-0.022-0.04-0.031-0.062a5.019 5.019 0 0 1-0.281-0.969 5.01 5.01 0 0 1-0.094-0.906c0-0.238 0.03-0.459 0.063-0.688zm1.938 0.532c0.048-0.022 0.039 0.055 0 0.062-0.037 0.01-0.036-0.044 0-0.062z" fill="#8bbe43"/>
</svg>
