<?xml version="1.0" encoding="UTF-8" standalone="no"?>
<svg
   xmlns:svg="http://www.w3.org/2000/svg"
   xmlns="http://www.w3.org/2000/svg"
   xmlns:sodipodi="http://sodipodi.sourceforge.net/DTD/sodipodi-0.dtd"
   xmlns:inkscape="http://www.inkscape.org/namespaces/inkscape"
   inkscape:version="1.1-dev (1:0.92.0+devel+202004260039+9758c7a)"
   sodipodi:docname="slack-indicator-highlight.svg"
   id="svg9"
   version="1.1"
   height="16"
   width="16">
  <sodipodi:namedview
     inkscape:current-layer="svg9"
     inkscape:window-maximized="0"
     inkscape:window-y="30"
     inkscape:window-x="0"
     inkscape:cy="8"
     inkscape:cx="8"
     inkscape:zoom="46.75"
     showgrid="false"
     id="namedview11"
     inkscape:window-height="480"
     inkscape:window-width="855"
     inkscape:pageshadow="2"
     inkscape:pageopacity="0"
     guidetolerance="10"
     gridtolerance="10"
     objecttolerance="10"
     borderopacity="1"
     bordercolor="#666666"
     pagecolor="#ffffff" />
  <defs
     id="defs3">
    <style
       type="text/css"
       id="current-color-scheme">
   .ColorScheme-Text { color:#dfdfdf; } .ColorScheme-Highlight { color:#4285f4; }
  </style>
  </defs>
  <circle
     id="circle5"
     r="2"
     cy="2"
     cx="13"
     class="ColorScheme-Highlight"
     style="fill:currentColor" />
  <path
     id="path7"
     d="M 5.5,0 A 1.5,1.5 0 0 0 4,1.5 1.5,1.5 0 0 0 5.5,3 H 7 V 1.5 A 1.5,1.5 0 0 0 5.5,0 Z M 9.5,0 A 1.5,1.5 0 0 0 8,1.5 V 5.5 A 1.5,1.5 0 0 0 9.5,7 1.5,1.5 0 0 0 11,5.5 V 4.2324 A 3,3 0 0 1 10,2 3,3 0 0 1 10.484,0.37109 1.5,1.5 0 0 0 9.5,0 Z M 1.5,4 A 1.5,1.5 0 0 0 0,5.5 1.5,1.5 0 0 0 1.5,7 H 5.5 A 1.5,1.5 0 0 0 7,5.5 1.5,1.5 0 0 0 5.5,4 Z M 14.631,4.5156 A 3,3 0 0 1 13,5 3,3 0 0 1 12.141,4.873 1.5,1.5 0 0 0 12,5.5 V 7 H 13.5 A 1.5,1.5 0 0 0 15,5.5 1.5,1.5 0 0 0 14.631,4.5156 Z M 1.5,8 A 1.5,1.5 0 0 0 0,9.5 1.5,1.5 0 0 0 1.5,11 1.5,1.5 0 0 0 3,9.5 V 8 Z M 5.5,8 A 1.5,1.5 0 0 0 4,9.5 V 13.5 A 1.5,1.5 0 0 0 5.5,15 1.5,1.5 0 0 0 7,13.5 V 9.5 A 1.5,1.5 0 0 0 5.5,8 Z M 9.5,8 A 1.5,1.5 0 0 0 8,9.5 1.5,1.5 0 0 0 9.5,11 H 13.5 A 1.5,1.5 0 0 0 15,9.5 1.5,1.5 0 0 0 13.5,8 Z M 8,12 V 13.5 A 1.5,1.5 0 0 0 9.5,15 1.5,1.5 0 0 0 11,13.5 1.5,1.5 0 0 0 9.5,12 Z"
     class="ColorScheme-Highlight"
     style="fill:currentColor" />
</svg>
