<svg height="48" width="48" xmlns="http://www.w3.org/2000/svg"><rect fill="#7a8a8a" height="43" ry="1.452703" width="43" x="2" y="3"/><path d="m11.603516 18.710938c-1.009835 0-1.814452.355399-2.4121098 1.066406-.5976573.705854-.8858432 1.569704-.8652343 2.589844l.015625.039062h2.1406251c0-.577049.094524-1.044887.285156-1.400391.195784-.355503.475282-.533203.835938-.533203.350351 0 .617254.14773.802734.441406.18548.293677.279297.681.279297 1.160157 0 .350351-.091155.738381-.271485 1.166015-.175174.427635-.466021.930764-.873046 1.507813l-3.0683598 3.886719v1.492187h6.6464848v-1.755859h-3.802735l1.46875-2.101563c.752224-.948008 1.287984-1.715381 1.607422-2.302734.32459-.587353.486328-1.225618.486328-1.916016 0-1.030444-.288185-1.845702-.865234-2.443359-.577049-.597658-1.379712-.896484-2.410156-.896484zm8.021484 0c-1.004683 0-1.806639.392643-2.404297 1.175781-.592505.777985-.888672 1.914059-.888672 3.408203v2.417969c0 1.499296.298827 2.63803.896485 3.416015.597657.772833 1.402274 1.160156 2.412109 1.160156.999531 0 1.794213-.387323 2.386719-1.160156.597657-.777985.896484-1.916719.896484-3.416015v-2.417969c0-1.494144-.298827-2.630218-.896484-3.408203-.597658-.783138-1.397661-1.175781-2.402344-1.175781zm15.757812 0c-.927399 0-1.67349.276837-2.240234.828124-.566744.551288-.851562 1.323981-.851562 2.31836 0 .566744.126447 1.06526.378906 1.498047.252459.432786.602538.771517 1.050781 1.013672-.51007.252458-.908741.613179-1.197265 1.082031-.288525.4637-.433594.9968-.433594 1.599609 0 1.040749.304147 1.840752.912109 2.402344.607962.55644 1.404598.835939 2.388672.835937.984074 0 1.77805-.279497 2.380859-.835937.60281-.55644.904297-1.356443.904297-2.402344 0-.602809-.145069-1.135909-.433593-1.599609-.288525-.4637-.684536-.82442-1.189454-1.082031.443091-.242155.79051-.580886 1.042969-1.013672.257611-.432787.386719-.931303.386719-1.498047 0-.994379-.285526-1.767072-.857422-2.31836-.566744-.551287-1.314788-.828124-2.242188-.828124zm-7.566406.162109-3.839844 7.419922.115235 1.375h3.732422v2.458984h2.1875v-2.458984h.974609v-1.761719h-.974609v-7.033203zm7.566406 1.599609c.288525 0 .506836.134429.65625.402344.154568.267915.232422.631296.232422 1.089844 0 .479156-.075195.853178-.224609 1.121094-.149414.267915-.367726.402343-.65625.402343s-.509495-.134428-.664063-.402343c-.149414-.273068-.224609-.64709-.224609-1.121094 0-.468852.075195-.834893.224609-1.097656.149415-.262764.367726-.394532.65625-.394532zm-15.78125.054688h.046876c.340046-.025761.604289.170561.794921.58789.190633.41733.28711 1.079538.28711 1.986328v2.789063c0 .922247-.093817 1.592436-.279297 2.009766-.18548.417329-.447063.610991-.78711.580078h-.046874c-.345199.030913-.614056-.162749-.804688-.580078-.190632-.422482-.285156-1.092671-.285156-2.009766v-2.789063c0-.90679.091864-1.568998.277344-1.986328.185479-.417329.451677-.613651.796874-.58789zm8.175782 1.484375.046875.007812v3.886719h-1.855469l1.693359-3.685547zm7.605468 3.230469c.329744 0 .595939.148436.796876.447265.200935.293677.300781.694301.300781 1.199219 0 .515222-.099846.919214-.300781 1.21289-.195786.288525-.459321.433594-.789063.433594-.340047 0-.608903-.145069-.804687-.433594-.195786-.293676-.292969-.697668-.292969-1.21289 0-.504918.097183-.905542.292969-1.199219.195784-.298829.461981-.447267.796874-.447265z" fill="#fff"/></svg>