<?xml version="1.0" encoding="UTF-8" standalone="no"?>
<!DOCTYPE svg PUBLIC "-//W3C//DTD SVG 1.1//EN" "http://www.w3.org/Graphics/SVG/1.1/DTD/svg11.dtd">
<svg width="100%" height="100%" viewBox="0 0 2048 2048" version="1.1" xmlns="http://www.w3.org/2000/svg" xmlns:xlink="http://www.w3.org/1999/xlink" xml:space="preserve" xmlns:serif="http://www.serif.com/" style="fill-rule:evenodd;clip-rule:evenodd;stroke-linecap:round;stroke-linejoin:round;stroke-miterlimit:1.5;">
    <g transform="matrix(1.29424,0,0,1.24102,-423.792,-375.425)">
        <path d="M1584.84,560.631C1584.84,548.454 1580.2,536.776 1571.94,528.165C1563.69,519.555 1552.49,514.717 1540.81,514.717L696.468,514.717C684.791,514.717 673.593,519.555 665.337,528.165C657.08,536.776 652.442,548.454 652.442,560.631L652.442,1694.65C652.442,1706.83 657.08,1718.51 665.337,1727.12C673.593,1735.73 684.791,1740.57 696.468,1740.57L1540.81,1740.57C1552.49,1740.57 1563.69,1735.73 1571.94,1727.12C1580.2,1718.51 1584.84,1706.83 1584.84,1694.65L1584.84,560.631Z" style="fill:rgb(79,79,79);"/>
    </g>
    <g transform="matrix(1.29337,0,0,1.23812,-451.8,-401.682)">
        <path d="M1107.65,384.686C1116.02,374.525 1128.21,368.68 1141.05,368.68C1153.88,368.68 1166.07,374.525 1174.44,384.686C1291.16,526.398 1679.3,997.654 1781.29,1121.48C1795.5,1138.73 1795.5,1164.25 1781.29,1181.51C1679.3,1305.33 1291.16,1776.59 1174.44,1918.3C1166.07,1928.46 1153.88,1934.31 1141.05,1934.31C1128.21,1934.31 1116.02,1928.46 1107.65,1918.3C990.932,1776.59 602.789,1305.33 500.804,1181.51C486.591,1164.25 486.591,1138.73 500.804,1121.48C602.789,997.654 990.932,526.398 1107.65,384.686Z" style="fill:rgb(127,127,127);stroke:rgb(110,105,105);stroke-width:58.76px;"/>
    </g>
    <g transform="matrix(0.747246,0,0,0.747246,347.153,230.112)">
        <g>
            <g transform="matrix(0.975664,-0.219269,0.219269,0.975664,-186.908,168.651)">
                <ellipse cx="735.64" cy="1018.89" rx="96.75" ry="56.168" style="fill:rgb(79,79,79);"/>
            </g>
            <g transform="matrix(1,0,0,1,-0.169567,2.99697)">
                <path d="M607.419,834.624C672.101,814.962 729.91,872.33 729.91,918.773C729.91,965.217 675.024,1002.92 607.419,1002.92C539.815,1002.92 486.527,988.115 486.527,941.672C486.527,895.229 539.331,855.322 607.419,834.624Z" style="fill:rgb(79,79,79);"/>
            </g>
            <g transform="matrix(0.994243,0.107146,-0.107146,0.994243,132.494,-114.193)">
                <ellipse cx="910.434" cy="1029.92" rx="121.175" ry="69.812" style="fill:rgb(79,79,79);"/>
            </g>
            <g transform="matrix(0.98358,0.180474,-0.174866,0.953016,204.76,-152.786)">
                <path d="M1144.56,948.45C1225.06,934.684 1292.53,1001.7 1292.53,1067.29C1292.53,1132.88 1226.23,1186.12 1144.56,1186.12C1062.89,1186.12 991.2,1132.65 996.585,1067.29C1001.07,1012.84 1068.15,961.516 1144.56,948.45Z" style="fill:rgb(79,79,79);"/>
            </g>
        </g>
        <g>
            <g transform="matrix(0.784695,0.619882,-0.619882,0.784695,891.413,-390.303)">
                <path d="M516.684,1266.42C497.078,1266.42 481.161,1296.92 481.161,1334.49C481.161,1372.05 497.078,1402.55 516.684,1402.55C510.802,1386.67 506.027,1361.64 506.027,1334.49C506.027,1307.34 510.802,1282.3 516.684,1266.42Z" style="fill:rgb(79,79,79);"/>
            </g>
            <g transform="matrix(-0.961533,-0.785817,0.722984,-0.88465,13.0388,2585.63)">
                <path d="M516.684,1266.42C497.078,1266.42 481.161,1296.92 481.161,1334.49C481.161,1372.05 497.078,1402.55 516.684,1402.55C510.802,1386.67 506.027,1361.64 506.027,1334.49C506.027,1307.34 510.802,1282.3 516.684,1266.42Z" style="fill:rgb(79,79,79);"/>
            </g>
            <path d="M588.837,868.5L498.979,704.144L380.148,645.75" style="fill:none;stroke:rgb(79,79,79);stroke-width:15.5px;"/>
            <g transform="matrix(1.16409,-0.385873,0.356646,1.07592,-411.162,189.032)">
                <path d="M588.837,868.5L498.979,704.144L380.148,645.75" style="fill:none;stroke:rgb(79,79,79);stroke-width:13.13px;"/>
            </g>
        </g>
        <g>
            <g transform="matrix(1,0,0,1,-61.4058,52.7524)">
                <path d="M842.898,965.828L700.617,983.475C700.962,984.306 641.386,1207.27 588.876,1274.09C564.481,1305.13 477.754,1329.6 453.325,1358.22" style="fill:none;stroke:rgb(79,79,79);stroke-width:15.5px;"/>
            </g>
            <g transform="matrix(1,0,0,1,51.3109,4.2401)">
                <path d="M869.051,996.733L916.1,894.994L924.483,1352.93L945.903,1444.92" style="fill:none;stroke:rgb(79,79,79);stroke-width:15.5px;"/>
            </g>
            <path d="M1164.76,1068.65L1263.33,929.957C1263.33,929.957 1442.83,1243.71 1483.03,1328.2C1500.56,1365.04 1595.96,1392.33 1595.96,1392.33" style="fill:none;stroke:rgb(79,79,79);stroke-width:15.5px;"/>
        </g>
    </g>
</svg>
