<?xml version="1.0" encoding="UTF-8" standalone="no"?>
<svg
   xmlns:dc="http://purl.org/dc/elements/1.1/"
   xmlns:cc="http://creativecommons.org/ns#"
   xmlns:rdf="http://www.w3.org/1999/02/22-rdf-syntax-ns#"
   xmlns:svg="http://www.w3.org/2000/svg"
   xmlns="http://www.w3.org/2000/svg"
   xmlns:sodipodi="http://sodipodi.sourceforge.net/DTD/sodipodi-0.dtd"
   xmlns:inkscape="http://www.inkscape.org/namespaces/inkscape"
   width="100%"
   height="100%"
   viewBox="0 0 1024 1024"
   version="1.1"
   xml:space="preserve"
   style="fill-rule:evenodd;clip-rule:evenodd;stroke-linejoin:round;stroke-miterlimit:2;"
   id="svg33"
   sodipodi:docname="cryptomator.svg"
   inkscape:version="0.92.1 r15371"><metadata
     id="metadata39"><rdf:RDF><cc:Work
         rdf:about=""><dc:format>image/svg+xml</dc:format><dc:type
           rdf:resource="http://purl.org/dc/dcmitype/StillImage" /></cc:Work></rdf:RDF></metadata><defs
     id="defs37" /><sodipodi:namedview
     pagecolor="#ffffff"
     bordercolor="#666666"
     borderopacity="1"
     objecttolerance="10"
     gridtolerance="10"
     guidetolerance="10"
     inkscape:pageopacity="0"
     inkscape:pageshadow="2"
     inkscape:window-width="1920"
     inkscape:window-height="1040"
     id="namedview35"
     showgrid="false"
     inkscape:zoom="0.23046875"
     inkscape:cx="-368.81356"
     inkscape:cy="512"
     inkscape:window-x="0"
     inkscape:window-y="0"
     inkscape:window-maximized="1"
     inkscape:current-layer="svg33" /><g
     id="Layer1"
     transform="matrix(1.2125736,0,0,1.2125736,-111.00717,-115.34615)"><path
       d="m 889.616,161.933 c 0,-7.307 -2.902,-14.314 -8.069,-19.48 -5.166,-5.167 -12.173,-8.069 -19.48,-8.069 H 161.933 c -7.307,0 -14.314,2.902 -19.48,8.069 -5.167,5.166 -8.069,12.173 -8.069,19.48 v 700.134 c 0,7.307 2.902,14.314 8.069,19.48 5.166,5.167 12.173,8.069 19.48,8.069 h 700.134 c 7.307,0 14.314,-2.902 19.48,-8.069 5.167,-5.166 8.069,-12.173 8.069,-19.48 z"
       style="fill:#6f8989"
       id="path2"
       inkscape:connector-curvature="0" /><path
       d="m 849.219,202.33 c 0,-7.307 -2.902,-14.314 -8.069,-19.48 -5.166,-5.167 -12.173,-8.069 -19.48,-8.069 H 202.33 c -7.307,0 -14.314,2.902 -19.48,8.069 -5.167,5.166 -8.069,12.173 -8.069,19.48 v 619.34 c 0,7.307 2.902,14.314 8.069,19.48 5.166,5.167 12.173,8.069 19.48,8.069 h 619.34 c 7.307,0 14.314,-2.902 19.48,-8.069 5.167,-5.166 8.069,-12.173 8.069,-19.48 z"
       style="fill:#586c6c"
       id="path4"
       inkscape:connector-curvature="0" /><ellipse
       cx="509.61301"
       cy="512"
       rx="225.59801"
       ry="244.75101"
       style="fill:#ffffff;fill-opacity:1"
       id="ellipse6" /><ellipse
       cx="512"
       cy="500.01501"
       rx="172.92799"
       ry="187.61"
       style="fill:#586c6c"
       id="ellipse8" /><circle
       cx="457.535"
       cy="490.896"
       r="10.169"
       style="fill:#94d053"
       id="circle10" /><circle
       cx="493.82001"
       cy="490.896"
       r="10.169"
       style="fill:#94d053"
       id="circle12" /><circle
       cx="530.15802"
       cy="490.896"
       r="10.169"
       style="fill:#94d053"
       id="circle14" /><circle
       cx="566.46503"
       cy="490.896"
       r="10.169"
       style="fill:#94d053"
       id="circle16" /><path
       d="m 485.621,439.454 c -0.507,-25.619 -21.488,-47.109 -47.955,-47.109 -26.485,0 -47.955,21.091 -47.955,47.109 h 47.955 z"
       style="fill:#94d053"
       id="path18"
       inkscape:connector-curvature="0" /><path
       d="m 634.289,439.454 c -0.507,-25.619 -21.488,-47.109 -47.955,-47.109 -26.485,0 -47.955,21.091 -47.955,47.109 h 47.955 z"
       style="fill:#94d053"
       id="path20"
       inkscape:connector-curvature="0" /><path
       d="m 174.781,523.618 c 38.807,-7.419 80.35,-11.44 123.534,-11.44 213.978,0 387.702,98.732 387.702,220.341 0,42.846 -21.564,82.852 -58.856,116.7 H 202.33 c -7.307,0 -14.314,-2.902 -19.48,-8.069 -5.167,-5.166 -8.069,-12.173 -8.069,-19.48 z"
       style="fill:#ffffff;fill-opacity:1"
       id="path22"
       inkscape:connector-curvature="0" /><path
       d="M 400.523,849.219 C 363.111,815.333 341.471,775.262 341.471,732.341 341.471,610.732 515.194,512 729.173,512 c 41.892,0 82.242,3.784 120.046,10.784 V 821.67 c 0,7.307 -2.902,14.314 -8.069,19.48 -5.166,5.167 -12.173,8.069 -19.48,8.069 z"
       style="fill:#ffffff;fill-opacity:1"
       id="path24"
       inkscape:connector-curvature="0" /><circle
       cx="513.29303"
       cy="647.53101"
       r="44.205002"
       style="fill:#586c6c"
       id="circle26" /><path
       d="m 512,749.024 45.498,27.4 L 512,803.823 466.502,776.424 Z"
       style="fill:#586c6c"
       id="path28"
       inkscape:connector-curvature="0" /><path
       d="m 466.502,776.424 31.135,-101.589 31.652,-0.347 28.209,101.936"
       style="fill:#586c6c"
       id="path30"
       inkscape:connector-curvature="0" /></g></svg>