<svg height="48" width="48" xmlns="http://www.w3.org/2000/svg"><rect fill="#5e6068" height="42.5" ry="2.5" width="32.5" x="7.5" y="3"/><g fill="#fff"><path d="m12.5 12a1.0001 1.0001 0 1 0 0 2h7.5a1.0001 1.0001 0 1 0 0-2zm12.5 0a1.0001 1.0001 0 1 0 0 2h7.5a1.0001 1.0001 0 1 0 0-2zm-12.5 5a1.0001 1.0001 0 1 0 0 2h5a1.0001 1.0001 0 1 0 0-2zm10 0a1.0001 1.0001 0 1 0 0 2h5a1.0001 1.0001 0 1 0 0-2zm10 0a1.0001 1.0001 0 1 0 0 2h2.5a1.0001 1.0001 0 1 0 0-2zm-20 5a1.0001 1.0001 0 1 0 0 2h12.5a1.0001 1.0001 0 1 0 0-2zm17.5 0a1.0001 1.0001 0 1 0 0 2h5a1.0001 1.0001 0 1 0 0-2zm-17.5 5a1.0001 1.0001 0 1 0 0 2h2.5a1.0001 1.0001 0 1 0 0-2zm7.5 0a1.0001 1.0001 0 1 0 0 2h5a1.0001 1.0001 0 1 0 0-2zm7.5 0a1.0001 1.0001 0 1 0 0 2h7.5a1.0001 1.0001 0 1 0 0-2zm-15 5a1.0001 1.0001 0 1 0 0 2h7.5a1.0001 1.0001 0 1 0 0-2zm12.5 0a1.0001 1.0001 0 1 0 0 2h5a1.0001 1.0001 0 1 0 0-2z" fill-opacity=".440415"/><path d="m22.509766 15.476563c-5.218777 0-9.482422 4.261691-9.482422 9.480468s4.263645 9.482422 9.482422 9.482422c1.830486 0 3.537838-.533145 4.990234-1.439453a2.0002 2.0002 0 0 0 .273438.335937l6 6a2.0002 2.0002 0 1 0 2.828124-2.828124l-6-6a2.0002 2.0002 0 0 0 -.259765-.222657c1.039221-1.520987 1.648437-3.355584 1.648437-5.328125 0-5.218777-4.261691-9.480468-9.480468-9.480468zm0 3c3.597456 0 6.480468 2.883012 6.480468 6.480468 0 3.597457-2.883012 6.482422-6.480468 6.482422-3.597457 0-6.482422-2.884965-6.482422-6.482422 0-3.597456 2.884965-6.480468 6.482422-6.480468z"/></g></svg>