<svg height="48" width="48" xmlns="http://www.w3.org/2000/svg"><rect fill="#5e6a73" height="30" rx="2" width="44" x="2" y="12"/><path d="m6 16h36v22h-36z" fill="#fff"/><rect fill="#363d42" height="4" rx="1" width="44" x="2" y="42"/><g fill="#5e6a73" transform="translate(1.833736 6)"><path d="m21 13c-.554 0-1 .446-1 1v.878906a6.5 6.5 0 0 0 -2.050781 1.183594l-.761719-.439453c-.479778-.277-1.088234-.112591-1.365234.367187l-1.167969 2.019532c-.277.479778-.112591 1.090187.367187 1.367187l.757813.4375a6.5 6.5 0 0 0 -.113281 1.185547 6.5 6.5 0 0 0 .113281 1.185547l-.757813.4375c-.479778.277-.644187.887409-.367187 1.367187l1.167969 2.019532c.277.479778.885456.644187 1.365234.367187l.757812-.4375a6.5 6.5 0 0 0 2.054688 1.179688v.880859c0 .554.446 1 1 1h2.333984c.554 0 1-.446 1-1v-.878906a6.5 6.5 0 0 0 2.048828-1.185547l.763672.441406c.479778.277 1.088235.112591 1.365235-.367187l1.166015-2.019532c.277-.479778.114544-1.090187-.365234-1.367187l-.759766-.4375a6.5 6.5 0 0 0 .113282-1.185547 6.5 6.5 0 0 0 -.111328-1.185547l.757812-.4375c.479778-.277.642234-.887409.365234-1.367187l-1.166015-2.019532c-.277-.479778-.885457-.644187-1.365235-.367187l-.757812.4375a6.5 6.5 0 0 0 -2.054688-1.179688v-.880859c0-.554-.446-1-1-1z"/><circle cx="22.166264" cy="21" r="3.964286" stroke="#fff" stroke-linecap="round" stroke-linejoin="round" stroke-width="1.3"/></g></svg>