<svg height="48" width="48" xmlns="http://www.w3.org/2000/svg"><rect fill="#7d7d7d" height="42.5" ry="2.5" width="32.5" x="7.5" y="3"/><path d="m10 3h13.75v42.5h-13.75c-1.385 0-2.5-1.115-2.5-2.5v-37.5c0-1.385 1.115-2.5 2.5-2.5z" fill="#666"/><path d="m23.302485 7.3492167c-1.170351 0-2.119077.6568275-2.119077 1.4670872.03406.302267.225145.6839829.326027.8150321.489008.652055.489008 1.059537.366755 1.304043h-3.95292c-.72245 0-1.304043.581593-1.304043 1.304042v3.301123c.244505.12225.652053.12225 1.304043-.366761.131052-.10088.512767-.291954.815034-.326025.810258 0 1.467088.948474 1.467088 2.119079 0 1.170351-.65683 2.119075-1.467088 2.119075-.248652-.0041-.626722-.22659-.815034-.326025-.652053-.489006-1.059538-.489006-1.304043-.366756v4.279135c0 .72245.581593 1.304043 1.304043 1.304043h5.257151c.122252-.244505.122252-.65205-.366756-1.304043-.100882-.131049-.291959-.512765-.326027-.815032 0-.81026.948476-1.467091 2.119078-1.467091 1.170351 0 2.119077.656831 2.119077 1.467091-.0042.248649-.226591.626721-.326026.815032-.489008.652055-.489008 1.059538-.366757 1.304043h2.322852c.722449 0 1.304042-.581593 1.304042-1.304043v-3.626892c.244505-.122256.652053-.122256 1.304042.366755.188313.09937.566321.321816.815036.326025.810257 0 1.467088-.948473 1.467088-2.119079 0-1.170351-.656831-2.119075-1.467088-2.119075-.302268.03406-.683983.225145-.815036.326026-.652052.489011-1.059537.489011-1.304042.366756v-3.952918c0-.722451-.581593-1.304044-1.304042-1.304044h-3.626894c-.122252-.244505-.122252-.652055.366757-1.3040427.09937-.1883106.321813-.5663212.326026-.815036 0-.8102549-.948476-1.4670872-2.119078-1.4670872" fill="#fff" stroke-width=".039116"/></svg>