<?xml version="1.0" encoding="UTF-8" standalone="no"?>
<svg
   xmlns:dc="http://purl.org/dc/elements/1.1/"
   xmlns:cc="http://creativecommons.org/ns#"
   xmlns:rdf="http://www.w3.org/1999/02/22-rdf-syntax-ns#"
   xmlns:svg="http://www.w3.org/2000/svg"
   xmlns="http://www.w3.org/2000/svg"
   xmlns:sodipodi="http://sodipodi.sourceforge.net/DTD/sodipodi-0.dtd"
   xmlns:inkscape="http://www.inkscape.org/namespaces/inkscape"
   width="100%"
   height="100%"
   viewBox="0 0 1024 1024"
   version="1.1"
   xml:space="preserve"
   style="fill-rule:evenodd;clip-rule:evenodd;stroke-linejoin:round;stroke-miterlimit:2;"
   id="svg17"
   sodipodi:docname="retroshare.svg"
   inkscape:version="0.92.1 r15371"><metadata
     id="metadata23"><rdf:RDF><cc:Work
         rdf:about=""><dc:format>image/svg+xml</dc:format><dc:type
           rdf:resource="http://purl.org/dc/dcmitype/StillImage" /><dc:title></dc:title></cc:Work></rdf:RDF></metadata><defs
     id="defs21" /><sodipodi:namedview
     pagecolor="#ffffff"
     bordercolor="#666666"
     borderopacity="1"
     objecttolerance="10"
     gridtolerance="10"
     guidetolerance="10"
     inkscape:pageopacity="0"
     inkscape:pageshadow="2"
     inkscape:window-width="1920"
     inkscape:window-height="1040"
     id="namedview19"
     showgrid="false"
     inkscape:zoom="0.23046875"
     inkscape:cx="-368.81356"
     inkscape:cy="512"
     inkscape:window-x="0"
     inkscape:window-y="0"
     inkscape:window-maximized="1"
     inkscape:current-layer="Layer1" /><g
     id="Layer1"><g
       id="g4496"
       transform="matrix(1.2263961,0,0,1.2263961,-128.93175,-111.57582)"><circle
         style="fill:#4d4d4d"
         id="circle2"
         r="383.30899"
         cy="512"
         cx="512" /><circle
         id="circle4"
         style="fill:#b6d9f7"
         r="64.438004"
         cy="357.88599"
         cx="338.39999" /><path
         id="path6"
         style="fill:#b6d9f7"
         d="m 401.778,357.886 -5.83,28.765 c 0,0 206.496,41.853 224.9,45.583 0.723,0.147 1.427,-0.32 1.573,-1.042 0.971,-4.792 4.329,-21.359 5.3,-26.151 0.147,-0.722 -0.32,-1.426 -1.042,-1.572 -18.405,-3.731 -224.901,-45.583 -224.901,-45.583 z"
         inkscape:connector-curvature="0" /><path
         id="path8"
         style="fill:#b6d9f7"
         d="m 783.252,462.826 c -17.792,30.794 -57.237,41.35 -88.031,23.559 -30.794,-17.792 -41.35,-57.237 -23.558,-88.031 17.792,-30.794 57.237,-41.35 88.031,-23.559 30.794,17.792 41.35,57.238 23.558,88.031 z"
         inkscape:connector-curvature="0" /><path
         id="path10"
         style="fill:#b6d9f7"
         d="M 695.751,485.468 673.76,466.029 c 0,0 -139.542,157.86 -151.98,171.93 -0.488,0.552 -0.436,1.395 0.116,1.884 3.664,3.238 16.328,14.433 19.992,17.671 0.552,0.488 1.395,0.436 1.883,-0.116 12.437,-14.07 151.98,-171.93 151.98,-171.93 z"
         inkscape:connector-curvature="0" /><path
         id="path12"
         style="fill:#b6d9f7"
         d="m 412.263,762.6 c -17.777,-30.803 -7.202,-70.243 23.6,-88.02 30.803,-17.777 70.243,-7.202 88.02,23.6 17.777,30.803 7.202,70.243 -23.6,88.02 -30.803,17.777 -70.243,7.202 -88.02,-23.6 z"
         inkscape:connector-curvature="0" /><path
         id="path14"
         style="fill:#b6d9f7"
         d="m 436.393,675.497 27.828,-9.329 c 0,0 -66.969,-199.768 -72.938,-217.573 -0.234,-0.698 -0.991,-1.075 -1.689,-0.841 -4.636,1.554 -20.663,6.927 -25.299,8.481 -0.698,0.234 -1.075,0.991 -0.84,1.689 5.968,17.805 72.938,217.573 72.938,217.573 z"
         inkscape:connector-curvature="0" /></g></g></svg>