<svg width="24" height="24" version="1.1" xmlns="http://www.w3.org/2000/svg">
 <defs>
  <style id="current-color-scheme" type="text/css">.ColorScheme-Text { color:#5d656b; } .ColorScheme-Highlight { color:#5294e2; }</style>
 </defs>
 <path class="ColorScheme-Text" d="m5.4949 6c-0.822 0-1.5 0.678-1.5 1.5v10c0 0.822 0.678 1.5 1.5 1.5h12c0.823 0 1.5-0.678 1.5-1.5v-8.049l0.729-0.732a1.02 1.02 0 0 0 0.281-0.72c0-0.553-0.446-1-1-1-0.034 0-0.064 0.015-0.098 0.019a1.503 1.503 0 0 0-1.412-1.018zm0 1h1.5v2.996h-2v-2.496c0-0.286 0.215-0.5 0.5-0.5zm2.51 0h9.49c0.286 0 0.5 0.214 0.5 0.5v0.07l-5.99 5.961v1.469h1.469l4.521-4.545v7.045c0 0.286-0.214 0.5-0.5 0.5h-9.49zm-3.01 3.996h2v3h-2zm0 4h2v3.004h-1.5a0.488 0.488 0 0 1-0.5-0.5z" fill="currentColor"/>
</svg>
