<svg width="32" height="32" xmlns="http://www.w3.org/2000/svg"><g transform="translate(-2.286 -2.269) scale(1.1428)"><rect x="2.875" y="2.86" width="26.251" height="26.251" rx="6.095" ry="6.095" fill="#f2f2f2"/><circle transform="rotate(-90)" cx="-16" cy="16" r="10.781" fill="#666"/><path d="M15.286 5.245a10.781 10.781 0 0 0-.936.103 6.503 6.503 0 0 1 .119.861 6.503 6.503 0 0 1-6.101 6.881 6.503 6.503 0 0 1-2.625-.398 10.781 10.781 0 0 0-.261.949c.1.033.2.066.303.096-.007.872-.07 1.215.33 1.322.347.094.459-.216.756-1.086.284.037.57.058.857.063.218.951.29 1.278.654 1.22.408-.066.382-.414.465-1.276a7.54 7.54 0 0 0 .85-.165c.405.84.553 1.137.888 1.002.385-.155.28-.489.169-1.354a7.53 7.53 0 0 0 .76-.364c.632.708.854.955 1.141.731.326-.254.137-.545-.206-1.339a7.52 7.52 0 0 0 .66-.572c.76.508 1.037.685 1.256.402.249-.323-.001-.56-.517-1.222.168-.217.324-.443.467-.677.906.26 1.226.35 1.35.008.137-.381-.17-.532-.854-.998.115-.273.213-.552.294-.836.938.03 1.27.04 1.306-.321.04-.404-.295-.475-1.075-.761.037-.295.057-.593.059-.891.889-.172 1.21-.241 1.165-.595-.05-.405-.394-.397-1.228-.506a7.431 7.431 0 0 0-.046-.278zm.316 6.316-.507.065a.085.085 0 0 0-.057.033.097.097 0 0 0-.017.063l.012.632a3.76 3.76 0 0 0-1.048.44l-.433-.455a.084.084 0 0 0-.12-.016l-.405.312a.085.085 0 0 0-.033.056.104.104 0 0 0 .017.064l.313.548a3.76 3.76 0 0 0-.682.9l-.596-.175a.089.089 0 0 0-.065 0 .086.086 0 0 0-.046.046l-.196.473a.084.084 0 0 0 0 .065c.008.02.025.034.046.046l.546.318a3.76 3.76 0 0 0-.146 1.023 3.76 3.76 0 0 0 .003.096l-.608.147a.087.087 0 0 0-.056.033.084.084 0 0 0-.017.063l.066.507a.086.086 0 0 0 .032.057c.018.013.04.017.064.017l.634.002a3.76 3.76 0 0 0 .439 1.04l-.454.43a.087.087 0 0 0-.032.057.086.086 0 0 0 .016.064l.312.405c.014.02.035.03.056.033a.101.101 0 0 0 .063-.017l.547-.312a3.76 3.76 0 0 0 .902.683l-.175.594a.087.087 0 0 0 0 .065c.009.02.024.037.046.046l.472.197c.022.009.046.008.066 0a.1.1 0 0 0 .046-.046l.317-.546a3.76 3.76 0 0 0 1.022.146 3.76 3.76 0 0 0 .098-.004l.148.608a.085.085 0 0 0 .031.056c.018.014.04.02.064.017l.507-.066a.085.085 0 0 0 .057-.032.103.103 0 0 0 .017-.064l.002-.634a3.76 3.76 0 0 0 1.014-.424l.46.436c.12.016.035.03.057.033a.086.086 0 0 0 .064-.017l.406-.31a.085.085 0 0 0 .032-.058.099.099 0 0 0-.017-.063l-.324-.538a3.76 3.76 0 0 0 .674-.882l.617.148c.112-.046.046.008.066 0s.037-.024.046-.046l.196-.473a.086.086 0 0 0 0-.065.098.098 0 0 0-.046-.046l-.556-.308A3.76 3.76 0 0 0 19.706 16a3.76 3.76 0 0 0-.003-.072l.607-.179c.074-.096.044-.016.058-.033a.084.084 0 0 0 .017-.063l-.068-.507a.083.083 0 0 0-.032-.057.1.1 0 0 0-.064-.016l-.632.01a3.76 3.76 0 0 0-.425-1.021l.439-.463c.016-.12.029-.034.032-.056a.086.086 0 0 0-.017-.064l-.31-.405a.087.087 0 0 0-.058-.033.097.097 0 0 0-.063.017l-.54.325a3.76 3.76 0 0 0-.881-.673l.148-.62c-.046-.11.009-.045 0-.065s-.024-.037-.046-.046l-.472-.196a.086.086 0 0 0-.065 0 .098.098 0 0 0-.046.046l-.31.556a3.76 3.76 0 0 0-1.03-.147 3.76 3.76 0 0 0-.068.003l-.179-.607c-.096-.074-.015-.044-.033-.057a.084.084 0 0 0-.063-.016zm.344 1.47A2.968 2.968 0 0 1 18.913 16a2.968 2.968 0 0 1-2.967 2.967A2.968 2.968 0 0 1 12.978 16a2.968 2.968 0 0 1 2.968-2.967zm9.63 3.48c-.412-.002-.445.343-.665 1.173a7.535 7.535 0 0 0-.858.018c-.28-.914-.376-1.232-.732-1.149-.403.095-.351.44-.373 1.31a7.541 7.541 0 0 0-.807.235c-.49-.821-.662-1.108-.987-.942-.374.191-.233.515-.042 1.392a7.522 7.522 0 0 0-.717.427c-.72-.649-.968-.874-1.231-.619-.298.289-.075.559.353 1.316a7.526 7.526 0 0 0-.589.61c-.854-.457-1.147-.617-1.341-.305-.221.353.062.56.668 1.2a7.5 7.5 0 0 0-.405.721c-.851-.182-1.174-.313-1.36.057-.165.328.123.496.954.986a7.498 7.498 0 0 0-.207.817c-.862.044-1.207.003-1.29.407-.074.355.246.446 1.155.698-.01.277-.006.554.014.83-.814.285-1.157.343-1.123.755.015.192.12.28.354.32a10.781 10.781 0 0 0 1.983-.244c-.242-1.104-.202-2.333.382-3.843.131-.34.287-.634.465-.864a6.503 6.503 0 0 1 3.291-2.687c.18-.091.429-.162.704-.216a6.503 6.503 0 0 1 .6-.123 6.503 6.503 0 0 1 .646-.062 6.503 6.503 0 0 1 1.948.21 10.781 10.781 0 0 0 .23-.992 7.516 7.516 0 0 0-.574-.133c-.06-.967-.08-1.301-.446-1.303z" fill="#fff" opacity=".25"/><path d="M15.987 6.625a.566.566 0 0 0-.036.003c-.443.045-.435.42-.578 1.344a8.085 8.062 28.59 0 0-.903.12c-.415-.953-.557-1.283-.928-1.15-.422.15-.32.514-.238 1.457a8.085 8.062 28.59 0 0-.822.338c-.596-.72-.78-1.047-1.184-.859-.357.167-.228.501.146 1.468a8.085 8.062 28.59 0 0-.72.55c-.755-.538-1.018-.802-1.358-.517-.299.25-.09.54.509 1.359a8.085 8.062 28.59 0 0-.543.71c-.876-.303-1.204-.483-1.45-.114-.213.321.064.54.845 1.14a8.085 8.062 28.59 0 0-.358.88c-.907-.102-1.265-.2-1.422.21-.14.367.185.518 1.118.946a8.085 8.062 28.59 0 0-.123.934c-.893.122-1.262.117-1.314.552-.046.391.307.455 1.325.645a8.085 8.062 28.59 0 0 .117.855c-.86.415-1.226.512-1.14.953.075.385.43.34 1.448.21a8.085 8.062 28.59 0 0 .348.845c-.739.625-1.073.81-.878 1.217.17.358.504.221 1.48-.166l-.091-.161a8.085 8.062 28.59 0 0 .62.825c-.523.779-.784 1.05-.488 1.384.255.289.54.077 1.322-.527a8.085 8.062 28.59 0 0 .731.563c-.367.983-.497 1.319-.136 1.482.405.183.588-.145 1.173-.87a8.085 8.062 28.59 0 0 .86.357c-.134.993-.178 1.346.202 1.424.437.089.54-.273.953-1.115a8.085 8.062 28.59 0 0 .899.125c.147 1.008.2 1.362.59 1.331.443-.035.445-.41.608-1.324a8.085 8.062 28.59 0 0 .932-.12c.38.905.523 1.228.887 1.103.415-.143.331-.503.261-1.403a8.085 8.062 28.59 0 0 .82-.33c.659.77.892 1.04 1.204.806.35-.26.164-.577-.173-1.4a8.085 8.062 28.59 0 0 .758-.576c.824.583 1.116.788 1.362.486.275-.339.016-.6-.514-1.32a8.085 8.062 28.59 0 0 .58-.763c.9.373 1.228.5 1.399.156.194-.392-.119-.589-.802-1.18a8.085 8.062 28.59 0 0 .342-.84c.991.107 1.345.14 1.412-.242.076-.433-.28-.532-1.109-.91a8.085 8.062 28.59 0 0 .12-.91c1.004-.156 1.357-.213 1.323-.602-.039-.442-.413-.44-1.328-.595a8.085 8.062 28.59 0 0-.122-.903c.923-.425 1.247-.576 1.108-.94-.157-.41-.515-.313-1.414-.213a8.085 8.062 28.59 0 0-.357-.858c.81-.626 1.094-.846.875-1.172-.251-.374-.58-.183-1.489.133a8.085 8.062 28.59 0 0-.552-.715c.594-.854.801-1.148.493-1.394-.346-.276-.604-.007-1.342.546a8.085 8.062 28.59 0 0-.736-.557c.373-.956.504-1.29.15-1.458h-.001c-.403-.188-.59.138-1.189.857a8.085 8.062 28.59 0 0-.836-.34c.134-1.02.18-1.375-.204-1.452-.443-.089-.54.279-.964 1.145a8.085 8.062 28.59 0 0-.89-.119c-.163-.962-.224-1.334-.554-1.344h-.034zm2.033 2.833c.284 0 .694.168 1.12.404.783.435 1.623 1.105 1.847 1.407 1.072 1.148 1.854 2.572 1.9 4.86.008.426-.032.812-.132 1.128-.11.33-.329.659-.675.82-.287.12-.606.206-.903.069-.924-.424-2.086-1.157-3.018-1.709-.157-.092-.271-.243-.288-.32a1.875 1.875 0 0 0 .004-.117 1.875 1.875 0 0 0-1.076-1.697.782.782 0 0 1-.074-.239 56.114 56.114 0 0 1-.017-3.36c.002-.766.554-1.218 1.232-1.24a.55.55 0 0 1 .054-.005h.026zm-4.011.043h.044c.207 0 .419.042.607.143.042.022.08.047.12.075.245.19.477.426.503.751.084 1.013.017 2.385-.006 3.468a.707.707 0 0 1-.121.388A1.875 1.875 0 0 0 14.125 16a1.875 1.875 0 0 0 .004.089.691.691 0 0 1-.217.263 56.24 56.24 0 0 1-2.92 1.663c-.67.375-1.333.116-1.686-.463-.459-.606-.168-2.99.078-3.54.474-1.498 1.33-2.88 3.303-4.042.367-.216.724-.37 1.048-.437.074-.015.151-.025.23-.03l.044-.002zm1.99 5.561a.938.938 0 0 1 .938.938.938.938 0 0 1-.937.937.938.938 0 0 1-.938-.937.938.938 0 0 1 .938-.938zm-1.106 2.52h.017c.03 0 .056.004.074.01l.032.003a1.875 1.875 0 0 0 .984.28 1.875 1.875 0 0 0 .981-.278.561.561 0 0 1 .056-.006.727.727 0 0 1 .299.06 59.96 59.96 0 0 1 2.9 1.696c.66.392.767 1.096.441 1.691-.295.7-2.505 1.642-3.104 1.704-1.534.338-3.158.287-5.15-.84-.372-.21-.685-.441-.905-.688-.229-.262-.4-.618-.362-.998.042-.308.131-.626.4-.812.835-.58 2.058-1.206 3.008-1.727a.784.784 0 0 1 .33-.094z" fill="#fff"/></g></svg>