<svg width="16" height="16" enable-background="new" version="1.1" xmlns="http://www.w3.org/2000/svg">
 <g fill="#5d656b">
  <path d="m7.9062 1a7 7 0 0 0-6.9062 7 7 7 0 0 0 7 7 7 7 0 0 0 2.0254-0.30078c0.05922-0.41377 0.24105-0.80363 0.5332-1.1094l0.007812-0.007813 0.082032-0.082031-0.074219-0.074219c-0.001329-0.001328-0.002583-0.002575-0.003907-0.003906a6 6 0 0 1-2.5703 0.57812 6 6 0 0 1-6-6 6 6 0 0 1 6-6 6 6 0 0 1 6 6 6 6 0 0 1-0.57812 2.5703l0.078125 0.078126 0.074219-0.074219c0.31574-0.31575 0.71223-0.48894 1.125-0.54688a7 7 0 0 0 0.30078-2.0273 7 7 0 0 0-7-7 7 7 0 0 0-0.09375 0zm4.3477 11.23a6 6 0 0 1-0.023437 0.023437l0.70703 0.70703a7 7 0 0 0 0.023438-0.023438l-0.70703-0.70703z" opacity=".35"/>
  <path d="m10.406 5.188c-0.09701 0.025933-0.18407 0.080256-0.25 0.156l-2.156 2.156-1.656-1.656c-0.157-0.257-0.568-0.307-0.781-0.094s-0.164 0.624 0.093 0.781l2 2c0.19639 0.17384 0.49161 0.17384 0.688 0l2.5-2.5c0.293-0.298-0.025-0.91-0.438-0.843z" color="#5d656b" enable-background="accumulate" opacity=".35" overflow="visible"/>
  <path d="m11 11v1c0 0.276 0.1 0.538 0.281 0.719l0.782 0.781-0.782 0.781a1.015 1.015 0 0 0-0.281 0.719v1h1c0.276 0 0.538-0.1 0.719-0.281l0.781-0.781 0.781 0.78c0.181 0.182 0.443 0.282 0.719 0.282h1v-1c0-0.276-0.1-0.538-0.281-0.719l-0.781-0.781 0.78-0.781c0.182-0.181 0.282-0.443 0.282-0.719v-1h-1c-0.276 0-0.538 0.1-0.719 0.281l-0.781 0.781-0.781-0.78a1.015 1.015 0 0 0-0.719-0.282z" enable-background="new"/>
 </g>
</svg>
