<svg xmlns="http://www.w3.org/2000/svg" width="16" height="16" enable-background="new"><defs><filter id="a" color-interpolation-filters="sRGB"><feBlend mode="darken" in2="BackgroundImage"/></filter></defs><path style="marker:none" d="M12.187 1a.5.5 0 0 0-.125.906C15.398 4.527 16 9.376 13.406 12.75a7.118 7.118 0 0 1-1.344 1.344.503.503 0 1 0 .594.812 8.545 8.545 0 0 0 1.531-1.562c2.923-3.802 2.231-9.294-1.53-12.25A.5.5 0 0 0 12.25 1a.5.5 0 0 0-.063 0zM7.47 2l-3 3H2v6h2.469l3.062 3.031L8 14V2h-.531zm3.25 1.125a.5.5 0 0 0-.157.906c2.176 1.791 2.492 5.018.72 7.219-.228.282-.411.488-.688.719a.5.5 0 1 0 .625.75c.32-.267.581-.519.843-.844 2.112-2.621 1.72-6.49-.875-8.625a.5.5 0 0 0-.406-.125.5.5 0 0 0-.062 0zM9.312 5.344a.5.5 0 0 0-.187.875c.982.99.98 2.57 0 3.562-.008.008.004.028 0 .031a.5.5 0 1 0 .687.688c.008-.008.028.004.032 0 1.359-1.378 1.363-3.626 0-5a.5.5 0 0 0-.47-.156.5.5 0 0 0-.062 0z" color="#5d656b" overflow="visible" fill="#5d656b"/></svg>