<svg width="16" height="16" enable-background="new" version="1.1" xmlns="http://www.w3.org/2000/svg">
 <g transform="translate(.89198 -.37964)" fill="#5d656b" stroke-linecap="square" style="paint-order:stroke fill markers" aria-label="">
  <path transform="translate(-.89198 .37964)" d="m3 1c-1.108 0-2 0.892-2 2v10c0 1.108 0.892 2 2 2h1a4 4 0 0 1 0.29492-1.5078c0.00706-0.0178 0.01-0.03707 0.017578-0.05469 0.00736-0.0173 0.01784-0.03169 0.025391-0.04883a4 4 0 0 1 0.29297-0.54297c0.038423-0.06088 0.07969-0.11942 0.12109-0.17773a4 4 0 0 1 0.32422-0.39648c0.00534-0.0057 0.010249-0.01187 0.015625-0.01758 0.026373-0.02799 0.045025-0.06261 0.072266-0.08984 0.031848-0.03185 0.070684-0.05527 0.10352-0.08594a4 4 0 0 1 0.39062-0.32031c0.063812-0.0458 0.1285-0.09064 0.19531-0.13281a4 4 0 0 1 0.48633-0.26367c0.03147-0.01443 0.057828-0.03506 0.089844-0.04883 0.031564-0.01343 0.065811-0.01868 0.097656-0.03125a4 4 0 0 1 0.60352-0.18555c0.035699-0.0077 0.071405-0.01477 0.10742-0.02148a4 4 0 0 1 0.76172-0.074216 4 4 0 0 1 0.72656 0.06836c0.076913 0.01304 0.1514 0.03153 0.22656 0.04883a4 4 0 0 1 0.40039 0.11914c0.073665 0.02566 0.15278 0.03824 0.22461 0.06836 0.48959 0.20311 0.91412 0.48439 1.2734 0.84375 0.35936 0.35939 0.64064 0.78392 0.84375 1.2734 0.02696 0.06428 0.03942 0.13451 0.06055 0.20117a4 4 0 0 1 0.24414 1.377h1c1.108 0 2-0.892 2-2v-10c0-1.108-0.892-2-2-2h-10zm0 1h10c0.554 0 1 0.446 1 1v10c0 0.554-0.446 1-1 1h-0.09375c-0.07812-0.39579-0.20053-0.77346-0.36719-1.1328-0.16666-0.36458-0.37241-0.70055-0.61719-1.0078-0.23958-0.30728-0.51564-0.58074-0.82812-0.82031-0.31246-0.24478-0.6537-0.45053-1.0234-0.61719 0.29687-0.17708 0.56512-0.39064 0.80469-0.64062 0.23958-0.24999 0.44272-0.52345 0.60938-0.82031 0.16666-0.29685 0.29427-0.60939 0.38281-0.9375 0.08854-0.3333 0.13281-0.67454 0.13281-1.0234 0-0.55207-0.10418-1.0703-0.3125-1.5547-0.20832-0.48959-0.4948-0.91412-0.85938-1.2734-0.35939-0.36457-0.78392-0.65104-1.2734-0.85938-0.48436-0.20832-1.0026-0.3125-1.5547-0.3125-0.55206 0-1.0729 0.10418-1.5625 0.3125-0.48438 0.20832-0.90891 0.4948-1.2734 0.85938-0.35936 0.35938-0.64324 0.78391-0.85156 1.2734-0.20832 0.48436-0.31055 1.0026-0.31055 1.5547 0 0.34891 0.042318 0.69015 0.13086 1.0234 0.088541 0.33333 0.21616 0.65106 0.38281 0.95312 0.17187 0.29686 0.37762 0.57032 0.61719 0.82031 0.23957 0.24478 0.51043 0.45574 0.8125 0.63281-0.36975 0.16145-0.71099 0.3646-1.0234 0.60937-0.31248 0.24478-0.59115 0.52084-0.83594 0.82813-0.24479 0.30728-0.45313 0.64325-0.625 1.0078-0.16666 0.35935-0.28906 0.73439-0.36719 1.125h-0.09375c-0.554 0-1-0.446-1-1v-10c0-0.554 0.446-1 1-1zm5 2c0.41147 0 0.79945 0.080732 1.1641 0.24219 0.36457 0.15624 0.6823 0.3698 0.95313 0.64062 0.27082 0.27083 0.48438 0.58856 0.64062 0.95312 0.16145 0.36457 0.24219 0.75256 0.24219 1.1641 0 0.41147-0.08074 0.79945-0.24219 1.1641-0.15624 0.36457-0.3698 0.6823-0.64062 0.95312-0.27083 0.27082-0.58856 0.48699-0.95313 0.64844-0.36459 0.15624-0.75258 0.23438-1.1641 0.23438-0.41147 0-0.79945-0.078129-1.1641-0.23438-0.36457-0.16145-0.6823-0.37761-0.95312-0.64844s-0.48698-0.58856-0.64844-0.95312c-0.15625-0.36457-0.23438-0.75256-0.23438-1.1641 0-0.41147 0.078125-0.79945 0.23438-1.1641 0.16145-0.36457 0.37761-0.6823 0.64844-0.95312s0.58856-0.48438 0.95312-0.64062c0.36459-0.16145 0.75258-0.24219 1.1641-0.24219z" fill="#5d656b"/>
 </g>
</svg>
