<svg xmlns="http://www.w3.org/2000/svg" width="16" height="16" enable-background="new"><defs><filter id="a" color-interpolation-filters="sRGB"><feBlend mode="darken" in2="BackgroundImage"/></filter></defs><g fill="#5d656b"><path d="M5 5v3.094L6.844 5zm4 0v2h2V5zm2 4.906L9.156 13H11zM5 11v2h2v-2z" opacity=".35" enable-background="new"/><path d="M5 7v1.094L5.656 7H5zm6 2.906L9.156 13H11V9.906zM5 11v2h2v-2H5z" enable-background="new"/><path d="M6 1v1h4V1zM3.844 3C3.563 3.047 3 3.25 3 4v10c0 1 1 1 1 1h8c1 0 1-1 1-1V4s0-1-1-1H4s-.063-.016-.156 0zM4 4h8v10H4z" enable-background="new"/><path d="M8 5v3h3l-3 5v-3H5z" enable-background="new"/><path d="M3.844 3C3.563 3.047 3 3.25 3 4v10c0 1 1 1 1 1h8c1 0 1-1 1-1V4s0-1-1-1H4c-.052 0-.063-.016-.156 0zM4 4h8v10H4z" enable-background="new"/></g></svg>