<svg width="16" height="16.004" enable-background="new" version="1.1" xmlns="http://www.w3.org/2000/svg">
 <path d="m7.8516 8a7 4 0 0 0-6.8516 4v1c0 0.554 0.446 1 1 1h2c0.554 0 1-0.446 1-1v-1c0-0.062991-0.024121-0.11803-0.035156-0.17773a5 4 0 0 1 3.0352-0.82227 5 4 0 0 1 3.0352 0.82422c-0.010808 0.05911-0.035156 0.11346-0.035156 0.17578v1c0 0.554 0.446 1 1 1h2c0.554 0 1-0.446 1-1v-0.97461a7 4 0 0 0 0-0.025391 7 4 0 0 0-7-4 7 4 0 0 0-0.14844 0z" fill="#5d656b" stroke-linecap="square" stroke-width="2"/>
 <path d="m9.4961 1c-0.27487 0-0.49609 0.223-0.49609 0.5s0.22122 0.5 0.49609 0.5h1.7969l-3.793 3.793-3.8887-3.8887c-0.19587-0.19587-0.51116-0.19587-0.70703 0s-0.19587 0.51116 0 0.70703l4.2422 4.2422c0.19587 0.19587 0.51116 0.19587 0.70703 0l4.1465-4.1465v1.7969c0 0.27487 0.223 0.49609 0.5 0.49609s0.5-0.22122 0.5-0.49609v-3.0039c0-0.1164-0.045619-0.21794-0.11133-0.30273-0.012423-0.01594-0.018946-0.036479-0.033203-0.050781-0.014861-0.014976-0.036082-0.022178-0.052735-0.035156-0.033916-0.026284-0.06529-0.055301-0.10547-0.072266-5.77e-4 -2.449e-4 -0.001376 2.428e-4 -0.001954 0-0.058708-0.024559-0.12362-0.038542-0.19141-0.039062h-0.003906-3.0039z" fill="#5d656b" opacity=".35" stroke-linecap="square" stroke-width="2"/>
</svg>
