<svg width="16" height="16" version="1.1" xmlns="http://www.w3.org/2000/svg">
 <path d="m3 1c-1.108 0-2 0.892-2 2v7c0 1.108 0.892 2 2 2h10c1.108 0 2-0.892 2-2v-7c0-1.108-0.892-2-2-2h-10zm0 1h10c0.554 0 1 0.446 1 1v7c0 0.554-0.446 1-1 1h-10c-0.554 0-1-0.446-1-1v-7c0-0.554 0.446-1 1-1zm-2 9v2c0 1.108 0.892 2 2 2h10c1.108 0 2-0.892 2-2v-2c0 1.108-0.892 2-2 2h-10c-1.108 0-2-0.892-2-2z" fill="#5d656b" opacity=".35" stroke-linecap="square" stroke-width="2"/>
 <g fill="#5d656b" opacity=".35" stroke-width=".24005" aria-label="A">
  <path d="m8 3.933-1.2847 3.4836h2.574zm-0.53449-0.93302h1.0737l2.6678 7h-0.98459l-0.63764-1.7957h-3.1554l-0.63764 1.7957h-0.99866z" fill="#5d656b" stroke-width=".24005"/>
 </g>
</svg>
