<svg xmlns="http://www.w3.org/2000/svg" width="16" height="16" enable-background="new"><defs><filter id="a" color-interpolation-filters="sRGB"><feBlend mode="darken" in2="BackgroundImage"/></filter></defs><path style="line-height:normal;-inkscape-font-specification:Sans;text-indent:0;text-align:start;text-decoration-line:none;text-transform:none;block-progression:tb;marker:none" d="M3 1c-1.1 0-2 .9-2 2v10c0 1.1.9 2 2 2h10c1.1 0 2-.9 2-2V3c0-1.1-.9-2-2-2H3zm0 1h10c.563 0 1 .437 1 1v10c0 .563-.437 1-1 1H3c-.563 0-1-.437-1-1V3c0-.563.437-1 1-1zm1 5v2h8V7H4z" color="#000" font-weight="400" font-family="Sans" overflow="visible" fill="#5d656b" enable-background="accumulate"/></svg>