<svg width="16" height="16" version="1.1" xmlns="http://www.w3.org/2000/svg">
 <path d="m7.25 1a0.25 0.25 0 0 0-0.25 0.25v1.5c0 0.139 0.112 0.25 0.25 0.25h0.5a0.25 0.25 0 0 0 0.25-0.25v-1.5a0.25 0.25 0 0 0-0.25-0.25h-0.5zm-4.6992 1.9473a0.25 0.25 0 0 0-0.17773 0.072266l-0.35352 0.35352a0.25 0.25 0 0 0 0 0.35352l1.0605 1.0605a0.25 0.25 0 0 0 0.35352 0l0.35352-0.35352a0.25 0.25 0 0 0 0-0.35352l-1.0605-1.0605a0.246 0.246 0 0 0-0.17578-0.072266zm9.8984 0a0.246 0.246 0 0 0-0.17578 0.072266l-1.0586 1.0605a0.25 0.25 0 0 0 0 0.35352l0.35156 0.35352a0.25 0.25 0 0 0 0.35352 0l1.0605-1.0605a0.25 0.25 0 0 0 0-0.35352l-0.35352-0.35352a0.25 0.25 0 0 0-0.17773-0.072266zm-4.9492 2.0527a3.5 3.5 0 0 0-3.5 3.5 3.5 3.5 0 0 0 3.5 3.5 3.5 3.5 0 0 0 3.5-3.5 3.5 3.5 0 0 0-3.5-3.5zm0.0097656 1a2.5 2.5 0 0 1 2.4902 2.5 2.5 2.5 0 0 1-2.4902 2.5v-5zm-0.16992 0.0058594a2.5 2.5 0 0 0-0.072266 0.0058594 2.5 2.5 0 0 1 0.072266-0.0058594zm-0.39453 0.056641a2.5 2.5 0 0 0-0.083984 0.021484 2.5 2.5 0 0 1 0.083984-0.021484zm-0.37695 0.11914a2.5 2.5 0 0 0-0.076172 0.03125 2.5 2.5 0 0 1 0.076172-0.03125zm-0.24805 0.11523a2.5 2.5 0 0 0-0.074219 0.041016 2.5 2.5 0 0 1 0.074219-0.041016zm-0.22266 0.13477a2.5 2.5 0 0 0-0.072266 0.050781 2.5 2.5 0 0 1 0.072266-0.050781zm-0.10352 0.072266a2.5 2.5 0 0 0-0.076172 0.060547 2.5 2.5 0 0 1 0.076172-0.060547zm-5.7441 1.4961a0.25 0.25 0 0 0-0.25 0.25v0.5c0 0.139 0.112 0.25 0.25 0.25h1.5a0.25 0.25 0 0 0 0.25-0.25v-0.5a0.25 0.25 0 0 0-0.25-0.25h-1.5zm13 0a0.25 0.25 0 0 0-0.25 0.25v0.5c0 0.139 0.112 0.25 0.25 0.25h1.5a0.25 0.25 0 0 0 0.25-0.25v-0.5a0.25 0.25 0 0 0-0.25-0.25h-1.5zm-8.2051 0.033203a2.5 2.5 0 0 0-0.021484 0.13086 2.5 2.5 0 0 0-0.011719 0.10352 2.5 2.5 0 0 1 0.011719-0.10352 2.5 2.5 0 0 1 0.021484-0.13086zm-0.039062 0.62695a2.5 2.5 0 0 0 0.0058594 0.072266 2.5 2.5 0 0 1-0.0058594-0.072266zm0.056641 0.39453a2.5 2.5 0 0 0 0.021484 0.083984 2.5 2.5 0 0 1-0.021484-0.083984zm0.11914 0.37695a2.5 2.5 0 0 0 0.03125 0.076172 2.5 2.5 0 0 1-0.03125-0.076172zm0.11523 0.24805a2.5 2.5 0 0 0 0.041016 0.074219 2.5 2.5 0 0 1-0.041016-0.074219zm0.13477 0.22266a2.5 2.5 0 0 0 0.050781 0.072266 2.5 2.5 0 0 1-0.050781-0.072266zm0.072266 0.10352a2.5 2.5 0 0 0 0.060547 0.076172 2.5 2.5 0 0 1-0.060547-0.076172zm1.5293 0.94922a2.5 2.5 0 0 0 0.13086 0.021484 2.5 2.5 0 0 0 0.10352 0.011719 2.5 2.5 0 0 1-0.10352-0.011719 2.5 2.5 0 0 1-0.13086-0.021484zm-3.7754 1.1836a0.252 0.252 0 0 0-0.17773 0.074219l-1.0605 1.0605a0.25 0.25 0 0 0 0 0.35352l0.35352 0.35352a0.25 0.25 0 0 0 0.35352 0l1.0605-1.0605a0.25 0.25 0 0 0 0-0.35352l-0.35352-0.35352a0.248 0.248 0 0 0-0.17578-0.074219zm8.4844 0a0.248 0.248 0 0 0-0.17578 0.074219l-0.35352 0.35352a0.25 0.25 0 0 0 0 0.35352l1.0605 1.0605a0.25 0.25 0 0 0 0.35352 0l0.35352-0.35352a0.25 0.25 0 0 0 0-0.35352l-1.0586-1.0605a0.252 0.252 0 0 0-0.17969-0.074219zm-4.4922 1.8613a0.25 0.25 0 0 0-0.25 0.25v1.5c0 0.139 0.112 0.25 0.25 0.25h0.5a0.25 0.25 0 0 0 0.25-0.25v-1.5a0.25 0.25 0 0 0-0.25-0.25h-0.5z" fill="#5d656b" style="isolation:auto;mix-blend-mode:normal"/>
</svg>
