<svg width="16" height="16" version="1.1" xmlns="http://www.w3.org/2000/svg">
 <path d="m11.3 0.8327c-0.57142-0.15251-1.1497 0.22153-1.2448 0.80525-2.375-0.15134-4.5262 1.3963-5.1377 3.6962l-1.1647 4.3467-2.4495 1.4142-0.12941 0.48296 13.523 3.6235 0.12941-0.48296-1.4142-2.4495 1.1647-4.3467c0.6208-2.2976-0.46847-4.7137-2.6013-5.7699 0.20943-0.5531-0.10431-1.1661-0.67543-1.3198zm-0.51764 1.9319c2.1339 0.57177 3.4002 2.7651 2.8284 4.899l-1.2739 4.7543 0.68692 1.3001-9.6593-2.5882 1.2449-0.78245 1.2739-4.7543c0.57177-2.1339 2.7651-3.4002 4.899-2.8284zm-0.25882 0.96593c-1.6004-0.42883-3.2454 0.52092-3.6742 2.1213l-1.2941 4.8296 5.7956 1.5529 1.2941-4.8296c0.42882-1.6004-0.52092-3.2454-2.1213-3.6742zm-6.7107 9.5899c0.18474 0.68948 0.72295 1.2282 1.4122 1.4137 0.68942 0.18359 1.4244-0.01395 1.9289-0.51843z" fill="#5d656b" stroke-linecap="round" stroke-width="3"/>
</svg>
