<svg width="16" height="16" version="1.1" xmlns="http://www.w3.org/2000/svg">
 <path d="m7.496 0c-1.409 0-2.496 0.842-2.496 2.537v5.924c0 0.272 0.037 0.514 0.09 0.742l0.908-0.908v-5.758c0-0.634 0.177-0.959 0.408-1.178 0.232-0.218 0.585-0.36 1.09-0.36s0.856 0.141 1.088 0.36c0.232 0.22 0.408 0.545 0.408 1.178v2.764l0.998-0.998v-1.766c0-1.692-1.085-2.537-2.494-2.537zm6.756 1.252-13 13 0.496 0.496 2.848-2.848c0.67875 0.58182 1.5159 0.94747 2.404 1.05v2.073c-0.68332 0.05419-1.3561 0.20086-2 0.436v0.541h5v-0.541c-0.64489-0.23126-1.3173-0.37716-2-0.434v-2.075c2.252-0.25 4-2.128 4-4.449v-1.501h-1v1.5c0.0013 1.7378-1.279 3.2104-3 3.451h-1c-0.62628-0.089989-1.2163-0.34854-1.707-0.748l0.662-0.662c0.42 0.302 0.948 0.459 1.541 0.459 1.41 0 2.494-0.846 2.494-2.54v-1.953l4.758-4.758zm-11.252 5.748v1.5c0 0.806 0.222 1.552 0.592 2.201l0.742-0.742c-0.21676-0.45603-0.33077-0.95408-0.334-1.459v-1.5zm5.992 0.504v0.957c0 0.633-0.176 0.958-0.408 1.178-0.232 0.219-0.583 0.363-1.088 0.363-0.343 0-0.61-0.07-0.822-0.18z" color="#000000" fill="#5d656b" opacity=".5" overflow="visible"/>
</svg>
