<svg xmlns="http://www.w3.org/2000/svg" width="16" height="16" enable-background="new"><defs><filter id="a" color-interpolation-filters="sRGB"><feBlend mode="darken" in2="BackgroundImage"/></filter></defs><g fill="#5d656b"><path d="M10 .469V3H7v1h4V2.531L14.406 5.5 12.75 7.063c.15.28.25.596.25.937 0 .042.003.083 0 .125L16 5.5l-5.188-4.375zM10 10v.531l.656-.531zM6 4.469l-.813.656L0 9.5l5.188 4.375.812.656V12h3v-1H5V12.469L1.594 9.5 3 8.125C2.997 8.083 3 8.042 3 8c0-1.108.892-2 2-2h1v-.5z" color="#000" opacity=".35"/><path d="M5 7a1 1 0 1 0 0 2 1 1 0 0 0 0-2zm3 0a1 1 0 1 0 0 2 1 1 0 0 0 0-2zm3 0a1 1 0 1 0 0 2 1 1 0 0 0 0-2z"/></g></svg>