<svg xmlns="http://www.w3.org/2000/svg" width="16.028" height="16" enable-background="new"><defs><filter id="a" color-interpolation-filters="sRGB"><feBlend mode="darken" in2="BackgroundImage"/></filter></defs><g fill="#5d656b"><path style="marker:none" d="M8.031 2C4.997 2 2.265 3.078 0 4.75l8.031 8.75L16 4.719C13.743 3.065 11.042 2 8.031 2zM7.97 3c2.393 0 4.524.836 6.437 2.031L13 6.563c.031.138.031.29.031.437 0 1.093-.907 2-2 2-.09 0-.165-.018-.25-.031L7.97 12.03 5.187 8.97c-.054.005-.099.031-.156.031a2.015 2.015 0 0 1-1.969-2.375v-.031L1.594 5c1.9-1.179 4.005-2 6.375-2z" color="#000" overflow="visible" opacity=".35" enable-background="accumulate"/><path d="M5.031 6a1 1 0 1 0 0 2 1 1 0 0 0 0-2zm3 0a1 1 0 1 0 0 2 1 1 0 0 0 0-2zm3 0a1 1 0 1 0 0 2 1 1 0 0 0 0-2z"/></g></svg>