<svg width="16" height="16" version="1.1" xmlns="http://www.w3.org/2000/svg">
 <path d="m8.0312 2c-0.72537 0-1.4325 0.066974-2.1211 0.18359l0.53906 0.93555c0.49492-0.074094 0.99976-0.11914 1.5195-0.11914h0.0019531c2.393 0 4.5225 0.83625 6.4355 2.0312l-4.209 4.5781 0.53125 0.91992 5.2715-5.8105c-2.257-1.654-4.9578-2.7188-7.9688-2.7188zm-3.1504 0.40234c-1.7887 0.45662-3.4314 1.2777-4.8809 2.3477l8.0312 8.75 1.9902-2.1934-0.5332-0.92578-1.5176 1.6504-6.377-7.0312c1.1875-0.73688 2.4561-1.3336 3.8184-1.6777l-0.53125-0.91992z" color="#000000" fill="#5d656b" opacity=".35"/>
 <rect transform="rotate(-30)" x="2.0263" y="2.4904" width="1" height="16" rx="0" ry="0" fill="#5d656b"/>
</svg>
