<svg width="16" height="16" version="1.1" xmlns="http://www.w3.org/2000/svg">
 <g color="#000000" fill="#5d656b">
  <path d="m8.0312 2c-3.034 0-5.7662 1.078-8.0312 2.75l8.0312 8.75 0.98242-1.084c0.039757-0.55238 0.44336-1.0752 0.78906-1.248 0.10277-0.05137 0.10613-0.022005 0.19727-0.046875v-0.089844c0-1.6515 1.3445-3.0312 3-3.0312 0.006697 0 0.012844 0.0019081 0.019531 0.0019531l2.9805-3.2832c-2.257-1.654-4.9578-2.7188-7.9688-2.7188zm-0.0625 1h0.0019531c2.393 0 4.5225 0.83625 6.4355 2.0312l-6.4355 7-6.377-7.0312c1.9-1.179 4.005-2 6.375-2z"/>
  <path d="m7.969 7.813c-0.74 0-1.425 0.16-2.063 0.437l2.063 2.281 2.093-2.25c-0.65-0.287-1.338-0.469-2.093-0.469z" overflow="visible"/>
 </g>
 <g fill="#5d656b">
  <path d="M13 9c-1.108 0-2 .91-2 2.031V12h-.5s-.5 0-.5.5v3s0 .5.5.5h5c.5 0 .5-.5.5-.5v-3c0-.5-.5-.5-.5-.5H15v-.969C15 9.911 14.108 9 13 9zm0 1c.554 0 1 .442 1 1v1h-2v-1c0-.558.446-1 1-1z"/>
 </g>
</svg>
