<svg xmlns="http://www.w3.org/2000/svg" height="16" width="16" enable-background="new"><defs><filter id="a" color-interpolation-filters="sRGB"><feBlend in2="BackgroundImage" mode="darken"/></filter></defs><g transform="translate(-340 328.003)" fill="#5d656b"><path d="M350.5-325.003c-.277 0-.5.223-.5.5v6.5h2v-6.5c0-.277-.223-.5-.5-.5z" style="marker:none" color="#5d656b" overflow="visible" opacity=".35" enable-background="accumulate"/><rect height="9" ry=".5" style="marker:none" width="2" x="347" y="-322.003" color="#5d656b" overflow="visible" opacity=".35" enable-background="accumulate"/><rect height="6" ry=".5" style="marker:none" width="2" x="344" y="-319.003" color="#5d656b" overflow="visible" opacity=".35" enable-background="accumulate"/><rect height="3" ry=".5" style="marker:none" width="2" x="341" y="-316.003" color="#5d656b" overflow="visible" opacity=".35" enable-background="accumulate"/><path d="M353.5-328.003c-.277 0-.5.223-.5.5v9.5h2v-9.5c0-.277-.223-.5-.5-.5h-1z" style="marker:none" color="#5d656b" overflow="visible" opacity=".35" enable-background="accumulate"/><path d="M351-317.003v1c0 .276.1.537.281.718l.782.782-.782.78a1.015 1.015 0 0 0-.28.72v1h1c.275 0 .537-.1.718-.282l.781-.78.781.78c.181.181.443.282.72.282h1v-1c0-.276-.101-.538-.282-.72l-.781-.78.78-.782c.182-.18.282-.442.282-.718v-1h-1c-.276 0-.538.1-.719.28l-.78.782-.782-.781a1.015 1.015 0 0 0-.719-.281h-1z" enable-background="new"/></g></svg>