<svg xmlns="http://www.w3.org/2000/svg" width="16" height="16" enable-background="new"><defs><filter id="a" color-interpolation-filters="sRGB"><feBlend mode="darken" in2="BackgroundImage"/></filter></defs><path style="marker:none" d="M3 1S1 1 1 3v10s0 2 2 2h10s2 0 2-2V3s0-1.888-2-1.906L3 1zm5.031 3c1.708 0 3.243.556 4.719 1.313l-3.656 4.03A1.998 1.998 0 0 0 8 9c-.385 0-.755.118-1.063.313L3.25 5.342C4.742 4.574 6.302 4 8.031 4zM8 10a1 1 0 1 1 0 2 1 1 0 0 1 0-2z" color="#000" overflow="visible" fill="#f57900" stroke-width="4" enable-background="accumulate"/></svg>