<svg xmlns="http://www.w3.org/2000/svg" width="16.028" height="16" enable-background="new"><defs><filter id="a" color-interpolation-filters="sRGB"><feBlend mode="darken" in2="BackgroundImage"/></filter></defs><path style="marker:none" d="M8.031 2c1.005 0 1.893.514 2.438 1.281 1.412.346 2.714.986 3.937 1.75l-2.375 2.594v1.469L16 4.719C13.743 3.065 11.042 2 8.031 2zm0 0C4.997 2 2.265 3.078 0 4.75l4.031 4.406V7.687L1.594 5c1.249-.775 2.588-1.384 4.031-1.719C6.171 2.522 7.034 2 8.031 2zm0 1c-1.108 0-2 .91-2 2.031V6h-1v4h6V6h-1v-.969c0-1.12-.892-2.031-2-2.031zm0 1c.554 0 1 .442 1 1v1h-2V5c0-.558.446-1 1-1zM5.75 11l2.281 2.5 2.281-2.5H8.906l-.937 1.031L7.03 11H5.75z" color="#000" overflow="visible" fill="#5d656b" enable-background="accumulate"/></svg>