<svg width="16" height="16" version="1.1" xmlns="http://www.w3.org/2000/svg">
 <path d="m8.031 2c-3.034 0-5.766 1.078-8.031 2.75l8.031 8.75 7.969-8.781c-2.257-1.654-4.958-2.719-7.969-2.719zm-0.061 1c2.393 0 4.524 0.836 6.437 2.031l-6.437 7-6.376-7.031c1.9-1.179 4.005-2 6.375-2z" color="#000000" fill="#5d656b" overflow="visible"/>
 <path d="m6.5859 4.0859c-0.12781 0-0.25558 0.04855-0.35352 0.14648-0.19587 0.19587-0.19587 0.51116 0 0.70703l1.0605 1.0605-1.0605 1.0605c-0.19587 0.19587-0.19587 0.51116 0 0.70703 0.19587 0.19587 0.51116 0.19587 0.70703 0l1.0605-1.0605 1.0605 1.0605c0.19587 0.19587 0.51116 0.19587 0.70703 0 0.19587-0.19587 0.19587-0.51116 0-0.70703l-1.0605-1.0605 1.0605-1.0605c0.19587-0.19587 0.19587-0.51116 0-0.70703-0.19587-0.19587-0.51116-0.19587-0.70703 0l-1.0605 1.0605-1.0605-1.0605c-0.097934-0.097934-0.22571-0.14648-0.35352-0.14648z" fill="#5d656b" fill-rule="evenodd" opacity=".5" style="paint-order:fill markers stroke"/>
</svg>
