<svg width="16" height="16" version="1.1" xmlns="http://www.w3.org/2000/svg">
 <path class="warning" d="m7 3v4l0.25 2h1.5l0.25-2v-4zm0 7v2h2v-2z" fill="#f55"/>
 <path d="m2 1v8c0 2.072 1.575 3.522 2.937 4.469 1.363 0.947 2.688 1.468 2.688 1.468l0.375 0.125 0.375-0.125s1.33-0.544 2.687-1.5c1.359-0.955 2.938-2.393 2.938-4.437v-8zm1 1h10v7c0 2.964-5 5-5 5s-5-1.95-5-5z" color="#5d656b" fill="#5d656b" font-family="Sans" font-weight="400" overflow="visible" stroke-width="2" style="text-decoration-line:none;text-indent:0;text-transform:none"/>
</svg>
