<svg width="16" height="16" version="1.1" xmlns="http://www.w3.org/2000/svg">
 <g fill="#5d656b">
  <g color="#000000">
   <path d="m8.0332 2c-3.034 0-5.7643 1.078-8.0293 2.75l8.0293 8.75 0.98047-1.0801c0.038098-0.55381 0.44255-1.0787 0.78906-1.252 0.10277-0.05137 0.10613-0.022005 0.19727-0.046875v-0.089844c0-1.6515 1.3445-3.0312 3-3.0312 0.008023 0 0.015429 0.0018885 0.023438 0.0019531l2.9805-3.2832c-2.257-1.654-4.9597-2.7188-7.9707-2.7188zm-0.060547 1c2.393 0 4.5225 0.83625 6.4355 2.0312l-6.4355 7-6.375-7.0312c1.9-1.179 4.005-2 6.375-2z"/>
   <path d="m7.972 6.406c-1.12 0-2.148 0.258-3.094 0.719l3.094 3.406 3.093-3.375c-0.948-0.461-1.973-0.75-3.093-0.75z" overflow="visible"/>
  </g>
  <path d="m13 9c-1.108 0-2 0.91-2 2.031v0.969h-0.5s-0.5 0-0.5 0.5v3s0 0.5 0.5 0.5h5s0.5 0 0.5-0.5v-3c0-0.5-0.5-0.5-0.5-0.5h-0.5v-0.969c0-1.12-0.892-2.031-2-2.031zm0 1c0.554 0 1 0.442 1 1v1h-2v-1c0-0.558 0.446-1 1-1z"/>
  <path d="m13 9c-1.108 0-2 0.91-2 2.031v0.969h-0.5s-0.5 0-0.5 0.5v3s0 0.5 0.5 0.5h5c0.5 0 0.5-0.5 0.5-0.5v-3c0-0.5-0.5-0.5-0.5-0.5h-0.5v-0.969c0-1.12-0.892-2.031-2-2.031zm0 1c0.554 0 1 0.442 1 1v1h-2v-1c0-0.558 0.446-1 1-1z"/>
 </g>
</svg>
