<svg width="16" height="16" version="1.1" xmlns="http://www.w3.org/2000/svg">
 <g fill="#5d656b">
  <path d="M13 9c-1.108 0-2 .91-2 2.031V12h-.5s-.5 0-.5.5v3c0 .5.5.5.5.5h5s.5 0 .5-.5v-3c0-.5-.5-.5-.5-.5H15v-.969C15 9.911 14.108 9 13 9zm0 1c.554 0 1 .442 1 1v1h-2v-1c0-.558.446-1 1-1z"/>
  <g color="#000000">
   <path d="m8.0312 2c-3.034 0-5.7662 1.078-8.0312 2.75l8.0312 8.75 0.98242-1.084c0.039757-0.55238 0.44336-1.0752 0.78906-1.248 0.10277-0.05137 0.10613-0.022005 0.19727-0.046875v-0.089844c0-1.6515 1.3445-3.0312 3-3.0312 0.006697 0 0.012844 0.0019081 0.019531 0.0019531l2.9805-3.2832c-2.257-1.654-4.9578-2.7188-7.9688-2.7188zm-0.0019531 1h0.0019531c2.37 0 4.474 0.821 6.375 2l-6.375 7-6.4375-6.9688c1.913-1.195 4.0435-2.0312 6.4355-2.0312z"/>
   <path d="M 8.031,4 C 6.301,4 4.742,4.573 3.25,5.344 L 8.031,10.5 12.75,5.312 C 11.274,4.556 9.74,4 8.031,4 Z" overflow="visible"/>
  </g>
  <path d="m13 9c-1.108 0-2 0.91-2 2.031v0.969h-0.5s-0.5 0-0.5 0.5v3s0 0.5 0.5 0.5h5c0.5 0 0.5-0.5 0.5-0.5v-3c0-0.5-0.5-0.5-0.5-0.5h-0.5v-0.969c0-1.12-0.892-2.031-2-2.031zm0 1c0.554 0 1 0.442 1 1v1h-2v-1c0-0.558 0.446-1 1-1z"/>
 </g>
</svg>
