<svg xmlns="http://www.w3.org/2000/svg" width="16" height="16" enable-background="new"><defs><filter id="a" color-interpolation-filters="sRGB"><feBlend mode="darken" in2="BackgroundImage"/></filter></defs><g fill="#5d656b"><path style="marker:none" d="M7.846 3c1.643-.092 3.096 1.17 3.188 2.813 0 1.4-.378 1.921-1.594 2.843-.191.144-.326.25-.375.313-.05.062-.031.033-.031.031.007.528-.472 1-1 1-.529 0-1.007-.472-1-1 0-.502.224-.943.468-1.25a3.82 3.82 0 0 1 .72-.688c.203-.16.46-.384.687-.656.093-.112.129-.307.125-.437v-.032A.988.988 0 0 0 7.97 5c-.563.032-.969.437-.937 1h-2c-.092-1.642 1.17-2.908 2.812-3zm.188 8a1 1 0 1 1 0 2 1 1 0 0 1 0-2z" color="#5d656b" overflow="visible" stroke-width="2"/><path style="marker:none" d="M8.031 2c1.214.009 2.319.585 3.063 1.469 1.174.355 2.27.885 3.312 1.531l-5.093 5.594c.266.23.472.52.593.844L16 4.718C13.743 3.066 11.042 2 8.031 2zm-.375.031C4.773 2.117 2.171 3.148 0 4.75l6.156 6.687c.121-.324.328-.612.594-.843L1.594 5.03A14.089 14.089 0 0 1 4.875 3.5a4.005 4.005 0 0 1 2.781-1.469zm-3.5 2.875a16.75 16.75 0 0 0-.906.438l.781.843v-.125a3.658 3.658 0 0 1 .125-1.156zm7.719 0c.079.274.14.548.156.844v.062c0 .11-.026.207-.03.313l.75-.813c-.287-.146-.585-.277-.876-.406zM4.781 7l1.313 1.406a3.16 3.16 0 0 1 .625-1.281c.043-.055.08-.075.125-.125H5.03z" color="#000" overflow="visible" opacity=".35" enable-background="accumulate"/></g></svg>