<svg width="16" height="16" version="1.1" xmlns="http://www.w3.org/2000/svg">
 <path d="m8.0312 2c-3.034 0-5.7662 1.078-8.0312 2.75l8.0312 8.75 0.98242-1.084c0.039757-0.55238 0.44336-1.0752 0.78906-1.248 0.10277-0.05137 0.10613-0.02201 0.19727-0.04687v-0.08984c0-1.6515 1.3445-3.0312 3-3.0312 0.0067 0 0.01284 0.00191 0.01953 0.00195l2.9805-3.2832c-2.257-1.654-4.9578-2.7188-7.9688-2.7188zm-0.0625 1h0.00195c2.393 0 4.5225 0.83625 6.4355 2.0312l-6.4355 7-6.377-7.0312c1.9-1.179 4.005-2 6.375-2z" color="#000000" fill="#5d656b"/>
 <g fill="#5d656b">
  <path d="m13 9c-1.108 0-2 0.91-2 2.031v0.969h-0.5s-0.5 0-0.5 0.5v3s0 0.5 0.5 0.5h5c0.5 0 0.5-0.5 0.5-0.5v-3c0-0.5-0.5-0.5-0.5-0.5h-0.5v-0.969c0-1.12-0.892-2.031-2-2.031zm0 1c0.554 0 1 0.442 1 1v1h-2v-1c0-0.558 0.446-1 1-1z"/>
 </g>
</svg>
