<svg width="16" height="16" version="1.1" xmlns="http://www.w3.org/2000/svg">
 <path d="m8 1c-0.59131 5.248e-4 -1.053 0.51123-0.99414 1.0996-2.3334 0.4686-4.0107 2.5204-4.0059 4.9004v4.5l-2 2v0.5h14v-0.5l-2-2v-3.6309c-0.32665 0.084316-0.66265 0.12697-1 0.12695v3.9258l1 1.0781h-10l1-1.0781v-4.9219c0-2.2091 1.7909-4 4-4 0.043649 0.00124 0.087275 0.00319 0.13086 0.00586 0.1393-0.54383 0.39151-1.0523 0.74023-1.4922-0.17601-0.31624-0.50917-0.5127-0.87109-0.51367zm-1.7305 14c0.35699 0.61832 1.0165 0.99945 1.7305 1 0.71326-0.0013 1.3719-0.3823 1.7285-1z" fill="#5d656b" stroke-linecap="round" stroke-width="3"/>
 <path d="m15 3.9993a3 3 0 0 1-5.9999 0 3 3 0 1 1 5.9999 0z" color="#bebebe" fill="#339fff" overflow="visible" stroke-width="1.2" style="isolation:auto;mix-blend-mode:normal"/>
</svg>
