<svg xmlns="http://www.w3.org/2000/svg" width="16" height="16" enable-background="new"><defs><filter id="a" color-interpolation-filters="sRGB"><feBlend mode="darken" in2="BackgroundImage"/></filter></defs><g color="#5d656b" font-weight="400" font-family="Andale Mono" fill="#5d656b"><path style="line-height:normal;text-indent:0;text-align:start;text-decoration-line:none;text-transform:none;marker:none" d="M8 5C6.344 5 5 6.344 5 8s1.344 3 3 3 3-1.344 3-3-1.344-3-3-3z" overflow="visible" stroke-width="1.781"/><path style="line-height:normal;-inkscape-font-specification:Sans;text-indent:0;text-align:start;text-decoration-line:none;text-transform:none;block-progression:tb;marker:none" d="M8 1C4.142 1 1 4.142 1 8s3.142 7 7 7 7-3.142 7-7-3.142-7-7-7zm0 1c3.316 0 6 2.684 6 6s-2.684 6-6 6-6-2.684-6-6 2.684-6 6-6z" overflow="visible" enable-background="accumulate"/></g></svg>