<svg width="16" height="16" version="1.2" xmlns="http://www.w3.org/2000/svg">
 <path d="m8 2c-2.7927 0-5.1278 1.9165-5.7969 4.5h1.4844c0.61976-1.7843 2.3178-3.0625 4.3125-3.0625 1.3873 0 2.6314 0.61695 3.4688 1.5938l-1.9688 1.9688h4.5v-4.5l-1.5156 1.5156c-1.0956-1.2394-2.6996-2.0156-4.4844-2.0156zm-6 7v4.5l1.7656-1.7656c1.0826 1.0897 2.5762 1.7656 4.2344 1.7656 2.7927 0 5.1278-1.9165 5.7969-4.5h-1.4844c-0.61976 1.7843-2.3178 3.0625-4.3125 3.0625-1.2588 0-2.3927-0.51963-3.2188-1.3438l1.7188-1.7188z" color="#000000" fill="#5d656b"/>
</svg>
