<svg xmlns="http://www.w3.org/2000/svg" width="16" height="16.003" enable-background="new"><defs><filter id="a" color-interpolation-filters="sRGB"><feBlend mode="darken" in2="BackgroundImage"/></filter></defs><path style="marker:none" d="M7.969.003a2 2 0 0 0-2 2h-4v13h9v-1h-8v-11h3v1s-1 0-1 1h6c0-.75-.563-.953-.844-1h-.156v-1h3v3h1v-4h-4c0-.138-.005-.276-.031-.406A2.008 2.008 0 0 0 7.968.003zm0 1c.414 0 .754.266.906.625a.94.94 0 0 1 .094.375 1 1 0 1 1-1-1z" color="#000" overflow="visible" fill="#5d656b" stroke-width="4" enable-background="accumulate"/><path style="marker:none" d="M11.969 7.003v4l.25 2h1.5l.25-2v-4zm0 7v2h2v-2z" class="warning" color="#5d656b" overflow="visible" fill="#f57900" stroke-width="2" enable-background="accumulate"/></svg>