<svg width="16" height="16" version="1.1" xmlns="http://www.w3.org/2000/svg">
 <path d="m2 1c-0.822 0-1.5 0.678-1.5 1.5v11c0 0.822 0.678 1.5 1.5 1.5h8.002c-0.00305-0.35441 0.09238-0.6961 0.26367-1h-1.7559v-2.0039h1.4902v-1h-8.5v-8.4961c0-0.286 0.215-0.5 0.5-0.5h12c0.286 0 0.5 0.214 0.5 0.5v7.5664c0.16408-0.039636 0.33139-0.066406 0.5-0.066406h0.5v-7.5c0-0.822-0.677-1.5-1.5-1.5zm-0.5 10.996h6.0098v2.0039h-5.5098c-0.27897 0.0069-0.50695-0.22103-0.5-0.5z" color="#000000" fill="#5d656b" opacity=".35" style="font-feature-settings:normal;font-variant-alternates:normal;font-variant-caps:normal;font-variant-ligatures:normal;font-variant-numeric:normal;font-variant-position:normal;isolation:auto;mix-blend-mode:normal;shape-padding:0;text-decoration-color:#000000;text-decoration-line:none;text-decoration-style:solid;text-indent:0;text-orientation:mixed;text-transform:none"/>
 <path d="M11 11v1c0 .276.1.538.281.719l.781.781-.78.781A1.015 1.015 0 0 0 11 15v1h1c.276 0 .538-.1.719-.281l.781-.781.781.78c.181.182.443.282.719.282h1v-1c0-.276-.1-.538-.281-.719l-.782-.781.782-.781c.18-.181.281-.443.281-.719v-1h-1c-.276 0-.538.1-.719.281l-.781.781-.781-.78A1.015 1.015 0 0 0 12 11h-1z" fill="#5d656b"/>
</svg>
