<svg width="16" height="16" enable-background="new" version="1.1" xmlns="http://www.w3.org/2000/svg">
 <path d="m3 1c-1.108 0-2 0.892-2 2v6c0 1.108 0.892 2 2 2h1v4l4-4h5c1.108 0 2-0.892 2-2v-6c0-1.108-0.892-2-2-2zm0 1h10c0.554 0 1 0.446 1 1v6c0 0.554-0.446 1-1 1h-10c-0.554 0-1-0.446-1-1v-6c0-0.554 0.446-1 1-1z" fill="#ff7f2a" stroke-linecap="square" stroke-width="2"/>
 <path d="m6.5 3c-0.277 0-0.5 0.223-0.5 0.5v4c0 0.277 0.223 0.5 0.5 0.5h4c0.277 0 0.5-0.223 0.5-0.5s-0.223-0.5-0.5-0.5h-3.5v-3.5c0-0.277-0.223-0.5-0.5-0.5z" fill="#ff7f2a" stroke-linecap="square" stroke-width="2"/>
</svg>
