<svg width="16" height="16" enable-background="new" version="1.1" xmlns="http://www.w3.org/2000/svg">
 <path d="m3 1c-1.108 0-2 0.892-2 2v6c0 1.108 0.892 2 2 2h1v4l4-4h5c1.108 0 2-0.892 2-2v-6c0-1.108-0.892-2-2-2h-10zm0 1h10c0.554 0 1 0.446 1 1v6c0 0.554-0.446 1-1 1h-10c-0.554 0-1-0.446-1-1v-6c0-0.554 0.446-1 1-1z" fill="#56dc8d" stroke-linecap="square" stroke-width="2"/>
 <path d="m10.219 4.9335c-0.06446 0.00808-0.12753 0.027875-0.1875 0.0625l-3.0312 1.75-0.75-1.2988c-0.1385-0.23989-0.4437-0.32209-0.68359-0.18359-0.23989 0.1385-0.32209 0.4437-0.18359 0.68359l1 1.7324c0.1385 0.23989 0.4437 0.32209 0.68359 0.18359l3.4648-2c0.23989-0.1385 0.32209-0.4437 0.18359-0.68359-0.10388-0.17992-0.30272-0.27032-0.49609-0.24609z" fill="#56dc8d" stroke-linecap="square" stroke-width="2"/>
</svg>
