<svg xmlns="http://www.w3.org/2000/svg" width="64" height="64" version="1"><path d="M13 14c-1 0-1 1-1 1v34s0 1 1 1h7v-6h12v6h27s1 0 1-1V15c0-1-1-1-1-1z" fill="#4c5263" stroke="#252830" stroke-opacity=".784"/><rect width="12" height="12" x="30" y="24" rx="2.4" ry="2.4" fill="#6b7486"/><path d="M34 44h4v8h-4zm6 0h4v8h-4zm6 0h4v8h-4zm6 0h4v8h-4z" fill="#d6aa24" stroke="#7f6515" stroke-opacity=".706" paint-order="markers stroke fill" stroke-linecap="round" stroke-linejoin="round"/><path d="M32 21h2v4h-2zm6 0h2v4h-2zm-6 14h2v4h-2zm6 0h2v4h-2zm7-9v2h-4v-2zm0 6v2h-4v-2zm-14-6v2h-4v-2zm0 6v2h-4v-2z" stroke="#424655" stroke-opacity=".588" paint-order="markers stroke fill" fill="#fff"/><path d="M4 8v4h4v42h4V8H4z" fill="#fff" stroke="#9da2b3" stroke-width="2" stroke-linecap="round" stroke-linejoin="round" stroke-opacity=".784" paint-order="markers stroke fill"/><path d="M32 21h2v4h-2zm6 0h2v4h-2zm-6 14h2v4h-2zm6 0h2v4h-2zm7-9v2h-4v-2zm0 6v2h-4v-2zm-14-6v2h-4v-2zm0 6v2h-4v-2z" stroke-opacity=".588" paint-order="markers stroke fill" fill="#fff"/><path d="M4 8v4h4v42h4V8H4z" fill="#fff" paint-order="markers stroke fill"/></svg>