<svg xmlns="http://www.w3.org/2000/svg" width="64" height="64" version="1"><g transform="translate(166.839 55)"><path d="M-149.339-26v1.5a14.466 14.466 0 0 0 13 14.424V-1h-7c-1.108 0-2 .892-2 2s.892 2 2 2h17c1.108 0 2-.892 2-2s-.892-2-2-2h-7v-9.076c7.323-.746 13-6.898 13-14.424V-26h-3v1.5c0 5.861-4.344 10.66-10 11.393v-6.08c0-1.108-.669-2-1.5-2s-1.5.892-1.5 2v6.08a11.465 11.465 0 0 1-10-11.393V-26z" fill="#6c748c" stroke="#242832" stroke-opacity=".784"/><path d="M-134.839-48.5c-4.44 0-8 3.56-8 8v16c0 4.44 3.56 8 8 8 4.44 0 8-3.56 8-8v-16c0-4.44-3.56-8-8-8z" fill="#fafafa"/><rect ry="8.5" rx="8.5" y="-49" x="-143.339" height="33" width="17" fill="none" stroke="#4f6698" stroke-opacity=".267"/><rect ry="2" rx="8" y="-47.5" x="-135.839" height="2" width="2" fill="#d5d5d5"/><rect ry="2" rx="8" y="-43.5" x="-135.839" height="2" width="2" fill="#d5d5d5"/><rect ry="2" rx="8" y="-39.5" x="-135.839" height="2" width="2" fill="#d5d5d5"/><rect ry="2" rx="8" y="-35.5" x="-135.839" height="2" width="2" fill="#d5d5d5"/><rect ry="2" rx="8" y="-31.5" x="-135.839" height="2" width="2" fill="#d5d5d5"/><rect ry="2" rx="8" y="-27.5" x="-135.839" height="2" width="2" fill="#d5d5d5"/><rect ry="2" rx="8" y="-23.5" x="-135.839" height="2" width="2" fill="#d5d5d5"/><rect ry="2" rx="8" y="-19.5" x="-135.839" height="2" width="2" fill="#d5d5d5"/><rect ry="2" rx="8" y="-45.5" x="-138.839" height="2" width="2" fill="#d5d5d5"/><rect ry="2" rx="8" y="-41.5" x="-138.839" height="2" width="2" fill="#d5d5d5"/><rect ry="2" rx="8" y="-37.5" x="-138.839" height="2" width="2" fill="#d5d5d5"/><rect ry="2" rx="8" y="-33.5" x="-138.839" height="2" width="2" fill="#d5d5d5"/><rect ry="2" rx="8" y="-29.5" x="-138.839" height="2" width="2" fill="#d5d5d5"/><rect ry="2" rx="8" y="-25.5" x="-138.839" height="2" width="2" fill="#d5d5d5"/><rect ry="2" rx="8" y="-45.5" x="-132.839" height="2" width="2" fill="#d5d5d5"/><rect ry="2" rx="8" y="-41.5" x="-132.839" height="2" width="2" fill="#d5d5d5"/><rect ry="2" rx="8" y="-37.5" x="-132.839" height="2" width="2" fill="#d5d5d5"/><rect ry="2" rx="8" y="-33.5" x="-132.839" height="2" width="2" fill="#d5d5d5"/><rect ry="2" rx="8" y="-29.5" x="-132.839" height="2" width="2" fill="#d5d5d5"/><rect ry="2" rx="8" y="-25.5" x="-132.839" height="2" width="2" fill="#d5d5d5"/><rect ry="2" rx="8" y="-43.5" x="-141.839" height="2" width="2" fill="#d5d5d5"/><rect ry="2" rx="8" y="-39.5" x="-141.839" height="2" width="2" fill="#d5d5d5"/><rect ry="2" rx="8" y="-35.5" x="-141.839" height="2" width="2" fill="#d5d5d5"/><rect ry="2" rx="8" y="-31.5" x="-141.839" height="2" width="2" fill="#d5d5d5"/><rect ry="2" rx="8" y="-27.5" x="-141.839" height="2" width="2" fill="#d5d5d5"/><rect ry="2" rx="8" y="-23.5" x="-141.839" height="2" width="2" fill="#d5d5d5"/><rect ry="2" rx="8" y="-43.5" x="-129.839" height="2" width="2" fill="#d5d5d5"/><rect ry="2" rx="8" y="-39.5" x="-129.839" height="2" width="2" fill="#d5d5d5"/><rect ry="2" rx="8" y="-35.5" x="-129.839" height="2" width="2" fill="#d5d5d5"/><rect ry="2" rx="8" y="-31.5" x="-129.839" height="2" width="2" fill="#d5d5d5"/><rect ry="2" rx="8" y="-27.5" x="-129.839" height="2" width="2" fill="#d5d5d5"/><rect ry="2" rx="8" y="-23.5" x="-129.839" height="2" width="2" fill="#d5d5d5"/><rect ry="2" rx="8" y="-21.5" x="-132.839" height="2" width="2" fill="#d5d5d5"/><rect ry="2" rx="8" y="-21.5" x="-138.839" height="2" width="2" fill="#d5d5d5"/></g></svg>