<svg xmlns="http://www.w3.org/2000/svg" width="64" height="64" version="1"><rect ry=".5" rx=".5" height="64" width="64" fill="none"/><path d="M54.5 32.5v7.014c-2.043-3.027-5.416-5.014-9-5.014v23c5.771 0 11-5.149 11-11.5 0-.51-.046-1.008-.111-1.5h.111v-12zm-47 0v12h.111c-.065.492-.111.99-.111 1.5 0 6.351 5.229 11.5 11 11.5v-23c-3.584 0-6.957 1.987-9 5.014V32.5z" fill="#4c5263" stroke="#272a2f" stroke-opacity=".784"/><path d="M32.311 12c-5.733-.083-11.757 3.137-15.811 7.15l2.719 2.196A18 18 0 0 1 32 16a18 18 0 0 1 12.787 5.342l2.713-2.191C43.598 15.288 37.829 12.08 32.311 12z" fill="#6e768e"/><path d="M32 6.5C17.37 6.5 5.5 18.37 5.5 33v.5h6V33c0-11.328 9.172-20.5 20.5-20.5S52.5 21.672 52.5 33v.5h6V33C58.5 18.37 46.63 6.5 32 6.5z" style="line-height:normal;text-indent:0;text-align:start;text-decoration-line:none;text-decoration-style:solid;text-decoration-color:#000;text-transform:none;white-space:normal;isolation:auto;mix-blend-mode:normal;solid-color:#000;solid-opacity:1" color="#000" font-weight="400" font-family="sans-serif" overflow="visible" fill="#575e71"/><path d="M32 6C17.1 6 5 18.1 5 33v1h7v-1c0-11.058 8.942-20 20-20s20 8.942 20 20v1h7v-1C59 18.1 46.9 6 32 6zm0 1a26 26 0 0 1 26 26h-5a21 21 0 0 0-21-21 21 21 0 0 0-21 21H6A26 26 0 0 1 32 7z" style="line-height:normal;text-indent:0;text-align:start;text-decoration-line:none;text-decoration-style:solid;text-decoration-color:#000;text-transform:none;white-space:normal;isolation:auto;mix-blend-mode:normal;solid-color:#000;solid-opacity:1" color="#000" font-weight="400" font-family="sans-serif" overflow="visible" fill="#242832" fill-opacity=".784"/><rect rx="2" ry="1" y="33" x="18" height="26" width="4" fill="#6e768e"/><rect rx="2" ry="1" y="33" x="42" height="26" width="4" fill="#6e768e"/></svg>