<svg xmlns="http://www.w3.org/2000/svg" width="64" height="64" version="1"><g transform="matrix(1.79955 0 0 1.77637 -17.488 -26.115)" stroke-width=".559" color="#000"><path style="marker:none" d="M27.5 20.42c-4.155 0-7.5.575-7.5 1.289V30.3c0-.714 3.345-1.289 7.5-1.289 4.155 0 7.5.575 7.5 1.289v-8.591c0-.714-3.345-1.29-7.5-1.29z" overflow="visible" fill="#f2f2f2"/><rect style="marker:none" y="29" x="20" ry="1.01" rx="9.18" height="17.5" width="15" overflow="visible" fill="#3b9ee8"/><path style="marker:none" d="M34.5 30.029c0-.57-3.122-1.029-7-1.029s-7 .459-7 1.029" overflow="visible" opacity=".5" stroke="#00537d" stroke-linejoin="round" fill="none"/><path style="marker:none" d="M30 20.5v-1.182c0-.454-1.115-.818-2.5-.818s-2.5.364-2.5.818V20.5" overflow="visible" fill="#e6e6e6"/><path style="marker:none" d="M30 20.379V19.28c0-.423-1.115-.76-2.5-.76s-2.5.337-2.5.76v1.099" display="block" overflow="visible" opacity=".3" fill="none" stroke="#000" stroke-miterlimit="7"/><rect style="marker:none" y="20.5" x="20" ry="1" rx="9.18" height="26" width="15" display="block" overflow="visible" opacity=".3" fill="none" stroke="#000" stroke-miterlimit="7"/></g></svg>