<svg xmlns="http://www.w3.org/2000/svg" width="64" height="64" version="1"><path d="M25.71 57.484c-6.098-1.708-9.798-5.96-11.65-13.388-1.007-4.036-1.4-14.851-.722-19.879 1.529-11.34 6.191-16.822 15.29-17.975 2.543-.322 4.236-.323 6.761-.003 9.17 1.162 13.79 6.708 15.344 18.421.538 4.051.214 15.06-.542 18.406-1.688 7.477-4.88 11.812-10.234 13.9-2.82 1.1-11.096 1.4-14.246.518z" fill="#5cb2fb" stroke-width="2" stroke="#0675d2" opacity=".75"/><path d="M25.71 57.484c-6.098-1.708-9.798-5.96-11.65-13.388-1.007-4.036-1.4-14.851-.722-19.879 1.529-11.34 6.191-16.822 15.29-17.975 2.543-.322 4.236-.323 6.761-.003 9.17 1.162 13.79 6.708 15.344 18.421.538 4.051.214 15.06-.542 18.406-1.688 7.477-4.88 11.812-10.234 13.9-2.82 1.1-11.096 1.4-14.246.518z" fill="#5cb2fb"/><path d="M22.967 23l18 18-9 8.5v-35l9 8.5-18 16" fill="none" stroke="#fff" stroke-width="2" stroke-linecap="square"/></svg>