<svg xmlns="http://www.w3.org/2000/svg" width="64" height="64" version="1"><rect width="45" height="56" x="13" y="4" rx="3" ry="3" fill="#4c5263" stroke="#252630" stroke-opacity=".784"/><circle transform="matrix(0 -1 -1 0 0 0)" r="3.5" cy="-50.5" cx="-11.5" fill="#333741"/><circle cx="-11.5" cy="-50.5" r="2.5" transform="matrix(0 -1 -1 0 0 0)" fill="#fff"/><circle transform="matrix(0 -1 -1 0 0 0)" r="12.5" cy="-35.5" cx="-30.5" fill="#333741"/><circle cx="-30.5" cy="-35.5" r="11.5" transform="matrix(0 -1 -1 0 0 0)" fill="#8f96a9"/><circle transform="rotate(-90)" r="9.5" cy="35.5" cx="-30.5" fill="#333741"/><circle cx="-30.5" cy="35.5" r="8.5" transform="rotate(-90)" fill="#007095"/><circle cx="-30.5" cy="-35.5" r="4.5" transform="matrix(0 -1 -1 0 0 0)" fill="#333741"/><rect width="6" height="36" x="7" y="14" rx="1.5" ry="1.385" fill="#414655" stroke="#252630" stroke-opacity=".784"/><circle cx="18.5" cy="50.5" r="1.5" opacity=".5"/><circle cx="24.5" cy="50.5" r="1.5" opacity=".5"/><circle cx="30.5" cy="50.5" r="1.5" opacity=".5"/><circle cx="36.5" cy="50.5" r="1.5" opacity=".5"/><circle cx="21.5" cy="54.5" r="1.5" opacity=".5"/><circle cx="27.5" cy="54.5" r="1.5" opacity=".5"/><circle cx="33.5" cy="54.5" r="1.5" opacity=".5"/><circle transform="matrix(0 -1 -1 0 0 0)" r="1.5" cy="-50.5" cx="-11.5" fill="#dd586a"/><circle transform="matrix(0 -1 -1 0 0 0)" r="3.5" cy="-35.5" cx="-30.5" fill="#49acdc"/></svg>