<svg xmlns="http://www.w3.org/2000/svg" width="64" height="64"><g transform="translate(270.398 69.763)"><path d="M-244.498-26.43c-.776 0-1.4.596-1.4 1.334v10.5l-3.6.333c-.776 0-1.4.596-1.4 1.334v1.666h25v-1.666c0-.738-.625-1.334-1.4-1.334l-3.6-.334v-10.499c0-.738-.625-1.334-1.4-1.334z" fill="none" stroke="#42557f" stroke-opacity=".291"/><path d="M-244.498-25.929c-.52 0-.9.378-.9.834v10.955l-4.078.377h-.022c-.52 0-.9.378-.9.834v1.166h24v-1.166c0-.456-.381-.834-.9-.834h-.024l-4.076-.377v-10.955c0-.456-.38-.834-.9-.834h-12.2z" fill="#fafafa"/><rect y="-64.263" x="-268.898" ry="1.333" rx="1.4" height="40" width="61" fill="#414757" stroke="#252831" stroke-linecap="round" stroke-linejoin="round" stroke-dashoffset=".5" stroke-opacity=".784"/><path fill="#5294e2" fill-rule="evenodd" d="M-266.398-61.763h56v35h-56z"/></g></svg>