<svg width="64" height="64" version="1.1" xmlns="http://www.w3.org/2000/svg" xmlns:xlink="http://www.w3.org/1999/xlink">
 <g>
  <circle cx="32" cy="32" r="27" opacity=".25"/>
  <path d="m32 58v-26h-25.998c0 14.404 11.595 26 25.998 26z" fill="#e1e3e7"/>
  <path d="m32 58v-26h25.998c0 14.404-11.595 26-25.998 26z" fill="#e1e3e7"/>
  <path d="m32 58v-26h25.998c0 14.404-11.595 26-25.998 26z" opacity=".15"/>
  <path d="m32 58v-26h-25.998c0 14.404 11.595 26 25.998 26z" opacity=".1"/>
  <path d="m32 6v26h-25.998c0-14.404 11.595-26 25.998-26z" fill="#e1e3e7"/>
  <path d="m32 6v26h-25.998c0-14.404 11.595-26 25.998-26z" opacity=".05"/>
  <path d="m32 6v26h25.998c0-14.404-11.595-26-25.998-26z" fill="#e1e3e7"/>
  <path d="m32 23a9 9 0 1 0 0 18 9 9 0 0 0 0-18zm0 4a5 5 0 1 1 0 10 5 5 0 0 1 0-10z" fill="#edeff3"/>
 </g>
 <path d="M37 28a1 1 0 1 1 0-2 1 1 0 0 1 0 2zM27 38a1 1 0 1 1 0-2 1 1 0 0 1 0 2zm1-11a1 1 0 1 1-2 0 1 1 0 0 1 2 0zm10 10a1 1 0 1 1-2 0 1 1 0 0 1 2 0z" fill="#808080"/>
 <path d="m32 28a4 4 0 1 0 0 8 4 4 0 0 0 0-8zm0 1a3 3 0 1 1 0 6 3 3 0 0 1 0-6z" fill="#999"/>
 <path d="m33 25a1 1 0 1 1-2 0 1 1 0 0 1 2 0zm7 7a1 1 0 1 1-2 0 1 1 0 0 1 2 0zm-7 7a1 1 0 1 1-2 0 1 1 0 0 1 2 0zm-7-7a1 1 0 1 1-2 0 1 1 0 0 1 2 0z" fill="#b3b3b3"/>
 <path d="M46 40l-8 4-1 2-3 3-10.447 7.6C26.2 57.503 29.039 58 32 58c.218 0 .432-.01.648-.016L37 52l3-3 2-1z" opacity=".2"/>
 <circle cx="32" cy="32" r="3" fill="#e1e3e7"/>
 <path d="M46 40l-8 4-1 2-3 3-10.447 7.6C26.2 57.503 29.039 58 32 58c.218 0 .432-.01.648-.016L37 52l3-3 2-1zm-6 4.586L41.414 46 40 47.414 38.586 46zM36.586 48L38 49.414l-.586.586H36v-1.414zM34 51a1 1 0 0 1 1 1 1 1 0 0 1-1 1 1 1 0 0 1-1-1 1 1 0 0 1 1-1zm-3 2l2 2-1.654 1.984a25.525 25.525 0 0 1-4.516-.51zm-4.035 4.51c.096.019.193.033.289.05-.096-.017-.193-.031-.29-.05z" fill="#fff"/>
 <path d="M36 48.586L31 53l2 2 4.414-5H36zM38.586 46l-2 2L38 49.414l2-2zM44 42l-4 2.586L41.414 46z" opacity=".1"/>
 <path d="m31.98 22a10 10 0 0 0-9.9805 10 10 10 0 0 0 10 10 10 10 0 0 0 10-10 10 10 0 0 0-10-10 10 10 0 0 0-0.019531 0zm0.009765 1a9 9 0 0 1 0.009766 0 9 9 0 0 1 9 9 9 9 0 0 1-9 9 9 9 0 0 1-9-9 9 9 0 0 1 8.9902-9z" fill="#cbcdd1"/>
 <rect x="17.5" y="13.5" width="20" height="12" rx="1.5" ry="1.5" fill="#4c5263" stroke="#313643"/>
 <path d="m19 16v1h3.19v-1zm3.609 0v1h3.021v-1zm3.441 0v1h2.644v-1zm3.063 0v1h1.175v-1zm-10.113 3v1h5.078v-1zm5.581 0v1h2.434v-1zm2.896 0v1h1.133v-1zm-8.477 3v1h5.623v-1zm6.043 0v1h2.943v-1zm5.957 0v1h5.078v-1z" fill="#e9eaee"/>
</svg>
