<svg width="64" height="64" version="1.1" xmlns="http://www.w3.org/2000/svg" xmlns:xlink="http://www.w3.org/1999/xlink">
 <path d="m9 5h46v54h-46z" fill-opacity=".23922" stroke-width="1.042"/>
 <g fill="#e1e3e7">
  <path transform="translate(-376.57 -491.8)" d="m386.57 497.8h44v52h-44z"/>
  <path d="m10 44v6h44v-6z"/>
  <path d="m10 36v6h44v-6z"/>
 </g>
 <path d="m47 36h7v6h-7zm-37 0h7v6h-7zm37 8h7v6h-7zm-37 0h7v6h-7zm37 8h7v6h-7zm-37 0h7v6h-7z" opacity=".2"/>
 <g stroke-width="1.857">
  <path d="M16 36h32v6H16zm0 8h32v6H16zm0 8h32v6H16z" fill="#4c5263"/>
  <path d="M20 38h14v2H20zm16 0h8v2h-8zm-16 8h14v2H20zm16 0h8v2h-8zm-16 8h14v2H20zm16 0h8v2h-8z" fill="#e9eaee"/>
 </g>
 <g>
  <path d="M11 42h42v2H11zm0 8h42v2H11z" fill="#4c5263" opacity=".6"/>
  <path d="M20 8a6 6 0 0 0-6 6v4.541A4 4 0 0 1 16 22a4 4 0 0 1-2 3.459V30l4 4h28l4-4v-4.541A4 4 0 0 1 48 22a4 4 0 0 1 2-3.459V14a6 6 0 0 0-6-6z" fill="#edeff3" stroke="#cbcdd1"/>
  <path d="m10 42h4.1905v2h-4.1905zm40 0h4v2h-4zm0 8h4v2h-4zm-40 0h4.1905v2h-4.1905z" fill="#4c5263" stroke-width="1.0235"/>
 </g>
 <rect x="11" y="7" width="2" height="2" rx="1" ry="1" fill="#8c8c8c"/>
 <g>
  <rect x="9" y="36" width="1" height="23" ry="0" opacity=".15"/>
  <rect x="54" y="36" width="1" height="23" ry="0" opacity=".15"/>
  <rect transform="rotate(-90)" x="-59" y="10" width="1" height="44" ry="0" opacity=".15"/>
  <rect x="16" y="36" width="1" height="22" ry="0" opacity=".15"/>
  <rect x="47" y="36" width="1" height="22" ry="0" opacity=".15"/>
 </g>
 <g fill="#8c8c8c">
  <rect x="51" y="7" width="2" height="2" rx="1" ry="1"/>
  <rect x="11" y="33" width="2" height="2" rx="1" ry="1"/>
  <rect x="51" y="33" width="2" height="2" rx="1" ry="1"/>
  <rect x="11" y="20" width="2" height="2" rx="1" ry="1"/>
  <rect x="51" y="20" width="2" height="2" rx="1" ry="1"/>
 </g>
</svg>
