<svg xmlns="http://www.w3.org/2000/svg" width="64" height="64" version="1"><rect ry="0" rx="0" y="5" x="19.5" height="15" width="25" fill="#b7b7b7" stroke="#2c3854" stroke-linecap="round" stroke-opacity=".541" paint-order="fill markers stroke"/><path d="M16.93 19c-.62 3.932-.43 8.14-.43 11.5 0 8.446.376 15.245 2.998 19.879C22.12 55.013 26.917 57.5 32 57.5c5.083 0 9.88-2.487 12.502-7.121S47.5 38.946 47.5 30.5c0-3.36.19-7.568-.43-11.5H16.93z" fill="#fafafa"/><path d="M16.42 19c-.62 3.982-.42 8.182-.42 11.5 0 17 5.5 27.5 16 27.5s16-10.5 16-27.5c0-3.318.197-7.518-.422-11.5H16.42z" fill="none" stroke="#2c3854" stroke-opacity=".216"/><rect ry="0" rx="0" y="11" x="23" height="4" width="6" fill="#707680" paint-order="fill markers stroke"/><rect width="6" height="4" x="35" y="11" rx="0" ry="0" fill="#707680" paint-order="fill markers stroke"/></svg>