<svg xmlns="http://www.w3.org/2000/svg" width="64" height="64" version="1"><g transform="translate(161 38.64)"><path d="M-150-33.64v54h42v-54z" fill="#e1e3e7"/><rect ry=".5" rx=".5" y="-34.14" x="-150.5" height="55" width="43" fill="none" stroke="#000" stroke-opacity=".24"/><rect ry="1" rx="1" y="-32.64" x="-149" height="2" width="2" fill="#8c8c8c"/><rect ry="1" rx="1" y="-32.64" x="-111" height="2" width="2" fill="#8c8c8c"/><rect ry="1" rx="1" y="17.36" x="-111" height="2" width="2" fill="#8c8c8c"/><rect ry="1" rx="1" y="17.36" x="-149" height="2" width="2" fill="#8c8c8c"/><rect ry="1" rx="1" y="-7.64" x="-149" height="2" width="2" fill="#8c8c8c"/><rect ry="1" rx="1" y="-7.64" x="-111" height="2" width="2" fill="#8c8c8c"/><path d="M-122-30.14l-17.934 18.17A16.5 16.5 0 0 0-145.5.36a16.5 16.5 0 0 0 16.5 16.5A16.5 16.5 0 0 0-112.5.36a16.5 16.5 0 0 0-.03-.852.492.492 0 0 0 .03-.148v-29c0-.277-.223-.5-.5-.5z" fill="#edeff3" stroke="#cbcdd1"/><ellipse ry="6.5" rx="6.5" cy=".36" cx="-129" fill="#e1e3e7" stroke="#cfd1d5"/><rect ry="1.5" rx="1.5" y="-27.14" x="-143.5" height="12" width="20" fill="#4c5263" stroke="#313643"/><path d="M-142-24.64v1h3.19v-1zm3.609 0v1h3.021v-1zm3.441 0v1h2.644v-1zm3.063 0v1h1.175v-1zm-10.113 3v1h5.078v-1zm5.581 0v1h2.434v-1zm2.896 0v1h1.133v-1zm-8.477 3v1h5.623v-1zm6.043 0v1h2.943v-1zm5.957 0v1h5.078v-1z" fill="#e9eaee"/></g></svg>