<svg xmlns="http://www.w3.org/2000/svg" width="64" height="64" version="1"><g transform="translate(71.465 41.5)"><path d="M-39.465-35c-4.3 0-7.377.948-9.6 2.475-2.221 1.526-3.611 3.642-4.491 6.07-1.76 4.856-1.409 10.927-1.409 15.455 0 8.446.377 15.245 2.998 19.879C-49.345 13.513-44.547 16-39.465 16c5.084 0 9.88-2.487 12.502-7.121S-23.965-2.554-23.965-11c0-4.528.353-10.599-1.408-15.455-.88-2.428-2.27-4.544-4.492-6.07-2.222-1.527-5.298-2.475-9.6-2.475z" fill="#fafafa"/><path d="M-23.465-11c0 17-5.5 27.5-16 27.5s-16-10.5-16-27.5c0-9-1.5-24.5 16-24.5s16 15.5 16 24.5z" fill="none" stroke="#2c3854" stroke-opacity=".216"/><rect ry="0" rx="0" y="-35" x="-39.965" height="16" width="1" fill="#2c3854" fill-opacity=".122"/><rect rx="2" ry="2" y="-24" x="-41.965" height="10" width="5" fill="#8e949f"/></g></svg>