<svg xmlns="http://www.w3.org/2000/svg" width="64" height="64" version="1"><g transform="translate(-515 -896)"><path fill="none" d="M515 896h64v64h-64z"/><path d="M559 908c-2.174 0-4 2-4 2h-8v0h-8s-1.824-2-4-2c-2.972 0-9.072 3.187-9.009 4.487v0c-.77.664-1.479 1.488-1.99 2.511 0 0-6.956 15.33-7 25.999.408 7.064 4.265 7.953 5 8 1.01-.016 1.885-.08 3-1 .57-.516 5.443-5.443 7-7 1.557-1.558 2-2 4-2h22c2 0 2.443.442 4 2 1.557 1.557 6.43 6.484 7 7 1.114.92 1.989.984 3 1 .734-.047 4.591-.936 5-8-.044-10.669-7-26-7-26-.512-1.024-1.22-1.848-1.99-2.512.062-1.3-6.038-4.487-9.01-4.487v0z" fill="#464c5c" stroke="#3f434d" stroke-width=".2"/><path d="M535 908.004c-2.972 0-9.072 3.187-9.01 4.487v.002c-.77.664-1.478 1.488-1.99 2.511 0 0-6.955 15.332-7 26 .409 7.065 4.266 7.953 5 8 1.011-.016 1.886-.08 3-1 .571-.515 5.444-5.442 7-7 1.558-1.557 2-2 4-2h11v-29h-8s-1.824-2-4-2zm24 .001c2.973 0 9.073 3.186 9.01 4.486.77.664 1.48 1.488 1.99 2.512 0 0 6.956 15.331 7 26-.408 7.064-4.265 7.953-5 8-1.01-.016-1.885-.08-3-1-.57-.516-5.442-5.443-7-7-1.556-1.558-2-2-4-2h-11v-29h8s1.826-2 4-2z" fill="#464c5c"/><ellipse ry="2.5" rx="2.5" cy="916.504" cx="563.001" fill-opacity=".196"/><ellipse ry="1.5" rx="1.5" cy="916.504" cx="563.001" fill="#fff669"/><ellipse ry="2.5" rx="2.5" cy="924.504" cx="563.001" fill-opacity=".196"/><ellipse ry="1.5" rx="1.5" cy="924.504" cx="563.001" fill="#8ce755"/><ellipse ry="2.5" rx="2.5" cy="920.504" cx="567.001" fill-opacity=".196"/><ellipse ry="1.5" rx="1.5" cy="920.504" cx="567.001" fill="#ff5656"/><ellipse ry="2.5" rx="2.5" cy="920.504" cx="559.001" fill-opacity=".196"/><ellipse ry="1.5" rx="1.5" cy="920.504" cx="559.001" fill="#5294e2"/><ellipse ry="5" rx="5" cy="920.004" cx="531.001" fill-opacity=".392"/><ellipse ry="4" rx="4" cy="920.004" cx="531.001" fill="#636979"/><ellipse ry="3" rx="3" cy="920.004" cx="531.001" fill="#333949"/><path d="M534 907.003v.189c-1.638.222-3.447.843-5.095 1.68-.989.502-1.881 1.043-2.57 1.588a5.156 5.156 0 0 0-.883.85c-.106.133-.115.37-.2.536-.813.72-1.588 1.595-2.146 2.711l-.008.016-.008.02s-1.76 3.876-3.521 9.091S516.023 935.45 516 941v.029l.002.03c.215 3.711 1.367 5.974 2.668 7.28 1.302 1.306 2.61 1.618 3.266 1.66h.08c1.044-.016 2.326-.16 3.621-1.228l.018-.014.015-.016c.41-.37 1.683-1.653 3.168-3.145s3.095-3.116 3.87-3.89c.778-.78 1.235-1.21 1.609-1.415.373-.205.757-.293 1.683-.293h22c.927 0 1.31.088 1.684.293.373.206.83.636 1.61 1.414.774.775 2.383 2.399 3.868 3.89 1.486 1.493 2.759 2.775 3.168 3.146l.016.016.018.014c1.295 1.069 2.577 1.212 3.62 1.228h.08c.658-.042 1.965-.354 3.266-1.66 1.302-1.306 2.454-3.569 2.668-7.28l.002-.03v-.03c-.023-5.549-1.807-12.1-3.568-17.316-1.76-5.215-3.521-9.092-3.521-9.092l-.008-.019-.008-.018c-.559-1.116-1.333-1.991-2.147-2.71-.084-.168-.094-.404-.2-.538a5.2 5.2 0 0 0-.882-.85c-.69-.544-1.581-1.085-2.57-1.587-1.978-1.004-4.252-1.865-6.096-1.865-2.397 0-3.916 1.517-4.367 2h-15.266c-.45-.483-1.97-2-4.366-2h-1zm1 1.001c2.176 0 4 2 4 2h16s1.826-2 4-2c2.973 0 9.073 3.187 9.01 4.487.77.664 1.48 1.489 1.99 2.512 0 0 6.956 15.331 7 26-.408 7.064-4.265 7.953-5 8-1.01-.016-1.885-.08-3-1-.57-.516-5.442-5.443-7-7-1.556-1.558-2-2-4-2h-22c-2 0-2.442.442-4 2-1.556 1.557-6.429 6.484-7 7-1.114.92-1.989.984-3 1-.734-.047-4.591-.936-5-8 .045-10.669 7-25.999 7-25.999.512-1.023 1.22-1.847 1.99-2.511-.062-1.3 6.038-4.487 9.01-4.487z" style="line-height:normal;text-indent:0;text-align:start;text-decoration-line:none;text-decoration-style:solid;text-decoration-color:#000;text-transform:none;white-space:normal;isolation:auto;mix-blend-mode:normal;solid-color:#000;solid-opacity:1" color="#000" font-weight="400" font-family="sans-serif" overflow="visible" fill="#2c303c" fill-opacity=".906"/><ellipse ry="5" rx="5" cy="931.004" cx="555.001" fill-opacity=".392"/><ellipse ry="4" rx="4" cy="931.004" cx="555.001" fill="#636979"/><ellipse ry="3" rx="3" cy="931.004" cx="555.001" fill="#333949"/><ellipse ry="5" rx="5" cy="931.004" cx="539.001" fill-opacity=".392"/><path d="M525 913.005s6.747-2.691 9.222-2.824c2.033 0 5.674 6.235 6.779 6.324h6" fill="none" stroke="#5e6474"/><path d="M569 913.005s-6.745-2.691-9.22-2.824c-2.033 0-5.674 6.235-6.78 6.324h-6" fill="none" stroke="#5e6474"/><path d="M535 908.004c-2.658 0-7.804 2.545-8.82 4.014a90.376 90.376 0 0 1 2.34-.85c2.009-.693 4.28-1.413 5.674-1.488h.027c.764 0 1.42.49 2.098 1.107.679.618 1.37 1.413 2.026 2.204.656.79 1.278 1.576 1.79 2.156.257.29.489.527.667.68.176.15.315.187.236.177h11.926c-.08.01.06-.027.236-.177.178-.153.41-.39.666-.68 1.315-1.49 2.413-3.07 3.816-4.36.68-.617 1.334-1.107 2.098-1.107h.027c1.394.075 3.666.795 5.674 1.488.903.312 1.691.605 2.342.85-1.01-1.468-6.161-4.018-8.822-4.018-2.175 0-4 2-4 2h-16s-1.825-2-4-2zm32.823 4.02zm-41.643 0z" fill="#3e4454"/><path d="M538 928.005v2h-2v2h2v2h2v-2h2v-2h-2v-2z" fill="none" stroke="#636979" stroke-width="2" stroke-opacity=".784"/><path d="M538 928.005v2h-2v2h2v2h2v-2h2v-2h-2v-2z" fill="#333949"/><ellipse ry="1.5" rx="1.5" cy="919.504" cx="543.501" fill-opacity=".301"/><ellipse ry="1.5" rx="1.5" cy="919.504" cx="550.501" fill-opacity=".301"/></g></svg>