<svg xmlns="http://www.w3.org/2000/svg" width="64" height="64" version="1"><path d="M10.473 4.506c-.928 0-1.974 1.076-1.974 2.004V17.5h1v16h-1v23.997c0 .977 1.208 2.002 2.187 2.002h42.679c.946 0 2.136-1.054 2.136-2.002V24.499h-1v-4.998h1v-8.358c0-.712-.582-1.332-.582-1.332l-4.096-4.724c-.334-.334-.646-.544-1.526-.586z" style="marker:none" color="#000" overflow="visible" fill="#4c5263" fill-rule="evenodd" stroke="#252831" stroke-width=".9999974999999999" stroke-dashoffset=".802" stroke-opacity=".784"/><path fill="#d6aa24" d="M10 6h37v9H10z"/><path fill="#7f6515" d="M47 6h1v9h-1z"/><path fill="#d6aa24" d="M48 9h4v8h-4z"/><path fill="#7f6515" d="M42 6h1v9h-1zm-5 0h1v9h-1zm-5 0h1v9h-1zm-5 0h1v9h-1zm-5 0h1v9h-1zm-5 0h1v9h-1zm-5 0h1v9h-1z"/></svg>