<svg xmlns="http://www.w3.org/2000/svg" width="64" height="64" version="1"><g fill="#939aad"><path d="M24 58h-2V6h2zm-6 0h-2V6h2zm24 0h-2V6h2zm-6 0h-2V6h2zm-6 0h-2V6h2zm18 0h-2V6h2z"/><path d="M12 24v-2h40v2zm0-6v-2h40v2zm0-6v-2h40v2zm0 30v-2h40v2zm0-6v-2h40v2zm0-6v-2h40v2zm0 18v-2h40v2zm0 6v-2h40v2z"/></g><rect width="48" height="36" x="-56" y="-50" rx="2.5" ry="2.5" transform="matrix(0 -1 -1 0 0 0)" fill="#4c5263" stroke="#25252f" stroke-opacity=".784"/><path d="M41 14v12h-2V14zm0 14v6h-2v-6zm0 8v14h-2V36zm-8-22v16h-2V14zm0 18v16h-2V32zm-8-18v6h-2v-6zm0 8v6h-2v-6zm0 8v12h-2V30z" stroke="#333741" stroke-width="2" fill="#52955f"/><path d="M41 14v12h-2V14zm0 14v6h-2v-6zm0 8v14h-2V36zm-8-22v16h-2V14zm0 18v16h-2V32zm-8-18v6h-2v-6zm0 8v6h-2v-6zm0 8v12h-2V30z" stroke-width="2" fill="#52955f"/></svg>