<svg xmlns="http://www.w3.org/2000/svg" width="64" height="64" version="1"><g transform="translate(247.754 92.06)"><g transform="translate(-195.754 -83.56)"><rect width="39" height="19" x="-39.5" y="-.5" rx=".3" ry=".3" fill="none" stroke="#4f6698" stroke-opacity=".267"/><path fill="#fafafa" d="M-39 0h38v18h-38z"/></g><rect ry="1.5" rx="1.5" y="-71.059" x="-246.254" height="29" width="61" fill="#4c5263" stroke="#252831" stroke-opacity=".784"/><rect ry=".3" rx=".3" y="-50.059" x="-235.254" height="14" width="39" fill="none" stroke="#4f6698" stroke-opacity=".267"/><circle r="1.5" cy="-63.059" cx="-195.254" fill="#82b2ea"/><rect ry=".3" rx=".3" y="-50.559" x="-235.754" height="3" width="40" fill-opacity=".404"/><path fill="#fafafa" d="M-234.754-49.559h38v13h-38z"/><path d="M-199.754-39.56v-1h-3.19v1zm-3.61 0v-1h-3.02v1zm-3.44 0v-1h-2.644v1zm-3.064 0v-1h-1.175v1zm-1.594 0v-1h-2.602v1zm-3.064 0v-1h-6.714v1zm14.772-3v-1h-5.078v1zm-5.581 0v-1h-2.434v1zm-2.896 0v-1h-1.133v1zm-1.637 0v-1h-2.182v1zm-2.685 0v-1h-2.182v1zm-2.644 0v-1h-3.567v1zm-4.07 0v-1h-4.659v1zm19.513-3v-1h-5.623v1zm-6.043 0v-1h-6.043v1z" fill="#b4bfd8" fill-opacity=".643"/></g><path d="M24 28l-4 6m-2-6l-4 6m-2-6l-4 6m22-6l-4 6" opacity=".5" fill="none" stroke="#000" stroke-width="3" stroke-linecap="round"/></svg>