<svg xmlns="http://www.w3.org/2000/svg" width="64" height="64" version="1"><rect width="39" height="18.5" x="12.5" y="8.5" rx=".3" ry=".292" fill="none" stroke="#4f6698" stroke-opacity=".267"/><path fill="#fafafa" d="M13 9h38v17.513H13z"/><rect width="61" height="29" x="1.5" y="21" rx="1.5" ry="1.5" fill="#4c5263" stroke="#252831" stroke-opacity=".784"/><rect width="39" height="14.5" x="12.5" y="42" rx=".3" ry=".311" fill="none" stroke="#4f6698" stroke-opacity=".267"/><circle cx="52.5" cy="29" r="1.5" fill="#82b2ea"/><rect width="40" height="3" x="12" y="41.5" rx=".3" ry=".3" fill-opacity=".404"/><path fill="#fafafa" d="M13 42.5h38V56H13z"/><path d="M48 52.5v-1h-3.19v1zm-3.609 0v-1H41.37v1zm-3.441 0v-1h-2.644v1zm-3.063 0v-1h-1.175v1zm-1.595 0v-1H33.69v1zm-3.063 0v-1h-6.715v1zM48 49.5v-1h-5.078v1zm-5.581 0v-1h-2.434v1zm-2.896 0v-1H38.39v1zm-1.636 0v-1h-2.183v1zm-2.686 0v-1h-2.182v1zm-2.644 0v-1H28.99v1zm-4.07 0v-1h-4.658v1zM48 46.5v-1h-5.623v1zm-6.043 0v-1h-6.043v1z" fill="#b4bfd8" fill-opacity=".643"/></svg>