<svg xmlns="http://www.w3.org/2000/svg" xmlns:xlink="http://www.w3.org/1999/xlink" height="64" width="64"><defs><linearGradient gradientTransform="translate(7.018 992.312)" gradientUnits="userSpaceOnUse" xlink:href="#a" id="b" y2="3.364" x2="22.004" y1="47.813" x1="22.004"/><linearGradient id="a"><stop offset="0" stop-color="#aaa"/><stop offset="1" stop-color="#c8c8c8"/></linearGradient></defs><rect y=".5" x="7.5" ry="3" rx="3" height="59" width="51" fill="#e8e8e8"/><rect width="51" height="59" rx="3" ry="3" x="7.5" y=".5" opacity=".2" fill="none" stroke="#000"/><rect width="43" height="51" rx="1" ry="1" x="11.5" y="4.5" style="marker:none" color="#000" overflow="visible" opacity=".9" fill="#363636"/><path d="M16 9l34 .003V51H16V9z" fill="#f9f9f9"/><path d="M15.5 8.5l35 .003V51.5h-35v-43z" opacity=".3" fill="none" stroke="#000" stroke-linejoin="round"/><path d="M20 1003.86h2.344zm2.688 0h2.187zm2.53 0h1.938zm2.25 0h.845zm1.188 0h1.875zm2.25 0h4.938zm5.25 0h3.782zm4.094 0h1.156zm-20.25 2h3.656zm4.063 0h1.75zm2.062 0H27zm1.219 0h1.594zm1.937 0h1.625zm1.938 0h2.594zm2.937 0h3.375zm3.688 0h2.25zm2.562 0h.563zM20 1007.842h3.094zm3.406 0h5.063zm5.375 0h2.469zm2.782 0h2.312zm2.625 0h1.968zm2.28 0l3.095.032zm3.376.032h5.031zM20 1009.859h4.281zm4.625 0h4.625zm4.938 0h1.843zm2.156 0h4.344zm4.625 0h2.969zm3.312 0h1.188zm1.5 0h.657zm1 0H44zm-22.156 2h1.594zm2.094 0H28zM20 1015.843h3.094zm3.406 0h5.063zm5.375 0h2.469zm2.782 0h2.312zm2.625 0h1.968zm2.28 0l3.095.032zm3.376.032h5.031zM20 1017.859h2.344zm2.688 0h2.156zm2.53 0h1.938zm2.25 0h.845zm1.188 0h1.875zm2.25 0h4.907zm5.25 0h3.75zm4.063 0h1.187zm1.5 0h2.812zm-21.719 2h3.938zm4.25 0h4.219zm4.531 0h1.625zm1.938 0h3.969zm4.281 0h5zm5.344 0h1.844zm-20.344 2h4.281zm4.625 0h4.625zm4.938 0h1.843zm2.156 0h4.344zm4.625 0h2.969zm3.312 0h1.188zm1.5 0h.657zm1 0H44zm-22.156 2h3.656zm4.063 0h1.75zm2.062 0H27zm1.219 0h1.594zm1.937 0h1.625zm1.938 0h2.594zm2.937 0h3.375zm3.688 0h2.25zm2.562 0h.563zM20 1027.843h3.094zm3.406 0h5.063zm5.375 0h2.469zm2.782 0h2.312zm2.625 0h1.968zm2.28 0l3.095.031zm3.376.031h5.031zM20 1029.86h3.656zm4.063 0h1.75zm2.062 0H27zm1.219 0h1.594zm1.937 0h1.625zm1.938 0h2.594zm2.937 0h3.375zm3.688 0h2.25zm2.562 0h.563zm-20.406 2h3.875zm4.219 0h1.219zm1.531 0h2.781zm3.094 0h4.094zm4.437 0h2.782zm3.063 0h.594zm.906 0h3.531zm3.906 0H43zm-21.156 2h3.875zm4.219 0h1.75zm2.062 0h2.75zm3.063 0h2.969zm3.312 0h1.188zm1.5 0h.657zm1 0H37z" fill="none" stroke="url(#b)" transform="translate(0 -988.362)"/><path fill="#d35f5f" d="M11 36h44v2H11z"/><rect y="4.5" x="11.5" ry="1" rx="1" height="51" width="43" opacity=".35" fill="none" stroke="#000"/></svg>