<svg xmlns="http://www.w3.org/2000/svg" width="64" height="64" version="1"><rect width="52" height="42" x="-58" y="-53" rx="3.714" ry="3.818" transform="matrix(0 -1 -1 0 0 0)" fill="#caced6" stroke-width=".941" stroke="#333741" stroke-opacity=".612"/><path d="M46 6v28c0 7.756-6.244 14-14 14s-14-6.244-14-14V6z" fill="#414655"/><circle cx="32" cy="34" r="6" fill="#333741"/><circle r="4" cy="22.342" cx="32" fill="#333741"/><circle cx="32" cy="22.342" r="3" fill="#fff"/><circle cx="32" cy="13" r="4" fill="#333741"/><circle cx="32" cy="13" r="3" fill="#fff"/><path d="M17 56c-1.108 0-2 .892-2 2h34c0-1.108-.892-2-2-2H17zm34-24c-.554 0-1 .446-1 1s.446 1 1 1h2v-2zm0 4c-.554 0-1 .446-1 1s.446 1 1 1h2v-2zm0 4c-.554 0-1 .446-1 1s.446 1 1 1h2v-2zm-38-8c.554 0 1 .446 1 1s-.446 1-1 1h-2v-2zm0 4c.554 0 1 .446 1 1s-.446 1-1 1h-2v-2zm0 4c.554 0 1 .446 1 1s-.446 1-1 1h-2v-2z" fill="#414655"/><circle r="5" cy="34" cx="32" fill="#3697c4"/></svg>