<svg xmlns="http://www.w3.org/2000/svg" width="22pt" height="22pt" viewBox="0 0 22 22"><g fill="#bdbdbd"><path d="M9.676 2.902C7.184 3.164 4.136 7 4.136 11c0 4.586 3.106 8.273 6.966 8.273 1.699 0 7.835-1.742 6.964-3.265-.87-1.524-4.789-1.742-6.53-6.313-.653-1.742-.434-6.968-1.86-6.793zm0 0" fill-opacity=".392"/><path d="M8.46 3.379C6.353 4.562 4.313 7.727 4.313 11c0 4.586 3.106 8.273 6.965 8.273 1.133 0 4.23-.773 5.918-1.738-.023 0-.047-.004-.07-.004-5.516-.035-9.941-4.195-9.941-9.36 0-1.605.425-3.112 1.183-4.433.028-.12.059-.242.094-.36zm0 0" fill-opacity=".588"/><path d="M7.75 3.723C5.844 5.102 4.137 8.003 4.137 11c0 4.586 3.105 8.273 6.965 8.273.957 0 3.32-.55 5.046-1.304h-.039c-5.187 0-9.363-4.352-9.363-9.754v-.086c0-1.59.363-3.086 1.004-4.406zm0 0"/></g></svg>