<?xml version="1.0" encoding="UTF-8" standalone="no"?>
<svg
   xmlns:dc="http://purl.org/dc/elements/1.1/"
   xmlns:cc="http://creativecommons.org/ns#"
   xmlns:rdf="http://www.w3.org/1999/02/22-rdf-syntax-ns#"
   xmlns:svg="http://www.w3.org/2000/svg"
   xmlns="http://www.w3.org/2000/svg"
   xmlns:sodipodi="http://sodipodi.sourceforge.net/DTD/sodipodi-0.dtd"
   xmlns:inkscape="http://www.inkscape.org/namespaces/inkscape"
   width="22pt"
   height="22pt"
   viewBox="0 0 22 22"
   version="1.1"
   id="svg4"
   sodipodi:docname="kdeconnect-tray.svg"
   inkscape:version="0.92.1 r15371">
  <metadata
     id="metadata10">
    <rdf:RDF>
      <cc:Work
         rdf:about="">
        <dc:format>image/svg+xml</dc:format>
        <dc:type
           rdf:resource="http://purl.org/dc/dcmitype/StillImage" />
        <dc:title></dc:title>
      </cc:Work>
    </rdf:RDF>
  </metadata>
  <defs
     id="defs8" />
  <sodipodi:namedview
     pagecolor="#ffffff"
     bordercolor="#666666"
     borderopacity="1"
     objecttolerance="10"
     gridtolerance="10"
     guidetolerance="10"
     inkscape:pageopacity="0"
     inkscape:pageshadow="2"
     inkscape:window-width="1920"
     inkscape:window-height="1025"
     id="namedview6"
     showgrid="false"
     inkscape:zoom="8.0454545"
     inkscape:cx="-2.2372881"
     inkscape:cy="14.666667"
     inkscape:window-x="0"
     inkscape:window-y="29"
     inkscape:window-maximized="1"
     inkscape:current-layer="svg4" />
  <path
     d="M5.914 2.902a.905.905 0 0 0-.91.907v14.554c0 .504.406.91.91.91h10.004c.504 0 .91-.406.91-.91V3.81a.905.905 0 0 0-.91-.907zM7.277 4.72h7.278c.25 0 .453.203.453.457v10.46c0 .25-.203.454-.453.454H7.277a.454.454 0 0 1-.457-.453V5.176c0-.254.203-.457.457-.457zM9.551 17h2.73c.25 0 .453.203.453.453v.457c0 .25-.203.453-.453.453h-2.73a.451.451 0 0 1-.453-.453v-.457c0-.25.199-.453.453-.453zm0 0"
     fill="#bdbdbd"
     id="path2"
     style="fill:#ffffff;fill-opacity:1" />
</svg>
