<?xml version="1.0" encoding="UTF-8" standalone="no"?>
<svg
   xmlns:dc="http://purl.org/dc/elements/1.1/"
   xmlns:cc="http://creativecommons.org/ns#"
   xmlns:rdf="http://www.w3.org/1999/02/22-rdf-syntax-ns#"
   xmlns:svg="http://www.w3.org/2000/svg"
   xmlns="http://www.w3.org/2000/svg"
   xmlns:sodipodi="http://sodipodi.sourceforge.net/DTD/sodipodi-0.dtd"
   xmlns:inkscape="http://www.inkscape.org/namespaces/inkscape"
   width="22pt"
   height="22pt"
   viewBox="0 0 22 22"
   version="1.1"
   id="svg8"
   sodipodi:docname="user-status-new.svg"
   inkscape:version="0.92.3 (2405546, 2018-03-11)">
  <metadata
     id="metadata14">
    <rdf:RDF>
      <cc:Work
         rdf:about="">
        <dc:format>image/svg+xml</dc:format>
        <dc:type
           rdf:resource="http://purl.org/dc/dcmitype/StillImage" />
        <dc:title></dc:title>
      </cc:Work>
    </rdf:RDF>
  </metadata>
  <defs
     id="defs12" />
  <sodipodi:namedview
     pagecolor="#ffffff"
     bordercolor="#666666"
     borderopacity="1"
     objecttolerance="10"
     gridtolerance="10"
     guidetolerance="10"
     inkscape:pageopacity="0"
     inkscape:pageshadow="2"
     inkscape:window-width="1360"
     inkscape:window-height="718"
     id="namedview10"
     showgrid="true"
     inkscape:zoom="16.090909"
     inkscape:cx="6.9165453"
     inkscape:cy="14.257955"
     inkscape:window-x="0"
     inkscape:window-y="24"
     inkscape:window-maximized="1"
     inkscape:current-layer="svg8"
     inkscape:pagecheckerboard="true">
    <inkscape:grid
       type="xygrid"
       id="grid840" />
  </sodipodi:namedview>
  <path
     style="fill:#ffffff;fill-opacity:1;stroke:none;stroke-width:1.79999995;stroke-miterlimit:4;stroke-dasharray:none;stroke-opacity:1"
     d="M 8 5.3339844 C 5.7840001 5.3339844 4 7.1179845 4 9.3339844 L 4 14.333984 L 4 18.333984 L 4 24.333984 L 10 19.474609 L 22 19.474609 C 24.216 19.474609 26 17.690609 26 15.474609 L 26 9.3339844 C 26 7.1179845 24.216 5.3339844 22 5.3339844 L 8 5.3339844 z M 15.8125 8.3359375 L 16.613281 9.71875 L 18.189453 10 L 17.914062 11.576172 L 18.939453 12.802734 L 17.716797 13.833984 L 17.712891 15.433594 L 16.113281 15.435547 L 15.083984 16.660156 L 13.855469 15.632812 L 12.28125 15.908203 L 12 14.333984 L 10.615234 13.53125 L 11.414062 12.144531 L 10.869141 10.640625 L 12.371094 10.089844 L 12.919922 8.5878906 L 14.425781 9.1328125 L 15.8125 8.3359375 z "
     transform="scale(0.74999998)"
     id="rect4545" />
</svg>
