<?xml version="1.0" encoding="UTF-8"?>
<svg height="16px" viewBox="0 0 16 16" width="16px" xmlns="http://www.w3.org/2000/svg">
    <g fill="#2e3436">
        <path d="m 8 5 v -1.421875 l 3.3125 -3.292969 c 0.402344 -0.410156 1.0625 -0.347656 1.410156 0.023438 c 0.332032 0.351562 0.375 0.988281 -0.027344 1.390625 l -3.304687 3.300781 z m 0 0"/>
        <path d="m 8 11 v 1.421875 l 3.324219 3.292969 c 0.402343 0.410156 1.0625 0.347656 1.410156 -0.023438 c 0.332031 -0.351562 0.375 -0.988281 -0.027344 -1.390625 l -3.316406 -3.300781 z m 0 0"/>
        <path d="m 8 7 v 2 h 6 c 0.75 0 1 -0.5 1 -1 s -0.25 -1 -1 -1 z m 0 0"/>
        <path d="m 7 1.007812 c -0.296875 -0.003906 -0.578125 0.125 -0.769531 0.351563 l -3.230469 3.640625 h -1 c -1.09375 0 -2 0.84375 -2 2 v 2 c 0 1.089844 0.910156 2 2 2 h 1 l 3.230469 3.640625 c 0.210937 0.253906 0.492187 0.363281 0.769531 0.359375 z m 0 0"/>
    </g>
</svg>
