<?xml version="1.0" encoding="UTF-8"?>
<svg height="16px" viewBox="0 0 16 16" width="16px" xmlns="http://www.w3.org/2000/svg">
    <path d="m 7.296875 -0.0117188 c -0.078125 0 -0.160156 0.0039063 -0.234375 0.0117188 c -0.453125 0.0507812 -0.882812 0.222656 -1.25 0.5 c -0.488281 0.371094 -0.8125 0.957031 -0.8125 1.6875 v 3.8125 h -2.273438 c -0.402343 0 -0.726562 0.324219 -0.726562 0.726562 v 6.546876 c 0 0.402343 0.324219 0.726562 0.726562 0.726562 h 5.546876 c 0.402343 0 0.726562 -0.324219 0.726562 -0.726562 v -6.546876 c 0 -0.402343 -0.324219 -0.726562 -0.726562 -0.726562 h -2.273438 v -3.8125 c 0 -0.449219 0.171875 -0.703125 0.4375 -0.90625 s 0.664062 -0.300781 1.0625 -0.28125 s 0.785156 0.152344 1.0625 0.40625 s 0.46875 0.585938 0.46875 1.125 c 0 2.164062 1.464844 3.507812 3 3.46875 c 0.855469 -0.023438 1.6875 -0.476562 2.25 -1.3125 l -0.5625 -1 c -0.375 0.914062 -1.066406 1.296875 -1.71875 1.3125 c -0.960938 0.023438 -1.96875 -0.730469 -1.96875 -2.46875 c 0 -0.792969 -0.335938 -1.445312 -0.8125 -1.875 s -1.082031 -0.6289062 -1.6875 -0.65625 c -0.074219 -0.00390625 -0.15625 -0.0078125 -0.234375 -0.0117188 z m 6.703125 2.0117188 v 0.125 l 0.78125 1.375 c 0.011719 -0.039062 0.019531 -0.082031 0.03125 -0.125 z m 0 0.34375 c -0.007812 0.105469 -0.019531 0.214844 -0.03125 0.3125 l 0.71875 1.21875 c 0.023438 -0.0625 0.042969 -0.121094 0.0625 -0.1875 z m -0.0625 0.5 c -0.015625 0.089844 -0.042969 0.167969 -0.0625 0.25 l 0.65625 1.125 c 0.03125 -0.0625 0.066406 -0.125 0.09375 -0.1875 z m -0.09375 0.4375 c -0.023438 0.089844 -0.066406 0.167969 -0.09375 0.25 l 0.59375 1.03125 c 0.039062 -0.066406 0.089844 -0.117188 0.125 -0.1875 z m 0 0" fill="#2e3434"/>
</svg>
