<?xml version="1.0" encoding="UTF-8"?>
<svg height="16px" viewBox="0 0 16 16" width="16px" xmlns="http://www.w3.org/2000/svg">
    <path d="m 9.585938 2.992188 c -0.339844 0 -0.617188 0.273437 -0.617188 0.613281 v 1.226562 c 0 0.34375 0.277344 0.617188 0.617188 0.617188 h 0.285156 c -0.554688 1.570312 -1.851563 2.878906 -3.421875 3.4375 v -0.289063 c 0 -0.339844 -0.269531 -0.613281 -0.613281 -0.613281 h -1.226563 c -0.339844 0 -0.613281 0.273437 -0.613281 0.613281 v 1.808594 c 0 0.34375 0.257812 0.617188 0.59375 0.617188 h 0.019531 c 4.0625 0 7.429687 -3.335938 7.429687 -7.398438 v -0.035156 c 0 -0.335938 -0.265624 -0.597656 -1.050781 -0.597656 z m 1.519531 7.007812 c -0.78125 0.648438 -1.679688 1.519531 -3.066407 2.011719 l -7.039062 -0.011719 v 3 h 14 v -3 l -2 -2 z m -0.605469 1.796875 c 0.390625 0 0.703125 0.3125 0.703125 0.703125 s -0.3125 0.703125 -0.703125 0.703125 s -0.703125 -0.3125 -0.703125 -0.703125 s 0.3125 -0.703125 0.703125 -0.703125 z m 2 0.023437 c 0.375 0 0.679688 0.304688 0.679688 0.679688 s -0.304688 0.679688 -0.679688 0.679688 s -0.679688 -0.304688 -0.679688 -0.679688 s 0.304688 -0.679688 0.679688 -0.679688 z m 0 0" fill="#2e3436"/>
</svg>
