<?xml version="1.0" encoding="UTF-8"?>
<svg height="16px" viewBox="0 0 16 16" width="16px" xmlns="http://www.w3.org/2000/svg">
    <path d="m 5 0 c -1.644531 0 -3 1.355469 -3 3 v 10 c 0 1.644531 1.355469 3 3 3 h 6 c 1.644531 0 3 -1.355469 3 -3 v -7.179688 l -2 1.992188 v 3.1875 c 0 0.554688 -0.445312 1 -1 1 h -6 c -0.554688 0 -1 -0.445312 -1 -1 v -8 c 0 -0.570312 0.429688 -1 1 -1 h 6 c 0.332031 0 0.617188 0.148438 0.796875 0.382812 l 1.402344 -1.40625 c -0.550781 -0.597656 -1.332031 -0.976562 -2.199219 -0.976562 z m 10 1 c -0.265625 0 -0.519531 0.105469 -0.703125 0.296875 l -0.003906 -0.003906 l -6.292969 6.316406 v 1.390625 h 1.390625 l 6.316406 -6.292969 l -0.003906 -0.003906 c 0.191406 -0.183594 0.296875 -0.4375 0.296875 -0.703125 c 0 -0.550781 -0.449219 -1 -1 -1 z m -7.523438 12 h 0.023438 h 1 c 0.277344 0 0.5 0.222656 0.5 0.5 s -0.222656 0.5 -0.5 0.5 h -1 c -0.277344 0 -0.5 -0.222656 -0.5 -0.5 c 0 -0.269531 0.210938 -0.488281 0.476562 -0.5 z m 0 0" fill="#2e3436"/>
</svg>
