<svg width="32" height="32" xmlns="http://www.w3.org/2000/svg"><path d="M16 2C7.723 2 1 8.723 1 17s6.723 15 15 15 15-6.723 15-15S24.277 2 16 2z" color="#000" opacity=".15" overflow="visible"/><path d="M16 1C7.723 1 1 7.723 1 16s6.723 15 15 15 15-6.723 15-15S24.277 1 16 1z" color="#000" fill="#f55" overflow="visible"/><path d="M16 6a2 2 0 0 0-2 2c0 2 .667 6.667 1.333 12h1.334C17.333 14.667 18 10 18 8a2 2 0 0 0-2-2zm0 16a2 2 0 1 0 0 4 2 2 0 0 0 0-4z" fill="#fff"/><path d="M16 1C7.723 1 1 7.723 1 16c0 .168.006.334.012.5C1.276 8.455 7.89 2 16 2s14.724 6.455 14.988 14.5c.005-.166.011-.332.011-.5 0-8.277-6.723-15-15-15z" fill="#fff" opacity=".15"/></svg>