<svg width="32" height="32" xmlns="http://www.w3.org/2000/svg"><path d="M16 2C7.723 2 1 8.723 1 17s6.723 15 15 15 15-6.723 15-15S24.277 2 16 2z" color="#000" opacity=".15" overflow="visible"/><path d="M16 1C7.723 1 1 7.723 1 16s6.723 15 15 15 15-6.723 15-15S24.277 1 16 1z" color="#000" fill="#f95" overflow="visible"/><path d="M16 1C7.723 1 1 7.723 1 16c0 .168.006.334.012.5C1.276 8.455 7.89 2 16 2s14.724 6.455 14.988 14.5c.005-.166.011-.332.011-.5 0-8.277-6.723-15-15-15z" fill="#fff" opacity=".15"/><path d="M16.683 19.873c-.05-1.77.347-3.487 2.018-4.703 1.765-1.376 3.466-3.097 3.286-5.126-.04-1.957-2.32-3.49-4.776-3.711-2.763-.383-6.106.564-7.032 2.722-.47 1.05-.034 2.932 1.542 2.932.921 0 1.345-.595 1.414-1.14.053-.412-.116-.78-.216-1.12-.114-.388.372-1.14.901-1.446.443-.256.906-.342.974-.359 1.588-.381 3.172.462 3.833 1.488.66 1.027-.067 2.584-1.112 4.098-1.046 1.514-2.168 3.233-2.164 5.06 0 .695-.062.931-.018 1.212.036.225.78.198 1.35.093zm-.725 2.38c-1.52-.082-2.57 1.64-1.658 2.737.815 1.212 3.1.913 3.491-.459.408-1.067-.572-2.295-1.833-2.277z" fill="#fff" font-family="Standard Symbols L" font-size="72" font-weight="700"/></svg>