<svg width="32" height="32" xmlns="http://www.w3.org/2000/svg"><path d="M16 2C7.723 2 1 8.723 1 17s6.723 15 15 15 15-6.723 15-15S24.277 2 16 2z" color="#000" opacity=".25" overflow="visible"/><path d="M16 1C7.716 1 1 7.716 1 16s6.716 15 15 15 15-6.716 15-15S24.284 1 16 1z" fill="#ccc"/><path d="M16 1C7.723 1 1 7.723 1 16c0 .168.006.334.012.5C1.276 8.455 7.89 2 16 2s14.724 6.455 14.988 14.5c.005-.166.011-.332.011-.5 0-8.277-6.723-15-15-15z" fill="#fff" opacity=".25"/><path d="M16 27C9.925 27 5 22.075 5 16S9.925 5 16 5s11 4.925 11 11-4.925 11-11 11z" fill="#b3b3b3"/><path d="M16.25 11a2.75 2.75 0 0 0-2.75 2.75c0 1.14.683 2.112 1.67 2.53L13.5 22H19l-1.67-5.72A2.735 2.735 0 0 0 19 13.75 2.75 2.75 0 0 0 16.25 11z" fill="#333" overflow="visible"/><path d="M16 10.695a2.83 2.83 0 0 0-2.83 2.83c0 1.172.703 2.172 1.72 2.601l-1.72 5.886h5.66l-1.718-5.886a2.814 2.814 0 0 0 1.717-2.602A2.83 2.83 0 0 0 16 10.695z" fill="none" overflow="visible"/></svg>