<svg width="32" height="32" xmlns="http://www.w3.org/2000/svg"><path d="M16 2C7.723 2 1 8.723 1 17s6.723 15 15 15 15-6.723 15-15S24.277 2 16 2z" color="#000" opacity=".15" overflow="visible"/><path d="M16 1C7.723 1 1 7.723 1 16s6.723 15 15 15 15-6.723 15-15S24.277 1 16 1z" color="#000" fill="#f2f2f2" overflow="visible"/><path d="M0 0h32v32H0z" fill="none"/><path d="M16.437 11.666h-.666l-.667 4.667L18.438 19v-.667l-2-2.667z" fill="#4e4e4e" fill-rule="evenodd" opacity=".5"/><path d="M16 8c-4.416 0-8 3.584-8 8s3.584 8 8 8 8-3.584 8-8-3.584-8-8-8zm0 2c3.312 0 6 2.688 6 6s-2.688 6-6 6-6-2.688-6-6 2.688-6 6-6z" fill="#4d4d4d" fill-rule="evenodd" opacity=".5"/><path d="M16 1C7.723 1 1 7.723 1 16c0 .168.006.334.012.5C1.276 8.455 7.89 2 16 2s14.724 6.455 14.988 14.5c.005-.166.011-.332.011-.5 0-8.277-6.723-15-15-15z" fill="#fff" opacity=".5"/></svg>