<svg width="32" height="32" version="1.0" xmlns="http://www.w3.org/2000/svg"><defs><filter id="a" x="-.036" y="-.036" width="1.072" height="1.072" color-interpolation-filters="sRGB"><feGaussianBlur stdDeviation=".45"/></filter></defs><path d="M16 2C7.723 2 1 8.723 1 17s6.723 15 15 15 15-6.723 15-15S24.277 2 16 2z" color="#000" opacity=".15" overflow="visible"/><path d="M16 1C7.723 1 1 7.723 1 16s6.723 15 15 15 15-6.723 15-15S24.277 1 16 1z" color="#000" filter="url(#a)" opacity=".25" overflow="visible"/><path d="M16 1C7.723 1 1 7.723 1 16s6.723 15 15 15 15-6.723 15-15S24.277 1 16 1z" color="#000" fill="#333" overflow="visible"/><g fill="#e0574c"><path d="M16 10.011c3.305 0 6 2.71 6 6.003 0 3.291-2.695 5.975-6 5.975s-6-2.684-6-5.975c0-3.292 2.695-6.003 6-6.003zm0 1.73a4.27 4.27 0 0 0-4.29 4.273c0 2.368 1.912 4.245 4.29 4.245s4.29-1.877 4.29-4.245A4.27 4.27 0 0 0 16 11.74z" overflow="visible" style="text-indent:0;text-transform:none"/><path d="m13.177 11.973 6.85 6.85-1.204 1.204-6.85-6.85z" overflow="visible" style="text-indent:0;text-transform:none"/></g><path d="M0 0h32v32H0z" fill="none"/><path d="M16 1C7.723 1 1 7.723 1 16c0 .168.006.334.012.5C1.276 8.455 7.89 2 16 2s14.724 6.455 14.988 14.5c.005-.166.011-.332.011-.5 0-8.277-6.723-15-15-15z" fill="#fff" opacity=".1"/></svg>