<svg width="16" height="16" version="1.1" viewBox="0 0 16 16" xmlns="http://www.w3.org/2000/svg">
 <defs>
  <style id="current-color-scheme" type="text/css">.ColorScheme-Text { color:#d3dae3; } .ColorScheme-Highlight { color:#5294e2; }</style>
 </defs>
 <path d="m1 1c-0.554 0-1 0.446-1 1v4c0 0.554 0.446 1 1 1h1v1h-1c-0.554 0-1 0.446-1 1v4c0 0.554 0.446 1 1 1h1v1h1v-1h10v1h1v-1h1c0.554 0 1-0.446 1-1v-4c0-0.554-0.446-1-1-1h-1v-1h1c0.554 0 1-0.446 1-1v-4c0-0.554-0.446-1-1-1zm0 1h14v4h-14zm1 1v2h9v-2zm11 0a1 1 0 0 0-1 1 1 1 0 0 0 1 1 1 1 0 0 0 1-1 1 1 0 0 0-1-1zm-10 4h10v1h-10zm-2 2h14v4h-14zm1 1v2h9v-2zm11 0a1 1 0 0 0-1 1 1 1 0 0 0 1 1 1 1 0 0 0 1-1 1 1 0 0 0-1-1z" style="fill:currentColor" class="ColorScheme-Text"/>
</svg>
