<svg width="16" height="16" version="1.1" viewBox="0 0 16 16" xmlns="http://www.w3.org/2000/svg">
 <defs>
  <style id="current-color-scheme" type="text/css">.ColorScheme-Text { color:#d3dae3; } .ColorScheme-Highlight { color:#5294e2; }</style>
 </defs>
 <path d="m3 1c-1.108 0-2 0.892-2 2v9l3 3h1 6 2c1.108 0 2-0.892 2-2v-10c0-1.108-0.892-2-2-2h-10zm0 1h10c0.554 0 1 0.446 1 1v10c0 0.554-0.446 1-1 1h-1v-5c0-0.554-0.446-1-1-1h-6c-0.554 0-1 0.446-1 1v4.5859l-2-2v-8.5859c0-0.554 0.446-1 1-1zm5 7h2v5h-2v-5z" style="fill:currentColor" class="ColorScheme-Text"/>
</svg>
