<svg width="16" height="16" version="1.1" viewBox="0 0 16 16" xmlns="http://www.w3.org/2000/svg">
 <defs>
  <style id="current-color-scheme" type="text/css">.ColorScheme-Text { color:#d3dae3; } .ColorScheme-Highlight { color:#5294e2; }</style>
 </defs>
 <g style="fill:currentColor" class="ColorScheme-Text">
 <path d="M10 .469V3H7v1h4V2.531L14.406 5.5 11 8.469V7H8v1h2V10.531l.812-.656L16 5.5l-5.188-4.375z" opacity=".35"/>
 <path d="M6 4.469l-.813.656L0 9.5l5.187 4.375.813.656V12h3v-1H5V12.469L1.594 9.5 5 6.531V8h3V7H6V5.5z" opacity=".35"/>
 <path d="M11 11v1c0 .276.1.538.281.719l.781.781-.78.781A1.015 1.015 0 0 0 11 15v1h1c.276 0 .538-.1.719-.281l.781-.781.781.78c.181.182.443.282.719.282h1v-1c0-.276-.1-.538-.281-.719l-.782-.781.782-.781c.18-.181.281-.443.281-.719v-1h-1c-.276 0-.538.1-.719.281l-.781.781-.781-.78A1.015 1.015 0 0 0 12 11h-1z"/>
 </g>
</svg>
