<svg width="16" height="16" version="1.1" viewBox="0 0 16 16" xmlns="http://www.w3.org/2000/svg">
 <defs>
  <style id="current-color-scheme" type="text/css">.ColorScheme-Text { color:#d3dae3; } .ColorScheme-Highlight { color:#5294e2; }</style>
 </defs>
 <path d="m4 0c-1.108 0-2 0.892-2 2v13 1h12v-1-13c0-1.108-0.892-2-2-2h-8zm0 1h8c0.554 0 1 0.446 1 1v13h-10v-13c0-0.554 0.446-1 1-1zm4 1-3 5h3v3l3-5h-3v-3zm-3 10c-0.55 0-1 0.45-1 1s0.45 1 1 1 1-0.45 1-1-0.45-1-1-1z" style="fill:currentColor" class="ColorScheme-Text"/>
</svg>
