<svg xmlns="http://www.w3.org/2000/svg" width="48" height="48"><rect width="38" height="42" rx="1.5" ry="1.5" x="5" y="2" style="marker:none" color="#000" fill="#e2e2e2" overflow="visible"/><rect width="39" height="43" rx="2" ry="2.205" x="4.5" y="1.5" style="marker:none" opacity=".35" color="#000" fill="none" stroke="#000" stroke-linecap="round" stroke-linejoin="round" overflow="visible"/><rect width="14" height="10" rx="1" ry="1" x="25.579" y="30.5" style="marker:none" color="#000" fill="#3e85e2" overflow="visible"/><rect width="14" height="10" rx="1" ry="1" x="25.579" y="30.5" style="marker:none" opacity=".25" color="#000" fill="none" stroke="#001764" stroke-linecap="round" stroke-linejoin="round" overflow="visible"/><rect width="14" height="10" rx="1" ry="1" x="8.5" y="30.5" style="marker:none" color="#000" fill="#74767c" overflow="visible"/><rect width="14" height="10" rx="1" ry="1" x="8.5" y="30.5" style="marker:none" opacity=".25" color="#000" fill="none" stroke="#000" stroke-linecap="round" stroke-linejoin="round" overflow="visible"/><rect width="14" height="10" rx="1" ry="1" x="8.5" y="18.5" style="marker:none" color="#000" fill="#74767c" overflow="visible"/><rect width="14" height="10" rx="1" ry="1" x="8.5" y="18.5" style="marker:none" opacity=".25" color="#000" fill="none" stroke="#000" stroke-linecap="round" stroke-linejoin="round" overflow="visible"/><rect width="14" height="10" rx="1" ry="1" x="25.579" y="18.5" style="marker:none" color="#000" fill="#74767c" overflow="visible"/><rect width="14" height="10" rx="1" ry="1" x="25.579" y="18.5" style="marker:none" opacity=".25" color="#000" fill="none" stroke="#000" stroke-linecap="round" stroke-linejoin="round" overflow="visible"/><rect width="32" height="11" rx="2" ry="2" x="8" y="5" style="marker:none" color="#000" fill="#f2f2f2" overflow="visible"/><rect width="31" height="10" rx="1" ry="1" x="8.5" y="5.5" style="marker:none" opacity=".5" color="#000" fill="none" stroke="#50525e" overflow="visible"/><path d="M25.094 8c-.623 0-1.144.176-1.594.5l.469.719c.204-.133.396-.228.562-.281.169-.054.338-.094.5-.094.468 0 .688.19.688.562 0 .243-.073.4-.25.5-.176.1-.462.157-.844.156h-.375v.813h.375c.414 0 .717.028.906.125.19.097.281.268.282.5 0 .258-.086.446-.25.563-.165.116-.438.187-.782.187-.225 0-.427-.033-.656-.094a3.489 3.489 0 0 1-.656-.25v.906c.413.178.902.25 1.437.25.639 0 1.125-.112 1.469-.374.344-.266.531-.651.531-1.126 0-.325-.108-.59-.312-.78-.205-.194-.509-.295-.907-.345v-.03c.338-.082.595-.222.782-.438a1.15 1.15 0 0 0 .281-.781c0-.37-.14-.669-.438-.876-.294-.206-.708-.312-1.218-.312zm6.031.063l-1.594 1.28.5.626.563-.469c.067-.054.202-.17.375-.344l-.032.531V13h1.032V8.062zm4.219 0l-2.157 3.187v.719h2.094V13h1.032v-1.031h.593v-.813h-.593V8.062zm-.032 1.187c-.006.043.012.204 0 .469-.01.265-.03.485-.03.625v.812h-1.188L35 9.812c.117-.175.23-.378.313-.562zm-7.156 2.688c-.193 0-.367.06-.468.156-.102.096-.125.248-.125.437 0 .182.052.305.156.406a.61.61 0 0 0 .437.157.533.533 0 0 0 .563-.563c0-.184-.053-.338-.157-.437a.534.534 0 0 0-.406-.156z" style="text-align:end;line-height:125%;-inkscape-font-specification:Open Sans Bold" font-size="6.905" font-weight="700" letter-spacing="0" word-spacing="0" text-anchor="end" fill="#666" font-family="Open Sans"/><path d="M15 21v2h-2v1h2v2h1v-2h2v-1h-2v-2h-1zm15.094 2v1h5v-1h-5zM13 33v.625c0 .173.074.324.188.438l1.406 1.437-1.406 1.438a.617.617 0 0 0-.188.437V38h.625a.617.617 0 0 0 .438-.188l1.437-1.406 1.438 1.407a.617.617 0 0 0 .437.187H18v-.625a.617.617 0 0 0-.188-.438L16.407 35.5l1.407-1.438a.617.617 0 0 0 .187-.437V33h-.625a.617.617 0 0 0-.438.188L15.5 34.593l-1.438-1.407a.617.617 0 0 0-.437-.187H13zm17 1v1h5v-1h-5zm0 2v1h5v-1h-5z" style="line-height:125%;-inkscape-font-specification:Helvetica" font-size="9.881" font-weight="400" letter-spacing="0" word-spacing="0" fill="#fff" font-family="Helvetica"/></svg>