<svg xmlns="http://www.w3.org/2000/svg" xmlns:xlink="http://www.w3.org/1999/xlink" width="48" height="48"><defs><linearGradient x1="9" y1="29.057" x2="9" y2="26.03" id="q" xlink:href="#a" gradientUnits="userSpaceOnUse" gradientTransform="matrix(.638 -.64114 .85963 .85535 -3.661 16.73)"/><linearGradient id="a"><stop offset="0" stop-color="#ece5a5"/><stop offset="1" stop-color="#fcfbf2"/></linearGradient><linearGradient x1="5.518" y1="37.372" x2="9.522" y2="41.392" id="r" xlink:href="#b" gradientUnits="userSpaceOnUse" gradientTransform="matrix(.56036 .02419 .02416 .55967 19.547 13.104)"/><linearGradient id="b"><stop offset="0" stop-color="#dbce48"/><stop offset="1" stop-color="#c5b625"/></linearGradient><linearGradient id="c"><stop offset="0" stop-color="#b1b1b1"/><stop offset=".5" stop-color="#fff"/><stop offset="1" stop-color="#8f8f8f"/></linearGradient><linearGradient id="d"><stop offset="0" stop-color="#565656"/><stop offset=".5" stop-color="#9a9a9a"/><stop offset="1" stop-color="#545454"/></linearGradient><linearGradient id="e"><stop offset="0" stop-color="#b1b1b1"/><stop offset=".5" stop-color="#fff"/><stop offset="1" stop-color="#8f8f8f"/></linearGradient><linearGradient id="f"><stop offset="0" stop-color="#565656"/><stop offset=".5" stop-color="#9a9a9a"/><stop offset="1" stop-color="#545454"/></linearGradient><linearGradient id="g"><stop offset="0" stop-color="#b1b1b1"/><stop offset=".5" stop-color="#fff"/><stop offset="1" stop-color="#8f8f8f"/></linearGradient><linearGradient id="h"><stop offset="0" stop-color="#565656"/><stop offset=".5" stop-color="#9a9a9a"/><stop offset="1" stop-color="#545454"/></linearGradient><linearGradient id="i"><stop offset="0" stop-color="#181818"/><stop offset=".135" stop-color="#dbdbdb"/><stop offset=".202" stop-color="#a4a4a4"/><stop offset=".27" stop-color="#fff"/><stop offset=".447" stop-color="#8d8d8d"/><stop offset=".571" stop-color="#959595"/><stop offset=".72" stop-color="#cecece"/><stop offset="1" stop-color="#181818"/></linearGradient><linearGradient x1="22.004" y1="44.854" x2="22.004" y2="3.072" id="p" xlink:href="#j" gradientUnits="userSpaceOnUse"/><linearGradient id="j"><stop offset="0" stop-color="#a0a0a0"/><stop offset="1" stop-color="#c8c8c8"/></linearGradient><linearGradient id="k"><stop offset="0" stop-color="#fff"/><stop offset=".01" stop-color="#fff" stop-opacity=".235"/><stop offset=".99" stop-color="#fff" stop-opacity=".157"/><stop offset="1" stop-color="#fff" stop-opacity=".392"/></linearGradient><linearGradient id="l"><stop offset="0" stop-color="#f4f4f4"/><stop offset="1" stop-color="#dbdbdb"/></linearGradient><linearGradient id="m"><stop offset="0" stop-opacity=".322"/><stop offset="1" stop-opacity=".278"/></linearGradient><linearGradient id="n"><stop offset="0"/><stop offset="1" stop-opacity="0"/></linearGradient><linearGradient id="o"><stop offset="0" stop-opacity="0"/><stop offset=".5"/><stop offset="1" stop-opacity="0"/></linearGradient></defs><rect transform="rotate(90)" ry="0" rx="0" y="-40" x="16" height="32" width=".25" fill="#bad5ff" fill-opacity=".592" paint-order="markers stroke fill"/><rect width=".25" height="32" x="18" y="-40" rx="0" ry="0" transform="rotate(90)" fill="#bad5ff" fill-opacity=".592" paint-order="markers stroke fill"/><rect transform="rotate(90)" ry="0" rx="0" y="-40" x="20" height="32" width=".25" fill="#bad5ff" fill-opacity=".592" paint-order="markers stroke fill"/><rect width=".25" height="32" x="22" y="-40" rx="0" ry="0" transform="rotate(90)" fill="#bad5ff" fill-opacity=".592" paint-order="markers stroke fill"/><rect transform="rotate(90)" ry="0" rx="0" y="-40" x="24" height="32" width=".25" fill="#bad5ff" fill-opacity=".592" paint-order="markers stroke fill"/><rect width=".25" height="32" x="26" y="-40" rx="0" ry="0" transform="rotate(90)" fill="#bad5ff" fill-opacity=".592" paint-order="markers stroke fill"/><rect transform="rotate(90)" ry="0" rx="0" y="-40" x="28" height="32" width=".25" fill="#bad5ff" fill-opacity=".592" paint-order="markers stroke fill"/><rect width=".25" height="32" x="30" y="-40" rx="0" ry="0" transform="rotate(90)" fill="#bad5ff" fill-opacity=".592" paint-order="markers stroke fill"/><rect transform="rotate(90)" ry="0" rx="0" y="-40" x="32" height="32" width=".25" fill="#bad5ff" fill-opacity=".592" paint-order="markers stroke fill"/><rect width=".25" height="32" x="34" y="-40" rx="0" ry="0" transform="rotate(90)" fill="#bad5ff" fill-opacity=".592" paint-order="markers stroke fill"/><rect transform="rotate(90)" ry="0" rx="0" y="-40" x="36" height="32" width=".25" fill="#bad5ff" fill-opacity=".592" paint-order="markers stroke fill"/><rect width=".25" height="32" x="38" y="-40" rx="0" ry="0" transform="rotate(90)" fill="#bad5ff" fill-opacity=".592" paint-order="markers stroke fill"/><rect width="33" height="39" x="7.5" y="4.5" rx="0" ry="0" fill="#f3f3f3" stroke="#5e5750" stroke-linecap="round" stroke-linejoin="round" stroke-opacity=".255" paint-order="fill markers stroke"/><rect transform="rotate(90)" ry="0" rx="0" y="-40" x="40" height="32" width=".25" fill="#bad5ff" fill-opacity=".592" paint-order="markers stroke fill"/><path d="M12.999 11.546h2.348m.335 0h2.18m.352 0h1.945m.32 0h.838m.336 0h1.878m.37 0h4.93m.335 0h3.757m.336 0h1.14m-21.4 1.954h3.64m.424 0h1.74m.321 0h.859m.349 0h1.602m.336 0h1.643m.31 0h2.58m.336 0h3.404M13 15.48h3.081m.324 0h5.075m.31 0h2.462m.316 0h2.302m.33 0h1.961m.316 0l3.085.02m-19.562 2h4.284m.337 0h4.63m.32 0h1.82m.335 0h4.331m.292 0h2.968m.336 0h1.175m.335 0h.65M13 19.5h1.6m.49 0h5.922m-8.012 10h3.64m.424 0h1.74m.321 0h.859m.349 0h1.602m.336 0h1.643m.31 0h2.58M13 33.48h3.081m.324 0h5.075m.31 0h2.462m8.697.061h5.027M13 27.5h4.284m.337 0h4.63m.32 0h1.82m.335 0h4.331M13 23.5h2.348m.335 0h2.18m.352 0h1.945m.32 0h.838m.336 0h1.878m.37 0h4.93m.335 0h3.757M13 25.5h3.954m.311 0h4.2m.32 0h1.641m.31 0h3.95m.317 0h4.314M13 35.5h3.695m.397 0h1.629m.381 0h.813m.259 0h1.604m.213 0h8.492m.4 0h2.266m.305 0h.572m-16.816 2h1.205M13 37.5h3.857m1.866 0h2.805m.297 0h4.116m.32 0h2.793m.281 0h.576m.315 0h3.546m.363 0h1.856m-18.781 2h1.702m-5.912 0h3.857m2.423 0h2.393" fill="none" stroke="url(#p)"/><rect ry="0" rx="0" y="5" x="36" height="38" width=".5" fill="#bad5ff" fill-opacity=".592" paint-order="markers stroke fill"/><path d="M24.934 31.028c.446-.334 1.697.294 2.847 1.438 1.147 1.14 1.751 2.362 1.424 2.812 0 .002.029.026.027.027l16.01-16.088c.407-.409-.225-1.7-1.411-2.88s-2.48-1.806-2.887-1.397z" fill="#3c3c3c" stroke="#0c0c0c" stroke-width=".5" stroke-linejoin="round"/><path d="M38.99 16.903c.446-.334 1.697.293 2.847 1.438 1.147 1.14 1.752 2.362 1.425 2.812-.002.002.028.025.026.027l1.954-1.963.04-.04c.001-.002-.028-.025-.027-.027.327-.45-.277-1.672-1.424-2.813-1.15-1.144-2.401-1.772-2.847-1.437l-.04.04-1.954 1.963z" opacity=".8" fill="#ffb6ed" stroke="#e28ccd" stroke-width=".5" stroke-linejoin="round"/><path d="M36.617 19.288c.446-.335 1.698.293 2.847 1.437 1.147 1.141 1.752 2.363 1.425 2.813-.002.002.028.025.027.027l.199-.2c.001-.002-.028-.026-.027-.027.327-.45-.277-1.672-1.424-2.813-1.15-1.144-2.401-1.772-2.847-1.438l-.2.2z" fill="#b1b1b1"/><path d="M37.252 18.65c.446-.335 1.697.293 2.847 1.437 1.147 1.141 1.752 2.363 1.425 2.813-.002.002.028.025.026.027l.2-.2c.001-.003-.028-.026-.027-.028.327-.45-.277-1.671-1.424-2.812-1.15-1.144-2.401-1.772-2.847-1.438z" fill="#b1b1b1"/><path d="M37.89 18.009c.446-.335 1.697.293 2.847 1.437 1.147 1.141 1.752 2.362 1.425 2.813-.002.001.028.025.027.026l.199-.2c.001-.002-.028-.025-.027-.027.327-.45-.277-1.671-1.424-2.813-1.15-1.144-2.401-1.771-2.847-1.437z" fill="#b1b1b1"/><path d="M21.866 38.31l7.284-2.97.062-.063c.327-.45-.285-1.671-1.432-2.813-1.15-1.144-2.4-1.768-2.846-1.433l-3.068 7.28z" fill="url(#q)" fill-rule="evenodd" stroke="url(#r)" stroke-width=".5"/><path d="M22.697 36.339l-.831 1.964 1.986-.815c-.159-.19-.306-.384-.497-.575a8.06 8.06 0 0 0-.658-.574z" fill="#0c0c0c" fill-rule="evenodd" stroke="#0c0c0c" stroke-width=".5"/><rect width=".5" height="38" x="11.51" y="5" rx="0" ry="0" fill="#f6b6b6" fill-opacity=".694" paint-order="markers stroke fill"/><rect width=".25" height="32" x="9" y="-40" rx="0" ry="0" transform="rotate(90)" fill="#bad5ff" fill-opacity=".592" paint-order="markers stroke fill"/><rect transform="rotate(90)" ry="0" rx="0" y="-40" x="12" height="32" width=".25" fill="#bad5ff" fill-opacity=".592" paint-order="markers stroke fill"/><rect width=".25" height="32" x="14" y="-40" rx="0" ry="0" transform="rotate(90)" fill="#bad5ff" fill-opacity=".592" paint-order="markers stroke fill"/></svg>