<svg xmlns="http://www.w3.org/2000/svg" width="48" height="48"><defs><linearGradient id="a"><stop offset="0" stop-color="#fbac9b"/><stop offset="1" stop-color="#fcfafc"/></linearGradient><linearGradient id="b"><stop offset="0" stop-color="#feffff"/><stop offset="1" stop-color="#fe70ca"/></linearGradient><linearGradient id="c"><stop offset="0" stop-color="#fff"/><stop offset="1" stop-color="#fff" stop-opacity="0"/></linearGradient><linearGradient id="d"><stop offset="0" stop-color="#fff"/><stop offset="1" stop-color="#fff" stop-opacity="0"/></linearGradient><linearGradient id="e"><stop offset="0" stop-color="#fff"/><stop offset="1" stop-color="#fff" stop-opacity="0"/></linearGradient><linearGradient id="f"><stop offset="0" stop-color="#ff54d2" stop-opacity="0"/><stop offset=".324" stop-color="#ff54d2" stop-opacity="0"/><stop offset=".561" stop-color="#ff54d2" stop-opacity=".252"/><stop offset="1" stop-color="#ff54d2" stop-opacity=".478"/></linearGradient><linearGradient id="g"><stop offset="0" stop-color="#fff" stop-opacity="0"/><stop offset=".405" stop-color="#fff" stop-opacity="0"/><stop offset="1" stop-color="#fff" stop-opacity=".478"/></linearGradient><linearGradient id="h"><stop offset="0" stop-color="#fff" stop-opacity="0"/><stop offset=".405" stop-color="#fff" stop-opacity="0"/><stop offset="1" stop-color="#fff" stop-opacity=".478"/></linearGradient><linearGradient id="i"><stop offset="0" stop-color="#fff" stop-opacity="0"/><stop offset=".405" stop-color="#fff" stop-opacity="0"/><stop offset="1" stop-color="#fff" stop-opacity=".478"/></linearGradient><linearGradient id="j"><stop offset="0" stop-color="#fff"/><stop offset="1" stop-color="#fff" stop-opacity="0"/></linearGradient><linearGradient id="k"><stop offset="0" stop-color="#fff"/><stop offset=".338" stop-color="#fff" stop-opacity=".235"/><stop offset=".62" stop-color="#fff" stop-opacity=".157"/><stop offset="1" stop-color="#fff" stop-opacity=".392"/></linearGradient><linearGradient id="l"><stop offset="0" stop-color="#ff54d2" stop-opacity="0"/><stop offset=".324" stop-color="#f62b68"/><stop offset=".561" stop-color="#ff0105"/><stop offset="1" stop-color="#ff54d2" stop-opacity=".478"/></linearGradient><linearGradient id="m"><stop offset="0" stop-color="#fff"/><stop offset=".338" stop-color="#fff" stop-opacity=".235"/><stop offset=".62" stop-color="#fff" stop-opacity=".157"/><stop offset="1" stop-color="#fff" stop-opacity=".392"/></linearGradient><linearGradient id="n"><stop offset="0" stop-opacity="0"/><stop offset=".5" stop-opacity="0"/><stop offset="1"/></linearGradient><linearGradient id="o"><stop offset="0" stop-color="#612f91"/><stop offset="1" stop-color="#1a4aa2"/></linearGradient><linearGradient x1="7.078" y1="3.082" x2="7.078" y2="45.369" id="p" gradientUnits="userSpaceOnUse" gradientTransform="matrix(.2211 0 0 .2211 6.693 6.693)"><stop offset="0" stop-color="#170418"/><stop offset="1" stop-color="#50386b"/></linearGradient><linearGradient id="q"><stop offset="0" stop-color="#07132d"/><stop offset="1" stop-color="#425479"/></linearGradient><linearGradient id="r"><stop offset="0" stop-color="#2d3955"/><stop offset=".725" stop-color="#2b3853"/><stop offset=".75" stop-color="#192640"/><stop offset="1" stop-color="#08142e"/></linearGradient><linearGradient id="s"><stop offset="0" stop-color="#fff"/><stop offset=".338" stop-color="#fff" stop-opacity=".235"/><stop offset=".62" stop-color="#fff" stop-opacity=".157"/><stop offset="1" stop-color="#fff" stop-opacity=".392"/></linearGradient><linearGradient id="t"><stop offset="0" stop-color="#7a8498"/><stop offset="1" stop-color="#34405c"/></linearGradient><linearGradient id="u"><stop offset="0" stop-color="#b6b6b6"/><stop offset=".331" stop-color="#a4a4a4"/><stop offset="1" stop-color="#c5c5c5"/></linearGradient><linearGradient id="v"><stop offset="0" stop-color="#fff"/><stop offset=".424" stop-color="#fff" stop-opacity=".235"/><stop offset=".821" stop-color="#fff" stop-opacity=".157"/><stop offset="1" stop-color="#fff" stop-opacity=".392"/></linearGradient><radialGradient cx="23.896" cy="3.99" r="20.397" id="w" gradientUnits="userSpaceOnUse" gradientTransform="matrix(0 1.23165 -1.62575 0 18.487 -28.722)"><stop offset="0" stop-color="#fff"/><stop offset=".262" stop-color="#ddd"/><stop offset=".661" stop-color="#abacae"/><stop offset="1" stop-color="#89898b"/></radialGradient><linearGradient id="x"><stop offset="0"/><stop offset="1" stop-opacity="0"/></linearGradient></defs><g transform="translate(2 -2)"><path d="M22 5.5C10.689 5.5 1.5 14.689 1.5 26S10.689 46.5 22 46.5 42.5 37.311 42.5 26 33.311 5.5 22 5.5z" style="marker:none" color="#000" overflow="visible" opacity=".15" fill="none" stroke="#000"/><path d="M22 6C10.965 6 2 14.965 2 26s8.965 20 20 20 20-8.965 20-20S33.035 6 22 6z" style="marker:none" color="#000" overflow="visible" fill="#f9f9f9"/><path d="M22 12c-7.725 0-14 6.276-14 14 0 7.725 6.276 14 14 14 7.725 0 14-6.276 14-14 0-7.725-6.276-14-14-14z" style="marker:none" color="#000" overflow="visible" fill="#e6e6e6"/><path d="M34 26a12 12 0 0 1-24 0 12 12 0 1 1 24 0z" style="marker:none" color="#000" overflow="visible" fill="#ccc"/><path d="M22 23.172A2.83 2.83 0 0 0 19.172 26 2.83 2.83 0 0 0 22 28.828 2.83 2.83 0 0 0 24.828 26 2.83 2.83 0 0 0 22 23.172z" opacity=".5" fill="none"/><path d="M29.5 26a7.5 7.5 0 1 0-15 0 7.5 7.5 0 0 0 15 0z" style="marker:none" color="#000" overflow="visible" opacity=".5" fill="none" stroke="#fff"/><circle r="7" cy="26" cx="22" opacity=".5" paint-order="markers stroke fill"/><circle cx="22" cy="26" r="5.5" opacity=".5" paint-order="markers stroke fill"/><path d="M19.796 23.669a1.093 1.144 0 0 1-2.187 0 1.093 1.144 0 1 1 2.187 0z" style="marker:none" color="#000" overflow="visible" opacity=".4" fill="#feffff"/></g></svg>