<svg xmlns="http://www.w3.org/2000/svg" height="48" width="48"><path style="marker:none" d="M27.915 7c-4.357 0-8.131 2.55-10.001 6.25a7.667 7.667 0 0 0-4.19-1.25c-4.325 0-7.83 3.582-7.83 8 0 .702.108 1.382.275 2.031C3.046 24.183 1 27.845 1 32c0 6.648 5.238 12 11.745 12h22.51C41.762 44 47 38.648 47 32c0-5.309-3.354-9.784-8.013-11.375.126-.69.183-1.398.183-2.125 0-6.351-5.039-11.5-11.255-11.5z" color="#000" fill="#f9f9f9" overflow="visible"/><path style="marker:none" d="M28 6.5c-4.452 0-8.308 2.618-10.219 6.419a7.805 7.805 0 0 0-4.281-1.284c-4.418 0-8 3.679-8 8.216 0 .722.111 1.42.281 2.086C2.591 24.147.5 27.908.5 32.176c0 6.827 5.352 12.324 12 12.324h23c6.648 0 12-5.497 12-12.324 0-5.453-3.427-10.05-8.188-11.683.13-.708.188-1.435.188-2.182C39.5 11.788 34.351 6.5 28 6.5z" opacity=".35" color="#000" fill="none" stroke="#555761" stroke-linecap="round" stroke-linejoin="round" overflow="visible"/></svg>