<svg xmlns="http://www.w3.org/2000/svg" version="1.0" width="48" height="48"><rect style="marker:none" y="5.5" x="4.5" ry="2" rx="2" height="39" width="39" color="#000" overflow="visible" opacity=".25" fill="none" stroke="#555761" stroke-linecap="round" stroke-linejoin="round"/><rect width="38" height="38" rx="1.5" ry="1.5" x="5" y="6" style="marker:none" color="#000" overflow="visible" fill="#f3f3f3"/><path style="marker:none" d="M5 39.5v3c0 .831.669 1.5 1.5 1.5h35c.831 0 1.5-.669 1.5-1.5v-3c0 .831-.669 1.5-1.5 1.5h-35c-.831 0-1.5-.669-1.5-1.5z" color="#000" overflow="visible" opacity=".1"/><path d="M21.237 25.682l.884-2.75a146.874 146.874 0 0 0 1.793-6.09h.098c.59 2.087 1.154 4.052 1.817 6.09l.86 2.75zM28.973 33h2.406l-6.114-18h-2.53l-6.114 18h2.308l1.744-5.5h6.58z" aria-label="A" font-weight="400" font-size="24.557" font-family="sans-serif" letter-spacing="0" word-spacing="0" fill="gray"/></svg>