<svg xmlns="http://www.w3.org/2000/svg" height="48" width="48"><defs><linearGradient id="e"><stop offset="0" stop-color="#fff"/><stop offset=".021" stop-color="#fff" stop-opacity=".235"/><stop offset=".977" stop-color="#fff" stop-opacity=".157"/><stop offset="1" stop-color="#fff" stop-opacity=".392"/></linearGradient><linearGradient id="d"><stop offset="0"/><stop offset="1" stop-opacity="0"/></linearGradient><linearGradient id="a"><stop offset="0" stop-color="#181818"/><stop offset="1" stop-color="#181818" stop-opacity="0"/></linearGradient><linearGradient id="b"><stop offset="0" stop-color="#181818"/><stop offset="1" stop-color="#181818" stop-opacity="0"/></linearGradient><linearGradient id="c"><stop offset="0" stop-color="#181818" stop-opacity="0"/><stop offset=".5" stop-color="#181818"/><stop offset="1" stop-color="#181818" stop-opacity="0"/></linearGradient><linearGradient id="f"><stop offset="0" stop-color="#919caf"/><stop offset=".262" stop-color="#68758e"/><stop offset=".705" stop-color="#485a6c"/><stop offset="1" stop-color="#444c5c"/></linearGradient></defs><rect style="marker:none" y="5" x="5" ry="2" rx="2" height="38" width="38" color="#000" overflow="visible" fill="#6e7a8e" stroke="#2f3741" stroke-width="2" opacity=".75"/><rect width="38" height="38" rx="2" ry="2" x="5" y="5" style="marker:none" color="#000" overflow="visible" fill="#6e7a8e"/><path style="isolation:auto;mix-blend-mode:normal;solid-color:#000;solid-opacity:1;marker:none" d="M22.286 12c-.309 0-.566 1.192-.717 2.895a9.429 9.429 0 0 0-2.278.957c-1.316-1.103-2.345-1.769-2.563-1.55l-2.426 2.426c-.219.218.447 1.247 1.55 2.563a9.429 9.429 0 0 0-.95 2.278c-1.707.151-2.902.408-2.902.717v3.428c0 .309 1.192.566 2.895.717a9.429 9.429 0 0 0 .954 2.283c-1.1 1.314-1.766 2.34-1.547 2.558l2.426 2.426c.218.218 1.242-.445 2.554-1.543a9.429 9.429 0 0 0 2.287.942c.151 1.708.408 2.903.717 2.903h3.428c.309 0 .566-1.192.717-2.895a9.429 9.429 0 0 0 2.278-.957c1.316 1.103 2.345 1.769 2.563 1.55l2.426-2.426c.219-.218-.447-1.247-1.55-2.563a9.429 9.429 0 0 0 .95-2.278c1.707-.151 2.902-.408 2.902-.717v-3.428c0-.309-1.192-.566-2.895-.717a9.429 9.429 0 0 0-.954-2.283c1.1-1.314 1.766-2.34 1.547-2.558l-2.426-2.426c-.218-.218-1.242.445-2.554 1.543a9.429 9.429 0 0 0-2.287-.942C26.28 13.195 26.023 12 25.714 12zM24 19.714A4.286 4.286 0 0 1 28.286 24 4.286 4.286 0 0 1 24 28.286 4.286 4.286 0 0 1 19.714 24 4.286 4.286 0 0 1 24 19.714z" color="#000" overflow="visible" fill="#455365"/><path d="M22.488 12.5a2.431 2.431 0 0 0-.14.43c-.112.468-.213 1.177-.287 2.013a.492.492 0 0 1-.362.432 8.943 8.943 0 0 0-2.156.908.492.492 0 0 1-.564-.049c-.647-.542-1.223-.974-1.635-1.228a2.471 2.471 0 0 0-.407-.207L14.8 16.938c.035.09.094.223.207.406.254.412.686.988 1.228 1.635a.492.492 0 0 1 .05.564 8.942 8.942 0 0 0-.901 2.156.492.492 0 0 1-.432.362c-.839.074-1.55.175-2.02.287a2.45 2.45 0 0 0-.431.14v3.024c.088.039.222.09.43.14.468.112 1.177.213 2.013.287a.492.492 0 0 1 .432.362c.205.756.512 1.485.906 2.162a.492.492 0 0 1-.049.564c-.54.646-.972 1.22-1.226 1.631a2.474 2.474 0 0 0-.207.405l2.138 2.138c.09-.035.223-.095.405-.207.41-.253.984-.683 1.629-1.223a.492.492 0 0 1 .562-.048 8.938 8.938 0 0 0 2.164.892c.2.054.346.227.364.434.074.839.175 1.55.287 2.02.05.207.101.343.14.431h3.024c.039-.088.09-.222.14-.43.112-.468.213-1.177.287-2.013a.492.492 0 0 1 .362-.432 8.943 8.943 0 0 0 2.156-.908.492.492 0 0 1 .564.049c.647.542 1.223.974 1.635 1.228.183.113.316.172.406.207l2.14-2.138a2.47 2.47 0 0 0-.208-.407c-.254-.412-.686-.988-1.228-1.635a.492.492 0 0 1-.05-.564 8.942 8.942 0 0 0 .901-2.156.492.492 0 0 1 .432-.362c.839-.074 1.55-.175 2.02-.287a2.45 2.45 0 0 0 .431-.14v-3.024a2.431 2.431 0 0 0-.43-.14c-.468-.112-1.177-.213-2.013-.287a.492.492 0 0 1-.432-.362 8.945 8.945 0 0 0-.906-2.162.492.492 0 0 1 .049-.564c.54-.646.972-1.22 1.226-1.631.112-.182.172-.315.207-.404l-2.139-2.14c-.09.036-.222.096-.404.208-.41.253-.984.683-1.629 1.223a.492.492 0 0 1-.562.048 8.938 8.938 0 0 0-2.164-.892.492.492 0 0 1-.364-.434c-.074-.839-.175-1.55-.287-2.02a2.45 2.45 0 0 0-.14-.431z" style="isolation:auto;mix-blend-mode:normal;solid-color:#000;solid-opacity:1;marker:none" color="#000" overflow="visible" opacity=".75" fill="none" stroke="#474c59"/><path style="marker:none" d="M24 28.748c2.79.082 5.19-2.706 4.68-5.458-.348-2.765-3.443-4.725-6.083-3.807-2.591.736-4.09 3.903-2.958 6.364.715 1.722 2.493 2.922 4.36 2.901z" overflow="visible" opacity=".75" fill="none" stroke="#474c59"/></svg>