<svg xmlns="http://www.w3.org/2000/svg" width="48" height="48"><g transform="translate(-584 -912)"><path fill="none" d="M584 912h48v48h-48z"/><path d="M599 921.004c-2.229 0-6.804 2.39-6.757 3.365a6.089 6.089 0 0 0-1.492 1.885s-4.717 11.499-4.75 19.5c.306 5.298 2.6 6.164 3.15 6.199.758-.012 1.514-.06 2.35-.75.427-.387 4.082-4.484 5.25-5.652 1.167-1.168 1.5-1.483 3-1.5h16.5c1.5.017 1.832.332 3 1.5 1.167 1.167 4.822 5.265 5.25 5.652.835.69 1.591.738 2.35.75.55-.035 2.843-.9 3.15-6.2-.034-8-4.75-19.5-4.75-19.5a6.089 6.089 0 0 0-1.493-1.884c.047-.975-4.528-3.365-6.757-3.365-1.632 0-3.4 1.996-3.4 1.996h-11.2s-1.77-1.996-3.4-1.996z" fill="#464c5c" stroke="#464c5c" stroke-width=".2"/><path d="M617 921.003c2.23 0 6.805 2.39 6.758 3.365v.001a6.085 6.085 0 0 1 1.493 1.884s4.716 11.499 4.75 19.5c-.307 5.298-2.6 6.165-3.15 6.2-.759-.012-1.514-.06-2.35-.75-.428-.387-4.083-4.485-5.25-5.653-1.168-1.168-1.5-1.482-3-1.5H608V923h5.6s1.768-1.997 3.4-1.997zM599 921.003c-2.229 0-6.804 2.39-6.757 3.365v.001a6.085 6.085 0 0 0-1.492 1.884s-4.717 11.499-4.75 19.5c.306 5.298 2.6 6.165 3.15 6.2.758-.012 1.514-.06 2.35-.75.427-.387 4.082-4.485 5.25-5.653 1.167-1.168 1.5-1.482 3-1.5H608V923h-5.6s-1.77-1.997-3.4-1.997z" fill="#464c5c"/><ellipse ry="2" rx="2" cy="927" cx="620" fill-opacity=".196"/><ellipse ry="1" rx="1" cy="927" cx="620" fill="#fff669"/><ellipse ry="2" rx="2" cy="933" cx="620" fill-opacity=".196"/><ellipse ry="1" rx="1" cy="933" cx="620" fill="#8ce755"/><ellipse ry="2" rx="2" cy="930" cx="623" fill-opacity=".196"/><ellipse ry="1" rx="1" cy="930" cx="623" fill="#ff5656"/><ellipse ry="2" rx="2" cy="930" cx="617" fill-opacity=".196"/><ellipse ry="1" rx="1" cy="930" cx="617" fill="#5294e2"/><ellipse ry="3.999" rx="3.999" cy="930.001" cx="595.999" fill-opacity=".392"/><ellipse ry="3" rx="3" cy="930.003" cx="596.001" fill="#636979"/><ellipse ry="2" rx="2" cy="930.003" cx="596" fill="#333949"/><ellipse ry="4" rx="4" cy="938" cx="614" fill-opacity=".392"/><ellipse ry="3" rx="3" cy="938" cx="614" fill="#636979"/><ellipse ry="2" rx="2" cy="938" cx="614" fill="#333949"/><ellipse ry="4" rx="4" cy="938" cx="602" fill-opacity=".392"/><path d="M591.5 924.875s5.06-2.018 6.916-2.117c1.525 0 4.256 4.676 5.085 4.742h4.5" fill="none" stroke="#5e6474"/><path d="M624.5 924.875s-5.059-2.018-6.915-2.117c-1.525 0-4.256 4.676-5.084 4.742H608" fill="none" stroke="#5e6474"/><path d="M601 936v1h-1v2h1v1h2v-1h1v-2h-1v-1z" fill="none" stroke="#636979" stroke-width="2" stroke-opacity=".784"/><path d="M601 936v1h-1v2h1v1h2v-1h1v-2h-1v-1z" fill="#333949"/><ellipse ry="1" rx="1" cy="930" cx="605" fill-opacity=".301"/><ellipse ry="1" rx="1" cy="930" cx="611" fill-opacity=".301"/><path d="M599 921.004c-1.984 0-5.82 1.892-6.607 2.996a64.183 64.183 0 0 1 1.705-.62c1.51-.52 3.207-1.062 4.291-1.12h.028c.636 0 1.138.39 1.656.861.518.47 1.038 1.071 1.531 1.666.494.595.961 1.185 1.342 1.615.19.215.36.391.486.498.123.106.214.11.106.102h8.925c-.108.01-.017 0 .106-.102.125-.107.296-.283.486-.498.381-.43.849-1.02 1.342-1.615.494-.595 1.014-1.195 1.531-1.666.518-.47 1.02-.861 1.657-.861h.027c1.084.058 2.781.6 4.29 1.12.659.228 1.224.438 1.706.62-.787-1.104-4.623-2.996-6.607-2.996-1.632 0-3.4 1.996-3.4 1.996h-11.2s-1.769-1.996-3.4-1.996z" fill="#3e4454"/><path d="M599 920.004c-1.471 0-3.18.661-4.685 1.426-.753.382-1.432.792-1.969 1.216a4.114 4.114 0 0 0-.703.68c-.074.095-.081.287-.148.406-.619.553-1.212 1.22-1.639 2.075l-.016.033-.015.035s-4.79 11.484-4.824 19.875v.03l.002.031c.16 2.79.853 4.54 1.69 5.625.835 1.085 1.686 1.469 2.394 1.514h.08c.79-.013 1.924-.115 2.97-.978l.018-.014.016-.018c.233-.211.478-.488.902-.948.424-.46.957-1.045 1.514-1.654 1.112-1.218 2.332-2.547 2.87-3.086.583-.582.911-.881 1.147-1.01.236-.128.477-.189 1.158-.197h16.477c.681.01.922.07 1.158.197.236.129.565.428 1.147 1.01.539.54 1.758 1.868 2.87 3.086.557.609 1.09 1.194 1.514 1.654.424.46.67.737.903.948l.015.018.018.014c1.046.863 2.18.966 2.97.978h.079c.708-.045 1.56-.429 2.396-1.514.836-1.084 1.529-2.835 1.69-5.625l.002-.03v-.031c-.035-8.39-4.824-19.875-4.824-19.875l-.016-.035-.016-.033c-.427-.855-1.02-1.522-1.638-2.075-.067-.119-.074-.311-.149-.406a4.114 4.114 0 0 0-.703-.68c-.537-.424-1.216-.834-1.969-1.216-1.505-.765-3.213-1.426-4.685-1.426-1.224 0-2.197.646-2.924 1.207-.51.394-.667.588-.86.789h-10.433c-.192-.201-.35-.395-.86-.79-.726-.56-1.7-1.206-2.923-1.206zm0 1c1.632 0 3.401 1.996 3.401 1.996h11.2s1.768-1.996 3.4-1.996c2.229 0 6.804 2.39 6.757 3.365a6.089 6.089 0 0 1 1.493 1.885s4.716 11.499 4.75 19.5c-.307 5.298-2.6 6.164-3.15 6.199-.759-.012-1.515-.06-2.35-.75-.428-.387-4.083-4.484-5.25-5.652-1.168-1.168-1.5-1.482-3-1.5h-16.5c-1.5.018-1.833.332-3 1.5-1.168 1.167-4.823 5.265-5.25 5.652-.836.69-1.592.738-2.35.75-.55-.035-2.844-.9-3.15-6.2.033-8 4.75-19.5 4.75-19.5a6.089 6.089 0 0 1 1.492-1.884c-.047-.975 4.528-3.365 6.758-3.365z" style="line-height:normal;text-indent:0;text-align:start;text-decoration-line:none;text-decoration-style:solid;text-decoration-color:#000;text-transform:none;white-space:normal;isolation:auto;mix-blend-mode:normal;solid-color:#000;solid-opacity:1" color="#000" font-weight="400" font-family="sans-serif" overflow="visible" fill="#2c303c" fill-opacity=".906"/></g></svg>