<svg xmlns="http://www.w3.org/2000/svg" version="1.0" width="48" height="48"><g stroke-width="1.368"><path d="M-1.631 1.254c-14.36 0-26 11.64-26 26s11.64 26 26 26c7.18 0 5.833-5.972 7.643-8.24 1.365-1.713 3.241-3.483 5.42-3.715 2.54-.272 3.843.872 5.847.821 3.082-.078 5.28-2.487 6.469-5.708.748-2.028.62-7.363.62-9.158 0-14.36-11.64-26-26-26zm16.984 28.03a4 4 0 1 1 0 8 4 4 0 0 1 0-8z" fill="#fff" stroke="#000" stroke-width="2.737" stroke-opacity=".137" paint-order="stroke markers fill" transform="translate(25.189 4.083) scale(.73077)"/><path d="M23.997 5c-10.494 0-19 8.507-19 19s8.507 19 19 19c5.247 0 4.263-4.364 5.585-6.022.998-1.252 2.37-2.545 3.96-2.715 1.858-.198 2.81.638 4.274.6 2.253-.056 3.858-1.817 4.727-4.17.547-1.482.454-5.381.454-6.693 0-10.493-8.507-19-19-19zm12.411 20.483a2.923 2.923 0 1 1 0 5.846 2.923 2.923 0 0 1 0-5.846z" fill="#fff" paint-order="stroke markers fill"/><path d="M14.338 30.53s3.72 1.012 5.546-.032c1.827-1.044 2.284-2.806 1.631-4.274-.652-1.468-1.598-1.664-2.936-1.63-1.337.032-2.642.521-2.903 1.826-.261 1.305.26 2.349-.163 3.197-.425.848-1.175.914-1.175.914z" fill="#ff8e3d"/><path d="M17.597 28.054c2.43.168 3.832-1.709 3.383-2.55-.448-.842-1.099-.955-2.019-.936-.92.02-1.817.3-1.996 1.048-.18.748-.256 1.167.024 2.346.467-.664.954-.77 1.261-.835-.08.325-.36.618-.653.927z" fill="#ffd13d"/><path d="M33.209 15.026L22.913 25.969c-.475.505-1.191.603-1.548.245l-1.285-1.288c-.356-.358-.26-1.059.244-1.534l10.951-10.3c.505-.475 1.173-.598 1.53-.24l.644.644c.358.357.235 1.025-.24 1.53z" fill="#333" paint-order="stroke markers fill"/></g></svg>