<svg xmlns="http://www.w3.org/2000/svg" width="48" height="48"><rect style="marker:none" y="5" x="5" ry="2" rx="2" height="38" width="38" color="#000" overflow="visible" opacity=".9" fill="#5ace87" stroke="#304b3a" stroke-width="2"/><rect width="38" height="38" rx="2" ry="2" x="5" y="5" style="marker:none" color="#000" overflow="visible" fill="#2e6f52"/><path d="M9.713 23.259c-.331.023.303-.602 0 0zm4.94 0c.06.616-.181-.273 0 0zm3.073 7.257c-.386.417-.289.508-.525-.09-.376.712-.976.52-1.178-.243-.268-1.112-.849-2.019-1.337-3.063-.567-1.064-2.306-.853-3.056-.693-.458.254-.255 2.124-.663.979.632.24-.373-1.046.18-1.216-.755.39-.519 1.828-.349 2.47-.162.715-.401 1.288-1.034 1.127-.305.1-.653.163-.78.122-.824.06-.102-.83-.692-1.172.116-.788 1.241-.398.538-1.37.198-1.064.884-1.64.09-2.521.045-.356.838-.77.985-1.063 1.105.054-.292-1.612.448-1.587-.174-.352.6-.64-.205-.793.094-.455.011-.983.346-.423.66-.052.744-.75.064-.358.002-.47.227-1.525.256-.589.576-.288.048-1.154.153-1.574-.336-.207.998-1.805 1.62-.87.857-.076.742 1.015.659 1.804.978.29.108 2.34.996 2.319.04.786-.073 2.067.527 2.523.67-.226-.56.982.365.708.302.14.52 1.049.812.364.351.358.989 1.308.15.457-.723-.133.148 1.288-.598.426-.142.62.688.47.359 1.14.425.136.256-.506.405.217.354.986 1.1 1.72 1.416 2.761l.048.208zm-9.127-3.545c-.368.341.047-.297 0 0zm-.256.64c-.192-.134.086-.401 0 0zm.103.384c-.534.183-.093-.636 0 0zm-.256 1.318c-.309.63-.431-.332 0 0zm2.752 0c-.033.772-.37.257 0 0zm-2.804.46c-.073.445-.347-.107 0 0zm3.085-11.75c-.407.242.22.425 0 0zm.807.32c.043-.2-.296.043 0 0zm.05 2.484c.202-1.232-1.003.993-.207.006l.093-.045.115.039zm-1.113.473c-.314-.717-.383.577 0 0zm3.072 1.101c-.129-.458-.408-1.264-.56-1.408.215.394-.063 1.314.56 1.408zm-2.483-.512c.037-.238-.254.045 0 0zm-.333.717c-.56-.352.061.89 0 0zm2.906.269c.065-.4-.415.084 0 0zm-.73 2.227c.262-1.204-.687-2.284-.914-3.398-1.01.254.588 1.114-.455 1.055-.33.262.742.173-.039.404-.32.278.436.628-.134.774.312.017-.546 1.004.416.9.387.01.793.046 1.126.265zm-1.933-1.28c.016-.133-.158-.141 0 0zm-1.164.23c-.674.325.022 1.221-.02.11zm.307 1.933c-.292-.724-.502.441 0 0zm-.589.435c.134-.993-.56.101 0 0zm-.46.282c-.033-1.016-.663.173 0 0zm1.663.269c0-.128 0-.083 0 0zm-.819.384c.081-.523-.146-.965-.102-.188.026.09-.073.244.102.188zm-.896.524c.12-.737-.497.117 0 0zm.512.858c.005-.912-.237-.681-.256.051.092.016.172-.025.256-.05zm-1.28.691c-.156-.278-.18.032 0 0zm17.386-11.52c-.356.175-1.023-.757 0 0zm.256 5.517c-.286.16-.105-.328 0 0zm.678-4.07c-.337-.238-1.229-.873-.742.05-.251.594 1.154-.305.518.359-.299.11.149.482-.4.47.946.486-1.369 1.171-.72 1.63-.365.327-.608.526-.908.179-.173.582-.719-.521-.602.307.129.686.975-.417.435.563-.63.683.583 1.118.355.09.613-.547.275 2.397.81 1.318-.253-.756.995-.502.285-.003-.096.58.415 1.058.099 1.398.568-.278.284.431.074.412.055.405-.544 1.22-.253.151-.192-.821-.85.228-.369.464-.57.333.069 1.475-.463 1.316.23-.916-.224-.51-.527-.06-.302.29-.195 1.345-.622.764-.326.404-.96.85-1.703 1.07-.002.129-.222-.812-.655-.1-.162-.134-.151-.891-.756-.356-.195-.634-.383-.132-.466-.163-.266-.628-.806-.546-.65.131-.408.187-.392-1.258-.832-.278-.66-.45.684-1.584-.279-1.75.43-.622-.202-1.328.317-1.889.232-.77-.122-1.72-.15-2.246-.254.236.294-.564.067-.823.662-.833-.833-.58.048-1.18-.094-.893-.451-2.143.179-3.028.473-.095.876-.575 1.27-.25.314-.582.895-.083 1.2-.722.597-.291.683.838 1.19.268-.932-.436.79-.274.666.218.343-.66 1.104-.19 1.41-.249-.909.34.56.404.86.722.461.336 1.179.59 1.314 1.217zm-8.166 5.644c-.182-.314.058-.387 0 0zm7.82.154c-.642.015.145-.688 0 0zm-.588 1.984c.214.618-.416-.128 0 0zm-1.062 1.702c-.702-.156.22-.494 0 0zM23.105 17.5c-.072-.372-.28.236 0 0zm1.05.204c.13-.604-.739.005 0 0zm-.282.59c.033-.533-.186-.13 0 0zm1.728.32c-.289-.242-.138.424 0 0zm-.857 0c-.25.324.003.656 0 0zm.908.793c.09-.985-.602.311 0 0zm0 .358c-.502.053-.011.269 0 0zm-.384.167c-.383-.093.02.437 0 0zm-.345.332c-.321-.288-.194.333 0 0zm-.589.525c.284-1.152-.806-1.767-1.222-2.077-.608.353-1.067-.701-1.556-.022-.714-1.171-1.361.78-1.017.925.467-.675.376-.458.262.144.416.194.158.957.09.672.637.481.079 1.434.691 1.971.255-.695 1.292-.402 1.648-1.186.288.135-.062 1.626.515.712-.029-.444-.388-.947.205-1.382.073.114.213.303.384.243zm-3.891-.243c-.036-.68-.61.147 0 0zm4.953.243c.01-.308-.411.105 0 0zm-5.184.026c-.46-.04.156.562 0 0zm4.71.525c-.06-.506-.126.286 0 0zm-4.134.064c-.668-.78-.144 1.497-.204.115l.121-.1zm-.844.179c-.215-.06.05.286 0 0zm1.164.985c-.129-.572-.627.298 0 0zm.41.333c-.107-.544-.094-.238 0 0zm-.934.256c.08-.365-.242-.343 0 0zm2.841-.256c-.163.262-.028.375 0 0zm-3.686.256c.117-.651-.802.139 0 0zm.589.525c.047-.357-.503-.023 0 0zm-.59.038c-.343.04-.079.671 0 0zm4.954.781c.216-.54-.374-.427 0 0zm-4.16-.025c-.448.04.017.799-.01.063zm4.416.563c.1-.636-.301-.093 0 0zm-5.158-.474c-.524.297.173 1.449.029.307l-.015-.153zm4.698 1.05c-.038-.703-.215-1.447-.999-1.408.157-.635-.781.454-.86-.493-.065-.228-.268.632-.522.16.237-.635-.138-1.838-.205-.55.427.53-.818.64-.635.155-.316.316-.017.694-.479 1.022.45-.06.81.34.205.448.646.653-.099 1.758.189 2.343.03.496-.034.661.26.857.113 1.211 2.09.11 2.431-.614.238-.636.792-1.18.615-1.92zm-3.584-.051c-.16-.145-.132.574-.381.713-.214.563.53 1.318.099.477-.22-.43.56-.731.282-1.19zM19.79 27.38c.291-1.26-.898.184 0 0zm1.382.87c-.057-.217-.22.094 0 0zm-1.523.385c.119-.95-.433-.244 0 0zM32.55 17.819c-.063.327-.362.004 0 0zm7.463 10.176c-.15.417-.896 1.802-.922 1.004-.827-.115-.574.87-1.248.468-.422.132-.733.248-.83.413-.567-.568-1.088.415-1.836-.11-.496.027-.901-.594-.924.183-.5-.85-1.718-.529-2.125-1.446-.745.398-1.888-.574-2.269-.701-.034-.54-1.015-1.795-.803-.503-.136.324-.692-.87-.167-1.01-1.07.073-.276-1.212-.69-1.729-.313-.334-.115-1.766-.647-.694-.272.29.175-.97.48-1.02-.21-.543 1.013-1.342-.026-1.204.414-.186.789-1.43.763-1.166.03 1.306 1.2.04.661-.642-.052.234.877 1.185 1.024.073-.096-.66-.207-.535.31-.316.46-.203.3-.795.55-.887-.04.49.181.987.353.16.809.197.676-1.173 1.42-.594.031-.947 1.06-.004 1.23-.916-.054.778.483.1.883.46.273-.72 1.17-.786 1.133-.111.365-.332 1.267.068.544.681-.055.31.769.202.019.506-.645.241-1.71-.468-2.693-.057-1.078.455-2.154 1.08-3.008 1.9-.508.564-.294 1.314-.906 1.547.08 1.077-.559 2.232.047 3.19.904.878 1.378 1.825 2.676 2.143.547.173.737.918 1.17.495 1.147.29 2.082.85 3.16.42 1.056.28 1.324-1.23 1.509-1.49.573.045.727-1.529 1.014-.331.176.4.318.853.148 1.284zM28.07 25.307c-.093.307-.19-.382 0 0zm-.064.396c-.196.034.033-.196 0 0zm1.536 1.895c-.205.008.059-.485 0 0zm6.477-9.715c-.176-.647-.55.037 0 0zm-7.002 3.827c-.35-.109-.067.234 0 0zm-.256.985c-.426.087-.087.42 0 0zm1.306.884c-.308-.14-.042.66 0 0zm-1.05.716c.049-.325-.195.007 0 0zm-.192 1.536c-.006-.481-.262.264 0 0zm10.79 1.472c-.627-.219-.147.947 0 0zm0 .884c.034-.432-.491-.02 0 0zm-4.966.524c-.362.024.034.402 0 0zm-1.472.167c-.09-.521-.336.29 0 0z" style="line-height:100%;-inkscape-font-specification:'Eraser Bold'" font-weight="700" font-size="16" font-family="Eraser" letter-spacing="0" word-spacing="0" fill="#fff"/></svg>