<svg xmlns="http://www.w3.org/2000/svg" width="48" height="48"><rect style="marker:none" y="4.5" x="4.5" ry="2" rx="2" height="39" width="39" color="#000" overflow="visible" fill="#4eb5eb" stroke="#207fd0" stroke-linecap="round" stroke-linejoin="round" stroke-opacity=".847"/><path style="marker:none" d="M8.5 7v2H7v1h1.5v4H7v1h1.5v4H7v1h1.5v4H7v1h1.5v4H7v1h1.5v4H7v1h1.5v4H7v1h1.5v1h1v-1h4v1h1v-1h4v1h1v-1h4v1h1v-1h4v1h1v-1h4v1h1v-1h4v1h1v-1H41v-1h-1.5v-4H41v-1h-1.5v-4H41v-1h-1.5v-4H41v-1h-1.5v-4H41v-1h-1.5v-4H41v-1h-1.5v-4H41V9h-1.5V7h-1v2h-4V7h-1v2h-4V7h-1v2h-4V7h-1v2h-4V7h-1v2h-4V7h-1v2h-4V7zm1 3h4v4h-4zm5 0h4v4h-4zm5 0h4v4h-4zm5 0h4v4h-4zm5 0h4v4h-4zm5 0h4v4h-4zm-25 5h4v4h-4zm5 0h4v4h-4zm5 0h4v4h-4zm5 0h4v4h-4zm5 0h4v4h-4zm5 0h4v4h-4zm-25 5h4v4h-4zm5 0h4v4h-4zm5 0h4v4h-4zm5 0h4v4h-4zm5 0h4v4h-4zm5 0h4v4h-4zm-25 5h4v4h-4zm5 0h4v4h-4zm5 0h4v4h-4zm5 0h4v4h-4zm5 0h4v4h-4zm5 0h4v4h-4zm-25 5h4v4h-4zm5 0h4v4h-4zm5 0h4v4h-4zm5 0h4v4h-4zm5 0h4v4h-4zm5 0h4v4h-4zm-25 5h4v4h-4zm5 0h4v4h-4zm5 0h4v4h-4zm5 0h4v4h-4zm5 0h4v4h-4zm5 0h4v4h-4z" color="#000" overflow="visible" opacity=".1" fill="#fff"/><path style="marker:none" d="M24.281 8.07c-1.913.085-4.181.636-6.843 1.843a.946.946 0 0 0 .468 1.813s2.451-.148 4.219.437c.884.293 1.514.73 1.75 1.281.236.552.236 1.463-.688 3.063l-2.937 5.062-.406-.218a.946.946 0 0 0-1.282.343L10.47 35.726a.946.946 0 0 0 .344 1.281l4.843 2.812a.946.946 0 0 0 1.281-.343l8.125-14.032a.946.946 0 0 0-.343-1.28l-.407-.25 2.938-5.063.219-.344v-.031c.206-.336.653-.903 1.125-1.219.392-.263.747-.346 1.25-.156l.5 2.093a.946.946 0 0 0 .437.594L33 21.07a.946.946 0 0 0 1.281-.343l3.25-5.657a.946.946 0 0 0-.343-1.28L35 12.506a.946.946 0 0 0-.719-.094l-1.781.469c-.376-.936-1.193-2.655-3.563-3.875-1.207-.622-2.745-1.023-4.656-.938z" color="#000" overflow="visible" opacity=".25" fill="#2e8ed3"/><path style="marker:none" d="M28.514 9.836c-2.142-1.103-5.516-1.408-10.68.933 0 0 10.184-.777 6.16 6.194l-3.404 5.895-1.217-.703-8.102 14.034L16.139 39l8.103-14.034-1.218-.703 3.404-5.895.22-.38c.476-.786 1.938-2.786 3.972-1.611l.632 2.595 2.205 1.274 3.272-5.667-2.206-1.273-2.52.675s-.734-2.726-3.489-4.145z" color="#000" overflow="visible" fill="#fff"/></svg>