<svg xmlns="http://www.w3.org/2000/svg" xmlns:xlink="http://www.w3.org/1999/xlink" width="48" height="48"><defs><linearGradient x1="-3.812" y1="14.568" x2="-5.438" y2="8.804" id="d" xlink:href="#a" gradientUnits="userSpaceOnUse" gradientTransform="matrix(1.08978 0 0 .70734 37.62 2.376)"/><linearGradient id="a"><stop offset="0"/><stop offset="1" stop-color="#161616"/></linearGradient><linearGradient x1="-3.812" y1="14.568" x2="-5.438" y2="8.804" id="c" xlink:href="#b" gradientUnits="userSpaceOnUse" gradientTransform="matrix(2 0 0 1.76835 48.996 -5.936)"/><linearGradient id="b"><stop offset="0"/><stop offset="1" stop-color="#161616"/></linearGradient></defs><rect style="marker:none" y="5.5" x="4.5" ry="2" rx="2" height="39" width="39" color="#000" overflow="visible" fill="#bad557" stroke="#599f15" stroke-linecap="round" stroke-linejoin="round" stroke-opacity=".745"/><rect style="marker:none" y="19.5" x="15.5" ry="8.5" rx="8.5" height="19" width="17" color="#000" overflow="visible" fill="#4d4d4d" stroke="#000" stroke-linecap="round" stroke-linejoin="round"/><rect style="marker:none" y="11.5" x="15.5" ry="8.5" rx="8.5" height="19" width="17" color="#000" overflow="visible" opacity=".5" fill="none" stroke="#000" stroke-linecap="round" stroke-linejoin="round"/><path d="M13.781 16.156c-3.618 2.265-6.969 5.885-6.969 11.563 0 12.133 7.938 13.718 7.938 13.718s3.524-13.353 9.125-21.28l-.125-.782c-4.401-.048-8.163-1.352-9.969-3.219z" fill="#cf3738" stroke="#791235"/><path d="M15.51 37.622l-1.1 3.31s-5.94-1.46-6.985-10.876c2.885 7.386 8.086 7.566 8.086 7.566z" opacity=".3" fill="#ff932e"/><path d="M14 27.5a1.5 1.5 0 1 0 3 0 1.5 1.5 0 1 0-3 0zM12 22a1 1 0 1 0 2 0 1 1 0 1 0-2 0zM11 33a1 1 0 1 0 2 0 1 1 0 1 0-2 0z" fill="#1a1a1a"/><path d="M34.206 16.156c3.618 2.265 6.968 5.885 6.968 11.563 0 12.133-7.937 13.718-7.937 13.718s-3.524-13.353-9.125-21.28l.125-.782c4.401-.048 8.163-1.352 9.969-3.219z" fill="#cf3738" stroke="#791235"/><path d="M32.476 37.622l1.101 3.31s5.94-1.46 6.985-10.876c-2.885 7.386-8.086 7.566-8.086 7.566z" opacity=".3" fill="#ff932e"/><path d="M33.987 27.5a1.5 1.5 0 1 1-3 0 1.5 1.5 0 1 1 3 0zM35.987 22a1 1 0 1 1-2 0 1 1 0 1 1 2 0zM36.987 33a1 1 0 1 1-2 0 1 1 0 1 1 2 0z" fill="#1a1a1a"/><path style="marker:none" d="M24 9.375c-4.516 0-8.4 2.954-10.094 7.184C15.8 18.236 19.605 19.375 24 19.375s8.2-1.139 10.094-2.816C32.4 12.329 28.516 9.375 24 9.375z" color="#000" overflow="visible" fill="#4d4d4d" stroke="url(#c)" stroke-linecap="round" stroke-linejoin="round"/><path style="marker:none" d="M24 8.5c-2.46 0-4.577 1.182-5.5 2.874 1.032.67 3.105 1.126 5.5 1.126s4.468-.455 5.5-1.126C28.577 9.682 26.46 8.5 24 8.5z" color="#000" overflow="visible" fill="#666" stroke="url(#d)" stroke-linecap="round" stroke-linejoin="round"/><path style="marker:none" d="M21 8a1 1 0 1 1-2 0 1 1 0 1 1 2 0zM29 8a1 1 0 1 1-2 0 1 1 0 1 1 2 0z" color="#000" overflow="visible" fill="#0b0b0b"/></svg>