<svg xmlns="http://www.w3.org/2000/svg" version="1.0" width="48" height="48"><defs><linearGradient id="j"><stop offset="0" stop-color="#333"/><stop offset="1" stop-color="#333" stop-opacity="0"/></linearGradient><linearGradient id="i"><stop offset="0" stop-color="#ff6565"/><stop offset=".5" stop-color="#e90000"/><stop offset=".819" stop-color="#ae0000"/><stop offset="1" stop-color="#7f0000"/></linearGradient><linearGradient id="h"><stop offset="0" stop-color="#ffd0d0"/><stop offset=".5" stop-color="#f90000"/><stop offset=".819" stop-color="#ae0000"/><stop offset="1" stop-color="#860000"/></linearGradient><linearGradient id="g"><stop offset="0" stop-color="#fff"/><stop offset="1" stop-color="#fff" stop-opacity="0"/></linearGradient><linearGradient id="f"><stop offset="0" stop-color="#fff"/><stop offset="1" stop-color="#fff" stop-opacity="0"/></linearGradient><linearGradient id="d"><stop offset="0" stop-color="#fff"/><stop offset="1" stop-color="#d1b3b3"/></linearGradient><linearGradient id="e"><stop offset="0" stop-color="#d40000"/><stop offset=".534" stop-color="#e10000"/><stop offset="1" stop-color="#820000"/></linearGradient><linearGradient x1="45.448" y1="92.54" x2="45.448" y2="7.017" id="k" gradientUnits="userSpaceOnUse" gradientTransform="scale(1.00587 .99417)"><stop offset="0"/><stop offset="1" stop-opacity=".588"/></linearGradient><linearGradient id="a"><stop offset="0" stop-color="#fff"/><stop offset="1" stop-color="#fff" stop-opacity="0"/></linearGradient><linearGradient id="b"><stop offset="0" stop-color="#c8c8c8"/><stop offset="1" stop-color="#e6e6e6"/></linearGradient><filter id="l" color-interpolation-filters="sRGB"><feGaussianBlur stdDeviation="1.71"/></filter><linearGradient x1="45.448" y1="92.54" x2="45.448" y2="7.017" id="c" gradientUnits="userSpaceOnUse" gradientTransform="matrix(1.00587 0 0 .99417 100 0)"><stop offset="0"/><stop offset="1" stop-opacity=".588"/></linearGradient></defs><g transform="translate(1.661 -1.864)"><rect width="40" height="40" x="2.339" y="5.864" rx="2.308" ry="2.308" opacity=".75" fill="none" stroke="#2454d8" stroke-width="2" stroke-linecap="round" stroke-linejoin="round" paint-order="markers stroke fill"/><rect ry="2.308" rx="2.308" y="5.864" x="2.339" height="40" width="40" fill="#90a9ff" paint-order="markers stroke fill"/><path d="M4.647 5.864a2.303 2.303 0 0 0-2.308 2.308v.77h40v-.77a2.303 2.303 0 0 0-2.308-2.308z" opacity=".35" paint-order="markers stroke fill"/><rect width="7.692" height="1.538" x="18.424" y="6.634" ry=".769" opacity=".35" paint-order="stroke markers fill"/><g stroke-width="2.6"><path style="marker:none" d="M25.031 30.48s3.42 3.034 3.462 7.692a1.538 1.538 0 1 1-3.077 0c.577-5.4-1.154-5.385-1.154-5.385z" color="#000" overflow="visible" fill="#525292" enable-background="accumulate"/><path d="M19.647 30.48s-3.42 3.034-3.462 7.692a1.538 1.538 0 1 0 3.077 0c-.577-5.4 1.154-5.385 1.154-5.385z" style="marker:none" color="#000" overflow="visible" fill="#6969a6" enable-background="accumulate"/><path d="M22.339 15.095s-1.665 2.292-2.608 6.154h1.07v2.308h3.076v-2.308h1.07c-.943-3.862-2.608-6.154-2.608-6.154zm2.608 6.154c.073.3.15.611.216.925-.063-.323-.142-.621-.216-.925zm-1.07 2.308v2.307h1.695a22.331 22.331 0 0 0-.168-2.307zm1.695 2.307zm0 1.13zm-.06 1.178h-1.635v2.308h-3.076v-2.308h-1.635c.057.746.147 1.515.288 2.308l.962 5.384h3.846l.962-5.384a23.14 23.14 0 0 0 .288-2.308zm-6.346 0zm-.06-1.178zm0-1.13H20.8v-2.307h-1.527a22.33 22.33 0 0 0-.168 2.307zm1.695 0v2.308h3.076v-2.308zm-1.07-4.615c-.074.304-.153.602-.217.925.068-.314.144-.626.217-.925z" fill="#6969a6"/><path style="marker:none" d="M19.73 21.249c-.175.721-.347 1.48-.456 2.308h1.527v-2.308zm1.07 2.308v2.307h3.077v-2.307zm3.077 0h1.527c-.11-.828-.28-1.587-.457-2.308h-1.07zm0 2.307v2.308h1.635c.061-.8.08-1.567.06-2.308zm0 2.308h-3.076v2.308h3.076zm-3.076 0v-2.308h-1.695c-.02.741-.001 1.508.06 2.308z" color="#000" overflow="visible" opacity=".5" fill="#fff" enable-background="accumulate"/></g></g></svg>