<?xml version="1.0" encoding="UTF-8" standalone="no"?>
<svg
   xmlns:dc="http://purl.org/dc/elements/1.1/"
   xmlns:cc="http://creativecommons.org/ns#"
   xmlns:rdf="http://www.w3.org/1999/02/22-rdf-syntax-ns#"
   xmlns:svg="http://www.w3.org/2000/svg"
   xmlns="http://www.w3.org/2000/svg"
   xmlns:xlink="http://www.w3.org/1999/xlink"
   xmlns:sodipodi="http://sodipodi.sourceforge.net/DTD/sodipodi-0.dtd"
   xmlns:inkscape="http://www.inkscape.org/namespaces/inkscape"
   width="48"
   height="48"
   version="1.0"
   enable-background="new"
   id="svg62"
   sodipodi:docname="cinnamon-preferences-color.svg"
   inkscape:version="0.92.4 5da689c313, 2019-01-14">
  <metadata
     id="metadata66">
    <rdf:RDF>
      <cc:Work
         rdf:about="">
        <dc:format>image/svg+xml</dc:format>
        <dc:type
           rdf:resource="http://purl.org/dc/dcmitype/StillImage" />
      </cc:Work>
    </rdf:RDF>
  </metadata>
  <sodipodi:namedview
     pagecolor="#ffffff"
     bordercolor="#666666"
     borderopacity="1"
     objecttolerance="10"
     gridtolerance="10"
     guidetolerance="10"
     inkscape:pageopacity="0"
     inkscape:pageshadow="2"
     inkscape:window-width="1366"
     inkscape:window-height="709"
     id="namedview64"
     showgrid="false"
     inkscape:zoom="2.4583333"
     inkscape:cx="-61.315666"
     inkscape:cy="29.567949"
     inkscape:window-x="0"
     inkscape:window-y="30"
     inkscape:window-maximized="1"
     inkscape:current-layer="svg62" />
  <defs
     id="defs14">
    <clipPath
       clipPathUnits="userSpaceOnUse"
       id="b">
      <path
         d="M25.6 4.631c-11.035 0-20 8.958-20 19.985 0 11.026 8.965 19.984 20 19.984s20-8.958 20-19.984c0-11.027-8.965-19.985-20-19.985z"
         style="marker:none"
         color="#000"
         overflow="visible"
         opacity=".582"
         fill="url(#radialGradient4456)"
         enable-background="accumulate"
         id="path2" />
    </clipPath>
    <linearGradient
       gradientUnits="userSpaceOnUse"
       y2="2"
       x2="26"
       y1="46"
       x1="26"
       id="c"
       xlink:href="#a" />
    <linearGradient
       id="a">
      <stop
         offset="0"
         stop-color="#dfded1"
         id="stop6" />
      <stop
         offset="1"
         stop-color="#e8e7e0"
         id="stop8" />
    </linearGradient>
    <filter
       id="d">
      <feBlend
         in2="BackgroundImage"
         mode="multiply"
         id="feBlend11" />
    </filter>
  </defs>
  <circle
     style="fill:#fcfcfc"
     id="circle16"
     cx="24"
     cy="24"
     r="21" />
  <circle
     style="fill:none;stroke:#4f6698;stroke-opacity:0.26700003"
     id="circle54"
     cx="24"
     cy="24"
     r="21.5" />
  <g
     id="g1003"
     transform="matrix(2.7274342,0,0,2.7250147,2.1805269,2.1998821)">
    <path
       id="path30-3"
       d="M 8,8 3.328125,12.673828 C 4.1344913,13.480813 5.1531173,14.072173 6.2910156,14.375 Z"
       style="fill:#139dcb;fill-rule:evenodd;stroke-width:0.30011499"
       inkscape:connector-curvature="0" />
    <path
       id="path32-6"
       d="M 8,8 6.2910156,14.375 C 6.8365405,14.52018 7.4075592,14.605469 8,14.605469 c 0.5924408,0 1.1634595,-0.08529 1.7089844,-0.230469 z"
       style="fill:#3ed4f0;fill-rule:evenodd;stroke-width:0.30011499"
       inkscape:connector-curvature="0" />
    <path
       id="path34-7"
       d="m 8,8 1.7089844,6.375 c 1.1378986,-0.302827 2.1565246,-0.894187 2.9628906,-1.701172 z"
       style="fill:#32d439;fill-rule:evenodd;stroke-width:0.30011499"
       inkscape:connector-curvature="0" />
    <path
       id="path36-5"
       d="m 8,8 4.671875,4.673828 c 0.806191,-0.806809 1.396561,-1.824421 1.699219,-2.9628905 z"
       style="fill:#cee834;fill-rule:evenodd;stroke-width:0.30011499"
       inkscape:connector-curvature="0" />
    <path
       id="path38-3"
       d="M 14.371094,6.2890625 8,8 14.371094,9.7109375 C 14.51629,9.164772 14.599609,8.5931644 14.599609,8 c 0,-0.5931644 -0.08332,-1.164772 -0.228515,-1.7109375 z"
       style="fill:#ffe600;fill-rule:evenodd;stroke-width:0.30011499"
       inkscape:connector-curvature="0" />
    <path
       id="path40-5"
       d="M 12.671875,3.3261719 8,8 14.371094,6.2890625 C 14.068436,5.1505932 13.478066,4.1329807 12.671875,3.3261719 Z"
       style="fill:#f7ac1b;fill-rule:evenodd;stroke-width:0.30011499"
       inkscape:connector-curvature="0" />
    <path
       id="path42-6"
       d="M 9.7089844,1.625 8,8 12.671875,3.3261719 C 11.865509,2.5191873 10.846883,1.9278275 9.7089844,1.625 Z"
       style="fill:#fa7c1a;fill-rule:evenodd;stroke-width:0.30011499"
       inkscape:connector-curvature="0" />
    <path
       id="path44"
       d="m 8,1.3945312 c -0.5924408,0 -1.1634595,0.085289 -1.7089844,0.2304688 L 8,8 9.7089844,1.625 C 9.1634595,1.4798201 8.5924408,1.3945312 8,1.3945312 Z"
       style="fill:#ee332c;fill-rule:evenodd;stroke-width:0.30011499"
       inkscape:connector-curvature="0" />
    <path
       id="path46-2"
       d="M 8,8 1.6289062,9.7109375 c 0.302658,1.1384695 0.8930281,2.1560815 1.6992188,2.9628905 z"
       style="fill:#421ca8;fill-rule:evenodd;stroke-width:0.30011499"
       inkscape:connector-curvature="0" />
    <path
       id="path48-9"
       d="M 1.6289062,6.2890625 C 1.4837101,6.835228 1.4003906,7.4068356 1.4003906,8 c 0,0.5931644 0.083319,1.164772 0.2285156,1.7109375 L 8,8 Z"
       style="fill:#e861e2;fill-rule:evenodd;stroke-width:0.30011499"
       inkscape:connector-curvature="0" />
    <path
       id="path50"
       d="M 6.2910156,1.625 C 5.1531173,1.9278275 4.1344913,2.5191873 3.328125,3.3261719 L 8,8 Z"
       style="fill:#ff5474;fill-rule:evenodd;stroke-width:0.30011499"
       inkscape:connector-curvature="0" />
    <path
       id="path52"
       d="M 3.328125,3.3261719 C 2.5219343,4.1329807 1.9315642,5.1505932 1.6289062,6.2890625 L 8,8 Z"
       style="fill:#e92f61;fill-rule:evenodd;stroke-width:0.30011499"
       inkscape:connector-curvature="0" />
  </g>
  <circle
     style="fill:none;stroke:#4f6698;stroke-opacity:0.26700003"
     id="circle58"
     cx="24"
     cy="24"
     r="17.5" />
  <ellipse
     style="opacity:0.25;fill:#ffffff"
     id="ellipse56"
     cx="24"
     cy="24"
     rx="18.499001"
     ry="18" />
</svg>
