<svg xmlns="http://www.w3.org/2000/svg" height="48" width="48"><rect ry="2.308" rx="2.308" y="4" x="4" height="40" width="40" opacity=".75" fill="none" stroke="#2454d8" stroke-width="2" stroke-linecap="round" stroke-linejoin="round" paint-order="markers stroke fill"/><rect width="40" height="40" x="4" y="4" rx="2.308" ry="2.308" fill="#90a9ff" paint-order="markers stroke fill"/><path d="M6.308 4A2.303 2.303 0 0 0 4 6.308v.769h40v-.77A2.303 2.303 0 0 0 41.692 4z" opacity=".35" paint-order="markers stroke fill"/><rect ry=".769" y="4.769" x="20.085" height="1.538" width="7.692" opacity=".35" paint-order="stroke markers fill"/><path d="M12 39c-1.108 0-2 .892-2 2v4h30v-4c0-1.108-.892-2-2-2H12z" opacity=".15" paint-order="fill markers stroke"/><rect width="5" height="5" x="12" y="33" rx="1" ry="1" fill="#b9cbff" paint-order="fill markers stroke"/><rect ry="1" rx="1" y="36" x="19" height="5" width="5" fill="#b9cbff" paint-order="fill markers stroke"/><rect width="5" height="5" x="26" y="36" rx="1" ry="1" fill="#b9cbff" paint-order="fill markers stroke"/><rect ry="1" rx="1" y="36" x="33" height="5" width="5" fill="#b9cbff" paint-order="fill markers stroke"/></svg>