<svg xmlns="http://www.w3.org/2000/svg" version="1.0" width="48" height="48"><defs><linearGradient x1="45.448" y1="92.54" x2="45.448" y2="7.017" id="a" gradientUnits="userSpaceOnUse" gradientTransform="scale(1.00587 .99417)"><stop offset="0"/><stop offset="1" stop-opacity=".588"/></linearGradient><filter id="b" color-interpolation-filters="sRGB"><feGaussianBlur stdDeviation="1.71"/></filter></defs><path style="marker:none" d="M24 3.5C12.689 3.5 3.5 12.689 3.5 24S12.689 44.5 24 44.5 44.5 35.311 44.5 24 35.311 3.5 24 3.5z" color="#000" overflow="visible" opacity=".99" fill="#52a6f5" fill-opacity=".992" enable-background="accumulate"/><path style="isolation:auto;mix-blend-mode:normal;solid-color:#000;solid-opacity:1;marker:none" d="M24 3.5C12.689 3.5 3.5 12.689 3.5 24S12.689 44.5 24 44.5 44.5 35.311 44.5 24 35.311 3.5 24 3.5z" color="#000" overflow="visible" opacity=".35" fill="none" stroke="#002e99" stroke-linecap="round" stroke-linejoin="round" enable-background="accumulate"/><path d="M19.178 23.745c.23.624.487 1.13 1.038.438.682-.406 2.967-2.185 2.738-.442-.731 3.224-1.622 6.414-2.303 9.649-.712 1.77.905 3.372 2.593 2.22 1.795-.74 3.34-1.944 4.917-3.05-.215-.528-.359-1.286-.953-.596-.781.355-2.487 2.026-2.804.648.656-3.492 1.871-6.854 2.648-10.317.715-1.592-.452-3.605-2.2-2.287-2.095.912-3.846 2.402-5.674 3.737zm7.772-11.742c-2.137-.114-3.254 3.33-1.223 4.273 1.647.676 3.44-1.014 3.038-2.702-.125-.879-.914-1.6-1.815-1.571z" style="line-height:100%;-inkscape-font-specification:'URW Palladio L Bold';text-align:start" font-weight="700" font-size="40" font-family="URW Palladio L" fill="#fff"/></svg>