<svg width="48" height="48" version="1.1" xmlns="http://www.w3.org/2000/svg">
 <rect x="5" y="5" width="38" height="38" rx="2" ry="2" fill="none" opacity=".75" overflow="visible" stroke="#b5950b" stroke-width="2"/>
 <rect x="5" y="5" width="38" height="38" rx="2" ry="2" fill="#f5d858" overflow="visible"/>
 <path d="M6.962 24.123c.014-.211.055-.366.122-.465.066-.098.207-.22.422-.364a1.02 1.02 0 0 1 .702-.174c.254.028.289.17.106.427s-.271.51-.264.76c.007.25.14.43.401.54.26.108.544.089.85-.059a7.555 7.555 0 0 0 1.072-.66c.408-.292.82-.662 1.235-1.109a10.3 10.3 0 0 0 1.062-1.336c.292-.443.526-.857.702-1.24.176-.384.285-.762.327-1.135.042-.374-.076-.726-.354-1.056-.278-.331-.422-.61-.433-.835-.01-.225.118-.443.386-.654.479 0 .811.14.998.422.186.282.355.57.507.866.15.296.281.597.39.903.11.306.224.584.343.834.12.25.208.507.264.77.057.265.147.547.27.846.123.299.229.614.317.945.088.33.23.347.427.047.197-.299.509-.676.935-1.13.426-.454.795-.837 1.109-1.15a12.73 12.73 0 0 1 2.233-1.77 8.817 8.817 0 0 1 1.34-.665c.494-.197.934-.292 1.32-.285.388.007.75.069 1.089.185.337.116.616.25.834.401.218.152.394.34.528.565.133.226.207.62.222 1.183-.106.24-.235.349-.386.327-.151-.02-.238-.186-.259-.496a1.132 1.132 0 0 0-.343-.765 2.176 2.176 0 0 0-.623-.439 3.5 3.5 0 0 0-.818-.221 2.047 2.047 0 0 0-.998.079c-.327.109-.681.281-1.061.517-.38.236-.824.526-1.33.871a9.875 9.875 0 0 0-1.474 1.241c-.475.482-.866.931-1.172 1.346-.306.416-.577.815-.813 1.199a4.362 4.362 0 0 0-.518 1.225 8.69 8.69 0 0 1-.411 1.24c-.166.395-.375.698-.629.909-.38-.057-.579-.171-.596-.343-.018-.173.033-.368.153-.587.12-.218.222-.494.306-.828.085-.335.134-.682.148-1.04a3.212 3.212 0 0 0-.158-1.104 11.01 11.01 0 0 0-.344-.95 2.909 2.909 0 0 0-.359-.64c-.13-.168-.269-.163-.417.017-.148.18-.36.448-.639.807-.278.36-.623.741-1.035 1.146-.411.405-.95.862-1.615 1.373-.665.51-1.267.852-1.806 1.024-.538.173-.977.208-1.315.106-.337-.102-.568-.273-.691-.512-.123-.24-.21-.61-.259-1.11m12.524.962c.112.169.251.257.417.264a.771.771 0 0 0 .47-.138 3.42 3.42 0 0 1 .522-.28c.201-.087.396-.197.586-.327.19-.13.286-.294.286-.49a.538.538 0 0 0-.222-.46c-.148-.11-.21-.248-.185-.417.025-.17.102-.285.232-.349.13-.063.347-.098.65-.105.317.063.51.221.58.475.07.253.066.49-.015.707-.081.219.02.416.3.592.282.176.534.234.756.174.221-.06.346.009.375.206-.036.211-.094.338-.175.38-.08.042-.244.08-.49.116-.247.035-.543-.04-.888-.227-.345-.186-.591-.223-.739-.11a8.12 8.12 0 0 1-.665.437c-.296.18-.586.323-.871.428a2.8 2.8 0 0 1-.977.159c-.338-.113-.577-.287-.718-.523a1.486 1.486 0 0 1-.211-.776c.035-.197.18-.414.438-.65.257-.236.503-.433.739-.591.236-.158.475-.275.718-.349.243-.073.415-.063.518.032a.672.672 0 0 1 .2.349c.032.137.018.248-.042.332a.435.435 0 0 1-.264.17l-.48.11c-.205.046-.425.158-.66.338-.236.18-.298.354-.185.523m4.54-.159c.07-.19.167-.39.29-.602.124-.21.407-.517.85-.918.444-.402.772-.76.983-1.077-.324.042-.54.065-.65.068-.109.004-.174-.061-.195-.195-.021-.134.01-.232.095-.296.085-.063.25-.11.496-.142.247-.032.504-.072.771-.122a65.6 65.6 0 0 1 1.156-1.066c.3-.268.62-.556.961-.866.342-.31.666-.569.972-.776.306-.208.572-.315.797-.322.134.176.009.434-.375.776a22.38 22.38 0 0 0-.913.85l-.65.65c-.207.207-.445.455-.712.744.345-.043.86-.102 1.547-.18.686-.077 1.388-.15 2.106-.216a85.954 85.954 0 0 1 2.17-.175 45.274 45.274 0 0 1 4.33-.09c.757.018 1.373.05 1.848.096.475.046.853.192 1.135.438a1.828 1.828 0 0 1-.792.09c-.24-.032-.496-.057-.77-.074a11.02 11.02 0 0 0-.988-.01c-.384.01-.849.024-1.394.042-.546.017-1.128.03-1.748.036a26.44 26.44 0 0 0-1.885.09 86.1 86.1 0 0 0-1.816.17c-.574.059-1.17.114-1.79.163-.62.05-1.06.083-1.32.1-.26.018-.475.037-.644.058a1.349 1.349 0 0 0-.417.111c-.11.053-.225.132-.348.238a7.675 7.675 0 0 0-.46.438c-.183.187-.4.43-.65.729s-.47.556-.665.77a2.423 2.423 0 0 0-.417.602c-.084.187-.095.352-.031.497.063.144.183.232.359.264.176.031.514-.04 1.013-.212.5-.172.856-.325 1.067-.459.211-.134.371-.218.48-.253.11-.036.194-.013.254.068s-.027.22-.259.417c-.232.197-.44.349-.623.454a4.561 4.561 0 0 1-.628.296 3.616 3.616 0 0 1-.797.2 3.683 3.683 0 0 1-.845.032c-.268-.028-.477-.09-.629-.184a.68.68 0 0 1-.3-.375 1.038 1.038 0 0 1-.085-.38.08.08 0 0 1 .01-.032c0-.12.036-.275.106-.465m4.7-.528c.429-.14.716-.274.86-.4.144-.128.206-.244.185-.35-.021-.105-.141-.101-.36.011-.218.113-.367.227-.448.343-.081.116-.16.248-.238.396m-.929.697c0-.366.046-.647.137-.845.092-.197.241-.4.449-.612.208-.211.415-.394.623-.55.208-.154.42-.26.639-.316l.243-.01c.218.007.408.066.57.18.162.112.23.31.206.596-.025.285-.165.531-.422.739a2.416 2.416 0 0 1-.872.449c-.323.091-.498.174-.522.248-.025.074.028.155.158.243s.422.144.877.169c.454.024.825 0 1.114-.074a4.04 4.04 0 0 0 .702-.238c.18-.084.32-.14.422-.169.102-.028.185.025.248.159-.183.26-.383.452-.602.575a4.057 4.057 0 0 1-.818.333 4.983 4.983 0 0 1-1.198.18h-.286c-.513-.05-.86-.119-1.04-.207a1.232 1.232 0 0 1-.417-.311c-.098-.12-.169-.3-.211-.539m4.789.095c.074.204.211.29.412.259.2-.032.383-.1.549-.206.169-.109.34-.27.512-.48.172-.215.248-.361.227-.439-.415.303-.743.504-.982.602a8.773 8.773 0 0 1-.718.264m-1.061-.475c.007-.225.03-.398.068-.517.039-.12.104-.2.196-.243a.67.67 0 0 1 .348-.042c.14.014.246.251.317.712.296-.056.55-.139.765-.248l.613-.311c.193-.102.42-.21.681-.322.26-.113.503-.236.729-.37a2.15 2.15 0 0 0 .506-.401c.113-.134.198-.268.254-.402a.396.396 0 0 1 .285-.253c.158.004.275.037.348.1.074.06.12.203.138.428a.864.864 0 0 1-.074.29c-.042.095-.136.21-.28.344-.14.13-.292.237-.454.322a8.476 8.476 0 0 0-.533.3c-.194.12-.39.28-.586.481-.194.2-.335.396-.423.586a5.326 5.326 0 0 1-.264.512c-.091.152-.23.277-.417.375-.186.095-.475.155-.866.18-.26-.007-.464-.04-.612-.1-.148-.06-.303-.238-.465-.534a2.16 2.16 0 0 1-.274-.887" opacity=".5"/>
 <rect x="7" y="13" width="34" height="1" rx="0" ry="0" opacity=".1" paint-order="fill markers stroke"/>
 <rect x="7" y="17" width="34" height="1" rx="0" ry="0" opacity=".1" paint-order="fill markers stroke"/>
 <rect x="7" y="21" width="34" height="1" rx="0" ry="0" opacity=".1" paint-order="fill markers stroke"/>
 <rect x="7" y="25" width="34" height="1" rx="0" ry="0" opacity=".1" paint-order="fill markers stroke"/>
 <rect x="7" y="29" width="34" height="1" rx="0" ry="0" opacity=".1" paint-order="fill markers stroke"/>
 <rect x="7" y="33" width="34" height="1" rx="0" ry="0" opacity=".1" paint-order="fill markers stroke"/>
 <rect x="7" y="37" width="34" height="1" rx="0" ry="0" opacity=".1" paint-order="fill markers stroke"/>
 <rect x="7" y="9" width="34" height="1" rx="0" ry="0" opacity=".1" paint-order="fill markers stroke"/>
</svg>
