<svg xmlns="http://www.w3.org/2000/svg" height="48" width="48"><g transform="matrix(.8077 0 0 .8077 2.82 7.663)" stroke-width="1.238"><g fill="#939aad"><path d="M52.223 28.226v2h-52v-2zM52.223 34.226v2h-52v-2zM52.223 40.226v2h-52v-2zM52.223 10.226v2h-52v-2zM52.223 16.226v2h-52v-2zM52.223 22.226v2h-52v-2zM52.223 4.226v2h-52v-2zM52.223-1.774v2h-52v-2z"/><path d="M18.223 46.226h-2v-52h2zM12.223 46.226h-2v-52h2zM6.223 46.226h-2v-52h2zM36.223 46.226h-2v-52h2zM30.223 46.226h-2v-52h2zM24.223 46.226h-2v-52h2zM42.223 46.226h-2v-52h2zM48.223 46.226h-2v-52h2z"/></g><rect transform="matrix(0 -1 -1 0 0 0)" ry="2.5" rx="2.5" y="-50.223" x="-44.226" height="48" width="48" fill="#4c5263" stroke="#25252f" stroke-opacity=".784"/><g fill="#1f91b7" stroke="#333741" paint-order="markers stroke fill"><path d="M8.223 11.226h12v2h-12zM22.223 11.226h6v2h-6zM30.223 11.226h14v2h-14zM8.223 19.226h16v2h-16zM26.223 19.226h16v2h-16zM8.223 27.226h6v2h-6zM16.223 27.226h6v2h-6zM24.223 27.226h12v2h-12z" stroke-width="2.476"/></g><g fill="#1f91b7" paint-order="markers stroke fill"><path d="M8.223 11.226h12v2h-12zM22.223 11.226h6v2h-6zM30.223 11.226h14v2h-14zM8.223 19.226h16v2h-16zM26.223 19.226h16v2h-16zM8.223 27.226h6v2h-6zM16.223 27.226h6v2h-6zM24.223 27.226h12v2h-12z"/></g></g></svg>