<svg xmlns="http://www.w3.org/2000/svg" height="48" width="48"><g transform="translate(0 -15)"><path d="M9.778 26C8.793 26 8 26.758 8 27.701v23.59c0 .943.793 1.702 1.778 1.702h20l3.555 3.406 3.556-3.406h5.333c.985 0 1.778-.759 1.778-1.702v-23.59C44 26.76 43.207 26 42.222 26z" fill="#f5f5f5"/><path d="M9.78 25C8.28 25 7 26.2 7 27.703v23.59c0 1.503 1.28 2.701 2.78 2.701h19.597l3.957 3.791 3.957-3.791h4.932c1.499 0 2.777-1.198 2.777-2.701v-23.59C45 26.199 43.722 25 42.223 25zm0 1h32.443c.985 0 1.777.76 1.777 1.703v23.59c0 .943-.792 1.701-1.777 1.701h-5.334L33.334 56.4l-3.555-3.406h-20c-.985 0-1.779-.758-1.779-1.701v-23.59C8 26.76 8.794 26 9.78 26z" style="line-height:normal;text-indent:0;text-align:start;text-decoration-line:none;text-decoration-style:solid;text-decoration-color:#000;text-transform:none;white-space:normal;isolation:auto;mix-blend-mode:normal;solid-color:#000;solid-opacity:1" color="#000" font-weight="400" font-family="sans-serif" overflow="visible" fill="#4f6698" fill-opacity=".267"/><ellipse ry="7.9" rx="7.9" cy="27.5" cx="10.5" fill="#ff5656" stroke="#ff5656" stroke-width="1.2"/><g style="line-height:125%;-inkscape-font-specification:'Sans Bold'"><path style="-inkscape-font-specification:'Roboto Condensed, Bold'" d="M11.4 31.504H9.84v-6.108l-1.522.588v-1.297l2.917-1.192h.165z" font-family="Roboto Condensed" font-weight="700" font-size="15" letter-spacing="0" word-spacing="0" fill="#fff"/></g></g></svg>