<svg xmlns="http://www.w3.org/2000/svg" height="48" width="48"><g transform="translate(0 -1)"><rect width="43" height="38" rx="1.5" ry="1.5" x="2.5" y="6.5" style="marker:none" color="#000" overflow="visible" fill="#4fa4f4"/><path d="M4 6.5c-.831 0-1.5.669-1.5 1.5v4h43V8c0-.831-.669-1.5-1.5-1.5z" style="marker:none" opacity=".35"/><rect width="43" height="38" rx="1.5" ry="1.5" x="2.5" y="6.5" style="isolation:auto;mix-blend-mode:normal;solid-color:#000;solid-opacity:1;marker:none" color="#000" overflow="visible" opacity=".35" stroke="#002e99" stroke-linecap="round" stroke-linejoin="round" fill="none"/><path d="M45.5 12V8c0-.831-.669-1.5-1.5-1.5H4c-.831 0-1.5.669-1.5 1.5v4" style="isolation:auto;mix-blend-mode:normal;solid-color:#000;solid-opacity:1;marker:none" color="#000" overflow="visible" opacity=".5" fill="none" stroke="#111" stroke-linejoin="round"/></g><g paint-order="markers stroke fill"><path d="M2.5 11v17a16 16 0 0 0 16-16 16 16 0 0 0-.037-1z" opacity=".15"/><path d="M2.5 11v12a11 11 0 0 0 11-11 11 11 0 0 0-.055-1z" opacity=".15"/><path d="M2.5 11v7a6 6 0 0 0 6-6 6 6 0 0 0-.086-1z" opacity=".15"/></g><g paint-order="markers stroke fill"><path d="M45 43V26a16 16 0 0 0-16 16 16 16 0 0 0 .037 1z" opacity=".15"/><path d="M45 43V31a11 11 0 0 0-11 11 11 11 0 0 0 .055 1z" opacity=".15"/><path d="M45 43v-7a6 6 0 0 0-6 6 6 6 0 0 0 .086 1z" opacity=".15"/></g></svg>