<svg xmlns="http://www.w3.org/2000/svg" xmlns:xlink="http://www.w3.org/1999/xlink" height="48" width="48"><defs><filter id="d" color-interpolation-filters="sRGB"><feGaussianBlur stdDeviation="1.71"/></filter><linearGradient gradientTransform="scale(1.00587 .99417)" gradientUnits="userSpaceOnUse" id="c" y2="7.017" x2="45.448" y1="92.54" x1="45.448"><stop offset="0"/><stop offset="1" stop-opacity=".588"/></linearGradient><clipPath id="g"><rect y="6" x="6" ry="6" rx="6" height="84" width="84" fill="#fff"/></clipPath><filter id="i" height="1.384" width="1.384" y="-.192" x="-.192" color-interpolation-filters="sRGB"><feGaussianBlur stdDeviation="5.28"/></filter><filter id="f" color-interpolation-filters="sRGB"><feGaussianBlur stdDeviation="1.71"/></filter><linearGradient id="b"><stop offset="0" stop-color="#fff"/><stop offset="1" stop-color="#fff" stop-opacity="0"/></linearGradient><linearGradient gradientTransform="scale(1.00587 .99417)" gradientUnits="userSpaceOnUse" id="a" y2="7.017" x2="45.448" y1="92.54" x1="45.448"><stop offset="0"/><stop offset="1" stop-opacity=".588"/></linearGradient><linearGradient xlink:href="#a" id="e" gradientUnits="userSpaceOnUse" gradientTransform="scale(1.00587 .99417)" x1="45.448" y1="92.54" x2="45.448" y2="7.017"/><linearGradient xlink:href="#b" id="h" gradientUnits="userSpaceOnUse" x1="48" y1="20.221" x2="48" y2="138.661"/></defs><g transform="translate(-82.733 -99.073)"><rect ry="2.28" rx="2.28" y="104.073" x="87.733" height="38" width="38" opacity=".75" fill="#4d4d4d" stroke="#000" stroke-width="2" stroke-linecap="round" stroke-linejoin="round" paint-order="markers stroke fill"/><rect width="38" height="38" x="87.733" y="104.073" rx="2.28" ry="2.28" fill="#4d4d4d" paint-order="markers stroke fill"/><rect ry="12" rx="12" y="-118.733" x="-135.073" height="24" width="24" transform="matrix(0 -1 -1 0 0 0)" opacity=".1" fill="#fff" enable-background="new"/><rect transform="matrix(0 -1 -1 0 0 0)" width="20" height="20" x="-133.073" y="-116.733" rx="10" ry="10" opacity=".25" fill="#fff" enable-background="new"/><path d="M106.733 114.903l-2.227 2.672a6 6 0 0 0-3.773 5.578 6 6 0 1 0 12 0 6 6 0 0 0-3.773-5.578z" fill="#fff" enable-background="new"/><circle cx="92.733" cy="109.073" r="2" opacity=".15" paint-order="stroke fill markers"/><circle r="1" cy="109.073" cx="92.733" fill="#0090ff" paint-order="stroke fill markers"/><path opacity=".25" paint-order="stroke fill markers" d="M105.973 107.113h1.52v3.04h-1.52zM110.13 107.46l1.468.394-.787 2.936-1.468-.393zM114.055 108.871l1.316.76-1.52 2.633-1.316-.76zM117.482 111.25l1.074 1.075-2.15 2.15-1.074-1.075zM120.175 114.435l.76 1.316-2.633 1.52-.76-1.316zM121.952 118.208l.393 1.469-2.936.786-.393-1.468zM122.693 122.313v1.52h-3.04v-1.52z"/></g></svg>