<svg xmlns="http://www.w3.org/2000/svg" height="48" width="48"><g transform="translate(0 -.5)"><path d="M19.564 33.5c-.59 0-1.057.432-1.064.967v7.615l-2.936.242c-.59 0-1.064.432-1.064.968V44.5h19v-1.208c0-.536-.475-.968-1.064-.968l-2.936-.242v-7.615c0-.535-.475-.967-1.064-.967z" fill="none" stroke="#42557f" stroke-opacity=".291"/><path d="M19.688 33.625c-.39 0-.674.277-.676.611v8.023l-3.32.276h-.017c-.39 0-.675.277-.675.611V44h18v-.854c0-.334-.285-.61-.675-.61h-.018l-3.32-.277v-8.023c0-.334-.285-.61-.675-.61z" fill="#fafafa"/><rect y="4.5" x="1.5" ry="1.333" rx="1.4" height="30" width="45" fill="#4c5263" stroke="#252831" stroke-linecap="round" stroke-linejoin="round" stroke-dashoffset=".5" stroke-opacity=".784"/><path fill="#5294e2" fill-rule="evenodd" d="M3 6h42v27H3z"/></g><path d="M24 11a8 8 0 1 0 0 16 8 8 0 0 0 0-16zm-.667 4.02h1.334A1.33 1.33 0 0 1 26 16.355V18h1.688c.172 0 .312.149.312.333v4.334c0 .184-.14.333-.313.333h-7.375c-.172 0-.312-.149-.312-.333v-4.334c0-.184.14-.333.313-.333H22v-1.646a1.33 1.33 0 0 1 1.333-1.333zm0 .98a.336.336 0 0 0-.354.354V18l2.042-.002v-1.644a.336.336 0 0 0-.354-.354z" fill="#fff"/></svg>