<svg xmlns="http://www.w3.org/2000/svg" height="48" width="48"><path d="M9 5L1 16l8 6v21h30V22l8-6-8-11h-5c0 2.737-4.532 4.957-10 4.957S14 7.737 14 5z" fill="#f9f9f9" stroke="#000" stroke-width="2" stroke-opacity=".137" paint-order="stroke markers fill"/><path d="M9 5L1 16l8 6v21h30V22l8-6-8-11h-5c0 2.737-4.532 4.957-10 4.957S14 7.737 14 5z" fill="#fff" paint-order="stroke markers fill"/><path d="M32.426 35.38a4.109 4.109 0 0 0-2.917 1.214L23.112 43H34.78l.563-.563a4.126 4.126 0 0 0 0-5.842 4.109 4.109 0 0 0-2.917-1.213z" opacity=".75" fill="#71ffb2" paint-order="stroke markers fill"/><path d="M39 38.043l-4.95 4.956H39z" opacity=".75" fill="#ff522c" paint-order="stroke markers fill"/><path d="M30.718 29.54a4.109 4.109 0 0 0-2.917 1.214l-12.23 12.245h11.666l6.397-6.405a4.124 4.124 0 0 0 0-5.84 4.109 4.109 0 0 0-2.916-1.214z" opacity=".75" fill="#4997ff" paint-order="stroke markers fill"/><path d="M19.194 33.674a4.109 4.109 0 0 0-2.917 1.213L9 42.173V43h10.843l2.267-2.27a4.126 4.126 0 0 0 0-5.842 4.109 4.109 0 0 0-2.916-1.213z" opacity=".75" fill="#ff4b20" paint-order="stroke markers fill"/><path d="M10.768 35.323c-.607 0-1.208.15-1.768.418v7.258h4.062l.622-.622a4.124 4.124 0 0 0 0-5.84 4.109 4.109 0 0 0-2.916-1.214z" opacity=".75" fill="#ffef4d" paint-order="stroke markers fill"/></svg>