<svg xmlns="http://www.w3.org/2000/svg" height="48" width="48"><path d="M3.7 8c-.388 0-.7.266-.7.595v5.358h42V8.595c0-.33-.312-.595-.7-.595z" opacity=".75" fill="#666" stroke="#000" stroke-width="2.093" paint-order="stroke markers fill"/><path d="M3 16v25.326c0 .373.312.674.7.674h40.6c.388 0 .7-.3.7-.674V16z" opacity=".15" fill="#f9f9f9" stroke="#000" stroke-width="2" stroke-linecap="square" paint-order="markers stroke fill"/><path d="M3 15v26.3c0 .388.312.7.7.7h40.6c.388 0 .7-.312.7-.7V15z" fill="#f9f9f9" paint-order="markers stroke fill"/><path d="M3.7 8c-.388 0-.7.312-.7.7V15h42V8.7c0-.388-.312-.7-.7-.7z" fill="#666" paint-order="stroke markers fill"/><rect width="3" height="3" x="40" y="10" ry="1.5" opacity=".35" paint-order="stroke markers fill"/><path d="M24 19.823a8 8 0 0 0-8 8 8 8 0 0 0 8 8 8 8 0 0 0 8-8 8 8 0 0 0-8-8zm0 3.241a4.758 4.758 0 0 1 4.758 4.759A4.758 4.758 0 0 1 24 32.58a4.758 4.758 0 0 1-4.758-4.757A4.758 4.758 0 0 1 24 23.064z" opacity=".15" fill="#ccc" paint-order="stroke markers fill"/><g fill="#ccc" stroke-width="1.722" paint-order="stroke markers fill"><path d="M24 21.613A6.387 6.387 0 0 0 17.613 28 6.387 6.387 0 0 0 24 34.387 6.387 6.387 0 0 0 30.387 28 6.387 6.387 0 0 0 24 21.613zm0 2.903A3.484 3.484 0 0 1 27.484 28 3.484 3.484 0 0 1 24 31.484 3.484 3.484 0 0 1 20.516 28 3.484 3.484 0 0 1 24 24.516z"/><path d="M22.84 19h2.322v4.064H22.84zM22.84 32.935h2.322v4.064H22.84zM33 26.838v2.322h-4.064v-2.322zM19.065 26.838v2.322h-4.064v-2.322zM31.185 33.543l-1.641 1.642-2.874-2.874 1.641-1.642zM21.331 23.69L19.69 25.33l-2.874-2.874 1.641-1.641zM18.457 35.185l-1.641-1.642 2.874-2.874 1.641 1.642zM28.311 25.331L26.67 23.69l2.874-2.873 1.641 1.641z"/></g><rect ry="1.5" y="10" x="35" height="3" width="3" opacity=".35" paint-order="stroke markers fill"/><rect width="3" height="3" x="30" y="10" ry="1.5" opacity=".35" paint-order="stroke markers fill"/></svg>