<svg xmlns="http://www.w3.org/2000/svg" xmlns:xlink="http://www.w3.org/1999/xlink" version="1.0" width="48" height="48"><defs><linearGradient x1="45.448" y1="92.54" x2="45.448" y2="7.017" id="b" gradientUnits="userSpaceOnUse" gradientTransform="scale(1.00587 .99417)"><stop offset="0"/><stop offset="1" stop-opacity=".588"/></linearGradient><linearGradient id="a"><stop offset="0" stop-color="#fff"/><stop offset="1" stop-color="#fff" stop-opacity="0"/></linearGradient><filter id="c" color-interpolation-filters="sRGB"><feGaussianBlur stdDeviation="1.71"/></filter><filter x="-.192" y="-.192" width="1.384" height="1.384" id="f" color-interpolation-filters="sRGB"><feGaussianBlur stdDeviation="5.28"/></filter><linearGradient x1="48" y1="20.221" x2="48" y2="138.661" id="e" xlink:href="#a" gradientUnits="userSpaceOnUse"/><clipPath id="d"><rect width="84" height="84" rx="6" ry="6" x="6" y="6" fill="#fff"/></clipPath></defs><path style="marker:none" d="M24 3.5C12.689 3.5 3.5 12.689 3.5 24S12.689 44.5 24 44.5 44.5 35.311 44.5 24 35.311 3.5 24 3.5z" color="#000" overflow="visible" opacity=".99" fill="#52a6f5" fill-opacity=".992" enable-background="accumulate"/><path style="isolation:auto;mix-blend-mode:normal;solid-color:#000;solid-opacity:1;marker:none" d="M24 3.5C12.689 3.5 3.5 12.689 3.5 24S12.689 44.5 24 44.5 44.5 35.311 44.5 24 35.311 3.5 24 3.5z" color="#000" overflow="visible" opacity=".35" fill="none" stroke="#002e99" stroke-linecap="round" stroke-linejoin="round" enable-background="accumulate"/><path d="M29.65 13.63a7.582 7.582 0 0 0-3.178.652c-1.906.842-3.28 2.697-4.09 4.09a.812.812 0 1 0-.723 1.404 7.99 7.99 0 0 0-.137.319l-3.944 8.66a.81.81 0 0 0-1.067.376c-.2.403-.035.891.368 1.091l.026.011-.887 1.951h-2.205a.813.813 0 0 0 0 1.627h4.07c.448 0 .814-.364.814-.813a.815.815 0 0 0-.815-.814h-.076l.566-1.24c.074.02.149.035.224.035a.81.81 0 0 0 .44-1.494l4.085-8.974a.808.808 0 0 0 1.074-.387.811.811 0 0 0-.334-1.056c.697-1.173 1.811-2.653 3.27-3.298 1.568-.693 3.376-.683 4.606.027.905.522 1.425 1.353 1.546 2.47.227 2.09.035 3.493-.57 4.168a1.5 1.5 0 0 1-.181.165v1.822c.501-.17.983-.445 1.392-.9.94-1.048 1.26-2.825.977-5.431-.175-1.615-1.01-2.931-2.35-3.705v.004c-.845-.488-1.85-.742-2.902-.76zm.068 7.975c-.45 0-4.986.373-6.184 6.295l-.768 4.895c0 .45.364 1.018.813 1.018h3.864a3.513 3.513 0 0 1-.745-2.162 3.54 3.54 0 0 1 3.535-3.536c.531 0 1.033.122 1.486.332V22.012c0-.45.042-.407-.407-.407zm.515 7.324a2.726 2.726 0 0 0-2.722 2.722c0 .881.423 1.664 1.075 2.162a2.714 2.714 0 0 0 3.327-.025 2.705 2.705 0 0 0 1.041-2.136 2.7 2.7 0 0 0-.42-1.45 2.748 2.748 0 0 0-2.3-1.273z" fill="#fff" fill-opacity=".993"/></svg>