<svg xmlns="http://www.w3.org/2000/svg" width="48" height="48" version="1.0"><g stroke-width="2.667"><rect x="-356" y="184" width="104" height="104" rx="8" ry="8" fill="#e95420" stroke="#a43610" stroke-opacity=".745" transform="matrix(.375 0 0 .375 138 -64.5)"/><path d="M17.366 11.239l-2.796.04-.578.007-.001 1.672c-.002 4.37.105 15.434.153 15.827.053.44.067.514.242 1.282.486 2.13 2.07 4.352 3.768 5.283 1.354.743 2.434 1.122 3.873 1.362 1.403.233 5.352.027 7.828-.409.23-.04.63-.11.887-.153a41.215 41.215 0 0 0 2.685-.533c.108-.026.283-.06.39-.078l.192-.032-.035-12.096c-.027-9.306-.049-12.106-.094-12.135-.033-.021-1.511-.033-3.286-.027l-3.227.012-.013 9.441-.012 9.441-6.133-.026-.025-6.235-.024-6.235-2.62-.05.664-1.383c.365-.76 1.049-2.17 1.52-3.132.47-.963.854-1.783.854-1.823 0-.082-.12-.082-4.212-.02" fill="#fff"/></g></svg>