<svg xmlns="http://www.w3.org/2000/svg" width="48" height="48" version="1.0"><g stroke-width="2.667"><rect x="-356" y="184" width="104" height="104" rx="8" ry="8" fill="#0082c9" stroke="#006498" stroke-opacity=".745" transform="matrix(.375 0 0 .375 138 -64.5)"/><path d="M24.023 17.25c-3.09 0-5.684 2.115-6.476 4.961-.692-1.522-2.215-2.6-3.984-2.6-2.408 0-4.39 1.98-4.39 4.389 0 2.41 1.98 4.39 4.39 4.39 1.769 0 3.29-1.08 3.983-2.602.792 2.846 3.387 4.962 6.477 4.962 3.072 0 5.653-2.092 6.462-4.914.703 1.494 2.202 2.554 3.951 2.554 2.41 0 4.39-1.981 4.39-4.39 0-2.41-1.98-4.39-4.39-4.39-1.748.001-3.249 1.06-3.951 2.555-.81-2.822-3.39-4.915-6.462-4.915zm0 2.577A4.154 4.154 0 0 1 28.196 24a4.154 4.154 0 0 1-4.173 4.173A4.154 4.154 0 0 1 19.85 24a4.154 4.154 0 0 1 4.173-4.173zm-10.46 2.36c1.016 0 1.812.796 1.812 1.812a1.794 1.794 0 0 1-1.812 1.814A1.794 1.794 0 0 1 11.75 24c0-1.016.796-1.812 1.812-1.812zm20.874 0c1.016 0 1.813.796 1.813 1.812a1.794 1.794 0 0 1-1.813 1.814A1.794 1.794 0 0 1 32.624 24c0-1.016.796-1.812 1.813-1.812z" style="text-indent:0;text-decoration-line:none;text-decoration-style:solid;text-decoration-color:#000;text-transform:none;white-space:normal;isolation:auto;mix-blend-mode:normal" color="#000" fill="#fff"/></g></svg>