<svg xmlns="http://www.w3.org/2000/svg" width="48" height="48" version="1.0"><g stroke-width="2.667"><rect x="-356" y="184" width="104" height="104" rx="8" ry="8" fill="#ef2975" stroke="#a40c46" stroke-opacity=".745" transform="matrix(.375 0 0 .375 138 -64.5)"/><path d="M30.516 15.652l-.623 3.007a.784.784 0 0 1-.747.605h-5.41c-.604 0-1.103.498-1.103 1.103v.659c0 .605.499 1.103 1.104 1.103h4.573a.72.72 0 0 1 .694.854c-.09.463-.57 2.811-.623 3.06-.036.267-.32.605-.748.605h-3.736c-.783.018-.943.036-1.406.605-.463.57-4.555 5.694-4.555 5.694-.036.054-.071.036-.071-.017V15.51c0-.41.338-.748.747-.748H29.84c.391 0 .783.392.676.89m.818-3.754h-13.86c-1.905 0-2.474 1.44-2.474 2.348v22.029c0 1.085.552 1.405.854 1.53.303.125 1.103.213 1.673-.356l6.69-7.793c.107-.125.16-.125.231-.125h4.164c1.78 0 2.118-1.228 2.313-1.975.16-.623 1.993-9.52 2.563-12.331.427-2.17-.125-3.327-2.154-3.327" fill="#fff"/></g></svg>