<svg xmlns="http://www.w3.org/2000/svg" width="48" height="48" version="1.0"><defs><clipPath id="a"><path d="M0 500h500V0H0z"/></clipPath></defs><g stroke-width="2.667"><rect x="-356" y="184" width="104" height="104" rx="8" ry="8" fill="#f6f5f4" stroke="#000" stroke-opacity=".196" transform="matrix(.375 0 0 .375 138 -64.5)"/><g clip-path="url(#a)" transform="matrix(.108 0 0 -.108 -3 50.625)" stroke-width=".747"><path d="M372.47 250c0 8.088-.745 15.988-2.121 23.648h-117.81v-47.296h71.299c-4.626-16.372-14.354-30.373-27.363-40.04-.73-22.751 15.583-28.459 36.789-29.273 24.249 22.879 39.207 56.044 39.207 92.961" fill="#3284ff"/><path d="M254.07 324.32c17.925 0 34.071-6.489 46.578-17.294l34.048 34.534c-21.261 20.737-49.964 33.436-82.163 33.436-47.989 0-90.779-28.187-111.61-69.213 2.777-30.703 23.257-29.54 41.798-31.867 10.686 29.38 39.085 50.404 71.345 50.404" fill="#ff3424"/><path d="M141.71 192.7c37.107-3.237 44.767 10.849 40.305 32.064a74.793 74.793 0 0 0 .711 49.153l-41.798 31.867c-8.526-16.796-13.394-35.73-13.394-55.787 0-20.659 5.166-40.128 14.176-57.297" fill="#fb0"/><path d="M182.02 224.77l-40.305-32.064c21.103-40.205 63.426-67.704 110.82-67.704 31.474 0 59.616 12.125 80.724 32.039l-36.789 29.274c-11.842-8.799-26.393-14.015-42.398-14.015-33.012 0-61.974 22.012-72.056 52.47" fill="#26b14c"/></g></g></svg>