<svg xmlns="http://www.w3.org/2000/svg" height="48" width="48"><path d="M3 8.5c-.831 0-1.5.669-1.5 1.5v27h45V10c0-.831-.669-1.5-1.5-1.5z" style="marker:none" color="#000" overflow="visible" fill="#e34749"/><path d="M3 8c-1.1 0-2 .9-2 2v27h1V10c0-.563.437-1 1-1h42c.563 0 1 .437 1 1v27h1V10c0-1.1-.9-2-2-2z" style="line-height:normal;text-indent:0;text-align:start;text-decoration-line:none;text-decoration-style:solid;text-decoration-color:#000;text-transform:none;block-progression:tb;white-space:normal;isolation:auto;mix-blend-mode:normal;solid-color:#000;solid-opacity:1;marker:none" color="#000" font-weight="400" font-family="sans-serif" overflow="visible" opacity=".35" fill="#7a0000"/><path d="M46.5 37v6c0 .831-.669 1.5-1.5 1.5H3c-.831 0-1.5-.669-1.5-1.5v-6z" style="marker:none" color="#000" overflow="visible" fill="#333c40"/><path d="M1 37v6c0 1.1.9 2 2 2h42c1.1 0 2-.9 2-2v-6h-1v6c0 .563-.437 1-1 1H3c-.563 0-1-.437-1-1v-6z" style="line-height:normal;text-indent:0;text-align:start;text-decoration-line:none;text-decoration-style:solid;text-decoration-color:#000;text-transform:none;block-progression:tb;white-space:normal;isolation:auto;mix-blend-mode:normal;solid-color:#000;solid-opacity:1;marker:none" color="#000" font-weight="400" font-family="sans-serif" overflow="visible" opacity=".35"/><rect ry=".463" y="40" x="4" height="1" width="40" opacity=".4"/><path style="marker:none" d="M16.5 38.5c1.104 0 2 .896 2 2s-.896 2-2 2-2-.896-2-2 .896-2 2-2z" color="#000" overflow="visible" fill="#444f54"/><path style="marker:none" d="M16.5 38.5c1.104 0 2 .896 2 2s-.896 2-2 2-2-.896-2-2 .896-2 2-2z" color="#000" overflow="visible" fill="none" stroke="#242424" stroke-linecap="round" stroke-linejoin="round"/><path d="M18.406 17.008a.498.498 0 0 0-.406.5v12.987a.498.498 0 0 0 .75.437l11.99-6.494a.498.498 0 0 0 0-.874L18.75 17.07a.498.498 0 0 0-.344-.062z" fill="#fafafa" fill-rule="evenodd"/></svg>