<svg xmlns="http://www.w3.org/2000/svg" height="48" width="48"><defs><linearGradient id="l"><stop offset="0" stop-color="#fbac9b"/><stop offset="1" stop-color="#fcfafc"/></linearGradient><linearGradient id="m"><stop offset="0" stop-color="#feffff"/><stop offset="1" stop-color="#fe70ca"/></linearGradient><linearGradient id="n"><stop offset="0" stop-color="#fff"/><stop offset="1" stop-color="#fff" stop-opacity="0"/></linearGradient><linearGradient id="o"><stop offset="0" stop-color="#ff54d2" stop-opacity="0"/><stop offset=".324" stop-color="#ff54d2" stop-opacity="0"/><stop offset=".561" stop-color="#ff54d2" stop-opacity=".252"/><stop offset="1" stop-color="#ff54d2" stop-opacity=".478"/></linearGradient><linearGradient id="p"><stop offset="0" stop-color="#fff" stop-opacity="0"/><stop offset=".405" stop-color="#fff" stop-opacity="0"/><stop offset="1" stop-color="#fff" stop-opacity=".478"/></linearGradient><linearGradient id="q"><stop offset="0" stop-color="#fff"/><stop offset=".338" stop-color="#fff" stop-opacity=".235"/><stop offset=".62" stop-color="#fff" stop-opacity=".157"/><stop offset="1" stop-color="#fff" stop-opacity=".392"/></linearGradient><linearGradient id="r"><stop offset="0" stop-color="#ff54d2" stop-opacity="0"/><stop offset=".324" stop-color="#f62b68"/><stop offset=".561" stop-color="#ff0105"/><stop offset="1" stop-color="#ff54d2" stop-opacity=".478"/></linearGradient><linearGradient id="s"><stop offset="0" stop-opacity="0"/><stop offset=".5" stop-opacity="0"/><stop offset="1"/></linearGradient><linearGradient id="t"><stop offset="0" stop-color="#612f91"/><stop offset="1" stop-color="#1a4aa2"/></linearGradient><linearGradient gradientTransform="matrix(.2211 0 0 .2211 6.693 6.693)" gradientUnits="userSpaceOnUse" id="u" y2="45.369" x2="7.078" y1="3.082" x1="7.078"><stop offset="0" stop-color="#170418"/><stop offset="1" stop-color="#50386b"/></linearGradient><linearGradient id="v"><stop offset="0" stop-color="#07132d"/><stop offset="1" stop-color="#425479"/></linearGradient><linearGradient id="w"><stop offset="0" stop-color="#2d3955"/><stop offset=".725" stop-color="#2b3853"/><stop offset=".75" stop-color="#192640"/><stop offset="1" stop-color="#08142e"/></linearGradient><linearGradient id="x"><stop offset="0" stop-color="#7a8498"/><stop offset="1" stop-color="#34405c"/></linearGradient><linearGradient id="y"><stop offset="0" stop-color="#b6b6b6"/><stop offset=".331" stop-color="#a4a4a4"/><stop offset="1" stop-color="#c5c5c5"/></linearGradient><linearGradient id="z"><stop offset="0" stop-color="#fff"/><stop offset=".424" stop-color="#fff" stop-opacity=".235"/><stop offset=".821" stop-color="#fff" stop-opacity=".157"/><stop offset="1" stop-color="#fff" stop-opacity=".392"/></linearGradient><linearGradient id="a"><stop offset="0" stop-color="#7a0f01"/><stop offset="1" stop-color="#d31807"/></linearGradient><linearGradient id="b"><stop offset="0" stop-color="#ec4502"/><stop offset="1" stop-color="#fe7617"/></linearGradient><linearGradient id="c"><stop offset="0" stop-color="#0b85e9"/><stop offset="1" stop-color="#69d1ef"/></linearGradient><linearGradient id="d"><stop offset="0" stop-color="#e89c42"/><stop offset="1" stop-color="#faca67"/></linearGradient><linearGradient id="e"><stop offset="0" stop-color="#fff"/><stop offset=".036" stop-color="#fff" stop-opacity=".235"/><stop offset=".951" stop-color="#fff" stop-opacity=".157"/><stop offset="1" stop-color="#fff" stop-opacity=".392"/></linearGradient><linearGradient id="f"><stop offset="0" stop-color="#f4f4f4"/><stop offset="1" stop-color="#dbdbdb"/></linearGradient><linearGradient id="g"><stop offset="0" stop-opacity=".271"/><stop offset="1" stop-opacity=".368"/></linearGradient><linearGradient id="h"><stop offset="0" stop-color="#fff"/><stop offset=".036" stop-color="#fff" stop-opacity=".235"/><stop offset=".951" stop-color="#fff" stop-opacity=".157"/><stop offset="1" stop-color="#fff" stop-opacity=".392"/></linearGradient><linearGradient id="i"><stop offset="0" stop-color="#f4f4f4"/><stop offset="1" stop-color="#dbdbdb"/></linearGradient><linearGradient id="j"><stop offset="0" stop-opacity=".271"/><stop offset="1" stop-opacity=".368"/></linearGradient><linearGradient id="k"><stop offset="0"/><stop offset="1" stop-opacity="0"/></linearGradient><radialGradient gradientTransform="matrix(0 1.23165 -1.62575 0 18.487 -28.722)" gradientUnits="userSpaceOnUse" id="A" r="20.397" cy="3.99" cx="23.896"><stop offset="0" stop-color="#fff"/><stop offset=".262" stop-color="#ddd"/><stop offset=".661" stop-color="#abacae"/><stop offset="1" stop-color="#89898b"/></radialGradient><radialGradient gradientTransform="matrix(1.12941 0 0 .28235 -58.73 19.694)" gradientUnits="userSpaceOnUse" id="B" r="10.625" cy="4.625" cx="62.625"><stop offset="0"/><stop offset="1" stop-opacity="0"/></radialGradient></defs><path d="M39.247 45.5L.5 35.163 8.753 4.5 47.5 14.836z" style="marker:none" color="#000" overflow="visible" fill="none" stroke="#000" stroke-linejoin="round" stroke-opacity=".137"/><path d="M9.116 5.127L46.87 15.2l-7.986 29.673L1.13 34.8 9.116 5.127z" fill="#f9f9f9"/><path d="M10.592 7.67l32.786 8.749-6.655 24.727-32.786-8.747 6.655-24.728z" style="marker:none" color="#000" overflow="visible" fill="#3c92bb"/><path d="M10.935 8.262l27.124 7.27-29.083.039 1.959-7.309z" style="marker:none" color="#000" overflow="visible" opacity=".3" fill="none" stroke="#000"/><path d="M44.5 44.5h-41v-33h41z" style="marker:none" color="#000" overflow="visible" fill="none" stroke="#000" stroke-linejoin="round" stroke-opacity=".137"/><path d="M4 12l40 .002V44H4V12z" fill="#f9f9f9"/><path d="M6 14v28h36V14z" style="marker:none" color="#000" overflow="visible" fill="#f4ba5a"/><path d="M6 14v14.289c.535.248 1.211.474 1.943.474 1.671 0 3.305-1.362 6.096-1.362 2.79 0 4.888 1.713 8.406 1.713 3.518 0 4.31-2.477 8.796-2.477s4.064 1.569 6.873 1.569c1.934 0 2.76-.682 3.886-1.114V14z" fill="#45b4ed"/><path d="M31.24 24.531c-2.356 0-3.838.674-5.051 1.3-1.214.628-2.13 1.177-3.744 1.177-1.658 0-2.97-.4-4.275-.826-1.305-.425-2.61-.887-4.131-.887-1.496 0-2.698.355-3.682.702-.984.346-1.746.66-2.414.66-.604 0-1.194-.208-1.677-.433A.623.629 0 0 0 6 26.162v2.703c.828.21 1.867.372 3.089.372 1.652 0 2.493-.304 3.13-.578.635-.273 1.028-.495 2.31-.495 1.231 0 2.221.403 3.437.846 1.215.443 2.64.908 4.582.908 2.41 0 3.979-.771 5.277-1.486s2.303-1.341 3.948-1.341c1.297 0 1.9.332 2.7.722.8.39 1.781.825 3.436.825 2.107 0 3.03-.788 4.091-1.28v-2.373a.623.629 0 0 0-.225.042c-1.234.474-1.872 1.073-3.661 1.073-1.29 0-1.692-.312-2.537-.723-.844-.41-2.021-.846-4.336-.846z" style="marker:none" color="#000" overflow="visible" opacity=".1" fill="#fff"/><path d="M31.24 25.658c-4.485 0-5.277 2.476-8.795 2.476s-5.616-1.713-8.406-1.713c-2.79 0-4.425 1.363-6.096 1.363-.732 0-1.408-.226-1.943-.475v1.424c.804.216 1.847.392 3.089.392 3.166 0 2.714-1.073 5.44-1.073 2.727 0 4.333 1.754 8.019 1.754 4.565 0 5.613-2.827 9.225-2.827 2.82 0 3.032 1.548 6.136 1.548 2.097 0 2.793-.814 4.091-1.342v-1.073c-1.125.433-1.952 1.114-3.886 1.114-2.81 0-2.387-1.568-6.873-1.568z" style="marker:none" color="#000" overflow="visible" opacity=".3" fill="#fff"/><path d="M31.24 26.637c-4.485 0-5.277 2.477-8.795 2.477s-5.616-1.713-8.406-1.713c-2.79 0-4.425 1.362-6.096 1.362-.732 0-1.408-.226-1.943-.474v1.424c.804.215 1.847.392 3.089.392 3.166 0 2.714-1.073 5.44-1.073 2.727 0 4.333 1.754 8.019 1.754 4.565 0 5.613-2.828 9.225-2.828 2.82 0 3.032 1.548 6.136 1.548 2.097 0 2.793-.813 4.091-1.341v-1.073c-1.125.432-1.952 1.114-3.886 1.114-2.81 0-2.387-1.569-6.873-1.569z" style="marker:none" color="#000" overflow="visible" fill="#fff"/><path d="M12.562 31.43c.354-.12 1.496 2.281 1.851 2.395.368.118 2.889-1.094 3.125-.8.228.283-1.818 2.06-1.822 2.416-.004.37 1.984 2.277 1.764 2.582-.212.294-2.619-1.008-2.977-.902-.37.11-1.662 2.501-2.034 2.396-.36-.1.199-2.683-.018-2.974-.225-.301-3.012-.731-3.022-1.1-.01-.358 2.742-.65 2.966-.937.232-.297-.199-2.953.167-3.077z" style="marker:none" color="#000" overflow="visible" fill="#ef4e06"/><path d="M36 25.5c-5.794 0-10.5 4.707-10.5 10.5 0 5.794 4.706 10.5 10.5 10.5 5.793 0 10.5-4.706 10.5-10.5 0-5.793-4.707-10.5-10.5-10.5z" style="marker:none" color="#000" overflow="visible" fill="#f9f9f9"/><path d="M43 36a7 7 0 1 1-14 0 7 7 0 1 1 14 0z" style="marker:none" color="#000" overflow="visible" fill="gray"/><path d="M36 25.5c-5.794 0-10.5 4.707-10.5 10.5 0 5.794 4.706 10.5 10.5 10.5 5.793 0 10.5-4.706 10.5-10.5 0-5.793-4.707-10.5-10.5-10.5z" style="marker:none" color="#000" overflow="visible" opacity=".2" fill="none" stroke="#000"/><path style="marker:none" d="M42 36a6 6 0 1 1-12 0 6 6 0 1 1 12 0z" color="#000" overflow="visible" fill="#666"/><path d="M36 32.502A3.5 3.5 0 0 0 32.502 36 3.5 3.5 0 0 0 36 39.498 3.5 3.5 0 0 0 39.498 36 3.5 3.5 0 0 0 36 32.502z" opacity=".3" fill="none" stroke="#000" stroke-width="1.004" stroke-linecap="round" stroke-linejoin="round"/><path style="marker:none" d="M39 36a3 3 0 1 1-6 0 3 3 0 1 1 6 0z" color="#000" overflow="visible" fill="#333"/><path d="M34.87 34.806a.56.586 0 1 1-1.12 0 .56.586 0 1 1 1.12 0z" style="marker:none" color="#000" overflow="visible" opacity=".4" fill="#fff"/><path d="M35.02 35.139a.392.41 0 1 1-.783 0 .392.41 0 1 1 .784 0z" style="marker:none" color="#000" overflow="visible" opacity=".4" fill="#fff"/></svg>