<svg xmlns="http://www.w3.org/2000/svg" width="48" height="48"><path d="M40.839 3.217c-.295-.991-.111-1.772-.274-2.717h-30.24l.178 3" fill="#eee" stroke="#9b876c" stroke-width="1.017" stroke-linejoin="round" stroke-miterlimit="0"/><path style="marker:none" d="M11.5 4.5h-4c-.57 0-1-.042-1-.098V1.606C6.5.718 7.06.5 7.791.5h3.71" color="#000" overflow="visible" fill="#eee" stroke="#272727" stroke-linecap="round" stroke-linejoin="round"/><rect y="3.51" x="7.513" ry="1" rx="1" height="40.981" width="33.978" fill="#c0af99" stroke="#a79071" stroke-width="1.019" stroke-linecap="round" stroke-linejoin="round" stroke-miterlimit="0"/><path style="marker:none" d="M11.5 3.5v41h-4a.98.98 0 0 1-1-1v-40zM25.906 13.625c-.953-.223-2.095.463-2.095.463l-1.025.513s-1.111.97-1.123 1.3c-.625 1.11-.34 2.453-.404 3.665.061 1.041-.662 1.813-.3 2.869-.052 1.019.786 1.617 1.326 2.354.606.932 1.43 2.15.781 3.265-1.2 1.741-3.193 2.664-5.014 3.613-.618.063-.386.658-.427 1.082-.001.337-.112.784.382.626h16.368v-1.75c-1.763-.894-3.602-1.851-4.837-3.441-.743-1.065.001-2.344.587-3.29.456-.79 1.41-1.293 1.423-2.299.35-1.02-.179-1.864-.277-2.837-.13-1.29.22-2.7-.395-3.9-.834-1.228-2.362-1.766-3.748-2.096a6.432 6.432 0 0 0-1.222-.137z" color="#000" overflow="visible" fill="#4d4d4d" stroke="#272727" stroke-linecap="round" stroke-linejoin="round"/></svg>