<svg xmlns="http://www.w3.org/2000/svg" width="48" height="48"><rect width="38" height="38" rx="2" ry="2" x="5" y="6" style="marker:none" color="#000" fill="#f9f9f9" overflow="visible"/><path d="M4.5 15v27.373c0 1.178.949 2.127 2.127 2.127h34.746a2.123 2.123 0 0 0 2.127-2.127V15" opacity=".2" fill="none" stroke="#000"/><path d="M6.627 5.5A2.123 2.123 0 0 0 4.5 7.627V14.5h39V7.627A2.123 2.123 0 0 0 41.373 5.5z" style="marker:none" color="#000" fill="#9add49" overflow="visible"/><path d="M6.627 5.5A2.123 2.123 0 0 0 4.5 7.627V14.5h39V7.627A2.123 2.123 0 0 0 41.373 5.5z" style="marker:none" opacity=".25" color="#000" fill="none" stroke="#126400" stroke-linecap="round" overflow="visible"/><path d="M39 10a1 1 0 1 1-2 0 1 1 0 1 1 2 0z" style="marker:none" opacity=".4" color="#000" fill="#126400" overflow="visible"/><path d="M38.51 33.5H9.5zm-.02-13.97L9.5 19.507V38.5h29.01zm.02 9.97H9.5m29.01-5H9.5m6.02-4.95l-.04 18.95m5.024-18.868L20.496 38.5m6-18.934l.008 18.934m5.981-19l.03 19" opacity=".25" fill="none" stroke="#5e553c"/><path d="M11 10a1 1 0 1 1-2 0 1 1 0 1 1 2 0z" style="marker:none" opacity=".4" color="#000" fill="#126400" overflow="visible"/></svg>