<svg xmlns="http://www.w3.org/2000/svg" width="48" height="48"><path d="M24 3.5C12.689 3.5 3.5 12.689 3.5 24S12.689 44.5 24 44.5 44.5 35.311 44.5 24 35.311 3.5 24 3.5z" style="marker:none" color="#000" overflow="visible" opacity=".99" fill="#4ea2f3" fill-opacity=".992"/><path d="M24 3.5C12.689 3.5 3.5 12.689 3.5 24S12.689 44.5 24 44.5 44.5 35.311 44.5 24 35.311 3.5 24 3.5z" style="marker:none;isolation:auto;mix-blend-mode:normal;solid-color:#000;solid-opacity:1;filter-blend-mode:normal;filter-gaussianBlur-deviation:0" opacity=".35" color="#000" fill="none" stroke="#002e99" stroke-linecap="round" stroke-linejoin="round" overflow="visible"/><path style="marker:none" d="M27.111 14.977a2.975 2.975 0 0 1-2.97 2.977 2.975 2.975 0 0 1-2.971-2.977A2.975 2.975 0 0 1 24.14 12c1.64 0 2.971 1.334 2.971 2.977zm7.416 3.166a.876.876 0 0 0-.379.158L24 19.887 13.906 18.28c-.26-.19-.628-.247-.92-.106-.29.14-.482.474-.486.792-.004.318.199.591.487.74l7.91 2.514-.055 5.772-2.79 8.645c-.27.393-.188.899.215 1.161.404.263.975.183 1.244-.211l4.504-9.331 4.42 9.315a.883.883 0 0 0 1.189.317.84.84 0 0 0 .324-1.162l-2.739-8.682-.108-5.434 8.02-2.936a.855.855 0 0 0 .325-1.003c-.14-.361-.526-.572-.92-.528z" color="#000" overflow="visible" fill="#fff"/></svg>