<svg xmlns="http://www.w3.org/2000/svg" height="48" width="48"><path d="M24 3.5C12.689 3.5 3.5 12.689 3.5 24S12.689 44.5 24 44.5 44.5 35.311 44.5 24 35.311 3.5 24 3.5z" style="marker:none" color="#000" overflow="visible" fill="#f9f9f9"/><path d="M24 3.5C12.689 3.5 3.5 12.689 3.5 24S12.689 44.5 24 44.5 44.5 35.311 44.5 24 35.311 3.5 24 3.5z" style="marker:none" color="#000" overflow="visible" opacity=".25" fill="none" stroke="#000" stroke-linecap="round" stroke-linejoin="round"/><path d="M22.8 25.322L34.2 12.3" fill="none" stroke="#333" stroke-width=".6" stroke-linecap="round"/><path d="M25.287 24.176l-9.987-.649" fill="#00f" stroke="#333" stroke-width=".6" stroke-linecap="round"/><path d="M22.8 21.075L28.206 35.7" fill="none" stroke="#eb5c3a" stroke-width=".6" stroke-linecap="round"/><path d="M24.748 24.128a.748.746 0 1 1-1.496 0 .748.746 0 1 1 1.496 0z" style="marker:none" color="#000" overflow="visible" fill="#e6e6e6"/></svg>