<svg xmlns="http://www.w3.org/2000/svg" height="48" width="48"><path d="M12.5 23.695V15.98c0-7.845 4.502-11.572 11.458-11.474 6.994.098 11.544 3.537 11.544 11.474v7.966H30.8v-5.972c0-1.994.487-8.445-6.793-8.445-7.22 0-6.693 6.49-6.665 8.437v5.764z" fill="#ececec" fill-rule="evenodd"/><path d="M12.5 23.695V15.98c0-7.845 4.502-11.572 11.458-11.474 6.994.098 11.544 3.537 11.544 11.474v7.966H30.8v-5.972c0-1.994.487-8.445-6.793-8.445-7.22 0-6.693 6.49-6.665 8.437v5.764z" opacity=".25" fill="none" stroke="#555761"/><rect width="31" height="22" rx="1" ry="1" x="8.5" y="22.5" style="marker:none" color="#000" overflow="visible" fill="#eccb98"/><rect width="31" height="22" rx="1" ry="1" x="8.5" y="22.5" style="marker:none" color="#000" overflow="visible" opacity=".35" fill="none" stroke="#7d511a"/></svg>