<svg xmlns="http://www.w3.org/2000/svg" width="48" height="48"><rect style="marker:none" y="9.5" x="10.5" ry="2.417" rx="2.25" height="29" width="33" color="#000" overflow="visible" fill="#e6e6e6" stroke="#000" stroke-opacity=".196"/><g color="#000"><path d="M16.957 3.5c-2.716.061-5.776.22-8.344 1.912a.962.916 0 0 0-.187.149c-2.668 2.965-2.184 6.9-2.604 9.918a.962.916 0 0 0-.031.058c-.482 7.732-.457 15.574.783 23.299a.962.916 0 0 0 0 .03c.404 2.045 1.741 4.216 4.203 4.779.024.005.039.024.063.029v-.03c3.736 1.091 7.771 1.092 11.512.27 1.937-.426 3.945-1.57 4.642-3.644.003-.01-.003-.02 0-.03.91-2.478.893-5.03 1.16-7.347a.962.916 0 0 0 .032-.032c.498-7.434.464-14.938-.534-22.37-.138-1.055-.362-2.215-.91-3.286-.541-1.06-1.427-2.018-2.728-2.539-.006-.002.006-.029 0-.031-.01-.004-.022.004-.032 0-2.275-.973-4.761-1.052-6.962-1.135a.962.916 0 0 0-.063 0z" style="marker:none" overflow="visible" fill="#f9f9f9"/><path d="M16.957 3.5c-2.716.062-5.776.22-8.343 1.912a.962.916 0 0 0-.189.15c-2.667 2.965-2.183 6.899-2.603 9.916a.962.916 0 0 0-.031.06c-.483 7.732-.456 15.573.784 23.298a.962.916 0 0 0 0 .03c.403 2.045 1.74 4.216 4.203 4.779.024.005.038.024.063.03v-.03c3.736 1.09 7.77 1.09 11.51.268 1.937-.426 3.945-1.569 4.642-3.644.003-.008-.003-.02 0-.03.91-2.478.893-5.03 1.16-7.347a.962.916 0 0 0 .032-.03c.499-7.434.464-14.939-.533-22.372-.138-1.054-.362-2.215-.91-3.286-.541-1.06-1.427-2.018-2.728-2.539-.006-.001.006-.027 0-.03-.01-.003-.022.004-.032 0-2.275-.972-4.761-1.051-6.963-1.134a.962.916 0 0 0-.062 0z" style="marker:none" overflow="visible" opacity=".15" fill="none" stroke="#000" stroke-linejoin="round"/></g></svg>