<svg xmlns="http://www.w3.org/2000/svg" width="48" height="48"><defs><linearGradient id="d"><stop offset="0" stop-color="#fff"/><stop offset=".021" stop-color="#fff" stop-opacity=".235"/><stop offset=".977" stop-color="#fff" stop-opacity=".157"/><stop offset="1" stop-color="#fff" stop-opacity=".392"/></linearGradient><linearGradient id="a"><stop offset="0" stop-color="#181818"/><stop offset="1" stop-color="#181818" stop-opacity="0"/></linearGradient><linearGradient id="b"><stop offset="0" stop-color="#181818"/><stop offset="1" stop-color="#181818" stop-opacity="0"/></linearGradient><linearGradient id="c"><stop offset="0" stop-color="#181818" stop-opacity="0"/><stop offset=".5" stop-color="#181818"/><stop offset="1" stop-color="#181818" stop-opacity="0"/></linearGradient><linearGradient id="e"><stop offset="0" stop-color="#fff3cb"/><stop offset=".262" stop-color="#fdde76"/><stop offset=".661" stop-color="#f9c440"/><stop offset="1" stop-color="#e48b20"/></linearGradient></defs><rect width="39" height="39" rx="2" ry="2" x="4.5" y="5.5" style="marker:none" color="#000" fill="#fbd059" overflow="visible"/><rect width="39" height="39" rx="2" ry="2" x="4.5" y="5.5" style="marker:none;isolation:auto;mix-blend-mode:normal;solid-color:#000;solid-opacity:1;filter-blend-mode:normal;filter-gaussianBlur-deviation:0" opacity=".35" color="#000" fill="none" stroke="#915f00" stroke-linecap="round" overflow="visible"/><path d="M20.5 13a2.495 2.495 0 0 0-2.5 2.5c0 1.385 1.115 2.5 2.5 2.5s2.5-1.115 2.5-2.5-1.115-2.5-2.5-2.5zm-.5 6.03c-1.125 0-1.854.291-2.281.718a1.648 1.648 0 0 0-.399.637c-.019.058-.011.066-.021.12l-2.975 6.169c-.435.9.917 1.553 1.352.652L18 22.506V34.95c0 .581.446 1.049 1 1.049s1-.468 1-1.049V28h1v7c0 .554.446 1 1 1s1-.446 1-1V22.506l2.324 4.82a.75.75 0 0 0 1.004.348l1.672.685V35.5a.499.499 0 1 0 1 0V32h1v3.5a.499.499 0 1 0 1 0V29.262l1.607 2.047c.405.575 1.249-.089.786-.618l-2.354-3a.5.5 0 0 0-.393-.191h-2.105l-1.836-.752a.739.739 0 0 0-.03-.074l-2.974-6.168c-.01-.055-.002-.063-.021-.121a1.648 1.648 0 0 0-.399-.637c-.427-.427-1.156-.719-2.281-.719zm9.5 3.72c-.965 0-1.75.785-1.75 1.75s.785 1.75 1.75 1.75 1.75-.785 1.75-1.75-.785-1.75-1.75-1.75z" fill="#333"/></svg>