<svg xmlns="http://www.w3.org/2000/svg" width="48" height="48" version="1.0"><g transform="translate(0 -1)"><rect width="43" height="38" rx="1.5" ry="1.5" x="2.5" y="6.5" style="marker:none" color="#000" overflow="visible" fill="#4fa4f4"/><path d="M4 6.5c-.831 0-1.5.669-1.5 1.5v4h43V8c0-.831-.669-1.5-1.5-1.5z" style="marker:none" opacity=".35"/><rect width="43" height="38" rx="1.5" ry="1.5" x="2.5" y="6.5" style="isolation:auto;mix-blend-mode:normal;solid-color:#000;solid-opacity:1;marker:none" color="#000" overflow="visible" opacity=".35" stroke="#002e99" stroke-linecap="round" stroke-linejoin="round" fill="none"/><path d="M45.5 12V8c0-.831-.669-1.5-1.5-1.5H4c-.831 0-1.5.669-1.5 1.5v4" style="isolation:auto;mix-blend-mode:normal;solid-color:#000;solid-opacity:1;marker:none" color="#000" overflow="visible" opacity=".5" fill="none" stroke="#111" stroke-linejoin="round"/><rect ry="1" rx="1" y="25" x="10" height="12" width="18" opacity=".75" fill="#fff" stroke="#000" stroke-linecap="round" stroke-linejoin="round" stroke-opacity=".196" paint-order="fill markers stroke"/><path d="M11 25c-.554 0-1 .446-1 1v2h18v-2c0-.554-.446-1-1-1z" opacity=".15" fill="#4fa4f4" paint-order="fill markers stroke"/><rect width="18" height="12" x="21" y="18" rx="1" ry="1" opacity=".75" fill="#fff" stroke="#000" stroke-linecap="round" stroke-linejoin="round" stroke-opacity=".196" paint-order="fill markers stroke"/><path d="M22 18c-.554 0-1 .446-1 1v2h18v-2c0-.554-.446-1-1-1z" opacity=".15" fill="#4fa4f4" paint-order="fill markers stroke"/></g></svg>