<svg xmlns="http://www.w3.org/2000/svg" version="1.0" width="48" height="48"><defs><linearGradient id="b"><stop offset="0" stop-opacity="0"/><stop offset=".5"/><stop offset="1" stop-opacity="0"/></linearGradient><linearGradient id="a"><stop offset="0"/><stop offset="1" stop-opacity="0"/></linearGradient><linearGradient id="c"><stop offset="0" stop-color="#c9af8b"/><stop offset=".239" stop-color="#ad8757"/><stop offset=".276" stop-color="#c2a57f"/><stop offset="1" stop-color="#9d7d53"/></linearGradient><linearGradient id="d"><stop offset="0" stop-color="#dac197"/><stop offset=".239" stop-color="#c1a581"/><stop offset=".276" stop-color="#dac197"/><stop offset="1" stop-color="#a68b60"/></linearGradient><linearGradient id="e"><stop offset="0" stop-color="#cbad7a"/><stop offset="1" stop-color="#cbae7d" stop-opacity="0"/></linearGradient><linearGradient id="f"><stop offset="0" stop-color="#fff" stop-opacity="0"/><stop offset="1" stop-color="#fff" stop-opacity="0"/></linearGradient><linearGradient id="g"><stop offset="0" stop-color="#fff" stop-opacity="0"/><stop offset=".167" stop-color="#fff"/><stop offset=".832" stop-color="#fff"/><stop offset="1" stop-color="#fff" stop-opacity="0"/></linearGradient><linearGradient id="h"><stop offset="0" stop-color="#fff"/><stop offset=".325" stop-color="#fff"/><stop offset=".374" stop-color="#fff" stop-opacity=".69"/><stop offset="1" stop-color="#fff" stop-opacity="0"/></linearGradient><linearGradient id="i"><stop offset="0" stop-color="#8fb1dc"/><stop offset="1" stop-color="#3465a4"/></linearGradient><linearGradient id="j"><stop offset="0" stop-color="#cee14b"/><stop offset="1" stop-color="#9db029"/></linearGradient><linearGradient id="k"><stop offset="0" stop-color="#fff"/><stop offset="1" stop-color="#fff" stop-opacity="0"/></linearGradient></defs><rect width="12.713" height="12.335" x="2.117" y="282.366" ry=".493" fill="none" paint-order="stroke markers fill" transform="matrix(2.99138 0 0 3.0784 -1.346 -864.219)" stroke="#003ac8" stroke-width=".659" stroke-opacity=".627"/><g transform="matrix(2.99138 0 0 2.87317 -1.346 -805.004)" stroke-width=".682" stroke-opacity=".627" paint-order="stroke markers fill"><rect ry=".529" y="281.92" x="2.121" height="13.226" width="12.703" fill="#7cb2ff"/><path d="M2.646 281.919a.528.528 0 0 0-.53.529v5.045a9.26 9.26 0 0 0 8.467 5.538 9.26 9.26 0 0 0 4.234-1.027v-9.556a.528.528 0 0 0-.53-.53z" opacity=".1" fill="#00f"/></g><path d="M14.454 10.406a9.393 9.398 0 0 0 9.394 9.398 9.393 9.398 0 0 0 9.393-9.398h-2.348a7.045 7.048 0 0 1-7.045 7.049 7.045 7.048 0 0 1-7.045-7.049z" fill="#fff" paint-order="stroke markers fill"/><path style="marker:none" d="M37 28c-4.966 0-9 4.034-9 9s4.034 9 9 9 9-4.034 9-9-4.034-9-9-9z" color="#000" overflow="visible" fill="#fff" stroke="#2f5271" stroke-opacity=".322"/><path style="marker:none" d="M36.5 31c-.277 0-.5.223-.5.5v1.125c-.503.114-.967.31-1.39.578l-.798-.797a.494.494 0 0 0-.703 0l-.703.703a.494.494 0 0 0 0 .703l.797.797A4.436 4.436 0 0 0 32.625 36H31.5c-.277 0-.5.223-.5.5v1c0 .277.223.5.5.5h1.125c.114.503.31.967.578 1.39l-.797.797a.494.494 0 0 0 0 .704l.703.703a.494.494 0 0 0 .703 0l.797-.797c.424.267.888.464 1.391.578V42.5c0 .277.223.5.5.5h1c.277 0 .5-.223.5-.5v-1.125c.503-.114.967-.31 1.39-.578l.797.797a.494.494 0 0 0 .704 0l.703-.703a.494.494 0 0 0 0-.703l-.797-.797c.267-.424.464-.888.578-1.391H42.5c.277 0 .5-.223.5-.5v-1c0-.277-.223-.5-.5-.5h-1.125a4.436 4.436 0 0 0-.578-1.39l.797-.797a.494.494 0 0 0 0-.704l-.703-.703a.494.494 0 0 0-.704 0l-.796.797A4.436 4.436 0 0 0 38 32.625V31.5c0-.277-.223-.5-.5-.5zm.5 4a2 2 0 1 1-.001 4.001A2 2 0 0 1 37 35z" color="#000" overflow="visible" fill="#819ab1"/></svg>