<svg xmlns="http://www.w3.org/2000/svg" xmlns:xlink="http://www.w3.org/1999/xlink" version="1.0" width="48" height="48"><defs><linearGradient id="b"><stop offset="0" stop-color="#1e74af"/><stop offset="1" stop-color="#84c0ea"/></linearGradient><linearGradient id="c"><stop offset="0"/><stop offset="1" stop-opacity="0"/></linearGradient><linearGradient x1="45.448" y1="92.54" x2="45.448" y2="7.017" id="f" gradientUnits="userSpaceOnUse" gradientTransform="scale(1.00587 .99417)"><stop offset="0"/><stop offset="1" stop-opacity=".588"/></linearGradient><linearGradient id="a"><stop offset="0" stop-color="#fff"/><stop offset="1" stop-color="#fff" stop-opacity="0"/></linearGradient><filter id="g" color-interpolation-filters="sRGB"><feGaussianBlur stdDeviation="1.71"/></filter><linearGradient x1="65.263" y1="64.205" x2="65.263" y2="50.069" id="n" xlink:href="#a" gradientUnits="userSpaceOnUse" gradientTransform="matrix(.625 0 0 .625 28.5 31.25)"/><linearGradient x1="56" y1="72" x2="88" y2="72" id="i" xlink:href="#b" gradientUnits="userSpaceOnUse" gradientTransform="translate(-140.5 3.5) scale(.9375)"/><linearGradient x1="70" y1="54" x2="70" y2="75.095" id="j" xlink:href="#a" gradientUnits="userSpaceOnUse" gradientTransform="translate(0 4)"/><filter id="h" color-interpolation-filters="sRGB"><feGaussianBlur stdDeviation="1.2"/></filter><linearGradient x1="65.263" y1="64.205" x2="65.263" y2="50.069" id="l" xlink:href="#c" gradientUnits="userSpaceOnUse" gradientTransform="matrix(.625 0 0 .625 78.5 32.25)"/><clipPath id="k"><path d="M108.813 58A2.806 2.806 0 0 0 106 60.813v24.374A2.806 2.806 0 0 0 108.813 88h24.374A2.806 2.806 0 0 0 136 85.187V60.814A2.806 2.806 0 0 0 133.187 58zM116 62.5h10v8.75h5L121 85l-10-13.75h5z" fill="#fff"/></clipPath><filter id="m" color-interpolation-filters="sRGB"><feGaussianBlur stdDeviation=".637"/></filter><linearGradient x1="51.429" y1="72.786" x2="90.714" y2="72.786" id="q" xlink:href="#b" gradientUnits="userSpaceOnUse"/><clipPath id="o"><path d="M0 96v60h96V96zm68 20c9.941 0 18 8.059 18 18s-8.059 18-18 18-18-8.059-18-18 8.059-18 18-18z" fill="#fff"/></clipPath><filter id="p" color-interpolation-filters="sRGB"><feGaussianBlur stdDeviation="1.44"/></filter><linearGradient x1="64.321" y1="55.31" x2="64.321" y2="84.89" id="s" xlink:href="#d" gradientUnits="userSpaceOnUse" gradientTransform="translate(-2)"/><linearGradient id="d"><stop offset="0" stop-color="#fff"/><stop offset="1" stop-color="#fff" stop-opacity="0"/></linearGradient><linearGradient id="e"><stop offset="0" stop-color="#e3ebf3"/><stop offset="1" stop-color="#cedceb" stop-opacity=".392"/></linearGradient><radialGradient cx="22.109" cy="19.781" r="19.19" fx="22.109" fy="19.781" id="r" xlink:href="#e" gradientUnits="userSpaceOnUse" gradientTransform="matrix(.94407 0 0 .88117 44.406 53.026)"/></defs><rect width="12.713" height="12.335" x="2.117" y="282.366" ry=".493" fill="none" paint-order="stroke markers fill" transform="matrix(2.99138 0 0 3.0784 -1.346 -864.219)" stroke="#003ac8" stroke-width=".659" stroke-opacity=".627"/><g transform="matrix(2.99138 0 0 2.87317 -1.346 -805.004)" stroke-width=".682" stroke-opacity=".627" paint-order="stroke markers fill"><rect ry=".529" y="281.92" x="2.121" height="13.226" width="12.703" fill="#7cb2ff"/><path d="M2.646 281.919a.528.528 0 0 0-.53.529v5.045a9.26 9.26 0 0 0 8.467 5.538 9.26 9.26 0 0 0 4.234-1.027v-9.556a.528.528 0 0 0-.53-.53z" opacity=".1" fill="#00f"/></g><path d="M14.454 10.406a9.393 9.398 0 0 0 9.394 9.398 9.393 9.398 0 0 0 9.393-9.398h-2.348a7.045 7.048 0 0 1-7.045 7.049 7.045 7.048 0 0 1-7.045-7.049z" fill="#fff" paint-order="stroke markers fill"/><path style="marker:none" d="M37 28c-4.966 0-9 4.034-9 9s4.034 9 9 9 9-4.034 9-9-4.034-9-9-9zm0 7c1.104 0 2 .896 2 2s-.896 2-2 2-2-.896-2-2 .896-2 2-2z" color="#000" overflow="visible" fill="#fff" stroke="#2f5271" stroke-opacity=".322" enable-background="accumulate"/><path d="M37 32a5 5 0 0 0-5 5 5 5 0 0 0 5 5 5 5 0 0 0 5-5 5 5 0 0 0-5-5zm0 3a2 2 0 0 1 2 2 2 2 0 0 1-2 2 2 2 0 0 1-2-2 2 2 0 0 1 2-2z" opacity=".5" fill="#375389" fill-rule="evenodd" paint-order="fill markers stroke"/></svg>