<svg xmlns="http://www.w3.org/2000/svg" height="48" width="48"><path style="marker:none" d="M24 3.5C12.689 3.5 3.5 12.689 3.5 24S12.689 44.5 24 44.5 44.5 35.311 44.5 24 35.311 3.5 24 3.5z" color="#000" overflow="visible" opacity=".99" fill="#52a6f5" fill-opacity=".992"/><path style="marker:none;isolation:auto;mix-blend-mode:normal;solid-color:#000;solid-opacity:1;filter-blend-mode:normal;filter-gaussianBlur-deviation:0" d="M24 3.5C12.689 3.5 3.5 12.689 3.5 24S12.689 44.5 24 44.5 44.5 35.311 44.5 24 35.311 3.5 24 3.5z" opacity=".35" color="#000" fill="none" stroke="#002e99" stroke-linecap="round" stroke-linejoin="round" overflow="visible"/><path d="M24.91 29.163c-.066-2.358.463-4.648 2.691-6.27 2.354-1.834 4.621-4.13 4.382-6.835-.053-2.609-3.093-4.653-6.368-4.947-3.684-.51-8.142.751-9.377 3.629-.626 1.399-.045 3.91 2.056 3.91 1.23 0 1.794-.794 1.887-1.52.07-.55-.156-1.04-.29-1.495-.15-.517.497-1.52 1.203-1.928.59-.341 1.207-.455 1.298-.477 2.118-.51 4.23.615 5.11 1.984.881 1.368-.088 3.444-1.482 5.463-1.395 2.018-2.89 4.311-2.885 6.746 0 .928-.082 1.242-.024 1.618.047.3 1.04.263 1.8.122zm-.966 3.175c-2.025-.11-3.427 2.186-2.21 3.65 1.086 1.614 4.132 1.215 4.655-.613.542-1.423-.764-3.06-2.445-3.037z" font-weight="700" font-size="72" font-family="Standard Symbols L" fill="#fff"/></svg>