<svg xmlns="http://www.w3.org/2000/svg" width="48" height="48"><rect style="marker:none" y="5.5" x="4.5" ry="2" rx="2" height="39" width="39" color="#000" overflow="visible" fill="#fc9448"/><rect style="marker:none" y="5.5" x="4.5" ry="2" rx="2" height="39" width="39" color="#000" overflow="visible" opacity=".35" fill="none" stroke="#a62100" stroke-linecap="round" stroke-linejoin="round"/><path style="marker:none" d="M24 13c-5.585 0-10.256 3.833-11.594 9h2.969A9.13 9.13 0 0 1 24 15.875a9.112 9.112 0 0 1 6.938 3.188L27 23h9v-9l-3.031 3.031A11.931 11.931 0 0 0 24 13.001zM12 28v9l3.531-3.531A11.89 11.89 0 0 0 24 37c5.585 0 10.256-3.833 11.594-9h-2.969A9.13 9.13 0 0 1 24 34.125c-2.518 0-4.785-1.039-6.438-2.687L21 28z" color="#000" overflow="visible" fill="#fff6e9"/></svg>