<svg xmlns="http://www.w3.org/2000/svg" version="1.0" width="48" height="48"><path d="M14.496 9c-2.501 0-4.5 1.935-4.5 4.31.021.955.103 2.08.649 4.667.047.136.415.695.859 1.246l.076.093.024.12c.315 1.515.49 2.813.207 4.435l-.034.184-.144.119c-1.266 1.028-3.297 1.672-5.008 2.34-.855.334-1.627.668-2.145 1.004-.517.335-.71.615-.709.837l.002.036L3 34.076c.002.236.183.555.72.916.54.363 1.384.723 2.442 1.024 2.117.602 5.096.984 8.387.984 3.29 0 6.271-.382 8.389-.984 1.058-.301 1.903-.66 2.443-1.024.538-.362.722-.68.723-.916l-.774-5.683v-.034c0-.055-.022-.13-.135-.26-.113-.128-.313-.286-.578-.449-.53-.324-1.313-.663-2.176-1.011-1.725-.697-3.76-1.41-5.007-2.473l-.147-.127-.025-.191c-.19-1.522-.048-2.994.252-4.475l.021-.105.063-.088c.38-.525.693-1.042.748-1.203.614-2.69.614-3.64.648-4.672C18.991 10.932 16.995 9 14.496 9z" opacity=".6" fill="#f8f8f8"/><path d="M14.5 8.5c-2.761 0-5 2.154-5 4.81.022.984.102 2.15.666 4.81.105.324.498.852.953 1.417.312 1.497.474 2.703.203 4.248-2.264 1.84-8.053 2.668-8.045 4.572L2.5 34.072c0 1.894 5.397 3.428 12.055 3.428 6.658 0 12.056-1.534 12.056-3.428l-.777-5.715c-.01-1.63-5.834-2.667-8.07-4.572-.18-1.453-.049-2.864.244-4.312.391-.54.725-1.041.826-1.354.634-2.763.632-3.778.666-4.808 0-2.657-2.239-4.811-5-4.811z" opacity=".6" fill="none" stroke="#2e3544" stroke-opacity=".304"/><path d="M30 4.5c-4.142 0-7.5 3.134-7.5 7 .032 1.43.155 3.13 1 7 .227.68 1.286 1.88 2.361 3.03.186 1.295.232 2.518-.017 3.97-2.91 2.415-10.355 3.5-10.344 6l-1 7.5c0 2.485 6.94 4.5 15.5 4.5 8.56 0 15.5-2.015 15.5-4.5l-1-7.5c-.012-2.14-7.5-3.5-10.375-6-.152-1.254-.121-2.485.016-3.72 1.037-1.224 2.115-2.55 2.359-3.28.951-4.022.949-5.5 1-7 0-3.866-3.358-7-7.5-7z" fill="none" stroke="#2e3544" stroke-opacity=".304"/><path d="M30 5c-3.888 0-6.996 2.922-6.998 6.496.032 1.402.153 3.059.98 6.858.072.205.36.663.77 1.17.413.51.94 1.092 1.475 1.663l.107.116.021.156c.19 1.327.24 2.616-.02 4.125l-.03.184-.143.117c-1.588 1.317-4.196 2.168-6.4 3.047-1.103.439-2.102.88-2.783 1.332-.682.451-.98.857-.979 1.234v.033l-.996 7.475c.002.387.287.846.998 1.334.714.49 1.808.963 3.178 1.361C21.92 42.497 25.759 43 30 43c4.241 0 8.08-.503 10.82-1.299 1.37-.398 2.464-.87 3.178-1.361.711-.488.996-.947.998-1.334L44 31.536v-.034c0-.122-.05-.258-.21-.445-.162-.188-.428-.404-.776-.621-.697-.435-1.708-.88-2.819-1.338-2.22-.915-4.832-1.86-6.398-3.221l-.145-.125-.023-.191c-.158-1.301-.124-2.573.016-3.836l.015-.153.1-.117c.516-.61 1.039-1.24 1.457-1.799.415-.556.72-1.063.803-1.306.93-3.948.93-5.353.98-6.854C36.998 7.921 33.889 5 30 5z" fill="#f8f8f8"/></svg>