<svg xmlns="http://www.w3.org/2000/svg" width="64" height="64" viewBox="0 0 16.933 16.933"><path fill="none" d="M0 0h16.933v16.933H0z"/><path d="M8.7 6.41h-.355L7.99 8.891l1.773 1.419v-.355L8.7 8.537z" opacity=".3" fill="#fff" fill-rule="evenodd"/><path d="M8.45 5.027a3.706 3.706 0 0 0-3.704 3.704 3.706 3.706 0 0 0 3.704 3.704 3.706 3.706 0 0 0 3.704-3.704A3.706 3.706 0 0 0 8.45 5.027zm0 .53a3.176 3.176 0 0 1 0 6.35 3.176 3.176 0 0 1 0-6.35zM4.498 1.058v.53h2.91v-.53zm5.027 0v.53h2.91v-.53zM.794 4.762v2.91h.529v-2.91zm14.816 0v2.91h.53v-2.91zM.794 9.79v2.91h.529V9.79zm14.816 0v2.91h.53V9.79zM4.498 15.875v.53h2.91v-.53zm5.027 0v.53h2.91v-.53z" opacity=".3" fill="#fff" fill-rule="evenodd"/><path d="M14.464 16.14c1.411 0 1.411 0 1.411-1.412m0-11.994c0-1.411 0-1.411-1.411-1.411M1.058 14.728c0 1.412 0 1.412 1.411 1.412m0-14.817c-1.41 0-1.41 0-1.41 1.411" opacity=".3" fill="none" stroke="#fff" stroke-width=".529"/><path d="M8.7 6.161h-.355L7.99 8.644l1.773 1.419v-.355L8.7 8.289z" opacity=".5" fill-rule="evenodd"/><path d="M8.45 4.779a3.706 3.706 0 0 0-3.704 3.704 3.706 3.706 0 0 0 3.704 3.704 3.706 3.706 0 0 0 3.704-3.704A3.706 3.706 0 0 0 8.45 4.78zm0 .53a3.176 3.176 0 0 1 0 6.35 3.176 3.176 0 0 1 0-6.35zM4.498.794v.529h2.91v-.53zm5.027 0v.529h2.91v-.53zM.794 4.498v2.91h.529v-2.91zm14.816 0v2.91h.53v-2.91zM.794 9.525v2.91h.529v-2.91zm14.816 0v2.91h.53v-2.91zM4.498 15.61v.53h2.91v-.53zm5.027 0v.53h2.91v-.53z" opacity=".5" fill-rule="evenodd"/><path d="M14.464 15.875c1.411 0 1.411 0 1.411-1.411m0-11.995c0-1.41 0-1.41-1.411-1.41M1.058 14.463c0 1.411 0 1.411 1.411 1.411m0-14.817c-1.41 0-1.41 0-1.41 1.411" opacity=".5" fill="none" stroke="#000" stroke-width=".529"/></svg>