<svg xmlns="http://www.w3.org/2000/svg" width="64" height="64" viewBox="0 0 16.933 16.933"><g transform="translate(0 -280.067)"><path fill="none" d="M0 280.067h16.933V297H0z"/><path d="M16.14 295.148H.794v-12.17H16.14z" fill="#fafafa"/><path d="M15.61 294.619H1.323v-11.113H15.61z" fill="#949dac"/><path transform="matrix(-.26458 .00046 -.00026 -.26458 0 280.067)" fill="none" stroke="#24262b" stroke-linecap="round" stroke-opacity=".275" d="M-61.444-57.503H-2.49v46.896h-58.954z"/><path d="M2.485 287.033a11.419 11.419 0 0 0-1.162.073v7.513h11.906a11.419 11.419 0 0 0-10.744-7.586z" opacity=".15" paint-order="stroke markers fill"/><path d="M15.61 289.129a11.82 11.82 0 0 0-8.202 5.49h8.202z" opacity=".05" paint-order="stroke markers fill"/><circle cx="12.7" cy="286.152" r="1.323" opacity=".5" fill="#fff" paint-order="stroke markers fill"/></g></svg>