<?xml version="1.0" encoding="UTF-8" standalone="no"?>
<svg
   xmlns:dc="http://purl.org/dc/elements/1.1/"
   xmlns:cc="http://creativecommons.org/ns#"
   xmlns:rdf="http://www.w3.org/1999/02/22-rdf-syntax-ns#"
   xmlns:svg="http://www.w3.org/2000/svg"
   xmlns="http://www.w3.org/2000/svg"
   xmlns:sodipodi="http://sodipodi.sourceforge.net/DTD/sodipodi-0.dtd"
   xmlns:inkscape="http://www.inkscape.org/namespaces/inkscape"
   height="48"
   width="48"
   version="1.1"
   id="svg24"
   sodipodi:docname="calamares.svg"
   inkscape:version="1.0.2 (e86c870879, 2021-01-15)">
  <metadata
     id="metadata30">
    <rdf:RDF>
      <cc:Work
         rdf:about="">
        <dc:format>image/svg+xml</dc:format>
        <dc:type
           rdf:resource="http://purl.org/dc/dcmitype/StillImage" />
        <dc:title />
      </cc:Work>
    </rdf:RDF>
  </metadata>
  <defs
     id="defs28" />
  <sodipodi:namedview
     pagecolor="#ffffff"
     bordercolor="#666666"
     borderopacity="1"
     objecttolerance="10"
     gridtolerance="10"
     guidetolerance="10"
     inkscape:pageopacity="0"
     inkscape:pageshadow="2"
     inkscape:window-width="1920"
     inkscape:window-height="1031"
     id="namedview26"
     showgrid="false"
     inkscape:zoom="6.9532167"
     inkscape:cx="-11.229503"
     inkscape:cy="25.909946"
     inkscape:window-x="0"
     inkscape:window-y="24"
     inkscape:window-maximized="1"
     inkscape:current-layer="svg24"
     inkscape:document-rotation="0" />
  <path
     style="fill:#9fa7b1;fill-opacity:1"
     d="M 3.452703,3 H 43.547297 C 44.352094,3 45,3.6479055 45,4.452703 V 44.547297 C 45,45.352094 44.352094,46 43.547297,46 H 3.452703 C 2.6479055,46 2,45.352094 2,44.547297 V 4.452703 C 2,3.6479055 2.6479055,3 3.452703,3 Z"
     id="rect2" />
  <path
     d="m17 39h27v6h-27z"
     fill-opacity=".483019"
     id="path4" />
  <path
     d="m45 37v7.547298c0 .804797-.647905 1.452703-1.452703 1.452703h-40.0945941c-.8047974 0-1.4527029-.647906-1.4527029-1.452703v-7.547298z"
     fill-opacity=".228464"
     id="path6" />
  <path
     d="m40.884766 5.0234375a2.1060915 2.1060915 0 0 0 -2.107422 2.1054687 2.1060915 2.1060915 0 0 0 2.107422 2.1054688 2.1060915 2.1060915 0 0 0 2.105468-2.1054688 2.1060915 2.1060915 0 0 0 -2.105468-2.1054687zm-34.7617191.0117187a2.1060915 2.1060915 0 0 0 -2.1074219 2.1074219 2.1060915 2.1060915 0 0 0 2.1074219 2.1054688 2.1060915 2.1060915 0 0 0 2.1054687-2.1054688 2.1060915 2.1060915 0 0 0 -2.1054687-2.1074219zm0 25.7597658a2.1060915 2.1060915 0 0 0 -2.1074219 2.105469 2.1060915 2.1060915 0 0 0 2.1074219 2.105468 2.1060915 2.1060915 0 0 0 2.1054687-2.105468 2.1060915 2.1060915 0 0 0 -2.1054687-2.105469zm34.7480471 0a2.1060915 2.1060915 0 0 0 -2.105469 2.105469 2.1060915 2.1060915 0 0 0 2.105469 2.105468 2.1060915 2.1060915 0 0 0 2.107422-2.105468 2.1060915 2.1060915 0 0 0 -2.107422-2.105469z"
     fill="#fff"
     fill-opacity=".598592"
     id="path8" />
  <path
     d="m18 40h10v4h-10z"
     fill-opacity=".521569"
     id="path10" />
  <path
     d="m30 40h13v4h-13z"
     fill-opacity=".520599"
     id="path12" />
  <path
     d="m19 40v3h2v-3zm3 0v3h2v-3zm3 0v3h2v-3zm6 0v3h2v-3zm3 0v3h2v-3zm3 0v3h2v-3zm3 0v3h2v-3z"
     fill="#d9ce87"
     id="path14" />
  <path
     d="m18 43v1h10v-1zm12 0v1h13v-1z"
     fill="#9e9e9e"
     fill-opacity=".569288"
     id="path16" />
  <g
     id="g842"
     transform="translate(-0.04237366)">
    <path
       d="M 38.796611,19.932203 A 15.254237,15.254237 0 0 1 23.554687,35.186435 15.254237,15.254237 0 0 1 8.2881564,19.956831 15.254237,15.254237 0 0 1 23.505433,4.6780108 15.254237,15.254237 0 0 1 38.796531,19.882949"
       sodipodi:open="true"
       sodipodi:end="6.2799564"
       sodipodi:start="0"
       sodipodi:ry="15.254237"
       sodipodi:rx="15.254237"
       sodipodi:cy="19.932203"
       sodipodi:cx="23.542374"
       sodipodi:type="arc"
       id="path990"
       style="opacity:1;fill:#ffffff;fill-opacity:0.15969585;stroke:none;stroke-width:4.6692605;stroke-linecap:round;stroke-linejoin:round;stroke-miterlimit:4;stroke-dasharray:none;stroke-dashoffset:0;stroke-opacity:0.0988593;paint-order:fill markers stroke" />
    <path
       inkscape:connector-curvature="0"
       id="rect992"
       d="m 20.340225,13.109938 c -0.254516,0 -0.458984,0.204468 -0.458984,0.458984 v 5.990235 h -3.111328 l 6.773438,7.195312 6.771484,-7.195312 h -3.111328 v -5.990235 c 0,-0.254516 -0.204468,-0.458984 -0.458985,-0.458984 z"
       style="opacity:1;fill:#ffffff;fill-opacity:1;stroke:none;stroke-width:4;stroke-linecap:round;stroke-linejoin:round;stroke-miterlimit:4;stroke-dasharray:none;stroke-dashoffset:0;stroke-opacity:0.0988593;paint-order:fill markers stroke" />
  </g>
</svg>
