<?xml version="1.0" encoding="UTF-8" standalone="no"?>
<svg
   xmlns:dc="http://purl.org/dc/elements/1.1/"
   xmlns:cc="http://creativecommons.org/ns#"
   xmlns:rdf="http://www.w3.org/1999/02/22-rdf-syntax-ns#"
   xmlns:svg="http://www.w3.org/2000/svg"
   xmlns="http://www.w3.org/2000/svg"
   xmlns:sodipodi="http://sodipodi.sourceforge.net/DTD/sodipodi-0.dtd"
   xmlns:inkscape="http://www.inkscape.org/namespaces/inkscape"
   width="100%"
   height="100%"
   viewBox="0 0 1024 1024"
   version="1.1"
   xml:space="preserve"
   style="fill-rule:evenodd;clip-rule:evenodd;stroke-linejoin:round;stroke-miterlimit:2;"
   id="svg40"
   sodipodi:docname="com.github.artemanufrij.trimdown.svg"
   inkscape:version="0.92.4 5da689c313, 2019-01-14"><metadata
     id="metadata46"><rdf:RDF><cc:Work
         rdf:about=""><dc:format>image/svg+xml</dc:format><dc:type
           rdf:resource="http://purl.org/dc/dcmitype/StillImage" /></cc:Work></rdf:RDF></metadata><defs
     id="defs44" /><sodipodi:namedview
     pagecolor="#ffffff"
     bordercolor="#666666"
     borderopacity="1"
     objecttolerance="10"
     gridtolerance="10"
     guidetolerance="10"
     inkscape:pageopacity="0"
     inkscape:pageshadow="2"
     inkscape:window-width="1851"
     inkscape:window-height="1048"
     id="namedview42"
     showgrid="false"
     inkscape:zoom="0.23046875"
     inkscape:cx="512"
     inkscape:cy="512"
     inkscape:window-x="69"
     inkscape:window-y="32"
     inkscape:window-maximized="1"
     inkscape:current-layer="svg40" /><circle
     cx="514.16949"
     cy="514.16949"
     r="497.79721"
     style="fill:#808080;stroke-width:1.16797876"
     id="circle2" /><g
     id="g36"
     transform="matrix(1.1679787,0,0,1.1679787,-83.835635,-83.835635)"><path
       d="m 678.057,324.472 -325.675,-7.17 c 23.939,23.363 20.111,47.941 -2.04,146.049 h 337.197 c 29.005,-66.932 22.319,-131.283 -9.482,-138.879 z"
       style="fill:#fbfbfb"
       id="path4"
       inkscape:connector-curvature="0" /><rect
       x="285.004"
       y="452.27499"
       width="454.229"
       height="61.417"
       style="fill:#ebebeb"
       id="rect6" /><path
       d="m 286.738,444.107 c 0,-1.179 -0.956,-2.135 -2.134,-2.135 -6.118,0 -23.667,0 -29.785,0 -1.178,0 -2.134,0.956 -2.134,2.135 0,11.47 0,65.698 0,77.169 0,1.179 0.956,2.134 2.134,2.134 6.118,0 23.667,0 29.785,0 1.178,0 2.134,-0.955 2.134,-2.134 0,-11.471 0,-65.699 0,-77.169 z"
       style="fill:#ebebeb"
       id="path8"
       inkscape:connector-curvature="0" /><path
       d="m 770.815,443.396 c 0,-1.179 -0.956,-2.135 -2.134,-2.135 -6.118,0 -23.667,0 -29.785,0 -1.178,0 -2.134,0.956 -2.134,2.135 0,11.47 0,65.699 0,77.169 0,1.179 0.956,2.135 2.134,2.135 6.118,0 23.667,0 29.785,0 1.178,0 2.134,-0.956 2.134,-2.135 0,-11.47 0,-65.699 0,-77.169 z"
       style="fill:#ebebeb"
       id="path10"
       inkscape:connector-curvature="0" /><path
       d="m 712.139,497.345 c 0.638,0 1.223,0.357 1.515,0.925 3.08,5.994 20.471,39.835 32.796,63.818 8.25,16.054 12.553,33.842 12.553,51.891 v 59.161 c 0,1.406 -1.14,2.546 -2.546,2.546 -36.435,0 -452.242,0 -488.677,0 -1.406,0 -2.546,-1.14 -2.546,-2.546 0,-8.584 0,-37.153 0,-59.161 0,-18.049 4.303,-35.837 12.553,-51.891 12.325,-23.983 29.716,-57.824 32.796,-63.818 0.292,-0.568 0.877,-0.925 1.515,-0.925 21.771,0 378.27,0 400.041,0 z"
       style="fill:#9b9b9b"
       id="path12"
       inkscape:connector-curvature="0" /><g
       id="g32"><ellipse
         cx="389.04501"
         cy="536.883"
         rx="30.204"
         ry="15.941"
         style="fill:#ebebeb"
         id="ellipse14" /><ellipse
         cx="553.10797"
         cy="536.883"
         rx="30.204"
         ry="15.941"
         style="fill:#ebebeb"
         id="ellipse16" /><ellipse
         cx="512.20203"
         cy="579.84802"
         rx="30.204"
         ry="15.941"
         style="fill:#ebebeb"
         id="ellipse18" /><ellipse
         cx="635.28998"
         cy="536.883"
         rx="30.204"
         ry="15.941"
         style="fill:#ebebeb"
         id="ellipse20" /><ellipse
         cx="594.38501"
         cy="579.84802"
         rx="30.204"
         ry="15.941"
         style="fill:#ebebeb"
         id="ellipse22" /><ellipse
         cx="676.55103"
         cy="579.84802"
         rx="30.204"
         ry="15.941"
         style="fill:#ebebeb"
         id="ellipse24" /><ellipse
         cx="470.85599"
         cy="536.883"
         rx="30.204"
         ry="15.941"
         style="fill:#ebebeb"
         id="ellipse26" /><ellipse
         cx="429.95001"
         cy="579.84802"
         rx="30.204"
         ry="15.941"
         style="fill:#ebebeb"
         id="ellipse28" /><ellipse
         cx="347.686"
         cy="579.84802"
         rx="30.204"
         ry="15.941"
         style="fill:#ebebeb"
         id="ellipse30" /></g><rect
       x="388.81799"
       y="620.07501"
       width="246.60001"
       height="28.382999"
       style="fill:#808080"
       id="rect34" /></g><path
     d="M 699.7695,330.76296 340.43031,294.56729 c 135.34538,32.77582 262.60368,74.5626 372.52799,135.66775 13.24839,-18.13171 24.3255,-99.33426 -3.3953,-128.31532 -10.40786,6.15291 -13.96787,11.82111 -9.7935,28.84324 z"
     style="fill:#ebebeb;stroke-width:1.16797876"
     id="path38"
     inkscape:connector-curvature="0" /></svg>