<?xml version="1.0" encoding="UTF-8" standalone="no"?>
<svg
   xmlns:dc="http://purl.org/dc/elements/1.1/"
   xmlns:cc="http://creativecommons.org/ns#"
   xmlns:rdf="http://www.w3.org/1999/02/22-rdf-syntax-ns#"
   xmlns:svg="http://www.w3.org/2000/svg"
   xmlns="http://www.w3.org/2000/svg"
   xmlns:sodipodi="http://sodipodi.sourceforge.net/DTD/sodipodi-0.dtd"
   xmlns:inkscape="http://www.inkscape.org/namespaces/inkscape"
   height="48"
   width="48"
   version="1.1"
   id="svg6"
   sodipodi:docname="com.obsproject.Studio.svg"
   inkscape:version="1.0.2 (e86c870879, 2021-01-15)">
  <metadata
     id="metadata12">
    <rdf:RDF>
      <cc:Work
         rdf:about="">
        <dc:format>image/svg+xml</dc:format>
        <dc:type
           rdf:resource="http://purl.org/dc/dcmitype/StillImage" />
      </cc:Work>
    </rdf:RDF>
  </metadata>
  <defs
     id="defs10" />
  <sodipodi:namedview
     pagecolor="#ffffff"
     bordercolor="#666666"
     borderopacity="1"
     objecttolerance="10"
     gridtolerance="10"
     guidetolerance="10"
     inkscape:pageopacity="0"
     inkscape:pageshadow="2"
     inkscape:window-width="1920"
     inkscape:window-height="1031"
     id="namedview8"
     showgrid="false"
     inkscape:zoom="18.541667"
     inkscape:cx="24"
     inkscape:cy="24"
     inkscape:window-x="0"
     inkscape:window-y="24"
     inkscape:window-maximized="1"
     inkscape:current-layer="svg6" />
  <path
     d="m44.322082 27.405077a19.729762 19.729765 0 0 1 -19.729762 19.729765 19.729762 19.729765 0 0 1 -19.7297621-19.729765 19.729762 19.729765 0 0 1 19.7297621-19.7297632 19.729762 19.729765 0 0 1 19.729762 19.7297632z"
     fill="#4b5259"
     opacity=".99"
     transform="matrix(1.1503549 0 0 1.1503549 -4.486125 -7.525565)"
     id="path2"
     style="fill:#7f8994;fill-opacity:1" />
  <path
     d="m23.910987 5.851311c-2.871344.078005-5.684259 1.3795413-7.594136 3.528096-3.365153 3.613296-3.633918 9.595128-.628646 13.505791 2.659148.403066 4.991282 2.357544 5.880907 4.891555 1.325186 3.431106-.340813 7.646593-3.649024 9.251233-3.231004 1.757431-7.629904.650892-9.6446134-2.425795-.047326-.06865-.093551-.137959-.1398719-.207283 1.5037434 2.448481 4.0380023 4.233894 6.8534073 4.813536 4.811817 1.107873 10.126523-1.65048 12.01099-6.208444-.980493-2.50435-.453734-5.501175 1.295855-7.538528 2.308402-2.863048 6.792214-3.528482 9.835924-1.465622 3.137413 1.919094 4.378609 6.282075 2.721181 9.565384-.03591.07539-.0725.1503-.109509.225182 1.368838-2.52632 1.647756-5.613669.741925-8.342499-1.446045-4.721059-6.492206-7.944648-11.381463-7.29736-.707848.886007-1.625992 1.58278-2.648541 2.056215-.03563.01665-.07113.03343-.107033.04953-.0083.0041-.0161.0069-.02408.01101-.520196.231565-1.071595.405707-1.645982.514831-.0055.001-.01101.0028-.0172.0028-.05517.01101-.11061.02009-.166287.02917-.847637.142637-1.719006.142912-2.567757-.01665-1.391923-.217587-2.663097-.873748-3.688123-1.80532-.04581-.04114-.09066-.08337-.135511-.125605-.02339-.02229-.04705-.04444-.07016-.06714-.618273-.597128-1.134713-1.298372-1.520527-2.076548-.03852-.07649-.07553-.153726-.111573-.231441-.0014-.0041-.0041-.0083-.0055-.01238-.495928-1.076135-.742131-2.265012-.655418-3.467274.03522-1.38133.502917-2.703242 1.26772-3.82644.439262-.6536302.9792-1.23319 1.596111-1.7198182.0083-.00688.01665-.013758.02504-.019673.06549-.051178.131383-.101805.198602-.1508228.0648-.048014.130696-.094376.197034-.1402159.01238-.00825.02518-.017747.03811-.026414 1.059488-.7239442 2.296749-1.1826723 3.599854-1.2559032.000083-.0000137.000262.0000138.000344 0 .02476-.00138.04953-.00413.07443-.0055.05792-.00413.115838-.00825.173757-.012382z"
     fill="#fff"
     stroke-width=".094381"
     id="path4" />
</svg>
