<?xml version="1.0" encoding="UTF-8" standalone="no"?>
<svg
   xmlns:dc="http://purl.org/dc/elements/1.1/"
   xmlns:cc="http://creativecommons.org/ns#"
   xmlns:rdf="http://www.w3.org/1999/02/22-rdf-syntax-ns#"
   xmlns:svg="http://www.w3.org/2000/svg"
   xmlns="http://www.w3.org/2000/svg"
   xmlns:sodipodi="http://sodipodi.sourceforge.net/DTD/sodipodi-0.dtd"
   xmlns:inkscape="http://www.inkscape.org/namespaces/inkscape"
   height="48"
   width="48"
   version="1.1"
   id="svg26"
   sodipodi:docname="supertux2.svg"
   inkscape:version="1.0.2 (e86c870879, 2021-01-15)">
  <metadata
     id="metadata32">
    <rdf:RDF>
      <cc:Work
         rdf:about="">
        <dc:format>image/svg+xml</dc:format>
        <dc:type
           rdf:resource="http://purl.org/dc/dcmitype/StillImage" />
      </cc:Work>
    </rdf:RDF>
  </metadata>
  <defs
     id="defs30" />
  <sodipodi:namedview
     pagecolor="#ffffff"
     bordercolor="#666666"
     borderopacity="1"
     objecttolerance="10"
     gridtolerance="10"
     guidetolerance="10"
     inkscape:pageopacity="0"
     inkscape:pageshadow="2"
     inkscape:window-width="1920"
     inkscape:window-height="1031"
     id="namedview28"
     showgrid="false"
     inkscape:zoom="18.541667"
     inkscape:cx="24"
     inkscape:cy="24"
     inkscape:window-x="0"
     inkscape:window-y="24"
     inkscape:window-maximized="1"
     inkscape:current-layer="svg26" />
  <g
     fill="#4b5a73"
     opacity=".99"
     transform="matrix(1.1503549 0 0 1.1503549 -4.486125 -7.525565)"
     id="g6">
    <path
       d="m44.322082 27.405077a19.729762 19.729765 0 0 1 -19.729762 19.729765 19.729762 19.729765 0 0 1 -19.7297621-19.729765 19.729762 19.729765 0 0 1 19.7297621-19.7297632 19.729762 19.729765 0 0 1 19.729762 19.7297632z"
       id="path2" />
    <path
       d="m44.322082 27.405077a19.729762 19.729765 0 0 1 -19.729762 19.729765 19.729762 19.729765 0 0 1 -19.7297621-19.729765 19.729762 19.729765 0 0 1 19.7297621-19.7297632 19.729762 19.729765 0 0 1 19.729762 19.7297632z"
       id="path4"
       style="fill:#909cac;fill-opacity:1" />
  </g>
  <g
     transform="translate(.321862 -.143908)"
     id="g24">
    <g
       fill="#fff"
       id="g18">
      <circle
         cx="24"
         cy="27"
         r="9"
         id="circle8" />
      <circle
         cx="23.914213"
         cy="17.277666"
         r="6.489848"
         id="circle10" />
      <rect
         height="3"
         ry="1.5"
         width="9"
         x="21"
         y="34.5"
         id="rect12" />
      <rect
         height="3"
         ry="1.5"
         transform="matrix(.84494897 .53484693 -.53484693 .84494897 0 0)"
         width="9"
         x="28.800688"
         y="17.4538"
         id="rect14" />
      <path
         d="m28.5 15 4.5 2.4-4.5 3.3z"
         id="path16" />
    </g>
    <ellipse
       cx="27.75"
       cy="15"
       fill="#4b5a73"
       rx=".75"
       ry="1.5"
       id="ellipse20"
       style="fill:#909cac;fill-opacity:1" />
    <rect
       fill="#fff"
       height="3.9"
       ry="1.91875"
       stroke="#4b5a73"
       stroke-linejoin="round"
       stroke-width=".7"
       transform="matrix(.72413785 .68965526 -.68965526 .72413785 0 0)"
       width="14.1"
       x="30.486204"
       y="-1.034488"
       id="rect22"
       style="stroke:#909cac;stroke-opacity:1" />
  </g>
</svg>
