<?xml version="1.0" encoding="UTF-8" standalone="no"?>
<svg
   xmlns:dc="http://purl.org/dc/elements/1.1/"
   xmlns:cc="http://creativecommons.org/ns#"
   xmlns:rdf="http://www.w3.org/1999/02/22-rdf-syntax-ns#"
   xmlns:svg="http://www.w3.org/2000/svg"
   xmlns="http://www.w3.org/2000/svg"
   xmlns:sodipodi="http://sodipodi.sourceforge.net/DTD/sodipodi-0.dtd"
   xmlns:inkscape="http://www.inkscape.org/namespaces/inkscape"
   height="48"
   width="48"
   version="1.1"
   id="svg6"
   sodipodi:docname="accessories-notes.svg"
   inkscape:version="1.0.2 (e86c870879, 2021-01-15)">
  <metadata
     id="metadata12">
    <rdf:RDF>
      <cc:Work
         rdf:about="">
        <dc:format>image/svg+xml</dc:format>
        <dc:type
           rdf:resource="http://purl.org/dc/dcmitype/StillImage" />
        <dc:title />
      </cc:Work>
    </rdf:RDF>
  </metadata>
  <defs
     id="defs10" />
  <sodipodi:namedview
     pagecolor="#ffffff"
     bordercolor="#666666"
     borderopacity="1"
     objecttolerance="10"
     gridtolerance="10"
     guidetolerance="10"
     inkscape:pageopacity="0"
     inkscape:pageshadow="2"
     inkscape:window-width="1920"
     inkscape:window-height="1031"
     id="namedview8"
     showgrid="false"
     inkscape:zoom="9.8333333"
     inkscape:cx="6.9661016"
     inkscape:cy="34.169491"
     inkscape:window-x="0"
     inkscape:window-y="24"
     inkscape:window-maximized="1"
     inkscape:current-layer="svg6"
     inkscape:document-rotation="0" />
  <circle
     cx="23.940615"
     cy="31.534513"
     fill="#74a2f3"
     opacity=".99"
     r="13.232998"
     transform="matrix(1.75830584759 0 0 1.75830608345 -18.15909274367 -30.97874795549)"
     id="circle2"
     style="fill:#aeaeae;fill-opacity:1" />
  <g
     transform="matrix(0.12798156,0,0,0.12798156,-2.0644482,-0.60477218)"
     style="clip-rule:evenodd;fill-rule:evenodd;stroke-linecap:round;stroke-linejoin:round;stroke-miterlimit:1.5"
     id="g9">
    <path
       inkscape:connector-curvature="0"
       d="M 340.194,141.884 223.778,110.69 184.275,258.116 300.691,289.31 Z"
       style="fill:#f2f2f2"
       id="path5" />
    <path
       inkscape:connector-curvature="0"
       d="m 332.572,146.379 -104.441,-27.985 -4.99,18.623 104.441,27.984 z"
       style="fill:#c1dae8"
       id="path7" />
  </g>
  <path
     inkscape:connector-curvature="0"
     d="m 33.912063,15.106629 c 0,-2.685946 -1.066982,-5.2618293 -2.966228,-7.1610763 -1.899246,-1.899247 -4.475132,-2.9662323 -7.161083,-2.9662323 -2.57e-4,0 -5.07e-4,0 -6.35e-4,0 -2.685953,0 -5.261837,1.0669853 -7.161084,2.9662323 -1.899246,1.899247 -2.966225,4.4751303 -2.966225,7.1610763 0,8.635943 0,19.662188 0,19.662188 H 33.912063 Z M 30.985637,31.842393 V 15.106629 c 0,-1.90987 -0.758674,-3.741409 -2.109136,-5.091875 -1.350334,-1.3504593 -3.182006,-2.1090083 -5.091749,-2.1090083 -2.57e-4,0 -5.07e-4,0 -6.35e-4,0 -1.90987,0 -3.741416,0.758549 -5.091876,2.1090083 -1.350459,1.350466 -2.109137,3.182005 -2.109137,5.091875 v 16.735764 z"
     style="clip-rule:evenodd;fill:#ffdd94;fill-rule:evenodd;stroke-width:0.12798156;stroke-linecap:round;stroke-linejoin:round;stroke-miterlimit:1.5"
     id="path11" />
  <g
     transform="matrix(0.12798156,0,0,0.12798156,-2.0644482,-0.60477218)"
     style="clip-rule:evenodd;fill-rule:evenodd;stroke-linecap:round;stroke-linejoin:round;stroke-miterlimit:1.5"
     id="g17">
    <path
       inkscape:connector-curvature="0"
       d="M 199.833,136.284 83.417,167.478 122.92,314.904 239.336,283.71 Z"
       style="fill:#ffffff"
       id="path13" />
    <path
       inkscape:connector-curvature="0"
       d="M 195.48,143.988 91.039,171.973 96.029,190.595 200.47,162.61 Z"
       style="fill:#c1dae8"
       id="path15" />
  </g>
  <path
     inkscape:connector-curvature="0"
     d="m 3.529113,25.015984 c 0,10.778992 9.076067,19.530116 20.255261,19.530116 11.179186,0 20.255383,-8.751124 20.255383,-19.530116 -6.743349,-0.01358 -13.498088,-0.02445 -20.255383,-0.02445 -6.757303,0 -13.511911,0.01087 -20.255261,0.02445 z"
     style="clip-rule:evenodd;fill:#ffdd94;fill-rule:evenodd;stroke-width:0.12798156;stroke-linecap:round;stroke-linejoin:round;stroke-miterlimit:1.5"
     id="path19" />
  <path
     inkscape:connector-curvature="0"
     d="M 5.8347004,27.536196 H 41.734169"
     style="clip-rule:evenodd;fill:none;fill-rule:evenodd;stroke:#eecc83;stroke-width:1.06608641px;stroke-linecap:round;stroke-linejoin:round;stroke-miterlimit:1.5"
     id="path21" />
</svg>
