<?xml version="1.0" encoding="UTF-8" standalone="no"?>
<!-- Created with Inkscape (http://www.inkscape.org/) -->

<svg
   xmlns:dc="http://purl.org/dc/elements/1.1/"
   xmlns:cc="http://creativecommons.org/ns#"
   xmlns:rdf="http://www.w3.org/1999/02/22-rdf-syntax-ns#"
   xmlns:svg="http://www.w3.org/2000/svg"
   xmlns="http://www.w3.org/2000/svg"
   xmlns:sodipodi="http://sodipodi.sourceforge.net/DTD/sodipodi-0.dtd"
   xmlns:inkscape="http://www.inkscape.org/namespaces/inkscape"
   id="svg7384"
   height="16"
   width="16"
   version="1.1"
   inkscape:version="0.91 r13725"
   sodipodi:docname="add-files-to-archive.svg">
  <defs
     id="defs7667">
    <linearGradient
       id="StandardGradient"
       gradientTransform="scale(0.9219544,1.0846523)"
       x1="11.998966"
       y1="0.92195445"
       x2="11.998966"
       y2="19.387045"
       gradientUnits="userSpaceOnUse">
      <stop
         style="stop-color:#000000;stop-opacity:0.23529412;"
         offset="0"
         id="stop3283" />
      <stop
         style="stop-color:#000000;stop-opacity:0.54901963;"
         offset="1"
         id="stop2651" />
    </linearGradient>
  </defs>
  <sodipodi:namedview
     pagecolor="#ffffff"
     bordercolor="#666666"
     borderopacity="1"
     objecttolerance="10"
     gridtolerance="10"
     guidetolerance="10"
     inkscape:pageopacity="0"
     inkscape:pageshadow="2"
     inkscape:window-width="1920"
     inkscape:window-height="1026"
     id="namedview7665"
     showgrid="true"
     inkscape:zoom="32"
     inkscape:cx="9.1632285"
     inkscape:cy="5.6009653"
     inkscape:window-x="0"
     inkscape:window-y="0"
     inkscape:window-maximized="1"
     inkscape:current-layer="g4147"
     inkscape:snap-bbox="true"
     inkscape:bbox-paths="true"
     inkscape:snap-bbox-edge-midpoints="true"
     inkscape:bbox-nodes="true"
     inkscape:snap-bbox-midpoints="true">
    <inkscape:grid
       type="xygrid"
       id="grid4138" />
  </sodipodi:namedview>
  <metadata
     id="metadata90">
    <rdf:RDF>
      <cc:Work
         rdf:about="">
        <dc:format>image/svg+xml</dc:format>
        <dc:type
           rdf:resource="http://purl.org/dc/dcmitype/StillImage" />
        <dc:title>Gnome Symbolic Icon Theme</dc:title>
      </cc:Work>
    </rdf:RDF>
  </metadata>
  <title
     id="title9167">Gnome Symbolic Icon Theme</title>
  <g
     id="g4147"
     style="fill:#bebebe;fill-opacity:1;stroke:none"
     transform="matrix(1.3889016,0,0,1.3889016,-3.0103731,-3.5159478)">
    <path
       inkscape:connector-curvature="0"
       style="display:inline;opacity:0.05;fill:#ffffff;fill-opacity:1;stroke:none"
       d="m 28.177211,21.847532 c -0.97181,0 -1.777484,0.805674 -1.777484,1.777484 l 0,0.359997 a 0.69597745,0.69597745 0 0 0 0.0225,0.157498 c -0.146651,0.03065 -0.27353,0.09259 -0.404996,0.157499 l 0,-0.292497 -1.439987,0 c -0.97181,0 -1.777484,0.805673 -1.777484,1.777483 l 0,3.599967 c 0,0.971811 0.805674,1.777484 1.777484,1.777484 l 1.439987,0 0,-0.292497 c 0.131466,0.06491 0.258345,0.126844 0.404996,0.157498 a 0.69597745,0.69597745 0 0 0 -0.0225,0.157499 l 0,0.359996 c 0,0.971811 0.805673,1.777484 1.777484,1.777484 l 4.31996,0 c 0.97181,0 1.777484,-0.805673 1.777484,-1.777484 l 0,-7.919927 c 0,-0.97181 -0.805674,-1.777484 -1.777484,-1.777484 l -4.31996,0 z m 0,0.697494 4.31996,0 c 0.598315,0 1.07999,0.481676 1.07999,1.07999 l 0,7.919927 c 0,0.598315 -0.481675,1.079991 -1.07999,1.079991 l -4.31996,0 c -0.598315,0 -1.07999,-0.481676 -1.07999,-1.079991 l 0,-0.359996 4.31996,0 c 0.398876,0 0.719993,-0.321117 0.719993,-0.719994 l 0,-5.759947 c 0,-0.398876 -0.321117,-0.719993 -0.719993,-0.719993 l -4.31996,0 0,-0.359997 c 0,-0.598314 0.481675,-1.07999 1.07999,-1.07999 z m 2.767474,2.137481 0.472496,0 c 0.02538,0 0.0225,-0.0029 0.0225,0.0225 l 0,5.759946 c 0,0.02538 0.0029,0.0225 -0.0225,0.0225 l -0.472496,0 c 0.254117,-0.307549 0.449996,-0.677704 0.449996,-1.10249 l 0,-3.599966 c 0,-0.424786 -0.195879,-0.794942 -0.449996,-1.10249 z m -6.367441,0.0225 1.439987,0 c -0.598315,0 -1.079991,0.481675 -1.079991,1.07999 l 0,0.719993 0,2.15998 0,0.719993 c 0,0.598315 0.481676,1.07999 1.079991,1.07999 l -1.439987,0 c -0.598315,0 -1.07999,-0.481675 -1.07999,-1.07999 l 0,-3.599966 c 0,-0.598315 0.481675,-1.07999 1.07999,-1.07999 z m 2.15998,0 2.879974,0 c 0.598314,0 1.07999,0.481675 1.07999,1.07999 l 0,3.599966 c 0,0.598315 -0.481676,1.07999 -1.07999,1.07999 l -2.879974,0 c -0.598315,0 -1.07999,-0.481675 -1.07999,-1.07999 l 0,-3.599966 c 0,-0.598315 0.481675,-1.07999 1.07999,-1.07999 z m 0.719993,1.439986 c -0.199438,0 -0.359996,0.160559 -0.359996,0.359997 l 0,2.15998 c 0,0.199438 0.160558,0.359997 0.359996,0.359997 l 1.439987,0 c 0.199438,0 0.359997,-0.160559 0.359997,-0.359997 l 0,-2.15998 c 0,-0.199438 -0.160559,-0.359997 -0.359997,-0.359997 l -1.439987,0 z m 0.337497,0.697494 0.764993,0 0,1.484986 -0.764993,0 0,-1.484986 z"
       id="path3091" />
    <path
       inkscape:connector-curvature="0"
       style="display:inline;fill:#bebebe;fill-opacity:1;stroke:none"
       d="m 7.5673995,3.2514525 c -0.598315,0 -1.07999,0.481676 -1.07999,1.07999 l 0,0.359997 4.3199605,0 c 0.398876,0 0.719993,0.321117 0.719993,0.719993 l 0,5.7599475 c 0,0.398877 -0.321117,0.719994 -0.719993,0.719994 l -4.3199605,0 0,0.359996 c 0,0.598315 0.481675,1.079991 1.07999,1.079991 l 4.3199605,0 c 0.598315,0 1.07999,-0.481676 1.07999,-1.079991 l 0,-7.9199275 c 0,-0.598314 -0.481675,-1.07999 -1.07999,-1.07999 z m -3.599967,2.15998 c -0.598315,0 -1.07999,0.481676 -1.07999,1.07999 l 0,3.5999675 c 0,0.598315 0.481675,1.07999 1.07999,1.07999 l 1.439987,0 c -0.598315,0 -1.079991,-0.481675 -1.079991,-1.07999 l 0,-0.7199935 0,-2.15998 0,-0.719994 c 0,-0.598314 0.481676,-1.07999 1.079991,-1.07999 z m 2.15998,0 c -0.598315,0 -1.07999,0.481676 -1.07999,1.07999 l 0,3.5999675 c 0,0.598315 0.481675,1.07999 1.07999,1.07999 l 2.8799741,0 c 0.598314,0 1.0799904,-0.481675 1.0799904,-1.07999 l 0,-3.5999675 c 0,-0.598314 -0.4816764,-1.07999 -1.0799904,-1.07999 z m 0.719993,1.439987 1.439987,0 c 0.1994381,0 0.3599971,0.160559 0.3599971,0.359997 l 0,2.15998 c 0,0.199438 -0.160559,0.359997 -0.3599971,0.359997 l -1.439987,0 c -0.199438,0 -0.359996,-0.160559 -0.359996,-0.359997 l 0,-2.15998 c 0,-0.199438 0.160558,-0.359997 0.359996,-0.359997 z"
       id="path3708"
       sodipodi:nodetypes="sscsssscsccsssssssscsccscsssssssssssssssssss" />
  </g>
</svg>
