<?xml version="1.0" encoding="UTF-8" standalone="no"?>
<!-- Created with Inkscape (http://www.inkscape.org/) -->

<svg
   xmlns:dc="http://purl.org/dc/elements/1.1/"
   xmlns:cc="http://creativecommons.org/ns#"
   xmlns:rdf="http://www.w3.org/1999/02/22-rdf-syntax-ns#"
   xmlns:svg="http://www.w3.org/2000/svg"
   xmlns="http://www.w3.org/2000/svg"
   xmlns:sodipodi="http://sodipodi.sourceforge.net/DTD/sodipodi-0.dtd"
   xmlns:inkscape="http://www.inkscape.org/namespaces/inkscape"
   id="svg7384"
   width="16"
   height="16"
   version="1.1"
   sodipodi:docname="emblem-documents-symbolic.svg"
   inkscape:version="0.92.3 (2405546, 2018-03-11)">
  <defs
     id="defs14" />
  <sodipodi:namedview
     pagecolor="#ffffff"
     bordercolor="#666666"
     borderopacity="1"
     objecttolerance="10"
     gridtolerance="10"
     guidetolerance="10"
     inkscape:pageopacity="0"
     inkscape:pageshadow="2"
     inkscape:window-width="1280"
     inkscape:window-height="745"
     id="namedview12"
     showgrid="true"
     inkscape:zoom="5.6568543"
     inkscape:cx="-6.9371761"
     inkscape:cy="-5.2987476"
     inkscape:window-x="0"
     inkscape:window-y="0"
     inkscape:window-maximized="1"
     inkscape:current-layer="svg7384">
    <inkscape:grid
       type="xygrid"
       id="grid821" />
  </sodipodi:namedview>
  <metadata
     id="metadata90">
    <rdf:RDF>
      <cc:Work
         rdf:about="">
        <dc:format>image/svg+xml</dc:format>
        <dc:type
           rdf:resource="http://purl.org/dc/dcmitype/StillImage" />
        <dc:title>Gnome Symbolic Icon Theme</dc:title>
      </cc:Work>
    </rdf:RDF>
  </metadata>
  <title
     id="title9167">Gnome Symbolic Icon Theme</title>
  <path
     style="color:#000000;text-indent:0;text-transform:none;fill:#bebebe;enable-background:new"
     d="M 3,1 C 1.9093,1 1,1.9093 1,3 v 9 c 0,1.0907 0.9093,2 2,2 H 8.7617188 C 8.2328109,13.46598 7.8737571,12.771785 7.7460938,12 H 3 V 3 h 10 v 5.0859375 c 1.001478,0.4913856 1.755803,1.4122381 2,2.5273435 V 3 C 15,1.9093 14.0907,1 13,1 Z"
     id="rect4513"
     inkscape:connector-curvature="0"
     sodipodi:nodetypes="sssscccccccsss" />
  <rect
     style="color:#000000;fill:#bebebe;enable-background:new"
     ry="0.46610171"
     rx="0.5"
     height="1"
     width="8"
     y="6"
     x="4"
     id="rect5313-6" />
  <rect
     style="color:#000000;fill:#bebebe;enable-background:new"
     ry="0.46610171"
     rx="0.5"
     height="1"
     width="8"
     y="4"
     x="4"
     id="rect5313-6-3" />
  <path
     style="color:#000000;fill:#bebebe;enable-background:new"
     d="M 4.5 8 C 4.223 8 4 8.2085765 4 8.4667969 L 4 8.5332031 C 4 8.7914235 4.223 9 4.5 9 L 8.5957031 9 C 8.9617415 8.5750371 9.4121167 8.2248859 9.9335938 8 L 4.5 8 z "
     id="rect5313-6-6" />
  <path
     style="color:#000000;fill:#bebebe;enable-background:new"
     d="M 4.5 10 C 4.223 10 4 10.208577 4 10.466797 L 4 10.533203 C 4 10.791423 4.223 11 4.5 11 L 7.7265625 11 C 7.7649667 10.651351 7.8376304 10.313198 7.9667969 10 L 4.5 10 z "
     id="rect5313-6-7" />
  <path
     inkscape:connector-curvature="0"
     d="m 11.373638,8.6861376 c -1.4956002,0 -2.7187502,1.22315 -2.7187502,2.7187504 0,1.4956 1.22315,2.71875 2.7187502,2.71875 0.4871,0 0.94729,-0.14835 1.34375,-0.375 a 0.750075,0.750075 0 0 0 0.15625,0.21875 l 1.84375,1.8125 a 0.75130096,0.75130096 0 1 0 1.0625,-1.0625 l -1.84375,-1.8125 a 0.750075,0.750075 0 0 0 -0.21875,-0.15625 c 0.22665,-0.39646 0.375,-0.85664 0.375,-1.34375 0,-1.4956004 -1.22315,-2.7187504 -2.71875,-2.7187504 z m 0,1 c 0.95516,0 1.71875,0.7635904 1.71875,1.7187504 0,0.95516 -0.76359,1.71875 -1.71875,1.71875 -0.95516,0 -1.7187502,-0.76359 -1.7187502,-1.71875 0,-0.95516 0.7635902,-1.7187504 1.7187502,-1.7187504 z"
     id="path27332"
     style="color:#000000;font-style:normal;font-variant:normal;font-weight:normal;font-stretch:normal;font-size:medium;line-height:normal;font-family:Sans;-inkscape-font-specification:Sans;text-indent:0;text-align:start;text-decoration:none;text-decoration-line:none;letter-spacing:normal;word-spacing:normal;text-transform:none;writing-mode:lr-tb;direction:ltr;baseline-shift:baseline;text-anchor:start;display:inline;overflow:visible;visibility:visible;fill:#bebebe;fill-opacity:1;stroke:none;stroke-width:1;marker:none;enable-background:new" />
</svg>
