<?xml version="1.0" encoding="UTF-8" standalone="no"?>
<svg
   xmlns:dc="http://purl.org/dc/elements/1.1/"
   xmlns:cc="http://creativecommons.org/ns#"
   xmlns:rdf="http://www.w3.org/1999/02/22-rdf-syntax-ns#"
   xmlns:svg="http://www.w3.org/2000/svg"
   xmlns="http://www.w3.org/2000/svg"
   width="16"
   height="16"
   viewBox="0 0 16 16"
   version="1.1"
   id="svg7">
  <metadata
     id="metadata11">
    <rdf:RDF>
      <cc:Work
         rdf:about="">
        <dc:format>image/svg+xml</dc:format>
        <dc:type
           rdf:resource="http://purl.org/dc/dcmitype/StillImage" />
      </cc:Work>
    </rdf:RDF>
  </metadata>
  <defs
     id="defs3">
    <style
       id="current-color-scheme"
       type="text/css">
   .ColorScheme-Text { color:#404040; } .ColorScheme-Highlight { color:#5294e2; }
  </style>
  </defs>
  <path
     d="m 5.9999999,16 c -0.552285,0 -1,-0.447715 -1,-1 v -3 h -3 C 0.8954309,12 9.9999999e-8,11.104569 9.9999999e-8,10 V 2.0000002 C 9.9999999e-8,0.8954307 0.8954309,2e-7 1.9999999,2e-7 H 14 c 1.104569,0 2,0.8954305 2,2 V 10 c 0,1.104569 -0.895431,2 -2,2 h -3.1 l -3.7000001,3.71 c -0.2,0.18 -0.44,0.29 -0.7,0.29 h -0.5 m -3,-12.9999998 v 2 H 13 v -2 H 2.9999999 m 0,4 v 2 H 11 v -2 z"
     id="path2"
     style="fill:#bebebe;fill-opacity:1" />
</svg>
