<?xml version="1.0" encoding="UTF-8" standalone="no"?>
<svg
   xmlns:dc="http://purl.org/dc/elements/1.1/"
   xmlns:cc="http://creativecommons.org/ns#"
   xmlns:rdf="http://www.w3.org/1999/02/22-rdf-syntax-ns#"
   xmlns:svg="http://www.w3.org/2000/svg"
   xmlns="http://www.w3.org/2000/svg"
   xmlns:sodipodi="http://sodipodi.sourceforge.net/DTD/sodipodi-0.dtd"
   xmlns:inkscape="http://www.inkscape.org/namespaces/inkscape"
   width="16"
   height="16"
   version="1.1"
   id="svg4661"
   sodipodi:docname="view-fit-width-symbolic.svg"
   inkscape:version="0.92.5 (2060ec1f9f, 2020-04-08)">
  <metadata
     id="metadata4667">
    <rdf:RDF>
      <cc:Work
         rdf:about="">
        <dc:format>image/svg+xml</dc:format>
        <dc:type
           rdf:resource="http://purl.org/dc/dcmitype/StillImage" />
        <dc:title />
      </cc:Work>
    </rdf:RDF>
  </metadata>
  <defs
     id="defs4665" />
  <sodipodi:namedview
     pagecolor="#ffffff"
     bordercolor="#666666"
     borderopacity="1"
     objecttolerance="10"
     gridtolerance="10"
     guidetolerance="10"
     inkscape:pageopacity="0"
     inkscape:pageshadow="2"
     inkscape:window-width="1280"
     inkscape:window-height="959"
     id="namedview4663"
     showgrid="false"
     inkscape:zoom="22.627417"
     inkscape:cx="3.8421904"
     inkscape:cy="11.079717"
     inkscape:window-x="0"
     inkscape:window-y="0"
     inkscape:window-maximized="1"
     inkscape:current-layer="svg4661" />
  <g
     font-weight="400"
     id="g4659"
     transform="matrix(0.94517958,0,0,1,0.43856333,0.01104854)"
     style="font-weight:400;fill:#474747">
    <path
       d="M 3,7 V 9 H 13 V 7 Z"
       overflow="visible"
       style="font-family:sans-serif;font-variant-ligatures:normal;font-variant-position:normal;font-variant-caps:normal;font-variant-numeric:normal;font-variant-alternates:normal;font-feature-settings:normal;text-indent:0;text-decoration:none;text-decoration-line:none;text-decoration-style:solid;text-decoration-color:#000000;text-transform:none;text-orientation:mixed;shape-padding:0;overflow:visible;isolation:auto;mix-blend-mode:normal"
       id="path4655"
       inkscape:connector-curvature="0" />
    <path
       d="m 10,4 v 1 c 0,0.257 0.13,0.528 0.313,0.719 L 12.593,8 10.313,10.281 C 10.13,10.471 10,10.743 10,11 v 1 h 1 c 0.31,0 0.552,-0.09 0.75,-0.281 L 15.406,8 11.75,4.281 C 11.552,4.091 11.31,4 11,4 Z M 6,4 V 5 C 6,5.257 5.87,5.528 5.688,5.719 L 3.406,8 5.688,10.281 C 5.87,10.471 6,10.743 6,11 v 1 H 5 C 4.69,12 4.448,11.91 4.25,11.719 L 0.594,8 4.25,4.281 C 4.448,4.091 4.69,4 5,4 Z"
       overflow="visible"
       style="color:#bebebe;font-family:'Bitstream Vera Sans';text-indent:0;text-decoration:none;text-decoration-line:none;text-transform:none;overflow:visible"
       id="path4657"
       inkscape:connector-curvature="0" />
  </g>
  <path
     style="fill:none;stroke:#000000;stroke-width:0;stroke-linecap:butt;stroke-linejoin:miter;stroke-opacity:1;stroke-miterlimit:4;stroke-dasharray:none"
     d="m 0.125,0.15625 v 15.5625"
     id="path832"
     inkscape:connector-curvature="0" />
  <rect
     style="fill:#474747;fill-opacity:1;stroke:none;stroke-width:0;stroke-miterlimit:4;stroke-dasharray:none;stroke-opacity:1"
     id="rect840"
     width="1"
     height="16"
     x="5e-07"
     y="-5e-07" />
  <rect
     style="fill:#474747;fill-opacity:1;stroke:none;stroke-width:0;stroke-miterlimit:4;stroke-dasharray:none;stroke-opacity:1"
     id="rect851"
     width="1"
     height="16"
     x="15"
     y="3.8857806e-16" />
</svg>
