<?xml version="1.0" encoding="UTF-8" standalone="no"?>
<svg
   xmlns:dc="http://purl.org/dc/elements/1.1/"
   xmlns:cc="http://creativecommons.org/ns#"
   xmlns:rdf="http://www.w3.org/1999/02/22-rdf-syntax-ns#"
   xmlns:svg="http://www.w3.org/2000/svg"
   xmlns="http://www.w3.org/2000/svg"
   width="16"
   height="16"
   viewBox="0 0 16 16"
   version="1.1"
   id="svg7">
  <metadata
     id="metadata11">
    <rdf:RDF>
      <cc:Work
         rdf:about="">
        <dc:format>image/svg+xml</dc:format>
        <dc:type
           rdf:resource="http://purl.org/dc/dcmitype/StillImage" />
      </cc:Work>
    </rdf:RDF>
  </metadata>
  <defs
     id="defs3">
    <style
       id="current-color-scheme"
       type="text/css">
   .ColorScheme-Text { color:#404040; } .ColorScheme-Highlight { color:#5294e2; }
  </style>
  </defs>
  <g
     transform="translate(0,4.86e-4)"
     id="g1564"
     style="fill:#bebebe;fill-opacity:1">
    <path
       d="m 4,2 v 2 h 6 c 0.428,0 1,0.614 1,1 V 6 H 6 C 5.08,6 4.264,6.38 3.75,6.965 A 3.037,3.037 0 0 0 3.013,9.01 C 3.019,9.73 3.259,10.459 3.771,11.037 4.284,11.616 5.091,12 6,12 h 7 V 5 A 3,3 0 0 0 10,2 Z m 2,6 h 5 v 2 H 6 C 5.602,10 5.421,9.884 5.27,9.713 A 1.138,1.138 0 0 1 5.013,8.99 C 5.011,8.71 5.106,8.45 5.252,8.285 5.397,8.12 5.577,8 6,8 Z"
       overflow="visible"
       style="font-weight:400;font-family:sans-serif;font-variant-ligatures:normal;font-variant-position:normal;font-variant-caps:normal;font-variant-numeric:normal;font-variant-alternates:normal;font-feature-settings:normal;text-indent:0;text-decoration:none;text-decoration-line:none;text-decoration-style:solid;text-decoration-color:#000000;text-transform:none;text-orientation:mixed;white-space:normal;shape-padding:0;overflow:visible;isolation:auto;mix-blend-mode:normal;fill:#bebebe;fill-opacity:1"
       id="path872" />
    <path
       id="path851"
       style="font-variant-ligatures:normal;font-variant-position:normal;font-variant-caps:normal;font-variant-numeric:normal;font-variant-alternates:normal;font-feature-settings:normal;text-indent:0;text-decoration:none;text-decoration-line:none;text-decoration-style:solid;text-decoration-color:#000000;text-transform:none;text-orientation:mixed;shape-padding:0;overflow:visible;isolation:auto;mix-blend-mode:normal;fill:#bebebe;fill-opacity:1;stroke-width:0.72003782"
       overflow="visible"
       d="m -20.597827,11.701615 -1.880642,1.526978 c -0.377087,0.306304 0.188544,0.765761 0.565631,0.459457 l 1.315011,-1.06882 1.597827,1.297899 1.597827,-1.297899 1.597826,1.297899 1.597826,-1.297899 1.597828,1.297899 1.880642,-1.526978 c 0.377086,-0.306304 -0.188545,-0.765761 -0.565632,-0.459457 l -1.315011,1.06882 -1.597827,-1.297899 -1.597826,1.297899 -1.597827,-1.297899 L -19,12.999514 Z" />
  </g>
  <path
     style="fill:#bebebe;fill-opacity:1"
     d="m 3.5106462,12.585937 -2.355469,2.353516 c -0.47135396,0.472656 0.23763,1.179688 0.708985,0.707032 L 3.5106462,14 l 2,2 2.0000002,-2 2,2 1.9999996,-2 2,2 2.353516,-2.353515 c 0.471354,-0.472656 -0.23763,-1.179689 -0.708984,-0.707032 l -1.644532,1.646485 -2,-2.000001 -1.9999996,2.000001 -2,-2.000001 -2.0000002,2.000001 z"
     id="path5-3" />
</svg>
