<?xml version="1.0" encoding="UTF-8" standalone="no"?>
<svg
   xmlns:dc="http://purl.org/dc/elements/1.1/"
   xmlns:cc="http://creativecommons.org/ns#"
   xmlns:rdf="http://www.w3.org/1999/02/22-rdf-syntax-ns#"
   xmlns:svg="http://www.w3.org/2000/svg"
   xmlns="http://www.w3.org/2000/svg"
   id="svg4060"
   height="16"
   width="16"
   version="1.1">
  <defs
     id="defs4062">
    <filter
       style="color-interpolation-filters:sRGB"
       id="filter832"
       x="-1.2000476e-06"
       width="1.0000024"
       y="-1.1999524e-06"
       height="1.0000024">
      <feGaussianBlur
         stdDeviation="7.5036824e-06"
         id="feGaussianBlur834" />
    </filter>
  </defs>
  <metadata
     id="metadata4065">
    <rdf:RDF>
      <cc:Work
         rdf:about="">
        <dc:format>image/svg+xml</dc:format>
        <dc:type
           rdf:resource="http://purl.org/dc/dcmitype/StillImage" />
        <dc:title />
      </cc:Work>
    </rdf:RDF>
  </metadata>
  <g
     id="g838">
    <path
       id="path1307-0"
       style="display:inline;overflow:visible;visibility:visible;fill:#bebebe;fill-opacity:1;fill-rule:nonzero;stroke:none;stroke-width:0.992271;stroke-linecap:butt;stroke-linejoin:round;stroke-miterlimit:4;stroke-dasharray:none;stroke-dashoffset:0;stroke-opacity:0.498039;marker:none;filter:url(#filter832)"
       d="M 8 0.49609375 C 7.4935605 0.49609375 5.8608899 4.7791529 5.4511719 5.0917969 C 5.0414532 5.4044401 0.65845162 5.7128826 0.50195312 6.21875 C 0.34545462 6.7246181 3.7185015 9.6777269 3.875 10.183594 C 4.0314984 10.689462 2.5902818 15.163919 3 15.476562 C 3.4097187 15.789207 7.4935605 13.332031 8 13.332031 C 8.1315436 13.332031 8.5128259 13.502198 9 13.742188 L 9 12 A 1.0001 1.0001 0 0 1 10 11 L 11 11 L 11 10 A 1.0001 1.0001 0 0 1 12 9 L 13.150391 9 C 14.184148 7.9387498 15.601914 6.5544916 15.498047 6.21875 C 15.341549 5.7128818 10.958545 5.4044401 10.548828 5.0917969 C 10.139108 4.7791529 8.5064396 0.49609375 8 0.49609375 z M 12.626953 12.777344 A 1.0001 1.0001 0 0 1 12 13 A 1.0001 1.0001 0 0 1 12.748047 13.337891 C 12.702646 13.139726 12.675184 12.979415 12.626953 12.777344 z " />
    <path
       style="color:#000000;font-style:normal;font-variant:normal;font-weight:normal;font-stretch:normal;font-size:medium;line-height:normal;font-family:sans-serif;font-variant-ligatures:normal;font-variant-position:normal;font-variant-caps:normal;font-variant-numeric:normal;font-variant-alternates:normal;font-variant-east-asian:normal;font-feature-settings:normal;font-variation-settings:normal;text-indent:0;text-align:start;text-decoration:none;text-decoration-line:none;text-decoration-style:solid;text-decoration-color:#000000;letter-spacing:normal;word-spacing:normal;text-transform:none;writing-mode:lr-tb;direction:ltr;text-orientation:mixed;dominant-baseline:auto;baseline-shift:baseline;text-anchor:start;white-space:normal;shape-padding:0;shape-margin:0;inline-size:0;clip-rule:nonzero;display:inline;overflow:visible;visibility:visible;isolation:auto;mix-blend-mode:normal;color-interpolation:sRGB;color-interpolation-filters:linearRGB;solid-color:#000000;solid-opacity:1;vector-effect:none;fill:#bebebe;fill-opacity:1;fill-rule:nonzero;stroke:none;stroke-width:2;stroke-linecap:butt;stroke-linejoin:round;stroke-miterlimit:4;stroke-dasharray:none;stroke-dashoffset:0;stroke-opacity:1;color-rendering:auto;image-rendering:auto;shape-rendering:auto;text-rendering:auto;enable-background:accumulate;stop-color:#000000"
       d="m 12,10 v 2 h -2 v 2 h 2 v 2 h 2 v -2 h 2 v -2 h -2 v -2 z"
       id="path892" />
  </g>
</svg>
