<svg width="16" height="16" version="1.1" xmlns="http://www.w3.org/2000/svg">
 <path d="m12.187 1a0.5 0.5 0 0 0-0.125 0.906c3.336 2.621 3.938 7.47 1.344 10.844a7.118 7.118 0 0 1-1.344 1.344 0.50304 0.50304 0 1 0 0.594 0.812 8.545 8.545 0 0 0 1.531-1.562c2.923-3.802 2.231-9.294-1.53-12.25a0.5 0.5 0 0 0-0.407-0.094 0.5 0.5 0 0 0-0.063 0zm-4.717 1-3 3h-2.47v6h2.469l3.062 3.031 0.469-0.031v-12h-0.531zm3.25 1.125a0.5 0.5 0 0 0-0.157 0.906c2.176 1.791 2.492 5.018 0.72 7.219-0.228 0.282-0.411 0.488-0.688 0.719a0.5 0.5 0 1 0 0.625 0.75c0.32-0.267 0.581-0.519 0.843-0.844 2.112-2.621 1.72-6.49-0.875-8.625a0.5 0.5 0 0 0-0.406-0.125 0.5 0.5 0 0 0-0.062 0zm-1.408 2.219a0.5 0.5 0 0 0-0.187 0.875c0.982 0.99 0.98 2.57 0 3.562-8e-3 8e-3 4e-3 0.028 0 0.031a0.5 0.5 0 1 0 0.687 0.688c8e-3 -8e-3 0.028 4e-3 0.032 0 1.359-1.378 1.363-3.626 0-5a0.5 0.5 0 0 0-0.469-0.156 0.5 0.5 0 0 0-0.063 0z" color="#d3dae3" fill="#02a8f3" opacity=".5" overflow="visible"/>
</svg>
