<svg height="16" width="16" xmlns="http://www.w3.org/2000/svg"><g fill="#d3dae3"><path d="M5 5v3.094L6.844 5zm4 0v2h2V5zm2 4.906L9.156 13H11zM5 11v2h2v-2z" opacity=".35"/><path d="M11 9.906L9.156 13H11V9.906zM5 11v2h2v-2H5z"/><path d="M6 1v1h4V1zM3.844 3C3.563 3.047 3 3.25 3 4v10c0 1 1 1 1 1h8c1 0 1-1 1-1V4s0-1-1-1H4s-.063-.016-.156 0zM4 4h8v10H4z"/><path d="M8 5v3h3l-3 5v-3H5z"/><path d="M3.844 3C3.563 3.047 3 3.25 3 4v10c0 1 1 1 1 1h8c1 0 1-1 1-1V4s0-1-1-1H4c-.052 0-.063-.016-.156 0zM4 4h8v10H4z"/></g></svg>