<svg xmlns="http://www.w3.org/2000/svg" width="16" height="16" version="1.1" id="svg7"><defs id="defs3"><style id="current-color-scheme" type="text/css"></style></defs><g id="g843" transform="translate(-4 2.998)" fill="#d3dae3" fill-opacity="1" stroke="none"><path id="path4274" d="M5 4.002v3c0 3 2 5 5 5h2c3 0 4.76-1.566 4.959-4h.541c1.5 0 1.5-1.5 1.5-1.5v-1c0-1.5-1.5-1.5-1.5-1.5H17zm1 1h10v2c0 2.216-1.784 4-4 4h-2c-2.216 0-4-1.784-4-4zm11.5 0c.5-.032.516.531.516.531v1c0 .469-.516.469-.516.469H17l.01-1.984z" color="#000"/><path id="path4276" d="M11.193-2.998C10.095-1.614 9.765-.932 10.161-.051c.36.798 1.288 1.206.821 3.053.767-.9 1.376-2.043.774-2.965-.612-.938-.948-1.507-.563-3.035z" color="#000" opacity=".35"/><path id="path4278" d="M8.193-2.998C7.095-1.614 6.765-.932 7.161-.051c.36.798 1.288 1.206.821 3.053.767-.9 1.376-2.043.774-2.965-.612-.938-.948-1.507-.563-3.035z" color="#000" opacity=".35"/><path id="path4280" d="M14.193-2.998c-1.098 1.384-1.428 2.066-1.032 2.947.36.798 1.288 1.206.821 3.053.767-.9 1.376-2.043.774-2.965-.612-.938-.948-1.507-.563-3.035z" color="#000" opacity=".35"/><path id="rect834" d="M7 6.002v1c0 1.662 1.338 3 3 3h2c1.662 0 3-1.338 3-3v-1z" opacity="1" fill-rule="evenodd" stroke-width="2" stroke-linecap="square" stroke-linejoin="miter" stroke-miterlimit="4" stroke-dasharray="none" stroke-opacity="1" paint-order="fill markers stroke"/></g></svg>