<svg width="16" height="16" version="1.1" xmlns="http://www.w3.org/2000/svg">
 <defs>
  <style id="current-color-scheme" type="text/css"/>
 </defs>
 <path d="m3 1c-1.108 0-2 0.892-2 2v10c0 1.108 0.892 2 2 2h7.0508a3.5 3.5 0 0 1-1.0137-2h-6.0371c-0.554 0-1-0.446-1-1v-9c0-0.554 0.446-1 1-1h10c0.554 0 1 0.446 1 1v6.3379a3.5 3.5 0 0 1 1 0.71289v-7.0508c0-1.108-0.892-2-2-2zm6.6562 4.9941c-0.79 0-1.5473 0.257-2.2793 0.75l0.37305 0.84961c0.312-0.21 0.61625-0.35975 0.90625-0.46875 0.298-0.116 0.57-0.15625 0.875-0.15625 0.449 0 0.79225 0.10375 1.0312 0.34375 0.24 0.232 0.4375 0.54875 0.4375 0.96875v0.30664c-0.21-0.08-0.52025-0.1435-0.78125-0.1875a4.015 4.015 0 0 0-0.78125-0.0625c-0.356 0-0.67175 0.038-0.96875 0.125-0.29 0.087-0.56425 0.215-0.78125 0.375-0.21 0.16-0.35275 0.3455-0.46875 0.5625-0.116 0.218-0.1875 0.54936-0.1875 0.81836 0 0.254 0.06225 0.50075 0.15625 0.71875 0.101 0.217 0.208 0.4025 0.375 0.5625 0.174 0.16 0.393 0.28 0.625 0.375 0.239 0.087 0.50525 0.125 0.78125 0.125a2.73 2.73 0 0 0 0.068359 0 3.5 3.5 0 0 1 0.30469-1.0078c-0.020206 0.001636-0.040382 0.006233-0.060546 0.007812-0.326 0-0.73336 0.017125-0.94336-0.17188-0.21-0.196-0.33789-0.42012-0.33789-0.70312 0-0.305 0.2945-0.569 0.5625-0.75a1.67 1.67 0 0 1 1.0039-0.31055c0.218 0 0.60703 0.04975 0.83203 0.09375 0.22904 0.043438 0.39426 0.10507 0.59375 0.18359a3.5 3.5 0 0 1 1.0078-0.30469v-0.69922c0-0.747-0.09625-1.3198-0.53125-1.7188s-1.0295-0.625-1.8125-0.625z" fill="#d3dae3"/>
 <circle cx="12.5" cy="12.5" r="2.5" fill="#d3dae3" opacity=".35" stroke-width=".71429"/>
</svg>
