<svg height="16" width="16" xmlns="http://www.w3.org/2000/svg"><g fill="#d3dae3"><path d="M10 .469V3H7v1h4V2.531L14.406 5.5 12.75 7.063c.15.28.25.596.25.937.043 0 .083-.002.125 0L16 5.5l-5.187-4.375zm-4 4l-.812.656L0 9.5l5.188 4.375.812.656V12h3v-1H5V12.469L1.594 9.5 3 8.125C2.997 8.083 3 8.042 3 8c0-1.108.892-2 2-2h1v-.5zM13 9c-.096 0-.189.018-.281.031a1.983 1.983 0 0 1-1.406.938A2.005 2.005 0 0 0 11 11.03V12h-1v4h6v-4h-1v-.969C15 9.911 14.108 9 13 9zm-3 1v.531l.063-.03c.031-.176.064-.337.125-.5H10zm3 0c.554 0 1 .442 1 1v1h-2v-1c0-.558.446-1 1-1z" opacity=".35"/><path d="M5 7a1 1 0 1 0 0 2 1 1 0 0 0 0-2zm3 0a1 1 0 1 0 0 2 1 1 0 0 0 0-2zm3 0a1 1 0 1 0 0 2 1 1 0 0 0 0-2z"/></g></svg>