<svg height="16" width="16" xmlns="http://www.w3.org/2000/svg"><g fill="#d3dae3"><path d="M9.998.466V2.528c.388.224.705.541 1 .876v-.875L14.406 5.5l-1.658 1.56c.15.28.25.596.25.938 0 .042.003.083 0 .125L16 5.5l-5.19-4.377zm0 9.532v.53l.656-.53zM3.998 6.06L0 9.5l5.185 4.373.813.656V11.998c0-.39.132-.712.343-1H4.998v1.468L1.594 9.5l2.81-2.502H4.06zm1 .938v1h1.187c.13-.341.314-.641.5-.875.044-.056.08-.074.125-.125h-.812z" color="#000" opacity=".35"/><path d="M7.813 3C9.455 2.908 10.908 4.17 11 5.813c0 1.4-.378 1.921-1.594 2.843-.19.144-.325.25-.375.313-.05.062-.03.033-.03.031.006.528-.473 1-1 1-.53 0-1.008-.472-1-1 0-.502.223-.943.468-1.25a3.82 3.82 0 0 1 .719-.688c.204-.16.46-.384.687-.656.094-.112.13-.307.125-.437v-.032A.988.988 0 0 0 7.938 5c-.564.032-.97.437-.938 1H5c-.092-1.642 1.17-2.908 2.813-3zM8 11a1 1 0 1 1 0 2 1 1 0 0 1 0-2z" color="#444"/></g></svg>