<svg height="16.003" width="16" xmlns="http://www.w3.org/2000/svg"><g color="#000" fill="#d3dae3"><path d="M8.031 2C4.997 2 2.266 3.077.001 4.75l8.03 8.75.97-1.069v-1.428h1.013c.02-1.635 1.342-3 2.986-3l.018.002L16 4.718C13.744 3.065 11.043 2 8.031 2zm0 1c2.37 0 4.475.82 6.375 2l-6.375 7-6.437-6.97C3.507 3.837 5.638 3 8.031 3z" style="marker:none" overflow="visible"/><path d="M8.031 4c-1.73 0-3.289.573-4.781 1.344L8.031 10.5l4.719-5.188C11.274 4.556 9.74 4 8.031 4zM13 9.003c-1.108 0-2 .911-2 2.032v.968h-1v4h6v-4h-1v-.968c0-1.12-.892-2.032-2-2.032zm0 1c.554 0 1 .443 1 1v1h-2v-1c0-.557.446-1 1-1z" style="marker:none" overflow="visible"/></g></svg>