<svg width="16" height="16" version="1.1" xmlns="http://www.w3.org/2000/svg">
 <defs>
  <style id="current-color-scheme" type="text/css">.ColorScheme-Text{color:#d3dae3}</style>
 </defs>
 <g color="#000000" fill="#d3dae3">
  <path d="m10 0.47v2.531h-3v1h4v-1.469l3.406 2.97-3.406 2.968v-1.469h-3v1h2v2.532l0.813-0.657 5.187-4.375-5.188-4.375z"/>
  <path d="m6 4.47-0.813 0.656-5.187 4.375 5.188 4.375 0.812 0.657v-2.533h3v-1h-4v1.47l-3.406-2.97 3.406-2.968v1.47h3v-1h-2v-1.5z"/>
 </g>
 <path class="ColorScheme-Text" d="M13 9c-1.108 0-2 .911-2 2.031V12h-1v4h6v-4h-1v-.969C15 9.911 14.108 9 13 9zm0 1c.554 0 1 .442 1 1v1h-2v-1c0-.558.446-1 1-1z" fill="currentColor"/>
</svg>
