<svg width="16" height="16" version="1.1" xmlns="http://www.w3.org/2000/svg">
 <path d="m2.499 3c-0.831 0-1.5 0.669-1.5 1.5v7c0 0.831 0.669 1.5 1.5 1.5h9.0059a2.5 2.5 0 0 1-0.45312-1h-8.5527c-0.27637 5.54e-4 -0.50055-0.22363-0.5-0.5v-6.9863l5.6914 4.3809c0.016 0.013 0.03478 0.01734 0.05078 0.02734 0.05287 0.02991 0.11027 0.05102 0.16992 0.0625 0.03 6e-3 0.05789 0.0078 0.08789 0.0078s0.05889-0.0018 0.08789-0.0078c0.03971-0.0069 0.07841-0.01874 0.11523-0.03516 0.019-9e-3 0.03669-0.01634 0.05469-0.02734 0.016-0.01 0.03578-0.01434 0.05078-0.02734l5.6914-4.3828v4.541a2.5 2.5 0 0 1 1 0.44727v-5c0-0.831-0.669-1.5-1.5-1.5h-11zm0.47656 1h10.049l-5.0234 3.8711-5.0254-3.8711z" color="#000000" fill="#d3dae3" style="isolation:auto;mix-blend-mode:normal"/>
 <path d="m13.501 10a1.5 1.5 0 0 0-1.5 1.5 1.5 1.5 0 0 0 1.5 1.5 1.5 1.5 0 0 0 1.5-1.5 1.5 1.5 0 0 0-1.5-1.5z" color="#5294e2" fill="currentColor"/>
</svg>
