<svg height="24" width="24" xmlns="http://www.w3.org/2000/svg"><g color="#d3dae3" fill="#d3dae3"><path d="M10.469 6l-3 3H5v6h2.469l3.062 3.031.469-.03V6zm3.25 1.125c-.379.09-.483.695-.157.906 2.176 1.791 2.492 5.018.72 7.219-.228.282-.411.488-.688.719-.265.136-.346.535-.155.764.19.23.597.222.78-.014.32-.267.581-.519.843-.844 2.112-2.621 1.72-6.49-.875-8.625a.507.507 0 0 0-.406-.125.651.651 0 0 0-.062 0zm-1.407 2.219c-.357.092-.476.644-.187.875.982.99.98 2.57 0 3.562-.008.008.004.028 0 .031-.257.158-.306.568-.093.78.213.214.623.165.78-.092.008-.008.028.004.032 0 1.359-1.378 1.363-3.626 0-5a.51.51 0 0 0-.47-.156.651.651 0 0 0-.062 0z" style="marker:none" overflow="visible"/><path d="M15.187 5c-.37.106-.452.704-.125.906 3.336 2.621 3.938 7.47 1.344 10.844a7.118 7.118 0 0 1-1.344 1.344c-.425.31.169 1.123.594.812a8.545 8.545 0 0 0 1.531-1.562c2.923-3.802 2.231-9.294-1.53-12.25A.507.507 0 0 0 15.25 5a.651.651 0 0 0-.063 0z" style="marker:none" overflow="visible" opacity=".35"/></g></svg>