<svg height="24" width="24" xmlns="http://www.w3.org/2000/svg"><g fill="#d3dae3"><path d="M10 5v1h4V5h-4zM7.844 7C7.563 7.047 7 7.25 7 8v10c0 1 1 1 1 1h4c-.732 0-1.37-.403-1.719-1H8V8h1.313a4.035 4.035 0 0 1 2.437-1H8s-.062-.016-.156 0zM12 19h4c1 0 1-1 1-1V8s0-1-1-1h-4.187a4.038 4.038 0 0 1 2.812 1H16v10h-2.281c-.349.597-.987 1-1.719 1z" opacity=".35"/><path d="M11.813 8c1.642-.092 3.095 1.17 3.187 2.813 0 1.4-.378 1.921-1.594 2.843-.19.144-.325.25-.375.313-.05.062-.03.033-.03.031.006.528-.473 1-1 1-.53 0-1.008-.472-1-1 0-.502.223-.943.468-1.25a3.82 3.82 0 0 1 .719-.688c.204-.16.46-.384.687-.656.094-.112.13-.307.125-.437v-.031A.988.988 0 0 0 11.938 10c-.564.032-.97.437-.938 1H9c-.092-1.642 1.17-2.908 2.813-3zM12 16a1 1 0 1 1 0 2 1 1 0 0 1 0-2z" style="marker:none" color="#d3dae3" overflow="visible" stroke-width="2"/></g></svg>