<svg xmlns="http://www.w3.org/2000/svg" height="24" width="24"><g fill="#d3dae3"><path d="M12.193 4.002c-1.098 1.384-1.428 2.066-1.032 2.947.36.798 1.288 1.206.821 3.053.767-.9 1.376-2.043.774-2.965-.612-.938-.948-1.507-.563-3.035zM9.193 4.002C8.095 5.386 7.765 6.068 8.161 6.949c.36.798 1.288 1.206.821 3.053.767-.9 1.376-2.043.774-2.965-.612-.938-.948-1.507-.563-3.035zM15.193 4.002c-1.098 1.384-1.428 2.066-1.032 2.947.36.798 1.288 1.206.821 3.053.767-.9 1.376-2.043.774-2.965-.612-.938-.948-1.507-.563-3.035z" color="#000" opacity=".35"/><path d="M6 11.002v3c0 3 2 5 5 5h2c3 0 4.76-1.566 4.959-4h.541c1.5 0 1.5-1.5 1.5-1.5v-1c0-1.5-1.5-1.5-1.5-1.5H18zm1 1h10v2c0 2.216-1.784 4-4 4h-2c-2.216 0-4-1.784-4-4zm11.5 0c.5-.033.516.53.516.53v1c0 .47-.516.47-.516.47H18l.01-1.985z" color="#000"/><path d="M12.193 4.001c-1.098 1.384-1.428 2.066-1.032 2.947.36.799 1.288 1.206.821 3.053.767-.9 1.376-2.043.774-2.964-.612-.938-.948-1.508-.563-3.036zM9.193 4.001C8.095 5.385 7.765 6.067 8.161 6.948c.36.799 1.288 1.206.821 3.053.767-.9 1.376-2.043.774-2.964-.612-.938-.948-1.508-.563-3.036zM15.193 4.001c-1.098 1.384-1.428 2.066-1.032 2.947.36.799 1.288 1.206.821 3.053.767-.9 1.376-2.043.774-2.964-.612-.938-.948-1.508-.563-3.036z" color="#000" opacity=".35"/><path d="M8 13.002v1c0 1.662 1.338 3 3 3h2c1.662 0 3-1.338 3-3v-1z" fill-rule="evenodd" stroke-width="2" stroke-linecap="square" paint-order="fill markers stroke"/></g></svg>