<svg height="24" width="24" xmlns="http://www.w3.org/2000/svg"><g fill="#d3dae3" stroke-width="4"><path d="M12 3.002c-1 0-2 .895-2 2v3s-1 0-1 1h6c0-1-1-1-1-1v-3c0-.138-.005-.276-.031-.407A1.981 1.981 0 0 0 12 3.002zm0 1c.414 0 .754.266.906.625a.94.94 0 0 1 .094.375 1 1 0 1 1-1-1zm-3 1l-3 .002c-1 0-1 1-1 1v13s0 1 1 1h12c1 0 1-1 1-1v-13c0-1-1-1-1-1l-3-.002v1h3v13H6v-13h3z" color="#000"/><path d="M7 7.002v11h10v-11h-2v.279c.475.267 1 .918 1 1.72v1H8v-1c0-.802.525-1.453 1-1.72V7H7zm4 0v1h2v-1h-2z" opacity=".35" stroke-linecap="round" stroke-linejoin="round"/><path d="M12 3.002c-1 0-2 .895-2 2v3s-1 0-1 1h6c0-1-1-1-1-1v-3c0-.138-.005-.276-.031-.407A1.981 1.981 0 0 0 12 3.002zm0 1c.414 0 .754.266.906.625a.94.94 0 0 1 .094.375 1 1 0 1 1-1-1z" color="#000"/></g></svg>