<svg height="24" width="24" xmlns="http://www.w3.org/2000/svg"><path d="M8.5 3.002c-.277 0-.5.223-.5.5v1.656c.32-.083.656-.156 1-.156h1v-1.5c0-.277-.223-.5-.5-.5h-1zm3 0c-.277 0-.5.223-.5.5v1.5h2v-1.5c0-.277-.223-.5-.5-.5h-1zm3 0c-.277 0-.5.223-.5.5v1.5h1c.344 0 .68.073 1 .156V3.502c0-.277-.223-.5-.5-.5h-1zm-5.5 3c-1.662 0-3 1.338-3 3v6c0 1.662 1.338 3 3 3h6c1.662 0 3-1.338 3-3v-6c0-1.662-1.338-3-3-3H9zm-5.5 2c-.277 0-.5.223-.5.5v1c0 .277.223.5.5.5H5v-1c0-.345.073-.681.156-1H3.5zm5.5 0h6c.554 0 1 .446 1 1v6c0 .554-.446 1-1 1H9c-.554 0-1-.446-1-1v-6c0-.554.446-1 1-1zm9.844 0c.083.319.156.655.156 1v1h1.5c.277 0 .5-.223.5-.5v-1c0-.277-.223-.5-.5-.5h-1.656zM9 9.002v6h6v-6H9zm-5.5 2c-.277 0-.5.223-.5.5v1c0 .277.223.5.5.5H5v-2H3.5zm15.5 0v2h1.5c.277 0 .5-.223.5-.5v-1c0-.277-.223-.5-.5-.5H19zm-15.5 3c-.277 0-.5.223-.5.5v1c0 .277.223.5.5.5h1.656c-.083-.32-.156-.656-.156-1v-1H3.5zm15.5 0v1c0 .344-.073.68-.156 1H20.5c.277 0 .5-.223.5-.5v-1c0-.277-.223-.5-.5-.5H19zM8 18.845v1.657c0 .277.223.5.5.5h1c.277 0 .5-.223.5-.5v-1.5H9c-.344 0-.68-.074-1-.157zm8 0c-.32.083-.656.157-1 .157h-1v1.5c0 .277.223.5.5.5h1c.277 0 .5-.223.5-.5v-1.657zm-5 .157v1.5c0 .277.223.5.5.5h1c.277 0 .5-.223.5-.5v-1.5h-2z" color="#000" fill="#d3dae3" stroke-width="2"/></svg>