<svg height="24" width="24" xmlns="http://www.w3.org/2000/svg"><path d="M8 4.002l-5 3 4 2.984-4.01 3.008L8 16.002l4-3-5-3 5-3 5 3.015-5 2.985 1.777 1.334A5 5 0 0 1 18 12.002a5.003 5.003 0 0 1 2.98.994l.03-.018L17 10.002l4-3-5-3-4 2.984-4-2.984zm10 9a4 4 0 1 0 0 8 4 4 0 0 0 0-8zm-6 1l-4 3-1-.6v.6l5 3 1.476-.885A5 5 0 0 1 13 17.002a5 5 0 0 1 .396-1.953L12 14.002zm4.353.646L18 16.295l1.646-1.647.707.707-1.646 1.647 1.646 1.646-.707.707L18 17.71l-1.647 1.646-.707-.707 1.647-1.646-1.647-1.647.707-.707z" color="#000" fill="#d3dae3"/></svg>