<svg height="24" width="24" xmlns="http://www.w3.org/2000/svg"><path d="M8 4.002l-5 3 4 2.984-4.01 3.008L8 16.002l4-3-5-3 5-3 5 3.015-5 2.985 1.777 1.334A5 5 0 0 1 18 12.002a5 5 0 0 1 2.98.994l.03-.018L17 10.002l4-3-5-3-4 2.984-4-2.984zm10 9a4 4 0 0 0-4 4 4 4 0 0 0 4 4 4 4 0 0 0 4-4 4 4 0 0 0-4-4zm0 .492a3.5 3.5 0 0 1 .543.047 3.46 3.46 0 0 0-.6-.045 3.5 3.5 0 0 1 .057-.002zm-.069.002c-.16.003-.32.019-.48.045a3.5 3.5 0 0 1 .48-.045zm-.505.049a3.483 3.483 0 0 0-.49.119 3.5 3.5 0 0 1 .49-.12zm1.271.025a3.5 3.5 0 0 1 .402.107 3.48 3.48 0 0 0-.402-.107zm-1.77.096c-.153.05-.303.113-.45.185a3.5 3.5 0 0 1 .45-.185zm2.325.066a3.5 3.5 0 0 1 .369.17 3.459 3.459 0 0 0-.37-.17zm-2.819.14a3.552 3.552 0 0 0-.979.727 3.467 3.467 0 0 0-.403.52 3.5 3.5 0 0 1 .404-.52 3.5 3.5 0 0 1 .978-.726zm3.342.116a3.5 3.5 0 0 1 .422.289 3.472 3.472 0 0 0-.422-.289zM12 14.002l-4 3-1-.6v.6l5 3 1.476-.885A5 5 0 0 1 13 17.002a5 5 0 0 1 .396-1.954L12 14.002zm8.199.275a3.5 3.5 0 0 1 .434.422 3.5 3.5 0 0 1 .002.002 3.5 3.5 0 0 1 .712 1.295 3.5 3.5 0 0 1 .106.437 3.5 3.5 0 0 1 .043.461 3.123 3.123 0 0 0-.148-.898 3.841 3.841 0 0 0-.159-.414l-3.181 3.634-.344.407-.393-.375-1.502-1.502a.53.53 0 0 1 0-.72.53.53 0 0 1 .721 0l1.127 1.126 3.016-3.453a3.527 3.527 0 0 0-.434-.422zm-5.182.894c-.108.177-.198.36-.273.551a3.5 3.5 0 0 1 .273-.55zm-.29.598a3.503 3.503 0 0 0-.165.588 3.5 3.5 0 0 1 .164-.588zm-.176.654c-.034.203-.051.41-.05.616a3.5 3.5 0 0 1-.001-.045 3.5 3.5 0 0 1 .05-.57zm6.947.508a3.5 3.5 0 0 1 .002.063 3.5 3.5 0 0 1-.022.38c.016-.146.023-.294.02-.443zm-6.992.176c.005.187.026.372.062.557a3.5 3.5 0 0 1-.062-.557zm.091.69c.042.177.098.355.168.527a3.5 3.5 0 0 1-.168-.528zm.225.654c.08.176.175.348.287.513a3.5 3.5 0 0 1-.287-.513zm6.324.064l-.01.022a3.5 3.5 0 0 1-.074.15l-.011.02c.034-.063.064-.128.095-.192zm-.193.35l-.02.033a3.5 3.5 0 0 1-.101.146c.042-.058.082-.118.12-.18zm-5.772.197c.11.15.23.287.358.414a3.5 3.5 0 0 1-.358-.414zm5.516.16l-.012.016a3.5 3.5 0 0 1-.168.181 3.51 3.51 0 0 0 .18-.197zm-5.037.371c.125.114.259.214.396.307a3.5 3.5 0 0 1-.396-.307zm4.281.31a3.5 3.5 0 0 1-.463.26 3.518 3.518 0 0 0 .463-.26zm-3.703.112c.125.074.256.137.389.194a3.5 3.5 0 0 1-.389-.194zm3.082.219l-.014.006a3.5 3.5 0 0 1-.457.146c.159-.04.317-.089.471-.152zm-2.424.076c.135.045.27.087.408.115a3.5 3.5 0 0 1-.408-.115zm1.711.127a3.5 3.5 0 0 1-.431.05h-.014c.15-.006.297-.024.445-.05zm-1.094.022c.138.019.277.028.416.03h-.017a3.5 3.5 0 0 1-.383-.028l-.016-.002z" color="#000" fill="#d3dae3"/></svg>