<svg height="24" width="24" xmlns="http://www.w3.org/2000/svg"><path d="M12 4.002a6.933 6.933 0 1 0 0 13.866v2.134c1.72-1.225 6.212-2.971 6.9-8.35.03-.233.033-.47.033-.717 0-.221-.007-.435-.033-.65A6.925 6.925 0 0 0 12 4.002zm-3.5 4.8h2.133c.296 0 .534.238.534.533v2.667c0 1.422-1.367 2.066-1.367 2.066a.556.556 0 0 1-.771-.21.556.556 0 0 1 .304-.74s.767-.405.767-1.116H8.5a.532.532 0 0 1-.533-.534V9.335c0-.295.238-.533.533-.533zm4.817 0h2.133c.295 0 .533.238.533.533v2.667c0 1.422-1.366 2.066-1.366 2.066a.556.556 0 0 1-.772-.21.556.556 0 0 1 .305-.74s1.478-1.116.767-1.116h-1.6a.532.532 0 0 1-.534-.534V9.335c0-.295.238-.533.534-.533z" style="marker:none" color="#000" overflow="visible" fill="#d3dae3" stroke-width="0"/></svg>