<svg height="24" width="24" xmlns="http://www.w3.org/2000/svg"><path d="M12 4.002A8 8 0 0 0 5.695 7.08l2.385 4.13A4 4 0 0 1 12 8.003h6.92a8 8 0 0 0-6.92-4zm-6.922 4.01A8 8 0 0 0 4 12.001a8 8 0 0 0 6.895 7.914l2.384-4.13a4 4 0 0 1-1.279.216A4 4 0 0 1 8.541 14l-.006.002-3.457-5.99zm6.922.99a3 3 0 0 0-3 3 3 3 0 0 0 3 3 3 3 0 0 0 3-3 3 3 0 0 0-3-3zm2.639 0a4 4 0 0 1 1.361 3A4 4 0 0 1 15.46 14l.005.002-3.463 6a8 8 0 0 0 7.998-8 8 8 0 0 0-.59-3H14.64z" fill="#d3dae3" stroke-width="8" stroke-linecap="round"/></svg>