<svg height="24" width="24" xmlns="http://www.w3.org/2000/svg"><path d="M6 4S4 4 4 6.062V18c0 2 2 2 2 2h12c2 0 2-2 2-2V6s0-2-2-2H6zm-.112 4.324h5.858v.873H9.344V16H8.3V9.197H5.888v-.873zm9.44 1.78c.733 0 1.313.246 1.734.743.425.497.637 1.177.637 2.037v.463h-4.098v.032c0 .627.163 1.112.489 1.455.329.342.792.513 1.388.513.302 0 .617-.048.946-.144a5.814 5.814 0 0 0 1.054-.438v.942c-.36.147-.709.258-1.045.33a4.346 4.346 0 0 1-.964.111c-.895 0-1.594-.266-2.098-.8-.504-.539-.756-1.279-.756-2.221 0-.919.247-1.653.74-2.202.494-.548 1.15-.822 1.973-.822zm-.041.8c-.456 0-.83.151-1.125.453-.295.302-.47.72-.525 1.254l3.117-.004c-.014-.555-.147-.978-.397-1.266-.247-.291-.604-.437-1.07-.437z" color="#d3dae3" fill="#d3dae3"/></svg>