<svg height="24" width="24" xmlns="http://www.w3.org/2000/svg"><path d="M6 4S4 4 4 6.062V18c0 2 2 2 2 2h12c2 0 2-2 2-2V6s0-2-2-2H6zm.351 4.324h1.045v3.146h2.842V8.324h1.045V16h-1.045v-3.655H7.396V16H6.351V8.324zm6.166 1.918h1.002l1.707 4.504 1.682-4.504h1.002l-1.518 3.906c-.157.401-.358.93-.601 1.584-.34.905-.567 1.458-.684 1.656a1.605 1.605 0 0 1-.59.602 1.656 1.656 0 0 1-.828.201h-.761v-.793h.56c.278 0 .495-.081.652-.242.158-.161.359-.576.602-1.248l-2.225-5.666z" color="#d3dae3" fill="#d3dae3"/></svg>