<svg height="24" width="24" xmlns="http://www.w3.org/2000/svg"><path d="M6 4S4 4 4 6.062V18c0 2 2 2 2 2h12c2 0 2-2 2-2V6s0-2-2-2H6zm-.162 4.324h1.105l1.871 3.389 1.867-3.39h1.116l-2.463 4.231V16H8.29v-3.446l-2.453-4.23zm9.31 1.78c.799 0 1.409.257 1.83.775.425.517.639 1.267.639 2.248 0 .983-.211 1.734-.633 2.252-.421.514-1.034.77-1.836.77-.798 0-1.408-.256-1.83-.77-.421-.518-.633-1.269-.633-2.252 0-.98.212-1.73.633-2.248.422-.518 1.032-.776 1.83-.776zm0 .8c-.48 0-.843.187-1.09.56-.246.374-.369.93-.369 1.663 0 .73.123 1.283.37 1.66.246.373.61.56 1.09.56.483 0 .848-.187 1.095-.56.247-.377.371-.93.371-1.66 0-.734-.124-1.289-.371-1.662-.247-.374-.612-.561-1.096-.561z" color="#d3dae3" fill="#d3dae3"/></svg>