<svg height="24" width="24" xmlns="http://www.w3.org/2000/svg"><path d="M6 4S4 4 4 6.062V18c0 2 2 2 2 2h12c2 0 2-2 2-2V6s0-2-2-2H6zm.09 4.324h1.388l1.326 3.908 1.336-3.908h1.395V16h-.961V9.218l-1.37 4.047H8.42L7.047 9.218V16H6.09V8.324zm9.546 1.78c.587 0 1.025.192 1.313.58.291.383.436.966.436 1.747V16h-.952V12.43c0-.517-.09-.897-.271-1.14-.182-.244-.466-.366-.854-.366-.442 0-.783.158-1.023.473-.237.312-.356.762-.356 1.348V16h-.945v-5.758h.945v.863a1.77 1.77 0 0 1 .686-.746c.288-.171.627-.256 1.021-.256z" color="#d3dae3" fill="#d3dae3"/></svg>