<svg height="24" width="24" xmlns="http://www.w3.org/2000/svg"><path d="M6 4S4 4 4 6.062V18c0 2 2 2 2 2h12c2 0 2-2 2-2V6s0-2-2-2H6zm.502 4.324h2.271c.785 0 1.39.17 1.815.51.425.339.638.819.638 1.44 0 .469-.113.838-.34 1.108-.222.271-.558.442-1.007.51.504.076.899.292 1.183.649.288.353.432.803.432 1.351 0 .696-.228 1.222-.684 1.578-.456.353-1.135.53-2.037.53H6.502V8.324zm1.043.853v2.315h1.209c.5 0 .86-.097 1.084-.29.226-.191.34-.5.34-.929 0-.387-.112-.666-.334-.838-.22-.171-.583-.258-1.09-.258h-1.21zm7.783.926c.733 0 1.313.247 1.734.744.425.497.637 1.177.637 2.037v.463h-4.098v.032c0 .627.163 1.112.489 1.455.329.342.792.513 1.388.513.302 0 .617-.048.946-.144a5.815 5.815 0 0 0 1.054-.438v.942c-.36.147-.709.258-1.045.33a4.346 4.346 0 0 1-.964.111c-.895 0-1.594-.266-2.098-.8-.504-.539-.756-1.279-.756-2.221 0-.919.247-1.653.74-2.202.494-.548 1.15-.822 1.973-.822zm-.041.801c-.456 0-.83.151-1.125.453-.295.302-.47.72-.525 1.254l3.117-.004c-.014-.555-.147-.978-.397-1.266-.247-.291-.604-.437-1.07-.437zm-7.742 1.43v2.812h1.228c.604 0 1.034-.103 1.291-.312.257-.213.385-.562.385-1.045 0-.5-.135-.867-.406-1.1-.271-.236-.694-.355-1.27-.355H7.545z" color="#d3dae3" fill="#d3dae3"/></svg>