<svg height="24" width="24" xmlns="http://www.w3.org/2000/svg"><path d="M6 4S4 4 4 6.062V18c0 2 2 2 2 2h12c2 0 2-2 2-2V6s0-2-2-2H6zm.66 4.324h2.242c.857 0 1.507.195 1.95.586.442.387.661.956.661 1.707 0 .757-.22 1.33-.662 1.717-.438.387-1.089.582-1.949.582H7.7V16H6.66V8.324zm1.039.853v2.885h1.203c.48 0 .854-.127 1.121-.38.271-.254.406-.61.406-1.065 0-.456-.134-.809-.402-1.059-.267-.253-.642-.38-1.125-.38H7.7zm7.559.926c.308 0 .604.03.888.088.285.055.564.139.838.252v.924a3.591 3.591 0 0 0-.816-.354 3.033 3.033 0 0 0-.84-.119c-.429 0-.748.07-.961.211-.21.137-.313.348-.313.633 0 .257.08.45.237.576.157.127.55.25 1.178.37l.378.072c.47.089.825.267 1.065.535.243.267.365.614.365 1.043 0 .569-.2 1.015-.605 1.338-.405.318-.968.476-1.688.476-.284 0-.582-.03-.894-.092a7.87 7.87 0 0 1-1.014-.267v-.977c.353.182.691.32 1.014.412.322.09.628.133.916.133.418 0 .74-.084.97-.252a.843.843 0 0 0 .346-.715c0-.438-.42-.742-1.26-.91l-.04-.01-.356-.072c-.545-.106-.943-.285-1.194-.535-.25-.254-.375-.598-.375-1.033 0-.552.187-.978.561-1.276.374-.301.907-.451 1.6-.451z" color="#d3dae3" fill="#d3dae3"/></svg>