<svg height="24" width="24" xmlns="http://www.w3.org/2000/svg"><path d="M6 4S4 4 4 6.062V18c0 2 2 2 2 2h12c2 0 2-2 2-2V6s0-2-2-2H6zm3.469 4.185c.311 0 .605.036.882.108.278.068.549.174.813.314v1.065a2.867 2.867 0 0 0-.817-.479 2.477 2.477 0 0 0-.878-.164c-.676 0-1.182.26-1.518.781-.336.521-.504 1.307-.504 2.36 0 1.048.168 1.834.504 2.355.336.521.842.781 1.518.781.301 0 .594-.054.882-.164.292-.11.563-.27.813-.478v1.064c-.264.14-.535.244-.813.313a3.5 3.5 0 0 1-.882.107c-.984 0-1.748-.347-2.293-1.043-.542-.696-.813-1.674-.813-2.935 0-1.255.272-2.23.816-2.93.549-.703 1.313-1.055 2.29-1.055zm7.216 1.918c.233 0 .452.03.655.088.202.058.395.148.58.272v.966a2.14 2.14 0 0 0-.617-.343 2.095 2.095 0 0 0-.688-.11c-.59 0-1.042.187-1.353.557-.312.37-.467.904-.467 1.603V16h-.951v-5.758h.95v1.125c.158-.408.4-.72.725-.936.33-.219.717-.328 1.166-.328z" color="#d3dae3" fill="#d3dae3"/></svg>