<svg height="24" width="24" xmlns="http://www.w3.org/2000/svg"><path d="M6 4S4 4 4 6.062V18c0 2 2 2 2 2h12c2 0 2-2 2-2V6s0-2-2-2H6zm2.814 4.185c.867 0 1.512.328 1.934.987.425.658.637 1.657.637 2.998 0 1.336-.212 2.334-.637 2.992-.422.658-1.067.986-1.934.986s-1.512-.326-1.933-.98c-.422-.655-.631-1.655-.631-2.998 0-1.34.21-2.34.63-2.998.426-.659 1.07-.987 1.934-.987zm0 .844c-.524 0-.903.241-1.136.725-.23.483-.344 1.288-.344 2.416 0 1.124.114 1.928.344 2.412.233.483.612.724 1.136.724.528 0 .907-.24 1.137-.72.233-.484.35-1.289.35-2.416 0-1.128-.117-1.933-.35-2.416-.23-.484-.609-.725-1.137-.725zm7.871 1.074c.233 0 .452.03.655.088.202.058.395.148.58.272v.966a2.14 2.14 0 0 0-.617-.343 2.095 2.095 0 0 0-.688-.11c-.59 0-1.042.187-1.353.557-.312.37-.467.904-.467 1.603V16h-.951v-5.758h.95v1.125c.158-.408.4-.72.725-.936.33-.219.717-.328 1.166-.328z" color="#d3dae3" fill="#d3dae3"/></svg>