<svg height="24" width="24" xmlns="http://www.w3.org/2000/svg"><path d="M6 4S4 4 4 6.062V18c0 2 2 2 2 2h12c2 0 2-2 2-2V6s0-2-2-2H6zm3.469 4.185c.311 0 .605.036.882.108.278.068.549.174.813.314v1.065a2.867 2.867 0 0 0-.817-.479 2.477 2.477 0 0 0-.878-.164c-.676 0-1.182.26-1.518.781-.336.521-.504 1.307-.504 2.36 0 1.048.168 1.834.504 2.355.336.521.842.781 1.518.781.301 0 .594-.054.882-.164.292-.11.563-.27.813-.478v1.064c-.264.14-.535.244-.813.313a3.5 3.5 0 0 1-.882.107c-.984 0-1.748-.347-2.293-1.043-.542-.696-.813-1.674-.813-2.935 0-1.255.272-2.23.816-2.93.549-.703 1.313-1.055 2.29-1.055zm5.789 1.918c.308 0 .604.03.888.088.285.055.564.139.838.252v.924a3.592 3.592 0 0 0-.816-.354 3.033 3.033 0 0 0-.84-.119c-.429 0-.748.07-.961.211-.21.137-.313.348-.313.633 0 .257.08.45.237.576.157.127.55.25 1.178.37l.378.072c.47.089.825.267 1.065.535.243.267.365.614.365 1.043 0 .569-.2 1.015-.605 1.338-.405.318-.968.476-1.688.476-.284 0-.582-.03-.894-.092a7.87 7.87 0 0 1-1.014-.267v-.977c.353.182.691.32 1.014.412.322.09.628.133.916.133.418 0 .74-.084.97-.252a.843.843 0 0 0 .346-.715c0-.438-.42-.742-1.26-.91l-.04-.01-.356-.072c-.545-.106-.943-.285-1.194-.535-.25-.254-.375-.598-.375-1.033 0-.552.187-.978.561-1.276.374-.301.907-.451 1.6-.451z" color="#d3dae3" fill="#d3dae3"/></svg>