<svg height="24" width="24" xmlns="http://www.w3.org/2000/svg"><path d="M6 4S4 4 4 6.062V18c0 2 2 2 2 2h12c2 0 2-2 2-2V6s0-2-2-2H6zm.404 4.324h1.043v5.203c0 .374.01.642.031.803.02.157.056.28.108.365.11.202.267.354.472.457.21.103.461.154.756.154.298 0 .55-.051.756-.154a1.1 1.1 0 0 0 .479-.457.965.965 0 0 0 .107-.365 6.97 6.97 0 0 0 .031-.793V8.324h1.04v4.73c0 .785-.052 1.344-.151 1.676-.096.33-.262.6-.502.817a2.242 2.242 0 0 1-.777.453c-.292.1-.62.148-.983.148A3.01 3.01 0 0 1 7.838 16a2.29 2.29 0 0 1-.782-.453 1.742 1.742 0 0 1-.504-.823c-.099-.339-.148-.895-.148-1.67v-4.73zm10.281 1.78c.233 0 .452.029.655.087.202.058.395.148.58.272v.966a2.14 2.14 0 0 0-.617-.343 2.095 2.095 0 0 0-.688-.11c-.59 0-1.042.187-1.353.557-.312.37-.467.904-.467 1.603V16h-.951v-5.758h.95v1.125c.158-.408.4-.72.725-.936.33-.219.717-.328 1.166-.328z" color="#d3dae3" fill="#d3dae3"/></svg>