<svg height="24" width="24" xmlns="http://www.w3.org/2000/svg"><path d="M6 4S4 4 4 6.062V18c0 2 2 2 2 2h12c2 0 2-2 2-2V6s0-2-2-2H6zm6.804 3.943h2.463v5.969c0 .425.077.747.23.963.159.216.391.322.696.322H17.3V16h-1.2c-.565 0-1.004-.182-1.316-.545-.308-.364-.46-.878-.46-1.543V8.683h-1.519v-.74zm-6.144.38h2.242c.857 0 1.507.196 1.95.587.442.387.661.956.661 1.707 0 .757-.22 1.33-.662 1.717-.438.387-1.089.582-1.949.582H7.7V16H6.66V8.324zm1.039.854v2.885h1.203c.48 0 .854-.127 1.121-.38.271-.254.406-.61.406-1.065 0-.456-.134-.809-.402-1.059-.267-.253-.642-.38-1.125-.38H7.7z" color="#d3dae3" fill="#d3dae3"/></svg>