<svg height="24" width="24" xmlns="http://www.w3.org/2000/svg"><path d="M6 4S4 4 4 6.062V18c0 2 2 2 2 2h12c2 0 2-2 2-2V6s0-2-2-2H6zm.383 4.324H8.52c.843 0 1.49.19 1.94.57.449.38.672.93.672 1.65 0 .508-.139.923-.416 1.245-.275.319-.662.514-1.163.586.268.068.496.198.684.39.189.189.424.568.705 1.137L11.986 16h-1.115l-.914-1.938c-.264-.552-.502-.907-.715-1.064-.21-.161-.483-.242-.822-.242h-.994V16H6.383V8.324zm1.043.853v2.725h1.136c.497 0 .868-.111 1.112-.334.243-.223.365-.564.365-1.023 0-.443-.13-.779-.39-1.012-.258-.237-.634-.356-1.128-.356H7.426zm7.722.926c.799 0 1.409.258 1.83.776.425.517.639 1.267.639 2.248 0 .983-.211 1.734-.633 2.252-.421.514-1.034.77-1.836.77-.798 0-1.408-.256-1.83-.77-.421-.518-.633-1.269-.633-2.252 0-.98.212-1.73.633-2.248.422-.518 1.032-.776 1.83-.776zm0 .801c-.48 0-.843.187-1.09.56-.246.374-.369.93-.369 1.663 0 .73.123 1.283.37 1.66.246.373.61.56 1.09.56.483 0 .848-.187 1.095-.56.247-.377.371-.93.371-1.66 0-.734-.124-1.289-.371-1.662-.247-.374-.612-.561-1.096-.561z" color="#d3dae3" fill="#d3dae3"/></svg>