<svg height="24" width="24" xmlns="http://www.w3.org/2000/svg"><path d="M6 4S4 4 4 6.062V18c0 2 2 2 2 2h12c2 0 2-2 2-2V6s0-2-2-2H6zm.681 4.324h4.262v.873h-1.61v5.93h1.61V16H6.681v-.873h1.61v-5.93H6.68v-.873zm8.956 1.78c.586 0 1.024.192 1.312.58.291.383.436.966.436 1.747V16h-.952V12.43c0-.517-.09-.897-.271-1.14-.182-.244-.466-.366-.854-.366-.442 0-.783.158-1.023.473-.237.312-.356.762-.356 1.348V16h-.945v-5.758h.945v.863a1.77 1.77 0 0 1 .686-.746c.288-.171.627-.256 1.022-.256z" color="#d3dae3" fill="#d3dae3"/></svg>