<svg height="24" width="24" xmlns="http://www.w3.org/2000/svg"><path d="M6 4S4 4 4 6.062V18c0 2 2 2 2 2h12c2 0 2-2 2-2V6s0-2-2-2H6zm.351 4.324h1.045v3.414l3.244-3.414h1.22L8.87 11.46 11.946 16h-1.254l-2.504-3.846-.79.844V16H6.35V8.324zm8.053 1.78c.26 0 .475.059.647.179.174.12.31.301.406.545.116-.247.265-.429.443-.545.182-.12.399-.18.653-.18.462 0 .788.18.976.54.192.356.29 1.03.29 2.02V16h-.866v-3.295c0-.813-.046-1.317-.139-1.512-.089-.199-.252-.299-.492-.299-.274 0-.464.106-.566.319-.1.209-.149.707-.149 1.492V16h-.865v-3.295c0-.823-.049-1.33-.148-1.522-.096-.192-.27-.289-.524-.289-.25 0-.426.106-.525.319-.096.209-.145.707-.145 1.492V16h-.857v-5.758h.857v.494c.113-.206.254-.362.422-.469.171-.11.366-.164.582-.164z" color="#d3dae3" fill="#d3dae3"/></svg>