<svg height="24" width="24" xmlns="http://www.w3.org/2000/svg"><path d="M6 4S4 4 4 6.062V18c0 2 2 2 2 2h12c2 0 2-2 2-2V6s0-2-2-2H6zm.502 4.324h2.271c.785 0 1.39.17 1.815.51.425.339.638.819.638 1.44 0 .469-.113.838-.34 1.108-.222.271-.558.442-1.007.51.504.076.899.292 1.183.649.288.353.432.803.432 1.351 0 .696-.228 1.222-.684 1.578-.456.353-1.135.53-2.037.53H6.502V8.324zm1.043.853v2.315h1.209c.5 0 .86-.097 1.084-.29.226-.191.34-.5.34-.929 0-.387-.112-.666-.334-.838-.22-.171-.583-.258-1.09-.258h-1.21zm9.14.926c.233 0 .452.03.655.088.202.058.395.148.58.272v.966a2.14 2.14 0 0 0-.617-.343 2.095 2.095 0 0 0-.688-.11c-.59 0-1.042.187-1.353.557-.312.37-.467.904-.467 1.603V16h-.951v-5.758h.95v1.125c.158-.408.4-.72.725-.936.33-.219.717-.328 1.166-.328zm-9.14 2.23v2.813h1.228c.603 0 1.034-.103 1.291-.312.257-.213.385-.562.385-1.045 0-.5-.135-.867-.406-1.1-.271-.236-.694-.355-1.27-.355H7.545z" color="#d3dae3" fill="#d3dae3"/></svg>