<svg height="24" width="24" xmlns="http://www.w3.org/2000/svg"><path d="M6 4S4 4 4 6.062V18c0 2 2 2 2 2h12c2 0 2-2 2-2V6s0-2-2-2H6zm.351 4.324H7.91c1.172 0 2.036.312 2.592.935.555.624.832 1.594.832 2.91 0 1.31-.277 2.277-.832 2.901-.556.62-1.42.93-2.592.93H6.351V8.324zm1.045.853v5.97h.492c.875 0 1.486-.215 1.833-.643.346-.432.517-1.21.517-2.334 0-1.135-.171-1.916-.517-2.344-.343-.432-.955-.649-1.833-.649h-.492zm5.752 1.055h4.18v.863l-3.305 4.133h3.305V16h-4.303v-.873l3.307-4.139h-3.184v-.756z" color="#d3dae3" fill="#d3dae3"/></svg>