<svg height="24" width="24" xmlns="http://www.w3.org/2000/svg"><path d="M6 4S4 4 4 6.062V18c0 2 2 2 2 2h12c2 0 2-2 2-2V6s0-2-2-2H6zm.09 4.324h1.388l1.326 3.908 1.336-3.908h1.395V16h-.961V9.218l-1.37 4.047H8.42L7.047 9.218V16H6.09V8.324zm10.595 1.78c.233 0 .452.029.655.087.202.058.395.148.58.272v.966a2.14 2.14 0 0 0-.618-.343 2.095 2.095 0 0 0-.687-.11c-.59 0-1.042.187-1.354.557-.311.37-.466.904-.466 1.603V16h-.951v-5.758h.95v1.125c.158-.408.4-.72.725-.936.33-.219.717-.328 1.166-.328z" color="#d3dae3" fill="#d3dae3"/></svg>