<svg height="24" width="24" xmlns="http://www.w3.org/2000/svg"><path d="M6 4S4 4 4 6.062V18c0 2 2 2 2 2h12c2 0 2-2 2-2V6s0-2-2-2H6zm.502 4.324h2.271c.785 0 1.39.17 1.815.51.425.339.638.819.638 1.44 0 .469-.113.838-.34 1.108-.222.271-.558.442-1.007.51.504.076.899.292 1.183.649.288.353.432.803.432 1.351 0 .696-.228 1.222-.684 1.578-.456.353-1.135.53-2.037.53H6.502V8.324zm1.043.853v2.315h1.209c.5 0 .86-.097 1.084-.29.226-.191.34-.5.34-.929 0-.387-.112-.666-.334-.838-.22-.171-.583-.258-1.09-.258h-1.21zm7.713.926c.308 0 .604.03.888.088.285.055.564.139.838.252v.924a3.591 3.591 0 0 0-.816-.354 3.033 3.033 0 0 0-.84-.119c-.429 0-.749.07-.961.211-.21.137-.313.348-.313.633 0 .257.08.45.237.576.157.127.55.25 1.178.37l.378.072c.47.089.825.267 1.065.535.243.267.365.614.365 1.043 0 .569-.2 1.015-.605 1.338-.405.318-.968.476-1.688.476-.284 0-.582-.03-.894-.092a7.87 7.87 0 0 1-1.014-.267v-.977c.353.182.691.32 1.014.412.322.09.628.133.916.133.418 0 .74-.084.97-.252a.843.843 0 0 0 .346-.715c0-.438-.42-.742-1.26-.91l-.04-.01-.356-.072c-.545-.106-.943-.285-1.194-.535-.25-.254-.375-.598-.375-1.033 0-.552.187-.978.561-1.276.374-.301.907-.451 1.6-.451zm-7.713 2.23v2.813h1.228c.603 0 1.034-.103 1.291-.312.257-.213.385-.562.385-1.045 0-.5-.135-.867-.406-1.1-.271-.236-.694-.355-1.27-.355H7.545z" color="#d3dae3" fill="#d3dae3"/></svg>