<svg height="24" width="24" xmlns="http://www.w3.org/2000/svg"><path d="M6 4S4 4 4 6.062V18c0 2 2 2 2 2h12c2 0 2-2 2-2V6s0-2-2-2H6zm.351 4.324h1.045v3.414l3.244-3.414h1.22L8.87 11.46 11.946 16h-1.254l-2.504-3.846-.79.844V16H6.35V8.324zm6.633 1.928h.945v3.568c0 .518.092.897.274 1.14.185.244.47.366.853.366.446 0 .787-.155 1.024-.467.236-.315.353-.767.353-1.353v-3.254h.952V16h-.952v-.864a1.779 1.779 0 0 1-.687.756 1.945 1.945 0 0 1-1.014.256c-.59 0-1.028-.19-1.316-.574-.288-.387-.432-.973-.432-1.754v-3.568z" color="#d3dae3" fill="#d3dae3"/></svg>