<svg height="24" width="24" xmlns="http://www.w3.org/2000/svg"><path d="M6 4S4 4 4 6.062V18c0 2 2 2 2 2h12c2 0 2-2 2-2V6s0-2-2-2H6zm6.984 4h.945v3.105a1.77 1.77 0 0 1 .686-.746c.288-.171.627-.256 1.022-.256.586 0 1.024.193 1.312.58.291.384.436.967.436 1.748V16h-.952V12.43c0-.517-.09-.897-.271-1.14-.182-.244-.466-.366-.854-.366-.442 0-.783.158-1.023.473-.237.312-.356.762-.356 1.348V16h-.945V8zm-6.324.324h2.242c.857 0 1.507.195 1.95.586.442.387.661.956.661 1.707 0 .757-.22 1.33-.662 1.717-.438.387-1.089.582-1.949.582H7.7V16H6.66V8.324zm1.039.853v2.885h1.203c.48 0 .854-.127 1.121-.38.271-.254.406-.61.406-1.065 0-.456-.134-.809-.402-1.059-.267-.253-.642-.38-1.125-.38H7.7z" color="#d3dae3" fill="#d3dae3"/></svg>