<svg height="24" width="24" xmlns="http://www.w3.org/2000/svg"><path d="M6 4S4 4 4 6.062V18c0 2 2 2 2 2h12c2 0 2-2 2-2V6s0-2-2-2H6zm3.469 4.185c.311 0 .605.036.882.108.278.068.549.174.813.314v1.065a2.867 2.867 0 0 0-.817-.479 2.477 2.477 0 0 0-.878-.164c-.676 0-1.182.26-1.518.781-.336.521-.504 1.307-.504 2.36 0 1.048.168 1.834.504 2.355.336.521.842.781 1.518.781.301 0 .594-.054.882-.164.292-.11.563-.27.813-.478v1.064c-.264.14-.535.244-.813.313a3.5 3.5 0 0 1-.882.107c-.984 0-1.748-.347-2.293-1.043-.542-.696-.813-1.674-.813-2.935 0-1.255.272-2.23.816-2.93.549-.703 1.313-1.055 2.29-1.055zm4.935 1.918c.26 0 .475.06.647.18.174.12.31.301.406.545.116-.247.265-.429.443-.545.182-.12.399-.18.653-.18.462 0 .788.18.976.54.192.356.29 1.03.29 2.02V16h-.866v-3.295c0-.813-.046-1.317-.139-1.512-.089-.199-.252-.299-.492-.299-.274 0-.464.106-.566.319-.1.209-.149.707-.149 1.492V16h-.865v-3.295c0-.823-.049-1.33-.148-1.522-.096-.192-.27-.289-.524-.289-.25 0-.426.106-.525.319-.096.209-.145.707-.145 1.492V16h-.857v-5.758h.857v.494c.113-.206.254-.362.422-.469.171-.11.366-.164.582-.164z" color="#d3dae3" fill="#d3dae3"/></svg>