<svg height="24" width="24" xmlns="http://www.w3.org/2000/svg"><path d="M6 4S4 4 4 6.062V18c0 2 2 2 2 2h12c2 0 2-2 2-2V6s0-2-2-2H6zm.502 4.324h2.271c.785 0 1.39.17 1.815.51.425.339.638.819.638 1.44 0 .469-.113.838-.34 1.108-.222.271-.558.442-1.007.51.504.076.899.292 1.183.649.288.353.432.803.432 1.351 0 .696-.228 1.222-.684 1.578-.456.353-1.135.53-2.037.53H6.502V8.324zm1.043.853v2.315h1.209c.5 0 .86-.097 1.084-.29.226-.191.34-.5.34-.929 0-.387-.112-.666-.334-.838-.22-.171-.583-.258-1.09-.258h-1.21zm8.092.926c.586 0 1.024.193 1.312.58.291.384.436.967.436 1.748V16h-.952V12.43c0-.517-.09-.897-.271-1.14-.182-.244-.466-.366-.854-.366-.442 0-.783.158-1.023.473-.237.312-.356.762-.356 1.348V16h-.945v-5.758h.945v.863a1.77 1.77 0 0 1 .686-.746c.288-.171.627-.256 1.022-.256zm-8.092 2.23v2.813h1.228c.603 0 1.034-.103 1.291-.312.257-.213.385-.562.385-1.045 0-.5-.135-.867-.406-1.1-.271-.236-.694-.355-1.27-.355H7.545z" color="#d3dae3" fill="#d3dae3"/></svg>