<svg height="24" width="24" xmlns="http://www.w3.org/2000/svg"><path d="M6 4S4 4 4 6.062V18c0 2 2 2 2 2h12c2 0 2-2 2-2V6s0-2-2-2H6zm1.566 4.324h2.996v5.172c0 .966-.181 1.65-.545 2.05-.36.402-.962.602-1.808.602a4.34 4.34 0 0 1-.983-.111 5.608 5.608 0 0 1-1.017-.35v-1.215c.312.278.634.487.967.627.332.137.676.207 1.033.207.49 0 .83-.127 1.021-.38.196-.258.295-.734.295-1.43v-4.3H7.566v-.872zm7.46 1.78c.476 0 .882.07 1.218.21.34.14.613.35.822.631a1.6 1.6 0 0 1 .278.639c.054.25.082.627.082 1.13V16h-.952v-.854a1.967 1.967 0 0 1-.765.762c-.305.161-.677.24-1.115.24-.587 0-1.055-.163-1.405-.492-.35-.333-.523-.777-.523-1.332 0-.641.214-1.129.642-1.461.432-.333 1.064-.498 1.897-.498h1.27v-.149c-.004-.459-.12-.792-.35-.998-.23-.209-.596-.314-1.1-.314-.322 0-.647.048-.976.14a4.244 4.244 0 0 0-.961.405v-.945c.35-.134.683-.234 1.002-.3.322-.068.634-.1.935-.1zm.251 3.001c-.552 0-.969.098-1.25.293-.277.192-.416.48-.416.863 0 .347.106.617.315.809.209.192.499.287.869.287.52 0 .93-.18 1.228-.539.298-.363.448-.864.451-1.502v-.21h-1.197z" color="#d3dae3" fill="#d3dae3"/></svg>