<svg height="24" width="24" xmlns="http://www.w3.org/2000/svg"><path d="M6 4S4 4 4 6.062V18c0 2 2 2 2 2h12c2 0 2-2 2-2V6s0-2-2-2H6zm.502 4.324h2.271c.785 0 1.39.17 1.815.51.425.339.638.819.638 1.44 0 .469-.113.838-.34 1.108-.222.271-.558.442-1.007.51.504.076.899.292 1.183.649.288.353.432.803.432 1.351 0 .696-.228 1.222-.684 1.578-.456.353-1.135.53-2.037.53H6.502V8.324zm1.043.853v2.315h1.209c.5 0 .86-.097 1.084-.29.226-.191.34-.5.34-.929 0-.387-.112-.666-.334-.838-.22-.171-.583-.258-1.09-.258h-1.21zm6.86.926c.26 0 .474.06.646.18.174.12.31.301.406.545.116-.247.265-.429.443-.545.182-.12.399-.18.653-.18.462 0 .788.18.976.54.192.356.29 1.03.29 2.02V16h-.866v-3.295c0-.813-.046-1.317-.139-1.512-.089-.199-.252-.299-.492-.299-.274 0-.464.106-.566.319-.1.209-.149.707-.149 1.492V16h-.865v-3.295c0-.823-.049-1.33-.148-1.522-.096-.192-.27-.289-.524-.289-.25 0-.426.106-.525.319-.096.209-.145.707-.145 1.492V16h-.857v-5.758h.857v.494c.113-.206.254-.362.422-.469.171-.11.366-.164.582-.164zm-6.86 2.23v2.813h1.228c.603 0 1.034-.103 1.291-.312.257-.213.385-.562.385-1.045 0-.5-.135-.867-.406-1.1-.271-.236-.694-.355-1.27-.355H7.545z" color="#d3dae3" fill="#d3dae3"/></svg>