<svg height="24" width="24" xmlns="http://www.w3.org/2000/svg"><path d="M6 4S4 4 4 6.062V18c0 2 2 2 2 2h12c2 0 2-2 2-2V6s0-2-2-2H6zm2.892 4.185c.295 0 .604.035.93.104.326.065.67.163 1.03.297V9.64a4.09 4.09 0 0 0-.952-.457 3.072 3.072 0 0 0-.957-.154c-.49 0-.877.114-1.162.344-.284.226-.426.532-.426.92 0 .339.093.599.278.777.188.178.538.327 1.048.447l.545.123c.72.168 1.244.431 1.573.791.329.36.494.85.494 1.471 0 .73-.226 1.288-.678 1.672-.452.384-1.11.574-1.975.574-.36 0-.722-.038-1.086-.117a5.918 5.918 0 0 1-1.093-.344v-1.105c.394.25.765.432 1.115.549a3.38 3.38 0 0 0 1.064.175c.525 0 .932-.116 1.223-.35.291-.236.438-.566.438-.988 0-.383-.1-.676-.303-.878-.199-.203-.548-.358-1.045-.467l-.555-.13c-.713-.16-1.23-.404-1.552-.73-.323-.325-.483-.762-.483-1.31 0-.686.228-1.235.688-1.647.462-.414 1.077-.62 1.841-.62zm6.026 1.938c.343 0 .644.075.904.226.264.148.475.364.633.649v-.737h.951v7.95h-.951v-2.926a1.659 1.659 0 0 1-.627.658c-.26.15-.564.227-.91.227-.69 0-1.234-.266-1.635-.797-.398-.535-.598-1.27-.598-2.205 0-.953.2-1.699.598-2.237.398-.538.942-.808 1.635-.808zm.148.802c-.456 0-.8.187-1.033.561-.23.374-.344.927-.344 1.66 0 .734.114 1.287.344 1.66.233.374.577.56 1.033.56.456 0 .8-.186 1.033-.56.237-.377.356-.93.356-1.66 0-.73-.12-1.28-.356-1.654-.233-.377-.577-.567-1.033-.567z" color="#d3dae3" fill="#d3dae3"/></svg>