<svg height="24" width="24" xmlns="http://www.w3.org/2000/svg"><g fill="#d3dae3"><path d="M6.5 4c-.277 0-.5.223-.5.5V5l-2-.002v14.501c0 .277.223.5.5.5h6c.277 0 .5-.223.5-.5V5L10.5 5H9v-.5c0-.277-.223-.5-.5-.5z" color="#d3dae3" opacity=".35" stroke-width="0" stroke-linecap="round" stroke-linejoin="round"/><path d="M4 11.998V19.5c0 .277.223.5.5.5h6c.277 0 .5-.223.5-.5v-7.502z" color="#d3dae3" stroke-width="0" stroke-linecap="round" stroke-linejoin="round"/><path d="M14 4.998c-.554 0-1 .446-1 1v13c0 .554.446 1 1 1h5c.554 0 1-.446 1-1v-13c0-.554-.446-1-1-1h-5zm0 3h1v1h-1v-1zm2 0h1v1h-1v-1zm2 1h1v7h-1v-7zm-4 1h1v1h-1v-1zm2 0h1v1h-1v-1zm-2 2h1v1h-1v-1zm2 0h1v1h-1v-1zm-2 2h1v1h-1v-1zm2 0h1v1h-1v-1zm-2 2h1v1h-1v-1zm2 0h1v1h-1v-1z" fill-rule="evenodd"/></g></svg>