<svg width="24" height="24" version="1.1" xmlns="http://www.w3.org/2000/svg">
 <defs>
  <style id="current-color-scheme" type="text/css">.ColorScheme-Highlight{color:#5294e2}</style>
 </defs>
 <g fill="#ff2a2a">
  <path d="m14 4.469v2.531h-3v1h4v-1.469l3.564 2.969-0.564 0.563v1.25l2-1.813-5.187-4.375zm-2 6.531v1h2v-1z" color="#000000" opacity=".35"/>
  <path d="m10 8.469-0.812 0.656-5.188 4.375 5.188 4.375 0.812 0.656v-2.531h3v-1h-4v1.469l-3.406-2.969 3.406-2.969v1.469h3v-1h-2v-1.5z" color="#000000" opacity=".35"/>
  <path d="m15 10v4l0.25 2h1.5l0.25-2v-4zm0 7v2h2v-2z" color="#444444"/>
 </g>
</svg>
