<svg height="24" width="24" xmlns="http://www.w3.org/2000/svg"><g transform="translate(-196 -640.39)" color="#d3dae3" fill="#d3dae3" stroke-width="2"><path d="M205 645.39c-1.662 0-3 1.338-3 3v5c0 1.662 1.338 3 3 3s3-1.338 3-3v-5c0-1.662-1.338-3-3-3zm-5 5v2.906a.5.5 0 0 0 0 .062v.031c0 2.41 1.726 4.41 4 4.875v2.125h2v-2.125c2.274-.465 4-2.466 4-4.875a.5.5 0 0 0 0-.187v-2.813h-1v2.813a.5.5 0 0 0 0 .156v.031c0 2.213-1.785 4-4 4s-4-1.787-4-4a.5.5 0 0 0 0-.03v-2.97h-1z" style="marker:none" overflow="visible"/><circle cx="214" cy="652.39" r="2" style="marker:none" overflow="visible"/><circle cx="214" cy="647.39" r="2" style="marker:none" overflow="visible"/><circle cx="214" cy="657.39" r="2" style="marker:none" overflow="visible"/></g></svg>