<svg height="24" width="24" xmlns="http://www.w3.org/2000/svg"><g fill="#d3dae3"><path d="M12 5c-1.662 0-3 1.338-3 3v5c0 .564.17 1.082.437 1.531L15 9V8c0-1.662-1.338-3-3-3zm-5 5v2.906A.5.5 0 0 0 7 13a4.9 4.9 0 0 0 1 2.969l.687-.688c-.005-.007.005-.024 0-.031A4.031 4.031 0 0 1 8 13a.5.5 0 0 0 0-.031V10H7zm9.094 0l-.094.094v2.718a.5.5 0 0 0 0 .094V13c0 2.213-1.785 4-4 4a4.01 4.01 0 0 1-2.219-.688H9.75L9.094 17c.565.407 1.2.73 1.906.875V20h2v-2.125c2.274-.465 4-2.466 4-4.875a.5.5 0 0 0 0-.031v-.063a.5.5 0 0 0 0-.093V10h-.906zM15 11.094l-4.5 4.5A2.993 2.993 0 0 0 15 13v-1.906z" style="marker:none" color="#d3dae3" overflow="visible" stroke-width="2"/><path d="M16.469 5.484l-11 11 1.062 1.063 11-11-1.062-1.063z" style="line-height:normal;-inkscape-font-specification:Sans;text-indent:0;text-align:start;text-decoration-line:none;text-transform:none;block-progression:tb;marker:none" color="#000" font-weight="400" font-family="Sans" overflow="visible" stroke-width="1.5"/></g></svg>