<svg width="24" height="24" version="1.1" xmlns="http://www.w3.org/2000/svg">
 <defs>
  <style id="current-color-scheme" type="text/css">.ColorScheme-Text { color:#d3dae3; } .ColorScheme-Highlight { color:#4285f4; }</style>
 </defs>
 <g transform="translate(1 1)" class="ColorScheme-Text" fill="currentColor">
  <path d="m11 7.9999c0.84039 0.00125 1.6417 0.35494 2.209 0.975l0.789-0.457-0.178 1.474 4e-3 8e-3h-4e-3l-0.121 1-2.299-0.982 0.909-0.526c-0.36292-0.31617-0.82768-0.49086-1.309-0.492-0.7138 7.321e-4 -1.3731 0.38183-1.73 1h-1.097c0.42361-1.1981 1.5562-1.9994 2.827-2zm-2.701 3.018 2.299 0.982-0.897 0.518c0.36174 0.31031 0.8224 0.48124 1.299 0.482 0.7138-7.32e-4 1.3731-0.38183 1.73-1h1.096c-0.42349 1.1978-1.5555 1.999-2.826 2-0.83446-0.0011-1.6307-0.35014-2.197-0.963l-0.803 0.463 0.18-1.49-4e-3 -0.01h4e-3z"/>
  <path d="m10.998 2.9999c-0.27102 0-0.54135 0.061232-0.81445 0.15625l-0.01953 0.00781-0.01758 0.00586c-1.1343 0.44698-3.7671 1.3207-5.1914 1.8887l-0.011719 0.00391-0.011719 0.00586c-0.22994 0.098563-0.55638 0.30722-0.73828 0.63672s-0.18925 0.61851-0.18945 0.84766l-0.00391 5.3418c-0.00124 1.4947 0.47441 2.739 1.4727 3.709 0.99645 0.96819 2.3961 1.7701 4.4707 3.0352 0.31745 0.1971 0.68479 0.36133 1.0508 0.36133 0.3593 0 0.73919-0.16422 1.0566-0.36133 2.0461-1.237 3.4474-2.0343 4.4492-3.0059 1.0041-0.97382 1.4948-2.2275 1.4961-3.7363l0.0039-5.3418c1.93e-4 -0.22992-0.0038-0.52168-0.19141-0.85742-0.18756-0.33575-0.53463-0.55217-0.7832-0.64648l-0.0098-0.00195-0.0098-0.00391c-1.3647-0.48562-3.9846-1.4171-5.1465-1.875l-0.01953-0.00586-0.01953-0.00781c-0.27311-0.095033-0.55163-0.15625-0.82227-0.15625zm0 1c0.13725 0 0.28371 0.02834 0.49414 0.10156 1.2077 0.47595 3.8144 1.3997 5.1777 1.8848 0.26536 0.10068 0.33036 0.23885 0.33008 0.56836l-0.0039 5.3398c-0.0023 2.6818-1.3553 3.4048-5.4727 5.8945-0.26534 0.16475-0.39205 0.21094-0.5293 0.21094-0.12809 0-0.25809-0.04618-0.52344-0.21094-4.1723-2.5445-5.4729-3.2311-5.4707-5.8945l0.00391-5.3398c2.871e-4 -0.32951 0.064112-0.45853 0.32031-0.56836 1.3542-0.54003 3.9817-1.4088 5.1895-1.8848 0.21044-0.073221 0.35628-0.10156 0.48437-0.10156z"/>
 </g>
</svg>
