<svg height="24" width="24" xmlns="http://www.w3.org/2000/svg"><g fill="#d3dae3"><path d="M14 4.469V7h-3v1h4V6.531L18.406 9.5l-1.656 1.563c.15.28.25.596.25.937 0 .042.003.083 0 .125L20 9.5l-5.188-4.375zM14 14v.531l.656-.531zM10 8.469l-.813.656L4 13.5l5.187 4.375.813.656V16h3v-1H9V16.469L5.594 13.5 7 12.125c-.003-.042 0-.083 0-.125 0-1.108.892-2 2-2h1v-.5z" color="#000" opacity=".35"/><path d="M9 11a1 1 0 1 0 0 2 1 1 0 0 0 0-2zm3 0a1 1 0 1 0 0 2 1 1 0 0 0 0-2zm3 0a1 1 0 0 0-1 1c0 .552.529 1 1 1s1-.448 1-1a1 1 0 0 0-1-1z"/></g></svg>