<svg height="24" width="24" xmlns="http://www.w3.org/2000/svg"><g color="#000" fill="#d3dae3"><path d="M12 6.002c-3.035 0-5.766 1.078-8.031 2.75l.232.254h15.51l.258-.286c-2.257-1.653-4.958-2.718-7.97-2.718zm-2.291 9.004l2.29 2.496 2.266-2.496H9.71z" style="marker:none" overflow="visible" opacity=".35"/><path d="M6.997 10.002c-1.108 0-2 .892-2 2s.892 2 2 2 2-.892 2-2-.892-2-2-2zm5 0c-1.108 0-2 .892-2 2s.892 2 2 2 2-.892 2-2-.892-2-2-2zm5 0c-1.108 0-2 .892-2 2s.892 2 2 2 2-.892 2-2-.892-2-2-2z" style="marker:none" overflow="visible"/></g></svg>