<svg height="24" width="24" xmlns="http://www.w3.org/2000/svg"><g fill="#d3dae3"><path d="M13.998 4.466V6.528c.388.224.705.541 1 .876v-.875L18.406 9.5l-1.658 1.56c.15.28.25.596.25.938 0 .042.003.083 0 .125L20 9.5l-5.19-4.377zm0 9.532v.53l.656-.53zM7.998 10.06L4 13.5l5.185 4.373.813.656V15.998c0-.39.132-.712.343-1H8.998v1.468L5.594 13.5l2.81-2.502H8.06zm1 .938v1h1.187c.13-.341.314-.641.5-.875.044-.056.08-.074.125-.125h-.812z" color="#000" opacity=".35"/><path d="M11.813 7c1.642-.092 3.095 1.17 3.187 2.813 0 1.4-.378 1.921-1.594 2.843-.19.144-.325.25-.375.313-.05.062-.03.033-.03.031.006.528-.473 1-1 1-.53 0-1.008-.472-1-1 0-.502.223-.943.468-1.25a3.82 3.82 0 0 1 .719-.688c.204-.16.46-.384.687-.656.094-.112.13-.307.125-.437v-.031A.988.988 0 0 0 11.938 9c-.564.032-.97.437-.938 1H9c-.092-1.642 1.17-2.908 2.813-3zM12 15a1 1 0 1 1 0 2 1 1 0 0 1 0-2z" color="#444"/></g></svg>