<svg height="24" width="24" xmlns="http://www.w3.org/2000/svg"><g fill="#d3dae3"><path d="M17.5 4c-.277 0-.5.222-.5.5v7.503c.774 0 1.47.31 2 .801V4.5c0-.277-.223-.5-.5-.5h-1zm-3 3c-.277 0-.5.222-.5.5v7.503h.014A3.044 3.044 0 0 1 16 12.191V7.499c0-.277-.223-.5-.5-.5h-1zm-3 3c-.277 0-.5.222-.5.5v8c0 .276.223.5.5.5h1c.277 0 .5-.224.5-.5v-8c0-.278-.223-.5-.5-.5h-1zm-3 3c-.277 0-.5.222-.5.5v5c0 .276.223.5.5.5h1c.277 0 .5-.224.5-.5v-5c0-.278-.223-.5-.5-.5h-1zm-3 3c-.277 0-.5.222-.5.5v2c0 .276.223.5.5.5h1c.277 0 .5-.224.5-.5v-2c0-.278-.223-.5-.5-.5h-1zm9.5 1.003V19h.5c.277 0 .5-.223.5-.5v-1.496h-1zm2 0V18.5c0 .277.223.5.5.5h1c.277 0 .5-.223.5-.5v-1.496h-2z" style="marker:none" color="#d3dae3" overflow="visible"/><path d="M17 13.003c-1.108 0-2 .911-2 2.032v.968h-1v4h6v-4h-1v-.968c0-1.12-.892-2.032-2-2.032zm0 1c.554 0 1 .443 1 1v1h-2v-1c0-.557.446-1 1-1z" style="marker:none" color="#000" overflow="visible"/></g></svg>