<svg height="24" width="24" xmlns="http://www.w3.org/2000/svg"><defs><clipPath clipPathUnits="userSpaceOnUse" id="a"><path d="M-72-37c-1.73 0-3.29.573-4.781 1.344L-72-30.5l4.719-5.188C-68.757-36.444-70.292-37-72-37z" style="marker:none" color="#000" overflow="visible" fill="#d3dae3"/></clipPath></defs><g color="#000" fill="#d3dae3"><path clip-path="url(#a)" d="M-72-38v1h1v-.969c-.323-.027-.66-.031-1-.031zm1 1v1h1v-1zm1 0h1v-.594a9.508 9.508 0 0 0-1-.218zm1 0v1h1v-1zm1 0h.5c-.165-.084-.327-.145-.5-.219zm0 1v1h1v-1zm1 0h1v1h1a7.865 7.865 0 0 0-2-1.719zm2 1v1h-1v1h-1v1h-1v1h-1v1h-1v-1h-1v1h-1v-1h-1v1h-1v-1h-1v-1h-1v-1h-1v-1h-1v-1h-.563c-1.565 1.851-.437 4.376-.437 7 0 5.215 1.39 6 7 6s7-.784 7-6c0-2.374 1.296-5.441 0-7zm-13 0h1v-1h-.563c-.144.124-.3.242-.437.375zm1-1h1v-1h-.063c-.328.174-.639.349-.937.563zm1-1h1v-.5c-.346.125-.68.303-1 .469zm1 0v1h1v-1zm1 0h1v-.938a8.79 8.79 0 0 0-1 .157zm1 0v1h1v-1zm1 1v1h1v-1zm1 1v1h1v-1zm1 0h1v-1h-1zm1 0v1h1v-1zm1 1v1h1v-1zm1 0h1v-1h-1zm-1 1h-1v1h1zm-1 1h-1v1h1zm-1 0v-1h-1v1zm-1 0h-1v1h1zm-1 0v-1h-1v1zm-1 0h-1v1h1zm-1 0v-1h-1v1zm-1-1v-1h-1v1zm-1-1v-1h-1v1zm0-1h1v-1h-1zm1 0v1h1v-1zm1 0h1v-1h-1zm1 0v1h1v-1zm1 1v1h1v-1zm-1 0h-1v1h1zm3 1h1v-1h-1z" style="line-height:normal;-inkscape-font-specification:Sans;text-indent:0;text-align:start;text-decoration-line:none;text-transform:none;block-progression:tb;marker:none" transform="translate(84.003 45)" font-weight="400" font-family="Sans" overflow="visible" opacity=".35" stroke-width=".723"/><path d="M12.003 6C8.968 6 6.237 7.078 3.972 8.75l8.03 8.75 7.97-8.781C17.715 7.065 15.014 6 12.002 6zm-.063 1c2.394 0 4.525.836 6.438 2.031l-6.438 7L5.565 9c1.901-1.179 4.006-2 6.375-2z" style="marker:none" overflow="visible"/></g></svg>