<svg height="24" width="24" xmlns="http://www.w3.org/2000/svg"><g color="#000" fill="#d3dae3"><path d="M12.003 6C8.968 6 6.237 7.077 3.972 8.75l8.03 8.75.97-1.069v-1.428h1.013c.02-1.635 1.343-3 2.987-3l.017.002 2.983-3.287C17.715 7.065 15.014 6 12.002 6zm-.063 1c2.394 0 4.525.836 6.438 2.03l-6.438 7L5.565 9c1.901-1.18 4.006-2 6.375-2z" style="marker:none" overflow="visible"/><path d="M11.94 11.812c-.74 0-1.424.16-2.062.438l2.062 2.281 2.094-2.25c-.65-.287-1.338-.469-2.094-.469zM16.972 13.003c-1.108 0-2 .911-2 2.032v.968h-1v4h6v-4h-1v-.968c0-1.12-.892-2.032-2-2.032zm0 1c.554 0 1 .443 1 1v1h-2v-1c0-.557.446-1 1-1z" style="marker:none" overflow="visible"/></g></svg>