<svg height="24" width="24" xmlns="http://www.w3.org/2000/svg"><g fill="#d3dae3"><path d="M14 4.469V7h-3v1h4V6.531L18.406 9.5 15 12.469V11h-3v1h2V14.531l.812-.656L20 9.5l-5.188-4.375z" color="#000" opacity=".35"/><path d="M10 8.469l-.813.656L4 13.5l5.187 4.375.813.656V16h3v-1H9V16.469L5.594 13.5 9 10.531V12h3v-1h-2V9.5z" color="#000" opacity=".35"/><path d="M15 15v1c0 .276.1.538.281.719l.781.781-.78.781A1.015 1.015 0 0 0 15 19v1h1c.276 0 .538-.1.719-.281l.781-.782.781.782c.181.18.443.281.719.281h1v-1c0-.276-.1-.538-.281-.719l-.782-.781.782-.781c.18-.181.281-.443.281-.719v-1h-1c-.276 0-.538.1-.719.281l-.781.781-.781-.78A1.015 1.015 0 0 0 16 15h-1z"/></g></svg>