<svg height="24" width="24" xmlns="http://www.w3.org/2000/svg"><g color="#d3dae3" fill="#d3dae3"><path d="M17.5 4c-.277 0-.5.223-.5.5v14c0 .277.223.5.5.5h1c.277 0 .5-.223.5-.5v-14c0-.277-.223-.5-.5-.5h-1zm-3 3c-.277 0-.5.223-.5.5V11h1c.139 0 .276.005.406.031.041.01.085.02.125.031.168.046.322.134.47.22V7.5c0-.277-.224-.5-.5-.5h-1zm-3 3c-.277 0-.5.223-.5.5v.5h2v-.5c0-.277-.223-.5-.5-.5h-1zM8 14.719V18.5c0 .277.223.5.5.5h1c.277 0 .5-.223.5-.5V15H9c-.183 0-.363-.017-.531-.063-.032-.009-.063-.02-.094-.03-.133-.044-.256-.12-.375-.188zm8 0c-.072.041-.142.092-.219.125a2.038 2.038 0 0 1-.25.093 2.024 2.024 0 0 1-.53.063h-1v3.5c0 .277.222.5.5.5h1c.276 0 .5-.223.5-.5v-3.781zM11 15v3.5c0 .277.223.5.5.5h1c.277 0 .5-.223.5-.5V15h-2zm-5.5 1c-.277 0-.5.223-.5.5v2c0 .277.223.5.5.5h1c.277 0 .5-.223.5-.5v-2c0-.277-.223-.5-.5-.5h-1z" style="marker:none" overflow="visible" opacity=".35"/><path d="M9 12a1 1 0 1 0 0 2 1 1 0 0 0 0-2zm3 0a1 1 0 1 0 0 2 1 1 0 0 0 0-2zm3 0a1 1 0 1 0 0 2 1 1 0 0 0 0-2z" style="marker:none" overflow="visible"/></g></svg>