<svg height="24" width="24" xmlns="http://www.w3.org/2000/svg"><path d="M11 4C8.985 4 7 6.024 7 8v2h1V8c0-1.663 1.338-3 3-3h2c1.662 0 3 1.337 3 3v2h1V8c0-1.995-1.963-4-4-4h-2zm-5 7v7.5c0 .83.67 1.5 1.5 1.5h9c.831 0 1.5-.67 1.5-1.5V11H6zm1 1h10v1h-1.25v.5H17V15h-1.25v.5H17V17h-1.25v.5H17v1c0 .294-.205.5-.5.5h-9a.478.478 0 0 1-.5-.5v-1h1.25V17H7v-1.5h1.25V15H7v-1.5h1.25V13H7v-1zm4.75 1c-.97 0-1.75.78-1.75 1.75 0 .702.406 1.314 1 1.593V18h2v-1.656c.594-.279 1-.891 1-1.594 0-.969-.78-1.75-1.75-1.75h-.5z" style="marker:none" color="#d3dae3" overflow="visible" fill="#d3dae3"/></svg>