<svg height="24" width="24" xmlns="http://www.w3.org/2000/svg"><path d="M20.219 4.127a.502.502 0 0 0-.188.156l-.5.5-.156-.156-6 6 .156.156-.5.5-.031.719.719-.032.5-.5.156.157 6-6-.156-.157.5-.5c.293-.298-.025-.91-.438-.843a.651.651 0 0 0-.062 0zM6 6.002c-.554 0-1 .446-1 1v9c0 .554.446 1 1 1h12c.554 0 1-.446 1-1V8.439l-3.906 3.906-.719.688-.156-.156-.063.062-.406.031-.719.032-1.062.03L12 11.97l.031-.719.031-.406.063-.062-.156-.157.687-.718L16.562 6H6zm-1 11v1c0 .554.446 1 1 1h12c.554 0 1-.446 1-1v-1c0 .554-.446 1-1 1H6c-.554 0-1-.446-1-1z" color="#000" fill="#d3dae3"/></svg>