<svg xmlns="http://www.w3.org/2000/svg" width="24" height="24" version="1.1" id="svg9"><defs id="defs3"><style id="current-color-scheme" type="text/css"></style></defs><path d="M12 5a1 1 0 0 0-.994 1.1A4.988 4.988 0 0 0 7 11v4.5l-2 2v.5h14v-.5l-2-2v-3.674A3 3 0 0 1 16 12v3.922L17 17H7l1-1.078V11a4 4 0 0 1 4-4 4 4 0 0 1 1.525.305 3 3 0 0 1 .739-.746 4.94 4.94 0 0 0-1.27-.46A1 1 0 0 0 12 5zm0 3a3 3 0 0 0-3 3v5h6v-4.176A3 3 0 0 1 13 9a3 3 0 0 1 .11-.787A3 3 0 0 0 12 8zm-1.73 11A2 2 0 0 0 12 20a2 2 0 0 0 1.729-1h-3.46z" id="path5938" display="inline" opacity="1" fill="#d3dae3" fill-opacity="1" stroke="none" stroke-width="3" stroke-linecap="round" stroke-miterlimit="4" stroke-dasharray="none" stroke-opacity="1"/><circle cx="16" cy="9" r="2" id="circle7" color="#5294e2" fill="currentColor"/></svg>