<svg height="24" width="24" xmlns="http://www.w3.org/2000/svg"><g fill="#d3dae3"><path d="M13 4c-1 0-1 1-1 1v14s0 1 1 1h6c1 0 1-1 1-1V5s0-1-1-1zm1 2.003h4v11h-4z"/><path d="M6.5 4c-.277 0-.5.223-.5.5V5l-2-.002v14.501c0 .277.223.5.5.5h5c.277 0 .5-.223.5-.5V5L9.5 5H8v-.5c0-.277-.223-.5-.5-.5z" color="#d3dae3" opacity=".35" stroke-width="0" stroke-linecap="round" stroke-linejoin="round"/><path d="M4 8.998V19.5c0 .277.223.5.5.5h5c.277 0 .5-.223.5-.5V8.998z" color="#d3dae3" stroke-width="0" stroke-linecap="round" stroke-linejoin="round"/></g></svg>