<svg height="24" width="24" xmlns="http://www.w3.org/2000/svg"><path d="M12 4.002a5.15 5.15 0 0 0-5.143 5.155c0 1.688.795 3.162 2.041 4.102.574.434 1.048.993 1.048 1.764l.054.979h4l.057-.979c.045-.77.472-1.33 1.045-1.764a5.095 5.095 0 0 0 2.04-4.102A5.15 5.15 0 0 0 12 4.002zm0 2.06a3.093 3.093 0 0 1 3.086 3.095c0 .975-.444 1.872-1.222 2.456-1.16.878-1.6 1.859-1.761 2.674h-.206c-.16-.815-.6-1.796-1.761-2.674a3.052 3.052 0 0 1-1.222-2.456A3.094 3.094 0 0 1 12 6.062zm-2 10.94v1h4v-1zm1 2v1h2v-1z" fill="#d3dae3"/></svg>