<svg height="24" width="24" xmlns="http://www.w3.org/2000/svg"><path d="M17.347 3.999c-1.974.03-5.74.858-6.75 2.25-.712 1.206-.466 5.73-.281 5.437 1.526-2.404 5.357-5.538 7.687-6.843 1.08-.606.528-.862-.656-.844zM8.785 6.686c-.522.09-2.608 1.532-2.125 4.125.457 1.324 3.382 3.081 3.28 2.75-.832-2.734-1.124-4.511-1.03-6.843.002-.043-.05-.044-.125-.031zm6.687 1.688c-1.397.1-3.876 2.48-3.531 2.469 2.856-.1 4.646.089 6.875.781.33.102-.338-3.018-3.344-3.25zM5.347 11.155c-.28.148-.774 2.932 1.656 4.375 1.298.529 4.534-.514 4.22-.656-2.606-1.176-4.122-2.111-5.813-3.719-.016-.015-.044-.01-.063 0zm8.031.156c-.073.004-.087.028-.062.063 1.633 2.345 2.434 3.94 3.062 6.187.093.333 2.343-1.911.907-4.562-.738-.98-3.39-1.714-3.907-1.688zm.625 2.125c-.016-.004-.025.01-.03.032-.722 2.765-1.419 4.437-2.72 6.375-.192.287 2.981.5 4.063-2.313.284-1.282-1.069-4.03-1.313-4.094zm-1.03 1.313c-2.58 1.233-4.275 1.806-6.595 2.062-.343.038 1.528 2.583 4.375 1.594 1.24-.65 2.53-3.805 2.22-3.656z" fill="#d3dae3" stroke-width="25"/></svg>