<svg height="24" width="24" xmlns="http://www.w3.org/2000/svg"><path d="M12 3.002a9 9 0 0 0-9 9 9 9 0 0 0 .03.689l4.614 1.41c.359-.3.791-.51 1.283-.598.041-.005.077-.02.118-.025l1.997-3.672c-.221-1.912 1.061-3.687 2.972-4.022a3.7 3.7 0 0 1 .739-.053 3.668 3.668 0 0 1 3.49 3.038c.35 1.993-.962 3.894-2.945 4.242-.053.017-.101.02-.155.026l-2.985 2.906c.157 1.444-.812 2.782-2.257 3.035a2.786 2.786 0 0 1-3.1-1.815l-2.678-.828A9 9 0 0 0 12 21.002a9 9 0 0 0 9-9 9 9 0 0 0-9-9zm2.48 3.884a1.898 1.898 0 0 0-.246.027 2.504 2.504 0 0 0-2.023 2.905 2.502 2.502 0 0 0 2.893 2.038 2.504 2.504 0 0 0 2.024-2.906 2.494 2.494 0 0 0-2.388-2.064 2.822 2.822 0 0 0-.26 0zm.234.663a1.849 1.849 0 0 1 1.753 1.531 1.838 1.838 0 0 1-1.493 2.127 1.826 1.826 0 0 1-2.114-1.492c-.176-1.001.482-1.969 1.478-2.141.124-.02.254-.03.376-.025zM9.46 14.023a2.014 2.014 0 0 0-.429.039c-.243.042-.469.12-.673.234l1.452.414c.802.224 1.329 1.159 1.104 1.96-.225.802-1.159 1.317-1.96 1.09l-1.414-.39a2.186 2.186 0 0 0 2.257 1.051 2.202 2.202 0 0 0 1.778-2.556 2.236 2.236 0 0 0-2.115-1.842z" fill="#d3dae3" stroke-width="2" stroke-linecap="round" stroke-linejoin="round"/></svg>