<svg height="24" width="24" xmlns="http://www.w3.org/2000/svg"><g fill="#d3dae3"><path d="M11.064 2.002v2.25c-3.173.399-5.75 2.734-6.532 5.797H6.54c.823-2.21 3.004-3.935 5.386-3.919.058-.002.116-.002.174-.002a5.607 5.607 0 0 1 2.486.61c1.388.63 2.42 1.877 2.923 3.31h2.023C18.75 6.987 16.173 4.652 13 4.253v-2.25zM4.532 13.954c.782 3.063 3.359 5.398 6.532 5.797v2.25H13v-2.25c3.173-.399 5.75-2.734 6.532-5.797h-1.995c-.782 2.329-3.201 4.004-5.647 3.917-2.38.012-4.54-1.704-5.346-3.917z"/><path d="M12.034 7.579c-2.354 0-4.263 1.916-4.263 4.3 0 0-.028.404.094.86h6.548a2.538 2.538 0 0 1-.925 1.243c-.99.789-2.49.502-3.334-.383H8.128a4.263 4.263 0 0 0 3.906 2.58c2.355 0 4.264-1.925 4.264-4.3 0 0 0-.442-.085-.86h-6.55c.369-.94 1.249-1.701 2.272-1.71.05-.002.102-.003.153-.002.685.014 1.35.342 1.813.852h2.04a4.263 4.263 0 0 0-3.907-2.58z"/></g></svg>