<svg height="24" width="24" xmlns="http://www.w3.org/2000/svg"><path d="M12 4c-.554 0-1 .446-1 1v5.004c0 .554.446 1 1 1s1-.446 1-1V5c0-.554-.446-1-1-1zm2.94 2.992a1 1 0 0 0-.544 1.808 3.993 3.993 0 0 1 1.405 4.452 3.993 3.993 0 0 1-3.77 2.752 3.994 3.994 0 0 1-3.812-2.694 3.994 3.994 0 0 1 1.335-4.472 1 1 0 1 0-1.222-1.582 6.008 6.008 0 0 0-2.002 6.709 6.006 6.006 0 0 0 5.717 4.039 6.008 6.008 0 0 0 5.654-4.13A6.007 6.007 0 0 0 15.594 7.2a1 1 0 0 0-.655-.207z" color="#d3dae3" fill="#02a8f3"/></svg>