<svg width="22" height="22" version="1.1" xmlns="http://www.w3.org/2000/svg">
 <defs>
  <style id="current-color-scheme" type="text/css">.ColorScheme-Text { color:#d3dae3; } .ColorScheme-Highlight { color:#5294e2; }</style>
 </defs>
 <path class="ColorScheme-Text" d="m11.283 2.9979c-0.19512-0.010313-0.31658 0.013372-0.32812 0.015625-0.08286-0.00555-0.12796-0.015119-0.26953-0.00195a1.0001 1.0001 0 0 0-0.0078 0.00195 1.0001 1.0001 0 0 0-0.24414 0.056641c-0.1442 0.018391-0.26865 0.016509-0.49414 0.11523a1.0001 1.0001 0 0 0-0.55664 0.62891s-0.12222 0.4367-0.19531 1.2266c-0.030567 0.33136-0.091178 0.43082-0.11133 0.46094-0.02015 0.030118-0.017122 0.028678-0.15625 0.12695-0.11617 0.081716-0.088697 0.061382-0.125 0.085938-0.31311 0.07228-0.30461 0.17597-0.75195-0.19531-0.59448-0.49386-0.91992-0.70312-0.91992-0.70312a1.0001 1.0001 0 0 0-0.89648-0.082031c-0.61111 0.24001-0.82502 0.58454-0.86133 0.63867-0.05418 0.036399-0.40008 0.25256-0.64062 0.86133a1.0001 1.0001 0 0 0 0.080078 0.89648s0.2107 0.32712 0.70508 0.92188c0.37019 0.44513 0.26706 0.44027 0.19531 0.75-0.025233 0.037055-0.00345 0.00697-0.085937 0.12305a1.0001 1.0001 0 0 0-0.00195 0.00391c-0.097816 0.13893-0.097034 0.13621-0.12695 0.15625-0.029919 0.020037-0.12806 0.080784-0.45898 0.11133-0.79171 0.073226-1.2227 0.20312-1.2227 0.20312a1.0001 1.0001 0 0 0-0.60352 0.55078c-0.24827 0.57292-0.20703 1.041-0.20703 1.041a1.0001 1.0001 0 0 0 0 0.02539s-0.041581 0.46729 0.20703 1.041a1.0001 1.0001 0 0 0 0.60352 0.55273s0.43095 0.1299 1.2227 0.20312c0.33089 0.03054 0.42889 0.09118 0.45898 0.11133 0.030092 0.02015 0.028946 0.01754 0.12891 0.1582 0.082389 0.11641 0.061229 0.08674 0.085937 0.12305 0.072287 0.31254 0.17608 0.3042-0.19531 0.75a1.0001 1.0001 0 0 0 0 2e-3c-0.49437 0.59476-0.70508 0.92188-0.70508 0.92188a1.0001 1.0001 0 0 0-0.080078 0.89844c0.24041 0.60627 0.58293 0.81801 0.63867 0.85547 0.037267 0.05605 0.25054 0.40482 0.86523 0.64453a1.0001 1.0001 0 0 0 0.89453-0.08594s0.32545-0.20926 0.91992-0.70312v2e-3c0.44843-0.37219 0.43824-0.26787 0.75391-0.19531 0.037476 0.02524 0.0092 0.0045 0.125 0.08594 0.13367 0.09461 0.13441 0.09719 0.1543 0.12695 0.020166 0.03017 0.08075 0.12788 0.11133 0.45898 0.073334 0.79243 0.20508 1.2266 0.20508 1.2266a1.0001 1.0001 0 0 0 0.55078 0.59961c0.57291 0.24807 1.041 0.20703 1.041 0.20703a1.0001 1.0001 0 0 0 0.02539 0s0.46663 0.04262 1.041-0.20703a1.0001 1.0001 0 0 0 0.54883-0.59766s0.1328-0.43471 0.20508-1.2285c0.03067-0.33214 0.08349-0.41218 0.11523-0.45703 0.02705-0.03821 0.1193-0.11141 0.26562-0.21875 0.33121-0.07454 0.31003-0.17891 0.76562 0.19922v-2e-3c0.5941 0.49442 0.92188 0.70508 0.92188 0.70508a1.0001 1.0001 0 0 0 0.89258 0.08203c0.61198-0.2395 0.82596-0.58473 0.86328-0.64062 0.05588-0.0374 0.39998-0.25034 0.64062-0.85938a1.0001 1.0001 0 0 0-0.08203-0.89648s-0.20875-0.32712-0.70312-0.92188a1.0001 1.0001 0 0 0-2e-3 -2e-3c-0.37818-0.45395-0.27156-0.43149-0.19727-0.76367 0.10579-0.14375 0.1806-0.23674 0.21875-0.26367 0.04512-0.03185 0.12774-0.08606 0.46094-0.11719l-2e-3 0.0019c0.78914-0.07299 1.2246-0.19336 1.2246-0.19336a1.0001 1.0001 0 0 0 0.63086-0.5625c0.25696-0.59297 0.17575-0.99781 0.16602-1.0527 0.0098-0.05478 0.09222-0.46092-0.16602-1.0547a1.0001 1.0001 0 0 0-0.63086-0.56055s-0.43547-0.12037-1.2246-0.19336c-0.33328-0.030726-0.41436-0.08369-0.45898-0.11523-0.03763-0.026598-0.11131-0.12231-0.2168-0.26562-0.07397-0.32882-0.18173-0.30914 0.19531-0.76172a1.0001 1.0001 0 0 0 2e-3 -0.00195c0.49275-0.59406 0.70312-0.91992 0.70312-0.91992a1.0001 1.0001 0 0 0 0.08203-0.90039c-0.23994-0.60497-0.57858-0.81438-0.63672-0.85352-0.035-0.05276-0.24912-0.40332-0.86328-0.64453a1.0001 1.0001 0 0 0-0.89648 0.082031s-0.32696 0.20889-0.92188 0.70312c-0.25609 0.21255-0.33185 0.21506-0.35156 0.2168s-0.10429-0.00223-0.35937-0.11328c-0.27112-0.11803-0.34002-0.18023-0.34766-0.18945-0.0076-0.00923-0.05676-0.055133-0.08789-0.39258-0.07302-0.78905-0.19336-1.2246-0.19336-1.2246a1.0001 1.0001 0 0 0-0.55469-0.62695c-0.30953-0.13678-0.57832-0.18109-0.77344-0.19141zm-0.50586 1.0098c0.12898-0.011995 0.21875 0 0.21875 0s0.3803-0.026242 0.65625 0.095703c0 0 0.08826 0.29463 0.15625 1.0293 0.08299 0.89959 0.41136 1.1364 1.0312 1.4062 0.6199 0.26988 1.0551 0.32674 1.75-0.25 0.5679-0.47179 0.8125-0.625 0.8125-0.625 0.27995 0.10995 0.53125 0.40625 0.53125 0.40625s0.29527 0.25138 0.40625 0.53125c0 0-0.15408 0.24476-0.625 0.8125-0.5779 0.69369-0.52248 1.1465-0.4375 1.6543 0.04399 0.096956 0.11926 0.1813 0.15625 0.28125 0.29995 0.41981 0.53765 0.76079 1.4375 0.84375 0.73488 0.06797 1.0312 0.15625 1.0312 0.15625 0.11998 0.27588 0.09375 0.65625 0.09375 0.65625s0.02623 0.37938-0.09375 0.65625c0 0-0.29638 0.08828-1.0312 0.15625-0.89885 0.08396-1.1376 0.42394-1.4375 0.84375h-0.03125c-0.037 0.09896-0.08101 0.18234-0.125 0.2793-0.08498 0.50777-0.1404 0.96256 0.4375 1.6562 0.47192 0.56774 0.625 0.8125 0.625 0.8125-0.11098 0.28087-0.40625 0.53125-0.40625 0.53125s-0.2503 0.2963-0.53125 0.40625c0 0-0.2456-0.15321-0.8125-0.625-0.69488-0.57674-1.1483-0.52346-1.6563-0.4375-0.09698 0.04398-0.18127 0.08802-0.28125 0.125v0.03125c-0.41893 0.29886-0.76076 0.53695-0.84375 1.4355-0.06699 0.73567-0.15625 1-0.15625 1-0.27595 0.11994-0.65625 0.125-0.65625 0.125s-0.37734-0.0051-0.6543-0.125c0 0-0.09021-0.26533-0.1582-1-0.08299-0.89859-0.42559-1.1286-0.68555-1.3125-0.25996-0.18291-0.34247-0.23532-0.43945-0.2793-0.50791-0.08496-0.95941-0.13924-1.6543 0.4375-0.5679 0.47179-0.8125 0.625-0.8125 0.625-0.28195-0.10995-0.53125-0.4082-0.53125-0.4082s-0.29527-0.24942-0.40625-0.5293c0 0 0.15308-0.24476 0.625-0.8125 0.5779-0.69369 0.52249-1.1485 0.4375-1.6562-0.043992-0.09796-0.097281-0.17762-0.28125-0.4375-0.18397-0.25888-0.41365-0.60258-1.3125-0.68555-0.73488-0.06797-1-0.15625-1-0.15625-0.11998-0.27687-0.125-0.65625-0.125-0.65625s0.00502-0.37938 0.125-0.65625c0 0 0.26512-0.08828 1-0.15625 0.89885-0.08296 1.1295-0.42762 1.3125-0.6875 0.18397-0.25888 0.23726-0.34054 0.28125-0.4375 0.084986-0.50777 0.1394-0.96061-0.4375-1.6543-0.47192-0.56774-0.625-0.8125-0.625-0.8125 0.11098-0.28087 0.40625-0.53125 0.40625-0.53125s0.2513-0.2963 0.53125-0.40625c0 0 0.2446 0.15321 0.8125 0.625 0.69488 0.57674 1.1464 0.52246 1.6543 0.4375 0.097983-0.04398 0.1795-0.098333 0.43945-0.28125 0.25896-0.18292 0.60256-0.41291 0.68555-1.3125 0.06799-0.73467 0.1582-1.0312 0.1582-1.0312 0.13698-0.059973 0.30557-0.080756 0.43555-0.09375zm0.21875 4.998a1.9997 1.9991 0 0 0 0 3.998 1.9997 1.9991 0 1 0 0-3.998zm0 1a1.0001 1.0001 0 0 0 2e-3 0c0.41683-9.4e-5 0.602 0.12048 0.75195 0.28906s0.24609 0.43154 0.24609 0.70898-0.09602 0.54215-0.24609 0.71094c-0.14973 0.1684-0.3371 0.28843-0.75195 0.28906-0.41642-9.4e-5 -0.60392-0.12031-0.75391-0.28906-0.14998-0.16875-0.24609-0.4334-0.24609-0.71094s0.096233-0.54043 0.24609-0.70898c0.14986-0.16855 0.33553-0.28916 0.75195-0.28906z" fill="currentColor"/>
 <path class="ColorScheme-Text" d="m10.78 4.0064c-0.12998 0.012994-0.29995 0.033985-0.43693 0.093958 0 0-0.08898 0.29587-0.15697 1.0305-0.08299 0.89959-0.42793 1.1295-0.68688 1.3124-0.25996 0.18292-0.33994 0.23689-0.43793 0.28087-0.50791 0.084962-0.96084 0.13994-1.6557-0.4368-0.5679-0.47179-0.81186-0.62472-0.81186-0.62472-0.27995 0.10995-0.53191 0.40582-0.53191 0.40582s-0.29495 0.24989-0.40593 0.53076c0 0 0.15297 0.24489 0.62489 0.81263 0.5769 0.69369 0.52291 1.1475 0.43793 1.6553-0.043993 0.096956-0.097983 0.17792-0.28195 0.4368-0.18297 0.25988-0.41293 0.60473-1.3118 0.68769-0.73488 0.06797-0.99983 0.15593-0.99983 0.15593-0.11998 0.27687-0.12498 0.6557-0.12498 0.6557s5e-3 0.37983 0.12498 0.6567c0 0 0.26496 0.08796 0.99983 0.15593 0.89885 0.08296 1.1278 0.42781 1.3118 0.68669 0.18397 0.25988 0.23796 0.33985 0.28195 0.4378 0.084986 0.50777 0.13998 0.96156-0.43793 1.6553-0.47192 0.56774-0.62489 0.81263-0.62489 0.81263 0.11098 0.27987 0.40593 0.52976 0.40593 0.52976s0.24996 0.29687 0.53191 0.40682c0 0 0.24396-0.15293 0.81186-0.62472 0.69488-0.57674 1.1478-0.52176 1.6557-0.4368 0.096984 0.04398 0.17797 0.09696 0.43793 0.27987 0.25996 0.18392 0.6039 0.41381 0.68688 1.3124 0.06799 0.73467 0.15697 0.99955 0.15697 0.99955 0.27695 0.11994 0.65589 0.12494 0.65589 0.12494s0.37994-5e-3 0.65589-0.12494c0 0 0.08898-0.26388 0.15597-0.99955 0.08299-0.89859 0.42493-1.1375 0.84386-1.4364v-0.03099c0.09998-0.03698 0.18397-0.08096 0.28095-0.12494 0.50791-0.08596 0.96184-0.13994 1.6567 0.4368 0.5669 0.47179 0.81186 0.62472 0.81186 0.62472 0.28095-0.10995 0.53091-0.40582 0.53091-0.40582s0.29595-0.24989 0.40693-0.53076c0 0-0.15297-0.24489-0.62489-0.81263-0.5779-0.69369-0.52291-1.1475-0.43793-1.6553 0.04399-0.09696 0.08798-0.18192 0.12498-0.28087h0.031c0.29995-0.41981 0.53891-0.75966 1.4378-0.84362 0.73488-0.06797 1.0308-0.15593 1.0308-0.15593 0.11998-0.27687 0.09398-0.6567 0.09398-0.6567s0.026-0.37983-0.09398-0.6557c0 0-0.29595-0.08796-1.0308-0.15593-0.89985-0.08296-1.1378-0.4238-1.4378-0.84361-0.03699-0.099955-0.11198-0.18392-0.15597-0.28087-0.08498-0.50777-0.13998-0.96156 0.43793-1.6553 0.47092-0.56774 0.62489-0.81263 0.62489-0.81263-0.11098-0.27987-0.40693-0.53076-0.40693-0.53076s-0.24996-0.29587-0.52991-0.40582c0 0-0.24496 0.15293-0.81286 0.62472-0.69488 0.57674-1.1298 0.51976-1.7497 0.24989-0.61989-0.26988-0.94884-0.50677-1.0318-1.4064-0.06799-0.73467-0.15597-1.0295-0.15597-1.0295-0.27595-0.12194-0.65589-0.095957-0.65589-0.095957s-0.08999-0.011995-0.21896 0zm0.21896 4.9977a1.9997 1.9991 0 1 1 0 3.9982 1.9997 1.9991 0 0 1 0-3.9982z" fill="currentColor" opacity=".25"/>
</svg>
