<svg width="22" height="22" version="1.1" xmlns="http://www.w3.org/2000/svg">
 <defs>
  <style id="current-color-scheme" type="text/css">.ColorScheme-Text { color:#d3dae3; } .ColorScheme-Highlight { color:#5294e2; }</style>
 </defs>
 <path class="ColorScheme-Text" d="m12.154 5.039c0.04307 0.0031 0.08605 0.00635 0.12891 0.00977-0.0432-0.00314-0.08537-0.00693-0.12891-0.00977zm-3.3887 0.10742c-0.062462 0.00838-0.12415 0.016342-0.18555 0.025391 0.06142-0.00881 0.12328-0.017272 0.18555-0.025391zm4.4746 0c0.07222 0.00995 0.14385 0.020368 0.21484 0.03125-0.07156-0.010738-0.14183-0.021431-0.21484-0.03125zm1.084 0.18945c0.02751 0.00643 0.05485 0.012944 0.08203 0.019531-0.02782-0.00642-0.05387-0.01327-0.08203-0.019531zm-7.5098 0.23438c-0.025756 0.00838-0.052823 0.01686-0.078125 0.025391 0.02581-0.00854 0.051853-0.017006 0.078125-0.025391zm-0.72461 0.28516c-0.030977 0.014742-0.063947 0.027939-0.09375 0.042969 0.030678-0.014461 0.061931-0.028785 0.09375-0.042969zm9.8633 0.017578c0.02116 0.010999 0.04199 0.022068 0.0625 0.033203-0.02177-0.01108-0.04009-0.022278-0.0625-0.033203zm-4.9785 0.08458c-2.7614 3e-7 -5.0254 0.49009-5.0254 1.0424s2.2979 1.0593 5.0593 1.0593c2.7614 0 5.0275-0.50704 5.0275-1.0593s-2.3-1.0424-5.0614-1.0424zm-5.4414 0.22401c-0.029637 0.021984-0.060593 0.04401-0.087891 0.066406 0.028089-0.022311 0.057391-0.04445 0.087891-0.066406zm10.961 0.017578c0.01873 0.014251 0.03696 0.028575 0.05469 0.042969-0.01773-0.014414-0.03599-0.028726-0.05469-0.042969zm-11.342 0.36523c-0.016597 0.024786-0.03502 0.049095-0.048828 0.074219 0.014865-0.02484 0.031144-0.049584 0.048828-0.074219zm11.713 0.017578c0.0053 0.00715 0.01054 0.014313 0.01563 0.021484-0.0043-0.00711-0.0111-0.014405-0.01563-0.021484zm-11.795 0.12891c-0.017601 0.040374-0.034671 0.079975-0.044922 0.12109 0.011276-0.040507 0.026257-0.080891 0.044922-0.12109zm0.91274 1.361-0.033898 2.9874c-0.00627 0.55225 2.2655 0.98262 5.0269 0.98262 2.7614 0 5.0644-0.45972 5.0599-1.012l-0.02397-2.9564c-1.1102 0.5594-3.0167 0.87515-5.0289 0.8756-2.0133-8.837e-4 -3.8911-0.31707-5-0.87721zm-0.016949 3.9703-0.00847 2.9578c-0.00158 0.55228 2.2725 1.0593 5.0339 1.0593 2.7614 0 5.0508-0.47314 5.0508-1.0254v-3.0151c-1.1102 0.5594-3.0302 0.92993-5.0424 0.93038-2.0133-8.84e-4 -3.925-0.34677-5.0339-0.90691zm11.009 3.1257c-0.01128 0.04051-0.02626 0.08089-0.04492 0.12109 0.0176-0.04037 0.03467-0.07997 0.04492-0.12109zm-0.07813 0.19336c-0.01486 0.02484-0.03114 0.04959-0.04883 0.07422 0.0166-0.02479 0.03502-0.0491 0.04883-0.07422zm-11.777 0.03516c0.0043 0.0071 0.0111 0.01441 0.015625 0.02149-0.00533-0.0072-0.010536-0.01431-0.015625-0.02149zm11.436 0.35547c-0.02809 0.02231-0.05739 0.04445-0.08789 0.06641 0.02964-0.02198 0.06059-0.04401 0.08789-0.06641zm-11.104 0.0059c0.017727 0.01441 0.035987 0.02873 0.054687 0.04297-0.01873-0.01425-0.03696-0.02858-0.054687-0.04297zm0.53321 0.33589c0.021772 0.01108 0.040091 0.02228 0.0625 0.0332-0.021158-0.011-0.041993-0.02207-0.0625-0.0332zm10.02 0.0078c-0.03068 0.01446-0.06193 0.02879-0.09375 0.04297 0.03098-0.01474 0.06395-0.02794 0.09375-0.04297zm-0.74023 0.30274c-0.02581 0.0085-0.05185 0.01701-0.07813 0.02539 0.02576-0.0084 0.05282-0.01686 0.07813-0.02539zm-7.6699 0.24025c0.027824 0.0064 0.053869 0.01327 0.082031 0.01953-0.027507-0.0064-0.054852-0.01294-0.082031-0.01953zm0.95117 0.17774c0.071557 0.01074 0.14183 0.02143 0.21484 0.03125-0.072218-0.0099-0.14385-0.02037-0.21484-0.03125zm4.875 0.0059c-0.06142 0.0088-0.12328 0.01727-0.18555 0.02539 0.06246-0.0084 0.12415-0.01634 0.18555-0.02539zm-3.7031 0.12305c0.043195 0.0031 0.085368 0.0069 0.12891 0.0098-0.043075-0.0031-0.086046-0.0064-0.12891-0.0098z" fill="currentColor" opacity=".25"/>
 <path class="ColorScheme-Text" d="m11 5a6 2 0 0 0-6 2v8a6 2 0 0 0 6 2 6 2 0 0 0 6-2v-8a6 2 0 0 0-6-2zm0 1a5 1 0 0 1 5 1 5 1 0 0 1-5 1 5 1 0 0 1-5-1 5 1 0 0 1 5-1zm-5 2.1016a6 2 0 0 0 5 0.89844 6 2 0 0 0 5-0.89648v2.8965a5 1 0 0 1-5 1 5 1 0 0 1-5-1v-2.8984zm0 4a6 2 0 0 0 5 0.89844 6 2 0 0 0 5-0.89648v2.8965a5 1 0 0 1-5 1 5 1 0 0 1-5-1v-2.8984z" fill="currentColor"/>
</svg>
