<svg width="64" height="64" version="1.1" viewBox="0 0 64 64" xmlns="http://www.w3.org/2000/svg">
 <rect y="-.012027" width="64" height="64" rx="0" ry="0" fill="none" opacity=".75"/>
 <path d="m8.9992 1.0016h46.002v59h-45.998v-59z" color="#000000" fill="#f49a10" overflow="visible" stroke-width="3.7796"/>
 <path d="m8.5003 0.49889 46.999 0.00378v59.997h-46.996v-60.001z" color="#000000" fill="none" overflow="visible" stroke="#b97c1b" stroke-linecap="round" stroke-linejoin="round" stroke-width="1.0016"/>
 <path d="m22 23.501v1h-1v12h1v1h20v-1h1v-12h-1v-1zm1 1h18a1 1 0 0 0 1 1v10a1 1 0 0 0-1 1h-18a1 1 0 0 0-1-1v-10a1 1 0 0 0 1-1m9 2a4 4 0 0 0-4 4 4 4 0 0 0 4 4 4 4 0 0 0 4-4 4 4 0 0 0-4-4m0 1a3 3 0 0 1 3 3 3 3 0 0 1-3 3 3 3 0 0 1-3-3 3 3 0 0 1 3-3" fill="#fddda3" stroke-width="2"/>
</svg>
