<svg width="64" height="64" version="1.1" xmlns="http://www.w3.org/2000/svg">
 <g transform="translate(0 -988.36)">
  <path d="M8.991 989.371l46.01.004v57.985H8.992v-57.989z" fill="#341c05"/>
  <path transform="matrix(1.3428 0 0 1.3408 -.228 988.19)" d="M6.5.5l35 .003v44.003h-35V.5z" fill="none" stroke="#ff7c00" stroke-linejoin="round" stroke-width=".745"/>
  <rect y="988.36" width="64" height="64" rx="0" ry="0" fill="none" opacity=".75"/>
 </g>
 <path class="st1" d="m25.764 34.678-1.4483 5.5001c-0.03666 0.14669-0.09165 0.18331-0.275 0.18331h-2.695c-0.18335 0-0.22001-0.05499-0.18335-0.275l5.2068-18.223c0.09166-0.33 0.14665-0.62333 0.18335-1.5217 0-0.12832 0.05499-0.18331 0.14665-0.18331h3.8499c0.12832 0 0.18335 0.03666 0.22001 0.18331l5.83 19.782c0.03666 0.14669 0 0.23834-0.14665 0.23834h-3.0433c-0.14665 0-0.23834-0.03666-0.275-0.16502l-1.5217-5.5182zm5.0968-2.97c-0.51334-2.035-1.7233-6.4718-2.1817-8.6167h-0.03666c-0.38499 2.145-1.3567 5.7749-2.1267 8.6167zm8.2501-10.193c0-1.1733 0.82501-1.87 1.87-1.87 1.1183 0 1.87 0.75165 1.87 1.87 0 1.21-0.78835 1.87-1.9067 1.87-1.0634 0-1.8333-0.65999-1.8333-1.87zm0.22001 4.1617c0-0.14665 0.05499-0.22001 0.22001-0.22001h2.8783c0.14665 0 0.22001 0.05499 0.22001 0.22001v14.465c0 0.14665-0.03666 0.22001-0.22001 0.22001h-2.8417c-0.18335 0-0.23834-0.09166-0.23834-0.23834v-14.447z" enable-background="new" fill="#ff7c00" stroke-width=".18333"/>
</svg>
