<svg xmlns="http://www.w3.org/2000/svg" width="64" height="64" viewBox="0 0 16.933 16.933"><g transform="translate(0 -261.504) scale(.26458)"><path d="M8.991 989.371l46.01.004v57.985H8.992v-57.989z" fill="#fafafa"/><path d="M6.5.5l35 .003v44.003h-35V.5z" fill="none" stroke="#4f6698" stroke-width=".745" stroke-linejoin="round" stroke-opacity=".267" transform="matrix(1.34284 0 0 1.34075 -.228 988.192)"/><rect ry="0" rx="0" y="988.362" height="64" width="64" opacity=".75" fill="none"/></g><path d="M9.572 4.763l-1.692.004c.184.116.428.377.63.676.224.333.403.717.538 1.052l-.478.276 1.523-.003.711-1.332-.379.252-.24-.454c-.161-.256-.309-.442-.613-.47zm-2.43.118l-.738 1.086 1.3.865.697-1.308c-.193-.283-.476-.697-.924-.707h-.016a.86.86 0 0 0-.319.064zm2.596 2.62l.606 1.305.521.004c.297.003.77-.42.776-.74v-.023l-.593-1.382zm-4.447-.434l.453.246-.152.32c-.492 1.044.13 1.553.866 2.569a1.074 1.074 0 0 1-.006-.784l.653-1.389.41.212-.81-1.251zm3.496 2.741l.697 1.305.004-.538h.341c1.103 0 1.256-.814 1.787-1.964a.945.945 0 0 1-.66.353l-1.468.004-.004-.481zm-1.922-.84l-.237.487c-.14.287.02.951.3 1.077h1.446l.01-1.615z" fill="#8a92a2" fill-rule="evenodd"/></svg>