<svg width="64" height="64" version="1.1" viewBox="0 0 64 64" xmlns="http://www.w3.org/2000/svg">
 <rect y="-.012027" width="64" height="64" rx="0" ry="0" fill="none" opacity=".75"/>
 <path d="m8.9992 1.0016h46.002v59h-45.998v-59z" color="#000000" fill="#986230" overflow="visible" stroke-width="3.7796"/>
 <path d="m8.5003 0.49889 46.999 0.00378v59.997h-46.996v-60.001z" color="#000000" fill="none" overflow="visible" stroke="#63401f" stroke-linecap="round" stroke-linejoin="round" stroke-width="1.0016"/>
 <path d="m24 19.501a1 1 0 0 0-1 1h-2v21h22v-21h-2a1 1 0 0 0-1-1h-5a1 1 0 0 0-1 1h-3a1 1 0 0 0-1-1zm0 1h6.449v1h-6.449zm11 0h5v1h-5zm-13 4h20v16h-20zm2 2v5h1v-2h6v2h1v-5h-1v2h-6v-2zm8 7v5.25h1v-2.25h6v2h1v-5h-1v2h-6v-2z" color="#000000" color-rendering="auto" fill="#fff" image-rendering="auto" opacity=".75" shape-rendering="auto" solid-color="#000000" style="isolation:auto;mix-blend-mode:normal"/>
</svg>
