<svg xmlns="http://www.w3.org/2000/svg" height="64" width="64"><defs><linearGradient id="a"><stop offset="0" stop-color="#791235"/><stop offset="1" stop-color="#dd3b27"/></linearGradient><linearGradient id="b"><stop offset="0" stop-color="#fff"/><stop offset=".091" stop-color="#fff" stop-opacity=".235"/><stop offset=".955" stop-color="#fff" stop-opacity=".157"/><stop offset="1" stop-color="#fff" stop-opacity=".392"/></linearGradient></defs><g transform="translate(0 -988.362)"><path d="M8.991 989.371l46.01.004v57.985H8.992v-57.989z" fill="#fafafa"/><path d="M6.5.5l35 .003v44.003h-35V.5z" fill="none" stroke="#4f6698" stroke-width=".745" stroke-linejoin="round" stroke-opacity=".267" transform="matrix(1.34284 0 0 1.34075 -.228 988.192)"/><rect ry="0" rx="0" y="988.362" height="64" width="64" opacity=".75" fill="none"/></g><path d="M16 9v1h3.19V9zm3.609 0v1h3.021V9zm3.441 0v1h2.644V9zm3.063 0v1h1.175V9zm1.595 0v1h2.602V9zm3.063 0v1h6.715V9zM16 12v1h5.078v-1zm5.581 0v1h2.434v-1zm2.896 0v1h1.133v-1zm1.636 0v1h2.183v-1zm2.686 0v1h2.182v-1zm2.644 0v1h3.567v-1zm4.07 0v1h4.658v-1zM16 15v1h5.623v-1zm6.043 0v1h6.043v-1zM16 18v1h3.105v-1zm3.525 0v1h2.896v-1zm3.315 0v1h2.56v-1zm5.246 15v1h3.147v-1zm3.567 0v1h2.937v-1zm3.357 0v1h2.476v-1zm-6.924 3v1h2.518v-1zm2.937 0v1h6.463v-1zm6.882 0v1h4.952v-1zm-9.82 3v1h3.274v-1zm3.736 0v1h5.749v-1zm6.168 0v1h3.945v-1zm-9.903 3v1h2.518v-1zm2.937 0v1h2.56v-1zm2.98 0v1h3.65v-1zm4.07 0v1h.756v-1zm1.175 0v1h4.742v-1zm-11.246 9v1h3.273v-1zm3.693 0v1h3.021v-1zm3.483 0v1h2.601v-1zm3.021 0v1h4.155v-1zm4.616 0v1h6.756v-1zM16 21v1h4.112v-1zm0 3v1h4.154v-1zm4.574-3v1h7.512v-1zm.042 3v1h6.84v-1zm1.595 21v1h6.168v-1zm6.63 0v1h2.434v-1zm2.896 0v1h5.79v-1zm6.252 0v1h3.987v-1zm4.407 0v1h1.552v-1zm2.014 0v1h.923v-1zm1.343 0v1h2.476v-1zm-21.528 3v1h1.091v-1zm1.385 0v1h2.182v-1zm2.518 0v1h2.182v-1zm2.853 0v1h3.483v-1zm3.903 0v1h4.532v-1zm5.162 0v1h3.063v-1zm3.44 0v1h.714v-1zM16 51h4.078v1H16zm3.693-24v1h3.021v-1zM16 30v1h1.343v-1zm4.238 3v1h2.476v-1zm.168 3v1h3.651v-1zm-.461 3v1h2.77v-1zm-.504 3v1h2.854v-1zM16 45v1h5.75v-1zm0 3v1h4.952v-1zm5.33 0v1h2.391v-1zm-.84 3v1h4.49v-1zM16 27v1h3.147v-1zm0 6v1h3.693v-1zm0 3v1h3.945v-1zm0 3v1h3.4v-1zm0 3v1h2.98v-1z" fill="#b4bfd8" fill-opacity=".549"/><path d="M16 37.007h2.418v-4.296h1.617c2.598 0 4.672-1.242 4.672-4.003 0-2.859-2.058-3.79-4.737-3.79H16zm2.418-6.208v-3.97h1.372c1.666 0 2.549.474 2.549 1.879 0 1.389-.8 2.091-2.467 2.091zm8.494 6.208h2.418V31.78h4.575v5.228h2.401v-12.09h-2.401v4.755H29.33v-4.754h-2.418zm12.381 0h2.417v-4.296h1.618c2.597 0 4.672-1.242 4.672-4.003 0-2.859-2.058-3.79-4.738-3.79h-3.97zM41.71 30.8v-3.97h1.373c1.666 0 2.548.474 2.548 1.879 0 1.389-.8 2.091-2.467 2.091z" aria-label="PHP" font-weight="700" font-size="18.379" font-family="sans-serif" letter-spacing="0" word-spacing="0" fill="#f6a651" stroke-width="2.25"/></svg>