<svg xmlns="http://www.w3.org/2000/svg" width="64" height="64"><rect style="marker:none" y="4.5" x="4.5" ry="3" rx="3" height="55" width="55" color="#000" overflow="visible" fill="#3a9d4a"/><g fill="none" stroke="#38bc4b" fill-opacity="0"><path d="M22.5 13.495v-4l3-2.895V4.995" stroke-linecap="square" stroke-linejoin="round"/><path d="M48.5 52.5H35.507l-3.007-3v-2" stroke-linecap="square"/><path d="M16 16.995l3.5-3.5v-6l2.5-2.5" stroke-linecap="round" stroke-linejoin="round"/><path d="M29.5 10.495a1 1 0 1 1-2 0 1 1 0 0 1 2 0zm.007 0H42.5m2 0a1 1 0 1 1-2 0 1 1 0 0 1 2 0zm11-4a1 1 0 1 1-2 0 1 1 0 0 1 2 0zM57.505 42.5a1 1 0 1 1-2 0 1 1 0 0 1 2 0zM10.5 22.506a1 1 0 1 1-2 0 1 1 0 0 1 2 0zm6-12a1 1 0 1 1-2 0 1 1 0 0 1 2 0zm-1-5.5v4.5m39-2.018v12" stroke-linecap="square"/><path d="M53.5 24.5l3-3.005v-10l1.5-1.5m-4.995 49l3.5-3.5v-9l-1.5-1.5" stroke-linecap="round" stroke-linejoin="round"/><path d="M55.505 42.5h-14" stroke-linecap="square"/><path d="M15 21.006l-3.5-3.5v-8L7 5.006" stroke-linecap="round" stroke-linejoin="round"/><path d="M15 24l-5.5-5.494v-5l-1-1H5" stroke-linecap="square" stroke-linejoin="round"/><path d="M23.507 56.5a1 1 0 1 0 2 0 1 1 0 0 0-2 0zm-.007 0h-7.993l-3.007-3v-9l2-2" stroke-linecap="square"/><path d="M12.5 59v-2l-3-3v-8"/><path d="M10.5 59h0v-1l-3-3V44l4-4v-5.5m41-25.005v7l-7 7" stroke-linecap="square"/><path d="M8.5 22.506H5" stroke-linecap="square" stroke-linejoin="round"/><path d="M10.5 27.506a1 1 0 1 1-2 0 1 1 0 0 1 2 0z" stroke-linecap="square"/><path d="M8.5 27.506H5" stroke-linecap="square" stroke-linejoin="round"/><path d="M19.5 53.495a1 1 0 1 1-2 0 1 1 0 0 1 2 0zm31-1a1 1 0 1 1-2 0 1 1 0 0 1 2 0zM51.505 27.5a1 1 0 1 0 2 0 1 1 0 0 0-2 0zm2 0H59m-8.495 20a1 1 0 1 1-2 0 1 1 0 0 1 2 0zm-2 0h-6" stroke-linecap="square"/><path d="M56.5 39h-4l-3-3V22"/><path d="M49.5 5.495v7l-7 7M19.5 53.5h6.993l3.007 3v2m11.007-2.005l9.993.005 3-3.005V48.5m-13 7.995a1 1 0 1 1-2 0 1 1 0 0 1 2 0zM33.5 8.5a1 1 0 1 1 0-2 1 1 0 0 1 0 2z" stroke-linecap="square"/><path d="M33.5 6.5V5" stroke-linecap="square" stroke-linejoin="round"/><path d="M12 29.995l-3.5 3.5v4" stroke-linecap="round" stroke-linejoin="round"/><path d="M9.5 38.506a1 1 0 1 1-2 0 1 1 0 0 1 2 0z" stroke-linecap="square"/><path d="M34.507 7.495L42.5 7.5 45 5" stroke-linecap="round"/><path d="M51.505 32.5a1 1 0 1 0 2 0 1 1 0 0 0-2 0zm2 0H59" stroke-linecap="square"/><g stroke-linecap="square"><path d="M33.5 54.5a1 1 0 1 1 0 2 1 1 0 0 1 0-2z"/><path d="M33.5 56.5v2" stroke-linejoin="round"/></g></g><rect width="55" height="55" rx="3" ry="3" x="4.5" y="4.5" style="marker:none" color="#000" overflow="visible" opacity=".5" fill="#3a9e49" stroke="#153719" stroke-linecap="round" stroke-linejoin="round"/><path style="line-height:normal;text-indent:0;text-align:start;text-decoration-line:none;text-decoration-style:solid;text-decoration-color:#000;text-transform:none;white-space:normal;isolation:auto;mix-blend-mode:normal;solid-color:#000;solid-opacity:1" d="M14 18v2h36v-2zm0 4v2h36v-2zm0 4v2h36v-2zm0 4v2h36v-2zm0 4v2h36v-2zm0 4v2h36v-2zm0 4v2h36v-2zm0 4v2h36v-2z" color="#000" font-weight="400" font-family="sans-serif" overflow="visible" opacity=".5" fill="#fff"/><path d="M18 13.5h28c.277 0 .5.223.5.5v37c0 .277-.223.5-.5.5H18a.499.499 0 0 1-.5-.5V14c0-.277.223-.5.5-.5z" style="marker:none" color="#000" overflow="visible" fill="#4d4d4d" stroke="#000" stroke-linecap="round" stroke-linejoin="round" stroke-opacity=".498"/><path style="line-height:125%;-inkscape-font-specification:'Open Sans Bold'" d="M27.695 22.03c-.464 0-.839.107-1.127.322a1.006 1.006 0 0 0-.435.845c0 .238.062.459.184.658.122.2.322.387.6.563-.327.164-.566.355-.715.57-.146.216-.218.46-.218.738 0 .416.151.736.456.963.304.226.722.34 1.255.34.51 0 .924-.12 1.237-.362.313-.244.469-.567.469-.967 0-.253-.08-.485-.24-.696-.158-.213-.417-.417-.781-.613.306-.153.529-.326.666-.52.138-.195.206-.417.206-.666 0-.36-.143-.644-.43-.855-.284-.214-.66-.32-1.127-.32zm-5.629.064v4.87h1.031V25.23h.443c.604 0 1.07-.138 1.396-.416.33-.278.494-.678.494-1.202 0-.504-.153-.885-.462-1.138-.306-.256-.757-.381-1.348-.381zm8.182 0l-.184 2.481.41.219c.09-.027.205-.05.347-.072.142-.025.272-.038.39-.038.65 0 .975.245.975.736 0 .515-.315.773-.944.773-.208 0-.427-.028-.66-.085a2.78 2.78 0 0 1-.614-.23v.888c.334.175.77.264 1.312.264.624 0 1.104-.147 1.439-.44.335-.293.504-.711.504-1.255 0-.46-.139-.823-.419-1.088-.277-.264-.654-.394-1.124-.394-.2 0-.366.014-.502.045l-.117.024.09-.957h1.739v-.871zm-2.558.687a.66.66 0 0 1 .426.134.436.436 0 0 1 .165.362c0 .14-.044.264-.13.37-.087.107-.238.213-.456.315-.224-.111-.38-.218-.466-.322a.57.57 0 0 1-.126-.363.44.44 0 0 1 .16-.357.643.643 0 0 1 .427-.139zm-4.593.158h.47c.282 0 .49.057.62.173.134.115.2.293.2.536 0 .24-.08.425-.237.551-.157.125-.394.187-.711.187h-.342zm4.547 1.903c.282.146.486.284.61.415.127.13.19.267.19.416 0 .18-.063.326-.19.437-.126.11-.317.163-.572.163-.231 0-.413-.053-.547-.16a.537.537 0 0 1-.2-.445c0-.333.236-.609.71-.826z" font-weight="700" font-size="5" font-family="Open Sans" letter-spacing="0" word-spacing="0" opacity=".2" fill="#fff"/><path d="M21.985 29.53h3.094zm3.406 0h5.063zm-3.406 2.015h3.656zm4.062 0h1.75zm2.063 0h.875z" opacity=".2" fill="none" stroke="#fff"/></svg>