<svg xmlns="http://www.w3.org/2000/svg" height="64" width="64"><defs><clipPath clipPathUnits="userSpaceOnUse" id="a"><path style="marker:none" d="M302 290a8 8 0 1 1-16 0 8 8 0 1 1 16 0z" color="#bebebe" overflow="visible" opacity=".5" fill="#ddd"/></clipPath></defs><rect width="64" height="64" y="988.362" rx="0" ry="0" opacity=".75" fill="none" transform="translate(0 -988.362)"/><path d="M8.5.5l47 .004V59.5h-47V.5z" opacity=".3" fill="none"/><path d="M8.991 1.05c10.544 0 46.01.005 46.01.005V59.04H8.992V1.05z" fill="#37a7e5"/><path d="M6.5.5l35 .003v44.003h-35V.5z" fill="none" stroke="#1378c5" stroke-width=".745" stroke-linejoin="round" opacity=".85" transform="matrix(1.34284 0 0 1.34076 -.228 -.129)"/><path d="M11.875 1v4.35H9V6.8h2.875v4.35H9v1.45h2.875v4.35H9v1.45h2.875v4.35H9v1.45h2.875v4.35H9V30h2.875v4.35H9v1.45h2.875v4.35H9v1.45h2.875v4.35H9v1.45h2.875v4.35H9v1.45h2.875V59h1.438v-5.8h4.312V59h1.438v-5.8h4.312V59h1.438v-5.8h4.312V59h1.438v-5.8h4.312V59h1.438v-5.8h4.312V59h1.438v-5.8h4.312V59h1.438v-5.8h4.312V59h1.438v-5.8H55v-1.45h-1.438V47.4H55v-1.45h-1.438V41.6H55v-1.45h-1.438V35.8H55v-1.45h-1.438V30H55v-1.45h-1.438V24.2H55v-1.45h-1.438V18.4H55v-1.45h-1.438V12.6H55v-1.45h-1.438V6.8H55V5.35h-1.438V1h-1.437v4.35h-4.313V1h-1.437v4.35h-4.313V1h-1.437v4.35h-4.313V1h-1.437v4.35h-4.313V1h-1.437v4.35h-4.313V1h-1.437v4.35h-4.313V1h-1.437v4.35h-4.313V1zm1.438 5.8h4.312v4.35h-4.313zm5.75 0h4.312v4.35h-4.313zm5.75 0h4.312v4.35h-4.313zm5.75 0h4.312v4.35h-4.313zm5.75 0h4.312v4.35h-4.313zm5.75 0h4.312v4.35h-4.313zm5.75 0h4.312v4.35h-4.313zm-34.5 5.8h4.312v4.35h-4.313zm5.75 0h4.312v4.35h-4.313zm5.75 0h4.312v4.35h-4.313zm5.75 0h4.312v4.35h-4.313zm5.75 0h4.312v4.35h-4.313zm5.75 0h4.312v4.35h-4.313zm5.75 0h4.312v4.35h-4.313zm-34.5 5.8h4.312v4.35h-4.313zm5.75 0h4.312v4.35h-4.313zm5.75 0h4.312v4.35h-4.313zm5.75 0h4.312v4.35h-4.313zm5.75 0h4.312v4.35h-4.313zm5.75 0h4.312v4.35h-4.313zm5.75 0h4.312v4.35h-4.313zm-34.5 5.8h4.312v4.35h-4.313zm5.75 0h4.312v4.35h-4.313zm5.75 0h4.312v4.35h-4.313zm5.75 0h4.312v4.35h-4.313zm5.75 0h4.312v4.35h-4.313zm5.75 0h4.312v4.35h-4.313zm5.75 0h4.312v4.35h-4.313zm-34.5 5.8h4.312v4.35h-4.313zm5.75 0h4.312v4.35h-4.313zm5.75 0h4.312v4.35h-4.313zm5.75 0h4.312v4.35h-4.313zm5.75 0h4.312v4.35h-4.313zm5.75 0h4.312v4.35h-4.313zm5.75 0h4.312v4.35h-4.313zm-34.5 5.8h4.312v4.35h-4.313zm5.75 0h4.312v4.35h-4.313zm5.75 0h4.312v4.35h-4.313zm5.75 0h4.312v4.35h-4.313zm5.75 0h4.312v4.35h-4.313zm5.75 0h4.312v4.35h-4.313zm5.75 0h4.312v4.35h-4.313zm-34.5 5.8h4.312v4.35h-4.313zm5.75 0h4.312v4.35h-4.313zm5.75 0h4.312v4.35h-4.313zm5.75 0h4.312v4.35h-4.313zm5.75 0h4.312v4.35h-4.313zm5.75 0h4.312v4.35h-4.313zm5.75 0h4.312v4.35h-4.313zm-34.5 5.8h4.312v4.35h-4.313zm5.75 0h4.312v4.35h-4.313zm5.75 0h4.312v4.35h-4.313zm5.75 0h4.312v4.35h-4.313zm5.75 0h4.312v4.35h-4.313zm5.75 0h4.312v4.35h-4.313zm5.75 0h4.312v4.35h-4.313z" opacity=".15" fill="#fff"/><g stroke-width=".839"><path d="M27.169 16.095L15 17.64l.87 1.919 8.81-1.304 3.186 3.284L33 20.638zm-2.386 5.802l-8.38 1.426.816 2.144 4.559-.861 1.168 2.022 4.83-1.042zm-2.743 6.777l-4.146.91.796 2.321 4.474-1.131z" opacity=".2" stroke="#fff" fill="none" transform="matrix(1.19305 0 0 1.19147 3.133 1.412)"/><path d="M35.546 20.589l-14.517 1.84 1.037 2.287 10.511-1.553 3.801 3.912 6.125-1.073zM32.7 27.502L22.701 29.2l.974 2.555 5.44-1.027 1.394 2.41 5.762-1.241zm-3.273 8.075l-4.945 1.083.948 2.767 5.338-1.349z" fill="#fff"/></g><g stroke-width=".839"><path style="marker:none" d="M293 295.5c0 1.38-1.343 2.5-3 2.5s-3-1.12-3-2.5 1.343-2.5 3-2.5 3 1.12 3 2.5z" transform="matrix(1.73986 0 0 2.08508 -462.123 -572.14)" color="#bebebe" overflow="visible" opacity=".2" fill="none" stroke="#fff" stroke-width=".656" stroke-linecap="round"/><path style="marker:none" d="M287 295.51c-.007-1.38 1.33-2.504 2.987-2.51 1.657-.006 3.006 1.109 3.013 2.49.007 1.377-1.324 2.5-2.977 2.51" transform="matrix(1.73986 0 0 2.08508 -462.123 -572.14)" color="#bebebe" overflow="visible" fill="none" stroke="#fff" stroke-width=".656" stroke-linecap="round"/><path d="M287 294l-3.057-5.029H290z" transform="matrix(.74566 0 0 .74467 -176.785 -171.955)" clip-path="url(#a)" fill="#fff"/></g></svg>