<svg xmlns="http://www.w3.org/2000/svg" height="64" width="64"><g transform="translate(0 -988.362)"><path d="M8.991 989.371l46.01.004v57.985H8.992v-57.989z" fill="#fafafa"/><path d="M6.5.5l35 .003v44.003h-35V.5z" fill="none" stroke="#4f6698" stroke-width=".745" stroke-linejoin="round" stroke-opacity=".267" transform="matrix(1.34284 0 0 1.34075 -.228 988.192)"/><rect ry="0" rx="0" y="988.362" height="64" width="64" opacity=".75" fill="none"/></g><path d="M31.934 14l-13.88 8.012L18 37.988 32 46l14-7.998-.06-15.99L31.933 14zm0 1.27v11.568l1.63.974-1.63.94-11.748-6.787 11.748-6.695zM45 22.832v14.633l-13 7.443V30.273l13-7.441z" style="isolation:auto;mix-blend-mode:normal;solid-color:#000;solid-opacity:1;marker:none" color="#000" overflow="visible" fill="#4d88cf"/></svg>