<svg width="64" height="64" version="1.1" viewBox="0 0 16.933 16.933" xmlns="http://www.w3.org/2000/svg">
 <g transform="matrix(.26458 0 0 .26458 0 -261.5)">
  <path d="m8.991 989.37 46.01 4e-3v57.985h-46.009v-57.989z" fill="#40ace8"/>
  <path transform="matrix(1.3428 0 0 1.3408 -.228 988.19)" d="m6.5 0.5 35 3e-3v44.003h-35z" fill="none" stroke="#1887c4" stroke-linejoin="round" stroke-width=".745"/>
  <rect y="988.36" width="64" height="64" rx="0" ry="0" fill="none" opacity=".75"/>
 </g>
 <path d="m8.4365 4.4978a3.9687 3.9687 0 0 0-3.9387 3.9687 3.9687 3.9687 0 0 0 3.9687 3.9687 3.9687 3.9687 0 0 0 3.9687-3.9687 3.9687 3.9687 0 0 0-3.9687-3.9687 3.9687 3.9687 0 0 0-0.029972 0zm0.027388 1.5875a2.3812 2.3812 0 0 1 0.00258 0 2.3812 2.3812 0 0 1 2.3812 2.3812 2.3812 2.3812 0 0 1-2.3812 2.3812 2.3812 2.3812 0 0 1-2.3812-2.3812 2.3812 2.3812 0 0 1 2.3786-2.3812z" fill="#ff6e65" stroke-linecap="round" stroke-linejoin="round" stroke-width=".61164" style="paint-order:stroke fill markers"/>
 <path d="m4.862 6.821a3.948 3.948 0 0 0-0.364 1.645c0 0.587 0.134 1.144 0.364 1.646l1.389-0.794a2.378 2.378 0 0 1-0.166-0.852c0-0.3 0.064-0.587 0.166-0.851m-1.39-0.794m7.211 0-1.39 0.794c0.102 0.264 0.166 0.55 0.166 0.851s-0.064 0.587-0.165 0.852l1.389 0.794c0.229-0.502 0.363-1.059 0.363-1.646s-0.134-1.144-0.363-1.645m-4.457 3.862-0.794 1.388c0.502 0.23 1.059 0.364 1.646 0.364s1.144-0.134 1.645-0.364l-0.794-1.389c-0.264 0.102-0.55 0.166-0.851 0.166s-0.587-0.064-0.852-0.166m0.852-6.184c-0.587 0-1.144 0.134-1.646 0.363l0.794 1.39c0.265-0.102 0.55-0.166 0.852-0.166 0.3 0 0.587 0.064 0.851 0.165l0.794-1.389a3.948 3.948 0 0 0-1.645-0.363" fill="#fff"/>
</svg>
