<svg xmlns="http://www.w3.org/2000/svg" width="64" height="64" viewBox="0 0 16.933 16.933"><g transform="translate(0 -261.504) scale(.26458)"><path d="M8.991 989.371l46.01.004v57.985H8.992v-57.989z" fill="#fafafa"/><path d="M6.5.5l35 .003v44.003h-35V.5z" fill="none" stroke="#4f6698" stroke-width=".745" stroke-linejoin="round" stroke-opacity=".267" transform="matrix(1.34284 0 0 1.34075 -.228 988.192)"/><rect ry="0" rx="0" y="988.362" height="64" width="64" opacity=".75" fill="none"/></g><path d="M8.995 12.436a.264.264 0 0 0 .264-.264v-.885a3.415 3.415 0 0 0 1.01-.422l.628.629a.262.262 0 0 0 .372 0l.752-.753a.261.261 0 0 0 0-.372l-.628-.628c.19-.308.336-.646.421-1.009h.885a.264.264 0 0 0 .265-.264V7.409a.264.264 0 0 0-.265-.264h-.885a3.421 3.421 0 0 0-.421-1.009l.628-.628a.262.262 0 0 0 0-.373l-.752-.752a.261.261 0 0 0-.372 0l-.629.628A3.421 3.421 0 0 0 9.26 4.59v-.885a.264.264 0 0 0-.264-.264H7.937a.264.264 0 0 0-.265.264v.885c-.362.085-.7.231-1.009.421l-.628-.628a.261.261 0 0 0-.372 0l-.753.752a.262.262 0 0 0 0 .373l.629.628c-.19.308-.336.646-.422 1.009h-.885a.264.264 0 0 0-.264.264v1.059c0 .146.118.264.264.264h.885c.086.362.232.701.422 1.009l-.629.628a.261.261 0 0 0 0 .372l.753.753a.261.261 0 0 0 .372 0l.628-.629c.308.19.647.337 1.009.422v.885c0 .146.118.264.265.264zm-.53-2.91a1.588 1.588 0 1 1 .002-3.176 1.588 1.588 0 0 1-.001 3.176z" style="marker:none" overflow="visible" fill-opacity=".059"/><path d="M7.937 3.44a.264.264 0 0 0-.265.265v.885c-.362.085-.7.231-1.009.421l-.628-.628a.261.261 0 0 0-.372 0l-.753.752a.262.262 0 0 0 0 .373l.629.628c-.19.308-.336.646-.422 1.009h-.885a.264.264 0 0 0-.264.264v1.059c0 .146.118.264.264.264h.885c.086.362.232.701.422 1.009l-.629.628a.261.261 0 0 0 0 .372l.753.753a.261.261 0 0 0 .372 0l.628-.629c.308.19.647.337 1.009.422v.885c0 .146.118.264.265.264h1.058a.264.264 0 0 0 .264-.264v-.885a3.415 3.415 0 0 0 1.01-.422l.628.629a.262.262 0 0 0 .372 0l.752-.753a.261.261 0 0 0 0-.372l-.628-.628c.19-.308.336-.646.421-1.009h.885a.264.264 0 0 0 .265-.264V7.409a.264.264 0 0 0-.265-.264h-.885a3.421 3.421 0 0 0-.421-1.009l.628-.628a.262.262 0 0 0 0-.373l-.752-.752a.261.261 0 0 0-.372 0l-.629.628A3.421 3.421 0 0 0 9.26 4.59v-.885a.264.264 0 0 0-.264-.264zm.066.331h.926v1.08l.255.06c.324.077.63.21.91.382l.223.138.766-.766.656.657-.765.765.137.223c.173.28.305.586.381.911l.06.254h1.08v.926h-1.08l-.06.255c-.076.326-.208.63-.381.911l-.137.223.765.765-.656.657-.766-.765-.222.137a3.09 3.09 0 0 1-.911.382l-.255.06v1.08h-.926v-1.08l-.255-.06a3.088 3.088 0 0 1-.911-.382l-.223-.137-.765.765-.657-.657.765-.765-.137-.223a3.09 3.09 0 0 1-.381-.91l-.06-.256h-1.08v-.926h1.08l.06-.254c.077-.325.208-.63.381-.91l.138-.224-.765-.765.656-.657.765.766.223-.138c.28-.173.586-.304.91-.381l.256-.06zm.463 2.25a1.924 1.924 0 0 0-1.919 1.917c0 1.056.863 1.919 1.919 1.919a1.924 1.924 0 0 0 1.918-1.919A1.924 1.924 0 0 0 8.466 6.02zm0 .33a1.588 1.588 0 1 1-.001 3.176 1.588 1.588 0 0 1 0-3.176z" style="marker:none" overflow="visible" fill="#58698f" fill-opacity=".208"/></svg>