<svg width="64" height="64" version="1.1" viewBox="0 0 64 64" xmlns="http://www.w3.org/2000/svg">
 <rect transform="rotate(90)" x="8.999" y="-59" width="46" height="54" ry="0" color="#bebebe" fill="#f9f9f9" overflow="visible"/>
 <rect transform="rotate(90)" x="8.499" y="-59.5" width="47" height="55" ry="0" color="#bebebe" fill="none" overflow="visible" stroke="#000" stroke-opacity=".13725"/>
 <g transform="translate(0 1)" fill="#d70751">
  <path d="m34.609 31.943c-0.551 7e-3 0.103 0.283 0.823 0.394 0.2-0.155 0.379-0.312 0.54-0.464-0.448 0.11-0.904 0.112-1.363 0.07m2.957-0.737c0.329-0.454 0.568-0.95 0.652-1.462-0.074 0.365-0.271 0.68-0.458 1.014-1.03 0.649-0.098-0.385-1e-3 -0.779-1.107 1.396-0.153 0.837-0.193 1.227m1.092-2.842c0.067-0.992-0.195-0.678-0.283-0.3 0.103 0.054 0.184 0.7 0.283 0.3m-6.14-13.564c0.295 0.052 0.636 0.092 0.587 0.163 0.323-0.071 0.396-0.136-0.587-0.164"/>
  <path d="m33.105 14.963-0.207 0.043 0.193-0.018 0.014-0.025"/>
  <path d="m42.278 28.133c0.033 0.892-0.26 1.325-0.526 2.09l-0.476 0.237c-0.39 0.758 0.038 0.481-0.241 1.084-0.61 0.54-1.846 1.692-2.242 1.798-0.29-7e-3 0.195-0.342 0.259-0.473-0.815 0.56-0.654 0.84-1.9 1.18l-0.036-0.081c-3.073 1.445-7.34-1.42-7.285-5.327-0.032 0.248-0.093 0.186-0.16 0.285-0.16-2.01 0.928-4.03 2.762-4.855 1.793-0.888 3.896-0.524 5.18 0.674-0.705-0.924-2.11-1.904-3.774-1.813-1.63 0.026-3.156 1.062-3.665 2.188-0.835 0.525-0.933 2.027-1.296 2.302-0.49 3.6 0.92 5.154 3.308 6.984 0.375 0.253 0.105 0.291 0.156 0.484a6.475 6.475 0 0 1-2.117-1.618c0.317 0.464 0.66 0.914 1.102 1.268-0.749-0.252-1.748-1.812-2.039-1.875 1.29 2.308 5.23 4.048 7.294 3.184-0.956 0.036-2.169 0.02-3.241-0.377-0.452-0.232-1.064-0.711-0.954-0.801 2.816 1.051 5.724 0.796 8.16-1.157 0.621-0.483 1.298-1.305 1.494-1.316-0.295 0.444 0.05 0.214-0.176 0.605 0.617-0.996-0.269-0.406 0.638-1.72l0.335 0.46c-0.125-0.827 1.027-1.83 0.91-3.139 0.265-0.4 0.295 0.431 0.014 1.35 0.39-1.02 0.103-1.184 0.203-2.026 0.107 0.283 0.25 0.584 0.323 0.883-0.254-0.987 0.259-1.661 0.387-2.235-0.127-0.055-0.392 0.436-0.453-0.728 0.01-0.506 0.141-0.265 0.192-0.39-0.099-0.057-0.36-0.445-0.518-1.19 0.114-0.174 0.307 0.454 0.463 0.48-0.1-0.592-0.273-1.043-0.28-1.497-0.458-0.955-0.163 0.128-0.533-0.41-0.487-1.517 0.403-0.352 0.464-1.041 0.737 1.068 1.157 2.724 1.35 3.41a13.959 13.959 0 0 0-0.676-2.43c0.225 0.094-0.36-1.72 0.292-0.52-0.697-2.56-2.98-4.954-5.08-6.077 0.256 0.235 0.58 0.53 0.465 0.577-1.045-0.622-0.862-0.671-1.011-0.934-0.85-0.346-0.907 0.029-1.47 1e-3 -1.604-0.851-1.913-0.76-3.39-1.293l0.067 0.314c-1.062-0.354-1.238 0.133-2.386 0-0.07-0.054 0.368-0.197 0.729-0.249-1.028 0.136-0.98-0.203-1.985 0.037 0.247-0.173 0.51-0.289 0.774-0.436-0.838 0.05-2 0.487-1.642 0.09-1.366 0.61-3.793 1.466-5.155 2.743l-0.043-0.286c-0.624 0.749-2.722 2.237-2.889 3.208l-0.167 0.039c-0.324 0.55-0.535 1.173-0.792 1.738-0.425 0.724-0.623 0.279-0.562 0.392-0.835 1.694-1.251 3.117-1.61 4.285 0.256 0.381 7e-3 2.298 0.103 3.832-0.419 7.577 5.318 14.933 11.589 16.631 0.919 0.33 2.285 0.318 3.448 0.35-1.372-0.392-1.549-0.207-2.885-0.673-0.964-0.454-1.175-0.973-1.858-1.565l0.27 0.477c-1.338-0.474-0.778-0.586-1.868-0.931l0.29-0.377c-0.435-0.033-1.15-0.73-1.346-1.118l-0.475 0.019c-0.57-0.703-0.874-1.211-0.852-1.605l-0.153 0.274c-0.174-0.298-2.1-2.64-1.1-2.095-0.186-0.169-0.433-0.276-0.7-0.762l0.203-0.232c-0.48-0.618-0.884-1.411-0.853-1.675 0.256 0.346 0.434 0.41 0.61 0.47-1.214-3.011-1.282-0.166-2.2-3.065l0.193-0.015c-0.148-0.226-0.24-0.469-0.36-0.708l0.086-0.843c-0.874-1.009-0.244-4.295-0.118-6.096 0.087-0.733 0.73-1.513 1.217-2.736l-0.297-0.051c0.569-0.992 3.246-3.983 4.487-3.83 0.6-0.754-0.12-3e-3 -0.237-0.192 1.32-1.366 1.735-0.965 2.626-1.211 0.96-0.57-0.825 0.223-0.37-0.217 1.661-0.424 1.177-0.964 3.343-1.18 0.229 0.13-0.53 0.201-0.72 0.37 1.383-0.677 4.377-0.523 6.323 0.375 2.256 1.055 4.793 4.173 4.893 7.106l0.114 0.03c-0.058 1.167 0.178 2.516-0.231 3.754l0.277-0.586"/>
  <path d="m28.593 32.7-0.078 0.385c0.363 0.493 0.65 1.026 1.112 1.41-0.332-0.65-0.58-0.917-1.034-1.796m0.856-0.033c-0.192-0.213-0.305-0.468-0.432-0.721 0.121 0.446 0.37 0.83 0.602 1.221l-0.17-0.5m15.153-3.294-0.081 0.204a9.8 9.8 0 0 1-0.961 3.064 9.66 9.66 0 0 0 1.042-3.268m-11.974-14.837c0.372-0.136 0.915-0.075 1.311-0.164-0.515 0.043-1.028 0.068-1.535 0.133l0.224 0.031m-13.083 6.957c0.086 0.794-0.597 1.103 0.151 0.578 0.402-0.905-0.156-0.25-0.15-0.578m-0.882 3.678c0.173-0.53 0.204-0.848 0.27-1.155-0.476 0.61-0.22 0.74-0.27 1.155"/>
 </g>
 <path d="m32 8.999h1v46h-1z" opacity=".1"/>
</svg>
