<svg width="64" height="64" version="1.1" viewBox="0 0 64 64" xmlns="http://www.w3.org/2000/svg">
 <g transform="translate(0 15.999)">
  <path d="m0-16h64v64h-64z" fill="none"/>
  <rect transform="rotate(90)" x="-7" y="-59" width="46" height="54" ry="0" color="#bebebe" fill="#ff8f2b" overflow="visible"/>
  <rect transform="rotate(90)" x="-7.5" y="-59.5" width="47" height="55" ry="0" color="#bebebe" fill="none" overflow="visible" stroke="#c06a1d"/>
  <path d="m32-7h1v46h-1z" opacity=".15"/>
 </g>
 <path d="m35.002 17c1.2572 4.9528-4.4346 6.4488-6.4888 9.5333-1.3989 2.1016 0.68668 4.3598 3.53 6.925-1.1088-2.5065-4.8689-4.6992 0.0015-8.5461 6.0734-4.794 2.9572-7.9122 2.9572-7.9122zm3.7576 6.1279c6.8e-5 0-10.27 2.5643-5.3651 8.2161 1.4479 1.6667-0.37981 3.1654-0.37981 3.1654s3.6743-1.8963 1.9872-4.2725c-1.5763-2.2148-2.7846-3.315 3.7579-7.1091zm1.8187 10.096c-0.36084 0.0012-0.74402 0.0638-1.1371 0.20194-0.31514 0.11157-0.48054 0.37093-0.48054 0.37093s0.19926-0.0802 0.64348-0.17292c1.8166-0.37853 4.4195 2.4319-1.2093 5.3561-0.02608 0.0697-0.11256 0.14778-0.11248 0.14778 6.6941-1.7597 5.2344-5.9094 2.2959-5.9037zm-12.061 0.2854c-0.44093-0.0102-2.3471 0.01814-4.6251 1.1201-3.0796 1.4891 7.6163 2.1675 13.154 0.71098 0.57571-0.39289 1.3709-0.734 1.3709-0.734s-2.2649 0.40491-4.5215 0.5943c-2.7622 0.23173-5.7253 0.2775-7.2126 0.07846-3.5215-0.47079 1.9305-1.7659 1.9305-1.7659s-0.03288-0.0026-0.096-0.0038zm-1.1735 3.4071c-5.0802 1.686 2.828 3.5995 9.9279 1.5226-0.75437-0.2659-1.2334-0.75256-1.2334-0.75256-3.4714 0.66808-5.4766 0.64673-8.0165 0.38454-1.9636-0.20296-0.67829-1.1546-0.67829-1.1546zm0.71805 3.2841c-4.6126 1.2888 2.8065 3.9512 8.6799 1.4348-0.96195-0.3738-1.6519-0.8054-1.6519-0.8054-2.6191 0.49505-3.834 0.53406-6.2114 0.26264-1.9621-0.22504-0.81639-0.89199-0.81639-0.89199zm-3.2038 2.1774c-2.0714 0.06391-6.1226 1.9264-2.4178 2.5276 11.974 1.9409 21.827-0.87422 18.721-2.2755 0 0 0.84829 0.69942-0.93409 1.2402-3.3892 1.0266-14.109 1.3362-17.087 0.04105-1.0696-0.46587 0.93704-1.1116 1.5684-1.248 0.65833-0.14242 1.0343-0.11641 1.0343-0.11641-0.18599-0.13096-0.50186-0.18082-0.88545-0.16899zm18.204 1.78s-0.37743 0.96905-4.4645 1.7379c-4.6111 0.8681-10.299 0.76688-13.672 0.21007 0 0 0.6908 0.57193 4.2411 0.80044 5.4018 0.34534 13.699-0.19216 13.896-2.7484z" clip-rule="evenodd" enable-background="new" fill="#fff" fill-rule="evenodd" opacity=".5" stroke-width=".95892"/>
</svg>
