<svg width="64" height="64" version="1.1" viewBox="0 0 16.933 16.933" xmlns="http://www.w3.org/2000/svg">
 <g stroke-width=".26458">
  <path d="m0-2.8e-4h16.933v16.933h-16.933z" fill="none"/>
  <rect transform="rotate(90)" x="2.3809" y="-15.61" width="12.171" height="14.287" ry="0" color="#bebebe" fill="#ff7643" overflow="visible"/>
  <rect transform="rotate(90)" x="2.2487" y="-15.743" width="12.435" height="14.552" ry="0" color="#bebebe" fill="none" opacity=".9" overflow="visible" stroke="#ed4000"/>
 </g>
 <path d="m8.2498 5.0287c-0.256 5e-3 -0.51 0.015-0.676 0.04-0.748 0.114-1.346 0.376-1.732 0.758a1.54 1.54 0 0 0-0.419 0.72c-0.045 0.174-0.06 0.575-0.013 0.729 0.157 0.539 0.529 0.953 1.23 1.37 0.298 0.175 0.528 0.291 1.19 0.59 0.795 0.357 1.037 0.501 1.15 0.68 0.044 0.073 0.06 0.11 0.054 0.197-0.012 0.138-0.081 0.207-0.243 0.266-0.109 0.038-0.147 0.05-0.352 0.05-0.375-4e-3 -0.705-0.074-1.163-0.237a4.232 4.232 0 0 1-0.906-0.444c-0.265-0.173-0.286-0.18-0.365-0.138-0.06 0.033-0.492 0.418-0.811 0.73-0.208 0.203-0.211 0.244-0.068 0.384 0.142 0.14 0.54 0.435 0.758 0.562 0.236 0.139 0.395 0.217 0.662 0.315 0.448 0.166 0.824 0.235 1.528 0.295 0.16 0.013 0.732 0.015 0.933 0 1.102-0.088 2.001-0.448 2.474-0.975 0.17-0.187 0.272-0.347 0.352-0.572 0.078-0.217 0.098-0.646 0.04-0.906-0.095-0.421-0.348-0.802-0.757-1.123-0.41-0.322-0.826-0.536-1.825-0.936-0.698-0.278-0.96-0.426-1.028-0.581-0.037-0.083-0.015-0.23 0.04-0.286 0.11-0.111 0.322-0.151 0.596-0.118 0.51 0.063 1.166 0.297 1.744 0.62 0.112 0.062 0.22 0.114 0.243 0.119 0.094 0.024 0.15-0.013 0.528-0.444 0.463-0.53 0.458-0.509 0.203-0.69-0.76-0.544-1.64-0.86-2.65-0.955a7.062 7.062 0 0 0-0.717-0.02z" fill="#ffb27c"/>
 <path d="m8.4666 2.3809h0.26458v12.171h-0.26458z" opacity=".15" stroke-width=".26458"/>
</svg>
