<svg xmlns="http://www.w3.org/2000/svg" width="64" height="64"><defs><linearGradient id="a"><stop offset="0" stop-color="#791235"/><stop offset="1" stop-color="#dd3b27"/></linearGradient><linearGradient id="b"><stop offset="0" stop-color="#fff"/><stop offset=".091" stop-color="#fff" stop-opacity=".235"/><stop offset=".955" stop-color="#fff" stop-opacity=".157"/><stop offset="1" stop-color="#fff" stop-opacity=".392"/></linearGradient></defs><rect ry="0" rx="0" y="988.362" height="64" width="64" opacity=".75" fill="none" transform="translate(0 -988.362)"/><path d="M8.991 1.009l46.01.004v57.985H8.992V1.008z" fill="#51a7d3"/><path d="M8.5.5l47 .003V59.5h-47V.5z" opacity=".85" fill="none" stroke="#236789" stroke-linejoin="round"/><path d="M8.991 1.009L17 1.013v57.985H8.991V1.008z" fill="#3f3f3f" stroke="#2c2c2c" stroke-width="2" stroke-linejoin="round" paint-order="markers stroke fill"/><path d="M8.991 1.009L17 1.013v57.985H8.991V1.008z" fill="#3f3f3f" paint-order="markers stroke fill"/><path d="M31.333 11.63c-1.46 0-2.26.007-2.794.144-1.09.282-1.785.932-2.088 1.967-.085.29-.094.68-.122 2.733l-.035 2.12-.766.018-.523.035v1.897c-.01 1.337-.009 1.932.035 1.985.045.054.03.076.54.087l.714.017.017 13.093c.008 7.04.02 12.824.035 12.863.021.056.548.081 2.49.07l2.454-.018.034-12.863.035-13.145.714-.017c.51-.012.434-.033.479-.087.043-.053.062-.648.052-1.985l-.018-1.897-.478-.035-.749-.017-.017-.746c-.017-1.03.043-1.592.191-1.88.12-.23.376-.345.888-.383l.177.005.006-1.954c.01-1.36-.01-2.004-.01-2.004s-.18-.003-1.26-.003zm4 0v19c0 14.225-.021 17.916.03 17.969.093.097 4.669.097 4.763 0 .044-.046.06-.306.06-.813 0-.59.033-.75.09-.75.04 0 .203.154.362.344.602.718 1.443 1.31 2.231 1.531.466.131 1.496.114 2.02-.031 1.18-.327 2.04-1.146 2.354-2.344.09-.344.09-1.09.09-12.75s0-12.405-.09-12.75c-.328-1.25-1.317-2.134-2.565-2.406-.554-.12-1.625-.064-2.05.094-.751.278-1.454.562-2.02 1.265-.188.234-.335.188-.275.64.003.024 0-1.977 0-4.437 0-4.363.004-4.562.004-4.562zm7 12.437c-.003.53.07 18.788 0 19.344-.028.229-.026.558-.097.719-.11.249-.177.342-.422.469a1.12 1.12 0 0 1-.874.062c-.266-.083-.423-.214-.573-.531l-.15-.313v-9.906c-.01-6.79.029-9.967.03-10.156.005-1.473 2.1-1.597 2.086.312z" fill="#fff"/></svg>