<svg xmlns="http://www.w3.org/2000/svg" width="64" height="64" viewBox="0 0 16.933 16.933"><g transform="translate(0 -261.504) scale(.26458)"><path d="M8.991 989.371l46.01.004v57.985H8.992v-57.989z" fill="#fafafa"/><path d="M6.5.5l35 .003v44.003h-35V.5z" fill="none" stroke="#4f6698" stroke-width=".745" stroke-linejoin="round" stroke-opacity=".267" transform="matrix(1.34284 0 0 1.34075 -.228 988.192)"/><rect ry="0" rx="0" y="988.362" height="64" width="64" opacity=".75" fill="none"/></g><g fill="#57688e" fill-opacity=".471" stroke-width=".427"><path d="M10.692 4.262a1.73 1.73 0 0 0-.162.194l-.132.174-.047-.032c-.066-.044-.129-.054-.189-.027-.04.018-.138.142-.774.979a42.55 42.55 0 0 0-.728.97c0 .006.162.133.357.281l.357.271.475-.625c.26-.344.478-.622.483-.618.017.012.046.283.04.37a.904.904 0 0 1-.04.19c-.033.101-.037.108-.626.885-.325.43-.596.795-.6.81-.015.04 0 .114.03.157.05.073.175.096.246.045.05-.036 1.215-1.587 1.253-1.668.108-.231.132-.528.066-.82a1.896 1.896 0 0 0-.095-.307c-.01-.022.007-.05.116-.194.103-.138.126-.177.128-.213.005-.077-.018-.12-.093-.178l-.07-.055.14-.186c.115-.154.14-.194.142-.23.007-.153-.151-.252-.277-.173"/><path d="M7.483 8.058c-.837 1.104-.956 1.267-1.033 1.408-.154.28-.322.707-.435 1.097-.072.25-.075.228.024.175.308-.164.71-.43.944-.627.23-.193.268-.242 1.241-1.523l.936-1.233-.36-.273c-.198-.15-.362-.273-.365-.272-.003 0-.431.562-.952 1.248m.935 1.612a.631.631 0 0 0-.384.3 1.301 1.301 0 0 0-.075.186 1.9 1.9 0 0 1-.039.122c-.01.014-.288.08-.45.108-.384.067-.488.092-.525.127-.074.068-.017.136.087.106.028-.009.146-.032.26-.052.114-.02.288-.055.387-.078a.971.971 0 0 1 .187-.034.813.813 0 0 1-.04.176l-.046.168-.105.045a1.34 1.34 0 0 0-.182.098c-.13.086-.156.194-.064.264.05.038.189.037.276 0 .077-.035.12-.083.18-.21.032-.066.056-.1.076-.105.016-.006.153-.032.306-.063l.31-.064c.03-.007.033-.006.024.022a.735.735 0 0 1-.057.109.315.315 0 0 0-.047.115c0 .043.036.086.066.075a.08.08 0 0 1 .033-.009.255.255 0 0 0 .068-.05c.057-.052.196-.304.196-.356 0-.027.02-.034.033-.013.004.007.037.02.071.028.05.013.063.022.063.045 0 .043.071.106.134.118a.32.32 0 0 0 .178-.029c.024-.01.025-.007.017.03a.897.897 0 0 1-.09.158 2.288 2.288 0 0 0-.232.45c-.023.082-.013.143.03.172.038.025.102.014.136-.022a4.34 4.34 0 0 0 .246-.52.563.563 0 0 1 .156-.237c.078-.082.103-.102.086-.07-.027.06-.026.106.005.134.065.06.16 0 .242-.148.049-.09.085-.116.266-.201l.095-.043-.01.051a1.081 1.081 0 0 1-.072.175c-.065.138-.078.226-.039.3.027.052.055.053.183.01.178-.06.41-.198.47-.277.082-.112.107-.22.057-.255-.052-.038-.08-.022-.146.074a.837.837 0 0 1-.3.283c-.05.026-.093.043-.097.038a5.018 5.018 0 0 1 .165-.445.281.281 0 0 0 .023-.08c0-.04-.05-.084-.09-.084a.958.958 0 0 0-.204.084c-.19.095-.178.103-.13-.075.03-.11.02-.139-.046-.146-.064-.007-.09.015-.148.119a.822.822 0 0 1-.183.218c-.127.117-.132.121-.162.1-.045-.032-.07-.027-.178.027-.106.053-.141.06-.168.028-.022-.026.013-.04.207-.078.187-.036.21-.046.21-.085 0-.062-.05-.122-.142-.163-.159-.07-.177-.075-.247-.057-.075.02-.186.127-.202.194-.015.069-.062.049-.062-.028a.243.243 0 0 0-.062-.127c-.047-.032-.124.038-.182.165l-.046.099-.102.022c-.134.03-.522.107-.574.117-.034.006-.04.006-.032-.017l.039-.137c.043-.172.055-.195.118-.217a6.14 6.14 0 0 0 .394-.169.86.86 0 0 0 .14-.104c.14-.131.162-.252.062-.341a.424.424 0 0 0-.08-.056.59.59 0 0 0-.24-.014zm.179.191c.028.028.028.03.003.083a.323.323 0 0 1-.105.106c-.085.058-.35.165-.36.146-.01-.032.075-.223.13-.284.072-.082.093-.09.208-.084.074.007.103.012.124.034m-.908 1.158c-.018.034-.065.06-.091.05-.03-.013-.023-.03.026-.055.064-.032.084-.03.066.007z"/></g></svg>