<svg width="64" height="64" version="1.1" viewBox="0 0 64 64" xmlns="http://www.w3.org/2000/svg">
 <rect y="-.012032" width="64" height="64" rx="0" ry="0" fill="none" opacity=".75"/>
 <path d="m8.5003 0.49889 46.999 0.00378v59h-46.996v-59z" fill="none" opacity=".3" stroke-width="3.7796"/>
 <path d="m8.9917 1.0507 46.013 0.00378v57.987h-46.013z" fill="#35677f" stroke-width="3.7796"/>
 <path d="m8.502 0.54186 47.001 0.004022v58.998h-47.001z" fill="none" stroke="#2b4b5a" stroke-linejoin="round" stroke-opacity=".8" stroke-width=".99967"/>
 <path d="m15.001 9.0408v1.0016h3.19v-1.0016zm3.6095 0v1.0016h3.0199v-1.0016zm3.4394 0v1.0016h2.6457v-1.0016zm3.0615 0v1.0016h1.1755v-1.0016zm1.5988 0v1.0016h2.6004v-1.0016zm3.0615 0v1.0016h6.7164v-1.0016zm-14.771 3.001v1.0016h5.076v-1.0016zm5.5787 0v1.0016h2.4341v-1.0016zm2.899 0v1.0016h1.1339v-1.0016zm1.6366 0v1.0016h2.1808v-1.0016zm2.6835 0v1.0016h2.1846v-1.0016zm2.6457 0v1.0016h3.5642v-1.0016zm4.0706 0v1.0016h4.6565v-1.0016zm-19.514 3.001v0.99782h5.624v-0.99782zm6.0436 0v0.99782h6.0398v-0.99782zm-6.0474 3.001v0.99782h3.1068v-0.99782zm3.5264 0v0.99782h2.899v-0.99782zm3.3185 0v0.99782h2.5588v-0.99782zm5.2423 14.997v1.0016h3.1522v-1.0016zm3.5679 0v1.0016h2.9368v-1.0016zm3.3563 0v1.0016h2.4794v-1.0016zm-6.9242 3.001v1.0016h2.521v-1.0016zm2.9405 0v1.0016h6.4631v-1.0016zm6.8789 0v1.0016h4.9513v-1.0016zm-9.8194 3.001v0.99782h3.2731v-0.99782zm3.738 0v0.99782h5.745v-0.99782zm6.1683 0v0.99782h3.9421v-0.99782zm-9.9026 3.001v0.99782h2.5172v-0.99782zm2.9368 0v0.99782h2.5588v-0.99782zm2.9783 0v0.99782h3.6511v-0.99782zm4.0706 0v0.99782h0.75592v-0.99782zm1.1717 0v0.99782h4.7434v-0.99782zm-11.244 8.9955v1.0016h3.2731v-0.99782zm3.6927 0v1.0016h3.0237v-0.99782zm3.4848 0v1.0016h2.6004v-0.99782zm3.0237 0v1.0016h4.15v-0.99782zm4.6111 0v1.0016h6.7579v-0.99782zm-26.812-29.999v1.0016h4.1122v-1.0016zm0 3.001v1.0016h4.1538v-1.0054zm4.5733-3.001v1.0016h7.5101v-1.0016zm0.04157 3.001v1.0016h6.8411v-1.0054zm1.595 20.999v1.0016h6.1683v-1.0016zm6.6294 0v1.0016h2.4341v-1.0016zm2.8952 0v1.0016h5.7941v-1.0016zm6.2552 0v1.0016h3.9875v-1.0016zm4.407 0v1.0016h1.5496v-1.0016zm2.0145 0v1.0016h0.92222v-1.0016zm1.3418 0v1.0016h2.4756v-1.0016zm-21.529 3.001v1.0016h1.0923v-1.0016zm1.3833 0v1.0016h2.1846v-1.0016zm2.521 0v1.0016h2.1808v-1.0016zm2.8536 0v1.0016h3.481v-1.0016zm3.9005 0v1.0016h4.5355v-1.0016zm5.1629 0v1.0016h3.0615v-1.0016zm3.4394 0v1.0016h0.71434v-1.0016zm-27.485 3.001h4.0782v0.99782h-4.082zm3.6927-24v0.99782h3.0237v-0.99782zm-3.6927 3.001v0.99782h1.3418v-0.99404zm4.2369 2.9972v1.0016h2.4756v-1.0016zm0.17008 3.001v1.0016h3.6473v-1.0016zm-0.46489 3.001v0.99782h2.7704v-0.99782zm-0.50269 3.001v0.99782h2.8536v-0.99782zm-3.4394 2.9972v1.0016h5.745v-1.0016zm0 3.001v1.0016h4.9513v-1.0016zm5.3292 0v1.0016h2.3925v-1.0016zm-0.83907 3.001v0.99782h4.4902v-0.99782zm-4.4902-24v0.99782h3.1408v-0.99782zm0 5.9982v1.0016h3.6927v-1.0016zm0 3.001v1.0016h3.9421v-1.0016zm0 3.001v0.99782h3.4016v-0.99782zm0 3.001v0.99782h2.9783v-0.99782z" fill="#fff" stroke-width="3.7796"/>
</svg>
