<svg xmlns="http://www.w3.org/2000/svg" width="64" height="64" viewBox="0 0 16.933 16.933"><g transform="translate(0 -261.504) scale(.26458)"><path d="M8.991 989.371l46.01.004v57.985H8.992v-57.989z" fill="#fafafa"/><path d="M6.5.5l35 .003v44.003h-35V.5z" fill="none" stroke="#4f6698" stroke-width=".745" stroke-linejoin="round" stroke-opacity=".267" transform="matrix(1.34284 0 0 1.34075 -.228 988.192)"/><rect ry="0" rx="0" y="988.362" height="64" width="64" opacity=".75" fill="none"/></g><path style="marker:none" d="M5.29 2.118v1.058h1.06V2.118zm1.06 1.058v1.058h1.058V3.176zm1.058 0h1.059V2.118h-1.06zm1.059 0v1.058h1.058V3.176zm1.058 0h1.058V2.118H9.524zm1.058 0v1.058h1.059V3.176zm1.059 0H12.7V2.118h-1.058zm0 1.058v1.059H12.7V4.234zm0 1.059h-1.059V6.35h1.059zm0 1.058v1.058H12.7V6.351zm0 1.058h-1.059v1.059h1.059zm0 1.059v1.058H12.7V8.468zm0 1.058h-1.059v1.058h1.059zm0 1.058v1.059H12.7v-1.059zm0 1.059h-1.059V12.7h1.059zm0 1.058v1.058H12.7v-1.058zm-1.059 0H9.524v1.058h1.058zm-1.058 0v-1.058H8.466V12.7zm-1.058 0h-1.06v1.058h1.059zm-1.059 0v-1.058H6.35V12.7zm-1.058 0H5.291v1.058h1.058zm-1.058 0v-1.058h-1.06V12.7zm0-1.058H6.35v-1.059H5.291zm0-1.059V9.526h-1.06v1.058zm0-1.058H6.35V8.468H5.291zm0-1.058V7.409h-1.06v1.059zm0-1.059H6.35V6.351H5.291zm0-1.058V5.293h-1.06V6.35zm0-1.058H6.35V4.234H5.291zm0-1.059V3.176h-1.06v1.058zM6.35 5.293V6.35h1.058V5.293zm1.058 0h1.059V4.234h-1.06zm1.059 0V6.35h1.058V5.293zm1.058 0h1.058V4.234H9.524zm0 1.058v1.058h1.058V6.351zm0 1.058H8.466v1.059h1.058zm0 1.059v1.058h1.058V8.468zm0 1.058H8.466v1.058h1.058zm0 1.058v1.059h1.058v-1.059zm-1.058 0h-1.06v1.059h1.059zm-1.059 0V9.526H6.35v1.058zm0-1.058h1.059V8.468h-1.06zm0-1.058V7.409H6.35v1.059zm0-1.059h1.059V6.351h-1.06z" color="#000" overflow="visible" fill="#c3cadb"/></svg>