<svg xmlns="http://www.w3.org/2000/svg" height="64" width="64"><defs><linearGradient id="a"><stop offset="0" stop-color="#791235"/><stop offset="1" stop-color="#dd3b27"/></linearGradient><linearGradient id="b"><stop offset="0" stop-color="#fff"/><stop offset=".091" stop-color="#fff" stop-opacity=".235"/><stop offset=".955" stop-color="#fff" stop-opacity=".157"/><stop offset="1" stop-color="#fff" stop-opacity=".392"/></linearGradient></defs><rect ry="0" rx="0" y="988.362" height="64" width="64" opacity=".75" fill="none" transform="translate(0 -988.362)"/><path d="M8.991 1.009l46.01.004v57.985H8.992V1.008z" fill="#eb7867"/><path d="M8.5.5l47 .003V59.5h-47V.5z" opacity=".85" fill="none" stroke="#d3221d" stroke-linejoin="round"/><path d="M8.991 1.009L17 1.013v57.985H8.991V1.008z" fill="#3f3f3f" stroke="#2c2c2c" stroke-width="2" stroke-linejoin="round" paint-order="markers stroke fill"/><path d="M8.991 1.009L17 1.013v57.985H8.991V1.008z" fill="#3f3f3f" paint-order="markers stroke fill"/><path d="M36.711 16.003l-3.022 4.86-5.408-2.282.608 6.03-5.467.992 4 4.119-4.681 4.43 6.207.992-.978 6.282 5.541-2.904 2.889 5.481 2.889-5.407 5.17 2.756-.118-5.897 5.6-.681L46 30.092l3.822-4.489-5.422-1.051.489-5.778-5.467 2.148z" fill="#fff" fill-rule="evenodd"/></svg>