<svg width="64" height="64" version="1.1" viewBox="0 0 64 64" xmlns="http://www.w3.org/2000/svg">
 <rect y="-.012027" width="64" height="64" rx="0" ry="0" fill="none" opacity=".75"/>
 <path d="m8.9992 1.0016h46.002v59h-45.998v-59z" color="#000000" fill="#8542c2" overflow="visible" stroke-width="3.7796"/>
 <path d="m8.5003 0.49889 46.999 0.00378v59.997h-46.996v-60.001z" color="#000000" fill="none" overflow="visible" stroke="#643191" stroke-linecap="round" stroke-linejoin="round" stroke-width="1.0016"/>
 <path d="m32 19.501c-6.075 0-11 1.343-11 3v10a11 3 0 0 0 1 1.2422 11 3 0 0 0 0.01172 0.0059 11 3 0 0 0 0.47656 0.25195 11 3 0 0 0 0.03125 0.01367 11 3 0 0 0 0.55078 0.23242 11 3 0 0 0 0.06445 0.02344 11 3 0 0 0 0.58984 0.20117 11 3 0 0 0 0.13281 0.04102 11 3 0 0 0 0.65039 0.17969 11 3 0 0 0 0.09961 0.02539 11 3 0 0 0 0.77344 0.17578 11 3 0 0 0 0.05273 0.0098 11 3 0 0 0 0.81445 0.15039 11 3 0 0 0 0.13867 0.02344 11 3 0 0 0 0.7793 0.11523 11 3 0 0 0 0.2207 0.0293 11 3 0 0 0 0.73633 0.08203 11 3 0 0 0 0.36719 0.03711 11 3 0 0 0 0.53906 0.04492 11 3 0 0 0 0.5918 0.04102 11 3 0 0 0 0.49023 0.02539 11 3 0 0 0 0.57617 0.02344 11 3 0 0 0 0.46289 0.01367 11 3 0 0 0 0.84962 0.01163 11 3 0 0 0 0.95898-0.01367 11 3 0 0 0 0.41406-0.01367 11 3 0 0 0 0.7168-0.0293 11 3 0 0 0 0.3457-0.02148 11 3 0 0 0 0.70703-0.04883 11 3 0 0 0 0.31836-0.0293 11 3 0 0 0 0.76758-0.07617 11 3 0 0 0 0.17969-0.02148 11 3 0 0 0 0.80859-0.10742 11 3 0 0 0 0.21289-0.03516 11 3 0 0 0 0.67773-0.11133 11 3 0 0 0 0.3125-0.06055 11 3 0 0 0 0.5957-0.125 11 3 0 0 0 0.19531-0.04687 11 3 0 0 0 0.66211-0.16797 11 3 0 0 0 0.01367-0.0039 11 3 0 0 0 0.02344-0.0078 11 3 0 0 0 0.70117-0.21875 11 3 0 0 0 0.63672-0.24414 11 3 0 0 0 2e-3 0 11 3 0 0 0 0.0059-2e-3 11 3 0 0 0 0.53516-0.25391 11 3 0 0 0 0.0059-0.0039 11 3 0 0 0 0.203-0.11521 11 3 0 0 0 1-1.2422v-10c0-1.657-4.925-3-11-3m0 16h-1v3h1v1h-8v-1h-3v3h3v-1h16v1h3v-3h-3v1h-7v-1h1v-3zm0-15c5.523 0 10 0.895 10 2s-4.477 2-10 2-10-0.895-10-2 4.477-2 10-2m-10 3.242c1.784 1.069 5.692 1.756 10 1.758 4.308-1e-3 8.216-0.688 10-1.758v3.758c0 1.105-4.477 2-10 2s-10-0.895-10-2zm0 5c1.784 1.069 5.692 1.756 10 1.758 4.308-1e-3 8.216-0.688 10-1.758v3.758a10 2 0 0 1-10 2 10 2 0 0 1-10-2v-2zm10 7.758h1v1h-1zm-10 3h1v1h-1zm19 0h1v1h-1z" fill="#fff" opacity=".75"/>
</svg>
