<svg width="64" height="64" version="1.1" viewBox="0 0 64 64" xmlns="http://www.w3.org/2000/svg">
 <rect y="-.012027" width="64" height="64" rx="0" ry="0" fill="none" opacity=".75"/>
 <path d="m8.9992 1.0016h46.002v59h-45.998v-59z" color="#000000" fill="#3d58a4" overflow="visible" stroke-width="3.7796"/>
 <path d="m8.5003 0.49889 46.999 0.00378v59.997h-46.996v-60.001z" color="#000000" fill="none" overflow="visible" stroke="#2f437f" stroke-linecap="round" stroke-linejoin="round" stroke-width="1.0016"/>
 <path d="m22 19.501c-0.554 0-1 0.446-1 1v20c0 0.554 0.446 1 1 1h20c0.554 0 1-0.446 1-1v-20c0-0.554-0.446-1-1-1zm0 1h20v20h-20zm15.5 1.5-2.5 2.5h-6.05a2.5 2.5 0 0 0-2.4492-2 2.5 2.5 0 0 0-2.5 2.5 2.5 2.5 0 0 0 2 2.4453v9.05h4v2h5v-2h3v-9l2.5-2.5zm0 1.199 1.801 1.801-1.801 1.801-1.5-1.5v-0.602zm-11 0.30078a1.5 1.5 0 0 1 1.5 1.5 1.5 1.5 0 0 1-1.5 1.5 1.5 1.5 0 0 1-1.5-1.5 1.5 1.5 0 0 1 1.5-1.5m2.445 2h6.05l2 2v8h-2v-2h-5v2h-3v-8.05a2.5 2.5 0 0 0 1.9453-1.9492m2.055 9h3v3h-3z" fill="#fff" opacity=".75"/>
</svg>
