<svg xmlns="http://www.w3.org/2000/svg" width="64" height="64"><g transform="translate(0 -988.362)"><path d="M8.991 989.371l46.01.004v57.985H8.992v-57.989z" fill="#fafafa"/><path d="M6.5.5l35 .003v44.003h-35V.5z" fill="none" stroke="#4f6698" stroke-width=".745" stroke-linejoin="round" stroke-opacity=".267" transform="matrix(1.34284 0 0 1.34075 -.228 988.192)"/><rect ry="0" rx="0" y="988.362" height="64" width="64" opacity=".75" fill="none"/></g><rect width="30" height="5" x="17" y="19" rx="1" ry="1" fill="#4f6596" fill-opacity=".267" paint-order="markers stroke fill"/><rect ry="0" rx="0" y="20" x="18" height="3" width="28" fill="#f2f2f2" paint-order="markers stroke fill"/><rect ry="1" rx="1" y="26" x="17" height="5" width="30" fill="#4f6596" fill-opacity=".267" paint-order="markers stroke fill"/><rect width="28" height="3" x="18" y="27" rx="0" ry="0" fill="#f2f2f2" paint-order="markers stroke fill"/><rect width="30" height="5" x="17" y="33" rx="1" ry="1" fill="#4f6596" fill-opacity=".267" paint-order="markers stroke fill"/><rect ry="0" rx="0" y="34" x="18" height="3" width="28" fill="#f2f2f2" paint-order="markers stroke fill"/><rect ry="1" rx="1" y="40" x="17" height="5" width="30" fill="#4f6596" fill-opacity=".267" paint-order="markers stroke fill"/><rect width="28" height="3" x="18" y="41" rx="0" ry="0" fill="#f2f2f2" paint-order="markers stroke fill"/></svg>