<svg width="64" height="64" version="1.1" xmlns="http://www.w3.org/2000/svg">
 <rect y="-.012027" width="64" height="64" rx="0" ry="0" fill="none" opacity=".75"/>
 <path d="m8.9992 1.0016h46.002v59h-45.998v-59z" color="#000000" fill="#ff8830" overflow="visible" stroke-width="3.7796"/>
 <path d="m8.5003 0.49889 46.999 0.00378v59.997h-46.996v-60.001z" color="#000000" fill="none" overflow="visible" stroke="#c35e13" stroke-linecap="round" stroke-linejoin="round" stroke-opacity=".8" stroke-width="1.0016"/>
 <path d="m17.178 25.294c-2.8009-1.11e-4 -5.5762 0.53943-8.1777 1.5898v3.1836c2.4265-1.2598 4.9643-1.6913 8.1777-1.7129 0.29464-0.0032 0.5745 0.01829 0.86914 0.03125-0.04164 5.338-0.86591 16.338-3.8027 20.354-4.2467-11.062-3.7304-9.0909-0.86719 0.33398-0.21453 0.11798-0.41561 0.25946-0.59961 0.42188l-1.3164-0.99805 0.6582 1.9121c-1.0419 0.15889-2.0814 0.15756-3.1191 0.15039v1.1348c0.99303-0.32071 2.0028-0.39211 3.1504 0.26367 0.04164 0.21067 0.14736 0.39467 0.24023 0.57617l-3.3906 1.3828v0.74805c1.3029-0.45113 2.5939-0.86031 3.8105-1.5234 0.19216 0.17502 0.44778 0.30054 0.7168 0.39453l-4.1196 6.4628h1.1682c1.1487-1.596 1.9814-4.6051 3.5822-6.3418 0.22418 0.01945 0.48348 0.05391 0.74609 0.02148-0.23689 2.1041-0.18233 4.2314 0.16211 6.3203h2.248c-0.76491-2.1186-1.6258-4.2171-1.5098-6.5039 0.8519 0.33059 1.2962 0.75813 2.2441 1.4258-0.42595-0.64821-0.9474-1.0706-1.3125-1.8809 0.0842-0.13146 0.15302-0.27238 0.20508-0.41992 4.362 1.6789 8.4457 2.1504 12.875 4.8438l2.4219 1.8164c-0.16405 0.2462-0.33735 0.48596-0.51953 0.71875h3.5742c0.09027-0.05793 0.18011-0.11652 0.26953-0.17578 2.4125-3.6362 3.704-7.9153 3.7109-12.295 0-12.209-9.8481-22.234-22.092-22.234h-0.0039zm3.627 3.4219c7.302 1.452 13.675 7.255 15.059 14.055l-0.33008 0.42383c-0.6149 1.076-6.3794 2.9359-8.4707 3.6035-3.9937 0.86536-6.8539 2.9179-10.688 3.0605-0.2248-0.31684-0.51044-0.58455-0.83984-0.78711 2.3315-4.1939 1.5673-15.41 5.2695-20.355zm-11.805 3.1172v3.002c1.7111 4.5413 1.6459 3.6289 0-3.002zm26.297 12.816h2e-3l0.86523 0.8457c0 0.68062-0.07148 1.3461-0.18359 2.0332-0.56687 3.6267-1.2869 7.2114-2.7793 10.145l-3.1738-1.0566c-3.619-1.7826-9.0432-2.9442-12.902-5.5176 5.531-3.2119 12.103-4.5046 18.172-6.4492z" fill="#fff" stroke-width="3.0418"/>
</svg>
