<svg width="64" height="64" version="1.1" viewBox="0 0 64 64" xmlns="http://www.w3.org/2000/svg">
 <rect y="-.012027" width="64" height="64" rx="0" ry="0" fill="none" opacity=".75"/>
 <path d="m8.9992 1.0016h46.002v59h-45.998v-59z" color="#000000" fill="#585858" overflow="visible" stroke-width="3.7796"/>
 <path d="m8.5003 0.49889 46.999 0.00378v59.997h-46.996v-60.001z" color="#000000" fill="none" overflow="visible" stroke="#404040" stroke-linecap="round" stroke-linejoin="round" stroke-width="1.0016"/>
 <path d="m30.3 18.502c-1.254 0-2.889 0.693-4.384 1.857-0.897 0.377-1.527 1.249-1.527 2.263 0 0.318 0.061 0.628 0.179 0.917-1.55 0.294-2.724 1.629-2.724 3.23 0 0.333 0.051 0.661 0.152 0.978-0.639 0.617-1 1.454-1 2.339 0 0.692 0.22 1.334 0.595 1.865-0.389 0.55-0.595 1.193-0.595 1.868 0 1.197 0.667 2.293 1.724 2.871-0.018 0.148-0.027 0.297-0.027 0.446 0 1.614 1.078 3.041 2.64 3.527 0.68 1.137 1.916 1.838 3.27 1.838 1.484 0 2.771-0.839 3.393-2.057 0.622 1.218 1.909 2.057 3.393 2.057 1.354 0 2.592-0.701 3.272-1.838 1.563-0.486 2.638-1.913 2.638-3.527 0-0.149-9e-3 -0.298-0.027-0.446 1.057-0.578 1.724-1.675 1.724-2.871 0-0.676-0.204-1.318-0.593-1.868 0.374-0.53 0.593-1.173 0.593-1.865 0-0.885-0.361-1.723-1-2.339 0.101-0.317 0.152-0.645 0.152-0.978 0-1.6-1.174-2.936-2.724-3.23 0.118-0.289 0.179-0.599 0.179-0.917 0-1.014-0.63-1.886-1.527-2.263-1.495-1.164-3.129-1.857-4.384-1.857-0.697 0-1.316 0.336-1.697 0.85-0.381-0.514-0.999-0.85-1.697-0.85m0 0.778c0.716 0 1.299 0.57 1.299 1.27v5.03c-0.357-0.277-0.808-0.444-1.299-0.444-0.22 0-0.398 0.174-0.398 0.389s0.178 0.389 0.398 0.389c0.716 0 1.299 0.57 1.299 1.27v9.344c-0.494-0.624-1.191-1.094-2.01-1.31-0.212-0.056-0.431 0.067-0.488 0.275-0.057 0.207 0.069 0.421 0.281 0.477 1.306 0.343 2.217 1.505 2.217 2.826 0 1.615-1.344 2.929-2.995 2.929-1.115 0-2.13-0.602-2.65-1.569-0.052-0.096-0.143-0.166-0.25-0.194-1.305-0.343-2.215-1.504-2.215-2.824 0-0.197 0.02-0.396 0.06-0.589 0.037-0.179-0.058-0.359-0.228-0.433-0.929-0.404-1.529-1.304-1.529-2.296 0-0.451 0.119-0.882 0.347-1.264 0.594 0.512 1.371 0.824 2.223 0.824 0.22 0 0.398-0.174 0.398-0.389s-0.178-0.389-0.398-0.389c-1.418 0-2.57-1.129-2.57-2.515 0-0.746 0.337-1.45 0.924-1.929 0.133-0.108 0.178-0.288 0.113-0.444-0.126-0.302-0.189-0.62-0.189-0.944 0-1.386 1.152-2.513 2.57-2.513s2.572 1.127 2.572 2.513c0 0.215 0.178 0.389 0.398 0.389s0.398-0.174 0.398-0.389c0-1.744-1.395-3.174-3.151-3.283-0.159-0.26-0.242-0.557-0.242-0.864 0-0.693 0.43-1.288 1.043-1.546 0.024-7e-3 0.046-0.017 0.068-0.029 0.19-0.071 0.395-0.109 0.61-0.109 0.666 0 1.261 0.364 1.552 0.949 0.096 0.193 0.333 0.273 0.53 0.179 0.198-0.094 0.279-0.325 0.183-0.519-0.332-0.669-0.961-1.149-1.685-1.319 1.015-0.605 2.01-0.949 2.812-0.949m3.393 0c0.798 0 1.797 0.344 2.812 0.949-0.724 0.17-1.353 0.651-1.685 1.319-0.096 0.193-0.014 0.425 0.183 0.519 0.198 0.094 0.436 0.014 0.532-0.179 0.291-0.586 0.885-0.949 1.55-0.949 0.215 0 0.421 0.038 0.61 0.109 0.022 0.011 0.047 0.022 0.07 0.029 0.613 0.258 1.043 0.853 1.043 1.546 0 0.307-0.085 0.604-0.244 0.864-1.756 0.109-3.149 1.539-3.149 3.283 0 0.215 0.178 0.389 0.398 0.389s0.398-0.174 0.398-0.389c0-1.386 1.152-2.513 2.57-2.513s2.572 1.127 2.572 2.513c0 0.324-0.064 0.641-0.189 0.944-0.065 0.157-0.019 0.336 0.113 0.444 0.587 0.48 0.924 1.183 0.924 1.929 0 1.386-1.154 2.515-2.572 2.515-0.22 0-0.398 0.174-0.398 0.389s0.178 0.389 0.398 0.389c0.852 0 1.629-0.312 2.223-0.824 0.228 0.382 0.349 0.813 0.349 1.264 0 0.991-0.6 1.892-1.529 2.296-0.17 0.074-0.265 0.254-0.228 0.433 0.04 0.193 0.06 0.392 0.06 0.589 0 1.32-0.912 2.48-2.217 2.824-0.107 0.028-0.196 0.099-0.248 0.194-0.52 0.967-1.537 1.569-2.652 1.569-1.652 0-2.995-1.314-2.995-2.929 0-0.109-6e-3 -0.219-0.016-0.326 0.01-0.033 0.016-0.067 0.016-0.103v-12.841c0-0.7 0.583-1.27 1.299-1.27 0.22 0 0.398-0.174 0.398-0.389s-0.178-0.389-0.398-0.389c-0.49 0-0.941 0.167-1.299 0.444v-3.373c0-0.7 0.583-1.27 1.299-1.27m5.938 6.686c-0.22 0-0.398 0.174-0.398 0.389 0 1.386-1.152 2.513-2.57 2.513-0.697 0-1.349-0.266-1.837-0.753-0.154-0.153-0.407-0.156-0.564-6e-3s-0.16 0.396-6e-3 0.549c0.551 0.55 1.264 0.887 2.036 0.969 0.183 1.183 1.23 2.093 2.49 2.093 0.22 0 0.398-0.174 0.398-0.389s-0.178-0.389-0.398-0.389c-0.824 0-1.514-0.569-1.683-1.325 1.65-0.211 2.929-1.592 2.929-3.262 0-0.215-0.178-0.389-0.398-0.389m-14.42 0.416c-0.22 0-0.398 0.172-0.398 0.387 0 1.67 1.279 3.054 2.929 3.264-0.169 0.756-0.859 1.323-1.683 1.323-0.22 0-0.398 0.174-0.398 0.389s0.178 0.389 0.398 0.389c1.26 0 2.308-0.91 2.49-2.093 0.772-0.082 1.484-0.416 2.036-0.967 0.154-0.153 0.151-0.401-6e-3 -0.551s-0.408-0.148-0.562 6e-3c-0.488 0.487-1.14 0.755-1.837 0.755-1.418 0-2.572-1.129-2.572-2.515 0-0.215-0.178-0.387-0.398-0.387m8.483 5.804c-0.22 0-0.398 0.174-0.398 0.389s0.178 0.389 0.398 0.389c1.418 0 2.572 1.129 2.572 2.515 0 0.089-6e-3 0.177-0.016 0.265-1.234 0.489-2.106 1.673-2.106 3.052 0 0.215 0.178 0.389 0.398 0.389s0.398-0.174 0.398-0.389c0-1.386 1.154-2.515 2.572-2.515 0.22 0 0.398-0.174 0.398-0.389s-0.178-0.389-0.398-0.389c-0.153 0-0.305 0.011-0.452 0.031 0-0.019 2e-3 -0.037 2e-3 -0.055 0-1.815-1.511-3.293-3.368-3.293m-4.664 0.829c-1.856 0-3.368 1.478-3.368 3.293 0 0.019 2e-3 0.036 2e-3 0.055-0.148-0.019-0.299-0.031-0.452-0.031-0.22 0-0.398 0.174-0.398 0.389s0.178 0.389 0.398 0.389c1.418 0 2.572 1.129 2.572 2.515 0 0.215 0.178 0.389 0.398 0.389s0.398-0.174 0.398-0.389c0-1.379-0.872-2.564-2.106-3.052-9e-3 -0.088-0.016-0.176-0.016-0.265 0-1.386 1.154-2.515 2.572-2.515 0.22 0 0.398-0.174 0.398-0.389s-0.178-0.389-0.398-0.389" color="#000000" color-rendering="auto" fill="#e0e0e0" image-rendering="auto" opacity=".75" shape-rendering="auto" solid-color="#000000" style="isolation:auto;mix-blend-mode:normal"/>
</svg>
