<svg width="64" height="64" version="1.1" xmlns="http://www.w3.org/2000/svg">
 <g transform="translate(0 -988.36)">
  <path d="M8.991 989.371l46.01.004v57.985H8.992v-57.989z" fill="#fafafa"/>
  <path transform="matrix(1.3428 0 0 1.3408 -.228 988.19)" d="M6.5.5l35 .003v44.003h-35V.5z" fill="none" stroke="#4f6698" stroke-linejoin="round" stroke-opacity=".267" stroke-width=".745"/>
  <rect y="988.36" width="64" height="64" rx="0" ry="0" fill="none" opacity=".75"/>
 </g>
 <path d="m31.001 11.5h3.082zm3.596 0h2.56zm3.03 0h1.154zm1.58 0h2.648zm3.117 0h2.988zm3.457 0h3.203zm-14.781 3h2.655zm3.082 0h2.22zm2.692 0h2.174zm2.646 0h1.194zm1.621 0h2.391zm2.946 0h4.996zm-12.987 3h2.203zm2.631 0h3.373zm3.799 0h6.916zm7.344 0h4.226zm-13.774 3h1.971zm2.399 0h2.52zm2.947 0h6.318zm6.787 0h5.85zm-28.133 5h5.85zm6.319 0h6.318zm6.746 0h2.435zm2.935 0h3.996zm4.551 0h1.95zm2.502 0h3.947zm4.447 0h6.483zm-27.5 3h3.201zm3.672 0h2.945zm3.457 0h2.647zm3.074 0h1.153zm1.623 0h2.561zm3.075 0h6.7zm7.17 0h5.123zm5.548 0h1.625zm2.051 0h4.33zm-29.67 3h5.38zm5.807 0h5.764zm6.187 0h2.223zm2.649 0h5.422zm5.848 0h6.832zm7.3 0h6.21zm-27.79 3h5.849zm6.318 0h6.318zm6.746 0h2.517zm2.943 0h5.936zm6.318 0h4.057zm4.528 0h1.62zm2.049 0h0.894zm1.363 0h3.734zm-30.266 3h4.994zm5.55 0h2.39zm2.817 0h1.196zm1.665 0h2.177zm2.646 0h2.223zm2.647 0h3.544zm4.013 0h4.61zm5.037 0h3.075zm3.502 0h6.123zm-27.877 4.978h4.227zm4.655 0h6.916zm7.34 0h3.374zm3.802 0h2.203zm-15.796 3.022h4.994zm5.55 0h2.39zm2.817 0h1.196zm1.665 0h2.177zm2.646 0h2.223zm2.647 0h2.674zm-15.326 3h5.293zm5.764 0h1.666zm2.09 0h3.8zm4.226 0h5.92zm-12.08 3h5.293zm5.764 0h2.39zm2.818 0h3.754zm4.182 0h5.236z" fill="none" stroke="#4f6596" stroke-opacity=".267"/>
 <path d="m35.279 50.745c1.861-0.866 3.81-1.776 3.81-3.724 0-0.606-0.26-0.606-1.386-0.692-1.255-0.087-1.775-0.91-1.775-2.035 0-1.558 0.995-2.294 2.208-2.294 1.818 0 3.16 1.602 3.16 3.81 0 1.688-0.822 3.419-2.294 4.675-0.996 0.822-1.818 1.125-3.204 1.515zm7.705 0c1.862-0.866 3.81-1.776 3.81-3.724 0-0.606-0.26-0.606-1.386-0.692-1.255-0.087-1.774-0.91-1.774-2.035 0-1.558 0.995-2.294 2.207-2.294 1.818 0 3.16 1.602 3.16 3.81 0 1.688-0.822 3.419-2.294 4.675-0.996 0.822-1.818 1.125-3.203 1.515zm-21.966-38.488c-1.862 0.865-3.81 1.775-3.81 3.723 0 0.606 0.26 0.606 1.385 0.692 1.255 0.087 1.776 0.91 1.776 2.035 0 1.558-0.996 2.294-2.208 2.294-1.818 0-3.161-1.602-3.161-3.81 0-1.688 0.823-3.42 2.294-4.675 0.996-0.822 1.82-1.125 3.204-1.515zm7.706 0c-1.861 0.865-3.81 1.775-3.81 3.723 0 0.606 0.26 0.606 1.386 0.692 1.255 0.087 1.775 0.91 1.775 2.035 0 1.558-0.996 2.294-2.208 2.294-1.818 0-3.16-1.602-3.16-3.81 0-1.688 0.822-3.42 2.294-4.675 0.996-0.822 1.818-1.125 3.204-1.515z" fill="#4f6596" fill-opacity=".267"/>
 <path d="m30.662 16.195-1.291 1.666-2.0508-0.4668-0.55664 2.0293-2.0742 0.35547 0.26367 2.0879-1.7812 1.123 1.0449 1.8281-1.2168 1.7188 1.6621 1.2891-0.46289 2.0527 2.0293 0.55469 0.35547 2.0742 0.8125-0.10352v10.404l4.5938-3.3418 4.5938 3.3418v-9.832l0.09766 0.02344 0.55664-2.0293 2.0742-0.35742-0.26562-2.0879 1.7812-1.1211-1.043-1.8301 1.2148-1.7168-1.6621-1.291 0.46484-2.0508-2.0293-0.55664-0.35547-2.0723-2.0879 0.26367-1.123-1.7812-1.8281 1.043zm1.3379 4.3066a5 5 0 0 1 5 5 5 5 0 0 1-5 5 5 5 0 0 1-5-5 5 5 0 0 1 5-5z" color="#4d4d4d" color-rendering="auto" fill="#ffa1a1" fill-rule="evenodd" image-rendering="auto" opacity=".8" shape-rendering="auto" solid-color="#000000" stroke="#f05560" style="isolation:auto;mix-blend-mode:normal"/>
</svg>
