<svg version="1.1" viewBox="0 0 64 64" xmlns="http://www.w3.org/2000/svg">
 <g shape-rendering="auto">
  <circle cx="37" cy="32" r="24" color="#000000" color-rendering="auto" fill="#fbeaab" image-rendering="auto" stroke="#eccf60" stroke-width="2"/>
  <circle cx="37" cy="32" r="24" color="#000000" color-rendering="auto" fill="#fbeaab" image-rendering="auto"/>
  <path d="m5 7v50h50v-20h-4.096c-2.717 0-4.904-2.187-4.904-4.904v-0.191c0-2.717 2.187-4.904 4.904-4.904h4.096v-20z" color="#000000" color-rendering="auto" fill="#f3c53d" image-rendering="auto" stroke="#dbaa11" stroke-width="2"/>
  <path d="m5 7v50h50v-20h-4.096c-2.717 0-4.904-2.187-4.904-4.904v-0.191c0-2.717 2.187-4.904 4.904-4.904h4.096v-20z" color="#000000" color-rendering="auto" fill="#f3c53d" image-rendering="auto"/>
  <path d="m21 21v16.05c-0.635-0.648-1.517-1.053-2.5-1.053-1.939 0-3.5 1.561-3.5 3.5s1.561 3.5 3.5 3.5c1.905 0 3.437-1.509 3.49-3.4h0.01v-13.6h14v8.05c-0.635-0.648-1.517-1.053-2.5-1.053-1.939 0-3.5 1.561-3.5 3.5s1.561 3.5 3.5 3.5 3.5-1.561 3.5-3.5v-15.5h-15zm1 2h14v2h-14z" color="#000000" color-rendering="auto" fill="#fff" image-rendering="auto" opacity=".75" stroke-width="2"/>
 </g>
</svg>
