<svg width="64" height="64" version="1.1" xmlns="http://www.w3.org/2000/svg">
 <rect transform="translate(0 -988.36)" y="988.36" width="64" height="64" rx="0" ry="0" fill="none" opacity=".75"/>
 <path d="M8.991 1.009l46.01.004v57.985H8.992V1.008z" fill="#5f656d"/>
 <path d="M8.5.5l47 .003V59.5h-47V.5z" fill="none" opacity=".85" stroke="#2b3135" stroke-linejoin="round"/>
 <path d="m18 19c-0.554 0-1 0.446-1 1v20c0 0.554 0.446 1 1 1h28c0.554 0 1-0.446 1-1v-20c0-0.554-0.446-1-1-1h-28zm20 1a1 1 0 0 1 1 1 1 1 0 0 1-1 1 1 1 0 0 1-1-1 1 1 0 0 1 1-1zm3 0a1 1 0 0 1 1 1 1 1 0 0 1-1 1 1 1 0 0 1-1-1 1 1 0 0 1 1-1zm3 0a1 1 0 0 1 1 1 1 1 0 0 1-1 1 1 1 0 0 1-1-1 1 1 0 0 1 1-1zm-26 3h6v17h-6v-17zm7 0h21v17h-21v-17z" fill="#fff" fill-rule="evenodd" style="paint-order:fill markers stroke"/>
 <g transform="translate(-.62892)" fill="#fff" aria-label="X">
  <path d="m32 37h1.3233l1.4461-2.7012c0.25921-0.49113 0.51842-1.0096 0.80491-1.6098h0.05457c0.32742 0.60027 0.60027 1.1187 0.85948 1.6098l1.4734 2.7012h1.3915l-2.9195-5.1023 2.7285-4.8977h-1.3233l-1.337 2.5512c-0.24557 0.46385-0.43656 0.88677-0.70941 1.4598h-0.05457c-0.32742-0.57299-0.53206-0.99591-0.79127-1.4598l-1.3643-2.5512h-1.3915l2.7285 4.8295z" fill="#fff"/>
 </g>
</svg>
