<svg xmlns="http://www.w3.org/2000/svg" width="64" height="64" viewBox="0 0 16.933 16.933"><defs><linearGradient id="a"><stop offset="0" stop-color="#791235"/><stop offset="1" stop-color="#dd3b27"/></linearGradient><linearGradient id="b"><stop offset="0" stop-color="#fff"/><stop offset=".091" stop-color="#fff" stop-opacity=".235"/><stop offset=".955" stop-color="#fff" stop-opacity=".157"/><stop offset="1" stop-color="#fff" stop-opacity=".392"/></linearGradient></defs><g transform="translate(0 -261.504) scale(.26458)"><path d="M8.991 989.371l46.01.004v57.985H8.992v-57.989z" fill="#fafafa"/><path d="M6.5.5l35 .003v44.003h-35V.5z" fill="none" stroke="#4f6698" stroke-width=".745" stroke-linejoin="round" stroke-opacity=".267" transform="matrix(1.34284 0 0 1.34075 -.228 988.192)"/><rect ry="0" rx="0" y="988.362" height="64" width="64" opacity=".75" fill="none"/></g><path d="M4.233 2.381v.265h.844V2.38zm.955 0v.265h.8V2.38zm.91 0v.265h.7V2.38zm.811 0v.265h.311V2.38zm.422 0v.265h.688V2.38zm.81 0v.265h1.777V2.38zm-3.908.794v.265h1.344v-.265zm1.477 0v.265h.644v-.265zm.766 0v.265h.3v-.265zm.433 0v.265h.578v-.265zm.71 0v.265h.578v-.265zm.7 0v.265h.944v-.265zm1.077 0v.265h1.233v-.265zm-5.163.794v.264h1.488V3.97zm1.6 0v.264H7.43V3.97zm-1.6.793v.265h.822v-.265zm.933 0v.265h.766v-.265zm.877 0v.265h.677v-.265zm1.388 3.97v.264h.833V8.73zm.944 0v.264h.777V8.73zm.888 0v.264h.655V8.73zm-1.832.793v.265h.666v-.265zm.777 0v.265h1.71v-.265zm1.821 0v.265h1.31v-.265zm-2.598.794v.264h.866v-.264zm.988 0v.264H9.94v-.264zm1.632 0v.264h1.044v-.264zm-2.62.793v.265h.666v-.265zm.777 0v.265h.678v-.265zm.789 0v.265h.966v-.265zm1.077 0v.265h.2v-.265zm.31 0v.265h1.255v-.265zM7.41 13.494v.264h.866v-.264zm.977 0v.264h.8v-.264zm.921 0v.264h.689v-.264zm.8 0v.264h1.099v-.264zm1.221 0v.264h1.788v-.264zM4.233 5.556v.265h1.088v-.265zm0 .794v.265h1.1V6.35zm1.211-.794v.265H7.43v-.265zm.01.794v.265h1.81V6.35zm.423 5.556v.265h1.632v-.265zm1.754 0v.265h.644v-.265zm.766 0v.265h1.532v-.265zm1.654 0v.265h1.055v-.265zm1.166 0v.265h.411v-.265zm.533 0v.265h.244v-.265zm.355 0v.265h.655v-.265zM6.41 12.7v.265h.288V12.7zm.366 0v.265h.577V12.7zm.666 0v.265h.577V12.7zm.755 0v.265h.922V12.7zm1.033 0v.265h1.199V12.7zm1.365 0v.265h.81V12.7zm.91 0v.265h.19V12.7zm-7.272.794h1.08v.264h-1.08zm.977-6.35v.264h.8v-.264zm-.977.793v.265h.356v-.265zm1.122.794v.265h.655V8.73zm.044.794v.265h.966v-.265zm-.122.794v.264h.733v-.264zm-.133.793v.265h.755v-.265zm-.91.794v.265h1.52v-.265zm0 .794v.265h1.31V12.7zm1.41 0v.265h.632V12.7zm-.223.794v.264H6.61v-.264zm-1.188-6.35v.264h.833v-.264zm0 1.587v.265h.977V8.73zm0 .794v.265h1.044v-.265zm0 .794v.264h.9v-.264zm0 .793v.265h.789v-.265z" fill="#b4bfd8" fill-opacity=".549"/><path d="M8.88 7.743c.431.496-.112.942-.112.942s1.093-.564.59-1.27c-.468-.66-.828-.987 1.119-2.116 0 0-3.056.763-1.596 2.444" fill="#f8981d"/><path d="M9.359 3.476s.927.927-.88 2.354c-1.449 1.144-.33 1.797 0 2.542-.846-.763-1.467-1.435-1.05-2.06.61-.918 2.304-1.363 1.93-2.836" fill="#f8981d"/><path d="M11.064 8.303a1.03 1.03 0 0 0-.384.06c-.094.033-.143.11-.143.11s.06-.024.192-.052c.54-.112 1.314.724-.36 1.594-.008.021-.034.044-.034.044 1.957-.514 1.572-1.715.729-1.756zm-3.716.085a3.243 3.243 0 0 0-1.294.332c-.916.444 2.266.646 3.913.212.172-.117.408-.218.408-.218s-.674.12-1.346.177c-.821.069-1.703.082-2.145.023-1.048-.14.574-.525.574-.525s-.039-.003-.11-.001zM7.08 9.4c-1.512.502.841 1.07 2.954.453a1.06 1.06 0 0 1-.368-.224c-1.032.2-1.629.193-2.384.115-.584-.06-.202-.344-.202-.344zm.213.977c-1.372.384.835 1.176 2.582.427a3.136 3.136 0 0 1-.49-.24c-.78.148-1.142.16-1.849.079-.584-.067-.243-.266-.243-.266zm-.887.648c-.59-.023-1.928.567-.785.752 3.562.578 6.494-.26 5.57-.677 0 0 .252.208-.278.37-1.009.305-4.198.397-5.084.011-.318-.139.279-.33.467-.371.196-.043.308-.035.308-.035a.378.378 0 0 0-.198-.05zm5.35.53s-.112.288-1.328.517c-1.372.258-3.065.228-4.068.062 0 0 .205.17 1.262.238 1.607.103 4.075-.057 4.134-.818z" fill="#5382a1"/></svg>