<svg xmlns="http://www.w3.org/2000/svg" width="64" height="64" viewBox="0 0 16.933 16.933"><rect width="64" height="64" y="988.362" rx="0" ry="0" opacity=".75" fill="none" transform="translate(0 -261.504) scale(.26458)"/><path d="M2.249.132l12.435.001v15.61H2.25V.133z" opacity=".3" fill="none"/><path d="M2.379.278l12.174.001v15.342H2.379V.278z" fill="#2095f2"/><path d="M6.5.5l35 .003v44.003h-35V.5z" fill="none" stroke="#1378c5" stroke-width=".745" stroke-linejoin="round" transform="matrix(.3553 0 0 .35474 -.06 -.034)"/><path d="M7.065 11.068c-.126-.033-.114-.069.095-.264.359-.336.419-.67.317-1.77-.082-.878-.1-.945-.237-.872-.298.16-.668-.046-1.09-.602-.209-.275-.228-.356-.193-.783.022-.263.067-.58.1-.705.05-.191.034-.227-.105-.227a.396.396 0 0 1-.268-.125c-.144-.173.112-.452.416-.452.123 0 .271-.056.328-.124.146-.176.368-.153.619.062.266.229.356.76.207 1.212-.169.512-.052.562.185.079.132-.27.319-.507.473-.598.14-.082.343-.292.453-.466.11-.174.248-.347.307-.385.18-.115.674-.273.858-.274.251-.005.588.292.648.565.029.13.18.434.336.677.157.243.285.484.285.536 0 .052.111.235.248.406.203.257.247.386.244.733-.004.477-.26 1.084-.355.84a.404.404 0 0 1 .028-.293c.093-.175.01-.952-.09-.85-.072.07-.118.828-.098 1.592.026.991-.022 1.926-.1 1.951-.2.064-.288-.101-.206-.387.123-.43.098-1.576-.04-1.757-.063-.084-.139-.297-.168-.474-.03-.177-.087-.342-.127-.366-.13-.08-.326.44-.326.865 0 .333-.05.486-.248.759-.28.386-.3.5-.124.647.138.115.165.377.046.45-.043.027-.154-.033-.247-.134-.133-.141-.17-.153-.17-.053 0 .151-.306.253-.475.16-.09-.051-.068-.096.097-.205.296-.194.267-.352-.128-.714-.308-.281-.335-.338-.284-.588.16-.793.159-.813-.026-.813-.12 0-.174.052-.174.17 0 .094-.04.247-.09.34-.09.166-.116.299-.33 1.655-.106.676-.132.702-.592.582m2.215-1.44c.106-.207.122-.384.076-.874-.06-.652-.105-.674-.284-.144a2.13 2.13 0 0 1-.264.526c-.197.252-.193.328.026.56.234.25.285.243.446-.068" fill="#fff"/></svg>