<svg width="64" height="64" version="1.1" viewBox="0 0 64 64" xmlns="http://www.w3.org/2000/svg">
 <rect y="-.012032" width="64" height="64" rx="0" ry="0" fill="none" opacity=".75"/>
 <path d="m8.9917 1.0091h46.013v57.99h-46.013z" fill="#84603e" stroke-width="3.7796"/>
 <path d="m8.502 0.50029 47.001 0.004022v58.998h-47.001z" fill="none" stroke="#453423" stroke-linejoin="round" stroke-opacity=".8" stroke-width=".99967"/>
 <path d="m15.999 15.001v0.99782h3.19v-0.99404zm3.6095 0v0.99782h3.0237v-0.99404zm3.4394 0v0.99782h2.6457v-0.99404zm3.0653 0v0.99782h1.1755v-0.99404zm1.595 0v0.99782h2.6004v-0.99404zm3.0615 0v0.99782h6.7164v-0.99404zm-14.771 3.001v0.99782h5.0798v-0.99782zm5.5825 0v0.99782h2.4341v-0.99782zm2.8952 0v0.99782h1.1339v-0.99782zm1.6366 0v0.99782h2.1846v-0.99782zm2.6835 0v0.99782h2.1846v-0.99782zm2.6457 0v0.99782h3.5679v-0.99782zm4.0706 0v0.99782h4.6602v-0.99782zm-19.514 2.9972v1.0016h5.624v-1.0016zm6.0474 0v1.0016h6.036v-1.0016zm-6.0474 3.001v1.0016h3.1068v-1.0016zm3.5264 0v1.0016h2.8952v-1.0016zm3.3147 0v1.0016h2.5588v-1.0016zm-6.8411 3.001v0.99782h4.1122v-0.99782zm0 3.001v0.99782h4.1576v-0.99782zm32.002 1.9994a8.0014 8.0014 0 0 1-6.0398 7.7557 8.0014 8.0014 0 0 1-8.9955-3.9535 8.0014 8.0014 0 0 1 1.6252-9.6947 8.0014 8.0014 0 0 1 9.7967-0.80128l-4.3843 6.6899zm-32.002 0.99782v1.0016h3.19v-1.0054zm3.6095 0v1.0016h3.0237v-1.0054zm3.4394 0v1.0016h2.6457v-1.0054zm-7.049 3.001v1.0016h5.0798v-1.0016zm5.5825 0v1.0016h2.4341v-1.0016zm2.8952 0v1.0016h1.1339v-1.0016zm-8.4776 3.001v0.99782h5.624v-0.99782zm0 3.001v0.99782h3.1068v-0.99782zm3.5264 0v0.99782h2.8952v-0.99782zm3.3147 0v0.99782h2.5588v-0.99782z" fill="#fff" stroke-width="3.7796"/>
</svg>
