<svg width="64" height="64" version="1.1" viewBox="0 0 16.933 16.933" xmlns="http://www.w3.org/2000/svg">
 <g stroke-width=".26458">
  <path d="m0-2.8e-4h16.933v16.933h-16.933z" fill="none"/>
  <rect transform="rotate(90)" x="2.3809" y="-15.61" width="12.171" height="14.287" ry="0" color="#bebebe" fill="#f45454" overflow="visible"/>
  <rect transform="rotate(90)" x="2.2487" y="-15.743" width="12.435" height="14.552" ry="0" color="#bebebe" fill="#f45454" opacity=".9" overflow="visible" stroke="#f12020"/>
 </g>
 <path d="m8.4666 2.3809h0.26458v12.171h-0.26458z" opacity=".15" stroke-width=".26458"/>
 <g transform="matrix(.46301 0 0 .46301 3.3734 3.3734)" fill="#fff" opacity=".35" stroke-width="1.1429">
  <path d="m11 3a8 8 0 0 0-8 8 8 8 0 0 0 8 8 8 8 0 0 0 8-8 8 8 0 0 0-8-8zm0 1a7 7 0 0 1 7 7 7 7 0 0 1-7 7 7 7 0 0 1-7-7 7 7 0 0 1 7-7z"/>
  <path d="m11 6a5 5 0 0 0-3.318 1.268l0.709 0.709a4 4 0 0 1 2.609-0.977 4 4 0 0 1 4 4h1a5 5 0 0 0-5-5zm-4.525 2.889a5 5 0 0 0-0.475 2.111h1a4 4 0 0 1 0.238-1.348z"/>
  <path d="m12.344 8.166-2.146 4.977a1.2 1.2 0 0 0-0.278 0.585l-7e-3 0.014h6e-3c-0.09 0.562 0.221 1.086 0.719 1.212 0.499 0.126 1.021-0.19 1.208-0.727l7e-3 2e-3v-0.03l0.024-0.075c0.044-0.182 0.047-0.371 7e-3 -0.55z"/>
 </g>
</svg>
