<svg xmlns="http://www.w3.org/2000/svg" version="1.0" width="64" height="64"><path d="M26 3.5a7.5 7.5 0 0 0-7.5 7.5 7.5 7.5 0 0 0 3.771 6.5H5.5c-1.108 0-2 .892-2 2v14.771A7.5 7.5 0 0 1 10 30.5a7.5 7.5 0 1 1 0 15 7.5 7.5 0 0 1-6.5-3.777V59.5c0 1.108.892 2 2 2h16.771A7.5 7.5 0 0 1 18.5 55a7.5 7.5 0 1 1 15 0 7.5 7.5 0 0 1-3.777 6.5H45.5c1.108 0 2-.892 2-2V41.723A7.5 7.5 0 0 0 54 45.5a7.5 7.5 0 1 0 0-15 7.5 7.5 0 0 0-6.5 3.771V19.5c0-1.108-.892-2-2-2H29.723A7.5 7.5 0 0 0 33.5 11 7.5 7.5 0 0 0 26 3.5z" fill="#a4e451" stroke="#0f5a00" stroke-linejoin="round" stroke-opacity=".498"/></svg>