<svg xmlns="http://www.w3.org/2000/svg" width="64" height="64" viewBox="0 0 16.933 16.933"><g transform="translate(0 -261.504) scale(.26458)"><path d="M8.991 989.371l46.01.004v57.985H8.992v-57.989z" fill="#fafafa"/><path d="M6.5.5l35 .003v44.003h-35V.5z" fill="none" stroke="#4f6698" stroke-width=".745" stroke-linejoin="round" stroke-opacity=".267" transform="matrix(1.34284 0 0 1.34075 -.228 988.192)"/><rect ry="0" rx="0" y="988.362" height="64" width="64" opacity=".75" fill="none"/></g><g style="line-height:125%;-inkscape-font-specification:'Sans Bold'"><path d="M10.101 10.765l-.17-.806h-.042q-.423.532-.847.723-.419.186-1.05.186-.841 0-1.322-.434Q6.195 10 6.195 9.2q0-1.715 2.744-1.798l.96-.031V7.02q0-.667-.289-.982-.284-.32-.914-.32-.708 0-1.602.433l-.264-.656q.419-.227.915-.356.501-.13 1.002-.13 1.013 0 1.499.45.49.45.49 1.442v3.865zm-1.938-.604q.801 0 1.256-.44.46-.439.46-1.23V7.98l-.858.036q-1.023.036-1.478.32-.45.28-.45.874 0 .465.28.708.284.243.79.243z" style="-inkscape-font-specification:'Open Sans'" font-weight="400" font-size="40" font-family="Open Sans" letter-spacing="0" word-spacing="0" fill="#5294e2" stroke="#3277c8" stroke-width=".265"/></g></svg>