<svg width="64" height="64" version="1.1" viewBox="0 0 64 64" xmlns="http://www.w3.org/2000/svg">
 <rect y="-.012027" width="64" height="64" rx="0" ry="0" fill="none" opacity=".75"/>
 <path d="m8.9992 1.0016h46.002v59h-45.998v-59z" color="#000000" fill="#249ce7" overflow="visible" stroke-width="3.7796"/>
 <path d="m8.5003 0.49889 46.999 0.00378v59.997h-46.996v-60.001z" color="#000000" fill="none" overflow="visible" stroke="#1873ad" stroke-linecap="round" stroke-linejoin="round" stroke-width="1.0016"/>
 <rect x="15" y="1" width="1" height="59" fill="#fff" fill-opacity=".252" stroke-width="1.0264"/>
 <rect x="16" y="1" width="1" height="59" color="#000000" color-rendering="auto" fill-opacity=".083" image-rendering="auto" shape-rendering="auto" stroke-width="1.0264"/>
 <path d="m23 20v22h1.375 20.625v-19.25-2.75h-1v1h-2v-1h-2v1h-2v-1h-2v1h-3v-1h-2v1h-3v-1h-2v1h-2v-1zm1 3h20v18h-20v-18m3 4v1h14v-1zm0 4v1h8v-1zm0 4v1h11v-1zm11 3v1h3v-1z" color="#000000" color-rendering="auto" fill="#fff" image-rendering="auto" opacity=".8" shape-rendering="auto" solid-color="#000000" style="isolation:auto;mix-blend-mode:normal"/>
</svg>
