<svg width="64" height="64" version="1.1" viewBox="0 0 16.933 16.933" xmlns="http://www.w3.org/2000/svg">
 <g transform="matrix(.26458 0 0 .26458 0 -261.5)">
  <path d="m8.991 989.37 46.01 4e-3v57.985h-46.009v-57.989z" fill="#fafafa"/>
  <path transform="matrix(1.3428 0 0 1.3408 -.228 988.19)" d="m6.5 0.5 35 3e-3v44.003h-35z" fill="none" stroke="#4f6698" stroke-linejoin="round" stroke-opacity=".267" stroke-width=".745"/>
  <rect y="988.36" width="64" height="64" rx="0" ry="0" fill="none" opacity=".75"/>
 </g>
 <g transform="matrix(.066145 0 0 .066145 -1.5875 -1.852)" enable-background="new" stroke-width="4">
  <path d="m113.55 134.64 76.856 42.408" fill="none" stroke="#f34f17"/>
  <path d="m120 212c52 24 76-32 32-56s-20-80 32-56" fill="#8f76e4" fill-opacity=".25098" fill-rule="evenodd" stroke="#8c59d9"/>
  <g stroke-dashoffset="1">
   <circle cx="108" cy="132" r="6" fill="none" stroke="#f34f17" stroke-linejoin="round"/>
   <circle cx="196" cy="180" r="6" fill="none" stroke="#f34f17" stroke-linejoin="round"/>
   <g fill="#fff" stroke="#8f76e4">
    <rect x="178" y="94" width="12" height="12"/>
    <rect x="146" y="150" width="12" height="12"/>
    <rect x="114" y="206" width="12" height="12"/>
   </g>
  </g>
 </g>
</svg>
