<svg xmlns="http://www.w3.org/2000/svg" width="64" height="64"><rect width="64" height="64" y="988.362" rx="0" ry="0" opacity=".75" fill="none" transform="translate(0 -988.362)"/><path d="M8.5.5l47 .004V59.5h-47V.5z" opacity=".3" fill="none"/><path d="M8.991 1.05c10.544 0 46.01.005 46.01.005V59.04H8.992V1.05z" fill="#3e58a5"/><path d="M6.5.5l35 .003v44.003h-35V.5z" fill="none" stroke="#203f84" stroke-width=".745" stroke-linejoin="round" transform="matrix(1.34284 0 0 1.34076 -.228 -.129)"/><path d="M29.997 19.045v4h4v-4zm1 1h2v2h-2zm-1.664 1.258l-1.932.518.26.967 1.932-.518zm-3 1l-1.932.518.26.967 1.932-.518zm8.664.275v1.035l6.143 1.645-6.143 1.754v14.03h.029l7.97-2.277v-14.06zm-12 .467a1 1 0 0 0-1 1 1 1 0 0 0 1 1 1 1 0 0 0 1-1 1 1 0 0 0-1-1m-2 2v14l12 2v-14zm21 1.01v11.303l-6-1.609V27.77zm-6 10.73l5.322 1.425-5.322 1.52z" fill="#fff" fill-rule="evenodd" opacity=".75"/></svg>