<svg width="64" height="64" version="1.1" viewBox="0 0 16.933 16.933" xmlns="http://www.w3.org/2000/svg" xmlns:xlink="http://www.w3.org/1999/xlink">
 <defs>
  <linearGradient id="h">
   <stop stop-color="#fff" stop-opacity="0" offset="0"/>
   <stop stop-color="#fff" offset=".49306"/>
   <stop stop-color="#fff" stop-opacity="0" offset="1"/>
  </linearGradient>
  <linearGradient id="c">
   <stop stop-opacity="0" offset="0"/>
   <stop offset=".49306"/>
   <stop stop-opacity="0" offset="1"/>
  </linearGradient>
  <linearGradient id="al" x1="640" x2="640" y1="633" y2="688.52" gradientTransform="matrix(2 0 0 2 -711 -2873.6)" gradientUnits="userSpaceOnUse">
   <stop stop-color="#18a303" offset="0"/>
   <stop stop-color="#106802" offset="1"/>
  </linearGradient>
  <linearGradient id="i">
   <stop stop-color="#008000" offset="0"/>
   <stop stop-color="#0f0" stop-opacity="0" offset="1"/>
  </linearGradient>
  <linearGradient id="ak" x1="152" x2="113.88" y1="-1192.6" y2="-1230.8" gradientTransform="matrix(.73171 0 0 .73171 -637.22 -625.98)" gradientUnits="userSpaceOnUse">
   <stop stop-color="#125a00" offset="0"/>
   <stop stop-color="#69ce00" stop-opacity="0" offset="1"/>
  </linearGradient>
  <linearGradient id="aj" x1="-17" x2="144" y1="-1194.6" y2="-1194.6" gradientTransform="matrix(.73913 0 0 1 538.56 -303)" gradientUnits="userSpaceOnUse" xlink:href="#c"/>
  <radialGradient id="o" cx="-1535.3" cy="-853" r="10" gradientTransform="matrix(-3.3157 0 0 -4.65 -3490.7 -4551)" gradientUnits="userSpaceOnUse">
   <stop stop-color="#fff" offset="0"/>
   <stop stop-color="#f5ffaa" stop-opacity="0" offset="1"/>
  </radialGradient>
  <linearGradient id="ai" x1="-17" x2="144" y1="-1194.6" y2="-1194.6" gradientTransform="matrix(.48447 0 0 1 583.24 -297)" gradientUnits="userSpaceOnUse" xlink:href="#c"/>
  <linearGradient id="ah" x1="652.25" x2="652.25" y1="-1491.6" y2="-1548.1" gradientUnits="userSpaceOnUse">
   <stop stop-color="#808080" offset="0"/>
   <stop stop-color="#b3b3b3" offset="1"/>
  </linearGradient>
  <linearGradient id="ag" x1="714" x2="714" y1="-1063.6" y2="-1083.6" gradientTransform="matrix(1.8974 0 0 2.6 -777.77 1271.8)" gradientUnits="userSpaceOnUse">
   <stop stop-color="#f2f2f2" offset="0"/>
   <stop stop-color="#fff" offset="1"/>
  </linearGradient>
  <linearGradient id="af" x1="152" x2="113.88" y1="-1192.6" y2="-1230.8" gradientTransform="matrix(.60976 0 0 .60976 557.32 -767.42)" gradientUnits="userSpaceOnUse">
   <stop offset="0"/>
   <stop stop-opacity=".36078" offset=".45461"/>
   <stop stop-opacity="0" offset="1"/>
  </linearGradient>
  <linearGradient id="ae" x1="525.64" x2="525.64" y1="-1078.6" y2="-1068.8" gradientTransform="matrix(1.7143 0 0 3.3333 -316.43 5092.4)" gradientUnits="userSpaceOnUse">
   <stop stop-color="#63bbee" offset="0"/>
   <stop stop-color="#aadcf7" offset="1"/>
  </linearGradient>
  <linearGradient id="ad" x1="525.64" x2="525.64" y1="-1078.6" y2="-1068.8" gradientTransform="matrix(1.7143 0 0 4.4444 -298.43 6290.4)" gradientUnits="userSpaceOnUse">
   <stop stop-color="#f09e6f" offset="0"/>
   <stop stop-color="#f9cfb5" offset="1"/>
  </linearGradient>
  <linearGradient id="ac" x1="525.64" x2="525.64" y1="-1078.6" y2="-1068.8" gradientTransform="matrix(1.7143 0 0 2 -280.43 3654.9)" gradientUnits="userSpaceOnUse">
   <stop stop-color="#f5ce53" offset="0"/>
   <stop stop-color="#fde9a9" offset="1"/>
  </linearGradient>
  <linearGradient id="ab" x1="525.64" x2="525.64" y1="-1078.6" y2="-1068.8" gradientTransform="matrix(1.7143 0 0 2.8889 -262.43 4613.3)" gradientUnits="userSpaceOnUse">
   <stop stop-color="#8ee780" offset="0"/>
   <stop stop-color="#ccf4c6" offset="1"/>
  </linearGradient>
  <linearGradient id="aa" x1="529.25" x2="535" y1="-1568.6" y2="-1574.6" gradientTransform="matrix(.83333 0 0 2.3333 141.17 2160.5)" gradientUnits="userSpaceOnUse">
   <stop stop-color="#4a00ff" offset="0"/>
   <stop stop-color="#00a0c1" stop-opacity="0" offset="1"/>
  </linearGradient>
  <linearGradient id="z" x1="529.25" x2="535" y1="-1568.6" y2="-1574.6" gradientTransform="matrix(.83333 0 0 3.1667 159.17 3467.7)" gradientUnits="userSpaceOnUse">
   <stop stop-color="#800000" offset="0"/>
   <stop stop-color="#ffc600" stop-opacity="0" offset="1"/>
  </linearGradient>
  <linearGradient id="y" x1="-17" x2="144" y1="-1194.6" y2="-1194.6" gradientTransform="matrix(.45963 0 0 1 584.81 -303)" gradientUnits="userSpaceOnUse" xlink:href="#c"/>
  <linearGradient id="x" x1="-17" x2="144" y1="-1194.6" y2="-1194.6" gradientTransform="matrix(.45963 0 0 1 584.81 -300)" gradientUnits="userSpaceOnUse" xlink:href="#h"/>
  <linearGradient id="w" x1="529.25" x2="535" y1="-1568.6" y2="-1574.6" gradientTransform="matrix(.83333 0 0 2 195.17 1637.6)" gradientUnits="userSpaceOnUse">
   <stop stop-color="#003362" offset="0"/>
   <stop stop-color="#00ff8c" stop-opacity="0" offset="1"/>
  </linearGradient>
  <linearGradient id="v" x1="529.25" x2="535" y1="-1568.6" y2="-1574.6" gradientTransform="matrix(.83333 0 0 1.3333 177.17 591.88)" gradientUnits="userSpaceOnUse">
   <stop stop-color="#f00" offset="0"/>
   <stop stop-color="#d3d300" stop-opacity="0" offset="1"/>
  </linearGradient>
  <linearGradient id="u" x1="-17" x2="144" y1="-1194.6" y2="-1194.6" gradientTransform="matrix(.16149 0 0 1 530.74 -391)" gradientUnits="userSpaceOnUse" xlink:href="#c"/>
  <linearGradient id="t" x1="529.25" x2="535.44" y1="-1568.6" y2="-1574.8" gradientTransform="translate(0,-18)" gradientUnits="userSpaceOnUse" xlink:href="#i"/>
  <linearGradient id="s" x1="529.25" x2="535.44" y1="-1568.6" y2="-1574.8" gradientTransform="translate(0,-1)" gradientUnits="userSpaceOnUse" xlink:href="#i"/>
  <linearGradient id="r" x1="-17" x2="144" y1="-1194.6" y2="-1194.6" gradientTransform="matrix(.37888 0 0 1 589.44 -344)" gradientUnits="userSpaceOnUse" xlink:href="#c"/>
  <radialGradient id="n" cx="152.33" cy="-754.64" r="15" gradientTransform="matrix(0 .37784 -.665 -9.1481e-5 85.141 -1556.3)" gradientUnits="userSpaceOnUse">
   <stop stop-opacity=".50196" offset="0"/>
   <stop stop-opacity="0" offset="1"/>
  </radialGradient>
  <linearGradient id="q" x1="-17" x2="144" y1="-1194.6" y2="-1194.6" gradientTransform="matrix(.074534 0 0 1 582.27 -334)" gradientUnits="userSpaceOnUse" xlink:href="#h"/>
  <linearGradient id="p" x1="-17" x2="144" y1="-1194.6" y2="-1194.6" gradientTransform="matrix(.45963 0 0 1 -643.19 2740.3)" gradientUnits="userSpaceOnUse" xlink:href="#c"/>
 </defs>
 <g>
  <path d="m3.4395 1.3229h-1.0583v14.287h12.171v-11.112l-2.9104-3.1749z" fill="#f9f9f9" fill-rule="evenodd" stroke-width=".26458" style="paint-order:stroke fill markers"/>
  <path d="m3.4395 1.0583-1.3229 1.25e-5v14.816l1.3229 4.23e-4h10.054l1.3229-4.23e-4 2.5e-5 -11.641-3.1749-3.1749zm0 0.52916h7.9828l2.8649 2.8649 1.9e-5 10.893-0.79375-4.5e-4h-10.054l-0.79369 4.5e-4v-13.758l0.79369-8.387e-4z" color="#000000" color-rendering="auto" dominant-baseline="auto" fill="#278d14" image-rendering="auto" shape-rendering="auto" solid-color="#000000" style="font-feature-settings:normal;font-variant-alternates:normal;font-variant-caps:normal;font-variant-ligatures:normal;font-variant-numeric:normal;font-variant-position:normal;isolation:auto;mix-blend-mode:normal;paint-order:fill markers stroke;shape-padding:0;text-decoration-color:#000000;text-decoration-line:none;text-decoration-style:solid;text-indent:0;text-orientation:mixed;text-transform:none;white-space:normal"/>
  <path d="m12.171 1.0583 2.6458 2.6458-3.75e-4 -1.3229-5e-5 -1.3229z" fill="#278d14" fill-rule="evenodd" style="paint-order:stroke fill markers"/>
 </g>
 <g transform="matrix(.06142 0 0 .06142 -27.71 103.46)" enable-background="new">
  <path d="m525-1602.6v105h119v-105z" color="#000000" fill="url(#al)"/>
  <use transform="translate(29,51)" width="5033" height="1085" xlink:href="#a"/>
  <use transform="translate(0,34)" width="5033" height="1085" xlink:href="#a"/>
  <rect id="b" x="528" y="-1585.6" width="26" height="1" color="#000000" fill="url(#u)" opacity=".5"/>
  <use transform="matrix(0 .61538 -1 0 -999.64 -1925.6)" width="5033" height="1085" xlink:href="#b"/>
  <rect id="d" x="528" y="-1599.6" width="26" height="14" color="#000000" fill="#92e285"/>
  <use transform="translate(29)" width="5033" height="1085" xlink:href="#d"/>
  <use transform="translate(58)" width="5033" height="1085" xlink:href="#d"/>
  <use transform="translate(87)" width="5033" height="1085" xlink:href="#d"/>
  <rect id="m" x="529" y="-1598.6" width="12" height="12" color="#000000" fill="url(#t)" opacity=".5"/>
  <use transform="matrix(0 .61538 -1 0 -1057.6 -1925.6)" width="5033" height="1085" xlink:href="#b"/>
  <g id="a">
   <use transform="translate(0,17)" width="5033" height="1085" xlink:href="#b"/>
   <rect x="528" y="-1582.6" width="26" height="14" color="#000000" fill="#e0f4dd"/>
   <rect x="529" y="-1581.6" width="12" height="12" color="#000000" fill="url(#s)" opacity=".25"/>
   <use transform="matrix(0 .61538 -1 0 -1057.6 -1908.6)" width="5033" height="1085" xlink:href="#b"/>
  </g>
  <use transform="matrix(0 .61538 -1 0 -1028.6 -1925.6)" width="5033" height="1085" xlink:href="#b"/>
  <use id="k" transform="translate(29)" width="5033" height="1085" xlink:href="#m"/>
  <use id="j" transform="translate(29)" width="5033" height="1085" xlink:href="#k"/>
  <use transform="matrix(0 .61538 -1 0 -970.64 -1925.6)" width="5033" height="1085" xlink:href="#b"/>
  <use transform="translate(29)" width="5033" height="1085" xlink:href="#j"/>
  <use transform="translate(29,34)" width="5033" height="1085" xlink:href="#a"/>
  <use transform="translate(29)" width="5033" height="1085" xlink:href="#a"/>
  <use transform="translate(58)" width="5033" height="1085" xlink:href="#a"/>
  <use transform="translate(87)" width="5033" height="1085" xlink:href="#a"/>
  <use transform="translate(0,17)" width="5033" height="1085" xlink:href="#a"/>
  <use transform="translate(29,17)" width="5033" height="1085" xlink:href="#a"/>
  <use transform="translate(58,17)" width="5033" height="1085" xlink:href="#a"/>
  <use transform="translate(87,17)" width="5033" height="1085" xlink:href="#a"/>
  <use transform="translate(0,51)" width="5033" height="1085" xlink:href="#a"/>
  <use transform="translate(0,68)" width="5033" height="1085" xlink:href="#a"/>
  <use transform="translate(29,68)" width="5033" height="1085" xlink:href="#a"/>
  <rect transform="scale(-1,1)" x="-586" y="-1558.6" width="60" height="60" color="#000000" fill="url(#ak)" opacity=".5"/>
  <use transform="translate(87,34)" width="5033" height="1085" xlink:href="#a"/>
  <use transform="translate(58,34)" width="5033" height="1085" xlink:href="#a"/>
  <rect x="526" y="-1497.6" width="119" height="1" color="#000000" fill="url(#aj)" opacity=".5"/>
  <rect transform="matrix(0,-1,-1,0,0,0)" x="1567.6" y="-631" width="32" height="93" rx="4" ry="4" color="#000000" fill="url(#o)" opacity=".6"/>
  <rect x="575" y="-1491.6" width="78" height="1" color="#000000" fill="url(#ai)" opacity=".25"/>
  <rect x="575" y="-1547.6" width="78" height="56" color="#000000" fill="url(#ah)"/>
  <rect x="577" y="-1545.6" width="74" height="52" color="#000000" fill="url(#ag)"/>
  <use transform="translate(18)" width="5033" height="1085" xlink:href="#g"/>
  <use transform="translate(36)" width="5033" height="1085" xlink:href="#g"/>
  <use transform="translate(54)" width="5033" height="1085" xlink:href="#g"/>
  <use transform="translate(0,30)" width="5033" height="1085" xlink:href="#e"/>
  <use transform="translate(0,10)" width="5033" height="1085" xlink:href="#e"/>
  <rect x="600" y="-1544.6" width="50" height="50" color="#000000" fill="url(#af)" opacity=".15"/>
  <use transform="translate(0,20)" width="5033" height="1085" xlink:href="#e"/>
  <rect x="580" y="-1529.6" width="14" height="32" color="#000000" fill="#0369a3"/>
  <rect id="e" x="583" y="-1538.6" width="61" height="1" color="#000000" fill="url(#r)" opacity=".25"/>
  <rect x="598" y="-1539.6" width="14" height="42" color="#000000" fill="#a33e03"/>
  <rect x="616" y="-1517.6" width="14" height="20" color="#000000" fill="#c99c00"/>
  <rect x="634" y="-1525.6" width="14" height="28" color="#000000" fill="#43c330"/>
  <path id="g" d="m577.57-1503.6h18.857c0.31656 0 0.57142 1.5082 0.57142 3.3816v3.2368c0 1.8734-0.25486 3.3816-0.57142 3.3816h-18.857c-0.31657 0-0.57142-1.5082-0.57142-3.3816v-3.2368c0-1.8734 0.25485-3.3816 0.57142-3.3816z" color="#000000" fill="url(#n)" opacity=".5"/>
  <rect transform="scale(1,-1)" x="581" y="1498.6" width="12" height="30" color="#000000" fill="url(#ae)"/>
  <rect transform="scale(1,-1)" x="599" y="1498.6" width="12" height="40" color="#000000" fill="url(#ad)"/>
  <rect transform="scale(1,-1)" x="617" y="1498.6" width="12" height="18" color="#000000" fill="url(#ac)"/>
  <rect transform="scale(1,-1)" x="635" y="1498.6" width="12" height="26" color="#000000" fill="url(#ab)"/>
  <rect x="582" y="-1527.6" width="10" height="28" color="#000000" fill="url(#aa)" opacity=".35"/>
  <rect x="600" y="-1537.6" width="10" height="38" color="#000000" fill="url(#z)" opacity=".35"/>
  <rect id="f" x="581" y="-1528.6" width="12" height="1" color="#000000" fill="url(#q)" opacity=".75"/>
  <rect x="577" y="-1497.6" width="74" height="1" color="#000000" fill="url(#y)" opacity=".5"/>
  <rect x="577" y="-1494.6" width="74" height="1" color="#000000" fill="url(#x)" opacity=".75"/>
  <rect x="636" y="-1523.6" width="10" height="24" color="#000000" fill="url(#w)" opacity=".35"/>
  <rect x="618" y="-1515.6" width="10" height="16" color="#000000" fill="url(#v)" opacity=".35"/>
  <rect id="l" transform="scale(-1)" x="-651" y="1545.6" width="74" height="1" color="#000000" fill="url(#p)" opacity=".25"/>
  <use transform="translate(0,53)" width="5033" height="1085" xlink:href="#l"/>
  <use transform="translate(18,-10)" width="5033" height="1085" xlink:href="#f"/>
  <use transform="translate(36,12)" width="5033" height="1085" xlink:href="#f"/>
  <use transform="translate(54,4)" width="5033" height="1085" xlink:href="#f"/>
 </g>
</svg>
