<svg width="64" height="64" version="1.1" viewBox="0 0 16.933 16.933" xmlns="http://www.w3.org/2000/svg" xmlns:xlink="http://www.w3.org/1999/xlink">
 <defs>
  <linearGradient id="b">
   <stop stop-opacity="0" offset="0"/>
   <stop offset=".49306"/>
   <stop stop-opacity="0" offset="1"/>
  </linearGradient>
  <linearGradient id="j" x1="298" x2="298" y1="-1587.6" y2="-1507.6" gradientTransform="matrix(.059904 0 0 .059904 -4.3645 110.86)" gradientUnits="userSpaceOnUse">
   <stop stop-color="#259dd2" offset="0"/>
   <stop stop-color="#025583" offset="1"/>
  </linearGradient>
  <linearGradient id="k" x1="298" x2="298" y1="-1571.2" y2="-1497.6" gradientUnits="userSpaceOnUse">
   <stop stop-color="#259dd2" offset="0"/>
   <stop stop-color="#065d8d" offset="1"/>
  </linearGradient>
  <linearGradient id="ab" x1="230" x2="230" y1="-581.64" y2="-577.57" gradientTransform="matrix(.58814 0 0 .47924 -116.26 293.83)" gradientUnits="userSpaceOnUse">
   <stop stop-color="#44adeb" offset="0"/>
   <stop stop-color="#aadcf7" offset="1"/>
  </linearGradient>
  <linearGradient id="p" x1="345" x2="345" y1="1173" y2="1178" gradientTransform="matrix(-.53113 0 0 .48562 202.18 -554.69)" gradientUnits="userSpaceOnUse">
   <stop stop-color="#666" offset="0"/>
   <stop stop-color="#333" offset="1"/>
  </linearGradient>
  <linearGradient id="i" x1="346.7" x2="361.37" y1="-1313.5" y2="-1303.8" gradientTransform="matrix(.059904 0 0 .059904 -4.3645 95.104)" gradientUnits="userSpaceOnUse">
   <stop stop-color="#fff" offset="0"/>
   <stop stop-color="#fff" stop-opacity="0" offset="1"/>
  </linearGradient>
  <linearGradient id="q" x1="345" x2="345" y1="1173.9" y2="1178" gradientTransform="matrix(.53113 0 0 .48562 -168.85 -554.54)" gradientUnits="userSpaceOnUse">
   <stop stop-color="#666" offset="0"/>
   <stop stop-color="#1a1a1a" offset="1"/>
  </linearGradient>
  <linearGradient id="h" x1="298.19" x2="298.19" y1="-631.15" y2="-634.27" gradientTransform="matrix(.15175 0 0 .15175 -28.257 113.52)" gradientUnits="userSpaceOnUse">
   <stop stop-color="#18a303" offset="0"/>
   <stop stop-color="#106802" offset="1"/>
  </linearGradient>
  <linearGradient id="r" x1="345" x2="345" y1="1173" y2="1178" gradientTransform="matrix(.53113 0 0 .48562 -168.85 -553.94)" gradientUnits="userSpaceOnUse" xlink:href="#c"/>
  <linearGradient id="c">
   <stop stop-color="#0369a3" offset="0"/>
   <stop stop-color="#047fc6" offset="1"/>
  </linearGradient>
  <linearGradient id="n" x1="337.37" x2="337.37" y1="-1311.4" y2="-1304.4" gradientTransform="matrix(.059904 0 0 .059904 -4.3645 95.104)" gradientUnits="userSpaceOnUse" xlink:href="#e"/>
  <linearGradient id="e">
   <stop stop-color="#666" offset="0"/>
   <stop stop-color="#666" stop-opacity=".5" offset="1"/>
  </linearGradient>
  <radialGradient id="f" cx="-1535.3" cy="-842.91" r="10" gradientTransform="matrix(-.19863 0 0 -.45434 -320.03 -401.93)" gradientUnits="userSpaceOnUse">
   <stop stop-color="#fff" offset="0"/>
   <stop stop-color="#00a8ff" stop-opacity="0" offset="1"/>
  </radialGradient>
  <linearGradient id="o" x1="337.37" x2="337.37" y1="-1311.4" y2="-1299.6" gradientTransform="matrix(.059904 0 0 .059904 -4.3645 95.104)" gradientUnits="userSpaceOnUse" xlink:href="#e"/>
  <linearGradient id="l" x1="349.55" x2="349.55" y1="-1308.9" y2="-1302.7" gradientTransform="matrix(.059904 0 0 .059904 -4.3645 95.104)" gradientUnits="userSpaceOnUse" xlink:href="#d"/>
  <linearGradient id="d">
   <stop stop-color="#808080" offset="0"/>
   <stop stop-color="#666" offset="1"/>
  </linearGradient>
  <linearGradient id="m" x1="349.55" x2="349.55" y1="-1307.7" y2="-1301.2" gradientTransform="matrix(.059904 0 0 .059904 -4.3645 95.104)" gradientUnits="userSpaceOnUse" xlink:href="#d"/>
  <linearGradient id="g" x1="337.38" x2="337.38" y1="-1293.6" y2="-1287.5" gradientTransform="matrix(.059904 0 0 .059904 -4.3645 95.104)" gradientUnits="userSpaceOnUse" xlink:href="#c"/>
  <linearGradient id="ac" x1="445.7" x2="441.39" y1="1103.6" y2="1099.8" gradientTransform="matrix(0 .10268 -.16613 0 201.64 -30.207)" gradientUnits="userSpaceOnUse">
   <stop stop-color="#e9b913" offset="0"/>
   <stop stop-color="#ff0" offset="1"/>
  </linearGradient>
  <linearGradient id="t" x1="-17" x2="144" y1="-1194.6" y2="-1194.6" gradientTransform="matrix(.031394 0 0 .059904 14.71 89.533)" gradientUnits="userSpaceOnUse" xlink:href="#b"/>
  <linearGradient id="s" x1="-17" x2="144" y1="-1194.6" y2="-1194.6" gradientTransform="matrix(.031394 0 0 .059904 14.71 86.598)" gradientUnits="userSpaceOnUse" xlink:href="#b"/>
  <linearGradient id="z" x1="-17" x2="144" y1="-1194.6" y2="-1194.6" gradientTransform="matrix(.01786 0 0 .059904 15.397 57.179)" gradientUnits="userSpaceOnUse" xlink:href="#b"/>
  <linearGradient id="y" x1="-17" x2="144" y1="-1194.6" y2="-1194.6" gradientTransform="matrix(.01786 0 0 .059904 15.397 52.566)" gradientUnits="userSpaceOnUse" xlink:href="#b"/>
  <linearGradient id="x" x1="-17" x2="144" y1="-1194.6" y2="-1194.6" gradientTransform="matrix(.01786 0 0 .059904 15.397 57.358)" gradientUnits="userSpaceOnUse" xlink:href="#b"/>
  <linearGradient id="w" x1="-17" x2="144" y1="-1194.6" y2="-1194.6" gradientTransform="matrix(.031394 0 0 .059904 14.71 89.713)" gradientUnits="userSpaceOnUse" xlink:href="#b"/>
  <linearGradient id="v" x1="-17" x2="144" y1="-1194.6" y2="-1194.6" gradientTransform="matrix(.01786 0 0 .059904 15.397 52.386)" gradientUnits="userSpaceOnUse" xlink:href="#b"/>
  <linearGradient id="u" x1="-17" x2="144" y1="-1194.6" y2="-1194.6" gradientTransform="matrix(.011534 0 0 .059904 12.245 86.418)" gradientUnits="userSpaceOnUse" xlink:href="#b"/>
 </defs>
 <g>
  <path d="m3.4395 1.3229h-1.0583v14.287h12.171v-11.112l-2.9104-3.1749z" fill="#f9f9f9" fill-rule="evenodd" stroke-width=".26458" style="paint-order:stroke fill markers"/>
  <path d="m3.4395 1.0583-1.3229 1.25e-5v14.816l1.3229 4.23e-4h10.054l1.3229-4.23e-4 2.5e-5 -11.641-3.1749-3.1749zm0 0.52916h7.9828l2.8649 2.8649 1.9e-5 10.893-0.79375-4.5e-4h-10.054l-0.79369 4.5e-4v-13.758l0.79369-8.387e-4z" color="#000000" color-rendering="auto" dominant-baseline="auto" fill="#036fad" image-rendering="auto" shape-rendering="auto" solid-color="#000000" style="font-feature-settings:normal;font-variant-alternates:normal;font-variant-caps:normal;font-variant-ligatures:normal;font-variant-numeric:normal;font-variant-position:normal;isolation:auto;mix-blend-mode:normal;paint-order:fill markers stroke;shape-padding:0;text-decoration-color:#000000;text-decoration-line:none;text-decoration-style:solid;text-indent:0;text-orientation:mixed;text-transform:none;white-space:normal"/>
  <path d="m12.171 1.0583 2.6458 2.6458-3.75e-4 -1.3229-5e-5 -1.3229z" fill="#036fad" fill-rule="evenodd" style="paint-order:stroke fill markers"/>
 </g>
 <g transform="translate(-6.9038 -9.5621)">
  <rect x="14.146" y="14.914" width="5.032" height="3.3546" color="#000000" fill="#fff"/>
  <path d="m12.049 14.914v0.29952h1.857v-0.29952zm-0.53914 0.59904v0.29952h2.3962v-0.29952zm0 0.59904v0.29952h2.3962v-0.29952zm0 0.59904v0.29952h2.3962v-0.29952zm0 0.59904v0.29952h2.3962v-0.29952zm0 0.59904v0.29952h2.3962v-0.29952zm0 0.59904v0.29952h7.6678v-0.29952zm0 0.59904v0.29952h7.6678v-0.29952zm0 0.59904v0.29952h7.6678v-0.29952zm0 0.59904v0.29952h7.6678v-0.29952zm0 0.59904v0.29952h5.032v-0.29952z" color="#000000" fill="#fff"/>
  <rect x="14.146" y="14.854" width="5.032" height="3.3546" color="#000000" fill="url(#j)"/>
  <g transform="matrix(.059904 0 0 .059904 -4.3645 110.8)" fill="url(#k)">
   <rect x="274" y="-1601.6" width="31" height="5" color="#000000"/>
   <rect x="265" y="-1541.6" width="128" height="5" color="#000000"/>
   <rect x="265" y="-1501.6" width="84" height="5" color="#000000"/>
   <rect x="265" y="-1591.6" width="40" height="5" color="#000000"/>
   <rect x="265" y="-1581.6" width="40" height="5" color="#000000"/>
   <rect x="265" y="-1571.6" width="40" height="5" color="#000000"/>
   <rect x="265" y="-1561.6" width="40" height="5" color="#000000"/>
   <rect x="265" y="-1551.6" width="40" height="5" color="#000000"/>
   <rect x="265" y="-1531.6" width="128" height="5" color="#000000"/>
   <rect x="265" y="-1521.6" width="128" height="5" color="#000000"/>
   <rect x="265" y="-1511.6" width="128" height="5" color="#000000"/>
  </g>
  <rect x="14.386" y="15.093" width="4.5526" height="2.8754" color="#000000" fill="url(#ab)"/>
  <path d="m17.701 15.94c-0.90243 0.35991-1.7839 0.85187-2.3831 1.6324 1.2268 0 2.3935-0.05916 3.6203-0.05916l1.8e-4 -0.54175c-0.30362-0.26326-0.86272-0.90053-1.2374-1.0315z" color="#000000" fill="#fff" opacity=".5"/>
  <path d="m17.724 15.996c0.30351 0.15175 0.83098 0.68022 1.2139 1.0623v0.45526h-3.4903c0.60711-0.75876 1.5176-1.214 2.2764-1.5175z" color="#000000" fill="url(#p)"/>
  <path d="m16.61 16.878 0.02652-0.2143 0.39854-0.17051 0.22414-0.20942 0.39412-0.1598-0.10285 0.25888s-0.15364 0.26915-0.15364 0.26915l-0.09145 0.29249-0.06325 0.16852-0.63212-0.23502z" fill="#333"/>
  <path d="m15.55 15.508c-0.38632 0.5821-0.71043 1.1091-1.1643 1.6302l4e-3 0.42141c1.0053 0 2.6654 0.01324 3.6706 0.01324-0.84208-0.61131-1.7597-1.173-2.282-2.0985-0.07195 0.06406-0.18217-0.03109-0.22839 0.03369z" color="#000000" fill="url(#i)" opacity=".5"/>
  <path d="m16.738 16.679c-0.45426-0.37688-0.6829-0.68289-0.98641-1.1382-0.08875 0.0268-0.08536 0.01661-0.15175 0 0 0-0.40603 0.60322-0.60702 0.91053-0.20098 0.30732-0.60711 0.75877-0.60711 0.75877v0.30351h3.4903s-0.83384-0.60232-1.138-0.83465z" color="#000000" fill="url(#q)"/>
  <path d="m18.938 17.21h-0.19563l-0.86666 0.15176s-0.85641-0.22763-0.98525-0.22763c-0.12658 0-0.5323 0.07587-0.60822 0.07587-0.05321 0-0.37934-0.15175-0.45647-0.15175-0.12725 0-0.27388 0.16123-0.65327 0.22762 0 0-0.109-0.24185-0.18014-0.22762-0.45526 0.17547-0.60711 0.15175-0.60711 0.15175v0.75877h4.5526l1.2e-4 -0.75877h1.7e-5z" color="#000000" fill="url(#h)"/>
  <path d="m14.386 17.362-6e-5 0.60702h3.9457l0.15175-0.15176-0.15175-0.15175-0.30351-0.15176-0.75877-0.15175s-0.75877-0.07588-0.75877-0.07588l-0.6829 0.07588h-1.4417z" color="#000000" fill="url(#r)"/>
  <path d="m14.689 17.058 0.21621-0.34708s0.25627-0.3033 0.25627-0.3033l0.19568-0.35644s0.24236-0.35898 0.24236-0.35898-0.1645 0.45334-0.1645 0.45334l-0.12045 0.37347-0.05826 0.23559-0.10871 0.251c-0.04376-0.03192-0.09908-0.0331-0.14898-0.04929l-0.14247 0.05584s-0.16717 0.04585-0.16717 0.04585z" fill="#333"/>
  <path d="m15.246 17.065 0.16316-0.41205 0.07958-0.42536 0.1151-0.26262 0.07185-0.27248 0.09974 0.28038 0.02833 0.26775 0.12065 0.23853 0.11961 0.27406 0.02236 0.19358-0.2009 0.05639-0.19084-0.07441-0.21096 0.13687h-0.21767z" fill="url(#n)"/>
  <path d="m17.202 17.134-0.26581-0.19159-0.16978-0.13544 0.16489 0.25695s0.2707 0.07008 0.2707 0.07008z" fill="#808080"/>
  <rect transform="matrix(0,-1,-1,0,0,0)" x="-17.01" y="-18.938" width="1.9169" height="4.5527" color="#000000" fill="url(#f)"/>
  <path d="m18.938 15.987a0.89857 0.89857 0 0 1-0.89857-0.89857h0.89857z" color="#000000" fill="#e9b913" opacity=".5"/>
  <path d="m17.425 16.952 0.09381-0.30207 0.1151-0.26262 0.07185-0.27246 0.09974 0.28037 0.12793 0.2393 0.0922 0.23853-0.01317 0.25509 0.12669 0.12718-0.26081-0.01411-0.52638-0.10892 0.07306-0.18032z" color="#000000" fill="url(#o)"/>
  <path d="m16.814 17.058-0.22096-0.33485s-0.39184-0.4273-0.39184-0.4273-0.32419-0.42624-0.32419-0.42624-0.1253-0.17741-0.1253-0.17741l0.1358 0.4606 0.14894 0.27622 0.13212 0.42196 0.0384 0.20703s0.13641 0.04571 0.13641 0.04571 0.20852-0.04831 0.20852-0.04831c0.08754-0.0087 0.17508 0.0016 0.2621 0.0026z" fill="url(#l)"/>
  <path d="m18.877 17.12-0.17828-0.10721s-0.24957-0.34195-0.24957-0.34195l-0.36687-0.31715-0.28654-0.23905 0.05518 0.19975s0.25327 0.39953 0.25327 0.39953 0.02779 0.36031 0.02779 0.36031l0.15222 0.11692s0.34145-0.06639 0.34145-0.06639l0.25134-0.0047z" color="#000000" fill="url(#m)"/>
  <path d="m14.387 17.517-0.0015 0.4513h3.7939v-0.15176l-0.15175-0.15175-0.75878-0.15176-0.75877-0.07587-0.75877 0.07587-0.82124 0.02263z" color="#000000" fill="url(#g)"/>
  <path d="m16.512 17.366-0.76201 0.08638-0.81284 0.06217-0.49572 0.0017 0.48862 0.02033 0.8377-0.0013 0.74228-0.07676 0.76004 0.07243 0.33811 0.06595 0.41631 0.09691 0.13666 0.13104 0.01872 0.14415h0.06926l0.01229-0.16697-0.20434-0.19539-0.79075-0.14864z" color="#000000" fill="#0088b7"/>
  <path d="m16.055 17.817 0.15176-0.15175h0.60702l0.45526 0.15175 0.15176 0.15176h-0.30351l-1.0623-0.15176z" fill="#1c99e0" opacity=".5"/>
  <path d="m15.752 15.692 0.0936 0.35381c0.07694 0.14246 0.22787 0.20275 0.35247 0.32412 0.17992 0.17526 0.37972 0.3823 0.45624 0.44902l-0.06178-0.09548-0.39125-0.42869-0.32386-0.42495z" fill="#fff" opacity=".4"/>
  <path d="m15.601 15.692-0.19586 0.45606-0.19539 0.54734-0.21407 0.26195c0.03079 0.0069 0.12614 0.02972 0.1523 0.0488l0.10858-0.25085 0.05803-0.23587 0.12168-0.3744z" opacity=".25"/>
  <path d="m15.825 17.059c-0.12393 0-0.26556 0.15159-0.62338 0.2209l-0.0131 0.0075c0.0065 0.0022 0.02915 0.0063 0.10858-0.0056 0.1059-0.01589 0.48282-0.17565 0.57284-0.17035 0.09001 0.0053 0.35889 0.15879 0.41184 0.1535 0.05295-0.0053 0.56177-0.07922 0.65708-0.05804s0.9697 0.21715 0.9697 0.21715l0.83492-0.1535 0.19469 0.0056v-0.06552h-0.19656l-0.86487 0.15164s-0.85772-0.22839-0.98655-0.22839c-0.12658 0-0.53248 0.07675-0.6084 0.07675-0.05321 0-0.37965-0.15163-0.45677-0.15163z" fill="#ff0" opacity=".35"/>
  <path d="m18.939 15.872a0.77876 0.77876 0 0 1-0.77876-0.77876h0.77876z" color="#000000" fill="url(#ac)" opacity=".74"/>
  <path d="m17.98 15.093c0 0.52975 0.42871 0.95847 0.95847 0.95847v-0.05921c-0.49706 0-0.89926-0.40221-0.89926-0.89926z" color="#000000" fill="#fff" opacity=".5"/>
  <path d="m17.795 16.114 0.05616 0.20031 0.25272 0.40061 0.02808 0.35943 0.15163 0.11793 0.02621-0.0056-0.13478-0.13478-0.02621-0.34445-0.14454-0.22219 0.38791 0.20721 0.30701 0.32011-0.24898-0.34071-0.36692-0.31824zm0.90418 0.89857 0.01498 0.01685-0.0037-0.0094z" fill="#fff" opacity=".4"/>
  <rect x="14.176" y="17.969" width="5.0544" height=".059905" color="#000000" fill="url(#t)" opacity=".25"/>
  <rect x="14.176" y="15.033" width="5.0544" height=".059905" color="#000000" fill="url(#s)" opacity=".15"/>
  <path d="m14.386 15.093v2.8754h4.5527v-2.8754zm0.0599 0.0599h4.4329v2.7556h-4.4329z" color="#000000" fill="#fff" opacity=".35"/>
  <rect id="a" x="12.049" y="14.854" width="1.857" height=".059905" color="#000000" fill="url(#u)" opacity=".25"/>
  <rect transform="rotate(90)" x="15.093" y="-14.386" width="2.8754" height=".059905" color="#000000" fill="url(#z)" opacity=".25"/>
  <rect transform="rotate(90)" x="15.093" y="-18.998" width="2.8754" height=".059905" color="#000000" fill="url(#y)" opacity=".25"/>
  <rect transform="rotate(90)" x="15.093" y="-14.206" width="2.8754" height=".059905" color="#000000" fill="url(#x)" opacity=".25"/>
  <rect x="14.176" y="18.148" width="5.0544" height=".059905" color="#000000" fill="url(#w)" opacity=".25"/>
  <rect transform="rotate(90)" x="15.093" y="-19.178" width="2.8754" height=".059905" color="#000000" fill="url(#v)" opacity=".25"/>
  <use transform="matrix(1.2903 0 0 .99998 -4.0374 .59929)" width="5033" height="1085" xlink:href="#a"/>
  <use transform="matrix(1.2903 0 0 .99998 -4.0374 1.1983)" width="5033" height="1085" xlink:href="#a"/>
  <use transform="matrix(1.2903 0 0 .99998 -4.0374 1.7974)" width="5033" height="1085" xlink:href="#a"/>
  <use transform="matrix(1.2903 0 0 .99998 -4.0374 2.3964)" width="5033" height="1085" xlink:href="#a"/>
  <use transform="matrix(1.2903 0 0 .99998 -4.0374 2.9955)" width="5033" height="1085" xlink:href="#a"/>
  <use transform="matrix(4.129 0 0 .99998 -38.242 3.5945)" width="5033" height="1085" xlink:href="#a"/>
  <use transform="matrix(4.129 0 0 .99998 -38.242 4.1936)" width="5033" height="1085" xlink:href="#a"/>
  <use transform="matrix(4.129 0 0 .99998 -38.242 4.7926)" width="5033" height="1085" xlink:href="#a"/>
  <use transform="matrix(4.129 0 0 .99998 -38.242 5.3916)" width="5033" height="1085" xlink:href="#a"/>
  <use transform="matrix(2.7097 0 0 .99998 -21.14 5.9907)" width="5033" height="1085" xlink:href="#a"/>
 </g>
</svg>
