<svg width="64" height="64" version="1.1" viewBox="0 0 16.933 16.933" xmlns="http://www.w3.org/2000/svg" xmlns:xlink="http://www.w3.org/1999/xlink">
 <defs>
  <linearGradient id="a">
   <stop stop-color="#63bbee" offset="0"/>
   <stop stop-color="#aadcf7" offset="1"/>
  </linearGradient>
  <clipPath id="c">
   <circle transform="matrix(1.0345 0 0 1.0345 -40.845 -23.293)" cx="1184.5" cy="675.5" r="16.5" color="#000000" fill="#1c99e0" opacity=".22756"/>
  </clipPath>
  <linearGradient id="p" x1="298" x2="298" y1="-1571.2" y2="-1497.6" gradientTransform="matrix(.066145 0 0 .066145 -1.8827 98.011)" gradientUnits="userSpaceOnUse">
   <stop stop-color="#219bd6" offset="0"/>
   <stop stop-color="#065d8d" offset="1"/>
  </linearGradient>
  <radialGradient id="e" cx="1181" cy="672.73" r="16.5" gradientTransform="matrix(.97864 .69764 -.77137 1.082 542.96 -883.64)" gradientUnits="userSpaceOnUse">
   <stop stop-color="#1c99e0" offset="0"/>
   <stop stop-color="#035482" offset="1"/>
  </radialGradient>
  <linearGradient id="o" x1="3065.4" x2="3051.4" y1="-1071.3" y2="-1083" gradientUnits="userSpaceOnUse" xlink:href="#a"/>
  <clipPath id="t">
   <circle transform="matrix(.90909 0 0 .90909 1987.2 -1698.7)" cx="1184.5" cy="675.5" r="16.5" color="#000000" fill="#1c99e0" opacity=".22756"/>
  </clipPath>
  <linearGradient id="n" x1="3054.2" x2="3059.7" y1="-1072.6" y2="-1099.4" gradientUnits="userSpaceOnUse" xlink:href="#a"/>
  <clipPath id="r">
   <circle transform="matrix(.90909 0 0 .90909 1987.2 -1698.7)" cx="1184.5" cy="675.5" r="16.5" color="#000000" fill="#1c99e0" opacity=".22756"/>
  </clipPath>
  <linearGradient id="m" x1="3075.3" x2="3049.7" y1="-1093" y2="-1085.7" gradientTransform="matrix(1.1429 .090302 -.12391 .99656 -574.64 -278.42)" gradientUnits="userSpaceOnUse" xlink:href="#a"/>
  <clipPath id="s">
   <circle transform="matrix(.90909 0 0 .90909 1987.2 -1698.7)" cx="1184.5" cy="675.5" r="16.5" color="#000000" fill="#1c99e0" opacity=".22756"/>
  </clipPath>
  <linearGradient id="l" x1="3075.1" x2="3066.4" y1="-1075" y2="-1098.3" gradientUnits="userSpaceOnUse" xlink:href="#a"/>
  <clipPath id="u">
   <circle transform="matrix(.90909 0 0 .90909 1987.2 -1698.7)" cx="1184.5" cy="675.5" r="16.5" color="#000000" fill="#1c99e0" opacity=".22756"/>
  </clipPath>
  <linearGradient id="k" x1="3067.8" x2="3057.2" y1="-1071.5" y2="-1096.2" gradientUnits="userSpaceOnUse" xlink:href="#a"/>
  <clipPath id="v">
   <circle transform="matrix(.90909 0 0 .90909 1987.2 -1698.7)" cx="1184.5" cy="675.5" r="16.5" color="#000000" fill="#1c99e0" opacity=".22756"/>
  </clipPath>
  <linearGradient id="j" x1="3069.7" x2="3059.9" y1="-1071.4" y2="-1092.9" gradientUnits="userSpaceOnUse" xlink:href="#a"/>
  <clipPath id="w">
   <circle transform="matrix(.90909 0 0 .90909 1987.2 -1698.7)" cx="1184.5" cy="675.5" r="16.5" color="#000000" fill="#1c99e0" opacity=".22756"/>
  </clipPath>
  <linearGradient id="i" x1="3070.9" x2="3058.1" y1="-1072.2" y2="-1096" gradientTransform="rotate(14.05 3063.1 -1065.4)" gradientUnits="userSpaceOnUse" xlink:href="#a"/>
  <clipPath id="x">
   <circle transform="matrix(.90909 0 0 .90909 1987.2 -1698.7)" cx="1184.5" cy="675.5" r="16.5" color="#000000" fill="#1c99e0" opacity=".22756"/>
  </clipPath>
  <linearGradient id="h" x1="3070.9" x2="3058.1" y1="-1072.2" y2="-1096" gradientTransform="rotate(-16.426 3055.5 -1076.5)" gradientUnits="userSpaceOnUse" xlink:href="#a"/>
  <clipPath id="y">
   <circle transform="matrix(.90909 0 0 .90909 1987.2 -1698.7)" cx="1184.5" cy="675.5" r="16.5" color="#000000" fill="#1c99e0" opacity=".22756"/>
  </clipPath>
  <radialGradient id="d" cx="3180.9" cy="660.77" r="1.5" gradientTransform="matrix(-3.9579e-6 .96258 -1.0242 -4.3531e-6 3857.7 -2401.2)" gradientUnits="userSpaceOnUse">
   <stop stop-color="#fff" offset="0"/>
   <stop stop-color="#00a0fc" stop-opacity="0" offset="1"/>
  </radialGradient>
  <clipPath id="b">
   <circle transform="matrix(.30799 0 0 .30799 2815.7 454.15)" cx="1184.5" cy="675.5" r="16.5" color="#000000" fill="#1c99e0" opacity=".22756"/>
  </clipPath>
  <linearGradient id="g" x1="292.56" x2="453.42" y1="571.22" y2="571.22" gradientTransform="matrix(.052587 0 0 .13229 -1.0545 -83.201)" gradientUnits="userSpaceOnUse">
   <stop stop-opacity="0" offset="0"/>
   <stop offset=".49306"/>
   <stop stop-opacity="0" offset="1"/>
  </linearGradient>
  <linearGradient id="f" x1="1184.7" x2="1184.7" y1="685.55" y2="662.02" gradientUnits="userSpaceOnUse">
   <stop stop-color="#aadcf7" offset="0"/>
   <stop stop-color="#aadcf7" stop-opacity="0" offset="1"/>
  </linearGradient>
 </defs>
 <g>
  <path d="m3.4395 1.3229h-1.0583v14.287h12.171v-11.112l-2.9104-3.1749z" fill="#f9f9f9" fill-rule="evenodd" stroke-width=".26458" style="paint-order:stroke fill markers"/>
  <path d="m3.4395 1.0583-1.3229 1.25e-5v14.816l1.3229 4.23e-4h10.054l1.3229-4.23e-4 2.5e-5 -11.641-3.1749-3.1749zm0 0.52916h7.9828l2.8649 2.8649 1.9e-5 10.893-0.79375-4.5e-4h-10.054l-0.79369 4.5e-4v-13.758l0.79369-8.387e-4z" color="#000000" color-rendering="auto" dominant-baseline="auto" fill="#535353" image-rendering="auto" shape-rendering="auto" solid-color="#000000" style="font-feature-settings:normal;font-variant-alternates:normal;font-variant-caps:normal;font-variant-ligatures:normal;font-variant-numeric:normal;font-variant-position:normal;isolation:auto;mix-blend-mode:normal;paint-order:fill markers stroke;shape-padding:0;text-decoration-color:#000000;text-decoration-line:none;text-decoration-style:solid;text-indent:0;text-orientation:mixed;text-transform:none;white-space:normal"/>
  <path d="m12.171 1.0583 2.6458 2.6458-3.75e-4 -1.3229-5e-5 -1.3229z" fill="#535353" fill-rule="evenodd" style="paint-order:stroke fill markers"/>
 </g>
 <g transform="translate(-10.089 13.22)">
  <circle transform="matrix(.12798 0 0 .03207 -131.18 -22.73)" cx="1184.5" cy="675.5" r="16.5" clip-path="url(#c)" fill="#0369a3" opacity=".15"/>
  <circle transform="matrix(.10649 0 0 .029464 -105.73 -20.927)" cx="1184.5" cy="675.5" r="16.5" clip-path="url(#c)" fill="#0369a3" opacity=".25"/>
  <path d="m14.323-7.9284v0.52916h8.4665v-0.52916zm0 1.0583v0.52916h8.4665v-0.52916zm0 1.0583v0.52916h4.936c0.34805-0.16846 0.73665-0.26458 1.1493-0.26458 0.41261 0 0.80121 0.096121 1.1493 0.26458h1.2319v-0.52916zm0 1.0583v0.52916h3.795c0.11161-0.19269 0.24612-0.37119 0.40101-0.52916zm7.9745 0c0.15488 0.15797 0.2894 0.33646 0.40101 0.52916h0.09095v-0.52916zm-7.9745 1.0583v0.52916h3.4519c0.01824-0.18251 0.05818-0.3595 0.11161-0.52916zm0 1.0583v0.52916h3.5635c-0.05343-0.16966-0.09337-0.34665-0.11161-0.52916zm0 1.0583v0.52916h4.1961c-0.15488-0.15797-0.2894-0.33646-0.40101-0.52916z" fill="url(#p)"/>
  <circle transform="matrix(.084947 0 0 .020498 -80.211 -14.722)" cx="1184.5" cy="675.5" r="16.5" clip-path="url(#c)" fill="#0369a3" opacity=".75"/>
  <circle transform="matrix(.13951 0 0 .13951 -144.84 -97.136)" cx="1184.5" cy="675.5" r="16.5" clip-path="url(#c)" fill="url(#e)" stroke="#035d8f" stroke-width=".94828"/>
  <g transform="matrix(.13229 0 0 .13229 -189.27 140.06)" fill="none" stroke-linecap="round">
   <path transform="matrix(1.1406 0 0 1.1398 -1909.8 155.42)" d="m3066.2-1069.3c-2.0507-12.755-13.592-15.132-19.22-13.189" clip-path="url(#t)" stroke="url(#o)" stroke-width=".87703px"/>
   <g stroke-width=".86661px">
    <path transform="matrix(1.1539 0 0 1.1539 -1950.6 170.95)" d="m3068.2-1099.5c-15.829 5.5755-16.196 20.815-12.408 27.526" clip-path="url(#r)" stroke="url(#n)"/>
    <path transform="matrix(1.1539 0 0 1.1539 -1950.3 169.99)" d="m3078.5-1088.4c-15.558-9.6896-30.26-1.1652-34.174 5.8114" clip-path="url(#s)" stroke="url(#m)"/>
    <path transform="matrix(1.1539 0 0 1.1539 -1950.6 170.95)" d="m3062.8-1100.1c15.444 6.5674 14.844 21.799 10.639 28.257" clip-path="url(#u)" stroke="url(#l)"/>
    <path transform="matrix(1.1539 0 0 1.1539 -1950.6 170.95)" d="m3072.4-1068.2c1.6468-20.24-13.394-26.745-21.817-25.116" clip-path="url(#v)" stroke="url(#k)"/>
    <path transform="matrix(1.1539 0 0 1.1539 -1950.6 170.95)" d="m3085-1076.9c-15.878-5.4349-25.61 6.297-26.798 13.911" clip-path="url(#w)" stroke="url(#j)"/>
    <path transform="matrix(1.1539 0 0 1.1539 -1950.6 170.95)" d="m3086.2-1079.9c-14.139-9.0401-26.373 0.053-29.33 7.1696" clip-path="url(#x)" stroke="url(#i)"/>
    <path transform="matrix(1.1539 0 0 1.1539 -1950.6 170.95)" d="m3078.5-1092.2c-16.771-0.6199-22.702 13.422-21.641 21.055" clip-path="url(#y)" stroke="url(#h)"/>
   </g>
  </g>
  <circle transform="matrix(.48327 0 0 .48327 -1517.8 -323.52)" cx="3181" cy="660.75" r="1.5" clip-path="url(#b)" fill="url(#d)" opacity=".75"/>
  <path d="m14.323-7.9284v0.13229h8.4665v-0.13229zm0 1.0583v0.13229h8.4665v-0.13229zm0 1.0583v0.13229h8.4665v-0.13229zm0 1.0583v0.13229h4.0762c0.03848-0.045097 0.07843-0.090009 0.11989-0.13229zm7.9745 0c0.04146 0.04228 0.08141 0.087192 0.11989 0.13229h0.37206v-0.13229zm-7.9745 1.0583v0.13229h3.5263c0.01177-0.044132 0.0236-0.089083 0.03721-0.13229zm0 1.0583v0.13229h3.4519c0.01359 0.13602 0.0401 0.26773 0.0744 0.39687h0.03721c-0.05343-0.16966-0.09338-0.34665-0.11161-0.52916zm0 1.0583v0.13229h3.795c0.08174 0.14111 0.1758 0.27347 0.28111 0.39687h0.11989c-0.1549-0.15797-0.2894-0.33646-0.40101-0.52916z" fill="url(#g)" opacity=".35"/>
  <path d="m14.323-7.3995v0.13229h8.4665v-0.13229zm0 1.0583v0.13229h8.4665v-0.13229zm6.0853 0.79373c-0.41261 0-0.80121 0.096121-1.1493 0.26458h-4.936v0.13229h4.936c0.34805-0.16846 0.73665-0.26458 1.1493-0.26458 0.41261 0 0.80121 0.096121 1.1493 0.26458h1.2319v-0.13229h-1.2319c-0.34805-0.16846-0.73665-0.26458-1.1493-0.26458zm1.9678 0.92602c0.15488 0.15797 0.23977 0.33607 0.23977 0.52916h0.17363v-0.13229h-0.09095c-0.08174-0.14112-0.1758-0.27347-0.28111-0.39687zm-4.072 0.12402c-0.06617 0.087665-0.13078 0.17746-0.18604 0.27285h-3.795v0.13229h3.8777c0-0.14452 0.05663-0.27926 0.10336-0.40514zm-0.52503 1.3022c-0.0013 0.00967-0.0032 0.019235-0.0041 0.028938h-3.4519v0.13229h3.4519c0.0054-0.054174 0.0054-0.10807 0.0041-0.16123zm-3.4561 1.0873v0.13229h3.5635c-0.01361-0.043212-0.02548-0.088156-0.03721-0.13229zm0 1.0583v0.13229h4.196c-0.073632-0.075095-0.091888-0.10405-0.10336-0.13229z" fill="#fff" opacity=".75"/>
  <path transform="matrix(.13253 0 0 .13253 -136.58 -92.427)" d="m1184.5 658.53c-9.3689 0-16.969 7.5998-16.969 16.969s7.5999 16.969 16.969 16.969 16.969-7.5998 16.969-16.969-7.5999-16.969-16.969-16.969zm0 0.9375c8.8565 0 16.031 7.1748 16.031 16.031s-7.1747 16.031-16.031 16.031-16.031-7.1748-16.031-16.031 7.1747-16.031 16.031-16.031z" clip-path="url(#c)" fill="url(#f)" opacity=".75" style="text-decoration-line:none;text-indent:0pt;text-transform:none"/>
  <g fill="url(#d)">
   <circle transform="matrix(.35277 0 0 .35277 -1101.5 -238.11)" cx="3181" cy="660.75" r="1.5" clip-path="url(#b)"/>
   <circle transform="matrix(.35277 0 0 .35277 -1100.4 -237.16)" cx="3181" cy="660.75" r="1.5" clip-path="url(#b)"/>
   <circle transform="matrix(.35277 0 0 .35277 -1101.5 -236.66)" cx="3181" cy="660.75" r="1.5" clip-path="url(#b)"/>
   <circle transform="matrix(.35277 0 0 .35277 -1100 -235.84)" cx="3181" cy="660.75" r="1.5" clip-path="url(#b)"/>
   <circle transform="matrix(.35277 0 0 .35277 -1103.3 -235.73)" cx="3181" cy="660.75" r="1.5" clip-path="url(#b)"/>
   <circle transform="matrix(.35277 0 0 .35277 -1102.2 -235.13)" cx="3181" cy="660.75" r="1.5" clip-path="url(#b)"/>
   <circle transform="matrix(.35277 0 0 .35277 -1100.5 -234.92)" cx="3181" cy="660.75" r="1.5" clip-path="url(#b)"/>
  </g>
 </g>
</svg>
