<svg width="64" height="64" version="1.1" viewBox="0 0 16.933 16.933" xmlns="http://www.w3.org/2000/svg" xmlns:xlink="http://www.w3.org/1999/xlink">
 <defs>
  <linearGradient id="s" x1="815.13" x2="815.13" y1="-1491.6" y2="-1543.6" gradientTransform="matrix(1.641 0 0 .5 2374.5 -746.82)" gradientUnits="userSpaceOnUse">
   <stop stop-color="#727272" offset="0"/>
   <stop stop-color="#b3b3b3" offset="1"/>
  </linearGradient>
  <linearGradient id="r" x1="3793.2" x2="3793.2" y1="-1603.6" y2="-1561.4" gradientUnits="userSpaceOnUse">
   <stop stop-color="#ccc" offset="0"/>
   <stop stop-color="#b3b3b3" offset="1"/>
  </linearGradient>
  <linearGradient id="q" x1="3658.2" x2="3658.2" y1="-1076.6" y2="-1117.8" gradientTransform="matrix(1.9062 0 0 1.8571 -3264 477.83)" gradientUnits="userSpaceOnUse">
   <stop stop-color="#fff6dd" offset="0"/>
   <stop stop-color="#fef8f4" offset="1"/>
  </linearGradient>
  <linearGradient id="p" x1="3682" x2="3682" y1="-1515" y2="-1494.8" gradientTransform="matrix(1.0167 0 0 1.1 -62.174 148.47)" gradientUnits="userSpaceOnUse">
   <stop stop-color="#fff" offset="0"/>
   <stop stop-color="#f2f2f2" offset="1"/>
  </linearGradient>
  <linearGradient id="o" x1="3669.5" x2="3669.5" y1="-1068.8" y2="-1073.6" gradientUnits="userSpaceOnUse">
   <stop offset="0"/>
   <stop stop-color="#4d4d4d" offset="1"/>
  </linearGradient>
  <linearGradient id="n" x1="3715.9" x2="3715.9" y1="693.04" y2="695.85" gradientTransform="matrix(12.038 0 0 12.033 -41007 -9931.9)" gradientUnits="userSpaceOnUse" xlink:href="#c"/>
  <linearGradient id="c">
   <stop stop-color="#666" offset="0"/>
   <stop stop-color="#808080" offset="1"/>
  </linearGradient>
  <linearGradient id="m" x1="3715.9" x2="3715.9" y1="694.66" y2="696.5" gradientTransform="matrix(12.038 0 0 12.033 -41007 -9931.9)" gradientUnits="userSpaceOnUse" xlink:href="#c"/>
  <linearGradient id="l" x1="-17" x2="144" y1="-1194.6" y2="-1194.6" gradientTransform="matrix(.74534 0 0 1 3682.7 -329)" gradientUnits="userSpaceOnUse" xlink:href="#e"/>
  <linearGradient id="e">
   <stop stop-color="#e9b913" stop-opacity="0" offset="0"/>
   <stop stop-color="#fc5c00" offset=".49306"/>
   <stop stop-color="#e9b913" stop-opacity="0" offset="1"/>
  </linearGradient>
  <linearGradient id="d">
   <stop stop-opacity="0" offset="0"/>
   <stop offset=".49306"/>
   <stop stop-opacity="0" offset="1"/>
  </linearGradient>
  <linearGradient id="y" x1="529.25" x2="535" y1="-1568.6" y2="-1574.6" gradientTransform="matrix(2.5 0 0 6.3333 2347.5 8412.1)" gradientUnits="userSpaceOnUse">
   <stop stop-color="#fc5c00" offset="0"/>
   <stop stop-color="#ccc" stop-opacity="0" offset="1"/>
  </linearGradient>
  <linearGradient id="x" x1="-17" x2="144" y1="-1194.6" y2="-1194.6" gradientTransform="matrix(.45963 0 0 1 -1589.8 -2476.4)" gradientUnits="userSpaceOnUse" xlink:href="#e"/>
  <linearGradient id="w" x1="-17" x2="144" y1="-1194.6" y2="-1194.6" gradientTransform="matrix(.48292 0 0 1 -1591.2 -2474.4)" gradientUnits="userSpaceOnUse" xlink:href="#d"/>
  <linearGradient id="v" x1="152" x2="113.88" y1="-1192.6" y2="-1230.8" gradientTransform="matrix(.2439 0 0 .2439 3752.9 -1205.8)" gradientUnits="userSpaceOnUse">
   <stop offset="0"/>
   <stop stop-opacity=".36078" offset=".45461"/>
   <stop stop-opacity="0" offset="1"/>
  </linearGradient>
  <linearGradient id="u" x1="364.87" x2="389.1" y1="300.82" y2="276.58" gradientTransform="translate(3301 -1793.6)" gradientUnits="userSpaceOnUse">
   <stop offset="0"/>
   <stop stop-opacity="0" offset="1"/>
  </linearGradient>
  <linearGradient id="t" x1="-17" x2="144" y1="-1194.6" y2="-1194.6" gradientTransform="matrix(.13665 0 0 .99998 -1515.3 -2474.4)" gradientUnits="userSpaceOnUse" xlink:href="#d"/>
 </defs>
 <g>
  <path d="m3.4395 1.3229h-1.0583v14.287h12.171v-11.112l-2.9104-3.1749z" fill="#f9f9f9" fill-rule="evenodd" stroke-width=".26458" style="paint-order:stroke fill markers"/>
  <path d="m3.4395 1.0583-1.3229 1.25e-5v14.816l1.3229 4.23e-4h10.054l1.3229-4.23e-4 2.5e-5 -11.641-3.1749-3.1749zm0 0.52916h7.9828l2.8649 2.8649 1.9e-5 10.893-0.79375-4.5e-4h-10.054l-0.79369 4.5e-4v-13.758l0.79369-8.387e-4z" color="#000000" color-rendering="auto" dominant-baseline="auto" fill="#5b5b5b" image-rendering="auto" shape-rendering="auto" solid-color="#000000" style="font-feature-settings:normal;font-variant-alternates:normal;font-variant-caps:normal;font-variant-ligatures:normal;font-variant-numeric:normal;font-variant-position:normal;isolation:auto;mix-blend-mode:normal;paint-order:fill markers stroke;shape-padding:0;text-decoration-color:#000000;text-decoration-line:none;text-decoration-style:solid;text-indent:0;text-orientation:mixed;text-transform:none;white-space:normal"/>
  <path d="m12.171 1.0583 2.6458 2.6458-3.75e-4 -1.3229-5e-5 -1.3229z" fill="#5b5b5b" fill-rule="evenodd" style="paint-order:stroke fill markers"/>
 </g>
 <g transform="matrix(.066145 0 0 .066145 -238.25 110.77)" enable-background="new">
  <rect x="3666" y="-1518.6" width="128" height="28" opacity=".15"/>
  <rect x="3666" y="-1520.6" width="128" height="28" fill="url(#s)"/>
  <rect x="3666" y="-1602.6" width="128" height="84" fill="url(#r)"/>
  <rect x="3669" y="-1599.6" width="122" height="78" rx="1" ry="1" fill="url(#q)"/>
  <rect id="k" x="3670" y="-1598.6" width="30" height="76" rx="2" ry="2" fill="url(#y)" opacity=".25"/>
  <rect x="3669" y="-1517.6" width="122" height="22" fill="url(#p)"/>
  <g transform="matrix(2.0003 0 0 2 -3609.1 631.13)" fill="#fff">
   <path d="m3655.3-1071.4v0.7704c-0.2254-0.1313-0.4523-0.2297-0.6805-0.2953-0.2283-0.066-0.4608-0.099-0.6977-0.099-0.3566 0-0.6234 0.059-0.8003 0.1755-0.1741 0.1141-0.2611 0.2896-0.2611 0.5264 0 0.214 0.066 0.3738 0.1969 0.4794 0.1312 0.1056 0.4579 0.2083 0.9801 0.3082l0.3167 0.06c0.3909 0.074 0.6862 0.2225 0.886 0.4451 0.2025 0.2225 0.3038 0.5122 0.3038 0.8688 0 0.4737-0.1683 0.8446-0.505 1.1128-0.3367 0.2654-0.8046 0.398-1.4038 0.398-0.2369 0-0.4851-0.026-0.7447-0.077-0.2597-0.049-0.5407-0.1227-0.8432-0.2225v-0.8132c0.2939 0.1512 0.575 0.2653 0.8432 0.3424 0.2682 0.074 0.5221 0.1112 0.7618 0.1112 0.3481 0 0.6177-0.07 0.8089-0.2097 0.1912-0.1426 0.2868-0.341 0.2868-0.5949 0-0.3652-0.3496-0.6177-1.0486-0.7576l-0.034-0.01-0.2953-0.06c-0.4537-0.089-0.7846-0.2369-0.9929-0.4451-0.2083-0.2112-0.3125-0.4979-0.3125-0.8603 0-0.4594 0.1555-0.8132 0.4665-1.0614 0.3111-0.2511 0.7547-0.3767 1.3311-0.3767 0.2568 0 0.5036 0.024 0.7404 0.073 0.2369 0.046 0.4694 0.1155 0.6977 0.2097"/>
   <path d="m3657.8-1069.1c0 0.6106 0.096 1.0714 0.2867 1.3824 0.1941 0.311 0.4808 0.4665 0.8603 0.4665s0.6663-0.1555 0.8603-0.4665c0.1969-0.3139 0.2953-0.7747 0.2953-1.3824 0-0.6078-0.098-1.0672-0.2953-1.3782-0.194-0.3139-0.4808-0.4708-0.8603-0.4708s-0.6662 0.1555-0.8603 0.4665c-0.1911 0.311-0.2867 0.7718-0.2867 1.3825m2.3026 1.7804c-0.1284 0.2368-0.3024 0.4195-0.5222 0.5478-0.2168 0.1256-0.4693 0.1884-0.7575 0.1884-0.5735 0-1.0272-0.2212-1.361-0.6634-0.331-0.4451-0.4965-1.0572-0.4965-1.8361 0-0.7932 0.1655-1.4138 0.4965-1.8618s0.7846-0.672 1.361-0.672c0.2853 0 0.5364 0.063 0.7533 0.1884 0.2197 0.1226 0.3951 0.3024 0.5264 0.5392v-0.612h0.7918v6.6168h-0.7918v-2.4353"/>
   <path d="m3666.5-1070.4c-0.1683-0.1313-0.3395-0.2268-0.5136-0.2868-0.174-0.06-0.3652-0.09-0.5735-0.09-0.4908 0-0.866 0.154-1.1256 0.4622-0.2597 0.3082-0.3895 0.7533-0.3895 1.3353v2.384h-0.7918v-4.7936h0.7918v0.9373c0.1312-0.3395 0.3324-0.5992 0.6035-0.7789 0.2739-0.1826 0.5977-0.2739 0.9715-0.2739 0.194 0 0.3752 0.024 0.5436 0.073 0.1683 0.049 0.3295 0.1241 0.4836 0.2269v0.8046"/>
   <path d="m3669.9-1072.8v1.3611h1.789v0.612h-1.789v2.6022c0 0.3538 0.067 0.6006 0.2011 0.7405 0.1341 0.1398 0.3681 0.2097 0.7019 0.2097h0.886v0.6291h-0.963c-0.5906 0-1.0072-0.1184-1.2498-0.3552-0.2425-0.2368-0.3638-0.6449-0.3638-1.2241v-2.6022h-1.2797v-0.612h1.2797v-1.3611h0.7876"/>
   <path d="m3677.2-1066.2v0.6163h-0.2739c-0.7105 0-1.187-0.1055-1.4295-0.3167-0.2397-0.2111-0.3596-0.632-0.3595-1.2626v-1.0229c-1e-4 -0.4308-0.077-0.729-0.2312-0.8945-0.1512-0.1655-0.4265-0.2482-0.826-0.2482h-0.2654v-0.6121h0.2654c0.4023 0 0.6791-0.081 0.8303-0.2439 0.1512-0.1627 0.2268-0.458 0.2269-0.886v-1.0272c-1e-4 -0.6305 0.1198-1.05 0.3595-1.2583 0.2425-0.2111 0.719-0.3167 1.4295-0.3167h0.2739v0.612h-0.2996c-0.3995 1e-4 -0.6606 0.063-0.7832 0.1884-0.1199 0.1227-0.1798 0.3866-0.1798 0.7918v1.0614c0 0.448-0.066 0.7732-0.1969 0.9758-0.1284 0.2026-0.3495 0.3396-0.6634 0.4109 0.3167 0.077 0.5393 0.2168 0.6677 0.4194s0.1926 0.5265 0.1926 0.9716v1.0614c0 0.408 0.06 0.6734 0.1798 0.7961 0.1226 0.1227 0.3837 0.184 0.7832 0.184h0.2996"/>
   <path d="m3682.5-1071.5-1.7163 2.294 1.8832 2.4995h-0.9116l-1.4039-1.9217-1.3995 1.9217h-0.9116l1.8831-2.4995-1.7162-2.294h0.8731l1.2711 1.7334 1.2626-1.7334h0.886"/>
   <path d="m3683.9-1066.2h0.291c0.4024 0 0.6649-0.063 0.7876-0.1883 0.1227-0.1255 0.184-0.3895 0.184-0.7918v-1.0614c0-0.4451 0.064-0.769 0.1926-0.9716 0.1284-0.2026 0.351-0.3424 0.6677-0.4194-0.3139-0.071-0.5365-0.2083-0.6677-0.4109-0.1284-0.2026-0.1926-0.5278-0.1926-0.9758v-1.0614c0-0.4024-0.061-0.6663-0.184-0.7918-0.1227-0.1256-0.3852-0.1883-0.7876-0.1884h-0.291v-0.612h0.2654c0.7104 0 1.1855 0.1056 1.4252 0.3167 0.2397 0.2083 0.3595 0.6278 0.3595 1.2583v1.0272c0 0.428 0.076 0.7233 0.2269 0.886 0.154 0.1626 0.4322 0.2439 0.8345 0.2439h0.274v0.6121h-0.274c-0.4023 0-0.6805 0.083-0.8345 0.2482-0.1513 0.1655-0.2269 0.4637-0.2269 0.8945v1.0229c0 0.6306-0.1198 1.0515-0.3595 1.2626-0.2397 0.2112-0.7148 0.3167-1.4252 0.3167h-0.2654v-0.6163"/>
  </g>
  <g transform="matrix(2.0003 0 0 2 -3609.1 634.13)" opacity=".15">
   <path d="m3655.3-1071.4v0.7704c-0.2254-0.1313-0.4523-0.2297-0.6805-0.2953-0.2283-0.066-0.4608-0.099-0.6977-0.099-0.3566 0-0.6234 0.059-0.8003 0.1755-0.1741 0.1141-0.2611 0.2896-0.2611 0.5264 0 0.214 0.066 0.3738 0.1969 0.4794 0.1312 0.1056 0.4579 0.2083 0.9801 0.3082l0.3167 0.06c0.3909 0.074 0.6862 0.2225 0.886 0.4451 0.2025 0.2225 0.3038 0.5122 0.3038 0.8688 0 0.4737-0.1683 0.8446-0.505 1.1128-0.3367 0.2654-0.8046 0.398-1.4038 0.398-0.2369 0-0.4851-0.026-0.7447-0.077-0.2597-0.049-0.5407-0.1227-0.8432-0.2225v-0.8132c0.2939 0.1512 0.575 0.2653 0.8432 0.3424 0.2682 0.074 0.5221 0.1112 0.7618 0.1112 0.3481 0 0.6177-0.07 0.8089-0.2097 0.1912-0.1426 0.2868-0.341 0.2868-0.5949 0-0.3652-0.3496-0.6177-1.0486-0.7576l-0.034-0.01-0.2953-0.06c-0.4537-0.089-0.7846-0.2369-0.9929-0.4451-0.2083-0.2112-0.3125-0.4979-0.3125-0.8603 0-0.4594 0.1555-0.8132 0.4665-1.0614 0.3111-0.2511 0.7547-0.3767 1.3311-0.3767 0.2568 0 0.5036 0.024 0.7404 0.073 0.2369 0.046 0.4694 0.1155 0.6977 0.2097"/>
   <path d="m3657.8-1069.1c0 0.6106 0.096 1.0714 0.2867 1.3824 0.1941 0.311 0.4808 0.4665 0.8603 0.4665s0.6663-0.1555 0.8603-0.4665c0.1969-0.3139 0.2953-0.7747 0.2953-1.3824 0-0.6078-0.098-1.0672-0.2953-1.3782-0.194-0.3139-0.4808-0.4708-0.8603-0.4708s-0.6662 0.1555-0.8603 0.4665c-0.1911 0.311-0.2867 0.7718-0.2867 1.3825m2.3026 1.7804c-0.1284 0.2368-0.3024 0.4195-0.5222 0.5478-0.2168 0.1256-0.4693 0.1884-0.7575 0.1884-0.5735 0-1.0272-0.2212-1.361-0.6634-0.331-0.4451-0.4965-1.0572-0.4965-1.8361 0-0.7932 0.1655-1.4138 0.4965-1.8618s0.7846-0.672 1.361-0.672c0.2853 0 0.5364 0.063 0.7533 0.1884 0.2197 0.1226 0.3951 0.3024 0.5264 0.5392v-0.612h0.7918v6.6168h-0.7918v-2.4353"/>
   <path d="m3666.5-1070.4c-0.1683-0.1313-0.3395-0.2268-0.5136-0.2868-0.174-0.06-0.3652-0.09-0.5735-0.09-0.4908 0-0.866 0.154-1.1256 0.4622-0.2597 0.3082-0.3895 0.7533-0.3895 1.3353v2.384h-0.7918v-4.7936h0.7918v0.9373c0.1312-0.3395 0.3324-0.5992 0.6035-0.7789 0.2739-0.1826 0.5977-0.2739 0.9715-0.2739 0.194 0 0.3752 0.024 0.5436 0.073 0.1683 0.049 0.3295 0.1241 0.4836 0.2269v0.8046"/>
   <path d="m3669.9-1072.8v1.3611h1.789v0.612h-1.789v2.6022c0 0.3538 0.067 0.6006 0.2011 0.7405 0.1341 0.1398 0.3681 0.2097 0.7019 0.2097h0.886v0.6291h-0.963c-0.5906 0-1.0072-0.1184-1.2498-0.3552-0.2425-0.2368-0.3638-0.6449-0.3638-1.2241v-2.6022h-1.2797v-0.612h1.2797v-1.3611h0.7876"/>
   <path d="m3677.2-1066.2v0.6163h-0.2739c-0.7105 0-1.187-0.1055-1.4295-0.3167-0.2397-0.2111-0.3596-0.632-0.3595-1.2626v-1.0229c-1e-4 -0.4308-0.077-0.729-0.2312-0.8945-0.1512-0.1655-0.4265-0.2482-0.826-0.2482h-0.2654v-0.6121h0.2654c0.4023 0 0.6791-0.081 0.8303-0.2439 0.1512-0.1627 0.2268-0.458 0.2269-0.886v-1.0272c-1e-4 -0.6305 0.1198-1.05 0.3595-1.2583 0.2425-0.2111 0.719-0.3167 1.4295-0.3167h0.2739v0.612h-0.2996c-0.3995 1e-4 -0.6606 0.063-0.7832 0.1884-0.1199 0.1227-0.1798 0.3866-0.1798 0.7918v1.0614c0 0.448-0.066 0.7732-0.1969 0.9758-0.1284 0.2026-0.3495 0.3396-0.6634 0.4109 0.3167 0.077 0.5393 0.2168 0.6677 0.4194s0.1926 0.5265 0.1926 0.9716v1.0614c0 0.408 0.06 0.6734 0.1798 0.7961 0.1226 0.1227 0.3837 0.184 0.7832 0.184h0.2996"/>
   <path d="m3682.5-1071.5-1.7163 2.294 1.8832 2.4995h-0.9116l-1.4039-1.9217-1.3995 1.9217h-0.9116l1.8831-2.4995-1.7162-2.294h0.8731l1.2711 1.7334 1.2626-1.7334h0.886"/>
   <path d="m3683.9-1066.2h0.291c0.4024 0 0.6649-0.063 0.7876-0.1883 0.1227-0.1255 0.184-0.3895 0.184-0.7918v-1.0614c0-0.4451 0.064-0.769 0.1926-0.9716 0.1284-0.2026 0.351-0.3424 0.6677-0.4194-0.3139-0.071-0.5365-0.2083-0.6677-0.4109-0.1284-0.2026-0.1926-0.5278-0.1926-0.9758v-1.0614c0-0.4024-0.061-0.6663-0.184-0.7918-0.1227-0.1256-0.3852-0.1883-0.7876-0.1884h-0.291v-0.612h0.2654c0.7104 0 1.1855 0.1056 1.4252 0.3167 0.2397 0.2083 0.3595 0.6278 0.3595 1.2583v1.0272c0 0.428 0.076 0.7233 0.2269 0.886 0.154 0.1626 0.4322 0.2439 0.8345 0.2439h0.274v0.6121h-0.274c-0.4023 0-0.6805 0.083-0.8345 0.2482-0.1513 0.1655-0.2269 0.4637-0.2269 0.8945v1.0229c0 0.6306-0.1198 1.0515-0.3595 1.2626-0.2397 0.2112-0.7148 0.3167-1.4252 0.3167h-0.2654v-0.6163"/>
  </g>
  <g transform="matrix(2.0003 0 0 2 -3609.1 632.13)" fill="url(#o)" opacity=".9">
   <path d="m3655.3-1071.4v0.7704c-0.2254-0.1313-0.4523-0.2297-0.6805-0.2953-0.2283-0.066-0.4608-0.099-0.6977-0.099-0.3566 0-0.6234 0.059-0.8003 0.1755-0.1741 0.1141-0.2611 0.2896-0.2611 0.5264 0 0.214 0.066 0.3738 0.1969 0.4794 0.1312 0.1056 0.4579 0.2083 0.9801 0.3082l0.3167 0.06c0.3909 0.074 0.6862 0.2225 0.886 0.4451 0.2025 0.2225 0.3038 0.5122 0.3038 0.8688 0 0.4737-0.1683 0.8446-0.505 1.1128-0.3367 0.2654-0.8046 0.398-1.4038 0.398-0.2369 0-0.4851-0.026-0.7447-0.077-0.2597-0.049-0.5407-0.1227-0.8432-0.2225v-0.8132c0.2939 0.1512 0.575 0.2653 0.8432 0.3424 0.2682 0.074 0.5221 0.1112 0.7618 0.1112 0.3481 0 0.6177-0.07 0.8089-0.2097 0.1912-0.1426 0.2868-0.341 0.2868-0.5949 0-0.3652-0.3496-0.6177-1.0486-0.7576l-0.034-0.01-0.2953-0.06c-0.4537-0.089-0.7846-0.2369-0.9929-0.4451-0.2083-0.2112-0.3125-0.4979-0.3125-0.8603 0-0.4594 0.1555-0.8132 0.4665-1.0614 0.3111-0.2511 0.7547-0.3767 1.3311-0.3767 0.2568 0 0.5036 0.024 0.7404 0.073 0.2369 0.046 0.4694 0.1155 0.6977 0.2097"/>
   <path d="m3657.8-1069.1c0 0.6106 0.096 1.0714 0.2867 1.3824 0.1941 0.311 0.4808 0.4665 0.8603 0.4665s0.6663-0.1555 0.8603-0.4665c0.1969-0.3139 0.2953-0.7747 0.2953-1.3824 0-0.6078-0.098-1.0672-0.2953-1.3782-0.194-0.3139-0.4808-0.4708-0.8603-0.4708s-0.6662 0.1555-0.8603 0.4665c-0.1911 0.311-0.2867 0.7718-0.2867 1.3825m2.3026 1.7804c-0.1284 0.2368-0.3024 0.4195-0.5222 0.5478-0.2168 0.1256-0.4693 0.1884-0.7575 0.1884-0.5735 0-1.0272-0.2212-1.361-0.6634-0.331-0.4451-0.4965-1.0572-0.4965-1.8361 0-0.7932 0.1655-1.4138 0.4965-1.8618s0.7846-0.672 1.361-0.672c0.2853 0 0.5364 0.063 0.7533 0.1884 0.2197 0.1226 0.3951 0.3024 0.5264 0.5392v-0.612h0.7918v6.6168h-0.7918v-2.4353"/>
   <path d="m3666.5-1070.4c-0.1683-0.1313-0.3395-0.2268-0.5136-0.2868-0.174-0.06-0.3652-0.09-0.5735-0.09-0.4908 0-0.866 0.154-1.1256 0.4622-0.2597 0.3082-0.3895 0.7533-0.3895 1.3353v2.384h-0.7918v-4.7936h0.7918v0.9373c0.1312-0.3395 0.3324-0.5992 0.6035-0.7789 0.2739-0.1826 0.5977-0.2739 0.9715-0.2739 0.194 0 0.3752 0.024 0.5436 0.073 0.1683 0.049 0.3295 0.1241 0.4836 0.2269v0.8046"/>
   <path d="m3669.9-1072.8v1.3611h1.789v0.612h-1.789v2.6022c0 0.3538 0.067 0.6006 0.2011 0.7405 0.1341 0.1398 0.3681 0.2097 0.7019 0.2097h0.886v0.6291h-0.963c-0.5906 0-1.0072-0.1184-1.2498-0.3552-0.2425-0.2368-0.3638-0.6449-0.3638-1.2241v-2.6022h-1.2797v-0.612h1.2797v-1.3611h0.7876"/>
   <path d="m3677.2-1066.2v0.6163h-0.2739c-0.7105 0-1.187-0.1055-1.4295-0.3167-0.2397-0.2111-0.3596-0.632-0.3595-1.2626v-1.0229c-1e-4 -0.4308-0.077-0.729-0.2312-0.8945-0.1512-0.1655-0.4265-0.2482-0.826-0.2482h-0.2654v-0.6121h0.2654c0.4023 0 0.6791-0.081 0.8303-0.2439 0.1512-0.1627 0.2268-0.458 0.2269-0.886v-1.0272c-1e-4 -0.6305 0.1198-1.05 0.3595-1.2583 0.2425-0.2111 0.719-0.3167 1.4295-0.3167h0.2739v0.612h-0.2996c-0.3995 1e-4 -0.6606 0.063-0.7832 0.1884-0.1199 0.1227-0.1798 0.3866-0.1798 0.7918v1.0614c0 0.448-0.066 0.7732-0.1969 0.9758-0.1284 0.2026-0.3495 0.3396-0.6634 0.4109 0.3167 0.077 0.5393 0.2168 0.6677 0.4194s0.1926 0.5265 0.1926 0.9716v1.0614c0 0.408 0.06 0.6734 0.1798 0.7961 0.1226 0.1227 0.3837 0.184 0.7832 0.184h0.2996"/>
   <path d="m3682.5-1071.5-1.7163 2.294 1.8832 2.4995h-0.9116l-1.4039-1.9217-1.3995 1.9217h-0.9116l1.8831-2.4995-1.7162-2.294h0.8731l1.2711 1.7334 1.2626-1.7334h0.886"/>
   <path d="m3683.9-1066.2h0.291c0.4024 0 0.6649-0.063 0.7876-0.1883 0.1227-0.1255 0.184-0.3895 0.184-0.7918v-1.0614c0-0.4451 0.064-0.769 0.1926-0.9716 0.1284-0.2026 0.351-0.3424 0.6677-0.4194-0.3139-0.071-0.5365-0.2083-0.6677-0.4109-0.1284-0.2026-0.1926-0.5278-0.1926-0.9758v-1.0614c0-0.4024-0.061-0.6663-0.184-0.7918-0.1227-0.1256-0.3852-0.1883-0.7876-0.1884h-0.291v-0.612h0.2654c0.7104 0 1.1855 0.1056 1.4252 0.3167 0.2397 0.2083 0.3595 0.6278 0.3595 1.2583v1.0272c0 0.428 0.076 0.7233 0.2269 0.886 0.154 0.1626 0.4322 0.2439 0.8345 0.2439h0.274v0.6121h-0.274c-0.4023 0-0.6805 0.083-0.8345 0.2482-0.1513 0.1655-0.2269 0.4637-0.2269 0.8945v1.0229c0 0.6306-0.1198 1.0515-0.3595 1.2626-0.2397 0.2112-0.7148 0.3167-1.4252 0.3167h-0.2654v-0.6163"/>
  </g>
  <use transform="matrix(-1,0,0,1,7460,0)" width="5033" height="1085" xlink:href="#k"/>
  <path d="m3672.5-1527.1h115.01m-115.01-45h115.01m-115.01-20h115.01" fill="none" opacity=".75" stroke="#fff" stroke-linecap="square" stroke-width="1px"/>
  <path d="m3781.5-1597.1v72.999m-103-72.999v72.999m51-72.999v72.999m-57.004-4h115.01m-115.01-45h115.01m-115.01-20h115.01" fill="none" opacity=".25" stroke="#f87019" stroke-dasharray="1, 1" stroke-linecap="square"/>
  <path d="m3722-1592.6h60.032v12h-6.0033v-4h-48.286l-24.365 58h-5.0992l-14.814-31.545-5.8739 3.2928-2.1997-7.5648 0.6725-1.5554 12.075-3.6375 12.594 24.58 21.262-49.57" fill="#fff"/>
  <path d="m3781.5-1597.1v72.999m-103-72.999v72.999m51-72.999v72.999m-57.004-4h115.01m-115.01-45h115.01m-115.01-20h115.01" fill="none" opacity=".7" stroke="#f87019" stroke-dasharray="1, 3" stroke-linecap="square"/>
  <path d="m3722-1593.6h60.032v12h-6.0033v-4h-49.02l-24.458 58h-3.5523l-14.98-31.966-5.8335 3.0573-2.1523-7.4951 12.106-4.6063 12.594 24.58 21.262-49.57" fill="url(#n)" opacity=".8"/>
  <path d="m3778.9-1572.6h-10.459l-12.19 15.997h-0.3098l-11.777-15.997h-11.275l16.872 22.43v0.285l-16.96 23.285h10.624l12.309-16.709h0.31l12.398 16.709h11.362l-17.364-23.665v-0.2852l16.459-22.05" fill="#fff"/>
  <path d="m3778.4-1573.6h-9.9172l-12.19 15.997h-0.3098l-11.777-15.997h-10.744l16.872 22.43v0.285l-17.492 23.285h9.9173l13.016-17.328h0.31l13.017 17.328h10.744l-17.905-23.665v-0.2852l16.459-22.05" fill="url(#m)" opacity=".8"/>
  <path d="m3722-1593.6-21.281 49.562-12.594-24.562-12.094 4.5937 0.3125 1.125 11.188-4.375 13.188 25.875 22.094-51.219h58.219v11h1v-12zm54.031 8v4h1.0938v-3.125l-1.0626-0.875h-0.031z" opacity=".25"/>
  <path d="m3733.4-1573.6 0.75 1h9.4688l11.781 16h1.4063l12.188-16h8.5938l0.75-1h-9.9063l-12.188 16h-0.3125l-11.781-16zm28.5 22.062-0.4687 1.2812 17.156 22.656h1.2187l-17.906-23.656zm-11.625 0.5v0.1562l-17.469 23.281h1.3125l16.719-22.281z" opacity=".25"/>
  <rect x="3670" y="-1523.6" width="120" height="1" fill="url(#l)" opacity=".35"/>
  <rect id="j" transform="rotate(90)" x="-1597.6" y="-3671" width="74" height="1" fill="url(#x)" opacity=".35"/>
  <use transform="translate(119)" width="5033" height="1085" xlink:href="#j"/>
  <rect id="a" transform="rotate(90)" x="-1599.4" y="-3669" width="77.75" height="1" fill="url(#w)" opacity=".25"/>
  <use transform="translate(123)" width="5033" height="1085" xlink:href="#a"/>
  <use id="g" transform="matrix(0 1 -1.5691 0 1280.8 -5189.6)" width="5033" height="1085" xlink:href="#a"/>
  <use id="f" transform="translate(0,26)" width="5033" height="1085" xlink:href="#g"/>
  <use transform="translate(0,-23)" width="5033" height="1085" opacity=".5" xlink:href="#f"/>
  <rect id="i" x="3770" y="-1516.6" width="20" height="20" fill="url(#v)" opacity=".15"/>
  <use transform="matrix(-1,0,0,1,7460,0)" width="5033" height="1085" xlink:href="#i"/>
  <use transform="matrix(0 1 -1.5691 0 1280.8 -5188.6)" width="5033" height="1085" opacity=".5" xlink:href="#a"/>
  <use transform="matrix(0 1 -1.5691 0 1280.8 -5268.6)" width="5033" height="1085" opacity=".5" xlink:href="#a"/>
  <path id="b" d="m3666-1542.6v50h50v-1h-49v-49z" fill="url(#u)" opacity=".5"/>
  <use transform="matrix(-1,0,0,1,7460,0)" width="5033" height="1085" xlink:href="#b"/>
  <use transform="rotate(180 3730 -1547.6)" width="5033" height="1085" opacity=".25" xlink:href="#b"/>
  <use transform="matrix(1 0 0 -1 0 -3095.3)" width="5033" height="1085" opacity=".25" xlink:href="#b"/>
  <rect id="h" transform="rotate(90)" x="-1517.6" y="-3669" width="22" height="1" fill="url(#t)" opacity=".5"/>
  <use transform="matrix(1.0454 0 0 1.0454 -43.666 67.959)" width="5033" height="1085" xlink:href="#h"/>
 </g>
</svg>
