<svg xmlns="http://www.w3.org/2000/svg" width="64" height="64" viewBox="0 0 16.933 16.933"><g transform="translate(0 -261.504) scale(.26458)"><path d="M8.991 989.371l46.01.004v57.985H8.992v-57.989z" fill="#fafafa"/><path d="M6.5.5l35 .003v44.003h-35V.5z" fill="none" stroke="#4f6698" stroke-width=".745" stroke-linejoin="round" stroke-opacity=".267" transform="matrix(1.34284 0 0 1.34075 -.228 988.192)"/><rect ry="0" rx="0" y="988.362" height="64" width="64" opacity=".75" fill="none"/></g><path style="marker:none" overflow="visible" d="M860.002 552.814a3.086 3.086 0 0 0-3.076 3.096v1.239a.616.616 0 0 0-.615.619v.619c0 .684.275 1.238.615 1.238.045 0 .073-.059.116-.078.182.94.578 1.756 1.114 2.322-.024.868-.13.917-.192 1.2-1.408 1.25-2.967 1.94-4.5 2.903a.604.604 0 0 0-.23.465v1.857c0 .343.275.62.616.62h12.304a.616.616 0 0 0 .615-.62v-1.857a.601.601 0 0 0-.191-.426c-1.556-.966-3.155-1.64-4.538-2.942-.062-.283-.168-.332-.192-1.2.536-.566.931-1.382 1.115-2.322.043.019.07.078.115.078.34 0 .615-.554.615-1.238v-.62a.616.616 0 0 0-.615-.618v-1.239a3.086 3.086 0 0 0-3.076-3.096z" transform="matrix(.42995 0 0 .4274 -361.288 -231.775)" color="#000" stroke-width="1.234" fill="#f2f2f2" stroke="#475272" stroke-opacity=".255" paint-order="stroke markers fill"/><path d="M8.466 4.498c-.73 0-1.323.592-1.323 1.323v.53a.264.264 0 0 0-.264.264v.265c0 .292.118.53.264.53.02 0 .031-.026.05-.034.078.402.249.75.48.992-.011.371-.057.392-.083.513-.606.534-1.276.83-1.935 1.24a.258.258 0 0 0-.099.2v.793c0 .147.118.265.265.265h5.29a.264.264 0 0 0 .264-.265v-.794a.256.256 0 0 0-.082-.182c-.669-.413-1.357-.7-1.951-1.257-.027-.121-.072-.142-.083-.513.23-.242.4-.59.48-.992.018.008.03.033.05.033.145 0 .264-.237.264-.53v-.264a.264.264 0 0 0-.265-.264v-.53c0-.73-.592-1.323-1.322-1.323z" overflow="visible" style="marker:none" color="#000" fill="#f2f2f2" paint-order="stroke markers fill"/></svg>