<svg xmlns="http://www.w3.org/2000/svg" height="64" width="64"><g transform="translate(0 -988.362)"><path d="M8.991 989.371l46.01.004v57.985H8.992v-57.989z" fill="#fafafa"/><path d="M6.5.5l35 .003v44.003h-35V.5z" fill="none" stroke="#4f6698" stroke-width=".745" stroke-linejoin="round" stroke-opacity=".267" transform="matrix(1.34284 0 0 1.34075 -.228 988.192)"/><rect ry="0" rx="0" y="988.362" height="64" width="64" opacity=".75" fill="none"/></g><path d="M31.001 11.5h3.082zm3.596 0h2.56zm3.03 0h1.154zm1.58 0h2.648zm3.117 0h2.988zm3.457 0h3.203zM31 14.5h2.655zm3.082 0h2.22zm2.692 0h2.174zm2.646 0h1.194zm1.621 0h2.391zm2.946 0h4.996zM31 17.5h2.203zm2.631 0h3.373zm3.799 0h6.916zm7.344 0H49zM31 20.5h1.971zm2.399 0h2.52zm2.947 0h6.318zm6.787 0h5.85zM15 25.5h5.85zm6.319 0h6.318zm6.746 0H30.5zm2.935 0h3.996zm4.551 0h1.95zm2.502 0H42zm4.447 0h6.483zm-27.5 3h3.201zm3.672 0h2.945zm3.457 0h2.647zm3.074 0h1.153zm1.623 0h2.561zm3.075 0h6.7zm7.17 0h5.123zm5.548 0h1.625zm2.051 0H49zM15 31.5h5.38zm5.807 0h5.764zm6.187 0h2.223zm2.649 0h5.422zm5.848 0h6.832zm7.3 0h6.21zm-27.79 3h5.849zm6.318 0h6.318zm6.746 0h2.517zm2.943 0h5.936zm6.318 0h4.057zm4.528 0h1.62zm2.049 0h.894zm1.363 0H49zM15 37.5h4.994zm5.55 0h2.39zm2.817 0h1.196zm1.665 0h2.177zm2.646 0h2.223zm2.647 0h3.544zm4.013 0h4.61zm5.037 0h3.075zm3.502 0H49zM15 42.478h4.227zm4.655 0h6.916zm7.34 0h3.374zm3.802 0H33zM15.001 45.5h4.994zm5.55 0h2.39zm2.817 0h1.196zm1.665 0h2.177zm2.646 0h2.223zm2.647 0H33zM15 48.5h5.293zm5.764 0h1.666zm2.09 0h3.8zm4.226 0H33zM15 51.5h5.293zm5.764 0h2.39zm2.818 0h3.754zm4.182 0H33z" fill="none" stroke="#4f6596" stroke-opacity=".267"/><path d="M35.279 50.745c1.861-.866 3.81-1.776 3.81-3.724 0-.606-.26-.606-1.386-.692-1.255-.087-1.775-.91-1.775-2.035 0-1.558.995-2.294 2.208-2.294 1.818 0 3.16 1.602 3.16 3.81 0 1.688-.822 3.419-2.294 4.675-.996.822-1.818 1.125-3.204 1.515zm7.705 0c1.862-.866 3.81-1.776 3.81-3.724 0-.606-.26-.606-1.386-.692-1.255-.087-1.774-.91-1.774-2.035 0-1.558.995-2.294 2.207-2.294 1.818 0 3.16 1.602 3.16 3.81 0 1.688-.822 3.419-2.294 4.675-.996.822-1.818 1.125-3.203 1.515zM21.018 12.257c-1.862.865-3.81 1.775-3.81 3.723 0 .606.26.606 1.385.692 1.255.087 1.776.91 1.776 2.035 0 1.558-.996 2.294-2.208 2.294-1.818 0-3.161-1.602-3.161-3.81 0-1.688.823-3.42 2.294-4.675.996-.822 1.82-1.125 3.204-1.515zm7.706 0c-1.861.865-3.81 1.775-3.81 3.723 0 .606.26.606 1.386.692 1.255.087 1.775.91 1.775 2.035 0 1.558-.996 2.294-2.208 2.294-1.818 0-3.16-1.602-3.16-3.81 0-1.688.822-3.42 2.294-4.675.996-.822 1.818-1.125 3.204-1.515z" fill="#4f6596" fill-opacity=".267"/></svg>