<svg xmlns="http://www.w3.org/2000/svg" height="64" width="64"><g transform="translate(0 -988.362)"><path d="M8.991 989.371l46.01.004v57.985H8.992v-57.989z" fill="#fafafa"/><path d="M6.5.5l35 .003v44.003h-35V.5z" fill="none" stroke="#4f6698" stroke-width=".745" stroke-linejoin="round" stroke-opacity=".267" transform="matrix(1.34284 0 0 1.34075 -.228 988.192)"/><rect ry="0" rx="0" y="988.362" height="64" width="64" opacity=".75" fill="none"/></g><path style="line-height:125%;-inkscape-font-specification:'Latin Modern Roman';text-align:start" d="M36.31 22.063v.66h.44c1.171 0 1.575.15 1.98.747l3.914 5.937-3.519 5.146c-.298.426-.928 1.408-3.079 1.408v.66l2.375-.089c.788 0 1.96.024 2.727.088v-.66c-.98-.02-1.363-.628-1.363-1.01 0-.193.07-.25.22-.485l3.034-4.486 3.343 5.102c.043.085.132.156.132.22 0 .255-.492.638-1.408.66v.66c.746-.064 2.314-.089 3.123-.089L51 36.62v-.66h-.396c-1.107 0-1.576-.131-2.023-.791l-4.486-6.773 2.903-4.266c.468-.682 1.227-1.386 3.122-1.408v-.66l-2.375.088a39.39 39.39 0 0 1-2.726-.087v.66c.851.02 1.319.477 1.319.967 0 .213-.027.293-.176.528l-2.463 3.562-2.727-4.09c-.042-.064-.132-.223-.132-.308 0-.256.448-.638 1.364-.66v-.66c-.746.064-2.314.088-3.123.088l-2.77-.087zm-22.914.131L13 26.988h.528c.298-3.428.611-4.134 3.826-4.134.383 0 .93.002 1.144.044.447.085.483.302.483.792v11.215c0 .724-.007 1.056-2.243 1.056h-.88v.66c.874-.065 3.068-.089 4.047-.089.98 0 3.173.024 4.046.088v-.66h-.88c-2.235 0-2.198-.331-2.198-1.055V23.69c0-.426-.032-.707.352-.792.234-.042.826-.044 1.231-.044 3.215 0 3.528.706 3.826 4.134h.528l-.396-4.794H13.396zm11.523 5.586v.66h.528c1.64 0 1.671.2 1.671.967V40.58c0 .766-.032 1.011-1.671 1.011h-.528v.66h12.27l.924-5.498h-.571c-.533 3.28-1 4.838-4.662 4.838h-2.815c-1 0-1.056-.177-1.056-.88v-5.673H30.9c2.066 0 2.331.697 2.331 2.507h.528V31.87h-.528c0 1.831-.265 2.507-2.33 2.507h-1.892v-5.102c0-.702.055-.835 1.056-.835h2.727c3.257 0 3.837 1.13 4.178 4.09h.528l-.616-4.75H24.919z" font-weight="400" font-size="15.128" font-family="Latin Modern Roman" letter-spacing="0" word-spacing="0" fill="#b3b3b3"/></svg>