<svg width="64" height="64" version="1.1" viewBox="0 0 16.933 16.933" xmlns="http://www.w3.org/2000/svg">
 <g transform="translate(0 -261.5) scale(.26458)">
  <path d="M8.991 989.371l46.01.004v57.985H8.992v-57.989z" fill="#fafafa"/>
  <path transform="matrix(1.3428 0 0 1.3408 -.228 988.19)" d="M6.5.5l35 .003v44.003h-35V.5z" fill="none" stroke="#4f6698" stroke-linejoin="round" stroke-opacity=".267" stroke-width=".745"/>
  <rect y="988.36" width="64" height="64" rx="0" ry="0" fill="none" opacity=".75"/>
 </g>
 <rect x="5.026" y="2.911" width="6.879" height="1.058" rx=".313" ry=".241" fill="#b4bfd8" fill-opacity=".493"/>
 <path d="m5.82 3.44h0.62v0.265h-0.62zm1.058 0h0.516v0.265h-0.516zm1.058 0h0.507v0.265h-0.507z" fill="#7f92bc"/>
 <rect x="9.127" y="5.954" width="2.646" height="2.117" rx="0" ry="0" fill="none" stroke="#b4bfd8" stroke-width=".265"/>
 <path d="m12.831 2.118v12.7m-9.393-12.569h9.26m-9.26 11.378h10.055m-9.393-12.569v13.76" fill="none" stroke="#b4bfd8" stroke-width=".265"/>
 <path d="m8.995 3.44h0.506v0.265h-0.506z" fill="#7f92bc"/>
 <path d="m5.026 4.763h0.561v0.265h-0.561zm0.784 0h0.56v0.265h-0.56zm0.776 0h0.33v0.265h-0.33zm0.568 0h0.56v0.265h-0.56zm0.776 0h1.101v0.265h-1.1zm1.345 0h1.076v0.265h-1.076zm-4.249 3.175h0.844v0.265h-0.844zm1.049 0h0.576v0.265h-0.576zm0.793 0h0.319v0.265h-0.32zm0.55 0h0.77v0.265h-0.77zm-2.392-1.058h1.092v0.264h-1.092zm1.332 0h0.823v0.264h-0.823zm1.037 0h0.788v0.264h-0.788zm-2.369 0.528h1.345v0.265h-1.345zm1.54 0h0.871v0.265h-0.87zm1.106 0h0.286v0.265h-0.286zm-2.646 2.117h1.109v0.265h-1.11zm1.314 0h0.285v0.265h-0.285zm0.501 0h0.61v0.265h-0.61zm0.82 0h1.106v0.265h-1.106zm1.32 0h0.844v0.265h-0.844zm1.049 0h0.339v0.265h-0.339zm-5.004-0.529h0.837v0.265h-0.837zm1.055 0h1.107v0.265h-1.107zm1.325 0h0.57v0.265h-0.57zm2.379 0h0.305v0.265h-0.305zm0.523 0h0.59v0.265h-0.59zm-2.113 0h1.372v0.265h-1.372zm-3.169 1.058h1.077v0.265h-1.077zm1.277 0h0.868v0.265h-0.868zm1.085 0h0.581v0.265h-0.581zm0.798 0h0.264v0.265h-0.264zm0.534 0h0.568v0.265h-0.568zm0.785 0h0.575v0.265h-0.575zm0.791 0h0.847v0.265h-0.847zm-5.27-1.587h1.107v0.264h-1.107zm1.328 0h1.084v0.264h-1.084zm1.331 0h0.516v0.264h-0.516zm-2.659-2.646h0.82v0.265h-0.82zm1.049 0h0.576v0.265h-0.576zm0.819 0h0.557v0.265h-0.557zm0.789 0h0.266v0.265h-0.266zm-2.657-0.529h1.1v0.265h-1.1zm1.328 0h1.084v0.265h-1.084zm1.331 0h0.516v0.265h-0.516zm-2.659 1.058h1.107v0.265h-1.107zm1.328 0h1.057v0.265h-1.057zm1.304 0h0.538v0.265h-0.538zm3.471 2.646h0.816v0.265h-0.816zm-0.564-4.233h1.35v0.265h-1.35zm0.021 4.762h1.082v0.265h-1.082zm0.775 0.529h0.556v0.265h-0.556zm-6.335 1.059h1.109v0.265h-1.11zm1.314 0h0.285v0.265h-0.285zm0.501 0h0.61v0.265h-0.61zm0.82 0h1.106v0.265h-1.106zm1.32 0h0.844v0.265h-0.844zm-3.955-0.529h0.837v0.264h-0.837zm1.055 0h1.107v0.264h-1.107zm1.325 0h0.57v0.264h-0.57zm0.789 0h1.372v0.264h-1.372zm-3.169 1.058h1.077v0.264h-1.077zm1.277 0h0.868v0.264h-0.868zm1.085 0h0.581v0.264h-0.581zm0.798 0h0.264v0.264h-0.264zm0.534 0h0.568v0.264h-0.568zm0.785 0h0.575v0.264h-0.575zm0.791 0h0.847v0.264h-0.847zm1.065 0h0.556v0.264h-0.556zm-6.341 1.058h1.11v0.265h-1.11zm1.314 0h0.285v0.265h-0.285zm0.501 0h0.61v0.265h-0.61zm0.82 0h1.106v0.265h-1.106zm1.32 0h0.844v0.265h-0.844zm-3.955-0.529h0.837v0.265h-0.837zm1.055 0h1.107v0.265h-1.107zm1.325 0h0.57v0.265h-0.57zm0.788 0h1.373v0.265h-1.373z" fill="#b4bfd8"/>
</svg>
