<svg xmlns="http://www.w3.org/2000/svg" width="64" height="64" viewBox="0 0 16.933 16.933"><defs><linearGradient id="a"><stop offset="0" stop-color="#791235"/><stop offset="1" stop-color="#dd3b27"/></linearGradient><linearGradient id="b"><stop offset="0" stop-color="#fff"/><stop offset=".091" stop-color="#fff" stop-opacity=".235"/><stop offset=".955" stop-color="#fff" stop-opacity=".157"/><stop offset="1" stop-color="#fff" stop-opacity=".392"/></linearGradient></defs><g transform="translate(0 -261.504) scale(.26458)"><path d="M8.991 989.371l46.01.004v57.985H8.992v-57.989z" fill="#fafafa"/><path d="M6.5.5l35 .003v44.003h-35V.5z" fill="none" stroke="#4f6698" stroke-width=".745" stroke-linejoin="round" stroke-opacity=".267" transform="matrix(1.34284 0 0 1.34075 -.228 988.192)"/><rect ry="0" rx="0" y="988.362" height="64" width="64" opacity=".75" fill="none"/></g><path d="M4.233 2.381v.265h.844V2.38zm.955 0v.265h.8V2.38zm.91 0v.265h.7V2.38zm.811 0v.265h.311V2.38zm.422 0v.265h.688V2.38zm.81 0v.265h1.777V2.38zm-3.908.794v.265h1.344v-.265zm1.477 0v.265h.644v-.265zm.766 0v.265h.3v-.265zm.433 0v.265h.578v-.265zm.71 0v.265h.578v-.265zm.7 0v.265h.944v-.265zm1.077 0v.265h1.233v-.265zm-5.163.794v.264h1.488V3.97zm1.6 0v.264H7.43V3.97zm-1.6.793v.265h.822v-.265zm.933 0v.265h.766v-.265zm.877 0v.265h.677v-.265zm1.388 3.97v.264h.833V8.73zm.944 0v.264h.777V8.73zm.888 0v.264h.655V8.73zm-1.832.793v.265h.666v-.265zm.777 0v.265h1.71v-.265zm1.821 0v.265h1.31v-.265zm-2.598.794v.264h.866v-.264zm.988 0v.264H9.94v-.264zm1.632 0v.264h1.044v-.264zm-2.62.793v.265h.666v-.265zm.777 0v.265h.678v-.265zm.789 0v.265h.966v-.265zm1.077 0v.265h.2v-.265zm.31 0v.265h1.255v-.265zM7.41 13.494v.264h.866v-.264zm.977 0v.264h.8v-.264zm.921 0v.264h.689v-.264zm.8 0v.264h1.099v-.264zm1.221 0v.264h1.788v-.264zM4.233 5.556v.265h1.088v-.265zm0 .794v.265h1.1V6.35zm1.211-.794v.265H7.43v-.265zm.01.794v.265h1.81V6.35zm.423 5.556v.265h1.632v-.265zm1.754 0v.265h.644v-.265zm.766 0v.265h1.532v-.265zm1.654 0v.265h1.055v-.265zm1.166 0v.265h.411v-.265zm.533 0v.265h.244v-.265zm.355 0v.265h.655v-.265zM6.41 12.7v.265h.288V12.7zm.366 0v.265h.577V12.7zm.666 0v.265h.577V12.7zm.755 0v.265h.922V12.7zm1.033 0v.265h1.199V12.7zm1.365 0v.265h.81V12.7zm.91 0v.265h.19V12.7zm-7.272.794h1.08v.264h-1.08zm.977-6.35v.264h.8v-.264zm-.977.793v.265h.356v-.265zm1.122.794v.265h.655V8.73zm.044.794v.265h.966v-.265zm-.122.794v.264h.733v-.264zm-.133.793v.265h.755v-.265zm-.91.794v.265h1.52v-.265zm0 .794v.265h1.31V12.7zm1.41 0v.265h.632V12.7zm-.223.794v.264H6.61v-.264zm-1.188-6.35v.264h.833v-.264zm0 1.587v.265h.977V8.73zm0 .794v.265h1.044v-.265zm0 .794v.264h.9v-.264zm0 .793v.265h.789v-.265z" fill="#b4bfd8" fill-opacity=".549"/><path d="M11.926 9.295c0 .243-.044.455-.133.637a1.228 1.228 0 0 1-.376.455c-.162.12-.36.212-.591.272-.232.061-.49.091-.777.091-.152 0-.292-.006-.422-.016a2.922 2.922 0 0 1-1.03-.252V9.44c.116.058.238.11.365.157a4.002 4.002 0 0 0 .752.203c.121.019.233.028.335.028.113 0 .21-.01.29-.028a.608.608 0 0 0 .193-.087.335.335 0 0 0 .112-.133.382.382 0 0 0 .037-.165.344.344 0 0 0-.149-.298 1.594 1.594 0 0 0-.28-.173 7.8 7.8 0 0 0-.493-.24 5.391 5.391 0 0 1-.525-.269 1.608 1.608 0 0 1-.363-.302 1.123 1.123 0 0 1-.211-.376 1.642 1.642 0 0 1-.07-.508c0-.215.04-.403.123-.562.083-.163.2-.298.352-.406.151-.107.333-.187.546-.24a2.88 2.88 0 0 1 .715-.082c.275 0 .537.032.785.095s.503.158.765.285l-.38.893c-.21-.099-.41-.18-.6-.244a1.794 1.794 0 0 0-.57-.095c-.171 0-.295.03-.372.091a.303.303 0 0 0-.112.248c0 .055.01.105.029.15.02.04.058.085.116.131.058.044.139.094.244.15.104.052.24.116.409.194.196.085.372.17.53.256a1.8 1.8 0 0 1 .404.285c.113.108.2.233.26.376.061.144.092.317.092.521m-6.49 3.15a3.435 3.435 0 0 1-.814-.09v-1.067c.102.022.21.041.322.058.11.016.232.025.364.025.127 0 .244-.014.352-.042a.684.684 0 0 0 .475-.413c.047-.113.07-.255.07-.426V4.624h1.347v5.825c0 .347-.05.646-.153.897a1.625 1.625 0 0 1-1.066.984 2.824 2.824 0 0 1-.831.116z" style="line-height:125%;-inkscape-font-specification:'Droid Sans Bold';marker:none" color="#000" font-weight="700" font-size="32" font-family="Droid Sans" letter-spacing="0" word-spacing="0" fill="#f6a651" stroke="#f38d20" stroke-width=".265" stroke-linejoin="round"/></svg>