<svg width="64" height="64" version="1.1" viewBox="0 0 16.933 16.933" xmlns="http://www.w3.org/2000/svg">
 <g transform="translate(0 -261.5) scale(.26458)">
  <path d="M8.991 989.371l46.01.004v57.985H8.992v-57.989z" fill="#fafafa"/>
  <path transform="matrix(1.3428 0 0 1.3408 -.228 988.19)" d="M6.5.5l35 .003v44.003h-35V.5z" fill="none" stroke="#4f6698" stroke-linejoin="round" stroke-opacity=".267" stroke-width=".745"/>
  <rect y="988.36" width="64" height="64" rx="0" ry="0" fill="none" opacity=".75"/>
 </g>
 <path d="M3.968 2.381v.265h.844V2.38zm.955 0v.265h.8V2.38zm.91 0v.265h.7V2.38zm.81 0v.265h.312V2.38zm.423 0v.265h.688V2.38zm.81 0v.265h1.777V2.38zm-3.908.794v.265H5.31v-.265zm1.477 0v.265h.643v-.265zm.766 0v.265h.3v-.265zm.433 0v.265h.577v-.265zm.71 0v.265h.578v-.265zm.7 0v.265h.943v-.265zm1.077 0v.265h1.232v-.265zm-5.163.794v.264h1.488V3.97zm1.599 0v.264h1.598V3.97zm-1.6.793v.265h.822v-.265zm.933 0v.265h.767v-.265zm.878 0v.265h.677v-.265zm1.387 3.97v.264h.833V8.73zm.944 0v.264h.777V8.73zm.888 0v.264h.656V8.73zm-1.832.793v.265h.667v-.265zm.778 0v.265h1.71v-.265zm1.82 0v.265h1.31v-.265zm-2.598.794v.264h.867v-.264zm.989 0v.264h1.52v-.264zm1.632 0v.264h1.043v-.264zm-2.62.793v.265h.666v-.265zm.777 0v.265h.677v-.265zm.788 0v.265h.966v-.265zm1.077 0v.265h.2v-.265zm.31 0v.265h1.256v-.265zm-2.975 2.382v.264h.866v-.264zm.977 0v.264h.8v-.264zm.922 0v.264h.688v-.264zm.8 0v.264h1.099v-.264zm1.22 0v.264h1.788v-.264zM3.968 5.556v.265h1.088v-.265zm0 .794v.265h1.099V6.35zm1.21-.794v.265h1.987v-.265zm.011.794v.265H7V6.35zm.422 5.556v.265h1.632v-.265zm1.754 0v.265h.644v-.265zm.766 0v.265h1.533v-.265zm1.655 0v.265h1.055v-.265zm1.166 0v.265h.41v-.265zm.533 0v.265h.244v-.265zm.355 0v.265h.655v-.265zm-5.696.794v.265h.289V12.7zm.366 0v.265h.578V12.7zm.667 0v.265h.577V12.7zm.755 0v.265h.921V12.7zm1.032 0v.265h1.2V12.7zm1.366 0v.265h.81V12.7zm.91 0v.265h.189V12.7zm-7.272.794h1.079v.264h-1.08zm.977-6.35v.264h.8v-.264zm-.977.793v.265h.355v-.265zm1.121.794v.265h.655V8.73zm.045.794v.265H6.1v-.265zm-.123.794v.264h.733v-.264zm-.133.793v.265h.755v-.265zm-.91.794v.265h1.52v-.265zm0 .794v.265h1.31V12.7zm1.41 0v.265h.633V12.7zm-.222.794v.264h1.188v-.264zm-1.188-6.35v.264H4.8v-.264zm0 1.587v.265h.977V8.73zm0 .794v.265H5.01v-.265zm0 .794v.264h.9v-.264zm0 .793v.265h.788v-.265z" fill="#b4bfd8"/>
 <path d="m5.026 4.4956 1.7198 3.4395-1.7198 3.4395h1.1465l1.7198-3.4395-1.7198-3.4395zm1.7198 0 1.7198 3.4395-1.7198 3.4395h1.1465l1.1465-2.293 1.1465 2.293h1.1465l-3.4395-6.879zm3.4395 2.293 0.57325 1.1465h1.1465v-1.1465zm0.85988 1.7198 0.57325 1.1465h0.28663v-1.1465z" fill="#6c7a89" fill-rule="evenodd" stroke-width=".26458"/>
</svg>
