<svg width="64" height="64" version="1.1" viewBox="0 0 16.933 16.933" xmlns="http://www.w3.org/2000/svg">
 <g transform="matrix(.26458 0 0 .26458 0 -261.5)">
  <path d="m8.991 989.37 46.01 4e-3v57.985h-46.009v-57.989z" fill="#fafafa"/>
  <path transform="matrix(1.3428 0 0 1.3408 -.228 988.19)" d="m6.5 0.5 35 3e-3v44.003h-35z" fill="none" stroke="#4f6698" stroke-linejoin="round" stroke-opacity=".267" stroke-width=".745"/>
  <rect y="988.36" width="64" height="64" rx="0" ry="0" fill="none" opacity=".75"/>
 </g>
 <g transform="translate(-19.843 2.3149)" fill="none" stroke="#999" stroke-width=".52916">
  <ellipse cx="28.31" cy="3.7698" rx="3.4395" ry="1.3229" enable-background="new" stroke-dashoffset="1" stroke-linejoin="round"/>
  <path d="m24.87 3.7041v4.8286" enable-background="new"/>
  <g stroke-dashoffset="1" stroke-linejoin="round">
   <path d="m31.749 5.3573a3.4395 1.3229 0 0 1-1.7198 1.1457 3.4395 1.3229 0 0 1-3.4395 0 3.4395 1.3229 0 0 1-1.7198-1.1457" enable-background="new"/>
   <path d="m31.749 6.9448a3.4395 1.3229 0 0 1-1.7198 1.1457 3.4395 1.3229 0 0 1-3.4395 0 3.4395 1.3229 0 0 1-1.7198-1.1457" enable-background="new"/>
   <path d="m31.749 8.5323a3.4395 1.3229 0 0 1-1.7198 1.1457 3.4395 1.3229 0 0 1-3.4395 0 3.4395 1.3229 0 0 1-1.7198-1.1457" enable-background="new"/>
  </g>
  <path d="m31.749 3.7041v4.8286" enable-background="new"/>
 </g>
</svg>
