<svg width="64" height="64" version="1.1" xmlns="http://www.w3.org/2000/svg">
 <rect y="-.012027" width="64" height="64" rx="0" ry="0" fill="none" opacity=".75"/>
 <path d="m8.9992 1.0016h46.002v59h-45.998v-59z" color="#000000" fill="#913d88" overflow="visible" stroke-width="3.7796"/>
 <path d="m8.5003 0.49889 46.999 0.00378v59.997h-46.996v-60.001z" color="#000000" fill="none" overflow="visible" stroke="#6d2e66" stroke-linecap="round" stroke-linejoin="round" stroke-width="1.0016"/>
 <g transform="translate(2e-7 -1.4986)" fill="#fff">
  <path d="m38 22v3h-3v1h3v3h1v-3h3v-1h-3v-3z" opacity=".75"/>
  <path d="m22 22v20h1v-6a4 4 0 1 1 8 0v6h1v-6a5 5 0 0 0-5-5 5 5 0 0 0-4 2.01v-11.01z" fill-rule="evenodd" opacity=".75"/>
  <path d="m30 22v3h-3v1h3v3h1v-3h3v-1h-3v-3z" opacity=".75"/>
 </g>
</svg>
