<svg width="64" height="64" version="1.1" viewBox="0 0 16.933 16.933" xmlns="http://www.w3.org/2000/svg">
 <g transform="matrix(.26458 0 0 .26458 0 -261.5)">
  <path d="m8.991 989.37 46.01 4e-3v57.985h-46.009v-57.989z" fill="#fafafa"/>
  <path transform="matrix(1.3428 0 0 1.3408 -.228 988.19)" d="m6.5 0.5 35 3e-3v44.003h-35z" fill="none" stroke="#4f6698" stroke-linejoin="round" stroke-opacity=".267" stroke-width=".745"/>
  <rect y="988.36" width="64" height="64" rx="0" ry="0" fill="none" opacity=".75"/>
 </g>
 <path d="m5.1596 4.7627v0.52911h0.39683c0.18366 0 0.33356-0.01218 0.4795 0.03462s0.26348 0.17466 0.32333 0.36544c0.11971 0.38156 0.12252 1.0684 0.12285 2.5133-1.98e-4 0.54992-0.0037 0.96393-0.01175 1.3195h0.0061l-0.0021 0.13434c-0.0089 0.56221-0.02517 1.1323-0.05748 1.3283-0.03231 0.19598-0.09908 0.29911-0.16199 0.37164-0.07087 0.08171-0.15436 0.15439-0.2661 0.20203-0.11175 0.04764-0.24546 0.07114-0.42589 0.07996-0.18634 0.0091-0.3089 0.0028-0.40329 0v0.52924h3.7038v-0.52924c-0.0965 0.0023-0.22492 0.0075-0.40238 0-0.33002-0.01396-0.51946-0.11462-0.66578-0.26094-0.09846-0.09846-0.16711-0.23209-0.20087-0.44346-0.03377-0.21137-0.04564-0.77802-0.05374-1.2774v-0.92817h0.39683c0.54193 0 0.98614 0.11965 1.2398 0.44966l0.0088 0.0115 0.0062 0.01318c0.17339 0.3714 0.19125 0.76645 0.19428 1.113h0.53505v-3.4392h-0.52924l-2.75e-4 0.15282c-2.75e-4 0.40797-0.14753 0.72015-0.41078 0.90992-0.26324 0.18977-0.64292 0.39368-1.0439 0.26003h-0.39683v-2.9101h1.1905c1.0503 0 1.4992-0.0076 1.7868 0.16044l0.01137 0.0067 0.0099 0.0088c0.33811 0.30163 0.52063 0.62503 0.61126 0.96934 0.08015 0.30448 0.08927 0.62658 0.09094 0.97115h0.53208v-2.6455z" enable-background="new" fill="#808080" stroke-width=".079477"/>
</svg>
