<svg width="64" height="64" version="1.1" xmlns="http://www.w3.org/2000/svg">
 <g transform="translate(0 -988.36)">
  <path d="M8.991 989.371l46.01.004v57.985H8.992v-57.989z" fill="#fafafa"/>
  <path transform="matrix(1.3428 0 0 1.3408 -.228 988.19)" d="M6.5.5l35 .003v44.003h-35V.5z" fill="none" stroke="#4f6698" stroke-linejoin="round" stroke-opacity=".267" stroke-width=".745"/>
  <rect y="988.36" width="64" height="64" rx="0" ry="0" fill="none" opacity=".75"/>
 </g>
 <path d="M16 9v1h3.19V9zm3.609 0v1h3.021V9zm3.441 0v1h2.644V9zm3.063 0v1h1.175V9zm1.595 0v1h2.602V9zm3.063 0v1h6.715V9zM16 12v1h5.078v-1zm5.581 0v1h2.434v-1zm2.896 0v1h1.133v-1zm1.636 0v1h2.183v-1zm2.686 0v1h2.182v-1zm2.644 0v1h3.567v-1zm4.07 0v1h4.658v-1zM16 15v1h5.623v-1zm6.043 0v1h6.043v-1zM16 18v1h3.105v-1zm3.525 0v1h2.896v-1zm3.315 0v1h2.56v-1zm5.246 15v1h3.147v-1zm3.567 0v1h2.937v-1zm3.357 0v1h2.476v-1zm-6.924 3v1h2.518v-1zm2.937 0v1h6.463v-1zm6.882 0v1h4.952v-1zm-9.82 3v1h3.274v-1zm3.736 0v1h5.749v-1zm6.168 0v1h3.945v-1zm-9.903 3v1h2.518v-1zm2.937 0v1h2.56v-1zm2.98 0v1h3.65v-1zm4.07 0v1h.756v-1zm1.175 0v1h4.742v-1zm-11.246 9v1h3.273v-1zm3.693 0v1h3.021v-1zm3.483 0v1h2.601v-1zm3.021 0v1h4.155v-1zm4.616 0v1h6.756v-1zM16 21v1h4.112v-1zm0 3v1h4.154v-1zm4.574-3v1h7.512v-1zm.042 3v1h6.84v-1zm1.595 21v1h6.168v-1zm6.63 0v1h2.434v-1zm2.896 0v1h5.79v-1zm6.252 0v1h3.987v-1zm4.407 0v1h1.552v-1zm2.014 0v1h.923v-1zm1.343 0v1h2.476v-1zm-21.528 3v1h1.091v-1zm1.385 0v1h2.182v-1zm2.518 0v1h2.182v-1zm2.853 0v1h3.483v-1zm3.903 0v1h4.532v-1zm5.162 0v1h3.063v-1zm3.44 0v1h.714v-1zM16 51h4.078v1H16zm3.693-24v1h3.021v-1zM16 30v1h1.343v-1zm4.238 3v1h2.476v-1zm.168 3v1h3.651v-1zm-.461 3v1h2.77v-1zm-.504 3v1h2.854v-1zM16 45v1h5.75v-1zm0 3v1h4.952v-1zm5.33 0v1h2.391v-1zm-.84 3v1h4.49v-1zM16 27v1h3.147v-1zm0 6v1h3.693v-1zm0 3v1h3.945v-1zm0 3v1h3.4v-1zm0 3v1h2.98v-1z" fill="#b4bfd8" fill-opacity=".549"/>
 <g fill="#f55" aria-label="SPEC">
  <path d="m17.115 34.519c2.6062 0 4.1456-1.5698 4.1456-3.414 0-1.6308-0.89923-2.4995-2.2709-3.0635l-1.4784-0.62489c-0.96019-0.38103-1.768-0.67061-1.768-1.4784 0-0.74682 0.64013-1.1888 1.6308-1.1888 0.92971 0 1.6765 0.3353 2.3929 0.92971l1.1431-1.4174c-0.91447-0.92971-2.2252-1.4479-3.5359-1.4479-2.2862 0-3.9017 1.4174-3.9017 3.2616 0 1.646 1.1431 2.5605 2.2862 3.033l1.5089 0.64013c1.0059 0.42675 1.6918 0.68585 1.6918 1.5241 0 0.79254-0.62489 1.2955-1.7985 1.2955-0.99067 0-2.0576-0.50296-2.8653-1.2498l-1.2955 1.5546c1.0974 1.0516 2.6062 1.646 4.1151 1.646z"/>
  <path d="m23.243 34.306h2.2557v-4.0084h1.5089c2.4233 0 4.359-1.1583 4.359-3.7341 0-2.6672-1.9204-3.5359-4.4199-3.5359h-3.7036zm2.2557-5.7916v-3.7036h1.2803c1.5546 0 2.3776 0.44199 2.3776 1.7527 0 1.2955-0.74682 1.9509-2.3014 1.9509z"/>
  <path d="m33.423 34.306h7.0871v-1.8899h-4.8314v-3.0177h3.9627v-1.8899h-3.9627v-2.6062h4.6638v-1.8747h-6.9195z"/>
  <path d="m47.403 34.519c1.4632 0 2.6672-0.57916 3.5969-1.6613l-1.1888-1.4022c-0.60965 0.65537-1.3717 1.1126-2.3319 1.1126-1.7832 0-2.9415-1.4784-2.9415-3.9322 0-2.4233 1.2803-3.8865 2.9873-3.8865 0.8535 0 1.5089 0.39627 2.0728 0.94495l1.1888-1.4327c-0.73158-0.76206-1.8747-1.4479-3.3073-1.4479-2.8501 0-5.243 2.1795-5.243 5.8983 0 3.7646 2.3167 5.8069 5.1668 5.8069z"/>
 </g>
</svg>
