<svg xmlns="http://www.w3.org/2000/svg" width="64" height="64" viewBox="0 0 16.933 16.933"><defs><linearGradient id="a"><stop offset="0" stop-color="#791235"/><stop offset="1" stop-color="#dd3b27"/></linearGradient><linearGradient id="b"><stop offset="0" stop-color="#fff"/><stop offset=".091" stop-color="#fff" stop-opacity=".235"/><stop offset=".955" stop-color="#fff" stop-opacity=".157"/><stop offset="1" stop-color="#fff" stop-opacity=".392"/></linearGradient></defs><g transform="translate(0 -261.504) scale(.26458)"><path d="M8.991 989.371l46.01.004v57.985H8.992v-57.989z" fill="#fafafa"/><path d="M6.5.5l35 .003v44.003h-35V.5z" fill="none" stroke="#4f6698" stroke-width=".745" stroke-linejoin="round" stroke-opacity=".267" transform="matrix(1.34284 0 0 1.34075 -.228 988.192)"/><rect ry="0" rx="0" y="988.362" height="64" width="64" opacity=".75" fill="none"/></g><path d="M3.978 2.25v.264h.844V2.25zm.955 0v.264h.8V2.25zm.91 0v.264h.7V2.25zm.811 0v.264h.31V2.25zm.422 0v.264h.688V2.25zm.81 0v.264h1.777V2.25zm-3.908.794v.264h1.344v-.264zm1.477 0v.264h.644v-.264zm.766 0v.264h.3v-.264zm.433 0v.264h.577v-.264zm.71 0v.264h.578v-.264zm.7 0v.264h.944v-.264zm1.077 0v.264h1.233v-.264zm-5.163.793v.265h1.488v-.265zm1.599 0v.265h1.599v-.265zm-1.599.794v.265H4.8V4.63zm.933 0v.265h.766V4.63zm.877 0v.265h.677V4.63zM7.176 8.6v.264h.833V8.6zm.944 0v.264h.777V8.6zm.888 0v.264h.655V8.6zm-1.832.794v.264h.666v-.264zm.777 0v.264h1.71v-.264zm1.82 0v.264h1.311v-.264zm-2.597.793v.265h.866v-.265zm.988 0v.265h1.521v-.265zm1.632 0v.265h1.044v-.265zm-2.62.794v.265h.666v-.265zm.777 0v.265h.677v-.265zm.788 0v.265h.966v-.265zm1.077 0v.265h.2v-.265zm.311 0v.265h1.255v-.265zm-2.975 2.381v.265h.866v-.265zm.977 0v.265h.8v-.265zm.921 0v.265h.689v-.265zm.8 0v.265h1.099v-.265zm1.221 0v.265h1.788v-.265zM3.978 5.425v.264h1.088v-.264zm0 .794v.264h1.1V6.22zm1.21-.794v.264h1.988v-.264zm.011.794v.264h1.81V6.22zm.422 5.556v.264h1.633v-.264zm1.755 0v.264h.644v-.264zm.766 0v.264h1.532v-.264zm1.654 0v.264h1.055v-.264zm1.166 0v.264h.41v-.264zm.533 0v.264h.244v-.264zm.355 0v.264h.655v-.264zm-5.696.794v.264h.289v-.264zm.367 0v.264h.577v-.264zm.666 0v.264h.577v-.264zm.755 0v.264h.921v-.264zm1.033 0v.264h1.199v-.264zm1.365 0v.264h.81v-.264zm.91 0v.264h.19v-.264zm-7.272.793h1.08v.265h-1.08zm.977-6.35v.265h.8v-.265zm-.977.794v.265h.355v-.265zM5.1 8.6v.264h.655V8.6zm.044.794v.264h.966v-.264zm-.122.793v.265h.733v-.265zm-.133.794v.265h.755v-.265zm-.91.794v.264h1.52v-.264zm0 .794v.264h1.31v-.264zm1.41 0v.264h.632v-.264zm-.223.793v.265h1.188v-.265zm-1.188-6.35v.265h.833v-.265zm0 1.588v.264h.977V8.6zm0 .794v.264h1.044v-.264zm0 .793v.265h.9v-.265zm0 .794v.265h.788v-.265z" fill="#b4bfd8" fill-opacity=".549"/><path d="M6.44 8.6c-.324.333-.593.532-.97.532-.724 0-1.311-.604-1.311-1.334 0-.317.121-.656.322-.889.238-.28.577-.428.974-.428.455 0 .762.187 1.027.531h.81c-.154-.338-.292-.523-.556-.74-.36-.291-.82-.49-1.297-.49-1.106 0-2.01.905-2.01 2.01A2.04 2.04 0 0 0 5.486 9.83c.804 0 1.497-.516 1.804-1.23zm2.3-1.058H7.683v.529h1.059v1.058h.529V8.071h1.058v-.53H9.27V6.484h-.53zm3.176 0h-1.059v.529h1.059v1.058h.529V8.071h1.058v-.53h-1.058V6.484h-.53z" style="-inkscape-font-specification:'URW Gothic Semi-Bold'" font-weight="600" font-size="20" font-family="URW Gothic" letter-spacing="0" word-spacing="0" fill="#8fca35"/></svg>