<svg xmlns="http://www.w3.org/2000/svg" width="64" height="64" viewBox="0 0 16.933 16.933"><defs><linearGradient id="a"><stop offset="0" stop-color="#791235"/><stop offset="1" stop-color="#dd3b27"/></linearGradient><linearGradient id="b"><stop offset="0" stop-color="#fff"/><stop offset=".091" stop-color="#fff" stop-opacity=".235"/><stop offset=".955" stop-color="#fff" stop-opacity=".157"/><stop offset="1" stop-color="#fff" stop-opacity=".392"/></linearGradient></defs><g transform="translate(0 -261.504) scale(.26458)"><path d="M8.991 989.371l46.01.004v57.985H8.992v-57.989z" fill="#fafafa"/><path d="M6.5.5l35 .003v44.003h-35V.5z" fill="none" stroke="#4f6698" stroke-width=".745" stroke-linejoin="round" stroke-opacity=".267" transform="matrix(1.34284 0 0 1.34075 -.228 988.192)"/><rect ry="0" rx="0" y="988.362" height="64" width="64" opacity=".75" fill="none"/></g><path d="M4.233 2.381v.265h.844V2.38zm.955 0v.265h.8V2.38zm.91 0v.265h.7V2.38zm.811 0v.265h.311V2.38zm.422 0v.265h.688V2.38zm.81 0v.265h1.777V2.38zm-3.908.794v.265h1.344v-.265zm1.477 0v.265h.644v-.265zm.766 0v.265h.3v-.265zm.433 0v.265h.578v-.265zm.71 0v.265h.578v-.265zm.7 0v.265h.944v-.265zm1.077 0v.265h1.233v-.265zm-5.163.794v.264h1.488V3.97zm1.6 0v.264H7.43V3.97zm-1.6.793v.265h.822v-.265zm.933 0v.265h.766v-.265zm.877 0v.265h.677v-.265zm1.388 3.97v.264h.833V8.73zm.944 0v.264h.777V8.73zm.888 0v.264h.655V8.73zm-1.832.793v.265h.666v-.265zm.777 0v.265h1.71v-.265zm1.821 0v.265h1.31v-.265zm-2.598.794v.264h.866v-.264zm.988 0v.264H9.94v-.264zm1.632 0v.264h1.044v-.264zm-2.62.793v.265h.666v-.265zm.777 0v.265h.678v-.265zm.789 0v.265h.966v-.265zm1.077 0v.265h.2v-.265zm.31 0v.265h1.255v-.265zM7.41 13.494v.264h.866v-.264zm.977 0v.264h.8v-.264zm.921 0v.264h.689v-.264zm.8 0v.264h1.099v-.264zm1.221 0v.264h1.788v-.264zM4.233 5.556v.265h1.088v-.265zm0 .794v.265h1.1V6.35zm1.211-.794v.265H7.43v-.265zm.01.794v.265h1.81V6.35zm.423 5.556v.265h1.632v-.265zm1.754 0v.265h.644v-.265zm.766 0v.265h1.532v-.265zm1.654 0v.265h1.055v-.265zm1.166 0v.265h.411v-.265zm.533 0v.265h.244v-.265zm.355 0v.265h.655v-.265zM6.41 12.7v.265h.288V12.7zm.366 0v.265h.577V12.7zm.666 0v.265h.577V12.7zm.755 0v.265h.922V12.7zm1.033 0v.265h1.199V12.7zm1.365 0v.265h.81V12.7zm.91 0v.265h.19V12.7zm-7.272.794h1.08v.264h-1.08zm.977-6.35v.264h.8v-.264zm-.977.793v.265h.356v-.265zm1.122.794v.265h.655V8.73zm.044.794v.265h.966v-.265zm-.122.794v.264h.733v-.264zm-.133.793v.265h.755v-.265zm-.91.794v.265h1.52v-.265zm0 .794v.265h1.31V12.7zm1.41 0v.265h.632V12.7zm-.223.794v.264H6.61v-.264zm-1.188-6.35v.264h.833v-.264zm0 1.587v.265h.977V8.73zm0 .794v.265h1.044v-.265zm0 .794v.264h.9v-.264zm0 .793v.265h.789v-.265z" fill="#b4bfd8" fill-opacity=".549"/><path d="M11.52 8.385c-.295.004-.551.07-.766.17-.08-.15-.16-.28-.172-.378-.015-.113-.034-.183-.015-.318.018-.136.1-.328.1-.344-.001-.014-.018-.083-.188-.085-.17-.004-.318.032-.334.074a1.63 1.63 0 0 0-.071.241c-.03.149-.34.673-.518.95a.942.942 0 0 1-.117-.278c-.015-.114-.033-.183-.015-.319.018-.135.1-.327.1-.343 0-.014-.017-.084-.188-.085-.17-.004-.317.031-.334.074-.016.042-.035.143-.071.24-.035.099-.448.975-.556 1.203-.054.117-.102.21-.137.273-.035.063-.002.005-.005.01l-.046.084v.004c-.023.04-.048.077-.06.077-.008 0-.024-.105.004-.25.06-.304.21-.779.208-.796 0-.008.028-.091-.096-.134-.12-.042-.164.028-.174.028-.01 0-.018.026-.018.026s.134-.535-.256-.535c-.245 0-.582.254-.75.486l-.568.296c-.091.047-.185.098-.275.143l-.018-.019c-.473-.48-1.348-.82-1.311-1.467.013-.235.099-.854 1.68-1.604 1.295-.615 2.332-.446 2.512-.07.256.535-.554 1.531-1.9 1.674-.513.056-.782-.134-.85-.204-.071-.075-.081-.078-.108-.063-.043.022-.016.088 0 .127.04.1.205.276.486.364.247.077.849.12 1.577-.148.815-.301 1.452-1.136 1.265-1.834-.19-.711-1.428-.944-2.597-.549-.696.237-1.45.605-1.993 1.09-.645.573-.747 1.074-.704 1.282.15.742 1.224 1.226 1.654 1.584-.022.01-.042.022-.06.031-.215.101-1.033.51-1.239.941-.231.489.037.84.215.887.553.147 1.118-.116 1.424-.55.305-.433.268-.996.128-1.252l-.005-.01.168-.094c.11-.061.217-.118.311-.167-.053.137-.09.3-.11.536-.024.277.096.637.253.778a.29.29 0 0 0 .203.063c.182 0 .265-.143.356-.315.112-.21.211-.452.211-.452s-.124.657.215.657c.124 0 .248-.153.305-.232v.004l.01-.015.02-.03v-.004c.049-.082.16-.27.325-.58.213-.4.419-.902.419-.902s.02.123.08.325c.037.12.116.25.178.378l-.08.104.002.004-.13.158c-.17.192-.371.411-.398.474-.031.074-.025.13.037.173.044.032.124.038.208.032a.956.956 0 0 0 .31-.068c.084-.028.178-.07.269-.134a.56.56 0 0 0 .256-.502.972.972 0 0 0-.097-.355c.014-.02.03-.041.044-.063.262-.364.463-.764.463-.764s.02.123.081.324c.032.103.095.215.15.325-.244.19-.398.411-.45.556-.098.268-.022.39.122.418a.456.456 0 0 0 .226-.044c.086-.027.19-.073.286-.14.166-.117.325-.28.316-.498a.918.918 0 0 0-.07-.295c.208-.082.477-.13.82-.09.735.082.88.52.853.703-.028.183-.182.284-.233.315-.052.03-.068.041-.063.063.006.033.03.032.074.025.061-.009.387-.15.4-.486.02-.434-.411-.907-1.177-.902zM5.846 10.21c-.243.253-.585.35-.73.267-.158-.086-.097-.46.202-.73.182-.163.419-.314.574-.407l.15-.087a.064.064 0 0 1 .017-.009l.038-.022a.972.972 0 0 1-.251.988zm1.778-1.152c-.084.197-.263.702-.37.674-.093-.024-.15-.407-.019-.785a1.73 1.73 0 0 1 .29-.506c.134-.141.28-.189.316-.13.043.075-.164.624-.217.747zm1.467.668c-.037.017-.07.03-.085.02-.011-.006.015-.03.015-.03s.184-.187.257-.274l.144-.175v.019c0 .227-.229.378-.331.44zm1.131-.246c-.026-.019-.023-.077.066-.26a.98.98 0 0 1 .252-.309.374.374 0 0 1 .024.136c-.001.283-.213.389-.342.433z" fill="#ee527f" paint-order="markers stroke fill"/></svg>