<svg width="64" height="64" version="1.1" viewBox="0 0 16.933 16.933" xmlns="http://www.w3.org/2000/svg">
 <g transform="matrix(.26458 0 0 .26458 0 -261.5)">
  <path d="m8.991 989.37 46.01 4e-3v57.985h-46.009v-57.989z" fill="#fafafa"/>
  <path transform="matrix(1.3428 0 0 1.3408 -.228 988.19)" d="m6.5 0.5 35 3e-3v44.003h-35z" fill="none" stroke="#4f6698" stroke-linejoin="round" stroke-opacity=".267" stroke-width=".745"/>
  <rect y="988.36" width="64" height="64" rx="0" ry="0" fill="none" opacity=".75"/>
 </g>
 <g transform="translate(-19.469 -2.8241)" fill="#d85eca">
  <path d="m24.322 10.763 2.1358 0.87841-0.15643 0.46327-2.5991-1.101v-0.48132l2.5991-1.101 0.15643 0.46327z" enable-background="new"/>
  <path d="m27.207 13.675h-0.57156l2.0396-5.824h0.55953z" enable-background="new"/>
  <path d="m29.413 9.8846 0.15643-0.46327 2.5991 1.101v0.48132l-2.5991 1.101-0.15643-0.46327 2.1358-0.87841z" enable-background="new"/>
 </g>
</svg>
