<svg xmlns="http://www.w3.org/2000/svg" width="64" height="64"><g transform="translate(0 -988.362)"><path d="M8.991 989.371l46.01.004v57.985H8.992v-57.989z" fill="#fafafa"/><path d="M6.5.5l35 .003v44.003h-35V.5z" fill="none" stroke="#4f6698" stroke-width=".745" stroke-linejoin="round" stroke-opacity=".267" transform="matrix(1.34284 0 0 1.34075 -.228 988.192)"/><rect ry="0" rx="0" y="988.362" height="64" width="64" opacity=".75" fill="none"/></g><path d="M19.5 21c-.277 0-.5.223-.5.5v1c0 .277.223.5.5.5h1c.277 0 .5-.223.5-.5v-1c0-.277-.223-.5-.5-.5zm5 0c-.277 0-.5.223-.5.5v1c0 .277.223.5.5.5h17c.277 0 .5-.223.5-.5v-1c0-.277-.223-.5-.5-.5zm-5 18c-.277 0-.5.223-.5.5v1c0 .277.223.5.5.5h1c.277 0 .5-.223.5-.5v-1c0-.277-.223-.5-.5-.5zm5 0c-.277 0-.5.223-.5.5v1c0 .277.223.5.5.5h17c.277 0 .5-.223.5-.5v-1c0-.277-.223-.5-.5-.5z" style="isolation:auto;mix-blend-mode:normal;solid-color:#000;solid-opacity:1;marker:none" color="#000" overflow="visible" fill="#abacae"/><path d="M21.5 27c-.277 0-.5.223-.5.5v1c0 .277.223.5.5.5h1c.277 0 .5-.223.5-.5v-1c0-.277-.223-.5-.5-.5zm5 0c-.277 0-.5.223-.5.5v1c0 .277.223.5.5.5h17c.277 0 .5-.223.5-.5v-1c0-.277-.223-.5-.5-.5z" style="isolation:auto;mix-blend-mode:normal;solid-color:#000;solid-opacity:1;marker:none" color="#000" overflow="visible" fill="#ed5353"/><path d="M21.5 33c-.277 0-.5.223-.5.5v1c0 .277.223.5.5.5h1c.277 0 .5-.223.5-.5v-1c0-.277-.223-.5-.5-.5zm5 0c-.277 0-.5.223-.5.5v1c0 .277.223.5.5.5h17c.277 0 .5-.223.5-.5v-1c0-.277-.223-.5-.5-.5z" style="isolation:auto;mix-blend-mode:normal;solid-color:#000;solid-opacity:1;marker:none" color="#000" overflow="visible" fill="#68b723"/></svg>