<svg xmlns="http://www.w3.org/2000/svg" width="64" height="64" viewBox="0 0 16.933 16.933"><defs><linearGradient id="a"><stop offset="0" stop-color="#791235"/><stop offset="1" stop-color="#dd3b27"/></linearGradient><linearGradient id="b"><stop offset="0" stop-color="#fff"/><stop offset=".091" stop-color="#fff" stop-opacity=".235"/><stop offset=".955" stop-color="#fff" stop-opacity=".157"/><stop offset="1" stop-color="#fff" stop-opacity=".392"/></linearGradient></defs><g transform="translate(0 -261.504) scale(.26458)"><path d="M8.991 989.371l46.01.004v57.985H8.992v-57.989z" fill="#fafafa"/><path d="M6.5.5l35 .003v44.003h-35V.5z" fill="none" stroke="#4f6698" stroke-width=".745" stroke-linejoin="round" stroke-opacity=".267" transform="matrix(1.34284 0 0 1.34075 -.228 988.192)"/><rect ry="0" rx="0" y="988.362" height="64" width="64" opacity=".75" fill="none"/></g><path d="M3.968 2.117v.264h.844v-.264zm.955 0v.264h.8v-.264zm.91 0v.264h.7v-.264zm.81 0v.264h.312v-.264zm.423 0v.264h.688v-.264zm.81 0v.264h1.777v-.264zm-3.908.793v.265H5.31V2.91zm1.477 0v.265h.643V2.91zm.766 0v.265h.3V2.91zm.433 0v.265h.577V2.91zm.71 0v.265h.578V2.91zm.7 0v.265h.943V2.91zm1.077 0v.265h1.232V2.91zm-5.163.794v.265h1.488v-.265zm1.599 0v.265h1.598v-.265zm-1.6.794v.264h.822v-.264zm.933 0v.264h.767v-.264zm.878 0v.264h.677v-.264zm1.387 3.969v.264h.833v-.264zm.944 0v.264h.777v-.264zm.888 0v.264h.656v-.264zm-1.832.793v.265h.667V9.26zm.778 0v.265h1.71V9.26zm1.82 0v.265h1.31V9.26zm-2.598.794v.265h.867v-.265zm.989 0v.265h1.52v-.265zm1.632 0v.265h1.043v-.265zm-2.62.794v.264h.666v-.264zm.777 0v.264h.677v-.264zm.788 0v.264h.966v-.264zm1.077 0v.264h.2v-.264zm.31 0v.264h1.256v-.264zm-2.975 2.381v.265h.866v-.265zm.977 0v.265h.8v-.265zm.922 0v.265h.688v-.265zm.8 0v.265h1.099v-.265zm1.22 0v.265h1.788v-.265zM3.968 5.292v.264h1.088v-.264zm0 .793v.265h1.099v-.265zm1.21-.793v.264h1.987v-.264zm.011.793v.265H7v-.265zm.422 5.557v.264h1.632v-.264zm1.754 0v.264h.644v-.264zm.766 0v.264h1.533v-.264zm1.655 0v.264h1.055v-.264zm1.166 0v.264h.41v-.264zm.533 0v.264h.244v-.264zm.355 0v.264h.655v-.264zm-5.696.793v.265h.289v-.265zm.366 0v.265h.578v-.265zm.667 0v.265h.577v-.265zm.755 0v.265h.921v-.265zm1.032 0v.265h1.2v-.265zm1.366 0v.265h.81v-.265zm.91 0v.265h.189v-.265zm-7.272.795h1.079v.264h-1.08zm.977-6.35v.264h.8v-.265zm-.977.793v.264h.355v-.264zm1.121.794v.264h.655v-.264zm.045.793v.265H6.1V9.26zm-.123.794v.265h.733v-.265zm-.133.794v.264h.755v-.264zm-.91.794v.264h1.52v-.264zm0 .793v.265h1.31v-.265zm1.41 0v.265h.633v-.265zm-.222.794v.265h1.188v-.265zM3.968 6.88v.264H4.8v-.265zm0 1.587v.264h.977v-.264zm0 .793v.265H5.01V9.26zm0 .794v.265h.9v-.265zm0 .794v.264h.788v-.264z" fill="#b4bfd8" fill-opacity=".549"/><g fill="#5b94ed" stroke="#5b94ed"><path d="M-18.5 995.836l-1.732 1 4.921 8.525-4.921 8.528 1.732 1 5.5-9.528z" transform="matrix(.26458 0 0 .26385 16.668 -257.46)"/><path d="M-18.5 995.836l5.5 9.525-5.5 9.528-1.732-1 4.921-8.528-4.921-8.525z" transform="matrix(-.26458 0 0 .26385 .264 -257.46)"/><path transform="matrix(.22914 .13193 -.1323 .2285 16.139 -257.6)" d="M476.915 875.505h2v20h-2z"/></g></svg>