<svg width="64" height="64" version="1.1" viewBox="0 0 16.933 16.933" xmlns="http://www.w3.org/2000/svg">
 <g transform="matrix(.26458 0 0 .26458 0 -261.5)">
  <path d="m8.991 989.37 46.01 4e-3v57.985h-46.009v-57.989z" fill="#fafafa"/>
  <path transform="matrix(1.3428 0 0 1.3408 -.228 988.19)" d="m6.5 0.5 35 3e-3v44.003h-35z" fill="none" stroke="#4f6698" stroke-linejoin="round" stroke-opacity=".267" stroke-width=".745"/>
  <rect y="988.36" width="64" height="64" rx="0" ry="0" fill="none" opacity=".75"/>
 </g>
 <path d="m9.4621 8.4016s0.30458 0.09191 0.48152 0.18144c0.0614 0.03107 0.16763 0.09307 0.24426 0.17447 0.07506 0.07972 0.11166 0.16051 0.11166 0.16051l1.2145 2.195-2.2128 8e-4 -0.90658-1.6664s-0.18577-0.31919-0.30008-0.41174c-0.09536-0.0772-0.13602-0.10468-0.23029-0.10468h-0.46095l-3.25e-4 2.1816h-1.984v-6.3487h3.075c1.092 0 2.5322 0.32672 2.5322 1.8206 0 1.4939-1.5642 1.817-1.5642 1.817zm-2.0592-2.4472v1.5872h0.94162s0.72999 0 0.77856-0.7766c0.05068-0.81043-0.77901-0.80972-0.77901-0.80972z" enable-background="new" fill="#3f51b5" fill-rule="evenodd" stroke-width=".066145"/>
</svg>
