<svg xmlns="http://www.w3.org/2000/svg" width="64" height="64" viewBox="0 0 16.933 16.933"><defs><linearGradient id="a"><stop offset="0" stop-color="#f8b17e"/><stop offset=".262" stop-color="#e35d4f"/><stop offset=".661" stop-color="#c6262e"/><stop offset="1" stop-color="#690b54"/></linearGradient><linearGradient id="b"><stop offset="0" stop-color="#791235"/><stop offset="1" stop-color="#dd3b27"/></linearGradient><linearGradient id="c"><stop offset="0" stop-color="#fff"/><stop offset=".091" stop-color="#fff" stop-opacity=".235"/><stop offset=".955" stop-color="#fff" stop-opacity=".157"/><stop offset="1" stop-color="#fff" stop-opacity=".392"/></linearGradient></defs><g transform="translate(0 -261.504) scale(.26458)"><path d="M8.991 989.371l46.01.004v57.985H8.992v-57.989z" fill="#fafafa"/><path d="M6.5.5l35 .003v44.003h-35V.5z" fill="none" stroke="#4f6698" stroke-width=".745" stroke-linejoin="round" stroke-opacity=".267" transform="matrix(1.34284 0 0 1.34075 -.228 988.192)"/><rect ry="0" rx="0" y="988.362" height="64" width="64" opacity=".75" fill="none"/></g><path d="M3.968 2.381v.265h.844V2.38zm.955 0v.265h.8V2.38zm.91 0v.265h.7V2.38zm.81 0v.265h.312V2.38zm.423 0v.265h.688V2.38zm.81 0v.265h1.777V2.38zm-3.908.794v.265H5.31v-.265zm1.477 0v.265h.643v-.265zm.766 0v.265h.3v-.265zm.433 0v.265h.577v-.265zm.71 0v.265h.578v-.265zm.7 0v.265h.943v-.265zm1.077 0v.265h1.232v-.265zm-5.163.794v.264h1.488V3.97zm1.599 0v.264h1.598V3.97zm-1.6.793v.265h.822v-.265zm.933 0v.265h.767v-.265zm.878 0v.265h.677v-.265zm1.387 3.97v.264h.833V8.73zm.944 0v.264h.777V8.73zm.888 0v.264h.656V8.73zm-1.832.793v.265h.667v-.265zm.778 0v.265h1.71v-.265zm1.82 0v.265h1.31v-.265zm-2.598.794v.264h.867v-.264zm.989 0v.264h1.52v-.264zm1.632 0v.264h1.043v-.264zm-2.62.793v.265h.666v-.265zm.777 0v.265h.677v-.265zm.788 0v.265h.966v-.265zm1.077 0v.265h.2v-.265zm.31 0v.265h1.256v-.265zm-2.975 2.382v.264h.866v-.264zm.977 0v.264h.8v-.264zm.922 0v.264h.688v-.264zm.8 0v.264h1.099v-.264zm1.22 0v.264h1.788v-.264zM3.968 5.556v.265h1.088v-.265zm0 .794v.265h1.099V6.35zm1.21-.794v.265h1.987v-.265zm.011.794v.265H7V6.35zm.422 5.556v.265h1.632v-.265zm1.754 0v.265h.644v-.265zm.766 0v.265h1.533v-.265zm1.655 0v.265h1.055v-.265zm1.166 0v.265h.41v-.265zm.533 0v.265h.244v-.265zm.355 0v.265h.655v-.265zm-5.696.794v.265h.289V12.7zm.366 0v.265h.578V12.7zm.667 0v.265h.577V12.7zm.755 0v.265h.921V12.7zm1.032 0v.265h1.2V12.7zm1.366 0v.265h.81V12.7zm.91 0v.265h.189V12.7zm-7.272.794h1.079v.264h-1.08zm.977-6.35v.264h.8v-.264zm-.977.793v.265h.355v-.265zm1.121.794v.265h.655V8.73zm.045.794v.265H6.1v-.265zm-.123.794v.264h.733v-.264zm-.133.793v.265h.755v-.265zm-.91.794v.265h1.52v-.265zm0 .794v.265h1.31V12.7zm1.41 0v.265h.633V12.7zm-.222.794v.264h1.188v-.264zm-1.188-6.35v.264H4.8v-.264zm0 1.587v.265h.977V8.73zm0 .794v.265H5.01v-.265zm0 .794v.264h.9v-.264zm0 .793v.265h.788v-.265z" fill="#b4bfd8"/><g style="line-height:125%;-inkscape-font-specification:'Futura Bk BT Bold'"><path style="-inkscape-font-specification:'Oxygen-Sans Bold'" d="M1076.538 919.04c-4.927 0-9.195-1.078-12.805-3.235-3.61-2.157-6.346-5.154-8.208-8.991-1.862-3.837-2.793-8.276-2.793-13.316 0-3.815.625-7.323 1.874-10.524 1.248-3.224 2.974-5.926 5.176-8.106 2.203-2.18 4.836-3.87 7.901-5.074 3.066-1.226 6.37-1.84 9.911-1.84 2.974 0 5.665.307 8.072.92 2.406.613 4.79 1.59 7.152 2.93l-2.078 6.402c-2.202-1.112-4.257-1.964-6.164-2.554-1.907-.59-4.053-.886-6.437-.886-5.086 0-9.15 1.703-12.192 5.109-3.043 3.383-4.564 7.901-4.564 13.555 0 5.903 1.305 10.512 3.916 13.827 2.612 3.315 6.585 4.972 11.92 4.972 1.953 0 3.645-.125 5.075-.375 1.453-.272 2.248-.624 3.383-1.055v-12.125h-10.433l.307-6.61h18.09V915.6c-5.516 2.293-11.018 3.44-17.103 3.44zm41.686-.068c-5.222 0-9.03-1.714-12.232-5.142-3.179-3.429-4.768-7.936-4.768-13.52 0-5.722 1.555-10.252 4.666-13.59 3.11-3.337 6.953-5.006 12.334-5.006 5.29 0 9.502 1.691 12.635 5.074 3.156 3.36 4.734 7.868 4.734 13.521 0 5.654-1.578 10.183-4.734 13.589-3.156 3.383-7.367 5.074-12.635 5.074zm0-5.79c3.133 0 5.529-1.123 7.186-3.371 1.658-2.27 2.486-5.438 2.486-9.502 0-4.064-.828-7.197-2.486-9.4-1.657-2.225-4.053-3.337-7.186-3.337-3.088 0-5.08 1.112-6.783 3.337-1.68 2.225-2.52 5.359-2.52 9.4 0 4.042.84 7.198 2.52 9.468 1.68 2.27 3.673 3.406 6.783 3.406z" transform="matrix(.1309 0 0 .1295 -134.76 -107.779)" font-weight="700" font-size="69.749" font-family="Oxygen-Sans" letter-spacing="0" word-spacing="0" fill="#5da0eb" stroke="#2d83e5" stroke-width="2.032"/></g></svg>