<svg width="64" height="64" version="1.1" viewBox="0 0 64 64" xmlns="http://www.w3.org/2000/svg">
 <rect y="-.012027" width="64" height="64" rx="0" ry="0" fill="none" opacity=".75"/>
 <path d="m8.9992 1.0016h46.002v59h-45.998v-59z" color="#000000" fill="#f9b62a" overflow="visible" stroke-width="3.7796"/>
 <path d="m8.5003 0.49889 46.999 0.00378v59.997h-46.996v-60.001z" color="#000000" fill="none" overflow="visible" stroke="#bd8d28" stroke-linecap="round" stroke-linejoin="round" stroke-width="1.0016"/>
 <g transform="translate(2e-7 -.048126)" color="#000000" color-rendering="auto" fill="#fde8b9" image-rendering="auto" shape-rendering="auto">
  <path d="m23 22.1c1.662 0 3 1.338 3 3s-1.338 3-3 3-3-1.338-3-3 1.338-3 3-3m0 1c-1.108 0-2 0.892-2 2s0.892 2 2 2 2-0.892 2-2-0.892-2-2-2m0 6.9c1.186 0 2.236 0.521 2.967 1.336-0.247 0.224-0.482 0.462-0.703 0.713-0.549-0.637-1.352-1.049-2.264-1.049-1.662 0-3 1.338-3 3v3h3l0.016 1h-4.02v-4c0-2.216 1.784-4 4-4"/>
  <path d="m32 24.1c1.662 0 3 1.338 3 3s-1.338 3-3 3-3-1.338-3-3 1.338-3 3-3m0 1c-1.108 0-2 0.892-2 2s0.892 2 2 2 2-0.892 2-2-0.892-2-2-2"/>
  <path d="m41 22.1c-1.662 0-3 1.338-3 3s1.338 3 3 3 3-1.338 3-3-1.338-3-3-3m0 1c1.108 0 2 0.892 2 2s-0.892 2-2 2-2-0.892-2-2 0.892-2 2-2m0 6.9c-1.186 0-2.236 0.521-2.967 1.336 0.247 0.224 0.482 0.462 0.703 0.713 0.549-0.637 1.352-1.049 2.264-1.049 1.662 0 3 1.338 3 3v3h-3l-0.016 1h4.02v-4c0-2.216-1.784-4-4-4"/>
  <path d="m32.03 31.03c4.155 0 5.969 2.969 5.969 6.469v1.5h-12v-1.5c0-3.5 1.876-6.469 6.03-6.469m-0.016 0.992c-3.601 0-5.02 2.254-5.02 5.578v0.398h10v-0.398c0-3.601-1.383-5.578-4.984-5.578"/>
 </g>
</svg>
