<svg width="64" height="64" version="1.1" xmlns="http://www.w3.org/2000/svg">
 <rect transform="translate(0 -988.36)" y="988.36" width="64" height="64" rx="0" ry="0" fill="none" opacity=".75"/>
 <path d="M8.5.5l47 .004V59.5h-47V.5z" fill="none" opacity=".3"/>
 <path d="M8.991 1.05c10.544 0 46.01.005 46.01.005V59.04H8.992V1.05z" fill="#7fcc74"/>
 <path transform="matrix(1.3428 0 0 1.3408 -.228 -.129)" d="M6.5.5l35 .003v44.003h-35V.5z" fill="none" stroke="#53ab45" stroke-linejoin="round" stroke-width=".745"/>
 <path d="m20.996 19.045v22h22v-22zm1 1h20v2h-20zm0 3h1v4h-1zm2 0h1v4h-1zm2 0h1v4h-1zm2 0h1v4h-1zm2 0h1v4h-1zm2 0h1v4h-1zm2 0h1v4h-1zm2 0h1v4h-1zm2 1h4v1h-4zm-16 4h20v4h-20zm0 5h1v4h-1zm2 0h1v4h-1zm2 0h1v4h-1zm2 0h1v4h-1zm2 0h1v4h-1zm2 0h1v4h-1zm2 0h1v4h-1zm2 0h1v4h-1zm2 1h4v1h-4zm-16 4h20v2h-20z" color="#4d4d4d" color-rendering="auto" fill="#fff" image-rendering="auto" shape-rendering="auto"/>
</svg>
