<svg xmlns="http://www.w3.org/2000/svg" width="64" height="64" viewBox="0 0 16.933 16.933"><defs><linearGradient id="a"><stop offset="0" stop-color="#791235"/><stop offset="1" stop-color="#dd3b27"/></linearGradient><linearGradient id="b"><stop offset="0" stop-color="#fff"/><stop offset=".091" stop-color="#fff" stop-opacity=".235"/><stop offset=".955" stop-color="#fff" stop-opacity=".157"/><stop offset="1" stop-color="#fff" stop-opacity=".392"/></linearGradient></defs><rect width="64" height="64" y="988.362" rx="0" ry="0" opacity=".75" fill="none" transform="translate(0 -261.504) scale(.26458)"/><path d="M2.379.267h12.174V15.61H2.379V.267z" fill="#4bae4f"/><path d="M6.5.5l35 .003v44.003h-35V.5z" fill="none" stroke="#317b35" stroke-width=".745" stroke-linejoin="round" transform="matrix(.3553 0 0 .35474 -.06 -.045)"/><path d="M9.922 2.048v11.854M7.276 2.048v11.853" fill="none" stroke="#fff" stroke-opacity=".324" stroke-width=".265"/><path d="M12.753 2.778H3.704m.926-.743v11.903" fill="none" stroke="#fff" stroke-width=".265"/><path d="M12.817 3.836H3.785m9.032 9.525H3.785m9.032-1.058H3.785m9.032-1.058H3.785m9.032-1.059H3.785m9.032-1.058H3.785m9.032-1.058H3.785m9.032-1.059H3.785m9.032-1.058H3.785m9.032-1.058H3.785" fill="none" stroke="#fff" stroke-opacity=".324" stroke-width=".265"/><path fill="none" stroke="#fff" stroke-linecap="square" d="M3.836 1.984h8.996v11.907H3.836z" stroke-width=".265"/><path fill="#fff" fill-opacity=".49" d="M3.969 2.117H12.7v.529H3.969zm.529.793v10.848h-.53V2.91z"/><path style="marker:none" d="M14.684 5.16L4.101 15.742h10.583zm-2.116 4.938v3.528H8.996z" overflow="visible" opacity=".8" fill="#fff" fill-rule="evenodd" stroke="#000" stroke-width=".265" stroke-opacity=".213"/></svg>