<svg xmlns="http://www.w3.org/2000/svg" width="64" height="64" viewBox="0 0 16.933 16.933"><defs><linearGradient id="a"><stop offset="0" stop-color="#791235"/><stop offset="1" stop-color="#dd3b27"/></linearGradient><linearGradient id="b"><stop offset="0" stop-color="#fff"/><stop offset=".091" stop-color="#fff" stop-opacity=".235"/><stop offset=".955" stop-color="#fff" stop-opacity=".157"/><stop offset="1" stop-color="#fff" stop-opacity=".392"/></linearGradient></defs><rect ry="0" rx="0" y="988.362" height="64" width="64" opacity=".75" fill="none" transform="translate(0 -261.504) scale(.26458)"/><path d="M2.249.132l12.435.001v15.61H2.25V.133z" opacity=".3" fill="none"/><path d="M2.379.278l12.174.001v15.342H2.379V.278z" fill="#2095f2"/><path d="M6.5.5l35 .003v44.003h-35V.5z" fill="none" stroke="#1378c5" stroke-width=".745" stroke-linejoin="round" transform="matrix(.3553 0 0 .35474 -.06 -.034)"/><path d="M3.969 2.392v.265h.844v-.265zm.955 0v.265h.799v-.265zm.91 0v.265h.7v-.265zm.81 0v.265h.311v-.265zm.423 0v.265h.688v-.265zm.81 0v.265h1.777v-.265zm-3.908.794v.265h1.343v-.265zm1.476 0v.265h.644v-.265zm.767 0v.265h.3v-.265zm.433 0v.265h.577v-.265zm.71 0v.265h.578v-.265zm.7 0v.265h.943v-.265zm1.077 0v.265h1.232v-.265zm-5.163.794v.264h1.488V3.98zm1.599 0v.264h1.598V3.98zm-1.6.794v.264h.822v-.264zm.933 0v.264h.767v-.264zm.878 0v.264h.677v-.264zm1.387 3.968v.265H8v-.265zm.944 0v.265h.777v-.265zm.888 0v.265h.656v-.265zm-1.832.794v.265h.667v-.265zm.778 0v.265h1.71v-.265zm1.82 0v.265h1.31v-.265zm-2.598.794v.264h.866v-.264zm.989 0v.264h1.52v-.264zm1.632 0v.264h1.043v-.264zm-2.62.794v.264h.666v-.264zm.777 0v.264h.677v-.264zm.788 0v.264h.966v-.264zm1.077 0v.264h.2v-.264zm.31 0v.264h1.255v-.264zm-2.975 2.38v.265h.866v-.264zm.977 0v.265h.8v-.264zm.922 0v.265h.688v-.264zm.8 0v.265h1.098v-.264zm1.22 0v.265h1.788v-.264zM3.969 5.567v.265h1.088v-.265zm0 .794v.265h1.099V6.36zm1.21-.794v.265h1.987v-.265zm.011.794v.265H7V6.36zm.422 5.556v.265h1.632v-.265zm1.754 0v.265h.644v-.265zm.766 0v.265h1.533v-.265zm1.655 0v.265h1.055v-.265zm1.166 0v.265h.41v-.265zm.533 0v.265h.244v-.265zm.355 0v.265h.655v-.265zm-5.696.794v.265h.289v-.265zm.366 0v.265h.578v-.265zm.667 0v.265h.577v-.265zm.755 0v.265h.921v-.265zm1.032 0v.265h1.2v-.265zm1.366 0v.265h.81v-.265zm.91 0v.265h.189v-.265zm-7.272.794h1.079v.264h-1.08zm.977-6.35v.264h.8v-.264zm-.977.794v.264h.355V7.95zm1.121.793v.265h.655v-.265zm.045.794v.265H6.1v-.265zm-.123.794v.264h.733v-.264zm-.133.794v.264h.755v-.264zm-.91.793v.265h1.52v-.265zm0 .794v.265h1.31v-.265zm1.41 0v.265h.633v-.265zm-.222.794v.264h1.188v-.264zm-1.188-6.35v.264H4.8v-.264zm0 1.587v.265h.977v-.265zm0 .794v.265h1.043v-.265zm0 .794v.264h.9v-.264zm0 .794v.264h.788v-.264z" fill="#fff"/></svg>