<svg xmlns="http://www.w3.org/2000/svg" width="64" height="64" viewBox="0 0 16.933 16.933"><g transform="translate(0 -261.504) scale(.26458)"><path d="M8.991 989.371l46.01.004v57.985H8.992v-57.989z" fill="#fafafa"/><path d="M6.5.5l35 .003v44.003h-35V.5z" fill="none" stroke="#4f6698" stroke-width=".745" stroke-linejoin="round" stroke-opacity=".267" transform="matrix(1.34284 0 0 1.34075 -.228 988.192)"/><rect ry="0" rx="0" y="988.362" height="64" width="64" opacity=".75" fill="none"/></g><path d="M5.357 11.81c1.603 1.027 5.102-.347 2.193-4.024-2.882-3.643 2.864-6.033 4.57-1.82" fill="#ffd790" fill-rule="evenodd" stroke="#ee7648" stroke-width=".265"/><path d="M4.972 4.475l5.528 6.906" fill="#f37329" stroke="#ee7648" stroke-width=".265"/><path d="M10.84 11.416a.365.365 0 1 1-.73 0 .365.365 0 0 1 .73 0zM5.36 4.482a.365.365 0 1 1-.73 0 .365.365 0 0 1 .73 0z" fill="#e6e6e6" stroke="#ee7648" stroke-width=".265"/><path d="M7.143 7.243H8.2v1.059H7.143zm4.233-1.852h1.058V6.45h-1.058zm-6.879 5.821h1.058v1.059H4.497z" fill="#ee7648"/></svg>