<svg width="16" height="16" version="1.1">
 <path d="M.94 14.75v-2.19l4.22-1.13 2.34.6 2.39-.67 3.74 1v2.45z" fill="#5d656b" opacity=".3"/>
 <path d="m10.029 1.1504c-0.15 0-0.29898 0.0092969-0.45898 0.029297-0.57 0.08-1.2495 0.34977-2.0195 0.75977-1.54-0.85-2.7402-0.89867-3.7402-0.63867-0.93233 0.23526-1.7321 0.58699-2.8105 0.65234v12.041c0 0.55773 0.44813 1.0059 1.0059 1.0059h10.988c0.55773 0 1.0059-0.44813 1.0059-1.0059v-12.016c-1.1847-0.050833-1.9063-0.40277-2.7695-0.6582-0.36-0.11-0.76117-0.17992-1.2012-0.16992zm-4.8105 0.98047c0.49781 0.037031 1.0612 0.21938 1.7812 0.60938v8.6406c-1.1-0.63-2.2097-0.68141-3.1797-0.44141-0.66 0.16-1.2503 0.34024-1.8203 0.49024v-8.6406c0.8-0.14 1.4708-0.36953 2.0508-0.51953 0.24-0.06 0.45945-0.10891 0.68945-0.12891 0.155-0.0175 0.31258-0.022109 0.47852-0.0097656zm4.4609 0.0097656c0.24-0.03 0.45016-0.03 0.66016 0 0.2 0.02 0.39938 0.068672 0.60938 0.13867 0.53 0.15 1.1908 0.40078 2.0508 0.55078v8.5996c-0.57-0.15-1.1605-0.34-1.8105-0.5-0.98-0.24-2.0895-0.17953-3.1895 0.48047v-8.6094c0.7-0.38 1.2497-0.59016 1.6797-0.66016zm0.12109 9.6094c0.37-0.01 0.74844 0.050391 1.1484 0.15039 0.64 0.16 1.3208 0.42891 2.0508 0.62891v1.4707h-11v-1.4609c0.72-0.2 1.4108-0.46891 2.0508-0.62891 1.08-0.27 1.9984-0.29976 3.1484 0.74024l0.33984 0.29883 0.33008-0.30859c0.7-0.64 1.3116-0.87062 1.9316-0.89062z" fill="#5d656b"/>
</svg>
