<?xml version="1.0" encoding="UTF-8"?>
<svg width="16" height="16" version="1.1" xmlns="http://www.w3.org/2000/svg" xmlns:cc="http://creativecommons.org/ns#" xmlns:dc="http://purl.org/dc/elements/1.1/" xmlns:rdf="http://www.w3.org/1999/02/22-rdf-syntax-ns#" xmlns:xlink="http://www.w3.org/1999/xlink">
 <metadata>
  <rdf:RDF>
   <cc:Work rdf:about="">
    <dc:format>image/svg+xml</dc:format>
    <dc:type rdf:resource="http://purl.org/dc/dcmitype/StillImage"/>
    <dc:title/>
   </cc:Work>
  </rdf:RDF>
 </metadata>
 <g fill="#5d656b">
  <path d="m1 1c-0.554 0-1 0.446-1 1v10c0 0.554 0.446 1 1 1h5v1s0 1-1 1v1h4.5625c-0.29334-0.4182-0.48633-0.96485-0.48633-1.5762 0-0.98534 0.74446-1.6568 1.3516-1.957 0.10872-0.05376 0.17988-0.0347 0.28516-0.07617-0.10512-0.13011-0.19-0.2628-0.2832-0.39453h-8.9297c-0.5 0-0.5-0.5-0.5-0.5v-9s0-0.5 0.5-0.5h13s0.5 0 0.5 0.5v4.0117l0.38867-0.7168 0.61133 1.291v-5.082c0-0.554-0.446-1-1-1z"/>
  <g>
   <path d="m10.768 8s-1.2741 2.6838 1.459 4.6436c-0.07257 0.11989-0.11824 0.25493-0.13477 0.39941a0.84347 0.84347 0 0 0-0.0166 2e-3c-0.54551 0.02913-2 0.35846-2 1.3789 0 1.1661 0.86419 1.5762 1.3828 1.5762 0.51806 0 1.3617-0.39386 1.3818-1.5762 0.0019-0.11037-0.0016-0.21134-0.0088-0.30664 0.08017 0.02117 0.16282 0.03613 0.24902 0.03613 0.05563 0 0.10976-0.0076 0.16309-0.0166-0.0062 0.09012-0.01051 0.18376-0.0088 0.28711 0.02016 1.1823 0.86419 1.5762 1.3828 1.5762 0.51806 0 1.3828-0.41011 1.3828-1.5762 0-0.98316-1.3448-1.3274-1.9307-1.377-0.01765-0.16008-0.06976-0.31028-0.15527-0.43945 2.6687-1.9565 1.4141-4.6074 1.4141-4.6074l-2.0938 3.8623v0.30664c-0.05059-0.0081-0.10166-0.01563-0.1543-0.01563-0.07542 0-0.14879 0.01003-0.21973 0.02637v-0.31738zm1.3076 5.7832-9.77e-4 9.77e-4s0.17322 2.0218-0.88867 1.2305c-1.1806-0.88043 0.88965-1.2314 0.88965-1.2314zm1.9248 9.77e-4s2.0699 0.35004 0.88867 1.2305c-1.061 0.79074-0.88895-1.2272-0.88867-1.2305z" stroke-width=".5"/>
   <path d="m2 3v1 2h1v-2h2v-1h-2-1z" style="paint-order:stroke fill markers"/>
   <path d="m2 11v-3h1v2h2v1h-2z" style="paint-order:stroke fill markers"/>
   <path d="m14 3v3h-1v-2h-2v-1h2z" style="paint-order:stroke fill markers"/>
  </g>
 </g>
</svg>
