<?xml version="1.0" encoding="UTF-8"?>
<svg width="16" height="16" version="1.1" xmlns="http://www.w3.org/2000/svg" xmlns:cc="http://creativecommons.org/ns#" xmlns:dc="http://purl.org/dc/elements/1.1/" xmlns:rdf="http://www.w3.org/1999/02/22-rdf-syntax-ns#">
 <metadata>
  <rdf:RDF>
   <cc:Work rdf:about="">
    <dc:format>image/svg+xml</dc:format>
    <dc:type rdf:resource="http://purl.org/dc/dcmitype/StillImage"/>
    <dc:title/>
   </cc:Work>
  </rdf:RDF>
 </metadata>
 <g fill="#5d656b">
  <circle cx="8" cy="8" r="3" opacity=".3" style="paint-order:stroke fill markers"/>
  <path d="m8 3c-2.7697 0-5 2.2303-5 5s2.2303 5 5 5 5-2.2303 5-5-2.2303-5-5-5zm0 1c2.216 0 4 1.784 4 4s-1.784 4-4 4-4-1.784-4-4 1.784-4 4-4z" stroke-width="1.1811"/>
  <path d="m8.0005 5.2519-0.74256 0.89089a2 2 0 1 0 1.4842 0z" stroke-width=".94473"/>
  <circle cx="3.5" cy="3.5" r=".5" opacity=".75" style="paint-order:stroke fill markers"/>
  <path d="m3 1c-1.108 0-2 0.892-2 2v10c0 1.108 0.892 2 2 2h10c1.108 0 2-0.892 2-2v-10c0-1.108-0.892-2-2-2h-10zm0 1h10c0.554 0 1 0.446 1 1v10c0 0.554-0.446 1-1 1h-10c-0.554 0-1-0.446-1-1v-10c0-0.554 0.446-1 1-1z" style="paint-order:stroke fill markers"/>
 </g>
</svg>
