<?xml version="1.0" encoding="UTF-8"?>
<svg width="16" height="16" version="1.1" xmlns="http://www.w3.org/2000/svg" xmlns:cc="http://creativecommons.org/ns#" xmlns:dc="http://purl.org/dc/elements/1.1/" xmlns:rdf="http://www.w3.org/1999/02/22-rdf-syntax-ns#">
 <metadata>
  <rdf:RDF>
   <cc:Work rdf:about="">
    <dc:format>image/svg+xml</dc:format>
    <dc:type rdf:resource="http://purl.org/dc/dcmitype/StillImage"/>
    <dc:title/>
   </cc:Work>
  </rdf:RDF>
 </metadata>
 <g fill="#5d656b">
  <path d="m8 3.893e-6a8 8 0 0 0-8 8 8 8 0 0 0 8 8 8 8 0 0 0 8-8 8 8 0 0 0-8-8zm0 1a7 7 0 0 1 7 7 7 7 0 0 1-7 7 7 7 0 0 1-7-7 7 7 0 0 1 7-7z" stroke-width="1.1198" style="paint-order:stroke markers fill"/>
  <path d="m8 2a6 6 0 0 0-6 6 6 6 0 0 0 6 6 6 6 0 0 0 6-6 6 6 0 0 0-6-6zm0 1a5 5 0 0 1 5 5 5 5 0 0 1-5 5 5 5 0 0 1-5-5 5 5 0 0 1 4.9219-4.998 5 5 0 0 1 0.0078125 0 4.9995 4.9995 0 0 1 0.070312-0.0019531z" opacity=".15" stroke-width="1.0799" style="paint-order:stroke markers fill"/>
  <circle cx="8" cy="8" r="1.7772" opacity=".3" stroke-width="1.1198" style="paint-order:stroke markers fill"/>
  <path d="m3.4567 5.9273a4.9748 4.9748 0 0 0-0.45779 2.0727c0 0.74024 0.16905 1.4416 0.45884 2.0737l1.7503-1.0006a2.9967 2.9967 0 0 1-0.20895-1.0731c0-0.378 0.080848-0.73919 0.20895-1.0731m7.3342-0.99959-1.7503 0.99959c0.12705 0.3339 0.2079 0.69404 0.2079 1.0731 0 0.37904-0.08086 0.74024-0.2079 1.0731l1.7503 1.0006c0.28875-0.63209 0.4578-1.3335 0.4578-2.0737 0-0.73919-0.16905-1.4416-0.4578-2.0727m-5.6153 4.8646-1.0006 1.7503c0.63209 0.2898 1.3335 0.45884 2.0737 0.45884 0.73919 0 1.4416-0.16905 2.0727-0.45884l-0.99959-1.7503a2.9967 2.9967 0 0 1-1.0731 0.20895c-0.37904 0-0.74024-0.08086-1.0731-0.20895m1.0731-7.793c-0.74024 0-1.4416 0.1701-2.0737 0.45884l1.0006 1.7503a2.9967 2.9967 0 0 1 1.0731-0.2079c0.378 0 0.73919 0.080848 1.0731 0.2079l0.99959-1.7503a4.9748 4.9748 0 0 0-2.0727-0.45779" stroke-width=".87464"/>
 </g>
</svg>
