<svg width="16" height="16" version="1.1" xmlns="http://www.w3.org/2000/svg">
 <path d="m2 3e-6c-1.108 0-2 0.892-2 2v2h1v-2c0-0.554 0.446-1 1-1h2v-1zm10 0v1h2c0.554 0 1 0.446 1 1v2h1v-2c0-1.108-0.892-2-2-2zm-6 4c-1.108 0-2 0.892-2 2v4c0 1.108 0.892 2 2 2h6c1.108 0 2-0.892 2-2v-4c0-1.108-0.892-2-2-2zm-2 4-2-2v4zm4.9473-3a3 3 0 0 1 0.00195 0 3 3 0 0 1 0.050781 0 3 3 0 0 1 3 3 3 3 0 0 1-3 3 3 3 0 0 1-3-3 3 3 0 0 1 2.9473-3zm0.00391 1a2 2 0 0 0-1.9512 2 2 2 0 0 0 2 2 2 2 0 0 0 2-2 2 2 0 0 0-2-2 2 2 0 0 0-0.048828 0zm-8.9512 6v2c0 1.108 0.892 2 2 2h2v-1h-2c-0.554 0-1-0.446-1-1v-2zm15 0v2c0 0.554-0.446 1-1 1h-2v1h2c1.108 0 2-0.892 2-2v-2z" fill="#5d656b"/>
</svg>
