<?xml version="1.0" encoding="UTF-8"?>
<svg width="16" height="16" version="1.1" xmlns="http://www.w3.org/2000/svg" xmlns:cc="http://creativecommons.org/ns#" xmlns:dc="http://purl.org/dc/elements/1.1/" xmlns:rdf="http://www.w3.org/1999/02/22-rdf-syntax-ns#">
 <metadata>
  <rdf:RDF>
   <cc:Work rdf:about="">
    <dc:format>image/svg+xml</dc:format>
    <dc:type rdf:resource="http://purl.org/dc/dcmitype/StillImage"/>
    <dc:title/>
   </cc:Work>
  </rdf:RDF>
 </metadata>
 <g fill="#5d656b">
  <path d="m1 2v12h6.4238a5 5 0 0 1-0.31836-1h-5.1055v-10h12v4.4199a5 5 0 0 1 1 0.58789v-6.0078h-14z" stroke-width=".26898"/>
  <path d="m9.5859 7.6289c-0.82168 0.23738-1.1904 0.76953-2.1035 0.76953-1.1725 0-1.8725-0.61133-2.8027-0.61133-0.93 0-1.474 0.48633-2.0312 0.48633-0.24375 0-0.47044-0.081272-0.64844-0.16992v0.98242c0.268 0.077027 0.6153 0.14062 1.0293 0.14062 1.0552 0 0.9057-0.38281 1.8145-0.38281 0.909 0 1.4434 0.625 2.6719 0.625 0.068654 0 0.12343-0.011699 0.1875-0.015625a5 5 0 0 1 1.8828-1.8242z" color="#000000" stroke-width=".25994"/>
  <path d="m4 9.7446c0.12177-0.04076 0.51501 0.77983 0.63729 0.81853 0.12664 0.0405 0.99439-0.37351 1.0757-0.27353 0.0787 0.0969-0.62576 0.70394-0.6273 0.82597-0.00128 0.12638 0.68318 0.77803 0.60756 0.88211-0.073317 0.10049-0.90185-0.34454-1.0249-0.30814-0.12766 0.03768-0.57244 0.85468-0.70061 0.81879-0.12356-0.03461 0.068703-0.91697-0.0059-1.0164-0.077418-0.1028-1.0369-0.24969-1.0403-0.37607-0.00359-0.12202 0.94389-0.222 1.0211-0.31993 0.079469-0.10152-0.068446-1.009 0.057423-1.051z" color="#000000" overflow="visible" stroke-width=".25635"/>
  <path d="m12 8c-2.2069 0-4 1.7931-4 4 0 2.2069 1.7931 4 4 4 2.2069 0 4-1.7931 4-4 0-2.2069-1.7931-4-4-4zm0 1c1.6552 0 3 1.3448 3 3 0 1.6552-1.3448 3-3 3-1.6552 0-3-1.3448-3-3 0-1.6552 1.3448-3 3-3z" color="#000000" stroke-width=".19972"/>
  <path d="m14 12a2 2 0 1 1-4 0 2 2 0 1 1 4 0z" color="#000000" opacity=".3" overflow="visible" stroke-width=".181"/>
  <path d="m13 12a1 0.9995 0 1 1-2 0 1 0.9995 0 1 1 2 0z" color="#000000" overflow="visible" stroke-width=".181"/>
 </g>
</svg>
