<?xml version="1.0" encoding="UTF-8"?>
<svg width="16" height="16" version="1.1" xmlns="http://www.w3.org/2000/svg" xmlns:cc="http://creativecommons.org/ns#" xmlns:dc="http://purl.org/dc/elements/1.1/" xmlns:rdf="http://www.w3.org/1999/02/22-rdf-syntax-ns#">
 <metadata>
  <rdf:RDF>
   <cc:Work rdf:about="">
    <dc:format>image/svg+xml</dc:format>
    <dc:type rdf:resource="http://purl.org/dc/dcmitype/StillImage"/>
    <dc:title/>
   </cc:Work>
  </rdf:RDF>
 </metadata>
 <path d="m2.1191 1c-0.62048 0-1.1191 0.49866-1.1191 1.1191v11.762c0 0.62048 0.49866 1.1191 1.1191 1.1191h11.762c0.62048 0 1.1191-0.49866 1.1191-1.1191v-11.762c0-0.62048-0.49866-1.1191-1.1191-1.1191h-11.762zm6 2.0762c0.079333 0.0036295 0.21236 0.0026463 0.23828 0.099609 0.13119 1.0293 0.77912 1.8897 1.4688 2.6094 0.896 1.0899 0.93581 2.7502 0.21094 3.9434 0.1623-0.53667 0.28028-1.0994 0.23828-1.6641-0.049259-0.97533-0.73868-1.7671-1.5273-2.2441-0.085556-0.059109-0.26801-0.21268-0.33594-0.048828-0.01193 1.7246-0.0022294 3.4521-0.0058594 5.1777 0.12652 1.0039-0.734 2.006-1.7285 1.9785-0.66889-0.010889-1.3363-0.63991-1.2051-1.3555 0.12756-0.95148 1.0965-1.6003 1.9961-1.5723 0.12859-0.03214 0.33888 0.13141 0.41406-0.037109 0.01088-2.1612 0.0027394-4.3246 0.0058594-6.4863-0.0041482-0.182-0.049531-0.44032 0.23047-0.40039z" color="#000000" fill="#5d656b" stroke-width=".51852"/>
</svg>
