<?xml version="1.0" encoding="UTF-8"?>
<svg width="16" height="16" version="1.1" xmlns="http://www.w3.org/2000/svg" xmlns:cc="http://creativecommons.org/ns#" xmlns:dc="http://purl.org/dc/elements/1.1/" xmlns:rdf="http://www.w3.org/1999/02/22-rdf-syntax-ns#">
 <metadata>
  <rdf:RDF>
   <cc:Work rdf:about="">
    <dc:format>image/svg+xml</dc:format>
    <dc:type rdf:resource="http://purl.org/dc/dcmitype/StillImage"/>
    <dc:title/>
   </cc:Work>
  </rdf:RDF>
 </metadata>
 <g fill="#5d656b">
  <path d="m0 11v2c0 1.108 0.892 2 2 2h12c1.108 0 2-0.892 2-2v-2h-12.5a1.5 1.5 0 0 1 1.4141 1h9.623c0.2565 0 0.46289 0.20639 0.46289 0.46289v0.074218c0 0.2565-0.20639 0.46289-0.46289 0.46289h-9.623a1.5 1.5 0 0 1-1.416 1 1.5 1.5 0 0 1-1.4102-1h-0.625c-0.2565 0-0.46289-0.20639-0.46289-0.46289v-0.074218c0-0.2565 0.20639-0.46289 0.46289-0.46289h0.62305a1.5 1.5 0 0 1 1.4141-1h-3.5z" style="paint-order:stroke fill markers"/>
  <path d="m6.3035 4.001a0.33325 0.33625 0 0 0-0.3035 0.335v4.3303a0.33325 0.33625 0 0 0 0.494 0.292l3.8383-2.165a0.33325 0.33625 0 0 0 0-0.58425l-3.8383-2.165a0.33325 0.33625 0 0 0-0.1905-0.043z" fill-rule="evenodd" stroke-width=".25"/>
  <path d="m2 1c-1.108 0-2 0.892-2 2v8h1v-8c0-0.554 0.446-1 1-1h12c0.554 0 1 0.446 1 1v8h1v-8c0-1.108-0.892-2-2-2h-12z" style="paint-order:stroke fill markers"/>
  <path d="m3.4997 12a0.5 0.5 0 1 1-2.499e-4 1 0.5 0.5 0 0 1 2.499e-4 -1z" color="#000000" overflow="visible" stroke-width=".24994"/>
 </g>
</svg>
