<svg width="16" height="16" version="1.1" viewBox="0 0 16 16" xmlns="http://www.w3.org/2000/svg" xmlns:osb="http://www.openswatchbook.org/uri/2009/osb">
 <title>Gnome Symbolic Icon Theme</title>
 <g fill="#5d656b">
  <rect x="2" y="12" width="12" height="2" rx="0" ry="0" opacity=".25"/>
  <path d="m3 1c-1.108 0-2 0.892-2 2v10c0 1.108 0.892 2 2 2h10c1.108 0 2-0.892 2-2v-10c0-1.108-0.892-2-2-2h-10zm0 1h10c0.554 0 1 0.446 1 1v10c0 0.554-0.446 1-1 1h-10c-0.554 0-1-0.446-1-1v-10c0-0.554 0.446-1 1-1z" stroke-linecap="round" stroke-opacity=".8" stroke-width="2"/>
  <path d="m1 11v1h3.5859l1 1h1.4141 2 1.4141l1-1h3.5859v-1h-4l-1 1h-4l-1-1h-4z" stroke-linecap="round" stroke-opacity=".8" stroke-width="2"/>
  <path d="m1.2949 2.3105c-0.17867 0.33703-0.28909 0.71452-0.29297 1.123l3.5625 3.5625-3.5645 3.5645v1.416l4.2734-4.2734 0.28125 0.28125c1.3423 1.3423 3.5483 1.3423 4.8906 0l0.28125-0.28125 4.2734 4.2734v-1.4141l-3.5664-3.5664 3.5645-3.5645c-0.004192-0.40778-0.11459-0.78461-0.29297-1.1211l-4.9668 4.9668c-0.96279 0.96279-2.5138 0.96279-3.4766 0l-4.9668-4.9668z" color="#000000" color-rendering="auto" dominant-baseline="auto" image-rendering="auto" shape-rendering="auto" solid-color="#000000" stop-color="#000000" style="font-feature-settings:normal;font-variant-alternates:normal;font-variant-caps:normal;font-variant-east-asian:normal;font-variant-ligatures:normal;font-variant-numeric:normal;font-variant-position:normal;font-variation-settings:normal;inline-size:0;isolation:auto;mix-blend-mode:normal;shape-margin:0;shape-padding:0;text-decoration-color:#000000;text-decoration-line:none;text-decoration-style:solid;text-indent:0;text-orientation:mixed;text-transform:none;white-space:normal"/>
 </g>
</svg>
