<svg xmlns="http://www.w3.org/2000/svg" width="16" height="16" enable-background="new"><defs><filter id="a" color-interpolation-filters="sRGB"><feBlend mode="darken" in2="BackgroundImage"/></filter></defs><g color="#000" fill="#5d656b"><path style="marker:none" d="M8 1a7 7 0 0 0-7 7 7 7 0 0 0 7 7 7 7 0 0 0 7-7 7 7 0 0 0-7-7zm0 1a6 6 0 0 1 6 6 6 6 0 0 1-6 6 6 6 0 0 1-6-6 6 6 0 0 1 6-6z" overflow="visible" enable-background="accumulate"/><path style="marker:none" d="M7.967 3a1.247 1.247 0 1 0 .002 2.494A1.247 1.247 0 0 0 7.967 3zM3.988 6a.487.487 0 0 0-.488.488v.024c0 .27.217.488.488.488l2.512.25V9l-1.432 2.748c-.366.583.536 1.11.864.504L7.537 10h.926l1.605 2.252c.328.605 1.23.08.864-.504L9.5 9V7.25L12.012 7c.27 0 .488-.217.488-.488v-.024A.487.487 0 0 0 12.012 6z" overflow="visible" enable-background="accumulate"/></g></svg>