<svg xmlns="http://www.w3.org/2000/svg" width="16" height="16"><path d="M8 2a6 6 0 0 0-6 6 6 6 0 0 0 6 6 6 6 0 0 0 6-6 6 6 0 0 0-6-6zm0 1l1.22 1.22C10.83 4.74 12 6.22 12 8c0 2.21-1.79 4-4 4s-4-1.79-4-4c0-1.78 1.17-3.26 2.78-3.78L8 3zm0 0c-.146 0-.29.01-.434.021A5 5 0 0 1 8 3zm-.691.053c-.077.01-.154.02-.229.035a5 5 0 0 1 .229-.035zm1.726.056a5 5 0 0 1 .889.278 4.95 4.95 0 0 0-.889-.278zm-2.113.014a4.951 4.951 0 0 0-.817.254 5 5 0 0 1 .817-.254zm3.04.28a5 5 0 0 1 .796.431 4.989 4.989 0 0 0-.795-.432zm-3.985.033a4.996 4.996 0 0 0-.735.396 5 5 0 0 1 .735-.396zm4.832.427a5 5 0 0 1 .693.575 5.032 5.032 0 0 0-.693-.575zm-5.664.041c-.236.165-.46.347-.665.55a5 5 0 0 1 .665-.55zm6.402.576a5 5 0 0 1 .549.665 5.034 5.034 0 0 0-.55-.665zm-7.11.018c-.21.214-.404.445-.574.693a5 5 0 0 1 .575-.693zm-.603.744c-.166.25-.312.516-.432.795a5 5 0 0 1 .432-.795zm8.334 0a5 5 0 0 1 .396.735 4.996 4.996 0 0 0-.396-.735zm-8.781.834a4.95 4.95 0 0 0-.278.889 5 5 0 0 1 .278-.889zm9.236.03a5 5 0 0 1 .254.816 4.951 4.951 0 0 0-.254-.817zm.29.974a5 5 0 0 1 .034.229c-.01-.077-.02-.154-.035-.229zm.066.486A5 5 0 0 1 13 8c0-.146-.01-.29-.021-.434zM3 8c0 .147.009.292.021.436A5 5 0 0 1 3 8zm.05.678c.012.084.024.167.04.25a5 5 0 0 1-.04-.25zm9.846.336a5 5 0 0 1-.289.927c.126-.295.223-.606.29-.927zm-9.775.05c.063.29.149.57.26.838a5 5 0 0 1-.26-.838zm9.484.883a5 5 0 0 1-.457.84c.178-.263.332-.544.457-.84zM3.424 10c.118.269.256.528.418.77a5 5 0 0 1-.418-.77zm8.72.793a5 5 0 0 1-.609.738 5 5 0 0 1-.715.592 5.041 5.041 0 0 0 1.325-1.33zm-8.261.033c.173.252.366.49.582.705a5.04 5.04 0 0 0 1.588 1.074 5 5 0 0 1-.848-.462 5 5 0 0 1-.74-.612 5 5 0 0 1-.582-.705zm6.896 1.324a5 5 0 0 1-.779.426c.273-.12.535-.261.78-.426zm-4.724.455c.29.124.596.219.912.286a5 5 0 0 1-.912-.286zm3.853.012a5 5 0 0 1-.83.26 4.95 4.95 0 0 0 .83-.26zm-.988.295a5 5 0 0 1-.229.035c.077-.01.154-.02.229-.035zm-.486.067A5 5 0 0 1 8 13c.146 0 .29-.01.434-.021z" opacity=".3" fill="#434343" fill-rule="evenodd" paint-order="fill markers stroke"/><path d="M8 4L6.66 5.34C5.68 5.84 5 6.83 5 8c0 1.65 1.34 3 3 3s3-1.35 3-3c0-1.17-.68-2.16-1.66-2.66z" fill="#5d656b"/><path d="M8 0C3.58 0 0 3.58 0 8c0 4.41 3.58 8 8 8s8-3.59 8-8c0-4.42-3.58-8-8-8zm0 1a7 7 0 0 1 7 7 7 7 0 0 1-7 7 7 7 0 0 1-7-7 7 7 0 0 1 7-7z" fill="#5d656b"/></svg>