<?xml version="1.0" encoding="UTF-8"?>
<svg width="16" height="16" version="1.1" xmlns="http://www.w3.org/2000/svg" xmlns:cc="http://creativecommons.org/ns#" xmlns:dc="http://purl.org/dc/elements/1.1/" xmlns:rdf="http://www.w3.org/1999/02/22-rdf-syntax-ns#">
 <metadata>
  <rdf:RDF>
   <cc:Work rdf:about="">
    <dc:format>image/svg+xml</dc:format>
    <dc:type rdf:resource="http://purl.org/dc/dcmitype/StillImage"/>
    <dc:title/>
   </cc:Work>
  </rdf:RDF>
 </metadata>
 <g fill="#5d656b">
  <path d="m4 7.4961-0.15234 0.14062c0.051879 0.039907 0.10125 0.090917 0.15234 0.13477zm-2 0.23047v5.0312h0.54492v-0.78906h0.51562v0.51562h0.54492v-4.7578h-1.6055zm0.54492 0.51562h0.51562v3.2129h-0.51562zm1.4922 1.1289-0.18945 0.17383c0.092477 0.071136 0.18011 0.15322 0.26758 0.23438-0.035701-0.13294-0.060816-0.26852-0.078125-0.4082zm0.35742 1.8711c-0.26263 0.80808-0.62715 1.5865-1.0918 2.334l0.51562 0.39258c0.46465-0.76768 0.81812-1.5643 1.0605-2.3926l-0.48438-0.33398zm1.0742 0.32617c-0.050739 0.47462-0.10299 0.94564-0.16602 1.3711h2.3633c-0.040404 0.36364-0.13007 0.54492-0.27148 0.54492s-0.3448-0.02014-0.60742-0.06055l0.091797 0.51562c0.22222 0.040407 0.39441 0.06055 0.51562 0.06055 0.48485 0 0.76685-0.35348 0.84766-1.0605h0.51562v-0.51562h-0.45508c0.00689-0.13786 0.022006-0.28362 0.03125-0.42383h-0.57617c-0.011434 0.1424-0.017464 0.27908-0.03125 0.42383h-1.7871c0.029353-0.1859 0.049605-0.40145 0.074219-0.60156-0.19166-0.0667-0.37339-0.15173-0.54492-0.25391zm1.2598 0.4043c0.1109 0.09944 0.22663 0.18484 0.33203 0.30078l0.23633-0.27344h-0.29688c-0.093159 0-0.18054-0.01911-0.27148-0.02734z" opacity=".3"/>
  <path d="m2 5c-1.108 0-2 0.892-2 2v7c0 1.108 0.892 2 2 2h7c1.108 0 2-0.892 2-2v-2h-1v2c0 0.554-0.446 1-1 1h-7c-0.554 0-1-0.446-1-1v-7c0-0.554 0.446-1 1-1h2v-1z" opacity=".3" style="paint-order:stroke fill markers"/>
  <path d="m7 0c-1.108 0-2 0.892-2 2v7c0 1.108 0.892 2 2 2h7c1.108 0 2-0.892 2-2v-7c0-1.108-0.892-2-2-2zm0 1h7c0.554 0 1 0.446 1 1v7c0 0.554-0.446 1-1 1h-7c-0.554 0-1-0.446-1-1v-7c0-0.554 0.446-1 1-1z" style="paint-order:stroke fill markers"/>
  <g aria-label="A">
   <path d="m10.5 2.933-1.2847 3.4836h2.574zm-0.53449-0.93302h1.0737l2.6678 7h-0.9846l-0.63764-1.7957h-3.1554l-0.63764 1.7957h-0.99866z" fill="#5d656b" stroke-width=".24005"/>
  </g>
 </g>
</svg>
