<?xml version="1.0" encoding="UTF-8"?>
<svg width="16" height="16.003" enable-background="new" version="1.1" xmlns="http://www.w3.org/2000/svg" xmlns:cc="http://creativecommons.org/ns#" xmlns:dc="http://purl.org/dc/elements/1.1/" xmlns:rdf="http://www.w3.org/1999/02/22-rdf-syntax-ns#">
 <metadata>
  <rdf:RDF>
   <cc:Work rdf:about="">
    <dc:format>image/svg+xml</dc:format>
    <dc:type rdf:resource="http://purl.org/dc/dcmitype/StillImage"/>
    <dc:title>Paper Symbolic Icon Theme</dc:title>
   </cc:Work>
  </rdf:RDF>
 </metadata>
 <title>Paper Symbolic Icon Theme</title>
 <path d="m14 3e-3s2-0.0034 2 2v12c0 1.9966-2 2-2 2h-12c-0.0948-0.0034-2-0.0034-2-2v-12s0-2 2-2zm-2.9062 3h-6.1875c-1.0561 0-1.9062 0.85019-1.9062 1.9062v0.1875c0 1.0561 0.85019 1.9062 1.9062 1.9062h6.1875c1.0561 0 1.9062-0.85019 1.9062-1.9062v-0.1875c0-1.0561-0.85019-1.9062-1.9062-1.9062zm-0.0937 1c0.55228 0 1 0.44772 1 1s-0.44772 1-1 1-1-0.44772-1-1 0.44772-1 1-1zm0.0566 5h-6.1133c-1.0767 0-1.9434 0.86668-1.9434 1.9434v0.11328c0 1.0767 0.86668 1.9434 1.9434 1.9434h6.1133c1.0767 0 1.9434-0.86668 1.9434-1.9434v-0.11328c-1e-5 -1.0767-0.86669-1.9434-1.9434-1.9434zm-6.0566 1c0.55228 0 1 0.44772 1 1s-0.44772 1-1 1-1-0.44772-1-1 0.44772-1 1-1z" enable-background="new" fill="#5d656b"/>
</svg>
