<svg width="16" height="16" version="1.1">
 <path d="m2 1c-2 0-2 2-2 2v10c0 2 2 2 2 2h12c2 0 2-2 2-2v-10s0-2-2-2h-12zm0 1h12c0.554 0 1 0.446 1 1v10c0 0.554-0.446 1-1 1h-12c-0.554 0-1-0.446-1-1v-10c0-0.554 0.446-1 1-1z" fill="#5d656b"/>
 <path d="m9.31 4.97c0.26-0.08 0.56 0.09 0.63 0.34l1.43 4.69h2.63v1h-3c-0.2112-0.0073-0.39698-0.14169-0.47-0.34l-1.06-3.47-1.53 5.43c-0.11 0.35-0.66 0.45-0.88 0.16l-1.31-1.78h-3.75v-1h4c0.16 0 0.32 0.09 0.41 0.22l0.87 1.19 1.69-6.1c0.05-0.16 0.18-0.29 0.34-0.34z" fill="#5d656b"/>
</svg>
