<?xml version="1.0" encoding="UTF-8"?>
<svg height="16px" viewBox="0 0 16 16" width="16px" xmlns="http://www.w3.org/2000/svg">
    <path d="m 1.5 0 c -0.824219 0 -1.5 0.675781 -1.5 1.5 s 0.675781 1.5 1.5 1.5 c 0.644531 0 1.199219 -0.417969 1.410156 -0.996094 l 1.78125 -0.003906 l 0.363282 0.71875 c 0.125 0.246094 0.421874 0.34375 0.671874 0.222656 c 0.117188 -0.058594 0.207032 -0.164062 0.25 -0.289062 c 0.039063 -0.125 0.03125 -0.265625 -0.027343 -0.382813 l -0.640625 -1.269531 l -2.394532 0.003906 c -0.210937 -0.582031 -0.765624 -1.003906 -1.414062 -1.003906 z m 7.5 0 v 1 h -1 v 1 h -1 v 1 h 1 v 1 h -1 v 1 h 1 v 1 h -1 v 1 h 1 v 1 h 1 v 1 h 1 v -1 h 1 v 1 h 1 v -1 h 1 v 1 h 1 v -1 h 1 v -1 h 1 v -1 h -1 v -1 h 1 v -1 h -1 v -1 h 1 v -1 h -1 v -1 h -1 v -1 h -1 v 1 h -1 v -1 h -1 v 1 h -1 v -1 z m -7.5 1 c 0.28125 0 0.5 0.21875 0.5 0.5 s -0.21875 0.5 -0.5 0.5 s -0.5 -0.21875 -0.5 -0.5 s 0.21875 -0.5 0.5 -0.5 z m -1.5 3 v 1 h 3.222656 l 1.039063 1.664062 h -0.003907 c -0.164062 0.238282 -0.257812 0.527344 -0.257812 0.835938 c 0 0.824219 0.675781 1.5 1.5 1.5 s 1.5 -0.675781 1.5 -1.5 s -0.675781 -1.5 -1.5 -1.5 c -0.148438 0 -0.292969 0.023438 -0.429688 0.0625 l -1.292968 -2.0625 z m 0 3 v 1 h 1.730469 l 2 3 h 0.957031 l 0.71875 1.480469 c -0.140625 0.148437 -0.25 0.324219 -0.320312 0.519531 h -0.816407 l -2 -3 h -2.269531 v 1 h 1.730469 l 2 3 h 1.355469 c 0.210937 0.578125 0.765624 1 1.414062 1 c 0.824219 0 1.5 -0.675781 1.5 -1.5 s -0.675781 -1.5 -1.5 -1.5 c -0.070312 0 -0.140625 0.007812 -0.210938 0.015625 l -0.492187 -1.015625 h 1.914063 l 0.796874 1.378906 c -0.3125 0.277344 -0.507812 0.675782 -0.507812 1.121094 c 0 0.824219 0.675781 1.5 1.5 1.5 s 1.5 -0.675781 1.5 -1.5 s -0.675781 -1.5 -1.5 -1.5 c -0.019531 0 -0.035156 0 -0.054688 0.003906 l -0.578124 -1.003906 h 1.84375 l 0.800781 1.375 c -0.3125 0.277344 -0.511719 0.679688 -0.511719 1.125 c 0 0.824219 0.675781 1.5 1.5 1.5 s 1.5 -0.675781 1.5 -1.5 s -0.675781 -1.5 -1.5 -1.5 c -0.015625 0 -0.035156 0 -0.050781 0.003906 l -0.582031 -1.003906 h 1.21875 c 0.210937 0.578125 0.765624 1 1.414062 1 c 0.824219 0 1.5 -0.675781 1.5 -1.5 s -0.675781 -1.5 -1.5 -1.5 c -0.648438 0 -1.203125 0.421875 -1.414062 1 h -8.816407 l -2 -3 z m 5.5 0 c 0.28125 0 0.5 0.21875 0.5 0.5 s -0.21875 0.5 -0.5 0.5 s -0.5 -0.21875 -0.5 -0.5 s 0.21875 -0.5 0.5 -0.5 z m 9 3 c 0.28125 0 0.5 0.21875 0.5 0.5 s -0.21875 0.5 -0.5 0.5 s -0.5 -0.21875 -0.5 -0.5 s 0.21875 -0.5 0.5 -0.5 z m -8 3 c 0.28125 0 0.5 0.21875 0.5 0.5 s -0.21875 0.5 -0.5 0.5 s -0.5 -0.21875 -0.5 -0.5 s 0.21875 -0.5 0.5 -0.5 z m 3 0 c 0.28125 0 0.5 0.21875 0.5 0.5 s -0.21875 0.5 -0.5 0.5 s -0.5 -0.21875 -0.5 -0.5 s 0.21875 -0.5 0.5 -0.5 z m 3 0 c 0.28125 0 0.5 0.21875 0.5 0.5 s -0.21875 0.5 -0.5 0.5 s -0.5 -0.21875 -0.5 -0.5 s 0.21875 -0.5 0.5 -0.5 z m 0 0" fill="#2e3436"/>
</svg>
