<svg version="1.1" viewBox="0 0 24 24" xmlns="http://www.w3.org/2000/svg">
 <defs>
  <style id="current-color-scheme" type="text/css">.ColorScheme-Text {
        color:#d3dae3;
      }</style>
 </defs>
 <path class="ColorScheme-Text" d="m15 12c-2.216 0-4 1.784-4 4 0 2.216 1.784 4 4 4s4-1.784 4-4-1.784-4-4-4zm0 1c1.662 0 3 1.338 3 3 0 1.662-1.338 3-3 3s-3-1.338-3-3c0-1.662 1.338-3 3-3zm-1 1v3h2v-1h-1v-2z" color="#d3dae3" fill="currentColor"/>
 <path class="ColorScheme-Text" d="m5 4v16h7.002a5 5 0 0 1-1.002-1h-5v-14h6v5h5v1.418a5 5 0 0 1 1 0.58398v-3.002h-0.05078l0.05078-0.050781-4.9492-4.9492-0.05078 0.050781v-0.050781h-8zm8 1.3633 3.6367 3.6367h-3.6367z" color="#d3dae3" fill="currentColor"/>
 <path class="ColorScheme-Text" d="m6 5v14h5a5 5 0 0 1-1-3 5 5 0 0 1 5-5 5 5 0 0 1 2 0.41797v-1.418h-5v-5h-6z" color="#d3dae3" fill="currentColor" opacity=".25"/>
</svg>
