<svg xmlns="http://www.w3.org/2000/svg" width="64" height="64" viewBox="0 0 16.933 16.933"><g transform="translate(0 -280.067)"><rect ry=".794" rx=".794" y="281.654" x="1.588" height="13.758" width="13.758" fill="#e6e6e6" stroke="#636d85" stroke-width=".529" stroke-linecap="round" stroke-linejoin="round" stroke-opacity=".337" paint-order="markers stroke fill"/><rect width="13.758" height="13.758" x="1.588" y="281.654" rx=".794" ry=".794" fill="#e6e6e6" paint-order="markers stroke fill"/><path d="M7.937 281.653v6.89c0 .286.237.52.53.52a.525.525 0 0 0 .529-.52v-6.89h-.27c.001.009.005.016.005.024v6.833c0 .16-.118.288-.264.288-.147 0-.265-.128-.265-.288v-6.833c0-.008.004-.015.005-.024h-.27z" opacity=".3"/><path d="M8.467 281.654v.265h.264v-.265h-.264zm0 .265h-.265v.264h.265v-.264zm0 .264v.265h.264v-.265h-.264zm0 .265h-.265v.265h.265v-.265zm0 .265v.264h.264v-.264h-.264zm0 .264h-.265v.265h.265v-.265zm0 .265v.264h.264v-.264h-.264zm0 .264h-.265v.265h.265v-.265zm0 .265v.264h.264v-.264h-.264zm0 .264h-.265v.265h.265v-.265zm0 .265v.265h.264v-.265h-.264zm0 .265h-.265v.264h.265v-.264zm0 .264v.265h.264v-.265h-.264zm0 .265h-.265v.264h.265v-.264zm0 .264v.265h.264v-.265h-.264zm0 .265h-.265v.265h.265v-.265zm0 .265v.264h.264v-.264h-.264zm0 .264h-.265v.265h.265v-.265zm0 .265v.264h.264v-.264h-.264zm0 .264h-.265v.265h.265v-.265zm0 .265v.264h.264v-.264h-.264zm0 .264h-.265v.265h.265v-.265zm0 .265v.265h.264v-.265h-.264zm0 .265h-.265v.264h.265v-.264zm0 .264v.265h.264v-.265h-.264zm0 .265h-.265v.264h.265v-.264zm0 .264v.265a.274.274 0 0 0 .264-.265h-.264z" opacity=".3"/><path d="M8.467 286.417a1.06 1.06 0 0 0-1.059 1.058v2.117a1.06 1.06 0 0 0 1.059 1.058 1.06 1.06 0 0 0 1.058-1.058v-2.117a1.06 1.06 0 0 0-1.058-1.058zm0 .529c.292 0 .529.211.529.529 0 .265-.237.53-.53.53a.548.548 0 0 1-.529-.53c0-.318.238-.53.53-.53zm0 1.587a.53.53 0 0 1 .529.53v.529a.53.53 0 0 1-1.059 0v-.53a.53.53 0 0 1 .53-.529z" fill="#fff" stroke-width=".265" stroke="#000" stroke-opacity=".255" paint-order="fill markers stroke"/><path d="M8.202 281.919v.264h.265v-.264h-.265zm0 .529v.265h.265v-.265h-.265zm0 .53v.264h.265v-.265h-.265zm0 .528v.265h.265v-.265h-.265zm0 .53v.264h.265v-.265h-.265zm0 .529v.264h.265v-.264h-.265zm0 .529v.264h.265v-.264h-.265zm0 .529v.265h.265v-.265h-.265zm0 .53v.264h.265v-.265h-.265zm0 .528v.265h.265v-.265h-.265zm0 .53v.264h.265v-.265h-.265zm0 .529v.264h.265v-.264h-.265z" opacity=".35" fill="#fff"/></g></svg>