<svg xmlns="http://www.w3.org/2000/svg" width="64" height="64" viewBox="0 0 16.933 16.933"><g transform="translate(0 -280.067)"><path style="marker:none" d="M6.329 292.502s.05 1.634-.197 1.985c-.246.35-.736.354-.736.354-.314.037-.317.704 0 .704h6.141c.317 0 .315-.668 0-.704 0 0-.49-.004-.736-.354s-.196-1.985-.196-1.985z" overflow="visible" fill="#f2f2f2"/><rect y="282.051" x=".661" ry=".321" rx=".347" height="10.583" width="15.61" fill="#1a1a1a" stroke="#000" stroke-width=".265" stroke-linecap="round" stroke-linejoin="round" stroke-dashoffset=".5"/><path d="M1.323 282.712H15.61v9.26H1.323z" fill="#505050"/><path style="marker:none" d="M6.329 292.238s.05 1.898-.197 2.249c-.246.35-.736.354-.736.354-.314.037-.317.704 0 .704h6.141c.317 0 .315-.668 0-.704 0 0-.49-.004-.736-.354s-.196-2.25-.196-2.25z" color="#000" overflow="visible" opacity=".15" fill="none" stroke="#000" stroke-width=".264" stroke-linecap="round" stroke-linejoin="round" stroke-dashoffset=".5"/><path d="M2.646 284.036h1.323v.529H2.646zm0 .529h.529v.794h-.529zM5.556 284.035h2.117v.529H5.556zm3.704 0h2.117v.529H9.26zm-6.085 2.382v1.852h-.529v-1.852zM14.287 284.036h-1.323v.529h1.323zm0 .529h-.529v.794h.53zM14.287 286.417v1.852h-.529v-1.852zM2.646 290.65h1.323v-.53H2.646zm0-.53h.529v-.793h-.529zM5.556 290.65h2.117v-.529H5.556zm3.704 0h2.117v-.529H9.26zM14.287 290.65h-1.323v-.53h1.323zm0-.53h-.529v-.793h.53z" fill="#a8a8a8" fill-rule="evenodd" paint-order="fill markers stroke"/><path d="M13.263 292.138l-1.874-3.467s-1.31 2.76 1.874 4.529z" fill="#e6e6e6"/><path d="M13.263 292.138l-1.874-3.467s-1.31 2.76 1.874 4.529z" opacity=".5" fill="none" stroke="#000" stroke-width=".265"/><path d="M13.526 292.138l1.874-3.467s1.31 2.76-1.874 4.529z" fill="#e6e6e6"/><path d="M13.526 292.138l1.874-3.467s1.31 2.76-1.874 4.529z" opacity=".5" fill="none" stroke="#000" stroke-width=".265"/><g color="#000"><path style="marker:none" d="M12.499 293.17c-.488.026-1.792.323-1.792 1.234 0 1.04.775 1.406 1.238 1.406.464 0 1.22-.35 1.239-1.406.014-.842-.287-1.182-.529-1.234a.78.78 0 0 0-.156 0zm1.568 0c-.242.052-.543.392-.528 1.234.018 1.055.766 1.406 1.23 1.406.463 0 1.238-.365 1.238-1.406s-1.698-1.286-1.94-1.234zm-1.568.666s.156 1.8-.793 1.094c-1.056-.786.793-1.094.793-1.094zm1.717 0s1.856.308.8 1.094c-.949.707-.8-1.094-.8-1.094z" overflow="visible" fill="#e1594d"/><path style="marker:none" d="M47.406 50.625c-1.845.098-6.781 1.226-6.781 4.688 0 3.956 2.933 5.343 4.688 5.343 1.754 0 4.619-1.332 4.687-5.343.054-3.198-1.085-4.491-2-4.688-.114-.025-.33-.014-.594 0zm5.907 0c-.916.197-2.055 1.49-2 4.688.068 4.01 2.901 5.343 4.656 5.343 1.754 0 4.687-1.387 4.687-5.343 0-3.957-6.428-4.885-7.343-4.688zm-5.907 2.531s.594 6.843-3 4.157c-3.996-2.987 3-4.157 3-4.157zm6.469 0s7.027 1.17 3.031 4.157c-3.593 2.686-3.031-4.157-3.031-4.157z" overflow="visible" opacity=".6" fill="none" stroke="#640000" stroke-width="1.004" stroke-linecap="round" stroke-linejoin="round" transform="matrix(.26417 0 0 .26312 -.017 279.85)"/></g></g></svg>