<?xml version="1.0" encoding="UTF-8"?>
<svg width="64" height="64" version="1.1" viewBox="0 0 16.933 16.933" xmlns="http://www.w3.org/2000/svg" xmlns:cc="http://creativecommons.org/ns#" xmlns:dc="http://purl.org/dc/elements/1.1/" xmlns:rdf="http://www.w3.org/1999/02/22-rdf-syntax-ns#">
 <metadata>
  <rdf:RDF>
   <cc:Work rdf:about="">
    <dc:format>image/svg+xml</dc:format>
    <dc:type rdf:resource="http://purl.org/dc/dcmitype/StillImage"/>
    <dc:title/>
   </cc:Work>
  </rdf:RDF>
 </metadata>
 <g transform="translate(0 -280.07)" fill="#4e99f3" paint-order="fill markers stroke">
  <circle cx="8.467" cy="288.53" r="7.144" opacity=".75" stroke="#074c99" stroke-linecap="round" stroke-width=".529"/>
  <circle cx="8.467" cy="288.53" r="7.144"/>
 </g>
 <path d="M10.64 4.475a2.92 2.92 0 0 0-1.222.252C8.685 5.05 8.156 5.764 7.844 6.3a.313.313 0 0 0-.279.54 3.085 3.085 0 0 0-.052.123l-1.518 3.333a.312.312 0 0 0-.269.564l.01.004-.341.751h-.849a.313.313 0 0 0 0 .626h1.566a.314.314 0 1 0 0-.626h-.03l.219-.477a.322.322 0 0 0 .086.013.312.312 0 0 0 .17-.575l1.571-3.453a.311.311 0 0 0 .414-.15.312.312 0 0 0-.129-.406c.268-.451.697-1.02 1.259-1.269.603-.266 1.299-.263 1.772.01.348.201.549.521.595.951.088.805.014 1.344-.22 1.604a.58.58 0 0 1-.069.064v.7a1.22 1.22 0 0 0 .536-.346c.362-.403.485-1.087.376-2.09-.068-.621-.389-1.128-.905-1.425a2.316 2.316 0 0 0-1.116-.292zm.027 3.07c-.173 0-1.919.144-2.38 2.423l-.295 1.883c0 .173.14.392.313.392h1.487a1.352 1.352 0 0 1-.287-.832 1.361 1.361 0 0 1 1.932-1.233V7.701c0-.173.017-.156-.156-.156zm.199 2.818a1.045 1.045 0 1 0-.343 2.036 1.043 1.043 0 0 0 1.39-.988 1.04 1.04 0 0 0-.476-.876 1.04 1.04 0 0 0-.571-.172z" fill="#fff" fill-opacity=".993"/>
</svg>
