<svg xmlns="http://www.w3.org/2000/svg" width="64" height="64" viewBox="0 0 16.933 16.933"><g transform="translate(0 -280.067)"><rect ry=".312" y="282.713" x="10.848" height="4.498" width="4.233" fill="#5ad85d" stroke="#000" stroke-width=".265" stroke-linecap="round" stroke-opacity=".255"/><rect width="4.233" height="4.498" x="10.848" y="282.713" ry=".312" fill="#5ad85d"/><rect width="4.233" height="4.498" x="10.848" y="286.218" ry=".351" fill="#ff584c" stroke="#000" stroke-width=".265" stroke-linecap="round" stroke-opacity=".255"/><rect ry=".351" y="286.218" x="10.848" height="4.498" width="4.233" fill="#ff584c"/><rect ry=".331" y="289.856" x="10.848" height="4.233" width="4.233" fill="#ffce3d" stroke="#000" stroke-width=".265" stroke-linecap="round" stroke-opacity=".255"/><rect width="4.233" height="4.233" x="10.848" y="289.856" ry=".331" fill="#ffce3d"/><rect transform="scale(1 -1)" ry=".529" y="-295.413" x="2.117" height="13.758" width="12.171" fill="#387fe7" stroke="#184b98" stroke-width=".529" opacity=".75"/><rect width="12.171" height="13.758" x="2.117" y="-295.413" ry=".529" transform="scale(1 -1)" fill="#387fe7"/><path d="M8.202 284.83a1.587 1.587 0 0 0-1.587 1.587 1.588 2.646 0 0 0 1.587 2.646 1.588 2.646 0 0 0 1.588-2.646 1.587 1.587 0 0 0-1.588-1.588zm1.276 4.91a1.588 1.588 0 0 1-1.276.645 1.588 1.588 0 0 1-1.275-.645 3.704 2.381 0 0 0-2.43 2.233h7.41a3.704 2.381 0 0 0-2.429-2.234z" fill="#fff" paint-order="stroke markers fill"/></g></svg>