<svg xmlns="http://www.w3.org/2000/svg" width="64" height="64" viewBox="0 0 16.933 16.933"><g transform="translate(0 -280.067)"><path d="M8.467 281.39a7.128 7.128 0 0 0-7.144 7.143 7.128 7.128 0 0 0 7.144 7.144 7.128 7.128 0 0 0 7.143-7.144 7.128 7.128 0 0 0-7.143-7.143zm0 1.099a6.031 6.031 0 0 1 6.044 6.044 6.03 6.03 0 0 1-4.647 5.882c.015-.247.025-.569.055-.846.032-.28.145-2.619.548-3.238.403-.62 1.55-1.363 1.953-1.44.403-.077.335-.238.335-.38 0-.14-.071-.445-.179-.49-.11-.047-.53.225-.67.255-.14.032-.809.088-.904-.067-.092-.155.75-1.735.861-1.92a.594.594 0 0 0-.046-.703c-.2-.262-.336-.524-.412-.524-.255 0-.753.587-.938.68-.186.094-1.657 1.143-1.797 1.327a.569.569 0 0 1-.524.246c-.202-.015-.846-.022-1.06.1-.218.124-1.215 1.137-1.464 1.262a2.48 2.48 0 0 1-.728.214c-.156.014-.664.582-.803.691-.137.11-1.238.588-1.393.683-.156.092 1.132 1.397 1.315 1.428.143.023-.015.442-.258.634a6.025 6.025 0 0 1-1.333-3.794 6.031 6.031 0 0 1 6.045-6.044zm-.256 5.484c.064.005.104.012.104.012.07.165-.262.677-.569.748-.306.071-1.014 1.118-1.037.882-.024-.237.281-1.02.636-1.373a1 1 0 0 1 .614-.266l-.002-.001a1.44 1.44 0 0 1 .254-.002zm-4.454 4.356a6.057 6.057 0 0 0 0 0zm.963.953a5.993 5.993 0 0 0 0 0zm.274.203a6.055 6.055 0 0 0 0 0zm.266.176a5.975 5.975 0 0 0 0 0zm.276.164a5.952 5.952 0 0 0 0 0zm.276.144a6.003 6.003 0 0 0 0 0zm.672.277a5.91 5.91 0 0 0 0 0zm.344.107a5.994 5.994 0 0 0 0 0zm.32.08a5.84 5.84 0 0 0 0 0zm2.367.053a6.036 6.036 0 0 1 0 0zm-2.051.01a6.105 6.105 0 0 0 0 0zm1.694.042a6.083 6.083 0 0 1 0 0zm-1.356.003a5.738 5.738 0 0 1 0 0zm1.005.027a6.054 6.054 0 0 1 0 0z" opacity=".9" fill="#5771bf" stroke="#21428b" stroke-width=".529"/><rect transform="matrix(0 -1 -1 0 0 0)" ry="6.085" rx="6.085" y="-14.552" x="-294.619" height="12.171" width="12.171" fill="#fff"/><path d="M8.467 281.39a7.128 7.128 0 0 0-7.144 7.143 7.128 7.128 0 0 0 7.144 7.144 7.128 7.128 0 0 0 7.143-7.144 7.128 7.128 0 0 0-7.143-7.143zm0 1.099a6.031 6.031 0 0 1 6.044 6.044 6.03 6.03 0 0 1-4.647 5.882c.015-.247.025-.569.055-.846.032-.28.145-2.619.548-3.238.403-.62 1.55-1.363 1.953-1.44.403-.077.335-.238.335-.38 0-.14-.071-.445-.179-.49-.11-.047-.53.225-.67.255-.14.032-.809.088-.904-.067-.092-.155.75-1.735.861-1.92a.594.594 0 0 0-.046-.703c-.2-.262-.336-.524-.412-.524-.255 0-.753.587-.938.68-.186.094-1.657 1.143-1.797 1.327a.569.569 0 0 1-.524.246c-.202-.015-.846-.022-1.06.1-.218.124-1.215 1.137-1.464 1.262a2.48 2.48 0 0 1-.728.214c-.156.014-.664.582-.803.691-.137.11-1.238.588-1.393.683-.156.092 1.132 1.397 1.315 1.428.143.023-.015.442-.258.634a6.025 6.025 0 0 1-1.333-3.794 6.031 6.031 0 0 1 6.045-6.044zm-.256 5.484c.064.005.104.012.104.012.07.165-.262.677-.569.748-.306.071-1.014 1.118-1.037.882-.024-.237.281-1.02.636-1.373a1 1 0 0 1 .614-.266l-.002-.001a1.44 1.44 0 0 1 .254-.002zm-4.454 4.356zm.963.953zm.274.203zm.266.176zm.276.164zm.276.144zm.672.277zm.344.107zm.32.08zm2.367.053zm-2.051.01zm1.694.042zm-1.356.003zm1.005.027z" fill="#5771bf"/></g></svg>