<svg xmlns="http://www.w3.org/2000/svg" width="64" height="64" viewBox="0 0 16.933 16.933"><g transform="translate(0 -280.067)"><rect ry=".825" rx=".825" y="281.654" x="1.587" height="13.758" width="13.758" opacity=".15" fill="#e6e6e6" stroke="#000" stroke-width=".529" stroke-linecap="round" stroke-linejoin="round" paint-order="markers stroke fill"/><rect width="13.758" height="13.758" x="1.587" y="281.654" rx=".825" ry=".825" fill="#f9f9f9" paint-order="markers stroke fill"/><g stroke-opacity=".255" stroke-width=".215" fill-rule="evenodd"><path d="M9.073 287.938c0 .445.011.815-.204 1.21-.173.32-.448.517-.754.517-.419 0-.662-.333-.662-.825 0-.972.833-1.149 1.62-1.149v.247m1.099 2.778a.22.22 0 0 1-.257.028c-.361-.314-.426-.46-.626-.76-.598.638-1.02.829-1.796.829-.917 0-1.632-.592-1.632-1.776 0-.925.48-1.556 1.162-1.864.59-.272 1.417-.32 2.049-.395v-.148c0-.27.02-.591-.131-.825-.133-.21-.388-.297-.612-.297-.416 0-.786.223-.876.685-.02.103-.09.203-.19.208l-1.057-.118c-.089-.021-.187-.096-.163-.239.245-1.338 1.402-1.743 2.438-1.743.53 0 1.223.148 1.64.568.531.517.48 1.208.48 1.96v1.776c0 .534.212.768.411 1.057.07.102.086.226-.002.303a52.39 52.39 0 0 0-.836.757l-.004-.004" fill="#201f1f"/><path d="M11.886 291.692c-.927.7-2.27 1.073-3.428 1.073a6.117 6.117 0 0 1-4.187-1.638c-.087-.08-.01-.19.095-.127a8.27 8.27 0 0 0 4.19 1.138 8.138 8.138 0 0 0 3.196-.67c.157-.068.289.105.135.223" fill="#f90"/><path d="M12.272 291.24c-.118-.156-.784-.074-1.081-.037-.092.01-.106-.07-.023-.129.529-.382 1.4-.272 1.5-.143.101.128-.026 1.021-.525 1.447-.076.066-.148.03-.114-.056.11-.286.362-.927.243-1.082" fill="#f90"/></g></g></svg>