<svg width="64" height="64" version="1.1" viewBox="0 0 16.933 16.933" xmlns="http://www.w3.org/2000/svg">
 <path d="m6.6143 2.1166c-0.33262 0-0.66548 0.12398-0.91412 0.37262l-5.063 5.0636c-0.4973 0.49728-0.49658 1.3295 7.14e-4 1.8268l5.063 5.0636c0.4973 0.49728 1.3302 0.49798 1.8275 7.12e-4l5.063-5.0636c0.4973-0.49728 0.4973-1.3302 0-1.8275l-5.063-5.0636c-0.24864-0.24864-0.5815-0.37262-0.91412-0.37262z" fill="#8e8e8e" stroke="#6b6b6b" stroke-width=".52916"/>
 <path d="m6.6143 2.1166c-0.33262 0-0.66548 0.12398-0.91412 0.37262l-5.063 5.0636c-0.4973 0.49728-0.49658 1.3295 7.14e-4 1.8268l5.063 5.0636c0.4973 0.49728 1.3302 0.49798 1.8275 7.12e-4l5.063-5.0636c0.4973-0.49728 0.4973-1.3302 0-1.8275l-5.063-5.0636c-0.24864-0.24864-0.5815-0.37262-0.91412-0.37262z" fill="#8e8e8e" stroke-width="1.0583"/>
 <rect transform="rotate(45)" x="7.387" y="-1.5982" width="6.1838" height="6.1838" rx=".33654" ry=".33654" fill="#fff" stroke-width="1.0583"/>
 <path d="m10.317 2.1166c-0.33262 0-0.66548 0.12398-0.91412 0.37262l-5.063 5.0636c-0.4973 0.49728-0.49658 1.3295 7.144e-4 1.8268l5.063 5.0636c0.4973 0.49728 1.3302 0.49798 1.8275 7.12e-4l5.063-5.0636c0.4973-0.49728 0.4973-1.3302 0-1.8275l-5.063-5.0636c-0.24864-0.24864-0.5815-0.37262-0.91412-0.37262z" fill="#e52e38" stroke="#ad151d" stroke-width=".52916"/>
 <path d="m10.317 2.1166c-0.33262 0-0.66548 0.12398-0.91412 0.37262l-5.063 5.0636c-0.4973 0.49728-0.49658 1.3295 7.144e-4 1.8268l5.063 5.0636c0.4973 0.49728 1.3302 0.49798 1.8275 7.12e-4l5.063-5.0636c0.4973-0.49728 0.4973-1.3302 0-1.8275l-5.063-5.0636c-0.24864-0.24864-0.5815-0.37262-0.91412-0.37262z" fill="#e52e38" stroke-width="1.0583"/>
</svg>
