<svg width="64" height="64" version="1.1" viewBox="0 0 16.933 16.933" xmlns="http://www.w3.org/2000/svg">
 <g transform="translate(-.265 -279.8)">
  <ellipse cx="8.731" cy="288.27" rx="7.144" ry="7.144" fill="none" opacity=".9" stroke="#9e930e" stroke-linecap="round" stroke-width=".529" paint-order="fill markers stroke"/>
  <path d="M7.636 281.215a7.144 7.144 0 0 0-5.948 5.91c.587-.627 5.232-5.244 5.948-5.91zm3.199.227l.02.007a7.144 7.144 0 0 0-.02-.007zm-2.717.143c-.007-.007-.056.019-.11.058-.162.12-1.626 1.419-2.1 1.863-.246.23-.577.532-.737.67-.16.139-.517.453-.794.7a53.13 53.13 0 0 1-.635.558c-.15.125-.662.579-.879.779a5.93 5.93 0 0 1-.256.222c-.062.05-.214.18-.337.292-.23.209-.451.387-.598.506a7.144 7.144 0 0 0-.085 1.036 7.144 7.144 0 0 0 .526 2.679c.091-.15.222-.351.376-.59l1.313-2.034 1.309-2.028a13489.74 13489.74 0 0 0 2.605-4.038c.326-.503.418-.657.402-.673zm3.752.277c-.042.075-.103.157-.174.305-1.968 4.114-3.209 8.545-3.413 12.19a79.38 79.38 0 0 1-.056.91l-.004.12a7.144 7.144 0 0 0 .508.026 7.144 7.144 0 0 0 7.144-7.144 7.144 7.144 0 0 0-4.005-6.407zm-9.525 9.604a7.144 7.144 0 0 0 .076.142c-.025-.048-.052-.094-.076-.142zm.321.569a7.144 7.144 0 0 0 .098.155 5.039 5.039 0 0 1-.098-.155zm.456.656a7.144 7.144 0 0 0 .074.088l-.074-.088zm.42.48a7.144 7.144 0 0 0 .135.14 6.94 6.94 0 0 1-.136-.14zm.536.514a7.144 7.144 0 0 0 .063.057l-.063-.057zm.548.426a7.144 7.144 0 0 0 .165.111 7.149 7.149 0 0 1-.165-.111zm.61.383a7.144 7.144 0 0 0 .093.055c-.031-.017-.062-.037-.093-.055zm.661.33a7.144 7.144 0 0 0 .14.056c-.047-.019-.094-.037-.14-.057zm.645.24a7.144 7.144 0 0 0 .117.04l-.117-.04zm.738.198a7.144 7.144 0 0 0 .116.021l-.116-.02zm.66.103a7.144 7.144 0 0 0 .135.014 4.073 4.073 0 0 1-.135-.014z" fill="#eddf36" paint-order="markers stroke fill"/>
  <path d="M8.732 281.118a7.178 7.178 0 0 0-1.088.088c-.704.655-5.398 5.32-5.966 5.93l-.017.106c.147-.12.374-.302.61-.515.122-.111.274-.243.336-.292.063-.05.178-.15.256-.222.217-.2.729-.654.879-.779.073-.061.36-.313.635-.559.276-.246.634-.56.794-.698.16-.139.491-.44.737-.671.474-.444 1.938-1.742 2.1-1.863.053-.039.103-.065.11-.058.016.016-.076.17-.402.672l-1.185 1.836a14386.738 14386.738 0 0 1-2.729 4.23l-1.313 2.035c-.155.24-.288.444-.378.594a7.148 7.148 0 0 0 6.111 4.443l.005-.128c.012-.167.037-.577.056-.91.204-3.645 1.445-8.077 3.413-12.19.073-.152.136-.235.178-.313a7.154 7.154 0 0 0-3.142-.736z" fill="#c63166" stroke="#ab2d58" stroke-width=".52916"/>
  <path d="M8.289 281.151a7.144 7.143 0 0 0-.458.039 7.144 7.143 0 0 1 .458-.039zm-6.6 5.982l-.002.003a7.144 7.143 0 0 0-.017.104 7.144 7.143 0 0 1 .019-.107z" fill="#d8d342"/>
  <path d="M8.732 281.118a7.178 7.178 0 0 0-1.088.088c-.704.655-5.398 5.32-5.966 5.93l-.017.106c.147-.12.374-.302.61-.515.122-.111.274-.243.336-.292.063-.05.178-.15.256-.222.217-.2.729-.654.879-.779.073-.061.36-.313.635-.559.276-.246.634-.56.794-.698.16-.139.491-.44.737-.671.474-.444 1.938-1.742 2.1-1.863.053-.039.103-.065.11-.058.016.016-.076.17-.402.672l-1.185 1.836a14386.738 14386.738 0 0 1-2.729 4.23l-1.313 2.035c-.155.24-.288.444-.378.594a7.148 7.148 0 0 0 6.111 4.443l.005-.128c.012-.167.037-.577.056-.91.204-3.645 1.445-8.077 3.413-12.19.073-.152.136-.235.178-.313a7.154 7.154 0 0 0-3.142-.736z" fill="#c63166"/>
 </g>
</svg>
