<svg width="64" height="64" version="1.1" xmlns="http://www.w3.org/2000/svg">
 <rect x="5.5" y="5.5" width="53" height="53" rx="2.891" ry="2.891" fill="#4d4d4d" overflow="visible" stroke="#525252" stroke-linecap="round" stroke-linejoin="round"/>
 <rect transform="scale(1 -1)" x="6" y="-58" width="52" height="52" rx="2.407" ry="2.407" fill="#808080" overflow="visible"/>
 <path d="M29.571 15c-.437 0-.8 1.688-1.015 4.1a13.357 13.357 0 0 0-3.227 1.357c-1.865-1.563-3.322-2.506-3.631-2.196l-3.437 3.437c-.31.31.633 1.766 2.196 3.63a13.357 13.357 0 0 0-1.345 3.228c-2.419.214-4.112.578-4.112 1.015v4.858c0 .437 1.688.8 4.1 1.015a13.357 13.357 0 0 0 1.352 3.235c-1.559 1.86-2.5 3.314-2.191 3.623l3.437 3.437c.309.31 1.76-.63 3.619-2.187a13.357 13.357 0 0 0 3.24 1.336C28.77 47.307 29.133 49 29.57 49h4.858c.437 0 .8-1.688 1.015-4.1a13.357 13.357 0 0 0 3.227-1.357c1.865 1.563 3.322 2.506 3.631 2.196l3.437-3.437c.31-.31-.633-1.766-2.196-3.63a13.357 13.357 0 0 0 1.345-3.228c2.42-.214 4.113-.578 4.113-1.015V29.57c0-.437-1.688-.8-4.1-1.015a13.357 13.357 0 0 0-1.352-3.235c1.559-1.86 2.5-3.314 2.191-3.623l-3.437-3.437c-.309-.31-1.76.63-3.619 2.187a13.357 13.357 0 0 0-3.24-1.336C35.23 16.693 34.867 15 34.43 15h-4.86zM32 25.929A6.071 6.071 0 0 1 38.071 32 6.071 6.071 0 0 1 32 38.071 6.071 6.071 0 0 1 25.929 32 6.071 6.071 0 0 1 32 25.929z" fill="#000000" opacity=".35" overflow="visible" style="font-variant-east_asian:normal;isolation:auto;mix-blend-mode:normal"/>
 <path d="M32.003 38.497c3.707.112 6.936-3.469 6.447-7.15-.27-3.697-4.146-6.547-7.752-5.692-3.643.642-6.088 4.777-4.883 8.283.793 2.66 3.412 4.6 6.188 4.56z" fill="none" overflow="visible" stroke="#3d3d3d"/>
 <path d="M29.77 15.5a3.691 3.691 0 0 0-.224.69c-.161.677-.305 1.69-.41 2.886a.6.6 0 0 1-.442.528c-1.085.296-2.13.735-3.101 1.303a.6.6 0 0 1-.69-.057c-.924-.775-1.746-1.395-2.342-1.762a3.735 3.735 0 0 0-.651-.334l-3.156 3.156c.047.134.157.364.334.651.367.596.987 1.418 1.762 2.342a.6.6 0 0 1 .06.687 12.868 12.868 0 0 0-1.295 3.104.6.6 0 0 1-.527.441c-1.2.106-2.214.25-2.893.411a3.726 3.726 0 0 0-.695.224v4.46c.128.061.365.147.69.224.677.161 1.69.305 2.886.41a.6.6 0 0 1 .528.442 12.848 12.848 0 0 0 1.298 3.108.6.6 0 0 1-.057.69c-.773.923-1.39 1.743-1.757 2.337a3.766 3.766 0 0 0-.334.65l3.156 3.155c.133-.047.361-.156.646-.332.594-.365 1.414-.982 2.335-1.754a.6.6 0 0 1 .688-.06c.975.562 2.024.996 3.112 1.285a.6.6 0 0 1 .444.527c.106 1.2.25 2.214.411 2.893.078.327.163.567.224.695h4.46c.061-.128.147-.365.224-.69.161-.677.305-1.69.41-2.886a.6.6 0 0 1 .442-.528 12.846 12.846 0 0 0 3.101-1.303.6.6 0 0 1 .69.057c.924.775 1.746 1.395 2.342 1.762.287.177.517.287.651.334l3.156-3.156a3.735 3.735 0 0 0-.334-.651c-.367-.596-.987-1.418-1.762-2.342a.6.6 0 0 1-.06-.688 12.868 12.868 0 0 0 1.295-3.103.6.6 0 0 1 .527-.441c1.2-.106 2.214-.25 2.893-.411.327-.078.567-.163.695-.224v-4.46a3.691 3.691 0 0 0-.69-.224c-.677-.161-1.69-.305-2.886-.41a.6.6 0 0 1-.528-.442 12.848 12.848 0 0 0-1.298-3.108.6.6 0 0 1 .057-.69c.773-.923 1.39-1.743 1.757-2.337.176-.286.287-.516.334-.65l-3.156-3.155a3.723 3.723 0 0 0-.646.331c-.594.366-1.414.983-2.335 1.755a.6.6 0 0 1-.688.06 12.854 12.854 0 0 0-3.112-1.285.6.6 0 0 1-.444-.527c-.106-1.2-.25-2.214-.411-2.893a3.725 3.725 0 0 0-.224-.695z" fill="none" overflow="visible" stroke="#3d3d3d" style="isolation:auto;mix-blend-mode:normal"/>
</svg>
