<svg xmlns="http://www.w3.org/2000/svg" width="64" height="64" viewBox="0 0 16.933 16.933"><g color="#000" transform="translate(0 -280.067)"><rect transform="scale(1 -1)" width="13.758" height="13.758" rx=".637" ry=".637" x="1.587" y="-295.413" style="marker:none" overflow="visible" fill="#34b05c"/><rect style="marker:none" y="281.522" x="1.455" ry=".765" rx=".765" height="14.023" width="14.023" overflow="visible" fill="none" stroke="#1d793d" stroke-width=".265" stroke-linecap="round" stroke-linejoin="round" stroke-opacity=".749"/></g><path d="M2.381 1.587v.794h-.794v.265h.794v1.058h-.794v.265h.794v1.058h-.794v.265h.794V6.35h-.794v.265h.794v1.058h-.794v.264h.794v1.059h-.794v.264h.794v1.059h-.794v.264h.794v1.059h-.794v.264h.794v1.059h-.794v.264h.794v1.058h-.794v.265h.794v.794h.265v-.794h1.058v.794h.265v-.794h1.058v.794h.265v-.794H6.35v.794h.265v-.794h1.058v.794h.264v-.794h1.059v.794h.264v-.794h1.059v.794h.264v-.794h1.059v.794h.264v-.794h1.059v.794h.264v-.794h1.058v.794h.265v-.794h.794v-.265h-.794V13.23h.794v-.264h-.794v-1.059h.794v-.264h-.794v-1.059h.794v-.264h-.794V9.26h.794v-.264h-.794V7.937h.794v-.264h-.794V6.615h.794V6.35h-.794V5.292h.794v-.265h-.794V3.97h.794v-.265h-.794V2.646h.794V2.38h-.794v-.794h-.265v.794H13.23v-.794h-.264v.794h-1.059v-.794h-.264v.794h-1.059v-.794h-.264v.794H9.26v-.794h-.264v.794H7.937v-.794h-.264v.794H6.615v-.794H6.35v.794H5.292v-.794h-.265v.794H3.97v-.794h-.265v.794H2.646v-.794H2.38zm.265 1.059h1.058v1.058H2.646V2.646zm1.323 0h1.058v1.058H3.97V2.646zm1.323 0H6.35v1.058H5.292V2.646zm1.323 0h1.058v1.058H6.615V2.646zm1.322 0h1.059v1.058H7.937V2.646zm1.323 0h1.059v1.058H9.26V2.646zm1.323 0h1.059v1.058h-1.059V2.646zm1.323 0h1.059v1.058h-1.059V2.646zm1.323 0h1.058v1.058H13.23V2.646zM2.646 3.969h1.058v1.058H2.646V3.97zm1.323 0h1.058v1.058H3.97V3.97zm1.323 0H6.35v1.058H5.292V3.97zm1.323 0h1.058v1.058H6.615V3.97zm1.322 0h1.059v1.058H7.937V3.97zm1.323 0h1.059v1.058H9.26V3.97zm1.323 0h1.059v1.058h-1.059V3.97zm1.323 0h1.059v1.058h-1.059V3.97zm1.323 0h1.058v1.058H13.23V3.97zM2.646 5.292h1.058V6.35H2.646V5.292zm1.323 0h1.058V6.35H3.97V5.292zm1.323 0H6.35V6.35H5.292V5.292zm1.323 0h1.058V6.35H6.615V5.292zm1.322 0h1.059V6.35H7.937V5.292zm1.323 0h1.059V6.35H9.26V5.292zm1.323 0h1.059V6.35h-1.059V5.292zm1.323 0h1.059V6.35h-1.059V5.292zm1.323 0h1.058V6.35H13.23V5.292zM2.646 6.615h1.058v1.058H2.646V6.615zm1.323 0h1.058v1.058H3.97V6.615zm1.323 0H6.35v1.058H5.292V6.615zm1.323 0h1.058v1.058H6.615V6.615zm1.322 0h1.059v1.058H7.937V6.615zm1.323 0h1.059v1.058H9.26V6.615zm1.323 0h1.059v1.058h-1.059V6.615zm1.323 0h1.059v1.058h-1.059V6.615zm1.323 0h1.058v1.058H13.23V6.615zM2.646 7.937h1.058v1.059H2.646V7.937zm1.323 0h1.058v1.059H3.97V7.937zm1.323 0H6.35v1.059H5.292V7.937zm1.323 0h1.058v1.059H6.615V7.937zm1.322 0h1.059v1.059H7.937V7.937zm1.323 0h1.059v1.059H9.26V7.937zm1.323 0h1.059v1.059h-1.059V7.937zm1.323 0h1.059v1.059h-1.059V7.937zm1.323 0h1.058v1.059H13.23V7.937zM2.646 9.26h1.058v1.059H2.646V9.26zm1.323 0h1.058v1.059H3.97V9.26zm1.323 0H6.35v1.059H5.292V9.26zm1.323 0h1.058v1.059H6.615V9.26zm1.322 0h1.059v1.059H7.937V9.26zm1.323 0h1.059v1.059H9.26V9.26zm1.323 0h1.059v1.059h-1.059V9.26zm1.323 0h1.059v1.059h-1.059V9.26zm1.323 0h1.058v1.059H13.23V9.26zM2.646 10.583h1.058v1.059H2.646v-1.059zm1.323 0h1.058v1.059H3.97v-1.059zm1.323 0H6.35v1.059H5.292v-1.059zm1.323 0h1.058v1.059H6.615v-1.059zm1.322 0h1.059v1.059H7.937v-1.059zm1.323 0h1.059v1.059H9.26v-1.059zm1.323 0h1.059v1.059h-1.059v-1.059zm1.323 0h1.059v1.059h-1.059v-1.059zm1.323 0h1.058v1.059H13.23v-1.059zM2.646 11.906h1.058v1.059H2.646v-1.059zm1.323 0h1.058v1.059H3.97v-1.059zm1.323 0H6.35v1.059H5.292v-1.059zm1.323 0h1.058v1.059H6.615v-1.059zm1.322 0h1.059v1.059H7.937v-1.059zm1.323 0h1.059v1.059H9.26v-1.059zm1.323 0h1.059v1.059h-1.059v-1.059zm1.323 0h1.059v1.059h-1.059v-1.059zm1.323 0h1.058v1.059H13.23v-1.059zM2.646 13.23h1.058v1.058H2.646V13.23zm1.323 0h1.058v1.058H3.97V13.23zm1.323 0H6.35v1.058H5.292V13.23zm1.323 0h1.058v1.058H6.615V13.23zm1.322 0h1.059v1.058H7.937V13.23zm1.323 0h1.059v1.058H9.26V13.23zm1.323 0h1.059v1.058h-1.059V13.23zm1.323 0h1.059v1.058h-1.059V13.23zm1.323 0h1.058v1.058H13.23V13.23z" opacity=".1" fill="#fff" fill-rule="evenodd" paint-order="fill markers stroke"/><path d="M8.467 5.292L4.233 6.985 8.467 8.68l3.175-1.27v.743a.661.661 0 0 0-.397.606.661.661 0 0 0 .417.614l-.351 1.211h1.27L12.22 9.34a.661.661 0 0 0 .348-.581.661.661 0 0 0-.397-.606v-.955l.529-.212-4.233-1.693zM6.35 8.467v2.222a2.117.953 0 0 0 2.117.953 2.117.953 0 0 0 2.116-.953V8.467l-2.116.895-2.117-.895z" fill="#fff"/></svg>