<svg xmlns="http://www.w3.org/2000/svg" width="64" height="64" viewBox="0 0 16.933 16.933"><g color="#000" transform="translate(0 -280.067)"><rect transform="scale(1 -1)" width="13.758" height="13.758" rx=".637" ry=".637" x="1.587" y="-295.413" style="marker:none" overflow="visible" fill="#7091e3"/><rect style="marker:none" y="281.522" x="1.455" ry=".765" rx=".765" height="14.023" width="14.023" overflow="visible" fill="none" stroke="#1f4fb6" stroke-width=".265" stroke-linecap="round" stroke-linejoin="round" stroke-opacity=".749"/></g><path d="M8.467 5.82A2.646 2.646 0 0 0 5.82 8.468a2.646 2.646 0 0 0 2.646 2.645 2.646 2.646 0 0 0 2.645-2.645A2.646 2.646 0 0 0 8.467 5.82zm0 1.324A1.323 1.323 0 0 1 9.79 8.467 1.323 1.323 0 0 1 8.467 9.79a1.323 1.323 0 0 1-1.323-1.323 1.323 1.323 0 0 1 1.323-1.323z" opacity=".15" paint-order="stroke markers fill"/><path d="M7.958 3.704V4.81a1.525 1.525 0 0 0-1.017 1.437 1.525 1.525 0 0 0 .776 1.327l-.734 2.74h-.55v.51h.414l-.411 1.532.29.874.646-2.407H9.56l.644 2.407.291-.874-.41-1.533h.415v-.508h-.552l-.734-2.74a1.525 1.525 0 0 0 .778-1.328A1.525 1.525 0 0 0 8.975 4.81V3.704zm.509 2.034a.508.508 0 0 1 .508.508.508.508 0 0 1-.508.509.508.508 0 0 1-.509-.509.508.508 0 0 1 .509-.508zm-.27 2.008a1.525 1.525 0 0 0 .27.026 1.525 1.525 0 0 0 .269-.024l.687 2.566H7.508z" fill="#fff"/></svg>