<svg xmlns="http://www.w3.org/2000/svg" width="64" height="64" viewBox="0 0 16.933 16.933"><g transform="translate(0 -280.067)"><g color="#000"><rect transform="scale(1 -1)" width="13.758" height="13.758" rx=".637" ry=".637" x="1.587" y="-295.413" style="marker:none" overflow="visible" fill="#4e9feb"/><rect style="marker:none" y="281.522" x="1.455" ry=".765" rx=".765" height="14.023" width="14.023" overflow="visible" opacity=".9" fill="none" stroke="#2778d4" stroke-width=".265" stroke-linecap="round" stroke-linejoin="round"/></g><g opacity=".15" stroke-width=".738" paint-order="stroke markers fill"><path d="M8.467 284.59a3.943 3.943 0 0 0-3.943 3.943 3.943 3.943 0 0 0 3.943 3.943 3.943 3.943 0 0 0 3.943-3.943 3.943 3.943 0 0 0-3.943-3.943zm0 1.793a2.15 2.15 0 0 1 2.15 2.15 2.15 2.15 0 0 1-2.15 2.151 2.15 2.15 0 0 1-2.151-2.15 2.15 2.15 0 0 1 2.15-2.151z"/><path d="M7.75 282.977h1.434v2.509H7.75zm0 8.603h1.434v2.51H7.75zm6.273-3.764v1.434h-2.509v-1.434zm-8.603 0v1.434H2.91v-1.434zm7.483 4.14l-1.014 1.013-1.774-1.774 1.013-1.014zm-6.083-6.084l-1.014 1.014-1.775-1.774 1.014-1.014zm-1.775 7.098l-1.014-1.014 1.775-1.775 1.013 1.014zm6.083-6.084l-1.013-1.014 1.774-1.774 1.014 1.014z"/></g><rect width="3.175" height="5.027" x="6.879" y="288.533" rx="1.587" ry="1.253" opacity=".65" fill="#fff" stroke="#000" stroke-width=".265" stroke-opacity=".255" paint-order="stroke markers fill"/><path d="M6.88 284.425a3.44 3.44 0 1 0 3.174.002v2.519l-1.587 1.587-1.588-1.587z" fill="#fff" stroke="#000" stroke-width=".265" stroke-opacity=".255" paint-order="stroke markers fill"/><path d="M6.88 284.425a3.44 3.44 0 1 0 3.174.002v2.519l-1.587 1.587-1.588-1.587z" fill="#fff" paint-order="stroke markers fill"/></g></svg>