<svg width="64" height="64" version="1.1" viewBox="0 0 16.933 16.933" xmlns="http://www.w3.org/2000/svg">
 <g transform="translate(0 -280.07)">
  <rect transform="scale(1 -1)" x="1.587" y="-295.41" width="13.758" height="13.758" rx=".637" ry=".637" fill="#e6e6e6" overflow="visible"/>
  <rect x="1.455" y="281.52" width="14.023" height="14.023" rx=".765" ry=".765" fill="none" opacity=".5" overflow="visible" stroke="#555761" stroke-linecap="round" stroke-linejoin="round" stroke-width=".265"/>
  <path d="M7.824 284.035c-.116 0-.212.447-.268 1.085a3.534 3.534 0 0 0-.854.36c-.494-.414-.88-.664-.961-.582l-.91.91c-.081.081.168.467.582.96a3.534 3.534 0 0 0-.356.854c-.64.057-1.088.153-1.088.269v1.285c0 .116.446.212 1.085.268a3.534 3.534 0 0 0 .357.856c-.412.493-.661.877-.58.96l.91.908c.082.082.466-.166.957-.578a3.534 3.534 0 0 0 .858.353c.056.64.152 1.088.268 1.088H9.11c.116 0 .212-.446.269-1.085a3.534 3.534 0 0 0 .854-.359c.493.414.879.663.96.581l.91-.909c.082-.082-.168-.467-.581-.96a3.534 3.534 0 0 0 .355-.855c.64-.056 1.089-.152 1.089-.268v-1.285c0-.116-.447-.212-1.085-.269a3.534 3.534 0 0 0-.358-.856c.412-.492.662-.877.58-.959l-.91-.909c-.081-.082-.465.167-.957.579a3.534 3.534 0 0 0-.857-.354c-.057-.64-.153-1.088-.269-1.088zm.643 2.892a1.606 1.606 0 0 1 1.606 1.606 1.606 1.606 0 0 1-1.606 1.607 1.606 1.606 0 0 1-1.607-1.607 1.606 1.606 0 0 1 1.607-1.606z" fill="#bcbcbc" overflow="visible" style="isolation:auto;mix-blend-mode:normal"/>
  <path d="M8.468 290.252c.98.03 1.835-.917 1.705-1.891-.071-.979-1.097-1.733-2.05-1.506-.965.17-1.612 1.264-1.293 2.191.21.704.903 1.217 1.638 1.206z" fill="none" opacity=".1" overflow="visible" stroke="#000" stroke-width=".265"/>
  <path d="M7.877 284.168a.976.976 0 0 0-.06.182c-.042.18-.08.447-.108.764a.159.159 0 0 1-.117.14 3.4 3.4 0 0 0-.82.344.159.159 0 0 1-.183-.015 5.836 5.836 0 0 0-.62-.466.985.985 0 0 0-.172-.088l-.835.835a.99.99 0 0 0 .088.172c.098.158.261.375.466.62.044.05.05.124.016.181a3.419 3.419 0 0 0-.342.822.159.159 0 0 1-.14.116 5.783 5.783 0 0 0-.765.109.988.988 0 0 0-.184.06v1.18a.973.973 0 0 0 .183.059c.179.042.447.08.763.108a.159.159 0 0 1 .14.117 3.4 3.4 0 0 0 .343.822.159.159 0 0 1-.015.183 5.829 5.829 0 0 0-.465.618.995.995 0 0 0-.088.172l.835.835a.98.98 0 0 0 .171-.088 5.82 5.82 0 0 0 .618-.464.159.159 0 0 1 .182-.016 3.4 3.4 0 0 0 .823.34.159.159 0 0 1 .118.14c.028.317.066.585.108.765.02.087.043.15.06.184h1.18a.976.976 0 0 0 .059-.183c.043-.179.08-.447.109-.763a.159.159 0 0 1 .116-.14 3.4 3.4 0 0 0 .82-.345.159.159 0 0 1 .183.016c.245.205.462.368.62.466a.985.985 0 0 0 .172.088l.835-.835a.99.99 0 0 0-.088-.172 5.835 5.835 0 0 0-.466-.62.159.159 0 0 1-.016-.182c.15-.257.265-.534.342-.82a.159.159 0 0 1 .14-.118 5.78 5.78 0 0 0 .766-.108.98.98 0 0 0 .183-.06v-1.18a.98.98 0 0 0-.182-.059 5.765 5.765 0 0 0-.764-.109.159.159 0 0 1-.14-.116 3.4 3.4 0 0 0-.343-.823.159.159 0 0 1 .015-.182c.205-.245.368-.461.465-.619a.995.995 0 0 0 .088-.171l-.835-.835a.98.98 0 0 0-.17.087c-.158.097-.375.26-.618.465a.159.159 0 0 1-.182.015 3.4 3.4 0 0 0-.824-.34.159.159 0 0 1-.117-.139 5.793 5.793 0 0 0-.109-.766.984.984 0 0 0-.06-.183z" fill="none" opacity=".1" overflow="visible" stroke="#000" stroke-width=".265" style="isolation:auto;mix-blend-mode:normal"/>
 </g>
</svg>
