<svg xmlns="http://www.w3.org/2000/svg" width="64" height="64" viewBox="0 0 16.933 16.933"><g stroke-width=".92"><g stroke="#000" stroke-opacity=".333"><path d="M21 19.633L25 19l-2-3-7 3.91M17 28h4l6 1-5 1-5-1m0-1" fill="#265791" transform="matrix(.57727 0 0 .57326 -5.388 -5.292)"/><path d="M16 19.641h5V28h-5m0-8.359" fill="#82b6ea" transform="matrix(.57727 0 0 .57326 -5.388 -5.292)"/><path d="M28 12l-15 4v16l15 4m-5-17.18v10.16l-6-.984-.031-8.379m6.03-.797" fill="#5182bb" transform="matrix(.57727 0 0 .57326 -5.388 -5.292)"/><path d="M28 12l7 3v18l-7 3m0-24" fill="#82b6ea" transform="matrix(.57727 0 0 .57326 -5.388 -5.292)"/></g><g stroke-opacity=".255"><path d="M6.735 5.963L9.044 5.6 7.889 3.88 3.85 6.123M4.426 10.76h2.309l3.463.573-2.886.573-2.886-.573m0-.573" fill="#265791"/><path d="M3.848 5.968h2.887v4.792H3.848m0-4.792" fill="#82b6ea"/><path d="M10.776 1.587l-8.66 2.294v9.172l8.66 2.293M7.889 5.497v5.825l-3.463-.565-.018-4.803m3.48-.457" fill="#5182bb"/><path d="M10.776 1.587l4.04 1.72v10.319l-4.04 1.72m0-13.759" fill="#82b6ea"/></g><g stroke-opacity=".255"><path d="M6.735 5.963L9.044 5.6 7.889 3.88 3.85 6.123M4.426 10.76h2.309l3.463.573-2.886.573-2.886-.573m0-.573" fill="#265791"/><path d="M3.848 5.968h2.887v4.792H3.848m0-4.792" fill="#82b6ea"/><path d="M10.776 1.587l-8.66 2.294v9.172l8.66 2.293M7.889 5.497v5.825l-3.463-.565-.018-4.803m3.48-.457" fill="#5182bb"/><path d="M10.776 1.587l4.04 1.72v10.319l-4.04 1.72m0-13.759" fill="#82b6ea"/></g><g stroke-opacity=".255"><path d="M6.735 5.963L9.044 5.6 7.889 3.88 3.85 6.123M4.426 10.76h2.309l3.463.573-2.886.573-2.886-.573m0-.573" fill="#265791"/><path d="M3.848 5.968h2.887v4.792H3.848m0-4.792" fill="#82b6ea"/><path d="M10.776 1.587l-8.66 2.294v9.172l8.66 2.293M7.889 5.497v5.825l-3.463-.565-.018-4.803m3.48-.457" fill="#5182bb"/><path d="M10.776 1.587l4.04 1.72v10.319l-4.04 1.72m0-13.759" fill="#82b6ea"/></g><g stroke-opacity=".255"><path d="M6.735 5.963L9.044 5.6 7.889 3.88 3.85 6.123M4.426 10.76h2.309l3.463.573-2.886.573-2.886-.573m0-.573" fill="#265791"/><path d="M3.848 5.968h2.887v4.792H3.848m0-4.792" fill="#82b6ea"/><path d="M10.776 1.587l-8.66 2.294v9.172l8.66 2.293M7.889 5.497v5.825l-3.463-.565-.018-4.803m3.48-.457" fill="#5182bb"/><path d="M10.776 1.587l4.04 1.72v10.319l-4.04 1.72m0-13.759" fill="#82b6ea"/></g><g stroke-opacity=".255"><path d="M6.735 5.963L9.044 5.6 7.889 3.88 3.85 6.123M4.426 10.76h2.309l3.463.573-2.886.573-2.886-.573m0-.573" fill="#265791"/><path d="M3.848 5.968h2.887v4.792H3.848m0-4.792" fill="#82b6ea"/><path d="M10.776 1.587l-8.66 2.294v9.172l8.66 2.293M7.889 5.497v5.825l-3.463-.565-.018-4.803m3.48-.457" fill="#5182bb"/><path d="M10.776 1.587l4.04 1.72v10.319l-4.04 1.72m0-13.759" fill="#82b6ea"/></g><g stroke-opacity=".255"><path d="M6.735 5.963L9.044 5.6 7.889 3.88 3.85 6.123M4.426 10.76h2.309l3.463.573-2.886.573-2.886-.573m0-.573" fill="#265791"/><path d="M3.848 5.968h2.887v4.792H3.848m0-4.792" fill="#82b6ea"/><path d="M10.776 1.587l-8.66 2.294v9.172l8.66 2.293M7.889 5.497v5.825l-3.463-.565-.018-4.803m3.48-.457" fill="#5182bb"/><path d="M10.776 1.587l4.04 1.72v10.319l-4.04 1.72m0-13.759" fill="#82b6ea"/></g><g stroke-opacity=".255"><path d="M6.735 5.963L9.044 5.6 7.889 3.88 3.85 6.123M4.426 10.76h2.309l3.463.573-2.886.573-2.886-.573m0-.573" fill="#265791"/><path d="M3.848 5.968h2.887v4.792H3.848m0-4.792" fill="#82b6ea"/><path d="M10.776 1.587l-8.66 2.294v9.172l8.66 2.293M7.889 5.497v5.825l-3.463-.565-.018-4.803m3.48-.457" fill="#5182bb"/><path d="M10.776 1.587l4.04 1.72v10.319l-4.04 1.72m0-13.759" fill="#82b6ea"/></g></g></svg>