<?xml version="1.0" encoding="UTF-8" standalone="no"?>
<svg xmlns:dc="http://purl.org/dc/elements/1.1/" xmlns:cc="http://creativecommons.org/ns#" xmlns:rdf="http://www.w3.org/1999/02/22-rdf-syntax-ns#" xmlns:svg="http://www.w3.org/2000/svg" xmlns="http://www.w3.org/2000/svg" xmlns:xlink="http://www.w3.org/1999/xlink" xmlns:sodipodi="http://sodipodi.sourceforge.net/DTD/sodipodi-0.dtd" xmlns:inkscape="http://www.inkscape.org/namespaces/inkscape" width="64" height="64" version="1.1" viewBox="0 0 64 64" id="svg25" sodipodi:docname="preferences-desktop-emoticons.svg" inkscape:version="0.92.5 (0.92.5+68)">
  <metadata id="metadata29">
    <rdf:RDF>
      <cc:Work rdf:about="">
        <dc:format>image/svg+xml</dc:format>
        <dc:type rdf:resource="http://purl.org/dc/dcmitype/StillImage"/>
      </cc:Work>
    </rdf:RDF>
  </metadata>
  <sodipodi:namedview pagecolor="#ffffff" bordercolor="#666666" borderopacity="1" objecttolerance="10" gridtolerance="10" guidetolerance="10" inkscape:pageopacity="0" inkscape:pageshadow="2" inkscape:window-width="3840" inkscape:window-height="2044" id="namedview27" showgrid="false" inkscape:zoom="3.6875" inkscape:cx="-36.745763" inkscape:cy="32" inkscape:window-x="0" inkscape:window-y="56" inkscape:window-maximized="1" inkscape:current-layer="svg25"/>
  <defs id="defs9">
    <linearGradient id="b">
      <stop stop-color="#814b13" offset="0" id="stop2"/>
      <stop stop-color="#9d5b17" offset="1" id="stop4"/>
    </linearGradient>
    <linearGradient id="c" x2="0" y1="538.8" y2="534.8" gradientUnits="userSpaceOnUse" xlink:href="#b" gradientTransform="matrix(2,0,0,2,-769.14,-1031.6)"/>
    <linearGradient id="a" x2="0" y1="528.8" y2="524.8" gradientUnits="userSpaceOnUse" xlink:href="#b" gradientTransform="matrix(2,0,0,2,-769.14,-1031.6)"/>
  </defs>
  <rect x="5.0000148" y="4.9999757" width="54" height="54" rx="27" ry="27" id="rect11" style="fill:#fdcf71;stroke:#deae4a;stroke-width:2"/>
  <rect x="5.0000148" y="4.9999757" width="54" height="54" rx="27" ry="27" id="rect13" style="fill:#fdcf71;stroke-width:1"/>
  <path inkscape:connector-curvature="0" style="fill:none;stroke:#814b13;stroke-width:3.41000009;stroke-linecap:round;stroke-linejoin:round;stroke-opacity:1" class="icon" d="m 15.299112,33.698723 c 2.61,-7.4 7.61,-16 17.7,-16 10.09,0 15.08,13.27 15.71,22.27 -2.65,4.6 -9,6.33 -15.71,6.33 a 18.87,18.87 0 0 1 -14.41,-6.33 c 0,0 3.16,-8.53 6.11,-8.55 2.17,0 4,4 5.73,4 1.73,0 5.33,-7.68 5.33,-7.68" id="path20"/>
</svg>