<svg xmlns="http://www.w3.org/2000/svg" width="64" height="64" viewBox="0 0 16.933 16.933"><defs><filter id="a" color-interpolation-filters="sRGB"><feColorMatrix values="1 0 0 0 0 0 1 0 0 0 0 0 1 0 0 0 0 0 1 0" result="result7"/><feGaussianBlur result="result6" stdDeviation="5"/><feComposite in2="result7" operator="atop" in="result6" result="result91"/><feComposite operator="in" in2="result91"/></filter></defs><g transform="translate(0 -280.067)"><circle r="7.144" cy="288.533" cx="8.467" opacity=".75" fill="#0b93d3" stroke="#075981" stroke-width=".529" paint-order="stroke markers fill"/><circle cx="8.467" cy="288.533" r="7.144" fill="#0b93d3" paint-order="stroke markers fill"/><circle r="1.389" cy="287.585" cx="11.906" opacity=".25" fill="#fff" paint-order="stroke markers fill"/><circle cx="11.906" cy="287.585" r="1.389" opacity=".25" fill="#fff" paint-order="stroke markers fill"/><path d="M8.82 284.653a3.087 3.087 0 0 0-2.854 1.914 2.47 2.47 0 0 0-.542-.062 2.47 2.47 0 0 0-2.47 2.47 2.47 2.47 0 0 0 2.47 2.469h6.79a1.852 1.852 0 0 0 1.853-1.852 1.852 1.852 0 0 0-1.852-1.852 1.852 1.852 0 0 0-.31.026 3.087 3.087 0 0 0 .001-.026 3.087 3.087 0 0 0-3.086-3.087z" fill="#fff" paint-order="stroke markers fill"/><path d="M8.475 286.474a1.426 1.426 0 1 0 0 2.852 1.426 1.426 0 0 0 0-2.852zm.006.626a.805.805 0 0 1 .805.805.805.805 0 0 1-.805.805.805.805 0 0 1-.805-.805.805.805 0 0 1 .805-.805z" fill="#1793e6"/><path d="M10.088 288.004c-.374 0-.708.148-.962.382l.408.472a.851.851 0 0 1 .108-.09.716.716 0 0 1 .356-.127c.044-.004.09-.002.14 0a.751.751 0 0 1 .663.433.829.829 0 0 1 .085.402v.002a.313.313 0 0 0 .625 0V289.427a.893.893 0 0 0-.004-.073l-.001-.01-.001-.025h-.001a1.421 1.421 0 0 0-1.417-1.315M6.833 288a1.426 1.426 0 1 0 0 2.852 1.426 1.426 0 0 0 0-2.852zm.006.626a.805.805 0 0 1 .804.805.805.805 0 0 1-.804.805.805.805 0 0 1-.805-.805.805.805 0 0 1 .805-.805z" fill="#1793e6"/><path transform="translate(5.407 286.474) scale(.20374)" d="M6.973 7.471c-.365 0-.744.04-1.094.094a2.842 2.842 0 0 1 1.719 2.594c0 .16-.036.316-.063.469a3.839 3.839 0 0 1 2.938 2.063c.791 1.577.522 3.357-.719 4.594.962-.959 2.934-2.702 4.156-3.844-.512-3.375-3.409-5.969-6.938-5.969z" fill="#f44" filter="url(#a)"/><path d="M7.452 290.53l-.652.026 2.295-2.13.41.46-1.78 1.653z" fill="#1793e6"/><circle cx="11.213" cy="290.306" r=".306" fill="#1793e6"/></g></svg>