<svg width="64" height="64" version="1.1" viewBox="0 0 16.933 16.933" xmlns="http://www.w3.org/2000/svg">
 <path d="m15.61 8.4666c0-3.9575-3.1861-7.1437-7.1437-7.1437-0.70823 0-1.0477 0.8214-1.6927 1.0116-2.4154 0.7124-4.6342 1.9423-5.2417 4.4017-0.13676 0.55368-0.20928 1.1332-0.20928 1.7303 0 3.9575 3.1861 7.1437 7.1437 7.1437 0.36357 0 0.78318-0.65243 1.1319-0.70433 2.6238-0.39059 4.7104-1.5723 5.587-3.9983 0.27498-0.76097 0.42478-1.5828 0.42478-2.441z" fill="#464646" stroke="#202020" stroke-width=".52916"/>
 <path d="m15.61 8.4666c0-3.9575-3.1861-7.1437-7.1437-7.1437-0.70823 0-1.0477 0.8214-1.6927 1.0116-2.4154 0.7124-4.6342 1.9423-5.2417 4.4017-0.13676 0.55368-0.20928 1.1332-0.20928 1.7303 0 3.9575 3.1861 7.1437 7.1437 7.1437 0.36357 0 0.78318-0.65243 1.1319-0.70433 2.6238-0.39059 4.7104-1.5723 5.587-3.9983 0.27498-0.76097 0.42478-1.5828 0.42478-2.441z" fill="#464646" stroke-width=".26458"/>
 <circle cx="8.4665" cy="8.4665" r="4.0821" fill="#ccc" opacity=".5" stroke="#1f1f1f" stroke-width=".26458"/>
 <circle cx="8.4665" cy="8.4665" r="4.0821" fill="#ccc" stroke-width=".26458"/>
 <path d="m8.4665 1.3229c-2.2074 0-4.1785 1.0035-5.489 2.5765l-0.91982-0.91982a0.43058 0.43058 0 0 0-0.31057-0.12609 0.43058 0.43058 0 0 0-0.42426 0.43046v3.7315a0.43058 0.43058 0 0 0 0.43046 0.43046h3.7315a0.43058 0.43058 0 0 0 0.30437-0.73482l-0.63147-0.63147c0.74146-1.026 1.9462-1.695 3.3088-1.695z" fill="#fb4848" stroke="#ea1e1e" stroke-width=".52916"/>
 <path d="m8.4665 1.3229c-2.2074 0-4.1785 1.0035-5.489 2.5765l-0.91982-0.91982a0.43058 0.43058 0 0 0-0.31057-0.12609 0.43058 0.43058 0 0 0-0.42426 0.43046v3.7315a0.43058 0.43058 0 0 0 0.43046 0.43046h3.7315a0.43058 0.43058 0 0 0 0.30437-0.73482l-0.63147-0.63147c0.74146-1.026 1.9462-1.695 3.3088-1.695z" fill="#fb4848" stroke-width=".26458"/>
 <path transform="scale(.26458)" d="m43.27 35.855a1.6274 1.6274 0 0 0-1.1504 2.7773l2.3906 2.3906c-2.8025 3.8778-7.3596 6.4043-12.51 6.4043v11.572c8.3438 0 15.789-3.7978 20.742-9.7441l3.4805 3.4805a1.6274 1.6274 0 0 0 1.1738 0.47656 1.6274 1.6274 0 0 0 1.6035-1.627v-14.104a1.6274 1.6274 0 0 0-1.627-1.627h-14.104z" fill="#486afb" stroke="#1f46e5" stroke-width="2"/>
 <path transform="scale(.26458)" d="m43.27 35.855a1.6274 1.6274 0 0 0-1.1504 2.7773l2.3906 2.3906c-2.8025 3.8778-7.3596 6.4043-12.51 6.4043v11.572c8.3438 0 15.789-3.7978 20.742-9.7441l3.4805 3.4805a1.6274 1.6274 0 0 0 1.1738 0.47656 1.6274 1.6274 0 0 0 1.6035-1.627v-14.104a1.6274 1.6274 0 0 0-1.627-1.627h-14.104z" fill="#486afb"/>
 <circle cx="8.4665" cy="8.4665" r="1.5308" fill="#f2f2f2" stroke-width=".26458"/>
</svg>
