<svg width="64" height="64" version="1.1" viewBox="0 0 64 64" xmlns="http://www.w3.org/2000/svg">
 <circle cx="32" cy="32" r="27" fill="#28416e" stroke="#1c2c4a" stroke-width="2" style="paint-order:stroke fill markers"/>
 <circle cx="32" cy="32" r="27" fill="#28416e"/>
 <path d="m28.478 17.913-5.8695 5.8695 2.3478 21.13v1.1739h2.3478v-3.5217h2.3478v3.5217h2.3478v-3.5217l3.5217-1.1739 3.5217 1.1739v3.5217h2.3478v-3.5217h2.3478v3.5217h2.3478v-7.0434l-2.3478-3.5217 2.3478-3.5217v-7.0434l-4.6956-3.5217c0-1.951-3.9185-3.5217-5.8695-3.5217z" fill="#a5c8f3" stroke-linejoin="round" stroke-width="11.739"/>
 <path d="m21.435 17.913v7.0434h10.565v-3.5217c0-1.951-1.5707-3.5217-3.5217-3.5217zm10.565 7.0434v7.0434h7.0434v-7.0434zm7.0434 0h7.0434v-3.5217c0-1.951-1.5707-3.5217-3.5217-3.5217h-7.0434c1.951 0 3.5217 1.5707 3.5217 3.5217zm0 7.0434v7.0434h7.0434v-7.0434zm0 7.0434h-7.0434v3.5217h2.3478v3.5217h2.3478v-3.5217h2.3478zm-7.0434 0v-7.0434h-10.565v7.0434z" fill="#428ce6" stroke-linejoin="round" stroke-width="11.739"/>
 <path d="m21.435 17.913c-1.951 0-3.5217 1.5707-3.5217 3.5217v22.304h2.3478v-3.5217h2.3478v3.5217h2.3478v-22.304c0-1.951-1.5707-3.5217-3.5217-3.5217z" fill="#1d5aa5" stroke-linejoin="round" stroke-width="11.739"/>
</svg>
