<?xml version="1.0" encoding="UTF-8"?>
<svg width="64" height="64" version="1" xmlns="http://www.w3.org/2000/svg" xmlns:cc="http://creativecommons.org/ns#" xmlns:dc="http://purl.org/dc/elements/1.1/" xmlns:rdf="http://www.w3.org/1999/02/22-rdf-syntax-ns#">
 <metadata>
  <rdf:RDF>
   <cc:Work rdf:about="">
    <dc:format>image/svg+xml</dc:format>
    <dc:type rdf:resource="http://purl.org/dc/dcmitype/StillImage"/>
    <dc:title/>
   </cc:Work>
  </rdf:RDF>
 </metadata>
 <path d="m25.608 11.428c-11.418 0.31231-19.323 9.5646-19.323 21.543 0 11.979 9.0133 22.015 19.481 22.171 9.4732 0.12948 19.666-9.8629 23.053-17.618 1.5754 3.7649 4.6676 8.6186 10.18 8.6182 0 0-2.5714-6.7958-2.5714-13.041 0-6.245 2.5714-12.674 2.5714-12.674-5.6129 0-8.7253 4.9641-10.273 8.7011-3.4251-6.7421-13.304-17.576-23.117-17.702z" fill="#4b81c4" stroke="#2d5b93" stroke-width="2"/>
 <path d="m25.608 11.428c-11.418 0.31231-19.323 9.5646-19.323 21.543 0 11.979 9.0133 22.015 19.481 22.171 9.4732 0.12948 19.666-9.8629 23.053-17.618 1.5754 3.7649 4.6676 8.6186 10.18 8.6182 0 0-2.5714-6.7958-2.5714-13.041 0-6.245 2.5714-12.674 2.5714-12.674-5.6129 0-8.7253 4.9641-10.273 8.7011-3.4251-6.7421-13.304-17.576-23.117-17.702z" fill="#4b81c4" stroke-width=".99999"/>
 <path d="m26.857 22.998a7.7142 10.282 0 1 1-15.428 0 7.7142 10.282 0 1 1 15.428 0z" fill="#fff" opacity=".9" stroke-width=".99999"/>
 <path d="m26.857 22.998a7.7142 10.282 0 1 1-15.428 0 7.7142 10.282 0 1 1 15.428 0z" fill="#fff" opacity=".9" stroke="#000" stroke-opacity=".24324"/>
 <path d="m26.857 22.999c-1.2782-1.1417-5.4717-7.9773-15.428-3.632 0-4.3371 1.7277-10.511 7.3856-10.511 7.2416 0.22452 8.0428 9.8056 8.0428 14.143z" fill="#75bfd4" stroke="#378faf" stroke-width="2"/>
 <g stroke-width=".99999">
  <path d="m26.857 22.999c-1.2782-1.1417-5.4717-7.9773-15.428-3.632 0-4.3371 1.7277-10.511 7.3856-10.511 7.2416 0.22452 8.0428 9.8056 8.0428 14.143z" fill="#75bfd4"/>
  <path d="m21.714 24.286a2.5714 2.5714 0 0 1-5.1428 0 2.5714 2.5714 0 1 1 5.1428 0z" fill="#272b2d"/>
  <path d="m19.786 23.128a1.2857 1.2857 0 0 1-2.5714 0 1.2857 1.2857 0 1 1 2.5714 0z" fill="#fff" opacity=".35"/>
 </g>
 <path d="m19.143 41.642c0 2.4853-7.1575 4.5-9.6428 4.5-2.4853 0-4.5-2.0147-4.5-4.5s2.0147-4.5 4.5-4.5c2.4853 0 9.6428 2.0147 9.6428 4.5z" fill="#75bfd4" stroke="#3591ab" stroke-width="2"/>
 <path d="m19.143 41.642c0 2.4853-7.1575 4.5-9.6428 4.5-2.4853 0-4.5-2.0147-4.5-4.5s2.0147-4.5 4.5-4.5c2.4853 0 9.6428 2.0147 9.6428 4.5z" fill="#75bfd4" stroke-width=".99999"/>
</svg>
