<svg xmlns="http://www.w3.org/2000/svg" width="64" height="64" viewBox="0 0 16.933 16.933"><g transform="translate(0 -280.067)"><path d="M3.44 281.654c-.44 0-.794.329-.794.737v12.284c0 .409.354.738.794.738h10.054c.44 0 .793-.33.793-.738v-12.284c0-.408-.354-.737-.793-.737z" fill="#c83737" stroke="#8a2222" stroke-width=".529" paint-order="markers stroke fill" opacity=".75"/><path d="M3.44 281.654c-.44 0-.794.329-.794.737v12.284c0 .409.354.738.794.738h10.054c.44 0 .793-.33.793-.738v-12.284c0-.408-.354-.737-.793-.737z" fill="#f55" paint-order="markers stroke fill"/><path d="M10.054 281.654v6.35l1.059-1.058 1.058 1.058v-6.35z" fill="#fff"/><path d="M3.44 281.654c-.44 0-.794.329-.794.737v12.285c0 .408.354.737.794.737h1.852v-13.759z" opacity=".18"/><rect width=".265" height="13.758" x="5.292" y="281.654" rx="0" ry="0" opacity=".25" paint-order="markers stroke fill"/></g></svg>