<svg xmlns="http://www.w3.org/2000/svg" width="64" height="64" viewBox="0 0 16.933 16.933"><g transform="translate(0 -280.067)"><circle r="7.144" cy="288.533" cx="8.467" opacity=".25" fill="none" stroke="#000" stroke-width=".529" paint-order="stroke markers fill"/><circle cx="8.467" cy="288.533" r="7.144" fill="#cecece" paint-order="stroke markers fill"/><circle cx="8.467" cy="288.533" r="4.762" opacity=".5" fill="#fff" paint-order="stroke markers fill"/><circle r="3.969" cy="288.533" cx="8.467" fill="#4d4d4d" paint-order="stroke markers fill"/><circle cx="8.467" cy="288.533" r="1.588" fill="#fff" paint-order="stroke markers fill"/><circle r="3.175" cy="292.767" cx="12.7" fill="#ff5722" stroke-width=".529" stroke="#c83700" opacity=".75"/><circle cx="12.7" cy="292.767" r="3.175" fill="#ff5722"/><path d="M13.068 291.18c-.974.396-1.559 1.326-1.559 1.984 0 .65.512 1.177 1.147 1.189a.59.59 0 0 1-.573-.594c0-.329.292-.794.779-.992 0 .694.523.795.39 1.19-.076.225-.26.395-.58.397h.006c.646 0 1.017-.343 1.169-.794.267-.791-.78-.992-.78-2.381z" fill="#fff"/></g></svg>