<?xml version="1.0" encoding="UTF-8"?>
<svg width="64" height="64" version="1.1" xmlns="http://www.w3.org/2000/svg">
 <path d="m23.667 5c-1.0417 0-4.6875 4.1538-5.2083 4.1538h-2.6042c-1.0417 0-4.6875 3.6346-4.6875 4.6731v3.1154c0 0.51923-4.1437 4.1538-4.1667 5.1923-0.022917 1.0385 7.2917 25.442 8.3333 26.481 1.0417 1.0385 12.5 10.385 15.625 10.385h2.0833c3.125 0 14.583-9.3462 15.625-10.385 1.0417-1.0385 8.3542-25.442 8.3333-26.481-0.02292-1.0322-4.1667-4.6731-4.1667-5.1923v-3.1154c0-1.0385-3.6458-4.6731-4.6875-4.6731h-2.6042c-0.52083 0-4.1667-4.1538-5.2083-4.1538z" fill="#9d2ea4" stroke="#6f2774" stroke-width="2"/>
 <path d="m23.667 5c-1.0417 0-4.6875 4.1538-5.2083 4.1538h-2.6042c-1.0417 0-4.6875 3.6346-4.6875 4.6731v3.1154c0 0.51923-4.1437 4.1538-4.1667 5.1923-0.022917 1.0385 7.2917 25.442 8.3333 26.481 1.0417 1.0385 12.5 10.385 15.625 10.385h2.0833c3.125 0 14.583-9.3462 15.625-10.385 1.0417-1.0385 8.3542-25.442 8.3333-26.481-0.02292-1.0322-4.1667-4.6731-4.1667-5.1923v-3.1154c0-1.0385-3.6458-4.6731-4.6875-4.6731h-2.6042c-0.52083 0-4.1667-4.1538-5.2083-4.1538z" fill="#9d2ea4" stroke-width="1.3868"/>
 <path d="m32 12.253c-1.0375 0-2.0708 0.35515-3.125 1.0551-3.125 2.0769-7.2917-1.0385-8.3333-1.0385-1.0417 0-7.2917 7.5662-7.2917 10.385 0 2.0769 7.8125 6.8538 7.8125 8.3077 0 1.0385-1.5625 1.5369-1.5625 3.7405 0 1.4518 2.0833 4.0479 4.1667 4.0479 2.0833 0 7.2958-4.077 7.2917-5.0864v-0.62515c0-1.2462-4.6875-2.8163-4.6875-5.1923 0-2.0769 1.5625-2.8454 1.5625-5.1923 0-2.0188-4.1667-2.5962-7.2917-3.1154-1.0417 0 3.125-3.4165 8.8541 0.27623 1.45 0.93462-1.5625 4.6295-1.0417 8.0315 0.78125 0.72692 2.2146 1.0904 3.6458 1.0904 1.4333 0 2.8646-0.36346 3.6458-1.0904 0.52083-3.402-2.4917-7.0968-1.0417-8.0315 5.7292-3.6928 9.8958-0.27623 8.8541-0.27623-3.125 0.51923-7.2917 1.0966-7.2917 3.1154 0 2.3469 1.5625 3.1154 1.5625 5.1923 0 2.376-4.6875 3.9462-4.6875 5.1923v0.62515c-0.0042 1.0094 5.2083 5.0864 7.2917 5.0864s4.1667-2.5962 4.1667-4.0479c0-2.2015-1.5625-2.7021-1.5625-3.7405 0-1.4538 7.8125-6.2308 7.8125-8.3077 0-2.8184-6.25-10.385-7.2917-10.385s-5.2083 3.1154-8.3333 1.0385c-1.0542-0.69992-2.0833-1.0551-3.125-1.0551zm0 24.732c-2.0833 0-6.7708 3.2192-6.7708 3.8423s4.6875 5.7115 6.7708 5.7115 6.7708-5.0885 6.7708-5.7115-4.6875-3.8423-6.7708-3.8423z" fill="#f9f9f9" stroke="#000" stroke-opacity=".20342" style="paint-order:stroke fill markers"/>
 <path d="m32 12.253c-1.0375 0-2.0708 0.35515-3.125 1.0551-3.125 2.0769-7.2917-1.0385-8.3333-1.0385-1.0417 0-7.2917 7.5662-7.2917 10.385 0 2.0769 7.8125 6.8538 7.8125 8.3077 0 1.0385-1.5625 1.5369-1.5625 3.7405 0 1.4518 2.0833 4.0479 4.1667 4.0479 2.0833 0 7.2958-4.077 7.2917-5.0864v-0.62515c0-1.2462-4.6875-2.8163-4.6875-5.1923 0-2.0769 1.5625-2.8454 1.5625-5.1923 0-2.0188-4.1667-2.5962-7.2917-3.1154-1.0417 0 3.125-3.4165 8.8541 0.27623 1.45 0.93462-1.5625 4.6295-1.0417 8.0315 0.78125 0.72692 2.2146 1.0904 3.6458 1.0904 1.4333 0 2.8646-0.36346 3.6458-1.0904 0.52083-3.402-2.4917-7.0968-1.0417-8.0315 5.7292-3.6928 9.8958-0.27623 8.8541-0.27623-3.125 0.51923-7.2917 1.0966-7.2917 3.1154 0 2.3469 1.5625 3.1154 1.5625 5.1923 0 2.376-4.6875 3.9462-4.6875 5.1923v0.62515c-0.0042 1.0094 5.2083 5.0864 7.2917 5.0864s4.1667-2.5962 4.1667-4.0479c0-2.2015-1.5625-2.7021-1.5625-3.7405 0-1.4538 7.8125-6.2308 7.8125-8.3077 0-2.8184-6.25-10.385-7.2917-10.385s-5.2083 3.1154-8.3333 1.0385c-1.0542-0.69992-2.0833-1.0551-3.125-1.0551zm0 24.732c-2.0833 0-6.7708 3.2192-6.7708 3.8423s4.6875 5.7115 6.7708 5.7115 6.7708-5.0885 6.7708-5.7115-4.6875-3.8423-6.7708-3.8423z" fill="#f9f9f9"/>
</svg>
