<svg width="64" height="64" version="1.1" viewBox="0 0 64 64" xmlns="http://www.w3.org/2000/svg">
 <g transform="translate(0 -1058.5)">
  <circle cx="32" cy="1090.5" r="27" fill="#bababa"/>
  <circle transform="rotate(-15)" cx="-251.34" cy="1061.6" r="26" fill="#e0e0e0"/>
  <circle cx="32" cy="1090.5" r="9.9998" fill="#9e9e9e"/>
  <circle cx="32" cy="1090.5" r="9" fill="#bdbdbd"/>
  <circle cx="32" cy="1090.5" r="3" fill="#424242"/>
  <rect x="44" y="1089.5" width="9" height="10" ry=".99995" fill="#455a64"/>
  <rect x="45" y="1090.5" width="7" height="8" ry="0" fill="#546e7a"/>
  <path transform="translate(0 1058.5)" d="m43 39c-0.55397 0-1 0.44603-1 1v16c0 1.662 1.338 3 3 3h7c1.662 0 3-1.338 3-3v-16c0-0.55397-0.44603-1-1-1h-11z" fill="#f4511e"/>
  <path transform="translate(0 1058.5)" d="m43 40v16c0 1.108 0.89203 2 2 2h7c1.108 0 2-0.89203 2-2v-16h-11z" fill="#ff7043"/>
  <g fill="#ff5722">
   <rect x="45" y="1100.5" width="7" height="1" ry=".5"/>
   <rect x="46" y="1102.5" width="5" height=".99995" ry=".45312"/>
   <rect x="47" y="1104.5" width="3" height="1" ry=".45312"/>
  </g>
  <g fill="#ffd54f">
   <rect x="46" y="1091.5" width="1" height="5"/>
   <rect x="50" y="1091.5" width="1" height="5"/>
   <rect x="48" y="1093.5" width="1" height="3"/>
  </g>
 </g>
</svg>
