<svg width="64" height="64" version="1.1" viewBox="0 0 64 64" xmlns="http://www.w3.org/2000/svg">
 <g transform="matrix(1.1739 0 0 1.1739 3.8261 -14.957)" stroke-width=".85185">
  <g transform="translate(0,16)" fill="#ce5050">
   <path d="m24 0.9995c12.703 0 23 10.297 23 23 0 12.703-10.297 23-23 23-12.703 0-23-10.297-23-23 0-12.703 10.297-23 23-23z" stroke="#b83737" stroke-width="1.7037"/>
   <path d="m24 0.99949c12.703 0 23 10.297 23 23 0 12.703-10.297 23-23 23-12.703 0-23-10.297-23-23 0-12.703 10.297-23 23-23z" stroke-width=".85186"/>
  </g>
  <g transform="translate(0,16)">
   <g stroke-width=".85185">
    <g stroke-width=".85185">
     <path d="m11.996 13v17l9 6v-17.5zm2 0 8 5h4l8-5c-4 0-6 0.52-10 4-4-3.395-6-4-10-4zm22 0-9 5.5v17.5l9-6zm-14 6v18h4v-18z" fill="#f9f9f9"/>
    </g>
   </g>
  </g>
 </g>
</svg>
