<svg width="64" height="64" version="1.1" viewBox="0 0 64 64" xmlns="http://www.w3.org/2000/svg">
 <path d="m32 5c14.912 0 27 12.088 27 27s-12.088 27-27 27-27-12.088-27-27 12.088-27 27-27z" fill="#303070" stroke="#1d1d3f" stroke-linecap="round" stroke-width="2" style="paint-order:stroke fill markers"/>
 <path d="m32 5c14.912 0 27 12.088 27 27s-12.088 27-27 27-27-12.088-27-27 12.088-27 27-27z" fill="#303070"/>
 <path d="m41.025 17.326-3.4507 0.7337c0.53631 1.9729 2.3762 2.9937 4.4388 3.8518l3.4116-0.7337c-0.0525-2.2888-2.8314-3.0402-4.3997-3.8518zm-6.8967 1.4674-3.4507 0.7337c0.31055 1.5274 2.2733 2.7108 4.4388 3.8518l3.4507-0.7337c-0.96195-1.451-1.8232-2.9343-4.4388-3.8518zm-6.8967 1.4674-3.4507 0.7337c0.53174 1.961 1.9704 3.2742 4.4388 3.8518l3.4507-0.7337c-0.60257-1.4302-2.1773-2.6982-4.4388-3.8518zm-6.8601 1.4674-2.4946 0.55027c-0.2923 0.06222-0.54493 0.16347-0.77267 0.33016 0.85002 1.3635 1.3214 2.8145 4.221 3.7051l3.4484-0.7337c0.13453-1.5904-1.2824-2.8841-4.4022-3.8518zm1.0639 5.5761-4.6957 4.6957v12.947c0 1.2713 0.96701 2.3112 2.1645 2.3112h26.192c1.1962 0 2.1667-1.0398 2.1667-2.3112v-12.947l-1.1739-4.6957h-3.5217l-2.3502 1.1739-1.1716-1.1739h-3.5217l-2.3502 1.1739-1.1716-1.1739h-3.5217l-2.3502 1.1739-1.1716-1.1739h-3.5234z" fill="#5c5cd6" stroke-width="1.1739"/>
 <path d="m43.929 16.741c-0.14439-7.71e-4 -0.28926 0.01458-0.43563 0.04585l-2.4763 0.52734v0.0023l4.4251 3.8565 1.1487-0.24532-0.49754-2.3341c-0.23192-1.088-1.1537-1.8472-2.1645-1.8526zm-6.3557 1.3115-3.4438 0.73598 4.4251 3.8542 3.4438-0.7337zm-6.8876 1.472-3.4438 0.7337 4.4251 3.8565 3.4438-0.73598zm-6.8876 1.4697-3.4438 0.73598 4.4251 3.8565 3.4438-0.73598zm-6.6973 1.6118c-0.68624 0.50193-1.0579 1.426-0.85751 2.3639l0.01605 0.07337 0.48378 2.2584 4.5925-0.97902s-4.2331-3.7144-4.2348-3.7166zm-0.36226 4.698v4.6957h1.1739l3.5217-4.6957zm8.2174 0-3.5217 4.6957h3.5217l3.5217-4.6957zm7.0435 0-3.5217 4.6957h3.5217l3.5217-4.6957zm7.0435 0-3.5217 4.6957h3.5217l3.5217-4.6957zm7.0435 0-3.5217 4.6957h4.6957v-4.6957z" fill="#f9f9f9" stroke-width="1.1739"/>
 <path d="m29.652 34.348 7.0435 4.6957-7.0435 4.6957z" fill="#f9f9f9" stroke-width="1.1739"/>
</svg>
