<svg xmlns="http://www.w3.org/2000/svg" width="64" height="64" viewBox="0 0 16.933 16.933"><g color="#000" paint-order="fill markers stroke"><path d="M1.323 1.323v12.701l11.112-.001 1.588-1.588.001-11.112H5.556z" style="isolation:auto;mix-blend-mode:normal;marker:none" display="block" overflow="visible" opacity=".75" fill="#2268ab" stroke="#1b5895" stroke-width=".529" stroke-linecap="round" stroke-linejoin="round"/><path style="isolation:auto;mix-blend-mode:normal;marker:none" d="M1.323 1.323h12.701l-.001 11.112-1.588 1.588H1.323z" display="block" overflow="visible" fill="#2268ab"/><path style="isolation:auto;mix-blend-mode:normal;marker:none" d="M5.556 5.556H9.79V9.79H5.556z" display="block" overflow="visible" fill="#3d8dd8"/><path style="isolation:auto;mix-blend-mode:normal;marker:none" d="M5.556 1.323H9.79v4.233H5.556z" display="block" overflow="visible" fill="#2777c4"/><path style="isolation:auto;mix-blend-mode:normal;marker:none" d="M1.323 1.323h4.233v4.233H1.323z" display="block" overflow="visible" fill="#1f609e"/><path style="isolation:auto;mix-blend-mode:normal;marker:none" d="M1.323 5.556h4.233V9.79H1.323z" display="block" overflow="visible" fill="#3b83c8"/><path style="isolation:auto;mix-blend-mode:normal;marker:none" d="M9.79 5.556h4.233V9.79H9.79z" display="block" overflow="visible" fill="#63a3e0"/><path style="isolation:auto;mix-blend-mode:normal;marker:none" d="M9.79 1.323h4.233v4.233H9.79z" display="block" overflow="visible" fill="#3b8bd8"/><path style="isolation:auto;mix-blend-mode:normal;marker:none" d="M5.556 9.788H9.79v4.234H5.556z" display="block" overflow="visible" fill="#61a2e0"/><path style="isolation:auto;mix-blend-mode:normal;marker:none" d="M1.323 9.79h4.233v4.232H1.323z" display="block" overflow="visible" fill="#4893db"/><path overflow="visible" style="isolation:auto;mix-blend-mode:normal;marker:none" d="M11.2 6.791a4.41 4.41 0 0 0-.143.005c-.008 0-.015-.005-.024-.005H6.972a.176.176 0 0 0-.176.176v4.13a4.41 4.41 0 0 0-.005.104 4.41 4.41 0 0 0 4.41 4.41 4.41 4.41 0 0 0 4.41-4.41 4.41 4.41 0 0 0-4.41-4.41z" opacity=".15" fill="#fff" stroke="#000" stroke-width=".529"/><path d="M11.2 6.791a4.41 4.41 0 0 0-.143.005c-.008 0-.015-.005-.024-.005H6.972a.176.176 0 0 0-.176.176v4.13a4.41 4.41 0 0 0-.005.104 4.41 4.41 0 0 0 4.41 4.41 4.41 4.41 0 0 0 4.41-4.41 4.41 4.41 0 0 0-4.41-4.41z" style="isolation:auto;mix-blend-mode:normal;marker:none" overflow="visible" fill="#fff"/><path d="M13.468 11.201a2.267 2.267 0 0 1-2.267 2.267 2.267 2.267 0 0 1-2.268-2.267 2.267 2.267 0 0 1 2.268-2.267 2.267 2.267 0 0 1 2.267 2.267z" style="isolation:auto;mix-blend-mode:normal;marker:none" overflow="visible" opacity=".5" fill="#5299dc" stroke="#1a456e" stroke-width=".265"/><path overflow="visible" style="isolation:auto;mix-blend-mode:normal;marker:none" d="M13.468 11.201a2.267 2.267 0 0 1-2.267 2.267 2.267 2.267 0 0 1-2.268-2.267 2.267 2.267 0 0 1 2.268-2.267 2.267 2.267 0 0 1 2.267 2.267z" fill="#73aee5"/><path d="M11.112 10.319v.794h-.793v.264h.793l.017.794h.248v-.794h.794l.017-.264h-.81v-.794z" style="isolation:auto;mix-blend-mode:normal;marker:none" overflow="visible" fill="#fff"/></g></svg>