<svg xmlns="http://www.w3.org/2000/svg" width="64" height="64" viewBox="0 0 16.933 16.933"><g stroke-width="1.076" color="#000"><path d="M9.774 2.37a3.76 3.76 0 0 0-3.34 2.06 2.586 2.586 0 0 0-1.4-.412A2.626 2.626 0 0 0 2.42 6.654c0 .232.036.456.092.67a3.96 3.96 0 0 0-1.727 3.284c0 2.191 1.75 3.954 3.923 3.954h7.518c2.173 0 3.922-1.763 3.922-3.954a3.944 3.944 0 0 0-2.676-3.748c.042-.227.061-.46.061-.7 0-2.093-1.683-3.79-3.759-3.79z" style="marker:none" overflow="visible" fill="#f9f9f9"/><path d="M37.362 8.5c-5.968 0-11.136 3.514-13.698 8.615a10.452 10.452 0 0 0-5.738-1.723c-5.923 0-10.724 4.937-10.724 11.027 0 .968.15 1.905.377 2.8C3.302 32.185.5 37.232.5 42.959.5 52.123 7.674 59.5 16.585 59.5h30.83c8.911 0 16.085-7.377 16.085-16.54 0-7.318-4.594-13.487-10.975-15.68.173-.95.252-1.926.252-2.929 0-8.754-6.902-15.851-15.415-15.851z" style="marker:none" overflow="visible" opacity=".35" fill="none" stroke="#555761" stroke-linecap="round" stroke-linejoin="round" transform="matrix(.24778 0 0 .24383 .538 .176)"/></g></svg>