<svg xmlns="http://www.w3.org/2000/svg" width="64" height="64" viewBox="0 0 16.933 16.933"><g stroke-width=".265"><path d="M6.892 7.011c.161.768.25 1.35.12 2.117-1.018.852-3.623 1.235-3.62 2.117l-.35 2.646c0 .876 2.43 1.587 5.425 1.587 2.995 0 5.424-.71 5.424-1.587l-.35-2.646c-.005-.755-2.625-1.235-3.63-2.117-.087-.713-.018-1.404.13-2.117z" fill="#e6e6e6" stroke="#b4b4b4"/><path d="M8.467 1.72c-1.535 0-2.778 1.099-2.778 2.454.012.502.057 1.098.37 2.454.185.526 1.837 1.929 1.852 2.104.36.175.926.175 1.297 0 0-.175 1.481-1.578 1.666-2.104.353-1.41.352-1.928.37-2.454 0-1.355-1.243-2.454-2.777-2.454z" fill="#f2f2f2" stroke="#c8c8c8"/></g></svg>