<svg width="64" height="64" version="1.1" viewBox="0 0 16.933 16.933" xmlns="http://www.w3.org/2000/svg">
 <g stroke-width=".265">
  <g opacity=".75">
   <path transform="scale(.26458)" d="m14.793 29.025c0.25257 1.4938 0.331 2.8348 0.048828 4.4766-2.9103 2.4114-10.355 3.4997-10.34 5.998l-1.002 7.5c0 2.487 6.9392 4.5 15.5 4.5s15.5-2.0129 15.5-4.4961l-0.99805-7.5039c-0.015118-2.1393-7.5026-3.4997-10.379-5.998-0.17019-1.4227-0.11615-2.8129 0.074219-4.2168-1.1135 1.3463-2.1973 2.599-2.1973 2.8496-0.99782 0.48757-2.5286 0.48757-3.5 0-0.021027-0.26704-1.3915-1.6662-2.707-3.1094z" fill="#e6e6e6" stroke="#b4b4b4" stroke-width="1.0016"/>
   <path d="M5.027 3.307c-1.096 0-1.984.803-1.984 1.793.008.366.04.801.264 1.792.133.384 1.313 1.483 1.323 1.61.257.129.662.129.926 0 0-.127 1.059-1.226 1.19-1.61.253-1.03.252-1.408.265-1.792 0-.99-.888-1.793-1.984-1.793z" fill="#f2f2f2" stroke="#c8c8c8"/>
  </g>
  <path d="M9.009 7.276c.16.768.25 1.349.12 2.117-1.019.852-3.624 1.234-3.62 2.116l-.35 2.646c0 .877 2.429 1.588 5.424 1.588 2.996 0 5.424-.711 5.424-1.588l-.35-2.646c-.004-.754-2.624-1.234-3.63-2.116-.086-.713-.018-1.404.131-2.117z" fill="#e6e6e6" stroke="#b4b4b4"/>
  <path d="M10.583 1.984c-1.534 0-2.778 1.1-2.778 2.455.012.501.057 1.097.37 2.454.186.526 1.838 1.928 1.853 2.104.359.175.926.175 1.296 0 0-.176 1.482-1.578 1.667-2.104.352-1.41.352-1.928.37-2.454 0-1.356-1.243-2.455-2.778-2.455z" fill="#f2f2f2" stroke="#c8c8c8"/>
 </g>
</svg>
