<svg xmlns="http://www.w3.org/2000/svg" width="64" height="64" viewBox="0 0 16.933 16.933"><g transform="translate(0 -280.067)"><rect width="14.023" height="14.023" rx=".765" ry=".765" x="1.455" y="281.522" style="marker:none" color="#000" overflow="visible" fill="#2c2e38"/><rect style="marker:none" y="281.522" x="1.455" ry=".765" rx=".765" height="14.023" width="14.023" color="#000" overflow="visible" opacity=".9" fill="none" stroke="#000" stroke-width=".265" stroke-linecap="round" stroke-linejoin="round"/><g stroke-width="1.612"><path opacity=".1" fill="#fff" d="M4.33 289.96h2.627v2.626H4.331z"/><path d="M5.316 284.38l-.985 2.124c.159-.09.332-.154.512-.196l.477 4.637.478-4.639c.177.042.348.108.503.198zm5.262 6.237c.09.158.154.332.196.51l-4.801.479 4.803.478a1.84 1.84 0 0 1-.198.503l2.125-.985z" fill="#fff"/><path opacity=".2" fill="none" stroke="#fff" stroke-width=".52919267" stroke-dasharray=".85295759,.85295759" stroke-dashoffset="1" d="M4.495 287.827h4.596v4.596H4.495z"/></g></g></svg>