<svg xmlns="http://www.w3.org/2000/svg" xmlns:xlink="http://www.w3.org/1999/xlink" width="64" height="64" viewBox="0 0 16.933 16.933"><defs><linearGradient x1="36.357" y1="6" x2="36.357" y2="63.893" id="b" xlink:href="#a" gradientUnits="userSpaceOnUse"/><linearGradient id="a"><stop offset="0" stop-color="#fff"/><stop offset="1" stop-color="#fff" stop-opacity="0"/></linearGradient></defs><path d="M2.57 1.588a.98.98 0 0 0-.983.982v11.793a.98.98 0 0 0 .983.983h11.793a.98.98 0 0 0 .983-.983V2.57a.98.98 0 0 0-.983-.982z" fill="#cacaca" stroke="#000" stroke-width=".529" opacity=".25"/><g stroke-width="1.615"><path d="M12 6c-3.324 0-6 2.676-6 6v72c0 .335.041.65.094.969.048.295.097.597.187.875l.032.094c.098.287.234.547.375.812.144.274.315.536.5.781a6.105 6.105 0 0 0 2.094 1.781c.278.14.573.247.874.344a4.843 4.843 0 0 1-.719-.375c-.007-.004-.023.005-.03 0-.033-.02-.063-.042-.095-.062-.12-.077-.23-.164-.343-.25-.106-.081-.214-.161-.313-.25a5.042 5.042 0 0 1-.5-.531 5.092 5.092 0 0 1-.312-.407c-.025-.038-.039-.086-.063-.125-.065-.103-.13-.204-.187-.312a5.371 5.371 0 0 1-.282-.625c-.007-.022-.023-.04-.03-.063-.033-.092-.037-.187-.063-.281-.03-.107-.07-.203-.094-.313A5.098 5.098 0 0 1 7 85V13c0-2.782 2.218-5 5-5h72c2.782 0 5 2.218 5 5v72a5.1 5.1 0 0 1-.125 1.063 4.896 4.896 0 0 1-.156.593c-.008.022-.024.04-.031.063a5.482 5.482 0 0 1-.22.531c-.04.083-.078.17-.124.25-.055.097-.127.188-.188.281a5.092 5.092 0 0 1-.312.406 5.05 5.05 0 0 1-.469.5l-.031.032a4.818 4.818 0 0 1-.438.344c-.102.073-.204.153-.312.218-.008.005-.024-.004-.031 0a4.843 4.843 0 0 1-.72.375c.302-.097.597-.204.876-.344a6.105 6.105 0 0 0 2.094-1.78 6 6 0 0 0 .5-.782 5.69 5.69 0 0 0 .374-.813l.032-.093c.09-.278.139-.58.187-.875.053-.318.094-.634.094-.969V12c0-3.324-2.676-6-6-6z" opacity=".5" fill="url(#b)" transform="translate(.605 .605) scale(.16379)"/><path d="M15.346 11.118v3.245a.98.98 0 0 1-.983.983H2.57a.98.98 0 0 1-.983-.983v-3.245z" fill="#cacaca"/><path d="M1.587 12.725v.983a.98.98 0 0 0 .983.983h11.793a.98.98 0 0 0 .983-.983v-.983a.98.98 0 0 1-.983.983H2.57a.98.98 0 0 1-.983-.983z" fill="#666"/><rect y="6" x="6" ry="6" rx="6" height="70" width="84" fill="#e6e6e6" transform="translate(.605 .605) scale(.16379)"/><path d="M8.467 4.536L5.846 7.484h5.241zM5.846 8.139v1.31h5.241V8.14z" fill="gray"/></g></svg>