<svg width="64" height="64" version="1.1" xmlns="http://www.w3.org/2000/svg">
 <g>
  <rect x="8" y="4" width="48" height="56" ry="3.231" fill="#9e9e9e"/>
  <rect x="9" y="12" width="46" height="9" ry="0" fill="#e0e0e0"/>
  <path d="m55 21h-46v35.764c0 1.239 1.0256 2.236 2.3 2.236h41.4c1.2744 0 2.3-0.997 2.3-2.236z" fill="#eee"/>
  <path d="m11.3 5c-1.2744 0-2.3 1.07-2.3 2.4v3.6h46v-3.6c0-1.33-1.0256-2.4-2.3-2.4z" fill="#bdbdbd"/>
  <path d="m10.045 21h43.909v37h-43.909z" fill="#f5f5f5"/>
 </g>
 <g fill="#bdbdbd">
  <rect x="18" y="25.999" width="20" height="2" ry="0"/>
  <path d="m18 30h23v2h-23z"/>
  <rect x="18" y="35" width="7" height="1.999" ry="0"/>
  <path d="m18 39h9v2h-9zm0 4h5v2h-5z"/>
 </g>
 <g fill="#757575">
  <circle cx="15" cy="36" r="1"/>
  <circle cx="15" cy="40" r="1"/>
  <circle cx="15" cy="44" r="1"/>
 </g>
 <path d="m33 44c-1.108 0-2 0.892-2 2v7c0 1.108 0.892 2 2 2h15c1.108 0 2-0.892 2-2v-7c0-1.108-0.892-2-2-2zm0 1h15c0.554 0 1 0.446 1 1v7c0 0.554-0.446 1-1 1h-15c-0.554 0-1-0.446-1-1v-7c0-0.554 0.446-1 1-1zm0 1v7h2v-4.172l2 2 2-2v4.172h2v-7h-2l-2 2-2-2zm11 0v4h-2l3 3 3-3h-2v-4z" fill="#616161"/>
 <circle cx="49.5" cy="8.5" r="1.5" fill="#ef5350"/>
 <circle cx="49.5" cy="8.5" r=".5" fill="#ef9a9a"/>
 <path d="m14 27h3v1h-3zm28 4h3v1h-3z" fill="#757575"/>
 <path d="m9 20h46v1h-46z" fill="#bdbdbd"/>
 <g fill="#616161" fill-rule="evenodd">
  <path d="m14 14h4v4h-4z" opacity=".9" style="paint-order:stroke fill markers"/>
  <path d="m20 14h4v4h-4z" opacity=".5" style="paint-order:stroke fill markers"/>
  <path d="m26 16h4v2h-4zm6 0h4v2h-4zm6 0h4v2h-4zm6 0h4v2h-4z" opacity=".9" style="paint-order:stroke fill markers"/>
 </g>
</svg>
