<svg xmlns="http://www.w3.org/2000/svg" width="64" height="64" viewBox="0 0 16.933 16.933"><g transform="translate(0 -280.067)"><rect ry=".794" rx=".794" y="281.654" x="1.588" height="13.758" width="13.758" opacity=".15" fill="#e6e6e6" stroke="#000" stroke-width=".529" stroke-linecap="round" stroke-linejoin="round" paint-order="markers stroke fill"/><rect width="13.758" height="13.758" x="1.588" y="281.654" rx=".794" ry=".794" fill="#fafafa" paint-order="markers stroke fill"/><path d="M6.482 286.549a1.98 1.98 0 0 0-1.984 1.984c0 1.1.885 1.985 1.984 1.985h3.969a1.98 1.98 0 0 0 1.984-1.985 1.98 1.98 0 0 0-1.984-1.984z" style="marker:none" color="#000" overflow="visible" fill="#ee756b" stroke="#c22012" stroke-width=".529" opacity=".75"/><path d="M3.175 282.978a.265.265 0 0 1-.53 0 .265.265 0 1 1 .53 0z" style="marker:none" color="#000" overflow="visible" opacity=".3" fill-rule="evenodd"/><path style="marker:none" d="M6.482 286.549a1.98 1.98 0 0 0-1.984 1.984c0 1.1.885 1.985 1.984 1.985h3.969a1.98 1.98 0 0 0 1.984-1.985 1.98 1.98 0 0 0-1.984-1.984z" color="#000" overflow="visible" fill="#ee756b"/><path style="marker:none" d="M10.451 286.814a1.721 1.721 0 0 1 0 3.44 1.72 1.72 0 0 1 0-3.44z" color="#000" overflow="visible" fill="#fff" stroke="#000" stroke-width=".265" stroke-opacity=".255"/><path style="marker:none" d="M14.287 282.978a.265.265 0 0 1-.529 0 .265.265 0 1 1 .53 0zM3.175 294.09a.265.265 0 0 1-.53 0 .265.265 0 1 1 .53 0zm11.112 0a.265.265 0 0 1-.529 0 .265.265 0 1 1 .53 0z" color="#000" overflow="visible" opacity=".3" fill-rule="evenodd"/><path d="M10.451 286.814a1.721 1.721 0 0 1 0 3.44 1.72 1.72 0 0 1 0-3.44z" style="marker:none" color="#000" overflow="visible" fill="#fff"/></g></svg>