<svg width="64" height="64" version="1.1" viewBox="0 0 16.933 16.933" xmlns="http://www.w3.org/2000/svg" xmlns:xlink="http://www.w3.org/1999/xlink">
 <path d="m0.794 2.381h15.346c0.146 0 0.264 0.118 0.264 0.264v11.642a0.264 0.264 0 0 1-0.264 0.265h-15.346a0.264 0.264 0 0 1-0.265-0.265v-11.642c0-0.146 0.118-0.264 0.265-0.264z" fill="none" opacity=".75" stroke="#21598b" stroke-width=".529" style="paint-order:stroke markers fill"/>
 <path d="m0.794 2.381h15.346c0.146 0 0.264 0.118 0.264 0.264v11.642a0.264 0.264 0 0 1-0.264 0.265h-15.346a0.264 0.264 0 0 1-0.265-0.265v-11.642c0-0.146 0.118-0.264 0.265-0.264z" fill="#53a8f6" style="paint-order:stroke markers fill"/>
 <rect x="1.587" y="2.645" width="1.058" height=".529" ry=".265" opacity=".35" style="paint-order:stroke markers fill"/>
 <rect x="7.144" y="2.645" width="2.646" height=".529" ry=".265" opacity=".35" style="paint-order:stroke markers fill"/>
 <rect x="15.081" y="2.645" width=".529" height=".529" ry=".265" opacity=".35" style="paint-order:stroke markers fill"/>
 <rect x="14.023" y="2.645" width=".794" height=".529" ry=".265" opacity=".35" style="paint-order:stroke markers fill"/>
 <rect x="13.229" y="2.645" width=".529" height=".529" ry=".265" opacity=".35" style="paint-order:stroke markers fill"/>
 <g fill="#fff">
  <path transform="scale(.26458)" d="m15.002 50.998c-1.1077 0-2 0.89233-2 2v2.002h38v-2.002c0-1.1077-0.89233-2-2-2h-34z" opacity=".35" stroke-width="3.7796" style="paint-order:stroke markers fill"/>
  <rect x="4.498" y="12.7" width="1.323" height="1.323" ry=".132" style="paint-order:stroke markers fill"/>
  <rect x="6.703" y="12.7" width="1.323" height="1.323" ry=".132" style="paint-order:stroke markers fill"/>
  <rect x="8.908" y="12.7" width="1.323" height="1.323" ry=".132" style="paint-order:stroke markers fill"/>
  <rect x="11.113" y="12.7" width="1.323" height="1.323" ry=".132" style="paint-order:stroke markers fill"/>
 </g>
 <path d="m0.794 2.381a0.264 0.264 0 0 0-0.265 0.265v0.793h15.875v-0.793a0.264 0.264 0 0 0-0.264-0.265z" opacity=".35" style="paint-order:stroke markers fill"/>
</svg>
