<svg xmlns="http://www.w3.org/2000/svg" width="64" height="64" version="1"><circle cx="32" cy="32" r="27.5" fill="none" stroke="#2c3854" stroke-opacity=".302"/><path d="M32 5A27 27 0 0 0 5 32a27 27 0 0 0 27 27 27 27 0 0 0 27-27A27 27 0 0 0 32 5zm0 16a11 11 0 0 1 11 11 11 11 0 0 1-11 11 11 11 0 0 1-11-11 11 11 0 0 1 11-11z" fill="#fafafa"/><path d="M32 21a11 11 0 0 0-11 11 11 11 0 0 0 11 11 11 11 0 0 0 11-11 11 11 0 0 0-11-11zm0 5.5a5.5 5.5 0 0 1 5.5 5.5 5.5 5.5 0 0 1-5.5 5.5 5.5 5.5 0 0 1-5.5-5.5 5.5 5.5 0 0 1 5.5-5.5z" fill="#fff" fill-opacity=".388"/><circle r="10.5" cy="32" cx="32" fill="none" stroke="#2c3854" stroke-opacity=".302"/><circle cy="32" cx="32" r="5" fill="none" stroke="#2c3854" stroke-opacity=".302"/></svg>