<svg width="64" height="64" version="1.1" viewBox="0 0 16.933 16.933" xmlns="http://www.w3.org/2000/svg">
 <defs>
  <clipPath id="a"/>
 </defs>
 <path d="m8.467 1.323a7.144 7.144 0 1 1 0 14.287 7.144 7.144 0 0 1 0-14.287z" fill="#364b7b" opacity=".9" stroke="#1b2949" stroke-width=".529"/>
 <path d="m8.467 1.323a7.144 7.144 0 1 1 0 14.287 7.144 7.144 0 0 1 0-14.287z" fill="#364b7b"/>
 <g transform="translate(.904 1.058) scale(.30868)" clip-path="url(#a)" fill="#fff" stroke-width=".857">
  <path d="M31.598 21.715a2.988 2.988 0 0 0-.047 4.332c1.227 1.211 3.238 1.234 4.492.055a2.984 2.984 0 0 0 .051-4.332 3.168 3.168 0 0 0-1.453-.82 3.25 3.25 0 0 0-3.043.766m-9.618 9.901a2.495 2.495 0 0 0-.043 3.614c1.023 1.012 2.703 1.027 3.75.043a2.49 2.49 0 0 0 .043-3.613c-.348-.34-.77-.57-1.215-.684a2.708 2.708 0 0 0-2.535.641m5.008-14.888a2.685 2.685 0 0 0-.043 3.886 2.927 2.927 0 0 0 4.03.047 2.68 2.68 0 0 0 .043-3.887 2.87 2.87 0 0 0-1.305-.734 2.921 2.921 0 0 0-2.73.688M16.832 27.16a2.267 2.267 0 0 0-.039 3.293 2.48 2.48 0 0 0 3.418.039 2.273 2.273 0 0 0 .039-3.293 2.418 2.418 0 0 0-1.105-.621 2.462 2.462 0 0 0-2.313.582m5.02-14.433a2.49 2.49 0 0 0-.043 3.614 2.719 2.719 0 0 0 3.75.043 2.487 2.487 0 0 0 .039-3.613 2.718 2.718 0 0 0-3.746-.043m-9.153 9.512a2.188 2.188 0 0 0-.035 3.172c.898.898 2.375.906 3.293.043a2.191 2.191 0 0 0 .035-3.176 2.348 2.348 0 0 0-1.063-.602 2.39 2.39 0 0 0-2.23.563m14.176 4.94a2.652 2.652 0 0 0-.047 3.844 2.899 2.899 0 0 0 3.992.051 2.654 2.654 0 0 0 .043-3.848 2.835 2.835 0 0 0-1.289-.727 2.876 2.876 0 0 0-2.699.68m-4.98-5.14a2.59 2.59 0 0 0-.754 2.531c.113.453.348.879.711 1.238a2.842 2.842 0 0 0 3.91.047 2.602 2.602 0 0 0 .043-3.77 2.836 2.836 0 0 0-3.911-.047m-5.003-4.832a2.304 2.304 0 0 0-.668 2.246c.102.398.313.777.633 1.094a2.516 2.516 0 0 0 3.465.043 2.306 2.306 0 0 0 .039-3.344 2.513 2.513 0 0 0-3.469-.039m0 0" fill-rule="evenodd"/>
 </g>
 <g fill="#fbfdfc" fill-rule="evenodd">
  <circle cx="8.4665" cy="5.5561" r=".79373" style="paint-order:fill markers stroke"/>
  <circle cx="8.4665" cy="8.4665" r=".79373" style="paint-order:fill markers stroke"/>
  <circle cx="8.4665" cy="11.377" r=".79373" style="paint-order:fill markers stroke"/>
  <circle cx="5.2916" cy="8.4665" r=".79373" style="paint-order:fill markers stroke"/>
  <circle cx="11.641" cy="8.4665" r=".79373" style="paint-order:fill markers stroke"/>
  <circle cx="6.879" cy="7.0059" r=".79373" style="paint-order:fill markers stroke"/>
  <circle cx="6.879" cy="9.9117" r=".79373" style="paint-order:fill markers stroke"/>
  <circle cx="10.054" cy="7.0059" r=".79373" style="paint-order:fill markers stroke"/>
  <circle cx="10.054" cy="9.9117" r=".79373" style="paint-order:fill markers stroke"/>
 </g>
</svg>
