<?xml version="1.0" encoding="UTF-8"?>
<svg width="64" height="64" version="1.1" viewBox="0 0 16.933 16.933" xmlns="http://www.w3.org/2000/svg">
 <defs>
  <clipPath id="a"/>
 </defs>
 <path d="m8.467 1.323a7.144 7.144 0 1 1 0 14.287 7.144 7.144 0 0 1 0-14.287z" fill="#f2f2f2" opacity=".25" stroke="#000" stroke-width=".529"/>
 <path d="m8.467 1.323a7.144 7.144 0 1 1 0 14.287 7.144 7.144 0 0 1 0-14.287z" fill="#f2f2f2"/>
 <g transform="translate(-.679 -.215) scale(.3707)" clip-path="url(#a)" stroke-width="1.291">
  <path d="M33.04 27.34c-.316 1.219-1.91 3.762-2.762 4.883-.848 1.125-.746 2.137-2.313 1.742-1.563-.391-2-.32-3.621-.234-1.602.09-1.258-.043-2.262.383-1 .422-4.363-5.16-4.637-6.203-.266-1.039-.395-.914.305-2.035.691-1.125.797-2.238 1.715-3.598.918-1.367 1.984-2.063 1.906-3.105-.305-3.871-.539-5.809 1.293-6.703 1.742-.852 3.203-.344 3.777-.055.25.125.758.371 1.133.797.375.418.715 1.047.906 1.844.391 1.598-.164 1.07.281 2.902.438 1.828 1.328 2.727 2.414 4.172 1.09 1.445 2.223 3.832 1.863 5.211m0 0"/>
  <path d="M22.695 17.859c.285-.105.238-.121.43-.512.152-.301.285-.43.281-.887 0-.445-.148-.598-.371-.891-.215-.277-.555-.293-.773-.258-.125.02-.285.168-.395.387a1.337 1.337 0 0 0-.137.531c-.012.531.031.73.164 1.09.152.422.523.641.801.539m0 0" fill="#f9f9f9"/>
  <path d="M22.43 16.03c.141 0 .32.086.41.207a.799.799 0 0 1 .156.488c0 .285-.031.602-.215.699a.915.915 0 0 1-.254.059c-.16 0-.176-.102-.328-.25-.055-.051-.211-.313-.211-.527 0-.133-.031-.324.094-.496a.39.39 0 0 1 .348-.184m0 .004"/>
  <path d="M25.652 17.895c.719-.07.969-.332 1.098-.785.113-.402.117-.848-.199-1.375-.301-.5-.473-.578-.906-.613-.668-.051-.984.387-1.133.699-.156.34-.125.293-.113.723.012.453.281.578.445.863.168.273.727.496.805.492m.004-.004" fill="#f9f9f9"/>
  <path d="M25.594 16.01c.359 0 .566.301.637.684a.678.678 0 0 1-.125.516.733.733 0 0 1-.543.258c-.18 0-.375.027-.484-.105-.105-.141-.125-.445-.125-.668 0-.246.078-.422.207-.559.102-.102.281-.125.434-.125m0 0"/>
  <path d="M25.672 16.223c.039-.035.121 0 .207.09.098.102.102.18.023.234-.07.059-.105-.086-.152-.137-.086-.082-.156-.121-.082-.188m-3.203.118c.043-.063.207-.035.27.09.059.125.051.398.008.41-.109.035-.074-.117-.172-.25-.094-.129-.148-.188-.105-.25m1.409.105c.086-.023.168-.02.313.055.129.07.07.152-.07.121-.133-.027-.105-.023-.207-.043-.172-.027-.199-.094-.035-.133m0 0" fill="#676767"/>
  <path d="M23.461 19.977c-.621.023-1.602-1.609-1.629-.93-.016.574.016.563.016 1.117 0 .371-.18.402-.57.961a4.242 4.242 0 0 0-.48.938 6.337 6.337 0 0 0-.207.59c-.023.098-.066.203-.094.301-.191.676-.891 1.512-1.051 2.188-.164.672-.355 1.102-.328 2 .023.902.031.641.32.867.289.223.582.434 1.035.809.48.398 1.469 1.07 1.602 1.285.141.215.141.695.055.852-.086.152-.832.238-.832.238s.652.855.785.973c.125.117.66.684 2.832.301 1.227-.223 2.172-.863 2.859-1.48.887-.816.438-1.047.551-1.453.168-.59.711-.809.832-1.473.016-.094.047-.164.141-.313.137-.188.105-.586.105-.938 0-.938-.113-1.879-.344-2.578-.211-.656-.543-1.113-.828-1.703-.57-1.176-.543-1.707-1.055-2.457-.578-.867-.293-1.445-1.066-1.41-.961.051-1.738 1.289-2.648 1.324m0 0" fill="#f9f9f9"/>
  <path d="M23.789 16.906c.348-.039.828.039 1.047.191.203.141.348.219.535.273.621.191 1.445.285 1.406.813-.043.633-.238.914-.797 1.082-.449.129-1.25.859-1.867.859-.277 0-.664.016-.887-.063-.215-.07-.516-.41-.867-.684-.355-.273-.68-.566-.691-.941-.016-.395.262-.527.652-.848.203-.168.578-.453.832-.574.238-.113.391-.09.637-.117m0 0" fill="#ffcf33"/>
  <path d="M22.988 17.371c-.02.047.129.145.207.078.082-.066.176-.125.207-.145.145-.09.094-.156-.152-.117-.238.039-.238.133-.266.184m.004 0" fill="#995900"/>
  <path d="M32.969 28.332c.297.402-.008.93.207 1.25.355.527 1.063 1.063 1.336 1.211.195.113.473.219.461.543-.016.375-.211.473-.32.574-.219.207-1.324.723-2.059 1.191-.922.594-1.242.859-1.543 1.141-.469.441-.91.59-1.621.59-.707 0-1.031-.141-1.246-.324-.219-.18-.465-.637-.441-1.316.02-.68.25-1.293.359-2.348.047-.453.043-1.012.043-1.508 0-.629.012-1.16.152-1.242.258-.152.316-.16.621-.16s.441.016.543.113c.094.086.055.293.023.586-.027.293.121.387.266.508.148.117.281.266.746.301.469.031.641-.039.859-.172.219-.129.527-.359.645-.496.109-.129.383-.574.434-.574.043 0 .359-.105.535.137m-16.629.683c-.426.289-1.516.266-1.793.605-.27.34.012.832.004 1.746 0 .391-.07.684-.117.922-.07.301-.113.512.023.727.246.379.633.477 2.871.914 1.195.234 2.328.836 3.082.898.758.051.922-.188 1.383-.57.457-.387.605-.27.59-1.113-.016-.844-.59-1.094-1.242-2.066-.652-.973-.758-1.152-1.191-1.797-.434-.637-1.293-1.793-1.781-1.805-.391-.008-.609.188-.855.422-.246.234-.543.828-.973 1.117m0 0" fill="#ffcf33"/>
  <path d="M29.03 22.656c-.082-.004-.117.023-.094.094 0 0 .656.359 1.25 1.031.016.035.664.906.531 2.063-.023.02-.066.512-.125.719-.156.492-.355.777-.191.813.148.035.543-.953.531-1.344.141-.367.137-1.301-.219-1.906-.121-.219-.238-.484-.316-.5-.508-.652-1.133-.965-1.375-.969m.004 0" fill="#676767"/>
  <path d="M29.465 27.973c.102.094.188-.141.289-.219.098-.074.262-.238.582-.238.324 0 .305-.012.289-.125-.012-.113-.105-.105-.391-.066a.941.941 0 0 0-.59.305c-.109.117-.234.289-.18.344m1.294-.591c0 .141.305.191.605.234.289.039.523.094.539.379.012.281-.063.484.07.461.285-.051.387-.34.387-.477 0-.133-.211-.375-.586-.508a2.125 2.125 0 0 0-.719-.152c-.328-.016-.297.063-.297.063m0 0" fill="#676767"/>
  <path d="M21.988 18.797c.133.086.137.098.328.219.309.234.852.289 1.117.297.613.09 1.707-.449 2.137-.691.219-.152.621-.473.773-.477.094.094-.043.109-.238.234a7.76 7.76 0 0 1-.871.531c-.418.207-1.063.547-1.887.5-.434-.059-.438-.063-.703-.191-.16-.105-.523-.285-.656-.422m2.703-1.402c.02.051-.129.145-.207.082a1.443 1.443 0 0 0-.211-.145c-.145-.094-.09-.156.152-.117.242.039.242.129.266.18m0 0" fill="#995900"/>
 </g>
 <g stroke-width=".47849">
  <path d="m11.569 9.92c-0.11714 0.45187-0.70802 1.3945-1.0238 1.8101-0.31434 0.41703-0.27654 0.79216-0.85741 0.64574-0.57939-0.14494-0.74138-0.11862-1.3423-0.086742-0.59385 0.033362-0.46633-0.015939-0.8385 0.14198-0.37069 0.15643-1.6173-1.9128-1.7189-2.2994-0.098604-0.38515-0.14642-0.33881 0.11306-0.75435 0.25615-0.41703 0.29544-0.8296 0.63573-1.3337 0.34029-0.50673 0.73545-0.76473 0.70654-1.151-0.11306-1.4349-0.1998-2.1533 0.4793-2.4847 0.64574-0.31583 1.1873-0.12752 1.4001-0.020388 0.092673 0.046336 0.28098 0.13753 0.41999 0.29544 0.13901 0.15495 0.26504 0.38811 0.33585 0.68355 0.14494 0.59236-0.060793 0.39664 0.10416 1.0757 0.16236 0.67762 0.49228 1.0109 0.89485 1.5465 0.40405 0.53565 0.82404 1.4205 0.6906 1.9317"/>
  <path d="m7.7341 6.4055c0.10565-0.038922 0.088224-0.044853 0.1594-0.18979 0.056345-0.11158 0.10565-0.1594 0.10416-0.3288 0-0.16496-0.054862-0.22167-0.13753-0.33028-0.079698-0.10268-0.20573-0.10861-0.28654-0.095638-0.046336 0.00741-0.10565 0.062276-0.14642 0.14346-0.027431 0.054862-0.047819 0.12455-0.050784 0.19684-0.00445 0.19684 0.011491 0.2706 0.060793 0.40405 0.056345 0.15643 0.19387 0.23761 0.29692 0.1998" fill="#f9f9f9"/>
  <path d="m7.6359 5.7275c0.052267 0 0.11862 0.031879 0.15198 0.076733 0.034845 0.044853 0.057828 0.10861 0.057828 0.1809 0 0.10565-0.011491 0.22316-0.079698 0.25911-0.021871 0.00853-0.068207 0.021871-0.094155 0.021871-0.05931 0-0.065241-0.03781-0.12159-0.092673-0.020388-0.018905-0.078216-0.11603-0.078216-0.19535 0-0.049302-0.011491-0.1201 0.034845-0.18386 0.031879-0.046336 0.072285-0.068207 0.129-0.068207"/>
  <path d="m8.8302 6.4188c0.26653-0.025948 0.3592-0.12307 0.40702-0.29099 0.041888-0.14902 0.043371-0.31435-0.073767-0.5097-0.11158-0.18534-0.17534-0.21426-0.33585-0.22723-0.24762-0.018905-0.36476 0.14346-0.41999 0.25911-0.057828 0.12603-0.046336 0.10861-0.041888 0.26801 0.00445 0.16792 0.10416 0.21426 0.16496 0.31991 0.062276 0.1012 0.26949 0.18386 0.29841 0.18238" fill="#f9f9f9"/>
  <path d="m8.8087 5.72c0.13308 0 0.20981 0.11158 0.23613 0.25355 0.010009 0.065241-0.00445 0.13901-0.046336 0.19128-0.047819 0.060793-0.13308 0.095638-0.20128 0.095638-0.066724 0-0.13901 0.010009-0.17941-0.038922-0.038922-0.052267-0.046336-0.16496-0.046336-0.24762 0-0.09119 0.028914-0.15643 0.076733-0.20722 0.03781-0.03781 0.10416-0.046336 0.16088-0.046336"/>
 </g>
 <g fill="#676767" stroke-width=".47849">
  <path d="m8.8376 5.799c0.014457-0.012974 0.044854 0 0.076733 0.033362 0.036328 0.03781 0.03781 0.066724 0.00853 0.086741-0.025948 0.021871-0.038922-0.031879-0.056345-0.050784-0.031879-0.030397-0.057828-0.044854-0.030397-0.06969"/>
  <path d="m7.6488 5.8424c0.01594-0.023354 0.076733-0.012974 0.10009 0.033362 0.021871 0.046336 0.018905 0.14753 0.00297 0.15198-0.040405 0.012974-0.027431-0.043371-0.063759-0.092672-0.034845-0.047819-0.054862-0.06969-0.038922-0.092672"/>
  <path d="m8.1715 5.8813c0.031879-0.00853 0.062276-0.00741 0.11603 0.020388 0.047819 0.025948 0.025948 0.056345-0.025948 0.044854-0.049302-0.010009-0.038922-0.00853-0.076733-0.01594-0.063759-0.010009-0.073767-0.034845-0.012974-0.049302"/>
 </g>
 <g stroke-width=".47849">
  <path d="m8.018 7.1906c-0.2302 0.0085259-0.59385-0.59644-0.60385-0.34474-0.00593 0.21278 0.00593 0.2087 0.00593 0.41406 0 0.13753-0.066724 0.14902-0.21129 0.35623-0.07525 0.10861-0.13308 0.22723-0.17793 0.34771-0.028914 0.070802-0.054862 0.14494-0.076733 0.21871-0.00853 0.036328-0.024466 0.07525-0.034845 0.11158-0.070802 0.25059-0.33028 0.56048-0.3896 0.81107-0.060793 0.2491-0.13159 0.4085-0.12159 0.74138 0.00853 0.33436 0.011491 0.23761 0.11862 0.32139 0.10713 0.08266 0.21574 0.16088 0.38366 0.29989 0.17793 0.14754 0.54454 0.39664 0.59385 0.47634 0.052267 0.0797 0.052267 0.25763 0.020388 0.31583-0.031879 0.05635-0.30841 0.08822-0.30841 0.08822s0.24169 0.31694 0.29099 0.36068c0.046336 0.04337 0.24466 0.25355 1.0498 0.11158 0.45484-0.08266 0.80514-0.3199 1.0598-0.54862 0.3288-0.30248 0.16236-0.38811 0.20425-0.53861 0.062276-0.21871 0.26356-0.29989 0.30841-0.54603 0.0059-0.03485 0.01742-0.06079 0.05227-0.11603 0.05078-0.06969 0.03892-0.21722 0.03892-0.34771 0-0.34771-0.04189-0.69653-0.12752-0.95564-0.078215-0.24317-0.20128-0.41257-0.30693-0.63128-0.21129-0.43593-0.20128-0.63277-0.39108-0.91079-0.21426-0.32139-0.10861-0.53565-0.39516-0.52267-0.35623 0.018905-0.64426 0.47782-0.98159 0.49079" fill="#f9f9f9"/>
  <path d="m8.1396 6.0522c0.129-0.014457 0.30693 0.014457 0.38811 0.070802 0.07525 0.052267 0.129 0.081181 0.19832 0.1012 0.2302 0.070802 0.53565 0.10565 0.52119 0.30137-0.01594 0.23465-0.088224 0.33881-0.29544 0.40109-0.16644 0.047819-0.46336 0.31842-0.69208 0.31842-0.10268 0-0.24614 0.00593-0.3288-0.023353-0.079698-0.025949-0.19128-0.15198-0.32139-0.25355-0.13159-0.1012-0.25207-0.20981-0.25615-0.34882-0.005931-0.14642 0.097121-0.19535 0.24169-0.31435 0.07525-0.062276 0.21426-0.16792 0.30841-0.21278 0.088224-0.041888 0.14494-0.033362 0.23613-0.043371" fill="#ffcf33"/>
  <path d="m7.8427 6.2246c-0.00741 0.017422 0.047819 0.05375 0.076733 0.028914 0.030397-0.024466 0.065241-0.046336 0.076733-0.05375 0.05375-0.033362 0.034845-0.057828-0.056345-0.043371-0.088224 0.014457-0.088224 0.049302-0.098604 0.068207" fill="#995900"/>
  <path d="m11.543 10.288c0.1101 0.14902-3e-3 0.34474 0.07673 0.46336 0.1316 0.19535 0.39404 0.39404 0.49524 0.4489 0.07229 0.04189 0.17534 0.08118 0.17089 0.20128-0.0059 0.13901-0.07822 0.17534-0.11862 0.21278-0.08118 0.07673-0.49079 0.26801-0.76325 0.44149-0.34178 0.22019-0.4604 0.31842-0.57198 0.42296-0.17385 0.16347-0.33733 0.21871-0.60089 0.21871-0.26208 0-0.38218-0.05227-0.46188-0.1201-0.081181-0.06672-0.17237-0.23613-0.16347-0.48783 0.00741-0.25207 0.092673-0.4793 0.13308-0.87038 0.017422-0.16792 0.01594-0.37514 0.01594-0.559 0-0.23316 0.00445-0.43 0.056345-0.4604 0.095638-0.05635 0.11714-0.05931 0.2302-0.05931 0.11306 0 0.16348 0.0059 0.20128 0.04189 0.03485 0.03188 0.02039 0.10861 0.0085 0.21722-0.01001 0.10861 0.04485 0.14346 0.0986 0.18831 0.05486 0.04337 0.10416 0.0986 0.27653 0.11158 0.17385 0.01149 0.23761-0.01446 0.31842-0.06376 0.08118-0.04782 0.19535-0.13308 0.2391-0.18386 0.0404-0.04782 0.14197-0.21278 0.16088-0.21278 0.01594 0 0.13308-0.03892 0.19832 0.05078" fill="#ffcf33"/>
  <path d="m5.3784 10.543c-0.15791 0.10713-0.56197 0.0986-0.66465 0.22427-0.10009 0.12604 0.00445 0.30841 0.00148 0.64722 0 0.14494-0.025948 0.25355-0.043371 0.34178-0.025948 0.11158-0.041888 0.18979 0.00853 0.26949 0.09119 0.14049 0.23465 0.17682 1.0643 0.33881 0.44297 0.08674 0.86297 0.3099 1.1425 0.33288 0.28098 0.01891 0.34178-0.06969 0.51266-0.21129 0.1694-0.14346 0.22427-0.10009 0.21871-0.41258-0.0059311-0.31286-0.21871-0.40554-0.4604-0.76585-0.24169-0.36068-0.28098-0.42704-0.44149-0.66613-0.16088-0.23613-0.4793-0.66465-0.6602-0.6691-0.14494-0.00297-0.22575 0.06969-0.31694 0.15643-0.09119 0.08674-0.20128 0.30693-0.36068 0.41406" fill="#ffcf33"/>
 </g>
 <g fill="#676767" stroke-width=".47849">
  <path d="m10.082 8.1837c-0.0304-0.00148-0.04337 0.00853-0.03485 0.034845 0 0 0.24317 0.13308 0.46336 0.38218 0.0059 0.012974 0.24614 0.33585 0.19684 0.76473-0.0085 0.00741-0.02447 0.18979-0.04634 0.26653-0.05783 0.18238-0.13159 0.28803-0.0708 0.30137 0.05486 0.012974 0.20128-0.35327 0.19684-0.49821 0.05227-0.13604 0.05078-0.48227-0.08118-0.70654-0.044848-0.081181-0.088218-0.17941-0.11713-0.18535-0.18831-0.24169-0.41999-0.35772-0.5097-0.3592"/>
  <path d="m10.244 10.155c0.03781 0.03485 0.06969-0.05227 0.10713-0.08118 0.03633-0.02743 0.09712-0.088224 0.21574-0.088224 0.1201 0 0.11306-0.00445 0.10713-0.046336-0.0044-0.041888-0.03892-0.038923-0.14494-0.024466-0.10565 0.014457-0.17682 0.065241-0.21871 0.11306-0.0404 0.04337-0.08674 0.10713-0.06672 0.12752"/>
  <path d="m10.723 9.9359c0 0.052267 0.11306 0.070802 0.22427 0.086742 0.10713 0.01446 0.19387 0.03485 0.1998 0.14049 0.0044 0.10416-0.02335 0.17941 0.02595 0.17089 0.10565-0.01891 0.14346-0.12603 0.14346-0.17682 0-0.0493-0.07822-0.13901-0.21722-0.18831-0.10268-0.03781-0.17793-0.05375-0.26653-0.056345-0.12159-0.00593-0.1101 0.023354-0.1101 0.023354"/>
 </g>
 <path d="m7.472 6.7532c0.049302 0.031879 0.050785 0.036328 0.12159 0.081181 0.11454 0.086741 0.31583 0.10713 0.41406 0.1101 0.22723 0.033362 0.63277-0.16644 0.79216-0.25615 0.081181-0.056345 0.2302-0.17534 0.28654-0.17682 0.034845 0.034845-0.01594 0.040405-0.088224 0.086741-0.095638 0.065242-0.17682 0.1201-0.32287 0.19684-0.15495 0.076733-0.39404 0.20277-0.69949 0.18534-0.16088-0.021871-0.16236-0.023354-0.2606-0.070802-0.05931-0.038922-0.19387-0.10565-0.24317-0.15643" fill="#995900" stroke-width=".47849"/>
 <path d="m8.474 6.2335c0.00741 0.018905-0.047819 0.05375-0.076733 0.030397-0.030397-0.024465-0.065242-0.047819-0.078216-0.05375-0.05375-0.034845-0.033362-0.057828 0.056345-0.043371s0.089707 0.047819 0.098604 0.066724" fill="#995900" stroke-width=".47849"/>
</svg>
