<svg width="64" height="64" version="1.1" xmlns="http://www.w3.org/2000/svg">
 <path d="m59 32c0 14.912-12.089 27-27 27-14.912 0-27-12.089-27-27 0-14.912 12.089-27 27-27 14.912 0 27 12.089 27 27" fill="#557edb" fill-rule="evenodd" stroke="#375db5" stroke-width="2"/>
 <path d="m59 32c0 14.912-12.089 27-27 27-14.912 0-27-12.089-27-27 0-14.912 12.089-27 27-27 14.912 0 27 12.089 27 27" fill="#557edb" fill-rule="evenodd" stroke-width=".96429"/>
 <path d="m13.962 45.455c0-0.11917 17.289-33.006 17.868-33.99l0.40039-0.67932 0.43731 0.76732c0.24052 0.42202 2.0032 3.7772 3.917 7.456 1.9138 3.6788 5.773 11.075 8.576 16.437 3.9332 7.5231 5.0421 9.7822 4.8587 9.8984-0.1307 0.08279-1.7057 0.15178-3.5 0.1533l-3.2624 0.002654-0.96209-0.97556c-2.4137-2.4475-6.6325-4.5487-11.347-5.8505l-2.1122-0.58323 2.6403-0.13244c2.4803-0.12439 5.3369-0.04054 6.8667 0.20409 0.51131 0.08177 0.67267 0.04825 0.67267-0.13965 0-0.46427-6.5308-12.413-6.7848-12.413-0.1851 0-1.4917 2.2775-6.5638 11.441-2.4917 4.5017-4.544 8.2016-4.5609 8.222-0.0751 0.09112-7.1438 0.27078-7.1438 0.18156z" fill="#ffffff" stroke-width=".96429"/>
</svg>
