<svg xmlns="http://www.w3.org/2000/svg" width="64" height="64" viewBox="0 0 16.933 16.933"><g transform="translate(0 -280.067)"><rect ry=".794" rx=".794" y="281.654" x="1.588" height="13.758" width="13.758" opacity=".75" fill="none" stroke="#2454d8" stroke-width=".529" stroke-linecap="round" stroke-linejoin="round" paint-order="markers stroke fill"/><rect width="13.758" height="13.758" x="1.588" y="281.654" rx=".794" ry=".794" fill="#90a9ff" paint-order="markers stroke fill"/><rect width="10.054" height="1.323" x="3.44" y="292.767" ry=".265" opacity=".35" fill="#fff" paint-order="markers stroke fill"/><rect width="1.323" height="1.323" x="4.498" y="291.973" ry=".132" fill="#ccdfff" paint-order="stroke markers fill"/><rect ry=".132" y="291.973" x="6.703" height="1.323" width="1.323" fill="#ccdfff" paint-order="stroke markers fill"/><rect width="1.323" height="1.323" x="8.908" y="291.973" ry=".132" fill="#ccdfff" paint-order="stroke markers fill"/><rect ry=".132" y="291.973" x="11.113" height="1.323" width="1.323" fill="#ccdfff" paint-order="stroke markers fill"/><path d="M2.381 281.654a.792.792 0 0 0-.793.794v.264h13.758v-.264a.792.792 0 0 0-.794-.794z" opacity=".35" paint-order="markers stroke fill"/><rect ry=".265" y="281.919" x="7.12" height=".529" width="2.646" opacity=".35" paint-order="stroke markers fill"/></g></svg>