<svg width="64" height="64" version="1.1" viewBox="0 0 64 64" xmlns="http://www.w3.org/2000/svg">
 <path d="m32 5c14.912 0 27 12.088 27 27s-12.088 27-27 27-27-12.088-27-27 12.088-27 27-27z" fill="#01ade7" stroke="#0b85ad" stroke-width="2" style="paint-order:stroke markers fill"/>
 <path d="m32 5c14.912 0 27 12.088 27 27s-12.088 27-27 27-27-12.088-27-27 12.088-27 27-27z" fill="#01ade7"/>
 <path d="m27.754 20.261c0.09156-0.0047 0.15613 0.027 0.20661 0.10565 0.25239 0.44491-0.25239 1.8935 0.12796 2.646 0.38034 0.75716 0.38034 0.94499 3.4114 0.56817 3.031-0.38034 7.5799 0.94029 9.2257 2.5767 1.6411 1.6376 4.4843 5.7967 5.0536 8.1856 0.56817 2.3936 0.32048 2.518-0.44021 2.1412-0.75717-0.37565-1.3899-3.7095-5.8812-5.9165-4.489-2.2058-6.5762-0.44491-6.5762-0.44491s3.8563-0.50478 6.6994 1.8254c2.8479 2.329 4.6134 4.1544 4.5536 4.847-0.06456 0.6926-0.32047 0.56817-0.76069 0-0.44491-0.56347-3.0956-4.0312-6.2545-5.1593-3.1554-1.1328-4.4843-1.0682-5.6817-0.44021-1.2009 0.62804-1.458 1.2561 0.24769 1.701 1.7057 0.44021 2.403 0.25239 2.403 0.25239s-1.4533 1.3159-3.5334 1.3159c-2.086 0-3.348-0.12326-3.348-0.12326s-5.1816 5.3518-6.5116 6.4248c-1.3253 1.0682-2.7786 0.56817-2.7786-0.06456 0-0.62804 0.63273-2.3889 0.63273-2.3889s-1.3206-2.9618 0.19252-6.3003c1.5179-3.3339 5.6864-6.7957 5.6864-6.7957s0.44021-1.8888 1.3852-3.1461c0.77008-1.0225 1.5449-1.7925 1.9393-1.8113" fill="#ffffff" stroke-width="1.1739"/>
</svg>
