<svg xmlns="http://www.w3.org/2000/svg" width="64" height="64" version="1"><g transform="translate(4.19 6.677) scale(.83871)"><path d="M36.8.402a29.73 29.73 0 0 0-28.23 20.22h56.46A29.73 29.73 0 0 0 36.8.403zM8.564 20.64a29.664 29.664 0 0 0 0 0zM7.48 24.88a30.008 30.008 0 0 0-.397 3.194h59.433a30.007 30.007 0 0 0-.397-3.193zm58.639 0a29.664 29.664 0 0 0 0 0zM7.083 28.096a30.42 30.42 0 0 0 0 0zM7 30.201a30.42 30.42 0 0 0 0 0zm59.516-2.106a30.301 30.301 0 0 1 0 0zm.083 2.106a30.301 30.301 0 0 1 0 0zM7.083 32.33c.076 1.082.21 2.146.397 3.192h58.64c.187-1.046.321-2.11.397-3.192zm59.036 3.192a29.666 29.666 0 0 1 0 0zm-58.639 0a29.664 29.664 0 0 0 0 0zm1.09 4.257A29.73 29.73 0 0 0 36.8 60a29.73 29.73 0 0 0 28.23-20.22z" opacity=".75" fill="#4c3a91" stroke="#3c2e72" stroke-width="2.385"/><rect width="59.615" height="59.615" x="-60" y="-60.615" rx="29.808" ry="29.808" transform="matrix(0 -1 -1 0 0 0)" opacity=".75" fill="#f7941e" stroke="#ae6106" stroke-width="2.385"/><rect transform="matrix(0 -1 -1 0 0 0)" ry="29.808" rx="29.808" y="-60.615" x="-60" height="59.615" width="59.615" fill="#f7941e"/><path d="M36.8.402a29.73 29.73 0 0 0-28.23 20.22h56.46A29.73 29.73 0 0 0 36.8.403zM8.564 20.64zM7.48 24.88a30.008 30.008 0 0 0-.397 3.194h59.433a30.007 30.007 0 0 0-.397-3.193zm58.639 0zM7.083 28.096zM7 30.201zm59.516-2.106zm.083 2.106zM7.083 32.33c.076 1.082.21 2.146.397 3.192h58.64c.187-1.046.321-2.11.397-3.192zm59.036 3.192zm-58.639 0zm1.09 4.257A29.73 29.73 0 0 0 36.8 60a29.73 29.73 0 0 0 28.23-20.22z" fill="#4c3a91"/><path d="M16.957 40A19.6 19.6 0 0 0 35 52a19.6 19.6 0 0 0 18.035-12z" fill="#6e5dae"/><path d="M8.57 20.623a29.666 29.666 0 0 0-1.09 4.257h58.64a29.666 29.666 0 0 0-1.09-4.257zm-1.487 7.45C7.033 28.776 7 29.484 7 30.2c0 .717.034 1.425.083 2.129h59.433c.049-.704.083-1.412.083-2.129 0-.717-.034-1.425-.083-2.128zm.397 7.45c.261 1.459.625 2.88 1.09 4.256h56.46a29.666 29.666 0 0 0 1.089-4.257z" fill="#fff"/></g></svg>