<svg xmlns="http://www.w3.org/2000/svg" width="64" height="64"><rect ry="3" rx="3" y="6" x="6" height="52" width="52" opacity=".75" fill="#e6e6e6" stroke="#981414" stroke-width="2" stroke-linecap="round" stroke-linejoin="round" paint-order="markers stroke fill"/><rect width="52" height="52" x="6" y="6" rx="3" ry="3" fill="#e45656" paint-order="markers stroke fill"/><path style="marker:none" d="M37.217 6C19.493 21.231 9.367 23.381 6 23.618v5.474c2.542-.355 8.932-1.59 15.737-5.858C30.463 17.76 40.895 7.368 40.895 7.368 38.034 12.99 37.2 32.371 37.145 58h18.29A2.547 2.547 0 0 0 58 55.434c-3.39-7.003-5.606-17.128-7.27-26.17-1.42-10.79.677-20.225 1.454-23.264zM6 32.539V38.6c7.358 0 18.67 8.843 24.143 19.399h4.596C32.168 48.404 11.614 32.539 6 32.539z" color="#000" overflow="visible" opacity=".15" fill="#fff" stroke="#000"/><path d="M37.217 6C19.493 21.231 9.367 23.381 6 23.618v5.474c2.542-.355 8.932-1.59 15.737-5.858C30.463 17.76 40.895 7.368 40.895 7.368 38.034 12.99 37.2 32.371 37.145 58h18.29A2.547 2.547 0 0 0 58 55.434c-3.39-7.003-5.606-17.128-7.27-26.17-1.42-10.79.677-20.225 1.454-23.264zM6 32.539V38.6c7.358 0 18.67 8.843 24.143 19.399h4.596C32.168 48.404 11.614 32.539 6 32.539z" style="marker:none" color="#000" overflow="visible" fill="#fff"/></svg>