<svg xmlns="http://www.w3.org/2000/svg" width="64" height="64" viewBox="0 0 16.933 16.933"><g transform="translate(0 -280.067)"><rect width="11.642" height="13.229" x="2.646" y="282.183" ry=".529" rx=".529" opacity=".9" fill="#303030" fill-rule="evenodd" stroke="#080a0c" stroke-width=".529" stroke-linecap="square" paint-order="fill markers stroke"/><rect y="282.183" x="2.646" height="13.229" width="11.642" ry=".529" rx=".529" fill="#303030" fill-rule="evenodd" paint-order="fill markers stroke"/><path d="M3.142 282.448h10.65c.128 0 .23.109.23.244v12.212a.238.238 0 0 1-.23.244H3.141a.238.238 0 0 1-.232-.244v-12.212c0-.135.104-.244.232-.244z" opacity=".15" fill="#fff" paint-order="fill markers stroke"/><ellipse cx="8.467" cy="281.39" rx=".595" ry=".595" fill="none" stroke="#037ad9" stroke-width=".397" stroke-linejoin="bevel"/><path d="M3.704 282.713v11.112H9.79l3.44-3.44v-7.672z" fill="#fff" stroke="#000" stroke-width=".529" stroke-linecap="round" stroke-opacity=".098" paint-order="markers stroke fill"/><path d="M6.615 283.11s.264-1.588.793-1.588h2.117c.53 0 .794 1.587.794 1.587z" fill="#46a9ee" fill-rule="evenodd" stroke="#037ad9" stroke-width=".265"/><path d="M7.144 284.697h1.852m-3.44 1.058h.794m2.381 0h.794m-1.852 1.059h.794m-1.587 1.058h.793m-1.058 1.058h.793m-.793-3.175h.529m-1.588 1.059h1.852m.53 1.058H9.79m-3.705 0h.53m1.058 1.058h1.323m-3.44 0h.794m-.794-1.058h.265m1.587-2.117h.265m1.852 3.175h.53m-2.117-3.175h.264m.529 1.059h.265m.264 0h.265m.265-2.117h.529m-.529 6.35h1.322m-1.322-5.292h.529m0 1.059h1.323m-1.059 1.058h.265m.265 0h.264m-.794-2.117h.265m-3.704 4.234h.793m-1.057 1.058h.793m-2.117-1.058H6.88m2.645 0h1.852m-5.292 1.058h.53m-1.059 0h.265m2.381-1.058h.265m.264 0h.265m-1.058 1.058h.793m2.117-6.35h.53" fill-opacity=".961" fill-rule="evenodd" stroke="#878787" stroke-width=".265" stroke-opacity=".961"/><path d="M9.79 290.385h3.44l-3.44 3.44z" fill="#b3b3b3" paint-order="markers stroke fill"/></g></svg>