<svg xmlns="http://www.w3.org/2000/svg" width="64" height="64" viewBox="0 0 16.933 16.933"><g transform="translate(0 -280.067)"><rect width="12.965" height="13.494" rx=".529" ry=".529" x="1.984" y="281.786" style="marker:none" color="#000" overflow="visible" fill="#ff7643" stroke="#c83400" stroke-width=".265" stroke-linecap="round" stroke-linejoin="round" stroke-opacity=".706"/><rect width="12.7" height="1.323" x="2.117" y="293.825" rx=".397" ry=".397" fill-opacity=".098"/><path d="M8.25 284.566c-.256.005-.51.015-.676.04-.748.114-1.346.376-1.732.758a1.54 1.54 0 0 0-.419.72c-.045.174-.06.575-.013.729.157.539.529.953 1.23 1.37.298.175.528.291 1.19.59.795.357 1.037.501 1.15.68.044.073.06.11.054.197-.012.138-.081.207-.243.266-.109.038-.147.05-.352.05-.375-.004-.705-.074-1.163-.237a4.232 4.232 0 0 1-.906-.444c-.265-.173-.286-.18-.365-.138-.06.033-.492.418-.811.73-.208.203-.211.244-.068.384.142.14.54.435.758.562.236.139.395.217.662.315.448.166.824.235 1.528.295.16.013.732.015.933 0 1.102-.088 2.001-.448 2.474-.975.17-.187.272-.347.352-.572.078-.217.098-.646.04-.906-.095-.421-.348-.802-.757-1.123-.41-.322-.826-.536-1.825-.936-.698-.278-.96-.426-1.028-.581-.037-.083-.015-.23.04-.286.11-.111.322-.151.596-.118.51.063 1.166.297 1.744.62.112.062.22.114.243.119.094.024.15-.013.528-.444.463-.53.458-.509.203-.69-.76-.544-1.64-.86-2.65-.955a7.062 7.062 0 0 0-.717-.02z" fill="#fff"/></g></svg>