<svg width="64" height="64" version="1.1" viewBox="0 0 64 64" xmlns="http://www.w3.org/2000/svg">
 <circle cx="32" cy="32" r="27" fill="#9584f4" stroke="#7a67ea" stroke-width="2"/>
 <circle cx="32" cy="32" r="27" fill="#9584f4" stroke-width="1.1739"/>
 <circle cx="32" cy="32" r="23" fill="#fff" opacity=".15" stroke-width=".99999"/>
 <path d="m27.5 23.327c-4.3326 0-5.1429 6.4286-9.6429 6.4286-2.5714 0-2.5714-2.5714-3.8571-2.5714 0 3.8571 4.5 6.4286 8.3571 6.4286 6.4286 0 5.7856-3.8571 9.6429-3.8571s3.2143 3.8571 9.6429 3.8571c3.8571 0 8.3571-2.5714 8.3571-6.4286-1.2857 0-1.2857 2.5714-3.8571 2.5714-4.5 0-5.3103-6.4286-9.6429-6.4286-1.9286 0-1.9286 1.2857-4.5 1.2857s-2.5714-1.2857-4.5-1.2857zm4.5 12.857c-1.3553 0-3.8571-8.22e-4 -3.8571 1.2857 0 3.2143 2.5714 9 3.8571 9s3.8571-5.7857 3.8571-9c0-1.2865-2.5019-1.2857-3.8571-1.2857z" fill="#fff" fill-rule="evenodd" stroke-width="1.2857"/>
</svg>
