<svg width="64" height="64" version="1.1" viewBox="0 0 16.933 16.933" xmlns="http://www.w3.org/2000/svg">
 <g transform="translate(0 -280.07)">
  <path d="m3.175 282.45c-0.293 0-0.265 0.264-0.265 0.53h-1.058c-0.265 0-0.265 0-0.265 0.264v5.556c0 0.293 0.237 0.53 0.53 0.53h12.7a0.529 0.529 0 0 0 0.529-0.53v-5.556c0-0.265 0-0.265-0.265-0.265h-7.408c0-0.265 0.028-0.53-0.265-0.53z" fill="#fff" fill-opacity=".976" stroke="#000" stroke-opacity=".268" stroke-width=".529" style="paint-order:markers stroke fill"/>
  <path d="m3.175 282.45c-0.293 0-0.265 0.264-0.265 0.53h-1.058c-0.265 0-0.265 0-0.265 0.264v5.556c0 0.293 0.237 0.53 0.53 0.53h12.7a0.529 0.529 0 0 0 0.529-0.53v-5.556c0-0.265 0-0.265-0.265-0.265h-7.408c0-0.265 0.028-0.53-0.265-0.53z" fill="#fff" fill-opacity=".976" style="paint-order:markers stroke fill"/>
  <path d="m8.467 284.3c-0.293 0-0.382 0.276-0.53 0.53l-0.308 0.528h-6.835c-0.265 0-0.265 0.265-0.265 0.265v8.996c0 0.264 0.265 0.264 0.265 0.264h15.346c0.264 0 0.264-0.264 0.264-0.264v-10.054c0-0.265-0.264-0.265-0.264-0.265z" fill="none" stroke="#003779" stroke-opacity=".561" stroke-width=".529" style="paint-order:markers stroke fill"/>
  <path d="m8.467 284.3c-0.293 0-0.382 0.276-0.53 0.53l-0.308 0.528h-6.835c-0.265 0-0.265 0.265-0.265 0.265v8.996c0 0.264 0.265 0.264 0.265 0.264h15.346c0.264 0 0.264-0.264 0.264-0.264v-10.054c0-0.265-0.264-0.265-0.264-0.265z" fill="#6ba4e7" style="paint-order:markers stroke fill"/>
 </g>
 <path d="m8.4665 6.879-3.2245 3.2245 0.62837 0.6201 0.47955-0.47128v2.4473h1.5875v-1.3229c0-0.29224 0.23691-0.52916 0.52916-0.52916s0.52916 0.23691 0.52916 0.52916v1.3229h1.5875v-2.4473l0.47955 0.47128 0.62837-0.6201-0.90122-0.89295v-0.00825l-1.6784-1.6784zm1.3229 0.26458v0.32245l0.79373 0.78547v-1.1079z" color="#000000" fill-opacity=".55216" opacity=".35"/>
</svg>
