<svg width="64" height="64" version="1.1" viewBox="0 0 16.933 16.933" xmlns="http://www.w3.org/2000/svg">
 <g transform="translate(0,-280.07)">
  <path d="m3.175 282.45c-0.293 0-0.265 0.264-0.265 0.53h-1.058c-0.265 0-0.265 0-0.265 0.264v5.556c0 0.293 0.237 0.53 0.53 0.53h12.7a0.529 0.529 0 0 0 0.529-0.53v-5.556c0-0.265 0-0.265-0.265-0.265h-7.408c0-0.265 0.028-0.53-0.265-0.53z" fill="#ffffff" fill-opacity=".976" stroke="#000000" stroke-opacity=".268" stroke-width=".529" style="paint-order:markers stroke fill"/>
  <path d="m3.175 282.45c-0.293 0-0.265 0.264-0.265 0.53h-1.058c-0.265 0-0.265 0-0.265 0.264v5.556c0 0.293 0.237 0.53 0.53 0.53h12.7a0.529 0.529 0 0 0 0.529-0.53v-5.556c0-0.265 0-0.265-0.265-0.265h-7.408c0-0.265 0.028-0.53-0.265-0.53z" fill="#ffffff" fill-opacity=".976" style="paint-order:markers stroke fill"/>
  <path d="m8.467 284.3c-0.293 0-0.382 0.276-0.53 0.53l-0.308 0.528h-6.835c-0.265 0-0.265 0.265-0.265 0.265v8.996c0 0.264 0.265 0.264 0.265 0.264h15.346c0.264 0 0.264-0.264 0.264-0.264v-10.054c0-0.265-0.264-0.265-0.264-0.265z" fill="none" stroke="#003779" stroke-opacity=".561" stroke-width=".529" style="paint-order:markers stroke fill"/>
  <path d="m8.467 284.3c-0.293 0-0.382 0.276-0.53 0.53l-0.308 0.528h-6.835c-0.265 0-0.265 0.265-0.265 0.265v8.996c0 0.264 0.265 0.264 0.265 0.264h15.346c0.264 0 0.264-0.264 0.264-0.264v-10.054c0-0.265-0.264-0.265-0.264-0.265z" fill="#6ba4e7" style="paint-order:markers stroke fill"/>
 </g>
 <path d="m8.1601 7.6728v0.72128a1.6898 1.6893 0 0 0-0.65053 0.2691l-0.50926-0.50856-0.43427 0.43416 0.50926 0.50914a1.6898 1.6893 0 0 0-0.26975 0.64921h-0.72029v0.61492h0.72029a1.6898 1.6893 0 0 0 0.26916 0.65037l-0.50868 0.50797 0.43427 0.43532 0.50926-0.50914a1.6898 1.6893 0 0 0 0.65053 0.26968v0.71895h0.6139v-0.71895a1.6898 1.6893 0 0 0 0.65053-0.2691l0.5081 0.50856 0.43543-0.43532-0.50926-0.50797a1.6898 1.6893 0 0 0 0.26975-0.65037h0.71913v-0.61492h-0.71971a1.6898 1.6893 0 0 0-0.26916-0.64979l0.50926-0.50856-0.43543-0.43416-0.5081 0.50914a1.6898 1.6893 0 0 0-0.65053-0.26968v-0.72128zm0.30695 1.46a0.9225 0.92227 0 0 1 0.92144 0.92237 0.9225 0.92227 0 0 1-0.9226 0.92121 0.9225 0.92227 0 0 1-0.92144-0.92238 0.9225 0.92227 0 0 1 0.9226-0.92121z" opacity=".15" stroke-width="1.1249" style="paint-order:stroke markers fill"/>
</svg>
