<svg xmlns="http://www.w3.org/2000/svg" width="64" height="64" version="1"><rect transform="matrix(0 -1 -1 0 0 0)" ry="3.12" rx="3.12" y="-58" x="-58" height="52" width="52" fill="#e4453b" stroke-width="2" stroke="#971c15" opacity=".75"/><rect width="52" height="52" x="-58" y="-58" rx="3.12" ry="3.12" transform="matrix(0 -1 -1 0 0 0)" fill="#e4453b"/><path d="M22.104 15.73L15.36 45.312h5.48l3.184-12.941h14.96l-14.01 11.693 3.654 4.206 1.87-.963c3.538-1.819 5.022-.755 7.706-.01 2.612.724 5.066 1.5 10.16-1.436l-1.012-5.181c-5.558 3.952-7.317.426-11.275.286l11.333-8.85 1.23-4.367H24.9l1.528-7.396h15.56l1.067-4.62H22.106z" fill="#fff"/></svg>