<svg width="64" height="64" version="1.1" xmlns="http://www.w3.org/2000/svg">
 <rect x="4.9995" y="5" width="54" height="54" rx="27" fill="#8f3380" stroke="#66225b" stroke-width="2"/>
 <rect x="4.9995" y="5" width="54" height="54" rx="27" fill="#8f3380" stroke-opacity=".55027" stroke-width="2.8"/>
 <path d="m31.704 13.622c-3.6315-0.01658-6.7451 0.65741-9.5766 2.0751-0.94261 0.47193-1.0893 0.63747-1.0283 1.147 0.12462 1.0399 0.66154 1.1408 2.2518 0.42715 2.9564-1.3267 4.3948-1.6096 8.1238-1.6137 4.2798-0.0035 5.8558 0.36307 9.3656 2.1805 0.60303 0.31184 2.5122 1.7855 3.2247 0.99405 0.70571-0.70567 0.33284-1.2897-1.4845-2.3229-3.584-2.0377-6.7154-2.8675-10.876-2.8872zm-0.11074 4.203c-4.7914-0.0036-9.5799 1.8895-13.091 5.6822-1.3584 1.4672-2.9426 3.8721-2.9426 4.4666 0 0.69328 0.28586 1.0758 0.80419 1.0758 0.4063 0 0.81972-0.43833 1.8035-1.9169 2.2002-3.3068 5.0526-5.5004 8.7275-6.7131 2.85-0.9302 6.1875-0.82251 9.3946 0 4.1411 1.3612 7.6937 4.3936 9.6398 8.2292 0.42348 0.83461 0.6768 1.089 1.0916 1.089 0.71438 0 1.1338-0.53162 0.93867-1.1918-0.31466-1.0648-1.9933-3.6449-3.2643-5.0177-3.5162-3.7981-8.3105-5.6996-13.102-5.7032zm0.22676 4.1739c-1.0212-0.01774-2.0574 0.07888-3.0928 0.29531-4.9202 1.0285-9.0327 5.0132-10.349 10.027-0.69861 2.6608-0.37746 7.0072 0.7752 10.484 0.34448 1.0389 0.51079 1.2556 1.0046 1.3131 1.1353 0.13195 1.2463-0.4084 0.56689-2.758-1.944-6.7231-0.27036-12.443 4.551-15.561 4.7667-3.0835 11.323-2.1709 15.052 2.0936 2.3377 2.6723 3.6199 7.1925 2.5998 9.1653-0.67388 1.3032-2.3147 2.0864-3.6624 1.7481-0.98491-0.24718-2.1524-1.4576-2.3019-2.3863-0.5274-3.2771-1.2718-4.5596-3.1562-5.4369-1.6074-0.74843-2.9472-0.72777-4.5247 0.07119-1.4697 0.74447-2.5959 2.2471-2.8239 3.7678-0.08227 0.54803-0.0461 1.7339 0.08174 2.6341 0.79518 5.6067 4.8065 10.042 10.315 11.406 0.69274 0.17152 1.8253 0.29271 2.518 0.26895l1.2603-0.04219c0.71192-0.36138 0.75088-1.1931 0-1.6031l-1.7824-0.27158c-2.2434-0.34186-3.1724-0.63746-4.7145-1.5055-3.3534-1.8878-5.756-5.9801-5.756-9.8033 0-1.6848 0.63792-2.669 2.1252-3.2854 1.0747-0.44539 1.0901-0.44539 2.1647 0 1.36 0.56365 2.0147 1.507 2.1832 3.1404 0.30939 2.9977 2.3896 4.9702 5.2418 4.9702 2.2891 0 4.2158-1.4854 4.899-3.7758 0.66872-2.2415-0.22901-6.0063-2.1146-8.8699-2.499-3.7951-6.6357-6.0087-11.061-6.0855zm-0.14766 4.3427c-1.4253 0.01804-2.891 0.28103-4.0921 0.74883-1.8522 0.90709-3.6171 2.7186-4.5299 4.6459-0.69464 1.4665-0.73607 1.6948-0.73564 4.1845 5.13e-4 3.063 0.37118 4.6902 1.6902 7.4408 1.1365 2.3702 2.7111 4.4373 4.4613 5.8535 1.5171 1.2275 1.6782 1.2871 2.3097 0.8253 0.64654-0.47273 0.28593-1.2845-1.0204-2.2861-1.4164-1.0859-2.9462-3.0501-3.9789-5.11-1.6961-3.3834-2.1234-7.565-1.0178-9.959 0.8024-1.7374 2.0259-3.0334 3.5859-3.7996 1.8743-0.92043 4.612-0.92043 6.4863 0 2.2371 1.0986 3.6674 3.0989 4.1739 5.8429 0.30229 1.638 0.7599 2.1824 1.4581 1.7323 0.32353-0.20855 0.39397-0.55606 0.36386-1.8035-0.07314-3.0324-2.1978-6.077-5.3024-7.6017-1.0422-0.50711-2.427-0.73258-3.8522-0.71456z" fill="#ffffff"/>
 <path d="m38.007 44.771c-3.9131-0.8536-6.9293-4.3012-7.2679-8.3078-0.10706-1.2663-0.06993-1.4336 0.36848-1.6683 0.83522-0.447 1.3179 0.02228 1.485 1.4436 0.42007 3.574 3.0465 6.2695 6.5799 6.7527 1.7287 0.23642 2.2847 0.90013 1.4518 1.733-0.41703 0.41703-0.88154 0.42533-2.6171 0.04684z" fill="#ffffff"/>
</svg>
