<svg width="64" height="64" version="1.1" viewBox="0 0 64 64" xmlns="http://www.w3.org/2000/svg">
 <defs>
  <linearGradient x2="0" y1="47" y2="1" gradientUnits="userSpaceOnUse">
   <stop stop-color="#96ae7c" offset="0"/>
   <stop stop-color="#a0b688" offset="1"/>
  </linearGradient>
 </defs>
 <path d="m32 5c14.912 0 27 12.088 27 27s-12.088 27-27 27-27-12.088-27-27 12.088-27 27-27z" fill="#aecc8f" stroke="#85a762" stroke-width="2"/>
 <path d="m32 5c14.912 0 27 12.088 27 27s-12.088 27-27 27-27-12.088-27-27 12.088-27 27-27z" fill="#aecc8f" stroke-width="1.1739"/>
 <path d="m17.913 16.739c-0.65035 0-1.1739 0.52356-1.1739 1.1739v28.174c0 0.65035 0.52356 1.1739 1.1739 1.1739h28.174c0.65035 0 1.1739-0.52356 1.1739-1.1739v-28.174c0-0.65035-0.52356-1.1739-1.1739-1.1739zm1.1739 2.3478h4.6957v4.6957h-4.6957zm7.0435 0h4.6957v4.6957h-4.6957zm7.0435 0h4.6957v4.6957h-4.6957zm7.0435 0h4.6957v4.6957h-4.6957zm-21.13 21.13h4.6957v4.6957h-4.6957zm7.0435 0h4.6957v4.6957h-4.6957zm7.0435 0h4.6957v4.6957h-4.6957zm7.0435 0h4.6957v4.6957h-4.6957z" fill="#464646" stroke-width="1.1739"/>
 <path d="m20.261 35.522v-7.0435c1.9158 0 1.8747 4.6957 3.9127 4.6957s1.8759-4.6957 3.9138-4.6957 1.8747 4.6957 3.9127 4.6957 1.8747-4.6957 3.9127-4.6957 1.8747 4.6957 3.9127 4.6957 2.0708-4.6957 3.9138-4.6957v7.0435z" fill="#ffffff" stroke-width="1.1739"/>
</svg>
