<svg width="64" height="64" version="1" xmlns="http://www.w3.org/2000/svg">
 <rect x="4" y="4" width="56" height="56" rx="28" ry="28" fill="#b86b00"/>
 <rect x="5" y="5" width="54" height="54" rx="27" ry="27" fill="#f18d00" stroke-width=".96429"/>
 <path d="m51.997 25.937c-3.7479-15.845-18.144-15.712-26.836-11.576-9.1471 4.6229-15.771 16.472-12.158 26.394 5.5837 14.968 26.138 14.744 33.094 0.82399 2.064-5.1039 3.5799-8.7279-2.098-13.578v5.9999l-2-3.9999s-1.7751 4.1959-3.6607 6.1097c-2.624 2.662-6.3399 1.89-6.3399 1.89 0.70139 2.6514 5.9999 3.9999 5.9999 3.9999-13.755 6.5099-14.157-4.3701-14-6.9999 0.45139-7.5687 6.5365-13.443 14.553-13.021 2.556 0.196 7.4459 2.022 7.4459 2.022-1.84-4.2101-4.4599-5.2119-5.9999-5.9999 6.0367-1.9961 9.2587 4.3057 12 7.9343z" fill="#fff" fill-rule="evenodd"/>
</svg>
