<svg width="64" height="64" version="1.0" xmlns="http://www.w3.org/2000/svg" xmlns:xlink="http://www.w3.org/1999/xlink">
 <rect x="5" y="5" width="54" height="54" rx="5" ry="5" fill="#c19017" stroke-width=".51923"/>
 <g stroke-width=".5">
  <rect x="6" y="6" width="52" height="52" rx="4.3605" ry="4.3605" fill="#f6ba29" fill-opacity=".96863"/>
  <rect x="6" y="6" width="52" height="38" rx="4" ry="4" fill="#f9f06b"/>
  <rect x="9" y="9" width="46" height="32" rx="1" ry="1" fill="#f7bc2c"/>
 </g>
 <rect x="10" y="21" width="44" height="20" rx=".95652" ry="1" fill="#d89a08" stroke-width=".48901"/>
 <path d="m12.052 14.028a1.0405 1.09 0 0 0-1.0405 1.09l-0.011454 25.882h8.5909v4h24.818v-4h8.5909l-0.02625-25.881a1.0405 1.09 0 0 0-1.0405-1.09h-28.581z" opacity=".15" stroke-width=".4885"/>
 <path d="m13.002 15a0.99091 1.0558 0 0 0-0.99091 1.0558l-0.010909 25.07h8.1818v3.8745h23.636v-3.8745h8.1818l-0.025-25.069a0.99091 1.0558 0 0 0-0.99091-1.0558h-27.22z" fill="#f6f5f4" stroke-width=".46919"/>
 <path d="m31.814 26.42c-2 0-3.9992 0.71408-5.5312 2.1426l-14.281 10.061-0.001953 2.377h40l-0.001953-2.375-14.65-10.062c-1.5325-1.4285-3.5318-2.1426-5.5312-2.1426h-0.001953z" opacity=".08" stroke-width=".5"/>
 <path d="m31.823 27.42c-1.9091 0-3.8182 0.7145-5.2805 2.143l-15.531 11.46 7.9885-0.023v5h26v-5h8l-15.896-11.437c-1.4628-1.4285-3.3719-2.143-5.2805-2.143z" fill="#f0f0ee" stroke-width=".4885"/>
 <path d="m13.002 15a0.99091 1.0558 0 0 0-0.99023 1.0566v0.02539l14.988 15.691a6.9784 7.215 0 0 0 9.9785 0l14.996-15.699v-0.01758a0.99091 1.0558 0 0 0-0.99023-1.0566h-27.221z" opacity=".12" stroke-width=".49173"/>
 <path d="m13.002 15a0.99091 1.0558 0 0 0-0.67578 0.28516l14.74 15.443a6.9481 7.279 0 0 0 9.8477 0l14.742-15.445a0.99091 1.0558 0 0 0-0.67188-0.2832h-27.221z" fill="#f6f5f4" stroke-width=".4885"/>
 <path d="m19 48v3.5c0 1.108 0.892 2 2 2h22c1.108 0 2-0.892 2-2v-3.5c0 1.108-0.892 2-2 2h-22c-1.108 0-2-0.892-2-2z" fill="#f9f06b" stroke-width=".5"/>
 <path d="m45 46v2c0 1.108-0.892 2-2 2h-22c-1.108 0-2-0.892-2-2v-2z" fill="#c0bfbc" stroke-width=".5"/>
 <path d="m10 9c-0.554 0-1 0.446-1 1v30c0 0.554 0.446 1 1 1h1.043l-0.03125 0.02345 7.9883-0.02345v5 2c0 1.108 0.892 2 2 2h22c1.108 0 2-0.892 2-2v-2-5h8 1c0.554 0 1-0.446 1-1v-30c0-0.554-0.446-1-1-1zm1 1h42c0.554 0 1 0.446 1 1v28c0 0.554-0.446 1-1 1h-9v8c0 0.554-0.446 1-1 1h-22c-0.554 0-1-0.446-1-1v-8h-9c-0.554 0-1-0.446-1-1v-28c0-0.554 0.446-1 1-1z" opacity=".15" stroke-width=".4885"/>
</svg>
