<svg width="64" height="64" version="1.1" viewBox="0 0 64 64" xmlns="http://www.w3.org/2000/svg">
 <path d="m32 5c14.912 0 27 12.088 27 27s-12.088 27-27 27-27-12.088-27-27 12.088-27 27-27z" fill="#e85656" stroke="#bb3131" stroke-width="2" style="paint-order:stroke fill markers"/>
 <path d="m32 5c14.912 0 27 12.088 27 27s-12.088 27-27 27-27-12.088-27-27 12.088-27 27-27z" fill="#e85656"/>
 <path d="m32 16.739a15.261 15.261 0 0 0-12.062 5.9749 3.5217 3.5217 0 0 0-0.85062-0.10546 3.5217 3.5217 0 0 0-3.5217 3.5217 3.5217 3.5217 0 0 0 1.5087 2.8797 15.261 15.261 0 0 0-0.33475 2.9898 15.261 15.261 0 0 0 15.261 15.261c7.0434 0 13.38-1.1739 15.261-2.3478-3.3597-1.0847-2.1718-4.6956-1.1693-7.0434l-0.04585 0.02981a15.261 15.261 0 0 0 1.2152-5.8993 15.261 15.261 0 0 0-0.30035-3.015 3.5217 3.5217 0 0 0 1.4743-2.8545 3.5217 3.5217 0 0 0-3.5217-3.5217 3.5217 3.5217 0 0 0-0.80934 0.10317 15.261 15.261 0 0 0-12.104-5.9727z" fill="#ffffff" stroke-width="1.1739"/>
 <ellipse transform="matrix(.95289 -.30331 .22003 .97549 0 0)" cx="29.9" cy="37.286" rx="3.5334" ry="4.6862" fill="#303030" stroke-width="1.1739"/>
 <ellipse transform="matrix(-.95289 -.30331 -.22003 .97549 0 0)" cx="-32.765" cy="17.802" rx="3.5334" ry="4.6862" fill="#303030" stroke-width="1.1739"/>
</svg>
