<svg width="64" height="64" version="1.1" viewBox="0 0 16.933 16.933" xmlns="http://www.w3.org/2000/svg">
 <g transform="translate(0 -280.07)" paint-order="markers stroke fill">
  <path d="M2.381 284.83h12.171c.44 0 .794.353.794.793v8.467c0 .44-.354.793-.794.793H2.382a.792.792 0 0 1-.795-.793v-8.467c0-.44.355-.794.794-.794z" fill="#9f3129" opacity=".75" stroke="#b23b36" stroke-width=".529"/>
  <path d="M2.381 284.83h12.171c.44 0 .794.353.794.793v8.467c0 .44-.354.793-.794.793H2.382a.792.792 0 0 1-.795-.793v-8.467c0-.44.355-.794.794-.794z" fill="#9f3129"/>
  <rect x="2.646" y="282.18" width="11.642" height="8.996" ry=".794" fill="#fff" stroke="#000" stroke-opacity=".137" stroke-width=".529"/>
  <rect x="2.646" y="282.18" width="11.642" height="8.996" ry=".794" fill="#fff"/>
  <path d="M15.181 285.143a.788.788 0 0 1 .165.48v8.467c0 .44-.354.793-.794.793H2.382a.788.788 0 0 1-.531-.206z" fill="#f4685c"/>
  <path d="M1.752 285.143a.788.788 0 0 0-.165.48v8.467c0 .44.355.793.794.793h12.171a.79.79 0 0 0 .53-.206z" fill="#ff7a6e"/>
 </g>
</svg>
