<svg xmlns="http://www.w3.org/2000/svg" width="64" height="64" viewBox="0 0 16.933 16.933"><g transform="translate(0 -280.067)" paint-order="stroke markers fill"><rect ry=".571" y="281.39" x="1.852" height="14.287" width="13.229" opacity=".75" fill="#549bff" stroke="#0b48a9" stroke-width=".529"/><g transform="matrix(1.04167 0 0 1.08 -.353 -23.082)" stroke-width=".961"><rect ry=".529" y="281.919" x="2.117" height="13.229" width="12.7" fill="#549bff"/><path d="M2.646 281.919a.528.528 0 0 0-.53.529v5.045a9.26 9.26 0 0 0 8.467 5.538 9.26 9.26 0 0 0 4.234-1.027v-9.556a.528.528 0 0 0-.53-.53z" opacity=".1" fill="#00f"/><path d="M2.646 281.919a.528.528 0 0 0-.53.529v12.17c0 .294.237.53.53.53h5.909a10.583 10.583 0 0 0 6.262-5.472v-7.228a.528.528 0 0 0-.53-.53z" opacity=".1" fill="#00f"/></g><path d="M5.292 284.035a3.175 3.175 0 0 0 3.175 3.175 3.175 3.175 0 0 0 3.175-3.175h-.794a2.381 2.381 0 0 1-2.381 2.382 2.381 2.381 0 0 1-2.382-2.382h-.793z" fill="#fff"/></g></svg>