<svg xmlns="http://www.w3.org/2000/svg" width="64" height="64" version="1"><circle r="27" cy="32" cx="32" opacity=".75" fill="#71bc42" stroke="#4c812b" stroke-width="2" stroke-linecap="round" stroke-linejoin="round" paint-order="markers stroke fill"/><circle cx="32" cy="32" r="27" fill="#71bc42" paint-order="markers stroke fill"/><path d="M24 17v3h-2.667A1.33 1.33 0 0 0 20 21.333v24.382a1.33 1.33 0 0 0 1.333 1.333h21.334A1.33 1.33 0 0 0 44 45.715V21.333A1.33 1.33 0 0 0 42.667 20H40v-3z" fill="#fff" stroke-width="2" stroke="#070c04" opacity=".15"/><path d="M24 17v3h-2.667A1.33 1.33 0 0 0 20 21.333v24.382a1.33 1.33 0 0 0 1.333 1.333h21.334A1.33 1.33 0 0 0 44 45.715V21.333A1.33 1.33 0 0 0 42.667 20H40v-3z" fill="#fff"/><path d="M23 23v5h18v-5zm0 8v5h18v-5zm0 8v5h18v-5z" fill="#c0f957"/></svg>