<svg width="64" height="64" version="1.1" viewBox="0 0 16.933 16.933" xmlns="http://www.w3.org/2000/svg">
 <path d="M8.466 1.323a7.143 7.143 0 0 0-7.143 7.144 7.143 7.143 0 0 0 7.143 7.143c1.972 0 1.602-1.64 2.1-2.264.374-.47.89-.957 1.488-1.02.698-.075 1.056.24 1.607.225.846-.021 1.45-.683 1.776-1.568.206-.557.171-2.023.171-2.516a7.143 7.143 0 0 0-7.142-7.144zm4.665 7.701a1.099 1.099 0 1 1 0 2.198 1.099 1.099 0 0 1 0-2.198z" fill="#fff" stroke="#000" stroke-opacity=".19608" stroke-width=".52916" paint-order="stroke markers fill"/>
 <path d="M8.466 1.323a7.143 7.143 0 0 0-7.143 7.144 7.143 7.143 0 0 0 7.143 7.143c1.972 0 1.602-1.64 2.1-2.264.374-.47.89-.957 1.488-1.02.698-.075 1.056.24 1.607.225.846-.021 1.45-.683 1.776-1.568.206-.557.171-2.023.171-2.516a7.143 7.143 0 0 0-7.142-7.144zm4.665 7.701a1.099 1.099 0 1 1 0 2.198 1.099 1.099 0 0 1 0-2.198z" fill="#fff" paint-order="stroke markers fill"/>
 <g stroke-width=".944">
  <path d="M4.763 11.812s1.426.388 2.126-.013c.701-.4.876-1.076.626-1.639s-.613-.638-1.126-.625c-.513.012-1.013.2-1.114.7-.1.5.1.901-.062 1.227-.163.325-.45.35-.45.35z" fill="#ff8e3d"/>
  <path d="M6.012 10.862c.933.065 1.47-.655 1.298-.978-.172-.323-.422-.366-.774-.359-.353.008-.697.115-.766.402-.069.287-.098.448.009.9a.709.709 0 0 1 .484-.32c-.031.124-.138.237-.25.355z" fill="#ffd13d"/>
  <path d="M12 5.866l-3.95 4.196c-.181.194-.456.232-.593.095l-.493-.495c-.136-.137-.1-.406.094-.588l4.2-3.95c.194-.182.45-.23.587-.092l.247.247c.137.137.09.393-.093.587z" fill="#333" paint-order="stroke markers fill"/>
 </g>
</svg>
