<svg width="64" height="64" version="1.1" viewBox="0 0 16.933 16.933" xmlns="http://www.w3.org/2000/svg">
 <defs>
  <linearGradient id="bg" x2="0" y1="1" y2="47" gradientTransform="matrix(.26458 0 0 .26458 13.457 -2.8214)" gradientUnits="userSpaceOnUse">
   <stop stop-color="#bf1f59" offset="0"/>
   <stop stop-color="#ae1c51" offset="1"/>
  </linearGradient>
 </defs>
 <rect transform="scale(1,-1)" x="1.3229" y="-15.61" width="14.287" height="14.287" rx="7.1436" ry="7.1436" color="#000000" fill="#bb1e57" overflow="visible" stroke="#871c44" stroke-linecap="round" stroke-linejoin="round" stroke-width=".52916"/>
 <rect transform="scale(1,-1)" x="1.3229" y="-15.61" width="14.287" height="14.287" rx="7.1436" ry="7.1436" color="#000000" fill="#bb1e57" overflow="visible" stroke-width="1.0385"/>
 <g transform="translate(0 -280.07)">
  <path d="M6.218 285.094a2.249 2.249 0 0 0-2.16 2.872l-.332 2.594a.697.697 0 0 0-.022.17c0 .394.328.713.733.713a.74.74 0 0 0 .563-.258v.001l1.437-1.61a2.244 2.244 0 0 0 1.021-.359h2.017c.306.203.657.322 1.021.359l1.437 1.61a.74.74 0 0 0 .563.258c.405 0 .733-.32.733-.714a.694.694 0 0 0-.022-.17l-.332-2.594a2.249 2.249 0 0 0-2.159-2.873H6.218z" fill="#fff"/>
  <path d="M10.848 285.887a.397.397 0 0 0-.397.397.397.397 0 0 0 .397.397.397.397 0 0 0 .397-.397.397.397 0 0 0-.397-.397z" fill="#27ae60"/>
  <path d="M10.054 286.681a.397.397 0 0 0-.397.397.397.397 0 0 0 .397.397.397.397 0 0 0 .397-.397.397.397 0 0 0-.397-.397z" fill="#f36137"/>
  <path d="M11.642 286.681a.397.397 0 0 0-.397.397.397.397 0 0 0 .397.397.397.397 0 0 0 .397-.397.397.397 0 0 0-.397-.397z" fill="#f05242"/>
  <path d="M10.848 287.475a.397.397 0 0 0-.397.397.397.397 0 0 0 .397.397.397.397 0 0 0 .397-.397.397.397 0 0 0-.397-.397z" fill="#2980b9"/>
  <circle cx="6.085" cy="286.95" r=".794" fill="#f88e45" paint-order="stroke markers fill"/>
  <path d="M7.144 288.533a.53.53 0 0 0-.53.53.53.53 0 0 0 .53.529.53.53 0 0 0 .529-.53.53.53 0 0 0-.53-.529zm2.646 0a.53.53 0 0 0-.53.53.53.53 0 0 0 .53.529.53.53 0 0 0 .529-.53.53.53 0 0 0-.53-.529z" fill="#666" stroke="#e1e1e1" stroke-linecap="square" stroke-width=".529" paint-order="markers stroke fill"/>
 </g>
</svg>
