<svg xmlns="http://www.w3.org/2000/svg" width="64" height="64" viewBox="0 0 16.933 16.933"><g transform="translate(0 -280.067)"><rect ry=".857" rx=".857" y="281.39" x="1.323" height="14.287" width="14.287" opacity=".9" fill="#4d4d4d" stroke="#000" stroke-width=".529" stroke-linecap="round" stroke-linejoin="round" paint-order="markers stroke fill"/><rect width="14.287" height="14.287" x="1.323" y="281.39" rx=".857" ry=".857" fill="#4d4d4d" paint-order="markers stroke fill"/><rect rx=".529" ry=".529" height="3.175" width="3.175" y="282.977" x="2.91" fill="#fff"/><rect x="6.879" y="282.977" width="3.175" height="3.175" ry=".529" rx=".529" fill="#999"/><rect rx=".529" ry=".529" height="3.175" width="3.175" y="282.977" x="10.848" fill="#fff"/><rect x="2.91" y="286.946" width="3.175" height="3.175" ry=".529" rx=".529" fill="#999"/><rect rx=".529" ry=".529" height="3.175" width="3.175" y="286.946" x="6.879" fill="#fff"/><rect x="10.848" y="286.946" width="3.175" height="3.175" ry=".529" rx=".529" fill="#999"/><rect rx=".529" ry=".529" height="3.175" width="3.175" y="290.915" x="2.91" fill="#fff"/><rect x="6.879" y="290.915" width="3.175" height="3.175" ry=".529" rx=".529" fill="#999"/><rect rx=".529" ry=".529" height="3.175" width="3.175" y="290.915" x="10.848" fill="#fff"/></g></svg>