<svg xmlns="http://www.w3.org/2000/svg" width="64" height="64" viewBox="0 0 16.933 16.933"><g transform="translate(0 -280.067)"><rect ry=".825" rx=".825" y="281.654" x="1.588" height="13.758" width="13.758" opacity=".75" fill="#4d4d4d" stroke="#000" stroke-width=".529" stroke-linecap="round" stroke-linejoin="round" paint-order="markers stroke fill"/><rect width="13.758" height="13.758" x="1.588" y="281.654" rx=".825" ry=".825" fill="#4d4d4d" paint-order="markers stroke fill"/><g stroke-width="1.158"><path d="M4.354 284.42v8.226h8.226v-8.226zm1.237.914h5.752l-1.371 1.371h-3.01l-1.371-1.37zm-.323.325l1.37 1.37v3.01l-1.37 1.372v-5.752zm6.398 0v5.752l-1.371-1.371v-3.01l1.37-1.371zm-4.57 1.503h2.742v2.742H7.096zm-.134 3.2h3.01l1.37 1.37h-5.75l1.37-1.37z" fill="#c4c4c4"/><path d="M4.81 283.506a1.371 1.371 0 0 0-1.37 1.371 1.371 1.371 0 0 0 1.37 1.371 1.371 1.371 0 0 0 1.372-1.37 1.371 1.371 0 0 0-1.371-1.372zm7.313 0a1.371 1.371 0 0 0-1.371 1.371 1.371 1.371 0 0 0 1.37 1.371 1.371 1.371 0 0 0 1.372-1.37 1.371 1.371 0 0 0-1.371-1.372zm-5.256 2.742a.686.686 0 0 0-.685.686.686.686 0 0 0 .685.685.686.686 0 0 0 .686-.685.686.686 0 0 0-.686-.686zm3.2 0a.686.686 0 0 0-.686.686.686.686 0 0 0 .685.685.686.686 0 0 0 .686-.685.686.686 0 0 0-.686-.686zm-3.2 3.2a.686.686 0 0 0-.685.685.686.686 0 0 0 .685.685.686.686 0 0 0 .686-.685.686.686 0 0 0-.686-.686zm3.2 0a.686.686 0 0 0-.686.685.686.686 0 0 0 .685.685.686.686 0 0 0 .686-.685.686.686 0 0 0-.686-.686zm-5.256 1.37a1.371 1.371 0 0 0-1.371 1.371 1.371 1.371 0 0 0 1.37 1.371 1.371 1.371 0 0 0 1.372-1.37 1.371 1.371 0 0 0-1.371-1.372zm7.312 0a1.371 1.371 0 0 0-1.371 1.371 1.371 1.371 0 0 0 1.37 1.371 1.371 1.371 0 0 0 1.372-1.37 1.371 1.371 0 0 0-1.371-1.372z" fill="#fff"/></g></g></svg>