<svg width="64" height="64" version="1.1" viewBox="0 0 16.933 16.933" xmlns="http://www.w3.org/2000/svg">
 <defs>
  <linearGradient id="a" x1="301" x2="104" y1="33.559" y2="33.559" gradientTransform="translate(-.53 279.27) scale(.06615)" gradientUnits="userSpaceOnUse">
   <stop stop-color="#f9f06b" offset="0"/>
   <stop stop-color="#f9f06b" stop-opacity="0" offset="1"/>
  </linearGradient>
 </defs>
 <g transform="matrix(.5 0 0 .5 0 -132.62)" stroke-width="2">
  <rect x="2.117" y="269.48" width="29.633" height="25.4" rx="2.117" ry="2.363" fill="#f6f5f4" opacity=".25" stroke="#212121" stroke-width="1.058"/>
  <rect x="2.117" y="269.48" width="29.633" height="25.4" rx="2.117" ry="2.3632" fill="#f6f5f4" stroke-width="2"/>
  <rect x="3.175" y="270.54" width="24.342" height="23.282" rx="1.058" ry="1.2255" fill="#241f31" stroke-width="2"/>
  <path d="m4.233 292.77h22.225v-21.166h-22.225z" fill="#fff" opacity=".1" stroke-width="2"/>
  <path d="m5.82 271.6v2.6446h-1.586v0.53h1.588v2.116h-1.589v0.53h1.588v2.116h-1.588v0.53h1.588v2.116h-1.588v0.53h1.588v2.116h-1.588v0.529h1.588v2.117h-1.588v0.529h1.588v2.116h-1.588v0.53h1.588v2.1166h0.529v-2.1166h2.117v2.1166h0.529v-2.1166h2.117v2.1166h0.529v-2.1166h2.116v2.1166h0.53v-2.1166h2.116v2.1166h0.53v-2.1166h2.116v2.1166h0.53v-2.1166h2.116v2.1166h0.529v-2.1166h2.117v2.1166h0.529v-2.1166h1.587v-0.53h-1.587v-2.116h1.587v-0.53h-1.587v-2.116h1.587v-0.53h-1.587v-2.116h1.587v-0.529h-1.587v-2.117h1.587v-0.529h-1.587v-2.117h1.587v-0.529h-1.587v-2.116h1.587v-0.53h-1.587v-2.6446h-0.53v2.6446h-2.116v-2.6446h-0.53v2.6446h-2.115v-2.6446h-0.529v2.6446h-2.117v-2.6446h-0.529v2.6446h-2.116v-2.6446h-0.53v2.6446h-2.116v-2.6446h-0.53v2.6446h-2.116v-2.6446h-0.53v2.6446h-2.117v-2.6446zm0.53 3.1746h2.117v2.116h-2.117zm2.646 0h2.117v2.116h-2.117zm2.646 0h2.116v2.116h-2.116zm2.646 0h2.116v2.116h-2.116zm2.645 0h2.117v2.116h-2.117zm2.646 0h2.117v2.116h-2.117zm2.646 0h2.117v2.116h-2.117zm-15.875 2.645h2.117v2.117h-2.117zm2.646 0h2.117v2.117h-2.117zm2.646 0h2.116v2.117h-2.116zm2.646 0h2.116v2.117h-2.116zm2.645 0h2.117v2.117h-2.117zm2.646 0h2.117v2.117h-2.117zm2.646 0h2.117v2.117h-2.117zm-15.875 2.646h2.117v2.117h-2.117zm2.646 0h2.117v2.117h-2.117zm2.646 0h2.116v2.117h-2.116zm2.646 0h2.116v2.117h-2.116zm2.645 0h2.117v2.117h-2.117zm2.646 0h2.117v2.117h-2.117zm2.646 0h2.117v2.117h-2.117zm-15.875 2.646h2.117v2.117h-2.117zm2.646 0h2.117v2.117h-2.117zm2.646 0h2.116v2.117h-2.116zm2.646 0h2.116v2.117h-2.116zm2.645 0h2.117v2.117h-2.117zm2.646 0h2.117v2.117h-2.117zm2.646 0h2.117v2.117h-2.117zm-15.875 2.646h2.117v2.117h-2.117zm2.646 0h2.117v2.117h-2.117zm2.646 0h2.116v2.117h-2.116zm2.646 0h2.116v2.117h-2.116zm2.645 0h2.117v2.117h-2.117zm2.646 0h2.117v2.117h-2.117zm2.646 0h2.117v2.117h-2.117zm-15.875 2.646h2.117v2.116h-2.117zm2.646 0h2.117v2.116h-2.117zm2.646 0h2.116v2.116h-2.116zm2.646 0h2.116v2.116h-2.116zm2.645 0h2.117v2.116h-2.117zm2.646 0h2.117v2.116h-2.117zm2.646 0h2.117v2.116h-2.117z" fill="#fff" opacity=".06"/>
  <path d="m4.233 282.71h6.88l2.645-6.085 1.588 10.319 2.117-4.234h8.995" fill="none" opacity=".236" stroke="#e5a50a" stroke-miterlimit="10" stroke-width="1.058"/>
  <path d="m4.233 282.71h6.88l2.645-6.085 1.588 10.319 2.117-4.234h1.587" fill="none" stroke="url(#a)" stroke-linecap="round" stroke-miterlimit="10" stroke-width="1.058"/>
  <g transform="translate(0 218.15) scale(.26458)">
   <path d="m116 232v4a4 4 0 0 1-8 0v-2l4-2zm0 16v6h-4c-2.216 0-4-1.784-4-4v-2z" fill="#949390"/>
   <path d="m116 252v-4a4 4 0 0 0-4-4 4 4 0 0 0-4 4 4 4 0 0 0 4 4z" fill="#d5d3cf"/>
   <circle transform="scale(-1 1)" cx="-114" cy="250" r="1" fill="#68676b"/>
   <path d="m116 230v4a4 4 0 0 1-4 4 4 4 0 0 1-4-4 4 4 0 0 1 4-4z" fill="#d5d3cf"/>
   <circle transform="scale(-1)" cx="-114" cy="-232" r="1" fill="#68676b"/>
   <path d="m108 218v4a4 4 0 0 0 8 0v-2l-4-2z" fill="#949390"/>
   <path d="m108 216v4a4 4 0 0 0 4 4 4 4 0 0 0 4-4 4 4 0 0 0-4-4z" fill="#d5d3cf"/>
   <circle transform="scale(1 -1)" cx="110" cy="-218" r="1" fill="#68676b"/>
   <path d="m116 206v6h-4c-2.216 0-4-1.784-4-4v-2z" fill="#949390"/>
   <path d="m116 210v-4a4 4 0 0 0-4-4 4 4 0 0 0-4 4 4 4 0 0 0 4 4z" fill="#d5d3cf"/>
   <circle transform="scale(-1 1)" cx="-114" cy="208" r="1" fill="#68676b"/>
  </g>
 </g>
</svg>
