<?xml version="1.0" encoding="UTF-8"?>
<svg width="64" height="64" version="1.1" viewBox="0 0 64 64" xmlns="http://www.w3.org/2000/svg" xmlns:cc="http://creativecommons.org/ns#" xmlns:dc="http://purl.org/dc/elements/1.1/" xmlns:rdf="http://www.w3.org/1999/02/22-rdf-syntax-ns#">
 <metadata>
  <rdf:RDF>
   <cc:Work rdf:about="">
    <dc:format>image/svg+xml</dc:format>
    <dc:type rdf:resource="http://purl.org/dc/dcmitype/StillImage"/>
    <dc:title/>
   </cc:Work>
  </rdf:RDF>
 </metadata>
 <g transform="translate(0,16)">
  <g transform="translate(1,1)">
   <g opacity=".1">
    <!-- color: #5968a2 --></g>
  </g>
 </g>
 <g transform="matrix(1.1739 0 0 1.1739 3.8267 -14.957)">
  <path transform="matrix(.85186 0 0 .85186 -3.2598 12.741)" d="m32 5c-14.65 0-26.566 11.669-26.98 26.219-7.701e-4 0.003917-0.0011851 0.0078-0.0019531 0.011719v0.003906c-0.0070434 0.25474-0.017578 0.50776-0.017578 0.76367 0 14.912 12.088 27 27 27 13.79 0 25.154-10.341 26.787-23.689h0.001953c0.13265-1.0859 0.21094-2.1895 0.21094-3.3105 0-14.912-12.088-26.998-27-26.998z" stroke="#44507e" stroke-width="2"/>
  <path d="m22.367 24.504c-9.922 0.238-19.483 5.305-21.352 14.842v2e-3c-6e-3 0.217-0.016 0.434-0.016 0.652 0 12.703 10.297 23 23 23 11.747 0 21.429-8.809 22.82-20.18-1.498-12.655-13.208-18.587-24.453-18.316zm24.453 18.316c0.055-0.449 0.1-0.901 0.129-1.357-0.031 0.456-0.074 0.908-0.129 1.357zm0.18-2.82c0 0.472-0.017 0.94-0.047 1.404 0.028-0.465 0.047-0.932 0.047-1.404z" fill="#55649b"/>
  <path d="m24 17c-12.484 0-22.638 9.947-22.984 22.348l12.984-8.348 6 7 13-9 13.82 13.82c0.113-0.925 0.18-1.865 0.18-2.82 0-12.703-10.297-23-23-23z" fill="#7e8cc0"/>
  <path d="m33 28-13 9-6-7-12.932 8.313c-0.041 0.558-0.068 1.119-0.068 1.688 0 0.118 6e-3 0.234 8e-3 0.352l12.992-8.352 6 7 13-9 13.699 13.699c0.095-0.588 0.165-1.183 0.215-1.785l-13.914-13.914z" fill="#bac5e5"/>
  <g transform="translate(0,16)">
   <!-- color: #5968a2 -->
   <g fill="#ffcf67">
    <path d="m16 15c0 1.105-0.895 2-2 2s-2-0.895-2-2 0.895-2 2-2 2 0.895 2 2"/>
    <path d="m22 22c0 1.105-0.895 2-2 2s-2-0.895-2-2 0.895-2 2-2 2 0.895 2 2"/>
    <path d="m35 13c0 1.105-0.895 2-2 2s-2-0.895-2-2 0.895-2 2-2 2 0.895 2 2"/>
   </g>
  </g>
 </g>
</svg>
