<svg width="64" height="64" version="1.1" viewBox="0 0 64 64" xmlns="http://www.w3.org/2000/svg">
 <defs>
  <linearGradient x2="0" y1="47" y2="1" gradientUnits="userSpaceOnUse">
   <stop stop-color="#555" offset="0"/>
   <stop stop-color="#5f5f5f" offset="1"/>
  </linearGradient>
 </defs>
 <g transform="matrix(1.1739 0 0 1.1739 3.8261 3.8261)">
  <path d="m24 1c12.703 0 23 10.297 23 23s-10.297 23-23 23-23-10.297-23-23 10.297-23 23-23z" fill="#5a5a5a" stroke="#333333" stroke-width="1.7037"/>
  <path d="m24 1c12.703 0 23 10.297 23 23s-10.297 23-23 23-23-10.297-23-23 10.297-23 23-23z" fill="#5a5a5a"/>
  <g transform="translate(0,1)">
   <path d="m29.433 31.79 3.567 3.21c0.245 0.22 0.671 0.151 0.949-0.158l3.01-3.342c0.277-0.308 0.301-0.739 0.055-0.958l-3.566-3.214c-0.249-0.221-0.671-0.151-0.949 0.158l-3.01 3.342c-0.277 0.308-0.305 0.738-0.056 0.962" fill="#949698"/>
   <path d="m37 23c0 7.181-5.819 13-13 13s-13-5.819-13-13 5.819-13 13-13 13 5.819 13 13" fill="#949698"/>
   <path d="m35 23c0 6.075-4.925 11-11 11s-11-4.925-11-11 4.925-11 11-11 11 4.925 11 11" fill="#ebebeb"/>
  </g>
  <rect x="14" y="23" width="4" height="2" rx=".3" fill="#b6b6b6"/>
  <rect x="30" y="23" width="4" height="2" rx=".3" fill="#b6b6b6"/>
  <rect transform="rotate(90)" x="14" y="-25" width="4" height="2" rx=".3" fill="#b6b6b6"/>
  <rect transform="rotate(90)" x="30" y="-25" width="4" height="2" rx=".3" fill="#b6b6b6"/>
  <path d="m35 11.278-11 11.372-5.5-5.6-1.75 1.75 7.25 7.2 13-12.7z" fill="#5fd35f"/>
  <path transform="matrix(1.6762,0,0,1.2243,-16.752,-5.1357)" d="m25.625 23.797a1.313 1.797 0 1 1-2.625 0 1.313 1.797 0 1 1 2.625 0z" fill="#949698"/>
 </g>
</svg>
