<svg width="64" height="64" version="1.1" viewBox="0 0 16.933 16.933" xmlns="http://www.w3.org/2000/svg">
 <circle cx="8.4665" cy="8.4665" r="6.6145" fill="#fff" fill-rule="evenodd" style="paint-order:stroke fill markers"/>
 <path d="M5.146 5.566c-.378 0-.736.054-.952.31-.33.389-.2 1.166-.2 1.638 0 .723-.048 1.49.095 2.204.153.762.694 1.589 1.301 2.105.44.374.913.64 1.458.856a4.72 4.72 0 0 0 1.583.286c.493 0 .985-.055 1.454-.207a4.968 4.968 0 0 0 1.358-.674c.416-.33.75-.654 1.019-1.067.19-.305.353-.635.473-.974.296-.837.21-1.82.21-2.691 0-.394.1-1.102-.157-1.437-.388-.501-1.249-.324-1.89-.324h-4.92c-.244 0-.54-.035-.832-.035zm5.451 2.145c.106 0 .21.03.326.098.258.158.34.541.157.777-.167.222-.416.399-.626.581l-1.086.969c-.239.221-.487.531-.841.566-.354.034-.588-.236-.818-.448L6.571 9.236c-.234-.197-.564-.418-.727-.674-.23-.36.039-.792.455-.846.267-.035.454.118.64.275l1.062.945c.11.098.292.354.445.374.172.024.435-.325.545-.423l.789-.699c.23-.211.497-.482.813-.482" fill="#ee4055"/>
 <g stroke-width=".185">
  <path d="M4.74 3.356l1.032-.593a6.364 6.364 0 0 1 2.667-.581v-.86c-.977.078-1.9.202-2.81.594-.232.1-.727.247-.86.472-.127.215-.03.72-.03.968z" fill="#51bbb7"/>
  <path d="M8.439 1.323v.859c.888 0 1.77.181 2.58.553l1.12.62c0-.246.105-.807-.03-1.015-.134-.205-.611-.346-.831-.44a7.299 7.299 0 0 0-2.84-.577z" fill="#ef4155"/>
  <path d="M12.138 2.354c0 .275-.09.74.018.993.07.166.33.297.462.416.324.293.635.613.891.968.704.973 1.237 2.215 1.239 3.435.002 1.357-.278 2.63-1.035 3.78a6.326 6.326 0 0 1-.97 1.136c-.158.148-.502.333-.587.533-.105.246-.018.697-.018.965.808-.306 1.558-1.162 2.062-1.833 1.88-2.503 1.88-6.058 0-8.56-.504-.672-1.254-1.528-2.062-1.833z" fill="#fbb74b"/>
  <path d="M4.71 2.382c-.903.61-1.68 1.312-2.274 2.234-1.606 2.49-1.453 5.799.321 8.16.507.675 1.206 1.409 1.982 1.775 0-.26.086-.698-.017-.936-.083-.194-.404-.352-.556-.497a6.81 6.81 0 0 1-1.002-1.173 6.374 6.374 0 0 1-1.032-3.922A6.303 6.303 0 0 1 3.547 4.5l.705-.736.458-.394c.102-.168.076-.81 0-.989z" fill="#83edb9"/>
  <path d="M4.74 13.606c0 .241-.095.73.029.939.133.225.628.372.86.472.91.392 1.833.516 2.81.593v-.83a6.24 6.24 0 0 1-2.753-.623c-.282-.138-.666-.299-.86-.55z" fill="#51bbb7"/>
  <path d="M8.439 14.78v.83a7.3 7.3 0 0 0 2.839-.577c.22-.094.697-.235.83-.44.133-.203.03-.746.03-.987l-1.118.621a6.19 6.19 0 0 1-2.581.553m4.961-1.174l.029.029z" fill="#ef4155"/>
 </g>
</svg>
