<svg xmlns="http://www.w3.org/2000/svg" width="64" height="64" viewBox="0 0 16.933 16.933"><g transform="translate(0 -280.067)"><circle r="7.144" cy="288.533" cx="8.467" opacity=".9" fill="#1c2d44" stroke="#04060c" stroke-width=".491" paint-order="stroke markers fill"/><circle cx="8.467" cy="288.533" r="7.144" fill="#1c2d44" paint-order="stroke markers fill"/><path d="M6.814 286.592a.884.884 0 1 1-1.766 0 .884.884 0 1 1 1.766 0zm-.884 3.076a1.62 1.62 0 0 1-1.619 1.622 1.62 1.62 0 0 1-1.617-1.622 1.619 1.619 0 1 1 3.236 0z" fill="#fff" stroke="#1c2d44" stroke-width=".265"/><path d="M7.886 288.59c0 .967-.783 1.753-1.75 1.753a1.752 1.752 0 0 1-1.748-1.754 1.75 1.75 0 0 1 1.749-1.752 1.75 1.75 0 0 1 1.749 1.752zm3.436-.711a1.619 1.619 0 0 1-3.235 0 1.62 1.62 0 0 1 1.617-1.622 1.62 1.62 0 0 1 1.618 1.622z" fill="#fff" stroke="#1c2d44" stroke-width=".265"/><path d="M9.548 286.617a1.619 1.619 0 1 1-3.236 0 1.619 1.619 0 0 1 3.236 0zm4.692 3.678a.926.926 0 1 1-1.853 0 .926.926 0 0 1 1.853 0z" fill="#fff" stroke="#1c2d44" stroke-width=".265"/><path d="M13.097 289.581a1.75 1.75 0 0 1-1.75 1.753 1.75 1.75 0 0 1-1.749-1.753 1.75 1.75 0 1 1 3.499 0zm-6.142.803a.925.925 0 1 1-1.85 0 .925.925 0 1 1 1.85 0z" fill="#fff" stroke="#1c2d44" stroke-width=".265"/><path d="M10.693 289.063c0 1.234-1 2.234-2.23 2.234-1.232 0-2.23-1-2.23-2.235 0-1.234.998-2.234 2.23-2.234 1.23 0 2.23 1 2.23 2.235z" fill="#fff" stroke="#1c2d44" stroke-width=".265"/></g></svg>