<svg width="64" height="64" version="1.1" xmlns="http://www.w3.org/2000/svg">
 <path d="m23.621 37.624c-9.2046-12.178-18.655-2.924-16.188 5.5873 4.2373 9.312 13.693 15.789 24.558 15.789 9.6343 0 17.964-5.0227 22.696-12.334-7.1182 6.6609-20.038 5.5472-31.066-9.042z" fill="#255fdb" stroke="#1a449e" stroke-opacity=".35"/>
 <path d="m31.85 29.238c-12.659-19.201-26.85-8.9684-26.85 2.7675 0 4.0254 0.8775 7.8239 2.4515 11.254-1.6814-7.9498 7.4527-14.08 15.958-2.6693 12.349 16.568 24.469 13.654 31.249 6.1148 1.8317-2.7307 3.6173-6.9188 4.1175-11.082l-0.0095 0.05216c-2.9023 9.0268-15.752 10.496-26.917-6.4371z" fill="#4285f4" stroke="#1a449e" stroke-opacity=".35"/>
 <path d="m40.525 20.648c-9.4011-15.51-21.321-14.114-29.381-5.802-3.8323 4.6605-6.1455 10.634-6.1455 17.154 0.84375-11.365 14.574-19.253 27 0 11.061 17.136 24.806 12.672 26.764 3.7186l0.01215-0.0859c0.19636-1.2304 0.21786-2.4055 0.21786-3.6696 0-0.40807 0.01519-0.81307-0.0031-1.215-4.7925 3.3996-11.082 2.0772-18.464-10.1z" fill="#91bfff" stroke="#1a449e" stroke-opacity=".35"/>
 <path d="m40.589 23.409c8.6093 13.841 16.031 10.3 18.4 7.3393-0.09204-2.1109-0.43568-4.1543-0.98796-6.1088-4.0132 0.08284-4.9491-0.58603-8.8823-6.5998-6.0504-9.2505-13.654-15.488-26.926-11.202-4.3446 1.6967-8.1429 4.4827-11.058 8.0204 9.128-8.4007 20.327-6.1209 29.455 8.5509z" fill="#c4e1ff" stroke="#1a449e" stroke-opacity=".35"/>
 <path d="m48.517 19.227c3.9336 6.0136 6.3298 6.3328 9.4868 5.4122-3.2124-11.349-13.626-19.639-26.012-19.639-3.4577 0-6.7686 0.65968-9.8061 1.8409 11.865-3.7432 20.281 3.1357 26.331 12.386z" fill="#f5f5f5" stroke="#1a449e" stroke-opacity=".35"/>
</svg>
