<svg xmlns="http://www.w3.org/2000/svg" width="64" height="64" viewBox="0 0 16.933 16.933"><g fill-rule="evenodd" stroke="#000" stroke-width=".265" stroke-opacity=".255"><path d="M2.647 4.101a7.316 7.316 0 0 0-1.456 4.388 7.24 7.24 0 0 0 7.276 7.254l2.546-5.216-4.73-.969z" fill="#0f9d58"/><path d="M8.83 5.192l2.183 5.312-2.546 5.239a7.26 7.26 0 0 0 7.276-7.276c0-1.181-.285-2.29-.78-3.275z" fill="#ffcd40"/><path d="M8.465 1.19a7.248 7.248 0 0 0-5.82 2.912l3.637 5.456 4.73.946-2.183-5.312h6.133a7.254 7.254 0 0 0-6.497-4.001z" fill="#db4437"/></g><g fill-rule="evenodd" stroke-width=".963" stroke-opacity=".255"><path d="M2.753 4.18a7.183 7.183 0 0 0-1.43 4.309 7.11 7.11 0 0 0 7.144 7.121l2.5-5.12-4.643-.952z" fill="#0f9d58"/><path d="M8.824 5.252l2.143 5.215-2.5 5.143a7.128 7.128 0 0 0 7.143-7.143c0-1.16-.279-2.249-.765-3.215z" fill="#ffcd40"/><path d="M8.465 1.323a7.116 7.116 0 0 0-5.713 2.859l3.57 5.356 4.644.929-2.144-5.215h6.022a7.122 7.122 0 0 0-6.379-3.93z" fill="#db4437"/></g><path d="M8.467 5.027a3.432 3.432 0 0 1 3.44 3.44 3.432 3.432 0 0 1-3.44 3.44 3.432 3.432 0 0 1-3.44-3.44 3.432 3.432 0 0 1 3.44-3.44z" fill="#f2f6f7"/><path d="M8.334 5.953h0a2.508 2.508 0 0 1 2.514 2.514 2.508 2.508 0 0 1-2.514 2.513h0a2.508 2.508 0 0 1-2.513-2.513 2.508 2.508 0 0 1 2.513-2.514z" fill="#2566d3" stroke-width=".265" stroke="#000" stroke-opacity=".255"/></svg>