<svg width="64" height="64" version="1.1" viewBox="0 0 16.933 16.933" xmlns="http://www.w3.org/2000/svg">
 <path d="m15.61 8.4667a7.1438 7.1437 0 0 1-7.1438 7.1438 7.1438 7.1437 0 0 1-7.1437-7.1438 7.1438 7.1437 0 0 1 7.1437-7.1437 7.1438 7.1437 0 0 1 7.1438 7.1437" fill="#3891ff" stroke="#0d61c9" stroke-width=".52916"/>
 <path d="m5.1282 9.4568c0.95046 2.0656 2.3229 4.2303 3.3384 4.2303s2.388-2.1647 3.3384-4.2303a8.7923 8.7923 0 0 1-0.0644 0.0263 8.7923 8.7923 0 0 1-0.12128 0.047798 8.7923 8.7923 0 0 1-0.12236 0.045596 8.7923 8.7923 0 0 1-0.12342 0.044001 8.7923 8.7923 0 0 1-0.12343 0.042399 8.7923 8.7923 0 0 1-0.1245 0.040804 8.7923 8.7923 0 0 1-0.1245 0.038602 8.7923 8.7923 0 0 1-0.12557 0.036501 8.7923 8.7923 0 0 1-0.12611 0.034897 8.7923 8.7923 0 0 1-0.12611 0.033303 8.7923 8.7923 0 0 1-0.12719 0.031101 8.7923 8.7923 0 0 1-0.12718 0.029 8.7923 8.7923 0 0 1-0.12826 0.027397 8.7923 8.7923 0 0 1-0.12772 0.025203 8.7923 8.7923 0 0 1-0.12879 0.0236 8.7923 8.7923 0 0 1-0.1288 0.0215 8.7923 8.7923 0 0 1-0.12933 0.0199 8.7923 8.7923 0 0 1-0.12933 0.0177 8.7923 8.7923 0 0 1-0.12986 0.0161 8.7923 8.7923 0 0 1-0.12987 0.0139 8.7923 8.7923 0 0 1-0.1304 0.0118 8.7923 8.7923 0 0 1-0.12987 0.0102 8.7923 8.7923 0 0 1-0.13094 8e-3 8.7923 8.7923 0 0 1-0.1304 6e-3 8.7923 8.7923 0 0 1-0.13041 4e-3 8.7923 8.7923 0 0 1-0.13094 2e-3 8.7923 8.7923 0 0 1-0.0875 5.29e-4 8.7923 8.7923 0 0 1-0.13094-1e-3 8.7923 8.7923 0 0 1-0.1304-3e-3 8.7923 8.7923 0 0 1-0.13041-5e-3 8.7923 8.7923 0 0 1-0.13094-7e-3 8.7923 8.7923 0 0 1-0.1304-9e-3 8.7923 8.7923 0 0 1-0.12987-0.0107 8.7923 8.7923 0 0 1-0.1304-0.0129 8.7923 8.7923 0 0 1-0.12987-0.01447 8.7923 8.7923 0 0 1-0.12933-0.0161 8.7923 8.7923 0 0 1-0.12986-0.0188 8.7923 8.7923 0 0 1-0.1288-0.020402 8.7923 8.7923 0 0 1-0.12879-0.021997 8.7923 8.7923 0 0 1-0.12826-0.024097 8.7923 8.7923 0 0 1-0.12826-0.0263 8.7923 8.7923 0 0 1-0.12772-0.027903 8.7923 8.7923 0 0 1-0.12718-0.029497 8.7923 8.7923 0 0 1-0.12665-0.0317 8.7923 8.7923 0 0 1-0.12664-0.033824 8.7923 8.7923 0 0 1-0.12558-0.035404 8.7923 8.7923 0 0 1-0.12557-0.037598 8.7923 8.7923 0 0 1-0.1245-0.039201 8.7923 8.7923 0 0 1-0.12397-0.040804 8.7923 8.7923 0 0 1-0.12342-0.042896 8.7923 8.7923 0 0 1-0.12289-0.045098 8.7923 8.7923 0 0 1-0.12236-0.046204 8.7923 8.7923 0 0 1-0.12128-0.048803 8.7923 8.7923 0 0 1-0.024199-0.01z" fill="#fff" stroke-width=".54002"/>
 <path d="m15.61 8.4667a7.1438 7.1437 0 0 1-7.1438 7.1438 7.1438 7.1437 0 0 1-7.1437-7.1438 7.1438 7.1437 0 0 1 7.1437-7.1437 7.1438 7.1437 0 0 1 7.1438 7.1437" fill="#3891ff" stroke-width=".26458"/>
 <path d="m14.552 8.4667a6.0854 6.0854 0 0 1-6.0854 6.0854 6.0854 6.0854 0 0 1-6.0854-6.0854 6.0854 6.0854 0 0 1 6.0854-6.0854 6.0854 6.0854 0 0 1 6.0854 6.0854" fill="#fff" opacity=".1" stroke-width=".22539"/>
 <path d="m5.1282 9.4568a8.7923 8.7923 0 0 0 0.024199 0.01 8.7923 8.7923 0 0 0 0.12128 0.048803 8.7923 8.7923 0 0 0 0.12236 0.046204 8.7923 8.7923 0 0 0 0.12289 0.045098 8.7923 8.7923 0 0 0 0.12342 0.042896 8.7923 8.7923 0 0 0 0.12397 0.040804 8.7923 8.7923 0 0 0 0.1245 0.039201 8.7923 8.7923 0 0 0 0.12557 0.037598 8.7923 8.7923 0 0 0 0.12558 0.035404 8.7923 8.7923 0 0 0 0.12664 0.033801 8.7923 8.7923 0 0 0 0.12665 0.0317 8.7923 8.7923 0 0 0 0.12718 0.029497 8.7923 8.7923 0 0 0 0.12772 0.027903 8.7923 8.7923 0 0 0 0.12826 0.0263 8.7923 8.7923 0 0 0 0.12826 0.024097 8.7923 8.7923 0 0 0 0.12879 0.021997 8.7923 8.7923 0 0 0 0.12879 0.020402 8.7923 8.7923 0 0 0 0.12987 0.0188 8.7923 8.7923 0 0 0 0.12933 0.0161 8.7923 8.7923 0 0 0 0.12987 0.0145 8.7923 8.7923 0 0 0 0.1304 0.0129 8.7923 8.7923 0 0 0 0.12987 0.0107 8.7923 8.7923 0 0 0 0.1304 9e-3 8.7923 8.7923 0 0 0 0.13094 7e-3 8.7923 8.7923 0 0 0 0.13041 5e-3 8.7923 8.7923 0 0 0 0.1304 3e-3 8.7923 8.7923 0 0 0 0.13094 1e-3 8.7923 8.7923 0 0 0 0.0875-5.56e-4 8.7923 8.7923 0 0 0 0.13094-2e-3 8.7923 8.7923 0 0 0 0.13041-4e-3 8.7923 8.7923 0 0 0 0.1304-6e-3 8.7923 8.7923 0 0 0 0.13094-8e-3 8.7923 8.7923 0 0 0 0.12987-0.0102 8.7923 8.7923 0 0 0 0.1304-0.0118 8.7923 8.7923 0 0 0 0.12987-0.014 8.7923 8.7923 0 0 0 0.12986-0.0161 8.7923 8.7923 0 0 0 0.12933-0.0177 8.7923 8.7923 0 0 0 0.12933-0.0199 8.7923 8.7923 0 0 0 0.1288-0.0215 8.7923 8.7923 0 0 0 0.12879-0.0236 8.7923 8.7923 0 0 0 0.12772-0.025203 8.7923 8.7923 0 0 0 0.12826-0.027397 8.7923 8.7923 0 0 0 0.12718-0.029 8.7923 8.7923 0 0 0 0.12719-0.031101 8.7923 8.7923 0 0 0 0.12611-0.033303 8.7923 8.7923 0 0 0 0.12611-0.034897 8.7923 8.7923 0 0 0 0.12557-0.036501 8.7923 8.7923 0 0 0 0.1245-0.038602 8.7923 8.7923 0 0 0 0.1245-0.040804 8.7923 8.7923 0 0 0 0.12343-0.042398 8.7923 8.7923 0 0 0 0.12343-0.044002 8.7923 8.7923 0 0 0 0.12235-0.045596 8.7923 8.7923 0 0 0 0.12128-0.047798 8.7923 8.7923 0 0 0 0.0644-0.0263c0.59249-1.2877 1.0577-2.5472 1.0577-3.1882 0-1.6692-1.9682-3.0223-4.3962-3.0223s-4.3962 1.3532-4.3962 3.0223c0 0.64098 0.46523 1.9005 1.0577 3.1882zm0 0c0.95046 2.0656 2.3229 4.2303 3.3384 4.2303s2.388-2.1647 3.3384-4.2303a8.7923 8.7923 0 0 1-0.0644 0.0263 8.7923 8.7923 0 0 1-0.12128 0.047798 8.7923 8.7923 0 0 1-0.12236 0.045596 8.7923 8.7923 0 0 1-0.12342 0.044001 8.7923 8.7923 0 0 1-0.12343 0.042399 8.7923 8.7923 0 0 1-0.1245 0.040804 8.7923 8.7923 0 0 1-0.1245 0.038602 8.7923 8.7923 0 0 1-0.12557 0.036501 8.7923 8.7923 0 0 1-0.12611 0.034897 8.7923 8.7923 0 0 1-0.12611 0.033303 8.7923 8.7923 0 0 1-0.12719 0.031101 8.7923 8.7923 0 0 1-0.12718 0.029 8.7923 8.7923 0 0 1-0.12826 0.027397 8.7923 8.7923 0 0 1-0.12772 0.025203 8.7923 8.7923 0 0 1-0.12879 0.0236 8.7923 8.7923 0 0 1-0.1288 0.0215 8.7923 8.7923 0 0 1-0.12933 0.0199 8.7923 8.7923 0 0 1-0.12933 0.0177 8.7923 8.7923 0 0 1-0.12986 0.0161 8.7923 8.7923 0 0 1-0.12987 0.0139 8.7923 8.7923 0 0 1-0.1304 0.0118 8.7923 8.7923 0 0 1-0.12987 0.0102 8.7923 8.7923 0 0 1-0.13094 8e-3 8.7923 8.7923 0 0 1-0.1304 6e-3 8.7923 8.7923 0 0 1-0.13041 4e-3 8.7923 8.7923 0 0 1-0.13094 2e-3 8.7923 8.7923 0 0 1-0.0875 5.29e-4 8.7923 8.7923 0 0 1-0.13094-1e-3 8.7923 8.7923 0 0 1-0.1304-3e-3 8.7923 8.7923 0 0 1-0.13041-5e-3 8.7923 8.7923 0 0 1-0.13094-7e-3 8.7923 8.7923 0 0 1-0.1304-9e-3 8.7923 8.7923 0 0 1-0.12987-0.0107 8.7923 8.7923 0 0 1-0.1304-0.0129 8.7923 8.7923 0 0 1-0.12987-0.01447 8.7923 8.7923 0 0 1-0.12933-0.0161 8.7923 8.7923 0 0 1-0.12986-0.0188 8.7923 8.7923 0 0 1-0.1288-0.020402 8.7923 8.7923 0 0 1-0.12879-0.021997 8.7923 8.7923 0 0 1-0.12826-0.024097 8.7923 8.7923 0 0 1-0.12826-0.0263 8.7923 8.7923 0 0 1-0.12772-0.027903 8.7923 8.7923 0 0 1-0.12718-0.029497 8.7923 8.7923 0 0 1-0.12665-0.0317 8.7923 8.7923 0 0 1-0.12664-0.033824 8.7923 8.7923 0 0 1-0.12558-0.035404 8.7923 8.7923 0 0 1-0.12557-0.037598 8.7923 8.7923 0 0 1-0.1245-0.039201 8.7923 8.7923 0 0 1-0.12397-0.040804 8.7923 8.7923 0 0 1-0.12342-0.042896 8.7923 8.7923 0 0 1-0.12289-0.045098 8.7923 8.7923 0 0 1-0.12236-0.046204 8.7923 8.7923 0 0 1-0.12128-0.048803 8.7923 8.7923 0 0 1-0.024199-0.01z" fill="#fff" stroke-width=".54002"/>
 <path d="m7.5426 7.7317q-0.1285 0.21955-0.28304 0.32261-0.15455 0.10306-0.35771 0.10306-0.35598 0-0.58866-0.3607-0.23268-0.36293-0.23268-0.92303 0-0.56233 0.23268-0.92079 0.23268-0.3607 0.58866-0.3607 0.20316 0 0.35771 0.10306t0.28304 0.32485v-0.3719h0.62512v2.2561q0 0.6049-0.29694 0.92303-0.2952 0.32037-0.8578 0.32037-0.18232 0-0.3525-0.035846-0.17017-0.035846-0.34208-0.10978v-0.62506q0.16322 0.12098 0.31951 0.17923 0.15628 0.06049 0.3143 0.06049 0.30562 0 0.448-0.1725 0.14239-0.1725 0.14239-0.53993zm-0.4098-1.5615q-0.19274 0-0.3004 0.18371-0.10766 0.18371-0.10766 0.51977 0 0.34502 0.10419 0.52425 0.10419 0.17699 0.30388 0.17699 0.19449 0 0.30214-0.18371 0.10766-0.18371 0.10766-0.51752 0-0.33605-0.10766-0.51977-0.10766-0.18371-0.30214-0.18371z" fill="#3292fe" stroke-width=".097246"/>
 <path d="m9.3866 7.7944v1.3173h-0.62166v-3.4636h0.62166v0.36742q0.1285-0.21955 0.28478-0.32261 0.15628-0.1053 0.35944-0.1053 0.35944 0 0.59039 0.36966 0.23095 0.36742 0.23095 0.94768 0 0.58025-0.23095 0.94991-0.23095 0.36742-0.59039 0.36742-0.20316 0-0.35944-0.10306-0.15628-0.1053-0.28478-0.32485zm0.41328-1.6243q-0.19969 0-0.30735 0.19043-0.10592 0.1882-0.10592 0.5444 0 0.35622 0.10592 0.54665 0.10766 0.1882 0.30735 0.1882t0.30388-0.1882q0.10592-0.1882 0.10592-0.54665t-0.10592-0.54665q-0.10419-0.1882-0.30388-0.1882z" fill="#3292fe" stroke-width=".097246"/>
</svg>
