<svg xmlns="http://www.w3.org/2000/svg" width="64" height="64" viewBox="0 0 16.933 16.933"><g transform="translate(0 -280.067)"><rect ry=".825" rx=".825" y="281.654" x="1.588" height="13.758" width="13.758" fill="#4d4d4d" stroke="#2a2a2a" stroke-width=".529" stroke-linecap="round" stroke-linejoin="round" paint-order="markers stroke fill"/><rect width="13.758" height="13.758" x="1.588" y="281.654" rx=".825" ry=".825" fill="#4d4d4d" paint-order="markers stroke fill"/><rect rx=".265" ry=".265" height="2.646" width="2.646" y="282.448" x="2.381" fill="#999"/><rect x="5.556" y="282.448" width="2.646" height="2.646" ry=".265" rx=".265" fill="#fff"/><rect rx=".265" ry=".265" height="2.646" width="2.646" y="282.448" x="8.731" fill="#ff5757"/><rect x="11.906" y="282.448" width="2.646" height="2.646" ry=".265" rx=".265" fill="#fff"/><rect x="2.381" y="285.623" width="2.646" height="2.646" ry=".265" rx=".265" fill="#fff"/><rect rx=".265" ry=".265" height="2.646" width="2.646" y="285.623" x="5.556" fill="#fff"/><rect x="8.731" y="285.623" width="2.646" height="2.646" ry=".265" rx=".265" fill="#ff5757"/><rect rx=".265" ry=".265" height="2.646" width="2.646" y="285.623" x="11.906" fill="#fff"/><rect rx=".265" ry=".265" height="2.646" width="2.646" y="288.798" x="2.381" fill="#fff"/><rect x="5.556" y="288.798" width="2.646" height="2.646" ry=".265" rx=".265" fill="#999"/><rect rx=".265" ry=".265" height="2.646" width="2.646" y="288.798" x="8.731" fill="#fff"/><rect x="11.906" y="288.798" width="2.646" height="2.646" ry=".265" rx=".265" fill="#4ac73e"/><rect x="2.381" y="291.973" width="2.646" height="2.646" ry=".265" rx=".265" fill="#fff"/><rect rx=".265" ry=".265" height="2.646" width="2.646" y="291.973" x="5.556" fill="#fff"/><rect x="8.731" y="291.973" width="2.646" height="2.646" ry=".265" rx=".265" fill="#fff"/><rect rx=".265" ry=".265" height="2.646" width="2.646" y="291.973" x="11.906" fill="#fff"/></g></svg>