<svg xmlns="http://www.w3.org/2000/svg" xmlns:xlink="http://www.w3.org/1999/xlink" width="64" height="64"><defs><linearGradient id="a"><stop offset="0"/><stop offset="1" stop-opacity="0"/></linearGradient><radialGradient xlink:href="#a" id="b" gradientUnits="userSpaceOnUse" gradientTransform="matrix(0 2.66667 -2 0 128 980.186)" cx="44" cy="42.5" fx="44" fy="42.5" r="1.5"/><linearGradient xlink:href="#a" id="c" gradientUnits="userSpaceOnUse" gradientTransform="translate(9 1055.52)" x1="24" y1="42" x2="24" y2="46"/><radialGradient xlink:href="#a" id="d" gradientUnits="userSpaceOnUse" gradientTransform="matrix(-2 0 0 -2.66667 29 1210.853)" cx="4" cy="42.5" fx="4" fy="42.5" r="1.5"/></defs><g transform="translate(0 -1061.52)"><path d="M27 1113.52v3c0 .554.446 1 1 1h24c.554 0 1-.446 1-1v-3H28zm-16 0v3c0 .554.446 1 1 1h11c.554 0 1-.446 1-1v-3H12z" fill="#fbc02d"/><rect ry="2.046" y="1070.52" x="3" height="44" width="58" fill="#2e7d32"/><rect ry="1.024" y="1071.52" x="4" height="42" width="56" fill="#388e3c"/><rect ry="0" y="1114.52" x="27" height="2" width="26" fill="#fdd835"/><rect width="13" height="2" x="11" y="1114.52" ry="0" fill="#fdd835"/><path d="M18 1098.52l-10 8v3l6-4v2l-6 4h4l1 2h5v-5l6-5h3l-6 5v5h38c.554 0 1-.446 1-1v-3.092l-7-8.908h-2l-2-2z" fill="#43a047" fill-rule="evenodd"/><circle r="1.5" cy="1112.02" cx="58.5" fill="#fbc02d"/><circle cx="58.5" cy="1112.02" r=".5" fill="#263238"/><circle r="1.5" cy="1073.02" cx="58.5" fill="#fbc02d"/><circle cx="58.5" cy="1073.02" r=".5" fill="#263238"/><circle cx="5.5" cy="1112.02" r="1.5" fill="#fbc02d"/><circle r=".5" cy="1112.02" cx="5.5" fill="#263238"/><circle cx="5.5" cy="1073.02" r="1.5" fill="#fbc02d"/><circle r=".5" cy="1073.02" cx="5.5" fill="#263238"/><path d="M10 1071.52v8l-2 2v2l3 3h38l7-8h4v-1h-4v-4l-8 9h-3l8-9-2-2z" fill="#43a047" fill-rule="evenodd"/><path fill="#ffeb3b" d="M11 1114.52h13v1H11zm16 0h26v1H27z"/><path d="M43 1097.52v4h1c1.108 0 2-.892 2-2v-2z" opacity=".7" fill="url(#b)"/><path d="M21 1097.52v4h22v-4z" opacity=".7" fill="url(#c)"/><path d="M18 1097.52v2c0 1.108.892 2 2 2h1v-4z" opacity=".7" fill="url(#d)"/><rect ry="1" y="1084.52" x="18" height="16" width="28" fill="#263238"/><rect ry="0" y="1085.52" x="19" height="14" width="26" fill="#37474f"/><rect ry="1" y="1074.52" x="10" height="6" width="14" fill="#263238"/><rect ry="0" y="1075.52" x="11" height="1" width="9" fill="#90a4ae"/><path fill="#90a4ae" d="M11 1077.52h5v1h-5zm6 0h2v1h-2z"/><rect ry="1" y="1104.519" x="37" height="6" width="17" fill="#eceff1"/><rect ry="0" y="1105.519" x="38" height="1" width="9" fill="#37474f"/><path fill="#37474f" d="M38 1107.519h5v1h-5z"/><path d="M49 1109.52l2-3 2 3z" fill="#37474f" fill-rule="evenodd"/><rect ry="0" y="1077.52" x="21" height="2" width="2" fill="#90a4ae"/><path opacity=".15" fill="#dfdfdf" fill-rule="evenodd" paint-order="fill markers stroke" d="M21 1087.52h2v10h-2zm4 0h2v10h-2zm4 0h2v10h-2zm4 0h2v10h-2zm4 0h2v10h-2zm4 0h2v10h-2z"/></g></svg>