<?xml version="1.0" encoding="UTF-8"?>
<svg width="64" height="64" version="1.1" viewBox="0 0 64 64" xmlns="http://www.w3.org/2000/svg" xmlns:cc="http://creativecommons.org/ns#" xmlns:dc="http://purl.org/dc/elements/1.1/" xmlns:rdf="http://www.w3.org/1999/02/22-rdf-syntax-ns#">
 <metadata>
  <rdf:RDF>
   <cc:Work rdf:about="">
    <dc:format>image/svg+xml</dc:format>
    <dc:type rdf:resource="http://purl.org/dc/dcmitype/StillImage"/>
    <dc:title/>
   </cc:Work>
  </rdf:RDF>
 </metadata>
 <rect x="6.0001" y="6.0001" width="52" height="52" rx="3.1182" ry="3.1182" fill="#b3b3b3" opacity=".9" stroke="#5c5c5c" stroke-linecap="round" stroke-linejoin="round" stroke-width="1.9994" paint-order="markers stroke fill"/>
 <rect x="6.0001" y="6.0001" width="52" height="52" rx="3.1182" ry="3.1182" fill="#b3b3b3" stroke-width="3.7796" paint-order="markers stroke fill"/>
 <g transform="translate(.24536 .98075)">
  <g transform="matrix(1.2701 0 0 1.2701 8.2759 -347.84)" paint-order="stroke markers fill">
   <circle cx="8.467" cy="288.53" r="7.408" opacity=".2"/>
   <circle cx="8.467" cy="288.53" r="7.134" fill="#f9f9f9"/>
   <circle cx="8.467" cy="288.53" r="4.498" fill="#4f535d"/>
   <circle cx="8.467" cy="288.53" r="3.175" fill="#fff" opacity=".25"/>
   <circle cx="8.467" cy="288.53" r="2.117" fill="#3a3f4a"/>
   <circle cx="9.26" cy="287.74" r=".529" fill="#fff" opacity=".5"/>
  </g>
  <g transform="matrix(1.2701 0 0 1.2701 32.886 -347.67)">
   <rect x="1.852" y="285.09" width="9.525" height="9.525" rx=".529" ry=".529" fill="#fff" opacity=".1" stroke="#000" stroke-width=".529" paint-order="stroke markers fill"/>
   <rect x="1.852" y="285.09" width="9.525" height="9.525" rx=".529" ry=".529" fill="#fff" paint-order="stroke markers fill"/>
   <g aria-label="У»Г">
    <path d="m4.658 286.66 0.551 0.165-0.193 0.468h1.681v0.524h-0.964q0.22 0.303 0.44 0.661l-0.578 0.331q-0.22-0.524-0.524-0.992h-0.33l-0.304 0.523q-0.165 0.22-0.44 0.524l-0.497-0.386q0.8-0.799 1.158-1.819zm2.866 0 0.524 0.165q-0.083 0.248-0.193 0.468h1.957v0.524h-1.158q0.193 0.275 0.358 0.551l-0.496 0.303q-0.22-0.44-0.496-0.854h-0.413q-0.386 0.661-0.717 0.992l-0.496-0.358q0.772-0.772 1.13-1.792zm-2.48 2.011 0.496 0.248q-0.248 0.496-0.552 0.992v3.142h-0.55v-2.397q-0.331 0.413-0.69 0.744l-0.33-0.496q0.909-0.8 1.626-2.233zm0.634 0.855h2.59v-0.69h0.551v0.69h0.965v0.523h-0.964v2.26q0 0.414-0.165 0.551-0.138 0.166-0.551 0.166-0.496 0-0.937-0.083l-0.11-0.551q0.468 0.11 0.964 0.11 0.248 0 0.248-0.33v-2.123h-2.59zm0.992 0.771q0.496 0.579 0.827 1.268l-0.552 0.33q-0.275-0.66-0.799-1.267z" fill="#ccc" font-family="sans-serif" font-size="7.056px" font-weight="400" letter-spacing="0" word-spacing="0" aria-label="угд"/>
   </g>
   <rect x="6.085" y="281.92" width="9.525" height="9.525" rx=".529" ry=".529" fill="#498cd8" paint-order="stroke markers fill"/>
   <path d="m11.774 287.67q-0.397 0.728-1.19 0.728-0.596 0-0.96-0.397-0.364-0.43-0.364-1.19 0-0.86 0.463-1.356 0.497-0.53 1.29-0.53 0.695 0 1.29 0.199l-0.1 1.72v0.297q0 0.364 0.1 0.563 0.132 0.165 0.397 0.165 0.298 0 0.53-0.397 0.23-0.397 0.23-1.19 0-1.125-0.66-1.787-0.63-0.661-1.688-0.661-1.322 0-2.116 0.827-0.76 0.827-0.76 2.249 0 1.257 0.66 1.951 0.662 0.662 1.853 0.662 0.893 0 1.786-0.364v0.562q-0.761 0.364-1.786 0.364-1.456 0-2.282-0.827-0.827-0.827-0.827-2.315 0-1.62 0.959-2.646 0.992-1.025 2.513-1.025 1.323 0 2.117 0.827 0.827 0.826 0.827 2.215 0 0.96-0.43 1.522-0.397 0.562-0.992 0.562-0.695 0-0.86-0.728zm-0.165-2.116q-0.298-0.1-0.596-0.1-0.496 0-0.793 0.364-0.298 0.364-0.298 1.026 0 0.496 0.165 0.76 0.199 0.265 0.596 0.265 0.793 0 0.893-1.29z" fill="#fff" font-family="sans-serif" font-size="8.467px" font-weight="400" letter-spacing="0" word-spacing="0" aria-label="@"/>
  </g>
  <g transform="matrix(1.2701 0 0 1.2701 33.055 -323.21)">
   <path d="m6.329 292.5s0.05 1.634-0.197 1.985c-0.246 0.35-0.736 0.354-0.736 0.354-0.314 0.037-0.317 0.704 0 0.704h6.141c0.317 0 0.315-0.668 0-0.704 0 0-0.49-4e-3 -0.736-0.354s-0.196-1.985-0.196-1.985z" fill="#f2f2f2" overflow="visible"/>
   <rect x=".661" y="282.05" width="15.61" height="10.583" rx=".347" ry=".321" fill="#1a1a1a" stroke="#000" stroke-dashoffset=".5" stroke-linecap="round" stroke-linejoin="round" stroke-width=".265"/>
   <path d="m1.323 282.71h14.287v9.26h-14.287z" fill="#505050"/>
   <path d="m6.329 292.24s0.05 1.898-0.197 2.249c-0.246 0.35-0.736 0.354-0.736 0.354-0.314 0.037-0.317 0.704 0 0.704h6.141c0.317 0 0.315-0.668 0-0.704 0 0-0.49-4e-3 -0.736-0.354s-0.196-2.25-0.196-2.25z" color="#000000" fill="none" opacity=".15" overflow="visible" stroke="#000" stroke-dashoffset=".5" stroke-linecap="round" stroke-linejoin="round" stroke-width=".264"/>
   <path d="m2.646 284.04h1.323v0.529h-1.323zm0 0.529h0.529v0.794h-0.529zm2.91-0.53h2.117v0.529h-2.117zm3.704 0h2.117v0.529h-2.117zm-6.085 2.382v1.852h-0.529v-1.852zm11.112-2.381h-1.323v0.529h1.323zm0 0.529h-0.529v0.794h0.53zm0 1.852v1.852h-0.529v-1.852zm-11.641 4.233h1.323v-0.53h-1.323zm0-0.53h0.529v-0.793h-0.529zm2.91 0.53h2.117v-0.529h-2.117zm3.704 0h2.117v-0.529h-2.117zm5.027 0h-1.323v-0.53h1.323zm0-0.53h-0.529v-0.793h0.53z" fill="#a8a8a8" fill-rule="evenodd" paint-order="fill markers stroke"/>
   <path d="m13.263 292.14-1.874-3.467s-1.31 2.76 1.874 4.529z" fill="#e6e6e6"/>
   <path d="m13.263 292.14-1.874-3.467s-1.31 2.76 1.874 4.529z" fill="none" opacity=".5" stroke="#000" stroke-width=".265"/>
   <path d="m13.526 292.14 1.874-3.467s1.31 2.76-1.874 4.529z" fill="#e6e6e6"/>
   <path d="m13.526 292.14 1.874-3.467s1.31 2.76-1.874 4.529z" fill="none" opacity=".5" stroke="#000" stroke-width=".265"/>
   <g color="#000000">
    <path d="m12.499 293.17c-0.488 0.026-1.792 0.323-1.792 1.234 0 1.04 0.775 1.406 1.238 1.406 0.464 0 1.22-0.35 1.239-1.406 0.014-0.842-0.287-1.182-0.529-1.234a0.78 0.78 0 0 0-0.156 0zm1.568 0c-0.242 0.052-0.543 0.392-0.528 1.234 0.018 1.055 0.766 1.406 1.23 1.406 0.463 0 1.238-0.365 1.238-1.406s-1.698-1.286-1.94-1.234zm-1.568 0.666s0.156 1.8-0.793 1.094c-1.056-0.786 0.793-1.094 0.793-1.094zm1.717 0s1.856 0.308 0.8 1.094c-0.949 0.707-0.8-1.094-0.8-1.094z" fill="#e1594d" overflow="visible"/>
    <path transform="matrix(.26417 0 0 .26312 -.017 279.85)" d="m47.406 50.625c-1.845 0.098-6.781 1.226-6.781 4.688 0 3.956 2.933 5.343 4.688 5.343 1.754 0 4.619-1.332 4.687-5.343 0.054-3.198-1.085-4.491-2-4.688-0.114-0.025-0.33-0.014-0.594 0zm5.907 0c-0.916 0.197-2.055 1.49-2 4.688 0.068 4.01 2.901 5.343 4.656 5.343 1.754 0 4.687-1.387 4.687-5.343 0-3.957-6.428-4.885-7.343-4.688zm-5.907 2.531s0.594 6.843-3 4.157c-3.996-2.987 3-4.157 3-4.157zm6.469 0s7.027 1.17 3.031 4.157c-3.593 2.686-3.031-4.157-3.031-4.157z" fill="none" opacity=".6" overflow="visible" stroke="#640000" stroke-linecap="round" stroke-linejoin="round" stroke-width="1.004"/>
   </g>
  </g>
  <g transform="matrix(1.2701 0 0 1.2701 8.2765 -322.7)">
   <rect transform="scale(1,-1)" x="1.587" y="-295.41" width="13.758" height="13.758" rx=".637" ry=".637" fill="#e6e6e6" overflow="visible"/>
   <rect x="1.455" y="281.52" width="14.023" height="14.023" rx=".765" ry=".765" fill="none" opacity=".5" overflow="visible" stroke="#555761" stroke-linecap="round" stroke-linejoin="round" stroke-width=".265"/>
   <path d="m7.824 284.04c-0.116 0-0.212 0.447-0.268 1.085a3.534 3.534 0 0 0-0.854 0.36c-0.494-0.414-0.88-0.664-0.961-0.582l-0.91 0.91c-0.081 0.081 0.168 0.467 0.582 0.96a3.534 3.534 0 0 0-0.356 0.854c-0.64 0.057-1.088 0.153-1.088 0.269v1.285c0 0.116 0.446 0.212 1.085 0.268a3.534 3.534 0 0 0 0.357 0.856c-0.412 0.493-0.661 0.877-0.58 0.96l0.91 0.908c0.082 0.082 0.466-0.166 0.957-0.578a3.534 3.534 0 0 0 0.858 0.353c0.056 0.64 0.152 1.088 0.268 1.088h1.286c0.116 0 0.212-0.446 0.269-1.085a3.534 3.534 0 0 0 0.854-0.359c0.493 0.414 0.879 0.663 0.96 0.581l0.91-0.909c0.082-0.082-0.168-0.467-0.581-0.96a3.534 3.534 0 0 0 0.355-0.855c0.64-0.056 1.089-0.152 1.089-0.268v-1.285c0-0.116-0.447-0.212-1.085-0.269a3.534 3.534 0 0 0-0.358-0.856c0.412-0.492 0.662-0.877 0.58-0.959l-0.91-0.909c-0.081-0.082-0.465 0.167-0.957 0.579a3.534 3.534 0 0 0-0.857-0.354c-0.057-0.64-0.153-1.088-0.269-1.088zm0.643 2.892a1.606 1.606 0 0 1 1.606 1.606 1.606 1.606 0 0 1-1.606 1.607 1.606 1.606 0 0 1-1.607-1.607 1.606 1.606 0 0 1 1.607-1.606z" fill="#bcbcbc" overflow="visible" style="isolation:auto;mix-blend-mode:normal"/>
   <path d="m8.468 290.25c0.98 0.03 1.835-0.917 1.705-1.891-0.071-0.979-1.097-1.733-2.05-1.506-0.965 0.17-1.612 1.264-1.293 2.191 0.21 0.704 0.903 1.217 1.638 1.206z" fill="none" opacity=".1" overflow="visible" stroke="#000" stroke-width=".265"/>
   <path d="m7.877 284.17a0.976 0.976 0 0 0-0.06 0.182c-0.042 0.18-0.08 0.447-0.108 0.764a0.159 0.159 0 0 1-0.117 0.14 3.4 3.4 0 0 0-0.82 0.344 0.159 0.159 0 0 1-0.183-0.015 5.836 5.836 0 0 0-0.62-0.466 0.985 0.985 0 0 0-0.172-0.088l-0.835 0.835a0.99 0.99 0 0 0 0.088 0.172c0.098 0.158 0.261 0.375 0.466 0.62 0.044 0.05 0.05 0.124 0.016 0.181a3.419 3.419 0 0 0-0.342 0.822 0.159 0.159 0 0 1-0.14 0.116 5.783 5.783 0 0 0-0.765 0.109 0.988 0.988 0 0 0-0.184 0.06v1.18a0.973 0.973 0 0 0 0.183 0.059c0.179 0.042 0.447 0.08 0.763 0.108a0.159 0.159 0 0 1 0.14 0.117 3.4 3.4 0 0 0 0.343 0.822 0.159 0.159 0 0 1-0.015 0.183 5.829 5.829 0 0 0-0.465 0.618 0.995 0.995 0 0 0-0.088 0.172l0.835 0.835a0.98 0.98 0 0 0 0.171-0.088 5.82 5.82 0 0 0 0.618-0.464 0.159 0.159 0 0 1 0.182-0.016 3.4 3.4 0 0 0 0.823 0.34 0.159 0.159 0 0 1 0.118 0.14c0.028 0.317 0.066 0.585 0.108 0.765 0.02 0.087 0.043 0.15 0.06 0.184h1.18a0.976 0.976 0 0 0 0.059-0.183c0.043-0.179 0.08-0.447 0.109-0.763a0.159 0.159 0 0 1 0.116-0.14 3.4 3.4 0 0 0 0.82-0.345 0.159 0.159 0 0 1 0.183 0.016c0.245 0.205 0.462 0.368 0.62 0.466a0.985 0.985 0 0 0 0.172 0.088l0.835-0.835a0.99 0.99 0 0 0-0.088-0.172 5.835 5.835 0 0 0-0.466-0.62 0.159 0.159 0 0 1-0.016-0.182c0.15-0.257 0.265-0.534 0.342-0.82a0.159 0.159 0 0 1 0.14-0.118 5.78 5.78 0 0 0 0.766-0.108 0.98 0.98 0 0 0 0.183-0.06v-1.18a0.98 0.98 0 0 0-0.182-0.059 5.765 5.765 0 0 0-0.764-0.109 0.159 0.159 0 0 1-0.14-0.116 3.4 3.4 0 0 0-0.343-0.823 0.159 0.159 0 0 1 0.015-0.182c0.205-0.245 0.368-0.461 0.465-0.619a0.995 0.995 0 0 0 0.088-0.171l-0.835-0.835a0.98 0.98 0 0 0-0.17 0.087c-0.158 0.097-0.375 0.26-0.618 0.465a0.159 0.159 0 0 1-0.182 0.015 3.4 3.4 0 0 0-0.824-0.34 0.159 0.159 0 0 1-0.117-0.139 5.793 5.793 0 0 0-0.109-0.766 0.984 0.984 0 0 0-0.06-0.183z" fill="none" opacity=".1" overflow="visible" stroke="#000" stroke-width=".265" style="isolation:auto;mix-blend-mode:normal"/>
  </g>
 </g>
</svg>
