<svg xmlns="http://www.w3.org/2000/svg" width="64" height="64" version="1"><g transform="translate(0 -988.862)"><rect ry="3.209" rx="3" y="997.862" x="4" height="46" width="56" fill="#f5f5f5"/><rect ry="3.739" rx="3.5" y="997.362" x="3.5" height="47" width="57" fill="none" stroke="#4f6698" stroke-opacity=".267"/><path d="M6.9 997.862H11v46H6.9c-1.662 0-2.9-1.324-2.9-3.102v-39.795c0-1.778 1.238-3.103 2.9-3.103z" fill="#4c5263"/><path d="M7 996.862c-2.199 0-4 1.922-4 4.267v39.467c0 2.345 1.801 4.266 4 4.266h5v-48zm0 1.067h4v45.867H7c-1.662 0-3-1.428-3-3.2v-39.467c0-1.773 1.338-3.2 3-3.2z" style="line-height:normal;text-indent:0;text-align:start;text-decoration-line:none;text-decoration-style:solid;text-decoration-color:#000;text-transform:none;white-space:normal;isolation:auto;mix-blend-mode:normal;solid-color:#000;solid-opacity:1" color="#000" font-weight="400" font-family="sans-serif" overflow="visible" fill="#232733" fill-opacity=".784"/><circle r="1.5" cx="7.5" cy="1036.862" fill="#82b2ea"/><path d="M41.934 1010.717c.65.517.798 1.406.332 1.993l-11.794 14.822c-.466.586-2.467 1.494-2.858 1.183-.391-.311.044-2.465.51-3.051l11.794-14.822c.467-.587 1.366-.643 2.016-.125z" fill="#53596b" fill-opacity=".784"/></g></svg>