<svg xmlns="http://www.w3.org/2000/svg" height="64" width="64"><path d="M41 6.5A13.47 13.47 0 0 1 54.5 20v3A13.47 13.47 0 0 1 41 36.5H16c-1.508 0-2.96-.235-4.313-.688a6.995 6.995 0 0 1-8.062.75 7.275 7.275 0 0 1-.531-.343 16.15 16.15 0 0 0 3.656-3.375A13.46 13.46 0 0 1 2.5 23v-3A13.47 13.47 0 0 1 16 6.5h25z" fill="#b1ee4a" stroke="#206b00" stroke-opacity=".498"/><path d="M23 26.5A13.47 13.47 0 0 0 9.5 40v3A13.47 13.47 0 0 0 23 56.5h25c1.508 0 2.96-.235 4.313-.688a6.995 6.995 0 0 0 8.062.75c.182-.105.362-.225.531-.343a16.15 16.15 0 0 1-3.656-3.375A13.46 13.46 0 0 0 61.5 43v-3A13.47 13.47 0 0 0 48 26.5H23z" fill="#51c0ff" stroke="#002e99" stroke-opacity=".498" opacity=".9"/><path d="M20 46a2 2 0 1 0 0 4 2 2 0 0 0 0-4zm6 0a2 2 0 1 0 0 4 2 2 0 0 0 0-4zm6 0a2 2 0 1 0 0 4 2 2 0 0 0 0-4z" opacity=".4" fill="#002e99"/></svg>