<svg xmlns="http://www.w3.org/2000/svg" width="64" height="64" viewBox="0 0 16.933 16.933"><g transform="translate(0 -280.067)" color="#000"><rect width="14.023" height="14.023" rx=".765" ry=".765" x="1.455" y="281.522" style="marker:none" overflow="visible" fill="#fb9246"/><rect width="14.023" height="14.023" rx=".765" ry=".765" x="1.455" y="281.522" style="marker:none" overflow="visible" opacity=".5" fill="none" stroke="#a62100" stroke-width=".265" stroke-linecap="round" stroke-linejoin="round"/><path d="M2.696 293.483c0-.244.084-.449.253-.614a.84.84 0 0 1 .617-.253c.237 0 .439.084.604.253.168.165.253.37.253.614a.83.83 0 0 1-.253.609.822.822 0 0 1-.604.248.847.847 0 0 1-.617-.248.821.821 0 0 1-.253-.61m-.05-3.912v1.441a3.342 3.342 0 0 1 3.337 3.343H7.43a4.786 4.786 0 0 0-4.784-4.784zm.002-3.153v1.593a6.342 6.342 0 0 1 6.336 6.342h1.6a7.939 7.939 0 0 0-7.936-7.935z" style="line-height:125%;text-align:start;marker:none" font-weight="700" font-size="13.59" font-family="Bitstream Vera Serif" overflow="visible" fill="#fef7e2"/></g></svg>