<svg width="64" height="64" version="1.1" xmlns="http://www.w3.org/2000/svg">
 <defs>
  <linearGradient id="b" x1="399.57" x2="399.57" y1="545.8" y2="517.8" gradientTransform="matrix(1.9285 0 0 1.9285 -740.52 -993.56)" gradientUnits="userSpaceOnUse">
   <stop stop-color="#3889e9" offset="0"/>
   <stop stop-color="#5ea5fb" offset="1"/>
  </linearGradient>
 </defs>
 <circle cx="32" cy="32" r="27" fill="#56606e" stroke="#3c434c" stroke-width="2"/>
 <g stroke-width="1.4143">
  <circle cx="32" cy="32" r="27" fill="#56606e"/>
  <circle cx="32" cy="32" r="27" fill-opacity="0"/>
  <circle cx="32" cy="32" r="0" fill="url(#b)"/>
 </g>
 <path d="m19.59 41.651v-19.383h3.8767v-2.9075h-6.7841v25.198h6.7841v-2.9075z" fill="#05a5f9" stroke-width=".89994" style="isolation:isolate"/>
 <path d="m40.911 41.651v-19.383h-3.8767v-2.9075h6.7841v25.198h-6.7841v-2.9075z" fill="#05a5f9" stroke-width=".89994" style="isolation:isolate"/>
 <path d="m26.127 23.274-2.6068 1.2779 6.6497 13.586c-0.22162 0.41984-0.4481 0.83738-0.68904 1.2445-0.38765 0.68806-0.86347 1.3169-1.4062 1.8791-0.14538 0.14537-0.30014 0.26167-0.47459 0.35859-0.02908 0.01939-0.05881 0.02988-0.08789 0.02988h-1.1425v2.9074h1.2006c0.51371-0.0097 1.0096-0.14527 1.4554-0.39726 0.41675-0.2326 0.7937-0.52386 1.1232-0.86306 0.7172-0.7365 1.3373-1.5692 1.8509-2.4609 0.61066-1.037 1.1633-2.104 1.6576-3.1991 0.53307-1.1921 1.0465-2.384 1.5117-3.6052 0.85288-2.2 1.6286-4.4292 2.3361-6.6777 0.32952-1.008 0.63911-2.0163 0.92986-3.0339l-2.8001-0.8033c-0.28106 0.98853-0.58191 1.976-0.90178 2.9548-0.68806 2.2001-1.4446 4.3706-2.278 6.5125-0.22677 0.5915-0.46332 1.1813-0.71014 1.7666z" fill="#fff" stroke-width=".89994" style="isolation:isolate"/>
 <path d="m47.695 24.691c0 0.80288-0.65087 1.4538-1.4538 1.4538-0.80288 0-1.4537-0.65087-1.4537-1.4538s0.65087-1.4537 1.4537-1.4537c0.80288 0 1.4538 0.65087 1.4538 1.4537z" fill="#05a5f9" stroke-width=".89994" style="isolation:isolate"/>
 <path d="m47.695 39.228c0 0.80289-0.65087 1.4537-1.4538 1.4537-0.80288 0-1.4537-0.65087-1.4537-1.4537 0-0.80288 0.65087-1.4537 1.4537-1.4537 0.80288 0 1.4538 0.65087 1.4538 1.4537z" fill="#05a5f9" stroke-width=".89994" style="isolation:isolate"/>
</svg>
