<svg width="64" height="64" version="1.1" viewBox="0 0 16.933 16.933" xmlns="http://www.w3.org/2000/svg">
 <defs>
  <linearGradient id="SVGID_1_" x1="69.033" x2="64.443" y1="454.92" y2="449.57" gradientTransform="translate(-8.0854,-395.13)" gradientUnits="userSpaceOnUse">
   <stop stop-color="#2B3B6A" offset="0"/>
   <stop stop-color="#2B3B6A" offset="1"/>
  </linearGradient>
 </defs>
 <g stroke="#000" stroke-opacity=".29412">
  <g stroke-width="2.1864">
   <polygon class="st0" transform="matrix(.12037 0 0 .12165 1.4671 1.3939)" points="58.4 62.2 54.9 55.8 62 55.6" fill="url(#SVGID_1_)"/>
   <g transform="matrix(.12037 0 0 .12165 1.4671 1.3939)" fill="#222856">
    <path class="st1" d="m85.5 57.5c26.1 4.2 29.8 10.7 29.8 10.7v1.2c0 0.2-0.1 0.4-0.2 0.7s-2.7 5.7-19.6 9.3z"/>
    <path class="st2" d="m19.8 78.5c-5.9 15.7-2.9 20.6-2.7 21 0.1 0.2 0.2 0.4 0.4 0.5 0.4 0 0.8-0.1 1.2-0.2 0 0 10.7-0.5 23.2-18.3z"/>
    <path class="st3" d="m58.8 18.6c-14.3-15.7-21.3-14.8-21.7-14.7-0.2 0-0.5 0.1-0.7 0.2-0.5 0.2-1 1.8-1 1.8s-3 8.7 9.1 31.9z"/>
   </g>
   <g transform="matrix(.12037 0 0 .12165 1.4671 1.3939)" fill="#24426c">
    <path class="st4" d="m71.2 78.8c19.4 22.2 26.2 21 26.2 21 0.4 0.1 0.9 0.2 1.3 0.2 0.2-0.1 0.3-0.3 0.4-0.5 0.3-0.4 5.4042-9.5345-13.196-41.934z"/>
    <path class="st5" d="m46.1 82.2c-40-1.7-44.8-11.6-45-12.1 0-0.2-0.1-0.4-0.1-0.6 0.1-0.7 1.5-2 1.5-2s10.6-6.5 28.3-10z"/>
    <path class="st7" d="m73.8 35.4c10.4-24.7 6.4-30.4 6.4-30.4-0.1-0.3-0.2-0.7-0.3-1-0.2-0.1-0.4-0.1-0.7-0.2-0.5-0.1-11.432-1.0008-34.432 31.199z"/>
   </g>
  </g>
  <g stroke-width=".26458">
   <path class="st8" d="m8.4874 13.23c-1.7093 1.8734-2.5666 1.7765-2.6148 1.7765-0.072222-0.02433-0.14444-0.060825-0.20463-0.09732l-2.0944-1.3503c0.8787-0.19464 2.0119-1.2571 3.1433-2.6074z" fill="#2072ae"/>
   <path class="st10" d="m3.9588 6.0166c-0.75833-1.9707-0.38518-2.5911-0.36111-2.6276 0.048148-0.060825 0.10833-0.10948 0.16852-0.14598l2.0824-1.3382c-0.18056 0.86372 0.29701 2.2017 1.0072 3.7467z" fill="#26b1ed"/>
   <path class="st11" d="m8.3523 8.3523c-1.0472 0-2.0944 0.085155-3.1296 0.23114 0.036111 0.060825 0.51759 0.87588 0.86666 1.4233 3.3463 5.2066 4.9111 4.9998 4.9833 4.9876 0.07222-0.02433 0.14444-0.06082 0.20463-0.09732l2.0824-1.3382c-1.4204-0.30412-3.3944-2.652-5.0074-5.2066z" fill="#26b1ed"/>
   <path class="st13" d="m11.683 8.6139c1.625 0.23114 3.0486 0.60209 3.6625 1.2225v-2.4938c0-0.07299-0.01204-0.15814-0.02407-0.23114-0.012041-0.036495-0.38583-0.70021-2.3478-1.126z" fill="#0e88c8"/>
   <path class="st15" d="m10.278 5.6638c-0.36111-0.012165-1.1435-0.04866-1.8176-0.04866-6.1389 0-6.825 1.4355-6.8491 1.4963-0.024074 0.07299-0.024074 0.15814-0.024074 0.23114v2.506c0.60185-0.60825 1.9139-0.9367 3.5148-1.18 1.0352-0.14598 2.0704-0.23114 3.1176-0.2433h0.57778c-0.012037 0 1.8537-2.7493 1.4806-2.7615z" fill="#0e88c8"/>
   <path class="st18" d="m8.4726 8.5469c1.6731-2.5425 2.913-5.2066 2.6-6.6543l2.0824 1.3382c0.06018 0.036495 0.12037 0.085155 0.16852 0.14598 0.03611 0.060825 0.85463 1.4233-2.4917 6.6299-0.24074 0.38928-0.5272 0.93705-0.61146 0.97354-0.49352-0.4866-1.4589-1.9954-1.7117-2.3482-0.024074-0.04866-0.036111-0.085155-0.036111-0.085155z" fill="#2072ae"/>
  </g>
 </g>
</svg>
