<?xml version="1.0" encoding="UTF-8"?>
<svg width="64" height="64" version="1.1" viewBox="0 0 64 64" xmlns="http://www.w3.org/2000/svg" xmlns:cc="http://creativecommons.org/ns#" xmlns:dc="http://purl.org/dc/elements/1.1/" xmlns:rdf="http://www.w3.org/1999/02/22-rdf-syntax-ns#" xmlns:xlink="http://www.w3.org/1999/xlink">
 <metadata>
  <rdf:RDF>
   <cc:Work rdf:about="">
    <dc:format>image/svg+xml</dc:format>
    <dc:type rdf:resource="http://purl.org/dc/dcmitype/StillImage"/>
    <dc:title/>
   </cc:Work>
  </rdf:RDF>
 </metadata>
 <linearGradient id="d" x1="77.167" x2="64.372" y1="115.71" y2="112" gradientUnits="userSpaceOnUse">
  <stop stop-color="#0cf" offset="0"/>
  <stop stop-color="#2a7fff" offset="1"/>
 </linearGradient>
 <linearGradient id="e" x1="68.707" x2="75.819" y1="113.06" y2="117.91" gradientUnits="userSpaceOnUse">
  <stop stop-color="#2a7fff" offset="0"/>
  <stop stop-color="#0cf" offset="1"/>
 </linearGradient>
 <g transform="matrix(.48377 0 0 .48377 -20.095 -71.663)">
  <ellipse cx="107.69" cy="214.28" rx="55.812" ry="55.812" fill="#0cb6ff" stroke="#009adc" stroke-width="4.1342"/>
  <ellipse cx="107.69" cy="214.28" rx="55.812" ry="55.812" fill="#0cb6ff" stroke-width=".046091"/>
  <g transform="matrix(4.5476 0 0 4.649 -203.94 -313.79)" stroke-width=".26458">
   <path d="m65.429 109.92c-0.79474-2.5809-5.2859-1.9546-6.0367-2.0106 0.8426-0.40914 1.6041-0.74639 3.3411-1.9773 3.3463-2.3712 6.8892-1.8541 8.6634-0.91242-4.8503 0.18036-3.9263 2.7652-3.2119 4.1271-0.90852 0.25814-2.3427 0.64782-2.7559 0.77319z" fill="#fff"/>
   <path d="m77.401 106.37c-1.7466 2.2567-4.6505 5.3057-7.8287 5.7074-3.1782 0.40163-6.208-0.0433-6.9099 2.272-0.64633 2.1322 1.6269 4.1229 3.9846 3.6431 2.5188-0.51257 1.9748-3.3051 0.59714-5.2068 1.0465-0.0587 0.85181-0.0435 2.6264-0.131 2.6451 2.2055 3.5219 2.8343 8.143 6.0521-3.5612-0.36484-4.8573-0.69982-7.4114-2.1943 0.66167 1.6246 2.0759 5.3119 2.3822 8.1728-1.4732-2.0706-2.0316-2.8316-4.3147-4.3254-2.9244-1.9135-5.2929-1.9783-6.6637-4.7974-1.3679-2.8131 0.44269-4.8394 3.6825-5.717 4.63-1.2541 8.6193-2.4431 11.712-3.4755z" fill="url(#d)"/>
   <path d="m67.245 112.78c1.0465-0.0587 0.85181-0.0435 2.6264-0.131 2.6451 2.2055 3.5219 2.8343 8.143 6.0521-4.6449-0.32503-8.1593-1.6651-10.769-5.9211z" fill="url(#e)"/>
   <path d="m77.401 106.37c-1.7466 2.2567-4.6505 5.3057-7.8287 5.7074-3.1782 0.40163-6.208-0.0433-6.9099 2.272-0.64633 2.1322 1.6269 4.1229 3.9846 3.6431 2.5188-0.51257 1.9748-3.3051 0.59714-5.2068 1.0465-0.0587 0.85181-0.0435 2.6264-0.131 2.6451 2.2055 3.5219 2.8343 8.143 6.0521-3.5612-0.36484-4.8573-0.69982-7.4114-2.1943 0.66167 1.6246 2.0759 5.3119 2.3822 8.1728-1.4732-2.0706-2.0316-2.8316-4.3147-4.3254-2.9244-1.9135-5.2929-1.9783-6.6637-4.7974-1.3679-2.8131 0.44269-4.8394 3.6825-5.717 4.63-1.2541 8.6193-2.4431 11.712-3.4755z" fill="#fff"/>
   <path d="m67.245 112.78c1.0465-0.0587 0.85181-0.0435 2.6264-0.131 2.6451 2.2055 3.5219 2.8343 8.143 6.0521-4.6449-0.32503-8.1593-1.6651-10.769-5.9211z" opacity=".05"/>
   <path d="m59.392 107.91c0.8426-0.40914 1.6041-0.74639 3.3411-1.9773 3.3463-2.3712 6.8892-1.8541 8.6634-0.91242-4.8503 0.18036-4.2254 1.1257-4.2433 1.8668-3.2226-0.66446-4.1635 0.2396-7.7612 1.0229z" opacity=".03"/>
   <path d="m71.397 105.02c-4.8503 0.18036-3.9263 2.7652-3.2119 4.1271-0.56601 0.16082-1.1795 0.34403-1.9361 0.53991-3.0529-5.3212 2.6563-6.0134 5.148-4.667z" fill="#f2f2f2"/>
   <path d="m62.88 116.89c-2.3735-2.9895-1.9352-5.7296 2.7124-7.1533 4.5864-1.4049 8.716-2.3324 11.809-3.3648-8.3473 3.1111-18.8 5.19-14.522 10.518z" opacity=".05"/>
  </g>
 </g>
</svg>
