<svg xmlns="http://www.w3.org/2000/svg" width="64" height="64" viewBox="0 0 16.933 16.933"><g transform="translate(0 -280.067)"><rect transform="matrix(0 -1 -1 0 0 0)" width="14.287" height="14.287" x="-295.677" y="-15.61" rx="7.144" ry="7.144" fill="#3e4b5a" stroke="#313b46" stroke-width=".529"/><rect ry="7.144" rx="7.144" y="-15.61" x="-295.677" height="14.287" width="14.287" transform="matrix(0 -1 -1 0 0 0)" fill="#3e4b5a"/><rect transform="matrix(0 -1 -1 0 0 0)" width="11.113" height="11.113" x="-294.09" y="-14.023" rx="5.556" ry="5.556" fill="#fff" opacity=".25"/><path d="M8.467 284.895l-.982 1.179a2.646 2.646 0 0 0-1.664 2.46 2.646 2.646 0 1 0 5.291 0 2.645 2.645 0 0 0-1.663-2.46z" fill="#fff"/></g></svg>