<?xml version="1.0" encoding="UTF-8"?>
<svg width="64" height="64" version="1.1" viewBox="0 0 16.933 16.933" xmlns="http://www.w3.org/2000/svg" xmlns:cc="http://creativecommons.org/ns#" xmlns:dc="http://purl.org/dc/elements/1.1/" xmlns:rdf="http://www.w3.org/1999/02/22-rdf-syntax-ns#">
 <metadata>
  <rdf:RDF>
   <cc:Work rdf:about="">
    <dc:format>image/svg+xml</dc:format>
    <dc:type rdf:resource="http://purl.org/dc/dcmitype/StillImage"/>
    <dc:title/>
   </cc:Work>
  </rdf:RDF>
 </metadata>
 <g fill-rule="evenodd" stroke-linecap="round" stroke-linejoin="round" stroke-width=".26458">
  <rect x="5.1328" y="2.6556" width="7.098" height="11.416" ry="0" fill="#fff" stroke="#000"/>
  <path d="m6.7766 6.0484c0.13292 0 0.23926-0.25257 0.23926-0.57731 0-0.32474-0.10634-0.57731-0.23926-0.57731-0.13292 0-0.23926 0.25257-0.23926 0.57731 0 0.32474 0.10634 0.57731 0.23926 0.57731z" clip-rule="evenodd" fill="#c0c81f" stroke="#969c18"/>
  <path d="m13.634 1.7197c-0.32474-0.34278-1.8041 0.072163-2.7061 0.63143-0.70359-0.36082-1.5515-0.57731-2.4536-0.57731-0.92008 0-1.768 0.21649-2.4716 0.57731-0.90204-0.55927-2.3994-0.99225-2.7061-0.63143-0.32474 0.36082 0.23453 1.8582 0.90204 2.6881-0.054123 0.21649-0.090204 0.43298-0.090204 0.66751 0 0.72163 0.30669 1.3891 0.82988 1.9304h2.9767c-0.090204-0.18041 0.036082-0.28865 0.57731-0.28865 0.54123 0.018041 0.64947 0.10825 0.57731 0.28865h2.9767c0.52318-0.54123 0.82988-1.2268 0.82988-1.9304 0-0.23453-0.03608-0.45102-0.0902-0.66751 0.63143-0.82988 1.1727-2.3453 0.84792-2.6881zm-6.8555 4.7628c-0.63143 0-1.1546-0.52318-1.1546-1.1546 0-0.63143 0.52318-1.1546 1.1546-1.1546 0.63143 0 1.1546 0.52318 1.1546 1.1546 0 0.63143-0.52318 1.1546-1.1546 1.1546zm3.3917 0c-0.63143 0-1.1546-0.52318-1.1546-1.1546 0-0.63143 0.52318-1.1546 1.1546-1.1546 0.63143 0 1.1546 0.52318 1.1546 1.1546 0 0.63143-0.50514 1.1546-1.1546 1.1546z" clip-rule="evenodd" fill="#9b592d" stroke="#543117"/>
 </g>
 <path d="m4.7387 15.346h7.4556c0.27916 0 0.50546-0.2263 0.50546-0.50546v-7.4556c0-0.27916-0.2263-0.50546-0.50546-0.50546h-7.4556c-0.27916 1e-7 -0.50546 0.2263-0.50546 0.50546v7.4556c-7e-7 0.27916 0.2263 0.50546 0.50546 0.50546z" fill="#333" stroke="#000" stroke-linecap="round" stroke-linejoin="round" stroke-width=".26458"/>
 <g clip-rule="evenodd" fill-rule="evenodd" stroke-linecap="round" stroke-linejoin="round">
  <path transform="scale(.26458)" d="m7.8008 15.387c-1.0924-0.002197-2.1773 0.16545-3.2129 0.52344 5.7959 0.75006 10.501 3.0006 14.729 7.0918-1.8837-4.4322-6.782-7.6057-11.516-7.6152zm48.398 0c-4.7336 0.009521-9.632 3.1831-11.516 7.6152 4.2276-4.0912 8.9326-6.3417 14.729-7.0918-1.0356-0.35798-2.1205-0.52563-3.2129-0.52344zm-49.379 3.1504c-2.0769 0.038039-4.0984 0.55993-5.8457 1.668 6.546-1.0228 12.479 0.68227 18.07 4.0234-2.8127-3.5159-7.6554-5.7751-12.225-5.6914zm50.359 0c-4.5692-0.083685-9.4119 2.1755-12.225 5.6914 5.5914-3.3412 11.524-5.0462 18.07-4.0234-1.7473-1.108-3.7688-1.6299-5.8457-1.668zm-47.719 3.3809c-2.762-0.045331-5.2549 0.7344-6.5078 2.584 5.7959-1.8411 10.84-1.0238 16.432 1.1582-2.378-2.263-6.3727-3.6839-9.9238-3.7422zm45.078 0c-3.5512 0.058282-7.5458 1.4792-9.9238 3.7422 5.5913-2.182 10.636-2.9993 16.432-1.1582-1.2529-1.8496-3.7458-2.6293-6.5078-2.584z" fill="#793000" stroke="#461900"/>
  <path d="m3.7037 5.7248c-0.45102 0-0.82988 0.23453-1.0103 0.59535h-0.054123c-0.4871 0-0.90204 0.36082-0.90204 0.81184 0 0.63143 0.64947 0.9742 1.2448 0.75771 0.36082 0.52318 1.1366 0.55927 1.4252 0 0.43298-0.018041 1.1366-0.090204 1.2448-0.75771 0.072163-0.45102-0.3969-0.81184-0.90204-0.81184h-0.054123c-0.14433-0.36082-0.54122-0.59535-0.99225-0.59535zm9.5256 0c0.45102 0 0.82988 0.23453 1.0103 0.59535h0.05412c0.25257 0 0.90204 0.36082 0.90204 0.81184 0 0.63143-0.64947 0.9742-1.2448 0.75771-0.36082 0.52318-1.1366 0.55927-1.4252 0-0.43298-0.018041-1.1366-0.090204-1.2448-0.75771-0.07216-0.45102 0.64947-0.81184 0.90204-0.81184h0.05412c0.14433-0.36082 0.54123-0.59535 0.99225-0.59535z" fill="#695050" stroke="#3c2c2c" stroke-width=".26458"/>
  <path d="m10.13 6.0484c0.13292 0 0.23926-0.25257 0.23926-0.57731 0-0.32474-0.10634-0.57731-0.23926-0.57731-0.13292 0-0.23926 0.25257-0.23926 0.57731 0 0.32474 0.10634 0.57731 0.23926 0.57731z" fill="#c0c81f" stroke="#969c18" stroke-width=".26458"/>
 </g>
 <path d="m8.7319 12.602h2.679c0.40385 5.19e-4 0.40385 0.60604 0 0.60656h-2.679c-0.40385-5.19e-4 -0.40385-0.60604 0-0.60656zm-3.2218-3.2703c-0.26612-0.28558 0.14305-0.69475 0.42863-0.42863l1.8945 1.8935c0.11826 0.11841 0.11826 0.31022 0 0.42863l-1.8945 1.8945c-0.28558 0.26608-0.69472-0.14305-0.42863-0.42863l1.6802-1.6802z" fill="#fff"/>
</svg>
