<svg width="64" height="64" version="1.1" viewBox="0 0 16.933 16.933" xmlns="http://www.w3.org/2000/svg">
 <circle cx="8.4665" cy="8.4665" r="7.1436" fill="#f9f9f9" stroke="#e5e5e5" stroke-linecap="square" stroke-width=".52916" style="paint-order:markers stroke fill"/>
 <circle cx="8.4665" cy="8.4665" r="7.1436" fill="#f9f9f9" style="paint-order:markers stroke fill"/>
 <path d="m13.213 11.455c0-0.93876-0.7694-1.6997-1.7184-1.6997-0.57492 0-1.0805 0.2818-1.3928 0.7107l-0.0021-0.0025s-0.48158 0.77222-1.2531 0.78884c-0.80369 0.01732-2.2028-0.24539-2.7668-1.8991 0 0-0.5378 2.2198 1.7113 3.5521 2.4896 1.4751 4.3954 0.10537 4.4021 0.10218l-0.0014-0.0018c0.54134-0.37583 1.0211-0.85811 1.0211-1.5508z" fill="#a3d8f1" fill-opacity=".4382" stroke-width=".35358"/>
 <path d="m7.0993 5.1195c2.742 2.6766 4.0478 4.1206 3.9431 4.2278-0.10466 0.10714-1.5798-1.1629-4.3218-3.8395-2.742-2.6766-4.7097-4.5174-4.4806-4.7521 0.24256-0.24821 2.1173 1.6876 4.8593 4.3639z" fill="#5a372f" stroke-width=".35358"/>
 <path d="m12.653 10.05c0.84046 0.82031 0.64882 1.7089 0.45011 1.9125-0.36454-0.97164-0.64918-0.69974-1.2446-1.0986-0.77505-0.5187-0.75843-1.0625-0.55972-1.2662 0.19871-0.20366 0.68312-0.20296 1.3542 0.45223z" fill="#544545" stroke-width=".35358"/>
 <path d="m9.2166 7.8938c1.5218 1.42 2.1554 2.0451 2.2902 1.9072 0.14037-0.14355-0.50562-0.75631-1.962-2.2435z" fill="#9fa0a0" stroke-width=".35358"/>
</svg>
