<svg width="64" height="64" version="1.1" viewBox="0 0 16.933 16.933" xmlns="http://www.w3.org/2000/svg">
 <g stroke-width=".26458">
  <rect x="1.4552" y="1.4552" width="14.023" height="14.023" rx=".7649" ry=".7649" color="#000000" fill="#f9c542" overflow="visible" solid-color="#000000" style="isolation:auto;mix-blend-mode:normal"/>
  <path d="m14.684 10.319c0.07329 0 0.13229-0.059 0.13229-0.13229v-7.9373c0-0.073288-0.059-0.13229-0.13229-0.13229h-12.435c-0.073288 0-0.13229 0.059001-0.13229 0.13229v7.9373c0 0.07329 0.059001 0.13229 0.13229 0.13229z" color="#000000" fill="#e4ba39" overflow="visible" solid-color="#000000" style="isolation:auto;mix-blend-mode:normal"/>
  <path d="m4.2332 10.335v0.77707h0.79373v1.0832h6.879v-1.0832h0.79373v-0.77733h-7.6728z" color="#000000" fill="#b3b3b3" overflow="visible"/>
  <path d="m5.0302 11.509h6.8727" fill="none" opacity=".2" stroke="#000"/>
  <path d="m5.1085 12.011h6.7161" fill="none" opacity=".17" stroke="#000"/>
  <rect x="2.6458" y="3.1749" width="11.641" height="7.4082" rx=".71383" ry=".72045" fill="#8f8f8f" fill-rule="evenodd" overflow="visible"/>
  <rect x="2.6458" y="3.1749" width="11.641" height="7.1436" rx=".41698" ry=".4093" fill="#f2f2f2" fill-rule="evenodd" overflow="visible"/>
 </g>
 <g fill="none" stroke-width=".26458">
  <path d="m6.6145 6.751-3.3078 2.8209zm3.7041 0.023812 3.3422 2.7379z" overflow="visible" stroke="#bebebe"/>
  <rect x="2.5135" y="2.5135" width="11.906" height="7.6728" rx=".39687" ry=".39687" opacity=".1" overflow="visible" stroke="#000"/>
  <path d="m2.7738 3.6263 5.6927 4.4089 5.7789-4.4383" overflow="visible" stroke="#bebebe"/>
  <path d="m5.0302 10.98h6.8727" opacity=".2" stroke="#000"/>
  <path d="m2.6286 2.519c-0.11747 0-0.11059 0.010848-0.11059 0.097894v7.4241c0 0.16139-0.020372 0.21642 0.18864 0.21642h1.7084c0.44079 0 0.74505 0.34871 0.74505 0.84136v0.96439h6.6084v-1.0858c0-0.36326 0.34395-0.71965 0.69954-0.71965h1.8251c0.12911 0 0.1262-0.0042 0.1262-0.1352v-7.5098c0-0.1262-0.0053-0.093661-0.11536-0.093661z" color="#000000" opacity=".3" overflow="visible" stroke="#b67926"/>
 </g>
 <g stroke-width=".26458">
  <path d="m2.1166 1.5875c-0.26458 0-0.52916 0.26458-0.52916 0.52916v8.3342c0 0.36644 0.295 0.66144 0.66145 0.66144h2.7781v-0.13229c0-0.36644-0.295-0.66144-0.66145-0.66144h-1.4552c-0.26458 0-0.52916-0.26458-0.52916-0.52916v-6.879c0-0.26458 0.26458-0.52916 0.52916-0.52916h11.112c0.26458 0 0.52916 0.26458 0.52916 0.52916v6.879c0 0.26458-0.26458 0.52916-0.52916 0.52916h-1.4552a0.66012 0.66012 0 0 0-0.66144 0.66144v0.13229h2.7897a0.65959 0.65959 0 0 0 0.66144-0.66144l-0.011641-8.3342c-2.65e-4 -0.26458-0.26458-0.52916-0.52916-0.52916zm2.9104 9.9217v0.79373c0 0.36644 0.295 0.66144 0.66145 0.66144h5.5561c0.36644 0 0.66145-0.295 0.66145-0.66144v-0.79373c0 0.36644-0.295 0.66144-0.66145 0.66144h-5.5561a0.66012 0.66012 0 0 1-0.66145-0.66144z" color="#000000" fill="#ffe37d" overflow="visible"/>
  <rect x="1.4552" y="1.4552" width="14.023" height="14.023" rx=".71515" ry=".73315" color="#000000" fill="none" opacity=".5" overflow="visible" solid-color="#000000" stroke="#956500" style="isolation:auto;mix-blend-mode:normal"/>
  <rect x="2.5135" y="3.0426" width="11.906" height="7.1436" rx=".53577" ry=".52095" fill="none" opacity=".1" overflow="visible" stroke="#000"/>
 </g>
 <path d="m10.467 5.0197c0.31088 0.31088 0.31088 0.81146 0 1.1226l-2.4257 2.4257c-0.41459 0.41459-1.0821 0.41459-1.4967 0-0.41459-0.41459-0.41459-1.0821 0-1.4967l2.4257-2.4257 0.18706 0.18706-2.4257 2.4257c-0.31088 0.31088-0.31088 0.81146 0 1.1226 0.31088 0.31088 0.81146 0.31088 1.1226 0l2.4257-2.4257c0.20716-0.20716 0.20716-0.54106 0-0.74823-0.20716-0.20716-0.54106-0.20716-0.74823 0l-2.4257 2.4257c-0.10372 0.10372-0.10372 0.27066 0 0.37411 0.10371 0.10372 0.2704 0.10372 0.37411 0l2.2386-2.2386 0.18706 0.18706-2.2386 2.2386c-0.20716 0.20716-0.54106 0.20716-0.74823 0-0.20716-0.20716-0.20716-0.54106 0-0.74823l2.4257-2.4257c0.31088-0.31088 0.81146-0.31088 1.1226 0" color-rendering="auto" fill="#808080" image-rendering="auto" shape-rendering="auto" stroke-width=".26458"/>
</svg>
