<svg xmlns="http://www.w3.org/2000/svg" xmlns:xlink="http://www.w3.org/1999/xlink" width="64" height="64" viewBox="0 0 16.933 16.933"><defs><radialGradient xlink:href="#a" id="c" gradientUnits="userSpaceOnUse" cx="2435.453" cy="-1290.901" fx="2435.497" fy="-1289.664" r="2.033"/><linearGradient id="a"><stop offset="0" stop-color="#fff"/><stop offset=".783"/><stop offset="1"/></linearGradient><linearGradient id="b"><stop offset="0" stop-color="#818181"/><stop offset=".167" stop-color="#fff"/><stop offset=".301" stop-color="#fafafa"/><stop offset=".417" stop-color="#d7d7d7"/><stop offset=".448"/><stop offset=".594" stop-color="#d5d5d5"/><stop offset=".703" stop-color="#c8c8c8"/><stop offset=".758" stop-color="#333"/><stop offset=".95" stop-color="#c1c1c1"/><stop offset="1" stop-color="#343434"/></linearGradient><clipPath id="d" clipPathUnits="userSpaceOnUse"><path d="M2293.506-1105.552c-1.472 14.377 2.31 28.837 9.733 39.867h4.547c7.423-11.03 11.205-25.49 9.734-39.867-5.89-4.64-18.318-4.887-24.014 0z" fill="#515151" fill-rule="evenodd" stroke-width=".933"/></clipPath><clipPath id="e" clipPathUnits="userSpaceOnUse"><path d="M2324.262-1105.552c-1.47 14.377 2.311 28.837 9.734 39.867h4.546c7.424-11.03 11.206-25.49 9.734-39.867-5.89-4.64-18.318-4.887-24.014 0z" fill="#fefefe" fill-rule="evenodd" stroke-width=".933"/></clipPath><clipPath id="f" clipPathUnits="userSpaceOnUse"><path d="M2410.656-1125.531l-.125 20.406h.125v-.188c2.196-2.14 6.691-3.593 11.875-3.593s9.68 1.453 11.875 3.594v.187h.125l-.125-20.406z" fill="url(#linearGradient5903)" stroke-width=".354" stroke-linecap="round" stroke-linejoin="round"/></clipPath><linearGradient xlink:href="#b" id="g" gradientUnits="userSpaceOnUse" gradientTransform="matrix(.10543 0 0 -.03518 2007.829 -1106.79)" x1="2205.938" y1="-1222.138" x2="2229.125" y2="-1222.138"/></defs><g transform="translate(0 -280.067)"><rect ry=".263" width="11.113" x="2.91" y="281.654" rx=".263" height="13.758" style="isolation:auto;mix-blend-mode:normal;solid-color:#000;solid-opacity:1" color="#000" overflow="visible" fill="#b1b1b1" fill-rule="evenodd" stroke-width=".529" stroke-opacity=".51" stroke="#000"/><rect style="isolation:auto;mix-blend-mode:normal;solid-color:#000;solid-opacity:1" height="13.758" rx=".263" y="281.654" x="2.91" width="11.113" ry=".263" color="#000" overflow="visible" fill="#b1b1b1" fill-rule="evenodd"/><path d="M3.44 282.183v12.7h10.054v-12.7z" fill="#fff" fill-rule="evenodd"/><path opacity=".437" fill="#1b1b1b" fill-rule="evenodd" d="M3.44 294.619h10.054v.265H3.44z"/><path style="isolation:auto;mix-blend-mode:normal;solid-color:#000;solid-opacity:1;marker:none" color="#000" overflow="visible" opacity=".082" d="M4.233 282.183h.265v12.435h-.265z"/><path style="isolation:auto;mix-blend-mode:normal;solid-color:#000;solid-opacity:1;marker:none" color="#000" overflow="visible" opacity=".373" fill="#fff" d="M3.44 282.183h.794v12.435H3.44z"/><path fill="#bcbcbc" fill-rule="evenodd" d="M5.027 284.035h2.117v.265H5.027zm2.381 0h1.323v.265H7.408zm-2.381.53h1.587v.265H5.027zm1.852 0h.794v.265h-.794zm-1.852.529h1.066v.265H5.027zm1.323 0h1.852v.265H6.35zm-1.323-2.117H6.35v.265H5.027zm2.911 0h1.587v.265H7.938zm-2.911.529h1.852v.265H5.027zm2.117 0h.794v.265h-.794zm-2.117 3.969h1.852v-.265H5.027zm2.117 0h.794v-.265h-.794zm-2.117-.529h1.066v-.265H5.027zm1.323 0h2.117v-.265H6.35zm-1.323-.529h2.646v-.265H5.027zm2.911 0h1.323v-.265H7.938zm-2.911 1.852h2.646v.265H5.027zm0 .529h1.852v.265H5.027zm2.117 0h1.058v.265H7.144zm-2.117.529h1.058v.265H5.027zm0 .529h1.852v.265H5.027zm2.911-5.291h1.058v.265H7.938zm-1.323-1.588h1.058v.265H6.615zm1.587.529h1.852v.265H8.202zm.794.529h2.646v.265H8.996zm.264.53h2.381v.265H9.26zm-.529 2.381h1.323v-.265H8.731zm-.793 1.323h1.058v.265H7.938zm-1.588 1.058h2.117v.265H6.35zm.794.529h1.852v.265H7.144z"/><path fill="#bcbcbc" fill-rule="evenodd" d="M7.144 287.475h.794v-.265h-.794zm2.381-1.058h.529v-.265h-.529zm-.265 2.116h1.323v-.265H9.26zm-.793.265h1.587v.265H8.467zm1.323-5.821h1.058v.265H9.79zm.529.529h.794v.265h-.794z"/><path d="M13.494 284.83l-2.646-2.647v2.646z" fill="#ececec" fill-rule="evenodd"/><path d="M10.848 282.183l2.646 2.646v-2.646z" fill="#fdfdfd" fill-rule="evenodd"/><path fill="#bcbcbc" fill-rule="evenodd" d="M10.319 286.417h1.323v-.265h-1.323zm1.587 0h.529v-.265h-.529zm-1.587.529h2.117v-.265h-2.117zm.529 1.587h1.587v-.265h-1.587zm-.529.265h1.323v.265h-1.323zm1.587 0h.529v.265h-.529zm-3.175.529h1.058v.265H8.731zm1.323 0h2.381v.265h-2.381zm-5.027 2.381h1.066v-.265H5.027zm1.323 0h2.117v-.265H6.35zm-1.323-.529h2.646v-.265H5.027zm2.911 0h1.323v-.265H7.938zm.793.529h1.323v-.265H8.731zm.794-.529h.529v-.265h-.529zm.794 0h1.323v-.265h-1.323zm1.587 0h.529v-.265h-.529zm-1.587.529h2.117v-.265h-2.117zm-5.292.265h1.852v.265H5.027zm2.117 0h1.058v.265H7.144zm-2.117.529h1.058v.265H5.027zm0 .529h1.852v.265H5.027zm1.323-.529h2.117v.265H6.35zm.794.529h1.852v.265H7.144zm1.323-1.058h1.587v.265H8.467zm1.852 0h1.323v.265h-1.323zm1.587 0h.529v.265h-.529zm-3.175.529h1.058v.265H8.731zm1.323 0h2.381v.265h-2.381z"/><g transform="scale(.03811 .03654) rotate(45 -9736.262 1047.623)" stroke-width="3.248"><g transform="translate(1768.236 -809.889) scale(.19435)"><circle r="2.033" cy="-1290.901" cx="2435.453" fill="url(#c)"/><circle r="2.033" cy="-1290.901" cx="2435.453" fill="#999"/></g><path d="M2233.55-1308.792c0-6.366 15.89-6.644 15.89 0l.722 21.943h-17.334z" fill="#4d4d4d" stroke="#000" stroke-width="1.151" stroke-linecap="round" stroke-linejoin="round" stroke-opacity=".51"/><path d="M2241.5-1290.469c-4.808 0-8.964 1.359-11 3.344l-1 182h.125v-.188c2.195-2.14 6.691-3.593 11.875-3.593s9.68 1.453 11.875 3.594v.187h.125l-1-182c-2.036-1.985-6.192-3.344-11-3.344z" fill="#666" stroke="#191919" stroke-width="3.545" stroke-linecap="round" stroke-linejoin="round" stroke-opacity=".51"/><path d="M2241.469-1289.76c-4.88 0-9.098 1.38-11.164 3.394v.793c2.066-2.015 6.284-3.394 11.164-3.394s9.097 1.38 11.164 3.394v-.793c-2.067-2.015-6.285-3.393-11.164-3.393z" opacity=".803"/><path d="M2241.469-1289.05c-4.88 0-9.098 1.38-11.164 3.395v.793c2.066-2.015 6.284-3.394 11.164-3.394s9.097 1.379 11.164 3.394v-.793c-2.067-2.015-6.285-3.394-11.164-3.394z" opacity=".803" fill="#fff" fill-opacity=".503"/><path d="M2229.512-1105.552c-1.47 14.377 2.311 28.837 9.734 39.867h4.546c7.424-11.03 11.206-25.49 9.734-39.867-5.89-4.64-18.318-4.887-24.014 0z" fill="#999" fill-rule="evenodd" stroke="#000" stroke-width="3.029" stroke-opacity=".51"/><ellipse ry=".844" rx="1.688" cy="-1065.7" cx="2241" transform="matrix(1.32407 0 0 1 -725.603 0)"/><g clip-path="url(#d)" transform="translate(-63.893)" fill-rule="evenodd"><path d="M2308.173-1063.743c-8.509-.374-16.54-36.704-11.313-47.288-28.09-.875-15.785 51.133 11.313 47.288z" fill="gray"/><path d="M2304.06-1063.743c9.6-.997 17.783-37.413 11.314-47.288 28.089-.875 15.785 51.133-11.313 47.288z" fill="#ccc"/></g><path d="M2333.452-1109.263c2.437 1.499 2.593 30.229 2.475 47.906 6.274-15.287 10.676-29.65 9.546-50.028z" clip-path="url(#e)" transform="translate(-94.576)" fill="gray" fill-rule="evenodd"/><path d="M2422.531-1109.688c-5.374 0-10.036 1.5-12.312 3.72v.187h-.125v1.406h.125v-.188c2.276-2.218 6.938-3.718 12.312-3.718 5.375 0 10.037 1.5 12.313 3.718v.188h.125v-1.406h-.125v-.188c-2.276-2.219-6.938-3.719-12.313-3.719z" clip-path="url(#f)" transform="translate(-181 -.2)" fill="#666"/><path d="M2230.745-1284.449l-.707 59.397c.127 1.03.58 1.031 1.414-.177 4.216-12.234.83-37.943 1.945-59.927l.53-2.121z" opacity=".795" fill="#333" fill-rule="evenodd" stroke="#000" stroke-opacity=".178"/><path d="M2235.375-1288.388c-.958.496-1.302.617-2.299 1.144-.299.158-1.176.948-1.261 2.136-1.837 25.5 2.992 54.996-1.878 60.72-1.01 1.189-2.207 2.294-2.437.75-3.585-24.06-.267-54.742.086-60.34.052-.823 1.05-1.594 1.673-1.971 1.959-1.186 4.1-1.982 6.116-2.439z" fill="#4d4d4d" fill-rule="evenodd" stroke="#000" stroke-opacity=".51"/><path d="M2241.146-1060.821l-.794-2.422v-3.21h.013v.01c.307-.04.704-.092 1.25-.097.584 0 .922.036 1.254.096v-.01h.013v3.342l-.933 2.274c-.187.06-.65.04-.803.016z" fill="url(#g)"/><path d="M2241.667-1066.631c-1.234 0-2.25.378-2.25.844 0 .349.573.621 1.375.75-.575-.12-.969-.36-.969-.626 0-.386.82-.687 1.844-.687s1.844.3 1.844.687c0 .265-.394.506-.97.625.803-.128 1.345-.4 1.345-.75 0-.465-.986-.843-2.22-.843z"/><path d="M2241.146-1060.821l-.794-2.422v-3.21h.013v.01c.307-.04.704-.092 1.25-.097.584 0 .922.036 1.254.096v-.01h.013v3.342l-.933 2.274c-.187.06-.65.04-.803.016z" fill="#333"/></g></g></svg>