<svg xmlns="http://www.w3.org/2000/svg" width="64" height="64" viewBox="0 0 16.933 16.933"><g transform="translate(0 -280.067)"><rect ry=".529" rx=".529" y="281.654" x="2.117" height="13.758" width="12.7" opacity=".9" fill="#3f51b5" stroke="#1e1f5a" stroke-width=".529" stroke-linecap="round" stroke-linejoin="round" paint-order="markers stroke fill"/><rect width="12.7" height="13.758" x="2.117" y="281.654" rx=".529" ry=".529" fill="#3f51b5" paint-order="markers stroke fill"/><path d="M3.44 282.713a.264.264 0 0 0-.265.264v11.113c0 .146.118.264.265.264h10.054a.264.264 0 0 0 .264-.264v-7.144l-4.233-4.233H3.44zm7.672 0l2.646 2.645v-2.38a.264.264 0 0 0-.264-.265h-2.382z" fill="#fff" paint-order="markers stroke fill"/><path d="M5.292 292.238v-.53H9.79v.53zm0-1.323v-.53h6.35v.53zm0-1.323v-.53h6.35v.53zm0-1.323v-.53h6.35v.53z" fill="#ccc"/></g></svg>