<svg xmlns="http://www.w3.org/2000/svg" width="64" height="64" viewBox="0 0 16.933 16.933"><g transform="translate(0 -280.067)" paint-order="markers stroke fill"><rect ry=".529" rx=".529" y="281.654" x="2.117" height="13.758" width="12.7" opacity=".9" fill="#4caf50" stroke="#2c742f" stroke-width=".529" stroke-linecap="round" stroke-linejoin="round"/><rect width="12.7" height="13.758" x="2.117" y="281.654" rx=".529" ry=".529" fill="#4caf50"/><path d="M3.44 282.713a.264.264 0 0 0-.265.264v11.113c0 .146.118.264.265.264h10.054a.264.264 0 0 0 .264-.264v-7.144l-4.233-4.233H3.44zm7.672 0l2.646 2.645v-2.38a.264.264 0 0 0-.264-.265h-2.382z" fill="#fff"/><rect width="6.879" height="4.498" x="5.027" y="287.74" rx="0" ry="0" fill="#ccc"/><rect ry="0" rx="0" y="289.592" x="5.556" height=".794" width="1.587" fill="#fff"/><rect width="1.587" height=".794" x="7.673" y="289.592" rx="0" ry="0" fill="#fff"/><rect ry="0" rx="0" y="289.592" x="9.79" height=".794" width="1.587" fill="#fff"/><rect width="1.587" height=".794" x="5.556" y="290.915" rx="0" ry="0" fill="#fff"/><rect ry="0" rx="0" y="290.915" x="7.673" height=".794" width="1.587" fill="#fff"/><rect width="1.587" height=".794" x="9.79" y="290.915" rx="0" ry="0" fill="#fff"/><rect width="1.587" height=".794" x="5.556" y="288.269" rx="0" ry="0" fill="#fff"/><rect ry="0" rx="0" y="288.269" x="7.673" height=".794" width="1.587" fill="#fff"/><rect width="1.587" height=".794" x="9.79" y="288.269" rx="0" ry="0" fill="#fff"/></g></svg>