<svg xmlns="http://www.w3.org/2000/svg" width="64" height="64" viewBox="0 0 16.933 16.933"><g transform="translate(0 -280.067)"><rect ry=".529" rx=".529" y="281.654" x="2.117" height="13.758" width="12.7" opacity=".9" fill="#4d4d4d" stroke="#141414" stroke-width=".529" stroke-linecap="round" stroke-linejoin="round" paint-order="markers stroke fill"/><rect width="12.7" height="13.758" x="2.117" y="281.654" rx=".529" ry=".529" fill="#4d4d4d" paint-order="markers stroke fill"/><path d="M3.44 282.713a.264.264 0 0 0-.265.264v11.113c0 .146.118.264.265.264h10.054a.264.264 0 0 0 .264-.264v-7.144l-4.233-4.233H3.44zm7.672 0l2.646 2.645v-2.38a.264.264 0 0 0-.264-.265h-2.382z" fill="#fff" paint-order="markers stroke fill"/><path d="M5.82 286.946v1.447s1.07-.77 1.07.622c0 1.394-1.07.842-1.07.842v1.322h1.448s-.548-1.111.696-1.094c1.337.019.75 1.094.75 1.094h1.34v-1.393s1.05.46 1.058-.668c.008-.84-.396-.964-1.058-.725v-1.447H8.731s.535-1.058-.747-1.058-.716 1.058-.716 1.058m-1.447 0" fill="#ccc"/></g></svg>