<svg xmlns="http://www.w3.org/2000/svg" width="64" height="64" viewBox="0 0 16.933 16.933"><g transform="translate(0 -280.067)" paint-order="markers stroke fill"><rect ry=".529" rx=".529" y="281.654" x="2.117" height="13.758" width="12.7" opacity=".9" fill="#ff5722" stroke="#ac2b00" stroke-width=".529" stroke-linecap="round" stroke-linejoin="round"/><rect width="12.7" height="13.758" x="2.117" y="281.654" rx=".529" ry=".529" fill="#ff5722"/><path d="M3.44 282.713a.264.264 0 0 0-.265.264v11.113c0 .146.118.264.265.264h10.054a.264.264 0 0 0 .264-.264v-7.144l-4.233-4.233H3.44zm7.672 0l2.646 2.645v-2.38a.264.264 0 0 0-.264-.265h-2.382z" fill="#fff"/><path d="M6.88 287.74a1.323 1.323 0 0 0-1.324 1.323 1.323 1.323 0 0 0 1.323 1.322 1.323 1.323 0 0 0 1.323-1.322H6.88z" fill="#ccc"/><rect width="2.646" height=".529" x="8.731" y="287.74" rx="0" ry="0" fill="#ccc"/><rect ry="0" rx="0" y="289.327" x="8.731" height=".529" width="2.646" fill="#ccc"/><rect width="4.762" height=".529" x="5.556" y="290.915" rx="0" ry="0" fill="#ccc"/></g></svg>