<svg xmlns="http://www.w3.org/2000/svg" width="64" height="64" viewBox="0 0 16.933 16.933"><g transform="translate(-.163 -285.615) scale(1.01923)" stroke="#000" stroke-width=".26" stroke-opacity=".314" paint-order="fill markers stroke" stroke-linecap="round" stroke-linejoin="round"><rect width="13.758" height="13.758" x="1.587" y="281.654" rx=".825" ry=".825" fill="#4d4d4d"/><path d="M14.52 281.654c.458 0 .826.368.826.826v6.053h-6.88v-6.879zM2.413 295.413a.824.824 0 0 1-.826-.826v-6.054h6.88v6.88z" fill="#1f8fd7"/></g><g paint-order="markers stroke fill" transform="translate(0 -280.067)"><rect ry=".825" rx=".825" y="281.654" x="1.587" height="13.758" width="13.758" fill="#4d4d4d"/><path d="M14.52 281.654c.458 0 .826.368.826.826v6.053h-6.88v-6.879zM2.413 295.413a.824.824 0 0 1-.826-.826v-6.054h6.88v6.88z" fill="#1f8fd7"/></g></svg>