<svg width="64" height="64" version="1" xmlns="http://www.w3.org/2000/svg">
 <g transform="matrix(1.0385 0 0 1.0385 -1.2308 -1.2308)">
  <circle cx="32" cy="32" r="26" fill="#f24f37" stroke="#b23825" stroke-width="1.9259"/>
  <circle cx="32" cy="32" r="26" fill="#f24f37"/>
  <path d="m29.562 6.1001a26.021 26.025 0 0 0-9.4174 2.732c0.13095 0.41643-0.02178 0.88632-0.5006 1.3012-0.32396 0.28076-0.58954 0.71812-0.58954 0.97338 0 0.78032 0.70555 1.9786 1.268 2.1526 0.74874 0.23172 0.49678 1.0301-0.46501 1.4715-0.44456 0.20459-0.9918 0.79175-1.2164 1.3064-0.22458 0.51469-0.55585 1.0228-0.73439 1.1285-0.17859 0.10565-0.32526 0.50804-0.32526 0.89461 0 0.53979 0.24638 0.80148 1.0571 1.1259 0.58059 0.2323 1.2752 0.40154 1.545 0.37614 1.5489-0.1458 1.6575 0.75662 0.30238 2.5212-0.71942 0.93681-1.0653 1.1724-1.5552 1.0547-0.45721-0.10991-0.70709 0.01941-0.9148 0.47271-0.21958 0.47915-0.57831 0.64235-1.5425 0.70907-0.9477 0.0656-1.3725 0.25814-1.728 0.7777-0.25915 0.37876-0.63393 0.68619-0.83349 0.68619-0.19956 0-0.6683 0.25398-1.0419 0.56422-0.76043 0.63156-1.0574 0.69512-1.3239 0.28211-0.35228-0.54652-1.1125-0.27026-2.2438 0.81277-1.0004 0.95891-1.1217 1.2151-0.97078 2.0459 0.26852 1.4796 1.0709 2.7926 1.9871 3.2505 0.7995 0.3996 0.81506 0.4427 0.33035 0.95558-0.27886 0.2951-0.75723 0.6113-1.0622 0.70399-0.88077 0.26769-0.38503 0.60345 1.1867 0.8031 1.6086 0.20432 2.1085 0.78811 1.357 1.5833-0.41912 0.44348-0.39552 0.52602 0.27698 0.94798 1.3143 0.82678 2.3591 0.3203 1.1259-0.54251-0.79284-0.55452-0.23859-0.78074 0.92494-0.37836 0.92711 0.32102 1.1105 0.30276 1.6593-0.17282 1.1248-0.9748 2.3475 0.46696 1.3188 1.5554-0.65467 0.69272-0.45625 1.5288 0.39134 1.6443 0.37448 0.05105 1.1526 0.39962 1.7305 0.77515 0.57788 0.37553 1.2075 0.68365 1.3976 0.68365s0.72622 0.38096 1.1918 0.84632c0.94464 0.94417 1.4691 1.0641 1.7356 0.39902 0.32044-0.79966 0.19153-1.2117-0.67086-2.1526-0.68659-0.74917-1.8017-2.7406-1.8017-3.2174 0-0.29492 1.134-0.04486 1.7686 0.38885 0.39718 0.27146 1.0398 0.62147 1.4281 0.78024 0.41447 0.16942 0.84346 0.69506 1.0393 1.2707 0.30697 0.90215 0.42792 0.98101 1.5094 0.98101h1.1765l0.17788 2.1144c0.21407 2.5434 0.41796 3.0585 1.2909 3.2683 0.64304 0.15455 1.329 1.1503 1.329 1.929 0 0.20698-0.46263 0.71394-1.0266 1.1259-0.7002 0.51142-1.002 0.94618-0.95545 1.3724 0.05813 0.53216-0.06231 0.6151-0.8157 0.55913-0.48595-0.03616-1.328 0.13421-1.8703 0.37868-0.64072 0.28886-1.3358 0.38134-1.9871 0.26431-0.7495-0.13469-1.0037-0.08237-1.0037 0.21094 0 0.21566-0.26177 0.61969-0.58191 0.89713-0.79174 0.68615-0.4646 1.0492 0.74962 0.83107 0.75469-0.13557 1.0491-0.0753 1.1791 0.24908 0.27706 0.69142-0.4252 1.6806-1.0774 1.5173-0.41283-0.10332-0.61137 0.03742-0.73946 0.52608-0.04536 0.17306-0.12636 0.31966-0.22362 0.44476a26.021 26.025 0 0 0 4.1165 1.2174c-0.12988-0.24954-0.2775-0.47485-0.42182-0.57691-0.67058-0.47423-0.222-1.7045 0.70134-1.9264 0.93992-0.22589 0.79186-0.83621-0.23125-0.95304-0.89544-0.10226-1.85-1.0094-1.5501-1.4741 0.2011-0.3116 1.0587-0.26617 2.7926 0.14486 0.78301 0.18564 1.3189-0.18674 3.1331-2.1729 1.0505-1.1501 1.8577-1.6291 2.7444-1.6291 0.33767 0 1.5435-0.31073 2.681-0.69127 2.1473-0.71844 2.9862-0.6925 2.9069 0.09148-0.16453 1.6313 0.88631 1.5775 2.5971-0.13216 0.713-0.71255 1.3638-1.2272 1.4484-1.1462 0.32726 0.31338-0.26131 1.84-0.94784 2.4575-0.87004 0.7827-0.9132 1.2772-0.14738 1.6697 0.41958 0.21502 0.59754 0.65188 0.66323 1.6316l0.08893 1.3368h1.0876c0.38153 0 0.69726 0.05233 0.95291 0.14994a26.021 26.025 0 0 0 12.606-21.478c-0.39808-0.8507-0.36946-1.365 0-1.9442a26.021 26.025 0 0 0-0.11689-1.4588c-0.23727-0.01081-0.47883-0.02174-0.75725-0.01021-1.3109 0.05459-2.4344-0.46232-2.4344-1.1208 0-0.13877-0.46502-0.71201-1.0342-1.2733-0.64476-0.63572-0.97615-1.1969-0.87923-1.4893 0.08789-0.26521-0.10194-0.6931-0.43707-0.98355-0.32626-0.28275-0.59462-0.73844-0.59462-1.0115 0-0.43599-0.27746-0.49076-2.2818-0.44222l-2.2818 0.05591 0.03811 2.2491c0.06773 3.9401 0.65437 4.9629 2.4648 4.3027 0.82871-0.30214 2.8647-0.07337 3.4432 0.38631 0.20935 0.16642 0.51259 0.77005 0.6734 1.3419 0.16083 0.57184 0.75717 1.5615 1.3265 2.1983 1.1534 1.2904 1.243 1.7939 0.58191 3.3089-0.57676 1.3218-1.1978 1.1695-1.0749-0.26431l0.09147-1.0674-0.97579 0.18299c-0.5399 0.10174-1.2166 0.50115-1.5196 0.89461-0.43187 0.56085-0.63427 0.64357-0.95799 0.3863-0.22554-0.17927-0.40913-0.55789-0.40913-0.83867s-0.27874-0.5934-0.6175-0.69636c-0.33875-0.10296-0.80311-0.6147-1.0317-1.1386-0.36565-0.83799-0.35655-1.0942 0.0686-2.112 0.43139-1.0324 0.43563-1.2027 0.03811-1.5833-0.36453-0.34907-0.55245-0.36034-1.0317-0.07371-0.48181 0.28813-0.70845 0.26687-1.2807-0.11691-0.38249-0.25654-1.0489-0.46762-1.4815-0.46762-0.87823 0-1.1435-0.42734-1.1435-1.84 0-1.3049-0.77829-1.7791-2.6301-1.6087-1.286 0.11833-1.5694 0.03361-2.6071-0.76498-0.64046-0.49289-1.6526-1.6802-2.2514-2.6407-0.59886-0.96037-1.2431-1.9637-1.4307-2.2289-0.2711-0.38336-0.20518-0.75131 0.32526-1.7968l0.66832-1.3139-1.4129 0.19061c-2.5142 0.34006-3.0226 0.66595-1.9414 1.2453 0.42108 0.22565 0.43947 0.34158 0.11435 0.7167-0.21297 0.24571-0.31317 0.63424-0.22108 0.8641 0.09217 0.22986-0.02426 0.77075-0.25919 1.2021-0.23497 0.43137-0.43177 1.0367-0.43961 1.347-0.02464 0.97036-1.6853 1.7413-3.5346 1.6392-2.8027-0.15469-3.0298-0.11046-4.025 0.81327-1.244 1.1546-1.4048 1.693-0.82587 2.765 0.56175 1.0402 1.5573 1.4554 3.283 1.3699 1.5433-0.07658 1.7179 0.05967 1.3646 1.0801-0.2999 0.86618-1.3078 1.2002-1.9897 0.65824-0.52574-0.41784-2.3383-0.09494-2.8943 0.51593-0.23311 0.25608-0.57901 0.9268-0.76742 1.4893-0.32526 0.97104-0.42008 1.0301-1.8779 1.1716-1.4544 0.14125-1.5941 0.09466-2.6401-0.86918-1.1678-1.0759-1.3656-1.8972-0.80299-3.3141 0.24904-0.62723 0.43481-0.72923 1.1003-0.60742 1.3193 0.24151 1.8398-0.21722 1.8398-1.6265 0-0.68341-0.13279-1.3223-0.29478-1.4181-0.16193-0.09587-0.29478-0.45803-0.29478-0.80564 0-0.34761-0.16596-0.79459-0.36846-0.99118-0.29512-0.28651-0.25246-0.4398 0.21854-0.77261 0.32318-0.22836 0.85431-0.3821 1.1791-0.34311 0.32478 0.03902 1.2204-0.10126 1.9922-0.31005 1.1152-0.30169 1.4426-0.52938 1.5933-1.1157 0.28619-1.1139 0.98481-2.0077 1.5704-2.0077 0.92534 0 0.94428-2.1759 0.04574-5.3397-0.13411-0.46764-0.4984-0.76532-1.1449-0.92548-0.52242-0.12972-1.0909-0.48626-1.263-0.79295-0.17014-0.30669-0.48439-0.55653-0.69656-0.55653s-0.62668-0.25398-0.91988-0.56421c-0.29512-0.31228-0.90577-0.56421-1.3697-0.56421-1.0993 0-1.1175-0.75712-0.02794-1.1564 1.1518-0.42204 2.9438 0.13117 3.3771 1.042 0.58759 1.2349 1.2388 0.71962 1.4484-1.1462 0.25931-2.3078 1.0548-2.971 3.5653-2.971h1.8042l-0.79028-0.79038c-0.2462-0.24663-0.45036-0.54812-0.59248-0.8438zm9.3537 0.81835c-0.0501 0.045827-0.09948 0.083177-0.14992 0.1347-0.60333 0.61616-0.88618 0.70401-1.8194 0.56167-1.6289-0.24844-1.4192 0.40753 0.38371 1.1996 0.97498 0.42833 1.6012 0.91655 1.8143 1.4105 1.0282 2.3833 1.7357 3.6663 2.0913 3.797 0.71874 0.26411 1.1466-0.26637 1.3061-1.6215 0.18303-1.5548 0.70941-1.8844 1.6543-1.0344 0.36666 0.32985 0.87863 0.59979 1.1384 0.59979 0.80707 0 1.4052 0.32431 1.4052 0.76244 0 0.23092 0.27234 0.78718 0.60733 1.2377 0.49254 0.66237 0.82739 0.8209 1.7483 0.8209 1.1302 0 1.824 0.21148 3.24 0.99372 0.02198 0.01211 0.04402 0.01634 0.06607 0.02795a26.021 26.025 0 0 0-13.483-8.8904zm-32.911 24.954a26.021 26.025 0 0 0-5e-3 0.11211 26.021 26.025 0 0 0 0.50821 4.9987c0.9427 0.38412 1.2032 0.2319 1.301-0.64553 0.050521-0.45339 0.28761-0.96836 0.52855-1.1462 0.3721-0.27426 0.30505-0.41439-0.45737-0.93488-0.4936-0.33632-0.98019-0.92487-1.0801-1.3072-0.096878-0.36835-0.42414-0.77273-0.79544-1.077zm8.19 8.6029c-0.24272-0.02553-0.53619 0.10538-0.86144 0.4168-0.68813 0.65894-0.58423 1.9828 0.19567 2.506 0.89322 0.59913 1.239 0.42462 1.3519-0.6811 0.13936-1.3643-0.15209-2.1855-0.68609-2.2415zm4.4164 3.9341c-0.26575 0.0088-0.55849 0.19949-0.85126 0.59979-0.31071 0.42478-0.39606 0.97258-0.27698 1.8044 0.14639 1.0223 0.08252 1.2406-0.45232 1.5147-0.68715 0.35215-0.83415 1.3982-0.2719 1.9366 0.56001 0.53627 1.0934 0.39616 1.2858-0.33802 0.27408-1.0457 1.8044-1.169 2.8511-0.22874 0.44544 0.40018 0.81061 0.60355 0.81061 0.44985 0-0.15364-0.46474-0.71149-1.0317-1.2377-0.86838-0.80598-1.0291-1.15-1.0291-2.1883 0-1.466-0.44958-2.3312-1.0342-2.3128zm-7.2522 3.3598a26.021 26.025 0 0 0 0.60224 0.7599c-0.17734-0.27226-0.3799-0.53651-0.60228-0.75872zm8.7695 3.9952c-0.13243 0.04542-0.18804 0.21052-0.18804 0.50067 0 0.29364-0.18777 0.60207-0.41674 0.68619-0.30402 0.11165-0.37454 0.46456-0.25665 1.3063 0.02209 0.15771 0.02788 0.28397 0.03557 0.41425a26.021 26.025 0 0 0 1.0825 0.55659c-0.01781-0.45013 0.06437-0.98013 0.29984-1.6443 0.39932-1.1263 0.41359-1.4091 0.08893-1.6062-0.30549-0.18544-0.51301-0.2589-0.64544-0.21348z" opacity=".2"/>
 </g>
</svg>
