<svg width="64" height="64" version="1.1" viewBox="0 0 16.933 16.933" xmlns="http://www.w3.org/2000/svg">
 <g transform="translate(-.13158 .13082)">
  <g transform="matrix(.9821 0 0 .9821 -15.587 -275.34)">
   <path transform="matrix(.27438 0 0 .27438 15.846 280.07)" d="m8.1914 5.0059a3.2328 3.2328 0 0 0-3.1914 3.0527v40.266a10.777 10.777 0 0 0 10.797 10.678h39.963a3.2328 3.2328 0 0 0 3.2402-3.2441v-39.959a10.777 10.777 0 0 0-10.629-10.793z" fill="#2f8ddd" stroke="#1d6baf" stroke-opacity=".74342" stroke-width=".98187"/>
   <path d="m17.958 281.44a0.74 0.74 0 0 0-0.741 0.741v11.12c0.159 0.122 0.322 0.24 0.491 0.353 1.425 0.949 3.127 1.574 4.832 1.55 1.705-0.026 3.413-0.733 4.766-2.423 0.72-0.899 0.827-1.976 0.596-2.913-0.232-0.937-0.783-1.752-1.444-2.131h-0.013a1.628 1.628 0 0 0-1.47 0.04c-0.39 0.211-0.655 0.538-0.74 0.86l-0.08 0.264a1.42 1.42 0 0 1-0.185-0.026c-0.303-0.053-0.526-0.179-0.596-0.41-0.09-0.713 0.096-1.296 0.463-1.735 0.373-0.445 0.939-0.746 1.616-0.82 1.149-0.126 2.165 0.382 2.938 1.205 0.774 0.822 1.284 1.965 1.377 3.058 0.2 2.326-1.125 4.675-3.002 6.084h4.527c0.41 0 0.74-0.33 0.74-0.741v-11.106a8.931 8.931 0 0 0-0.49-0.354c-1.426-0.948-3.128-1.574-4.833-1.549s-3.413 0.732-4.766 2.423c-0.72 0.898-0.827 1.976-0.595 2.912 0.231 0.937 0.782 1.739 1.443 2.118l0.013 0.013c0.539 0.25 1.078 0.173 1.47-0.039 0.39-0.212 0.656-0.539 0.74-0.86l0.08-0.278c0.064 0 0.123 5e-3 0.186 0.013 0.151 0.02 0.294 0.056 0.397 0.119a0.441 0.441 0 0 1 0.198 0.225c2e-3 3e-3 -1e-3 0.01 0 0.013 0.19 1.442-0.734 2.474-2.078 2.621-1.15 0.126-2.166-0.369-2.94-1.191-0.772-0.822-1.282-1.966-1.376-3.058-0.2-2.333 1.126-4.69 3.01-6.098z" fill="#ffba24" fill-rule="evenodd" stroke="#c48600" stroke-opacity=".68421" stroke-width=".2694"/>
  </g>
 </g>
</svg>
