<svg width="64" height="64" version="1" xmlns="http://www.w3.org/2000/svg">
 <rect x="5" y="5" width="54" height="54" rx="27" ry="27" fill="#4f4f4f" stroke="#292929" stroke-width="2"/>
 <rect x="5" y="5" width="54" height="54" rx="27" ry="27" fill="#4f4f4f" stroke-width=".96428"/>
 <path d="m32 10c-12.188 0-22 9.812-22 22 0 4.0175 1.0833 7.7652 2.9492 11h13.051a6 6 0 0 1 0.91016-3.1758l-5.5352-9.623c-0.77402-1.3397-0.31482-3.0531 1.0254-3.8262 0.4189-0.24184 0.89327-0.371 1.377-0.375 1.0084-0.007977 1.9432 0.52694 2.4473 1.4004l5.5234 9.6055a6 6 0 0 1 0.25195-0.005859 6 6 0 0 1 6 6h13.051c1.8659-3.2348 2.9492-6.9825 2.9492-11 0-12.188-9.812-22-22-22z" fill="#ffe485"/>
 <path d="m14.125 26.4s5.5-6.875 17.875-6.875 17.875 6.875 17.875 6.875" fill="none" opacity=".3" stroke="#000" stroke-linecap="round" stroke-width="3"/>
 <path d="m39.405 20.433c7.1913 1.8679 10.47 5.9669 10.47 5.9669" fill="none" stroke="#e93232" stroke-linecap="round" stroke-width="3"/>
</svg>
