<svg xmlns="http://www.w3.org/2000/svg" width="64" height="64" viewBox="0 0 16.933 16.933"><g transform="translate(0 -280.067)"><circle r="7.144" cy="288.533" cx="8.467" opacity=".9" fill="#adc0e3" stroke="#2a63aa" stroke-width=".529" paint-order="stroke markers fill"/><circle cx="8.467" cy="288.533" r="7.144" fill="#4c83ca" paint-order="stroke markers fill"/><circle r="5.821" cy="288.533" cx="8.467" opacity=".15" fill="#fff" paint-order="stroke markers fill"/><path d="M5.556 286.417v1.852s1.323-.918 1.323.661c0 1.586-1.323.662-1.323.662v1.852h1.852s-.633-1.323.794-1.323c1.461 0 .794 1.323.794 1.323h1.852v-1.852s1.058.662 1.058-.662c0-1.058-.529-.926-1.058-.661v-1.852H8.996s.794-1.323-.794-1.323c-1.587 0-.794 1.323-.794 1.323m-1.852 0" fill="#fff"/></g></svg>