<svg xmlns="http://www.w3.org/2000/svg" width="64" height="64" viewBox="0 0 16.933 16.933"><g transform="translate(0 -280.067)"><circle r="7.144" cy="288.269" cx="8.731" opacity=".9" fill="#e03f1a" stroke="#ad2a13" stroke-width=".529" paint-order="stroke markers fill"/><circle cx="8.731" cy="288.269" r="7.144" fill="#e03f1a" paint-order="stroke markers fill"/><path d="M7.244 291.973a248.39 248.39 0 0 1-2.264-.802c-.005-.005-.006-.012-.003-.015.004-.003 1.025.114 2.27.26 1.717.202 2.059.263 2.066.25.014-.02.014-5.937 0-5.958-.015-.023-2.92.656-2.946.688-.013.018-.017.445-.017 2.031 0 1.592-.004 2.012-.017 2.022-.026.02-1.43.673-1.45.673-.014 0-.016-.518-.014-2.57l.004-2.57 1.772-.64 2.329-.841.556-.201 1.25.391c.688.216 1.258.396 1.268.402.014.008.017.717.017 3.468 0 3.278-.001 3.457-.024 3.469-.042.022-2.483.737-2.513.737-.016 0-1.044-.358-2.284-.794z" fill="#fff"/></g></svg>