<svg xmlns="http://www.w3.org/2000/svg" width="64" height="64" viewBox="0 0 16.933 16.933"><g paint-order="markers stroke fill" transform="translate(-31.694 -289.992)"><g transform="rotate(4.363 -101.83 -5.11)"><rect ry=".529" rx=".529" y="279.802" x="62.442" height="12.171" width="6.879" fill="#bc492d" stroke="#953a23" stroke-width=".529" stroke-linecap="round" stroke-linejoin="round"/><rect width="6.879" height="12.171" x="62.442" y="279.802" rx=".529" ry=".529" fill="#bc492d"/><rect ry="0" rx="0" y="280.331" x="62.971" height="11.112" width="5.821" fill="#fff"/><rect ry="0" rx="0" y="289.327" x="63.765" height=".794" width="4.233" fill="#bc492d"/><path d="M66.146 281.654v2.117h2.117a2.117 2.117 0 0 0-2.117-2.117z" fill="#bc492d"/><path d="M65.881 281.919a2.117 2.117 0 0 0-2.116 2.116 2.117 2.117 0 0 0 2.116 2.117 2.117 2.117 0 0 0 2.117-2.117H65.88z" fill="#bc492d"/><rect width="4.233" height=".794" x="63.765" y="287.475" rx="0" ry="0" fill="#bc492d"/></g><rect width="8.996" height="13.758" x="-10.166" y="294.021" rx="0" ry="0" transform="rotate(-8.462)" fill="#d5583a" stroke="#b14027" stroke-width=".529" stroke-linecap="round" stroke-linejoin="round"/><rect transform="rotate(-8.462)" ry="0" rx="0" y="294.021" x="-10.166" height="13.758" width="8.996" fill="#d5583a"/></g><g style="line-height:1.25;-inkscape-font-specification:'sans-serif Bold'"><path style="-inkscape-font-specification:'sans-serif Bold'" d="M4.98 6.284l1.943-.299c.577-.089 1.041-.045 1.39.175.351.217.564.592.64 1.084.076.494-.026.866-.295 1.18-.267.313-.694.48-1.272.57L6.5 9.13l.262 1.699-1.055.162zm1.179.642l.214 1.39.763-.118c.227-.034.546-.135.662-.276.125-.158.189-.287.15-.523-.034-.21-.089-.381-.262-.504-.192-.133-.484-.13-.764-.086z" aria-label="P" font-weight="700" font-size="6.533" font-family="sans-serif" letter-spacing="0" word-spacing="0" fill="#fff"/></g></svg>