<svg xmlns="http://www.w3.org/2000/svg" width="64" height="64" viewBox="0 0 16.933 16.933"><g transform="translate(0 -280.067)" paint-order="markers stroke fill"><g transform="rotate(4.405 19.271 318.07)"><rect ry=".575" rx=".504" y="282.448" x="5.821" height="12.171" width="6.879" fill="#355687" stroke="#2f4a71" stroke-width=".529" stroke-linecap="round" stroke-linejoin="round"/><rect width="6.879" height="12.171" x="5.821" y="282.448" rx=".504" ry=".575" fill="#355687"/><rect ry="0" rx="0" y="282.977" x="6.35" height="11.113" width="5.821" fill="#fff"/><rect ry="0" rx="0" y="284.3" x="6.615" height=".529" width="4.762" fill="#355687"/><rect width="4.762" height=".529" x="6.615" y="285.887" rx="0" ry="0" fill="#355687"/><rect ry="0" rx="0" y="287.475" x="6.615" height=".529" width="4.762" fill="#355687"/><rect width="4.762" height=".529" x="6.615" y="289.062" rx="0" ry="0" fill="#355687"/><rect ry="0" rx="0" y="290.65" x="6.615" height=".529" width="4.762" fill="#355687"/><rect width="4.762" height=".529" x="6.615" y="292.237" rx="0" ry="0" fill="#355687"/></g><rect width="8.996" height="13.758" x="-40.062" y="279.539" rx="0" ry="0" transform="rotate(-8.462)" fill="#4169a5" stroke="#335281" stroke-width=".529" stroke-linecap="round" stroke-linejoin="round"/><rect transform="rotate(-8.462)" ry="0" rx="0" y="279.539" x="-40.062" height="13.758" width="8.996" fill="#4169a5"/><g fill="#fff"><path d="M3.48 286.645l1.047-.156 2.01 4.516-1.047.156z"/><path d="M7.144 286.1l-1.046.156-.608 4.905 1.047-.156z"/><path d="M6.098 286.256l1.046-.156 2.01 4.516-1.047.156z"/><path d="M9.761 285.71l-1.046.157-.608 4.905 1.047-.156z"/></g></g></svg>