<svg xmlns="http://www.w3.org/2000/svg" width="64" height="64" viewBox="0 0 16.933 16.933"><g transform="translate(-2.117 -244.613)"><path d="M10.583 246.068a7.011 7.011 0 0 0-3.767 1.1H5.392c-.399 0-.72.32-.72.72v1.436a7.011 7.011 0 0 0-1.1 3.755 7.011 7.011 0 0 0 1.1 3.768v1.423c0 .4.321.72.72.72h1.436a7.011 7.011 0 0 0 3.755 1.1 7.011 7.011 0 0 0 3.768-1.1h1.423c.4 0 .721-.32.721-.72v-1.435a7.011 7.011 0 0 0 1.1-3.756 7.011 7.011 0 0 0-1.1-3.768v-1.423c0-.4-.321-.72-.72-.72h-1.436a7.011 7.011 0 0 0-3.756-1.1z" fill="#4c5263" stroke="#252831" stroke-width=".265" stroke-opacity=".784"/><circle r="5.689" cy="253.079" cx="10.583" fill="#fff669" stroke="#272a2f" stroke-width=".265" stroke-opacity=".784"/><rect ry=".397" rx=".397" y="248.052" x="5.556" height=".529" width=".529" fill="#b2b7bf"/><rect ry=".397" rx=".397" y="248.052" x="15.081" height=".529" width=".529" fill="#b2b7bf"/><rect ry=".397" rx=".397" y="257.577" x="15.081" height=".529" width=".529" fill="#b2b7bf"/><rect ry=".397" rx=".397" y="257.577" x="5.556" height=".529" width=".529" fill="#b2b7bf"/><circle r="1.852" cy="253.079" cx="10.583" fill="#4c5263"/></g></svg>