<svg xmlns="http://www.w3.org/2000/svg" width="64" height="64"><rect width="53" height="53" rx="2.891" ry="2.891" x="5.5" y="5.5" style="marker:none" color="#000" overflow="visible" fill="#fb9246"/><rect width="53" height="53" rx="2.891" ry="2.891" x="5.5" y="5.5" style="marker:none" color="#000" overflow="visible" opacity=".5" fill="none" stroke="#a62100" stroke-linecap="round" stroke-linejoin="round"/><path d="M34 10c-1 0-1 1.01-1 2.038V40s-.64-.678-2.209-.774c-4.447-.271-9.306 2.954-9.751 7.608-.524 3.7 3.386 6.744 6.872 6.169C32.305 52.536 35 48 35 43.727c.012-7.707-.034-13.48.01-21.181.299-.343.91.387 1.225.423 3.533 2.09 6.658 5.537 6.869 9.83.232 3.354-.784 6.636-1.926 9.746 3.828-4.713 5.054-11.59 2.394-17.156-1.361-3.232-4.43-5.223-6.148-8.225-1.268-2.006-2.233-4.245-2.535-6.613-.25-.494-.405-.556-.889-.551z" fill="#fef7e6"/></svg>