<svg xmlns="http://www.w3.org/2000/svg" version="1.0" width="64" height="64"><g transform="translate(0 -3)"><path d="M3.5 51v5.5c0 1.108.862 2 1.932 2h53.136c1.07 0 1.932-.892 1.932-2V51z" style="marker:none" color="#000" overflow="visible" opacity=".9" fill="#30393c" fill-opacity=".902"/><path d="M5.432 11.5c-1.07 0-1.932.892-1.932 2V51h57V13.5c0-1.108-.862-2-1.932-2z" style="marker:none" color="#000" overflow="visible" fill="#e24749"/><path d="M5.417 11C4.087 11 3 12.124 3 13.5V51h.967V13.5c0-.84.638-1.5 1.45-1.5h53.166c.812 0 1.45.66 1.45 1.5V51H61V13.5c0-1.376-1.086-2.5-2.417-2.5z" style="line-height:normal;text-indent:0;text-align:start;text-decoration-line:none;text-decoration-style:solid;text-decoration-color:#000;text-transform:none;white-space:normal;isolation:auto;mix-blend-mode:normal;solid-color:#000;solid-opacity:1;marker:none" color="#000" font-weight="400" font-family="sans-serif" overflow="visible" opacity=".5" fill="#7a0000"/><path d="M25.214 22.004A1.333 1.345 0 0 0 24 23.344v17.321a1.333 1.345 0 0 0 1.976 1.168l15.353-8.66a1.333 1.345 0 0 0 0-2.337l-15.353-8.66a1.333 1.345 0 0 0-.762-.172z" fill="#fff" fill-rule="evenodd"/><path d="M3 51.5h58" opacity=".2" fill="none" stroke="#000"/><rect ry=".463" y="54" x="6" height="1" width="52" opacity=".4"/><path style="marker:none" d="M18.5 52.5a2 2 0 1 1-.001 4.001A2 2 0 0 1 18.5 52.5z" color="#000" overflow="visible" fill="#637279"/><path style="marker:none" d="M18.5 52.5a2 2 0 1 1-.001 4.001A2 2 0 0 1 18.5 52.5z" color="#000" overflow="visible" fill="none" stroke="#292e2f" stroke-linecap="round" stroke-linejoin="round"/><path d="M3 51v5.5C3 57.876 4.086 59 5.417 59h53.166C59.913 59 61 57.876 61 56.5V51h-.967v5.5c0 .84-.638 1.5-1.45 1.5H5.417c-.812 0-1.45-.66-1.45-1.5V51z" style="line-height:normal;text-indent:0;text-align:start;text-decoration-line:none;text-decoration-style:solid;text-decoration-color:#000;text-transform:none;white-space:normal;isolation:auto;mix-blend-mode:normal;solid-color:#000;solid-opacity:1;marker:none" color="#000" font-weight="400" font-family="sans-serif" overflow="visible" opacity=".5"/></g></svg>