<svg xmlns="http://www.w3.org/2000/svg" width="64" height="64"><path style="marker:none" d="M52.386 60.883L.488 47.082 11.613 5.876 63.51 19.677z" color="#000" overflow="visible" fill="none" stroke="#000" stroke-linejoin="round" stroke-opacity=".271"/><path d="M11.958 6.47l50.954 13.552L52.041 60.29 1.086 46.74 11.958 6.47z" fill="#f9f9f9"/><path style="marker:none" d="M14.376 10.625l44.349 11.797-9.102 33.711L5.273 44.34l9.103-33.715z" color="#000" overflow="visible" fill="#3c92bb"/><path style="marker:none" d="M59.5 59.5h-55v-44h55z" color="#000" overflow="visible" fill="none" stroke="#000" stroke-linejoin="round" stroke-opacity=".271"/><path d="M5 16l54 .003V59H5V16z" fill="#f2f2f2"/><path style="marker:none" d="M8 19v37h48V19z" color="#000" overflow="visible" fill="#f4ba5a"/><path d="M8 19v18.882c.712.328 1.615.627 2.59.627 2.229 0 4.407-1.8 8.128-1.8 3.72 0 6.518 2.264 11.209 2.264 4.69 0 5.746-3.273 11.727-3.273s5.419 2.073 9.164 2.073c2.58 0 3.681-.901 5.182-1.473V19z" fill="#44b3ed"/><path style="marker:none" d="M41.654 34.01c-3.142 0-5.118.889-6.736 1.717-1.618.829-2.839 1.555-4.991 1.555-2.212 0-3.96-.529-5.7-1.091-1.74-.563-3.48-1.173-5.51-1.173-1.993 0-3.597.47-4.908.927-1.312.459-2.328.873-3.219.873-.806 0-1.592-.275-2.236-.573A.83.83 0 0 0 8 36.164v3.572a16.94 16.94 0 0 0 4.118.491c2.204 0 3.325-.402 4.172-.763.848-.362 1.373-.655 3.082-.655 1.641 0 2.961.533 4.582 1.118 1.62.586 3.521 1.2 6.11 1.2 3.213 0 5.304-1.019 7.036-1.963 1.73-.945 3.07-1.773 5.263-1.773 1.73 0 2.533.439 3.6.954 1.067.516 2.376 1.091 4.582 1.091 2.81 0 4.041-1.042 5.455-1.69v-3.137a.83.83 0 0 0-.3.055c-1.646.627-2.496 1.418-4.882 1.418-1.72 0-2.256-.412-3.382-.955-1.126-.542-2.696-1.118-5.782-1.118z" color="#000" overflow="visible" opacity=".1" fill="#fff"/><path style="marker:none" d="M41.654 34.827c-5.98 0-7.037 3.273-11.727 3.273s-7.489-2.263-11.21-2.263c-3.72 0-5.898 1.8-8.127 1.8-.975 0-1.878-.299-2.59-.628v1.882c1.072.285 2.462.518 4.118.518 4.221 0 3.619-1.418 7.254-1.418 3.636 0 5.777 2.318 10.691 2.318 6.087 0 7.484-3.736 12.3-3.736 3.76 0 4.043 2.045 8.182 2.045 2.796 0 3.725-1.074 5.455-1.772v-1.419C54.5 36 53.397 36.9 50.818 36.9c-3.745 0-3.183-2.073-9.164-2.073z" color="#000" overflow="visible" opacity=".3" fill="#fff"/><path style="marker:none" d="M41.654 35.7c-5.98 0-7.037 3.273-11.727 3.273s-7.489-2.264-11.21-2.264c-3.72 0-5.898 1.8-8.127 1.8-.975 0-1.878-.299-2.59-.627v1.882c1.072.285 2.462.518 4.118.518 4.221 0 3.619-1.418 7.254-1.418 3.636 0 5.777 2.318 10.691 2.318 6.087 0 7.484-3.737 12.3-3.737 3.76 0 4.043 2.046 8.182 2.046 2.796 0 3.725-1.075 5.455-1.773V36.3c-1.5.572-2.603 1.473-5.182 1.473-3.745 0-3.183-2.073-9.164-2.073z" color="#000" overflow="visible" fill="#fff"/><path style="marker:none" d="M16.64 42.071c.475-.159 2.009 3.042 2.486 3.193.494.158 3.879-1.457 4.196-1.067.307.378-2.441 2.746-2.447 3.222-.005.493 2.665 3.035 2.37 3.441-.286.392-3.518-1.344-3.998-1.202-.498.147-2.233 3.334-2.733 3.194-.482-.135.268-3.577-.023-3.965-.302-.401-4.045-.974-4.058-1.467-.014-.476 3.682-.866 3.983-1.248.31-.396-.267-3.936.224-4.1z" color="#000" overflow="visible" fill="#f25609"/><g stroke-width=".724"><path style="marker:none" d="M49 34.5c-8 0-14.5 6.5-14.5 14.5S41 63.5 49 63.5 63.5 57 63.5 49 57 34.5 49 34.5z" color="#000" overflow="visible" fill="#f9f9f9"/><path style="marker:none" d="M59 49a10 9.999 0 1 1-20 0 10 9.999 0 1 1 20 0z" color="#000" overflow="visible" fill="gray"/><path style="marker:none" d="M49 34.5c-8 0-14.5 6.5-14.5 14.5S41 63.5 49 63.5 63.5 57 63.5 49 57 34.5 49 34.5z" color="#000" overflow="visible" opacity=".2" fill="none" stroke="#000" stroke-width="1"/><path d="M57 49a8 8 0 1 1-16 0 8 8 0 1 1 16 0z" style="marker:none" color="#000" overflow="visible" fill="#666"/><path d="M49 44.502A4.501 4.501 0 0 0 44.502 49 4.501 4.501 0 0 0 49 53.498 4.501 4.501 0 0 0 53.498 49 4.501 4.501 0 0 0 49 44.502z" opacity=".3" fill="none" stroke="#000" stroke-width="1.004" stroke-linecap="round" stroke-linejoin="round"/><path d="M53 49a4 3.998 0 1 1-8 0 4 3.998 0 1 1 8 0z" style="marker:none" color="#000" overflow="visible" fill="#333"/><path style="marker:none" d="M47.44 47.351a.773.809 0 1 1-1.546 0 .773.809 0 1 1 1.547 0z" color="#000" overflow="visible" opacity=".4" fill="#fff"/><path style="marker:none" d="M47.648 47.81a.54.566 0 1 1-1.082 0 .54.566 0 1 1 1.082 0z" color="#000" overflow="visible" opacity=".4" fill="#fff"/></g></svg>