<svg width="64" height="64" version="1.1" viewBox="0 0 64 64" xmlns="http://www.w3.org/2000/svg">
 <circle cx="31.998" cy="31.998" r="26.999" fill="#207ab7" fill-opacity=".99608" stroke="#185c8b" stroke-width="2"/>
 <circle cx="31.998" cy="31.998" r="26.999" fill="#207ab7" fill-opacity=".99608" stroke-width="1.0042"/>
 <circle cx="42.526" cy="22.975" r="1.2532" fill="#fff" stroke-width="1.0026"/>
 <path d="m48.541 27.988v9.5247m-12.031-5.013v5.013m-10.026-5.013v10.32m-10.026-10.32v10.32m10.009-10.32a4.996 4.996 0 0 0-2.498-4.3266 4.996 4.996 0 0 0-4.996 0 4.996 4.996 0 0 0-2.498 4.3266m20.018 0a4.996 4.996 0 0 0-2.498-4.3266 4.996 4.996 0 0 0-4.996 0 4.996 4.996 0 0 0-2.498 4.3266m22.023 4.8068a5.9986 5.9986 0 0 1-2.9993 5.1949 5.9986 5.9986 0 0 1-5.9986 0 5.9986 5.9986 0 0 1-2.9993-5.1949" fill="none" stroke="#fff" stroke-linecap="round" stroke-width="2.5065"/>
 <path d="m48.524 22.975a5.9986 5.9986 0 0 0-2.9993-5.1949 5.9986 5.9986 0 0 0-5.9986 0 5.9986 5.9986 0 0 0-2.9993 5.1949" fill="none" stroke="#fff" stroke-linecap="round" stroke-width="2.5065"/>
</svg>
