<svg xmlns="http://www.w3.org/2000/svg" xmlns:xlink="http://www.w3.org/1999/xlink" width="64" height="64" viewBox="0 0 16.933 16.933"><defs><linearGradient xlink:href="#a" id="c" x1="-197.102" y1="217.681" x2="-196.914" y2="219.365" gradientUnits="userSpaceOnUse"/><linearGradient id="a"><stop offset="0"/><stop offset="1" stop-opacity="0"/></linearGradient><clipPath clipPathUnits="userSpaceOnUse" id="b"><path d="M-194.482 207.579c-.208-.208-.465-.075-.749 0l-.592.156-4.646-4.647c-.187-.187-.374 0-.374 0l-5.987 6.736c-.176.197 0 .374 0 .374l9.728 9.728c.188.187.375 0 .375 0l7.483-6.735c.187-.187 0-.374 0-.374z" fill="#6ba4e7" stroke-width=".529" stroke-opacity=".561" paint-order="markers stroke fill"/></clipPath></defs><g transform="translate(0 -280.067)"><path d="M3.175 282.448c-.293 0-.265.264-.265.53H1.852c-.265 0-.265 0-.265.264v5.556c0 .293.237.53.53.53h12.7a.529.529 0 0 0 .529-.53v-5.556c0-.265 0-.265-.265-.265H7.673c0-.265.028-.53-.265-.53z" fill="#fff" fill-opacity=".976" stroke="#000" stroke-width=".529" stroke-opacity=".268" paint-order="markers stroke fill"/><path d="M3.175 282.448c-.293 0-.265.264-.265.53H1.852c-.265 0-.265 0-.265.264v5.556c0 .293.237.53.53.53h12.7a.529.529 0 0 0 .529-.53v-5.556c0-.265 0-.265-.265-.265H7.673c0-.265.028-.53-.265-.53z" fill="#fff" fill-opacity=".976" paint-order="markers stroke fill"/><path d="M8.467 284.3c-.293 0-.382.276-.53.53l-.308.528h-6.57c-.265 0-.265.265-.265.265l.529 8.996c.015.264.264.264.264.264h13.759c.264 0 .264-.264.264-.264l.53-10.054c0-.265-.265-.265-.265-.265z" fill="#6ba4e7" stroke="#007912" stroke-width=".529" stroke-opacity=".561" paint-order="markers stroke fill"/><path d="M8.467 284.3c-.293 0-.382.276-.53.53l-.308.528h-6.57c-.265 0-.265.265-.265.265l.529 8.996c.015.264.264.264.264.264h13.759c.264 0 .264-.264.264-.264l.53-10.054c0-.265-.265-.265-.265-.265z" fill="#6be79c" paint-order="markers stroke fill"/><rect width="3.704" height=".529" x="3.44" y="282.977" rx=".265" ry=".265" fill-opacity=".267" paint-order="markers stroke fill"/><rect clip-path="url(#b)" transform="rotate(-45 -.397 .958)" ry=".132" y="217.868" x="-199.587" height="4.762" width="5.292" opacity=".1" fill="url(#c)" paint-order="stroke markers fill"/></g></svg>