<svg width="64" height="64" version="1.1" viewBox="0 0 64 64" xmlns="http://www.w3.org/2000/svg">
 <path d="m32 4.9993c14.912 0 27 12.088 27 27s-12.088 27-27 27-27-12.088-27-27 12.088-27 27-27z" fill="#dcdcdc" stroke="#b6b6b6" stroke-width="2"/>
 <g stroke-width=".99999">
  <path d="m32 4.9993c14.912 0 27 12.088 27 27s-12.088 27-27 27-27-12.088-27-27 12.088-27 27-27z" fill="#dcdcdc"/>
  <path d="m32 8.9992c12.703 0 23 10.297 23 23 0 12.703-10.297 23-23 23-12.703 0-23-10.297-23-23 0-12.703 10.297-23 23-23z" fill="#f2f2f2"/>
  <path d="m44.913 22.608-7.0434-5.8695v30.521l7.0434-5.8695z" fill="#6ba63f"/>
  <path d="m19.087 22.608 7.0434-5.8695v30.521l-7.0434-5.8695z" fill="#42afe6"/>
  <path d="m26.13 16.738c-1.4298 4.0899-1.1586 8.276 0 12.521l11.739 18.001c0.75247-4.1075 1.6188-8.2138 0-12.321z" fill="#96ca6b"/>
  <path d="m37.869 34.938v12.321l5.2826-4.4021z" fill="#569e41"/>
  <path d="m26.13 16.738-5.2919 4.4092 5.2919 8.1116z" fill="#70be63"/>
 </g>
</svg>
