<svg xmlns="http://www.w3.org/2000/svg" width="64" height="64" viewBox="0 0 16.933 16.933"><defs><clipPath clipPathUnits="userSpaceOnUse" id="a"><rect width="10.583" height="10.583" x="-16.404" y="273.188" rx=".635" ry=".635" fill="#2196f3" stroke-width=".236" stroke-linecap="round" stroke-linejoin="round" stroke-opacity=".098" paint-order="markers stroke fill"/></clipPath></defs><g transform="translate(0 -280.067)"><g transform="matrix(1.35 0 0 1.35 23.469 -87.414)" clip-path="url(#a)" stroke-width=".392" stroke-linecap="round" stroke-linejoin="bevel" stroke-opacity=".431" paint-order="stroke fill markers"><rect ry=".529" rx=".529" y="6.017" x="-283.771" height="10.583" width="10.583" transform="matrix(0 -1 -1 0 0 0)" fill="#141414"/><path d="M-11.906 273.188v3.17l.084-.002c1.844-.012 3.04 1.592 3.04 1.592s-1.417 1.762-2.894 1.762a2.13 2.13 0 0 1-.23-.012v.464c.054.004.11.005.166.005 1.374 0 2.369-.717 3.33-1.566.16.13.813.448.947.587-.915.784-3.047 1.415-4.256 1.415a2.85 2.85 0 0 1-.187-.006v3.174h5.556s.53 0 .53-.53v-9.524c0-.53-.53-.53-.53-.53zm0 7.409v-.435c-.051-.003-.088-.009-.137-.015-1.681-.217-2.256-2.113-2.256-2.113s.752-1.138 2.256-1.255c.048-.003.087-.007.137-.008.001 0-.001 0 0 0v-.412c-.05.002-.088.004-.137.008-1.666.136-3.108 1.58-3.108 1.58s.817 2.418 3.108 2.639c.05.005.086.008.137.01zm0-3.827v.506c.04-.002.095-.005.137-.005.872 0 1.39.695 1.39.695l-.71.612c-.285-.487-.414-.73-.817-.823v1.56c0 .08.176.026.266.026 1.034 0 2-1.372 2-1.372s-.906-1.24-2.266-1.199zm0 2.545c-.052-.01-.09-.024-.137-.04-.716-.246-.949-1.103-.949-1.103s.415-.509.947-.444h.002c.055.007.09.017.137.028v-.48c-.05.003-.088.008-.137.013-1.013.112-1.623.804-1.623.804s.352 1.352 1.623 1.583c.049.01.086.016.137.022z" style="marker:none" color="#bebebe" overflow="visible" fill="#2d9123"/></g><rect ry=".688" rx=".688" y="-15.346" x="-295.413" height="13.758" width="13.758" transform="matrix(0 -1 -1 0 0 0)" fill="#333"/><path d="M7.435 281.654v4.122c.037 0 .073-.003.11-.003 2.396-.016 3.951 2.07 3.951 2.07s-1.842 2.29-3.762 2.29a2.91 2.91 0 0 1-.3-.015v.603c.071.005.144.007.218.007 1.786 0 3.078-.932 4.329-2.037.207.17 1.056.583 1.23.764-1.189 1.019-3.961 1.84-5.532 1.84a3.9 3.9 0 0 1-.244-.008v4.125h7.223s.688 0 .688-.688v-12.382c0-.688-.688-.688-.688-.688zm0 9.632v-.565c-.067-.004-.114-.012-.178-.02-2.186-.281-2.933-2.746-2.933-2.746s.978-1.48 2.933-1.632c.063-.004.113-.01.178-.01.001 0-.001 0 0 0v-.537c-.064.003-.115.005-.178.01-2.165.179-4.04 2.056-4.04 2.056s1.061 3.142 4.04 3.43c.064.007.112.01.178.014zm0-4.974v.657c.053-.003.124-.006.178-.006 1.134 0 1.807.904 1.807.904l-.922.796c-.372-.634-.539-.95-1.063-1.07v2.027c0 .105.229.034.345.034 1.345 0 2.6-1.784 2.6-1.784s-1.177-1.612-2.945-1.558zm0 3.308a1.226 1.226 0 0 1-.178-.052c-.931-.32-1.234-1.433-1.234-1.433s.54-.663 1.23-.578h.004c.071.01.118.022.178.036v-.624c-.066.004-.114.01-.178.017-1.317.146-2.11 1.045-2.11 1.045s.458 1.757 2.11 2.059c.063.012.111.02.178.028z" style="marker:none" color="#bebebe" overflow="visible" fill="#4bd239"/></g></svg>