<svg xmlns="http://www.w3.org/2000/svg" width="64" height="64"><rect width="52" height="52" rx="2.407" ry="2.407" x="6" y="6" style="marker:none" color="#000" overflow="visible" fill="#f7f7f7"/><path d="M5.5 18v37.572c0 1.622 1.29 2.928 2.89 2.928h47.22c1.6 0 2.89-1.306 2.89-2.928V18" opacity=".2" fill="none" stroke="#000"/><path style="marker:none" d="M8.407 6C7 6 6 6.896 6 8.303V17h52V8.303C58 6.896 57 6 55.593 6z" color="#000" overflow="visible" fill="#97da46"/><path style="marker:none" d="M8.39 5.5c-1.6 0-2.89 1.235-2.89 2.77v9.23h53V8.27c0-1.535-1.29-2.77-2.89-2.77z" color="#000" overflow="visible" opacity=".4" fill="none" stroke="#126400" stroke-linecap="round"/><path d="M52.5 44.5h-41zm-.03-18.97L11.5 25.5v26h41zm.03 12.97h-41m41-6h-41m8.028-6.942L19.472 51.5m8.039-25.829l-.011 25.83m7.994-25.92l.012 25.92m7.953-26.01L43.5 51.5" opacity=".25" fill="none" stroke="#5e553c"/><path style="marker:none" d="M14 11a1 1-3 0 1 .5 1.5zm38.5 0a1 1-3 0 1 .5 1.5z" opacity=".4" color="#000" fill="#126400" overflow="visible"/></svg>