<svg width="64" height="64" version="1.1" xmlns="http://www.w3.org/2000/svg">
 <g transform="matrix(3.7796 0 0 3.7796 0 -1058.6)">
  <path d="m3.175 282.45c-0.293 0-0.265 0.264-0.265 0.53h-1.058c-0.265 0-0.265 0-0.265 0.264v5.556c0 0.293 0.237 0.53 0.53 0.53h12.7a0.529 0.529 0 0 0 0.529-0.53v-5.556c0-0.265 0-0.265-0.265-0.265h-7.408c0-0.265 0.028-0.53-0.265-0.53z" fill="#ffffff" fill-opacity=".976" stroke="#000000" stroke-opacity=".268" stroke-width=".529" style="paint-order:markers stroke fill"/>
  <path d="m3.175 282.45c-0.293 0-0.265 0.264-0.265 0.53h-1.058c-0.265 0-0.265 0-0.265 0.264v5.556c0 0.293 0.237 0.53 0.53 0.53h12.7a0.529 0.529 0 0 0 0.529-0.53v-5.556c0-0.265 0-0.265-0.265-0.265h-7.408c0-0.265 0.028-0.53-0.265-0.53z" fill="#ffffff" fill-opacity=".976" style="paint-order:markers stroke fill"/>
  <path d="m8.467 284.3c-0.293 0-0.382 0.276-0.53 0.53l-0.308 0.528h-6.835c-0.265 0-0.265 0.265-0.265 0.265v8.996c0 0.264 0.265 0.264 0.265 0.264h15.346c0.264 0 0.264-0.264 0.264-0.264v-10.054c0-0.265-0.264-0.265-0.264-0.265z" fill="none" stroke="#003779" stroke-opacity=".561" stroke-width=".529" style="paint-order:markers stroke fill"/>
  <path d="m8.467 284.3c-0.293 0-0.382 0.276-0.53 0.53l-0.308 0.528h-6.835c-0.265 0-0.265 0.265-0.265 0.265v8.996c0 0.264 0.265 0.264 0.265 0.264h15.346c0.264 0 0.264-0.264 0.264-0.264v-10.054c0-0.265-0.264-0.265-0.264-0.265z" fill="#6ba4e7" style="paint-order:markers stroke fill"/>
 </g>
 <path d="m34.711 24a5.5 5.4286 0 0 0-5.406 4.4611 6.1875 6.1071 0 0 0-2.1565-0.38965 6.1875 6.1071 0 0 0-6.1875 6.1071 6.1875 6.1071 0 0 0 0.08057 0.94629 4.125 4.0714 0 0 0-1.4556-0.26772 4.125 4.0714 0 0 0-4.125 4.0714 4.125 4.0714 0 0 0 4.125 4.0714h26.125v-0.07421a3.4375 3.3929 0 0 0 2.75-3.3186 3.4375 3.3929 0 0 0-3.4375-3.3929 3.4375 3.3929 0 0 0-0.69018 0.07422 5.5 5.4286 0 0 0 0.0027-0.07422 5.5 5.4286 0 0 0-4.3372-5.304 5.5 5.4286 0 0 0 0.21216-1.4817 5.5 5.4286 0 0 0-5.5-5.4286z" fill="#ffffff"/>
 <circle cx="25" cy="50.5" r="2.5" fill="#ffffff" opacity=".35"/>
 <circle cx="32" cy="50.5" r="2.5" fill="#ffffff" opacity=".35"/>
 <circle cx="39" cy="50.5" r="2.5" fill="#ffffff" opacity=".75"/>
</svg>
