<svg width="64" height="64" version="1.1" xmlns="http://www.w3.org/2000/svg">
 <g transform="translate(247.75 92.06)">
  <g transform="translate(-195.75 -83.56)">
   <rect x="-39.5" width="39" height="18.5" rx=".3" ry=".292" fill="none" stroke="#4f6698" stroke-opacity=".267"/>
   <path d="M-39 .5h38V18h-38z" fill="#fafafa"/>
  </g>
  <rect x="-246.25" y="-71.059" width="61" height="29" rx="1.5" ry="1.5" fill="#4c5263" stroke="#252831" stroke-opacity=".784"/>
  <rect x="-235.25" y="-50.059" width="39" height="13.5" rx=".3" ry=".289" fill="none" stroke="#4f6698" stroke-opacity=".267"/>
  <circle cx="-195.25" cy="-63.059" r="1.5" fill="#82b2ea"/>
  <rect x="-235.75" y="-50.559" width="40" height="3" rx=".3" ry=".3" fill-opacity=".404"/>
  <path d="m-234.75-49.559h38v12.5h-38z" fill="#fafafa"/>
  <path d="m-199.75-39.56v-1h-3.19v1zm-3.61 0v-1h-3.02v1zm-3.44 0v-1h-2.644v1zm-3.064 0v-1h-1.175v1zm-1.594 0v-1h-2.602v1zm-3.064 0v-1h-6.714v1zm14.772-3v-1h-5.078v1zm-5.581 0v-1h-2.434v1zm-2.896 0v-1h-1.133v1zm-1.637 0v-1h-2.182v1zm-2.685 0v-1h-2.182v1zm-2.644 0v-1h-3.567v1zm-4.07 0v-1h-4.659v1zm19.513-3v-1h-5.623v1zm-6.043 0v-1h-6.043v1z" fill="#b4bfd8" fill-opacity=".643"/>
 </g>
 <path d="m41.815 24.078c0.81046 0.64463 0.995 1.7531 0.41396 2.485l-14.705 18.481c-0.58104 0.73066-3.076 1.8628-3.5635 1.475-0.48752-0.38777 0.05486-3.0735 0.6359-3.8042l14.705-18.481c0.58228-0.73191 1.7032-0.80173 2.5137-0.15586z" fill="#8d92a5" stroke-width="1.2469"/>
</svg>
