<svg width="64" height="64" version="1" xmlns="http://www.w3.org/2000/svg">
 <rect x="4" y="9" width="56" height="46" rx="3" ry="3.209" fill="#f5f5f5"/>
 <path d="m27.889 39.707s3.7056 5.05 11.074-0.28316c5.1677-3.7403 10.786 0.97898 10.786 0.97898" fill="none" opacity=".15" stroke="#000000" stroke-linecap="round" stroke-linejoin="round" stroke-width="1px"/>
 <rect x="3.5" y="8.5" width="57" height="47" rx="3.5" ry="3.739" fill="none" stroke="#4f6698" stroke-opacity=".267"/>
 <path d="m6.9 9h4.1v46h-4.1c-1.662 0-2.9-1.324-2.9-3.102v-39.795c0-1.778 1.238-3.103 2.9-3.103z" fill="#4c5263"/>
 <path d="m7 8c-2.199 0-4 1.922-4 4.267v39.467c0 2.345 1.801 4.266 4 4.266h5v-48zm0 1.067h4v45.867h-4c-1.662 0-3-1.428-3-3.2v-39.467c0-1.773 1.338-3.2 3-3.2z" color="#000000" fill="#232733" fill-opacity=".784" font-weight="400" overflow="visible" solid-color="#000000" style="isolation:auto;mix-blend-mode:normal;text-decoration-color:#000000;text-decoration-line:none;text-decoration-style:solid;text-indent:0;text-transform:none;white-space:normal"/>
 <circle cx="7.5" cy="48" r="1.5" fill="#82b2ea"/>
 <path d="m41.934 21.855c0.65 0.517 0.798 1.406 0.332 1.993l-11.794 14.822c-0.466 0.586-2.467 1.494-2.858 1.183s0.044-2.465 0.51-3.051l11.794-14.822c0.467-0.587 1.366-0.643 2.016-0.125z" fill="#5e6476"/>
</svg>
