<svg width="64" height="64" version="1.1" viewBox="0 0 16.933 16.933" xmlns="http://www.w3.org/2000/svg">
 <defs>
  <linearGradient id="c" x1="399.57" x2="399.57" y1="545.8" y2="517.8" gradientTransform="matrix(.51025 0 0 .51025 -195.92 -262.87)" gradientUnits="userSpaceOnUse">
   <stop stop-color="#3889e9" offset="0"/>
   <stop stop-color="#5ea5fb" offset="1"/>
  </linearGradient>
 </defs>
 <circle cx="8.4664" cy="8.4664" r="7.1435" fill="#476acc" stroke="#2f4ea7" stroke-width=".52916"/>
 <circle cx="8.4664" cy="8.4664" r="7.1435" fill="#476acc" stroke-width=".37419"/>
 <circle cx="8.4664" cy="8.4664" r="7.1435" fill-opacity="0" stroke-width=".37419"/>
 <circle cx="8.4664" cy="8.4664" r="0" fill="url(#c)" stroke-width=".37419"/>
 <path d="m8.4665 5.7057c-3.451 0-4.4863 1.0388-4.4863 5.3512 0 0.68917 2.4157-0.86276 3.1059-1.8981h2.7608c0.6902 1.0353 3.1059 2.5779 3.1059 1.8981 0-4.3138-1.0353-5.3512-4.4863-5.3512zm2.0706 1.0353a0.3451 0.3451 0 0 1 0.3451 0.3451 0.3451 0.3451 0 0 1-0.3451 0.3451 0.3451 0.3451 0 0 1-0.3451-0.3451 0.3451 0.3451 0 0 1 0.3451-0.3451zm-4.1412 0.00346h0.3451v0.6902h0.6902v0.3451h-0.6902v0.6902h-0.3451v-0.69021h-0.6902v-0.3451h0.6902zm3.451 0.68675a0.3451 0.3451 0 0 1 0.3451 0.3451 0.3451 0.3451 0 0 1-0.3451 0.3451 0.3451 0.3451 0 0 1-0.3451-0.3451 0.3451 0.3451 0 0 1 0.3451-0.3451zm1.3804 0a0.3451 0.3451 0 0 1 0.3451 0.3451 0.3451 0.3451 0 0 1-0.3451 0.3451 0.3451 0.3451 0 0 1-0.3451-0.3451 0.3451 0.3451 0 0 1 0.3451-0.3451zm-0.6902 0.6902a0.3451 0.3451 0 0 1 0.3451 0.3451 0.3451 0.3451 0 0 1-0.3451 0.3451 0.3451 0.3451 0 0 1-0.3451-0.3451 0.3451 0.3451 0 0 1 0.3451-0.3451z" fill="#ffffff" stroke-width=".3451"/>
</svg>
