<?xml version="1.0" encoding="UTF-8"?>
<svg width="64" height="64" version="1.1" viewBox="0 0 16.933 16.933" xmlns="http://www.w3.org/2000/svg" xmlns:cc="http://creativecommons.org/ns#" xmlns:dc="http://purl.org/dc/elements/1.1/" xmlns:rdf="http://www.w3.org/1999/02/22-rdf-syntax-ns#">
 <metadata>
  <rdf:RDF>
   <cc:Work rdf:about="">
    <dc:format>image/svg+xml</dc:format>
    <dc:type rdf:resource="http://purl.org/dc/dcmitype/StillImage"/>
    <dc:title/>
   </cc:Work>
  </rdf:RDF>
 </metadata>
 <path d="m15.61 8.4662a7.1435 7.1435 0 0 1-7.1435 7.1435 7.1435 7.1435 0 0 1-7.1435-7.1435 7.1435 7.1435 0 0 1 7.1435-7.1435 7.1435 7.1435 0 0 1 7.1435 7.1435z" fill="#c86fc3" stroke="#a44c9f" stroke-width=".52916"/>
 <path d="m15.61 8.4662a7.1435 7.1435 0 0 1-7.1435 7.1435 7.1435 7.1435 0 0 1-7.1435-7.1435 7.1435 7.1435 0 0 1 7.1435-7.1435 7.1435 7.1435 0 0 1 7.1435 7.1435z" fill="#c86fc3" stroke-width=".26457"/>
 <path d="m14.023 8.4665a5.5561 5.5561 0 0 1-5.5561 5.5561 5.5561 5.5561 0 0 1-5.5561-5.5561 5.5561 5.5561 0 0 1 5.5561-5.5561 5.5561 5.5561 0 0 1 5.5561 5.5561z" opacity=".35" stroke-width=".20578"/>
 <path d="m5.0499 10.951h3.1059v0.62118h-3.1059z" fill="#f9f9f9" stroke-width=".26457"/>
 <path d="m5.6712 5.3598v3.4165h0.62118v-1.2423h0.62118c0.74772 0 1.2423-0.30489 1.2423-1.0713v-0.015771c0-0.69164-0.33726-1.0871-1.141-1.0871zm4.3561 6.066e-4c-0.67294 0-1.2569 0.33795-1.2569 0.95482v0.018806c0 0.43285 0.43413 0.81752 1.1071 0.98576 0.56078 0.14954 0.77101 0.28502 0.77101 0.47194v0.018806c0 0.20562-0.3221 0.34516-0.62118 0.34516-0.37385 0-0.63269-0.13976-0.93176-0.38277l-0.40583 0.4398c0.39255 0.35516 0.83288 0.54546 1.3375 0.56415 0.71033 0 1.229-0.44413 1.229-1.0222v-0.018806c0-0.51188-0.40077-0.72542-1.0737-0.91236-0.56078-0.14954-0.77648-0.25431-0.77648-0.47862v-0.058235c0-0.16823 0.34078-0.30513 0.62118-0.30513s0.49072 0.02004 0.78981 0.22566l0.34577-0.47134c-0.35323-0.21339-0.64958-0.3755-1.1356-0.3755zm-3.735 0.62057h0.62118c0.37385 0 0.62118 0.12941 0.62118 0.46589v0.015771c0 0.2804-0.24732 0.45011-0.62118 0.45011h-0.62118z" fill="#f9f9f9" stroke-width=".26457"/>
</svg>
