<svg width="64" height="64" version="1.1" xmlns="http://www.w3.org/2000/svg">
 <rect x="16" y="6" width="32" height="52" rx="4" ry="4" fill="#343944" style="paint-order:markers stroke fill"/>
 <rect x="18" y="8" width="28" height="47" rx="2.154" ry="2.089" fill="#4c5263" stroke="#17181e" stroke-linecap="round" stroke-opacity=".588" style="paint-order:fill markers stroke"/>
 <path d="m26 8.48h11l-1 1.52h-9z" fill="#2c303a" style="paint-order:fill markers stroke"/>
 <g transform="translate(-376.57 -485.8)" fill="#fff">
  <path d="m405.57 509.8c-0.55228 0-1 0.44772-1 1s0.44772 1 1 1 1-0.44772 1-1-0.44772-1-1-1z"/>
  <path d="m412.57 509.8-2 2 4 4-4 4 2 2 6-6-2-2z"/>
  <path d="m402.57 515.8c-1.1046 0-2 0.89544-2 2 0 1.1046 0.89544 2 2 2s2-0.89544 2-2c0-1.1046-0.89544-2-2-2z"/>
  <path d="m407.57 521.8c-1.6569 0-3 1.3431-3 3s1.3431 3 3 3 3-1.3431 3-3-1.3431-3-3-3z"/>
 </g>
</svg>
