<svg width="64" height="64" version="1.1" xmlns="http://www.w3.org/2000/svg">
 <g transform="translate(161,38.64)">
  <path d="m-150-33.64v54h42v-54z" fill="#e1e3e7"/>
  <rect x="-150.5" y="-34.14" width="43" height="55" rx=".5" ry=".5" fill="none" stroke="#000" stroke-opacity=".24"/>
  <g fill="#8c8c8c">
   <rect x="-149" y="-32.64" width="2" height="2" rx="1" ry="1"/>
   <rect x="-111" y="-32.64" width="2" height="2" rx="1" ry="1"/>
   <rect x="-111" y="17.36" width="2" height="2" rx="1" ry="1"/>
   <rect x="-149" y="17.36" width="2" height="2" rx="1" ry="1"/>
   <rect x="-149" y="-7.64" width="2" height="2" rx="1" ry="1"/>
   <rect x="-111" y="-7.64" width="2" height="2" rx="1" ry="1"/>
  </g>
  <path d="m-122-30.14-17.934 18.17a16.5 16.5 0 0 0-5.566 12.33 16.5 16.5 0 0 0 16.5 16.5 16.5 16.5 0 0 0 16.5-16.5 16.5 16.5 0 0 0-0.03-0.852 0.492 0.492 0 0 0 0.03-0.148v-29c0-0.277-0.223-0.5-0.5-0.5z" fill="#edeff3" stroke="#cbcdd1"/>
  <circle cx="-129" cy=".36" r="6.5" fill="#e1e3e7" stroke="#cfd1d5"/>
  <rect x="-143.5" y="-27.14" width="20" height="12" rx="1.5" ry="1.5" fill="#4c5263" stroke="#313643"/>
  <path d="m-142-24.64v1h3.19v-1zm3.609 0v1h3.021v-1zm3.441 0v1h2.644v-1zm3.063 0v1h1.175v-1zm-10.113 3v1h5.078v-1zm5.581 0v1h2.434v-1zm2.896 0v1h1.133v-1zm-8.477 3v1h5.623v-1zm6.043 0v1h2.943v-1zm5.957 0v1h5.078v-1z" fill="#e9eaee"/>
 </g>
 <path d="m48 39.122c0 8.715-7.163 15.878-16 15.878s-16-7.163-16-15.878c0-8.958 7.163-16.122 16-16.122s16 7.164 16 16.122" fill="#49494c" fill-rule="evenodd" stroke="#000" stroke-opacity=".392"/>
 <path d="m32.008 25c-0.55824 0-1.099 0.0455-1.6414 0.11026a14.314 14.315 0 0 0-1.5854 0.273c-0.16449 0.0385-0.32374 0.11726-0.48998 0.1645-0.14874 0.04025-0.29399 0.06475-0.43748 0.11026-0.18549 0.05775-0.37623 0.10325-0.54948 0.1645-0.18724 0.0665-0.36224 0.14525-0.54774 0.21875-0.36048 0.14525-0.69298 0.3185-1.0378 0.49-0.12425 0.06475-0.26249 0.09975-0.38498 0.16625-0.40248 0.21-0.76998 0.46025-1.1463 0.7105-0.14349 0.09625-0.29749 0.1715-0.43748 0.27125-0.05775 0.042-0.10675 0.0665-0.16449 0.11025-0.16449 0.12425-0.33424 0.2485-0.49174 0.385-0.18724 0.154-0.36748 0.3255-0.54774 0.49-0.056 0.0525-0.1085 0.112-0.16449 0.1645l-0.05425 0.05425c-0.028 0.028-0.02625 0.08225-0.05425 0.11025-0.36748 0.357-0.76998 0.69825-1.0938 1.0938-0.0088 0.0175 0.0087 0.04375 0 0.0525-0.31674 0.385-0.60023 0.78575-0.87497 1.2057-0.03675 0.056-0.0735 0.105-0.11025 0.1645-0.02625 0.042-0.08225 0.06475-0.11025 0.11025-0.105 0.1715-0.17674 0.36575-0.27299 0.546-0.0315 0.05775-0.07875 0.10675-0.11025 0.1645-0.13125 0.2555-0.26249 0.5075-0.38498 0.7665-0.0053 0.0175 0.0087 0.04025 0 0.05425a14.045 14.045 0 0 0-0.54598 1.365c-0.03325 0.0945-0.07875 0.182-0.11025 0.27475-0.0053 0.0175 0.0053 0.0385 0 0.0525-0.035 0.11026-0.077 0.2205-0.11025 0.33075-0.12775 0.448-0.24499 0.89778-0.32899 1.365-0.0595 0.336-0.1295 0.69475-0.16449 1.0395a14.181 14.182 0 0 0-0.05425 1.4227c0 0.70525 0.063 1.4 0.16449 2.0772 0.0105 0.07175-0.01225 0.14875 0 0.21875 0.077 0.4655 0.20649 0.91879 0.32899 1.365 0.0455 0.16975 0.112 0.32725 0.16449 0.4935 0.07 0.22575 0.13824 0.43575 0.21874 0.6545a13.824 13.825 0 0 0 0.43748 1.0938c0.0875 0.1855 0.17849 0.3675 0.27299 0.54775a13.999 14 0 0 0 0.87497 1.477c0.028 0.042 0.0805 0.06825 0.11025 0.11025 0.34648 0.49 0.68948 0.98004 1.0938 1.421 0.07 0.077 0.14699 0.1435 0.21874 0.21875 0.07 0.0735 0.14699 0.147 0.21874 0.21875 0.37448 0.3745 0.78748 0.70875 1.2039 1.0395 0.53549 0.427 1.1008 0.80325 1.6957 1.1463 0.021 0.0175 0.03325 0.042 0.0525 0.05425 0.0945 0.0525 0.18199 0.11375 0.27474 0.1645 0.55124 0.273 1.2092 0.56875 1.6397 0.7665 0.19249 0.0735 0.40424 0.09975 0.60198 0.1645 0.09275 0.0315 0.18024 0.0805 0.27299 0.11025 0.23799 0.07175 0.46898 0.1575 0.71048 0.21875l0.21874 0.05425c0.51099 0.1225 1.0535 0.21175 1.5854 0.273 0.54248 0.063 1.0815 0.11026 1.6414 0.11026 0.59498 0 1.1725-0.03675 1.7499-0.11026 0.63873-0.084 1.19-0.217 1.7499-0.329a13.84 13.84 0 0 0 7.3813-4.8108c0.049-0.06125 0.11725-0.1015 0.16449-0.1645 0.0175-0.021 0.0385-0.035 0.05425-0.0525 0.0245-0.03325 0.0315-0.07875 0.05425-0.112a13.936 13.937 0 0 0 2.3519-4.9193c0.098-0.37975 0.20649-0.756 0.27299-1.148 0.0088-0.0525-0.0087-0.11025 0-0.1645 0.0105-0.07 0.04375-0.13825 0.05425-0.21875 0.0105-0.07525 0.0455-0.1435 0.05425-0.21875h-0.0525c0.07525-0.57575 0.16274-1.1533 0.16274-1.75 0-0.96429-0.0875-1.9302-0.27299-2.842-0.01575-0.07525-0.0385-0.1435-0.0525-0.21875-0.08225-0.36225-0.21874-0.7385-0.33074-1.092-0.0053-0.0175 0.0052-0.0385 0-0.05425a6.018 6.0182 0 0 0-0.0525-0.1645c-0.07-0.21-0.14349-0.4515-0.22049-0.65625-0.021-0.056-0.0315-0.112-0.0525-0.1645-0.077-0.1925-0.19074-0.3605-0.27474-0.54775-0.0035 0 0.0035-0.0455 0-0.05425-0.04375-0.0945-0.119-0.18025-0.16449-0.273a13.672 13.672 0 0 0-0.54773-1.0395c-0.1015-0.1715-0.16449-0.378-0.27299-0.546-0.042-0.063-0.12075-0.1015-0.16449-0.1645-0.11725-0.175-0.25724-0.32375-0.38323-0.49175-0.13999-0.175-0.24499-0.378-0.38324-0.54775-0.0087-0.0175 0.0087-0.04375 0-0.05425-0.30099-0.3675-0.64748-0.70525-0.98526-1.0395-0.16274-0.161-0.32199-0.3395-0.48998-0.49-0.05075-0.0455-0.1155-0.06825-0.16624-0.112a14.228 14.229 0 0 0-1.148-0.875c-0.09625-0.06475-0.17499-0.15225-0.27299-0.217-0.1225-0.0805-0.25899-0.14175-0.38324-0.21875-0.23449-0.147-0.46374-0.3045-0.70873-0.4375a14.162 14.162 0 0 0-0.65623-0.329 13.824 13.825 0 0 0-1.148-0.49175 13.385 13.385 0 0 0-1.4227-0.4375 13.574 13.574 0 0 0-3.4457-0.4375m0 1.75a12.289 12.29 0 0 1 2.4604 0.27475h0.0525c0.29224 0.06125 0.59324 0.13825 0.87497 0.21875 0.16974 0.04725 0.32899 0.11025 0.49348 0.1645 0.30099 0.09975 0.58448 0.20475 0.87497 0.329 0.33948 0.14 0.66323 0.266 0.98526 0.4375l-0.16449 0.0525a0.55824 0.55825 0 0 0-0.21874 0.21875c-0.035 0.084 0.0088 0.20125 0 0.329 0.0665 0.02975 0.105 0.1575 0.21874 0.21875 0.04375 0.0245 0.07-0.0175 0.11025 0 0.0665 0.03675 0.1225 0.15225 0.11025 0.21875-0.01925 0.09625-0.15399 0.0385-0.21874 0.11025 0.0105 0.13651-0.07525 0.18375-0.11025 0.273 0.021 0.05775 0.09975 0.042 0.11025 0.11025-0.01225 0.07525-0.13999 0.08575-0.11025 0.1645 0.126 0.098 0.26249-0.0385 0.38324-0.05425 0.26074-0.035 0.49524 0.07 0.65623-0.05425-0.021-0.12425 0.17499-0.161 0.16449-0.273-0.0105-0.084-0.15749-0.10675-0.21874-0.1645-0.035-0.0315-0.07-0.10325-0.11025-0.1645-0.0455-0.07-0.112-0.15225-0.16449-0.21875-0.07-0.091-0.21874-0.20475-0.21874-0.273 0-0.07875 0.091-0.11026 0.11025-0.21875-0.021-0.09975-0.20474 0-0.21874-0.11025a0.28349 0.2835 0 0 1 0.0525-0.11026c0.26249 0.1435 0.52324 0.31325 0.76823 0.49175l0.16449 0.11026c0.18899 0.14175 0.36223 0.2975 0.54774 0.4375-0.11725 0.021-0.17674 0.1575-0.27299 0.273a0.81198 0.812 0 0 1-0.27299 0.21875c-0.049 0.021-0.119-0.028-0.16449 0-0.06475 0.04375-0.08925 0.168-0.16449 0.21875-0.05425 0.035-0.21699 0.1645-0.27299 0.1645-0.0665 0-0.17149-0.07-0.21874-0.05425-0.07 0.02275-0.02975 0.13475-0.11025 0.1645-0.15399 0.0525-0.43748-0.1225-0.49174 0.11026 0.0665 0.133 0.26774 0.0875 0.38324 0.1645a0.83122 0.83125 0 0 1 0.21874 0.329 1.127 1.127 0 0 1 0 0.38325c-0.07175 0.1855-0.27999 0.16975-0.49174 0.1645-0.0595-0.0018-0.11025 0-0.16449 0-0.36223-0.0245-0.71223-0.14875-0.87497 0.11026 0.01225 0.19775 0.04375 0.32025 0 0.49-0.0315 0.126-0.16974 0.21875-0.16449 0.329 0.0035 0.056 0.09625 0.1435 0.11025 0.21875 0.0087 0.04025-0.01925 0.12775 0 0.1645 0.0595 0.1155 0.22224-0.0175 0.32899 0 0.10325 0.0175 0.22049 0.21175 0.21874 0.329a0.60548 0.6055 0 0 1-0.11025 0.273c-0.1015 0.1575-0.29224 0.13475-0.43748 0.21875-0.12249 0.06825-0.14699 0.20825-0.21874 0.329-0.077 0.1295-0.14174 0.1925-0.11025 0.38325a0.84872 0.84875 0 0 1-0.43748 0.4375c-0.06475 0.02975-0.16099 0.06825-0.21874 0.11026a1.1025 1.1025 0 0 0-0.16449 0.1645c-0.08225 0.091-0.17499 0.14875-0.21874 0.21875-0.035 0.0525-0.0175 0.147-0.05425 0.21875-0.0525 0.098-0.15399 0.175-0.21874 0.273-0.02975 0.0455-0.07525 0.10325-0.11025 0.1645-0.0735 0.13475-0.17674 0.2625-0.16449 0.3815 0.01225 0.1155 0.15574 0.119 0.16449 0.21875 7e-3 0.056-0.05775 0.105-0.05425 0.1645 0 0.08925 0.04725 0.1505 0.0525 0.21875 0.0175 0.175-0.07525 0.21-0.1085 0.329-0.0175 0.056 0.014 0.119 0 0.1645-0.028 0.0875-0.16274 0.1715-0.16449 0.273-0.0017 0.0735 0.10325 0.16975 0.11025 0.273 0.0035 0.07-0.0665 0.09975-0.05425 0.1645 0.0245 0.12775 0.28349 0.2835 0.38323 0.38325 0.13124 0.13125 0.27124 0.24325 0.32899 0.38325 0.04725 0.11725 0.07 0.294 0.16449 0.38325 0.06825 0.06475 0.18549 0.0945 0.27299 0.1645 0.08225 0.063 0.18724 0.09625 0.27299 0.1645 0.13999 0.112 0.32024 0.34475 0.54774 0.329 0.119-0.0175 0.24849-0.0875 0.38323-0.11025 0.13824-0.0245 0.29749-0.07 0.43748-0.05425 0.105 0.0175 0.21699 0.1155 0.32899 0.11026 0.11725 0 0.25024-0.10676 0.38323-0.1645 0.22924-0.09975 0.59149-0.26775 0.9275-0.21875 0.25549 0.035 0.26249 0.37975 0.43748 0.49 0.20649 0.0175 0.38498-0.09275 0.54774-0.0525 0.1225 0.02975 0.26249 0.231 0.27299 0.329 0.01225 0.1015-0.0945 0.21-0.11025 0.273-0.0315 0.1365-0.02975 0.29575-0.0525 0.3815-0.021 0.0665-0.05775 0.1505-0.056 0.21875a0.945 0.94504 0 0 0 0.16449 0.329c0.077 0.098 0.18024 0.168 0.27299 0.273a3.1499 3.15 0 0 1 0.38498 0.65625c0.028 0.06475-0.02975 0.13475 0 0.21875-0.0525 0.392-0.18199 0.65975-0.43748 1.0938-0.1225 0.14-0.27824 0.2625-0.27474 0.4375-0.0088 0.42 0.23799 0.686 0.21874 1.092-0.042 0.546 0.042 0.58275 0 0.875 0.18374 0.09275 0.05425 0.40775 0 0.602-0.07875 0.231-0.17499 0.2835-0.21874 0.4375 0.12425 0.0525 0.29924 0.03325 0.43748 0 0 0 0.16799 0.7 0.16449 0.7105a12.254 12.255 0 0 1-5.1396 3.0065c-0.9625 0.23275-1.2477 0.23275-1.6974 0.329a11.17 11.171 0 0 1-1.8024 0.1645c-0.42523 0-0.84522-0.0175-1.2582-0.05425-0.31849-0.0315-0.61948-0.1085-0.9275-0.1645a12.547 12.547 0 0 1-0.27474-0.05425c-0.28523-0.09624-0.61248-0.15399-0.87496-0.21874a12.366 12.367 0 0 1-0.87497-0.273c0.0245-0.02275 0.04725-0.01925 0.05425-0.05425 0.0175-0.07 0.0035-0.1085 0-0.21875 0.02625-0.11376 0.13999-0.1015 0.16449-0.21875-0.049-0.084-0.14524-0.0665-0.21874-0.11026a0.23274 0.23275 0 0 1-0.11025-0.21876c0.1225-0.05075 0.34998 0.1155 0.43748-0.05425 0.04375-0.0805-0.0595-0.245 0-0.329 0.04025-0.0525 0.29749-0.09625 0.38498-0.11025 0.1225-0.021 0.25724-0.0175 0.32724-0.0525a0.39023 0.39025 0 0 0 0.16449-0.33075c-7e-3 -0.06825-0.05775-0.10326-0.11025-0.1645-0.04375-0.05075-0.02275-0.1155-0.0525-0.1645-0.056-0.08225-0.14-0.1015-0.16624-0.21875 0.16799-0.03325 0.41298 0.1785 0.65623 0.11025 0.1155-0.03325 0.27474-0.329 0.32899-0.4375 0.0175-0.03325-0.0175-0.07 0-0.11026 0.021-0.0455 0.105-0.08575 0.11025-0.11025 0.0175-0.063-0.014-0.1225 0-0.1645 0.042-0.119 0.14874-0.13125 0.21874-0.21875 0.0525-0.0665 0.11375-0.15225 0.16449-0.21875 0.05425-0.07 0.0735-0.15575 0.11025-0.21875 0.035-0.21175-0.105-0.35875-0.0525-0.546 0.05425-0.21 0.34124-0.28875 0.54598-0.385 0.07-0.0315 0.16099-0.0875 0.21874-0.1085 0.13999-0.049 0.30799-0.063 0.43748-0.11025 0.21874-0.0805 0.27474-0.29225 0.38324-0.49175a1.0693 1.0693 0 0 0 0.11025-0.273c0.0087-0.06125-0.01225-0.09275 0-0.1645 0.0105-0.07 0.035-0.14175 0.05425-0.21875a1.9249 1.925 0 0 0 0.05425-0.38325c0-0.09275-0.05075-0.1365-0.05425-0.21875-0.01575-0.30275 0.10675-0.3815 0.21874-0.54775 0.056-0.08225 0.07-0.1575 0.11025-0.21875 0.18899-0.28 0.51624-0.39375 0.48998-0.819-7e-3 -0.14-0.0595-0.448-0.16274-0.49175-0.0595-0.02625-0.18724-0.01925-0.27299-0.05425-0.27649-0.105-0.47948-0.4725-0.76648-0.49175-0.06125 0-0.09625 0.0525-0.16449 0.0525-0.11375 0-0.25724-0.091-0.38323-0.1085-0.0805-0.0175-0.22574 0.02275-0.27299 0-0.0735-0.035-0.05075-0.1785-0.11025-0.21875-0.04725-0.0315-0.14699-0.02625-0.21874-0.05425-0.1155-0.04375-0.19599-0.098-0.32899-0.11025-0.04025-0.0018-0.11725 0-0.16449 0-0.0735-0.0175-0.15049-0.07-0.21874-0.11026a0.36398 0.364 0 0 1-0.16449-0.1645c0.077-0.252-0.16799-0.29225-0.21874-0.4375-0.0245-0.06825 0.02275-0.1575 0-0.21875-0.02975-0.0875-0.1225-0.147-0.21874-0.21875-0.16974-0.1295-0.30449-0.24325-0.54774-0.273-0.105-0.0175-0.25374 0-0.38324 0a0.64223 0.64225 0 0 1-0.38323-0.21875c-0.098-0.11375-0.133-0.21875-0.21874-0.273-0.08225-0.0525-0.21699-0.0525-0.27299-0.11025-0.0245-0.0245-0.02975-0.0525-0.0525-0.11025-0.042-0.084-0.1085-0.1715-0.056-0.273-0.09275-0.04725-0.06125 0.126-0.16449 0.11026-0.091-0.12951-0.17499-0.20125-0.38323-0.1645-0.0945 0.0175-0.16274 0.105-0.27299 0.11025-0.091 0-0.15399-0.09275-0.27299-0.11025-0.091-0.0175-0.20999 0.063-0.27299 0.05425-0.09975-0.0175-0.12775-0.10325-0.21874-0.1645-0.0665-0.04375-0.18199-0.16625-0.21874-0.1645-0.11725 0-0.22049 0.25025-0.38323 0.1645-0.07875-0.09975 0.14874-0.12251 0.05425-0.21875-0.07-0.07-0.105 0.0175-0.16449 0.05425a1.1655 1.1655 0 0 1-0.21874 0.11025c-0.16099 0.0595-0.25724 0.04375-0.38323 0.11025-0.1155 0.0595-0.15224 0.154-0.21874 0.273-0.0525 0.098-0.13824 0.26775-0.21874 0.273-0.098 0-0.18374-0.126-0.27124-0.1645-0.26774-0.1155-0.43398 0.0525-0.65623 0.05425-0.20649 0-0.50224-0.2975-0.49174-0.49 7e-3 -0.11725 0.0945-0.2905 0.11025-0.4375 0.0105-0.1155 0.1085-0.22225 0.11025-0.329 0-0.14175-0.23624-0.25725-0.32899-0.273-0.21874-0.04025-0.51624 0.105-0.76648 0-0.04725-0.07875 0.08225-0.14175 0.11025-0.21875 0.01575-0.04375-0.0175-0.0595 0-0.11026 0.028-0.0735 0.1295-0.14 0.16449-0.21875 0.02625-0.0595 0.028-0.1435 0.0525-0.21875 0.0315-0.0875 0.105-0.15925 0.112-0.21875 0.0088-0.07875-0.04725-0.16625-0.11025-0.21875-0.19424 0.0175-0.32724 0-0.43748 0.05425-0.25199 0.1155-0.18549 0.4655-0.43748 0.54775-0.0875 0.028-0.23274 0.035-0.32899 0.0525-0.08225 0.0175-0.18724 0.05775-0.27299 0.056a0.61948 0.6195 0 0 1-0.32899-0.16449 0.30449 0.3045 0 0 1-0.05425-0.11025c0.0035-0.0175-0.0035-0.03675 0-0.05425 0.0805-0.39025 0.16274-0.777 0.27299-1.148 0.0053-0.0175-0.0053-0.0385 0-0.0525 0.0735-0.245 0.18024-0.4725 0.27299-0.71225 0.02275-0.0175 0.03325-0.04025 0.0525-0.0525 0.1365-0.0945 0.27474-0.21 0.43748-0.21875 0.1015 0 0.28874 0.035 0.38498 0.0525 0.0875 0.0175 0.14349 0.105 0.21874 0.112 0.21524 0.0175 0.26074-0.18025 0.43748-0.273 0.18199 0.02625 0.27299-0.0175 0.43748 0 0.112 0.0175 0.24149 0.1575 0.32899 0.1645 0.0735 0 0.09275-0.1225 0.16449-0.11025 0.07 0.0175 0.20824 0.189 0.21874 0.273 0.01225 0.105-0.084 0.2135-0.05425 0.32725 0.11025 0.112 0.33249 0.098 0.48998 0.1645 0.105-0.084 0.0175-0.2065 0-0.32725-0.0017-0.05425 0.0088-0.1155 0-0.1645-0.0087-0.084-0.0525-0.147-0.0525-0.21875-0.0018-0.3325 0.26949-0.525 0.48998-0.65625 0.098-0.05775 0.18899-0.1225 0.27299-0.1645 0.11725-0.0595 0.17499-0.11025 0.27299-0.1645 0.17674-0.09975 0.35348-0.161 0.49174-0.273 0.06475-0.1505-7e-3 -0.343 0-0.49175 0.06475-0.0385 0.09625 0 0.16449 0 0.10675-0.02275 0.15749-0.15925 0.21874-0.21875 0.035-0.035 0.1225-0.07525 0.16449-0.11025 0.10675-0.084 0.12599-0.182 0.21874-0.21875 0.035-0.0175 0.112-0.02975 0.16449-0.05425 0.07-0.01925 0.16099-0.07 0.27299-0.11025 0.0735-0.0245 0.24499-0.02625 0.27299-0.05425 0.035-0.035-0.0105-0.16625 0-0.21875 0.056-0.2625 0.47598-0.294 0.71048-0.38325 0.16449-0.063 0.31149-0.1995 0.49174-0.1645-0.035 0.126-0.19249 0.0665-0.16449 0.21875 0.04025 0.21175 0.30799-0.02275 0.38498-0.0525 0.13999-0.06125 0.41298-0.098 0.60024-0.16625 0.16449-0.0595 0.42874-0.14 0.27299-0.329-0.1295 0-0.16099 0.1155-0.27299 0.1645-0.077 0.0175-0.098-0.04725-0.16449-0.0525-0.063 0-0.09975 0.06475-0.16449 0.0525-0.06475-0.0175-0.15399-0.1435-0.16449-0.21875-0.02625-0.1925 0.19249-0.238 0.27299-0.38325-0.0525-0.175-0.29049-0.042-0.43748-0.11025a0.25899 0.259 0 0 1 0.21874-0.217c0.09975-0.0175 0.32374 0.0175 0.38498 0.0525 0.035 0.0315 0 0.11726 0.0525 0.16625 0.0595 0.0525 0.14174 0.0175 0.21874 0 0.028-0.133-0.18549-0.07525-0.16449-0.1645 0.15749-0.105 0.46374-0.028 0.65623-0.05425 0.11025-0.0175 0.22924-0.1085 0.32899-0.1645 0.0945-0.0525 0.17499-0.14175 0.27299-0.05425 0.028 0.0945-0.056 0.1155-0.11025 0.1645a3.8183 3.8185 0 0 0-0.48998 0.546c0.084 0.084 0.23624 0.0385 0.38148 0.05425 0.056 0 0.105 0.04375 0.16449 0.05425 0.07 0.0175 0.16449-0.021 0.21874 0 0.098 0.0245 0.1225 0.1645 0.21874 0.1645 0.15924 0 0.14524-0.21875 0.05425-0.329 0.028-0.11026 0.09275-0.14 0.05425-0.21875-0.07-0.1435-0.36748 0.0245-0.38324-0.1645-0.0088-0.11725 0.1225-0.13125 0.16449-0.21875-0.0175-0.224 0.18549-0.2345 0.16449-0.4375-0.0105-0.08225-0.105-0.084-0.16449-0.16275-0.02975-0.04025-0.0175-0.133-0.0525-0.1645-0.1225-0.105-0.36748-0.077-0.38498-0.273-7e-3 -0.1155 0.0175-0.20125 0-0.329-0.01575-0.11725-0.1155-0.469-0.21874-0.49175-0.13124-0.028-0.22574 0.1995-0.38323 0.273a0.68073 0.68075 0 0 1-0.32899 0.0525c-0.056-0.0175-0.15574-0.05425-0.16449-0.16275-0.0105-0.1225 0.0875-0.1435 0.11025-0.273-0.0175-0.077-0.0875-0.0525-0.16449-0.11025-0.08575-0.06475-0.15749-0.203-0.27299-0.21875-0.05775 0-0.16274 0.05075-0.21874 0.05425-0.105 0-0.18549-0.02625-0.27299-0.05425 0.03675-0.0175 0.07175-0.042 0.11025-0.05425 0.21349-0.0735 0.43748-0.10325 0.65623-0.1645 0.0385-0.0175 0.07175-0.04375 0.11025-0.05425 0.05425 0.05775 0.098 0.18025 0.16449 0.21875 0.04375 0.0245 0.11025-0.0175 0.16449 0 0.17149 0.0525 0.30449 0.14875 0.49174 0.11026 0.06475-0.11376-0.12949-0.1295-0.0525-0.21875 0.12425 0.0175 0.22924 0.07 0.32724 0.11026 0.13474-0.098 0.22399-0.1155 0.21874-0.273 0-0.0805-0.1085-0.11025-0.16449-0.1645 0.11025-0.01925 0.21699-0.0385 0.32899-0.05425 0.0087 0.02975 0.03675 0.0525 0.05425 0.05425 0.0665 0.0175 0.28874-0.08925 0.32899-0.11025 7e-3 0-0.0105-0.04725 0-0.05425 0.44274-0.04725 0.91176-0.05425 1.3667-0.05425m-4.3748 0.82076c-0.04025 0.07525-0.08225 0.13825-0.16449 0.1645 0.021 0.11376-0.14699 0.18375-0.16449 0.273-0.0105 0.06125-0.0035 0.1645 0 0.21875 0.035 0.55826-0.43748 0.833-0.98526 0.819-0.105 0.1015-0.05075 0.2975-0.11025 0.4375-0.049 0.11726-0.20999 0.22925-0.32899 0.21875-0.0875 0-0.21874-0.13824-0.21874-0.21875 0-0.09975 0.14174-0.1575 0.05425-0.273 0.01225-0.077 0.18549-0.1505 0.16449-0.273-0.021-0.12951-0.16799-0.03325-0.32899-0.0525a1.6152 1.6152 0 0 1-0.32899-0.112c0.17674-0.11726 0.35873-0.2205 0.54774-0.329 0.16449-0.098 0.32374-0.18375 0.49174-0.273 0.44098-0.2205 0.9135-0.42525 1.3667-0.60025m9.4063 1.3125c-0.04725 0-0.07 0.02975-0.11025 0.0525-0.08925 0.05425-0.0945 0.14-0.16449 0.1645-0.0945 0.03675-0.20474 0.0175-0.21874 0.11025-0.0105 0.07175 0.05775 0.09625 0.0525 0.1645-0.035 0.0875-0.091 0.1155-0.1085 0.21875 0.119 0.1925 0.40074-0.0175 0.54774-0.0525 0.0665-0.021 0.12775 0 0.16449-0.056 0.04025-0.06125 0.02275-0.18375 0.0525-0.273 0.035-0.098 0.1225-0.07525 0.112-0.1645-0.0105-0.0875-0.18549-0.1785-0.32899-0.1645m-12.795 1.365c0.105 0.02975 0.34298 0.3395 0.11025 0.4375a1.6292 1.6292 0 0 1-0.38498 0.056c-0.07875-0.0175-0.13474-0.1505-0.21699-0.1645-0.16099-0.028-0.38148 0.175-0.49174 0 0.028-0.105 0.15049-0.07525 0.27299-0.11026 0.21874-0.0595 0.52148-0.26775 0.71048-0.21875m0.43748 0.54775c0.0525 0 0.09625 0.10326 0.16274 0.11026 0.063 0 0.126-0.063 0.16449-0.05425 0.098 0.02625 0.14699 0.20125 0.05425 0.273-0.077 0-0.105-0.06475-0.16449-0.05425-0.15749 0.028-0.20999 0.33776-0.32724 0.329-0.112-0.0175-0.16799-0.24675-0.05425-0.329 0.0035-0.07-0.05775-0.0945-0.05425-0.1645 0.035-0.04375 0.126-0.1155 0.21699-0.11026m-0.54598 0.0525c0.03325 0.0035 0.042 0 0.0525 0-0.014 0.126-0.0665 0.161-0.16274 0.2205a0.66148 0.6615 0 0 0-0.32899 0.4375c-0.0175 0.063-0.19424 0.23275-0.27299 0.217-0.18549-0.0385 0.0665-0.385 0.11025-0.4375 0.04725-0.056 0.1085-0.09625 0.16449-0.16275 0.0525-0.06475 0.05775-0.18375 0.11025-0.21875a0.77173 0.77175 0 0 1 0.32899-0.05425m16.621 0.0525c0.084 0.0245 0.1015 0.1225 0.16449 0.16625 0.04725 0.0315 0.112 0.021 0.16449 0.0525 0.06125 0.04025 0.0945 0.105 0.16449 0.16625 0.098 0.08225 0.24499 0.154 0.38498 0.21875 0.02625 0.0175 0.07525 0.04025 0.1085 0.0525 0.09625 0.126 0.18199 0.25375 0.27299 0.385 0.0105 0.07 0.021 0.1715 0.05425 0.217 0.091 0.12426 0.22924 0.231 0.32899 0.385 0 0.1435 0.063 0.231 0.16449 0.27125 0.12774 0.217 0.26249 0.434 0.38498 0.65625 0.049 0.1015 0.0595 0.22575 0.1085 0.329-0.035 0-0.07525 0.0175-0.11025 0-0.1155-0.203-0.71573-0.24325-0.76648 0.0525-0.02275 0.133 0.0875 0.308-0.11025 0.33075-0.1225 0.0175-0.26774-0.12775-0.43748-0.1645-0.07-0.0175-0.16449 0.0245-0.21874 0-0.12775-0.04375-0.1085-0.196-0.21874-0.273a0.95725 0.95729 0 0 0-0.32899-0.11026h-0.16449c-0.07875-0.0175-0.20649-0.0175-0.27299-0.05425-0.063-0.0385-0.20299-0.1085-0.21874-0.1645-0.0245-0.0875 0.15749-0.1995 0.16449-0.273 0.0035-0.0525-0.04025-0.07875-0.0525-0.1645-0.0105-0.05075 0.0087-0.1295 0-0.1645-0.0175-0.0595-0.126-0.1085-0.22049-0.11025-0.084 0-0.14699 0.0525-0.21874 0.05425-0.10325 0.0018-0.30974-0.06475-0.43748-0.0525-0.07525 0-0.14524 0.04725-0.21699 0.0525-0.20299 0.0175-0.33424-0.0175-0.49174 0a1.3299 1.33 0 0 0-0.43748 0.11025c-0.05425 0.0245-0.0945 0.07525-0.16449 0.11025a1.0833 1.0833 0 0 1-0.11025 0.05425c-0.0665 0.02975-0.15749 0.09275-0.21874 0.11025-0.091 0.02275-0.21699 0-0.38498 0-0.11725 0-0.32549-0.0245-0.32724-0.1645-0.0018-0.21525 0.39724-0.126 0.60198-0.1645 0.077-0.0175 0.12775-0.11025 0.21874-0.1645 0.04375-0.02625 0.06825-0.02625 0.11025-0.0525 0.07-0.05075 0.20824-0.1645 0.21874-0.2205 0.0105-0.0525-0.06125-0.126-0.05425-0.1645 0.0087-0.049 0.09975-0.1015 0.16449-0.1645 0.098-0.09625 0.15224-0.21 0.27299-0.273 0.08225-0.04375 0.23624-0.042 0.27299-0.11025 0.0087-0.07525-0.0017-0.09625 0-0.1645 0.05075-0.04725 0.0665-0.1015 0.11025-0.11026 0.126-0.028 0.23624 0.06125 0.38323 0.05425a0.50749 0.5075 0 0 0 0.21699-0.0525c0.05775-0.04025 0.1085-0.0805 0.16449-0.112 0.06125-0.0315 0.08925-0.10326 0.16449-0.11026 0.18374-0.0175 0.29924 0.217 0.38498 0.329 0.07 0.09275 0.26599 0.21 0.38148 0.273 0.06475 0.03675 0.14699 0.07875 0.21874 0.11025 0.15224 0.07 0.43224 0.28875 0.43748 0.4375 0.0035 0.0735-0.0665 0.0945-0.0525 0.1645 0.11375 0.01925 0.21349-0.10325 0.21699-0.21875 0.0017-0.07-0.06825-0.0875-0.0525-0.1645 0.0525-0.1155 0.25724-0.0175 0.32724-0.0525-0.01225-0.133-0.21699-0.15225-0.32899-0.2205-0.0595-0.035-0.1015-0.084-0.16449-0.11026-0.09099-0.035-0.20299-0.056-0.27298-0.11025-0.0665-0.05075-0.09975-0.14-0.16449-0.21875-0.0945-0.112-0.27649-0.12775-0.21874-0.38325 0.028-0.0385 0.06475-0.12076 0.11025-0.11025m-15.418 0.385h0.16449c0.0595 0 0.13999-0.03325 0.16449 0-0.0385 0.15225-0.37098 0.1085-0.49174 0.0525 7e-3 -0.05775 0.0875-0.04725 0.16449-0.0525m-0.54774 0.27125c0.04025 0 0.06825-0.0175 0.11025 0a1.2424 1.2425 0 0 1-0.43748 0.21875c-0.08925 0.028-0.20299 0.04375-0.21874-0.0525-0.01925-0.1225 0.08225-0.09975 0.16449-0.112 0.1015-0.0175 0.26249-0.05075 0.38323-0.0525m15.201 0c-0.07525 0.02275-0.1155 0.196 0 0.217 0.0525-0.0315 0.06825-0.119 0.0525-0.21875-0.028-0.0315-0.028 0-0.0525 0m-0.05425 0.329c-0.03675 0.0175-0.07 0.0175-0.11025 0.05425 0 0.13125 0.02625 0.21525 0 0.329 0.07525 0.1435 0.23449 0.0455 0.27299-0.05425 0.0455-0.24325-0.0525-0.35875-0.16449-0.329m0.76473 0.65625c0.0875 0.14 0.24674 0.23975 0.43748 0.273 0.07-0.0525 0.077-0.18375 0.11025-0.273h-0.27299c-0.10325 0-0.21349-0.049-0.27299 0m-20.45 4.7023c0.28699-0.0175 0.37098 0.37625 0.60198 0.49 0.05775 0.0315 0.14349 0.04025 0.21874 0.056 0.06125 0.0175 0.105 0.035 0.16449 0.0525 0.12249 0.04375 0.28349 0.0175 0.38323 0.056 0.14874 0.0665 0.25549 0.3605 0.38324 0.4375 7e-3 0.0735-0.02275 0.161 0 0.217 0.06125 0.08225 0.17324 0.112 0.27299 0.1645 0.119 0.06475 0.16099 0.22225 0.27299 0.273 0.0385 0.0175 0.10325-0.0175 0.16449 0 0.15399 0.04725 0.19599 0.25725 0.32899 0.21875 0.0875-0.0245 0.09625-0.1365 0.11025-0.21875 0.05775-0.063 0.1295-0.16275 0.21874-0.1645 0.14524 0 0.16624 0.13125 0.21874 0.273 0.02975 0.0805 0.0875 0.189 0.11025 0.273 0.035 0.14525 0.02975 0.56875 0 0.65625-0.03675 0.105-0.18549 0.15575-0.27299 0.273-0.042 0.0525-0.077 0.1225-0.11025 0.1645-0.056 0.07-0.12249 0.09975-0.16449 0.1645-0.0245 0.035-0.0315 0.1155-0.05425 0.1645-0.07 0.14875-0.16799 0.259-0.11025 0.4375 0.0245 0.0735 0.1085 0.133 0.11025 0.21875 0 0.1015-0.20124 0.16275-0.21874 0.273-0.01225 0.08225 0.084 0.2205 0.11025 0.329 0.0175 0.08225 0.16974 0.1645 0.21874 0.21875 0.08225 0.09275 0.14349 0.21 0.21874 0.32725 0.14874 0.2275 0.23799 0.49 0.38324 0.7105 0.07525 0.1155 0.22224 0.21 0.27299 0.329 0.02625 0.06125-0.0245 0.1645 0 0.21875 0.084 0.189 0.46548 0.399 0.65623 0.49175 0.0875 0.04375 0.19249 0 0.27299 0.05425a1.6082 1.6082 0 0 1 0.43748 0.38325c0.056 0.098 0.08225 0.33775 0.11025 0.49 0.035 0.2065-0.0087 0.3815 0 0.60376 7e-3 0.12076 0.0525 0.20825 0.0525 0.329 0 0.042 0.0035 0.1225 0 0.1645-0.0018 0.14525 0.014 0.28875 0 0.4375a1.3019 1.302 0 0 0 0 0.217c0.0087 0.07175 0.05075 0.09975 0.056 0.1645 0.0035 0.07-0.06125 0.16625-0.05425 0.21875 0.01575 0.147 0.13474 0.2485 0.16449 0.385 0.02275 0.105 0.06825 0.36225 0.0525 0.49-7e-3 0.07-0.042 0.14525-0.0525 0.21875-7e-3 0.05775 0.0088 0.1085 0 0.1645-0.0105 0.08225-0.0595 0.14175-0.05425 0.21875 0.0105 0.1575 0.13999 0.28 0.16449 0.4375 0.0087 0.0525-0.0018 0.11375 0 0.1645 0 0.04725 0.04025 0.0665 0.0525 0.11025a12.212 12.213 0 0 1-1.3124-0.875 12.363 12.363 0 0 1-1.1463-0.98529l-0.05425-0.0525a12.652 12.652 0 0 1-1.0395-1.148c-0.18199-0.231-0.38148-0.46725-0.54774-0.7105-0.098-0.14525-0.18199-0.287-0.27299-0.4375-0.056-0.08925-0.11025-0.182-0.16449-0.273a11.51 11.51 0 0 1-0.43748-0.82076c-0.0875-0.175-0.14174-0.364-0.21874-0.54775a11.799 11.799 0 0 1-0.49174-1.3125c-0.0945-0.322-0.15049-0.6475-0.21874-0.98354-0.0525-0.2555-0.12775-0.50575-0.16449-0.7665a11.485 11.486 0 0 1-0.05425-0.4375 12.438 12.439 0 0 1 0.056-2.7878v-0.0525c0.11025 0 0.26074-0.16275 0.38323-0.16625m4.7038 1.3125c0.112-0.0525 0.14699 0.20475 0.0525 0.21875-0.0875 0.0175-0.13999-0.1785-0.0525-0.21875" fill="#fff" stroke-width=".87502"/>
</svg>
