<svg width="64" height="64" version="1.1" viewBox="0 0 16.933 16.933" xmlns="http://www.w3.org/2000/svg">
 <g transform="translate(-1.2742e-8 -280.07)">
  <rect x="1.588" y="281.65" width="13.758" height="13.758" rx=".794" ry=".794" fill="none" opacity=".75" stroke="#2454d8" stroke-linecap="round" stroke-linejoin="round" stroke-width=".529" style="paint-order:markers stroke fill"/>
  <rect x="1.588" y="281.65" width="13.758" height="13.758" rx=".794" ry=".794" fill="#90a9ff" style="paint-order:markers stroke fill"/>
  <rect x="3.44" y="292.77" width="10.054" height="1.323" ry=".265" fill="#fff" opacity=".35" style="paint-order:markers stroke fill"/>
  <g fill="#ccdfff">
   <rect x="4.498" y="291.97" width="1.323" height="1.323" ry=".132" style="paint-order:stroke markers fill"/>
   <rect x="6.703" y="291.97" width="1.323" height="1.323" ry=".132" style="paint-order:stroke markers fill"/>
   <rect x="8.908" y="291.97" width="1.323" height="1.323" ry=".132" style="paint-order:stroke markers fill"/>
   <rect x="11.113" y="291.97" width="1.323" height="1.323" ry=".132" style="paint-order:stroke markers fill"/>
  </g>
  <path d="m2.381 281.65a0.792 0.792 0 0 0-0.793 0.794v0.264h13.758v-0.264a0.792 0.792 0 0 0-0.794-0.794z" opacity=".35" style="paint-order:markers stroke fill"/>
  <rect x="7.12" y="281.92" width="2.646" height=".529" ry=".265" opacity=".35" style="paint-order:stroke markers fill"/>
 </g>
 <path d="m8.467 5.972c-0.782 0-1.411 0.629-1.411 1.41v0.53h0.504v-0.53c0-0.488 0.418-0.906 0.907-0.906 0.488 0 0.907 0.418 0.907 0.907v0.529h0.504v-0.53c0-0.781-0.63-1.41-1.411-1.41z" fill="#fff"/>
 <rect transform="matrix(0,-1,-1,0,0,0)" x="-11.112" y="-10.583" width="3.225" height="4.233" rx=".266" ry=".269" fill="#fff"/>
</svg>
