<svg width="64" height="64" version="1.1" xmlns="http://www.w3.org/2000/svg">
 <rect x="6.002" y="5.9982" width="52" height="52" rx="3.001" ry="3.001" fill="none" opacity=".75" stroke="#2454d8" stroke-linecap="round" stroke-linejoin="round" stroke-width="1.9994" style="paint-order:markers stroke fill"/>
 <g stroke-width="3.7796">
  <rect x="6.002" y="5.9982" width="52" height="52" rx="3.001" ry="3.001" fill="#90a9ff" style="paint-order:markers stroke fill"/>
  <rect x="13.002" y="50.001" width="38" height="5.0004" ry="1.0016" fill="#fff" opacity=".35" style="paint-order:markers stroke fill"/>
  <g fill="#ccdfff">
   <rect x="17.001" y="47" width="5.0004" height="5.0004" ry=".49891" style="paint-order:stroke markers fill"/>
   <rect x="25.335" y="47" width="5.0004" height="5.0004" ry=".49891" style="paint-order:stroke markers fill"/>
   <rect x="33.669" y="47" width="5.0004" height="5.0004" ry=".49891" style="paint-order:stroke markers fill"/>
   <rect x="42.003" y="47" width="5.0004" height="5.0004" ry=".49891" style="paint-order:stroke markers fill"/>
  </g>
  <path d="m8.9992 5.9982a2.9934 2.9934 0 0 0-2.9972 3.001v0.99781h52v-0.99781a2.9934 2.9934 0 0 0-3.001-3.001z" opacity=".35" style="paint-order:markers stroke fill"/>
  <rect x="26.911" y="6.9998" width="10.001" height="1.9994" ry="1.0016" opacity=".35" style="paint-order:stroke markers fill"/>
 </g>
 <g transform="matrix(2,0,0,2,0,-7)" fill="#fff" stroke-width=".5">
  <path d="m16 12a9 9 0 0 0-7.877 4.668c0.129 0.364 0.357 0.677 0.656 0.908a8 8 0 0 1 7.221-4.576 4 4 0 0 0-4 4 4 4 0 0 0 4 4 4 4 0 0 0 4-4 4 4 0 0 0-3.65-3.982 8 8 0 0 1 6.87 4.558c0.302-0.234 0.533-0.55 0.66-0.918a9 9 0 0 0-7.88-4.658zm0 2a3 3 0 0 1 3 3 3 3 0 0 1-3 3 3 3 0 0 1-3-3 3 3 0 0 1 3-3zm0 1a2 2 0 0 0-2 2 2 2 0 0 0 2 2 2 2 0 0 0 2-2 2 2 0 0 0-0.09-0.588 1 1 0 0 1-0.91 0.588 1 1 0 0 1-1-1 1 1 0 0 1 0.59-0.91 2 2 0 0 0-0.59-0.09z"/>
  <path d="m8 11v11h7v2h-3v1h8v-1h-3v-2h7v-11h-15zm1 1h14v9h-14z"/>
 </g>
</svg>
