<svg xmlns="http://www.w3.org/2000/svg" height="64" width="64"><path d="M32 4.5C16.826 4.5 4.5 16.826 4.5 32S16.826 59.5 32 59.5 59.5 47.174 59.5 32 47.174 4.5 32 4.5z" style="marker:none" color="#000" overflow="visible" fill="#489cf0" fill-opacity=".992"/><path d="M32 4.5C16.826 4.5 4.5 16.826 4.5 32S16.826 59.5 32 59.5 59.5 47.174 59.5 32 47.174 4.5 32 4.5z" style="isolation:auto;mix-blend-mode:normal;solid-color:#000;solid-opacity:1;marker:none" color="#000" overflow="visible" opacity=".5" fill="none" stroke="#002e99" stroke-linecap="round" stroke-linejoin="round"/><path style="isolation:auto;mix-blend-mode:normal;solid-color:#000;solid-opacity:1" d="M32 14a4 4 0 1 0 0 8 4 4 0 0 0 0-8zm-14.66 9.05c-1.15-.029-1.432 1.588-.34 1.95l11 4v7l-4.955 13.209c-.354 1.142 1.232 1.83 1.824.791L32 38l7.13 12c.592 1.044 2.185.352 1.825-.793L36 36v-7l11-4c1.15-.38.76-2.095-.441-1.941L32 25l-14.559-1.941a1.015 1.015 0 0 0-.101-.008z" color="#000" overflow="visible" fill="#fff" fill-rule="evenodd"/></svg>