<svg width="64" height="64" version="1.1" xmlns="http://www.w3.org/2000/svg">
 <g transform="translate(270.4 69.763)">
  <path d="m-244.5-26.43c-0.776 0-1.4 0.596-1.4 1.334v10.5l-3.6 0.333c-0.776 0-1.4 0.596-1.4 1.334v1.666h25v-1.666c0-0.738-0.625-1.334-1.4-1.334l-3.6-0.334v-10.499c0-0.738-0.625-1.334-1.4-1.334z" fill="none" stroke="#42557f" stroke-opacity=".291"/>
  <path d="m-244.5-25.929c-0.52 0-0.9 0.378-0.9 0.834v10.955l-4.078 0.377h-0.022c-0.52 0-0.9 0.378-0.9 0.834v1.166h24v-1.166c0-0.456-0.381-0.834-0.9-0.834h-0.024l-4.076-0.377v-10.955c0-0.456-0.38-0.834-0.9-0.834z" fill="#fafafa"/>
  <rect x="-268.9" y="-64.263" width="61" height="40" rx="1.4" ry="1.333" fill="#414757" stroke="#252831" stroke-dashoffset=".5" stroke-linecap="round" stroke-linejoin="round" stroke-opacity=".784"/>
  <path d="m-266.4-61.763h56v35h-56z" fill="#1a1c1f" fill-rule="evenodd"/>
 </g>
 <g transform="translate(-2.9492 .71293)" opacity=".5">
  <path d="m18.948 10.286h20.001v2.0001h-20.001zm0 12.001h16.001v2.0001h-16.001zm0 4.0003h16.001v2.0001h-16.001zm0 4.0003h12.001v2.0001h-12.001zm0-16.001h16.001v2.0001h-16.001zm0 4.0003h12.001v2.0001h-12.001zm0 16.001h20.001v2.0001h-20.001zm0 4.0003h12.001v2.0001h-12.001z" fill="#fff" stroke-width="1.4142" style=""/>
  <path d="m10.949 10.286h6.0004v2.0001h-6.0004zm0 4.0003h6.0004v2.0001h-6.0004zm0 4.0003h6.0004v2.0001h-6.0004zm0 4.0003h6.0004v2.0001h-6.0004zm0 4.0003h6.0004v2.0001h-6.0004zm0 4.0003h6.0004v2.0001h-6.0004zm0 4.0003h6.0004v2.0001h-6.0004zm0 4.0003h6.0004v2.0001h-6.0004z" fill="#41f045" style=""/>
 </g>
</svg>
