<svg width="64" height="64" version="1.1" xmlns="http://www.w3.org/2000/svg" xmlns:xlink="http://www.w3.org/1999/xlink">
 <defs>
  <linearGradient id="a" x1="1.3229" x2="15.61" y1="7.6728" y2="7.6728" gradientTransform="scale(3.7796)" gradientUnits="userSpaceOnUse">
   <stop stop-color="#5179a9" offset="0"/>
   <stop stop-color="#337235" offset=".24232"/>
   <stop stop-color="#b6b521" offset=".50045"/>
   <stop stop-color="#936a2a" offset=".76997"/>
   <stop stop-color="#8e4c32" offset="1"/>
  </linearGradient>
  <linearGradient id="b" x1="1.5875" x2="15.346" y1="289.06" y2="289.06" gradientTransform="matrix(3.7796 0 0 3.7796 -1e-7 -1058.6)" gradientUnits="userSpaceOnUse">
   <stop stop-color="#9ab9dd" offset="0"/>
   <stop stop-color="#9add9c" offset=".24232"/>
   <stop stop-color="#f3f284" offset=".50045"/>
   <stop stop-color="#edb968" offset=".7549"/>
   <stop stop-color="#ed8e68" offset="1"/>
  </linearGradient>
 </defs>
 <rect x="6.002" y="5.9982" width="52" height="52" rx="3.001" ry="3.001" fill="none" opacity=".75" stroke="url(#a)" stroke-linecap="round" stroke-linejoin="round" stroke-width="1.9994" style="paint-order:markers stroke fill"/>
 <rect x="6.002" y="5.9982" width="52" height="52" rx="3.001" ry="3.001" fill="url(#b)" stroke-width="3.7796" style="paint-order:markers stroke fill"/>
 <g transform="scale(3.7796)" fill="#fff">
  <rect x="3.44" y="12.7" width="10.054" height="1.323" ry=".265" opacity=".5" style="paint-order:markers stroke fill"/>
  <rect x="4.498" y="11.906" width="1.323" height="1.323" ry=".132" style="paint-order:stroke markers fill"/>
  <rect x="6.703" y="11.906" width="1.323" height="1.323" ry=".132" style="paint-order:stroke markers fill"/>
  <rect x="8.908" y="11.906" width="1.323" height="1.323" ry=".132" style="paint-order:stroke markers fill"/>
  <rect x="11.113" y="11.906" width="1.323" height="1.323" ry=".132" style="paint-order:stroke markers fill"/>
 </g>
 <path d="m8.9992 5.9982a2.9934 2.9934 0 0 0-2.9972 3.001v0.99782h52v-0.99782a2.9934 2.9934 0 0 0-3.001-3.001z" fill-opacity=".93725" opacity=".35" stroke-width="3.7796" style="paint-order:markers stroke fill"/>
 <rect x="26.911" y="6.9998" width="10.001" height="1.9994" ry="1.0016" opacity=".35" stroke-width="3.7796" style="paint-order:stroke markers fill"/>
 <path d="m40.452 23.008a2.25 10.125 44.998 0 0-8.3756 5.735 2.25 10.125 44.998 0 0-3.9857 4.6275c1.2105 0.38547 2.1545 1.3295 2.5399 2.5401a2.25 10.125 44.998 0 0 4.6272-3.986 2.25 10.125 44.998 0 0 5.5676-8.7497 2.25 10.125 44.998 0 0-0.37351-0.16701m-12.952 11.989c-4.4998 1.2058-1.125 4.0545-4.4998 6.0031 4.5036 0 6.7497-2.251 6.7497-3.753 0-0.74802 0.07599-2.1257-2.2499-2.2501z" fill="#fff"/>
</svg>
