<svg width="64" height="64" version="1.1" viewBox="0 0 64 64" xmlns="http://www.w3.org/2000/svg">
 <path d="m3.001 8.9992h58.002c0.55182 0 0.99782 0.44599 0.99782 0.99781v44.002a0.99781 0.99781 0 0 1-0.99782 1.0016h-58.002a0.99781 0.99781 0 0 1-1.0016-1.0016v-44.002c0-0.55182 0.44599-0.99781 1.0016-0.99781z" fill="none" opacity=".75" stroke="#21598b" stroke-width="1.9994" style="paint-order:stroke markers fill"/>
 <path d="m3.001 8.9992h58.002c0.55182 0 0.99782 0.44599 0.99782 0.99781v44.002a0.99781 0.99781 0 0 1-0.99782 1.0016h-58.002a0.99781 0.99781 0 0 1-1.0016-1.0016v-44.002c0-0.55182 0.44599-0.99781 1.0016-0.99781z" fill="#53a8f6" stroke-width="3.7796" style="paint-order:stroke markers fill"/>
 <rect x="5.9982" y="9.997" width="3.9988" height="1.9994" ry="1.0016" opacity=".35" stroke-width="3.7796" style="paint-order:stroke markers fill"/>
 <rect x="27.001" y="9.997" width="10.001" height="1.9994" ry="1.0016" opacity=".35" stroke-width="3.7796" style="paint-order:stroke markers fill"/>
 <rect x="57" y="9.997" width="1.9994" height="1.9994" ry="1.0016" opacity=".35" stroke-width="3.7796" style="paint-order:stroke markers fill"/>
 <rect x="53.001" y="9.997" width="3.001" height="1.9994" ry="1.0016" opacity=".35" stroke-width="3.7796" style="paint-order:stroke markers fill"/>
 <rect x="50" y="9.997" width="1.9994" height="1.9994" ry="1.0016" opacity=".35" stroke-width="3.7796" style="paint-order:stroke markers fill"/>
 <g transform="scale(3.7796)" fill="#ffffff">
  <path transform="scale(.26458)" d="m15.002 50.998c-1.1077 0-2 0.89233-2 2v2.002h38v-2.002c0-1.1077-0.89233-2-2-2z" opacity=".35" stroke-width="3.7796" style="paint-order:stroke markers fill"/>
  <rect x="4.498" y="12.7" width="1.323" height="1.323" ry=".132" style="paint-order:stroke markers fill"/>
  <rect x="6.703" y="12.7" width="1.323" height="1.323" ry=".132" style="paint-order:stroke markers fill"/>
  <rect x="8.908" y="12.7" width="1.323" height="1.323" ry=".132" style="paint-order:stroke markers fill"/>
  <rect x="11.113" y="12.7" width="1.323" height="1.323" ry=".132" style="paint-order:stroke markers fill"/>
 </g>
 <path d="m3.001 8.9992a0.99781 0.99781 0 0 0-1.0016 1.0016v2.9972h60.001v-2.9972a0.99781 0.99781 0 0 0-0.99782-1.0016z" opacity=".35" stroke-width="3.7796" style="paint-order:stroke markers fill"/>
 <rect transform="skewX(-.000145)" x="13" y="18.001" width="37.991" height="27.819" ry="1.3092" fill="#ffffff" opacity=".35" stroke-width=".80826"/>
 <g transform="matrix(.46586 -.055566 .057258 .45209 -209.41 -153.63)" fill="#ffffff" opacity=".75">
  <ellipse transform="rotate(7.007)" cx="498.35" cy="384.49" rx="3.1958" ry="3.2932"/>
  <ellipse transform="rotate(7.007)" cx="489.83" cy="384.49" rx="3.1958" ry="3.2932"/>
  <ellipse transform="rotate(7.007)" cx="481.31" cy="384.49" rx="3.1958" ry="3.2932"/>
 </g>
 <path d="m49.691 18.002c0.72527-1e-6 1.3086 0.58332 1.3086 1.3086v25.201c2e-6 0.72527-0.58332 1.3086-1.3086 1.3086h-17.691v-27.818z" fill="#ffffff" opacity=".35" stroke-width=".80826"/>
</svg>
