<svg xmlns="http://www.w3.org/2000/svg" width="64" height="64" viewBox="0 0 16.933 16.933"><g transform="translate(0 -280.067)"><rect rx=".794" ry=".794" y="282.183" x="1.587" height="12.7" width="13.758" opacity=".9" fill="#8a61b8" stroke="#5e368a" stroke-width=".529" paint-order="stroke markers fill"/><rect width="13.758" height="12.7" x="1.587" y="282.183" ry=".794" rx=".794" fill="#8a61b8" paint-order="stroke markers fill"/><path d="M13.131 288.238c-.1-.14-.209-.27-.32-.4-.593-.695-1.274-1.314-2.02-1.763-.476-.288-.987-.52-1.515-.63a3.997 3.997 0 0 0-.81-.087c-.268 0-.537.03-.806.086-.529.112-1.037.343-1.514.63-.746.45-1.428 1.07-2.024 1.764-.11.129-.216.26-.316.4a.48.48 0 0 0 0 .59c.303.426.665.803 1.03 1.15.792.742 1.699 1.364 2.698 1.616a3.808 3.808 0 0 0 1.863 0c.999-.252 1.907-.874 2.7-1.617a7.883 7.883 0 0 0 1.032-1.148.487.487 0 0 0 0-.591m0 0" fill="#ececeb"/><path d="M10.85 288.533a2.382 2.382 0 1 1-4.763 0 2.382 2.382 0 0 1 4.763 0m0 0" fill="#4586f9"/><path d="M9.792 288.533a1.322 1.322 0 1 1-2.645 0 1.322 1.322 0 0 1 2.645 0m0 0" fill="#141414"/><path d="M9.527 288.004a.529.529 0 1 1-1.058 0 .529.529 0 0 1 1.058 0m0 0" fill="#f9f9f9"/><path d="M10.317 285.813l-4.3 5.099c.196.127.396.24.602.342l4.297-5.1c-.191-.134-.414-.246-.6-.34m0 0" fill="#d5122d"/></g></svg>