<svg width="64" height="64" version="1.1" xmlns="http://www.w3.org/2000/svg">
 <linearGradient id="k" x1="15" x2="9" y1="9" y2="9" gradientTransform="matrix(2.6667 0 0 6 -6.6941 -25)" gradientUnits="userSpaceOnUse">
  <stop stop-color="#a1daff" offset="0"/>
  <stop stop-color="#abebf9" stop-opacity="0" offset="1"/>
 </linearGradient>
 <g transform="matrix(3.7796 0 0 3.7796 -1.0022e-7 -1058.5)">
  <rect x="1.588" y="281.65" width="13.758" height="13.758" rx=".794" ry=".794" fill="none" opacity=".75" stroke="#2454d8" stroke-linecap="round" stroke-linejoin="round" stroke-width=".529" style="paint-order:markers stroke fill"/>
  <rect x="1.588" y="281.65" width="13.758" height="13.758" rx=".794" ry=".794" fill="#90a9ff" style="paint-order:markers stroke fill"/>
  <rect x="3.44" y="292.77" width="10.054" height="1.323" ry=".265" fill="#fff" opacity=".35" style="paint-order:markers stroke fill"/>
  <g fill="#ccdfff">
   <rect x="4.498" y="291.97" width="1.323" height="1.323" ry=".132" style="paint-order:stroke markers fill"/>
   <rect x="6.703" y="291.97" width="1.323" height="1.323" ry=".132" style="paint-order:stroke markers fill"/>
   <rect x="8.908" y="291.97" width="1.323" height="1.323" ry=".132" style="paint-order:stroke markers fill"/>
   <rect x="11.113" y="291.97" width="1.323" height="1.323" ry=".132" style="paint-order:stroke markers fill"/>
  </g>
  <path d="m2.381 281.65a0.792 0.792 0 0 0-0.793 0.794v0.264h13.758v-0.264a0.792 0.792 0 0 0-0.794-0.794z" opacity=".35" style="paint-order:markers stroke fill"/>
  <rect x="7.12" y="281.92" width="2.646" height=".529" ry=".265" opacity=".35" style="paint-order:stroke markers fill"/>
 </g>
 <path d="m17.306 23h16v6h-16z" fill="url(#k)" fill-rule="evenodd"/>
 <path d="m33.628 41 8.2367-0.05272 0.93219-9.3232c0.19544-1.8901-2.1473-2.677-2.7966-0.93219 0.0077-2.0958-2.1473-2.3581-2.7979-0.93348 0.08229-1.7307-2.1177-2.4006-2.7966-0.93219v-3.7288c0-2.7966-2.7966-2.7966-2.7966 0v8.391c-4.6622-4.6622-5.8053-1.3115-5.8053-1.3115 3.1682 2.1383 5.1045 8.841 7.824 8.823z" fill="#fff"/>
</svg>
