<svg xmlns="http://www.w3.org/2000/svg" width="64" height="64"><path d="M32 4.5C16.826 4.5 4.5 16.826 4.5 32S16.826 59.5 32 59.5 59.5 47.174 59.5 32 47.174 4.5 32 4.5z" style="marker:none" color="#000" overflow="visible" fill="#f9f9f9"/><path style="marker:none" d="M32 4.5C16.826 4.5 4.5 16.826 4.5 32S16.826 59.5 32 59.5 59.5 47.174 59.5 32 47.174 4.5 32 4.5z" color="#000" overflow="visible" opacity=".2" stroke="#000" stroke-linecap="round" stroke-linejoin="round" fill="none"/><path d="M29.88 33.773L47.2 14.3" fill="none" stroke="#333" stroke-width=".6" stroke-linecap="round"/><path d="M33.222 32.236L17.8 29.366" fill="#00f" stroke="#333" stroke-width=".6" stroke-linecap="round"/><path d="M29.88 28.076L39.143 49.7" fill="none" stroke="#eb5c3a" stroke-width=".6" stroke-linecap="round"/><path style="marker:none" d="M32.503 32c.003 1.336-2.009 1.336-2.006 0-.003-1.336 2.009-1.336 2.006 0z" color="#000" overflow="visible" fill="#ececec"/></svg>