<svg width="64" height="64" version="1.1" xmlns="http://www.w3.org/2000/svg">
 <g transform="matrix(3.7796 0 0 3.7796 -1.0022e-7 -1058.5)">
  <rect x="1.588" y="281.65" width="13.758" height="13.758" rx=".794" ry=".794" fill="none" opacity=".75" stroke="#2454d8" stroke-linecap="round" stroke-linejoin="round" stroke-width=".529" style="paint-order:markers stroke fill"/>
  <rect x="1.588" y="281.65" width="13.758" height="13.758" rx=".794" ry=".794" fill="#90a9ff" style="paint-order:markers stroke fill"/>
  <rect x="3.44" y="292.77" width="10.054" height="1.323" ry=".265" fill="#fff" opacity=".35" style="paint-order:markers stroke fill"/>
  <g fill="#ccdfff">
   <rect x="4.498" y="291.97" width="1.323" height="1.323" ry=".132" style="paint-order:stroke markers fill"/>
   <rect x="6.703" y="291.97" width="1.323" height="1.323" ry=".132" style="paint-order:stroke markers fill"/>
   <rect x="8.908" y="291.97" width="1.323" height="1.323" ry=".132" style="paint-order:stroke markers fill"/>
   <rect x="11.113" y="291.97" width="1.323" height="1.323" ry=".132" style="paint-order:stroke markers fill"/>
  </g>
  <path d="m2.381 281.65a0.792 0.792 0 0 0-0.793 0.794v0.264h13.758v-0.264a0.792 0.792 0 0 0-0.794-0.794z" opacity=".35" style="paint-order:markers stroke fill"/>
  <rect x="7.12" y="281.92" width="2.646" height=".529" ry=".265" opacity=".35" style="paint-order:stroke markers fill"/>
 </g>
 <g transform="matrix(1.5,0,0,1.5,-569.54,-769.77)" stroke-width=".66667">
  <path transform="translate(384.57,515.8)" d="m4 11v6h7v-5h-3l-1-1z" fill="#fff"/>
  <path d="m388.57 534.8v6h7v-5h-3l-1-1z" fill="#fff" opacity=".75"/>
  <path d="m398.57 526.8v6h5v-4l-2-2z" fill="#ffa86d"/>
  <path d="m401.57 526.8 2 2h-2z" fill="#ff7214" fill-rule="evenodd"/>
  <path d="m398.57 534.8v6h5v-4l-2-2z" fill="#94d669"/>
  <path d="m401.57 534.8 2 2h-2z" fill="#67b632" fill-rule="evenodd"/>
  <rect x="406.57" y="526.8" width="6" height="6" rx="2.6e-5" fill="#fff"/>
  <rect x="407.57" y="528.8" width="4" height="2" rx="1" opacity=".15"/>
  <rect x="409.57" y="528.8" width="2" height="2" rx="1" fill="#3daee9"/>
 </g>
</svg>
