<svg xmlns="http://www.w3.org/2000/svg" width="64" height="64" viewBox="0 0 16.933 16.933"><g transform="translate(-2.539 -358.788) scale(1.26946)" stroke-width=".208" stroke="#000" stroke-opacity=".196" color="#000"><g stroke-width=".208"><path style="marker:none" d="M8.306 283.776c-1.411 0-2.547.811-2.547 1.82v.793h-.794c-1.007 0-1.819 1.136-1.819 2.546v.728c0 1.41.812 2.547 1.82 2.547h6.614v-6.615c0-1.008-1.136-1.819-2.547-1.819z" overflow="visible" fill="#3776ab"/><path d="M9.033 294.822c1.411 0 2.547-.81 2.547-1.819v-.793h.794c1.007 0 1.819-1.136 1.819-2.547v-.728c0-1.41-.812-2.546-1.82-2.546h-.793v1.455c0 .806-.65 1.455-1.455 1.455h-2.91s-1.456 0-1.456 1.456v2.248c0 1.008 1.136 1.82 2.547 1.82z" style="marker:none" overflow="visible" fill="#ffd343"/></g><circle r=".529" cy="285.331" cx="7.611" style="marker:none" overflow="visible" fill="#fff"/><circle r=".546" cy="293.516" cx="9.744" style="marker:none" overflow="visible" fill="#fff"/></g></svg>