<?xml version="1.0" encoding="UTF-8"?>
<svg width="64" height="64" version="1" xmlns="http://www.w3.org/2000/svg">
 <rect x="6" y="6" width="52" height="52" rx="8" ry="8" fill="#ff811f" stroke="#ac520c" stroke-width="2"/>
 <rect x="6" y="6" width="52" height="52" rx="8" ry="8" fill="#ff811f" stroke-width="3.25"/>
 <path d="m32 16a16.348 16.348 0 0 0-16.348 16.348 16.348 16.348 0 0 0 16.348 16.348 16.348 16.348 0 0 0 8.4934-2.4054c1.09 1.2633 2.0859 2.6186 2.9216 3.9753l3.9806-2.448c-0.95428-1.5491-2.0666-3.0745-3.2941-4.5074a16.348 16.348 0 0 0 4.2467-10.963 16.348 16.348 0 0 0-16.348-16.348zm0 5.8432a9.3418 10.51 0 0 1 9.3395 10.505 9.3418 10.51 0 0 1-1.9584 6.4445c-3.0548-2.3487-6.5025-4.0124-10.127-3.7305l0.36187 4.6564c1.6858-0.13115 3.9119 0.66666 6.1731 2.2351a9.3418 10.51 0 0 1-3.789 0.90468 9.3418 10.51 0 0 1-9.3395-10.51 9.3418 10.51 0 0 1 9.3395-10.505z" fill="#5a3608" stroke-width="2.7247"/>
</svg>
