<svg xmlns="http://www.w3.org/2000/svg" width="64" height="64"><path d="M12 11a1 1 0 0 0-.707.293l-7 7A1 1 0 0 0 4 19v31c0 1.662 1.338 3 3 3h43a1 1 0 0 0 .707-.293l9-9A1 1 0 0 0 60 43V14c0-1.662-1.338-3-3-3H27z" fill="#2dbb30"/><path d="M12.6 12a1 1 0 0 0-.707.293l-6.6 6.6A1 1 0 0 0 5 19.6V50c0 1.108.892 2 2 2h26c.299 0 .581-.056.854-.137L34 52h15.4a1 1 0 0 0 .707-.293l8.6-8.6A1 1 0 0 0 59 42.4V14c0-1.108-.892-2-2-2H18z" fill="#38d23a"/><path d="M21.993 21c-3.324 0-6 2.676-6 6v10c0 3.324 2.676 6 6 6h2.941l2.805 4.125 3.309-2.25-1.899-2.79A5.962 5.962 0 0 0 31.993 37V27c0-3.324-2.676-6-6-6zm16 0v4h-2v4h2v8c0 3.324 2.676 6 6 6l4-1v-3h-4c-1.108 0-2-.892-2-2v-8h6v-4h-6v-4zm-16 4h4c1.108 0 2 .892 2 2v10c0 1.108-.892 2-2 2h-4c-1.108 0-2-.892-2-2V27c0-1.108.892-2 2-2z" fill="#fafafa"/></svg>