<svg xmlns="http://www.w3.org/2000/svg" width="64" height="64" viewBox="0 0 16.933 16.933"><g paint-order="markers stroke fill"><g transform="matrix(1.04 0 0 1.04 -.339 -291.608)" stroke-width=".962" fill="#4d4d4d"><rect width="13.229" height="13.229" x="1.852" y="281.919" rx=".794" ry=".794" opacity=".9" stroke="#1e1e1e" stroke-width=".509" stroke-linecap="round" stroke-linejoin="round"/><rect ry=".794" rx=".794" y="281.919" x="1.852" height="13.229" width="13.229"/></g><g transform="matrix(1.04 0 0 1.04 -.339 -291.608)" stroke-width=".962" fill="#4d4d4d"><rect ry=".794" rx=".794" y="281.919" x="1.852" height="13.229" width="13.229"/><rect width="13.229" height="13.229" x="1.852" y="281.919" rx=".794" ry=".794"/></g><g transform="matrix(1.2 0 0 1.2 -1.693 -336.186)" stroke-width=".833"><rect rx=".265" ry=".265" y="283.242" x="7.673" height="1.587" width="1.587" fill="#ff3b53"/><rect width="1.587" height="1.587" x="9.26" y="283.242" ry=".265" rx=".265" fill="#ff3b53"/><rect rx=".265" ry=".265" y="283.242" x="10.848" height="1.587" width="1.587" fill="#ff3b53"/><rect width="1.587" height="1.587" x="10.848" y="284.829" ry=".265" rx=".265" fill="#ff3b53"/><rect width="1.587" height="1.587" x="7.673" y="286.417" ry=".265" rx=".265" fill="#1cbedd"/><rect rx=".265" ry=".265" y="288.004" x="7.673" height="1.587" width="1.587" fill="#1cbedd"/><rect width="1.587" height="1.587" x="9.26" y="288.004" ry=".265" rx=".265" fill="#1cbedd"/><rect rx=".265" ry=".265" y="289.592" x="9.26" height="1.587" width="1.587" fill="#1cbedd"/><rect width="1.587" height="1.587" x="7.673" y="289.592" ry=".265" rx=".265" fill="#f5ab00"/><rect rx=".265" ry=".265" y="289.592" x="6.085" height="1.587" width="1.587" fill="#f5ab00"/><rect width="1.587" height="1.587" x="6.085" y="288.004" ry=".265" rx=".265" fill="#f5ab00"/><rect width="1.587" height="1.587" x="4.498" y="289.592" ry=".265" rx=".265" fill="#f5ab00"/></g></g></svg>