<svg width="64" height="64" version="1.1" viewBox="0 0 64 64" xmlns="http://www.w3.org/2000/svg">
 <path d="m32 5c14.912 0 27 12.088 27 27s-12.088 27-27 27-27-12.088-27-27 12.088-27 27-27z" fill="#1c394a" stroke="#0e1d25" stroke-width="2"/>
 <path d="m32 5c14.912 0 27 12.088 27 27s-12.088 27-27 27-27-12.088-27-27 12.088-27 27-27z" fill="#1c394a" stroke-width="1.1739"/>
 <path d="m46.086 43.739s-2.3478-3.5217-5.8695-3.5217c-3.2834 0.63273-4.5853 0.09626-4.6956 0v-14.216c-0.15613-2.9899-2.6096-5.9892-6.2639-7.3686-4.6357-1.7515-9.5379-0.22891-10.955 3.4114-1.4216 3.6367 1.1739 8.0389 5.8143 9.7903 3.591 1.357 6.8873 1.0178 9.0566-1.0131v14.087c4.6956 3.1226 9.0613-1.1281 12.913-1.1739" fill="#f9f9f9" stroke-width="1.1739"/>
</svg>
