<svg width="64" height="64" version="1.1" viewBox="0 0 64 64" xmlns="http://www.w3.org/2000/svg">
 <g fill-rule="evenodd">
  <path d="m38.747 9.0895a28.471 22.63 17.344 0 0-33.921 13.114 28.471 22.63 17.344 0 0 20.43 30.088 28.471 22.63 17.344 0 0 33.921-13.114 28.471 22.63 17.344 0 0-20.43-30.088m1.365 8.7576a21.235 16.869 17.344 0 1 15.24 22.435 21.235 16.869 17.344 0 1-25.299 9.7717 21.235 16.869 17.344 0 1-15.238-22.432 21.235 16.869 17.344 0 1 25.296-9.7752" color="#000000" color-rendering="auto" fill="#c8c8c8" image-rendering="auto" shape-rendering="auto" stroke="#9c9c9c" stroke-width="2"/>
  <path d="m38.747 9.0895a28.471 22.63 17.344 0 0-33.921 13.114 28.471 22.63 17.344 0 0 20.43 30.088 28.471 22.63 17.344 0 0 33.921-13.114 28.471 22.63 17.344 0 0-20.43-30.088m1.365 8.7576a21.235 16.869 17.344 0 1 15.24 22.435 21.235 16.869 17.344 0 1-25.299 9.7717 21.235 16.869 17.344 0 1-15.238-22.432 21.235 16.869 17.344 0 1 25.296-9.7752" color="#000000" color-rendering="auto" fill="#c8c8c8" image-rendering="auto" shape-rendering="auto" stroke-width="1.3304"/>
  <path d="m55.586 56.513-9.1305 0.0053-6.2223-9.1971s-1.0018-1.7229-1.6178-2.2231c-0.51353-0.41642-0.73305-0.56542-1.2413-0.56542h-1.1548l0.0027 11.974-7.9265 4e-3v-30.599h17.258s6.9939 1.2905 7.1363 8.2179c0.15832 7.723-6.7598 9.9953-6.7598 9.9953 0.94858 0.38848 8.5798 10.599 9.6574 12.383m-13.683-23.961-5.6036-4e-3 -0.0027 5.2032 5.6063-0.0013s2.5969-8e-3 2.5969-2.6462c0-2.6914-2.5969-2.5504-2.5969-2.5504" fill="#4f61eb" stroke="#3544b3" stroke-linecap="round" stroke-width="2"/>
  <path d="m55.586 56.513-9.1305 0.0053-6.2223-9.1971s-1.0018-1.7229-1.6178-2.2231c-0.51353-0.41642-0.73305-0.56542-1.2413-0.56542h-1.1548l0.0027 11.974-7.9265 4e-3v-30.599h17.258s6.9939 1.2905 7.1363 8.2179c0.15832 7.723-6.7598 9.9953-6.7598 9.9953 0.94858 0.38848 8.5798 10.599 9.6574 12.383m-13.683-23.961-5.6036-4e-3 -0.0027 5.2032 5.6063-0.0013s2.5969-8e-3 2.5969-2.6462c0-2.6914-2.5969-2.5504-2.5969-2.5504" fill="#4f61eb" stroke-width="1.3304"/>
 </g>
</svg>
