<svg xmlns="http://www.w3.org/2000/svg" width="64" height="64" viewBox="0 0 16.933 16.933"><g paint-order="stroke markers fill" transform="translate(0 -280.067)"><circle cx="8.467" cy="288.533" r="7.144" opacity=".9" fill="#71a5e8" stroke="#3f76c5" stroke-width=".529"/><path d="M1.677 285.094a7.673 7.408 0 0 0-.883 3.44 7.673 7.408 0 0 0 .882 3.439h13.58a7.673 7.408 0 0 0 .884-3.44 7.673 7.408 0 0 0-.882-3.44z" fill="#557cae"/><circle r="7.144" cy="288.533" cx="8.467" fill="#71a5e8"/><path d="M8.467 282.712a5.82 5.82 0 0 0-4.498 2.132v1.458a5.027 5.027 0 0 0-.53 2.231 5.027 5.027 0 0 0 .53 2.242v1.446a5.82 5.82 0 0 0 4.498 2.133 5.82 5.82 0 0 0 4.498-2.131v-1.458a5.027 5.027 0 0 0 .529-2.232 5.027 5.027 0 0 0-.53-2.24v-1.448a5.82 5.82 0 0 0-4.497-2.133z" opacity=".25"/></g><path d="M5.169 5.555a.16.16 0 0 0-.14.157v2.862a.16.16 0 0 0 .156.157h1.43v.53H5.558v.528h1.927V8.202h-1.81a.113.113 0 0 1-.108-.109v-1.9c-.002-.05.034-.099.082-.108a.103.103 0 0 1 .025 0h2.944c.054 0 .107.05.107.108v.76h.537v-1.24a.163.163 0 0 0-.157-.158m-3.935 0" fill="#fff" opacity=".5"/><path d="M7.816 7.142a.165.165 0 0 0-.143.159v2.86c0 .082.076.158.16.158H9.26v.791h1.059v-.791h1.429a.164.164 0 0 0 .158-.158V7.3a.165.165 0 0 0-.158-.159m-3.453.53a.064.064 0 0 1 .02 0h2.949a.11.11 0 0 1 .106.106v1.906a.11.11 0 0 1-.106.105h-2.95a.11.11 0 0 1-.106-.105V7.778a.11.11 0 0 1 .087-.106m-.093 3.175v.529h3.175v-.53m-3.175 0" fill="#fff"/></svg>