<?xml version="1.0" encoding="UTF-8"?>
<svg width="64" height="64" version="1.1" viewBox="0 0 64 64" xmlns="http://www.w3.org/2000/svg" xmlns:cc="http://creativecommons.org/ns#" xmlns:dc="http://purl.org/dc/elements/1.1/" xmlns:rdf="http://www.w3.org/1999/02/22-rdf-syntax-ns#">
 <metadata>
  <rdf:RDF>
   <cc:Work rdf:about="">
    <dc:format>image/svg+xml</dc:format>
    <dc:type rdf:resource="http://purl.org/dc/dcmitype/StillImage"/>
    <dc:title/>
   </cc:Work>
  </rdf:RDF>
 </metadata>
 <circle cx="32" cy="32" r="27" fill="#b80000" stroke="#700000" stroke-width="2"/>
 <circle cx="32" cy="32" r="27" fill="#b80000" stroke-width="1.1739"/>
 <path d="m25.993 5.7108a27 27 0 0 0-2.263 0.62135l3.5102 13.103c0.26067 0.97285 0.40918 1.5068-0.72911 2.8638-0.19331 0.23043-0.38171 0.46205-0.53192 0.72223-0.60086 1.0407-0.80562 2.3105-0.47002 3.5631 0.67121 2.505 3.2454 3.9912 5.7503 3.3199 2.505-0.67121 3.9934-3.2454 3.3223-5.7503-0.3356-1.2524-1.1489-2.2513-2.1896-2.8523-0.26019-0.15021-0.53819-0.25477-0.82082-0.35768-1.6643-0.60592-1.8029-1.1434-2.0635-2.1162l-3.5148-13.117zm31.771 18.308-13.161 3.5263c-0.97284 0.26067-1.5046 0.40918-2.8614-0.72911-0.23043-0.19331-0.46205-0.38401-0.72223-0.53422-1.0407-0.60086-2.3105-0.80333-3.5631-0.46773-2.505 0.67121-3.9912 3.2454-3.3199 5.7503 0.67121 2.505 3.2454 3.9912 5.7503 3.3199 1.2524-0.3356 2.2491-1.1466 2.8499-2.1874 0.15021-0.26019 0.25706-0.54049 0.35997-0.82311 0.60592-1.6643 1.1411-1.8005 2.114-2.0613l13.144-3.5241a27 27 0 0 0-0.59155-2.2699zm-32.975 5.2872c-0.31145 0.0187-0.62693 0.06972-0.94005 0.15362-1.2524 0.3356-2.2491 1.1466-2.8499 2.1874-0.15021 0.26019-0.25706 0.54048-0.35997 0.82311-0.60592 1.6643-1.1411 1.8005-2.114 2.0613l-12.824 3.4369a27 27 0 0 0 0.61676 2.2653l12.814-3.4346c0.97283-0.26067 1.5046-0.40918 2.8614 0.72911 0.23043 0.19331 0.46205 0.38401 0.72224 0.53422 1.0407 0.60087 2.3105 0.80333 3.5631 0.46773 2.505-0.67121 3.9912-3.2454 3.3199-5.7503-0.58731-2.1918-2.6302-3.6045-4.8103-3.4736zm8.6256 4.98c-0.31145 0.0187-0.62693 0.06972-0.94005 0.15362-2.505 0.67121-3.9912 3.2454-3.3199 5.7503 0.3356 1.2524 1.1489 2.2513 2.1896 2.8523 0.26019 0.15021 0.53819 0.25477 0.82082 0.35768 1.6643 0.60592 1.8029 1.1434 2.0635 2.1162l3.4414 12.848a27 27 0 0 0 2.2745-0.58696l-3.4484-12.87c-0.26067-0.97285-0.40918-1.5068 0.72911-2.8638 0.19331-0.23043 0.38171-0.46205 0.53192-0.72224 0.60086-1.0407 0.80563-2.3105 0.47002-3.5631-0.58731-2.1918-2.6324-3.6045-4.8126-3.4736z" fill="#f9f9f9" stroke-width="1.1739" style="paint-order:normal"/>
</svg>
