<svg xmlns="http://www.w3.org/2000/svg" height="64" width="64"><rect y="4.5" x="8.5" ry="2.797" rx="2.765" height="55" width="47" fill="#e8e8e8"/><rect width="47" height="55" rx="2.765" ry="2.797" x="8.5" y="4.5" opacity=".2" fill="none" stroke="#000"/><rect width="39" height="47" rx=".907" ry=".922" x="12.5" y="8.5" style="marker:none" color="#000" overflow="visible" opacity=".9" fill="#363636"/><path d="M17 13l30 .003V51H17V13z" fill="#f9f9f9"/><path d="M16.497 12.503l31.006.003v38.991H16.497V12.503z" opacity=".3" fill="none" stroke="#000" stroke-linejoin="round"/><path d="M20 18.5h2.16zm2.477 0h2.016zm2.332 0h1.786zm2.074 0h.778zm1.094 0h1.728zm2.074 0h4.55zm4.838 0h3.485zm3.773 0h1.065zM20 20.5h3.37zm3.744 0h1.613zm1.9 0h.807zm1.124 0h1.469zm1.785 0h1.498zm1.786 0h2.39zm2.707 0h3.11zm3.398 0h2.074zm2.362 0h.518zM20 22.5h2.851zm3.14 0h4.665zm4.953 0h2.275zm2.563 0h2.13zm2.419 0h1.814zm2.102 0l2.851.029zm3.11.029h4.637zM20 24.5h3.945zm4.262 0h4.263zm4.55 0h1.7zm1.988 0h4.003zm4.262 0h2.736zm3.053 0h1.094zm1.382 0h.605zm.922 0h1.699zM20 26.5h1.469zm1.93 0h5.443zm-1.906 3h2.851zm3.14 0h4.665zm4.953 0h2.275zm2.563 0h2.13zm2.419 0h1.814zm2.102 0l2.851.029zm3.11.029h4.637zM20 31.5h2.16zm2.477 0h1.987zm2.332 0h1.786zm2.074 0h.778zm1.094 0h1.728zm2.074 0h4.521zm4.838 0h3.456zm3.744 0h1.094zm1.382 0h2.592zM20 33.5h3.629zm3.917 0h3.888zm4.176 0h1.497zm1.785 0h3.658zm3.946 0h4.607zm4.924 0h1.7zM20 35.5h3.945zm4.262 0h4.263zm4.55 0h1.7zm1.988 0h4.003zm4.262 0h2.736zm3.053 0h1.094zm1.382 0h.605zm.922 0h1.699zM20 37.5h3.37zm3.744 0h1.613zm1.9 0h.807zm1.124 0h1.469zm1.785 0h1.498zm1.786 0h2.39zm2.707 0h3.11zm3.398 0h2.074zm2.362 0h.518zM20 40.5h2.851zm3.14 0h4.665zm4.953 0h2.275zm2.563 0h2.13zm2.419 0h1.814zm2.102 0l2.851.029zm3.11.029h4.637zM20 42.5h3.37zm3.744 0h1.613zm1.9 0h.807zm1.124 0h1.469zm1.785 0h1.498zm1.786 0h2.39zm2.707 0h3.11zm3.398 0h2.074zm2.362 0h.518zM20 44.5h3.571zm3.888 0h1.123zm1.411 0h2.563zm2.851 0h3.773zm4.09 0h2.563zm2.822 0h.547zm.835 0h3.254zm3.6 0h1.7zM20 46.5h3.571zm3.888 0H25.5zm1.9 0h2.535zm2.823 0h2.736zm3.053 0h1.094zm1.382 0h.605zm.922 0h1.699z" fill="none" stroke="#aaa"/><path fill="#d35f5f" d="M13 38h38v2H13z"/><rect y="8.503" x="12.497" ry=".921" rx=".907" height="46.994" width="39.006" opacity=".35" fill="none" stroke="#000"/></svg>