<svg xmlns="http://www.w3.org/2000/svg" width="64" height="64"><g transform="translate(0 -1059.52)"><circle r="26" cy="1091.519" cx="32" fill="#00c853"/><circle cx="32" cy="1091.52" r="25" fill="#00e676"/><path d="M42.573 1102.256c.657-.41.815-1.376.342-2.098-.256-.39-3.193-1.874-4.965-2.508-3.48-1.245-7.086-1.747-10.406-1.45-2.538.228-6.074 1.013-7.378 1.638-.978.47-1.233 1.524-.554 2.296.561.64.879.658 2.514.146 6.069-1.9 11.784-1.497 17.23 1.214 2.355 1.172 2.503 1.207 3.217.762zm2.604-6.453c.686-.63.79-1.728.225-2.368-.697-.791-6.205-2.887-9.281-3.532-5.012-1.05-10.404-.897-15.623.445-1.684.433-2.086.644-2.403 1.263-.291.566-.301.99-.038 1.547.408.86 1.344 1.122 2.612.732 1.133-.35 3.373-.795 5.003-.996 1.861-.229 5.38-.26 7.004-.06 3.286.404 6.878 1.46 9.93 2.918 1.269.606 1.953.62 2.571.052zm1.777-6.622c.475-.285.902-1.041.902-1.595 0-.555-.284-1.153-.723-1.523-.828-.696-5.321-2.35-8.43-3.103-3.673-.89-6.601-1.195-10.41-1.084-4.56.133-9.69 1.03-10.635 1.86-1.105.97-.766 2.757.624 3.288.54.206.592.203 1.908-.11a45.851 45.851 0 0 1 5.698-.959c1.95-.198 6.973-.09 8.656.184 2.981.487 6.267 1.41 8.787 2.469 2.496 1.048 2.76 1.09 3.623.573z" fill="#263238"/></g></svg>