<svg width="64" height="64" version="1.1" viewBox="0 0 16.933 16.933" xmlns="http://www.w3.org/2000/svg">
 <g fill="#e6e6e6">
  <g stroke="#b2b2b2" stroke-width=".52916">
   <path d="m1.5875 10.848v3.1749a6.879 1.5875 0 0 0 6.879 1.5875 6.879 1.5875 0 0 0 6.879-1.5875v-3.1749z"/>
   <path d="m1.5875 6.8791v3.1749a6.879 1.5875 0 0 0 6.879 1.5875 6.879 1.5875 0 0 0 6.879-1.5875v-3.1749z"/>
   <path d="m1.5875 2.9104v3.175a6.8791 1.5875 0 0 0 6.8791 1.5875 6.8791 1.5875 0 0 0 6.8791-1.5875v-3.175z"/>
  </g>
  <path d="m1.5875 10.848v3.1749a6.879 1.5875 0 0 0 6.879 1.5875 6.879 1.5875 0 0 0 6.879-1.5875v-3.1749z"/>
 </g>
 <ellipse cx="8.4665" cy="10.848" rx="6.879" ry="1.5875" fill="#ccc" stroke="#b2b2b2" stroke-width=".52916"/>
 <ellipse cx="8.4665" cy="10.848" rx="6.879" ry="1.5875" fill="#ccc"/>
 <path d="m1.5875 6.8791v3.1749a6.879 1.5875 0 0 0 6.879 1.5875 6.879 1.5875 0 0 0 6.879-1.5875v-3.1749z" fill="#e6e6e6"/>
 <ellipse cx="8.4665" cy="6.8791" rx="6.879" ry="1.5875" fill="#ccc" stroke="#b2b2b2" stroke-width=".52916"/>
 <ellipse cx="8.4665" cy="6.8791" rx="6.879" ry="1.5875" fill="#ccc"/>
 <path d="m1.5875 2.9104v3.175a6.8791 1.5875 0 0 0 6.8791 1.5875 6.8791 1.5875 0 0 0 6.8791-1.5875v-3.175z" fill="#e6e6e6" stroke-width=".26458"/>
 <ellipse cx="8.4665" cy="2.9104" rx="6.879" ry="1.5875" fill="#ccc" stroke="#b2b2b2" stroke-width=".52916"/>
 <ellipse cx="8.4665" cy="2.9104" rx="6.879" ry="1.5875" fill="#ccc"/>
 <path d="m2.1166 3.5171v3.1776a6.8791 1.5875 0 0 0 0.52916 0.23357v-3.1728a6.8791 1.5875 0 0 1-0.52916-0.23823zm0 3.9687v3.1776a6.8791 1.5875 0 0 0 0.52916 0.23357v-3.1728a6.8791 1.5875 0 0 1-0.52916-0.23823zm0 3.9687v3.1776a6.8791 1.5875 0 0 0 0.52916 0.23357v-3.1728a6.8791 1.5875 0 0 1-0.52916-0.23822z" fill="#fff" opacity=".35" stroke-width=".26458"/>
 <path d="m2.9104 3.843v3.1755a6.8791 1.5875 0 0 0 1.3229 0.31728v-3.1765a6.8791 1.5875 0 0 1-1.3229-0.31625zm0 3.9687v3.1755a6.8791 1.5875 0 0 0 1.3229 0.31728v-3.1765a6.8791 1.5875 0 0 1-1.3229-0.31625zm0 3.9687v3.1755a6.8791 1.5875 0 0 0 1.3229 0.31728v-3.1765a6.8791 1.5875 0 0 1-1.3229-0.31625z" fill="#fff" opacity=".35" stroke-width=".26458"/>
 <path d="m14.287 1.5875c-3.3951 0-7.8178 4.8481-10.169 9.8264-0.67944 1.4382-1.2541 2.9934-1.4721 3.9316l0.26458-0.0112c0.98635-2.8447 2.1219-3.0749 2.6617-3.1643 1.9293-0.32067 3.4078-0.94137 4.8333-2.6447-1.9404 0-3.1575-0.3249-3.1575-0.52916h3.4935c0.48524-0.50632 0.98211-1.0873 1.3583-1.5874-1.6949 0-3.1061-0.21484-3.1061-0.52916h3.4924c0.35083-0.52016 0.64451-1.0789 0.88687-1.5875-1.5129 0-2.5272-0.34184-2.5272-0.52916h2.7802c0.45825-1.1292 0.66356-2.2076 0.65933-3.1749z" fill="#f67d7d" stroke="#e86868" stroke-linecap="round" stroke-linejoin="round" stroke-width=".52916"/>
 <path d="m14.287 1.5875c-3.3951 0-7.8178 4.8481-10.169 9.8264-0.67944 1.4382-1.2541 2.9934-1.4721 3.9316l0.26458-0.0112c0.98635-2.8447 2.1219-3.0749 2.6617-3.1643 1.9293-0.32067 3.4078-0.94137 4.8333-2.6447-1.9404 0-3.1575-0.3249-3.1575-0.52916h3.4935c0.48524-0.50632 0.98211-1.0873 1.3583-1.5874-1.6949 0-3.1061-0.21484-3.1061-0.52916h3.4924c0.35083-0.52016 0.64451-1.0789 0.88687-1.5875-1.5129 0-2.5272-0.34184-2.5272-0.52916h2.7802c0.45825-1.1292 0.66356-2.2076 0.65933-3.1749z" fill="#f67d7d" stroke-width=".52916"/>
</svg>
