<svg xmlns="http://www.w3.org/2000/svg" width="64" height="64" viewBox="0 0 16.933 16.933"><path d="M8.467 1.323a7.144 7.144 0 1 1 0 14.287 7.144 7.144 0 0 1 0-14.287z" fill="#333" stroke-width=".529" stroke="#000" opacity=".9"/><path d="M8.467 1.323a7.144 7.144 0 1 1 0 14.287 7.144 7.144 0 0 1 0-14.287z" fill="#333"/><path d="M8.467 2.91a5.556 5.556 0 1 1 0 11.113 5.556 5.556 0 0 1 0-11.113z" opacity=".15" fill="#fff"/><g transform="translate(2.117 2.381) scale(.26458)" fill="#fff"><path d="M26 18v9.625l3.684.957 4.287-6.742h-3.625L26 18"/><path d="M31 11a6 6 0 0 0-6 6 6 6 0 0 0 6 6 6 6 0 0 0 6-6 6 6 0 0 0-6-6zm0 2a4 4 0 0 1 4 4 4 4 0 0 1-4 4 4 4 0 0 1-4-4 4 4 0 0 1 4-4zm0 2a2 2 0 0 0-2 2 2 2 0 0 0 2 2 2 2 0 0 0 2-2 2 2 0 0 0-2-2zm-16 6a4 4 0 0 0-4 4 4 4 0 0 0 4 4 4 4 0 0 0 4-4 4 4 0 0 0-4-4zm0 1a3 3 0 0 1 3 3 3 3 0 0 1-3 3 3 3 0 0 1-3-3 3 3 0 0 1 3-3z"/><rect transform="matrix(.8931 .44985 -.45815 .88887 0 0)" y="13.579" x="22.784" height="3.964" width="17.423" rx="1.982"/><path d="M27 27a4 4 0 0 0-4 4 4 4 0 0 0 4 4 4 4 0 0 0 4-4 4 4 0 0 0-4-4zm0 1a3 3 0 0 1 3 3 3 3 0 0 1-3 3 3 3 0 0 1-3-3 3 3 0 0 1 3-3z"/></g></svg>