<svg width="64" height="64" version="1.1" viewBox="0 0 16.933 16.933" xmlns="http://www.w3.org/2000/svg">
 <circle cx="8.467" cy="8.466" r="7.144" fill="#2eb6dc" stroke="#1a87a8" stroke-linecap="round" stroke-linejoin="round" stroke-width=".529" paint-order="markers stroke fill"/>
 <g transform="matrix(1.1739 0 0 1.1739 1.0123 1.0123)">
  <g transform="scale(.26458)">
   <path d="m24 1c12.703 0 23 10.297 23 23s-10.297 23-23 23-23-10.297-23-23 10.297-23 23-23z" fill="#2eb6dc"/>
   <path d="m24 10a14 14 0 0 0-14 14 14 14 0 0 0 14 14 14 14 0 0 0 14-14 14 14 0 0 0-14-14zm0 2a12 12 0 0 1 12 12 12 12 0 0 1-12 12 12 12 0 0 1-12-12 12 12 0 0 1 12-12z" fill="#f9f9f9"/>
   <circle cx="26.5" cy="25.499" r="2.5" fill="#f9f9f9"/>
   <circle cx="35.5" cy="18.499" r="2.5" fill="#f9f9f9"/>
   <circle cx="32.5" cy="34.499" r="2.5" fill="#f9f9f9"/>
   <circle cx="11.5" cy="27.499" r="2.5" fill="#f9f9f9"/>
   <path d="m34.881 17.715-8.785 6.93-14.629 1.963 0.266 1.982 14.34-1.924 5.594 8.484 1.668-1.102-5.451-8.266 8.236-6.498-1.238-1.57z" color="#000000" color-rendering="auto" fill="#f9f9f9" fill-rule="evenodd" image-rendering="auto" shape-rendering="auto" solid-color="#000000" isolation="auto" mix-blend-mode="normal" white-space="normal"/>
  </g>
 </g>
</svg>
