<svg xmlns="http://www.w3.org/2000/svg" width="64" height="64" viewBox="0 0 16.933 16.933"><g transform="translate(0 -280.067)"><rect width="14.287" height="14.287" x="-295.677" y="-15.61" rx="7.144" ry="7.144" transform="matrix(0 -1 -1 0 0 0)" fill="#fff" stroke="#000" stroke-width=".529" stroke-opacity=".137" paint-order="markers stroke fill"/><rect transform="matrix(0 -1 -1 0 0 0)" ry="7.144" rx="7.144" y="-15.61" x="-295.677" height="14.287" width="14.287" fill="#fff" paint-order="markers stroke fill"/><rect transform="matrix(0 -1 -1 0 0 0)" ry="5.821" rx="5.821" y="-14.288" x="-294.354" height="11.642" width="11.642" fill="#4d8dd8"/><rect width="8.467" height="8.467" x="-292.767" y="-12.7" rx="4.233" ry="4.233" transform="matrix(0 -1 -1 0 0 0)" opacity=".25" fill="#fff"/><rect transform="matrix(0 -1 -1 0 0 0)" ry="2.646" rx="2.646" y="-11.113" x="-291.179" height="5.292" width="5.292" opacity=".25" fill="#fff"/><rect width="1.587" height="1.587" x="-289.327" y="-9.26" rx=".794" ry=".794" transform="matrix(0 -1 -1 0 0 0)" fill="#fff"/><path d="M8.467 288.346l4.49-4.49.187.187-4.49 4.49z" fill="#fff" paint-order="markers stroke fill"/></g></svg>