<svg xmlns="http://www.w3.org/2000/svg" width="64" height="64"><path d="M32 4.5C16.826 4.5 4.5 16.826 4.5 32S16.826 59.5 32 59.5 59.5 47.174 59.5 32 47.174 4.5 32 4.5z" style="marker:none" color="#000" overflow="visible" fill="#489cf0" fill-opacity=".992"/><path d="M32 4.5C16.826 4.5 4.5 16.826 4.5 32S16.826 59.5 32 59.5 59.5 47.174 59.5 32 47.174 4.5 32 4.5z" style="isolation:auto;mix-blend-mode:normal;solid-color:#000;solid-opacity:1;marker:none" color="#000" overflow="visible" opacity=".5" fill="none" stroke="#002e99" stroke-linecap="round" stroke-linejoin="round"/><path style="marker:none" d="M33.071 38.355c-.078-2.903.544-5.721 3.166-7.718 2.77-2.257 5.436-5.082 5.154-8.412-.061-3.21-3.638-5.727-7.491-6.089-4.334-.628-9.579.925-11.031 4.467-.737 1.722-.054 4.812 2.418 4.812 1.446 0 2.11-.977 2.22-1.871.082-.676-.183-1.28-.34-1.839-.179-.637.584-1.87 1.414-2.373.694-.42 1.42-.56 1.527-.588 2.492-.626 4.976.758 6.012 2.442 1.037 1.684-.104 4.24-1.744 6.724s-3.4 5.306-3.393 8.303c0 1.142-.098 1.53-.029 1.99.056.37 1.223.325 2.117.152zm-1.137 3.908c-2.383-.136-4.032 2.69-2.6 4.49 1.278 1.988 4.862 1.498 5.476-.753.639-1.75-.898-3.767-2.876-3.737z" color="#000" font-weight="700" font-size="72" font-family="Standard Symbols L" overflow="visible" fill="#fff"/></svg>