<svg xmlns="http://www.w3.org/2000/svg" width="64" height="64"><g transform="translate(0 -1058.52)"><circle cx="32" cy="1090.52" r="28" fill="#66bb6a"/><circle r="26.923" cy="-1090.52" cx="32" transform="scale(1 -1)" fill="#81c784"/><path d="M34.96 1075.52a1 1 0 0 0-.96 1v4H20c-.554 0-1 .446-1 1v4c0 .554.446 1 1 1h14v4a1 1 0 0 0 1.613.789l9.002-7a1 1 0 0 0 0-1.578l-9.002-7a1 1 0 0 0-.653-.211zm-5.92 15a1 1 0 0 1 .96 1v4h14c.554 0 1 .446 1 1v4c0 .554-.446 1-1 1H30v4a1 1 0 0 1-1.613.789l-9.002-7a1 1 0 0 1 0-1.578l9.002-7a1 1 0 0 1 .653-.211z" fill="#fff"/></g></svg>