<svg xmlns="http://www.w3.org/2000/svg" width="64" height="64"><g transform="translate(0 -1058.52)"><circle cx="32" cy="1090.52" r="28" fill="#26c6da"/><circle r="26.923" cy="-1090.52" cx="32" transform="scale(1 -1)" fill="#4dd0e1"/><g transform="translate(0 -1)" fill="#fff"><rect ry="2" y="1074.52" x="30" height="8" width="4"/><rect width="4" height="8" x="30" y="1100.52" ry="2"/><rect transform="rotate(90)" width="4" height="8" x="1089.52" y="-49" ry="2"/><rect transform="rotate(90)" ry="2" y="-23" x="1089.52" height="8" width="4"/><rect ry="2" y="-811.448" x="747.194" height="8" width="4" transform="rotate(135)"/><rect width="4" height="8" x="747.194" y="-785.448" ry="2" transform="rotate(135)"/><rect transform="rotate(45)" width="4" height="8" x="792.448" y="732.194" ry="2"/><rect transform="rotate(45)" ry="2" y="758.194" x="792.448" height="8" width="4"/></g></g></svg>