<svg width="64" height="64" version="1.1" xmlns="http://www.w3.org/2000/svg">
 <path d="m51.5 10a6.5 6.5 0 0 0-6.5 6.5 6.5 6.5 0 0 0 6.5 6.5 6.5 6.5 0 0 0 6.5-6.5 6.5 6.5 0 0 0-6.5-6.5zm-7.4648 16c-1.1278 0-2.0352 0.90737-2.0352 2.0352v0.67969 12.1 0.68555 0.48633h0.011719a9.5 9.5 0 0 0 9.4883 9.0137 9.5 9.5 0 0 0 9.4883-9.0137h0.011719v-0.48633-0.68555-12.1-0.67969c0-1.1278-0.90737-2.0352-2.0352-2.0352h-14.93z" fill="#5059c9" stroke="#4047ac" stroke-width="2"/>
 <path d="m51.5 10a6.5 6.5 0 0 0-6.5 6.5 6.5 6.5 0 0 0 6.5 6.5 6.5 6.5 0 0 0 6.5-6.5 6.5 6.5 0 0 0-6.5-6.5zm-7.4648 16c-1.1278 0-2.0352 0.90737-2.0352 2.0352v0.67969 12.1 0.68555 0.48633h0.011719a9.5 9.5 0 0 0 9.4883 9.0137 9.5 9.5 0 0 0 9.4883-9.0137h0.011719v-0.48633-0.68555-12.1-0.67969c0-1.1278-0.90737-2.0352-2.0352-2.0352h-14.93z" fill="#5059c9"/>
 <path d="m33.5 4a9.5 9.5 0 0 0-9.5 9.5 9.5 9.5 0 0 0 9.5 9.5 9.5 9.5 0 0 0 9.5-9.5 9.5 9.5 0 0 0-9.5-9.5zm-11.205 22c-1.8257 0-3.2949 1.4692-3.2949 3.2949v3.2969 11.203 1.7051a14.5 14.5 0 0 0 0 0.042969v0.23047h0.001953a14.5 14.5 0 0 0 14.498 14.227 14.5 14.5 0 0 0 14.496-14.227h0.003906v-0.27344a14.5 14.5 0 0 0 0-0.042969v-1.6621-11.203-3.2969c0-1.8257-1.4692-3.2949-3.2949-3.2949h-22.41z" fill="#7b83eb" stroke="#5059c9" stroke-width="2"/>
 <path d="m33.5 4a9.5 9.5 0 0 0-9.5 9.5 9.5 9.5 0 0 0 9.5 9.5 9.5 9.5 0 0 0 9.5-9.5 9.5 9.5 0 0 0-9.5-9.5zm-11.205 22c-1.8257 0-3.2949 1.4692-3.2949 3.2949v3.2969 11.203 1.7051a14.5 14.5 0 0 0 0 0.042969v0.23047h0.001953a14.5 14.5 0 0 0 14.498 14.227 14.5 14.5 0 0 0 14.496-14.227h0.003906v-0.27344a14.5 14.5 0 0 0 0-0.042969v-1.6621-11.203-3.2969c0-1.8257-1.4692-3.2949-3.2949-3.2949h-22.41z" fill="#7b83eb"/>
 <rect x="3" y="18" width="29" height="29" rx="1.977" ry="1.977" fill="#5059c9" stroke="#3e4598" stroke-width="2"/>
 <rect x="3" y="18" width="29" height="29" rx="1.977" ry="1.977" fill="#5059c9"/>
 <path d="m10 25v5h5v13h5v-13h5v-5z" opacity=".1"/>
 <path d="m10 24v5h5v13h5v-13h5v-5h-15z" fill="#fff"/>
</svg>
