<svg width="64" height="64" version="1.1" viewBox="0 0 16.933 16.933" xmlns="http://www.w3.org/2000/svg">
 <g paint-order="stroke markers fill">
  <path d="m1.3437 2.381h14.247c0.15722 0 0.28428 0.12923 0.28428 0.29022v11.59a0.28428 0.28912 0 0 1-0.28535 0.29022h-14.246a0.28428 0.28912 0 0 1-0.28536-0.29022v-11.59c0-0.16099 0.12815-0.29022 0.28536-0.29022z" fill="#424242" opacity=".85" stroke="#000" stroke-width=".52916"/>
  <path d="m1.3437 2.3812h14.247c0.15722 0 0.28429 0.12923 0.28429 0.29022v11.59a0.28429 0.28913 0 0 1-0.28536 0.29022h-14.246a0.28429 0.28913 0 0 1-0.28537-0.29022v-11.59c0-0.16099 0.12814-0.29022 0.28537-0.29022z" fill="#454b4b"/>
  <path d="m8.467 2.3812v12.171h7.1223a0.28429 0.28912 0 0 0 0.28537-0.29022v-11.59a0.28429 0.28912 0 0 0-0.28537-0.29022z" opacity=".15"/>
  <g fill="#fff">
   <g transform="translate(-.222 -138.93) scale(.50244)">
    <rect transform="translate(4.082 .6)" x="5.292" y="289.06" width="4.233" height=".529" ry=".265"/>
    <path d="M8.055 284.862a.264.264 0 0 0-.262.13.264.264 0 0 0 .097.362l2.842 1.64-2.842 1.641a.264.264 0 0 0-.097.361c.074.127.235.17.362.098l3.208-1.853a.26.26 0 0 0 .127-.224c.002-.008.001-.015.002-.023 0-.008 0-.014-.002-.022a.26.26 0 0 0-.127-.224l-3.208-1.853a.266.266 0 0 0-.1-.033z"/>
   </g>
   <g transform="translate(-.222 -138.93) scale(.50244)">
    <rect transform="translate(4.082 .6)" x="5.292" y="289.06" width="4.233" height=".529" ry=".265"/>
    <path d="M8.055 284.862a.264.264 0 0 0-.262.13.264.264 0 0 0 .097.362l2.842 1.64-2.842 1.641a.264.264 0 0 0-.097.361c.074.127.235.17.362.098l3.208-1.853a.26.26 0 0 0 .127-.224c.002-.008.001-.015.002-.023 0-.008 0-.014-.002-.022a.26.26 0 0 0-.127-.224l-3.208-1.853a.266.266 0 0 0-.1-.033z"/>
   </g>
  </g>
  <g fill="#fff">
   <g transform="translate(6.514 -138.93) scale(.50244)">
    <rect transform="translate(4.082 .6)" x="5.292" y="289.06" width="4.233" height=".529" ry=".265"/>
    <path d="M8.055 284.862a.264.264 0 0 0-.262.13.264.264 0 0 0 .097.362l2.842 1.64-2.842 1.641a.264.264 0 0 0-.097.361c.074.127.235.17.362.098l3.208-1.853a.26.26 0 0 0 .127-.224c.002-.008.001-.015.002-.023 0-.008 0-.014-.002-.022a.26.26 0 0 0-.127-.224l-3.208-1.853a.266.266 0 0 0-.1-.033z"/>
   </g>
   <g transform="translate(6.514 -138.93) scale(.50244)">
    <rect transform="translate(4.082 .6)" x="5.292" y="289.06" width="4.233" height=".529" ry=".265"/>
    <path d="M8.055 284.862a.264.264 0 0 0-.262.13.264.264 0 0 0 .097.362l2.842 1.64-2.842 1.641a.264.264 0 0 0-.097.361c.074.127.235.17.362.098l3.208-1.853a.26.26 0 0 0 .127-.224c.002-.008.001-.015.002-.023 0-.008 0-.014-.002-.022a.26.26 0 0 0-.127-.224l-3.208-1.853a.266.266 0 0 0-.1-.033z"/>
   </g>
  </g>
 </g>
</svg>
