<svg width="64" height="64" version="1" xmlns="http://www.w3.org/2000/svg">
 <rect x="6" y="6" width="52" height="52" rx="6" ry="6" fill="#e6e6e6" stroke="#c2c2c2" stroke-width="2"/>
 <rect x="6" y="6" width="52" height="52" rx="6" ry="6" fill="#e6e6e6" stroke-width=".94007"/>
 <rect x="10" y="10" width="44" height="44" rx="2" ry="2" fill="#f2f2f2" stroke-width=".79544"/>
 <path d="m31.42 29.814c-0.70243 0.40072-1.5023 0.61287-2.3148 0.61444-0.08486 0-0.165-0.01728-0.24829-0.022v8.7609l-2.0005-2.2314a2.0953 2.0953 0 0 1-1.6674 0.82502 2.0953 2.0953 0 0 1-0.05186 0.451l3.7197 4.0669v6.6456c-2.5835 0.82816-3.143 2.7878-3.143 5.0758h12.572c0-2.288-0.55944-4.2477-3.143-5.0758v-2.167l3.7966-3.6678a2.0953 2.245 0 0 1-0.12886-0.76214 2.0953 2.245 0 0 1 0.28287-1.1267 2.0953 2.245 0 0 1-0.01257-0.01728 2.0953 2.245 0 0 1-0.27029 0.02043 2.0953 2.245 0 0 1-0.88473-0.21058l-2.7831 2.651v-13.452c-0.45101 0.14143-0.91773 0.23572-1.4065 0.23572-0.81401-0.0016-1.6124-0.21372-2.3163-0.61445z" fill="#a57959" stroke="#000" stroke-opacity=".15"/>
 <path d="m31.42 10c-1.2289 0.0014-2.4075 0.48212-3.2749 1.3351-0.44-0.13216-0.8973-0.19942-1.3562-0.19942-2.5584 0-4.6322 2.0321-4.6322 4.5393 0.0016 1.0697 0.38878 2.1047 1.0933 2.9219-1.3948 0.8192-2.2483 2.2955-2.2504 3.8888 0.0025 2.1147 1.4938 3.947 3.597 4.4201 0.48244 2.0602 2.3525 3.5201 4.5086 3.5232 0.81244-0.0016 1.6124-0.21372 2.3148-0.61444 0.704 0.40072 1.5023 0.61287 2.3163 0.61444 1.6705-0.0016 3.2105-0.88316 4.0307-2.3085 2.3242-0.275 4.0732-2.2079 4.0763-4.5022-0.0016-0.12886-0.0094-0.25772-0.022-0.38658 0.75744-0.8302 1.177-1.904 1.1786-3.0172-0.0031-2.115-1.4944-3.9478-3.597-4.4197-0.43687-1.8623-2.0193-3.2581-3.9569-3.4886-0.82031-1.4226-2.3588-2.3028-4.026-2.305zm-8.324 23.572a2.0953 2.0953 0 0 0-2.0964 2.0964 2.0953 2.0953 0 0 0 0.28208 1.0466 2.0953 2.0953 0 0 0-0.28208 1.0466 2.0953 2.0953 0 0 0 2.0964 2.0964 2.0953 2.0953 0 0 0 2.0932-2.0964 2.0953 2.0953 0 0 0 2.0964-2.0932 2.0953 2.0953 0 0 0-2.0964-2.0964 2.0953 2.0953 0 0 0-1.0466 0.28287 2.0953 2.0953 0 0 0-1.0466-0.28287zm15.715 3.143a2.0953 2.245 0 0 0-2.0964 2.2441 2.0953 2.245 0 0 0 2.0964 2.2457 2.0953 2.245 0 0 0 0.27029-0.02043 2.0953 2.245 0 0 0 0.01257 0.01728 2.0953 2.245 0 0 0-0.28287 1.1267 2.0953 2.245 0 0 0 2.0932 2.2441 2.0953 2.245 0 0 0 2.0964-2.2441 2.0953 2.245 0 0 0-0.28287-1.1236 2.0953 2.245 0 0 0 0.28287-1.122 2.0953 2.245 0 0 0-2.0964-2.2441 2.0953 2.245 0 0 0-0.27029 0.022 2.0953 2.245 0 0 0-1.8229-1.1456z" fill="#1c8d43" stroke="#000" stroke-opacity=".15"/>
</svg>
