<svg width="64" height="64" version="1.1" viewBox="0 0 16.933 16.933" xmlns="http://www.w3.org/2000/svg" xmlns:xlink="http://www.w3.org/1999/xlink">
 <defs>
  <linearGradient id="b" x1="22.004" x2="22.004" y1="44.854" y2="3.072" gradientTransform="matrix(.35276 0 0 .35276 -.044 .309)" gradientUnits="userSpaceOnUse">
   <stop stop-color="#a0a0a0" offset="0"/>
   <stop stop-color="#c8c8c8" offset="1"/>
  </linearGradient>
 </defs>
 <rect x="2.514" y="1.455" width="11.906" height="14.023" rx="0" ry="0" fill="#f3f3f3" stroke="#5e5750" stroke-linecap="round" stroke-linejoin="round" stroke-opacity=".255" stroke-width=".265" style="paint-order:fill markers stroke"/>
 <g fill="#bad5ff" fill-opacity=".592">
  <rect transform="rotate(90)" x="7.158" y="-14.191" width=".09" height="11.545" rx="0" ry="0" style="paint-order:markers stroke fill"/>
  <rect transform="rotate(90)" x="7.878" y="-14.191" width=".09" height="11.545" rx="0" ry="0" style="paint-order:markers stroke fill"/>
  <rect transform="rotate(90)" x="11.377" y="-14.191" width=".09" height="11.545" rx="0" ry="0" style="paint-order:markers stroke fill"/>
  <rect transform="rotate(90)" x="12.345" y="-14.191" width=".09" height="11.545" rx="0" ry="0" style="paint-order:markers stroke fill"/>
  <rect x="13.049" y="1.587" width=".18" height="13.758" rx="0" ry="0" style="paint-order:markers stroke fill"/>
 </g>
 <rect x="4.233" y="1.587" width=".18" height="13.758" rx="0" ry="0" fill="#f6b6b6" fill-opacity=".694" style="paint-order:markers stroke fill"/>
 <rect transform="rotate(90)" x="3.879" y="-14.191" width=".09" height="11.545" rx="0" ry="0" fill="#bad5ff" fill-opacity=".592" style="paint-order:markers stroke fill"/>
 <path d="m4.542 4.365h0.828m0.118 0h0.77m0.123 0h0.686m0.113 0h0.296m0.118 0h0.663m0.13 0h1.74m0.118 0h1.325m0.118 0h0.403m-7.55 0.794h1.285m0.15 0h0.613m0.113 0h0.303m0.123 0h0.566m0.118 0h0.58m0.11 0h0.91m0.118 0h1.2m-6.188 0.79h1.087m0.114 0h1.79m0.11 0h0.868m0.111 0h0.812m0.117 0h0.692m0.111 0 1.088 7e-3m-6.9 0.79h1.51m0.12 0h1.633m0.113 0h0.642m0.118 0h1.528m0.103 0h1.047m0.118 0h0.415m0.118 0h0.23m-7.695 0.794h0.564m0.173 0h2.089m-2.826 3.44h1.284m0.15 0h0.613m0.113 0h0.303m0.123 0h0.566m0.118 0h0.58m0.11 0h0.91m-4.87 1.047h1.087m0.114 0h1.79m0.11 0h0.868m3.068 0.022h1.773m-8.81-1.863h1.51m0.12 0h1.633m0.113 0h0.642m0.118 0h1.528m-5.664-1.587h0.828m0.118 0h0.77m0.123 0h0.686m0.113 0h0.296m0.118 0h0.663m0.13 0h1.74m0.118 0h1.325m-7.028 0.793h1.394m0.11 0h1.481m0.113 0h0.58m0.109 0h1.393m0.112 0h1.522m-6.814 3.44h1.303m0.14 0h0.575m0.134 0h0.287m0.091 0h0.566m0.075 0h2.996m0.14 0h0.8m0.108 0h0.202m-5.932 0.794h0.425m-1.91 0h1.36m0.659 0h0.989m0.105 0h1.452m0.113 0h0.985m0.1 0h0.202m0.111 0h1.251m0.128 0h0.655m-6.625 0.793h0.6m-2.085 0h1.36m0.855 0h0.844" fill="none" stroke="url(#b)" stroke-width=".265"/>
 <g fill="#bad5ff" fill-opacity=".592">
  <rect transform="rotate(90)" x="4.672" y="-14.191" width=".09" height="11.545" rx="0" ry="0" style="paint-order:markers stroke fill"/>
  <rect transform="rotate(90)" x="5.466" y="-14.191" width=".09" height="11.545" rx="0" ry="0" style="paint-order:markers stroke fill"/>
  <rect transform="rotate(90)" x="6.26" y="-14.191" width=".09" height="11.545" rx="0" ry="0" style="paint-order:markers stroke fill"/>
  <rect transform="rotate(90)" x="7.878" y="-14.191" width=".09" height="11.545" rx="0" ry="0" style="paint-order:markers stroke fill"/>
  <rect transform="rotate(90)" x="8.906" y="-14.191" width=".09" height="11.545" rx="0" ry="0" style="paint-order:markers stroke fill"/>
  <rect transform="rotate(90)" x="9.699" y="-14.191" width=".09" height="11.545" rx="0" ry="0" style="paint-order:markers stroke fill"/>
  <rect transform="rotate(90)" x="10.493" y="-14.191" width=".09" height="11.545" rx="0" ry="0" style="paint-order:markers stroke fill"/>
  <rect transform="rotate(90)" x="13.139" y="-14.191" width=".09" height="11.545" rx="0" ry="0" style="paint-order:markers stroke fill"/>
  <rect transform="rotate(90)" x="13.933" y="-14.191" width=".09" height="11.545" rx="0" ry="0" style="paint-order:markers stroke fill"/>
 </g>
 <g transform="translate(.79371 3.4395)" fill="#fff">
  <g stroke="#32a3d7" stroke-width=".52916">
   <g aria-label="T">
    <path d="m5.3988 8.4968h0.64105v-2.6725h0.9096v-0.53277h-2.4516v0.53277h0.90094z" fill="#fff" stroke="#a7a7a7" stroke-width=".52916"/>
   </g>
   <g aria-label="E">
    <path d="m7.1436 10.084h2.0141v-0.5371h-1.3731v-0.85762h1.1262v-0.5371h-1.1262v-0.74067h1.3254v-0.53277h-1.9665z" fill="#fff" stroke="#a7a7a7" stroke-width=".52916"/>
   </g>
   <g aria-label="X">
    <path d="m9.7894 9.026h0.68003l0.34218-0.71035c0.07797-0.16459 0.1516-0.33352 0.2339-0.52843h0.01733c0.09529 0.19491 0.16892 0.36384 0.25122 0.52843l0.35951 0.71035h0.71036l-0.90094-1.6243 0.84463-1.581h-0.6757l-0.3032 0.65838c-0.0693 0.1516-0.13427 0.30753-0.21224 0.50678h-0.02166c-0.095289-0.19925-0.16459-0.35518-0.23823-0.50678l-0.32053-0.65838h-0.71035l0.84463 1.5507z" stroke="#a7a7a7" stroke-width=".52916"/>
    <path d="m9.7894 9.026h0.68003l0.34218-0.71035c0.07797-0.16459 0.1516-0.33352 0.2339-0.52843h0.01733c0.09529 0.19491 0.16892 0.36384 0.25122 0.52843l0.35951 0.71035h0.71036l-0.90094-1.6243 0.84463-1.581h-0.6757l-0.3032 0.65838c-0.0693 0.1516-0.13427 0.30753-0.21224 0.50678h-0.02166c-0.095289-0.19925-0.16459-0.35518-0.23823-0.50678l-0.32053-0.65838h-0.71035l0.84463 1.5507z" stroke="none"/>
   </g>
  </g>
  <g aria-label="T">
   <path d="m5.3988 8.4968h0.64105v-2.6725h0.9096v-0.53277h-2.4516v0.53277h0.90094z" fill="#fff"/>
  </g>
  <g aria-label="E">
   <path d="m7.1436 10.084h2.0141v-0.5371h-1.3731v-0.85762h1.1262v-0.5371h-1.1262v-0.74067h1.3254v-0.53277h-1.9665z" fill="#fff"/>
  </g>
 </g>
</svg>
