<svg xmlns="http://www.w3.org/2000/svg" width="64" height="64" viewBox="0 0 16.933 16.933"><path d="M1.587 5.292v9.26c0 .147.119.265.265.265h13.23a.264.264 0 0 0 .264-.265v-9.26H1.587z" opacity=".9" fill="#74c9d0" stroke="#40a0a6" stroke-width=".529" paint-order="stroke markers fill"/><path d="M1.852 2.117a.264.264 0 0 0-.265.264v2.91h13.759v-2.91a.264.264 0 0 0-.265-.264z" fill="#333" stroke="#1e1e1e" stroke-width=".529" paint-order="stroke markers fill"/><path d="M1.587 5.292v9.26c0 .147.119.265.265.265h13.23a.264.264 0 0 0 .264-.265v-9.26H1.587z" fill="#74c9d0" paint-order="stroke markers fill"/><path d="M1.852 2.117a.264.264 0 0 0-.265.264v2.91h13.759v-2.91a.264.264 0 0 0-.265-.264z" fill="#333" paint-order="stroke markers fill"/><path d="M4.895 2.117h1.852l1.058 1.587H5.953zm0 3.175h1.852l1.058-1.588H5.953zm5.159-3.175h1.852l1.059 1.587h-1.852zm0 3.175h1.852l1.059-1.588h-1.852z" fill="#fff" paint-order="stroke markers fill"/><path fill="#329196" fill-opacity=".902" fill-rule="evenodd" paint-order="fill markers stroke" d="M1.323 5.291H15.61v.265H1.323z"/></svg>