<svg xmlns="http://www.w3.org/2000/svg" width="64" height="64"><rect style="marker:none" y="5.5" x="5.5" ry="2.891" rx="2.891" height="53" width="53" color="#000" overflow="visible" opacity=".9" fill="#262b2d" fill-opacity=".902"/><rect style="marker:none" y="5.5" x="5.5" ry="2.891" rx="2.891" height="53" width="53" color="#000" overflow="visible" opacity=".7" fill="none" stroke="#000" stroke-linecap="round" stroke-linejoin="round"/><path style="isolation:auto;mix-blend-mode:normal;solid-color:#000;solid-opacity:1;marker:none" d="M17 14v2.143c-.694.148-1.289.412-1.758.818-.733.64-1.1 1.518-1.1 2.637 0 .594.113 1.112.337 1.556.223.444.523.834.898 1.168.375.335.938.684 1.687 1.047.8.392 1.329.677 1.586.856.263.178.462.366.596.562.134.19.201.41.201.658 0 .444-.153.78-.46 1.004-.303.225-.738.336-1.31.336a6.093 6.093 0 0 1-1.577-.232c-.571-.156-1.272-.424-2.1-.805v2.49c.882.445 1.886.683 3 .739V31h2v-2.17c.71-.157 1.318-.419 1.799-.816.8-.658 1.201-1.558 1.201-2.7 0-.824-.213-1.518-.639-2.084-.425-.57-1.21-1.138-2.357-1.703-.868-.426-1.42-.721-1.654-.882a1.873 1.873 0 0 1-.504-.51 1.196 1.196 0 0 1-.16-.623c0-.38.131-.69.394-.926.263-.236.642-.354 1.135-.354.414 0 .832.055 1.258.164.43.11.974.302 1.629.579l.84-2.084c-.633-.283-1.24-.5-1.823-.657a6.736 6.736 0 0 0-1.119-.19V14h-2zm9 19v2h11v-2H26z" color="#000" overflow="visible" fill="#fff"/></svg>