<svg xmlns="http://www.w3.org/2000/svg" width="64" height="64" viewBox="0 0 16.933 16.933"><g transform="translate(0 -280.067)"><rect transform="matrix(0 -1 -1 0 0 0)" ry="7.144" rx="7.144" y="-15.61" x="-295.677" height="14.287" width="14.287" fill="#46d177" stroke-width=".529" stroke="#29b75e"/><rect width="14.287" height="14.287" x="-295.677" y="-15.61" rx="7.144" ry="7.144" transform="matrix(0 -1 -1 0 0 0)" fill="#46d177"/><rect transform="matrix(0 -1 -1 0 0 0)" ry="5.821" rx="5.821" y="-14.288" x="-294.354" height="11.642" width="11.642" opacity=".15" fill="#fff"/><path d="M9.15 285.358a2.511 2.511 0 0 0-2.505 2.495c0 .521.176 1 .453 1.403l-1.67 1.672a.455.456 0 0 0 .636.652l1.67-1.673a2.5 2.5 0 0 0 1.416.44 2.499 2.499 0 0 0 2.492-2.494 2.499 2.499 0 0 0-2.492-2.495zm0 .907a1.58 1.58 0 0 1 1.586 1.588 1.58 1.58 0 0 1-1.586 1.587 1.579 1.579 0 0 1-1.585-1.587c0-.883.703-1.588 1.585-1.588z" fill="#fff"/></g></svg>