<svg width="64" height="64" version="1.1" xmlns="http://www.w3.org/2000/svg">
 <path d="m23.921 46.999s0.18898 6.1759-0.74458 7.5025c-0.92978 1.3229-2.7818 1.338-2.7818 1.338-1.1868 0.13984-1.1981 2.6608 0 2.6608h23.211c1.1981 0 1.1906-2.5248 0-2.6608 0 0-1.852-0.01512-2.7818-1.338-0.92978-1.3229-0.7408-7.5025-0.7408-7.5025z" fill="#f2f2f2" overflow="visible" stroke-width="3.7796"/>
 <rect x="2.4983" y="7.4987" width="59" height="40" rx="1.3115" ry="1.2133" fill="#292929" stroke="#000000" stroke-dashoffset=".5" stroke-linecap="round" stroke-linejoin="round" stroke-width="1.0016"/>
 <path d="m5.0004 9.997h53.999v34.999h-53.999z" fill="#658dec" stroke-width="3.7796"/>
 <path d="m23.921 46.002s0.18898 7.1737-0.74458 8.5003c-0.92978 1.3229-2.7818 1.338-2.7818 1.338-1.1868 0.13984-1.1981 2.6608 0 2.6608h23.211c1.1981 0 1.1906-2.5248 0-2.6608 0 0-1.852-0.01512-2.7818-1.338-0.92978-1.3229-0.7408-8.5041-0.7408-8.5041z" color="#000000" fill="none" opacity=".15" overflow="visible" stroke="#000000" stroke-dashoffset=".5" stroke-linecap="round" stroke-linejoin="round" stroke-width=".99782"/>
 <path d="m9.4766 22a43.979 43.979 0 0 0-4.4766 0.27734v22.723h43.08a43.979 43.979 0 0 0-38.602-23h-0.00195z" fill="#ffffff" opacity=".15" style="paint-order:stroke markers fill"/>
 <path d="M 59,30.787 A 43.979,43.979 0 0 0 33.092,45 H 59 Z" fill="#ffffff" opacity=".15" style="paint-order:stroke markers fill"/>
 <circle cx="50.501" cy="17.499" r="5.4993" fill="#ffdb8a" stroke-width="4.1568" style="paint-order:stroke markers fill"/>
 <path d="m39 28-12 6v-12z" fill="#ffffff" stroke-width="1.5"/>
</svg>
