<svg xmlns="http://www.w3.org/2000/svg" width="64" height="64" viewBox="0 0 16.933 16.933"><path d="M8.448 1.323c-.338.005-.66.142-.9.38L1.703 7.55a1.299 1.299 0 0 0 0 1.836l5.845 5.845a1.3 1.3 0 0 0 1.837 0l5.845-5.845a1.299 1.299 0 0 0 0-1.836L9.385 1.704a1.3 1.3 0 0 0-.937-.38z" style="line-height:normal;text-indent:0;text-align:start;text-decoration-line:none;text-decoration-style:solid;text-decoration-color:#000;text-transform:none;white-space:normal;isolation:auto;mix-blend-mode:normal;solid-color:#000;solid-opacity:1" color="#000" font-weight="400" font-family="sans-serif" overflow="visible" opacity=".75" fill="#4caf50" fill-rule="evenodd" stroke="#347837" stroke-width=".529" stroke-linejoin="round"/><path style="line-height:normal;text-indent:0;text-align:start;text-decoration-line:none;text-decoration-style:solid;text-decoration-color:#000;text-transform:none;white-space:normal;isolation:auto;mix-blend-mode:normal;solid-color:#000;solid-opacity:1" d="M8.448 1.323c-.338.005-.66.142-.9.38L1.703 7.55a1.299 1.299 0 0 0 0 1.836l5.845 5.845a1.3 1.3 0 0 0 1.837 0l5.845-5.845a1.299 1.299 0 0 0 0-1.836L9.385 1.704a1.3 1.3 0 0 0-.937-.38z" color="#000" font-weight="400" font-family="sans-serif" overflow="visible" fill="#4caf50" fill-rule="evenodd"/><path d="M3.464 3.464c-.313 0-.313.312-.313.312v1.251s0 .315.313.313l.312-.002v7.505c0 .346.28.625.626.625h.957c.033-.012 6.946-7.055 7.994-8.13l.117.002c.312.006.312-.313.312-.313v-1.25c0-.313-.312-.313-.312-.313H9.717s-.312 0-.312.312v1.251c0 .313.312.313.312.313s.313 0 .294-.002L6.903 8.467v-3.13l.313.003c.313.002.313-.313.313-.313v-1.25c0-.347-.313-.313-.313-.313z" fill="#fff" fill-rule="evenodd" stroke="#000" stroke-width=".265" stroke-opacity=".137" paint-order="markers stroke fill"/><g style="line-height:1.25;-inkscape-font-specification:'sans-serif Bold Italic'"><path d="M8.607 13.517h.629l.482-2.41h-.629zm.878-2.797a.446.446 0 0 0 .444-.345c.043-.206-.09-.344-.306-.344a.443.443 0 0 0-.448.344c-.038.198.09.345.31.345zm.434 2.797h.628l.332-1.657c.206-.18.383-.27.52-.27.228 0 .306.133.233.503l-.284 1.424h.632l.332-1.657c.206-.18.383-.27.52-.27.229 0 .306.133.233.503l-.284 1.424h.633l.301-1.502c.12-.607-.043-.968-.555-.968-.314 0-.586.19-.852.422-.06-.267-.233-.422-.577-.422-.314 0-.573.172-.818.383h-.017l.021-.323h-.516z" style="-inkscape-font-specification:'sans-serif Bold Italic'" aria-label="im" font-style="italic" font-weight="700" font-size="4.304" font-family="sans-serif" letter-spacing="0" word-spacing="0" fill="#fff" stroke="#000" stroke-width=".265" stroke-opacity=".137" paint-order="markers stroke fill"/></g></svg>