<svg xmlns="http://www.w3.org/2000/svg" width="64" height="64" viewBox="0 0 16.933 16.933"><circle cx="128" cy="138.357" r="54.375" vector-effect="non-scaling-stroke" fill="#242424" transform="translate(-5.044 -5.022) scale(.10555)"/><path style="isolation:isolate" d="M9.229.836c-.17 0-.494.03-.66.075-.553.153-1.07.874-1.26 1.398a.453.453 0 0 1-.083.16.958.958 0 0 1-.147.037 7.556 7.556 0 0 0-2.003.752 6.856 6.856 0 0 0-2.794 2.959 6.776 6.776 0 0 0-.658 2.167c-.049.345-.049 1.388 0 1.733.218 1.554.87 2.886 1.94 3.97 1.22 1.236 2.785 1.94 4.556 2.049.22.013.886-.01 1.145-.037a6.901 6.901 0 0 0 6.053-6.068c.013-.117.024-.436.024-.713.042-.788-.282-1.571-.607-2.147-.335-.696-.4-1.298-.45-2.04a.241.241 0 0 0 0-.103c-.89.274-1.65.992-2.118 1.657-.317.505-.524 1.02-.525 1.475.044 1.16 1.036 1.994 1.058 3.04 0 1.112-.669 2.186-1.464 2.954-.16.155-.199.183-.216.166a.517.517 0 0 1 .054-.152c.554-1.215.437-2.67-.413-3.69-.119-.142-.587-.605-.653-.646a2.646 2.646 0 1 1-2.102-2.11h.025c.025-.02.04-.04.04-.046 0-.04-.65-.693-.831-.833-.368-.284-.786-.628-1.268-.752-.13-.034-.198-.06-.198-.078 0-.05.46-.186.969-.288.619-.125 1.02-.155 2.22-.168a22.71 22.71 0 0 0 1.102-.029c1.294-.208 2.334-1.055 2.797-2.002.013-.043.012-.043-.19-.043-.424 0-.852-.088-1.259-.268-.527-.299-.99-.645-1.555-.767-.146-.031-.541-.036-.762-.067-.052-.444.145-1.087.335-1.373a.456.456 0 0 0 .078-.144c-.007-.021-.078-.03-.18-.029z" fill="#2fedd8" stroke-width=".265" stroke="#000" stroke-opacity=".196"/></svg>