<svg width="64" height="64" version="1.1" xmlns="http://www.w3.org/2000/svg">
 <g stroke="#38414d" stroke-linecap="round" stroke-linejoin="round" stroke-width="2">
  <path d="m17.204 5c-6.7639 0-12.204 5.4404-12.204 12.204v29.592c0 2.3636 0.67432 4.5566 1.8306 6.4185h-0.00376c0.00901 0.01466 0.02107 0.0269 0.030134 0.04142 0.22181 0.35399 0.45993 0.69613 0.71568 1.0246 0.078782 0.10154 0.16673 0.1949 0.2486 0.29381 0.14207 0.1711 0.27842 0.34542 0.42941 0.50851h0.015062c0.69919 0.75526 1.4821 1.4305 2.3542 1.9888h42.76c0.87215-0.55835 1.655-1.2336 2.3542-1.9888h0.01504c0.15099-0.16308 0.28734-0.3374 0.42941-0.50851 0.08187-0.0989 0.16983-0.19228 0.24861-0.29381 0.25575-0.32842 0.49387-0.67056 0.71568-1.0246 0.0091-0.01446 0.02112-0.02687 0.03014-0.04143h-0.0039c1.1565-1.8619 1.8308-4.0549 1.8308-6.4185v-29.592c0-6.7639-5.4404-12.204-12.204-12.204z" fill="#515e6f"/>
  <path d="m18.5 55.143v3.8571h13.5v-3.8571z" fill="#2bb563"/>
  <path d="m8.3185 55.143c2.2226 2.3669 5.3662 3.8571 8.8857 3.8571h1.2958v-3.8571z" fill="#5057eb"/>
  <path d="m45.5 55.143v3.8571h1.2958c3.5196 0 6.6631-1.4903 8.8857-3.8571z" fill="#ffb73f"/>
  <path d="m32 55.143v3.8571h13.5v-3.8571z" fill="#e8475b"/>
 </g>
 <path d="m17.204 5c-6.7639 0-12.204 5.4404-12.204 12.204v29.592c0 2.3636 0.67432 4.5566 1.8306 6.4185h-0.00376c0.00901 0.01466 0.02107 0.0269 0.030134 0.04142 0.22181 0.35399 0.45993 0.69613 0.71568 1.0246 0.078782 0.10154 0.16673 0.1949 0.2486 0.29381 0.14207 0.1711 0.27842 0.34542 0.42941 0.50851h0.015062c0.69919 0.75526 1.4821 1.4305 2.3542 1.9888h42.76c0.87215-0.55835 1.655-1.2336 2.3542-1.9888h0.01504c0.15099-0.16308 0.28734-0.3374 0.42941-0.50851 0.08187-0.0989 0.16983-0.19228 0.24861-0.29381 0.25575-0.32842 0.49387-0.67056 0.71568-1.0246 0.0091-0.01446 0.02112-0.02687 0.03014-0.04143h-0.0039c1.1565-1.8619 1.8308-4.0549 1.8308-6.4185v-29.592c0-6.7639-5.4404-12.204-12.204-12.204z" fill="#515e6f"/>
 <path d="m18.5 55.143v3.8571h13.5v-3.8571z" fill="#2bb563"/>
 <path d="m8.3185 55.143c2.2226 2.3669 5.3662 3.8571 8.8857 3.8571h1.2958v-3.8571z" fill="#5057eb"/>
 <path d="m45.5 55.143v3.8571h1.2958c3.5196 0 6.6631-1.4903 8.8857-3.8571z" fill="#ffb73f"/>
 <path d="m32 55.143v3.8571h13.5v-3.8571z" fill="#e8475b"/>
 <path d="m34.573 20.429a8.3571 8.3571 0 0 0-6.6521 3.3147 6.4286 6.4286 0 0 0-2.9908-0.74205 6.4286 6.4286 0 0 0-6.4298 6.4261 6.4286 6.4286 0 0 0 0.14314 1.3184 4.5 4.5 0 0 0-4.0003 4.4674 4.5 4.5 0 0 0 4.5013 4.5013 4.5 4.5 0 0 0 1.7176-0.34654c-0.26566-0.69666-0.43318-1.4395-0.43318-2.2261 0-2.5119 1.5175-4.6005 3.6575-5.6275 0.6032-0.32898 1.2672-0.55064 1.9738-0.65165 0.48261-2.0927 1.7366-3.8844 3.439-5.0738 1.2387-0.9286 2.7514-1.5029 4.4297-1.5029a1.2858 1.2858 0 0 0 0.0039 0c0.05111 5.4e-5 0.09984 0.01003 0.15068 0.01138 0.03724-4.92e-4 0.07186-0.01138 0.10923-0.01138 2.3746 0.0025 4.4556 1.1694 6.0419 2.859 0.45938-0.14777 0.92032-0.28501 1.405-0.28627a1.2858 1.2858 0 0 0 0.0039 0c0.09546 0 0.18458 0.02143 0.27874 0.02636 0.0523-0.0037 0.10148-0.02623 0.15444-0.02636a1.9288 1.9288 0 0 0 0.0039 0c0.21495 0 0.41946 0.03757 0.62905 0.05651a8.3571 8.3571 0 0 0-8.1364-6.4863z" fill="#ffffff" stroke-width="1.9286"/>
 <path d="m34.192 26.214a6.5747 6.4286 0 0 0-6.5747 6.4286 6.5747 6.4286 0 0 0 0.0025 0.05273 4.6023 4.5 0 0 0-0.6601-0.05273 4.6023 4.5 0 0 0-4.6021 4.5 4.6023 4.5 0 0 0 4.6023 4.5h20.382a3.9448 3.8571 0 0 0 3.9448-3.8571 3.9448 3.8571 0 0 0-3.9448-3.8571 5.2597 5.1429 0 0 0-5.2597-5.1429 5.2597 5.1429 0 0 0-2.2806 0.51479 6.5747 6.4286 0 0 0-5.609-3.0862z" fill="#ffffff" stroke-width="1.9286"/>
</svg>
