<svg width="64" height="64" version="1.1" viewBox="0 0 16.933 16.933" xmlns="http://www.w3.org/2000/svg" xmlns:xlink="http://www.w3.org/1999/xlink">
 <g transform="translate(0 -280.07)">
  <path d="m3.175 282.45c-0.293 0-0.265 0.264-0.265 0.53h-1.058c-0.265 0-0.265 0-0.265 0.264v5.556c0 0.293 0.237 0.53 0.53 0.53h12.7a0.529 0.529 0 0 0 0.529-0.53v-5.556c0-0.265 0-0.265-0.265-0.265h-7.408c0-0.265 0.028-0.53-0.265-0.53z" fill="#fff" fill-opacity=".976" stroke="#000" stroke-opacity=".268" stroke-width=".529" style="paint-order:markers stroke fill"/>
  <path d="m3.175 282.45c-0.293 0-0.265 0.264-0.265 0.53h-1.058c-0.265 0-0.265 0-0.265 0.264v5.556c0 0.293 0.237 0.53 0.53 0.53h12.7a0.529 0.529 0 0 0 0.529-0.53v-5.556c0-0.265 0-0.265-0.265-0.265h-7.408c0-0.265 0.028-0.53-0.265-0.53z" fill="#fff" fill-opacity=".976" style="paint-order:markers stroke fill"/>
  <path d="m8.467 284.3c-0.293 0-0.382 0.276-0.53 0.53l-0.308 0.528h-6.835c-0.265 0-0.265 0.265-0.265 0.265v8.996c0 0.264 0.265 0.264 0.265 0.264h15.346c0.264 0 0.264-0.264 0.264-0.264v-10.054c0-0.265-0.264-0.265-0.264-0.265z" fill="none" stroke="#003779" stroke-opacity=".561" stroke-width=".529" style="paint-order:markers stroke fill"/>
  <path d="m8.467 284.3c-0.293 0-0.382 0.276-0.53 0.53l-0.308 0.528h-6.835c-0.265 0-0.265 0.265-0.265 0.265v8.996c0 0.264 0.265 0.264 0.265 0.264h15.346c0.264 0 0.264-0.264 0.264-0.264v-10.054c0-0.265-0.264-0.265-0.264-0.265z" fill="#6ba4e7" style="paint-order:markers stroke fill"/>
  <rect x="3.44" y="282.98" width="3.704" height=".529" rx=".265" ry=".265" fill-opacity=".267" style="paint-order:markers stroke fill"/>
 </g>
 <path d="m6.087 9.441-2e-3 -1.699 1.905-0.284v1.983zm2.22-2.033 2.54-0.406v2.439h-2.54zm2.54 2.381v2.439l-2.54-0.392v-2.047zm-2.857 2.002-1.903-0.286v-1.716h1.903z" fill="#fff"/>
</svg>
