<svg xmlns="http://www.w3.org/2000/svg" width="64" height="64" viewBox="0 0 16.933 16.933"><g paint-order="markers stroke fill" transform="translate(0 -280.067)"><rect width="14.288" height="14.288" x="1.323" y="281.39" rx=".529" ry=".529" fill="#2196f3"/><path d="M1.852 281.39a.528.528 0 0 0-.53.529v13.229c0 .293.237.53.53.53h13.23a.529.529 0 0 0 .528-.53v-13.23a.528.528 0 0 0-.529-.528H1.852zm0 .264h13.23c.146 0 .264.118.264.265v13.229a.264.264 0 0 1-.265.265H1.852a.264.264 0 0 1-.265-.265v-13.23c0-.146.119-.264.265-.264z" opacity=".25"/></g><path d="M4.852 8.202l-.003-2.58 2.894-.431v3.011zm3.374-3.088l3.857-.616v3.704H8.226zm3.858 3.617l-.001 3.704-3.857-.595V8.731zm-4.34 3.042l-2.892-.435V8.73h2.891v3.042z" fill="#fff"/></svg>