<svg xmlns="http://www.w3.org/2000/svg" width="64" height="64" viewBox="0 0 16.933 16.933"><g transform="translate(0 -280.067)"><g paint-order="markers stroke fill"><rect width="14.288" height="14.288" x="1.323" y="281.39" rx=".529" ry=".529" fill="#2196f3"/><path d="M1.852 281.39a.528.528 0 0 0-.53.529v13.229c0 .293.237.53.53.53h13.23a.529.529 0 0 0 .528-.53v-13.23a.528.528 0 0 0-.529-.528zm0 .264h13.23c.146 0 .264.118.264.265v13.229a.264.264 0 0 1-.265.265H1.852a.264.264 0 0 1-.265-.265v-13.23c0-.146.119-.264.265-.264z" opacity=".25"/></g><path d="M4.852 288.269l-.003-2.58 2.894-.432v3.012zm3.374-3.089l3.857-.615v3.704H8.226zm3.858 3.618l-.001 3.704-3.857-.595v-3.11zm-4.34 3.041l-2.892-.435v-2.606h2.891v3.041z" fill="#fff"/><circle r="3.175" cy="292.767" cx="12.7" fill="#f55" stroke="#e73d3d" stroke-width=".529" paint-order="stroke markers fill"/><circle cx="12.7" cy="292.767" r="3.175" fill="#f55" paint-order="stroke markers fill"/><rect width="4.233" height=".529" x="213.881" y="197.772" rx="0" ry="0" transform="rotate(45)" fill="#fff" paint-order="markers stroke fill"/><rect transform="scale(-1 1) rotate(45)" ry="0" rx="0" y="215.733" x="195.92" height=".529" width="4.233" fill="#fff" paint-order="markers stroke fill"/></g></svg>