<svg width="64" height="64" version="1.1" xmlns="http://www.w3.org/2000/svg">
 <circle cx="32" cy="32" r="27" fill="#e82e34" stroke="#a71b20" stroke-width="2" style="paint-order:stroke fill markers"/>
 <circle cx="32" cy="32" r="27" fill="#e82e34"/>
 <path transform="matrix(1.3472 0 0 1.4167 -1.8631 -2.6084)" d="m31.075 24.429-10.392 6v-12l5.1962 3z" fill="#ffffff"/>
 <path d="m32 15a17 17 0 0 0-17 17 17 17 0 0 0 17 17 17 17 0 0 0 17-17 17 17 0 0 0-17-17zm-0.027344 3a14 14 0 0 1 0.027344 0 14 14 0 0 1 14 14 14 14 0 0 1-14 14 14 14 0 0 1-14-14 14 14 0 0 1 13.973-14z" fill="#ffffff"/>
</svg>
