<svg xmlns="http://www.w3.org/2000/svg" height="64" width="64"><path style="isolation:auto;mix-blend-mode:normal;marker:none" d="M57.235 46.64c-1.02 1.757-23.196 14.499-25.236 14.5-2.04-.001-24.214-12.743-25.235-14.5-1.02-1.759-1.02-27.243 0-29C7.784 15.882 29.96 3.14 32 3.14c2.04 0 24.215 12.742 25.236 14.5 1.02 1.758 1.02 27.242 0 29z" display="block" overflow="visible" color="#000" fill="#423c50" paint-order="fill markers stroke" stroke="#000" stroke-opacity=".196"/><path style="isolation:auto;mix-blend-mode:normal;marker:none" d="M51.412 43.415c-.784 1.333-17.842 11-19.411 11-1.57 0-18.629-9.667-19.413-11-.783-1.333-.784-20.667 0-22 .784-1.334 17.843-11 19.412-11 1.57 0 18.628 9.667 19.412 11 .784 1.333.784 20.667 0 22z" display="block" overflow="visible" color="#000" opacity=".15" fill="#fff" paint-order="fill markers stroke"/><path d="M20.95 46h22.1v-5.8H30.1l12.55-18.25V18h-20.3v5.8h11.1l-12.5 18.25z" aria-label="z" font-weight="700" font-size="50" font-family="sans-serif" letter-spacing="0" word-spacing="0" fill="#f55"/></svg>