<svg width="64" height="64" xmlns="http://www.w3.org/2000/svg"><defs><filter id="a" x="-.039" y="-.033" width="1.078" height="1.067" color-interpolation-filters="sRGB"><feGaussianBlur stdDeviation=".206"/></filter></defs><path transform="scale(3.7796)" d="M3.44 1.354a1.32 1.32 0 0 0-1.323 1.323v12.171c0 .733.59 1.323 1.323 1.323h10.053a1.32 1.32 0 0 0 1.323-1.323V4.53l-3.175-3.175z" fill-rule="evenodd" filter="url(#a)" opacity=".15" style="paint-order:stroke fill markers"/><g fill-rule="evenodd"><path d="M13 4c-2.77 0-5 2.23-5 5v46c0 2.77 2.23 5 5 5h38c2.77 0 5-2.23 5-5V16L44 4z" fill="#9fda1e" style="paint-order:stroke fill markers"/><path d="m14.816 4.233-3.175-3.175V2.91c0 .733.59 1.323 1.323 1.323z" fill="#fff" opacity=".35" style="paint-order:stroke fill markers" transform="scale(3.7796)"/></g><g fill="#fff" opacity=".75" color="#000"><path d="M19.003 31v6.5c0 .277.223.5.5.5h3c.277 0 .5-.223.5-.5V31zm1 4h2v2h-2zM21.002 4v2h2V4zm0 2h-2v2h2zm0 2v2h2V8zm0 2h-2v2h2zm0 2v2h2v-2zm0 2h-2v2h2zm0 2v2h2v-2zm0 2h-2v2h2zm0 2v2h2v-2zm0 2h-2v2h2zm0 2v2h2v-2zm0 2h-2v2h2zm0 2v2h2v-2z"/></g><path d="M43.998 11v.584c0 3 2.23 5.416 5 5.416h7v-1h-7c-2.77 0-5-2.23-5-5z" fill-rule="evenodd" opacity=".1" style="paint-order:stroke fill markers"/><path d="m45.883 44.933 2.167-2.167a.825.825 0 0 0 0-1.183.825.825 0 0 0-1.184 0L44.4 44.05A9.732 9.732 0 0 0 40 43c-1.6 0-3.1.383-4.434 1.05l-2.483-2.467a.825.825 0 0 0-1.183 0 .825.825 0 0 0 0 1.183l2.183 2.184C31.616 46.766 30 49.683 30 53h20a9.942 9.942 0 0 0-4.117-8.067zm-9.455 4.495H35V48h1.428zm8.572 0H43.57V48H45z" enable-background="new" fill="#fff" opacity=".75"/></svg>