<svg width="64" height="64" viewBox="0 0 16.933 16.933" xmlns="http://www.w3.org/2000/svg"><defs><filter id="a" x="-.039" y="-.033" width="1.078" height="1.067" color-interpolation-filters="sRGB"><feGaussianBlur stdDeviation=".206"/></filter></defs><path d="M3.44 1.354a1.32 1.32 0 0 0-1.323 1.323v12.171c0 .733.59 1.323 1.323 1.323h10.053a1.32 1.32 0 0 0 1.323-1.323V4.53l-3.175-3.175z" fill-rule="evenodd" filter="url(#a)" opacity=".15" style="paint-order:stroke fill markers"/><g fill-rule="evenodd"><path transform="scale(.26458)" d="M13 4c-2.77 0-5 2.23-5 5v46c0 2.77 2.23 5 5 5h38c2.77 0 5-2.23 5-5V16L44 4z" fill="#ff7643" style="paint-order:stroke fill markers"/><path d="m14.816 4.233-3.175-3.175V2.91c0 .733.59 1.323 1.323 1.323z" fill="#fff" opacity=".35" style="paint-order:stroke fill markers"/></g><g fill="#fff" opacity=".75" color="#000"><path d="M5.028 8.202v1.72c0 .073.059.132.132.132h.794a.132.132 0 0 0 .132-.132v-1.72zm.265 1.058h.529v.53h-.53zM5.557 1.058v.53h.53v-.53zm0 .53h-.53v.529h.53zm0 .529v.529h.53v-.53zm0 .529h-.53v.529h.53zm0 .529v.53h.53v-.53zm0 .53h-.53v.528h.53zm0 .528v.53h.53v-.53zm0 .53h-.53v.529h.53zm0 .529v.529h.53v-.53zm0 .529h-.53v.529h.53zm0 .529v.53h.53v-.53zm0 .53h-.53v.528h.53zm0 .528v.53h.53v-.53z"/></g><path d="M11.641 2.91v.155c0 .794.59 1.433 1.323 1.433h1.852v-.265h-1.852A1.32 1.32 0 0 1 11.64 2.91z" fill-rule="evenodd" opacity=".1" style="paint-order:stroke fill markers"/><path d="M10.416 8.997a4.599 4.599 0 0 0-.52.03c-.575.089-1.035.29-1.332.584a1.185 1.185 0 0 0-.322.554c-.035.134-.047.442-.01.56.12.415.406.734.946 1.054.229.135.406.224.915.454.612.275.798.385.885.523.033.056.046.085.041.152-.01.106-.062.159-.187.204a.62.62 0 0 1-.27.039c-.289-.003-.543-.057-.895-.183a3.255 3.255 0 0 1-.697-.341c-.204-.133-.22-.139-.28-.106a8.352 8.352 0 0 0-.625.561c-.16.156-.162.188-.052.296.11.107.415.334.583.432.182.107.304.167.51.242.344.128.633.181 1.175.227.123.01.563.012.717 0 .848-.068 1.54-.344 1.903-.75.131-.144.21-.267.271-.44a1.55 1.55 0 0 0 .03-.697c-.072-.323-.267-.617-.581-.863-.316-.248-.636-.413-1.404-.72-.537-.214-.739-.328-.791-.447-.028-.064-.012-.177.03-.22.085-.086.248-.116.46-.091.392.048.896.228 1.34.477.087.048.17.088.188.091.072.019.115-.01.406-.341.356-.408.352-.392.156-.53-.585-.42-1.262-.662-2.038-.735a5.432 5.432 0 0 0-.552-.016z" fill="#fff" opacity=".75"/></svg>