<svg width="64" height="64" xmlns="http://www.w3.org/2000/svg"><defs><filter id="a" x="-.039" y="-.033" width="1.078" height="1.067" color-interpolation-filters="sRGB"><feGaussianBlur stdDeviation=".206"/></filter></defs><path transform="scale(3.7796)" d="M3.44 1.354a1.32 1.32 0 0 0-1.323 1.323v12.171c0 .733.59 1.323 1.323 1.323h10.053a1.32 1.32 0 0 0 1.323-1.323V4.53l-3.175-3.175z" fill-rule="evenodd" filter="url(#a)" opacity=".15" style="paint-order:stroke fill markers"/><g fill-rule="evenodd"><path d="M13 4c-2.77 0-5 2.23-5 5v46c0 2.77 2.23 5 5 5h38c2.77 0 5-2.23 5-5V16L44 4z" fill="#f4f4f4" style="paint-order:stroke fill markers"/><path d="m14.816 4.233-3.175-3.175V2.91c0 .733.59 1.323 1.323 1.323z" fill="#bbb" style="paint-order:stroke fill markers" transform="scale(3.7796)"/></g><path d="M32 20c-4.432 0-8 3.568-8 8v4h-1v5.687l.406-.53c.582-.781 2.131-1.897 3.344-2.376.639-.252 2.173-.53 3.906-.719C33.267 33.77 38.2 34 40 32v-4c0-4.432-3.568-8-8-8zm.656.969c.38.022.751.066 1.125.156 1.345.323 1.496.634.188.375-2.06-.408-4.794.508-6.469 2.187-.5.503-1.133 1.334-1.406 1.844-.564 1.052-.475.374.125-.906 1.097-2.341 3.783-3.811 6.437-3.656zM32 24c2.216 0 4 1.784 4 4v4h-8v-4c0-2.216 1.784-4 4-4zm9 9.156-1.063.875c-.577.492-1.48 1.164-2.03 1.5-1.126.688-3.795 1.656-4.595 1.656-.3 0-.476.073-.406.188.134.216 1.731.119 3.406-.219.55-.11 1.827-.61 2.844-1.125L41 35.094v-1.938zm0 2.156-.563.782c-1.865 2.571-4.903 3.996-9.125 4.25-2.819.169-1.787.49 1.594.5 2.29.003 2.807-.067 4.188-.532.864-.29 1.581-.512 1.625-.468.157.157-1.533 1.556-2.469 2.031-1.793.91-3.014 1.165-6.25 1.312-2.299.105-3.243.224-3.688.47-.566.311-.192.333 7.032.343H41v-8.688z" fill="#0093dd" overflow="visible"/><path d="M43.998 11v.584c0 3 2.23 5.416 5 5.416h7v-1h-7c-2.77 0-5-2.23-5-5z" fill-rule="evenodd" opacity=".1" style="paint-order:stroke fill markers"/></svg>