<svg width="64" height="64" xmlns="http://www.w3.org/2000/svg"><defs><filter id="a" x="-.039" y="-.033" width="1.078" height="1.067" color-interpolation-filters="sRGB"><feGaussianBlur stdDeviation=".206"/></filter></defs><g fill-rule="evenodd"><path d="M3.44 1.354a1.32 1.32 0 0 0-1.323 1.323v12.171c0 .733.59 1.323 1.323 1.323h10.053a1.32 1.32 0 0 0 1.323-1.323V4.53l-3.175-3.175z" filter="url(#a)" opacity=".15" style="paint-order:stroke fill markers" transform="scale(3.7796)"/><path d="M3.44 1.059a1.32 1.32 0 0 0-1.323 1.323v12.17c0 .734.59 1.324 1.323 1.324h10.053a1.32 1.32 0 0 0 1.323-1.323V4.233L11.641 1.06z" fill="#56cc56" style="paint-order:stroke fill markers" transform="scale(3.7796)"/><path d="m14.816 4.233-3.175-3.175V2.91c0 .733.59 1.323 1.323 1.323z" fill="#fff" opacity=".35" style="paint-order:stroke fill markers" transform="scale(3.7796)"/></g><path d="M43.998 11v.584c0 3 2.23 5.416 5 5.416h7v-1h-7c-2.77 0-5-2.23-5-5z" fill-rule="evenodd" opacity=".1" style="paint-order:stroke fill markers"/><path d="M35 21c-.554 0-1 .446-1 1v2H22c-.554 0-1 .446-1 1v17c0 .554.446 1 1 1h17c.554 0 1-.446 1-1v-4h2c.554 0 1-.446 1-1V22c0-.554-.446-1-1-1h-7zm0 1h7v15h-2V25c0-.554-.446-1-1-1-1.556-.611-4.061-.985-4-2zm-12 5h15v4H23v-4zm0 6h7v1h-7v-1zm8 0h7v1h-7v-1zm-8 3h7v1h-7v-1zm8 0h7v1h-7v-1zm-8 3h7v1h-7v-1zm8 0h7v1h-7v-1z" color="#000" fill="#fff" opacity=".9" style="isolation:auto;mix-blend-mode:normal"/></svg>