<svg width="64" height="64" xmlns="http://www.w3.org/2000/svg"><defs><filter id="a" x="-.039" y="-.033" width="1.078" height="1.067" color-interpolation-filters="sRGB"><feGaussianBlur stdDeviation=".206"/></filter></defs><path transform="scale(3.7796)" d="M3.44 1.354a1.32 1.32 0 0 0-1.323 1.323v12.171c0 .733.59 1.323 1.323 1.323h10.053a1.32 1.32 0 0 0 1.323-1.323V4.53l-3.175-3.175z" fill-rule="evenodd" filter="url(#a)" opacity=".15" style="paint-order:stroke fill markers"/><g fill-rule="evenodd"><path d="M13 4c-2.77 0-5 2.23-5 5v46c0 2.77 2.23 5 5 5h38c2.77 0 5-2.23 5-5V16L44 4z" fill="#f85879" style="paint-order:stroke fill markers"/><path d="m14.816 4.233-3.175-3.175V2.91c0 .733.59 1.323 1.323 1.323z" fill="#fff" opacity=".35" style="paint-order:stroke fill markers" transform="scale(3.7796)"/></g><g fill="#fff" opacity=".75" color="#000"><path d="M19.003 31v6.5c0 .277.223.5.5.5h3c.277 0 .5-.223.5-.5V31zm1 4h2v2h-2zM21.002 4v2h2V4zm0 2h-2v2h2zm0 2v2h2V8zm0 2h-2v2h2zm0 2v2h2v-2zm0 2h-2v2h2zm0 2v2h2v-2zm0 2h-2v2h2zm0 2v2h2v-2zm0 2h-2v2h2zm0 2v2h2v-2zm0 2h-2v2h2zm0 2v2h2v-2z"/></g><path d="M43.998 11v.584c0 3 2.23 5.416 5 5.416h7v-1h-7c-2.77 0-5-2.23-5-5z" fill-rule="evenodd" opacity=".1" style="paint-order:stroke fill markers"/><path d="M41.653 55.371c-1.18-.197-2.872-.865-3.92-1.549-2.302-1.501-3.806-3.168-4.736-5.25-.31-.692-.478-1.23-.961-3.055-.12-.455-.27-.955-.332-1.112-.106-.265-.11-.354-.065-1.238.044-.84.186-1.977.262-2.096.015-.023.05-.029.078-.012.094.055.18-.203.266-.791.047-.322.12-.66.163-.751.044-.091.116-.292.163-.446.106-.355.25-.627.698-1.316.196-.303.4-.632.454-.733.063-.118.131-.175.194-.163.06.011.16-.065.265-.203.455-.6 2.596-2.371 2.795-2.31.054.016.28-.059.502-.166.402-.194.579-.24.579-.147 0 .027-.058.087-.13.134-.124.083-.121.084.072.04.11-.026.297-.063.414-.082.144-.023.203-.058.183-.108-.018-.043.024-.087.103-.107.197-.05.505-.042.505.014 0 .067-.176.135-.315.122-.096-.01-.1-.001-.03.045.072.047.073.057.006.058-.045 0-.067.015-.049.032.018.017.138-.02.266-.083.128-.062.363-.14.522-.173.195-.04.288-.087.288-.145 0-.074.091-.08.703-.048.387.02.97.078 1.296.129.593.093.593.093.815-.03.265-.146.691-.165.803-.035a.985.985 0 0 0 .251.173c.158.079.169.079.102.001-.127-.147-.001-.143.49.015 1.58.508 2.868 1.412 3.824 2.685.227.302.24.438.026.254l-.123-.105.094.176a.824.824 0 0 1 .094.242c0 .037.152.304.338.595.418.655.536.876.508.957-.013.035-.198-.196-.413-.513a13.696 13.696 0 0 0-.706-.949c-.259-.305-.327-.358-.38-.292a.343.343 0 0 1-.192.097l-.128.018.127.238c.07.13.136.21.147.178.06-.173.341.055.47.382.04.106.15.324.244.485.093.16.158.303.143.317-.014.014-.099-.03-.189-.098l-.162-.123.11.183c.062.1.164.224.228.274.08.062.118.16.121.313.007.281.175.614.267.527.142-.137.171-.052.136.396-.027.33-.013.548.05.779.095.35.075.437-.065.273-.088-.104-.089-.104-.05.004.086.232.15.579.131.715-.032.254-.132.148-.166-.177l-.033-.318-.01.338c-.005.186-.051.545-.102.798-.05.256-.076.566-.058.697.035.248.01.257-.205.08-.088-.072-.103-.058-.163.157-.05.18-.05.284.002.435.038.11.06.257.048.329-.025.165-.163.217-.163.06 0-.196-.078-.126-.315.284-.642 1.106-1.658 1.962-2.807 2.366-.678.238-1.132.326-1.897.368l-.688.038.34.1c.274.082.435.094.832.063.52-.04 1.129-.148 1.405-.25.11-.04.185-.041.223-.005.09.086-.708.425-1.183.502-.806.131-1.887-.01-2.84-.371-.647-.246-1.607-.884-1.46-.971.028-.017.21.067.406.185.25.152.355.192.355.135 0-.108.037-.103.236.033.179.122.73.35 1.127.464.432.126.265-.026-.316-.286-1.835-.82-2.597-1.642-2.976-3.208-.14-.574.01-1.833.264-2.228.064-.1.117-.223.117-.273 0-.218.379-.794.768-1.167.685-.658 1.398-.931 2.323-.89.447.02.638.057 1.01.199.422.161.954.499.79.502a1.9 1.9 0 0 1-.372-.12c-.254-.1-.416-.121-.992-.123-.808-.003-1.203.107-1.778.495-.815.55-1.269 1.185-1.43 2-.107.546-.11.697-.026 1.239.048.312.083.404.143.382.051-.019.08.009.08.076 0 .193.439.978.743 1.33.733.844 1.918 1.383 3.043 1.383.583 0 1.055-.107 1.49-.339.174-.093.394-.207.489-.253.334-.163.54-.348.783-.702.135-.196.281-.357.325-.357.066 0 .063.028-.015.151-.256.406.345-.331.656-.804l.349-.53-.038-.349c-.037-.334-.032-.354.135-.522.16-.162.175-.21.194-.643.016-.387.005-.467-.066-.468-.066 0-.095-.102-.123-.44-.038-.448-.418-1.956-.507-2.009-.026-.016-.1-.16-.164-.322-.216-.544-.594-1.068-1.184-1.638-.848-.821-1.917-1.455-2.927-1.736-.858-.239-2.316-.152-3.355.2-.507.172-1.007.399-1.09.496-.039.045-.094.067-.124.049-.031-.018-.022-.068.02-.117.192-.222-.443.183-.852.543-.247.218-.458.402-.47.41-.01.009.038.001.108-.017.116-.029.12-.02.058.092-.04.072-.25.203-.509.315-.433.188-.713.396-.935.692-.09.118-.094.144-.024.118.05-.018.09-.007.09.025 0 .157-.15.333-.37.436-.488.228-1.346 1.444-1.806 2.56-.205.498-.201.48-.09.48.117 0 .11.129-.052.816-.235 1-.235.969.02 2.377.312 1.716.494 2.29.84 2.645.082.083.16.26.196.438a.873.873 0 0 0 .244.487c.12.121.16.196.115.212-.091.032.193.438.452.648.13.105.227.14.332.121.229-.042.462.085.821.446.373.376.41.477.164.442-.16-.023-.163-.019-.085.096.045.066.212.225.37.353.222.18.279.257.25.341-.04.122.075.235.334.33.16.058.212.185.091.224-.036.012.19.235.502.496.352.294.589.455.623.423.089-.083.203-.058.205.046.002.113.104.23.468.547.23.2.288.225.429.187.129-.034.21-.012.392.106.363.236.583.33.771.33.186 0 .212.05.116.223-.051.092-.04.107.077.107.075 0 .287.05.47.11.417.138.59.147.486.026-.154-.178.01-.13.561.167.771.415 1.16.462 2.696.328.227-.02.3-.008.3.047 0 .048-.196.12-.558.204-.476.11-.73.132-1.707.143-.77.01-1.295-.01-1.596-.06zm-.785-8.252a.581.581 0 0 0-.157-.113l-.158-.092.135.113c.132.11.18.135.18.092zm7.898-5.769c-.018-.044-.032-.03-.035.034-.003.058.011.09.03.072.02-.018.021-.066.004-.106zm-13.053-5.81c.071-.088.07-.09-.022-.021-.055.041-.1.085-.1.096 0 .045.047.016.122-.075zm.652-.51c.057-.06.091-.11.075-.11s-.075.05-.132.11c-.057.061-.091.11-.075.11s.075-.049.132-.11zm.722-.387c.19-.06.297-.072.337-.034.04.039.187.016.463-.07.222-.07.394-.138.382-.15s-.196.034-.407.102c-.29.093-.395.107-.428.056-.054-.085-.576.083-.8.257l-.154.12.165-.095c.09-.052.29-.136.442-.185zm1.654-.14c.167-.047.293-.095.28-.107-.026-.025-.62.138-.62.17 0 .034.006.033.34-.062zm.951-.3.23-.04-.201-.005a.762.762 0 0 0-.344.08c-.093.055-.103.07-.03.045.064-.022.219-.057.345-.08zm.456-.103c.017-.028-.02-.037-.083-.021-.134.033-.15.07-.032.07.045 0 .097-.022.115-.05zm1.852.016c-.02-.018-.069-.02-.11-.004-.046.018-.032.031.034.034.06.002.095-.01.076-.03zm-.343-.06a.492.492 0 0 0-.201 0c-.055.014-.01.026.1.026s.156-.011.1-.025zM41.085 34a2.995 2.995 0 0 0-.46 0c-.134.01-.038.02.214.02.253 0 .363-.008.246-.02zm-.749-.049c-.019-.018-.068-.02-.11-.004-.045.018-.032.03.035.034.06.002.094-.011.075-.03zm-.388 13.23c-.584-.401-.8-.61-.8-.768 0-.085.02-.154.043-.154.083 0 1.06.979 1.039 1.04-.013.036-.13-.014-.282-.118zm-.3-1.02c-.304-.294-.401-.452-.279-.452.074 0 .639.62.639.701 0 .038-.007.07-.016.07-.01 0-.164-.144-.345-.319zm3.357-1.204c-.16-.062-.06-.177.2-.231.15-.03.388-.106.53-.166.14-.061.267-.101.28-.09.012.013-.052.135-.143.273-.164.248-.167.25-.48.246a1.94 1.94 0 0 1-.387-.032zm1.72-1.232c-.154-.06-.16-.161-.031-.507.11-.297.226-.356.162-.083a9.93 9.93 0 0 0-.069.317l-.026.137.114-.125c.068-.074.131-.248.154-.426.022-.165.062-.287.09-.27.071.042.064.477-.013.77-.067.255-.128.285-.38.187zm-13.573-.69c-.02-.048-.035-.236-.035-.418 0-.24.02-.324.071-.307.086.027.136.812.052.812-.03 0-.07-.04-.088-.087zm13.799-1.288c-.09-.116-.117-.207-.092-.304.052-.198.188-.17.288.06.156.358.02.526-.196.244zm-13.811-.874c-.004-.312 0-.322.143-.316.123.004.152.035.166.173.016.156-.16.465-.265.465-.022 0-.042-.145-.044-.322zm14.868-6.767c.008-.492.094-.66.161-.314.047.24-.012.664-.103.737-.05.04-.065-.068-.058-.423zm-7.537-.295c.023-.066.814-.377.96-.377.171 0-.136.201-.491.322-.396.134-.501.146-.47.055z" color="#000" fill="#fff" opacity=".75" style="isolation:auto;mix-blend-mode:normal"/></svg>