<svg width="64" height="64" viewBox="0 0 16.933 16.933" xmlns="http://www.w3.org/2000/svg"><defs><filter id="a" x="-.039" y="-.033" width="1.078" height="1.067" color-interpolation-filters="sRGB"><feGaussianBlur stdDeviation=".206"/></filter></defs><path d="M3.44 1.354a1.32 1.32 0 0 0-1.323 1.323v12.171c0 .733.59 1.323 1.323 1.323h10.053a1.32 1.32 0 0 0 1.323-1.323V4.53l-3.175-3.175z" fill-rule="evenodd" filter="url(#a)" opacity=".15" style="paint-order:stroke fill markers"/><g fill-rule="evenodd"><path transform="scale(.26458)" d="M13 4c-2.77 0-5 2.23-5 5v46c0 2.77 2.23 5 5 5h38c2.77 0 5-2.23 5-5V16L44 4H13z" fill="#d253c8" style="paint-order:stroke fill markers"/><path d="m14.816 4.233-3.175-3.175V2.91c0 .733.59 1.323 1.323 1.323z" fill="#fff" opacity=".35" style="paint-order:stroke fill markers"/></g><g fill="#fff" opacity=".75" color="#000"><path d="M7.937 8.202v1.72c0 .073.059.132.132.132h.794a.132.132 0 0 0 .132-.132v-1.72zm.265 1.058h.529v.53H8.2zM8.466 1.058v.53h.53v-.53zm0 .53h-.53v.529h.53zm0 .529v.529h.53v-.53zm0 .529h-.53v.529h.53zm0 .529v.53h.53v-.53zm0 .53h-.53v.528h.53zm0 .528v.53h.53v-.53zm0 .53h-.53v.529h.53zm0 .529v.529h.53v-.53zm0 .529h-.53v.529h.53zm0 .529v.53h.53v-.53zm0 .53h-.53v.528h.53zm0 .528v.53h.53v-.53z"/></g><path d="M11.641 2.91v.155c0 .794.59 1.433 1.323 1.433h1.852v-.265h-1.852A1.32 1.32 0 0 1 11.64 2.91z" fill-rule="evenodd" opacity=".1" style="paint-order:stroke fill markers"/></svg>