<svg width="64" height="64" viewBox="0 0 16.933 16.933" xmlns="http://www.w3.org/2000/svg"><defs><filter id="a" x="-.039" y="-.033" width="1.078" height="1.067" color-interpolation-filters="sRGB"><feGaussianBlur stdDeviation=".206"/></filter></defs><path d="M3.44 1.354a1.32 1.32 0 0 0-1.323 1.323v12.171c0 .733.59 1.323 1.323 1.323h10.053a1.32 1.32 0 0 0 1.323-1.323V4.53l-3.175-3.175z" fill-rule="evenodd" filter="url(#a)" opacity=".15" style="paint-order:stroke fill markers"/><g fill-rule="evenodd"><path transform="scale(.26458)" d="M13 4c-2.77 0-5 2.23-5 5v46c0 2.77 2.23 5 5 5h38c2.77 0 5-2.23 5-5V16L44 4z" fill="#f4f4f4" style="paint-order:stroke fill markers"/><path d="m14.816 4.233-3.175-3.175V2.91c0 .733.59 1.323 1.323 1.323z" fill="#bbb" style="paint-order:stroke fill markers"/></g><g fill="#b3b3b3"><path transform="scale(.26458)" d="M20 28c-2.216 0-4 1.784-4 4s1.784 4 4 4h6a3.975 3.975 0 0 0 3.45-2h-1.247c-.547.605-1.32 1-2.203 1h-6c-1.662 0-3-1.338-3-3s1.338-3 3-3h6c.884 0 1.656.395 2.203 1h1.246A3.975 3.975 0 0 0 26 28h-6zM38 28a3.975 3.975 0 0 0-3.45 2h1.247c.547-.605 1.32-1 2.203-1h6c1.662 0 3 1.338 3 3s-1.338 3-3 3h-6c-.884 0-1.656-.395-2.203-1H34.55c.69 1.193 1.966 2 3.449 2h6c2.216 0 4-1.784 4-4s-1.784-4-4-4h-6z" style="paint-order:fill markers stroke"/></g><path d="M7.673 8.202H9.26a.264.264 0 1 1 0 .53H7.673a.264.264 0 1 1 0-.53z" fill="#b3b3b3" style="paint-order:fill markers stroke"/><path d="M11.641 2.91v.155c0 .794.59 1.433 1.323 1.433h1.852v-.265h-1.852A1.32 1.32 0 0 1 11.64 2.91z" fill-rule="evenodd" opacity=".1" style="paint-order:stroke fill markers"/></svg>