<svg width="64" height="64" xmlns="http://www.w3.org/2000/svg"><defs><filter id="a" x="-.039" y="-.033" width="1.078" height="1.067" color-interpolation-filters="sRGB"><feGaussianBlur stdDeviation=".206"/></filter></defs><g fill-rule="evenodd"><path d="M3.44 1.354a1.32 1.32 0 0 0-1.323 1.323v12.171c0 .733.59 1.323 1.323 1.323h10.053a1.32 1.32 0 0 0 1.323-1.323V4.53l-3.175-3.175z" filter="url(#a)" opacity=".15" style="paint-order:stroke fill markers" transform="scale(3.7796)"/><path d="M3.44 1.059a1.32 1.32 0 0 0-1.323 1.323v12.17c0 .734.59 1.324 1.323 1.324h10.053a1.32 1.32 0 0 0 1.323-1.323V4.233L11.641 1.06z" fill="#3d58a5" style="paint-order:stroke fill markers" transform="scale(3.7796)"/><path d="m14.816 4.233-3.175-3.175V2.91c0 .733.59 1.323 1.323 1.323z" fill="#fff" opacity=".35" style="paint-order:stroke fill markers" transform="scale(3.7796)"/></g><path d="M43.998 11v.584c0 3 2.23 5.416 5 5.416h7v-1h-7c-2.77 0-5-2.23-5-5z" fill-rule="evenodd" opacity=".1" style="paint-order:stroke fill markers"/><path d="M22 21c-.554 0-1 .446-1 1v20c0 .554.446 1 1 1h20c.554 0 1-.446 1-1V22c0-.554-.446-1-1-1zm0 1h20v20H22zm15.5 1.5L35 26h-6.05a2.5 2.5 0 0 0-2.45-2 2.5 2.5 0 0 0-2.5 2.5 2.5 2.5 0 0 0 2 2.445v9.05h4v2h5v-2h3v-9l2.5-2.5zm0 1.199 1.801 1.801-1.801 1.801-1.5-1.5v-.602zm-11 .3a1.5 1.5 0 0 1 1.5 1.5 1.5 1.5 0 0 1-1.5 1.5 1.5 1.5 0 0 1-1.5-1.5 1.5 1.5 0 0 1 1.5-1.5m2.445 2h6.05l2 2v8h-2v-2h-5v2h-3v-8.05a2.5 2.5 0 0 0 1.945-1.948m2.055 9h3v3h-3z" fill="#fff" opacity=".75"/></svg>