<svg viewBox="0 0 64 64" xmlns="http://www.w3.org/2000/svg"><defs><filter id="a" x="-.039" y="-.033" width="1.078" height="1.067" color-interpolation-filters="sRGB"><feGaussianBlur stdDeviation=".206"/></filter></defs><path transform="scale(3.7796)" d="M3.44 1.354a1.32 1.32 0 0 0-1.323 1.323v12.171c0 .733.59 1.323 1.323 1.323h10.053a1.32 1.32 0 0 0 1.323-1.323V4.53l-3.175-3.175z" fill-rule="evenodd" filter="url(#a)" opacity=".15" style="paint-order:stroke fill markers"/><g fill-rule="evenodd"><path d="M13 4c-2.77 0-5 2.23-5 5v46c0 2.77 2.23 5 5 5h38c2.77 0 5-2.23 5-5V16L44 4z" fill="#f4f4f4" style="paint-order:stroke fill markers"/><path d="m14.816 4.233-3.175-3.175V2.91c0 .733.59 1.323 1.323 1.323z" fill="#bbb" style="paint-order:stroke fill markers" transform="scale(3.7796)"/></g><path d="M41.001 20c-.355-.004-.827.051-1.456.146L29.09 21.744c-2.524.538-2.515.705-2.524 2.838v17.303c-.105-.074-.209-.148-.318-.221-.802-.537-1.656-.92-2.804-.92-1.438 0-2.296.551-2.815 1.277-.52.725-.691 1.639-.691 2.346 0 .852.29 1.761.922 2.454.63.693 1.601 1.179 2.996 1.179 1.576 0 2.684-.44 3.31-1.3.494-.676.767-1.58.864-2.694v-.004c.014-.135.023-.274.032-.417.013-.22.01-.632.01-.632v-13.25c0-1.892 0-2.005 2.525-2.437l7.435-1.166c2.53-.33 2.53-.1 2.53 1.32v12.16c-.102-.072-.204-.144-.31-.215-.801-.537-1.656-.92-2.804-.92-1.438 0-2.296.551-2.815 1.276-.519.726-.691 1.64-.691 2.347 0 .852.291 1.761.922 2.454.632.693 1.602 1.179 2.997 1.179 1.576 0 2.684-.44 3.31-1.3.494-.676.766-1.58.863-2.694v-.004c.014-.135.024-.274.032-.417.014-.22.011-.633.011-.633V22.221c0-1.66-.01-2.21-1.076-2.221z" enable-background="new" fill="#f9d351"/><path d="M43.998 11v.584c0 3 2.23 5.416 5 5.416h7v-1h-7c-2.77 0-5-2.23-5-5z" fill-rule="evenodd" opacity=".1" style="paint-order:stroke fill markers"/></svg>