<svg width="64" height="64" viewBox="0 0 16.933 16.933" xmlns="http://www.w3.org/2000/svg"><defs><filter id="a" x="-.039" y="-.033" width="1.078" height="1.067" color-interpolation-filters="sRGB"><feGaussianBlur stdDeviation=".206"/></filter></defs><path d="M3.44 1.354a1.32 1.32 0 0 0-1.323 1.323v12.171c0 .733.59 1.323 1.323 1.323h10.053a1.32 1.32 0 0 0 1.323-1.323V4.53l-3.175-3.175z" fill-rule="evenodd" filter="url(#a)" opacity=".15" style="paint-order:stroke fill markers"/><g fill-rule="evenodd"><path transform="scale(.26458)" d="M13 4c-2.77 0-5 2.23-5 5v46c0 2.77 2.23 5 5 5h38c2.77 0 5-2.23 5-5V16L44 4H13z" fill="#f4f4f4" style="paint-order:stroke fill markers"/><path d="m14.816 4.233-3.175-3.175V2.91c0 .733.59 1.323 1.323 1.323z" fill="#bbb" style="paint-order:stroke fill markers"/></g><g fill="#b3b3b3"><path d="M5.755 8.174h-.31V6.569q0-.337.015-.633l-.479.408-.169-.21.676-.536h.267zM6.656 6.879q0-.661.197-.985.211-.338.62-.338.421 0 .618.338.212.324.212.985t-.212 1q-.197.323-.619.323-.408 0-.619-.324-.197-.338-.197-.999zm1.323 0q0-.591-.14-.816-.127-.225-.367-.225-.225 0-.366.225-.126.21-.126.816 0 .62.126.844.141.211.366.211.24 0 .366-.225.14-.225.14-.83zM8.64 6.879q0-.661.197-.985.212-.338.62-.338.422 0 .619.338.211.324.211.985t-.211 1q-.197.323-.62.323-.407 0-.619-.324-.197-.338-.197-.999zm1.323 0q0-.591-.14-.816-.127-.225-.366-.225-.226 0-.366.225-.127.21-.127.816 0 .62.127.844.14.211.366.211.239 0 .366-.225.14-.225.14-.83zM10.625 6.879q0-.661.197-.985.211-.338.62-.338.421 0 .618.338.212.324.212.985t-.212 1q-.197.323-.619.323-.408 0-.619-.324-.197-.338-.197-.999zm1.323 0q0-.591-.14-.816-.127-.225-.367-.225-.225 0-.366.225-.126.21-.126.816 0 .62.126.844.141.211.366.211.24 0 .366-.225.14-.225.14-.83zM4.672 10.054q0-.661.197-.985.21-.338.619-.338.422 0 .62.338.21.324.21.985t-.21 1q-.198.323-.62.323-.408 0-.62-.324-.196-.338-.196-.999zm1.323 0q0-.591-.141-.816-.127-.225-.366-.225-.225 0-.366.225-.127.21-.127.816 0 .62.127.844.14.212.366.212.24 0 .366-.226.14-.225.14-.83zM7.74 11.349h-.31V9.745q0-.338.014-.634l-.478.408-.17-.21.676-.535h.268zM8.64 10.054q0-.661.197-.985.212-.338.62-.338.422 0 .619.338.211.324.211.985t-.211 1q-.197.323-.62.323-.407 0-.619-.324-.197-.338-.197-.999zm1.323 0q0-.591-.14-.816-.127-.225-.366-.225-.226 0-.366.225-.127.21-.127.816 0 .62.127.844.14.212.366.212.239 0 .366-.226.14-.225.14-.83zM10.625 10.054q0-.661.197-.985.211-.338.62-.338.421 0 .618.338.212.324.212.985t-.212 1q-.197.323-.619.323-.408 0-.619-.324-.197-.338-.197-.999zm1.323 0q0-.591-.14-.816-.127-.225-.367-.225-.225 0-.366.225-.126.21-.126.816 0 .62.126.844.141.212.366.212.24 0 .366-.226.14-.225.14-.83zM4.662 13.229q0-.661.197-.985.21-.338.619-.338.422 0 .62.338.21.324.21.985t-.21 1q-.198.323-.62.323-.408 0-.62-.324-.196-.338-.196-.999zm1.323 0q0-.591-.141-.816-.127-.225-.366-.225-.225 0-.366.225-.127.21-.127.816 0 .62.127.844.14.211.366.211.24 0 .366-.225.14-.225.14-.83zM6.646 13.229q0-.661.197-.985.211-.338.62-.338.422 0 .619.338.21.324.21.985t-.21 1q-.197.323-.62.323-.408 0-.619-.324-.197-.338-.197-.999zm1.323 0q0-.591-.14-.816-.127-.225-.367-.225-.225 0-.366.225-.126.21-.126.816 0 .62.126.844.141.211.366.211.24 0 .366-.225.141-.225.141-.83zM9.714 14.524h-.31V12.92q0-.338.015-.634l-.479.408-.169-.21.676-.535h.267zM10.615 13.229q0-.661.197-.985.211-.338.62-.338.421 0 .618.338.212.324.212.985t-.212 1q-.197.323-.619.323-.408 0-.619-.324-.197-.338-.197-.999zm1.323 0q0-.591-.14-.816-.127-.225-.367-.225-.225 0-.366.225-.126.21-.126.816 0 .62.126.844.141.211.366.211.24 0 .366-.225.14-.225.14-.83z"/></g><path d="M11.641 2.91v.155c0 .794.59 1.433 1.323 1.433h1.852v-.265h-1.852A1.32 1.32 0 0 1 11.64 2.91z" fill-rule="evenodd" opacity=".1" style="paint-order:stroke fill markers"/></svg>