<svg width="64" height="64" viewBox="0 0 16.933 16.933" xmlns="http://www.w3.org/2000/svg"><defs><filter id="a" x="-.039" y="-.033" width="1.078" height="1.067" color-interpolation-filters="sRGB"><feGaussianBlur stdDeviation=".206"/></filter></defs><g fill-rule="evenodd"><path d="M3.44 1.354a1.32 1.32 0 0 0-1.323 1.323v12.171c0 .733.59 1.323 1.323 1.323h10.053a1.32 1.32 0 0 0 1.323-1.323V4.53l-3.175-3.175z" filter="url(#a)" opacity=".15" style="paint-order:stroke fill markers"/><path transform="scale(.26458)" d="M13 4c-2.77 0-5 2.23-5 5v46c0 2.77 2.23 5 5 5h38c2.77 0 5-2.23 5-5V16L44 4H13z" fill="#f4f4f4" style="paint-order:stroke fill markers"/><path d="m14.816 4.233-3.175-3.175V2.91c0 .733.59 1.323 1.323 1.323z" fill="#bbb" style="paint-order:stroke fill markers"/><g color="#000"><path d="M8.46 10.406c1.756 2.394 3.474-.668 3.472-2.51-.003-2.177-2.21-3.393-3.474-3.393-2.028 0-3.96 1.676-3.96 3.97 0 2.55 2.214 3.962 3.96 3.962-.395-.057-1.711-.339-1.73-3.372-.011-2.05.67-2.87 1.727-2.51.024.009 1.167.46 1.167 1.933 0 1.466-1.162 1.92-1.162 1.92z" fill="gray"/><path d="M8.458 6.552c-1.16-.4-2.582.556-2.582 2.472 0 3.127 2.318 3.411 2.599 3.411 2.028 0 3.96-1.676 3.96-3.97 0-2.55-2.214-3.962-3.96-3.962.483-.067 2.606.523 2.606 3.424 0 1.893-1.585 2.923-2.616 2.483-.024-.01-1.167-.46-1.167-1.933 0-1.466 1.16-1.925 1.16-1.925z" fill="#ccc"/></g><path d="M11.641 2.91v.155c0 .794.59 1.433 1.323 1.433h1.852v-.265h-1.852A1.32 1.32 0 0 1 11.64 2.91z" opacity=".1" style="paint-order:stroke fill markers"/></g></svg>