<svg width="64" height="64" viewBox="0 0 16.933 16.933" xmlns="http://www.w3.org/2000/svg"><defs><filter id="a" x="-.039" y="-.033" width="1.078" height="1.067" color-interpolation-filters="sRGB"><feGaussianBlur stdDeviation=".206"/></filter></defs><path d="M3.44 1.354a1.32 1.32 0 0 0-1.323 1.323v12.171c0 .733.59 1.323 1.323 1.323h10.053a1.32 1.32 0 0 0 1.323-1.323V4.53l-3.175-3.175z" fill-rule="evenodd" filter="url(#a)" opacity=".15" style="paint-order:stroke fill markers"/><path d="M3.44 1.058a1.32 1.32 0 0 0-1.323 1.323v12.171c0 .733.59 1.323 1.323 1.323h10.053a1.32 1.32 0 0 0 1.323-1.323V4.233l-3.174-3.175z" fill="#55c1ec" fill-rule="evenodd" style="paint-order:stroke fill markers"/><rect x="19.588" y="-1.148" width="16.933" height="16.933" rx="0" ry="0" fill="none" opacity=".75"/><path d="m14.816 4.233-3.175-3.175V2.91c0 .733.59 1.323 1.323 1.323z" fill="#fff" fill-rule="evenodd" opacity=".35" style="paint-order:stroke fill markers"/><path d="m7.54 4.762-.081.976a2.91 2.91 0 0 0-.85.492l-.887-.418-.927 1.605.806.559a2.91 2.91 0 0 0-.045.49 2.91 2.91 0 0 0 .043.493l-.804.558.927 1.604.884-.417a2.91 2.91 0 0 0 .853.489l.082.978h1.851l.082-.976a2.91 2.91 0 0 0 .85-.492l.887.418.927-1.604-.806-.56a2.91 2.91 0 0 0 .045-.49 2.91 2.91 0 0 0-.043-.493l.804-.557-.927-1.605-.884.417a2.91 2.91 0 0 0-.853-.489l-.081-.978H7.54zm.927 2.47A1.235 1.235 0 0 1 9.7 8.466a1.235 1.235 0 0 1-1.234 1.235 1.235 1.235 0 0 1-1.235-1.235 1.235 1.235 0 0 1 1.235-1.234z" enable-background="new" fill="#fff"/><path d="M11.641 2.91v.155c0 .794.59 1.433 1.323 1.433h1.852v-.265h-1.852A1.32 1.32 0 0 1 11.64 2.91z" fill-rule="evenodd" opacity=".1" style="paint-order:stroke fill markers"/></svg>