<svg width="64" height="64" viewBox="0 0 16.933 16.933" xmlns="http://www.w3.org/2000/svg"><defs><filter id="a" x="-.039" y="-.033" width="1.078" height="1.067" color-interpolation-filters="sRGB"><feGaussianBlur stdDeviation=".206"/></filter></defs><path d="M3.44 1.354a1.32 1.32 0 0 0-1.323 1.323v12.171c0 .733.59 1.323 1.323 1.323h10.053a1.32 1.32 0 0 0 1.323-1.323V4.53l-3.175-3.175z" fill-rule="evenodd" filter="url(#a)" opacity=".15" style="paint-order:stroke fill markers"/><g fill-rule="evenodd"><path transform="scale(.26458)" d="M13 4c-2.77 0-5 2.23-5 5v46c0 2.77 2.23 5 5 5h38c2.77 0 5-2.23 5-5V16L44 4H13z" fill="#f4f4f4" style="paint-order:stroke fill markers"/><path d="m14.816 4.233-3.175-3.175V2.91c0 .733.59 1.323 1.323 1.323z" fill="#bbb" style="paint-order:stroke fill markers"/></g><g fill="none" stroke="#1463a5" stroke-width=".263"><path d="M6.623 7.238s-1.118 2.408-.915 3.475c.14.742.476 1.252 1.178 1.53.417.164 1.58-.264 1.58-.264v-1.844S7.414 9.79 7.2 8.456c0 0 .113 1.14.327 1.173" enable-background="new" stroke-linecap="round" stroke-linejoin="round"/><path d="M6.162 5.13c-.807-.724-1.81-.428-1.81-.428s.526 1.663 1.514 1.499" enable-background="new"/><path d="M6.359 11.98c-.263 1.053.527 1.316 2.107.79 1.58.526 2.37.263 2.107-.79" enable-background="new" stroke-linecap="round"/><path d="M6.942 6.004c.5-.232 1.03.052 1.012.081 0 0-.173.715-.58.653-.382-.057-.432-.572-.432-.734z" enable-background="new" stroke-linejoin="round"/><path d="M10.574 8.028s.682-2.023.263-2.897c-.136-.286-.526-.488-.79-.488-.534 0-.79.224-1.58.224s-1.047-.224-1.58-.224c-.264 0-.654.202-.79.488-.42.874.263 2.897.263 2.897" enable-background="new"/><path d="M10.31 7.238s1.118 2.408.915 3.475c-.14.742-.476 1.252-1.178 1.53-.417.164-1.58-.264-1.58-.264v-1.844S9.52 9.79 9.733 8.456c0 0-.125 1.163-.34 1.196" enable-background="new" stroke-linecap="round" stroke-linejoin="round"/><path d="M10.771 5.13c.807-.724 1.81-.428 1.81-.428s-.526 1.663-1.514 1.499" enable-background="new"/><path d="M9.991 6.004c-.5-.232-1.03.052-1.012.081 0 0 .173.715.58.653.382-.057.432-.572.432-.734z" enable-background="new" stroke-linejoin="round"/></g><path d="M11.641 2.91v.155c0 .794.59 1.433 1.323 1.433h1.852v-.265h-1.852A1.32 1.32 0 0 1 11.64 2.91z" fill-rule="evenodd" opacity=".1" style="paint-order:stroke fill markers"/></svg>