<svg width="64" height="64" xmlns="http://www.w3.org/2000/svg"><defs><filter id="a" x="-.039" y="-.033" width="1.078" height="1.067" color-interpolation-filters="sRGB"><feGaussianBlur stdDeviation=".206"/></filter></defs><g fill-rule="evenodd"><path transform="scale(3.7796)" d="M3.44 1.354a1.32 1.32 0 0 0-1.323 1.323v12.171c0 .733.59 1.323 1.323 1.323h10.053a1.32 1.32 0 0 0 1.323-1.323V4.53l-3.175-3.175z" filter="url(#a)" opacity=".15" style="paint-order:stroke fill markers"/><path d="M13 4.002c-2.77 0-5 2.23-5 5v46.002c0 2.77 2.23 5 5 5h38c2.77 0 5-2.23 5-5V16.002l-12-12z" fill="#37a7e5" style="paint-order:stroke fill markers"/><path d="m55.999 16-12-12v7c0 2.77 2.23 5 5 5z" fill="#fff" opacity=".35" style="paint-order:stroke fill markers"/></g><path d="m35.546 22.581-14.517 1.84 1.037 2.287 10.511-1.553 3.801 3.912 6.125-1.073zM32.7 29.494l-9.999 1.698.974 2.555 5.44-1.027 1.394 2.41 5.762-1.241zm-3.273 8.075-4.945 1.083.948 2.767 5.338-1.349z" fill="#fff" stroke-width=".839"/><path d="M43.998 11v.584c0 3 2.23 5.416 5 5.416h7v-1h-7c-2.77 0-5-2.23-5-5z" fill-rule="evenodd" opacity=".1" style="paint-order:stroke fill markers"/></svg>