<svg width="64" height="64" xmlns="http://www.w3.org/2000/svg"><defs><filter id="a" x="-.039" y="-.033" width="1.078" height="1.067" color-interpolation-filters="sRGB"><feGaussianBlur stdDeviation=".206"/></filter></defs><g fill-rule="evenodd"><path transform="scale(3.7796)" d="M3.44 1.354a1.32 1.32 0 0 0-1.323 1.323v12.171c0 .733.59 1.323 1.323 1.323h10.053a1.32 1.32 0 0 0 1.323-1.323V4.53l-3.175-3.175z" filter="url(#a)" opacity=".15" style="paint-order:stroke fill markers"/><path d="M13 4c-2.77 0-5 2.23-5 5v46c0 2.77 2.23 5 5 5h38c2.77 0 5-2.23 5-5V16L44 4z" fill="#4d4d4d" style="paint-order:stroke fill markers"/><path d="m14.816 4.233-3.175-3.175V2.91c0 .733.59 1.323 1.323 1.323z" fill="#fff" opacity=".35" style="paint-order:stroke fill markers" transform="scale(3.7796)"/><path d="M43.998 11v.584c0 3 2.23 5.416 5 5.416h7v-1h-7c-2.77 0-5-2.23-5-5z" opacity=".1" style="paint-order:stroke fill markers"/></g><g fill="none"><path d="M21 31.513c7.043 0 8.346 8.961 11.453 8.99 3.107.024 4.506-9.011 11.547-9.011" stroke="#1d99f3"/><path d="M21 30.545c7.043 0 8.475-6.1 11.485-6.094 2.99.006 4.475 7.041 11.515 7.041" stroke="#da4453"/><path d="M21 30.545c7.043 0 7.47-10.014 11.47-10.014S36.96 31.492 44 31.492" stroke="#d6d6d6"/></g><g fill="#d6d6d6"><path color="#000" d="M20 20h1v23h-1z"/><g><path d="M20 31h24v1H20z"/><path d="M26 30h1v3h-1zM32 30h1v3h-1zM38 30h1v3h-1z"/></g></g></svg>