<svg width="64" height="64" xmlns="http://www.w3.org/2000/svg"><defs><filter id="a" x="-.039" y="-.033" width="1.078" height="1.067" color-interpolation-filters="sRGB"><feGaussianBlur stdDeviation=".206"/></filter></defs><path transform="scale(3.7796)" d="M3.44 1.354a1.32 1.32 0 0 0-1.323 1.323v12.171c0 .733.59 1.323 1.323 1.323h10.053a1.32 1.32 0 0 0 1.323-1.323V4.53l-3.175-3.175z" fill-rule="evenodd" filter="url(#a)" opacity=".15" style="paint-order:stroke fill markers"/><g fill-rule="evenodd"><path d="M13 4c-2.77 0-5 2.23-5 5v46c0 2.77 2.23 5 5 5h38c2.77 0 5-2.23 5-5V16L44 4z" fill="#ee5e5e" style="paint-order:stroke fill markers"/><path d="m14.816 4.233-3.175-3.175V2.91c0 .733.59 1.323 1.323 1.323z" fill="#fff" opacity=".35" style="paint-order:stroke fill markers" transform="scale(3.7796)"/></g><path d="m39.534 20-6.406.818c.934.466 2.216.35 2.608 1.719zm1.641.109-3.683 2.132 6.318-.06zm-9.529 2.236c-.76.044-1.672.303-2.689.81-3.252 1.62-6.313 5.102-6.84 7.774-.527 2.67 1.68 3.52 4.933 1.9 3.252-1.62 6.313-5.094 6.84-7.765.362-1.836-.57-2.814-2.244-2.719zm3.034 5.02 7.64-.11-6.296-3.806c-.01 1.211-.66 3.289-1.344 3.915zm9.239-.037.081-3.91-6.582-.415zm-.355.955-7.63.118 5.541 3.746zm-9.284.409c-4.078 5.45-13.744 10.95-13.83 2.734l-.45 9.65c.103.584.85 2.321 3.343 2.791 6.32.22 10.643.303 19.34-.882.734-4.066.69-8.264.881-12.42-2.806 4.36-5.9 7.708-9.94 9.76 2.83-2.35 5.143-4.92 7.297-7.523l-6.64-4.11z" fill="#fff"/><path d="M43.998 11v.584c0 3 2.23 5.416 5 5.416h7v-1h-7c-2.77 0-5-2.23-5-5z" fill-rule="evenodd" opacity=".1" style="paint-order:stroke fill markers"/></svg>