<svg width="64" height="64" xmlns="http://www.w3.org/2000/svg"><defs><filter id="a" x="-.039" y="-.033" width="1.078" height="1.067" color-interpolation-filters="sRGB"><feGaussianBlur stdDeviation=".206"/></filter></defs><path transform="scale(3.7796)" d="M3.44 1.354a1.32 1.32 0 0 0-1.323 1.323v12.171c0 .733.59 1.323 1.323 1.323h10.053a1.32 1.32 0 0 0 1.323-1.323V4.53l-3.175-3.175z" filter="url(#a)" opacity=".15" style="paint-order:stroke fill markers"/><path d="M13 4.002c-2.77 0-5 2.23-5 5v46.002c0 2.77 2.23 5 5 5h38c2.77 0 5-2.23 5-5V16.002l-12-12z" fill="#3b549d" fill-rule="evenodd" style="paint-order:stroke fill markers"/><path d="m55.999 16-12-12v7c0 2.77 2.23 5 5 5z" fill="#fff" fill-rule="evenodd" opacity=".35" style="paint-order:stroke fill markers"/><path d="M43.998 11v.584c0 3 2.23 5.416 5 5.416h7v-1h-7c-2.77 0-5-2.23-5-5z" opacity=".1" style="paint-order:stroke fill markers"/><path d="M21 21v22h22V21zm1 1h20v3H22zm17 5h3v1h-3zm-17 4h20v2H22zm17 4h3v1h-3zm-17 4h20v3H22z" fill="#c1cae7"/></svg>