<svg width="64" height="64" viewBox="0 0 16.933 16.933" xmlns="http://www.w3.org/2000/svg"><defs><filter id="a" x="-.039" y="-.033" width="1.078" height="1.067" color-interpolation-filters="sRGB"><feGaussianBlur stdDeviation=".206"/></filter></defs><path d="M3.44 1.354a1.32 1.32 0 0 0-1.323 1.323v12.171c0 .733.59 1.323 1.323 1.323h10.053a1.32 1.32 0 0 0 1.323-1.323V4.53l-3.175-3.175z" fill-rule="evenodd" filter="url(#a)" opacity=".15" style="paint-order:stroke fill markers"/><g fill-rule="evenodd"><path transform="scale(.26458)" d="M13 4c-2.77 0-5 2.23-5 5v46c0 2.77 2.23 5 5 5h38c2.77 0 5-2.23 5-5V16L44 4H13z" fill="#f4f4f4" style="paint-order:stroke fill markers"/><path d="m14.816 4.233-3.175-3.175V2.91c0 .733.59 1.323 1.323 1.323z" fill="#bbb" style="paint-order:stroke fill markers"/></g><path d="M7.753 4.404c-.489-.032-1.038.314-1.019.849-.057.318.25.555.236.842-.18.08-.318.08-.445.08H4.408v2.094c.165.36.503-.154.77-.098.509-.107.967.34.991.833.068.47-.114 1.082-.647 1.177a1.097 1.097 0 0 1-.834-.18c-.284-.172-.302.205-.28.39v2.133h2.434c.36-.165-.154-.502-.098-.769-.107-.509.34-.968.833-.992.47-.067 1.082.115 1.177.648.049.288-.005.597-.18.833-.172.285.205.303.39.28h1.794v-2.423c.17-.363.506.168.782.09a.823.823 0 0 0 .956-.674c.112-.492-.028-1.145-.566-1.318-.341-.116-.681.033-.97.208-.265.037-.194-.283-.202-.449V6.174H8.674c-.363-.169.168-.506.09-.781a.823.823 0 0 0-.674-.956 1.6 1.6 0 0 0-.337-.033z" color="#000" fill="#46a926"/><path d="M11.641 2.91v.155c0 .794.59 1.433 1.323 1.433h1.852v-.265h-1.852A1.32 1.32 0 0 1 11.64 2.91z" fill-rule="evenodd" opacity=".1" style="paint-order:stroke fill markers"/></svg>