<svg width="64" height="64" viewBox="0 0 16.933 16.933" xmlns="http://www.w3.org/2000/svg"><defs><filter id="a" x="-.039" y="-.033" width="1.078" height="1.067" color-interpolation-filters="sRGB"><feGaussianBlur stdDeviation=".206"/></filter></defs><path d="M3.44 1.354a1.32 1.32 0 0 0-1.323 1.323v12.171c0 .733.59 1.323 1.323 1.323h10.053a1.32 1.32 0 0 0 1.323-1.323V4.53l-3.175-3.175z" fill-rule="evenodd" filter="url(#a)" opacity=".15" style="paint-order:stroke fill markers"/><g fill-rule="evenodd"><path transform="scale(.26458)" d="M13 4c-2.77 0-5 2.23-5 5v46c0 2.77 2.23 5 5 5h38c2.77 0 5-2.23 5-5V16L44 4z" fill="#666" style="paint-order:stroke fill markers"/><path d="m14.816 4.233-3.175-3.175V2.91c0 .733.59 1.323 1.323 1.323z" fill="#fff" opacity=".35" style="paint-order:stroke fill markers"/></g><rect y="988.36" width="64" height="64" rx="0" ry="0" fill="none" opacity=".75" transform="translate(0 -261.5) scale(.26458)"/><path d="M12.7 8.466a4.222 4.222 0 0 0-4.233-4.233 4.222 4.222 0 0 0-4.233 4.234A4.222 4.222 0 0 0 8.467 12.7 4.222 4.222 0 0 0 12.7 8.467zm-2.685 0c0 .854-.679 1.55-1.548 1.55a1.541 1.541 0 0 1-1.55-1.55c0-.852.628-1.548 1.549-1.548s1.548.713 1.548 1.548z" fill="#fff" opacity=".75"/><path d="M8.466 6.349a2.118 2.118 0 1 0 .001 4.235 2.118 2.118 0 0 0 0-4.235zm0 1.058a1.059 1.059 0 1 1 0 2.118 1.059 1.059 0 0 1 0-2.118z" fill="#fff" opacity=".35" overflow="visible"/><path d="M8.466 6.481a1.985 1.985 0 1 0 .001 3.97 1.985 1.985 0 0 0 0-3.97zm0 .992a.993.993 0 1 1 0 1.985.993.993 0 0 1 0-1.985z" fill="none" overflow="visible"/><path d="M11.641 2.91v.155c0 .794.59 1.433 1.323 1.433h1.852v-.265h-1.852A1.32 1.32 0 0 1 11.64 2.91z" fill-rule="evenodd" opacity=".1" style="paint-order:stroke fill markers"/></svg>