<svg width="64" height="64" viewBox="0 0 16.933 16.933" xmlns="http://www.w3.org/2000/svg"><defs><filter id="a" x="-.039" y="-.033" width="1.078" height="1.067" color-interpolation-filters="sRGB"><feGaussianBlur stdDeviation=".206"/></filter></defs><g fill-rule="evenodd"><path d="M3.44 1.354a1.32 1.32 0 0 0-1.323 1.323v12.171c0 .733.59 1.323 1.323 1.323h10.053a1.32 1.32 0 0 0 1.323-1.323V4.53l-3.175-3.175z" filter="url(#a)" opacity=".15" style="paint-order:stroke fill markers"/><path d="M3.44 1.058a1.32 1.32 0 0 0-1.323 1.323v12.171c0 .733.59 1.323 1.323 1.323h10.053a1.32 1.32 0 0 0 1.323-1.323V4.233l-3.174-3.175z" fill="#262626" style="paint-order:stroke fill markers"/><path d="m14.816 4.233-3.175-3.175V2.91c0 .733.59 1.323 1.323 1.323z" fill="#00c8ff" style="paint-order:stroke fill markers"/></g><path class="st1" d="M5.406 5.833c0-.034.068-.059.107-.059.31-.014.77-.024 1.251-.024 1.344 0 1.868.737 1.868 1.683 0 1.232-.893 1.761-1.99 1.761-.184 0-.247-.01-.378-.01v1.863c0 .039-.014.058-.058.058h-.742c-.039 0-.058-.014-.058-.058zm.863 2.575c.112.01.2.01.393.01.568 0 1.101-.199 1.101-.97 0-.616-.383-.927-1.028-.927-.194 0-.378.01-.466.015zm4.172-.577c-.383 0-.514.194-.514.354 0 .175.087.296.601.563.762.368 1 .723 1 1.242 0 .776-.593 1.193-1.393 1.193-.422 0-.786-.087-.994-.209-.034-.014-.039-.039-.039-.077v-.713c0-.049.024-.063.058-.04a1.8 1.8 0 0 0 .975.287c.383 0 .543-.16.543-.378 0-.175-.111-.33-.601-.582-.689-.33-.975-.665-.975-1.223 0-.626.49-1.145 1.339-1.145.417 0 .708.064.868.136.039.025.049.063.049.097v.665c0 .039-.025.063-.073.048-.214-.135-.529-.218-.844-.218z" enable-background="new" fill="#00c8ff"/><path d="M11.641 2.91v.155c0 .794.59 1.433 1.323 1.433h1.852v-.265h-1.852A1.32 1.32 0 0 1 11.64 2.91z" fill-rule="evenodd" opacity=".1" style="paint-order:stroke fill markers"/></svg>