<svg width="64" height="64" xmlns="http://www.w3.org/2000/svg"><defs><filter id="a" x="-.033" y="-.039" width="1.067" height="1.078" color-interpolation-filters="sRGB"><feGaussianBlur stdDeviation=".206"/></filter><filter id="b" x="-.125" y="-.115" width="1.25" height="1.231" color-interpolation-filters="sRGB"><feGaussianBlur stdDeviation=".276"/></filter></defs><g fill-rule="evenodd"><path d="M15.875 3.693a1.32 1.32 0 0 0-1.323-1.323H2.382a1.32 1.32 0 0 0-1.324 1.323v10.054c0 .733.59 1.323 1.323 1.323h10.32l3.174-3.175z" filter="url(#a)" opacity=".15" style="paint-order:stroke fill markers" transform="scale(3.7796)"/><path d="M15.875 3.44a1.32 1.32 0 0 0-1.323-1.323H2.382A1.32 1.32 0 0 0 1.057 3.44v10.053c0 .733.59 1.323 1.323 1.323h10.32l3.174-3.175z" fill="#748290" style="paint-order:stroke fill markers" transform="scale(3.7796)"/><path d="m12.7 14.816 3.175-3.175h-1.852a1.32 1.32 0 0 0-1.323 1.323z" fill="#fff" opacity=".35" style="paint-order:stroke fill markers" transform="scale(3.7796)"/></g><path d="M6.022 9A4.971 4.971 0 0 0 4 13h4V9zM56 9v4h4v-.037A4.97 4.97 0 0 0 57.98 9zM4 15v4h4v-4zm52 0v4h4v-4zM4 21v4h4v-4zm52 0v4h4v-4zM4 27v4h4v-4zm52 0v4h4v-4zM4 33v4h4v-4zm52 0v4h4v-4zM4 39v4h4v-4zm52 0v4h4v-4zM4 45v4h4v-4zm0 6c0 1.648.8 3.09 2.021 4H8v-4z" fill="#fff" opacity=".2" style="paint-order:fill markers stroke"/><path transform="scale(3.7796)" d="M6.075 5.867a.255.255 0 0 0-.254.255v5.227c0 .194.207.317.377.224l4.782-2.614a.255.255 0 0 0 0-.447L6.676 6.159l-.478-.26a.254.254 0 0 0-.123-.032z" color="#000" filter="url(#b)" opacity=".15" style="isolation:auto;mix-blend-mode:normal;text-decoration-color:#000;text-decoration-line:none;text-decoration-style:solid;text-indent:0;text-transform:none;white-space:normal"/><path d="M22.963 21.156a.963.963 0 0 0-.963.965v19.757a.962.962 0 0 0 1.425.845L41.5 32.845a.965.965 0 0 0 0-1.691l-16.268-8.892-1.807-.987a.96.96 0 0 0-.462-.119z" color="#000" fill="#edeef8" style="isolation:auto;mix-blend-mode:normal;text-decoration-color:#000;text-decoration-line:none;text-decoration-style:solid;text-indent:0;text-transform:none;white-space:normal"/></svg>