<svg width="64" height="64" xmlns="http://www.w3.org/2000/svg"><defs><filter id="a" x="-.039" y="-.033" width="1.078" height="1.067" color-interpolation-filters="sRGB"><feGaussianBlur stdDeviation=".206"/></filter></defs><g fill-rule="evenodd"><path transform="scale(3.7796)" d="M3.44 1.354a1.32 1.32 0 0 0-1.323 1.323v12.171c0 .733.59 1.323 1.323 1.323h10.053a1.32 1.32 0 0 0 1.323-1.323V4.53l-3.175-3.175z" filter="url(#a)" opacity=".15" style="paint-order:stroke fill markers"/><path d="M13 4c-2.77 0-5 2.23-5 5v46c0 2.77 2.23 5 5 5h38c2.77 0 5-2.23 5-5V16L44 4z" fill="#51db51" style="paint-order:stroke fill markers"/><path d="m14.816 4.233-3.175-3.175V2.91c0 .733.59 1.323 1.323 1.323z" fill="#fff" opacity=".35" style="paint-order:stroke fill markers" transform="scale(3.7796)"/><path d="M43.998 11v.584c0 3 2.23 5.416 5 5.416h7v-1h-7c-2.77 0-5-2.23-5-5z" opacity=".1" style="paint-order:stroke fill markers"/></g><g color="#000" fill="#fff"><path d="M35.734 22.01a7.21 7.21 0 0 0-7.211 7.207c0 1.082.245 2.103.672 3.02l-1.234 1.461-.107 1.369c-.011.01-1.344.049-1.344.049l-.686.496s.006 1.495 0 1.475l-.002.002-1.467.023-.621.709-.014 1.34s-1.266-.083-1.395.035c-.81.746-1.355 1.277-1.355 1.277l.006 3.506.688-.002 9.338-9.336a7.217 7.217 0 0 0 1.648 1.078l.002-.002a7.174 7.174 0 0 0 3.084.701 7.209 7.209 0 0 0 7.211-7.207 7.208 7.208 0 0 0-7.213-7.205m1.377 3.434a2.403 2.403 0 1 1-.002 4.806 2.403 2.403 0 0 1 .002-4.806" opacity=".75"/><path d="M37.11 25.445a2.404 2.404 0 1 0 0 4.808 2.404 2.404 0 0 0 0-4.808m0 1.373a1.03 1.03 0 1 1-.002 2.06 1.03 1.03 0 0 1 .002-2.06m-6.109 7.828-9.342 9.34h3.434l8.154-8.01a7.222 7.222 0 0 1-2.246-1.328" opacity=".5"/></g></svg>