<svg width="64" height="64" viewBox="0 0 16.933 16.933" xmlns="http://www.w3.org/2000/svg"><defs><filter id="a" x="-.039" y="-.033" width="1.078" height="1.067" color-interpolation-filters="sRGB"><feGaussianBlur stdDeviation=".206"/></filter></defs><g fill-rule="evenodd"><path d="M3.44 1.354a1.32 1.32 0 0 0-1.323 1.323v12.171c0 .733.59 1.323 1.323 1.323h10.053a1.32 1.32 0 0 0 1.323-1.323V4.53l-3.175-3.175z" filter="url(#a)" opacity=".15" style="paint-order:stroke fill markers"/><path d="M3.44 1.059a1.32 1.32 0 0 0-1.323 1.323v12.17c0 .734.59 1.324 1.323 1.324h10.053a1.32 1.32 0 0 0 1.323-1.323V4.233L11.641 1.06z" fill="#43a0df" style="paint-order:stroke fill markers"/><path d="m14.816 4.233-3.175-3.175V2.91c0 .733.59 1.323 1.323 1.323z" fill="#fff" opacity=".35" style="paint-order:stroke fill markers"/></g><g fill="#fff"><path d="M5.168 5.556a.16.16 0 0 0-.14.157v2.861a.16.16 0 0 0 .156.158h1.43v.529H5.557v.529h1.851V8.202H5.674a.113.113 0 0 1-.108-.108v-1.9c-.002-.05.034-.1.082-.108a.103.103 0 0 1 .025 0h2.944c.054 0 .107.05.107.107v.686h.537V5.713a.163.163 0 0 0-.157-.157" opacity=".5"/><path d="M7.815 7.144a.165.165 0 0 0-.143.157v2.86c0 .083.076.158.16.158h1.427v.792h1.059v-.792h1.429a.164.164 0 0 0 .158-.158v-2.86a.165.165 0 0 0-.158-.158m-3.453.53a.064.064 0 0 1 .02 0h2.949a.11.11 0 0 1 .106.106v1.905a.11.11 0 0 1-.106.106h-2.95a.11.11 0 0 1-.106-.106V7.779a.11.11 0 0 1 .087-.107m-.093 3.175v.53h3.175v-.53"/></g><path d="M11.641 2.91v.155c0 .794.59 1.433 1.323 1.433h1.852v-.265h-1.852A1.32 1.32 0 0 1 11.64 2.91z" fill-rule="evenodd" opacity=".1" style="paint-order:stroke fill markers"/></svg>