<svg width="64" height="64" viewBox="0 0 16.933 16.933" xmlns="http://www.w3.org/2000/svg"><defs><filter id="a" x="-.039" y="-.033" width="1.078" height="1.067" color-interpolation-filters="sRGB"><feGaussianBlur stdDeviation=".206"/></filter></defs><g fill-rule="evenodd"><path d="M3.44 1.354a1.32 1.32 0 0 0-1.323 1.323v12.171c0 .733.59 1.323 1.323 1.323h10.053a1.32 1.32 0 0 0 1.323-1.323V4.53l-3.175-3.175z" filter="url(#a)" opacity=".15" style="paint-order:stroke fill markers"/><path d="M3.44 1.059a1.32 1.32 0 0 0-1.323 1.323v12.17c0 .734.59 1.324 1.323 1.324h10.053a1.32 1.32 0 0 0 1.323-1.323V4.233L11.641 1.06z" fill="#008a50" style="paint-order:stroke fill markers"/><path d="m14.816 4.233-3.175-3.175V2.91c0 .733.59 1.323 1.323 1.323z" fill="#fff" opacity=".35" style="paint-order:stroke fill markers"/></g><g fill="#fff" stroke-width=".088"><path d="M8.766 4.762c-1.29.23-2.581.535-3.871.76v5.89c1.283.225 2.567.525 3.848.759h.385V4.762zm-.861 2.31c-.225.46-.45.92-.68 1.379.232.471.469.939.7 1.41a48.933 48.933 0 0 1-.607-.038c-.143-.351-.317-.69-.42-1.057-.114.341-.277.664-.409.999-.184-.003-.368-.01-.553-.018.217-.423.425-.85.648-1.27-.189-.434-.397-.86-.592-1.29l.555-.032c.126.329.263.654.366.991.112-.357.277-.694.42-1.04.19-.013.38-.025.572-.034zM9.392 5.82v.53h.794v.53h-.794v.264h.794v.53h-.794v.263h.794v.53h-.794v.264h.794v.53h-.794v.264h.794v.529h-.794v.265h.794v.529h-.794v.529h2.646V5.82zm1.058.53h1.059v.53H10.45zm0 .794h1.059v.53H10.45zm0 .793h1.059v.53H10.45zm0 .794h1.059v.53H10.45zm0 .794h1.059v.529H10.45zm0 .794h1.059v.529H10.45z" enable-background="new"/></g><path d="M11.641 2.91v.155c0 .794.59 1.433 1.323 1.433h1.852v-.265h-1.852A1.32 1.32 0 0 1 11.64 2.91z" fill-rule="evenodd" opacity=".1" style="paint-order:stroke fill markers"/></svg>