<svg width="64" height="64" xmlns="http://www.w3.org/2000/svg"><defs><filter id="a" x="-.039" y="-.033" width="1.078" height="1.067" color-interpolation-filters="sRGB"><feGaussianBlur stdDeviation=".206"/></filter></defs><path transform="scale(3.7796)" d="M3.44 1.354a1.32 1.32 0 0 0-1.323 1.323v12.171c0 .733.59 1.323 1.323 1.323h10.053a1.32 1.32 0 0 0 1.323-1.323V4.53l-3.175-3.175z" fill-rule="evenodd" filter="url(#a)" opacity=".15" style="paint-order:stroke fill markers"/><path d="M13 4.002c-2.77 0-5 2.23-5 5v46.002c0 2.77 2.23 5 5 5h38c2.77 0 5-2.23 5-5V16.002l-12-12z" fill="#2a6648" fill-rule="evenodd" style="paint-order:stroke fill markers"/><g fill="#fff"><path d="M13 4.002a4.958 4.958 0 0 0-3.076 1.08h.119v2.19H8.324c-.129.35-.23.711-.28 1.093h1.999v2.188H8v1.096h2.043v2.187H8v1.094h2.043v2.19H8v1.093h2.043v2.188H8v1.095h2.043v2.188H8v1.094h2.043v2.19H8v1.093h2.043v2.188H8v1.095h2.043v2.188H8v1.094h2.043v2.189H8v1.094h2.043v2.19H8v1.093h2.043v2.188H8v1.093h2.043v2.19H8v1.094h2.043v2.19H8v1.093h2.043v2.188H8v1.093h2.043v2.19H8.256c.122.387.28.754.488 1.094h1.299v1.418c.337.248.7.459 1.096.617v-2.035h2.187v2.19h1.094v-2.19h2.19v2.19h1.093v-2.19h2.188v2.19h1.095v-2.19h2.188v2.19h1.094v-2.19h2.19v2.19h1.093v-2.19h2.19v2.19h1.093v-2.19h2.188v2.19h1.094v-2.19h2.189v2.19h1.094v-2.19h2.19v2.19h1.093v-2.19h2.188v2.19h1.095v-2.19h2.188v2.19h1.094v-2.19h2.19v2.19h1.093v-2.19h2.187v2.08c.389-.142.76-.315 1.096-.543v-1.537h1.444c.207-.34.366-.707.488-1.094h-1.932v-2.19h2.188v-1.093h-2.188V51.04h2.188v-1.094h-2.188v-2.19h2.188v-1.093h-2.188v-2.19h2.188V43.38h-2.188v-2.188h2.188v-1.094h-2.188v-2.19h2.188v-1.093h-2.188v-2.19h2.188v-1.093h-2.188v-2.188h2.188V30.25h-2.188V28.06h2.188v-1.094h-2.188v-2.19h2.188v-1.093h-2.188v-2.188h2.188v-1.095h-2.188v-2.188h2.188V17.12h-2.188V16h-1.095v1.12H50.53V16h-1.094v1.12h-2.19v-1.452a4.96 4.96 0 0 1-1.093-.558v2.01h-2.188v-2.19h1.97a4.99 4.99 0 0 1-1.053-1.094h-.917V11.65h.08A5.051 5.051 0 0 1 44 11v-.447h-.034V8.365H44V7.272h-.034v-2.19H44v-1.08H13zm-1.861 1.08h2.187v2.19H11.14v-2.19zm3.28 0h2.19v2.19h-2.19v-2.19zm3.284 0h2.188v2.19h-2.188v-2.19zm3.283 0h2.188v2.19h-2.188v-2.19zm3.281 0h2.19v2.19h-2.19v-2.19zm3.284 0h2.19v2.19h-2.19v-2.19zm3.283 0h2.187v2.19h-2.187v-2.19zm3.281 0h2.19v2.19h-2.19v-2.19zm3.283 0h2.19v2.19h-2.19v-2.19zm3.283 0h2.188v2.19h-2.188v-2.19zM11.14 8.365h2.187v2.188h-2.188V8.365zm3.28 0h2.19v2.188h-2.19V8.365zm3.284 0h2.187v2.188h-2.187V8.365zm3.283 0h2.188v2.188h-2.188V8.365zm3.281 0h2.19v2.188h-2.19V8.365zm3.283 0h2.19v2.188h-2.19V8.365zm3.284 0h2.187v2.188h-2.187V8.365zm3.28 0h2.19v2.188h-2.19V8.365zm3.284 0h2.19v2.188h-2.19V8.365zm3.283 0h2.188v2.188H40.68V8.365zm-29.543 3.283h2.188v2.188h-2.188v-2.188zm3.282 0h2.189v2.188h-2.19v-2.188zm3.283 0h2.187v2.188h-2.187v-2.188zm3.283 0h2.187v2.188h-2.187v-2.188zm3.281 0h2.19v2.188h-2.19v-2.188zm3.283 0h2.19v2.188h-2.19v-2.188zm3.283 0h2.188v2.188h-2.188v-2.188zm3.282 0h2.19v2.188h-2.19v-2.188zm3.283 0h2.19v2.188h-2.19v-2.188zm3.283 0h2.188v2.188H40.68v-2.188zM11.138 14.93h2.188v2.19h-2.188v-2.19zm3.281 0h2.19v2.19h-2.19v-2.19zm3.284 0h2.187v2.19h-2.188v-2.19zm3.283 0h2.187v2.19h-2.187v-2.19zm3.28 0h2.19v2.19h-2.19v-2.19zm3.284 0h2.19v2.19h-2.19v-2.19zm3.283 0h2.188v2.19h-2.188v-2.19zm3.282 0h2.189v2.19h-2.19v-2.19zm3.283 0h2.19v2.19h-2.19v-2.19zm3.283 0h2.187v2.19h-2.187v-2.19zm-29.543 3.283h2.187V20.4h-2.187v-2.187zm3.281 0h2.19V20.4h-2.19v-2.187zm3.283 0h2.188V20.4h-2.188v-2.187zm3.283 0h2.188V20.4h-2.187v-2.187zm3.282 0h2.19V20.4h-2.19v-2.187zm3.283 0h2.19V20.4h-2.19v-2.187zm3.283 0h2.188V20.4h-2.188v-2.187zm3.281 0h2.19V20.4h-2.19v-2.187zm3.284 0h2.189V20.4h-2.19v-2.187zm3.283 0h2.187V20.4h-2.187v-2.187zm3.283 0h2.187V20.4h-2.187v-2.187zm3.281 0h2.19V20.4h-2.19v-2.187zm3.283 0h2.188V20.4h-2.188v-2.187zm-39.39 3.283h2.187v2.188h-2.188v-2.188zm3.28 0h2.19v2.188h-2.19v-2.188zm3.284 0h2.187v2.188h-2.187v-2.188zm3.283 0h2.187v2.188h-2.187v-2.188zm3.281 0h2.19v2.188h-2.19v-2.188zm3.283 0h2.19v2.188h-2.19v-2.188zm3.284 0h2.187v2.188h-2.188v-2.188zm3.28 0h2.19v2.188h-2.19v-2.188zm3.284 0h2.19v2.188h-2.19v-2.188zm3.283 0h2.188v2.188H40.68v-2.188zm3.283 0h2.188v2.188h-2.188v-2.188zm3.282 0h2.189v2.188h-2.19v-2.188zm3.283 0h2.187v2.188h-2.187v-2.188zm-39.391 3.281h2.187v2.19h-2.187v-2.19zm3.28 0h2.19v2.19h-2.19v-2.19zm3.284 0h2.188v2.19H17.7v-2.19zm3.283 0h2.188v2.19h-2.188v-2.19zm3.282 0h2.189v2.19h-2.19v-2.19zm3.283 0h2.19v2.19h-2.19v-2.19zm3.283 0h2.187v2.19h-2.187v-2.19zm3.281 0h2.19v2.19h-2.19v-2.19zm3.283 0h2.19v2.19h-2.19v-2.19zm3.284 0h2.187v2.19H40.68v-2.19zm3.283 0h2.187v2.19h-2.187v-2.19zm3.28 0h2.19v2.19h-2.19v-2.19zm3.284 0h2.188v2.19h-2.188v-2.19zm-39.39 3.283h2.187v2.188h-2.188V28.06zm3.28 0h2.19v2.188h-2.19V28.06zm3.284 0h2.187v2.188h-2.187V28.06zm3.283 0h2.187v2.188h-2.187V28.06zm3.28 0h2.19v2.188h-2.19V28.06zm3.284 0h2.19v2.188h-2.19V28.06zm3.283 0h2.188v2.188H30.83V28.06zm3.282 0h2.189v2.188h-2.19V28.06zm3.283 0h2.19v2.188h-2.19V28.06zm3.283 0h2.187v2.188H40.68V28.06zm3.283 0h2.188v2.188h-2.188V28.06zm3.281 0h2.19v2.188h-2.19V28.06zm3.284 0h2.187v2.188h-2.187V28.06zm-39.391 3.284h2.187v2.187h-2.187v-2.187zm3.28 0h2.19v2.187h-2.19v-2.187zm3.284 0h2.187v2.187H17.7v-2.187zm3.283 0h2.188v2.187h-2.188v-2.187zm3.281 0h2.19v2.187h-2.19v-2.187zm3.284 0h2.189v2.187h-2.19v-2.187zm3.283 0h2.187v2.187h-2.187v-2.187zm3.28 0h2.19v2.187h-2.19v-2.187zm3.284 0h2.19v2.187h-2.19v-2.187zm3.283 0h2.188v2.187h-2.188v-2.187zm3.284 0h2.187v2.187h-2.187v-2.187zm3.28 0h2.19v2.187h-2.19v-2.187zm3.284 0h2.187v2.187h-2.187v-2.187zm-39.391 3.28h2.187v2.19h-2.187v-2.19zm3.281 0h2.19v2.19h-2.19v-2.19zm3.283 0h2.188v2.19h-2.188v-2.189zm3.284 0h2.187v2.19h-2.187v-2.189zm3.28 0h2.19v2.19h-2.19v-2.189zm3.284 0h2.19v2.19h-2.19v-2.189zm3.283 0h2.188v2.19H30.83v-2.189zm3.281 0h2.19v2.19h-2.19v-2.189zm3.284 0h2.189v2.19h-2.19v-2.189zm3.283 0h2.187v2.19h-2.187v-2.189zm3.283 0h2.187v2.19h-2.187v-2.189zm3.281 0h2.19v2.19h-2.19v-2.189zm3.283 0h2.188v2.19h-2.188v-2.19zm-39.39 3.284h2.187v2.19h-2.188v-2.19zm3.28 0h2.19v2.19h-2.19v-2.19zm3.284 0h2.187v2.19H17.7v-2.19zm3.283 0h2.187v2.19h-2.187V37.908zm3.281 0h2.19v2.19h-2.19V37.908zm3.283 0h2.19v2.19h-2.19V37.908zm3.284 0h2.187v2.19H30.83V37.908zm3.28 0h2.19v2.19h-2.19V37.908zm3.284 0h2.19v2.19h-2.19V37.908zm3.283 0h2.188v2.19h-2.188V37.908zm3.283 0h2.188v2.19H43.96V37.908zm3.282 0h2.189v2.19h-2.19V37.908zm3.283 0h2.187v2.19h-2.187V37.908zm-39.391 3.283h2.187v2.188h-2.187V41.19zm3.28 0h2.19v2.188h-2.19V41.19zm3.284 0h2.188v2.188h-2.188V41.19zm3.283 0h2.188v2.188H20.98V41.19zm3.282 0h2.189v2.188h-2.19V41.19zm3.283 0h2.19v2.188h-2.19V41.19zm3.283 0h2.187v2.188H30.83V41.19zm3.281 0h2.19v2.188h-2.19V41.19zm3.283 0h2.19v2.188h-2.19V41.19zm3.284 0h2.187v2.188h-2.187V41.19zm3.283 0h2.187v2.188H43.96V41.19zm3.28 0h2.19v2.188h-2.19V41.19zm3.284 0h2.188v2.188h-2.188V41.19zm-39.39 3.281h2.187v2.19h-2.188v-2.19zm3.28 0h2.19v2.19h-2.19v-2.19zm3.284 0h2.187v2.19h-2.187v-2.19zm3.283 0h2.187v2.19h-2.187v-2.19zm3.28 0h2.19v2.19h-2.19v-2.19zm3.284 0h2.19v2.19h-2.19v-2.19zm3.283 0h2.188v2.19h-2.188v-2.19zm3.282 0h2.189v2.19h-2.19v-2.19zm3.283 0h2.19v2.19h-2.19v-2.19zm3.283 0h2.187v2.19h-2.187v-2.19zm3.283 0h2.188v2.19h-2.188v-2.19zm3.281 0h2.19v2.19h-2.19v-2.19zm3.284 0h2.187v2.19h-2.187v-2.19zm-39.391 3.284h2.187v2.19h-2.187v-2.19zm3.28 0h2.19v2.19h-2.19v-2.19zm3.284 0h2.187v2.19h-2.187v-2.19zm3.283 0h2.188v2.19H20.98v-2.19zm3.281 0h2.19v2.19h-2.19v-2.19zm3.284 0h2.189v2.19h-2.19v-2.19zm3.283 0h2.187v2.19h-2.187v-2.19zm3.28 0h2.19v2.19h-2.19v-2.19zm3.284 0h2.19v2.19h-2.19v-2.19zm3.283 0h2.188v2.19h-2.188v-2.19zm3.284 0h2.187v2.19h-2.187V47.755zm3.28 0h2.19v2.19h-2.19V47.755zm3.284 0h2.187v2.19h-2.187V47.755zm-39.391 3.283h2.187v2.187h-2.187V51.04zm3.281 0h2.19v2.187h-2.19V51.04zm3.283 0h2.188v2.187h-2.188V51.04zm3.284 0h2.187v2.187H20.98V51.04zm3.28 0h2.19v2.187h-2.19V51.04zm3.284 0h2.19v2.187h-2.19V51.04zm3.283 0h2.188v2.187h-2.188V51.04zm3.281 0h2.19v2.187h-2.19V51.04zm3.284 0h2.189v2.187h-2.19V51.04zm3.283 0h2.187v2.187h-2.187V51.04zm3.283 0h2.187v2.187h-2.187V51.04zm3.281 0h2.19v2.187h-2.19V51.04zm3.283 0h2.188v2.187h-2.188V51.04zm-39.39 3.281h2.187v2.19H11.13v-2.19zm3.28 0h2.19v2.19h-2.19v-2.19zm3.284 0h2.187v2.19h-2.187v-2.19zm3.283 0h2.187v2.19H20.98v-2.19zm3.281 0h2.19v2.19h-2.19v-2.19zm3.283 0h2.19v2.19h-2.19v-2.19zm3.284 0h2.187v2.19h-2.187v-2.19zm3.28 0h2.19v2.19h-2.19v-2.19zm3.284 0h2.19v2.19h-2.19v-2.19zm3.283 0h2.188v2.19h-2.188v-2.19zm3.283 0h2.188v2.19h-2.188v-2.19zm3.282 0h2.189v2.19h-2.19v-2.19zm3.283 0h2.187v2.19h-2.187v-2.19z" color="#000" opacity=".1"/><path d="m55.999 16-12-12v7c0 2.77 2.23 5 5 5z" fill-rule="evenodd" opacity=".35" style="paint-order:stroke fill markers"/><g stroke-width=".088"><path d="M33.132 18c-4.877.869-9.756 2.02-14.632 2.873 0 7.418-.004 14.84 0 22.26 4.85.85 9.704 1.983 14.545 2.867h1.453V18zm-3.255 8.728c-.85 1.74-1.702 3.48-2.567 5.213.874 1.781 1.768 3.55 2.646 5.331-.766-.045-1.53-.092-2.296-.147-.54-1.326-1.2-2.607-1.588-3.994-.432 1.291-1.05 2.51-1.545 3.775-.697-.01-1.394-.038-2.09-.067.817-1.6 1.606-3.213 2.449-4.803-.716-1.638-1.501-3.244-2.24-4.872.7-.042 1.4-.083 2.1-.121.474 1.244.992 2.471 1.384 3.746.42-1.351 1.046-2.623 1.584-3.93a97.38 97.38 0 0 1 2.163-.131zM35.498 22v2h3v2h-3v1h3v2.004h-3V30h3v2h-3v1h3v2h-3v1h3v2h-3v1h3v2h-3v2h10V22zm4 2h4v2h-4zm0 3h4v2.004h-4zm0 3h4v2h-4zm0 3h4v2h-4zm0 3h4v2h-4zm0 3h4v2h-4z" enable-background="new"/></g></g><path d="M43.998 11v.584c0 3 2.23 5.416 5 5.416h7v-1h-7c-2.77 0-5-2.23-5-5z" fill-rule="evenodd" opacity=".1" style="paint-order:stroke fill markers"/></svg>