<svg width="64" height="64" xmlns="http://www.w3.org/2000/svg"><defs><filter id="a" x="-.039" y="-.033" width="1.078" height="1.067" color-interpolation-filters="sRGB"><feGaussianBlur stdDeviation=".206"/></filter></defs><g fill-rule="evenodd"><path d="M3.44 1.354a1.32 1.32 0 0 0-1.323 1.323v12.171c0 .733.59 1.323 1.323 1.323h10.053a1.32 1.32 0 0 0 1.323-1.323V4.53l-3.175-3.175z" filter="url(#a)" opacity=".15" style="paint-order:stroke fill markers" transform="scale(3.7796)"/><path d="M3.44 1.059a1.32 1.32 0 0 0-1.323 1.323v12.17c0 .734.59 1.324 1.323 1.324h10.053a1.32 1.32 0 0 0 1.323-1.323V4.233L11.641 1.06z" fill="#576dab" style="paint-order:stroke fill markers" transform="scale(3.7796)"/><path d="m14.816 4.233-3.175-3.175V2.91c0 .733.59 1.323 1.323 1.323z" fill="#fff" opacity=".35" style="paint-order:stroke fill markers" transform="scale(3.7796)"/></g><path d="M43.998 11v.584c0 3 2.23 5.416 5 5.416h7v-1h-7c-2.77 0-5-2.23-5-5z" fill-rule="evenodd" opacity=".1" style="paint-order:stroke fill markers"/><path d="M32 17.301 18.637 27.326c-.029.019-.055.042-.082.063l-.016.011v.002c-.326.256-.539.65-.539 1.098v12.199c0 2 1.577 2 2 2h24s2 0 2-2v-12.2c0-.458-.222-.86-.56-1.114l.006-.008L32 17.3zm0 6.398a5 5 0 0 1 5 5v1.5c0 .831-.669 1.5-1.5 1.5a1.496 1.496 0 0 1-1.37-.89 3 3 0 0 1-2.13.89 3 3 0 0 1-3-3 3 3 0 0 1 3-3 3 3 0 0 1 3 3v1.5a.499.499 0 1 0 1 0v-1.5a4 4 0 0 0-4-4 4 4 0 0 0-4 4 4 4 0 0 0 4 4h3.5a.499.499 0 1 1 0 1H32a5 5 0 0 1-5-5 5 5 0 0 1 5-5zm0 3a2 2 0 0 0-2 2 2 2 0 0 0 2 2 2 2 0 0 0 2-2 2 2 0 0 0-2-2z" enable-background="new" fill="#fff" opacity=".75"/><path d="M22.5 20.699c-.831 0-1.5.67-1.5 1.5v15.002c0 .83.669 1.498 1.5 1.498h19c.831 0 1.5-.668 1.5-1.498V22.199c0-.83-.669-1.5-1.5-1.5h-19zm9.5 3a5 5 0 0 1 5 5v1.5c0 .831-.669 1.5-1.5 1.5a1.496 1.496 0 0 1-1.37-.89 3 3 0 0 1-2.13.89 3 3 0 0 1-3-3 3 3 0 0 1 3-3 3 3 0 0 1 3 3v1.5a.499.499 0 1 0 1 0v-1.5a4 4 0 0 0-4-4 4 4 0 0 0-4 4 4 4 0 0 0 4 4h3.5a.499.499 0 1 1 0 1H32a5 5 0 0 1-5-5 5 5 0 0 1 5-5zm0 3a2 2 0 0 0-2 2 2 2 0 0 0 2 2 2 2 0 0 0 2-2 2 2 0 0 0-2-2z" enable-background="new" fill="#fff"/><path d="m18 28.5 26.6 18.2H20c-1 0-2-.5-2-2z" enable-background="new" fill="#e8ebf0"/><path d="M44 46.7c2 0 2-2 2-2V28.5L19.4 46.7z" enable-background="new" fill="#f2f2fa"/></svg>