<svg width="64" height="64" xmlns="http://www.w3.org/2000/svg"><defs><filter id="a" x="-.039" y="-.033" width="1.078" height="1.067" color-interpolation-filters="sRGB"><feGaussianBlur stdDeviation=".206"/></filter></defs><path transform="scale(3.7796)" d="M3.44 1.354a1.32 1.32 0 0 0-1.323 1.323v12.171c0 .733.59 1.323 1.323 1.323h10.053a1.32 1.32 0 0 0 1.323-1.323V4.53l-3.175-3.175z" fill-rule="evenodd" filter="url(#a)" opacity=".15" style="paint-order:stroke fill markers"/><g fill-rule="evenodd"><path d="M13 4c-2.77 0-5 2.23-5 5v46c0 2.77 2.23 5 5 5h38c2.77 0 5-2.23 5-5V16L44 4z" fill="#ff9230" style="paint-order:stroke fill markers"/><path d="m14.816 4.233-3.175-3.175V2.91c0 .733.59 1.323 1.323 1.323z" fill="#fff" opacity=".35" style="paint-order:stroke fill markers" transform="scale(3.7796)"/></g><g fill="#fff" opacity=".75" color="#000"><path d="M19.003 31v6.5c0 .277.223.5.5.5h3c.277 0 .5-.223.5-.5V31zm1 4h2v2h-2zM21.002 4v2h2V4zm0 2h-2v2h2zm0 2v2h2V8zm0 2h-2v2h2zm0 2v2h2v-2zm0 2h-2v2h2zm0 2v2h2v-2zm0 2h-2v2h2zm0 2v2h2v-2zm0 2h-2v2h2zm0 2v2h2v-2zm0 2h-2v2h2zm0 2v2h2v-2z"/></g><path d="M43.998 11v.584c0 3 2.23 5.416 5 5.416h7v-1h-7c-2.77 0-5-2.23-5-5z" fill-rule="evenodd" opacity=".1" style="paint-order:stroke fill markers"/><path d="M41.92 26.461c1.136 4.477-4.008 5.829-5.865 8.617-1.265 1.9.62 3.94 3.19 6.26-1.002-2.266-4.4-4.248.002-7.725 5.49-4.333 2.673-7.152 2.673-7.152zM45.317 32s-9.283 2.318-4.85 7.426c1.309 1.507-.343 2.862-.343 2.862s3.32-1.714 1.796-3.862c-1.425-2.002-2.517-2.997 3.397-6.426zm1.644 9.125a3.129 3.129 0 0 0-1.028.183c-.285.1-.435.335-.435.335s.18-.072.582-.156c1.642-.342 3.995 2.198-1.093 4.841-.024.063-.102.134-.102.134 6.05-1.59 4.732-5.342 2.075-5.337zm-10.902.258c-.399-.009-2.122.017-4.181 1.013-2.784 1.346 6.884 1.959 11.89.642.52-.355 1.24-.663 1.24-.663s-2.048.366-4.088.537c-2.497.21-5.175.25-6.52.071-3.182-.426 1.746-1.596 1.746-1.596s-.03-.003-.087-.004zm-1.061 3.08c-4.592 1.524 2.556 3.253 8.974 1.376-.682-.24-1.115-.68-1.115-.68-3.138.604-4.95.585-7.246.348-1.775-.184-.613-1.044-.613-1.044zm.649 2.968c-4.17 1.165 2.537 3.572 7.846 1.297-.87-.338-1.494-.728-1.494-.728-2.367.448-3.465.483-5.614.238-1.773-.204-.738-.807-.738-.807zM32.75 49.4c-1.872.058-5.534 1.742-2.185 2.285 10.823 1.754 19.729-.79 16.922-2.057 0 0 .766.633-.845 1.121-3.063.928-12.753 1.208-15.445.037-.967-.42.847-1.004 1.418-1.128.595-.128.935-.105.935-.105-.168-.118-.454-.163-.8-.153zm16.455 1.61s-.341.875-4.035 1.57c-4.168.785-9.31.694-12.358.19 0 0 .624.517 3.833.724 4.883.312 12.383-.174 12.56-2.485z" clip-rule="evenodd" enable-background="new" fill="#fff" fill-rule="evenodd" opacity=".75"/></svg>