<svg width="64" height="64" xmlns="http://www.w3.org/2000/svg"><defs><filter id="a" x="-.039" y="-.033" width="1.078" height="1.067" color-interpolation-filters="sRGB"><feGaussianBlur stdDeviation=".206"/></filter></defs><g fill-rule="evenodd"><path transform="scale(3.7796)" d="M3.44 1.354a1.32 1.32 0 0 0-1.323 1.323v12.171c0 .733.59 1.323 1.323 1.323h10.053a1.32 1.32 0 0 0 1.323-1.323V4.53l-3.175-3.175z" filter="url(#a)" opacity=".15" style="paint-order:stroke fill markers"/><path d="M13 4c-2.77 0-5 2.23-5 5v46c0 2.77 2.23 5 5 5h38c2.77 0 5-2.23 5-5V16L44 4z" fill="#8542c2" style="paint-order:stroke fill markers"/><path d="m14.816 4.233-3.175-3.175V2.91c0 .733.59 1.323 1.323 1.323z" fill="#fff" opacity=".35" style="paint-order:stroke fill markers" transform="scale(3.7796)"/><path d="M43.998 11v.584c0 3 2.23 5.416 5 5.416h7v-1h-7c-2.77 0-5-2.23-5-5z" opacity=".1" style="paint-order:stroke fill markers"/></g><path d="M32 21c-6.075 0-11 1.343-11 3v10a11 3 0 0 0 1 1.242 11 3 0 0 0 .012.006 11 3 0 0 0 .476.252 11 3 0 0 0 .031.014 11 3 0 0 0 .551.232 11 3 0 0 0 .065.024 11 3 0 0 0 .59.2 11 3 0 0 0 .132.042 11 3 0 0 0 .65.18 11 3 0 0 0 .1.025 11 3 0 0 0 .774.176 11 3 0 0 0 .053.01 11 3 0 0 0 .814.15 11 3 0 0 0 .139.023 11 3 0 0 0 .779.115 11 3 0 0 0 .22.03 11 3 0 0 0 .737.082 11 3 0 0 0 .367.037 11 3 0 0 0 .54.045 11 3 0 0 0 .591.04 11 3 0 0 0 .49.026 11 3 0 0 0 .576.024 11 3 0 0 0 .463.013A11 3 0 0 0 32 37a11 3 0 0 0 .959-.014 11 3 0 0 0 .414-.013 11 3 0 0 0 .717-.03 11 3 0 0 0 .345-.021 11 3 0 0 0 .708-.049 11 3 0 0 0 .318-.03 11 3 0 0 0 .767-.075 11 3 0 0 0 .18-.022 11 3 0 0 0 .809-.107 11 3 0 0 0 .213-.035 11 3 0 0 0 .677-.112 11 3 0 0 0 .313-.06 11 3 0 0 0 .596-.125 11 3 0 0 0 .195-.047 11 3 0 0 0 .662-.168 11 3 0 0 0 .014-.004 11 3 0 0 0 .023-.008 11 3 0 0 0 .701-.219 11 3 0 0 0 .637-.244 11 3 0 0 0 .002 0 11 3 0 0 0 .006-.002 11 3 0 0 0 .535-.254 11 3 0 0 0 .006-.004 11 3 0 0 0 .203-.115A11 3 0 0 0 43 34V24c0-1.657-4.925-3-11-3m0 16h-1v3h1v1h-8v-1h-3v3h3v-1h16v1h3v-3h-3v1h-7v-1h1v-3zm0-15c5.523 0 10 .895 10 2s-4.477 2-10 2-10-.895-10-2 4.477-2 10-2m-10 3.242c1.784 1.069 5.692 1.756 10 1.758 4.308-.001 8.216-.688 10-1.758V29c0 1.105-4.477 2-10 2s-10-.895-10-2zm0 5c1.784 1.069 5.692 1.756 10 1.758 4.308-.001 8.216-.688 10-1.758V34a10 2 0 0 1-10 2 10 2 0 0 1-10-2v-2zM32 38h1v1h-1zm-10 3h1v1h-1zm19 0h1v1h-1z" fill="#fff" opacity=".75"/></svg>