<svg width="64" height="64" xmlns="http://www.w3.org/2000/svg"><defs><filter id="a" x="-.039" y="-.033" width="1.078" height="1.067" color-interpolation-filters="sRGB"><feGaussianBlur stdDeviation=".206"/></filter></defs><g fill-rule="evenodd"><path d="M3.44 1.354a1.32 1.32 0 0 0-1.323 1.323v12.171c0 .733.59 1.323 1.323 1.323h10.053a1.32 1.32 0 0 0 1.323-1.323V4.53l-3.175-3.175z" filter="url(#a)" opacity=".15" style="paint-order:stroke fill markers" transform="scale(3.7796)"/><path d="M3.44 1.059a1.32 1.32 0 0 0-1.323 1.323v12.17c0 .734.59 1.324 1.323 1.324h10.053a1.32 1.32 0 0 0 1.323-1.323V4.233L11.641 1.06z" fill="#994b91" style="paint-order:stroke fill markers" transform="scale(3.7796)"/><path d="m14.816 4.233-3.175-3.175V2.91c0 .733.59 1.323 1.323 1.323z" fill="#fff" opacity=".35" style="paint-order:stroke fill markers" transform="scale(3.7796)"/></g><path d="M43.998 11v.584c0 3 2.23 5.416 5 5.416h7v-1h-7c-2.77 0-5-2.23-5-5z" fill-rule="evenodd" opacity=".1" style="paint-order:stroke fill markers"/><path d="M22 21c-.554 0-1 .446-1 1v20c0 .554.446 1 1 1h18c.554 0 1-.446 1-1v-1h1c.554 0 1-.446 1-1v-4a.977.977 0 0 0-.152-.5A.977.977 0 0 0 43 35v-4a.977.977 0 0 0-.152-.5A.977.977 0 0 0 43 30v-4c0-.554-.446-1-1-1h-1v-3c0-.554-.446-1-1-1H22zm1 3h7v1h-7v-1zm9 0h7v1h-7v-1zm9 2h1v4h-1v-4zm-18 1h7v1h-7v-1zm9 0h7v1h-7v-1zm-9 3h7v1h-7v-1zm9 0h7v1h-7v-1zm9 1h1v4h-1v-4zm-18 2h7v1h-7v-1zm9 0h7v1h-7v-1zm-9 3h7v1h-7v-1zm9 0h7v1h-7v-1zm9 0h1v4h-1v-4zm-18 3h7v1h-7v-1zm9 0h7v1h-7v-1z" color="#000" fill="#fff" opacity=".75" style="isolation:auto;mix-blend-mode:normal"/></svg>