<svg width="64" height="64" viewBox="0 0 16.933 16.933" xmlns="http://www.w3.org/2000/svg"><defs><filter id="a" x="-.039" y="-.033" width="1.078" height="1.067" color-interpolation-filters="sRGB"><feGaussianBlur stdDeviation=".206"/></filter></defs><path d="M3.44 1.354a1.32 1.32 0 0 0-1.323 1.323v12.171c0 .733.59 1.323 1.323 1.323h10.053a1.32 1.32 0 0 0 1.323-1.323V4.53l-3.175-3.175z" fill-rule="evenodd" filter="url(#a)" opacity=".15" style="paint-order:stroke fill markers"/><g fill-rule="evenodd"><path transform="scale(.26458)" d="M13 4c-2.77 0-5 2.23-5 5v46c0 2.77 2.23 5 5 5h38c2.77 0 5-2.23 5-5V16L44 4H13z" fill="#f4f4f4" style="paint-order:stroke fill markers"/><path d="m14.816 4.233-3.175-3.175V2.91c0 .733.59 1.323 1.323 1.323z" fill="#bbb" style="paint-order:stroke fill markers"/></g><path d="M10.848 5.292a2.626 2.626 0 0 0-.385.038l-2.766.423c-.668.142-.666.187-.668.75v4.579c-.028-.02-.055-.04-.084-.059a1.271 1.271 0 0 0-.742-.243c-.38 0-.608.146-.745.338s-.183.434-.183.62c0 .226.077.467.244.65s.424.312.793.312c.417 0 .71-.117.876-.344.13-.179.203-.418.228-.713l.009-.111c.003-.059.002-.168.002-.168V7.86c0-.5 0-.53.668-.645l1.968-.308c.669-.088.669-.027.669.349v3.217c-.027-.02-.054-.038-.082-.057a1.27 1.27 0 0 0-.742-.243c-.38 0-.607.146-.745.337a1.093 1.093 0 0 0-.183.621.97.97 0 0 0 .244.65c.167.183.424.311.793.311.417 0 .71-.116.876-.343.13-.18.203-.418.228-.713v-.001a2.8 2.8 0 0 0 .009-.11c.003-.059.003-.168.003-.168V5.879c0-.439-.003-.584-.285-.587z" enable-background="new" fill="#eb577a"/><path d="M11.641 2.91v.155c0 .794.59 1.433 1.323 1.433h1.852v-.265h-1.852A1.32 1.32 0 0 1 11.64 2.91z" fill-rule="evenodd" opacity=".1" style="paint-order:stroke fill markers"/></svg>