<svg width="64" height="64" xmlns="http://www.w3.org/2000/svg"><defs><filter id="a" x="-.039" y="-.033" width="1.078" height="1.067" color-interpolation-filters="sRGB"><feGaussianBlur stdDeviation=".206"/></filter></defs><path transform="scale(3.7796)" d="M3.44 1.354a1.32 1.32 0 0 0-1.323 1.323v12.171c0 .733.59 1.323 1.323 1.323h10.053a1.32 1.32 0 0 0 1.323-1.323V4.53l-3.175-3.175z" fill-rule="evenodd" filter="url(#a)" opacity=".15" style="paint-order:stroke fill markers"/><g fill-rule="evenodd"><path d="M13 4c-2.77 0-5 2.23-5 5v46c0 2.77 2.23 5 5 5h38c2.77 0 5-2.23 5-5V16L44 4z" fill="#ffa84c" style="paint-order:stroke fill markers"/><path d="m14.816 4.233-3.175-3.175V2.91c0 .733.59 1.323 1.323 1.323z" fill="#fff" opacity=".34" style="paint-order:stroke fill markers" transform="scale(3.7796)"/></g><path d="M40.985 18c-.554 0-1 .446-1 1v19.053c-1.224-.514-2.756-.335-4.067.476-2.137 1.322-3.062 3.896-2.065 5.746.995 1.851 3.533 2.28 5.668.957 1.545-.957 2.512-2.62 2.46-4.228 0-.007.003-.012.003-.02V24.746c.24-.132.614.154.812.29 2.245 1.358 4.206 3.612 4.345 6.39.12 1.606-.216 3.204-.68 4.73 2.065-3.395 1.954-8.12-.597-11.222-1.645-1.717-3.196-3.718-3.88-6.043-.05-.22-.351-.89-1-.89zm-21.986 1.999c-.553 0-.999.445-.999.999s.446 1 1 1h13.99c.554 0 1-.446 1-1s-.446-1-1-1H19zm0 5.996c-.553 0-.999.445-.999.999s.446 1 1 1h13.99c.554 0 1-.446 1-1s-.446-1-1-1H19zm0 5.996c-.553 0-.999.445-.999.999s.446 1 1 1h13.99c.554 0 1-.446 1-1s-.446-1-1-1H19zm0 5.996c-.553 0-.999.445-.999.999s.446 1 1 1h7.994c.554 0 1-.446 1-1s-.446-1-1-1h-7.995z" color="#000" fill="#fff" overflow="visible" style="isolation:auto;mix-blend-mode:normal"/><path d="M43.998 11v.584c0 3 2.23 5.416 5 5.416h7v-1h-7c-2.77 0-5-2.23-5-5z" fill-rule="evenodd" opacity=".1" style="paint-order:stroke fill markers"/></svg>