<svg width="64" height="64" viewBox="0 0 16.933 16.933" xmlns="http://www.w3.org/2000/svg" xmlns:xlink="http://www.w3.org/1999/xlink"><defs><filter id="d" x="-.032" y="-.04" width="1.065" height="1.081" color-interpolation-filters="sRGB"><feGaussianBlur stdDeviation=".06"/></filter><filter id="c" x="-.036" y="-.036" width="1.072" height="1.072" color-interpolation-filters="sRGB"><feGaussianBlur stdDeviation=".055"/></filter><filter id="b" x="-.036" y="-.036" width="1.072" height="1.072" color-interpolation-filters="sRGB"><feGaussianBlur stdDeviation=".067"/></filter><filter id="a" x="-.039" y="-.033" width="1.078" height="1.067" color-interpolation-filters="sRGB"><feGaussianBlur stdDeviation=".206"/></filter></defs><path d="M3.44 1.35a1.32 1.32 0 0 0-1.323 1.323v12.17c0 .734.59 1.324 1.323 1.324h10.053a1.32 1.32 0 0 0 1.323-1.323V4.524L11.642 1.35zm0 .53h7.982l2.865 2.864v10.1a.78.78 0 0 1-.794.793H3.44a.78.78 0 0 1-.793-.794V2.673a.78.78 0 0 1 .793-.795z" color="#000" filter="url(#a)" opacity=".15" style="font-feature-settings:normal;font-variant-alternates:normal;font-variant-caps:normal;font-variant-ligatures:normal;font-variant-numeric:normal;font-variant-position:normal;isolation:auto;mix-blend-mode:normal;paint-order:fill markers stroke;shape-padding:0;text-decoration-color:#000;text-decoration-line:none;text-decoration-style:solid;text-indent:0;text-orientation:mixed;text-transform:none;white-space:normal"/><path d="M3.44 1.058a1.32 1.32 0 0 0-1.323 1.323v12.171c0 .733.59 1.323 1.323 1.323h10.053a1.32 1.32 0 0 0 1.323-1.323V4.233l-3.175-3.175z" fill="#f9f9f9" fill-rule="evenodd" style="paint-order:stroke fill markers"/><path d="M3.44 1.058a1.32 1.32 0 0 0-1.323 1.323v12.171c0 .733.59 1.323 1.323 1.323h10.053a1.32 1.32 0 0 0 1.323-1.323V4.233l-3.174-3.175zm0 .53h7.982l2.865 2.864v10.1a.78.78 0 0 1-.794.793H3.44a.78.78 0 0 1-.793-.794V2.381a.78.78 0 0 1 .793-.794z" color="#000" fill="#d17520" style="font-feature-settings:normal;font-variant-alternates:normal;font-variant-caps:normal;font-variant-ligatures:normal;font-variant-numeric:normal;font-variant-position:normal;isolation:auto;mix-blend-mode:normal;paint-order:fill markers stroke;shape-padding:0;text-decoration-color:#000;text-decoration-line:none;text-decoration-style:solid;text-indent:0;text-orientation:mixed;text-transform:none;white-space:normal"/><path d="m12.171 1.058 2.646 2.646V2.381a1.32 1.32 0 0 0-1.323-1.323z" fill="#d17520" fill-rule="evenodd" style="paint-order:stroke fill markers"/><path d="M9.282 7.548a2.234 2.234 0 1 1-4.468 0 2.234 2.234 0 1 1 4.468 0z" color="#000" enable-background="new" filter="url(#b)" opacity=".15"/><path d="M9.282 7.467a2.234 2.234 0 1 1-4.468 0 2.234 2.234 0 1 1 4.468 0z" color="#000" enable-background="new" fill="#f9c9b8"/><path color="#000" enable-background="new" filter="url(#c)" opacity=".15" d="M8.415 6.76h3.645v3.645H8.415z"/><path color="#000" enable-background="new" fill="#f7cb3b" d="M8.415 6.703h3.645v3.645H8.415z"/><path d="M9.87 11.363H5.402l2.234-3.586L8.753 9.57z" color="#000" enable-background="new" filter="url(#d)" opacity=".15"/><path d="M9.87 11.23H5.402l2.234-3.586 1.117 1.793z" color="#000" enable-background="new" fill="#fbe7a1"/><path id="e" color="#000" enable-background="new" fill="#9ef290" opacity=".75" stroke="#18a303" stroke-width=".059" d="M4.961 10.966h.647v.647h-.647z"/><path d="M9.415 10.407h2.705V6.644H8.357v2.07z" color="#000" enable-background="new" fill="none"/><use transform="translate(2.352 -3.763)" width="5033" height="1085" enable-background="new" xlink:href="#e"/><use transform="translate(4.704)" width="5033" height="1085" enable-background="new" xlink:href="#e"/></svg>