<svg width="64" height="64" viewBox="0 0 16.933 16.933" xmlns="http://www.w3.org/2000/svg"><defs><filter id="a" x="-.039" y="-.033" width="1.078" height="1.067" color-interpolation-filters="sRGB"><feGaussianBlur stdDeviation=".206"/></filter></defs><path d="M3.44 1.35a1.32 1.32 0 0 0-1.323 1.323v12.17c0 .734.59 1.324 1.323 1.324h10.053a1.32 1.32 0 0 0 1.323-1.323V4.524L11.642 1.35zm0 .53h7.982l2.865 2.864v10.1a.78.78 0 0 1-.794.793H3.44a.78.78 0 0 1-.793-.794V2.673a.78.78 0 0 1 .793-.795z" color="#000" filter="url(#a)" opacity=".15" style="font-feature-settings:normal;font-variant-alternates:normal;font-variant-caps:normal;font-variant-ligatures:normal;font-variant-numeric:normal;font-variant-position:normal;isolation:auto;mix-blend-mode:normal;paint-order:fill markers stroke;shape-padding:0;text-decoration-color:#000;text-decoration-line:none;text-decoration-style:solid;text-indent:0;text-orientation:mixed;text-transform:none;white-space:normal"/><path d="M3.44 1.058a1.32 1.32 0 0 0-1.323 1.323v12.171c0 .733.59 1.323 1.323 1.323h10.053a1.32 1.32 0 0 0 1.323-1.323V4.233l-3.175-3.175z" fill="#fff" fill-rule="evenodd" style="paint-order:stroke fill markers"/><path d="M3.44 1.058a1.32 1.32 0 0 0-1.323 1.323v12.171c0 .733.59 1.323 1.323 1.323h10.053a1.32 1.32 0 0 0 1.323-1.323V4.233l-3.174-3.175zm0 .53h7.982l2.865 2.864v10.1a.78.78 0 0 1-.794.793H3.44a.78.78 0 0 1-.793-.794V2.381a.78.78 0 0 1 .793-.794z" color="#000" fill="#b138b4" style="font-feature-settings:normal;font-variant-alternates:normal;font-variant-caps:normal;font-variant-ligatures:normal;font-variant-numeric:normal;font-variant-position:normal;isolation:auto;mix-blend-mode:normal;paint-order:fill markers stroke;shape-padding:0;text-decoration-color:#000;text-decoration-line:none;text-decoration-style:solid;text-indent:0;text-orientation:mixed;text-transform:none;white-space:normal"/><path d="m12.171 1.058 2.646 2.646V2.381a1.32 1.32 0 0 0-1.323-1.323z" fill="#b138b4" fill-rule="evenodd" style="paint-order:stroke fill markers"/><g transform="translate(-19.843 2.315)" fill="none" opacity=".5" stroke="#b138b4" stroke-width=".529"><ellipse cx="28.31" cy="3.77" rx="3.439" ry="1.323" enable-background="new" stroke-dashoffset="1" stroke-linejoin="round"/><path d="M24.87 3.704v4.829" enable-background="new"/><g stroke-dashoffset="1" stroke-linejoin="round"><path d="M31.749 5.357a3.44 1.323 0 0 1-1.72 1.146 3.44 1.323 0 0 1-3.44 0 3.44 1.323 0 0 1-1.72-1.146M31.749 6.945a3.44 1.323 0 0 1-1.72 1.145 3.44 1.323 0 0 1-3.44 0 3.44 1.323 0 0 1-1.72-1.145M31.749 8.532a3.44 1.323 0 0 1-1.72 1.146 3.44 1.323 0 0 1-3.44 0 3.44 1.323 0 0 1-1.72-1.146" enable-background="new"/></g><path d="M31.749 3.704v4.829" enable-background="new"/></g></svg>