<svg width="64" height="64" xmlns="http://www.w3.org/2000/svg"><defs><filter id="a" x="-.039" y="-.033" width="1.078" height="1.067" color-interpolation-filters="sRGB"><feGaussianBlur stdDeviation=".206"/></filter></defs><g fill-rule="evenodd"><path d="M3.44 1.354a1.32 1.32 0 0 0-1.323 1.323v12.171c0 .733.59 1.323 1.323 1.323h10.053a1.32 1.32 0 0 0 1.323-1.323V4.53l-3.175-3.175z" filter="url(#a)" opacity=".15" style="paint-order:stroke fill markers" transform="scale(3.7796)"/><path d="M3.44 1.059a1.32 1.32 0 0 0-1.323 1.323v12.17c0 .734.59 1.324 1.323 1.324h10.053a1.32 1.32 0 0 0 1.323-1.323V4.233L11.641 1.06z" fill="#f62e61" style="paint-order:stroke fill markers" transform="scale(3.7796)"/><path d="m14.816 4.233-3.175-3.175V2.91c0 .733.59 1.323 1.323 1.323z" fill="#fff" opacity=".35" style="paint-order:stroke fill markers" transform="scale(3.7796)"/></g><path d="M43.998 11v.584c0 3 2.23 5.416 5 5.416h7v-1h-7c-2.77 0-5-2.23-5-5z" fill-rule="evenodd" opacity=".1" style="paint-order:stroke fill markers"/><path d="M32 17.301 18.637 27.326c-.029.019-.055.042-.082.063l-.016.011v.002c-.326.256-.539.65-.539 1.098v11.229h.004l1.445-1.863.936 2.341 1.82-1.326 1.358 3.729 1.84-2.881 1.88 2.04 1.045-2.583 1.145 1.379 1.578-1.649 1.605 3.783h.44l1.521-5.486 1.168 3.643 1.336-2.06 1.723 3.904h.508l.85-2.971 1.48.935 1.432-1.367 1.48 1.246 1.406-.75V28.5c0-.458-.222-.86-.56-1.115l.006-.008L32 17.301zm0 6.398a5 5 0 0 1 5 5v1.5c0 .831-.669 1.5-1.5 1.5a1.496 1.496 0 0 1-1.37-.89 3 3 0 0 1-2.13.89 3 3 0 0 1-3-3 3 3 0 0 1 3-3 3 3 0 0 1 3 3v1.5a.499.499 0 1 0 1 0v-1.5a4 4 0 0 0-4-4 4 4 0 0 0-4 4 4 4 0 0 0 4 4h3.5a.499.499 0 1 1 0 1H32a5 5 0 0 1-5-5 5 5 0 0 1 5-5zm0 3a2 2 0 0 0-2 2 2 2 0 0 0 2 2 2 2 0 0 0 2-2 2 2 0 0 0-2-2z" enable-background="new" fill="#fff" opacity=".5"/><path d="M22.5 20.699c-.831 0-1.5.67-1.5 1.5v15.002c0 .83.669 1.498 1.5 1.498h11.705l.412-1.486.477 1.486H41.5c.83 0 1.5-.668 1.5-1.498V22.199c0-.83-.67-1.5-1.5-1.5h-19zm9.5 3a5 5 0 0 1 5 5v1.5c0 .831-.669 1.5-1.5 1.5a1.496 1.496 0 0 1-1.37-.89 3 3 0 0 1-2.13.89 3 3 0 0 1-3-3 3 3 0 0 1 3-3 3 3 0 0 1 3 3v1.5a.499.499 0 1 0 1 0v-1.5a4 4 0 0 0-4-4 4 4 0 0 0-4 4 4 4 0 0 0 4 4h3.5a.499.499 0 1 1 0 1H32a5 5 0 0 1-5-5 5 5 0 0 1 5-5zm0 3a2 2 0 0 0-2 2 2 2 0 0 0 2 2 2 2 0 0 0 2-2 2 2 0 0 0-2-2z" enable-background="new" fill="#fff"/><path d="M18 28.5v11.229h.004l1.445-1.863.936 2.341 1.82-1.326 1.357 3.729 1.84-2.881 1.881 2.04 1.045-2.583 1.145 1.379 1.578-1.649 1.87 4.409 1.077-3.88L18 28.502zm17.709 12.115.076.24.084-.129-.16-.111zm3.176 2.174.267.607.102-.355-.37-.252z" enable-background="new" fill="#fcd4e1"/><path d="M46 28.5 29.072 40.082l.4.482 1.578-1.648 1.872 4.408 1.695-6.111 1.168 3.643 1.336-2.061 2.031 4.602 1.049-3.668 1.48.935 1.432-1.367 1.48 1.246 1.407-.75V28.5zM27.543 41.129l-.521.355.261.286.26-.641z" enable-background="new" fill="#fdefef"/></svg>