<svg width="64" height="64" viewBox="0 0 16.933 16.933" xmlns="http://www.w3.org/2000/svg"><defs><filter id="a" x="-.039" y="-.033" width="1.078" height="1.067" color-interpolation-filters="sRGB"><feGaussianBlur stdDeviation=".206"/></filter></defs><path d="M3.44 1.354a1.32 1.32 0 0 0-1.323 1.323v12.171c0 .733.59 1.323 1.323 1.323h10.053a1.32 1.32 0 0 0 1.323-1.323V4.53l-3.175-3.175z" filter="url(#a)" opacity=".15" style="paint-order:stroke fill markers"/><g fill-rule="evenodd"><path transform="scale(.26458)" d="M13 4c-2.77 0-5 2.23-5 5v46c0 2.77 2.23 5 5 5h38c2.77 0 5-2.23 5-5V16L44 4z" fill="#f4f4f4" style="paint-order:stroke fill markers"/><path d="m14.816 4.233-3.175-3.175V2.91c0 .733.59 1.323 1.323 1.323z" fill="#bbb" style="paint-order:stroke fill markers"/></g><path d="M6.385 6.614v5.557H5.267V6.614H3.44V5.556H8.2v1.058zm2.082 4.335.9-.395c.087.293.243.517.47.672.229.152.52.228.874.228.335 0 .6-.088.797-.264.2-.176.3-.412.3-.707 0-.386-.34-.729-1.016-1.03a5.24 5.24 0 0 0-.22-.099c-.764-.352-1.222-.67-1.48-.954a1.528 1.528 0 0 1-.378-1.048c0-.534.192-.967.574-1.299.386-.33.89-.497 1.514-.497.512 0 .94.094 1.286.282.344.185.583.453.716.802l-.882.43a1.418 1.418 0 0 0-.46-.452 1.113 1.113 0 0 0-.57-.144c-.304 0-.546.075-.726.224a.745.745 0 0 0-.266.6c0 .394.393.762 1.177 1.102l.142.063c.687.298 1.105.59 1.36.878.258.283.386.638.386 1.065 0 .621-.207 1.116-.622 1.483-.414.364-.974.546-1.68.546-.59 0-1.076-.128-1.456-.385-.376-.257-.623-.624-.74-1.102z" fill="#007acc" font-size="35" font-weight="700" letter-spacing="0" word-spacing="0"/><path d="M11.641 2.91v.155c0 .794.59 1.433 1.323 1.433h1.852v-.265h-1.852A1.32 1.32 0 0 1 11.64 2.91z" opacity=".1" style="paint-order:stroke fill markers"/></svg>