<svg width="64" height="64" viewBox="0 0 16.933 16.933" xmlns="http://www.w3.org/2000/svg"><defs><filter id="a" x="-.039" y="-.033" width="1.078" height="1.067" color-interpolation-filters="sRGB"><feGaussianBlur stdDeviation=".206"/></filter></defs><path d="M3.44 1.354a1.32 1.32 0 0 0-1.323 1.323v12.171c0 .733.59 1.323 1.323 1.323h10.053a1.32 1.32 0 0 0 1.323-1.323V4.53l-3.175-3.175z" filter="url(#a)" opacity=".15" style="paint-order:stroke fill markers"/><g fill-rule="evenodd"><path transform="scale(.26458)" d="M13 4c-2.77 0-5 2.23-5 5v46c0 2.77 2.23 5 5 5h38c2.77 0 5-2.23 5-5V16L44 4z" fill="#f4f4f4" style="paint-order:stroke fill markers"/><path d="m14.816 4.233-3.175-3.175V2.91c0 .733.59 1.323 1.323 1.323z" fill="#bbb" style="paint-order:stroke fill markers"/></g><path d="M11.641 2.91v.155c0 .794.59 1.433 1.323 1.433h1.852v-.265h-1.852A1.32 1.32 0 0 1 11.64 2.91z" opacity=".1" style="paint-order:stroke fill markers"/><path d="M8.334 4.63c-.88 0-1.587.354-1.587.794v1.058h1.587v.265h-2.91c-.44 0-.794.708-.794 1.587V8.6c0 .88.354 1.587.794 1.587h1.058v-.793s0-1.059 1.058-1.059h2.117s.53 0 .53-.529V5.424c0-.44-.709-.794-1.588-.794zm-.794.53a.265.265 0 1 1 0 .529.265.265 0 0 1 0-.53z" fill="#347ab4"/><path d="M8.599 12.303c.88 0 1.587-.354 1.587-.794v-1.058H8.6v-.265h2.91c.44 0 .794-.708.794-1.587v-.265c0-.88-.354-1.587-.794-1.587h-1.058v1.058c0 .794-.794.794-.794.794H7.541c-.794 0-.794.794-.794.794v2.116c0 .44.708.794 1.587.794zm.794-.794a.265.265 0 1 1 0-.529.265.265 0 0 1 0 .53z" fill="#ffd43b"/></svg>