<svg width="64" height="64" xmlns="http://www.w3.org/2000/svg" xmlns:xlink="http://www.w3.org/1999/xlink"><defs><filter id="a" x="-.039" y="-.033" width="1.078" height="1.067" color-interpolation-filters="sRGB"><feGaussianBlur stdDeviation=".206"/></filter></defs><path transform="scale(3.7796)" d="M3.44 1.354a1.32 1.32 0 0 0-1.323 1.323v12.171c0 .733.59 1.323 1.323 1.323h10.053a1.32 1.32 0 0 0 1.323-1.323V4.53l-3.175-3.175z" filter="url(#a)" opacity=".15" style="paint-order:stroke fill markers"/><g fill-rule="evenodd"><path d="M13 4c-2.77 0-5 2.23-5 5v46c0 2.77 2.23 5 5 5h38c2.77 0 5-2.23 5-5V16L44 4z" fill="#f4f4f4" style="paint-order:stroke fill markers"/><path d="m14.816 4.233-3.175-3.175V2.91c0 .733.59 1.323 1.323 1.323z" fill="#bbb" style="paint-order:stroke fill markers" transform="scale(3.7796)"/></g><path d="M43.998 11v.584c0 3 2.23 5.416 5 5.416h7v-1h-7c-2.77 0-5-2.23-5-5z" opacity=".1" style="paint-order:stroke fill markers"/><path id="b" d="M43 32c-11.921 4.372-16.851 4.113-22 4v7c7.357-.629 14.73-.779 22-4v-6zm-1 1.369v4.924c-6.515 2.732-13.189 3.061-20 3.609v-4.895c4.615.097 9.78-.051 20-3.639" color="#4d4d4d" color-rendering="auto" fill="#892a1f" image-rendering="auto" shape-rendering="auto" style="isolation:auto;mix-blend-mode:normal"/><use y="-11" width="100%" height="100%" color="#4d4d4d" fill="#892a1f" style="isolation:auto;mix-blend-mode:normal" xlink:href="#b"/></svg>