<svg width="64" height="64" viewBox="0 0 16.933 16.933" xmlns="http://www.w3.org/2000/svg"><defs><filter id="a" x="-.039" y="-.033" width="1.078" height="1.067" color-interpolation-filters="sRGB"><feGaussianBlur stdDeviation=".206"/></filter></defs><path d="M3.44 1.354a1.32 1.32 0 0 0-1.323 1.323v12.171c0 .733.59 1.323 1.323 1.323h10.053a1.32 1.32 0 0 0 1.323-1.323V4.53l-3.175-3.175z" filter="url(#a)" opacity=".15" style="paint-order:stroke fill markers"/><g fill-rule="evenodd"><path transform="scale(.26458)" d="M13 4c-2.77 0-5 2.23-5 5v46c0 2.77 2.23 5 5 5h38c2.77 0 5-2.23 5-5V16L44 4z" fill="#f4f4f4" style="paint-order:stroke fill markers"/><path d="m14.816 4.233-3.175-3.175V2.91c0 .733.59 1.323 1.323 1.323z" fill="#bbb" style="paint-order:stroke fill markers"/></g><path d="M11.641 2.91v.155c0 .794.59 1.433 1.323 1.433h1.852v-.265h-1.852A1.32 1.32 0 0 1 11.64 2.91z" opacity=".1" style="paint-order:stroke fill markers"/><path d="M8.518 10.562q-.4 0-.748-.143-.338-.144-.595-.41-.256-.267-.4-.656-.143-.4-.143-.902 0-.492.154-.87.164-.39.43-.656.267-.277.615-.41.349-.144.728-.144.502 0 .81.144.317.133.43.215l-.195.46q-.154-.081-.4-.173-.235-.103-.645-.103-.564 0-.943.4-.369.4-.369 1.137 0 .759.359 1.168.369.4.994.4.44 0 .686-.092.256-.103.37-.174l.173.491q-.133.082-.471.205-.338.113-.84.113zm3.422-2.1q0 .88-.287 1.567-.287.687-.768 1.168-.472.472-1.107.728-.625.246-1.311.246-.687 0-1.322-.246-.625-.256-1.107-.728-.471-.481-.758-1.168-.287-.686-.287-1.568 0-.87.287-1.557.287-.697.758-1.168.482-.471 1.107-.717.635-.257 1.322-.257.686 0 1.311.257.635.246 1.107.717.481.471.768 1.168.287.687.287 1.557zm-.605 0q0-.708-.215-1.292-.215-.584-.594-.994-.38-.42-.912-.645-.523-.225-1.148-.225T7.31 5.53q-.523.225-.902.645-.38.41-.594.994-.216.584-.216 1.291t.216 1.292q.215.584.594 1.004.38.41.902.645.532.226 1.157.226t1.148-.226q.533-.235.912-.645.38-.42.594-1.004.215-.584.215-1.292z" enable-background="new" fill="#999"/></svg>