<svg width="64" height="64" xmlns="http://www.w3.org/2000/svg"><defs><filter id="a" x="-.039" y="-.033" width="1.078" height="1.067" color-interpolation-filters="sRGB"><feGaussianBlur stdDeviation=".206"/></filter></defs><path transform="scale(3.7796)" d="M3.44 1.354a1.32 1.32 0 0 0-1.323 1.323v12.171c0 .733.59 1.323 1.323 1.323h10.053a1.32 1.32 0 0 0 1.323-1.323V4.53l-3.175-3.175z" filter="url(#a)" opacity=".15" style="paint-order:stroke fill markers"/><g fill-rule="evenodd"><path d="M13 4c-2.77 0-5 2.23-5 5v46c0 2.77 2.23 5 5 5h38c2.77 0 5-2.23 5-5V16L44 4z" fill="#66d7fc" style="paint-order:stroke fill markers"/><path d="m14.816 4.233-3.175-3.175V2.91c0 .733.59 1.323 1.323 1.323z" fill="#3d87a0" style="paint-order:stroke fill markers" transform="scale(3.7796)"/></g><path d="M43.998 11v.584c0 3 2.23 5.416 5 5.416h7v-1h-7c-2.77 0-5-2.23-5-5z" opacity=".1" style="paint-order:stroke fill markers"/><g opacity=".4" stroke-width=".132"><path transform="matrix(2 0 0 2 17 15.012)" d="M6.01 3.988v1.559h1.558V3.988zm2 0v1.559h1.558V3.988zm4.26 1.284a1.5 1.5 0 0 0-.602 1.622A1.5 1.5 0 0 0 13 8a1.5 1.5 0 0 0 1.412 1 1.5 1.5 0 0 0 1.412-1 1.5 1.5 0 0 0-1.412-1 1.5 1.5 0 0 0-.848.266A1.5 1.5 0 0 0 12.27 5.27zM13 8H1c0 3.314 2.686 5 6 5s6-1.686 6-5zM3.441 5.996v1.559h1.56V5.996zm2 0v1.559h1.56V5.996zm2 0v1.559h1.56V5.996zm2 0v1.559h1.56V5.996zM3.501 9a.5.5 0 0 1 .5.5.5.5 0 0 1-.5.5.5.5 0 0 1-.5-.5.5.5 0 0 1 .5-.5z" color="#000" opacity="1" style="isolation:auto;mix-blend-mode:normal"/></g></svg>