<svg width="64" height="64" viewBox="0 0 16.933 16.933" xmlns="http://www.w3.org/2000/svg"><defs><filter id="a" x="-.039" y="-.033" width="1.078" height="1.067" color-interpolation-filters="sRGB"><feGaussianBlur stdDeviation=".206"/></filter></defs><path d="M3.44 1.354a1.32 1.32 0 0 0-1.323 1.323v12.171c0 .733.59 1.323 1.323 1.323h10.053a1.32 1.32 0 0 0 1.323-1.323V4.53l-3.175-3.175z" filter="url(#a)" opacity=".15" style="paint-order:stroke fill markers"/><g fill-rule="evenodd"><path transform="scale(.26458)" d="M13 4c-2.77 0-5 2.23-5 5v46c0 2.77 2.23 5 5 5h38c2.77 0 5-2.23 5-5V16L44 4z" fill="#f4f4f4" style="paint-order:stroke fill markers"/><path d="m14.816 4.233-3.175-3.175V2.91c0 .733.59 1.323 1.323 1.323z" fill="#bbb" style="paint-order:stroke fill markers"/></g><path d="M11.641 2.91v.155c0 .794.59 1.433 1.323 1.433h1.852v-.265h-1.852A1.32 1.32 0 0 1 11.64 2.91z" opacity=".1" style="paint-order:stroke fill markers"/><path d="M9.354 9.518c.226.37.52.64 1.042.64.437.001.717-.218.717-.52 0-.362-.287-.49-.769-.701l-.264-.114C9.318 8.5 8.81 8.092 8.81 7.232c0-.792.604-1.395 1.547-1.395.672 0 1.155.233 1.503.845l-.823.528c-.181-.324-.376-.452-.68-.452-.31 0-.505.196-.505.452 0 .317.196.446.65.642l.263.113c.898.385 1.405.777 1.405 1.66 0 .95-.748 1.471-1.75 1.471-.982 0-1.616-.467-1.926-1.08zm-3.732.091c.166.294.317.543.68.543.347 0 .566-.135.566-.663V5.897h1.056v3.606c0 1.094-.641 1.591-1.577 1.591-.846 0-1.336-.437-1.585-.964z" enable-background="new" fill="#eab305"/></svg>