<svg width="64" height="64" viewBox="0 0 16.933 16.933" xmlns="http://www.w3.org/2000/svg"><defs><filter id="a" x="-.039" y="-.033" width="1.078" height="1.067" color-interpolation-filters="sRGB"><feGaussianBlur stdDeviation=".206"/></filter></defs><path d="M3.44 1.354a1.32 1.32 0 0 0-1.323 1.323v12.171c0 .733.59 1.323 1.323 1.323h10.053a1.32 1.32 0 0 0 1.323-1.323V4.53l-3.175-3.175z" filter="url(#a)" opacity=".15" style="paint-order:stroke fill markers"/><g fill-rule="evenodd"><path transform="scale(.26458)" d="M13 4c-2.77 0-5 2.23-5 5v46c0 2.77 2.23 5 5 5h38c2.77 0 5-2.23 5-5V16L44 4z" fill="#f4f4f4" style="paint-order:stroke fill markers"/><path d="m14.816 4.233-3.175-3.175V2.91c0 .733.59 1.323 1.323 1.323z" fill="#bbb" style="paint-order:stroke fill markers"/></g><path d="M11.641 2.91v.155c0 .794.59 1.433 1.323 1.433h1.852v-.265h-1.852A1.32 1.32 0 0 1 11.64 2.91z" opacity=".1" style="paint-order:stroke fill markers"/><path class="st1" d="M10.96 6.07c.268.067.473.186.66.38.098.105.242.294.254.34.003.013-.456.321-.735.494-.01.007-.05-.037-.095-.104-.136-.198-.278-.283-.496-.298-.32-.022-.527.146-.525.426 0 .082.012.13.045.197.07.146.201.233.612.411.756.325 1.08.54 1.28.845.225.34.276.883.123 1.287-.168.44-.583.738-1.168.837-.181.032-.61.027-.805-.009-.424-.075-.826-.285-1.074-.56-.098-.107-.287-.387-.275-.407a.786.786 0 0 1 .097-.062l.392-.226.304-.176.063.094c.09.135.284.322.4.384.338.177.8.152 1.029-.052a.389.389 0 0 0 .137-.317.387.387 0 0 0-.079-.268c-.082-.118-.25-.217-.726-.423-.544-.235-.78-.38-.994-.612a1.393 1.393 0 0 1-.29-.528c-.04-.149-.05-.523-.018-.674.112-.526.51-.893 1.083-1.002.186-.035.618-.022.801.023zm-2.48.441.004.433H7.11v3.906h-.972V6.944H4.763V6.52c0-.235.005-.431.011-.436.005-.007.842-.01 1.856-.009l1.846.005z" enable-background="new" fill="#1a7fd4"/></svg>