<svg width="64" height="64" xmlns="http://www.w3.org/2000/svg"><defs><filter id="a" x="-.039" y="-.033" width="1.078" height="1.067" color-interpolation-filters="sRGB"><feGaussianBlur stdDeviation=".206"/></filter></defs><path d="M3.44 1.354a1.32 1.32 0 0 0-1.323 1.323v12.171c0 .733.59 1.323 1.323 1.323h10.053a1.32 1.32 0 0 0 1.323-1.323V4.53l-3.175-3.175z" filter="url(#a)" opacity=".15" style="paint-order:stroke fill markers" transform="scale(3.7796)"/><g fill-rule="evenodd"><path d="M13 4c-2.77 0-5 2.23-5 5v46c0 2.77 2.23 5 5 5h38c2.77 0 5-2.23 5-5V16L44 4z" fill="#f4f4f4" style="paint-order:stroke fill markers"/><path d="m14.816 4.233-3.175-3.175V2.91c0 .733.59 1.323 1.323 1.323z" fill="#bbb" style="paint-order:stroke fill markers" transform="scale(3.7796)"/></g><path d="M11.641 2.91v.155c0 .794.59 1.433 1.323 1.433h1.852v-.265h-1.852A1.32 1.32 0 0 1 11.64 2.91z" opacity=".1" style="paint-order:stroke fill markers" transform="scale(3.7796)"/><path d="M26.375 44c2.845-2.962 5.445-6.041 5.777-6.843.332-.801 1.64-2.385 2.909-3.518 3.32-2.966 5.256-2.733 6.922.832.425.909 1.01 1.652 1.3 1.652.662 0 3.717-2.974 3.717-3.62 0-.835-1.568-2.275-2.477-2.275-.96 0-1.878-1.377-1.878-2.815 0-1.09-3-4.124-5.177-5.236-1.038-.53-2.825-.791-5.415-.791-3.917 0-5.554.649-3.047 1.208.753.168 2.17.975 3.15 1.795 2.52 2.11 2.419 3.695-.457 7.112-1.23 1.461-2.537 2.657-2.906 2.657C27.978 34.158 17 44.365 17 45.122c0 .572 3.37 4.264 3.893 4.264.17 0 2.637-2.423 5.482-5.386z" color="#000" fill="#919caf" overflow="visible" style="isolation:auto;mix-blend-mode:normal"/></svg>