<svg width="64" height="64" viewBox="0 0 16.933 16.933" xmlns="http://www.w3.org/2000/svg"><defs><filter id="a" x="-.039" y="-.033" width="1.078" height="1.067" color-interpolation-filters="sRGB"><feGaussianBlur stdDeviation=".206"/></filter></defs><path d="M3.44 1.354a1.32 1.32 0 0 0-1.323 1.323v12.171c0 .733.59 1.323 1.323 1.323h10.053a1.32 1.32 0 0 0 1.323-1.323V4.53l-3.175-3.175z" filter="url(#a)" opacity=".15" style="paint-order:stroke fill markers"/><g fill-rule="evenodd"><path transform="scale(.26458)" d="M13 4c-2.77 0-5 2.23-5 5v46c0 2.77 2.23 5 5 5h38c2.77 0 5-2.23 5-5V16L44 4z" fill="#f4f4f4" style="paint-order:stroke fill markers"/><path d="m14.816 4.233-3.175-3.175V2.91c0 .733.59 1.323 1.323 1.323z" fill="#bbb" style="paint-order:stroke fill markers"/></g><path d="M11.641 2.91v.155c0 .794.59 1.433 1.323 1.433h1.852v-.265h-1.852A1.32 1.32 0 0 1 11.64 2.91z" opacity=".1" style="paint-order:stroke fill markers"/><path d="M5.292 6.614H6.35v.53H5.292s-.53 0-.53.529V9.26c0 .53.53.53.53.53H6.35v.529H5.292s-1.059 0-1.059-1.059V7.673c0-1.058 1.059-1.058 1.059-1.058zm2.645.53h.53v1.058h1.058v.53H8.467v1.057h-.53V8.731H6.88v-.529h1.058zm3.175 0h.53v1.058H12.7v.53H11.64v1.057h-.529V8.731h-1.058v-.529h1.058z" color="#000" fill="#2b898f" style="text-decoration-line:none;text-indent:0;text-transform:none"/></svg>