<svg width="64" height="64" viewBox="0 0 16.933 16.933" xmlns="http://www.w3.org/2000/svg"><defs><filter id="a" x="-.039" y="-.033" width="1.078" height="1.067" color-interpolation-filters="sRGB"><feGaussianBlur stdDeviation=".206"/></filter></defs><path d="M3.44 1.354a1.32 1.32 0 0 0-1.323 1.323v12.171c0 .733.59 1.323 1.323 1.323h10.053a1.32 1.32 0 0 0 1.323-1.323V4.53l-3.175-3.175z" filter="url(#a)" opacity=".15" style="paint-order:stroke fill markers"/><g fill-rule="evenodd"><path transform="scale(.26458)" d="M13 4c-2.77 0-5 2.23-5 5v46c0 2.77 2.23 5 5 5h38c2.77 0 5-2.23 5-5V16L44 4z" fill="#f4f4f4" style="paint-order:stroke fill markers"/><path d="m14.816 4.233-3.175-3.175V2.91c0 .733.59 1.323 1.323 1.323z" fill="#bbb" style="paint-order:stroke fill markers"/></g><path d="M11.641 2.91v.155c0 .794.59 1.433 1.323 1.433h1.852v-.265h-1.852A1.32 1.32 0 0 1 11.64 2.91z" opacity=".1" style="paint-order:stroke fill markers"/><path d="m28.138 45.125-.564-23.909q-2.46.923-3.845 2.888-1.367 1.966-1.367 4.888 0 .666.068 1.094.085.41.17.666.086.24.155.376.085.137.085.24-.906 0-1.606-.171-.7-.188-1.18-.582-.46-.393-.717-1.042-.24-.65-.24-1.606 0-1.163.496-2.29.513-1.128 1.384-2.137.89-1.008 2.068-1.862 1.197-.855 2.547-1.47 1.367-.632 2.837-.974 1.486-.36 2.956-.36.393 0 .718.018.342.017.683.051l.308 21.533 7.366-21.43h2.444L33.18 45.123z" style="isolation:auto;mix-blend-mode:normal" transform="translate(.03 -.242) scale(.27214)" color="#000" fill="#7839b7"/></svg>