<svg width="64" height="64" viewBox="0 0 16.933 16.933" xmlns="http://www.w3.org/2000/svg"><defs><filter id="a" x="-.039" y="-.033" width="1.078" height="1.067" color-interpolation-filters="sRGB"><feGaussianBlur stdDeviation=".206"/></filter></defs><path d="M3.44 1.354a1.32 1.32 0 0 0-1.323 1.323v12.171c0 .733.59 1.323 1.323 1.323h10.053a1.32 1.32 0 0 0 1.323-1.323V4.53l-3.175-3.175z" filter="url(#a)" opacity=".15" style="paint-order:stroke fill markers"/><g fill-rule="evenodd"><path transform="scale(.26458)" d="M13 4c-2.77 0-5 2.23-5 5v46c0 2.77 2.23 5 5 5h38c2.77 0 5-2.23 5-5V16L44 4z" fill="#f4f4f4" style="paint-order:stroke fill markers"/><path d="m14.816 4.233-3.175-3.175V2.91c0 .733.59 1.323 1.323 1.323z" fill="#bbb" style="paint-order:stroke fill markers"/></g><path d="M11.641 2.91v.155c0 .794.59 1.433 1.323 1.433h1.852v-.265h-1.852A1.32 1.32 0 0 1 11.64 2.91z" opacity=".1" style="paint-order:stroke fill markers"/><path d="m10.231 5.434.064.085-.31 1.19-.117.02-.75-1.19.055-.105zm-2.47 0 .052.107-.882 1.257-.117-.03-.177-1.257.066-.077zm3.138.024 1.323 1.72-.051.108h-1.852l-.063-.087.53-1.72zm-2.381 0 1.322 1.72-.05.108H7.144l-.051-.108 1.323-1.72zm-2.483 0 .113.022.53 1.72-.063.086H4.763l-.051-.108zm6.136 2.093.048.111L8.78 11.5l-.108-.071 1.587-3.837.06-.04zm-2.381 0 .06.092-1.322 3.307h-.122L7.083 7.643l.06-.092zm-3.175 0 .06.04 1.588 3.837-.11.07-3.439-3.836.049-.11z" color="#000" fill="#f44336" fill-rule="evenodd" style="isolation:auto;mix-blend-mode:normal;text-decoration-color:#000;text-decoration-line:none;text-decoration-style:solid;text-indent:0;text-transform:none;white-space:normal"/></svg>