<svg width="64" height="64" xmlns="http://www.w3.org/2000/svg"><defs><filter id="a" x="-.039" y="-.033" width="1.078" height="1.067" color-interpolation-filters="sRGB"><feGaussianBlur stdDeviation=".206"/></filter></defs><path d="M3.44 1.354a1.32 1.32 0 0 0-1.323 1.323v12.171c0 .733.59 1.323 1.323 1.323h10.053a1.32 1.32 0 0 0 1.323-1.323V4.53l-3.175-3.175z" filter="url(#a)" opacity=".15" style="paint-order:stroke fill markers" transform="scale(3.7796)"/><g fill-rule="evenodd"><path d="M13 4c-2.77 0-5 2.23-5 5v46c0 2.77 2.23 5 5 5h38c2.77 0 5-2.23 5-5V16L44 4z" fill="#f4f4f4" style="paint-order:stroke fill markers"/><path d="m14.816 4.233-3.175-3.175V2.91c0 .733.59 1.323 1.323 1.323z" fill="#bbb" style="paint-order:stroke fill markers" transform="scale(3.7796)"/></g><path d="M11.641 2.91v.155c0 .794.59 1.433 1.323 1.433h1.852v-.265h-1.852A1.32 1.32 0 0 1 11.64 2.91z" opacity=".1" style="paint-order:stroke fill markers" transform="scale(3.7796)"/><g fill="#f55" aria-label="SPEC"><path d="M17.115 37.853c2.606 0 4.146-1.57 4.146-3.414 0-1.631-.9-2.5-2.271-3.064l-1.479-.625c-.96-.38-1.768-.67-1.768-1.478 0-.747.64-1.189 1.631-1.189.93 0 1.677.335 2.393.93l1.143-1.418c-.914-.93-2.225-1.448-3.536-1.448-2.286 0-3.902 1.418-3.902 3.262 0 1.646 1.144 2.56 2.287 3.033l1.509.64c1.005.427 1.691.686 1.691 1.524 0 .793-.624 1.296-1.798 1.296-.99 0-2.058-.503-2.865-1.25L13 36.207a6.01 6.01 0 0 0 4.115 1.646zM23.243 37.64h2.256V33.63h1.509c2.423 0 4.359-1.158 4.359-3.734 0-2.667-1.92-3.536-4.42-3.536h-3.704zm2.256-5.792v-3.704h1.28c1.555 0 2.378.442 2.378 1.753 0 1.296-.747 1.951-2.302 1.951zM33.423 37.64h7.087v-1.89H35.68v-3.018h3.962v-1.89H35.68v-2.606h4.663V26.36h-6.919zM47.403 37.853c1.463 0 2.667-.58 3.597-1.662L49.81 34.79c-.61.655-1.372 1.113-2.332 1.113-1.783 0-2.941-1.479-2.941-3.933 0-2.423 1.28-3.886 2.987-3.886.854 0 1.509.396 2.073.945l1.189-1.433c-.732-.762-1.875-1.448-3.308-1.448-2.85 0-5.243 2.18-5.243 5.899 0 3.764 2.317 5.807 5.167 5.807z"/></g></svg>