<svg width="64" height="64" xmlns="http://www.w3.org/2000/svg"><defs><filter id="a" x="-.039" y="-.033" width="1.078" height="1.067" color-interpolation-filters="sRGB"><feGaussianBlur stdDeviation=".206"/></filter><filter id="b" x="-.036" y="-.036" width="1.072" height="1.072" color-interpolation-filters="sRGB"><feGaussianBlur stdDeviation=".3"/></filter><filter id="c" x="-.06" y="-.06" width="1.12" height="1.12" color-interpolation-filters="sRGB"><feGaussianBlur stdDeviation=".5"/></filter></defs><path d="M3.44 1.354a1.32 1.32 0 0 0-1.323 1.323v12.171c0 .733.59 1.323 1.323 1.323h10.053a1.32 1.32 0 0 0 1.323-1.323V4.53l-3.175-3.175z" filter="url(#a)" opacity=".15" style="paint-order:stroke fill markers" transform="scale(3.7796)"/><g fill-rule="evenodd"><path d="M13 4c-2.77 0-5 2.23-5 5v46c0 2.77 2.23 5 5 5h38c2.77 0 5-2.23 5-5V16L44 4z" fill="#f4f4f4" style="paint-order:stroke fill markers"/><path d="m14.816 4.233-3.175-3.175V2.91c0 .733.59 1.323 1.323 1.323z" fill="#bbb" style="paint-order:stroke fill markers" transform="scale(3.7796)"/></g><path d="M11.641 2.91v.155c0 .794.59 1.433 1.323 1.433h1.852v-.265h-1.852A1.32 1.32 0 0 1 11.64 2.91z" opacity=".1" style="paint-order:stroke fill markers" transform="scale(3.7796)"/><path d="M18 26h16c1.108 0 2 .892 2 2v16c0 1.108-.892 2-2 2H18c-1.108 0-2-.892-2-2V28c0-1.108.892-2 2-2z" filter="url(#b)" opacity=".15" stroke="#000" stroke-linejoin="round" stroke-opacity=".294" transform="translate(-.5 6.5)"/><path d="M17.5 32.5h16c1.108 0 2 .892 2 2v16c0 1.108-.892 2-2 2h-16c-1.108 0-2-.892-2-2v-16c0-1.108.892-2 2-2z" fill="#e6e6e6"/><path d="M23.268 35.464a.315.317 0 0 0-.304.292l-.048.452c-.047.385-.084.714-.11.986a.315.317 0 0 0 0 .002l-.048.508a.315.317 0 0 0 0 .002l-.008.08c-.507.03-1.025.051-1.573.051-.423 0-.853-.014-1.288-.045a.315.317 0 0 0-.336.343l.103 1.135a.315.317 0 0 0 .294.288c.18.011.41.018.699.018.627 0 1.293-.036 1.971-.082a41.979 41.979 0 0 0-.114 1.994c-.452.254-.854.493-1.143.705a.315.317 0 0 0-.004.002c-1.676 1.27-2.566 2.755-2.566 4.397 0 .609.13 1.113.437 1.474.306.361.776.534 1.316.534.745 0 1.515-.305 2.301-.788.038.234.088.545.105.637a.315.317 0 0 0 .42.242l1.169-.436a.315.317 0 0 0 .193-.38 9.212 9.212 0 0 1-.243-1.325c1.276-1.242 2.305-2.795 3.11-4.625.549.086 1.023.235 1.402.468a.315.317 0 0 0 .002.002c.862.521 1.251 1.205 1.251 2.181 0 .945-.423 1.663-1.368 2.256-.738.467-1.755.781-3.055.92a.315.317 0 0 0-.23.489l.694 1.08a.315.317 0 0 0 .308.14c1.556-.222 2.806-.668 3.736-1.361 1.185-.884 1.81-2.085 1.81-3.508 0-1.294-.522-2.39-1.524-3.193a.315.317 0 0 0-.004-.002c-.633-.494-1.476-.791-2.459-.962.058-.178.132-.386.158-.506a.315.317 0 0 0-.237-.377l-1.192-.278a.315.317 0 0 0-.377.232c-.085.339-.16.602-.235.85-.719.077-1.362.21-1.95.384.021-.488.048-.959.09-1.393 1.655-.181 3.203-.445 4.625-.805a.315.317 0 0 0 .237-.343l-.126-1.12a.315.317 0 0 0-.397-.27c-1.39.384-2.78.644-4.168.812.056-.53.117-1.075.197-1.72a.315.317 0 0 0-.292-.355l-1.2-.08a.315.317 0 0 0-.03-.002zm2.303 6.592a12.162 12.162 0 0 1-1.267 2.091c-.02-.52-.04-1.026-.042-1.736.417-.16.863-.258 1.309-.355zm-3.063 1.385c.02.938.051 1.814.108 2.478-.693.611-1.317.911-1.857.911-.096 0-.106-.015-.114-.024s-.036-.055-.036-.182c0-.07-.013-.135-.026-.2.008-.052.026-.106.026-.158l-.002.024c.056-.72.46-1.493 1.27-2.317a.315.317 0 0 0 .003-.004c.221-.235.42-.362.628-.528z" fill="#999" font-size="16" font-weight="700" letter-spacing="0" word-spacing="0"/><path d="M30 14c-1.108 0-2 .892-2 2v16c0 1.108.892 2 2 2h16c1.108 0 2-.892 2-2V16c0-1.108-.892-2-2-2z" color="#000" fill="#074271" filter="url(#c)" opacity=".15" stroke="#0b5fa1" stroke-linejoin="round" transform="translate(-.5 6.5)"/><path d="M29.5 20.5c-1.108 0-2 .892-2 2v16c0 1.108.892 2 2 2h16c1.108 0 2-.892 2-2v-16c0-1.108-.892-2-2-2z" color="#000" fill="#44a5f3"/><path d="m36.438 24.5-4.471 12h2.058l1.24-3.6H39.7l1.256 3.6h2.08l-4.472-12zm1.062 1.98 1.79 5.22h-3.614z" color="#000" fill="#fff"/></svg>