<svg width="64" height="64" viewBox="0 0 16.933 16.933" xmlns="http://www.w3.org/2000/svg"><defs><filter id="a" x="-.039" y="-.033" width="1.078" height="1.067" color-interpolation-filters="sRGB"><feGaussianBlur stdDeviation=".206"/></filter></defs><path d="M3.44 1.354a1.32 1.32 0 0 0-1.323 1.323v12.171c0 .733.59 1.323 1.323 1.323h10.053a1.32 1.32 0 0 0 1.323-1.323V4.53l-3.175-3.175z" filter="url(#a)" opacity=".15" style="paint-order:stroke fill markers"/><g fill-rule="evenodd"><path transform="scale(.26458)" d="M13 4c-2.77 0-5 2.23-5 5v46c0 2.77 2.23 5 5 5h38c2.77 0 5-2.23 5-5V16L44 4z" fill="#f4f4f4" style="paint-order:stroke fill markers"/><path d="m14.816 4.233-3.175-3.175V2.91c0 .733.59 1.323 1.323 1.323z" fill="#bbb" style="paint-order:stroke fill markers"/></g><path d="M11.641 2.91v.155c0 .794.59 1.433 1.323 1.433h1.852v-.265h-1.852A1.32 1.32 0 0 1 11.64 2.91z" opacity=".1" style="paint-order:stroke fill markers"/><g color="#000"><path d="M4.894 10.054h.53c.073 0 .132.06.132.132v.53a.132.132 0 0 1-.133.132h-.529a.132.132 0 0 1-.132-.132v-.53c0-.073.06-.132.132-.132zm1.302 0c-.06.004-.112.051-.11.102v.59c0 .054.057.102.121.102h4.518c.064 0 .123-.048.122-.102v-.59c0-.054-.058-.102-.122-.102H6.197z" fill="#a2aab9" overflow="visible"/><path d="M5.423 11.642h.53c.073 0 .132.06.132.132v.53a.132.132 0 0 1-.133.131h-.529a.132.132 0 0 1-.132-.132v-.53c0-.072.06-.13.132-.13zm1.302 0c-.06.004-.112.05-.11.101v.59c0 .054.057.103.122.102h4.517c.064 0 .123-.048.122-.1v-.59c0-.055-.058-.104-.122-.103z" fill="#abd56b" overflow="visible"/><path d="M4.894 13.23h.53c.073 0 .132.06.132.131v.53a.132.132 0 0 1-.133.132h-.529a.132.132 0 0 1-.132-.132v-.53c0-.073.06-.132.132-.132zm1.302 0c-.06.003-.112.05-.11.101v.59c0 .054.057.102.121.102h4.518c.064 0 .123-.048.122-.102v-.59c0-.054-.058-.102-.122-.102H6.197zM4.894 3.703h.53c.073 0 .132.06.132.132v.53a.132.132 0 0 1-.133.132h-.529a.132.132 0 0 1-.132-.132v-.53c0-.073.06-.132.132-.132zm1.302 0c-.06.004-.112.051-.11.102v.59c0 .054.057.102.121.102h4.518c.064 0 .123-.048.122-.102v-.59c0-.054-.058-.102-.122-.102H6.197z" fill="#a2aab9" overflow="visible"/><path d="M5.423 5.292h.53c.073 0 .132.06.132.132v.53a.132.132 0 0 1-.133.131h-.529a.132.132 0 0 1-.132-.132v-.53c0-.072.06-.13.132-.13zm1.302 0c-.06.004-.112.05-.11.101v.59c0 .054.057.103.122.102h4.517c.064 0 .123-.048.122-.1v-.59c0-.055-.058-.104-.122-.103zM5.423 8.467h.53c.073 0 .132.06.132.132v.53a.132.132 0 0 1-.133.131h-.529a.132.132 0 0 1-.132-.132v-.53c0-.072.06-.13.132-.13zm1.302 0c-.06.004-.112.05-.11.101v.59c0 .054.057.103.122.102h4.517c.064 0 .123-.048.122-.1v-.59c0-.055-.058-.104-.122-.103z" fill="#abd56b" overflow="visible"/><path d="M5.952 6.88h.53c.073 0 .132.06.132.131v.53a.132.132 0 0 1-.132.132h-.53a.132.132 0 0 1-.132-.132v-.53c0-.073.06-.132.132-.132zm1.303 0c-.06.003-.113.05-.112.101v.59c0 .054.058.102.123.102h4.517c.064 0 .123-.048.123-.102v-.59c0-.054-.059-.102-.123-.102z" fill="#efb458" overflow="visible"/></g></svg>