<svg width="64" height="64" viewBox="0 0 16.933 16.933" xmlns="http://www.w3.org/2000/svg"><defs><filter id="a" x="-.039" y="-.033" width="1.078" height="1.067" color-interpolation-filters="sRGB"><feGaussianBlur stdDeviation=".206"/></filter></defs><path d="M3.44 1.354a1.32 1.32 0 0 0-1.323 1.323v12.171c0 .733.59 1.323 1.323 1.323h10.053a1.32 1.32 0 0 0 1.323-1.323V4.53l-3.175-3.175z" filter="url(#a)" opacity=".15" style="paint-order:stroke fill markers"/><g fill-rule="evenodd"><path transform="scale(.26458)" d="M13 4c-2.77 0-5 2.23-5 5v46c0 2.77 2.23 5 5 5h38c2.77 0 5-2.23 5-5V16L44 4z" fill="#f4f4f4" style="paint-order:stroke fill markers"/><path d="m14.816 4.233-3.175-3.175V2.91c0 .733.59 1.323 1.323 1.323z" fill="#bbb" style="paint-order:stroke fill markers"/></g><path d="M11.641 2.91v.155c0 .794.59 1.433 1.323 1.433h1.852v-.265h-1.852A1.32 1.32 0 0 1 11.64 2.91z" opacity=".1" style="paint-order:stroke fill markers"/><g transform="matrix(.00802 0 0 .00802 4.668 4.67)"><path d="M877.79 267.49c49.976 98.079 62.591 210.98 35.499 317.67s-92.043 199.88-182.74 262.21a453.42 453.42 0 0 1-310.24 76.578c-109.28-12.964-210.14-65.22-283.79-147.02-152.35-169.2-155.81-425.03-7.983-598.14 141.02-165.14 378.02-206.18 565.33-101.96a458.041 458.041 0 0 1 26.77 16.117" fill="none" stroke="#888" stroke-dasharray="62.038" stroke-width="16.496"/><circle cx="473.6" cy="473.46" r="362.92" fill="#1a7fd4"/><circle cx="622.07" cy="324.99" r="82.482" fill="#fff"/><circle cx="820.02" cy="127.04" r="82.482" fill="#1a7fd4"/></g></svg>