<svg width="64" height="64" xmlns="http://www.w3.org/2000/svg"><defs><filter id="a" x="-.039" y="-.033" width="1.078" height="1.067" color-interpolation-filters="sRGB"><feGaussianBlur stdDeviation=".206"/></filter></defs><path transform="scale(3.7796)" d="M3.44 1.354a1.32 1.32 0 0 0-1.323 1.323v12.171c0 .733.59 1.323 1.323 1.323h10.053a1.32 1.32 0 0 0 1.323-1.323V4.53l-3.175-3.175z" filter="url(#a)" opacity=".15" style="paint-order:stroke fill markers"/><g fill-rule="evenodd"><path d="M13 4c-2.77 0-5 2.23-5 5v46c0 2.77 2.23 5 5 5h38c2.77 0 5-2.23 5-5V16L44 4z" fill="#f4f4f4" style="paint-order:stroke fill markers"/><path d="m14.816 4.233-3.175-3.175V2.91c0 .733.59 1.323 1.323 1.323z" fill="#bbb" style="paint-order:stroke fill markers" transform="scale(3.7796)"/></g><path d="M36.726 20.492a6.02 6.02 0 0 0-2.406.48h-.002a5.52 5.52 0 0 0-1.93 1.327v.001l-.005.005-.002.002a6.18 6.18 0 0 0-1.228 2.079v.001c-.295.796-.439 1.672-.439 2.617 0 .96.144 1.842.438 2.639.29.788.701 1.478 1.23 2.058v.002l.004.004.002.002a5.78 5.78 0 0 0 1.926 1.348h.001l.003.002.003.001h.001a6.27 6.27 0 0 0 2.404.457c.856 0 1.663-.151 2.404-.456l.005-.002.004-.002a5.547 5.547 0 0 0 1.908-1.355l.001-.001a6.035 6.035 0 0 0 1.253-2.058c.294-.797.437-1.68.437-2.639 0-.943-.144-1.818-.436-2.613l-.002-.006a5.994 5.994 0 0 0-1.252-2.078l-.001-.001a5.306 5.306 0 0 0-1.912-1.334h-.002a6.022 6.022 0 0 0-2.402-.48zm-.003 1.022h.003c.734 0 1.397.133 2.006.397h.002l.003.002.002.001h.002c.61.252 1.123.61 1.553 1.081l.002.002.005.006c.444.473.79 1.046 1.04 1.735l.004.011.002.007v.001c.243.666.369 1.412.369 2.247 0 .858-.128 1.617-.374 2.285a4.988 4.988 0 0 1-1.041 1.716l-.002.002-.003.004-.002.002c-.43.472-.944.837-1.554 1.102l-.002.001-.001.001c-.61.25-1.276.378-2.01.378a5.227 5.227 0 0 1-2.011-.378h-.002l-.001-.002a4.729 4.729 0 0 1-1.579-1.105l-.002-.002a5.185 5.185 0 0 1-1.022-1.719c-.246-.668-.374-1.426-.374-2.284 0-.838.126-1.586.37-2.252l.003-.01.001-.002.001-.004c.25-.69.591-1.264 1.021-1.737h.001l.001-.002a4.47 4.47 0 0 1 1.577-1.084l.004-.001h.001l.004-.002a4.974 4.974 0 0 1 2.004-.398zm-12.411 1.98a4.59 4.59 0 0 0-1.83.365h-.002v.001a4.22 4.22 0 0 0-1.474 1.014l-.001.002-.002.002-.002.002a4.704 4.704 0 0 0-.935 1.582l-.001.003a5.69 5.69 0 0 0-.33 1.976c0 .722.107 1.39.331 1.996.22.597.533 1.123.935 1.565l.002.002.003.004c.413.44.909.785 1.47 1.028l.01.005a4.775 4.775 0 0 0 1.826.346 4.77 4.77 0 0 0 1.825-.346l.006-.003.004-.002a4.237 4.237 0 0 0 1.456-1.033l.001-.002c.413-.44.733-.967.953-1.564a5.735 5.735 0 0 0 .332-1.996 5.69 5.69 0 0 0-.33-1.977l-.001-.002a4.565 4.565 0 0 0-.955-1.583v-.001l-.001-.001a4.057 4.057 0 0 0-1.459-1.017h-.002a4.587 4.587 0 0 0-1.83-.366zm-.03 1.022h.03c.525 0 .997.095 1.43.283l.004.001.005.002c.433.179.793.431 1.098.764l.003.003.004.004c.316.336.563.744.741 1.238l.003.007c.175.477.267 1.015.267 1.623 0 .62-.092 1.165-.268 1.642a3.55 3.55 0 0 1-.743 1.224l-.002.002-.001.002-.001.001-.002.002c-.305.335-.67.593-1.104.782l-.002.001h-.001a3.729 3.729 0 0 1-1.431.27c-.527 0-1-.092-1.432-.27h-.003a3.358 3.358 0 0 1-1.121-.784l-.001-.001-.001-.002a3.693 3.693 0 0 1-.73-1.226c-.176-.477-.268-1.022-.268-1.643 0-.608.092-1.147.268-1.624v-.003h.001v-.003c.18-.496.424-.904.73-1.24l.001-.001c.316-.336.684-.59 1.117-.768l.004-.002.004-.002a3.539 3.539 0 0 1 1.392-.278zm12.587 11.205c-4.505 0-7.252.41-8.967 1.683-.856.633-1.418 1.493-1.741 2.522-.311.99-.414 2.23-.425 3.579l1.022.002c.011-1.29.116-2.44.378-3.275.273-.868.695-1.504 1.374-2.007 1.368-1.014 3.921-1.482 8.359-1.482 4.437 0 6.99.469 8.357 1.482.679.503 1.1 1.138 1.372 2.007.261.835.363 1.983.373 3.274h1.022c-.009-1.349-.11-2.59-.42-3.58-.321-1.028-.884-1.888-1.739-2.522-1.715-1.272-4.46-1.683-8.965-1.683zm-12.861-.214c-3.194.01-5.08.32-6.36 1.276-.648.483-1.078 1.15-1.32 1.932-.242.786-.318 1.693-.32 2.764v1.528h1.021v-1.526c.003-1.021.082-1.837.276-2.465.192-.624.483-1.064.953-1.414.934-.697 2.628-1.06 5.75-1.073z" color="#000" fill="#f9b72b" style="font-feature-settings:normal;font-variant-alternates:normal;font-variant-caps:normal;font-variant-ligatures:normal;font-variant-numeric:normal;font-variant-position:normal;isolation:auto;mix-blend-mode:normal;shape-padding:0;text-decoration-color:#000;text-decoration-line:none;text-decoration-style:solid;text-indent:0;text-orientation:mixed;text-transform:none;white-space:normal"/><path d="M43.998 11v.584c0 3 2.23 5.416 5 5.416h7v-1h-7c-2.77 0-5-2.23-5-5z" opacity=".1" style="paint-order:stroke fill markers"/></svg>