<svg width="64" height="64" viewBox="0 0 16.933 16.933" xmlns="http://www.w3.org/2000/svg"><defs><filter id="a" x="-.039" y="-.033" width="1.078" height="1.067" color-interpolation-filters="sRGB"><feGaussianBlur stdDeviation=".206"/></filter></defs><path d="M3.44 1.354a1.32 1.32 0 0 0-1.323 1.323v12.171c0 .733.59 1.323 1.323 1.323h10.053a1.32 1.32 0 0 0 1.323-1.323V4.53l-3.175-3.175z" filter="url(#a)" opacity=".15" style="paint-order:stroke fill markers"/><g fill-rule="evenodd"><path transform="scale(.26458)" d="M13 4c-2.77 0-5 2.23-5 5v46c0 2.77 2.23 5 5 5h38c2.77 0 5-2.23 5-5V16L44 4z" fill="#f4f4f4" style="paint-order:stroke fill markers"/><path d="m14.816 4.233-3.175-3.175V2.91c0 .733.59 1.323 1.323 1.323z" fill="#bbb" style="paint-order:stroke fill markers"/></g><path d="M11.641 2.91v.155c0 .794.59 1.433 1.323 1.433h1.852v-.265h-1.852A1.32 1.32 0 0 1 11.64 2.91z" opacity=".1" style="paint-order:stroke fill markers"/><g fill="#999"><path d="M4.762 8.731h7.408v.265H4.762zM4.762 9.525h7.408v.264H4.762zM4.762 10.319h7.408v.264H4.762zM4.762 11.113h3.704v.264H4.762zM4.762 6.35h7.408v.264H4.762zM4.762 7.144h7.408v.264H4.762zM4.762 7.937h7.408v.265H4.762zM4.762 5.556h7.408v.265H4.762z" enable-background="new"/></g></svg>