<svg width="64" height="64" xmlns="http://www.w3.org/2000/svg"><defs><filter id="a" x="-.039" y="-.033" width="1.078" height="1.067" color-interpolation-filters="sRGB"><feGaussianBlur stdDeviation=".206"/></filter></defs><path d="M3.44 1.354a1.32 1.32 0 0 0-1.323 1.323v12.171c0 .733.59 1.323 1.323 1.323h10.053a1.32 1.32 0 0 0 1.323-1.323V4.53l-3.175-3.175z" filter="url(#a)" opacity=".15" style="paint-order:stroke fill markers" transform="scale(3.7796)"/><g fill-rule="evenodd"><path d="M13 4c-2.77 0-5 2.23-5 5v46c0 2.77 2.23 5 5 5h38c2.77 0 5-2.23 5-5V16L44 4z" fill="#f4f4f4" style="paint-order:stroke fill markers"/><path d="m14.816 4.233-3.175-3.175V2.91c0 .733.59 1.323 1.323 1.323z" fill="#bbb" style="paint-order:stroke fill markers" transform="scale(3.7796)"/></g><path d="M11.641 2.91v.155c0 .794.59 1.433 1.323 1.433h1.852v-.265h-1.852A1.32 1.32 0 0 1 11.64 2.91z" opacity=".1" style="paint-order:stroke fill markers" transform="scale(3.7796)"/><path d="M19.5 24c-.277 0-.5.223-.5.5v1c0 .277.223.5.5.5h1c.277 0 .5-.223.5-.5v-1c0-.277-.223-.5-.5-.5zm5 0c-.277 0-.5.223-.5.5v1c0 .277.223.5.5.5h17c.277 0 .5-.223.5-.5v-1c0-.277-.223-.5-.5-.5zm-5 18c-.277 0-.5.223-.5.5v1c0 .277.223.5.5.5h1c.277 0 .5-.223.5-.5v-1c0-.277-.223-.5-.5-.5zm5 0c-.277 0-.5.223-.5.5v1c0 .277.223.5.5.5h17c.277 0 .5-.223.5-.5v-1c0-.277-.223-.5-.5-.5z" color="#000" fill="#abacae" overflow="visible" style="isolation:auto;mix-blend-mode:normal"/><path d="M21.5 30c-.277 0-.5.223-.5.5v1c0 .277.223.5.5.5h1c.277 0 .5-.223.5-.5v-1c0-.277-.223-.5-.5-.5zm5 0c-.277 0-.5.223-.5.5v1c0 .277.223.5.5.5h17c.277 0 .5-.223.5-.5v-1c0-.277-.223-.5-.5-.5z" color="#000" fill="#ed5353" overflow="visible" style="isolation:auto;mix-blend-mode:normal"/><path d="M21.5 36c-.277 0-.5.223-.5.5v1c0 .277.223.5.5.5h1c.277 0 .5-.223.5-.5v-1c0-.277-.223-.5-.5-.5zm5 0c-.277 0-.5.223-.5.5v1c0 .277.223.5.5.5h17c.277 0 .5-.223.5-.5v-1c0-.277-.223-.5-.5-.5z" color="#000" fill="#68b723" overflow="visible" style="isolation:auto;mix-blend-mode:normal"/></svg>