<svg width="64" height="64" viewBox="0 0 16.933 16.933" xmlns="http://www.w3.org/2000/svg"><defs><filter id="a" x="-.039" y="-.033" width="1.078" height="1.067" color-interpolation-filters="sRGB"><feGaussianBlur stdDeviation=".206"/></filter></defs><path d="M3.44 1.354a1.32 1.32 0 0 0-1.323 1.323v12.171c0 .733.59 1.323 1.323 1.323h10.053a1.32 1.32 0 0 0 1.323-1.323V4.53l-3.175-3.175z" filter="url(#a)" opacity=".15" style="paint-order:stroke fill markers"/><g fill-rule="evenodd"><path transform="scale(.26458)" d="M13 4c-2.77 0-5 2.23-5 5v46c0 2.77 2.23 5 5 5h38c2.77 0 5-2.23 5-5V16L44 4z" fill="#f4f4f4" style="paint-order:stroke fill markers"/><path d="m14.816 4.233-3.175-3.175V2.91c0 .733.59 1.323 1.323 1.323z" fill="#bbb" style="paint-order:stroke fill markers"/></g><path d="M11.641 2.91v.155c0 .794.59 1.433 1.323 1.433h1.852v-.265h-1.852A1.32 1.32 0 0 1 11.64 2.91z" opacity=".1" style="paint-order:stroke fill markers"/><path d="M9.486 6.086v.156h.104c.276 0 .371.035.466.176l.924 1.4-.83 1.215c-.07.1-.22.332-.726.332v.155l.56-.02c.186 0 .462.005.643.02v-.155c-.23-.005-.322-.149-.322-.24 0-.044.017-.058.052-.113l.716-1.059.789 1.204c.01.02.03.037.03.052 0 .06-.115.15-.331.156v.155c.176-.015.546-.02.737-.02l.653.02v-.155h-.093c-.261 0-.372-.031-.477-.187L11.322 7.58l.685-1.006c.11-.161.29-.327.737-.332v-.156l-.56.02c-.201 0-.443-.005-.644-.02v.156c.201.005.311.112.311.228 0 .05-.006.07-.041.124l-.581.84-.643-.964a.188.188 0 0 1-.032-.073c0-.06.106-.15.322-.155v-.156c-.176.015-.546.02-.737.02zm-5.41 0-.094 1.13h.124c.07-.808.144-.975.903-.975.09 0 .22 0 .27.01.105.02.114.072.114.188v2.703c0 .171-.002.26-.53.25h-.207v.155c.206-.015.724-.02.955-.02s.748.005.954.02v-.156h-.207c-.528 0-.519-.078-.519-.249V6.44c0-.1-.007-.167.083-.187.055-.01.195-.01.29-.01.759 0 .833.166.903.975h.125l-.094-1.131zm2.693 1.323v.155h.125c.387 0 .394.048.394.229v2.66c0 .18-.007.239-.394.239h-.125v.155h2.895l.218-1.297h-.135c-.125.774-.236 1.141-1.1 1.141h-.664c-.236 0-.249-.041-.249-.207v-1.35h.447c.487 0 .55.164.55.59h.124V8.386h-.124c0 .432-.063.591-.55.591h-.447V7.761c0-.165.013-.197.25-.197h.643c.768 0 .905.267.985.965h.125l-.145-1.12z" enable-background="new" fill="#4d4d4d"/></svg>