<svg width="64" height="64" xmlns="http://www.w3.org/2000/svg"><defs><filter id="a" x="-.039" y="-.033" width="1.078" height="1.067" color-interpolation-filters="sRGB"><feGaussianBlur stdDeviation=".206"/></filter></defs><path transform="scale(3.7796)" d="M3.44 1.354a1.32 1.32 0 0 0-1.323 1.323v12.171c0 .733.59 1.323 1.323 1.323h10.053a1.32 1.32 0 0 0 1.323-1.323V4.53l-3.175-3.175z" filter="url(#a)" opacity=".15" style="paint-order:stroke fill markers"/><g fill-rule="evenodd"><path d="M13 4c-2.77 0-5 2.23-5 5v46c0 2.77 2.23 5 5 5h38c2.77 0 5-2.23 5-5V16L44 4z" fill="#f4f4f4" style="paint-order:stroke fill markers"/><path d="m14.816 4.233-3.175-3.175V2.91c0 .733.59 1.323 1.323 1.323z" fill="#bbb" style="paint-order:stroke fill markers" transform="scale(3.7796)"/></g><path d="M43.998 11v.584c0 3 2.23 5.416 5 5.416h7v-1h-7c-2.77 0-5-2.23-5-5z" opacity=".1" style="paint-order:stroke fill markers"/><g fill="#95458d"><path d="M23.492 17.5v29h5.02c.018-3.78-.04-7.56.034-11.338.125-1.775.223-4.035 1.914-5.007.93-.535 2.177-.665 3.202-.332 1.503.488 1.755 2.424 1.82 3.819.024 4.286.003 8.572.01 12.858h5c-.01-4.816.038-9.684 0-14.5-.052-2.42-1.043-5.07-3.358-6.175-1.98-.944-4.322-.662-6.33.099-.948.36-2.256 2.108-2.256 2.108L28.512 17.5h-5.02z" color="#000"/><path d="M35 17v3h-3v1h3v3h1v-3h3v-1h-3v-3zM43 17v3h-3v1h3v3h1v-3h3v-1h-3v-3z" opacity=".75"/></g></svg>