<svg width="64" height="64" viewBox="0 0 16.933 16.933" xmlns="http://www.w3.org/2000/svg"><defs><filter id="a" x="-.039" y="-.033" width="1.078" height="1.067" color-interpolation-filters="sRGB"><feGaussianBlur stdDeviation=".206"/></filter></defs><path d="M3.44 1.354a1.32 1.32 0 0 0-1.323 1.323v12.171c0 .733.59 1.323 1.323 1.323h10.053a1.32 1.32 0 0 0 1.323-1.323V4.53l-3.175-3.175z" filter="url(#a)" opacity=".15" style="paint-order:stroke fill markers"/><g fill-rule="evenodd"><path transform="scale(.26458)" d="M13 4c-2.77 0-5 2.23-5 5v46c0 2.77 2.23 5 5 5h38c2.77 0 5-2.23 5-5V16L44 4z" fill="#f4f4f4" style="paint-order:stroke fill markers"/><path d="m14.816 4.233-3.175-3.175V2.91c0 .733.59 1.323 1.323 1.323z" fill="#bbb" style="paint-order:stroke fill markers"/></g><path d="M11.641 2.91v.155c0 .794.59 1.433 1.323 1.433h1.852v-.265h-1.852A1.32 1.32 0 0 1 11.64 2.91z" opacity=".1" style="paint-order:stroke fill markers"/><path d="M8.228 3.704c-.423 0-.811.049-1.164.146a3.654 3.654 0 0 0-.793.304l.25.714a3.315 3.315 0 0 1 1.615-.397c.211 0 .414.018.608.053.194.036.362.102.503.199.15.097.269.229.357.397.088.158.132.361.132.608 0 .274-.052.52-.158.74a3.27 3.27 0 0 1-.397.61c-.159.185-.33.37-.516.555-.185.176-.357.366-.516.569s-.291.423-.397.661c-.106.23-.159.494-.159.794 0 .106.005.212.014.318.008.097.022.19.04.277h.687a.675.675 0 0 1-.013-.132v-.225c0-.29.057-.555.172-.794s.26-.458.436-.661a9.09 9.09 0 0 1 .556-.609c.203-.194.393-.396.569-.608.176-.212.322-.441.437-.688s.171-.53.171-.847c0-.229-.04-.463-.119-.7a1.609 1.609 0 0 0-.397-.636 1.926 1.926 0 0 0-.754-.463c-.308-.123-.696-.185-1.164-.185zm-.172 8.07c-.229 0-.41.07-.542.211a.756.756 0 0 0-.185.516c0 .203.062.375.185.516.132.141.313.212.542.212s.406-.07.53-.212a.726.726 0 0 0 .198-.516.726.726 0 0 0-.198-.516c-.124-.14-.3-.211-.53-.211z" enable-background="new" fill="#999"/></svg>