<svg width="64" height="64" xmlns="http://www.w3.org/2000/svg"><defs><filter id="a" x="-.039" y="-.033" width="1.078" height="1.067" color-interpolation-filters="sRGB"><feGaussianBlur stdDeviation=".206"/></filter></defs><path transform="scale(3.7796)" d="M3.44 1.354a1.32 1.32 0 0 0-1.323 1.323v12.171c0 .733.59 1.323 1.323 1.323h10.053a1.32 1.32 0 0 0 1.323-1.323V4.53l-3.175-3.175z" filter="url(#a)" opacity=".15" style="paint-order:stroke fill markers"/><path d="M13 4.002c-2.77 0-5 2.23-5 5v46.002c0 2.77 2.23 5 5 5h38c2.77 0 5-2.23 5-5V16.002l-12-12z" fill="#7fcc74" fill-rule="evenodd" style="paint-order:stroke fill markers"/><g fill="#fff"><g stroke-width="3.78"><path d="m55.999 16-12-12v7c0 2.77 2.23 5 5 5z" fill-rule="evenodd" opacity=".35" style="paint-order:stroke fill markers"/><path color="#000" opacity=".25" d="M30.029 4h4v55.999h-4z"/><path color="#000" opacity=".25" d="M31.998 4h2.028v55.999h-2.028z"/></g><path d="M39 40c-1.108 0-2 .892-2 2v12c0 1.108.892 2 2 2h12c1.108 0 2-.892 2-2V42c0-1.108-.892-2-2-2zm0 2h12v2H39zm0 4h9v3h-9zm10 0h2v3h-2zm-10 5h9v3h-9zm10 0h2v3h-2z" opacity=".5" style="paint-order:fill markers stroke"/></g><path d="M43.998 11v.584c0 3 2.23 5.416 5 5.416h7v-1h-7c-2.77 0-5-2.23-5-5z" opacity=".1" style="paint-order:stroke fill markers"/></svg>