<svg width="64" height="64" xmlns="http://www.w3.org/2000/svg"><defs><filter id="a" x="-.039" y="-.033" width="1.078" height="1.067" color-interpolation-filters="sRGB"><feGaussianBlur stdDeviation=".206"/></filter></defs><g fill-rule="evenodd"><path transform="scale(3.7796)" d="M3.44 1.354a1.32 1.32 0 0 0-1.323 1.323v12.171c0 .733.59 1.323 1.323 1.323h10.053a1.32 1.32 0 0 0 1.323-1.323V4.53l-3.175-3.175z" filter="url(#a)" opacity=".15" style="paint-order:stroke fill markers"/><path d="M13 4c-2.77 0-5 2.23-5 5v46.002c0 2.77 2.23 5 5 5h38c2.77 0 5-2.23 5-5V16L44 4.001z" fill="#f1c36c" style="paint-order:stroke fill markers"/><path d="m55.999 16-12-12v7c0 2.77 2.23 5 5 5z" fill="#786136" style="paint-order:stroke fill markers"/></g><path d="M29.31 20a3.103 3.103 0 0 0-3.103 3.103 3.103 3.103 0 0 0 1.56 2.69h-6.94a.826.826 0 0 0-.827.828v6.112a3.103 3.103 0 0 1 2.69-1.56 3.103 3.103 0 1 1 0 6.206A3.103 3.103 0 0 1 20 35.816v7.356c0 .459.369.828.827.828h6.94a3.103 3.103 0 0 1-1.56-2.69 3.103 3.103 0 1 1 6.207 0A3.103 3.103 0 0 1 30.85 44h6.528c.458 0 .828-.37.828-.828v-7.356a3.103 3.103 0 0 0 2.69 1.563 3.103 3.103 0 1 0 0-6.207 3.103 3.103 0 0 0-2.69 1.56v-6.111a.826.826 0 0 0-.828-.828h-6.528a3.103 3.103 0 0 0 1.562-2.69A3.103 3.103 0 0 0 29.31 20z" fill="#786136"/><path d="M43.998 11v.584c0 3 2.23 5.416 5 5.416h7v-1h-7c-2.77 0-5-2.23-5-5z" fill-rule="evenodd" opacity=".1" style="paint-order:stroke fill markers"/></svg>