<svg width="64" height="64" xmlns="http://www.w3.org/2000/svg"><defs><filter id="a" x="-.039" y="-.033" width="1.078" height="1.067" color-interpolation-filters="sRGB"><feGaussianBlur stdDeviation=".206"/></filter></defs><g fill-rule="evenodd"><path transform="scale(3.7796)" d="M3.44 1.354a1.32 1.32 0 0 0-1.323 1.323v12.171c0 .733.59 1.323 1.323 1.323h10.053a1.32 1.32 0 0 0 1.323-1.323V4.53l-3.175-3.175z" filter="url(#a)" opacity=".15" style="paint-order:stroke fill markers"/><path d="M13 4c-2.77 0-5 2.23-5 5v46c0 2.77 2.23 5 5 5h38c2.77 0 5-2.23 5-5V16L44 4z" fill="#8e4ba9" style="paint-order:stroke fill markers"/><path d="m14.816 4.233-3.175-3.175V2.91c0 .733.59 1.323 1.323 1.323z" fill="#fff" opacity=".35" style="paint-order:stroke fill markers" transform="scale(3.7796)"/><path d="M43.998 11v.584c0 3 2.23 5.416 5 5.416h7v-1h-7c-2.77 0-5-2.23-5-5z" opacity=".1" style="paint-order:stroke fill markers"/></g><path d="M32 23c-2.77 0-5 2.23-5 5v5c0 2.77 2.23 5 5 5s5-2.23 5-5v-5c0-2.77-2.23-5-5-5m-4 4h3v1h-3zm5 0h3v1h-3zm-5 3h3v1h-3zm5 0h3v1h-3zm-5 3h3v1h-3zm5 0h3v1h-3zm-7.922 1A6.974 6.974 0 0 0 31 39.922V41h.5v2H30v1h4v-1h-1.5v-2h.5v-1.078A6.974 6.974 0 0 0 38.922 34H37.91c-.474 2.844-2.928 5-5.91 5s-5.436-2.156-5.91-5z" color="#4d4d4d" fill="#fff" opacity=".75" style="isolation:auto;mix-blend-mode:normal"/></svg>