<svg height="48" width="48" xmlns="http://www.w3.org/2000/svg"><path d="m44.322082 27.405077a19.729762 19.729765 0 0 1 -19.729762 19.729765 19.729762 19.729765 0 0 1 -19.7297621-19.729765 19.729762 19.729765 0 0 1 19.7297621-19.7297632 19.729762 19.729765 0 0 1 19.729762 19.7297632z" fill="#89a02c" opacity=".99" transform="matrix(1.1503549 0 0 1.1503549 -4.486125 -7.525565)"/><g fill="#fff"><path d="m25.875 31.677734a6 6 0 0 0 -5.001953 2.69336 5.3370876 5.1161165 0 0 0 -2.943359-.853516 5.3370876 5.1161165 0 0 0 -5.166016 3.857422 4.8995876 4.6161165 0 0 0 -.746094-.058594 4.8995876 4.6161165 0 0 0 -3.486328 1.376953 21.19623 21.196233 0 0 0 15.273438 6.501953 21.19623 21.196233 0 0 0 15.816406-7.117187 4.4973984 3.8344855 0 0 0 -1.275391-1.035156 5.3370876 5.1161165 0 0 0 -5.267578-4.304688 5.3370876 5.1161165 0 0 0 -2.863281.800781 6 6 0 0 0 -4.339844-1.861328z" fill-opacity=".551095" opacity=".99" transform="matrix(1.00000000503 0 0 1.00000000503 .00000016713 .00000082254)"/><rect height="13.5" ry="1.5" width="16.5" x="12" y="16.5"/><path d="m30 19.5 6-3v13.5l-6-3z" fill-rule="evenodd"/></g></svg>