<svg height="48" width="48" xmlns="http://www.w3.org/2000/svg"><path d="m44.322082 27.405077a19.729762 19.729765 0 0 1 -19.729762 19.729765 19.729762 19.729765 0 0 1 -19.7297621-19.729765 19.729762 19.729765 0 0 1 19.7297621-19.7297632 19.729762 19.729765 0 0 1 19.729762 19.7297632z" fill="#d6966c" opacity=".99" transform="matrix(1.1503549 0 0 1.1503549 -4.486125 -7.525565)"/><path d="m30 9.75-4 2v6.142578l-7.205078 4.160156-6.527344-3.767578-.267578 4.464844 2.792969 1.613281-6.7929686 3.921875 3.7324216 2.464844 7.060547-4.078125 7.207031 4.162109v8.916016l4-2v-4.607422l6.248047 3.607422.269531-4.464844-6.517578-3.763672v-8.318359l5.980469-3.453125-3.732422-2.464844-2.248047 1.298828zm-4 12.761719v3.701172l-3.205078-1.84961z" fill="#fff"/></svg>