<svg height="48" width="48" xmlns="http://www.w3.org/2000/svg"><path d="m44.322082 27.405077a19.729762 19.729765 0 0 1 -19.729762 19.729765 19.729762 19.729765 0 0 1 -19.7297621-19.729765 19.729762 19.729765 0 0 1 19.7297621-19.7297632 19.729762 19.729765 0 0 1 19.729762 19.7297632z" fill="#5db999" opacity=".99" transform="matrix(1.1503549 0 0 1.1503549 -4.486125 -7.525565)"/><rect fill="#fff" height="24" ry="1.5" width="6" x="10.305882" y="10.5"/><rect fill="#fff" height="24" ry="1.5" width="6" x="17.805882" y="10.5"/><path d="m7.5 30h18" fill="#ac93a7" fill-rule="evenodd" stroke="#5db999"/><path d="m9 15h16.5" fill="#ac93a7" fill-rule="evenodd" stroke="#5db999"/><rect fill="#fff" fill-opacity=".609489" height="24" ry="1.5" transform="matrix(.88235294 -.47058824 .47058824 .88235294 0 0)" width="6" x="13.923529" y="23.205883"/><g fill="none" stroke="#5db999"><path d="m24 18 9-4.5"/><path d="m31.5 31.5 9-4.5"/></g></svg>