<svg height="48" width="48" xmlns="http://www.w3.org/2000/svg"><path d="m44.322082 27.405077a19.729762 19.729765 0 0 1 -19.729762 19.729765 19.729762 19.729765 0 0 1 -19.7297621-19.729765 19.729762 19.729765 0 0 1 19.7297621-19.7297632 19.729762 19.729765 0 0 1 19.729762 19.7297632z" fill="#de8787" opacity=".99" transform="matrix(1.1503549 0 0 1.1503549 -4.486125 -7.525565)"/><path d="m24.392578 9c-2.865689-.082549-5.158556 2.452565-5.324219 5.203125-1.068581 3.797714-2.174555 7.303328-6.46875 10.396484-2.9333001 1.787142-3.5266306 7.448207-.755859 9.478516 2.213223 2.048121 4.980772.732388 7.369141.027344 3.884536-.712363 7.938933-.703465 11.761718.351562 2.796693 1.837 6.986369.164351 7.761719-3.08789.965607-2.987444-1.325721-5.779621-3.949219-6.761719-3.288075-2.108331-4.787978-6.607927-5.195312-10.554688-.091927-1.157476-.280986-2.27682-1.183594-3.185546-.978096-1.173774-2.487955-1.8751614-4.015625-1.867188zm-.304687 9.878906a5.8258252 5.8258252 0 0 1 5.826171 5.826172 5.8258252 5.8258252 0 0 1 -5.826171 5.826172 5.8258252 5.8258252 0 0 1 -5.826172-5.826172 5.8258252 5.8258252 0 0 1 5.826172-5.826172z" fill="#fff"/></svg>