<?xml version="1.0" encoding="UTF-8" standalone="no"?>
<svg
   xmlns:dc="http://purl.org/dc/elements/1.1/"
   xmlns:cc="http://creativecommons.org/ns#"
   xmlns:rdf="http://www.w3.org/1999/02/22-rdf-syntax-ns#"
   xmlns:svg="http://www.w3.org/2000/svg"
   xmlns="http://www.w3.org/2000/svg"
   xmlns:sodipodi="http://sodipodi.sourceforge.net/DTD/sodipodi-0.dtd"
   xmlns:inkscape="http://www.inkscape.org/namespaces/inkscape"
   height="48"
   width="48"
   version="1.1"
   id="svg10"
   sodipodi:docname="alacritty-simple.svg"
   inkscape:version="1.0.1 (3bc2e813f5, 2020-09-07)">
  <metadata
     id="metadata16">
    <rdf:RDF>
      <cc:Work
         rdf:about="">
        <dc:format>image/svg+xml</dc:format>
        <dc:type
           rdf:resource="http://purl.org/dc/dcmitype/StillImage" />
        <dc:title></dc:title>
      </cc:Work>
    </rdf:RDF>
  </metadata>
  <defs
     id="defs14" />
  <sodipodi:namedview
     pagecolor="#ffffff"
     bordercolor="#666666"
     borderopacity="1"
     objecttolerance="10"
     gridtolerance="10"
     guidetolerance="10"
     inkscape:pageopacity="0"
     inkscape:pageshadow="2"
     inkscape:window-width="1920"
     inkscape:window-height="1031"
     id="namedview12"
     showgrid="false"
     inkscape:zoom="5.6715856"
     inkscape:cx="31.070422"
     inkscape:cy="47.451449"
     inkscape:window-x="0"
     inkscape:window-y="24"
     inkscape:window-maximized="1"
     inkscape:current-layer="svg10"
     inkscape:document-rotation="0" />
  <path
     d="m44.322082 27.405077a19.729762 19.729765 0 0 1 -19.729762 19.729765 19.729762 19.729765 0 0 1 -19.7297621-19.729765 19.729762 19.729765 0 0 1 19.7297621-19.7297632 19.729762 19.729765 0 0 1 19.729762 19.7297632z"
     fill="#73517c"
     opacity=".99"
     transform="matrix(1.1503549 0 0 1.1503549 -4.486125 -7.525565)"
     id="path2"
     style="fill:#7080c7;fill-opacity:1" />
  <path
     d="M 44.377731,23.999999 A 20.57396,20.573963 0 0 1 23.803771,44.573962 20.57396,20.573963 0 0 1 3.2298109,23.999999 20.57396,20.573963 0 0 1 23.803771,3.4260388 20.57396,20.573963 0 0 1 44.377731,23.999999 Z"
     fill="#73517c"
     opacity="0.99"
     id="path857"
     style="fill:#ffffff;fill-opacity:0.175321;stroke-width:1.04279" />
  <g
     id="g858"
     transform="translate(0.2980306,0.54432113)">
    <path
       id="path1067"
       d="m 22.15995,9.9097667 a 0.62176705,0.62176705 0 0 0 -0.54424,0.3206323 h 3.816103 A 0.62176705,0.62176705 0 0 0 24.886931,9.9097667 Z m -0.64769,0.5699413 -0.264731,0.679176 h 4.55118 l -0.263445,-0.679176 z m -0.361756,0.928485 -0.264088,0.679175 h 5.272121 l -0.263445,-0.679175 z m -0.361113,0.928484 -0.26473,0.679176 h 5.993704 l -0.262803,-0.679176 z m -0.361755,0.928485 -0.264088,0.679175 h 6.715287 L 26.61539,13.265162 Z m -0.361113,0.928484 -0.264731,0.679818 h 7.436871 l -0.263445,-0.679818 z m -0.361113,0.928484 -0.264731,0.679818 h 8.157812 L 27.335046,15.12213 Z m -0.361756,0.929128 -0.264088,0.679175 h 4.178501 c 0.0736,-0.225458 0.136332,-0.406181 0.22168,-0.679175 z m 4.206774,0 c 0.04736,0.146514 0.09449,0.295044 0.142003,0.437576 0.0383,0.114908 0.05053,0.143895 0.08353,0.241599 h 4.182999 l -0.263446,-0.679175 z m -4.567887,0.928484 -0.26473,0.679175 h 4.227977 l 0.06425,-0.169633 a 0.62176705,0.62176705 0 0 0 0.0045,-0.01221 c 0.04401,-0.124693 0.111292,-0.345516 0.161923,-0.497333 z m 4.879523,0 c 0.05829,0.169134 0.137007,0.406251 0.174774,0.506972 l 0.06425,0.172203 h 4.217696 l -0.263445,-0.679175 z m -5.241278,0.928484 -0.264088,0.679176 h 4.236973 l 0.257663,-0.679176 z m 5.573476,0 0.253165,0.679176 h 4.23119 l -0.263445,-0.679176 z m -5.934589,0.928485 -0.264088,0.679175 h 4.245969 l 0.257662,-0.679175 z m 6.280924,0 0.253807,0.679175 h 4.244041 L 28.775,18.836711 Z m -6.642037,0.928485 -0.264731,0.679175 h 4.25625 l 0.25702,-0.679175 z m 6.988371,0 0.253807,0.679175 h 4.257535 L 29.13547,19.765196 Z m -7.350127,0.928484 -0.26473,0.679818 h 4.265888 l 0.257662,-0.679818 z m 7.697104,0 0.253807,0.679818 h 4.271029 L 29.495298,20.69368 Z m -8.058217,0.928484 -0.26473,0.679818 h 4.274883 l 0.257663,-0.679818 z m 8.404551,0 0.253808,0.679818 h 4.284521 l -0.263445,-0.679818 z m -8.766306,0.929127 -0.264088,0.679176 h 4.283879 l 0.257662,-0.679176 z m 9.113283,0 0.253165,0.679176 h 4.298658 l -0.263446,-0.679176 z m -9.474396,0.928485 -0.264731,0.679175 h 4.293518 l 0.257662,-0.679175 z m 9.82073,0 0.253165,0.679175 h 4.312152 l -0.263446,-0.679175 z m -10.182486,0.928484 -0.264088,0.679175 h 4.302513 l 0.257663,-0.679175 z m 10.528821,0 0.253807,0.679175 h 4.325003 L 30.935252,24.40826 Z m -10.889934,0.928485 -0.264088,0.679175 h 4.312152 l 0.25702,-0.679175 z m 11.236268,0 0.253808,0.679175 h 4.338496 l -0.263445,-0.679175 z m -11.597381,0.928484 -0.264731,0.679175 h 4.32179 l 0.257663,-0.679175 z m 11.944358,0 0.253165,0.679175 h 4.35199 l -0.262803,-0.679175 z m -12.306113,0.928485 -0.264089,0.679175 h 4.330786 l 0.257663,-0.679175 z m 12.652447,0 0.253808,0.679175 h 4.365483 l -0.263445,-0.679175 z m -13.013561,0.928484 -0.26473,0.679818 h 4.340424 l 0.257662,-0.679818 z m 13.359896,0 0.253807,0.679818 h 4.378977 L 32.375207,28.122198 Z M 14.28486,29.050682 14.020129,29.7305 h 4.34942 l 0.257662,-0.679818 z m 14.067985,0 0.253164,0.679818 h 4.392471 l -0.263445,-0.679818 z m -14.429741,0.929128 -0.264088,0.679175 h 4.359058 l 0.25702,-0.679175 z m 14.776075,0 0.253807,0.679175 h 4.405965 L 33.095505,29.97981 Z m -15.137188,0.928484 -0.26473,0.679175 h 4.368696 l 0.25702,-0.679175 z m 15.484165,0 0.253165,0.679175 h 4.419458 l -0.263446,-0.679175 z m -15.845921,0.928484 -0.264087,0.679175 h 4.377691 l 0.257663,-0.679175 z m 16.192255,0 0.253165,0.679175 h 4.432951 l -0.263445,-0.679175 z m -16.553367,0.928485 -0.264731,0.679175 h 4.38733 l 0.257663,-0.679175 z m 16.899702,0 0.253807,0.679175 h 4.445802 l -0.262803,-0.679175 z m -17.261458,0.928484 -0.264088,0.679176 h 4.396968 l 0.25702,-0.679176 z m 17.607792,0 0.253807,0.679176 h 4.459939 l -0.263446,-0.679176 z m -17.945131,0.928485 a 0.62176705,0.62176705 0 0 0 0.523036,0.679819 h 3.253229 a 0.62176705,0.62176705 0 0 0 0.490266,-0.392598 l 0.108591,-0.287221 z m 18.292108,0 0.106021,0.284648 a 0.62176705,0.62176705 0 0 0 0.489623,0.395171 h 3.316842 a 0.62176705,0.62176705 0 0 0 0.526891,-0.679819 z"
       style="font-style:normal;font-variant:normal;font-weight:normal;font-stretch:normal;font-size:27.0976px;line-height:1.25;font-family:sans-serif;-inkscape-font-specification:sans-serif;letter-spacing:0px;word-spacing:0px;fill:#ffffff;fill-opacity:1;stroke:none;stroke-width:1.24341;stroke-linecap:round;stroke-linejoin:round;stroke-miterlimit:4;stroke-dasharray:none;stroke-opacity:1" />
    <path
       id="path1077"
       d="m 23.505449,22.219093 -0.0347,0.08289 h 0.0694 z m -0.140076,0.332198 -0.285934,0.679176 h 0.852021 l -0.285935,-0.679176 z m -0.39067,0.928485 -0.286577,0.679175 h 1.634646 l -0.285934,-0.679175 z m -0.391313,0.928484 -0.285934,0.679175 h 2.416629 L 24.42815,24.40826 Z m -0.391313,0.928485 -0.285934,0.679175 h 3.199255 l -0.286577,-0.679175 z m -0.391313,0.928484 -0.285934,0.679175 h 3.981881 l -0.286578,-0.679175 z m -0.39067,0.928485 -0.285934,0.679175 h 4.763221 l -0.285934,-0.679175 z m -0.391313,0.928484 -0.0013,0.0032 0.189552,0.676605 h 4.597444 l 0.189552,-0.676605 -0.0013,-0.0032 z m 0.258305,0.928484 0.190195,0.679818 h 4.076979 l 0.190194,-0.679818 z m 0.260233,0.929128 0.190195,0.679175 h 3.556513 l 0.190195,-0.679175 z m 0.260233,0.928484 0.190195,0.679175 h 3.035405 l 0.190837,-0.679175 z m 0.260232,0.928484 0.190195,0.679175 h 2.51494 l 0.190837,-0.679175 z m 0.260233,0.928485 0.190195,0.679175 h 1.994474 l 0.190195,-0.679175 z m 0.260233,0.928484 0.190195,0.679176 h 1.474009 l 0.190194,-0.679176 z m 0.260232,0.928485 0.190838,0.679819 h 0.952901 l 0.190195,-0.679819 z m 0.260233,0.928486 0.406734,1.450875 0.406734,-1.450875 z"
       style="opacity:1;fill:#ffffff;fill-opacity:1;stroke:none;stroke-width:1.11646;stroke-linecap:round;stroke-linejoin:round;stroke-miterlimit:4;stroke-dasharray:none;stroke-opacity:1" />
  </g>
</svg>
