<svg height="48" width="48" xmlns="http://www.w3.org/2000/svg"><path d="m44.322082 27.405077a19.729762 19.729765 0 0 1 -19.729762 19.729765 19.729762 19.729765 0 0 1 -19.7297621-19.729765 19.729762 19.729765 0 0 1 19.7297621-19.7297632 19.729762 19.729765 0 0 1 19.729762 19.7297632z" fill="#93ac93" opacity=".99" transform="matrix(1.1503549 0 0 1.1503549 -4.486125 -7.525565)"/><g fill="#fff"><path d="m19.217188 11.5-.5 1.5.5.02854v8.735128l-5.894531 11.789066c-.332389.664949.151134 1.447242.894531 1.447266h19.5c.743397-.000024 1.22692-.782317.894531-1.447266l-5.894531-11.789062v-8.735128l.5-.02854-.5-1.5h-2v10.5c-.000037.155254.03607.308385.105469.447266l5.277343 10.55273h-16.265624l5.277343-10.552734c.069396-.138881.105506-.292012.105469-.447266v-10.5z" fill-rule="evenodd"/><path d="m15.717188 34h18l-4.5-9h-10.5l-4.5 9z" fill-opacity=".440141" fill-rule="evenodd"/><circle cx="22.996216" cy="19.44194" fill-opacity=".440141" r="1.190641"/><circle cx="24.587206" cy="22.270369" fill-opacity=".440141" r=".925476"/><circle cx="25.095438" cy="20.21534" fill-opacity=".440141" r=".682408"/></g></svg>