<svg height="48" width="48" xmlns="http://www.w3.org/2000/svg"><path d="m44.322082 27.405077a19.729762 19.729765 0 0 1 -19.729762 19.729765 19.729762 19.729765 0 0 1 -19.7297621-19.729765 19.729762 19.729765 0 0 1 19.7297621-19.7297632 19.729762 19.729765 0 0 1 19.729762 19.7297632z" fill="#9dac93" opacity=".99" transform="matrix(1.1503549 0 0 1.1503549 -4.486125 -7.525565)"/><path d="m23.979591 10.738484c-7.325565 0-13.336697 4.799928-13.336697 10.719732 0 2.906804 1.450434 5.54218 3.803693 7.473026l1.391052 3.087171v.473011c0 1.733406 2.577213 3.565197 3.996809 4.965223 1.419584 1.400029 1.681553 2.367857 3.856864 2.367857h.758493c2.175311 0 2.705971-.967828 4.125556-2.367857 1.419587-1.400026 3.728114-3.231817 3.728114-4.965223v-.859259l1.211924-2.560981c2.456831-1.942543 3.980018-4.634335 3.980018-7.612968 0-5.919804-6.011122-10.719732-13.42626-10.719732zm-5.701325 16.261528c1.755461-.07836 4.458234 2.277056 3.896048 4.301884-.610748 1.097864-2.551087 1.298372-3.924035.534589-1.297564-.763706-2.357531-3.842646-.139949-4.819681.05451-.0077.111303-.01425.167936-.01678zm11.721734 0c.116925-.0049.229643.0015.249095.01678 2.307149.977036 1.247174 4.055976-.05038 4.819681-1.372951.763783-3.313297.563275-3.924038-.534589-.544048-1.95951 1.971463-4.228546 3.725323-4.301884z" fill="#fff" fill-rule="evenodd"/></svg>