<svg height="48" width="48" xmlns="http://www.w3.org/2000/svg"><circle cx="23.940615" cy="31.534513" fill="#5fadec" opacity=".99" r="13.232998" transform="matrix(1.75830584759 0 0 1.75830608345 -18.15909274367 -30.97874795549)"/><g fill="#fff" transform="matrix(.07539055 0 0 .07539055 7.471217 44.948054)"><path d="m237.23206-58.538948c0-.289603 2.74255-2.341481 6.09456-4.559732 8.19377-5.422374 20.26281-16.977549 26.24657-25.129067 9.1339-12.442863 17.02592-31.463423 13.86531-33.416793-.71041-.43905-5.41622 2.69278-10.45735 6.95964-18.45241 15.618328-43.39663 27.580054-71.68325 34.374932-13.93226 3.346731-40.37865 6.532281-53.70633 6.469088-5.70955-.02711-5.68211-.0535 5.73699-5.523331 29.15019-13.96319 47.1106-35.998409 52.98094-65.001169 2.46152-12.16123 3.01865-32.6896.88719-32.6896-.74274 0-4.28224 3.8101-7.86556 8.46689-7.55155 9.8138-14.293 15.44953-24.84741 20.77195-7.86783 3.96764-9.00375 3.62297-5.33278-1.61807 6.91688-9.87523 8.67726-28.53224 3.74436-39.68386-1.619-3.66003-3.88033-6.58213-5.0937-6.58213-1.20016 0-4.30217 1.84159-6.89332 4.09241-4.45648 3.87113-10.04568 7.38157-11.75267 7.38157-.42675 0-.14648-1.65554.62283-3.67899 7.98774-21.00935-15.70928-32.1772-68.276678-32.1772-24.475107 0-46.166569 2.23227-69.947329 7.19828l-14.1112675 2.94679-9.9049755-8.00285c-5.447734-4.40157-9.882103-8.7818-9.854151-9.73384.02795-.95205.973201-3.34452 2.100549-5.31661 2.510393-4.39147 2.782609-16.00604.430275-18.35838-2.458928-2.45893-7.856292-2.12618-8.882312.54759-.478815 1.24776-.870573 4.43673-.870573 7.08659 0 2.64985-.484058 5.10864-1.075686 5.46398-1.137484.68319-19.851632-15.95532-18.863561-16.77135.317297-.26205 20.261953-10.00161 44.3214586-21.64347 24.0595054-11.64186 45.7631894-22.68547 48.2304084-24.54134 6.834161-5.14078 13.16321-15.79173 17.149252-28.85992 3.059972-10.03207 4.529937-12.62082 9.801143-17.26072 3.410696-3.00222 9.995642-6.98193 14.633215-8.8438 20.984082-8.42462 39.635142-22.53336 45.684022-34.55803 5.34936-10.6341 19.55465-55.52084 22.88793-72.32272l3.10308-15.64152 11.54839 17.79289c6.35161 9.7861 15.23447 23.76296 19.73967 31.05969 7.88581 12.77203 10.16706 14.84396 13.10915 11.90632 2.70195-2.69788 28.28953-10.10233 46.89994-13.57176 20.60679-3.8416 45.39673-7.20017 46.32124-6.27564.31694.31694-6.0913 3.3145-14.24057 6.66123-15.5862 6.40094-34.82804 16.9664-38.11734 20.92977-1.13514 1.36775-1.40316 2.81534-.64355 3.47584.71596.62254 8.07837 1.93881 16.36091 2.92504 44.94149 5.35131 91.3351 25.12763 128.36562 54.71872 13.41553 10.72036 36.77778 35.11938 47.90024 50.02595 5.55887 7.45012 9.88474 13.768 9.61303 14.03972-.27172.2717-5.22687-.81752-11.01145-2.42051-18.77479-5.20276-35.74497-5.62479-35.74497-.88895 0 1.09478 3.23508 4.69906 7.18907 8.00952 15.9028 13.31458 35.0419 42.56963 42.74956 65.34481 7.4801 22.10278 11.06283 50.67615 9.42864 75.19655l-1.00367 15.0596-2.58044-6.07444c-6.7314-15.84594-24.07957-34.99081-42.22828-46.60175-5.48309-3.5079-11.09214-6.78302-12.46458-7.27805-2.95067-1.0643-3.40602.55879-4.65001 16.5751-3.49727 45.02644-30.17029 80.865886-72.69901 97.68267-13.10694 5.182769-31.20965 9.306188-48.04413 10.943453-14.0699 1.368402-34.89864 1.916887-34.89864.919009zm-132.78739-272.265182c10.63287-11.39492 14.41113-16.92633 11.56161-16.92633-.41193 0-5.77894 2.52903-11.92671 5.62006-6.147764 3.09104-14.846492 6.6866-19.330507 7.99013-9.416104 2.73735-10.387123 5.28496-4.208572 11.04187 3.90359 3.6372 6.677964 5.13451 9.920259 5.35391.920331.0622 7.213093-5.82357 13.98392-13.07964zm50.46184-66.06543c18.42872-15.40365 19.14798-16.91174 14.41882-30.2322-5.1194-14.41963-10.72254-26.76303-12.14875-26.76303-.66442 0-2.94445 8.39223-5.06675 18.64941s-6.35883 25.74706-9.41448 34.42195c-3.74404 10.62922-4.97018 15.77253-3.76006 15.77253.9876 0 8.17466-5.3319 15.97122-11.84866z" fill="#fff"/><path d="m83.941979-324.84005c-2.070715-1.87076-3.565783-3.72363-3.322373-4.11747.243409-.39385 2.04244-.98474 3.997847-1.31311 1.955407-.32836 7.160369-2.10009 11.566583-3.93719 4.406214-1.83709 8.647494-3.59073 9.425054-3.89697.77757-.30624-2.39454 3.31836-7.049139 8.05467-4.654596 4.73631-9.00068 8.61147-9.657968 8.61147-.657287 0-2.889289-1.53063-4.960004-3.4014z" fill="none"/></g></svg>