<svg height="48" width="48" xmlns="http://www.w3.org/2000/svg"><path d="m45 4v40.547297c0 .804798-.647905 1.452703-1.452703 1.452703h-40.0945941c-.8047974 0-1.4527029-.647905-1.4527029-1.452703v-40.547297l2.6875 4 2.6875-4 2.6875 4 2.6875-4 2.6875 4 2.6875-4 2.6875 4 2.6875-4 2.6875 4 2.6875-4 2.6875 4 2.6875-4 2.6875 4 2.6875-4 2.6875 4z" fill="#c87137"/><g fill="#fff"><path d="m45 25v19.547297c0 .804798-.647905 1.452703-1.452703 1.452703h-40.0945941c-.8047974 0-1.4527029-.647905-1.4527029-1.452703v-19.547297z" fill-opacity=".158451"/><path d="m21.289834 36.073503c-2.08011-.24984-4.052218-1.166952-6.319885-2.938999-.710854-.555488-1.493204-1.231134-1.559466-1.346765-.09873-.172294-.07554-.373884.05841-.507837.208308-.208307.370304-.167792 1.226281.306662 2.66441 1.47686 4.360949 2.159107 6.219964 2.501302.707376.130208 2.888611.131316 3.721989.0019 1.726227-.268093 2.987953-.614497 4.711094-1.293416.988772-.389574 1.107998-.402264 1.355239-.144201.161482.16855.186064.433431.05832.628394-.108435.165493-.72935.597574-1.430729.995618-2.479079 1.406918-5.559476 2.095443-8.041216 1.797354zm9.941952-1.718817c-.05495-.05495-.09992-.154918-.09992-.222138s.121536-.48876.270075-.936744c.314016-.947036.376089-1.285313.257595-1.403805-.127431-.127428-.508868-.156225-1.152164-.08699-1.117108.120236-1.267643.122953-1.376079.02482-.150332-.136053-.13081-.42294.03966-.58269.182289-.170825.627389-.415798.969071-.533356.684479-.235492 2.093828-.269843 2.56265-.06245.343382.151892.403934.286554.395196.878883-.01427.968386-.431531 2.024333-1.057103 2.675208-.298079.310122-.356504.349192-.522344.349192-.12011 0-.222366-.03565-.286641-.09992z" stroke-width=".090752"/><path d="m20 30c-.817136-.17244-1.5875-.635268-2.024083-1.216054-.302102-.401886-.440559-.680866-.605204-1.219454-.123972-.405532-.134574-.508542-.135275-1.314309-.000858-1.024154.07279-1.376304.445408-2.128846.651761-1.31629 2.035175-2.155526 4.193752-2.544108.532806-.09591 2.058513-.271729 2.364736-.2725.4016-.001.408882-.01464.408882-.765266 0-1.019886-.186825-1.549487-.660349-1.871907-.34966-.238082-.657502-.330093-1.108117-.331205-.648619-.0016-1.176807.218366-1.593158.66348-.252606.270056-.362323.460111-.464772.8051-.03863.130087-.116882.295819-.17389.368293-.0885.112511-.14201.13177-.366106.13177-.144351 0-.500272-.03338-.790938-.07418-.290665-.0408-.746738-.09852-1.013496-.128267-.578663-.06452-.692069-.102666-.801401-.269529-.07759-.118414-.07724-.150499.0052-.489335.214749-.882228.531554-1.446365 1.171564-2.086217.731965-.731779 1.511645-1.119485 2.75933-1.372114.523522-.106.763801-.126673 1.472403-.126673 1.8137 0 3.17896.461081 4.065206 1.372914.513739.528573.775409 1.104277.901298 1.98297.0384.267986.0703 1.580705.08964 3.688412l.03003 3.272352.161818.374701c.089.20608.288562.543055.443479.748835.373379.495973.450948.662687.389553.837265-.04561.12969-.945268.955364-1.76003 1.615293-.331315.268353-.387184.295776-.602627.295776-.228375 0-.252166-.01442-.622104-.377236-.211555-.20748-.532319-.578427-.712807-.824333-.180487-.245904-.355405-.4471-.388701-.4471-.03329 0-.16077.103925-.283271.230946-.519652.538807-1.201376 1.009195-1.809202 1.248336-.74086.291488-2.15868.39696-2.986806.222197zm2.768754-2.37647c.656819-.171084 1.111459-.582929 1.477914-1.338797.334665-.690304.408231-1.107003.390308-2.210827l-.01374-.846281-.599516.01047c-.856417.01494-1.336821.112152-1.894174.383285-.965313.469596-1.379508 1.21507-1.313158 2.363428.03473.60115.194231.972024.562951 1.309015.403689.368946.840669.472639 1.389418.329712z" stroke-width=".090752"/></g></svg>