<svg height="48" width="48" xmlns="http://www.w3.org/2000/svg"><path d="m44.322082 27.405077a19.729762 19.729765 0 0 1 -19.729762 19.729765 19.729762 19.729765 0 0 1 -19.7297621-19.729765 19.729762 19.729765 0 0 1 19.7297621-19.7297632 19.729762 19.729765 0 0 1 19.729762 19.7297632z" fill="#61b659" opacity=".99" transform="matrix(1.1503549 0 0 1.1503549 -4.486125 -7.525565)"/><g fill="#fff"><path d="m16.5 21h15v13.5h-15z"/><path d="m33 21h3.6v10.5h-3.6z"/><path d="m11.4 21h3.6v10.5h-3.6z"/><path d="m24 12.75c-3.75 0-7.5 2.25-7.5 6.75h15c0-4.5-3.75-6.75-7.5-6.75zm-3.769531 2.964844a.75.75 0 0 1 .05273 0 .75.75 0 0 1 .716801.779297v.005859a.75.75 0 0 1 -.783203.712891.75.75 0 0 1 -.714844-.78125.75.75 0 0 1 .728516-.716797zm7.5.0059a.75.75 0 0 1 .05273 0 .75.75 0 0 1 .716801.779256v.0059a.75.75 0 0 1 -.783203.712891.75.75 0 0 1 -.714844-.78125.75.75 0 0 1 .728516-.716797z"/><path d="m19.5 36h3v4.5h-3z"/><path d="m25.5 36h3v4.5h-3z"/></g><path d="m27 15 3-3" fill="none" stroke="#f9f9f9"/><path d="m21 15-3-3" fill="none" stroke="#f9f9f9"/></svg>