<svg height="48" width="48" xmlns="http://www.w3.org/2000/svg"><path d="m44.322082 27.405077a19.729762 19.729765 0 0 1 -19.729762 19.729765 19.729762 19.729765 0 0 1 -19.7297621-19.729765 19.729762 19.729765 0 0 1 19.7297621-19.7297632 19.729762 19.729765 0 0 1 19.729762 19.7297632z" fill="#59aeb6" opacity=".99" transform="matrix(1.1503549 0 0 1.1503549 -4.486125 -7.525565)"/><path d="m22.303771 9.5000008c-.554 0-.95907.447514-1 1.0000002l-.171875 2.330078c-2.165358.518359-4.133678 1.654163-5.666016 3.269531l-2.103515-1.015625c-.479778-.277-1.088236-.112591-1.365235.367188l-1.5 2.597656c-.277.479779-.09277 1.055499.365235 1.367188l1.923828 1.308593c-.317947 1.062814-.480437 2.16604-.482422 3.275391.0028 1.108791.165954 2.211349.484375 3.273438l-1.925781 1.310546c-.479779.277-.642235.88741-.365235 1.367188l1.5 2.597656c.277.479779.866303.607985 1.365235.367188l2.097656-1.011719c1.53418 1.615627 3.504639 2.750812 5.671875 3.267578l.171875 2.328125c0 .554.446 1 1 1h3c.554 0 .95907-.447514 1-1l.171875-2.330078c2.165358-.518359 4.133678-1.654163 5.666016-3.269531l2.103515 1.015625c.479778.277 1.088236.112591 1.365235-.367188l1.5-2.597656c.277001-.479779.09277-1.055499-.365235-1.367188l-1.923828-1.308593c.317947-1.062814.480437-2.16604.482422-3.275391-.0028-1.108791-.165954-2.211349-.484375-3.273438l1.925781-1.310546c.479778-.277.642236-.88741.365235-1.367188l-1.5-2.597656c-.277-.479779-.866303-.607985-1.365235-.367188l-2.097656 1.011719c-1.53418-1.615627-3.504639-2.750812-5.671875-3.267578l-.171875-2.328125c0-.5540002-.446-1.0000002-1-1.0000002z" fill="#fff"/><path d="m23.905169 19.5c-4.986 0-9 4.014-9 9h18c0-4.986-4.014-9-9-9z" fill="#59aeb6"/><path d="m19.405169 22.5-3-4.5" fill="none" stroke="#59aeb6"/><path d="m28.405169 22.5 3-4.5" fill="none" stroke="#59aeb6"/><g fill="#fff"><circle cx="19.428585" cy="24.447145" r="1.5"/><circle cx="28.35581" cy="24.447145" r="1.5"/></g></svg>