<svg height="48" width="48" xmlns="http://www.w3.org/2000/svg"><path d="m44.322082 27.405077a19.729762 19.729765 0 0 1 -19.729762 19.729765 19.729762 19.729765 0 0 1 -19.7297621-19.729765 19.729762 19.729765 0 0 1 19.7297621-19.7297632 19.729762 19.729765 0 0 1 19.729762 19.7297632z" fill="#64a063" opacity=".99" transform="matrix(1.1503549 0 0 1.1503549 -4.486125 -7.525565)"/><g transform="translate(-47.583984 .732422)"><g fill="#fff"><path d="m63.681641 19.244141h15v13.5h-15z"/><path d="m80.181641 19.244141h3.6v10.5h-3.6z"/><path d="m58.581641 19.244141h3.6v10.5h-3.6z"/><path d="m71.181641 10.994141c-3.75 0-7.5 2.25-7.5 6.75h15c0-4.5-3.75-6.75-7.5-6.75zm-3.769531 2.964844a.75.75 0 0 1 .05273 0 .75.75 0 0 1 .716801.779297v.0059a.75.75 0 0 1 -.783203.712891.75.75 0 0 1 -.714844-.78125.75.75 0 0 1 .728516-.716797zm7.5.0059a.75.75 0 0 1 .05273 0 .75.75 0 0 1 .716801.779256v.0059a.75.75 0 0 1 -.783203.712891.75.75 0 0 1 -.714844-.78125.75.75 0 0 1 .728516-.716797z"/><path d="m66.681641 34.244141h3v4.5h-3z"/><path d="m72.681641 34.244141h3v4.5h-3z"/></g><path d="m74.181641 13.244141 3-3" fill="none" stroke="#f9f9f9"/><path d="m68.181641 13.244141-3-3" fill="none" stroke="#f9f9f9"/><path d="m70.376953 21.75v.650391a3.750912 3.750912 0 0 0 -1.421875.617187l-.480469-.480469-1.060547 1.060547.517579.517578a3.750912 3.750912 0 0 0 -.507813 1.384766h-.796875v1.5h.873047a3.750912 3.750912 0 0 0 .574219 1.242188l-.660157.660156 1.060547 1.060547.695313-.695313a3.750912 3.750912 0 0 0 1.207031.472656v1.009766h1.5v-1.007812a3.750912 3.750912 0 0 0 1.207031-.47461l.695313.695313 1.060547-1.060547-.658203-.658203a3.750912 3.750912 0 0 0 .582031-1.244141h.863281v-1.5h-.792969a3.750912 3.750912 0 0 0 -.507812-1.386719l.513672-.515625-1.060547-1.060547-.478516.478516a3.750912 3.750912 0 0 0 -1.423828-.615234v-.650391zm.689453 2.25a2.25 2.25 0 0 1 .15625.002 2.25 2.25 0 0 1 2.152344 2.339844v.01563a2.25 2.25 0 0 1 -2.351563 2.140625 2.25 2.25 0 0 1 -2.144531-2.347656 2.25 2.25 0 0 1 2.1875-2.150391z" fill="#64a063"/></g></svg>