<?xml version="1.0" encoding="UTF-8" standalone="no"?>
<svg
   xmlns:dc="http://purl.org/dc/elements/1.1/"
   xmlns:cc="http://creativecommons.org/ns#"
   xmlns:rdf="http://www.w3.org/1999/02/22-rdf-syntax-ns#"
   xmlns:svg="http://www.w3.org/2000/svg"
   xmlns="http://www.w3.org/2000/svg"
   xmlns:sodipodi="http://sodipodi.sourceforge.net/DTD/sodipodi-0.dtd"
   xmlns:inkscape="http://www.inkscape.org/namespaces/inkscape"
   height="48"
   width="48"
   version="1.1"
   id="svg12"
   sodipodi:docname="applications-development-web.svg"
   inkscape:version="1.0.2 (e86c870879, 2021-01-15)">
  <metadata
     id="metadata18">
    <rdf:RDF>
      <cc:Work
         rdf:about="">
        <dc:format>image/svg+xml</dc:format>
        <dc:type
           rdf:resource="http://purl.org/dc/dcmitype/StillImage" />
        <dc:title></dc:title>
      </cc:Work>
    </rdf:RDF>
  </metadata>
  <defs
     id="defs16" />
  <sodipodi:namedview
     pagecolor="#ffffff"
     bordercolor="#666666"
     borderopacity="1"
     objecttolerance="10"
     gridtolerance="10"
     guidetolerance="10"
     inkscape:pageopacity="0"
     inkscape:pageshadow="2"
     inkscape:window-width="1920"
     inkscape:window-height="1031"
     id="namedview14"
     showgrid="true"
     inkscape:zoom="16"
     inkscape:cx="30.777447"
     inkscape:cy="26.445179"
     inkscape:window-x="0"
     inkscape:window-y="24"
     inkscape:window-maximized="1"
     inkscape:current-layer="svg12"
     inkscape:document-rotation="0">
    <inkscape:grid
       type="xygrid"
       id="grid828"
       spacingx="0.5"
       spacingy="0.5" />
  </sodipodi:namedview>
  <rect
     fill="#6271d1"
     height="43"
     ry="1.452703"
     width="43"
     x="2"
     y="3"
     id="rect2"
     style="fill:#6b77c8;fill-opacity:1" />
  <circle
     style="opacity:1;fill:#ffffff;fill-opacity:1;stroke:none;stroke-width:1.30722225;stroke-linecap:butt;stroke-linejoin:round;stroke-miterlimit:4;stroke-dasharray:1.30722225, 2.61444448999999990;stroke-dashoffset:0;stroke-opacity:1;paint-order:fill markers stroke"
     id="path837"
     cx="31.5"
     cy="6.5"
     r="1.5" />
  <circle
     r="1.5"
     cy="6.5"
     cx="36.497688"
     id="circle839"
     style="opacity:1;fill:#ffffff;fill-opacity:1;stroke:none;stroke-width:1.30722225;stroke-linecap:butt;stroke-linejoin:round;stroke-miterlimit:4;stroke-dasharray:1.30722225, 2.61444448999999990;stroke-dashoffset:0;stroke-opacity:1;paint-order:fill markers stroke" />
  <circle
     style="opacity:1;fill:#ffffff;fill-opacity:1;stroke:none;stroke-width:1.30722225;stroke-linecap:butt;stroke-linejoin:round;stroke-miterlimit:4;stroke-dasharray:1.30722225, 2.61444448999999990;stroke-dashoffset:0;stroke-opacity:1;paint-order:fill markers stroke"
     id="circle841"
     cx="41.567284"
     cy="6.5"
     r="1.5" />
  <path
     style="fill:#ffffff;fill-opacity:1;stroke:none;stroke-width:1px;stroke-linecap:butt;stroke-linejoin:miter;stroke-opacity:1"
     d="M 10,6 6.7265625,10 H 4 V 44 H 43 V 10 H 24 L 20,6 Z"
     id="path843"
     sodipodi:nodetypes="ccccccccc" />
  <path
     id="path8810"
     style="fill:#6b77c8;fill-opacity:1;stroke:none;stroke-width:0.207909;stroke-linecap:round;stroke-linejoin:round;stroke-miterlimit:4;stroke-dasharray:none;stroke-opacity:0.168478"
     d="M 23.84375 12.21875 A 14.553655 14.553655 0 0 0 9.2890625 26.773438 A 14.553655 14.553655 0 0 0 21.650391 41.160156 A 13.468355 13.468355 0 0 1 20.466797 38.658203 A 12.400356 12.400356 0 0 1 11.376953 26.708984 A 12.400356 12.400356 0 0 1 23.777344 14.306641 A 12.400356 12.400356 0 0 1 27.283203 14.814453 A 12.400356 12.400356 0 0 0 25.978516 14.513672 C 25.58156 16.27961 25.364317 17.976795 25.308594 19.613281 A 2.0790937 2.0790937 0 0 0 23.785156 21.615234 A 2.0790937 2.0790937 0 0 0 23.859375 22.164062 C 21.869374 23.050767 19.732813 23.62245 17.423828 23.845703 A 2.0790937 2.0790937 0 0 0 16.541016 22.882812 C 17.185282 20.232418 18.353841 17.558453 20.205078 14.841797 A 12.400356 12.400356 0 0 0 17.902344 15.796875 C 16.567603 18.088387 15.663848 20.377404 15.125 22.65625 A 2.0790937 2.0790937 0 0 0 13.617188 23.876953 C 13.615887 23.876853 13.614581 23.877051 13.613281 23.876953 C 12.997847 23.831683 12.393259 23.807445 11.757812 23.722656 A 12.400356 12.400356 0 0 0 11.486328 25.152344 C 12.189953 25.246054 12.866049 25.281482 13.548828 25.328125 A 2.0790937 2.0790937 0 0 0 14.587891 26.548828 C 14.510521 28.05293 14.5472 29.553191 14.755859 31.044922 C 13.645588 30.365591 12.578157 29.562119 11.539062 28.673828 A 12.400356 12.400356 0 0 0 12.15625 31.003906 C 12.719065 31.414296 13.296709 31.794901 13.878906 32.158203 A 2.0790937 2.0790937 0 0 0 13.767578 32.828125 A 2.0790937 2.0790937 0 0 0 15.671875 34.898438 A 2.0790937 2.0790937 0 0 1 15.615234 34.894531 C 15.771852 35.411859 15.93868 35.926037 16.119141 36.441406 A 12.400356 12.400356 0 0 0 18.169922 37.753906 C 17.716099 36.685319 17.342053 35.615785 17.017578 34.548828 A 2.0790937 2.0790937 0 0 1 17 34.556641 A 2.0790937 2.0790937 0 0 0 17.572266 33.984375 C 18.269394 34.249644 18.983649 34.473242 19.708984 34.664062 A 13.468355 13.468355 0 0 1 19.701172 34.181641 A 13.468355 13.468355 0 0 1 19.734375 33.224609 C 19.117047 33.051511 18.50807 32.855737 17.914062 32.621094 A 2.0790937 2.0790937 0 0 0 16.160156 30.773438 C 15.969958 29.426848 15.899624 28.077152 15.964844 26.724609 A 2.0790937 2.0790937 0 0 0 17.523438 25.271484 C 20.098681 25.016433 22.48737 24.355467 24.703125 23.337891 A 2.0790937 2.0790937 0 0 0 24.974609 23.492188 A 13.468355 13.468355 0 0 1 27.9375 21.769531 A 2.0790937 2.0790937 0 0 0 27.943359 21.615234 A 2.0790937 2.0790937 0 0 0 27.939453 21.517578 C 29.528934 20.468466 31.028255 19.242871 32.435547 17.84375 A 12.400356 12.400356 0 0 0 31.335938 16.892578 C 30.073376 18.140242 28.735396 19.211056 27.34375 20.158203 A 2.0790937 2.0790937 0 0 0 26.761719 19.744141 C 26.817349 18.17822 27.005317 16.555781 27.392578 14.845703 A 12.400356 12.400356 0 0 1 34.677734 20.796875 A 13.468355 13.468355 0 0 1 37.361328 21.382812 A 14.553655 14.553655 0 0 0 23.84375 12.21875 z M 33.248047 18.720703 C 32.322064 19.43112 31.491628 20.17662 30.708984 20.939453 A 13.468355 13.468355 0 0 1 33.128906 20.712891 C 33.457731 20.436002 33.776705 20.156407 34.128906 19.886719 A 12.400356 12.400356 0 0 0 33.248047 18.720703 z M 15.46875 22.615234 A 2.0790937 2.0790937 0 0 1 15.527344 22.615234 A 2.0790937 2.0790937 0 0 0 15.423828 22.619141 A 2.0790937 2.0790937 0 0 1 15.46875 22.615234 z M 17.576172 25.037109 A 2.0790937 2.0790937 0 0 1 17.552734 25.15625 A 2.0790937 2.0790937 0 0 0 17.576172 25.037109 z M 17.896484 33.171875 A 2.0790937 2.0790937 0 0 1 17.873047 33.291016 A 2.0790937 2.0790937 0 0 0 17.896484 33.171875 z " />
  <circle
     style="fill:#6b77c8;fill-opacity:1;stroke-width:1.25546"
     id="path1654"
     cx="33.169189"
     cy="34.18124"
     r="11.8201" />
  <rect
     style="fill:#ffffff;fill-opacity:0.91944242;stroke:none;stroke-width:0.2;stroke-miterlimit:4;stroke-dasharray:none"
     id="rect872"
     width="4"
     height="10"
     x="31"
     y="24" />
  <rect
     style="fill:#ffffff;fill-opacity:0.91944242;stroke:none;stroke-width:0.2;stroke-miterlimit:4;stroke-dasharray:none"
     id="rect874"
     width="3"
     height="1"
     x="31.5"
     y="34" />
  <rect
     style="fill:#ffffff;fill-opacity:0.91944242;stroke:none;stroke-width:0.2;stroke-miterlimit:4;stroke-dasharray:none"
     id="rect876"
     width="0.99336243"
     height="5"
     x="32.5"
     y="35" />
  <path
     style="fill:#ffffff;stroke:none;stroke-width:1px;stroke-linecap:butt;stroke-linejoin:miter;stroke-opacity:1;fill-opacity:0.91944242"
     d="m 32.5,40 0.5,2 0.5,-2 z"
     id="path878" />
  <rect
     style="fill:#6b77c8;fill-opacity:1;stroke:none;stroke-width:0.2;stroke-miterlimit:4;stroke-dasharray:none"
     id="rect880"
     width="1"
     height="8"
     x="31.5"
     y="24.5" />
  <rect
     style="fill:#6b77c8;fill-opacity:1;stroke:none;stroke-width:0.2;stroke-miterlimit:4;stroke-dasharray:none"
     id="rect882"
     width="1"
     height="8"
     x="33.5"
     y="24.5" />
</svg>
