<svg height="48" width="48" xmlns="http://www.w3.org/2000/svg"><path d="m44.322082 27.405077a19.729762 19.729765 0 0 1 -19.729762 19.729765 19.729762 19.729765 0 0 1 -19.7297621-19.729765 19.729762 19.729765 0 0 1 19.7297621-19.7297632 19.729762 19.729765 0 0 1 19.729762 19.7297632z" fill="#e2604d" opacity=".99" transform="matrix(1.1503549 0 0 1.1503549 -4.486125 -7.525565)"/><circle cx="13.035714" cy="19.035715" fill="#fff" r="4.035714"/><circle cx="35.892857" cy="19.035715" fill="#e8ffff" r="4.035714"/><path d="m15 36c6.200627-8.426336 12.180095-7.564008 18 0" fill="none" stroke="#fff" stroke-linecap="round" stroke-width="3"/><path d="m33 24c-3.955256 3.845133 0 8.735721 0 4.49893z" fill="#fff" fill-rule="evenodd"/></svg>