<svg height="48" width="48" xmlns="http://www.w3.org/2000/svg"><path d="m44.322082 27.405077a19.729762 19.729765 0 0 1 -19.729762 19.729765 19.729762 19.729765 0 0 1 -19.7297621-19.729765 19.729762 19.729765 0 0 1 19.7297621-19.7297632 19.729762 19.729765 0 0 1 19.729762 19.7297632z" fill="#76a0de" opacity=".99" transform="matrix(1.1503549 0 0 1.1503549 -4.486125 -7.525565)"/><path d="m24 9c-.01077 6.040535-8.121445 13.436633-8.001953 19.460938.058475 2.948074 2.001953 7.539062 8.001953 7.539062 7.5 0 8.557561-4.534277 8.664062-7.443359.221135-6.040222-8.661862-13.481281-8.664062-19.556641zm-2.875 15a1.5 2.4270511 0 0 1 1.5 2.427734 1.5 2.4270511 0 0 1 -1.5 2.425782 1.5 2.4270511 0 0 1 -1.5-2.425782 1.5 2.4270511 0 0 1 1.5-2.427734zm7.375 0a1.5 2.4270511 0 0 1 1.5 2.427734 1.5 2.4270511 0 0 1 -1.5 2.425782 1.5 2.4270511 0 0 1 -1.5-2.425782 1.5 2.4270511 0 0 1 1.5-2.427734z" fill="#fff" fill-rule="evenodd"/></svg>