<svg height="48" width="48" xmlns="http://www.w3.org/2000/svg"><path d="m44.322082 27.405077a19.729762 19.729765 0 0 1 -19.729762 19.729765 19.729762 19.729765 0 0 1 -19.7297621-19.729765 19.729762 19.729765 0 0 1 19.7297621-19.7297632 19.729762 19.729765 0 0 1 19.729762 19.7297632z" fill="#8cbc76" opacity=".99" transform="matrix(1.1503549 0 0 1.1503549 -4.486125 -7.525565)"/><path d="m14.531711 14.163244c-1.19061 0-2.375883.238392-3.47892.70416-1.103049.465782-2.1103759 1.151554-2.9606391 2.018302-.8501552.866707-1.5311159 1.903574-1.9947125 3.044406-.4623907 1.140564-.7009573 2.370924-.7009573 3.609327 0 1.238832.2380037 2.468897.7015469 3.609863.46357 1.140844 1.1445305 2.177658 1.9947126 3.044405.8501824.866682 1.8576044 1.552426 2.9606394 2.018302 1.07784.455154 2.234754.690865 3.397834.701547.02748.000994.05382.0016.08116.0027 2.828088.133946 5.106802-.988336 6.774624-2.617667 1.140095-1.113797 2.035859-2.42909 2.853285-3.769488.817467 1.340398 1.713124 2.655731 2.853285 3.769488 1.667823 1.629358 3.946537 2.75156 6.774625 2.617667.02734-.000994.05368-.0013.08116-.0027 1.163039-.0099 2.317314-.246393 3.395153-.701547 1.103048-.465768 2.113058-1.151554 2.963185-2.018302l.0052-.01043c.846657-.865127 1.52723-1.896471 1.989485-3.033952.462392-1.140564.700958-2.370925.700958-3.609328 0-1.238844-.238017-2.46903-.701547-3.609862l-.0079-.01568c-.46373-1.133863-1.141904-2.165865-1.987608-3.028994-.849727-.86581-1.857605-1.552024-2.960641-2.018435-1.103035-.465072-2.287828-.703638-3.47798-.703638-2.979538 0-5.332637 1.225335-7.070421 2.929144-1.005198.983753-1.820077 2.109574-2.558561 3.260858-.738485-1.151284-1.553364-2.277105-2.557222-3.260858-1.738319-1.704815-4.091821-2.929814-7.071224-2.929814zm-.03142 2.680525c2.376955 0 3.895204.851804 5.287737 2.261693 1.103867 1.117578 2.071778 2.637905 3.031272 4.295675-1.095048 1.936813-2.153399 3.705826-3.342749 4.905629-1.311126 1.322597-2.669802 2.051942-4.889813 1.923947h-.08638c-.84663 0-1.700123-.178685-2.478949-.518307-.768426-.335065-1.477505-.832907-2.062798-1.44239l-.02356-.02356c-.589717-.619207-1.0641695-1.367073-1.380472-2.168549-.3149611-.802818-.4784732-1.676669-.4784732-2.539799 0-.863517.1634983-1.737382.4790364-2.539126.3155114-.801866.7897098-1.546664 1.3795328-2.167473l.02356-.02618c.585239-.609445 1.294331-1.107298 2.062798-1.442391.778692-.339086 1.6311-.517341 2.478145-.517341zm19.318543 0c.846643 0 1.700124.178684 2.478949.518306.768414.335066 1.477505.832906 2.062799 1.44239l.02356.02618c.589823.620849 1.064023 1.365593 1.379533 2.167472.314962.801478.478473 1.675329.478473 2.538459 0 .863543-.163498 1.737247-.479036 2.539126-.315512.801852-.789696 1.549209-1.379533 2.170019l-.02356.02356c-.585239.609444-1.294331 1.107284-2.062797 1.44239-.77888.339622-1.632306.518305-2.47895.518305h-.08638c-2.219475.127326-3.578501-.601778-4.889278-1.924616-1.188812-1.199535-2.247619-2.968681-3.342614-4.90536.959629-1.657905 1.927298-3.179103 3.031673-4.295541 1.392534-1.409956 2.911051-2.262364 5.287337-2.262364zm-1.617696 2.680525v2.680525h-2.680523v2.680524h2.680528v2.680526h2.680523v-2.680526h2.680525v-2.680524h-2.680525v-2.680525zm-21.444195 2.680525v2.680524h8.041575v-2.680524z" fill="#fff" stroke-width="1.340263"/></svg>