<?xml version="1.0" encoding="UTF-8" standalone="no"?>
<svg
   xmlns:dc="http://purl.org/dc/elements/1.1/"
   xmlns:cc="http://creativecommons.org/ns#"
   xmlns:rdf="http://www.w3.org/1999/02/22-rdf-syntax-ns#"
   xmlns:svg="http://www.w3.org/2000/svg"
   xmlns="http://www.w3.org/2000/svg"
   xmlns:sodipodi="http://sodipodi.sourceforge.net/DTD/sodipodi-0.dtd"
   xmlns:inkscape="http://www.inkscape.org/namespaces/inkscape"
   height="48"
   width="48"
   version="1.1"
   id="svg12"
   sodipodi:docname="artikulate.svg"
   inkscape:version="0.92.4 5da689c313, 2019-01-14">
  <metadata
     id="metadata18">
    <rdf:RDF>
      <cc:Work
         rdf:about="">
        <dc:format>image/svg+xml</dc:format>
        <dc:type
           rdf:resource="http://purl.org/dc/dcmitype/StillImage" />
        <dc:title></dc:title>
      </cc:Work>
    </rdf:RDF>
  </metadata>
  <defs
     id="defs16" />
  <sodipodi:namedview
     pagecolor="#ffffff"
     bordercolor="#666666"
     borderopacity="1"
     objecttolerance="10"
     gridtolerance="10"
     guidetolerance="10"
     inkscape:pageopacity="0"
     inkscape:pageshadow="2"
     inkscape:window-width="1920"
     inkscape:window-height="1027"
     id="namedview14"
     showgrid="true"
     inkscape:zoom="8"
     inkscape:cx="17.586325"
     inkscape:cy="16.752095"
     inkscape:window-x="0"
     inkscape:window-y="30"
     inkscape:window-maximized="1"
     inkscape:current-layer="svg12">
    <inkscape:grid
       type="xygrid"
       id="grid828" />
  </sodipodi:namedview>
  <path
     inkscape:connector-curvature="0"
     style="fill:#48759b;fill-opacity:1"
     d="M 3.452703,46 H 43.5473 C 44.35209,46 45,45.352094 45,44.547297 V 4.452703 C 45,3.647906 44.35209,3 43.5473,3 H 3.452703 C 2.647906,3 2,3.647906 2,4.452703 V 44.547297 C 2,45.352094 2.647906,46 3.452703,46 Z"
     id="rect2-2" />
  <path
     style="fill:#ffffff;stroke:none;stroke-width:1px;stroke-linecap:butt;stroke-linejoin:miter;stroke-opacity:1;fill-opacity:1"
     d="M 43,5 4,44 h 39 z"
     id="path815"
     inkscape:connector-curvature="0" />
  <path
     style="opacity:1;fill:#ffffff;fill-opacity:1;stroke-width:0.66067952"
     inkscape:connector-curvature="0"
     d="m 12.205414,9.934484 1.323249,0.315059 q -0.189034,0.504091 -0.441083,0.945174 h 6.364201 V 16.17266 H 10 v 0.81915 H 21.153104 V 18 H 10 v 0.819157 h 11.279128 q -0.189034,4.095771 -0.630117,4.914927 -0.378073,0.882166 -1.449273,0.882166 -0.504098,0 -1.575298,-0.189034 l -0.252049,-1.26024 q 1.197224,0.189035 1.701322,0.189035 0.378068,0 0.504092,-0.378068 0.189033,-0.441083 0.315058,-3.087587 H 8.7397601 V 11.194717 H 11.701323 Q 12.016381,10.5646 12.205414,9.934484 Z M 10,12.202908 v 1.00819 h 8.191547 v -1.00819 z m 0,1.953371 v 1.00819 h 8.191547 v -1.00819 z m 2.709513,6.112151 h 1.260233 v 1.701323 h 3.087586 v -1.575298 h 1.197225 v 2.583488 H 9.6849416 v 1.0712 H 8.4247023 v -3.591679 h 1.2602393 v 1.512289 h 3.0245714 z"
     id="path842-4-1" />
  <path
     inkscape:connector-curvature="0"
     id="path848-9-0"
     d="m 27.461838,26.54435 c -0.198191,0 -0.357735,0.161465 -0.357735,0.359841 v 0.492414 h -2.796666 c -0.198191,0 -0.357735,0.15945 -0.357735,0.357736 v 0.957471 c -8.6e-5,0.197744 0.159533,0.357737 0.357735,0.357737 h 5.353422 c -0.150849,0.966533 -0.664217,1.997236 -1.525635,3.063908 -0.549042,-0.879522 -0.901303,-1.734171 -1.102673,-2.302139 -0.05085,-0.143328 -0.186856,-0.237791 -0.338794,-0.237791 h -0.879615 c -0.114443,0 -0.222767,0.05495 -0.290396,0.147304 -0.06755,0.09244 -0.0872,0.210575 -0.05261,0.319858 0.208695,0.657153 0.689579,1.946552 1.578245,3.25751 -1.04974,1.020495 -2.095406,1.75758 -2.499945,2.028575 -0.160988,0.107924 -0.20806,0.323872 -0.10521,0.488203 l 0.444015,0.707056 c 0.05118,0.08176 0.13291,0.139196 0.22726,0.159927 0.02532,0.0057 0.05023,0.0084 0.07575,0.0084 0.06961,0 0.138869,-0.02024 0.197814,-0.05893 0.416584,-0.2738 1.496534,-1.022198 2.628308,-2.106434 0.418749,0.43641 1.403133,1.202368 1.98649,1.626648 0.089,0.06474 0.203137,0.08469 0.309337,0.05471 0.106126,-0.03023 0.19386,-0.10866 0.235686,-0.210433 l 0.328279,-0.805934 c 0.06626,-0.161981 0.0053,-0.347724 -0.143092,-0.439807 -0.380103,-0.235769 -1.095174,-0.719612 -1.679265,-1.348879 1.282344,-1.500728 2.01279,-2.965111 2.173778,-4.351758 h 0.284083 c 0.198202,0 0.357735,-0.159449 0.357735,-0.357736 v -0.957471 c 0,-0.198195 -0.159447,-0.357736 -0.357735,-0.357736 h -2.796652 v -0.492414 c 0,-0.198285 -0.159447,-0.359841 -0.357735,-0.359841 z m 6.803302,1.130026 c -0.15781,0 -0.296827,0.103788 -0.343005,0.254625 l -2.382107,7.792342 c -0.0334,0.108829 -0.01317,0.226036 0.05471,0.317753 0.06766,0.09136 0.174391,0.1452 0.288295,0.1452 h 1.237351 c 0.161076,0 0.301926,-0.107938 0.345106,-0.263044 L 34,34 h 2.436805 l 0.578694,1.929671 c 0.04547,0.151929 0.186674,0.254625 0.345118,0.254625 h 1.313105 c 0.114272,0 0.222852,-0.05367 0.290394,-0.1452 0.06777,-0.0919 0.08655,-0.210935 0.05261,-0.319857 l -2.413671,-7.790238 c -0.04676,-0.1503 -0.18565,-0.254625 -0.343009,-0.254625 z m 0.909075,1.441468 h 0.02313 l 0.961681,3.446898 h -1.883371 z"
     style="fill:#48759b;fill-opacity:1;stroke-width:0.09054179" />
</svg>
