<svg height="48" width="48" xmlns="http://www.w3.org/2000/svg"><path d="m44.322082 27.405077a19.729762 19.729765 0 0 1 -19.729762 19.729765 19.729762 19.729765 0 0 1 -19.7297621-19.729765 19.729762 19.729765 0 0 1 19.7297621-19.7297632 19.729762 19.729765 0 0 1 19.729762 19.7297632z" fill="#5bb3ae" opacity=".99" transform="matrix(1.1503549 0 0 1.1503549 -4.486125 -7.525565)"/><g transform="translate(-.66698)"><g fill="none" stroke="#fff" stroke-linecap="round" stroke-miterlimit="10" stroke-width="1.701307"><path d="m30 21c4.253268 8.364761 5.245697 16.445971 2.268409 18.005503-2.977287 1.559531-8.931863-3.969717-13.185131-12.334478s-5.245698-16.445971-2.26841-18.0055024c1.417756-.7088781 3.260839 0 5.387473 1.8430824"/><path d="m21.635239 36.169991c-2.693737 1.984858-5.103922 2.835512-6.521678 1.843082-2.835512-1.843082-.992429-9.782517 4.253268-17.580175 5.245698-7.797658 11.767376-12.6180291 14.602888-10.7749462 1.417756.9924292 1.701307 3.4026142.850653 6.8052292"/><path d="m11.569171 27.521678c-2.551961-1.134204-4.111493-2.551961-4.111493-4.111492.141776-3.402615 7.797658-5.954576 17.154849-5.671025 9.35719.283552 16.871297 3.260839 16.871297 6.663454 0 1.701307-1.984859 3.119063-4.962146 4.111493"/></g><circle cx="24.328978" cy="23.835512" fill="#fff" r="2.26841" stroke-width="1.417756"/></g></svg>