<svg height="48" width="48" xmlns="http://www.w3.org/2000/svg" xmlns:xlink="http://www.w3.org/1999/xlink"><clipPath id="a"><path d="m3.4527029 3h40.0945941c.804798 0 1.452703.6479055 1.452703 1.4527029v8.5455121l-43 .151523v-8.6970351c0-.8047974.6479055-1.4527029 1.4527029-1.4527029z"/></clipPath><rect fill="#89909a" height="43" ry="1.452703" width="43" x="2" y="3"/><path d="m3.4527029 3h40.0945941c.804798 0 1.452703.6479055 1.452703 1.4527029v8.5455121l-43 .151523v-8.6970351c0-.8047974.6479055-1.4527029 1.4527029-1.4527029z" fill="#3c4147"/><g clip-path="url(#a)" fill="none" stroke="#dedede" stroke-linecap="square" stroke-width="3"><path d="m9 3-2 5 2 5"/><path d="m16 3-2 5 2 5"/><path d="m23 3-2 5 2 5"/><path d="m30 3-2 5 2 5"/><path d="m37 3-2 5 2 5"/><path d="m44 3-2 5 2 5"/></g><path d="m2 8h43" fill="#3c4147" fill-rule="evenodd" stroke="#3c4147" stroke-width=".8"/><path d="m16 20 14 12" fill="none" stroke="#fff" stroke-linecap="round" stroke-width="3"/><path d="m30 20-14 12" fill="none" stroke="#fff" stroke-linecap="round" stroke-width="3"/><g fill="#fff"><circle cx="32.57502" cy="34.104607" r="5.289304"/><circle cx="15.099379" cy="33.801559" r="5.289304"/></g></svg>