<svg height="48" width="48" xmlns="http://www.w3.org/2000/svg"><path d="m44.322082 27.405077a19.729762 19.729765 0 0 1 -19.729762 19.729765 19.729762 19.729765 0 0 1 -19.7297621-19.729765 19.729762 19.729765 0 0 1 19.7297621-19.7297632 19.729762 19.729765 0 0 1 19.729762 19.7297632z" fill="#eb7c9b" opacity=".99" transform="matrix(1.1503549 0 0 1.1503549 -4.486125 -7.525565)"/><path d="m14.285714 15.142857v3h5v-3zm13 0v3h5v-3zm-20 2v3h5v-3zm27 0v3h5v-3zm-13.5 2v3h5v-3zm-6.5 1v3h5v-3zm13 0v3h5v-3zm-20 2v3h5v-3zm27 0v3h5v-3zm-13.5 2v3h5v-3zm-6.5 1v3h5v-3zm13 0v3h5v-3zm-20 2v3h5v-3zm27 0v3h5v-3zm-13.5 2v3h5v-3zm-6.5 1v3h5v-3zm13 0v3h5v-3zm-6.5 4v3h5v-3z" fill="#fffbfb"/></svg>