<?xml version="1.0" encoding="UTF-8" standalone="no"?>
<svg
   xmlns:svg="http://www.w3.org/2000/svg"
   xmlns="http://www.w3.org/2000/svg"
   xmlns:sodipodi="http://sodipodi.sourceforge.net/DTD/sodipodi-0.dtd"
   xmlns:inkscape="http://www.inkscape.org/namespaces/inkscape"
   inkscape:version="1.1-dev (1:0.92.0+devel+202004260039+9758c7a)"
   sodipodi:docname="baidunetdisk.svg"
   id="svg6"
   version="1.1"
   width="48"
   height="48">
  <defs
     id="defs10" />
  <sodipodi:namedview
     inkscape:current-layer="svg6"
     inkscape:window-maximized="1"
     inkscape:window-y="30"
     inkscape:window-x="0"
     inkscape:cy="26.547628"
     inkscape:cx="21.266046"
     inkscape:zoom="11.019081"
     showguides="false"
     showgrid="false"
     id="namedview8"
     inkscape:window-height="1024"
     inkscape:window-width="1920"
     inkscape:pageshadow="2"
     inkscape:pageopacity="0"
     guidetolerance="10"
     gridtolerance="10"
     objecttolerance="10"
     borderopacity="1"
     bordercolor="#666666"
     pagecolor="#ffffff" />
  <circle
     style="fill:#74a1f3;fill-opacity:1"
     id="circle2"
     transform="matrix(1.75830584759 0 0 1.75830608345 -18.15909274367 -30.97874795549)"
     r="13.232998"
     opacity=".99"
     fill="#74a2f3"
     cy="31.534513"
     cx="23.940615" />
  <g
     transform="translate(1.411416,3.2605714)"
     id="g910">
    <g
       id="g849">
      <g
         id="g857">
        <path
           style="color:#000000;fill:none;fill-opacity:0.872912;stroke-width:4;stroke-linecap:round;stroke-linejoin:round;stroke-dashoffset:1"
           d="m 22.524841,26.848484 a 6.5022483,6.5022483 0 0 1 -6.502248,6.502248 6.5022483,6.5022483 0 0 1 -6.5022487,-6.502248 6.5022483,6.5022483 0 0 1 6.5022487,-6.502248 6.5022483,6.5022483 0 0 1 6.502248,6.502248 z"
           id="path859" />
        <path
           id="path861"
           style="color:#000000;fill:#ffffff;fill-opacity:0.655105;stroke-width:4;stroke-linecap:round;stroke-linejoin:round;stroke-dashoffset:1"
           d="m 30.458984,18.476562 c -1.197697,3.249872 -4.323122,5.591797 -7.972656,5.591797 -3.645193,10e-7 -6.767875,-2.336243 -7.96875,-5.580078 -3.960969,0.718053 -6.9980464,4.201599 -6.9980468,8.359375 3e-7,4.671968 3.8319388,8.503907 8.5039068,8.503906 4.671967,0 8.501952,-3.831938 8.501953,-8.503906 0,-2.51021 1.991742,-4.501953 4.501953,-4.501953 2.510209,0 4.501953,1.991744 4.501953,4.501953 0,2.510209 -1.991744,4.503906 -4.501953,4.503906 -0.627553,0 -1.214798,-0.126318 -1.751953,-0.353515 a 2,2 0 0 0 -2.621094,1.0625 2,2 0 0 0 1.0625,2.621094 c 1.018681,0.430866 2.142555,0.669921 3.310547,0.669921 4.671968,0 8.501953,-3.831938 8.501953,-8.503906 a 2,2 0 0 0 -0.15625,-0.771484 c -0.366154,-3.81853 -3.200391,-6.948761 -6.914063,-7.59961 z m -14.435546,3.869141 c 2.51021,0 4.501953,1.991744 4.501953,4.501953 0,2.51021 -1.991745,4.503906 -4.501953,4.503906 -2.510209,2e-6 -4.503907,-1.993696 -4.503907,-4.503906 0,-2.51021 1.993697,-4.501953 4.503907,-4.501953 z" />
      </g>
      <g
         id="g851">
        <path
           style="color:#000000;fill:none;fill-opacity:0.872912;stroke-width:4;stroke-linecap:round;stroke-linejoin:round;stroke-dashoffset:1"
           d="m 35.52951,26.848484 c 0,3.591092 -2.911156,6.502248 -6.502248,6.502248 -0.897773,0 -1.75305,-0.181947 -2.530969,-0.510979 m -3.97128,-5.991269 c 0,-3.591093 2.911156,-6.502248 6.502249,-6.502248 3.591092,0 6.502248,2.911156 6.502248,6.502248"
           id="path853" />
      </g>
    </g>
    <g
       id="g884">
      <path
         style="color:#000000;fill:none;fill-opacity:0.872912;stroke-width:4;stroke-linecap:round;stroke-linejoin:round;stroke-dashoffset:1"
         d="m 28.98827,15.566744 a 6.5022483,6.5022483 0 0 1 -6.502248,6.502248 6.5022483,6.5022483 0 0 1 -6.502249,-6.502248 6.5022483,6.5022483 0 0 1 6.502249,-6.5022485 6.5022483,6.5022483 0 0 1 6.502248,6.5022485 z"
         id="path886" />
      <path
         style="color:#000000;fill:#ffffff;fill-opacity:0.333646;stroke-width:4;stroke-linecap:round;stroke-linejoin:round;stroke-dashoffset:1"
         d="m 22.486328,7.0644531 c -4.671968,-5e-7 -8.501953,3.8299849 -8.501953,8.5019529 0,4.671969 3.829985,8.501954 8.501953,8.501953 4.671968,0 8.501953,-3.829985 8.501953,-8.501953 0,-4.671968 -3.829985,-8.5019527 -8.501953,-8.5019529 z m 0,3.9999999 c 2.51021,0 4.501953,1.991743 4.501953,4.501953 0,2.51021 -1.991743,4.501953 -4.501953,4.501953 -2.51021,10e-7 -4.501953,-1.991743 -4.501953,-4.501953 0,-2.51021 1.991743,-4.501953 4.501953,-4.501953 z"
         id="path888" />
    </g>
    <g
       id="g875">
      <path
         style="color:#000000;fill:none;fill-opacity:0.872912;stroke-width:4;stroke-linecap:round;stroke-linejoin:round;stroke-dashoffset:1"
         d="m 28.98827,15.566744 a 6.5022483,6.5022483 0 0 1 -6.502248,6.502248 6.5022483,6.5022483 0 0 1 -6.502249,-6.502248 6.5022483,6.5022483 0 0 1 6.502249,-6.5022485 6.5022483,6.5022483 0 0 1 6.502248,6.5022485 z"
         id="path877" />
    </g>
    <g
       id="g890">
      <path
         style="color:#000000;fill:none;fill-opacity:0.872912;stroke-width:4;stroke-linecap:round;stroke-linejoin:round;stroke-dashoffset:1"
         d="m 28.98827,15.566744 c 0,3.591092 -2.911156,6.502248 -6.502248,6.502248 -3.591093,0 -6.502249,-2.911155 -6.502249,-6.502248"
         id="path892" />
      <path
         style="color:#000000;fill:#ffffff;stroke-width:4;stroke-linecap:round;stroke-linejoin:round;stroke-dashoffset:1"
         d="m 15.984375,13.566406 a 2,2 0 0 0 -2,2 c 0,4.671969 3.829985,8.501953 8.501953,8.501953 4.671968,0 8.501953,-3.829985 8.501953,-8.501953 a 2,2 0 0 0 -2,-2 2,2 0 0 0 -2,2 c 0,2.510209 -1.991744,4.501953 -4.501953,4.501953 -2.510211,0 -4.501953,-1.991742 -4.501953,-4.501953 a 2,2 0 0 0 -2,-2 z"
         id="path894" />
    </g>
  </g>
</svg>
