<svg height="48" width="48" xmlns="http://www.w3.org/2000/svg"><rect fill="#6f8a91" height="43" ry="1.452703" width="43" x="2" y="3"/><path d="m17 39h27v6h-27z" fill-opacity=".483019"/><path d="m45 37v7.547298c0 .804797-.647905 1.452703-1.452703 1.452703h-40.0945941c-.8047974 0-1.4527029-.647906-1.4527029-1.452703v-7.547298z" fill-opacity=".228464"/><path d="m40.884766 5.0234375a2.1060915 2.1060915 0 0 0 -2.107422 2.1054687 2.1060915 2.1060915 0 0 0 2.107422 2.1054688 2.1060915 2.1060915 0 0 0 2.105468-2.1054688 2.1060915 2.1060915 0 0 0 -2.105468-2.1054687zm-34.7617191.0117187a2.1060915 2.1060915 0 0 0 -2.1074219 2.1074219 2.1060915 2.1060915 0 0 0 2.1074219 2.1054688 2.1060915 2.1060915 0 0 0 2.1054687-2.1054688 2.1060915 2.1060915 0 0 0 -2.1054687-2.1074219zm0 25.7597658a2.1060915 2.1060915 0 0 0 -2.1074219 2.105469 2.1060915 2.1060915 0 0 0 2.1074219 2.105468 2.1060915 2.1060915 0 0 0 2.1054687-2.105468 2.1060915 2.1060915 0 0 0 -2.1054687-2.105469zm34.7480471 0a2.1060915 2.1060915 0 0 0 -2.105469 2.105469 2.1060915 2.1060915 0 0 0 2.105469 2.105468 2.1060915 2.1060915 0 0 0 2.107422-2.105468 2.1060915 2.1060915 0 0 0 -2.107422-2.105469z" fill="#fff" fill-opacity=".598592"/><path d="m18 40h10v4h-10z" fill-opacity=".521569"/><path d="m30 40h13v4h-13z" fill-opacity=".520599"/><path d="m19 40v3h2v-3zm3 0v3h2v-3zm3 0v3h2v-3zm6 0v3h2v-3zm3 0v3h2v-3zm3 0v3h2v-3zm3 0v3h2v-3z" fill="#d9ce87"/><path d="m18 43v1h10v-1zm12 0v1h13v-1z" fill="#9e9e9e" fill-opacity=".569288"/><g transform="matrix(1.5638164 0 0 1.5638164 -10.255553 -13.148632)"><g fill="#fff"><path d="m22.617188 17.197266c-2.197295 0-4 1.802705-4 4 0 2.197294 1.802705 4 4 4 2.197294 0 4-1.802706 4-4 0-2.197295-1.802706-4-4-4zm0 2c1.116414 0 2 .883585 2 2 0 1.116414-.883586 2-2 2-1.116415 0-2-.883586-2-2 0-1.116415.883585-2 2-2z"/><path d="m22.490234 15.322266c-3.232881 0-5.875 2.642119-5.875 5.875s2.642119 5.875 5.875 5.875c3.232882 0 5.875-2.642119 5.875-5.875h-2c0 2.152-1.722999 3.875-3.875 3.875-2.152 0-3.875-1.723-3.875-3.875s1.723-3.875 3.875-3.875c1.05463 0 1.998471.415817 2.697266 1.09375l1.392578-1.435547c-1.056643-1.025096-2.505509-1.658203-4.089844-1.658203z" fill-opacity=".626943"/><path d="m22.580078 13.640625c-4.161341 0-7.55664 3.395299-7.55664 7.556641s3.395298 7.55664 7.55664 7.55664v-1.685547c-.03016.000462-.05958.0039-.08984.0039-3.232881 0-5.875-2.642119-5.875-5.875s2.642119-5.875 5.875-5.875c1.430976 0 2.74876.519712 3.769532 1.375l1.105468-1.34961c-1.301923-1.065857-2.975268-1.707024-4.78516-1.707024zm5.785156 7.556641c0 2.060532-1.075894 3.878322-2.691406 4.927734l.925781 1.470703c2.125121-1.337135 3.53711-3.709674 3.53711-6.398437z" fill-opacity=".373057"/></g><path d="m22.489977 29.653042c-4.670097 0-8.455959-3.785862-8.455959-8.455959m8.455959-8.45596c1.960398 0 3.764982.667116 5.19912 1.786715" fill="none" stroke="#fff" stroke-width="2"/></g></svg>