<?xml version="1.0" encoding="UTF-8" standalone="no"?>
<svg
   xmlns:dc="http://purl.org/dc/elements/1.1/"
   xmlns:cc="http://creativecommons.org/ns#"
   xmlns:rdf="http://www.w3.org/1999/02/22-rdf-syntax-ns#"
   xmlns:svg="http://www.w3.org/2000/svg"
   xmlns="http://www.w3.org/2000/svg"
   xmlns:sodipodi="http://sodipodi.sourceforge.net/DTD/sodipodi-0.dtd"
   xmlns:inkscape="http://www.inkscape.org/namespaces/inkscape"
   height="48"
   width="48"
   version="1.1"
   id="svg16"
   sodipodi:docname="Battle.net.svg"
   inkscape:version="0.92.4 5da689c313, 2019-01-14">
  <metadata
     id="metadata22">
    <rdf:RDF>
      <cc:Work
         rdf:about="">
        <dc:format>image/svg+xml</dc:format>
        <dc:type
           rdf:resource="http://purl.org/dc/dcmitype/StillImage" />
        <dc:title></dc:title>
      </cc:Work>
    </rdf:RDF>
  </metadata>
  <defs
     id="defs20">
    <radialGradient
       gradientTransform="matrix(3.57049e-7,-0.102549,-0.288309,-1.33269e-7,78.984696,88.973262)"
       r="21.166656"
       fy="189.579361"
       fx="450.908936"
       cy="189.579361"
       cx="450.908936"
       gradientUnits="userSpaceOnUse"
       id="radial0">
      <stop
         id="stop822"
         style="stop-color:rgb(0%,0%,0%);stop-opacity:0.313726;"
         offset="0" />
      <stop
         id="stop824"
         style="stop-color:rgb(0%,0%,0%);stop-opacity:0.27451;"
         offset="0.222222" />
      <stop
         id="stop826"
         style="stop-color:rgb(0%,0%,0%);stop-opacity:0;"
         offset="1" />
    </radialGradient>
    <radialGradient
       gradientTransform="matrix(-3.57049e-7,0.102549,0.288309,1.33269e-7,-31.685907,-4.375346)"
       r="21.166656"
       fy="189.579361"
       fx="450.908936"
       cy="189.579361"
       cx="450.908936"
       gradientUnits="userSpaceOnUse"
       id="radial1">
      <stop
         id="stop829"
         style="stop-color:rgb(0%,0%,0%);stop-opacity:0.313726;"
         offset="0" />
      <stop
         id="stop831"
         style="stop-color:rgb(0%,0%,0%);stop-opacity:0.27451;"
         offset="0.222222" />
      <stop
         id="stop833"
         style="stop-color:rgb(0%,0%,0%);stop-opacity:0;"
         offset="1" />
    </radialGradient>
    <radialGradient
       gradientTransform="matrix(-3.57049e-7,-0.102549,0.288309,-1.33269e-7,-31.685907,88.973262)"
       r="21.166656"
       fy="189.579361"
       fx="450.908936"
       cy="189.579361"
       cx="450.908936"
       gradientUnits="userSpaceOnUse"
       id="radial2">
      <stop
         id="stop836"
         style="stop-color:rgb(0%,0%,0%);stop-opacity:0.313726;"
         offset="0" />
      <stop
         id="stop838"
         style="stop-color:rgb(0%,0%,0%);stop-opacity:0.27451;"
         offset="0.222222" />
      <stop
         id="stop840"
         style="stop-color:rgb(0%,0%,0%);stop-opacity:0;"
         offset="1" />
    </radialGradient>
    <radialGradient
       gradientTransform="matrix(3.57049e-7,0.102549,-0.288309,1.33269e-7,78.984692,-4.375346)"
       r="21.166656"
       fy="189.579361"
       fx="450.908936"
       cy="189.579361"
       cx="450.908936"
       gradientUnits="userSpaceOnUse"
       id="radial3">
      <stop
         id="stop843"
         style="stop-color:rgb(0%,0%,0%);stop-opacity:0.313726;"
         offset="0" />
      <stop
         id="stop845"
         style="stop-color:rgb(0%,0%,0%);stop-opacity:0.27451;"
         offset="0.222222" />
      <stop
         id="stop847"
         style="stop-color:rgb(0%,0%,0%);stop-opacity:0;"
         offset="1" />
    </radialGradient>
    <linearGradient
       gradientTransform="matrix(0.0273881,0,0,0.082039,16.656575,23.142854)"
       y2="254.666656"
       x2="255.323044"
       y1="233.5"
       x1="255.323059"
       gradientUnits="userSpaceOnUse"
       id="linear0">
      <stop
         id="stop850"
         style="stop-color:rgb(0%,0%,0%);stop-opacity:0.27451;"
         offset="0" />
      <stop
         id="stop852"
         style="stop-color:rgb(0%,0%,0%);stop-opacity:0;"
         offset="1" />
    </linearGradient>
    <linearGradient
       gradientTransform="matrix(0.093759,0,0,0.093759,0,20.158175)"
       y2="-168.666672"
       x2="254"
       y1="233.5"
       x1="254"
       gradientUnits="userSpaceOnUse"
       id="linear1">
      <stop
         id="stop855"
         style="stop-color:rgb(100%,43.921569%,26.274511%);stop-opacity:1;"
         offset="0" />
      <stop
         id="stop857"
         style="stop-color:rgb(100%,54.11765%,39.607844%);stop-opacity:1;"
         offset="1" />
    </linearGradient>
    <linearGradient
       gradientTransform="matrix(0.093759,0,0,0.093759,0,20.158175)"
       y2="-84"
       x2="254"
       y1="148.833328"
       x1="254"
       gradientUnits="userSpaceOnUse"
       id="linear2">
      <stop
         id="stop860"
         style="stop-color:rgb(74.117649%,74.117649%,74.117649%);stop-opacity:1;"
         offset="0" />
      <stop
         id="stop862"
         style="stop-color:rgb(87.843138%,87.843138%,87.843138%);stop-opacity:1;"
         offset="1" />
    </linearGradient>
    <linearGradient
       gradientTransform="matrix(0.08461253,0,0,0.08461253,-19.162897,21.468351)"
       y2="-84"
       x2="254"
       y1="148.83333"
       x1="254"
       gradientUnits="userSpaceOnUse"
       id="linear2-3">
      <stop
         id="stop860-6"
         style="stop-color:rgb(74.117649%,74.117649%,74.117649%);stop-opacity:1;"
         offset="0" />
      <stop
         id="stop862-7"
         style="stop-color:rgb(87.843138%,87.843138%,87.843138%);stop-opacity:1;"
         offset="1" />
    </linearGradient>
  </defs>
  <sodipodi:namedview
     pagecolor="#ffffff"
     bordercolor="#666666"
     borderopacity="1"
     objecttolerance="10"
     gridtolerance="10"
     guidetolerance="10"
     inkscape:pageopacity="0"
     inkscape:pageshadow="2"
     inkscape:window-width="1920"
     inkscape:window-height="1031"
     id="namedview18"
     showgrid="true"
     inkscape:zoom="4.9166665"
     inkscape:cx="-6.6946132"
     inkscape:cy="23.141005"
     inkscape:window-x="0"
     inkscape:window-y="26"
     inkscape:window-maximized="1"
     inkscape:current-layer="svg16">
    <inkscape:grid
       type="xygrid"
       id="grid829" />
  </sodipodi:namedview>
  <circle
     style="opacity:1;fill:#6280c6;fill-opacity:1;stroke:none;stroke-width:6;stroke-linecap:round;stroke-linejoin:round;stroke-miterlimit:4;stroke-dasharray:none;stroke-dashoffset:0;stroke-opacity:1;paint-order:fill markers stroke"
     id="path4167"
     cx="23.713203"
     cy="23.985281"
     r="22.684189" />
  <g
     id="g864"
     transform="matrix(3.9546609,0,0,3.9546609,-22.886099,20.112811)"
     style="fill:#ffffff;fill-opacity:1;enable-background:new">
    <g
       id="g860"
       transform="matrix(0.39736146,0,0,0.39736146,-147.24299,-210.4819)"
       style="fill:#ffffff;fill-opacity:1;stroke-width:1.29999995;enable-background:new">
      <circle
         id="circle858"
         r="0"
         cy="531.79791"
         cx="400.57138"
         style="fill:#ffffff;fill-opacity:1" />
    </g>
    <path
       id="path862"
       transform="matrix(0.24187201,0,0,0.24187201,6.123718,-4.970821)"
       d="m 21.220703,10.609375 c -1.48177,0.22416 -2.231843,2.212648 -2.310547,5.070313 -0.477687,-0.710833 -1.060349,-1.222074 -1.755859,-1.13086 -1.248041,0.229972 -1.781252,2.0392 -1.701172,4.34375 -2.143181,0.138925 -4.207193,0.527041 -6.0546875,1.248047 1.8661565,-0.339546 3.9580945,-0.429011 6.1074215,-0.333984 0.162103,1.600998 0.593002,3.356926 1.289063,4.986328 -1.593651,2.119544 -3.778339,6.070622 -2.365234,8.125 0.965238,1.233789 3.218411,0.819146 5.896484,-0.675781 -0.522816,0.914389 -0.807779,1.859369 -0.292969,2.511718 0.816439,0.932934 2.57313,0.511374 4.455078,-0.666015 1.15952,1.73906 2.486657,3.293557 3.986328,4.511718 -1.184939,-1.417988 -2.271465,-3.139637 -3.234375,-5 1.341609,-0.971195 2.69132,-2.294707 3.773438,-3.785156 2.619837,0.293371 7.223173,0.162778 8.269531,-2.130859 0.538201,-1.397326 -0.815848,-3.033809 -3.255859,-4.515625 0.927449,-0.02686 1.737389,-0.266862 2.029297,-0.958985 0.432598,-1.185101 -0.832553,-2.550415 -2.832032,-3.646484 0.950813,-1.876317 1.656475,-3.809536 1.980469,-5.728516 -0.655931,1.74085 -1.625983,3.546287 -2.779297,5.310547 -1.554641,-0.723092 -3.425941,-1.273385 -5.304687,-1.478515 -1.060951,-2.433603 -3.423365,-6.27729 -5.900391,-6.056641 z m 13.984375,2.224609 c 0.0012,-0.0032 0.0027,-0.0065 0.0039,-0.0098 h -0.002 c -5.45e-4,0.0032 -0.0014,0.0065 -0.002,0.0098 z m -12.355469,0.966797 c 1.022984,0.01136 2.060095,1.536453 3.134766,2.779297 -1.87458,-0.05929 -3.672694,0.274032 -5.074219,1.154297 0.07392,-2.04665 0.58585,-3.50348 1.632813,-3.888672 0.102243,-0.03136 0.204221,-0.04606 0.30664,-0.04492 z m -4.835937,2.503907 c 0.303114,0.03167 0.604915,0.28754 0.904297,0.621093 0.02224,0.623284 0.07176,1.277509 0.148437,1.955078 -0.707548,-0.04093 -1.412009,-0.05036 -2.113281,-0.04297 0.04276,-1.292357 0.300692,-2.257252 0.753906,-2.484375 0.102535,-0.04507 0.204512,-0.0595 0.306641,-0.04883 z m 7.539062,1.339843 c 0.62179,0.03136 1.243718,0.126483 1.859375,0.248047 0.0741,0.04227 0.148069,0.08704 0.222657,0.119141 -0.0057,-0.02071 -0.02105,-0.05455 -0.02734,-0.07617 1.470847,0.311333 2.858571,0.830339 3.990234,1.421875 -0.385705,0.543389 -0.799124,1.06854 -1.21289,1.595703 -0.571054,-0.891529 -1.440569,-1.712882 -2.689454,-2.414063 v 0.002 c 1.034425,0.847647 1.728484,1.740309 2.154297,2.65039 -2.444859,-0.916949 -5.271797,-1.650131 -8.185547,-2.03125 0,0 -0.127551,1.36724 -0.08203,1.289063 3.344713,0.662163 6.51524,1.72172 8.794922,2.935547 0.134275,3.604373 -3.093842,7.114493 -5.792969,8.886718 -0.271691,-0.578592 -0.513671,-1.171796 -0.759765,-1.765625 1.020079,-0.05614 2.12385,-0.378576 3.3125,-1.0625 -1.269901,0.458756 -2.401883,0.593675 -3.408203,0.486329 2.066895,-1.640444 4.176387,-3.718846 6.021484,-6.058594 0,0 -1.106054,-0.810194 -1.060547,-0.728516 -2.316547,2.565873 -4.889927,4.767989 -7.121094,6.097656 -1.90704,-1.067097 -3.142886,-3.175704 -3.857421,-5.390625 -0.0019,-0.05304 0.0017,-0.109006 -0.0039,-0.160156 -0.01017,0.01017 -0.02475,0.03042 -0.03516,0.04102 -0.413678,-1.319553 -0.640353,-2.651396 -0.705078,-3.832031 0.620692,0.05118 1.238629,0.135407 1.859375,0.214843 -0.397802,0.866435 -0.63677,1.904323 -0.648438,3.16211 0.21811,-1.171559 0.601411,-2.114934 1.09961,-2.882813 0.417793,2.554105 1.175197,5.340523 2.271484,8.029297 0,0 1.249214,-0.570312 1.158203,-0.570313 v -0.0039 c -1.082939,-3.245887 -1.73031,-6.536935 -1.800781,-9.123047 1.327611,-0.878968 2.970733,-1.164601 4.646484,-1.080078 z m 6.957032,2.238281 c 1.068446,0.68537 1.749836,1.387786 1.714843,1.888672 -0.05706,0.483149 -0.615528,0.667947 -1.28125,0.785157 -0.507114,-0.265613 -1.050984,-0.520991 -1.621093,-0.769532 0.422448,-0.622925 0.81549,-1.259844 1.1875,-1.904297 z M 31.25,23.886719 c 1.743206,1.077432 2.756875,2.245121 2.574219,3.349609 -0.26525,1.170699 -2.399973,1.292689 -4.195313,1.664063 0.997815,-1.606137 1.642303,-3.346274 1.621094,-5.013672 z m -13.970703,1.935547 c 0.854518,1.648778 1.991737,3.072101 3.400391,3.908203 -1.771314,0.900861 -3.251577,1.153342 -4.087891,0.445312 -0.852925,-0.8104 0.08086,-2.648567 0.6875,-4.353515 z m 5.308594,4.970703 c 0.341061,0.690101 0.710917,1.360271 1.097656,2.015625 -1.07345,0.572611 -1.977331,0.813831 -2.388672,0.550781 -0.435131,-0.309813 -0.261247,-0.979789 0,-1.695313 0.424093,-0.267689 0.854473,-0.557003 1.291016,-0.871093 z"
       inkscape:connector-curvature="0"
       style="fill:#ffffff;fill-opacity:1" />
  </g>
</svg>
