<svg height="48" width="48" xmlns="http://www.w3.org/2000/svg"><circle cx="23.940615" cy="31.534513" fill="#ef946a" opacity=".99" r="13.232998" transform="matrix(1.72140702696 0 0 1.72140725788 -17.2289093957 -30.06939350282)"/><path d="m23.967625 11.053321.0062.0041c-.481547 0-.972407.178249-1.375562.501893-.406516.319164-.66924.745032-.708435 1.243376-.03023.502825.159011 1.008866.53081 1.354908v.03511c.879103.782794 1.788708 1.586901 2.676769 2.387613h-9.930489c-.708882 0-1.302644.166501-1.761793.534941-.45467.371798-.748445.922026-.844752 1.534599-.19262 1.198267.646927 2.565237 2.007576 2.565237h4.335293l-9.0588826 7.557362s-.0048-.0224-.03511 0c-.550979.477067-.946071 1.142449-1.090535 1.815494-.148944.677525-.07259 1.391175.316007 1.960073.800712 1.154592 2.4037096 1.119594 3.5235866.109467l4.756637-4.386929c.0044.511783.125803 1.312832.313942 1.999316.389717 1.404325 1.053048 2.707996 1.972466 3.845791.940695 1.17251 2.087838 2.11802 3.418251 2.782105 1.399846.699924 2.903958 1.036836 4.469545 1.036836 1.570066 0 3.075896-.363066 4.475741-1.071947 1.325934-.669686 2.510603-1.606236 3.451299-2.782106.91046-1.142274 1.543506-2.445596 1.933222-3.849922.201579-.708881.337728-1.449196.390362-2.174876.04816-.713361.02273-1.424336-.07022-2.137697-.1747-1.386407-.578867-2.694606-1.235114-3.885034-.511784-.927258-1.193756-1.736637-1.937354-2.457837l.03511-.03511-.390362-.32427-8.800707-7.625489s-.03477-.02856-.03924-.03305h-.03511c-.380763-.32812-.826559-.503956-1.299147-.503956zm3.407925 10.159746a6.5707342 6.5707342 0 0 1 .452325.0041 6.5707342 6.5707342 0 0 1 6.287104 6.830306l-.0021.04751a6.5707342 6.5707342 0 0 1 -6.86542 6.249927 6.5707342 6.5707342 0 0 1 -6.26232-6.853027 6.5707342 6.5707342 0 0 1 6.390376-6.278843z" fill="#fef8f3" fill-rule="evenodd"/><path d="m32 28.000001a4.2298794 4.2298794 0 0 1 -4.419447 4.023297 4.2298794 4.2298794 0 0 1 -4.031359-4.412095 4.2298794 4.2298794 0 0 1 4.404727-4.039407 4.2298794 4.2298794 0 0 1 4.047442 4.397346" fill="#fff" fill-opacity=".693662"/></svg>