<svg height="48" width="48" xmlns="http://www.w3.org/2000/svg"><rect fill="#75b4c5" height="42.5" ry="2.5" width="32.5" x="7.5" y="3"/><path d="m23.75 14.25c-5.522563 0-10 4.477232-10 10s4.477437 10 10 10 10-4.477232 10-10-4.477437-10-10-10zm.533203 3.007813h.03125c2.155052.05974 3.707516 1.559768 3.722656 3.646484.05626.62669.02059 1.207511-.101562 1.730469.724489.02148 1.618043.148057 2.197265.896484.511501.660858.515236 1.411394.519532 2.451172.0012.212784.0078.755859.0078.755859-.01391 1.346064-.429421 2.476093-1.201172 3.269532-.772569.795689-1.864815 1.223736-3.15625 1.234375h-5.046875c-.03171.000409-.06245 0-.09375 0-1.447341 0-2.564725-.4082-3.320312-1.212891-.755793-.805101-.998047-1.893642-.998047-3.40625.0014-.104346-.0083-.206387-.002-.306641l.002-5.318359c.0624-1.318647.65213-2.132712 1.095703-2.599609.716714-.754769 1.729695-1.138672 3.011719-1.138672h.03516zm-.212891 2.833984-2.816406.002c-.664745-.0063-1.210063.520076-1.220703 1.183594-.01043.663518.519871 1.210064 1.183594 1.220703 0 0 2.827642-.002 2.833984-.002.654925 0 1.192281-.479543 1.203125-1.136719.01043-.663722-.519871-1.257144-1.183594-1.267578zm-3.154296 5.509766c-.663723 0-1.203125.537449-1.203125 1.201171s.539402 1.203126 1.203125 1.203126h5.630859c.663722 0 1.203125-.539403 1.203125-1.203126 0-.663721-.539403-1.201171-1.203125-1.201171z" fill="#fff" stroke-width=".2046"/></svg>