<?xml version="1.0" encoding="UTF-8" standalone="no"?>
<svg
   xmlns:dc="http://purl.org/dc/elements/1.1/"
   xmlns:cc="http://creativecommons.org/ns#"
   xmlns:rdf="http://www.w3.org/1999/02/22-rdf-syntax-ns#"
   xmlns:svg="http://www.w3.org/2000/svg"
   xmlns="http://www.w3.org/2000/svg"
   xmlns:sodipodi="http://sodipodi.sourceforge.net/DTD/sodipodi-0.dtd"
   xmlns:inkscape="http://www.inkscape.org/namespaces/inkscape"
   height="48"
   width="48"
   version="1.1"
   id="svg10"
   sodipodi:docname="bluegriffon.svg"
   inkscape:version="0.92.3 (2405546, 2018-03-11)">
  <metadata
     id="metadata16">
    <rdf:RDF>
      <cc:Work
         rdf:about="">
        <dc:format>image/svg+xml</dc:format>
        <dc:type
           rdf:resource="http://purl.org/dc/dcmitype/StillImage" />
        <dc:title></dc:title>
      </cc:Work>
    </rdf:RDF>
  </metadata>
  <defs
     id="defs14">
    <filter
       y="0%"
       x="0%"
       height="100%"
       width="100%"
       id="alpha">
      <feColorMatrix
         id="feColorMatrix929"
         values="0 0 0 0 1 0 0 0 0 1 0 0 0 0 1 0 0 0 1 0"
         in="SourceGraphic" />
    </filter>
    <mask
       id="mask0">
      <g
         id="g934"
         filter="url(#alpha)">
        <rect
           id="rect932"
           style="fill-opacity:.2;fill:rgb(0%,0%,0%)"
           height="384"
           width="384" />
      </g>
    </mask>
    <clipPath
       id="clip1">
      <rect
         id="rect937"
         height="384"
         width="384" />
    </clipPath>
    <g
       clip-path="url(#clip1)"
       id="surface5">
      <path
         id="path940"
         style="fill:rgb(100%,100%,100%)"
         d="m162.49219 24.035156c-13.507813 0.222656-27.109376 3.160156-37.09375 8.109375-9.898438 4.90625-18.738282 14.425781-27.078126 29.167969-2.140624 3.78125-4.636718 7.363281-5.554687 7.96875s-4.285156 1.453125-7.464844 1.882812c-11.070312-0.371093-23.210937-2.757812-34.96875-5.140624 0 0-7.496093-1.949219-8.332031 6.152343 0.035156 1.367188 0.257812 2.65625 0.46875 3.953125 1.8125-5.617187 7.863281-4.105468 7.863281-4.105468 11.757813 2.382812 23.898438 4.769531 34.96875 5.140624 3.179688-0.429687 6.546875-1.277343 7.464844-1.882812s3.414063-4.199219 5.554687-7.980469c8.339844-14.738281 17.179688-24.25 27.078126-29.15625 11.414062-5.65625 27.554687-8.683593 42.871093-8.039062 18.414063 0.777343 34.054688 7.144531 46.832031 19.066406 8.777344 8.195313 14.589844 10.25 22.941407 8.097656 2.28125-0.589843 3.175781-0.746093 4.058593-0.855469 1.191407-1.652343 1.953126-3.363281 1.953126-4.816406 0-1.84375-0.136719-1.84375-6.011719-0.328125-8.351563 2.152344-14.164063 0.097657-22.941407-8.097656-12.777343-11.921875-28.417968-18.289063-46.832031-19.066406-1.914062-0.082031-3.84375-0.101563-5.777343-0.070313zm77.929687 40.328125c-0.410156 0.402344-0.800781 0.816407-1.269531 1.191407l-2.726563 2.203124 0.855469 0.503907c0.253906-0.042969 0.460938-0.101563 0.726562-0.136719 3.835938-0.554688 4.546876-1.980469 2.414063-3.761719zm-8.214844 11.644531c-0.457031 0.335938-0.785156 0.683594-0.785156 1.019532 0 0.398437 0.542969 3.835937 1.203125 7.636718 0.582031 3.355469 0.792969 7.929688 0.835938 12.710938 0.238281-6.9375-0.007813-13.949219-0.835938-18.710938-0.226562-1.316406-0.234375-1.535156-0.417969-2.65625zm-170.49609 34.195313c-5.027344 3.300781-7.902344 8.210937-13.792969 12.808594-0.917969 1.726562-0.429688 3.367187 1.171875 4.921875 6.414062-5.457032 9.296875-11.167969 16.910156-13.921875-1.464844-1.246094-2.851562-2.539063-4.289062-3.808594zm256.28906 45.820313c-5.183594 0-8.507812 3.1875-14.089844 10.699218-6.519531 8.789063-15.25 15.429688-21.347656 18.539063-9.554688 4.871093-16.882812 4.003906-34.152344-4.042969-18.273437-8.519531-30.953125-11.582031-49.15625-13.195312-1.289062-0.113282-2.777344-0.066407-4.242187-0.082032-3.976563 2.703125-8.339844 5.644532-9.011719 6.070313 0.847656 0 8.28125-0.433594 13.253906 0.011719 18.203125 1.613281 30.882813 4.675781 49.15625 13.195312 17.269532 8.046875 24.597656 8.914062 34.152344 4.042969 6.097656-3.109375 14.828125-9.75 21.347656-18.539063 5.582032-7.511718 8.90625-10.699218 14.089844-10.699218 5.074219 0 8.71875 3.347656 12.5625 9.210937 5.445312 8.304687 8.414062 14.230469 10.527344 28.699219 0.597656 4.132812 0.8125 10.640625 0.824218 17.445312 0.195313-8.976562-0.046874-18.070312-0.824218-23.445312-2.113282-14.46875-5.082032-20.394532-10.527344-28.699219-3.84375-5.863281-7.488281-9.210937-12.5625-9.210937zm-216 3.371093c-0.253906 5.238281-1.375 10.058594-4.625 16.363281-3.75 7.273438-7.84375 13.054688-15.941406 21.960938-14.582032 16.054688-24.941406 33.121094-29.496094 48.597656-1.648438 5.597656-2.285156 11.917969-2.039062 18.570313 0.222656-4.449219 0.894531-8.679688 2.039062-12.570313 4.554688-15.476562 14.914062-32.542968 29.496094-48.597656 8.097656-8.90625 12.191406-14.6875 15.941406-21.960938 4.433594-8.605468 4.96875-14.449218 4.625-22.363281z" />
    </g>
    <mask
       id="mask1">
      <g
         id="g945"
         filter="url(#alpha)">
        <rect
           id="rect943"
           style="fill-opacity:.2;fill:rgb(0%,0%,0%)"
           height="384"
           width="384" />
      </g>
    </mask>
    <clipPath
       id="clip2">
      <rect
         id="rect948"
         height="384"
         width="384" />
    </clipPath>
    <g
       clip-path="url(#clip2)"
       id="surface8">
      <path
         id="path951"
         style="fill:rgb(0%,0%,0%)"
         d="m243.25781 56.179688c-0.171874-0.011719-0.917968 0.210937-1.171874 0.246093-0.796876 1.09375-1.75 2.175781-2.929688 3.128907l-2.730469 2.203124 2.753907 1.640626c0.574218 0.339843 0.863281 0.640624 1.242187 0.960937 2.210937-2.1875 3.632813-4.71875 3.632813-6.761719 0-0.921875-0.027344-1.375-0.796876-1.417968zm-5.988281 12.082031c-3.363281 0.589843-5.847656 1.722656-5.847656 2.765625 0 0.257812 0.441406 2.878906 0.785156 4.980468 1.066407-0.785156 3.167969-1.507812 5.800781-1.886718 4.515626-0.652344 4.96875-2.46875 1.171876-4.722656zm-194.80078 7.859375c-0.199219 0.617187-0.386719 1.253906-0.46875 2.050781 0.355469 13.265625 9.480469 22.996094 19.710938 32.027344 1.269531-0.832031 2.652343-1.601563 4.289062-2.1875-10.800781-9.210938-21.386719-18.847657-23.53125-31.890625zm190.99219 21.246094c-0.230469 6.667968-0.914063 13.25-1.992188 17.625-3.410156 13.835937-8.582031 23.582031-17.402344 32.835937-6.867187 6.238281-26.257812 19.042969-28.070312 20.183594 0.632812 0 4.851562-0.136719 9.035156-0.082031 6.734375-4.582032 14.722656-10.179688 19.03125-14.097657 8.820312-9.25 13.996094-18.996093 17.402344-32.835937 1.414062-5.71875 2.066406-15.097656 1.992187-23.625zm-184.37109 30.574218c-0.414063 0.355469-0.71875 0.714844-1.171875 1.066406-1.417969 2.675782 0.214843 5.175782 4.804687 7.394532 5.921875 2.855468 11.992188 3.625 24.390625 3.035156 12.695313-0.609375 14.386719 1.269531 18.492188 4.664062 4.328125 3.601563 6.027343 7 6.394531 14.894532 0.007812 0.140625-0.003906 0.261718 0 0.398437 0.101562-2.035156 0.109375-4.132812 0-6.410156-0.367188-7.894531-2.066406-11.28125-6.394531-14.882813-4.105469-3.394531-5.796875-5.285156-18.492188-4.675781-12.398437 0.589844-18.46875-0.167969-24.390625-3.023437-1.621094-0.785156-2.753906-1.605469-3.632812-2.460938zm292.82422 89.4375c-0.175781 8.300782-0.71875 16.507813-1.617187 21.457032-11.171875 61.597656-50.480469 103.0625-110.49609 116.56641-16.195312 3.644531-22.71875 4.300781-45.160156 4.535156-11.644531 0.125-22.519531 0.085938-24.15625-0.082031v-0.011719c-37.652344-3.851562-63.890625-14.621094-83.273437-34.191406-7.828126-7.910156-13.144532-15.179688-17.5625-24.023438-5.847657-11.691406-9.1875-24.296875-9.75-35.90625-0.496094 13.167969 2.875 28.160156 9.75 41.90625 4.417968 8.84375 9.734374 16.117188 17.566406 24.023438 19.378906 19.570312 45.613281 30.355468 83.273437 34.207031 1.632813 0.167969 12.507813 0.203125 24.152344 0.082031 22.445313-0.234375 28.964844-0.890625 45.164063-4.535156 60.011718-13.5 99.324218-54.96875 110.49609-116.56641 1.121094-6.183594 1.640625-17.246094 1.617188-27.457032z" />
    </g>
    <linearGradient
       gradientUnits="userSpaceOnUse"
       y2="249.017"
       y1="515.328"
       x2="249.882"
       x1="-248.932"
       id="linearGradient1117">
      <stop
         id="stop954"
         offset="0"
         style="stop-color:#4aaee6" />
      <stop
         id="stop956"
         offset="1"
         style="stop-color:#357af0" />
    </linearGradient>
  </defs>
  <sodipodi:namedview
     pagecolor="#ffffff"
     bordercolor="#666666"
     borderopacity="1"
     objecttolerance="10"
     gridtolerance="10"
     guidetolerance="10"
     inkscape:pageopacity="0"
     inkscape:pageshadow="2"
     inkscape:window-width="1920"
     inkscape:window-height="1027"
     id="namedview12"
     showgrid="true"
     inkscape:zoom="6.9532167"
     inkscape:cx="-36.815411"
     inkscape:cy="17.41766"
     inkscape:window-x="0"
     inkscape:window-y="28"
     inkscape:window-maximized="1"
     inkscape:current-layer="svg10">
    <inkscape:grid
       type="xygrid"
       id="grid823" />
  </sodipodi:namedview>
  <g
     fill="#626c97"
     opacity=".99"
     transform="matrix(1.1503549 0 0 1.1503549 -4.486125 -7.525565)"
     id="g6"
     style="fill:#9a73bc;fill-opacity:1">
    <path
       d="m44.322082 27.405077a19.729762 19.729765 0 0 1 -19.729762 19.729765 19.729762 19.729765 0 0 1 -19.7297621-19.729765 19.729762 19.729765 0 0 1 19.7297621-19.7297632 19.729762 19.729765 0 0 1 19.729762 19.7297632z"
       id="path2"
       style="fill:#9a73bc;fill-opacity:1" />
    <path
       d="m44.322082 27.405077a19.729762 19.729765 0 0 1 -19.729762 19.729765 19.729762 19.729765 0 0 1 -19.7297621-19.729765 19.729762 19.729765 0 0 1 19.7297621-19.7297632 19.729762 19.729765 0 0 1 19.729762 19.7297632z"
       id="path4"
       style="fill:#9a73bc;fill-opacity:1" />
  </g>
  <path
     id="path852-3"
     d="m 26.543789,7.1694307 c -0.270015,0.01959 -0.509203,0.153467 -0.72127,0.408766 -0.239478,0.288302 -0.360228,0.677514 -0.32506,1.022614 0.05196,0.5099298 0.20266,0.9305498 0.817533,2.1526503 0.337947,0.671696 0.448539,0.940548 0.565019,1.478814 0.164497,0.760173 0.229952,1.426354 0.228797,2.308903 -0.0013,0.812739 -0.05066,1.404469 -0.179969,2.176368 -0.113524,0.677717 -0.307933,1.492427 -0.348777,1.478814 -0.06233,-0.02078 -0.136482,-0.65295 -0.192525,-1.575077 -0.06599,-1.085735 -0.121421,-1.52105 -0.216241,-1.948965 -0.252277,-1.138513 -0.813713,-1.619528 -1.743885,-1.478814 -0.260983,0.03948 -0.682085,0.16734 -0.72127,0.216242 -0.01677,0.02092 0.07663,0.352453 0.33622,1.095159 0.203953,0.583539 0.372479,1.070624 0.372495,1.081209 5e-5,0.03674 -0.14811,0.08782 -0.179969,0.06139 -0.01641,-0.01362 -0.164019,-0.223673 -0.325061,-0.457595 -0.339847,-0.493637 -0.512234,-0.7337 -0.744986,-1.010058 -0.626117,-0.743421 -1.303576,-1.098372 -2.00756,-1.057492 -0.256897,0.01492 -0.644073,0.09941 -0.710109,0.156253 -0.0458,0.03942 -0.03504,0.105387 0.84125,3.293848 l 0.902633,3.258971 -0.20508,1.996399 c -0.110678,1.100762 -0.216743,2.026547 -0.227403,2.056387 -0.01897,0.05306 -0.02297,0.05999 -0.38505,0.05999 -0.203605,0 -0.616421,-0.01499 -0.913794,-0.03627 -0.65707,-0.04707 -1.477184,-0.05294 -1.75644,-0.01256 -0.283878,0.04107 -0.695679,0.144011 -1.081208,0.276231 -1.204057,0.412949 -2.258511,1.143344 -3.138992,2.188924 -0.811548,0.963719 -1.499583,2.191 -2.176367,3.883978 -0.203124,0.508124 -0.641473,1.726418 -0.744988,2.056389 -0.256088,0.816343 -0.398274,1.682966 -0.421322,2.621406 -0.02051,0.83582 0.0428,1.522888 0.216242,2.223802 0.203467,0.822201 0.507023,1.459319 0.926351,1.996398 0.100386,0.128573 0.208941,0.242734 0.32506,0.361333 0.004,0.0044 0.0071,0.007 0.01116,0.01116 0.0035,0.0038 0.0089,0.0088 0.01256,0.01256 0.0023,0.0021 -0.0023,0.0087 0,0.01116 0.539795,0.541214 1.126484,0.857513 1.875025,1.010057 0.534995,0.109026 1.467653,0.12789 1.467653,0.02511 0,-0.01717 -0.162479,-0.50061 -0.361333,-1.070047 -0.198853,-0.569436 -0.359868,-1.04444 -0.359938,-1.058886 -1.42e-4,-0.02528 0.09922,-0.08371 0.143696,-0.08371 0.01185,0 0.13723,0.173763 0.276231,0.38505 0.559562,0.85056 0.990967,1.337662 1.480209,1.671338 0.29049,0.198128 0.671117,0.349787 0.973785,0.396211 0.18693,0.02866 0.633337,0.02614 0.817533,-0.01256 0.227393,-0.04774 0.453377,-0.122582 0.481312,-0.156252 L 17.98202,38.276137 c 0.946562,0.736835 2.188482,1.449922 3.066446,1.69645 1.099527,0.30874 2.136419,0.157927 2.922749,-0.433878 0.248829,-0.187279 0.505517,-0.440322 0.492473,-0.479917 -0.006,-0.01821 -0.920042,-0.406621 -2.032672,-0.866362 -1.112626,-0.459741 -2.02608,-0.849326 -2.031275,-0.864966 -0.01493,-0.04479 0.862272,0.0059 1.815034,0.107423 0.305028,0.03253 0.801286,0.08733 1.10632,0.11998 0.980897,0.104992 1.201295,0.120337 1.876419,0.119979 0.71674,-3.87e-4 1.03053,-0.02899 1.575076,-0.143697 0.848245,-0.178684 1.756222,-0.606442 2.500033,-1.166309 0.302832,-0.227946 0.451654,-0.367438 0.433878,-0.396211 -0.0097,-0.01576 -1.202505,-0.01161 -3.511486,0 -2.377061,0.01199 -3.458672,0.0039 -3.498928,-0.01256 -0.0066,-0.0011 -0.01991,0.0017 -0.02371,0 -0.01532,-0.0248 0.237907,-0.71803 0.27623,-0.757543 0.01097,-0.01134 0.100037,0.01761 0.192525,0.07254 1.601157,0.95123 5.049155,0.705976 7.550321,-0.541302 0.717704,-0.357906 1.191167,-0.69556 1.660178,-1.166309 0.561018,-0.563102 0.891684,-1.178324 0.937512,-1.767602 0.0135,-0.1738 0.0072,-0.179968 -0.03627,-0.179968 -0.05339,0 -0.926227,0.238421 -1.393712,0.383654 -0.172409,0.05356 -0.614996,0.195002 -0.986342,0.312504 -2.425551,0.767511 -3.432647,0.974291 -4.75034,0.998898 -0.753166,0.01408 -1.427931,-0.03132 -1.406268,-0.09626 0.02449,-0.07346 1.049147,-0.425405 1.743884,-0.601291 0.593082,-0.150148 0.904389,-0.213921 2.283791,-0.492474 2.039111,-0.41177 2.778914,-0.603517 3.680292,-0.962623 1.90103,-0.757367 2.978118,-1.991466 3.317566,-3.787717 0.08836,-0.467312 0.141817,-1.286289 0.0851,-1.286289 -0.01185,0 -0.98756,0.55017 -2.176368,1.213744 -1.188892,0.663573 -2.174532,1.200318 -2.188923,1.191421 -0.03291,-0.02031 -0.17245,-0.332589 -0.156252,-0.348776 0.0066,-0.0066 0.158953,-0.09036 0.348776,-0.192525 0.911711,-0.490738 1.604229,-1.007039 2.356337,-1.75644 1.405576,-1.400522 2.228154,-3.017243 2.428882,-4.748945 0.05401,-0.466148 0.03659,-1.316746 -0.03627,-1.743885 -0.0863,-0.505922 -0.286443,-1.253421 -0.347381,-1.273733 -0.01379,-0.0045 -0.864348,1.220466 -1.876419,2.716274 -2.131205,3.149852 -2.2433,3.312019 -2.260075,3.295244 -0.0383,-0.03829 0.469255,-0.93655 1.322562,-2.356337 0.369415,-0.614649 0.76641,-1.279879 0.877523,-1.478813 0.273382,-0.489447 0.657956,-1.301605 0.804977,-1.683895 0.516492,-1.343004 0.589311,-2.483203 0.228798,-3.571476 -0.104692,-0.316022 -0.356018,-0.830697 -0.552463,-1.130036 -0.194772,-0.296791 -0.487263,-0.671388 -0.517585,-0.661281 -0.0137,0.0045 -0.59817,1.384875 -1.298845,3.066446 l -1.273732,3.05389 -1.767602,3.017617 c -1.767761,3.022063 -1.845509,3.168505 -1.863864,3.150153 -0.01471,-0.01469 0.146727,-0.46733 0.312505,-0.877523 0.414691,-1.026113 0.840103,-1.843271 2.007559,-3.847705 0.745612,-1.280155 1.081058,-1.879028 1.382552,-2.476316 0.939217,-1.860667 1.39228,-3.363212 1.503925,-5.002856 0.02258,-0.333252 0.02263,-0.491692 0,-0.708714 -0.118009,-1.132057 -0.517621,-2.54266 -0.938908,-3.3315175 -0.244764,-0.45832 -0.561218,-0.8237328 -0.841249,-0.9612278 -0.126726,-0.06222 -0.16856,-0.07254 -0.372493,-0.07254 -0.210208,0 -0.24799,0.0083 -0.408767,0.08371 -0.392369,0.183896 -0.505271,0.4730358 -0.505029,1.2151378 1.15e-4,0.3979765 0.03063,0.7086765 0.156252,1.5987935 l 0.08371,0.625008 -0.01116,0.71011 c -0.01347,0.703809 -0.02364,0.930858 -0.09626,1.587632 -0.159729,1.444527 -0.552526,3.105309 -1.131432,4.868925 -0.21839,0.665315 -0.540317,1.591722 -0.57618,1.647622 -0.08378,0.130567 0.12314,-0.824226 0.541302,-2.5377 0.685806,-2.810157 0.849125,-3.812787 0.877523,-5.230258 0.01961,-0.98093 -0.04657,-1.658171 -0.228798,-2.4526 -0.109234,-0.476174 -0.152111,-0.600998 -0.31251,-0.9263565 -0.449663,-0.91214 -1.235094,-1.8774768 -1.87642,-2.2963468 -0.330588,-0.215917 -0.631224,-0.308382 -0.901239,-0.288787 z"
     style="fill:#ffffff;fill-opacity:1"
     inkscape:connector-curvature="0" />
</svg>
