<?xml version="1.0" encoding="UTF-8" standalone="no"?>
<svg
   xmlns:dc="http://purl.org/dc/elements/1.1/"
   xmlns:cc="http://creativecommons.org/ns#"
   xmlns:rdf="http://www.w3.org/1999/02/22-rdf-syntax-ns#"
   xmlns:svg="http://www.w3.org/2000/svg"
   xmlns="http://www.w3.org/2000/svg"
   xmlns:xlink="http://www.w3.org/1999/xlink"
   xmlns:sodipodi="http://sodipodi.sourceforge.net/DTD/sodipodi-0.dtd"
   xmlns:inkscape="http://www.inkscape.org/namespaces/inkscape"
   version="1.1"
   preserveAspectRatio="xMidYMid meet"
   viewBox="0 0 640 640"
   width="64"
   height="64"
   id="svg27"
   sodipodi:docname="buttercup.svg"
   inkscape:version="0.92.4 5da689c313, 2019-01-14">
  <metadata
     id="metadata31">
    <rdf:RDF>
      <cc:Work
         rdf:about="">
        <dc:format>image/svg+xml</dc:format>
        <dc:type
           rdf:resource="http://purl.org/dc/dcmitype/StillImage" />
      </cc:Work>
    </rdf:RDF>
  </metadata>
  <sodipodi:namedview
     pagecolor="#ffffff"
     bordercolor="#666666"
     borderopacity="1"
     objecttolerance="10"
     gridtolerance="10"
     guidetolerance="10"
     inkscape:pageopacity="0"
     inkscape:pageshadow="2"
     inkscape:window-width="1851"
     inkscape:window-height="1048"
     id="namedview29"
     showgrid="false"
     inkscape:zoom="3.6875"
     inkscape:cx="32"
     inkscape:cy="32"
     inkscape:window-x="69"
     inkscape:window-y="32"
     inkscape:window-maximized="1"
     inkscape:current-layer="g23" />
  <defs
     id="defs5">
    <path
       d="M576.92 58.1C586.81 58.1 594.82 66.12 594.82 76C594.82 180.33 594.82 475.4 594.82 579.73C594.82 589.61 586.81 597.63 576.92 597.63C471.25 597.63 172.12 597.63 66.45 597.63C56.56 597.63 48.55 589.61 48.55 579.73C48.55 475.4 48.55 180.33 48.55 76C48.55 66.12 56.56 58.1 66.45 58.1C172.12 58.1 471.25 58.1 576.92 58.1Z"
       id="bvF5m59bZ" />
    <path
       d="M264.84 130.38L265.91 130.38L266.97 130.38L268.01 130.38L269.03 130.38L270.01 130.38L270.97 130.38L271.88 130.39L272.76 130.39L273.58 130.39L274.36 130.39L275.07 130.39L275.73 130.39L276.31 130.39L276.83 130.4L277.27 130.4L277.63 130.4L277.9 130.4L278.08 130.4L283.02 130.59L287.9 130.98L292.72 131.56L297.49 132.32L302.19 133.28L306.82 134.41L311.38 135.72L315.86 137.21L320.27 138.86L324.59 140.68L328.82 142.66L332.97 144.8L337.02 147.09L340.97 149.53L344.82 152.11L348.56 154.84L352.2 157.7L355.72 160.69L359.13 163.82L362.41 167.07L365.58 170.44L368.61 173.92L371.51 177.52L374.28 181.23L376.91 185.05L379.4 188.96L381.73 192.97L383.92 197.08L385.96 201.27L387.84 205.55L389.56 209.91L391.11 214.34L392.49 218.85L393.7 223.43L394.74 228.07L395.59 232.77L396.26 237.53L396.75 242.34L397.04 247.2L397.14 252.11L397.14 287.61L397.61 288.17L398.07 288.71L398.53 289.23L398.97 289.75L399.4 290.25L399.82 290.73L400.23 291.2L400.63 291.66L401.03 292.1L401.41 292.53L401.78 292.94L402.14 293.34L402.49 293.73L402.84 294.1L403.17 294.46L403.49 294.8L403.8 295.13L404.1 295.45L404.39 295.75L404.68 296.04L404.95 296.32L405.21 296.57L405.46 296.82L405.7 297.05L405.94 297.27L406.16 297.47L406.37 297.66L406.57 297.84L406.76 298L406.95 298.15L407.12 298.28L407.28 298.4L407.43 298.51L407.57 298.6L407.71 298.68L407.83 298.74L407.94 298.79L408.04 298.82L408.13 298.84L408.22 298.85L409.1 298.85L409.95 298.86L410.79 298.87L411.61 298.89L412.41 298.92L413.18 298.95L413.93 299L414.67 299.06L415.38 299.13L416.07 299.21L416.73 299.31L417.38 299.43L418 299.57L418.61 299.72L419.19 299.9L419.74 300.1L420.28 300.32L420.8 300.56L421.29 300.83L421.76 301.13L422.21 301.45L422.63 301.8L423.04 302.19L423.42 302.6L423.78 303.05L424.11 303.54L424.42 304.05L424.72 304.61L424.98 305.2L425.23 305.83L425.45 306.5L425.65 307.22L425.82 307.98L425.98 308.78L426.1 309.62L426.21 310.51L426.29 311.45L426.35 312.44L426.39 313.48L426.4 314.58L426.4 492.66L426.38 493.77L426.33 494.87L426.24 495.96L426.12 497.03L425.96 498.09L425.77 499.14L425.55 500.17L425.3 501.19L425.01 502.19L424.7 503.17L424.36 504.13L423.99 505.07L423.59 505.99L423.16 506.89L422.71 507.76L422.23 508.61L421.73 509.44L421.2 510.24L420.65 511.02L420.07 511.77L419.48 512.49L418.86 513.18L418.22 513.85L417.56 514.48L416.88 515.08L416.18 515.65L415.47 516.19L414.73 516.69L413.99 517.15L413.22 517.58L412.44 517.98L411.64 518.33L410.83 518.65L410.01 518.93L409.18 519.17L408.33 519.36L407.47 519.52L406.61 519.63L405.73 519.7L404.84 519.72L144.1 519.72L143.67 519.7L143.21 519.65L142.71 519.56L142.18 519.43L141.62 519.28L141.03 519.09L140.42 518.87L139.78 518.62L139.13 518.34L138.45 518.04L137.76 517.71L137.06 517.35L136.35 516.97L135.63 516.57L134.9 516.14L134.18 515.7L133.45 515.23L132.73 514.75L132.01 514.24L131.29 513.73L130.59 513.19L129.9 512.65L129.23 512.09L128.57 511.51L127.94 510.93L127.33 510.34L126.74 509.74L126.18 509.13L125.65 508.52L125.15 507.9L124.69 507.27L124.27 506.64L123.88 506.02L123.54 505.39L123.25 504.76L123 504.13L122.8 503.5L122.66 502.88L122.57 502.26L122.54 501.65L122.54 314.58L122.55 313.37L122.56 312.01L122.58 310.49L122.61 308.83L122.64 307.03L122.68 305.11L122.73 303.08L122.78 300.94L122.84 298.71L122.9 296.39L122.97 294L123.04 291.54L123.11 289.03L123.19 286.47L123.26 283.88L123.35 281.26L123.43 278.63L123.51 275.99L123.6 273.36L123.68 270.74L123.77 268.14L123.85 265.58L123.94 263.06L124.02 260.59L124.1 258.18L124.18 255.85L124.26 253.6L124.33 251.45L124.4 249.39L124.47 247.45L124.53 245.63L124.59 243.95L124.64 242.4L124.69 241L124.73 239.77L124.76 238.71L124.79 237.83L124.81 237.14L124.82 236.65L124.83 236.37L124.93 231.49L125.24 226.72L125.76 222.05L126.47 217.48L127.37 213.01L128.47 208.65L129.75 204.39L131.21 200.24L132.85 196.2L134.65 192.27L136.63 188.45L138.77 184.74L141.07 181.14L143.52 177.66L146.12 174.29L148.87 171.04L151.76 167.9L154.79 164.88L157.95 161.98L161.24 159.2L164.65 156.54L168.18 154L171.83 151.59L175.59 149.3L179.45 147.13L183.42 145.09L187.48 143.18L191.64 141.4L195.89 139.74L200.22 138.22L204.64 136.83L209.12 135.57L213.69 134.44L218.31 133.45L223 132.6L227.75 131.88L232.56 131.3L237.41 130.86L242.31 130.56L247.26 130.4L247.44 130.4L247.71 130.4L248.07 130.4L248.51 130.4L249.02 130.39L249.61 130.39L250.27 130.39L250.98 130.39L251.75 130.39L252.58 130.39L253.45 130.39L254.37 130.38L255.32 130.38L256.31 130.38L257.33 130.38L258.37 130.38L259.43 130.38L260.5 130.38L261.58 130.38L262.67 130.38L263.76 130.38L264.84 130.38ZM256.08 343.45L255.88 343.45L255.68 343.45L255.48 343.45L255.28 343.45L255.08 343.45L254.89 343.46L254.7 343.46L254.51 343.46L254.33 343.46L254.15 343.47L253.97 343.47L253.8 343.47L253.63 343.48L253.47 343.48L253.31 343.49L253.16 343.49L253.01 343.5L252.88 343.5L251.61 343.58L250.35 343.71L249.11 343.88L247.89 344.11L246.68 344.39L245.49 344.71L244.32 345.08L243.17 345.49L242.04 345.95L240.94 346.45L239.85 346.99L238.79 347.57L237.76 348.2L236.75 348.86L235.77 349.55L234.81 350.29L233.88 351.05L232.98 351.86L232.11 352.69L231.28 353.56L230.47 354.46L229.7 355.38L228.96 356.34L228.26 357.32L227.59 358.33L226.96 359.37L226.36 360.43L225.8 361.51L225.29 362.61L224.81 363.74L224.37 364.89L223.98 366.05L223.63 367.23L223.32 368.43L223.06 369.64L222.84 370.87L222.67 372.11L222.55 373.37L222.48 374.63L222.45 375.91L222.46 376.58L222.48 377.25L222.51 377.92L222.56 378.58L222.61 379.24L222.69 379.9L222.77 380.55L222.87 381.2L222.98 381.84L223.1 382.48L223.23 383.11L223.38 383.74L223.54 384.37L223.71 384.99L223.89 385.6L224.08 386.21L224.29 386.81L224.51 387.41L224.74 388.01L224.98 388.59L225.23 389.17L225.49 389.75L225.77 390.32L226.05 390.88L226.35 391.44L226.66 391.99L226.98 392.53L227.31 393.07L227.65 393.6L228 394.12L228.36 394.64L228.73 395.15L229.11 395.65L229.5 396.14L229.9 396.63L230.31 397.11L230.74 397.58L231.17 398.04L231.61 398.49L232.06 398.94L232.06 452.75L232.07 453.21L232.1 453.67L232.15 454.12L232.21 454.57L232.3 455.01L232.4 455.45L232.52 455.88L232.65 456.3L232.81 456.72L232.98 457.13L233.16 457.53L233.36 457.93L233.57 458.31L233.8 458.69L234.05 459.06L234.3 459.42L234.57 459.77L234.86 460.1L235.15 460.43L235.46 460.75L235.78 461.05L236.11 461.35L236.45 461.63L236.81 461.9L237.17 462.15L237.54 462.39L237.92 462.62L238.31 462.83L238.71 463.03L239.12 463.22L239.54 463.38L239.96 463.54L240.39 463.67L240.83 463.79L241.27 463.89L241.72 463.97L242.17 464.04L242.63 464.09L243.09 464.12L243.56 464.13L269.42 464.13L269.88 464.12L270.35 464.09L270.81 464.04L271.26 463.97L271.71 463.89L272.15 463.79L272.59 463.67L273.02 463.54L273.44 463.38L273.85 463.22L274.26 463.03L274.66 462.83L275.05 462.62L275.43 462.39L275.81 462.15L276.17 461.9L276.52 461.63L276.86 461.35L277.19 461.05L277.51 460.75L277.82 460.43L278.12 460.1L278.4 459.77L278.67 459.42L278.93 459.06L279.17 458.69L279.4 458.31L279.61 457.93L279.81 457.53L280 457.13L280.17 456.72L280.32 456.3L280.46 455.88L280.58 455.45L280.68 455.01L280.76 454.57L280.83 454.12L280.88 453.67L280.91 453.21L280.92 452.75L280.92 398.94L281.37 398.49L281.81 398.04L282.24 397.58L282.66 397.11L283.07 396.63L283.47 396.14L283.87 395.65L284.25 395.15L284.62 394.64L284.98 394.12L285.33 393.6L285.67 393.07L286 392.53L286.32 391.99L286.62 391.44L286.92 390.88L287.21 390.32L287.48 389.75L287.75 389.17L288 388.59L288.24 388.01L288.47 387.41L288.69 386.81L288.89 386.21L289.09 385.6L289.27 384.99L289.44 384.37L289.6 383.74L289.74 383.11L289.88 382.48L290 381.84L290.11 381.2L290.21 380.55L290.29 379.9L290.36 379.24L290.42 378.58L290.47 377.92L290.5 377.25L290.52 376.58L290.53 375.91L290.5 374.63L290.43 373.37L290.3 372.11L290.13 370.87L289.92 369.64L289.65 368.43L289.35 367.23L289 366.05L288.6 364.89L288.17 363.74L287.69 362.61L287.17 361.51L286.62 360.43L286.02 359.37L285.39 358.33L284.72 357.32L284.02 356.34L283.28 355.38L282.51 354.46L281.7 353.56L280.86 352.69L279.99 351.86L279.1 351.05L278.17 350.29L277.21 349.55L276.23 348.86L275.22 348.2L274.18 347.57L273.12 346.99L272.04 346.45L270.93 345.95L269.8 345.49L268.66 345.08L267.49 344.71L266.3 344.39L265.09 344.11L263.87 343.88L262.63 343.71L261.37 343.58L260.1 343.5L259.96 343.5L259.82 343.49L259.67 343.49L259.51 343.48L259.35 343.48L259.18 343.47L259.01 343.47L258.83 343.47L258.65 343.46L258.46 343.46L258.28 343.46L258.09 343.46L257.89 343.45L257.7 343.45L257.5 343.45L257.3 343.45L257.1 343.45L256.89 343.45L256.69 343.45L256.49 343.45L256.29 343.45L256.08 343.45ZM252.13 176.38L248.33 176.68L244.58 177.09L240.87 177.61L237.22 178.24L233.62 178.98L230.07 179.82L226.59 180.77L223.17 181.81L219.82 182.95L216.54 184.19L213.33 185.52L210.2 186.94L207.15 188.44L204.17 190.03L201.29 191.71L198.49 193.46L195.78 195.3L193.17 197.21L190.66 199.19L188.24 201.24L185.93 203.37L183.73 205.55L181.63 207.81L179.65 210.12L177.79 212.49L176.04 214.92L174.42 217.4L172.92 219.94L171.55 222.52L170.31 225.16L169.2 227.83L168.23 230.55L167.41 233.31L166.72 236.1L166.18 238.93L165.8 241.8L165.56 244.69L165.48 247.61L165.48 283.12L354.24 283.12L354.24 247.61L354.16 244.69L353.92 241.8L353.54 238.93L353 236.1L352.31 233.31L351.49 230.55L350.52 227.83L349.41 225.16L348.17 222.52L346.8 219.94L345.3 217.4L343.68 214.92L341.93 212.49L340.07 210.12L338.09 207.81L335.99 205.55L333.79 203.37L331.48 201.24L329.06 199.19L326.55 197.21L323.94 195.3L321.23 193.46L318.43 191.71L315.54 190.03L312.57 188.44L309.52 186.94L306.39 185.52L303.18 184.19L299.9 182.95L296.54 181.81L293.13 180.77L289.64 179.82L286.1 178.98L282.5 178.24L278.84 177.61L275.14 177.09L271.38 176.68L267.58 176.38L263.74 176.2L259.86 176.14L255.98 176.2L252.13 176.38Z"
       id="gFCmjOxmh" />
    <path
       d="M539.92 401.7C539.92 466.84 487.54 519.72 423.03 519.72C415.29 519.72 407.72 521.17 400.4 519.72C346.7 509.07 306.13 459.02 306.13 401.7C306.13 336.57 358.51 287.06 423.03 287.06C487.54 287.06 539.92 336.57 539.92 401.7Z"
       id="eRYEbyAzq" />
  </defs>
  <g
     id="g25">
    <g
       id="g23">
      <g
         id="g9"
         style="fill:#dcedea;fill-opacity:1"
         transform="translate(2.7118644,-6.440678)">
        <use
           xlink:href="#bvF5m59bZ"
           id="use7"
           style="opacity:1;fill:#dcedea;fill-opacity:1"
           x="0"
           y="0"
           width="100%"
           height="100%" />
      </g>
      <g
         id="g17"
         transform="translate(2.7118644,-6.440678)">
        <use
           xlink:href="#gFCmjOxmh"
           id="use11"
           style="opacity:1;fill:#97c5c1;fill-opacity:1"
           x="0"
           y="0"
           width="100%"
           height="100%" />
        <g
           id="g15">
          <use
             xlink:href="#gFCmjOxmh"
             id="use13"
             style="opacity:1;fill-opacity:0;stroke:#000000;stroke-width:1;stroke-opacity:0"
             x="0"
             y="0"
             width="100%"
             height="100%" />
        </g>
      </g>
      <g
         id="g21"
         transform="translate(2.7118644,-6.440678)">
        <use
           xlink:href="#eRYEbyAzq"
           id="use19"
           style="opacity:1;fill:#97c5c1;fill-opacity:1"
           x="0"
           y="0"
           width="100%"
           height="100%" />
      </g>
    </g>
  </g>
</svg>
