<svg height="48" width="48" xmlns="http://www.w3.org/2000/svg"><path d="m44.322082 27.405077a19.729762 19.729765 0 0 1 -19.729762 19.729765 19.729762 19.729765 0 0 1 -19.7297621-19.729765 19.729762 19.729765 0 0 1 19.7297621-19.7297632 19.729762 19.729765 0 0 1 19.729762 19.7297632z" fill="#a7ac93" opacity=".99" transform="matrix(1.1503549 0 0 1.1503549 -4.486125 -7.525565)"/><g fill="#fff"><path d="m15.3 22.327799v8.75c0 2.9085 2.3415 5.25 5.25 5.25h5.25c2.661429 0 4.824783-1.968384 5.177083-4.529947 1.117263-.19513 2.061551-.572043 2.784506-1.114259 1.061667-.79625 1.663411-1.939127 1.663411-3.105794s-.601744-2.309544-1.663411-3.105794c-.706742-.530056-1.627684-.898933-2.711589-1.098308v-1.045898zm15.75 2.827799c.700749.166414 1.263946.415896 1.663411.715495.688334.51625.961589 1.123373.961589 1.706706s-.273255 1.190456-.961589 1.706706c-.399465.299599-.962662.549081-1.663411.715495z"/><path d="m18.8 13.577799c1.75 1.75 0 5.25 0 7-1.75-1.75 0-5.25 0-7z" fill-opacity=".376761" fill-rule="evenodd"/><path d="m22.3 10.077799c3.5 3.5 0 7 0 8.75-1.75-3.5 0-7 0-8.75z" fill-opacity=".376761" fill-rule="evenodd"/><path d="m25.8 11.827799c1.75 1.75 0 7 0 8.75-1.75-1.75 0-7 0-8.75z" fill-opacity=".376761" fill-rule="evenodd"/><path d="m29.3 15.327799c1.75 1.75 0 3.5 0 5.25-1.75-3.5 0-3.5 0-5.25z" fill-opacity=".376761" fill-rule="evenodd"/></g></svg>