<?xml version="1.0" encoding="UTF-8" standalone="no"?>
<svg
   xmlns:dc="http://purl.org/dc/elements/1.1/"
   xmlns:cc="http://creativecommons.org/ns#"
   xmlns:rdf="http://www.w3.org/1999/02/22-rdf-syntax-ns#"
   xmlns:svg="http://www.w3.org/2000/svg"
   xmlns="http://www.w3.org/2000/svg"
   xmlns:sodipodi="http://sodipodi.sourceforge.net/DTD/sodipodi-0.dtd"
   xmlns:inkscape="http://www.inkscape.org/namespaces/inkscape"
   height="48"
   width="48"
   version="1.1"
   id="svg20"
   sodipodi:docname="calibre-viewer.svg"
   inkscape:version="1.0.2 (e86c870879, 2021-01-15)">
  <metadata
     id="metadata26">
    <rdf:RDF>
      <cc:Work
         rdf:about="">
        <dc:format>image/svg+xml</dc:format>
        <dc:type
           rdf:resource="http://purl.org/dc/dcmitype/StillImage" />
        <dc:title></dc:title>
      </cc:Work>
    </rdf:RDF>
  </metadata>
  <defs
     id="defs24" />
  <sodipodi:namedview
     pagecolor="#ffffff"
     bordercolor="#666666"
     borderopacity="1"
     objecttolerance="10"
     gridtolerance="10"
     guidetolerance="10"
     inkscape:pageopacity="0"
     inkscape:pageshadow="2"
     inkscape:window-width="1920"
     inkscape:window-height="1031"
     id="namedview22"
     showgrid="false"
     inkscape:zoom="18.541667"
     inkscape:cx="24"
     inkscape:cy="30.47191"
     inkscape:window-x="0"
     inkscape:window-y="24"
     inkscape:window-maximized="1"
     inkscape:current-layer="svg20" />
  <path
     d="m44.322082 27.405077a19.729762 19.729765 0 0 1 -19.729762 19.729765 19.729762 19.729765 0 0 1 -19.7297621-19.729765 19.729762 19.729765 0 0 1 19.7297621-19.7297632 19.729762 19.729765 0 0 1 19.729762 19.7297632z"
     fill="#9d93ac"
     opacity=".99"
     transform="matrix(1.1503549 0 0 1.1503549 -4.486125 -7.525565)"
     id="path2" />
  <rect
     fill="#fff"
     height="24"
     ry="1.5"
     width="6"
     x="10.305882"
     y="10.5"
     id="rect4" />
  <rect
     fill="#fff"
     height="24"
     ry="1.5"
     width="6"
     x="17.805882"
     y="10.5"
     id="rect6" />
  <path
     d="m7.5 30h18"
     fill="#ac93a7"
     fill-rule="evenodd"
     stroke="#9d93ac"
     id="path8" />
  <path
     d="m9 15h16.5"
     fill="#ac93a7"
     fill-rule="evenodd"
     stroke="#9d93ac"
     id="path10" />
  <rect
     fill="#fff"
     fill-opacity=".609489"
     height="24"
     ry="1.5"
     transform="matrix(.88235294 -.47058824 .47058824 .88235294 0 0)"
     width="6"
     x="13.923529"
     y="23.205883"
     id="rect12" />
  <g
     fill="none"
     stroke="#9d93ac"
     id="g18">
    <path
       d="m24 18 9-4.5"
       id="path14" />
    <path
       d="m31.5 31.5 9-4.5"
       id="path16" />
  </g>
  <circle
     style="fill:#9d93ac;fill-opacity:0.99215686;stroke-width:1.25546"
     id="path1654"
     cx="31.550871"
     cy="31.482584"
     r="11.8201" />
  <circle
     style="fill:#ffffff;fill-opacity:1;stroke-width:1.03121"
     id="circle1656"
     cx="31.550871"
     cy="31.482584"
     r="9.7088289" />
  <path
     inkscape:connector-curvature="0"
     style="fill:#9d93ac;fill-opacity:0.992157;fill-rule:evenodd;stroke-width:0.753146"
     d="m 31.552256,26.355786 c -1.460006,0.01592 -2.929383,0.390218 -4.201147,1.197384 -0.506882,0.369753 -1.115397,0.847147 -1.573958,1.328302 -0.721514,0.791158 -1.33912,1.713737 -1.756363,2.747811 1.14379,2.825735 3.657655,4.896886 6.423813,5.202887 1.81448,0.230032 3.713787,-0.121264 5.308798,-1.126775 0.50687,-0.369755 1.115401,-0.847148 1.573962,-1.328305 0.721515,-0.792846 1.33912,-1.715423 1.756361,-2.747807 -1.143277,-2.82557 -3.658256,-4.897561 -6.423812,-5.20289 -0.367537,-0.04891 -0.738612,-0.07058 -1.107654,-0.07058 z m 0.0029,2.259437 c 1.611513,-0.0357 3.038502,1.406592 3.008177,3.009646 0.05164,1.771737 -1.713135,3.300785 -3.458295,2.96993 -1.762488,-0.206945 -3.000938,-2.184894 -2.421251,-3.859881 0.370627,-1.232289 1.581263,-2.132665 2.872844,-2.118223 z m -0.0029,1.506297 a 1.5062927,1.5054264 0 0 0 -1.506293,1.507763 1.5062927,1.5054264 0 0 0 1.506293,1.504821 1.5062927,1.5054264 0 0 0 1.506292,-1.504821 1.5062927,1.5054264 0 0 0 -1.506292,-1.504824 z"
     id="path18" />
</svg>
