<?xml version="1.0" encoding="UTF-8" standalone="no"?>
<svg
   xmlns:dc="http://purl.org/dc/elements/1.1/"
   xmlns:cc="http://creativecommons.org/ns#"
   xmlns:rdf="http://www.w3.org/1999/02/22-rdf-syntax-ns#"
   xmlns:svg="http://www.w3.org/2000/svg"
   xmlns="http://www.w3.org/2000/svg"
   xmlns:sodipodi="http://sodipodi.sourceforge.net/DTD/sodipodi-0.dtd"
   xmlns:inkscape="http://www.inkscape.org/namespaces/inkscape"
   version="1.1"
   x="0px"
   y="0px"
   viewBox="0 0 1000 1000"
   style="enable-background:new 0 0 1000 1000;"
   xml:space="preserve"
   id="svg104"
   sodipodi:docname="logo_chatons_v2.1.svg"
   inkscape:version="1.0.1 (3bc2e813f5, 2020-09-07)"
   inkscape:export-filename="/home/lise/Bureau/logo_chatons_v3.png"
   inkscape:export-xdpi="240"
   inkscape:export-ydpi="240"><metadata
     id="metadata110"><rdf:RDF><cc:Work
         rdf:about=""><dc:format>image/svg+xml</dc:format><dc:type
           rdf:resource="http://purl.org/dc/dcmitype/StillImage" /><dc:title /></cc:Work></rdf:RDF></metadata><defs
     id="defs108" /><sodipodi:namedview
     pagecolor="#ffffff"
     bordercolor="#666666"
     borderopacity="1"
     objecttolerance="10"
     gridtolerance="10"
     guidetolerance="10"
     inkscape:pageopacity="0"
     inkscape:pageshadow="2"
     inkscape:window-width="1849"
     inkscape:window-height="1048"
     id="namedview106"
     showgrid="false"
     inkscape:zoom="0.472"
     inkscape:cx="866.48091"
     inkscape:cy="467.04707"
     inkscape:window-x="71"
     inkscape:window-y="32"
     inkscape:window-maximized="1"
     inkscape:current-layer="svg104"
     inkscape:document-rotation="0" /><style
     type="text/css"
     id="style2">
	.st0{fill:#FECA5D;}
	.st1{fill:#CC9237;}
	.st2{fill:#FFFFFF;}
	.st3{fill:none;stroke:#CC9237;stroke-width:5;stroke-miterlimit:10;}
	.st4{fill:#E5AE37;}
	.st5{fill:none;stroke:#FECA5D;stroke-width:5;stroke-miterlimit:10;}
	.st6{fill:none;stroke:#FFFFFF;stroke-width:4;stroke-miterlimit:10;}
	.st7{fill:none;stroke:#FFFFFF;stroke-width:2;stroke-miterlimit:10;}
</style><path
     style="fill:#dec092;fill-rule:evenodd;stroke-width:26.871;stroke-linecap:square;paint-order:stroke markers fill;fill-opacity:1;stroke:#a46708;stroke-opacity:1;stroke-miterlimit:4;stroke-dasharray:none"
     id="path882"
     sodipodi:type="arc"
     sodipodi:cx="507.67581"
     sodipodi:cy="501.57541"
     sodipodi:rx="457.5867"
     sodipodi:ry="457.5867"
     sodipodi:start="3.7740825"
     sodipodi:end="3.7310807"
     sodipodi:arc-type="arc"
     d="M 138.60554,231.07084 A 457.5867,457.5867 0 0 1 774.19716,129.61847 457.5867,457.5867 0 0 1 882.47642,764.08273 457.5867,457.5867 0 0 1 249.21286,879.17638 457.5867,457.5867 0 0 1 127.31812,247.1867"
     sodipodi:open="true" /><g
     id="Calque_4"
     transform="matrix(0.71027546,0,0,0.71027546,140.91653,189.33045)"><polygon
       class="st0"
       points="255.4,284 331,120.5 505.4,604.4 144.8,604.4 13.5,240.1 169.9,314.8 "
       id="polygon4"
       style="fill:#f0980c;fill-opacity:1" /><polygon
       class="st1"
       points="28.9,264 95.8,355 66.1,357.3 "
       id="polygon6"
       style="fill:#a46708;fill-opacity:1" /><polyline
       class="st1"
       points="364.1,244.3 329.6,150 340.6,262.8  "
       id="polyline8"
       style="fill:#a46708;fill-opacity:1" /><circle
       transform="matrix(0.9877,-0.1564,0.1564,0.9877,-59.4858,58.6365)"
       class="st2"
       cx="342.89999"
       cy="407.29999"
       id="ellipse10"
       r="55.700001"
       style="fill:#ffffff" /><ellipse
       transform="matrix(0.9877,-0.1564,0.1564,0.9877,-59.7545,58.7579)"
       class="st1"
       cx="343.5"
       cy="409.10001"
       rx="29.700001"
       ry="37.099998"
       id="ellipse12"
       style="fill:#a46708;fill-opacity:1" /><circle
       transform="matrix(0.9877,-0.1564,0.1564,0.9877,-70.4956,34.5851)"
       class="st2"
       cx="184.5"
       cy="465.20001"
       id="ellipse14"
       r="55.700001"
       style="fill:#ffffff" /><polygon
       class="st1"
       points="299.9,510.6 282.5,516.8 253.3,503.1 257.9,492.4 304.1,475.8 314.1,480.4 "
       id="polygon16"
       style="fill:#a46708;fill-opacity:1" /><path
       class="st2"
       d="m 301.7,517.3 c -7.8,6.7 32.3,20.9 71.2,5.6 15.4,-6 47.6,-29.3 46,-34.1 0,0 -25.5,24.6 -56.5,22.3 -29.8,-2.3 -47.7,-4.9 -60.7,6.2 z"
       id="path18"
       inkscape:connector-curvature="0"
       style="fill:#f9cc01;fill-opacity:1" /><ellipse
       transform="matrix(0.8604,-0.5096,0.5096,0.8604,-212.1454,159.5454)"
       class="st1"
       cx="185.2"
       cy="467"
       rx="29.700001"
       ry="37.099998"
       id="ellipse20"
       style="fill:#a46708;fill-opacity:1" /><path
       class="st2"
       d="m 289.3,521.8 c 10.3,0.2 -11.5,36.7 -51.3,49.7 -15.7,5.1 -55.3,7.8 -57.2,3 0,0 35.3,2.7 57.7,-18.9 21.6,-20.7 33.8,-34.1 50.8,-33.8 z"
       id="path22"
       inkscape:connector-curvature="0"
       style="fill:#f9cc01;fill-opacity:1" /><path
       class="st3"
       d="m 297.6,527.6 c 4,11 -11.4,26.6 -34.4,34.9"
       id="path24"
       inkscape:connector-curvature="0"
       style="fill:none;stroke:#a46708;stroke-width:5;stroke-miterlimit:10;stroke-opacity:1" /><path
       class="st3"
       d="m 298.4,527.3 c 4,11 25.8,13.2 48.7,4.9"
       id="path26"
       inkscape:connector-curvature="0"
       style="fill:none;stroke:#a46708;stroke-width:5;stroke-miterlimit:10;stroke-opacity:1" /></g><g
     id="Calque_3"
     transform="matrix(0.71027546,0,0,0.71027546,140.91653,189.33045)"><polygon
       class="st4"
       points="814.6,324.5 974.6,258.2 847.8,605.1 471.7,602.5 655.3,143.6 729.5,292.7 "
       id="polygon29"
       style="fill:#f9cc01;fill-opacity:1" /><polygon
       class="st0"
       points="654.9,169.2 647,281.9 622.8,264.4 "
       id="polygon31"
       style="fill:#f0980c;fill-opacity:1" /><polyline
       class="st0"
       points="923.2,371.1 957.9,276.9 893.3,370  "
       id="polyline33"
       style="fill:#f0980c;fill-opacity:1" /><polygon
       class="st0"
       points="716.1,494.1 698.8,487.6 685.4,458.3 695.8,453.1 741.9,470.3 746.4,480.3 "
       id="polygon35"
       style="fill:#f0980c;fill-opacity:1" /><path
       class="st5"
       d="m 703.2,504.5 c -4.1,10.9 -25.9,12.9 -48.8,4.3"
       id="path37"
       inkscape:connector-curvature="0"
       style="fill:none;stroke:#f0980c;stroke-width:5;stroke-miterlimit:10;stroke-opacity:1" /><path
       class="st5"
       d="m 703.2,504.5 c -4.1,10.9 11.1,26.7 34,35.3"
       id="path39"
       inkscape:connector-curvature="0"
       style="fill:none;stroke:#f0980c;stroke-width:5;stroke-miterlimit:10;stroke-opacity:1" /><ellipse
       transform="matrix(0.1682,-0.9858,0.9858,0.1682,236.7114,1166.6821)"
       class="st2"
       cx="809.59998"
       cy="443.10001"
       rx="42.700001"
       ry="53.900002"
       id="ellipse41"
       style="fill:#ffffff" /><circle
       transform="matrix(0.1682,-0.9858,0.9858,0.1682,227.2142,1156.5929)"
       class="st0"
       cx="798.90002"
       cy="443.70001"
       id="ellipse43"
       r="33.700001"
       style="fill:#f0980c;fill-opacity:1" /><ellipse
       transform="matrix(0.5198,-0.8543,0.8543,0.5198,-14.1075,747.7414)"
       class="st2"
       cx="658.09998"
       cy="386.39999"
       rx="42.700001"
       ry="53.900002"
       id="ellipse45"
       style="fill:#ffffff" /><path
       class="st0"
       d="m 622.8,371.9 c 9.7,-15.9 30.4,-21 46.3,-11.3 19.2,11.7 17.6,35.9 11.3,46.3 -9.7,15.9 -30.4,21 -46.3,11.3 -16,-9.7 -21,-30.4 -11.3,-46.3 z"
       id="path47"
       inkscape:connector-curvature="0"
       style="fill:#f0980c;fill-opacity:1" /><polyline
       class="st0"
       points="819.3,389 818.3,324 883.4,323  "
       id="polyline49"
       style="fill:#f0980c;fill-opacity:1" /><polyline
       class="st0"
       points="754.1,324.9 819.2,324 818.2,258.9  "
       id="polyline51"
       style="fill:#f0980c;fill-opacity:1" /><circle
       transform="matrix(0.9999,-0.01505521,0.01505521,0.9999,-4.7848,12.3569)"
       class="st1"
       cx="818.29999"
       cy="324"
       id="ellipse53"
       r="9.8000002"
       style="fill:#a46708;fill-opacity:1" /></g><g
     id="Calque_2"
     transform="matrix(0.71027546,0,0,0.71027546,140.91653,189.33045)"><polygon
       class="st1"
       points="554.4,283.5 680.2,167.8 680.4,609.4 335.6,607.7 340.3,160 463.5,283.6 "
       id="polygon56"
       style="fill:#a46708;fill-opacity:1" /><polygon
       class="st0"
       points="349.8,184.2 382,292.4 353.3,284.5 "
       id="polygon58"
       style="fill:#f0980c;fill-opacity:1" /><polyline
       class="st0"
       points="672.1,288.4 671.6,188 643.7,297.9  "
       id="polyline60"
       style="fill:#f0980c;fill-opacity:1" /><polygon
       class="st0"
       points="514.8,482.4 496.3,482.4 473.5,459.6 481.4,451.1 530.6,451.1 538.3,458.8 "
       id="polygon62"
       style="fill:#f0980c;fill-opacity:1" /><path
       class="st5"
       d="m 506.4,496.7 c 0,11.7 -19.7,21.2 -44.1,21.2"
       id="path64"
       inkscape:connector-curvature="0"
       style="fill:none;stroke:#f0980c;stroke-width:5;stroke-miterlimit:10;stroke-opacity:1" /><path
       class="st5"
       d="m 506.4,496.7 c 0,11.7 19.8,21.1 44.2,21.1"
       id="path66"
       inkscape:connector-curvature="0"
       style="fill:none;stroke:#f0980c;stroke-width:5;stroke-miterlimit:10;stroke-opacity:1" /><path
       class="st6"
       d="m 361.9,406 c 31.9,-29.7 81.8,-28 111.6,3.9"
       id="path68"
       inkscape:connector-curvature="0"
       style="fill:none;stroke:#ffffff;stroke-width:4;stroke-miterlimit:10" /><path
       class="st6"
       d="M 642.9,405.7 C 610.9,376 561,377.9 531.3,409.9"
       id="path70"
       inkscape:connector-curvature="0"
       style="fill:none;stroke:#ffffff;stroke-width:4;stroke-miterlimit:10" /><path
       class="st7"
       d="m 466.5,490.1 c 0,-10.4 -38.9,-18.8 -86.9,-18.7"
       id="path72"
       inkscape:connector-curvature="0"
       style="fill:none;stroke:#ffffff;stroke-width:2;stroke-miterlimit:10" /><path
       class="st7"
       d="m 462.2,493.4 c 0,-3.9 -44.8,-7 -100.3,-6.9"
       id="path74"
       inkscape:connector-curvature="0"
       style="fill:none;stroke:#ffffff;stroke-width:2;stroke-miterlimit:10" /><path
       class="st7"
       d="m 466.5,502.3 c 0,2.7 -37,5 -82.7,5"
       id="path76"
       inkscape:connector-curvature="0"
       style="fill:none;stroke:#ffffff;stroke-width:2;stroke-miterlimit:10" /><path
       class="st7"
       d="m 538.9,490.6 c 0,-10.4 38.9,-18.8 86.9,-18.9"
       id="path78"
       inkscape:connector-curvature="0"
       style="fill:none;stroke:#ffffff;stroke-width:2;stroke-miterlimit:10" /><path
       class="st7"
       d="m 543.1,493.9 c 0,-3.9 44.8,-7.1 100.2,-7.2"
       id="path80"
       inkscape:connector-curvature="0"
       style="fill:none;stroke:#ffffff;stroke-width:2;stroke-miterlimit:10" /><path
       class="st7"
       d="m 538.9,502.9 c 0,2.7 37,4.9 82.7,4.8"
       id="path82"
       inkscape:connector-curvature="0"
       style="fill:none;stroke:#ffffff;stroke-width:2;stroke-miterlimit:10" /></g></svg>
