<svg height="48" width="48" xmlns="http://www.w3.org/2000/svg"><path d="m44.322082 27.405077a19.729762 19.729765 0 0 1 -19.729762 19.729765 19.729762 19.729765 0 0 1 -19.7297621-19.729765 19.729762 19.729765 0 0 1 19.7297621-19.7297632 19.729762 19.729765 0 0 1 19.729762 19.7297632z" fill="#73bf7a" opacity=".99" transform="matrix(1.1503549 0 0 1.1503549 -4.486125 -7.525565)"/><path d="m19.803771 14.500001a2 2 0 0 0 -1.638672.855469 2 2 0 0 0 -.01172.01563l-6.830078 8.146484a6 6 0 0 0 -.214843.25586l-.04883.05859v.0078a6 6 0 0 0 -1.2558567 3.660167 6 6 0 0 0 5.9999997 6 6 6 0 0 0 5.837891-4.640625 4 4 0 0 0 .345703.199219 4 4 0 0 0 .347656.158203 4 4 0 0 0 .0625.02344 4 4 0 0 0 .314453.105469 4 4 0 0 0 .08008.01953 4 4 0 0 0 .298828.06641 4 4 0 0 0 .107422.01758 4 4 0 0 0 .289063.03516 4 4 0 0 0 .316404.01561 4 4 0 0 0 .316406-.01563 4 4 0 0 0 .289063-.03516 4 4 0 0 0 .107422-.01758 4 4 0 0 0 .298828-.06641 4 4 0 0 0 .08008-.01953 4 4 0 0 0 .314453-.105469 4 4 0 0 0 .0625-.02344 4 4 0 0 0 .347656-.158203 4 4 0 0 0 .345703-.199219 6 6 0 0 0 5.837889 4.640645 6 6 0 0 0 6-6 6 6 0 0 0 -1.255859-3.660156v-.0078l-.04883-.05859a6 6 0 0 0 -.214843-.25586l-6.830077-8.1465a2 2 0 0 0 -.01172-.01563 2 2 0 0 0 -1.638672-.855469 2 2 0 0 0 -2 2 2 2 0 0 0 .341797 1.115234l-.0078.0039a3 3 0 0 0 -.18164-.205079 3 3 0 0 0 -.002-.002 3 3 0 0 0 -.002 0 3 3 0 0 0 -.1875-.177734 3 3 0 0 0 -.04297-.03906 3 3 0 0 0 -.171875-.130859 3 3 0 0 0 -.07813-.05469 3 3 0 0 0 -.195313-.119141 3 3 0 0 0 -.04687-.02734 3 3 0 0 0 -.232422-.113281 3 3 0 0 0 -.03516-.01563 3 3 0 0 0 -.214844-.07813 3 3 0 0 0 -.08594-.0293 3 3 0 0 0 -.195313-.04883 3 3 0 0 0 -.0918-.02148 3 3 0 0 0 -.199218-.0293 3 3 0 0 0 -.107422-.01367 3 3 0 0 0 -.26358-.01361 3 3 0 0 0 -.263672.01367 3 3 0 0 0 -.107422.01367 3 3 0 0 0 -.199218.0293 3 3 0 0 0 -.0918.02148 3 3 0 0 0 -.195313.04883 3 3 0 0 0 -.08594.0293 3 3 0 0 0 -.214844.07813 3 3 0 0 0 -.03516.01563 3 3 0 0 0 -.232422.113281 3 3 0 0 0 -.04687.02734 3 3 0 0 0 -.195313.119141 3 3 0 0 0 -.07813.05469 3 3 0 0 0 -.171875.130859 3 3 0 0 0 -.04297.03906 3 3 0 0 0 -.1875.177734 3 3 0 0 0 -.002 0 3 3 0 0 0 -.002.002 3 3 0 0 0 -.18164.205079l-.0078-.0039a2 2 0 0 0 .341889-1.115294 2 2 0 0 0 -2-2zm-4 9a4 4 0 0 1 4 4 4 4 0 0 1 -4 4 4 4 0 0 1 -4-4 4 4 0 0 1 4-4zm8 0a2 2 0 0 1 .15625.0078 2 2 0 0 1 .140625.01563 2 2 0 0 1 .0625.0098 2 2 0 0 1 .105469.02344 2 2 0 0 1 .105468.02734 2 2 0 0 1 .0918.03125 2 2 0 0 1 .08203.03125 2 2 0 0 1 .105468.04492 2 2 0 0 1 .07813.03906 2 2 0 0 1 .0918.05078 2 2 0 0 1 .0918.05664 2 2 0 0 1 .05664.04102 2 2 0 0 1 .101562.07617 2 2 0 0 1 .06836.06055 2 2 0 0 1 .07617.07031 2 2 0 0 1 .07031.07617 2 2 0 0 1 .06055.06836 2 2 0 0 1 .07617.101562 2 2 0 0 1 .04102.05664 2 2 0 0 1 .05664.0918 2 2 0 0 1 .05078.0918 2 2 0 0 1 .03906.07813 2 2 0 0 1 .04492.105468 2 2 0 0 1 .03125.08203 2 2 0 0 1 .03125.0918 2 2 0 0 1 .02734.105468 2 2 0 0 1 .02344.105469 2 2 0 0 1 .0098.0625 2 2 0 0 1 .01563.140625 2 2 0 0 1 .0078.156218 2 2 0 0 1 -.0078.15625 2 2 0 0 1 -.01563.140625 2 2 0 0 1 -.0098.0625 2 2 0 0 1 -.02344.105469 2 2 0 0 1 -.02734.105468 2 2 0 0 1 -.03125.0918 2 2 0 0 1 -.03125.08203 2 2 0 0 1 -.04492.105468 2 2 0 0 1 -.03906.07813 2 2 0 0 1 -.05078.0918 2 2 0 0 1 -.05664.0918 2 2 0 0 1 -.04102.05664 2 2 0 0 1 -.07617.101562 2 2 0 0 1 -.06055.06836 2 2 0 0 1 -.07031.07617 2 2 0 0 1 -.07617.07031 2 2 0 0 1 -.06836.06055 2 2 0 0 1 -.101562.07617 2 2 0 0 1 -.05664.04102 2 2 0 0 1 -.0918.05664 2 2 0 0 1 -.0918.05078 2 2 0 0 1 -.07813.03906 2 2 0 0 1 -.105468.04492 2 2 0 0 1 -.08203.03125 2 2 0 0 1 -.0918.03125 2 2 0 0 1 -.105468.02734 2 2 0 0 1 -.105469.02344 2 2 0 0 1 -.0625.0098 2 2 0 0 1 -.140625.01563 2 2 0 0 1 -.156218.0078 2 2 0 0 1 -.15625-.0078 2 2 0 0 1 -.140625-.01563 2 2 0 0 1 -.0625-.0098 2 2 0 0 1 -.105469-.02344 2 2 0 0 1 -.105468-.02734 2 2 0 0 1 -.0918-.03125 2 2 0 0 1 -.08203-.03125 2 2 0 0 1 -.105468-.04492 2 2 0 0 1 -.07813-.03906 2 2 0 0 1 -.0918-.05078 2 2 0 0 1 -.0918-.05664 2 2 0 0 1 -.05664-.04102 2 2 0 0 1 -.101562-.07617 2 2 0 0 1 -.06836-.06055 2 2 0 0 1 -.07617-.07031 2 2 0 0 1 -.07031-.07617 2 2 0 0 1 -.06055-.06836 2 2 0 0 1 -.07617-.101562 2 2 0 0 1 -.04102-.05664 2 2 0 0 1 -.05664-.0918 2 2 0 0 1 -.05078-.0918 2 2 0 0 1 -.03906-.07813 2 2 0 0 1 -.04492-.105468 2 2 0 0 1 -.03125-.08203 2 2 0 0 1 -.03125-.0918 2 2 0 0 1 -.02734-.105468 2 2 0 0 1 -.02344-.105469 2 2 0 0 1 -.0098-.0625 2 2 0 0 1 -.01559-.140593 2 2 0 0 1 -.0078-.15625 2 2 0 0 1 .0078-.15625 2 2 0 0 1 .01563-.140625 2 2 0 0 1 .0098-.0625 2 2 0 0 1 .02344-.105469 2 2 0 0 1 .02734-.105468 2 2 0 0 1 .03125-.0918 2 2 0 0 1 .03125-.08203 2 2 0 0 1 .04492-.105468 2 2 0 0 1 .03906-.07813 2 2 0 0 1 .05078-.0918 2 2 0 0 1 .05664-.0918 2 2 0 0 1 .04102-.05664 2 2 0 0 1 .07617-.101562 2 2 0 0 1 .06055-.06836 2 2 0 0 1 .07031-.07617 2 2 0 0 1 .07617-.07031 2 2 0 0 1 .06836-.06055 2 2 0 0 1 .101562-.07617 2 2 0 0 1 .05664-.04102 2 2 0 0 1 .0918-.05664 2 2 0 0 1 .0918-.05078 2 2 0 0 1 .07813-.03906 2 2 0 0 1 .105468-.04492 2 2 0 0 1 .08203-.03125 2 2 0 0 1 .0918-.03125 2 2 0 0 1 .105468-.02734 2 2 0 0 1 .105469-.02344 2 2 0 0 1 .0625-.0098 2 2 0 0 1 .140625-.01563 2 2 0 0 1 .156178-.0078zm8 0a4 4 0 0 1 4 4 4 4 0 0 1 -4 4 4 4 0 0 1 -4-4 4 4 0 0 1 4-4z" fill="#fff"/></svg>