<svg height="48" width="48" xmlns="http://www.w3.org/2000/svg"><path d="m45 4v40.547297c0 .804798-.647905 1.452703-1.452703 1.452703h-40.0945941c-.8047974 0-1.4527029-.647905-1.4527029-1.452703v-40.547297l2.6875 4 2.6875-4 2.6875 4 2.6875-4 2.6875 4 2.6875-4 2.6875 4 2.6875-4 2.6875 4 2.6875-4 2.6875 4 2.6875-4 2.6875 4 2.6875-4 2.6875 4z" fill="#cc7055"/><path d="m45 4v40.547297c0 .804798-.647905 1.452703-1.452703 1.452703h-20.047297v-42l2.6875 4 2.6875-4 2.6875 4 2.6875-4 2.6875 4 2.6875-4 2.6875 4z" fill="#deb867"/><path d="m45 32v12.547297c0 .804798-.647905 1.452703-1.452703 1.452703h-40.0945941c-.8047974 0-1.4527029-.647905-1.4527029-1.452703v-12.672297z" fill="#8dcc55"/><g fill="#fff"><path d="m45 25v19.547297c0 .804798-.647905 1.452703-1.452703 1.452703h-40.0945941c-.8047974 0-1.4527029-.647905-1.4527029-1.452703v-19.547297z" fill-opacity=".158451"/><path d="m23.500261 15.43464c-3.239702.0016-6.316437 1.420931-8.420559 3.884332l3.415357 5.915963c.04142-.160507.09054-.318931.147179-.474722.05768-.159439.123175-.315946.196234-.468952.0015-.0038.0029-.0077.0044-.01155.06701-.138836.14019-.274605.219328-.406903.01141-.0198.02295-.03952.03463-.05916.0741-.119566.153042-.23606.236637-.349189.01945-.02761.03917-.05502.05916-.08225.08423-.109315.1728-.215214.265501-.317444.02235-.0262.04495-.05217.06782-.07792.08803-.09282.17948-.182343.274152-.268382.03559-.03418.07166-.06786.108216-.101005.08112-.06942.164366-.136301.249625-.200563.05493-.04346.11073-.08579.167377-.126981.07329-.0505.147862-.09909.223656-.145738.05448-.03651.109655-.07198.165486-.106384.02538-.01368.05087-.02715.07648-.0404.02728-.01467.05471-.0291.08225-.04329.09564-.05066.192842-.0983.291469-.14285.0804-.03622.16171-.07038.243855-.102446.07439-.02915.149439-.05657.225097-.08225.08821-.0303.177223-.0582.266942-.08369.07507-.02094.1506-.04019.226538-.05772.09228-.02179.185143-.04104.278481-.05772.0786-.01336.157502-.02491.236637-.03463.08777-.0114.175815-.02054.264053-.02742.08597-.0065.172094-.01081.258283-.01299.04528-.003.09059-.0055.135935-.0074h9.793154c-1.91681-3.632769-5.68575-5.907325-9.793203-5.910201zm-9.372101 5.19285c-1.112391 1.763056-1.70492 3.804129-1.709526 5.888777 0 6.120213 4.961414 11.081627 11.081627 11.081627 1.259074-.0041 2.508248-.22267 3.693876-.646428v-6.817787c-.03887.03717-.07831.07373-.118323.109664-.06518.0643-.132059.126841-.200562.187583-.06828.05759-.138047.113401-.209221.167377-.06237.04956-.125874.09767-.190464.14429-.07329.05049-.147863.09909-.223657.145738-.05473.03652-.110145.07199-.166224.106383-.02538.01368-.05087.02715-.07648.0404-.02728.01467-.05471.0291-.08225.04328-.09564.05066-.192842.0983-.291469.14285-.0804.03622-.16171.07038-.243855.102445-.07439.02915-.149439.05658-.225097.08225-.08821.0303-.177223.0582-.266942.08369-.07507.02094-.1506.04019-.226538.05772-.09228.02179-.185143.04104-.278481.05772-.0786.01336-.157502.02491-.236637.03463-.08777.0114-.175815.02054-.264053.02742-.08597.0065-.172094.01081-.258283.01299-.04528.003-.09059.0055-.135935.0074-.05642-.001-.112822-.003-.16918-.0059-.0404-.001-.08079-.0025-.121159-.0044-.0948-.0065-.189395-.01562-.283689-.02734-.08026-.0082-.160315-.01832-.240102-.03029-.08686-.01503-.173329-.03227-.25931-.05171-.08517-.01658-.16991-.0353-.254139-.05615-.07612-.02141-.151744-.04456-.226804-.06944-.09069-.02732-.180604-.05713-.269653-.08939-.06882-.02734-.137054-.05616-.204641-.08644-.09051-.03735-.179934-.07726-.268175-.119682-.06728-.03474-.133783-.07094-.199469-.1086-.08506-.04566-.168817-.0937-.251184-.144061-.06626-.04283-.131539-.08716-.195775-.13298-.07603-.05144-.150669-.104898-.223849-.160314-.0648-.05141-.128349-.104374-.190604-.158836-.06875-.05734-.136003-.116468-.201686-.177306-.05928-.05771-.117168-.116824-.173612-.177306-.06226-.06393-.122865-.129453-.181738-.196515-.05745-.06824-.113122-.137953-.166964-.209073-.04973-.06241-.09801-.12596-.1448-.190604-.05042-.07311-.09895-.147502-.145538-.22311-.03652-.05473-.07199-.110145-.106384-.166224l-4.893646-8.47449zm12.989144 2.194901c.03717.03887.07373.07831.109664.118323.06429.06518.126841.132059.187582.200562.05759.06828.113401.138047.167377.209221.04956.06237.09767.125874.14429.190464.0505.07329.09909.147863.145738.223657.03652.05473.07199.110145.106384.166224.01368.02538.02715.05087.0404.07648.01467.02728.0291.05471.04328.08225.05066.09564.0983.192842.14285.291469.03622.0804.07038.16171.102446.243855.02915.07439.05658.149439.08225.225097.0303.08821.0582.177223.08369.266942.02094.07507.04019.1506.05772.226538.02179.09228.04104.185143.05772.278481.01337.0786.02491.157502.03463.236637.0079.04704.01509.09418.02165.141409.0024.04086.0044.08175.0058.122652.0065.08597.01081.172094.01299.258283.003.04528.0055.09059.0074.135934v9.793204c3.632769-1.916811 5.907325-5.68575 5.910201-9.793204-.0041-1.259073-.22267-2.508247-.646429-3.693875h-6.817786z" stroke-width=".738775"/></g></svg>