<svg height="48" width="48" xmlns="http://www.w3.org/2000/svg"><path d="m46.860068 25.804781a22.996841 22.996841 0 0 1 -24.027475 21.873703 22.996841 22.996841 0 0 1 -21.9175321-23.987501 22.996841 22.996841 0 0 1 23.9474471-21.9612886 22.996841 22.996841 0 0 1 22.004972 23.9073136" fill="#71c7d7"/><g fill-rule="evenodd" transform="matrix(.10181921 0 0 .10181921 -1.82149 -1.731303)"><path d="m252.21875 33.21875c-92.31738 0-171.726889 55.205633-207.03125 134.40625 7.920389 17.45438 18.185755 34.19956 30.875 49.75 29.79273 36.51045 68.59862 61.29251 110.59375 73.8125 33.77685-82.68902 115.00312-140.96875 209.84375-140.96875 20.0707 0 39.53166 2.60145 58.0625 7.5-37.33141-73.867881-113.9231-124.5-202.34375-124.5zm-214.125 152.40625c-.420007 1.21295-.81887 2.43404-1.21875 3.65625.399463-1.22246.798213-2.43986 1.21875-3.65625zm-1.21875 3.65625c-.40202 1.22875-.806023 2.4496-1.1875 3.6875.37836-1.22823.788037-2.46504 1.1875-3.6875zm-2.28125 7.375c-.354411 1.22416-.697028 2.4549-1.03125 3.6875.336064-1.2389.674023-2.45379 1.03125-3.6875zm-1.03125 3.6875c-.337962 1.2464-.682877 2.49517-1 3.75.314872-1.24379.663936-2.5111 1-3.75zm-2.8125 11.5625c-.245996 1.14329-.490078 2.28787-.71875 3.4375.2284-1.143.472744-2.2978.71875-3.4375zm-1.4375 7.21875c-.17714.97736-.335441 1.95581-.5 2.9375.165564-.98068.321573-1.9589.5-2.9375zm449.34375 35c.0321 1.29348.0525 2.58165.0625 3.875-.009-1.29498-.0315-2.58462-.0625-3.875zm-.53125 22.5c-.0983 1.32436-.22237 2.64639-.34375 3.96875.12079-1.31863.2453-2.64301.34375-3.96875zm-15.5 67.28125c-.3624.91023-.71926 1.81262-1.09375 2.71875.37561-.90672.72953-1.80586 1.09375-2.71875zm-7.59375 16.96875c-.45678.91884-.90519 1.8365-1.375 2.75.46784-.90754.91902-1.83511 1.375-2.75zm-3.59375 6.9375c-.61465 1.13566-1.2399 2.27961-1.875 3.40625.63725-1.12805 1.25649-2.26589 1.875-3.40625zm-68.625 77.15625c-1.01631.71887-2.03792 1.42511-3.0625 2.125 1.02095-.69664 2.05336-1.41205 3.0625-2.125z" fill="#538cdf"/><path d="m45.1875 167.625c-33.629633 75.62504-24.433208 166.99318 31.46875 235.5 64.8405 79.46081 172.39314 103.49563 262.46875 66.03125 6.24529-18.12137 10.27704-37.35842 11.75-57.375 3.26386-44.35382-6.49375-86.65669-26-123.1875-87.08341 29.72832-187.22596 4.25442-248.8125-71.21875-12.689245-15.55044-22.954611-32.29562-30.875-49.75zm433.46875 86.5c.031 1.29038.0534 2.58002.0625 3.875-.01-1.29335-.0304-2.58152-.0625-3.875zm-.53125 22.5c-.0985 1.32574-.22296 2.65012-.34375 3.96875.12138-1.32236.24549-2.64439.34375-3.96875zm-15.5 67.28125c-.36422.91289-.71814 1.81203-1.09375 2.71875.37449-.90613.73135-1.80852 1.09375-2.71875zm-7.59375 16.96875c-.45598.91489-.90716 1.84246-1.375 2.75.46981-.9135.91822-1.83116 1.375-2.75zm-3.59375 6.9375c-.61851 1.14036-1.23775 2.2782-1.875 3.40625.6351-1.12664 1.26035-2.27059 1.875-3.40625zm-3.8125 6.75c-1.31156 2.23109-2.67818 4.4451-4.0625 6.625 1.39037-2.19282 2.75345-4.39333 4.0625-6.625zm-4.0625 6.625c-.69216 1.08995-1.38374 2.17313-2.09375 3.25.70979-1.07796 1.40394-2.16206 2.09375-3.25zm-4.25 6.46875c-3.6382 5.31793-7.50034 10.46606-11.5625 15.4375 4.0935-5.0076 7.95449-10.15863 11.5625-15.4375zm-11.5625 15.4375c-.81243.99429-1.64003 1.9889-2.46875 2.96875.8345-.98582 1.65343-1.97137 2.46875-2.96875zm-2.46875 2.96875c-2.48616 2.93955-5.02754 5.78764-7.65625 8.59375 2.63807-2.81243 5.18579-5.67531 7.65625-8.59375zm-7.65625 8.59375c-.87624.93537-1.76462 1.89234-2.65625 2.8125.89872-.92597 1.77613-1.87421 2.65625-2.8125zm-2.65625 2.8125c-.89163.92016-1.7807 1.814-2.6875 2.71875.9037-.90031 1.80184-1.80624 2.6875-2.71875zm-11.1875 10.78125c-.90779.81718-1.82923 1.6038-2.75 2.40625.91932-.8004 1.84662-1.59412 2.75-2.40625zm-2.75 2.40625c-.96523.84119-1.92697 1.67518-2.90625 2.5.97937-.82445 1.9443-1.66248 2.90625-2.5zm-18.21875 14.3125c-1.00914.71295-2.04155 1.42836-3.0625 2.125 1.02458-.69989 2.04619-1.40613 3.0625-2.125zm-12.90625 8.5c-2.06861 1.26035-4.13972 2.49268-6.25 3.6875 2.10283-1.19151 4.17541-2.42223 6.25-3.6875zm-6.5625 3.875c-1.08671.61298-2.18384 1.1859-3.28125 1.78125 1.09181-.59272 2.19657-1.16897 3.28125-1.78125zm-3.28125 1.78125c-1.1304.61325-2.26471 1.21814-3.40625 1.8125 1.13498-.59132 2.27862-1.20033 3.40625-1.8125zm-6.875 3.59375c-1.15246.57528-2.3056 1.13149-3.46875 1.6875 1.15981-.55435 2.31589-1.11197 3.46875-1.6875zm-3.46875 1.6875c-1.16315.55601-2.32638 1.08846-3.5 1.625 1.1708-.53508 2.33593-1.06861 3.5-1.625z" fill="#7ba1db"/><path d="m55.90625 146.625c-.555933.96227-1.114024 1.93481-1.65625 2.90625.540984-.96928 1.10151-1.94581 1.65625-2.90625zm340.59375 3.59375c-56.55187 0-108.27154 20.73776-147.96875 55 66.86748 43.61442 108.61716 121.31077 102.34375 206.5625-1.47296 20.01658-5.50471 39.25363-11.75 57.375 14.32657-5.96432 27.91857-13.39232 40.625-22.0625 1.02458-.69989 2.04619-1.40613 3.0625-2.125 27.24965-19.25151 50.15857-44.38032 66.75-73.75.6351-1.12664 1.26035-2.27059 1.875-3.40625.75104-1.38473 1.49572-2.78494 2.21875-4.1875.46981-.9135.91822-1.83116 1.375-2.75 2.32135-4.65763 4.49475-9.4093 6.5-14.25.37449-.90613.73135-1.80852 1.09375-2.71875 7.89969-19.79999 13.11659-41.04611 15.15625-63.3125.12138-1.32236.24549-2.64439.34375-3.96875.004-.0518-.004-.10442 0-.15625.45621-6.19965.6366-12.35925.59375-18.46875-.01-1.29335-.0304-2.58152-.0625-3.875-.82814-34.44372-9.44198-67.1926-24.25-96.4375-18.48497-4.87247-37.89075-7.46875-57.90625-7.46875zm-365.75 61.6875c-.246006 1.1397-.49035 2.2945-.71875 3.4375.228672-1.14963.472754-2.29421.71875-3.4375zm-1.4375 7.21875c-.178427.9786-.334436 1.95682-.5 2.9375.164559-.98169.32286-1.96014.5-2.9375z" fill="#638fd2"/></g><circle cx="23.854012" cy="24.724773" fill="#fcfcfc" r="10.026072"/></svg>