<svg height="48" width="48" xmlns="http://www.w3.org/2000/svg"><circle cx="23.940615" cy="31.534513" fill="#eab379" opacity=".99" r="13.232998" transform="matrix(1.75830584759 0 0 1.75830608345 -18.15909274367 -30.97874795549)"/><path d="m16.025642 8.305948-4.816211 3.241971-2.3555377 5.306386 13.6999697 5.23913a2.5606517 2.5606517 0 0 1 .522108-.872677 2.5606517 2.5606517 0 0 1 .45672-.390325zm24.735949 20.752528-13.430698-5.136417a2.5606517 2.5606517 0 0 1 -.474366.753184l-.01311.01322a2.5606517 2.5606517 0 0 1 -.68339.523292l7.429824 12.395069 4.816213-3.241973zm-18.284436-6.712323-14.1935327-3.714417-1.173553 5.686095 2.0291326 5.438581 13.4545821-5.84014a2.5606517 2.5606517 0 0 1 -.116629-1.570119zm3.405106 2.992068a2.5606517 2.5606517 0 0 1 -1.676493.05566l-3.489213 14.144159 5.70102 1.093171 5.409912-2.105693zm-3.151543-1.137423-12.572329 7.537598 3.240787 4.815217 5.306385 2.355536 5.210554-13.624985a2.5606517 2.5606517 0 0 1 -.687299-.449385 2.5606517 2.5606517 0 0 1 -.498098-.633981z" fill="#fff" fill-rule="evenodd"/></svg>