<?xml version="1.0" encoding="UTF-8" standalone="no"?>
<svg
   xmlns:dc="http://purl.org/dc/elements/1.1/"
   xmlns:cc="http://creativecommons.org/ns#"
   xmlns:rdf="http://www.w3.org/1999/02/22-rdf-syntax-ns#"
   xmlns:svg="http://www.w3.org/2000/svg"
   xmlns="http://www.w3.org/2000/svg"
   xmlns:sodipodi="http://sodipodi.sourceforge.net/DTD/sodipodi-0.dtd"
   xmlns:inkscape="http://www.inkscape.org/namespaces/inkscape"
   height="48"
   width="48"
   version="1.1"
   id="svg12"
   sodipodi:docname="jetbrains-clion.svg"
   inkscape:version="1.0.2 (e86c870879, 2021-01-15)">
  <metadata
     id="metadata18">
    <rdf:RDF>
      <cc:Work
         rdf:about="">
        <dc:format>image/svg+xml</dc:format>
        <dc:type
           rdf:resource="http://purl.org/dc/dcmitype/StillImage" />
        <dc:title></dc:title>
      </cc:Work>
    </rdf:RDF>
  </metadata>
  <defs
     id="defs16" />
  <sodipodi:namedview
     pagecolor="#ffffff"
     bordercolor="#666666"
     borderopacity="1"
     objecttolerance="10"
     gridtolerance="10"
     guidetolerance="10"
     inkscape:pageopacity="0"
     inkscape:pageshadow="2"
     inkscape:window-width="1920"
     inkscape:window-height="1031"
     id="namedview14"
     showgrid="true"
     inkscape:zoom="13.906433"
     inkscape:cx="33.56165"
     inkscape:cy="16.549755"
     inkscape:window-x="0"
     inkscape:window-y="24"
     inkscape:window-maximized="1"
     inkscape:current-layer="svg12"
     inkscape:document-rotation="0">
    <inkscape:grid
       type="xygrid"
       id="grid828" />
  </sodipodi:namedview>
  <rect
     fill="#47b472"
     height="43"
     ry="1.452703"
     width="43"
     x="2"
     y="3"
     id="rect2"
     style="fill:#79a6b4;fill-opacity:1" />
  <path
     d="m23.5 3h20.047297c.804798 0 1.452703.6479055 1.452703 1.4527029v20.0472971h-21.5z"
     fill="#6da1c8"
     id="path4"
     style="fill:#6db3c8;fill-opacity:1" />
  <path
     d="m45 24.5v20.047297c0 .804798-.647905 1.452703-1.452703 1.452703h-40.0945941c-.8047974 0-1.4527029-.647905-1.4527029-1.452703v-20.047297z"
     fill="#6dc8bd"
     id="path6"
     style="fill:#8bc7dc;fill-opacity:1" />
  <path
     d="m45 24.5v20.047297c0 .804798-.647905 1.452703-1.452703 1.452703h-20.047297v-21.5z"
     fill="#d5bf56"
     id="path8"
     style="fill:#8fd4ec;fill-opacity:1" />
  <path
     id="path10"
     style="fill:#ffffff"
     d="M 9 10 L 9 39 L 38 39 L 38 10 L 9 10 z M 18.470703 17.132812 L 18.470703 17.134766 C 20.908306 17.134766 22.195318 17.918887 23.414062 19.267578 L 21.857422 21.333984 C 20.853716 20.302625 19.761129 19.769531 18.470703 19.769531 C 16.331472 19.769531 14.913338 21.825481 14.898438 24.267578 C 14.913586 26.711495 16.260833 28.998047 18.470703 28.998047 C 19.904561 28.998047 21.041253 28.177841 22.044922 27.146484 L 23.677734 28.988281 C 22.387577 30.574977 20.90819 31.634766 18.470703 31.634766 C 14.670915 31.713704 12.515625 28.352708 12.515625 24.306641 C 12.515625 20.260365 14.527749 17.132812 18.470703 17.132812 z M 25.617188 17.136719 L 28 17.136719 L 28 29 L 33.955078 29 L 33.955078 31.636719 L 25.617188 31.636719 L 25.617188 17.136719 z " />
  <g
     aria-label="IJ"
     style="font-style:normal;font-variant:normal;font-weight:bold;font-stretch:condensed;font-size:26.59427071px;line-height:1.25;font-family:'Roboto Condensed';-inkscape-font-specification:'Roboto Condensed,  Bold Condensed';letter-spacing:0px;word-spacing:0px;fill:#000000;fill-opacity:1;stroke:none;stroke-width:0.66485679"
     id="text832" />
  <g
     aria-label="DG"
     transform="scale(0.80125772,1.2480379)"
     id="text838"
     style="font-style:normal;font-variant:normal;font-weight:bold;font-stretch:normal;font-size:16.9032px;line-height:1.25;font-family:'DejaVu Sans';-inkscape-font-specification:'DejaVu Sans Bold';fill:#000000;fill-opacity:1;stroke:none;stroke-width:0.42258" />
</svg>
