<?xml version="1.0" encoding="UTF-8" standalone="no"?>
<svg
   xmlns:dc="http://purl.org/dc/elements/1.1/"
   xmlns:cc="http://creativecommons.org/ns#"
   xmlns:rdf="http://www.w3.org/1999/02/22-rdf-syntax-ns#"
   xmlns:svg="http://www.w3.org/2000/svg"
   xmlns="http://www.w3.org/2000/svg"
   xmlns:sodipodi="http://sodipodi.sourceforge.net/DTD/sodipodi-0.dtd"
   xmlns:inkscape="http://www.inkscape.org/namespaces/inkscape"
   height="48"
   width="48"
   version="1.1"
   id="svg10"
   sodipodi:docname="com.github.bleakgrey.transporter.svg"
   inkscape:version="1.0.2 (e86c870879, 2021-01-15)">
  <metadata
     id="metadata16">
    <rdf:RDF>
      <cc:Work
         rdf:about="">
        <dc:format>image/svg+xml</dc:format>
        <dc:type
           rdf:resource="http://purl.org/dc/dcmitype/StillImage" />
        <dc:title></dc:title>
      </cc:Work>
    </rdf:RDF>
  </metadata>
  <defs
     id="defs14" />
  <sodipodi:namedview
     pagecolor="#ffffff"
     bordercolor="#666666"
     borderopacity="1"
     objecttolerance="10"
     gridtolerance="10"
     guidetolerance="10"
     inkscape:pageopacity="0"
     inkscape:pageshadow="2"
     inkscape:window-width="1920"
     inkscape:window-height="1031"
     id="namedview12"
     showgrid="false"
     inkscape:zoom="2.8357928"
     inkscape:cx="-116.25505"
     inkscape:cy="0.45567889"
     inkscape:window-x="0"
     inkscape:window-y="24"
     inkscape:window-maximized="1"
     inkscape:current-layer="svg10"
     inkscape:document-rotation="0" />
  <path
     d="m44.322082 27.405077a19.729762 19.729765 0 0 1 -19.729762 19.729765 19.729762 19.729765 0 0 1 -19.7297621-19.729765 19.729762 19.729765 0 0 1 19.7297621-19.7297632 19.729762 19.729765 0 0 1 19.729762 19.7297632z"
     fill="#73517c"
     opacity=".99"
     transform="matrix(1.1503549 0 0 1.1503549 -4.486125 -7.525565)"
     id="path2"
     style="fill:#6ba3cc;fill-opacity:1" />
  <path
     inkscape:connector-curvature="0"
     d="m 34.153301,13.91847 c 0,-2.685946 -1.066982,-5.2618303 -2.966228,-7.1610768 -1.899246,-1.899247 -4.475132,-2.9662323 -7.161083,-2.9662323 -2.57e-4,0 -5.07e-4,0 -6.35e-4,0 -2.685953,0 -5.261837,1.0669853 -7.161084,2.9662323 -1.899246,1.8992465 -2.966225,4.4751308 -2.966225,7.1610768 0,8.635943 0,19.662188 0,19.662188 H 34.153301 Z M 31.226875,30.654234 V 13.91847 c 0,-1.90987 -0.758674,-3.741409 -2.109136,-5.0918753 -1.350334,-1.3504595 -3.182006,-2.1090085 -5.091749,-2.1090085 -2.57e-4,0 -5.07e-4,0 -6.35e-4,0 -1.90987,0 -3.741416,0.758549 -5.091876,2.1090085 C 17.58302,10.177061 16.824342,12.0086 16.824342,13.91847 v 16.735764 z"
     style="clip-rule:evenodd;fill:#ffffff;fill-rule:evenodd;stroke-width:0.127982;stroke-linecap:round;stroke-linejoin:round;stroke-miterlimit:1.5;fill-opacity:0.69869405"
     id="path11" />
  <path
     inkscape:connector-curvature="0"
     d="m 3.7703516,23.827825 c 0,10.778992 9.0760664,19.530116 20.2552604,19.530116 11.179186,0 20.255383,-8.751124 20.255383,-19.530116 -6.743349,-0.01358 -13.498088,-0.02445 -20.255383,-0.02445 -6.757303,0 -13.511911,0.01087 -20.2552604,0.02445 z"
     style="clip-rule:evenodd;fill:#bfd7e9;fill-rule:evenodd;stroke-width:0.127982;stroke-linecap:round;stroke-linejoin:round;stroke-miterlimit:1.5;fill-opacity:0.9921568"
     id="path19" />
  <rect
     style="fill:#6ba3cc;fill-opacity:0.992157;stroke-width:1.88976;stroke-linecap:round;stroke-linejoin:round;paint-order:stroke markers fill"
     id="rect885"
     width="10.228012"
     height="3.0895965"
     x="18.689764"
     y="29.659004" />
  <path
     style="color:#000000;font-style:normal;font-variant:normal;font-weight:normal;font-stretch:normal;font-size:medium;line-height:normal;font-family:sans-serif;font-variant-ligatures:normal;font-variant-position:normal;font-variant-caps:normal;font-variant-numeric:normal;font-variant-alternates:normal;font-variant-east-asian:normal;font-feature-settings:normal;font-variation-settings:normal;text-indent:0;text-align:start;text-decoration:none;text-decoration-line:none;text-decoration-style:solid;text-decoration-color:#000000;letter-spacing:normal;word-spacing:normal;text-transform:none;writing-mode:lr-tb;direction:ltr;text-orientation:mixed;dominant-baseline:auto;baseline-shift:baseline;text-anchor:start;white-space:normal;shape-padding:0;shape-margin:0;inline-size:0;clip-rule:nonzero;display:inline;overflow:visible;visibility:visible;isolation:auto;mix-blend-mode:normal;color-interpolation:sRGB;color-interpolation-filters:linearRGB;solid-color:#000000;solid-opacity:1;vector-effect:none;fill:#6ba3cc;fill-opacity:0.992157;fill-rule:nonzero;stroke:none;stroke-linecap:square;stroke-linejoin:round;stroke-miterlimit:4;stroke-dasharray:none;stroke-dashoffset:0;stroke-opacity:1;color-rendering:auto;image-rendering:auto;shape-rendering:auto;text-rendering:auto;enable-background:accumulate;stop-color:#000000"
     d="m 10.398315,10.65296 a 2.0002,2.0002 0 0 0 -1.8613291,2.517578 l 4.1953131,15.650391 a 2.0002,2.0002 0 0 0 3.345703,0.896484 l 2.121094,-2.121094 2.667969,2.667969 -2.121094,2.121094 a 2.0002,2.0002 0 0 0 0.896484,3.347656 l 15.652344,4.19336 a 2.0002,2.0002 0 0 0 2.449219,-2.449219 L 33.548705,21.824835 a 2.0002,2.0002 0 0 0 -3.345703,-0.896484 l -2.121094,2.121093 -2.667969,-2.667968 2.121094,-2.121094 A 2.0002,2.0002 0 0 0 26.638549,14.914679 L 10.986205,10.719366 a 2.0002,2.0002 0 0 0 -0.58789,-0.06641 z m 2.90039,4.828125 8.958984,2.400391 -1.085937,1.085937 a 2.0002,2.0002 0 0 0 0,2.828125 l 5.496094,5.498047 a 2.0002,2.0002 0 0 0 2.828125,0 l 1.085937,-1.087891 2.402344,8.960938 -8.960937,-2.402344 1.085937,-1.085937 a 2.0002,2.0002 0 0 0 0,-2.828125 l -5.496094,-5.496094 a 2.0002,2.0002 0 0 0 -2.828125,0 l -1.085937,1.085937 z"
     id="path859" />
  <path
     style="color:#000000;font-style:normal;font-variant:normal;font-weight:normal;font-stretch:normal;font-size:medium;line-height:normal;font-family:sans-serif;font-variant-ligatures:normal;font-variant-position:normal;font-variant-caps:normal;font-variant-numeric:normal;font-variant-alternates:normal;font-variant-east-asian:normal;font-feature-settings:normal;font-variation-settings:normal;text-indent:0;text-align:start;text-decoration:none;text-decoration-line:none;text-decoration-style:solid;text-decoration-color:#000000;letter-spacing:normal;word-spacing:normal;text-transform:none;writing-mode:lr-tb;direction:ltr;text-orientation:mixed;dominant-baseline:auto;baseline-shift:baseline;text-anchor:start;white-space:normal;shape-padding:0;shape-margin:0;inline-size:0;clip-rule:nonzero;display:inline;overflow:visible;visibility:visible;isolation:auto;mix-blend-mode:normal;color-interpolation:sRGB;color-interpolation-filters:linearRGB;solid-color:#000000;solid-opacity:1;vector-effect:none;fill:#fbfbfb;fill-opacity:1;fill-rule:nonzero;stroke:none;stroke-width:4;stroke-linecap:square;stroke-linejoin:round;stroke-miterlimit:4;stroke-dasharray:none;stroke-dashoffset:0;stroke-opacity:1;color-rendering:auto;image-rendering:auto;shape-rendering:auto;text-rendering:auto;enable-background:accumulate;stop-color:#000000"
     d="m 10.469474,12.652039 4.194304,15.651642 3.535534,-3.535533 5.49665,5.49665 -3.535533,3.535534 15.651642,4.194304 -4.194304,-15.651643 -3.535534,3.535534 -5.49665,-5.49665 3.535534,-3.535534 z"
     id="path857" />
</svg>
