<?xml version="1.0" encoding="UTF-8" standalone="no"?>
<!-- Created with Inkscape (http://www.inkscape.org/) -->

<svg
   xmlns:dc="http://purl.org/dc/elements/1.1/"
   xmlns:cc="http://creativecommons.org/ns#"
   xmlns:rdf="http://www.w3.org/1999/02/22-rdf-syntax-ns#"
   xmlns:svg="http://www.w3.org/2000/svg"
   xmlns="http://www.w3.org/2000/svg"
   xmlns:sodipodi="http://sodipodi.sourceforge.net/DTD/sodipodi-0.dtd"
   xmlns:inkscape="http://www.inkscape.org/namespaces/inkscape"
   width="48"
   height="48"
   viewBox="0 0 12.7 12.7"
   version="1.1"
   id="svg5184"
   inkscape:version="0.92.3 (2405546, 2018-03-11)"
   sodipodi:docname="com.github.lainsce.dot-matrix.svg">
  <defs
     id="defs5178" />
  <sodipodi:namedview
     id="base"
     pagecolor="#ffffff"
     bordercolor="#666666"
     borderopacity="1.0"
     inkscape:pageopacity="0.0"
     inkscape:pageshadow="2"
     inkscape:zoom="5.656854"
     inkscape:cx="3.5915674"
     inkscape:cy="21.636246"
     inkscape:document-units="mm"
     inkscape:current-layer="layer1"
     showgrid="true"
     units="px"
     inkscape:measure-start="45,1"
     inkscape:measure-end="30,1"
     inkscape:window-width="1920"
     inkscape:window-height="1017"
     inkscape:window-x="0"
     inkscape:window-y="30"
     inkscape:window-maximized="1">
    <inkscape:grid
       type="xygrid"
       id="grid5729" />
  </sodipodi:namedview>
  <metadata
     id="metadata5181">
    <rdf:RDF>
      <cc:Work
         rdf:about="">
        <dc:format>image/svg+xml</dc:format>
        <dc:type
           rdf:resource="http://purl.org/dc/dcmitype/StillImage" />
        <dc:title></dc:title>
      </cc:Work>
    </rdf:RDF>
  </metadata>
  <g
     inkscape:label="Capa 1"
     inkscape:groupmode="layer"
     id="layer1"
     transform="translate(0,-284.29998)">
    <rect
       style="opacity:1;fill:#5f789d;fill-opacity:1;stroke:none;stroke-width:1;stroke-miterlimit:4;stroke-dasharray:none;stroke-opacity:1"
       id="rect5731"
       width="11.377084"
       height="11.641677"
       x="0.52916664"
       y="285.09372"
       rx="0.52916902"
       ry="0.52916902" />
    <path
       style="opacity:1;fill:#91a2bc;fill-opacity:1;stroke:none;stroke-width:3.77952766;stroke-miterlimit:4;stroke-dasharray:none;stroke-opacity:1"
       d="M 4 3 C 2.8919949 3 2 3.8919937 2 5 L 2 45 C 2 46.108006 2.8919949 47 4 47 L 30 47 L 45 32 L 45 5 C 45 3.8919937 44.108006 3 43 3 L 4 3 z "
       transform="matrix(0.26458333,0,0,0.26458333,0,284.29998)"
       id="rect5739" />
    <g
       aria-label="12"
       style="font-style:normal;font-variant:normal;font-weight:bold;font-stretch:normal;font-size:4.32067966px;line-height:1.25;font-family:'Roboto Condensed';-inkscape-font-specification:'Roboto Condensed, Bold';letter-spacing:0px;word-spacing:0px;fill:#cf9c7e;fill-opacity:1;stroke:none;stroke-width:0.10801698"
       id="text840" />
    <path
       style="opacity:1;fill:#ffffff;fill-opacity:0.6111111;stroke:none;stroke-width:1.99999988;stroke-linecap:butt;stroke-linejoin:round;stroke-miterlimit:4;stroke-dasharray:none;stroke-opacity:1"
       d="M 8.6503906 9 A 2.4999999 2.4999999 0 0 0 6.1503906 11.5 A 2.4999999 2.4999999 0 0 0 8.6503906 14 A 2.4999999 2.4999999 0 0 0 11.150391 11.5 A 2.4999999 2.4999999 0 0 0 8.6503906 9 z M 23.5 9 A 2.4999999 2.4999999 0 0 0 21 11.5 A 2.4999999 2.4999999 0 0 0 23.5 14 A 2.4999999 2.4999999 0 0 0 26 11.5 A 2.4999999 2.4999999 0 0 0 23.5 9 z M 38.349609 9 A 2.4999999 2.4999999 0 0 0 35.849609 11.5 A 2.4999999 2.4999999 0 0 0 38.349609 14 A 2.4999999 2.4999999 0 0 0 40.849609 11.5 A 2.4999999 2.4999999 0 0 0 38.349609 9 z M 8.6503906 22.5 A 2.4999999 2.4999999 0 0 0 6.1503906 25 A 2.4999999 2.4999999 0 0 0 8.6503906 27.5 A 2.4999999 2.4999999 0 0 0 11.150391 25 A 2.4999999 2.4999999 0 0 0 8.6503906 22.5 z M 23.5 22.5 A 2.4999999 2.4999999 0 0 0 21 25 A 2.4999999 2.4999999 0 0 0 23.5 27.5 A 2.4999999 2.4999999 0 0 0 26 25 A 2.4999999 2.4999999 0 0 0 23.5 22.5 z M 38.349609 22.5 A 2.4999999 2.4999999 0 0 0 35.849609 25 A 2.4999999 2.4999999 0 0 0 38.349609 27.5 A 2.4999999 2.4999999 0 0 0 40.849609 25 A 2.4999999 2.4999999 0 0 0 38.349609 22.5 z M 8.6503906 36 A 2.4999999 2.4999999 0 0 0 6.1503906 38.5 A 2.4999999 2.4999999 0 0 0 8.6503906 41 A 2.4999999 2.4999999 0 0 0 11.150391 38.5 A 2.4999999 2.4999999 0 0 0 8.6503906 36 z M 23.5 36 A 2.4999999 2.4999999 0 0 0 21 38.5 A 2.4999999 2.4999999 0 0 0 23.5 41 A 2.4999999 2.4999999 0 0 0 26 38.5 A 2.4999999 2.4999999 0 0 0 23.5 36 z M 38.349609 36 A 2.4999999 2.4999999 0 0 0 35.849609 38.5 A 2.4999999 2.4999999 0 0 0 36.660156 40.339844 L 40.189453 36.810547 A 2.4999999 2.4999999 0 0 0 38.349609 36 z "
       transform="matrix(0.26458333,0,0,0.26458333,0,284.29998)"
       id="path821" />
    <path
       id="path838"
       transform="matrix(0.26458333,0,0,0.26458333,0,284.29998)"
       d="m 23.5,9 c -1.380712,-10e-8 -2.5,1.119288 -2.5,2.5 0,1.380712 1.119288,2.5 2.5,2.5 C 24.880712,14 26,12.880712 26,11.5 26,10.119288 24.880712,8.9999999 23.5,9 Z m 14.849609,13.5 c -1.380712,0 -2.5,1.119288 -2.5,2.5 0,1.380712 1.119288,2.5 2.5,2.5 1.380712,0 2.5,-1.119288 2.5,-2.5 0,-1.380712 -1.119288,-2.5 -2.5,-2.5 z M 8.6503906,36 c -1.3807119,0 -2.5000001,1.119288 -2.5,2.5 -10e-8,1.380712 1.1192881,2.5 2.5,2.5 1.3807124,0 2.5000004,-1.119288 2.5000004,-2.5 0,-1.380712 -1.119288,-2.5 -2.5000004,-2.5 z m 29.6992184,0 c -1.380712,0 -2.5,1.119288 -2.5,2.5 8.15e-4,0.699686 0.294806,1.36701 0.810547,1.839844 l 3.529297,-3.529297 C 39.716619,36.294806 39.049295,36.000815 38.349609,36 Z"
       style="opacity:1;fill:#ffffff;fill-opacity:0.98888886;stroke:none;stroke-width:1.99999988;stroke-linecap:butt;stroke-linejoin:round;stroke-miterlimit:4;stroke-dasharray:none;stroke-opacity:1"
       inkscape:connector-curvature="0"
       sodipodi:nodetypes="sssssssssssssssccccc" />
  </g>
</svg>
