<?xml version="1.0" encoding="UTF-8" standalone="no"?>
<svg
   xmlns:dc="http://purl.org/dc/elements/1.1/"
   xmlns:cc="http://creativecommons.org/ns#"
   xmlns:rdf="http://www.w3.org/1999/02/22-rdf-syntax-ns#"
   xmlns:svg="http://www.w3.org/2000/svg"
   xmlns="http://www.w3.org/2000/svg"
   xmlns:sodipodi="http://sodipodi.sourceforge.net/DTD/sodipodi-0.dtd"
   xmlns:inkscape="http://www.inkscape.org/namespaces/inkscape"
   width="128px"
   height="128px"
   viewBox="0 0 128 128"
   version="1.1"
   id="svg58"
   sodipodi:docname="com.github.appadeia.Taigo3.svg"
   inkscape:version="0.92.4 5da689c313, 2019-01-14">
  <metadata
     id="metadata62">
    <rdf:RDF>
      <cc:Work
         rdf:about="">
        <dc:format>image/svg+xml</dc:format>
        <dc:type
           rdf:resource="http://purl.org/dc/dcmitype/StillImage" />
        <dc:title />
      </cc:Work>
    </rdf:RDF>
  </metadata>
  <sodipodi:namedview
     pagecolor="#ffffff"
     bordercolor="#666666"
     borderopacity="1"
     objecttolerance="10"
     gridtolerance="10"
     guidetolerance="10"
     inkscape:pageopacity="0"
     inkscape:pageshadow="2"
     inkscape:window-width="1850"
     inkscape:window-height="1048"
     id="namedview60"
     showgrid="false"
     inkscape:zoom="0.92187502"
     inkscape:cx="-309.33908"
     inkscape:cy="120.27103"
     inkscape:window-x="70"
     inkscape:window-y="32"
     inkscape:window-maximized="1"
     inkscape:current-layer="surface3304" />
  <defs
     id="defs27">
    <radialGradient
       id="radial0"
       gradientUnits="userSpaceOnUse"
       cx="64"
       cy="213.25"
       fx="64"
       fy="213.25"
       r="45.5"
       gradientTransform="matrix(1,0,0,1.230769,0,-226.461536)">
      <stop
         offset="0"
         style="stop-color:rgb(75.294119%,38.039216%,79.607844%);stop-opacity:1;"
         id="stop2" />
      <stop
         offset="1"
         style="stop-color:rgb(63.921571%,27.843139%,72.941178%);stop-opacity:1;"
         id="stop4" />
    </radialGradient>
    <radialGradient
       id="radial1"
       gradientUnits="userSpaceOnUse"
       cx="64"
       cy="198"
       fx="64"
       fy="198"
       r="28"
       gradientTransform="matrix(-1,0,0,-1.571429,128,355.142883)">
      <stop
         offset="0"
         style="stop-color:rgb(23.921569%,21.960784%,27.450982%);stop-opacity:1;"
         id="stop7" />
      <stop
         offset="1"
         style="stop-color:rgb(0%,0%,0%);stop-opacity:0.986425;"
         id="stop9" />
    </radialGradient>
    <radialGradient
       id="radial2"
       gradientUnits="userSpaceOnUse"
       cx="46"
       cy="282"
       fx="46"
       fy="282"
       r="6"
       gradientTransform="matrix(1,0,0,1.666667,20.92851,-289.43314)">
      <stop
         offset="0"
         style="stop-color:rgb(100%,100%,100%);stop-opacity:1;"
         id="stop12" />
      <stop
         offset="1"
         style="stop-color:rgb(87.058824%,86.666667%,85.490197%);stop-opacity:0.980392;"
         id="stop14" />
    </radialGradient>
    <radialGradient
       id="radial3"
       gradientUnits="userSpaceOnUse"
       cx="64"
       cy="286"
       fx="64"
       fy="286"
       r="6"
       gradientTransform="matrix(1,0,0,1.666667,0,-362.666672)">
      <stop
         offset="0"
         style="stop-color:rgb(100%,100%,100%);stop-opacity:1;"
         id="stop17" />
      <stop
         offset="1"
         style="stop-color:rgb(87.058824%,86.666667%,85.490197%);stop-opacity:0.980392;"
         id="stop19" />
    </radialGradient>
    <radialGradient
       id="radial4"
       gradientUnits="userSpaceOnUse"
       cx="82"
       cy="282"
       fx="82"
       fy="282"
       r="6"
       gradientTransform="matrix(1,0,0,1.666667,4,-360)">
      <stop
         offset="0"
         style="stop-color:rgb(100%,100%,100%);stop-opacity:1;"
         id="stop22" />
      <stop
         offset="1"
         style="stop-color:rgb(87.058824%,86.666667%,85.490197%);stop-opacity:0.980392;"
         id="stop24" />
    </radialGradient>
  </defs>
  <g
     id="surface3304">
    <path
       style="stroke:none;fill-rule:nonzero;fill:#c7acc7;fill-opacity:1"
       d="M 116 76 C 116 104.71875 92.71875 128 64 128 C 35.28125 128 12 104.71875 12 76 C 12 36 35.28125 0 64 0 C 92.71875 0 116 36 116 76 Z M 116 76 "
       id="path29" />
    <path
       style="stroke:none;fill-rule:nonzero;fill:#b27dba;fill-opacity:1"
       d="M 109.5 74.5 C 109.5 99.628906 89.128906 120 64 120 C 38.871094 120 18.5 99.628906 18.5 74.5 C 18.5 39.5 38.871094 8 64 8 C 89.128906 8 109.5 39.5 109.5 74.5 Z M 109.5 74.5 "
       id="path31" />
    <path
       style="stroke:none;fill-rule:nonzero;fill:#905790;fill-opacity:1"
       d="M 40 32 L 88 32 C 90.210938 32 92 33.789062 92 36 L 92 84 C 92 86.210938 90.210938 88 88 88 L 40 88 C 37.789062 88 36 86.210938 36 84 L 36 36 C 36 33.789062 37.789062 32 40 32 Z M 40 32 "
       id="path33" />
    <path
       style="stroke:none;fill-rule:nonzero;fill:#c7acc7;fill-opacity:1"
       d="M 32 102.25 C 15.59375 111.289062 47.796875 121.234375 55.375 122.75 C 65.367188 124.75 84.726562 123.023438 92 115.75 C 93.011719 114.738281 102.054688 104.902344 98.75 103.25 C 89.035156 98.390625 44.820312 102.25 32 102.25 Z M 32 102.25 "
       id="path35" />
    <path
       style="stroke:none;fill-rule:nonzero;fill:#955e9d;fill-opacity:1"
       d="M 42 105 C 39.074219 105.003906 36.578125 107.117188 36.089844 110 L 36 110 L 36 111 C 36 114.3125 38.6875 117 42 117 C 45.3125 117 48 114.3125 48 111 L 48 110 L 47.914062 110 C 47.425781 107.113281 44.925781 105 42 105 Z M 42 105 "
       id="path37" />
    <path
       style="stroke:none;fill-rule:nonzero;fill:#c7acc7;fill-opacity:1"
       d="M 20 104.0625 L 42 96.0625 L 64 104.0625 "
       id="path39" />
    <path
       style="stroke:none;fill-rule:nonzero;fill:#955e9d;fill-opacity:1"
       d="M 64 109 C 61.074219 109.003906 58.578125 111.117188 58.089844 114 L 58 114 L 58 115 C 58 118.3125 60.6875 121 64 121 C 67.3125 121 70 118.3125 70 115 L 70 114 L 69.914062 114 C 69.425781 111.113281 66.925781 109 64 109 Z M 64 109 "
       id="path43" />
    <path
       style="stroke:none;fill-rule:nonzero;fill:#955e9d;fill-opacity:1"
       d="M 86 105 C 83.074219 105.003906 80.578125 107.117188 80.089844 110 L 80 110 L 80 111 C 80 114.3125 82.6875 117 86 117 C 89.3125 117 92 114.3125 92 111 L 92 110 L 91.914062 110 C 91.425781 107.113281 88.925781 105 86 105 Z M 86 105 "
       id="path47" />
    <path
       style="stroke:none;fill-rule:nonzero;fill:#c7acc7;fill-opacity:1"
       d="M 42 104 L 64 96 L 86 104 "
       id="path51" />
    <path
       style="stroke:none;fill-rule:nonzero;fill:#c7acc7;fill-opacity:1"
       d="M 64 104 L 86 96 L 108 104 "
       id="path53" />
  </g>
</svg>
