<?xml version="1.0" encoding="UTF-8" standalone="no"?>
<svg
   xmlns:dc="http://purl.org/dc/elements/1.1/"
   xmlns:cc="http://creativecommons.org/ns#"
   xmlns:rdf="http://www.w3.org/1999/02/22-rdf-syntax-ns#"
   xmlns:svg="http://www.w3.org/2000/svg"
   xmlns="http://www.w3.org/2000/svg"
   xmlns:sodipodi="http://sodipodi.sourceforge.net/DTD/sodipodi-0.dtd"
   xmlns:inkscape="http://www.inkscape.org/namespaces/inkscape"
   height="48"
   width="48"
   version="1.1"
   id="svg14"
   sodipodi:docname="com.github.peteruithoven.resizer.svg"
   inkscape:version="0.92.3 (2405546, 2018-03-11)">
  <metadata
     id="metadata20">
    <rdf:RDF>
      <cc:Work
         rdf:about="">
        <dc:format>image/svg+xml</dc:format>
        <dc:type
           rdf:resource="http://purl.org/dc/dcmitype/StillImage" />
        <dc:title />
      </cc:Work>
    </rdf:RDF>
  </metadata>
  <defs
     id="defs18" />
  <sodipodi:namedview
     pagecolor="#ffffff"
     bordercolor="#666666"
     borderopacity="1"
     objecttolerance="10"
     gridtolerance="10"
     guidetolerance="10"
     inkscape:pageopacity="0"
     inkscape:pageshadow="2"
     inkscape:window-width="1920"
     inkscape:window-height="1017"
     id="namedview16"
     showgrid="false"
     inkscape:zoom="6.9532166"
     inkscape:cx="49.143533"
     inkscape:cy="26.444912"
     inkscape:window-x="0"
     inkscape:window-y="30"
     inkscape:window-maximized="1"
     inkscape:current-layer="svg14" />
  <rect
     fill="#5f636c"
     height="43"
     ry="1.452703"
     width="43"
     x="2"
     y="3"
     id="rect2"
     style="fill:#757f85;fill-opacity:1" />
  <path
     d="m5 6h37v33h-37z"
     fill="#fdf0ec"
     fill-rule="evenodd"
     id="path4"
     style="fill:#a4dbff;fill-opacity:1" />
  <path
     d="m30 15.999999a7 7 0 0 1 -7.313714 6.658128 7 7 0 0 1 -6.67147-7.301547 7 7 0 0 1 7.289355-6.684788 7 7 0 0 1 6.698085 7.277138"
     fill="#ec6749"
     fill-opacity=".850365"
     id="path6"
     style="fill:#f9c73c;fill-opacity:0.85036498" />
  <g
     fill-rule="evenodd"
     id="g12">
    <path
       d="m5 28h37v11h-37z"
       fill="#f8c4b8"
       id="path8"
       style="fill:#77b6ee;fill-opacity:0.8509804" />
    <path
       d="m16 28 5 2h-5c-.383877.337442.103397 1.479652 1 3h6l-5 1 1 2h2l-1 1h5l-5 1v1h8l1-2-2-1 1.792582-.962912.207418-1.037088h-4l4-1h-2l3-1-5-1 5-1v-2z"
       fill="#ec6749"
       fill-opacity=".671533"
       id="path10"
       style="fill:#f8e6bc;fill-opacity:0.8509804" />
  </g>
  <path
     style="opacity:1;fill:#ffffff;fill-opacity:0.73888886;stroke:none;stroke-width:0.80000001;stroke-linecap:round;stroke-linejoin:round;stroke-miterlimit:4;stroke-dasharray:none;stroke-opacity:1"
     d="M 5 10.462891 L 5 39 L 36.673828 39 L 36.673828 10.462891 L 5 10.462891 z "
     id="rect822" />
  <path
     style="opacity:1;fill:#ffffff;fill-opacity:0.68333334;stroke:none;stroke-width:0.80000001;stroke-linecap:round;stroke-linejoin:round;stroke-miterlimit:4;stroke-dasharray:none;stroke-opacity:1"
     d="M 5 19.380859 L 5 39 L 27.181641 39 L 27.181641 19.380859 L 5 19.380859 z "
     id="rect824" />
</svg>
