<?xml version="1.0" encoding="UTF-8" standalone="no"?>
<svg
   xmlns:dc="http://purl.org/dc/elements/1.1/"
   xmlns:cc="http://creativecommons.org/ns#"
   xmlns:rdf="http://www.w3.org/1999/02/22-rdf-syntax-ns#"
   xmlns:svg="http://www.w3.org/2000/svg"
   xmlns="http://www.w3.org/2000/svg"
   xmlns:xlink="http://www.w3.org/1999/xlink"
   xmlns:sodipodi="http://sodipodi.sourceforge.net/DTD/sodipodi-0.dtd"
   xmlns:inkscape="http://www.inkscape.org/namespaces/inkscape"
   height="48"
   width="48"
   version="1.1"
   id="svg10"
   sodipodi:docname="com.github.bartzaalberg.snaptastic.svg"
   inkscape:version="0.92.1 r15371">
  <metadata
     id="metadata16">
    <rdf:RDF>
      <cc:Work
         rdf:about="">
        <dc:format>image/svg+xml</dc:format>
        <dc:type
           rdf:resource="http://purl.org/dc/dcmitype/StillImage" />
        <dc:title></dc:title>
      </cc:Work>
    </rdf:RDF>
  </metadata>
  <defs
     id="defs14">
    <linearGradient
       id="linearGradient3820-7-2-8-6">
      <stop
         id="stop3822-2-6-5-0"
         style="stop-color:#3d3d3d;stop-opacity:1"
         offset="0" />
      <stop
         id="stop3864-8-7-4-1"
         style="stop-color:#686868;stop-opacity:0.49803922"
         offset="0.5" />
      <stop
         id="stop3824-1-2-6-7"
         style="stop-color:#686868;stop-opacity:0"
         offset="1" />
    </linearGradient>
    <linearGradient
       id="linearGradient4806">
      <stop
         offset="0"
         style="stop-color:#ffffff;stop-opacity:1"
         id="stop4808" />
      <stop
         offset="0.42447853"
         style="stop-color:#ffffff;stop-opacity:0.23529412"
         id="stop4810" />
      <stop
         offset="0.82089913"
         style="stop-color:#ffffff;stop-opacity:0.15686275"
         id="stop4812" />
      <stop
         offset="1"
         style="stop-color:#ffffff;stop-opacity:0.39215687"
         id="stop4814" />
    </linearGradient>
    <linearGradient
       xlink:href="#linearGradient4806"
       id="linearGradient3118"
       gradientUnits="userSpaceOnUse"
       gradientTransform="matrix(4.16388,0,0,4.16388,-236.03265,-50.036246)"
       x1="71.204407"
       y1="15.369057"
       x2="71.204407"
       y2="40.495617" />
    <radialGradient
       xlink:href="#linearGradient3820-7-2-8-6"
       id="radialGradient3163"
       gradientUnits="userSpaceOnUse"
       gradientTransform="matrix(0.6869404,0,0,0.21461693,-4.02174,68.573331)"
       cx="99.157013"
       cy="186.17059"
       fx="99.157013"
       fy="186.17059"
       r="62.769119" />
    <radialGradient
       cx="7.4605465"
       cy="9.9571075"
       r="12.671875"
       fx="6.9303164"
       fy="9.9571075"
       id="radialGradient5521-1"
       xlink:href="#linearGradient2867-449-88-871-390-598-476-591-434-148-57-177-3-8-8-9"
       gradientUnits="userSpaceOnUse"
       gradientTransform="matrix(0,46.861858,-92.320077,0,985.84907,-380.50601)" />
    <linearGradient
       id="linearGradient2867-449-88-871-390-598-476-591-434-148-57-177-3-8-8-9">
      <stop
         offset="0"
         style="stop-color:#90dbec;stop-opacity:1"
         id="stop3750-8-9-0" />
      <stop
         offset="0.26238"
         style="stop-color:#42baea;stop-opacity:1"
         id="stop3752-3-2-2" />
      <stop
         offset="0.704952"
         style="stop-color:#3689e6;stop-opacity:1"
         id="stop3754-7-2-2" />
      <stop
         offset="1"
         style="stop-color:#2b63a0;stop-opacity:1"
         id="stop3756-9-3-05" />
    </linearGradient>
    <linearGradient
       id="linearGradient1225">
      <stop
         id="stop1221"
         offset="0"
         style="stop-color:#f37329;stop-opacity:1" />
      <stop
         id="stop1223"
         offset="1"
         style="stop-color:#e95420;stop-opacity:1" />
    </linearGradient>
    <linearGradient
       xlink:href="#linearGradient4806"
       id="linearGradient3118-2"
       gradientUnits="userSpaceOnUse"
       gradientTransform="matrix(4.16388,0,0,4.16388,-237.90031,-51.829821)"
       x1="71.204407"
       y1="15.369057"
       x2="71.204407"
       y2="40.495617" />
    <radialGradient
       xlink:href="#linearGradient3820-7-2-8-6"
       id="radialGradient3163-9"
       gradientUnits="userSpaceOnUse"
       gradientTransform="matrix(0.75814376,0,0,0.2368626,-10.029824,66.656498)"
       cx="99.157013"
       cy="186.17059"
       fx="99.157013"
       fy="186.17059"
       r="62.769119" />
    <linearGradient
       gradientUnits="userSpaceOnUse"
       y2="118.04783"
       x2="64.5"
       y1="13.998179"
       x1="64.5"
       id="linearGradient1227"
       xlink:href="#linearGradient1225" />
    <clipPath
       id="clipPath849">
      <rect
         width="384"
         height="384"
         id="rect847" />
    </clipPath>
    <clipPath
       id="clipPath853">
      <rect
         width="384"
         height="384"
         id="rect851" />
    </clipPath>
    <clipPath
       id="clipPath857">
      <rect
         width="384"
         height="384"
         id="rect855" />
    </clipPath>
    <filter
       filterUnits="objectBoundingBox"
       color-interpolation-filters="sRGB"
       y="-200%"
       x="-200%"
       height="400%"
       width="400%"
       id="xPHBR2KRsqNJJmxgfSMnWsjFL63MuKr0">
      <feGaussianBlur
         id="feGaussianBlur823"
         stdDeviation="4.294"
         in="SourceGraphic" />
      <feOffset
         id="feOffset825"
         result="pf_100_offsetBlur"
         dy="4"
         dx="0" />
      <feFlood
         id="feFlood827"
         flood-opacity=".4" />
      <feComposite
         id="feComposite829"
         result="pf_100_dropShadow"
         operator="in"
         in2="pf_100_offsetBlur" />
      <feBlend
         id="feBlend831"
         mode="normal"
         in2="pf_100_dropShadow"
         in="SourceGraphic" />
    </filter>
    <filter
       filterUnits="objectBoundingBox"
       color-interpolation-filters="sRGB"
       y="-200%"
       x="-200%"
       height="400%"
       width="400%"
       id="2JmMAOqgjSUXbdZfecnmpMzAW6swRgvN">
      <feGaussianBlur
         id="feGaussianBlur858"
         stdDeviation="4.294" />
    </filter>
    <radialGradient
       xlink:href="#linearGradient3820-7-2-8-6"
       id="radialGradient3163-7"
       gradientUnits="userSpaceOnUse"
       gradientTransform="matrix(0.6869404,0,0,0.21461693,-4.02174,68.573331)"
       cx="99.157013"
       cy="186.17059"
       fx="99.157013"
       fy="186.17059"
       r="62.769119" />
  </defs>
  <sodipodi:namedview
     pagecolor="#ffffff"
     bordercolor="#666666"
     borderopacity="1"
     objecttolerance="10"
     gridtolerance="10"
     guidetolerance="10"
     inkscape:pageopacity="0"
     inkscape:pageshadow="2"
     inkscape:window-width="1920"
     inkscape:window-height="1040"
     id="namedview12"
     showgrid="true"
     inkscape:zoom="4.9166667"
     inkscape:cx="-2.7813419"
     inkscape:cy="40.693882"
     inkscape:window-x="0"
     inkscape:window-y="0"
     inkscape:window-maximized="1"
     inkscape:current-layer="svg10">
    <inkscape:grid
       type="xygrid"
       id="grid823" />
  </sodipodi:namedview>
  <g
     fill="#626c97"
     opacity=".99"
     transform="matrix(1.1503549 0 0 1.1503549 -4.486125 -7.525565)"
     id="g6"
     style="fill:#dea897;fill-opacity:1">
    <path
       d="m44.322082 27.405077a19.729762 19.729765 0 0 1 -19.729762 19.729765 19.729762 19.729765 0 0 1 -19.7297621-19.729765 19.729762 19.729765 0 0 1 19.7297621-19.7297632 19.729762 19.729765 0 0 1 19.729762 19.7297632z"
       id="path2"
       style="fill:#dea897;fill-opacity:1" />
    <path
       d="m44.322082 27.405077a19.729762 19.729765 0 0 1 -19.729762 19.729765 19.729762 19.729765 0 0 1 -19.7297621-19.729765 19.729762 19.729765 0 0 1 19.7297621-19.7297632 19.729762 19.729765 0 0 1 19.729762 19.7297632z"
       id="path4"
       style="fill:#dea897;fill-opacity:1" />
  </g>
  <circle
     style="opacity:1;fill:#ffffff;fill-opacity:0.25819671;stroke:none;stroke-width:14.71693802;stroke-linecap:round;stroke-linejoin:round;stroke-miterlimit:4;stroke-dasharray:none;stroke-dashoffset:0;stroke-opacity:1"
     id="path4584"
     cx="23.80377"
     cy="24"
     r="19.974577" />
  <style
     id="style3"
     type="text/css">
	.st0{fill:url(#SVGID_1_);}
	.st1{fill:url(#SVGID_2_);}
	.st2{fill:url(#SVGID_3_);}
	.st3{fill:url(#SVGID_4_);}
	.st4{fill:url(#SVGID_5_);}
	.st5{fill:url(#SVGID_6_);}
	.st6{opacity:0.29;}
	.st7{fill:url(#SVGID_7_);}
</style>
  <path
     inkscape:connector-curvature="0"
     id="path9-17-0"
     d="m 22.428138,12.652794 -5.312784,2.67661 5.312784,2.675833 2.668836,-1.368633 V 15.30452 c 0,-0.02444 3.19e-4,-0.03677 0.01242,-0.04899 0,0 -3.98e-4,-0.01167 0.01167,-0.01167 0,-0.01223 0.01242,-0.02433 0.01242,-0.03655 0,-0.01222 0.01166,-0.01244 0.01166,-0.01244 l 0.02489,-0.02489 0.01167,-0.01167 0.01242,-0.01244 h 0.02413 l 1.079354,-0.537345 z m 8.570285,0.0801 -3.853942,1.934749 -0.229401,0.122088 -0.229405,0.109646 -0.979038,0.498463 0.979038,0.486798 0.229405,0.122088 0.229401,0.109646 0.772963,0.389594 0.206074,0.109646 0.205297,0.0972 2.669608,1.350747 5.292567,-2.665723 z m -14.35587,2.816584 -0.206069,0.0972 -5.118377,2.578629 5.057719,2.554522 0.06066,0.02411 0.20607,0.09798 0.206073,-0.09798 5.106711,-2.578628 -2.522636,-1.270652 -0.958824,-0.476688 z m 8.810576,0.164858 v 3.882718 l 2.464315,1.241879 0.206074,0.109647 0.09643,0.04821 h 0.02413 c 0.01206,0 0.01166,0.01244 0.01166,0.01244 0.01206,0 0.01242,0.01244 0.01242,0.01244 l 0.02413,0.02411 0.01242,0.01244 c 0.01206,0.01218 0.01166,0.02438 0.01166,0.03655 0,0 3.9e-4,0.01167 0.01242,0.01167 0,0.01218 0.01166,0.03631 0.01166,0.06066 l -0.01166,0.13453 v 1.216995 l 2.464316,1.2411 V 18.429044 L 28.328787,17.187166 28.12349,17.077519 27.917421,16.967874 26.685652,16.347323 26.45547,16.226012 26.226069,16.103924 Z m 11.091369,0.01244 -5.340001,2.702272 v 5.330669 l 0.772968,-0.389593 0.2294,-0.121311 0.229402,-0.109646 4.108231,-2.069279 z m -11.447524,1.386518 -2.219363,1.112014 2.219363,1.124456 z m -2.724824,1.412958 -0.205297,0.109646 -5.086493,2.556078 2.416104,1.216994 2.670389,1.350747 0.205297,0.0972 0.205293,-0.0972 3.648654,-1.837545 0.229401,-0.122088 0.230177,-0.109646 0.978261,-0.498462 -2.210807,-1.108127 -0.205293,-0.108868 -0.205297,-0.09798 -2.465096,-1.241101 z m -11.309108,0.04121 v 5.353221 l 0.02413,0.01244 0.230958,0.109646 5.118376,2.578628 v -5.352442 l -0.02413,-0.01244 -0.242623,-0.122088 z m 5.763033,2.965112 v 5.331447 l 0.02409,0.01166 0.230181,0.109646 2.416104,1.216995 2.670389,1.351525 v -5.331449 l -0.02409,-0.01244 -0.230181,-0.121311 -2.512527,-1.265986 z m 11.091369,0 -0.772963,0.389594 -0.229401,0.109646 -0.229405,0.121311 -3.854723,1.935526 -0.229401,0.121311 -0.02413,0.01244 v 5.331447 l 5.086493,-2.568519 0.2294,-0.109646 0.02413,-0.01167 z m 0.49069,1.385741 v 3.690643 l 5.106711,-2.578629 -0.982151,-0.500795 -1.346859,0.684316 c -0.01211,0 -0.01195,2.07e-4 -0.02413,0.01244 h -0.01242 c -0.03639,0.02445 -0.06023,0.02411 -0.07232,0.02411 -0.01211,0 -0.03683,-2.11e-4 -0.049,-0.01244 h -0.01167 c -0.0121,0 -0.01195,5.57e-4 -0.02413,-0.01167 z m -17.345092,1.466611 v 5.352444 l 5.373442,2.701494 v -5.35322 z m 22.694422,0 -5.360996,2.700718 v 5.35322 l 5.360996,-2.701494 z m -16.908838,2.908345 v 5.353221 l 0.02413,0.01244 0.230958,0.122088 5.106711,2.566185 v -5.352442 l -0.02489,-0.01244 -0.230182,-0.122089 z m 11.134919,0 -5.105934,2.566964 -0.230958,0.122089 -0.02413,0.01244 v 5.352442 l 5.106711,-2.566185 0.230181,-0.122089 0.02413,-0.01244 z"
     style="opacity:1;fill:#ffffff;stroke-width:0.39814773" />
</svg>
