<?xml version="1.0" encoding="UTF-8" standalone="no"?>
<svg
   width="100%"
   height="100%"
   viewBox="0 0 267 267"
   version="1.1"
   xml:space="preserve"
   style="fill-rule:evenodd;clip-rule:evenodd;stroke-linecap:round;stroke-linejoin:round;stroke-miterlimit:1.5;"
   id="svg16"
   sodipodi:docname="com.github.lainsce.notejot.svg"
   inkscape:version="1.1.1 (3bf5ae0d25, 2021-09-20, custom)"
   xmlns:inkscape="http://www.inkscape.org/namespaces/inkscape"
   xmlns:sodipodi="http://sodipodi.sourceforge.net/DTD/sodipodi-0.dtd"
   xmlns:xlink="http://www.w3.org/1999/xlink"
   xmlns="http://www.w3.org/2000/svg"
   xmlns:svg="http://www.w3.org/2000/svg"><defs
     id="defs20"><rect
       x="50.075241"
       y="173.48016"
       width="149.6568"
       height="54.749278"
       id="rect26233" /><inkscape:path-effect
       effect="spiro"
       id="path-effect1153"
       is_visible="true"
       lpeversion="1" /><linearGradient
       id="a"
       y1="543.8"
       y2="503.8"
       x1="434.57"
       gradientUnits="userSpaceOnUse"
       x2="384.57"
       gradientTransform="matrix(0.6875,0,0,0.9,128.18,52.38)"><stop
         stop-color="#343b40"
         id="stop15765" /><stop
         offset="1"
         stop-color="#555e63"
         id="stop15767" /></linearGradient><linearGradient
       id="b"
       y1="543.8"
       y2="503.8"
       x2="0"
       gradientUnits="userSpaceOnUse"
       gradientTransform="matrix(1.15625,0,0,1,-63.34,0)"><stop
         stop-color="#bd8d48"
         id="stop15770" /><stop
         offset="1"
         stop-color="#e8b971"
         id="stop15772" /></linearGradient><linearGradient
       id="c"
       y1="17.14"
       y2="33.14"
       x1="37.581"
       gradientUnits="userSpaceOnUse"
       x2="53.58"
       gradientTransform="translate(362.99,498.66)"><stop
         stop-color="#383e51"
         id="stop15775" /><stop
         offset="1"
         stop-color="#655c6f"
         stop-opacity="0"
         id="stop15777" /></linearGradient><linearGradient
       id="linearGradient4449"><stop
         offset="0"
         style="stop-color:#ffffff;stop-opacity:1"
         id="stop4451" /><stop
         offset="0.06316455"
         style="stop-color:#ffffff;stop-opacity:0.50196081"
         id="stop4453" /><stop
         offset="0.95056331"
         style="stop-color:#ffffff;stop-opacity:1"
         id="stop4455" /><stop
         offset="1"
         style="stop-color:#ffffff;stop-opacity:1"
         id="stop4457" /></linearGradient><linearGradient
       id="linearGradient4336"><stop
         id="stop4340"
         style="stop-color:#000000;stop-opacity:1"
         offset="0" /><stop
         id="stop4338"
         style="stop-color:#000000;stop-opacity:0"
         offset="1" /></linearGradient><linearGradient
       id="linearGradient4306"><stop
         offset="0"
         style="stop-color:#f9c440;stop-opacity:1"
         id="stop4308" /><stop
         offset="1"
         style="stop-color:#f9c440;stop-opacity:1"
         id="stop4310" /></linearGradient><linearGradient
       id="linearGradient4284"><stop
         id="stop4286"
         style="stop-color:#ffffff;stop-opacity:1"
         offset="0" /><stop
         id="stop4288"
         style="stop-color:#ffffff;stop-opacity:0.50196081"
         offset="0.06316455" /><stop
         id="stop4290"
         style="stop-color:#ffffff;stop-opacity:0.50196081"
         offset="0.95056331" /><stop
         id="stop4292"
         style="stop-color:#ffffff;stop-opacity:0.39215687"
         offset="1" /></linearGradient><linearGradient
       id="linearGradient5147"><stop
         offset="0"
         style="stop-color:#cbb24c;stop-opacity:1"
         id="stop5149" /><stop
         offset="1"
         style="stop-color:#e1cb71;stop-opacity:1"
         id="stop5151" /></linearGradient><linearGradient
       id="linearGradient4242"><stop
         id="stop4244"
         style="stop-color:#d4aa00;stop-opacity:0.56578946"
         offset="0" /><stop
         id="stop4246"
         style="stop-color:#aa8800;stop-opacity:0.55263156"
         offset="1" /></linearGradient><linearGradient
       id="linearGradient4253"><stop
         id="stop4255"
         style="stop-color:#ffffff;stop-opacity:1"
         offset="0" /><stop
         id="stop4257"
         style="stop-color:#ffffff;stop-opacity:0.47368422"
         offset="0.18527266" /><stop
         id="stop4259"
         style="stop-color:#ffffff;stop-opacity:0.15686275"
         offset="0.95056331" /><stop
         id="stop4261"
         style="stop-color:#ffffff;stop-opacity:0.39215687"
         offset="1" /></linearGradient><linearGradient
       id="linearGradient5739"><stop
         id="stop5741"
         style="stop-color:#ffeeaa;stop-opacity:1"
         offset="0" /><stop
         id="stop5745"
         style="stop-color:#ffd42a;stop-opacity:1"
         offset="1" /></linearGradient><linearGradient
       id="linearGradient5391"><stop
         id="stop5393"
         style="stop-color:#ffeeaa;stop-opacity:1"
         offset="0" /><stop
         id="stop5395"
         style="stop-color:#ffffff;stop-opacity:0.23529412"
         offset="0.06316455" /><stop
         id="stop5397"
         style="stop-color:#ffffff;stop-opacity:0.15686275"
         offset="0.95056331" /><stop
         id="stop5399"
         style="stop-color:#fff7cb;stop-opacity:0.39215687"
         offset="1" /></linearGradient><linearGradient
       id="linearGradient4431"><stop
         offset="0"
         style="stop-color:#d4aa00;stop-opacity:1"
         id="stop4579" /><stop
         offset="1"
         style="stop-color:#aa8800;stop-opacity:1"
         id="stop4581" /></linearGradient><linearGradient
       id="linearGradient4583"><stop
         id="stop4433"
         style="stop-color:#828282;stop-opacity:1"
         offset="0" /><stop
         id="stop4435"
         style="stop-color:#cecece;stop-opacity:1"
         offset="1" /></linearGradient><linearGradient
       id="linearGradient27416-1-2"><stop
         offset="0"
         style="stop-color:#55c1ec;stop-opacity:1"
         id="stop27420-2-0" /><stop
         offset="1"
         style="stop-color:#3689e6;stop-opacity:1"
         id="stop27422-3-5" /></linearGradient><linearGradient
       id="linearGradient3924-2-2-5-8"><stop
         offset="0"
         style="stop-color:#ffffff;stop-opacity:1"
         id="stop3926-9-4-9-6" /><stop
         offset="0.06316455"
         style="stop-color:#ffffff;stop-opacity:0.23529412"
         id="stop3928-9-8-6-5" /><stop
         offset="0.95056331"
         style="stop-color:#ffffff;stop-opacity:0.15686275"
         id="stop3930-3-5-1-7" /><stop
         offset="1"
         style="stop-color:#ffffff;stop-opacity:0.39215687"
         id="stop3932-8-0-4-8" /></linearGradient><radialGradient
       gradientTransform="matrix(2.003784,0,0,1.4,27.98813,-17.4)"
       gradientUnits="userSpaceOnUse"
       xlink:href="#linearGradient3688-166-749-4-0-3-8"
       id="radialGradient3337-2-2"
       fy="43.5"
       fx="4.9929786"
       r="2.5"
       cy="43.5"
       cx="4.9929786" /><linearGradient
       id="linearGradient3688-166-749-4-0-3-8"><stop
         offset="0"
         style="stop-color:#181818;stop-opacity:1"
         id="stop2883-4-0-1-8" /><stop
         offset="1"
         style="stop-color:#181818;stop-opacity:0"
         id="stop2885-9-2-9-6" /></linearGradient><radialGradient
       gradientTransform="matrix(2.003784,0,0,1.4,-20.01187,-104.4)"
       gradientUnits="userSpaceOnUse"
       xlink:href="#linearGradient3688-166-749-4-0-3-8"
       id="radialGradient3339-1-4"
       fy="43.5"
       fx="4.9929786"
       r="2.5"
       cy="43.5"
       cx="4.9929786" /><linearGradient
       id="linearGradient3702-501-757-8-4-1-1"><stop
         offset="0"
         style="stop-color:#181818;stop-opacity:0"
         id="stop2895-8-9-9-1" /><stop
         offset="0.5"
         style="stop-color:#181818;stop-opacity:1"
         id="stop2897-7-8-7-7" /><stop
         offset="1"
         style="stop-color:#181818;stop-opacity:0"
         id="stop2899-4-5-1-5" /></linearGradient><linearGradient
       gradientUnits="userSpaceOnUse"
       xlink:href="#linearGradient3702-501-757-8-4-1-1"
       id="linearGradient13984"
       y2="39.999443"
       x2="25.058096"
       y1="47.027729"
       x1="25.058096" /><linearGradient
       id="linearGradient4632-92-3-0-8-1"><stop
         offset="0"
         style="stop-color:#fafafa;stop-opacity:1"
         id="stop4634-68-8-0-2-9" /><stop
         offset="1"
         style="stop-color:#e1e1e1;stop-opacity:1"
         id="stop4636-8-21-7-1-4" /></linearGradient><linearGradient
       id="linearGradient4215-8-4-07-7"><stop
         style="stop-color:#e9e9e9;stop-opacity:1;"
         offset="0"
         id="stop4217-1-2-1-2" /><stop
         style="stop-color:#ffffff;stop-opacity:1;"
         offset="1"
         id="stop4219-3-4-0-96" /></linearGradient><linearGradient
       id="linearGradient4011-9-9-70-61-7"><stop
         id="stop4013-5-4-3-8-3"
         style="stop-color:#ffffff;stop-opacity:1;"
         offset="0" /><stop
         offset="0.507761"
         style="stop-color:#ffffff;stop-opacity:0.23529412;"
         id="stop4015-1-5-70-9-5" /><stop
         id="stop4017-7-0-13-0-1"
         style="stop-color:#ffffff;stop-opacity:0.15686275;"
         offset="0.83456558" /><stop
         id="stop4019-1-12-7-0-7"
         style="stop-color:#ffffff;stop-opacity:0.39215687;"
         offset="1" /></linearGradient><linearGradient
       y2="55.052982"
       x2="30.271185"
       y1="10.028973"
       x1="30.271185"
       gradientTransform="matrix(1.111111,0,0,1.25,-3.5555565,-7.9999992)"
       gradientUnits="userSpaceOnUse"
       id="linearGradient3643"
       xlink:href="#linearGradient27416-1-2" /><linearGradient
       y2="43"
       x2="23.99999"
       y1="4.999989"
       x1="23.99999"
       gradientTransform="matrix(2.8099472,0,0,2.8168494,-2.3891627,0.54002395)"
       gradientUnits="userSpaceOnUse"
       id="linearGradient3647"
       xlink:href="#linearGradient5391" /><radialGradient
       r="27.5"
       fy="4.3419166"
       fx="31.999998"
       cy="4.3419166"
       cx="31.999998"
       gradientTransform="matrix(0,1.7327521,-1.732752,0,31.523424,-52.376973)"
       gradientUnits="userSpaceOnUse"
       id="radialGradient3651"
       xlink:href="#linearGradient4632-92-3-0-8-1" /><linearGradient
       y2="44.340794"
       x2="71.204407"
       y1="6.2375584"
       x1="71.204407"
       gradientTransform="matrix(-0.45945942,0,0,0.45945942,74.958504,20.349516)"
       gradientUnits="userSpaceOnUse"
       id="linearGradient3659"
       xlink:href="#linearGradient4011-9-9-70-61-7" /><linearGradient
       y2="8.0928917"
       x2="38.976662"
       y1="59.967686"
       x1="38.976662"
       gradientTransform="matrix(-0.37254354,0,0,0.37254354,53.921253,19.33366)"
       gradientUnits="userSpaceOnUse"
       id="linearGradient3662"
       xlink:href="#linearGradient4215-8-4-07-7" /><radialGradient
       cx="62.625"
       cy="4.625"
       r="10.625"
       fx="62.625"
       fy="4.625"
       id="radialGradient3384-6-7"
       xlink:href="#linearGradient4336"
       gradientUnits="userSpaceOnUse"
       gradientTransform="matrix(0.31730659,0,0,0.09065887,175.35645,59.950771)" /><radialGradient
       cx="62.625"
       cy="4.625"
       r="10.625"
       fx="62.625"
       fy="4.625"
       id="radialGradient3384-6-7-7"
       xlink:href="#linearGradient4336"
       gradientUnits="userSpaceOnUse"
       gradientTransform="matrix(0.31730659,0,0,0.09065887,175.35645,59.950771)" /><radialGradient
       cx="4.9929786"
       cy="43.5"
       r="2.5"
       fx="4.9929786"
       fy="43.5"
       id="radialGradient3013"
       xlink:href="#linearGradient3688-166-749-4-0-3-8"
       gradientUnits="userSpaceOnUse"
       gradientTransform="matrix(2.003784,0,0,1.4,27.98813,-17.4)" /><radialGradient
       cx="4.9929786"
       cy="43.5"
       r="2.5"
       fx="4.9929786"
       fy="43.5"
       id="radialGradient3015"
       xlink:href="#linearGradient3688-166-749-4-0-3-8"
       gradientUnits="userSpaceOnUse"
       gradientTransform="matrix(2.003784,0,0,1.4,-20.01187,-104.4)" /><linearGradient
       xlink:href="#linearGradient4011-9-9-70-61-7"
       id="linearGradient3590"
       gradientUnits="userSpaceOnUse"
       gradientTransform="matrix(-0.29729724,0,0,0.29729724,52.326181,17.461356)"
       x1="71.204407"
       y1="6.2375584"
       x2="71.204407"
       y2="44.340794" /><linearGradient
       xlink:href="#linearGradient4215-8-4-07-7"
       id="linearGradient3593"
       gradientUnits="userSpaceOnUse"
       gradientTransform="matrix(-0.25490196,0,0,0.25490196,39.156863,16.333328)"
       x1="38.976662"
       y1="59.967686"
       x2="38.976662"
       y2="8.0928917" /><linearGradient
       xlink:href="#linearGradient4336"
       id="linearGradient3847"
       gradientUnits="userSpaceOnUse"
       gradientTransform="matrix(0.80749834,0,0,0.83374395,106.87671,-0.0698511)"
       x1="-95.837799"
       y1="54.199703"
       x2="-95.837799"
       y2="5.1757793" /><linearGradient
       xlink:href="#linearGradient3924-2-2-5-8"
       id="linearGradient3850"
       gradientUnits="userSpaceOnUse"
       gradientTransform="translate(4e-6,1.0000062)"
       x1="23.99999"
       y1="4.999989"
       x2="23.99999"
       y2="43" /><linearGradient
       xlink:href="#linearGradient27416-1-2"
       id="linearGradient3853"
       gradientUnits="userSpaceOnUse"
       gradientTransform="matrix(0.78787871,0,0,0.88636364,-1.212111,-3.363642)"
       x1="30.271185"
       y1="10.028973"
       x2="30.271185"
       y2="55.052982" /><radialGradient
       xlink:href="#linearGradient4632-92-3-0-8-1"
       id="radialGradient3857"
       gradientUnits="userSpaceOnUse"
       gradientTransform="matrix(0,1.6257921,-1.625792,0,31.059051,-46.134567)"
       cx="31.999998"
       cy="4.3419166"
       fx="31.999998"
       fy="4.3419166"
       r="27.5" /><radialGradient
       cx="4.9929786"
       cy="43.5"
       r="2.5"
       fx="4.9929786"
       fy="43.5"
       id="radialGradient3337-2-2-2"
       xlink:href="#linearGradient3688-166-749-4-0-3-8"
       gradientUnits="userSpaceOnUse"
       gradientTransform="matrix(2.003784,0,0,1.4,27.98813,-17.4)" /><radialGradient
       cx="4.9929786"
       cy="43.5"
       r="2.5"
       fx="4.9929786"
       fy="43.5"
       id="radialGradient3339-1-4-8"
       xlink:href="#linearGradient3688-166-749-4-0-3-8"
       gradientUnits="userSpaceOnUse"
       gradientTransform="matrix(2.003784,0,0,1.4,-20.01187,-104.4)" /><linearGradient
       xlink:href="#linearGradient3924-2-2-5-8"
       id="linearGradient4516"
       gradientUnits="userSpaceOnUse"
       gradientTransform="matrix(1.4324324,0,0,1.4362832,-2.378381,-2.4707781)"
       x1="23.99999"
       y1="4.999989"
       x2="23.99999"
       y2="43" /><radialGradient
       xlink:href="#linearGradient4632-92-3-0-8-1"
       id="radialGradient3651-7"
       gradientUnits="userSpaceOnUse"
       gradientTransform="matrix(1.0056172e-8,2.3103361,-2.310336,1.0056172e-8,42.031285,-69.085963)"
       cx="31.999998"
       cy="4.3419166"
       fx="31.999998"
       fy="4.3419166"
       r="27.5" /><radialGradient
       gradientTransform="matrix(0.31730659,0,0,0.09065887,175.35645,59.950771)"
       gradientUnits="userSpaceOnUse"
       xlink:href="#linearGradient4336"
       id="radialGradient3384-6-7-3"
       fy="4.625"
       fx="62.625"
       r="10.625"
       cy="4.625"
       cx="62.625" /><radialGradient
       gradientTransform="matrix(0.31730659,0,0,0.09065887,175.35645,59.950771)"
       gradientUnits="userSpaceOnUse"
       xlink:href="#linearGradient4336"
       id="radialGradient3384-6-7-7-2"
       fy="4.625"
       fx="62.625"
       r="10.625"
       cy="4.625"
       cx="62.625" /><radialGradient
       gradientTransform="matrix(2.003784,0,0,1.4,27.98813,-17.4)"
       gradientUnits="userSpaceOnUse"
       xlink:href="#linearGradient3688-166-749-4-0-3-8"
       id="radialGradient3337-2-2-6"
       fy="43.5"
       fx="4.9929786"
       r="2.5"
       cy="43.5"
       cx="4.9929786" /><radialGradient
       gradientTransform="matrix(2.003784,0,0,1.4,-20.01187,-104.4)"
       gradientUnits="userSpaceOnUse"
       xlink:href="#linearGradient3688-166-749-4-0-3-8"
       id="radialGradient3339-1-4-3"
       fy="43.5"
       fx="4.9929786"
       r="2.5"
       cy="43.5"
       cx="4.9929786" /><linearGradient
       gradientTransform="matrix(0.89553576,0,0,-0.89663265,6.6836193,69.705841)"
       gradientUnits="userSpaceOnUse"
       xlink:href="#linearGradient4336"
       id="linearGradient3149"
       y2="3.4508991"
       x2="76.523361"
       y1="-9.023138"
       x1="76.523361" /><linearGradient
       gradientTransform="matrix(2.6759419,0,0,2.7299964,0.77739297,2.4801239)"
       gradientUnits="userSpaceOnUse"
       xlink:href="#linearGradient4284"
       id="linearGradient3159"
       y2="43"
       x2="23.99999"
       y1="4.999989"
       x1="23.99999" /><radialGradient
       gradientTransform="matrix(0,25.083279,-29.897332,0,364.82191,-207.5918)"
       gradientUnits="userSpaceOnUse"
       xlink:href="#linearGradient5739"
       id="radialGradient3395"
       fy="9.9571075"
       fx="6.2001843"
       r="12.671875"
       cy="9.9571075"
       cx="6.7304144" /><linearGradient
       id="linearGradient2867-449-88-871-390-598-476-591-434-148-57-177-8-3-3-6-4-8-8-8-5"><stop
         offset="0"
         style="stop-color:#919caf;stop-opacity:1"
         id="stop3750-1-0-7-6-6-1-3-9-3" /><stop
         offset="0.26238"
         style="stop-color:#68758e;stop-opacity:1"
         id="stop3752-3-7-4-0-32-8-923-0-7" /><stop
         offset="0.704952"
         style="stop-color:#485a6c;stop-opacity:1"
         id="stop3754-1-8-5-2-7-6-7-1-9" /><stop
         offset="1"
         style="stop-color:#444c5c;stop-opacity:1"
         id="stop3756-1-6-2-6-6-1-96-6-0" /></linearGradient><radialGradient
       gradientTransform="matrix(2.003784,0,0,1.4,27.98813,-17.4)"
       gradientUnits="userSpaceOnUse"
       xlink:href="#linearGradient3688-166-749-4-0-3-8"
       id="radialGradient2455-1"
       fy="43.5"
       fx="4.9929786"
       r="2.5"
       cy="43.5"
       cx="4.9929786" /><radialGradient
       gradientTransform="matrix(2.003784,0,0,1.4,-20.01187,-104.4)"
       gradientUnits="userSpaceOnUse"
       xlink:href="#linearGradient3688-166-749-4-0-3-8"
       id="radialGradient2457-5"
       fy="43.5"
       fx="4.9929786"
       r="2.5"
       cy="43.5"
       cx="4.9929786" /><radialGradient
       gradientTransform="matrix(0.05659608,0,0,0.16978827,117.22802,102.14371)"
       gradientUnits="userSpaceOnUse"
       xlink:href="#linearGradient4336"
       id="radialGradient4377"
       fy="93.467628"
       fx="-4.0287771"
       r="35.338131"
       cy="93.467628"
       cx="-4.0287771" /><linearGradient
       inkscape:collect="always"
       xlink:href="#linearGradient4449"
       id="linearGradient4320"
       x1="65"
       y1="8"
       x2="65"
       y2="128"
       gradientUnits="userSpaceOnUse"
       gradientTransform="matrix(1.0011849,0,0,1.0018748,-0.03319996,-0.12474728)" /><radialGradient
       gradientTransform="matrix(0.05659586,-3.7979161e-4,-0.0011419,-0.17016431,14.334751,133.91674)"
       gradientUnits="userSpaceOnUse"
       xlink:href="#linearGradient4336"
       id="radialGradient4377-3"
       fy="93.467628"
       fx="-4.0287771"
       r="35.338131"
       cy="93.467628"
       cx="-4.0287771" /><radialGradient
       gradientTransform="matrix(1.4432,0,0,0.16978827,70.814319,102.13972)"
       gradientUnits="userSpaceOnUse"
       xlink:href="#linearGradient3702-501-757-8-4-1-1"
       id="radialGradient4377-9"
       fy="93.467628"
       fx="-4.0287771"
       r="35.338131"
       cy="93.467628"
       cx="-4.0287771" /><filter
       inkscape:collect="always"
       style="color-interpolation-filters:sRGB"
       id="filter4422"
       x="-0.019665273"
       width="1.0393305"
       y="-0.26762078"
       height="1.5352416"><feGaussianBlur
         inkscape:collect="always"
         stdDeviation="0.8920693"
         id="feGaussianBlur4424" /></filter></defs><sodipodi:namedview
     id="namedview18"
     pagecolor="#ffffff"
     bordercolor="#666666"
     borderopacity="1.0"
     inkscape:pageshadow="2"
     inkscape:pageopacity="0.0"
     inkscape:pagecheckerboard="0"
     showgrid="false"
     inkscape:zoom="1.0156384"
     inkscape:cx="162.9517"
     inkscape:cy="100.42944"
     inkscape:window-width="1861"
     inkscape:window-height="1047"
     inkscape:window-x="59"
     inkscape:window-y="33"
     inkscape:window-maximized="1"
     inkscape:current-layer="g29702"
     showguides="true"
     inkscape:guide-bbox="true" /><clipPath
     id="_clip1"><path
       d="M250.44,54.927c0,-21.142 -17.139,-38.281 -38.281,-38.281l-156.812,-0c-21.142,-0 -38.282,17.139 -38.282,38.281l0,156.813c0,21.142 17.14,38.281 38.282,38.281l156.812,-0c21.142,-0 38.281,-17.139 38.281,-38.281l0,-156.813Z"
       id="path5" /></clipPath><g
     id="g27601"
     transform="matrix(2.2081558,0,0,2.2081558,-1.6578526,-33.932856)"><g
       id="g29702"
       transform="matrix(1.0015511,0,0,1.0015511,-3.0903197,7.9360208)"><rect
         style="opacity:0.122;fill:#000000;fill-opacity:1;fill-rule:nonzero;stroke:none;stroke-width:1;stroke-linecap:butt;stroke-linejoin:miter;stroke-miterlimit:4;stroke-dasharray:none;stroke-dashoffset:0;stroke-opacity:0.552632;filter:url(#filter4422)"
         id="rect4348"
         width="108.87041"
         height="8"
         x="11.064797"
         y="113"
         transform="matrix(0.97211403,0,0,0.81895477,1.3157364,21.145728)" /><g
         id="layer4-0"
         transform="matrix(0.9047486,0,0,0.9047486,-570.51497,-611.56047)" /><g
         id="layer4-0-7"
         transform="matrix(0.9047486,0,0,0.9047486,-570.51497,-604.32248)" /><g
         id="layer1-3"
         transform="matrix(0.9047486,0,0,0.9047486,-73.807987,64.496663)" /><rect
         style="opacity:1;fill:#e1c88a;fill-opacity:1;fill-rule:nonzero;stroke:#d48e15;stroke-width:1.02376;stroke-linecap:butt;stroke-linejoin:miter;stroke-miterlimit:4;stroke-dasharray:none;stroke-dashoffset:0;stroke-opacity:0.75"
         id="rect4296"
         width="103.97624"
         height="103.97623"
         x="13.511879"
         y="14.511894"
         ry="2.3359048"
         rx="2.335907" /><g
         id="g4272"
         style="opacity:0.5;fill:#0e141f"
         transform="matrix(1.0223984,0,0,0.95584054,4.8819297,15.993243)"><path
           d="m 81.647714,56.748599 q -0.115205,0 -0.216009,-0.03228 -0.0864,-0.03228 -0.187208,-0.09685 -0.25921,-0.161411 -0.360014,-0.677924 -0.129605,-0.645642 0,-1.549541 0.144006,-0.93618 0.460818,-2.388875 0.0576,-0.258257 0.115205,-0.581077 0.0576,-0.322821 0.129605,-0.61336 -0.187207,0.16141 -0.403216,0.548795 -0.201608,0.355103 -0.417617,0.742489 -0.144006,0.258256 -0.316813,0.193692 -0.187207,-0.06456 -0.302412,-0.355103 -0.115204,-0.322821 -0.0864,-0.710206 0.0288,-0.387385 0.158406,-0.677924 0.201608,-0.322821 0.417617,-0.710206 0.216009,-0.387385 0.460819,-0.645642 0.590423,-0.677924 1.080043,-0.355103 0.230409,0.09685 0.345614,0.645642 0.115205,0.548795 -0.0144,1.291284 -0.115204,0.742488 -0.403216,2.098336 -0.072,0.387385 -0.158406,0.77477 -0.072,0.387385 -0.144006,0.742488 -0.0288,0.129129 -0.0432,0.225975 -0.0144,0.09685 -0.0288,0.193693 0.144006,-0.03228 0.360015,-0.193693 0.230409,-0.161411 0.518421,-0.484231 0.302412,-0.355104 0.691227,-0.936181 0.388816,-0.581078 0.892836,-1.452695 0.388816,-0.710206 0.73443,-1.38813 0.345614,-0.677924 0.604824,-1.226719 0.259211,-0.548796 0.417617,-0.903899 0.158407,-0.355103 0.158407,-0.355103 0.172807,-0.451949 0.417616,-0.290539 0.115205,0.06456 0.187208,0.225975 0.072,0.16141 0.115205,0.322821 0.100804,0.451949 0.0144,1.065309 -0.0864,0.61336 -0.316813,1.904644 -0.0864,0.419667 -0.172806,0.839334 -0.072,0.419667 -0.144006,0.77477 -0.0144,0.161411 -0.0432,0.355103 0.201608,-0.06456 0.432017,-0.355103 0.23041,-0.290539 0.460819,-0.645642 0.230409,-0.355103 0.432017,-0.742488 0.201609,-0.419667 0.360015,-0.710206 0.144006,-0.290539 0.316813,-0.258257 0.172807,0.03228 0.302412,0.322821 0.115205,0.322821 0.100804,0.710206 0,0.387386 -0.144006,0.677924 -0.331213,0.677924 -0.676827,1.291284 -0.345614,0.581078 -0.705629,1.033027 -0.345614,0.419668 -0.705628,0.61336 -0.360015,0.161411 -0.705629,-0.03228 -0.230409,-0.193693 -0.331213,-0.645642 -0.0864,-0.451949 -0.0576,-0.968463 0.0432,-0.548795 0.172807,-1.38813 -0.158407,0.322821 -0.331214,0.61336 -0.158406,0.290539 -0.345614,0.645642 -1.98728,3.518748 -3.096124,3.518748 z"
           style="font-style:normal;font-variant:normal;font-weight:normal;font-stretch:normal;font-size:medium;line-height:125%;font-family:'Redacted Script';-inkscape-font-specification:'Redacted Script';letter-spacing:0px;word-spacing:0px;fill:#0e141f;fill-opacity:1;stroke:none;stroke-width:1px;stroke-linecap:butt;stroke-linejoin:miter;stroke-opacity:1"
           id="path5176"
           inkscape:connector-curvature="0" /><g
           transform="matrix(0.87129191,0,0,2.2050717,3.6176263,-70.886439)"
           id="text5178"
           style="font-style:normal;font-weight:normal;font-size:15px;line-height:125%;font-family:sans-serif;letter-spacing:0px;word-spacing:0px;fill:#0e141f;fill-opacity:1;stroke:none;stroke-width:1px;stroke-linecap:butt;stroke-linejoin:miter;stroke-opacity:1"><path
             inkscape:connector-curvature="0"
             id="path5183"
             style="font-style:normal;font-variant:normal;font-weight:normal;font-stretch:normal;font-family:'Redacted Script';-inkscape-font-specification:'Redacted Script';fill:#0e141f;fill-opacity:1"
             d="m 28.42,57.565 q -0.18,0 -0.3,-0.105 -0.24,-0.195 -0.135,-0.495 0,-0.015 0.105,-0.36 0.12,-0.345 0.27,-0.78 0.075,-0.255 0.135,-0.435 0.06,-0.195 0.105,-0.345 -0.315,0.12 -0.72,0.27 -0.405,0.15 -0.87,0.33 -0.45,0.165 -0.93,0.345 -0.48,0.18 -0.93,0.345 -0.165,0.06 -0.33,-0.015 -0.18,-0.09 -0.255,-0.27 -0.06,-0.165 0.03,-0.33 0.075,-0.18 0.255,-0.255 0.675,-0.24 1.395,-0.51 0.735,-0.27 1.335,-0.495 0.6,-0.225 0.99,-0.375 0.405,-0.15 0.405,-0.15 0.075,-0.015 0.135,-0.015 0.075,-0.015 0.15,0.015 0.21,0.03 0.3,0.24 0.075,0.12 0.06,0.315 0,0.18 -0.075,0.525 -0.045,0.195 -0.12,0.435 -0.06,0.225 -0.165,0.525 -0.015,0.06 -0.03,0.105 -0.015,0.045 -0.03,0.105 0.6,-0.33 1.47,-0.69 0.165,-0.075 0.33,0 0.165,0.06 0.24,0.225 0.09,0.165 0.015,0.345 -0.075,0.18 -0.24,0.255 -0.51,0.225 -0.945,0.435 -0.435,0.21 -0.75,0.375 -0.375,0.195 -0.675,0.36 -0.09,0.075 -0.225,0.075 z" /><path
             inkscape:connector-curvature="0"
             id="path5185"
             style="font-style:normal;font-variant:normal;font-weight:normal;font-stretch:normal;font-family:'Redacted Script';-inkscape-font-specification:'Redacted Script';fill:#0e141f;fill-opacity:1"
             d="m 34.250078,57.565 q -0.18,0 -0.3,-0.105 -0.24,-0.195 -0.135,-0.495 0,-0.015 0.105,-0.36 0.12,-0.345 0.27,-0.78 0.075,-0.255 0.135,-0.435 0.06,-0.195 0.105,-0.345 -0.315,0.12 -0.72,0.27 -0.405,0.15 -0.87,0.33 -0.45,0.165 -0.93,0.345 -0.48,0.18 -0.93,0.345 -0.165,0.06 -0.33,-0.015 -0.18,-0.09 -0.255,-0.27 -0.06,-0.165 0.03,-0.33 0.075,-0.18 0.255,-0.255 0.675,-0.24 1.395,-0.51 0.735,-0.27 1.335,-0.495 0.6,-0.225 0.99,-0.375 0.405,-0.15 0.405,-0.15 0.075,-0.015 0.135,-0.015 0.075,-0.015 0.15,0.015 0.21,0.03 0.3,0.24 0.075,0.12 0.06,0.315 0,0.18 -0.075,0.525 -0.045,0.195 -0.12,0.435 -0.06,0.225 -0.165,0.525 -0.015,0.06 -0.03,0.105 -0.015,0.045 -0.03,0.105 0.6,-0.33 1.47,-0.69 0.165,-0.075 0.33,0 0.165,0.06 0.24,0.225 0.09,0.165 0.015,0.345 -0.075,0.18 -0.24,0.255 -0.51,0.225 -0.945,0.435 -0.435,0.21 -0.75,0.375 -0.375,0.195 -0.675,0.36 -0.09,0.075 -0.225,0.075 z" /><path
             inkscape:connector-curvature="0"
             id="path5187"
             style="font-style:normal;font-variant:normal;font-weight:normal;font-stretch:normal;font-family:'Redacted Script';-inkscape-font-specification:'Redacted Script';fill:#0e141f;fill-opacity:1"
             d="m 40.080156,57.565 q -0.18,0 -0.3,-0.105 -0.24,-0.195 -0.135,-0.495 0,-0.015 0.105,-0.36 0.12,-0.345 0.27,-0.78 0.075,-0.255 0.135,-0.435 0.06,-0.195 0.105,-0.345 -0.315,0.12 -0.72,0.27 -0.405,0.15 -0.87,0.33 -0.45,0.165 -0.93,0.345 -0.48,0.18 -0.93,0.345 -0.165,0.06 -0.33,-0.015 -0.18,-0.09 -0.255,-0.27 -0.06,-0.165 0.03,-0.33 0.075,-0.18 0.255,-0.255 0.675,-0.24 1.395,-0.51 0.735,-0.27 1.335,-0.495 0.6,-0.225 0.99,-0.375 0.405,-0.15 0.405,-0.15 0.075,-0.015 0.135,-0.015 0.075,-0.015 0.15,0.015 0.21,0.03 0.3,0.24 0.075,0.12 0.06,0.315 0,0.18 -0.075,0.525 -0.045,0.195 -0.12,0.435 -0.06,0.225 -0.165,0.525 -0.015,0.06 -0.03,0.105 -0.015,0.045 -0.03,0.105 0.6,-0.33 1.47,-0.69 0.165,-0.075 0.33,0 0.165,0.06 0.24,0.225 0.09,0.165 0.015,0.345 -0.075,0.18 -0.24,0.255 -0.51,0.225 -0.945,0.435 -0.435,0.21 -0.75,0.375 -0.375,0.195 -0.675,0.36 -0.09,0.075 -0.225,0.075 z" /><path
             inkscape:connector-curvature="0"
             id="path5189"
             style="font-style:normal;font-variant:normal;font-weight:normal;font-stretch:normal;font-family:'Redacted Script';-inkscape-font-specification:'Redacted Script';fill:#0e141f;fill-opacity:1"
             d="m 43.690234,58.42 q -0.12,0 -0.225,-0.015 -0.09,-0.015 -0.195,-0.045 -0.27,-0.075 -0.375,-0.315 -0.135,-0.3 0,-0.72 0.15,-0.435 0.48,-1.11 0.06,-0.12 0.12,-0.27 0.06,-0.15 0.135,-0.285 -0.195,0.075 -0.42,0.255 -0.21,0.165 -0.435,0.345 -0.15,0.12 -0.33,0.09 -0.195,-0.03 -0.315,-0.165 -0.12,-0.15 -0.09,-0.33 0.03,-0.18 0.165,-0.315 0.21,-0.15 0.435,-0.33 0.225,-0.18 0.48,-0.3 0.615,-0.315 1.125,-0.165 0.24,0.045 0.36,0.3 0.12,0.255 -0.015,0.6 -0.12,0.345 -0.42,0.975 -0.075,0.18 -0.165,0.36 -0.075,0.18 -0.15,0.345 -0.03,0.06 -0.045,0.105 -0.015,0.045 -0.03,0.09 0.15,-0.015 0.375,-0.09 0.24,-0.075 0.54,-0.225 0.315,-0.165 0.72,-0.435 0.405,-0.27 0.93,-0.675 0.405,-0.33 0.765,-0.645 0.36,-0.315 0.63,-0.57 0.27,-0.255 0.435,-0.42 0.165,-0.165 0.165,-0.165 0.18,-0.21 0.435,-0.135 0.12,0.03 0.195,0.105 0.075,0.075 0.12,0.15 0.105,0.21 0.015,0.495 -0.09,0.285 -0.33,0.885 -0.09,0.195 -0.18,0.39 -0.075,0.195 -0.15,0.36 -0.015,0.075 -0.045,0.165 0.21,-0.03 0.45,-0.165 0.24,-0.135 0.48,-0.3 0.24,-0.165 0.45,-0.345 0.21,-0.195 0.375,-0.33 0.15,-0.135 0.33,-0.12 0.18,0.015 0.315,0.15 0.12,0.15 0.105,0.33 0,0.18 -0.15,0.315 -0.345,0.315 -0.705,0.6 -0.36,0.27 -0.735,0.48 -0.36,0.195 -0.735,0.285 -0.375,0.075 -0.735,-0.015 -0.24,-0.09 -0.345,-0.3 -0.09,-0.21 -0.06,-0.45 0.045,-0.255 0.18,-0.645 -0.165,0.15 -0.345,0.285 -0.165,0.135 -0.36,0.3 -2.07,1.635 -3.225,1.635 z" /><path
             inkscape:connector-curvature="0"
             id="path5191"
             style="font-style:normal;font-variant:normal;font-weight:normal;font-stretch:normal;font-family:'Redacted Script';-inkscape-font-specification:'Redacted Script';fill:#0e141f;fill-opacity:1"
             d="m 51.658984,58.42 q -0.12,0 -0.225,-0.015 -0.09,-0.015 -0.195,-0.045 -0.27,-0.075 -0.375,-0.315 -0.135,-0.3 0,-0.72 0.15,-0.435 0.48,-1.11 0.06,-0.12 0.12,-0.27 0.06,-0.15 0.135,-0.285 -0.195,0.075 -0.42,0.255 -0.21,0.165 -0.435,0.345 -0.15,0.12 -0.33,0.09 -0.195,-0.03 -0.315,-0.165 -0.12,-0.15 -0.09,-0.33 0.03,-0.18 0.165,-0.315 0.21,-0.15 0.435,-0.33 0.225,-0.18 0.48,-0.3 0.615,-0.315 1.125,-0.165 0.24,0.045 0.36,0.3 0.12,0.255 -0.015,0.6 -0.12,0.345 -0.42,0.975 -0.075,0.18 -0.165,0.36 -0.075,0.18 -0.15,0.345 -0.03,0.06 -0.045,0.105 -0.015,0.045 -0.03,0.09 0.15,-0.015 0.375,-0.09 0.24,-0.075 0.54,-0.225 0.315,-0.165 0.72,-0.435 0.405,-0.27 0.93,-0.675 0.405,-0.33 0.765,-0.645 0.36,-0.315 0.63,-0.57 0.27,-0.255 0.435,-0.42 0.165,-0.165 0.165,-0.165 0.18,-0.21 0.435,-0.135 0.12,0.03 0.195,0.105 0.075,0.075 0.12,0.15 0.105,0.21 0.015,0.495 -0.09,0.285 -0.33,0.885 -0.09,0.195 -0.18,0.39 -0.075,0.195 -0.15,0.36 -0.015,0.075 -0.045,0.165 0.21,-0.03 0.45,-0.165 0.24,-0.135 0.48,-0.3 0.24,-0.165 0.45,-0.345 0.21,-0.195 0.375,-0.33 0.15,-0.135 0.33,-0.12 0.18,0.015 0.315,0.15 0.12,0.15 0.105,0.33 0,0.18 -0.15,0.315 -0.345,0.315 -0.705,0.6 -0.36,0.27 -0.735,0.48 -0.36,0.195 -0.735,0.285 -0.375,0.075 -0.735,-0.015 -0.24,-0.09 -0.345,-0.3 -0.09,-0.21 -0.06,-0.45 0.045,-0.255 0.18,-0.645 -0.165,0.15 -0.345,0.285 -0.165,0.135 -0.36,0.3 -2.07,1.635 -3.225,1.635 z" /><path
             inkscape:connector-curvature="0"
             id="path5193"
             style="font-style:normal;font-variant:normal;font-weight:normal;font-stretch:normal;font-family:'Redacted Script';-inkscape-font-specification:'Redacted Script';fill:#0e141f;fill-opacity:1"
             d="m 60.317734,58.45 q -0.075,0 -0.15,-0.015 -0.075,0 -0.165,-0.015 -0.18,-0.06 -0.3,-0.255 -0.045,-0.09 -0.06,-0.21 -0.015,-0.135 0.03,-0.39 0.06,-0.255 0.18,-0.69 0.135,-0.45 0.36,-1.155 -0.345,0.12 -0.765,0.285 -0.42,0.165 -0.87,0.33 -0.165,0.06 -0.33,-0.015 -0.18,-0.09 -0.255,-0.27 -0.06,-0.165 0.03,-0.33 0.075,-0.18 0.255,-0.255 0.48,-0.18 0.93,-0.345 0.45,-0.165 0.795,-0.285 0.345,-0.135 0.555,-0.21 0.21,-0.09 0.21,-0.09 0.15,-0.06 0.285,-0.015 0.195,0.045 0.285,0.225 0.075,0.135 0.045,0.24 -0.015,0.105 -0.045,0.225 -0.03,0.06 -0.045,0.135 -0.015,0.06 -0.045,0.15 -0.105,0.255 -0.225,0.63 -0.105,0.36 -0.225,0.735 -0.075,0.21 -0.12,0.36 -0.045,0.15 -0.075,0.27 0.285,-0.06 0.825,-0.345 0.465,-0.255 0.99,-0.585 0.525,-0.33 1.095,-0.72 0.12,-0.075 0.24,-0.15 0.12,-0.075 0.24,-0.165 0.165,-0.105 0.345,-0.06 0.18,0.03 0.3,0.195 0.105,0.165 0.06,0.345 -0.03,0.165 -0.195,0.27 -0.12,0.09 -0.255,0.18 -0.12,0.075 -0.255,0.165 -0.57,0.375 -1.11,0.72 -0.54,0.345 -1.02,0.6 -0.975,0.51 -1.545,0.51 z" /></g><path
           d="m 77.903963,50.008228 q 0.072,0 0.115204,0.03228 0.23041,0.129129 0.331214,0.387385 0.0864,0.290539 0.115204,0.45195 0.115205,0.710206 -0.0576,1.452694 -0.187207,0.77477 -0.460818,1.614105 -0.0864,0.258256 -0.158407,0.548795 -0.072,0.290539 -0.144006,0.548796 -0.0144,0.03228 -0.0432,0.129128 0.0864,-0.06456 0.216008,-0.193692 0.115205,-0.129129 0.273611,-0.387385 0.259211,-0.355103 0.547222,-0.936181 0.288012,-0.548796 0.590424,-1.162156 0.072,-0.16141 0.158407,-0.322821 0.072,-0.129128 0.144005,-0.290538 0.129606,-0.258257 0.302413,-0.258257 0.187207,0.03228 0.302412,0.355103 0.129605,0.290539 0.115204,0.677924 -0.0144,0.419667 -0.144005,0.677924 -0.072,0.16141 -0.158407,0.290539 -0.072,0.16141 -0.144006,0.322821 -0.345613,0.710206 -0.676827,1.323566 -0.345614,0.645642 -0.662427,1.097591 -0.331213,0.451949 -0.648026,0.645642 -0.331213,0.225974 -0.633625,0.03228 -0.24481,-0.161411 -0.345614,-0.451949 -0.100804,-0.290539 -0.129605,-0.516514 -0.129606,-0.742488 0.0576,-1.517259 0.187208,-0.77477 0.475219,-1.710951 0.0288,-0.06456 0.072,-0.225974 0.0288,-0.129129 0.072,-0.258257 -0.216009,0.193693 -0.547222,0.451949 -0.345614,0.290539 -0.849634,0.742489 -0.187208,0.129128 -0.345614,-0.06457 -0.158407,-0.16141 -0.216009,-0.548795 -0.072,-0.355103 0.0144,-0.742488 0.072,-0.355104 0.230409,-0.516514 0.460818,-0.355103 0.835234,-0.645642 0.374415,-0.290539 0.633625,-0.516513 0.144006,-0.129129 0.259211,-0.225975 0.100804,-0.06456 0.187207,-0.129128 0.115205,-0.06457 0.187208,-0.129129 0.0576,-0.03228 0.129605,-0.03228 z"
           style="font-style:normal;font-variant:normal;font-weight:normal;font-stretch:normal;font-size:medium;line-height:125%;font-family:'Redacted Script';-inkscape-font-specification:'Redacted Script';letter-spacing:0px;word-spacing:0px;fill:#0e141f;fill-opacity:1;stroke:none;stroke-width:1px;stroke-linecap:butt;stroke-linejoin:miter;stroke-opacity:1"
           id="path5172-3"
           inkscape:connector-curvature="0" /><path
           d="m 70.339993,50.007185 q 0.100804,0 0.187207,0.06456 0.273611,0.129129 0.388816,0.742489 0.0864,0.548795 -0.0432,1.226719 -0.129605,0.677924 -0.374415,1.517259 -0.0864,0.290538 -0.158406,0.581077 -0.0864,0.322821 -0.144006,0.581078 -0.0432,0.129128 -0.072,0.322821 0.432017,0.161411 1.008041,0.06456 0.561622,-0.06456 1.267251,-0.484231 0.633625,-0.355103 1.339254,-0.936181 0.705628,-0.548796 1.49766,-1.323566 0.158407,-0.16141 0.316813,-0.03228 0.158406,0.16141 0.230409,0.516514 0.0864,0.355103 0.0144,0.742488 -0.072,0.387385 -0.230409,0.548795 -0.820834,0.807053 -1.540863,1.38813 -0.734429,0.61336 -1.411256,0.968463 -1.771272,1.000745 -2.894517,0.322821 -0.331214,-0.193692 -0.460819,-0.903898 -0.129605,-0.742489 0.0576,-1.614105 0.187207,-0.839335 0.446418,-1.775515 0.0288,-0.06457 0.0576,-0.161411 0.0144,-0.09685 0.0432,-0.225975 -0.331214,0.161411 -0.964839,0.645642 -0.648026,0.484232 -1.800073,1.420413 -0.158406,0.129128 -0.316813,-0.06457 -0.172807,-0.16141 -0.230409,-0.548795 -0.072,-0.355103 0,-0.742488 0.072,-0.355104 0.25921,-0.516514 0.662427,-0.516514 1.209649,-0.936181 0.547222,-0.419667 0.97924,-0.710206 0.590424,-0.387385 0.892836,-0.548795 0.288011,-0.129129 0.446418,-0.129129 z"
           style="font-style:normal;font-variant:normal;font-weight:normal;font-stretch:normal;font-size:medium;line-height:125%;font-family:'Redacted Script';-inkscape-font-specification:'Redacted Script';letter-spacing:0px;word-spacing:0px;fill:#0e141f;fill-opacity:1;stroke:none;stroke-width:1px;stroke-linecap:butt;stroke-linejoin:miter;stroke-opacity:1"
           id="path5174-1"
           inkscape:connector-curvature="0" /></g><g
         id="g4262"
         style="opacity:0.5;fill:#0e141f"
         transform="matrix(1.0001105,0,0,0.99496842,5.4391278,18.623196)"><path
           d="m 30.490549,35.772536 q -0.100804,0 -0.187208,-0.06456 -0.273611,-0.129129 -0.388816,-0.742489 -0.0864,-0.548795 0.0432,-1.226719 0.129605,-0.677924 0.374415,-1.517259 0.0864,-0.290538 0.158407,-0.581077 0.0864,-0.322821 0.144005,-0.581078 0.0432,-0.129128 0.072,-0.322821 -0.432017,-0.161411 -1.00804,-0.06456 -0.561623,0.06456 -1.267251,0.484231 -0.633626,0.355103 -1.339254,0.936181 -0.705629,0.548796 -1.497661,1.323566 -0.158406,0.16141 -0.316813,0.03228 -0.158406,-0.16141 -0.230409,-0.516514 -0.0864,-0.355103 -0.0144,-0.742488 0.072,-0.387385 0.230409,-0.548795 0.820833,-0.807053 1.540862,-1.38813 0.73443,-0.61336 1.411257,-0.968463 1.771271,-1.000745 2.894517,-0.322821 0.331213,0.193692 0.460818,0.903898 0.129605,0.742489 -0.0576,1.614105 -0.187208,0.839335 -0.446418,1.775515 -0.0288,0.06457 -0.0576,0.161411 -0.0144,0.09685 -0.0432,0.225975 0.331213,-0.161411 0.964839,-0.645642 0.648026,-0.484232 1.800072,-1.420413 0.158407,-0.129128 0.316813,0.06457 0.172807,0.16141 0.230409,0.548795 0.072,0.355103 0,0.742488 -0.072,0.355104 -0.25921,0.516514 -0.662427,0.516514 -1.209649,0.936181 -0.547222,0.419667 -0.979239,0.710206 -0.590424,0.387385 -0.892836,0.548795 -0.288012,0.129129 -0.446418,0.129129 z"
           style="font-style:normal;font-variant:normal;font-weight:normal;font-stretch:normal;font-size:medium;line-height:125%;font-family:'Redacted Script';-inkscape-font-specification:'Redacted Script';letter-spacing:0px;word-spacing:0px;fill:#0e141f;fill-opacity:1;stroke:none;stroke-width:1px;stroke-linecap:butt;stroke-linejoin:miter;stroke-opacity:1"
           id="path5162"
           inkscape:connector-curvature="0" /><path
           d="m 37.213369,36.095357 q -0.172806,0 -0.288011,-0.225975 -0.230409,-0.419667 -0.129605,-1.065309 0,-0.03228 0.100804,-0.77477 0.115204,-0.742488 0.25921,-1.678669 0.072,-0.548796 0.129605,-0.936181 0.0576,-0.419667 0.100804,-0.742488 -0.302412,0.258257 -0.691227,0.581078 -0.388816,0.32282 -0.835234,0.710206 -0.432018,0.355103 -0.892836,0.742488 -0.460819,0.387385 -0.892836,0.742488 -0.158406,0.129128 -0.316813,-0.03228 -0.172807,-0.193693 -0.24481,-0.581078 -0.0576,-0.355103 0.0288,-0.710206 0.072,-0.387385 0.24481,-0.548796 0.648026,-0.516513 1.339254,-1.097591 0.705629,-0.581078 1.281652,-1.065309 0.576023,-0.484231 0.950438,-0.807052 0.388816,-0.322821 0.388816,-0.322821 0.072,-0.03228 0.129605,-0.03228 0.072,-0.03228 0.144006,0.03228 0.201608,0.06456 0.288012,0.516513 0.072,0.258257 0.0576,0.677924 0,0.387385 -0.072,1.129874 -0.0432,0.419667 -0.115205,0.93618 -0.0576,0.484232 -0.158406,1.129874 -0.0144,0.129128 -0.0288,0.225974 -0.0144,0.09685 -0.0288,0.225975 0.576023,-0.710206 1.411257,-1.484976 0.158406,-0.161411 0.316812,0 0.158407,0.129128 0.23041,0.484231 0.0864,0.355103 0.0144,0.742488 -0.072,0.387385 -0.230409,0.548796 -0.48962,0.484231 -0.907237,0.936181 -0.417616,0.451949 -0.720029,0.807052 -0.360014,0.419667 -0.648026,0.77477 -0.0864,0.161411 -0.216009,0.161411 z"
           style="font-style:normal;font-variant:normal;font-weight:normal;font-stretch:normal;font-size:medium;line-height:125%;font-family:'Redacted Script';-inkscape-font-specification:'Redacted Script';letter-spacing:0px;word-spacing:0px;fill:#0e141f;fill-opacity:1;stroke:none;stroke-width:1px;stroke-linecap:butt;stroke-linejoin:miter;stroke-opacity:1"
           id="path5164"
           inkscape:connector-curvature="0" /><path
           d="m 40.679184,37.935436 q -0.115205,0 -0.216009,-0.03228 -0.0864,-0.03228 -0.187207,-0.09685 -0.259211,-0.161411 -0.360015,-0.677924 -0.129605,-0.645642 0,-1.549541 0.144006,-0.93618 0.460819,-2.388875 0.0576,-0.258257 0.115205,-0.581077 0.0576,-0.322821 0.129605,-0.61336 -0.187208,0.16141 -0.403216,0.548795 -0.201609,0.355103 -0.417617,0.742489 -0.144006,0.258256 -0.316813,0.193692 -0.187208,-0.06456 -0.302412,-0.355103 -0.115205,-0.322821 -0.0864,-0.710206 0.0288,-0.387385 0.158407,-0.677924 0.201608,-0.322821 0.417616,-0.710206 0.216009,-0.387385 0.460819,-0.645642 0.590424,-0.677924 1.080044,-0.355103 0.230409,0.09685 0.345614,0.645642 0.115204,0.548795 -0.0144,1.291284 -0.115205,0.742488 -0.403216,2.098336 -0.072,0.387385 -0.158407,0.77477 -0.072,0.387385 -0.144005,0.742488 -0.0288,0.129129 -0.0432,0.225975 -0.0144,0.09685 -0.0288,0.193693 0.144005,-0.03228 0.360014,-0.193693 0.230409,-0.161411 0.518421,-0.484231 0.302412,-0.355104 0.691228,-0.936181 0.388816,-0.581078 0.892836,-1.452695 0.388816,-0.710206 0.73443,-1.38813 0.345613,-0.677924 0.604824,-1.226719 0.25921,-0.548796 0.417617,-0.903899 0.158406,-0.355103 0.158406,-0.355103 0.172807,-0.451949 0.417617,-0.290539 0.115205,0.06456 0.187208,0.225975 0.072,0.16141 0.115204,0.322821 0.100804,0.451949 0.0144,1.065309 -0.0864,0.61336 -0.316813,1.904644 -0.0864,0.419667 -0.172807,0.839334 -0.072,0.419667 -0.144006,0.77477 -0.0144,0.161411 -0.0432,0.355103 0.201609,-0.06456 0.432018,-0.355103 0.230409,-0.290539 0.460818,-0.645642 0.23041,-0.355103 0.432018,-0.742488 0.201608,-0.419667 0.360014,-0.710206 0.144006,-0.290539 0.316813,-0.258257 0.172807,0.03228 0.302412,0.322821 0.115205,0.322821 0.100804,0.710206 0,0.387386 -0.144005,0.677924 -0.331214,0.677924 -0.676828,1.291284 -0.345614,0.581078 -0.705628,1.033027 -0.345614,0.419668 -0.705629,0.61336 -0.360014,0.161411 -0.705628,-0.03228 -0.230409,-0.193693 -0.331213,-0.645642 -0.0864,-0.451949 -0.0576,-0.968463 0.0432,-0.548795 0.172807,-1.38813 -0.158406,0.322821 -0.331213,0.61336 -0.158406,0.290539 -0.345614,0.645642 -1.98728,3.518748 -3.096125,3.518748 z"
           style="font-style:normal;font-variant:normal;font-weight:normal;font-stretch:normal;font-size:medium;line-height:125%;font-family:'Redacted Script';-inkscape-font-specification:'Redacted Script';letter-spacing:0px;word-spacing:0px;fill:#0e141f;fill-opacity:1;stroke:none;stroke-width:1px;stroke-linecap:butt;stroke-linejoin:miter;stroke-opacity:1"
           id="path5166"
           inkscape:connector-curvature="0" /><path
           d="m 48.329493,37.935436 q -0.115205,0 -0.216009,-0.03228 -0.0864,-0.03228 -0.187208,-0.09685 -0.25921,-0.161411 -0.360014,-0.677924 -0.129605,-0.645642 0,-1.549541 0.144006,-0.93618 0.460818,-2.388875 0.0576,-0.258257 0.115205,-0.581077 0.0576,-0.322821 0.129605,-0.61336 -0.187207,0.16141 -0.403216,0.548795 -0.201608,0.355103 -0.417617,0.742489 -0.144006,0.258256 -0.316813,0.193692 -0.187207,-0.06456 -0.302412,-0.355103 -0.115204,-0.322821 -0.0864,-0.710206 0.0288,-0.387385 0.158406,-0.677924 0.201608,-0.322821 0.417617,-0.710206 0.216009,-0.387385 0.460819,-0.645642 0.590423,-0.677924 1.080043,-0.355103 0.230409,0.09685 0.345614,0.645642 0.115205,0.548795 -0.0144,1.291284 -0.115204,0.742488 -0.403216,2.098336 -0.072,0.387385 -0.158406,0.77477 -0.072,0.387385 -0.144006,0.742488 -0.0288,0.129129 -0.0432,0.225975 -0.0144,0.09685 -0.0288,0.193693 0.144006,-0.03228 0.360015,-0.193693 0.230409,-0.161411 0.51842,-0.484231 0.302413,-0.355104 0.691228,-0.936181 0.388816,-0.581078 0.892836,-1.452695 0.388816,-0.710206 0.73443,-1.38813 0.345614,-0.677924 0.604824,-1.226719 0.259211,-0.548796 0.417617,-0.903899 0.158407,-0.355103 0.158407,-0.355103 0.172807,-0.451949 0.417616,-0.290539 0.115205,0.06456 0.187208,0.225975 0.072,0.16141 0.115205,0.322821 0.100804,0.451949 0.0144,1.065309 -0.0864,0.61336 -0.316813,1.904644 -0.0864,0.419667 -0.172807,0.839334 -0.072,0.419667 -0.144005,0.77477 -0.0144,0.161411 -0.0432,0.355103 0.201608,-0.06456 0.432017,-0.355103 0.23041,-0.290539 0.460819,-0.645642 0.230409,-0.355103 0.432017,-0.742488 0.201608,-0.419667 0.360015,-0.710206 0.144006,-0.290539 0.316813,-0.258257 0.172807,0.03228 0.302412,0.322821 0.115204,0.322821 0.100804,0.710206 0,0.387386 -0.144006,0.677924 -0.331213,0.677924 -0.676827,1.291284 -0.345614,0.581078 -0.705629,1.033027 -0.345614,0.419668 -0.705628,0.61336 -0.360015,0.161411 -0.705629,-0.03228 -0.230409,-0.193693 -0.331213,-0.645642 -0.0864,-0.451949 -0.0576,-0.968463 0.0432,-0.548795 0.172807,-1.38813 -0.158407,0.322821 -0.331214,0.61336 -0.158406,0.290539 -0.345614,0.645642 -1.98728,3.518748 -3.096124,3.518748 z"
           style="font-style:normal;font-variant:normal;font-weight:normal;font-stretch:normal;font-size:medium;line-height:125%;font-family:'Redacted Script';-inkscape-font-specification:'Redacted Script';letter-spacing:0px;word-spacing:0px;fill:#0e141f;fill-opacity:1;stroke:none;stroke-width:1px;stroke-linecap:butt;stroke-linejoin:miter;stroke-opacity:1"
           id="path5168"
           inkscape:connector-curvature="0" /><path
           d="m 56.642228,38 q -0.072,0 -0.144006,-0.03228 -0.072,0 -0.158406,-0.03228 -0.172807,-0.129128 -0.288012,-0.548795 -0.0432,-0.193693 -0.0576,-0.45195 -0.0144,-0.290539 0.0288,-0.839334 0.0576,-0.548796 0.172807,-1.484977 0.129605,-0.968462 0.345614,-2.485721 -0.331214,0.258257 -0.73443,0.61336 -0.403216,0.355103 -0.835234,0.710206 -0.158406,0.129128 -0.316812,-0.03228 -0.172807,-0.193693 -0.24481,-0.581078 -0.0576,-0.355103 0.0288,-0.710206 0.072,-0.387385 0.24481,-0.548796 0.460818,-0.387385 0.892836,-0.742488 0.432017,-0.355103 0.763231,-0.61336 0.331213,-0.290538 0.532821,-0.451949 0.201608,-0.193692 0.201608,-0.193692 0.144006,-0.129129 0.273611,-0.03228 0.187208,0.09685 0.273611,0.484232 0.072,0.290539 0.0432,0.516513 -0.0144,0.225975 -0.0432,0.484232 -0.0288,0.129128 -0.0432,0.290539 -0.0144,0.129128 -0.0432,0.322821 -0.100804,0.548795 -0.216009,1.355848 -0.100804,0.77477 -0.216009,1.581822 -0.072,0.45195 -0.115204,0.774771 -0.0432,0.322821 -0.072,0.581077 0.273611,-0.129128 0.792032,-0.742488 0.446418,-0.548795 0.950438,-1.259002 0.50402,-0.710206 1.051242,-1.54954 0.115205,-0.161411 0.23041,-0.322821 0.115204,-0.161411 0.230409,-0.355103 0.158406,-0.225975 0.331213,-0.129129 0.172807,0.06457 0.288012,0.419668 0.100804,0.355103 0.0576,0.742488 -0.0288,0.355103 -0.187207,0.581078 -0.115205,0.193692 -0.24481,0.387385 -0.115205,0.16141 -0.24481,0.355103 -0.547222,0.807052 -1.065643,1.54954 -0.518421,0.742489 -0.979239,1.291284 Q 57.18945,38 56.642228,38 Z"
           style="font-style:normal;font-variant:normal;font-weight:normal;font-stretch:normal;font-size:medium;line-height:125%;font-family:'Redacted Script';-inkscape-font-specification:'Redacted Script';letter-spacing:0px;word-spacing:0px;fill:#0e141f;fill-opacity:1;stroke:none;stroke-width:1px;stroke-linecap:butt;stroke-linejoin:miter;stroke-opacity:1"
           id="path5170"
           inkscape:connector-curvature="0" /><path
           d="m 69.371666,35.126894 q -0.072,0 -0.115204,-0.03228 -0.23041,-0.129129 -0.331214,-0.387385 -0.0864,-0.290539 -0.115204,-0.45195 -0.115205,-0.710206 0.0576,-1.452694 0.187207,-0.77477 0.460818,-1.614105 0.0864,-0.258256 0.158407,-0.548795 0.072,-0.290539 0.144006,-0.548796 0.0144,-0.03228 0.0432,-0.129128 -0.0864,0.06456 -0.216008,0.193692 -0.115205,0.129129 -0.273611,0.387385 -0.259211,0.355103 -0.547222,0.936181 -0.288012,0.548796 -0.590424,1.162156 -0.072,0.16141 -0.158407,0.322821 -0.072,0.129128 -0.144005,0.290538 -0.129606,0.258257 -0.302413,0.258257 -0.187207,-0.03228 -0.302412,-0.355103 -0.129605,-0.290539 -0.115204,-0.677924 0.0144,-0.419667 0.144005,-0.677924 0.072,-0.16141 0.158407,-0.290539 0.072,-0.16141 0.144006,-0.322821 0.345613,-0.710206 0.676827,-1.323566 0.345614,-0.645642 0.662427,-1.097591 0.331213,-0.451949 0.648026,-0.645642 0.331213,-0.225974 0.633625,-0.03228 0.24481,0.161411 0.345614,0.451949 0.100804,0.290539 0.129605,0.516514 0.129606,0.742488 -0.0576,1.517259 -0.187208,0.77477 -0.475219,1.710951 -0.0288,0.06456 -0.072,0.225974 -0.0288,0.129129 -0.072,0.258257 0.216009,-0.193693 0.547222,-0.451949 0.345614,-0.290539 0.849634,-0.742489 0.187208,-0.129128 0.345614,0.06457 0.158407,0.16141 0.216009,0.548795 0.072,0.355103 -0.0144,0.742488 -0.072,0.355104 -0.230409,0.516514 -0.460818,0.355103 -0.835234,0.645642 -0.374415,0.290539 -0.633625,0.516513 -0.144006,0.129129 -0.259211,0.225975 -0.100804,0.06456 -0.187207,0.129128 -0.115205,0.06457 -0.187208,0.129129 -0.0576,0.03228 -0.129605,0.03228 z"
           style="font-style:normal;font-variant:normal;font-weight:normal;font-stretch:normal;font-size:medium;line-height:125%;font-family:'Redacted Script';-inkscape-font-specification:'Redacted Script';letter-spacing:0px;word-spacing:0px;fill:#0e141f;fill-opacity:1;stroke:none;stroke-width:1px;stroke-linecap:butt;stroke-linejoin:miter;stroke-opacity:1"
           id="path5172"
           inkscape:connector-curvature="0" /><path
           d="m 76.476778,35.772536 q -0.100804,0 -0.187207,-0.06456 -0.273611,-0.129129 -0.388816,-0.742489 -0.0864,-0.548795 0.0432,-1.226719 0.129605,-0.677924 0.374415,-1.517259 0.0864,-0.290538 0.158406,-0.581077 0.0864,-0.322821 0.144006,-0.581078 0.0432,-0.129128 0.072,-0.322821 -0.432017,-0.161411 -1.008041,-0.06456 -0.561622,0.06456 -1.267251,0.484231 -0.633625,0.355103 -1.339254,0.936181 -0.705628,0.548796 -1.49766,1.323566 -0.158407,0.16141 -0.316813,0.03228 -0.158406,-0.16141 -0.230409,-0.516514 -0.0864,-0.355103 -0.0144,-0.742488 0.072,-0.387385 0.230409,-0.548795 0.820834,-0.807053 1.540863,-1.38813 0.734429,-0.61336 1.411256,-0.968463 1.771272,-1.000745 2.894517,-0.322821 0.331214,0.193692 0.460819,0.903898 0.129605,0.742489 -0.0576,1.614105 -0.187207,0.839335 -0.446418,1.775515 -0.0288,0.06457 -0.0576,0.161411 -0.0144,0.09685 -0.0432,0.225975 0.331214,-0.161411 0.964839,-0.645642 0.648026,-0.484232 1.800073,-1.420413 0.158406,-0.129128 0.316813,0.06457 0.172807,0.16141 0.230409,0.548795 0.072,0.355103 0,0.742488 -0.072,0.355104 -0.25921,0.516514 -0.662427,0.516514 -1.209649,0.936181 -0.547222,0.419667 -0.97924,0.710206 -0.590424,0.387385 -0.892836,0.548795 -0.288011,0.129129 -0.446418,0.129129 z"
           style="font-style:normal;font-variant:normal;font-weight:normal;font-stretch:normal;font-size:medium;line-height:125%;font-family:'Redacted Script';-inkscape-font-specification:'Redacted Script';letter-spacing:0px;word-spacing:0px;fill:#0e141f;fill-opacity:1;stroke:none;stroke-width:1px;stroke-linecap:butt;stroke-linejoin:miter;stroke-opacity:1"
           id="path5174"
           inkscape:connector-curvature="0" /><path
           d="m 88.063976,37.160023 q -0.1152,0 -0.216,-0.03228 -0.0864,-0.03228 -0.18721,-0.09685 -0.25921,-0.161411 -0.36002,-0.677924 -0.1296,-0.645642 0,-1.549541 0.14401,-0.93618 0.46082,-2.388875 0.0576,-0.258257 0.11521,-0.581077 0.0576,-0.322821 0.1296,-0.61336 -0.18721,0.16141 -0.40321,0.548795 -0.20161,0.355103 -0.41762,0.742489 -0.14401,0.258256 -0.31681,0.193692 -0.18721,-0.06456 -0.30242,-0.355103 -0.1152,-0.322821 -0.0864,-0.710206 0.0288,-0.387385 0.15841,-0.677924 0.20161,-0.322821 0.41762,-0.710206 0.21601,-0.387385 0.46082,-0.645642 0.59042,-0.677924 1.08004,-0.355103 0.23041,0.09685 0.34561,0.645642 0.11521,0.548795 -0.0144,1.291284 -0.1152,0.742488 -0.40321,2.098336 -0.072,0.387385 -0.15841,0.77477 -0.072,0.387385 -0.14401,0.742488 -0.0288,0.129129 -0.0432,0.225975 -0.0144,0.09685 -0.0288,0.193693 0.14401,-0.03228 0.36002,-0.193693 0.23041,-0.161411 0.51842,-0.484231 0.30241,-0.355104 0.69123,-0.936181 0.38881,-0.581078 0.89283,-1.452695 0.38882,-0.710206 0.73443,-1.38813 0.34562,-0.677924 0.60483,-1.226719 0.25921,-0.548796 0.41761,-0.903899 0.15841,-0.355103 0.15841,-0.355103 0.17281,-0.451949 0.41762,-0.290539 0.1152,0.06456 0.18721,0.225975 0.072,0.16141 0.1152,0.322821 0.1008,0.451949 0.0144,1.065309 -0.0864,0.61336 -0.31681,1.904644 -0.0864,0.419667 -0.17281,0.839334 -0.072,0.419667 -0.144,0.77477 -0.0144,0.161411 -0.0432,0.355103 0.2016,-0.06456 0.43201,-0.355103 0.23041,-0.290539 0.46082,-0.645642 0.23041,-0.355103 0.43202,-0.742488 0.20161,-0.419667 0.36001,-0.710206 0.14401,-0.290539 0.31682,-0.258257 0.1728,0.03228 0.30241,0.322821 0.1152,0.322821 0.1008,0.710206 0,0.387386 -0.144,0.677924 -0.33122,0.677924 -0.67683,1.291284 -0.34561,0.581078 -0.70563,1.033027 -0.34561,0.419668 -0.70563,0.61336 -0.36001,0.161411 -0.70563,-0.03228 -0.23041,-0.193693 -0.33121,-0.645642 -0.0864,-0.451949 -0.0576,-0.968463 0.0432,-0.548795 0.17281,-1.38813 -0.15841,0.322821 -0.33122,0.61336 -0.1584,0.290539 -0.34561,0.645642 -1.98728,3.518748 -3.09612,3.518748 z"
           style="font-style:normal;font-variant:normal;font-weight:normal;font-stretch:normal;font-size:medium;line-height:125%;font-family:'Redacted Script';-inkscape-font-specification:'Redacted Script';letter-spacing:0px;word-spacing:0px;fill:#0e141f;fill-opacity:1;stroke:none;stroke-width:1px;stroke-linecap:butt;stroke-linejoin:miter;stroke-opacity:1"
           id="path5176-2"
           inkscape:connector-curvature="0" /></g><rect
         style="opacity:0.5;fill:none;fill-opacity:1;fill-rule:nonzero;stroke:url(#linearGradient4320);stroke-width:1.04172;stroke-linecap:butt;stroke-linejoin:miter;stroke-miterlimit:4;stroke-dasharray:none;stroke-dashoffset:0;stroke-opacity:0.552632"
         id="rect4312"
         width="101.95827"
         height="101.95827"
         x="14.520863"
         y="15.52087"
         rx="1.479126"
         ry="1.4791298" /><rect
         style="opacity:1;fill:#f9c440;fill-opacity:1;fill-rule:nonzero;stroke:none;stroke-width:1;stroke-linecap:butt;stroke-linejoin:miter;stroke-miterlimit:4;stroke-dasharray:none;stroke-dashoffset:0;stroke-opacity:0.552632"
         id="rect4322"
         width="103"
         height="1"
         x="14"
         y="116"
         rx="0"
         ry="0" /><rect
         style="opacity:1;fill:#f9c440;fill-opacity:1;fill-rule:nonzero;stroke:none;stroke-width:1;stroke-linecap:butt;stroke-linejoin:miter;stroke-miterlimit:4;stroke-dasharray:none;stroke-dashoffset:0;stroke-opacity:0.552632"
         id="rect4322-3"
         width="103"
         height="1"
         x="14"
         y="112"
         rx="0"
         ry="0" /><rect
         style="opacity:1;fill:#f9c440;fill-opacity:1;fill-rule:nonzero;stroke:none;stroke-width:1;stroke-linecap:butt;stroke-linejoin:miter;stroke-miterlimit:4;stroke-dasharray:none;stroke-dashoffset:0;stroke-opacity:0.552632"
         id="rect4322-6"
         width="103"
         height="1"
         x="14"
         y="108"
         rx="0"
         ry="0" /><rect
         style="opacity:0.75;fill:#d48e15;fill-opacity:1;fill-rule:nonzero;stroke:none;stroke-width:1;stroke-linecap:butt;stroke-linejoin:miter;stroke-miterlimit:4;stroke-dasharray:none;stroke-dashoffset:0;stroke-opacity:0.552632"
         id="rect4322-36"
         width="103"
         height="1"
         x="14"
         y="115"
         rx="0"
         ry="0" /><rect
         style="opacity:0.75;fill:#d48e15;fill-opacity:1;fill-rule:nonzero;stroke:none;stroke-width:1;stroke-linecap:butt;stroke-linejoin:miter;stroke-miterlimit:4;stroke-dasharray:none;stroke-dashoffset:0;stroke-opacity:0.552632"
         id="rect4322-3-7"
         width="103"
         height="1"
         x="14"
         y="111"
         rx="0"
         ry="0" /><rect
         style="opacity:0.75;fill:#d48e15;fill-opacity:1;fill-rule:nonzero;stroke:none;stroke-width:1;stroke-linecap:butt;stroke-linejoin:miter;stroke-miterlimit:4;stroke-dasharray:none;stroke-dashoffset:0;stroke-opacity:0.552632"
         id="rect4322-6-5"
         width="103"
         height="1"
         x="14"
         y="107"
         rx="0"
         ry="0" /><rect
         style="opacity:0.3;fill:#ffffff;fill-opacity:1;fill-rule:nonzero;stroke:none;stroke-width:1;stroke-linecap:butt;stroke-linejoin:miter;stroke-miterlimit:4;stroke-dasharray:none;stroke-dashoffset:0;stroke-opacity:0.552632"
         id="rect4426"
         width="102"
         height="1"
         x="15"
         y="106"
         rx="0"
         ry="0" /><rect
         style="opacity:0.3;fill:#ffffff;fill-opacity:1;fill-rule:nonzero;stroke:none;stroke-width:1;stroke-linecap:butt;stroke-linejoin:miter;stroke-miterlimit:4;stroke-dasharray:none;stroke-dashoffset:0;stroke-opacity:0.552632"
         id="rect4426-0"
         width="102"
         height="1"
         x="15"
         y="110"
         rx="0"
         ry="0" /><rect
         style="opacity:0.3;fill:#ffffff;fill-opacity:1;fill-rule:nonzero;stroke:none;stroke-width:1;stroke-linecap:butt;stroke-linejoin:miter;stroke-miterlimit:4;stroke-dasharray:none;stroke-dashoffset:0;stroke-opacity:0.552632"
         id="rect4426-9"
         width="102"
         height="1"
         x="15"
         y="114"
         rx="0"
         ry="0" /></g></g></svg>
