<?xml version="1.0" encoding="UTF-8" standalone="no"?>
<svg
   width="100%"
   height="100%"
   viewBox="0 0 267 267"
   version="1.1"
   xml:space="preserve"
   style="fill-rule:evenodd;clip-rule:evenodd;stroke-linecap:round;stroke-linejoin:round;stroke-miterlimit:1.5;"
   id="svg16"
   sodipodi:docname="com.github.gi_lom.dialect.svg"
   inkscape:version="1.1.1 (3bf5ae0d25, 2021-09-20, custom)"
   xmlns:inkscape="http://www.inkscape.org/namespaces/inkscape"
   xmlns:sodipodi="http://sodipodi.sourceforge.net/DTD/sodipodi-0.dtd"
   xmlns="http://www.w3.org/2000/svg"
   xmlns:svg="http://www.w3.org/2000/svg"><defs
     id="defs20"><rect
       x="50.075241"
       y="173.48016"
       width="149.6568"
       height="54.749278"
       id="rect26233" /><inkscape:path-effect
       effect="spiro"
       id="path-effect1153"
       is_visible="true"
       lpeversion="1" /><linearGradient
       id="a"
       y1="543.8"
       y2="503.8"
       x1="434.57"
       gradientUnits="userSpaceOnUse"
       x2="384.57"
       gradientTransform="matrix(0.6875,0,0,0.9,128.18,52.38)"><stop
         stop-color="#343b40"
         id="stop15765" /><stop
         offset="1"
         stop-color="#555e63"
         id="stop15767" /></linearGradient><linearGradient
       id="b"
       y1="543.8"
       y2="503.8"
       x2="0"
       gradientUnits="userSpaceOnUse"
       gradientTransform="matrix(1.15625,0,0,1,-63.34,0)"><stop
         stop-color="#bd8d48"
         id="stop15770" /><stop
         offset="1"
         stop-color="#e8b971"
         id="stop15772" /></linearGradient><linearGradient
       id="c"
       y1="17.14"
       y2="33.14"
       x1="37.581"
       gradientUnits="userSpaceOnUse"
       x2="53.58"
       gradientTransform="translate(362.99,498.66)"><stop
         stop-color="#383e51"
         id="stop15775" /><stop
         offset="1"
         stop-color="#655c6f"
         stop-opacity="0"
         id="stop15777" /></linearGradient></defs><sodipodi:namedview
     id="namedview18"
     pagecolor="#ffffff"
     bordercolor="#666666"
     borderopacity="1.0"
     inkscape:pageshadow="2"
     inkscape:pageopacity="0.0"
     inkscape:pagecheckerboard="0"
     showgrid="false"
     inkscape:zoom="1.0156384"
     inkscape:cx="151.13647"
     inkscape:cy="113.22928"
     inkscape:window-width="1861"
     inkscape:window-height="1047"
     inkscape:window-x="59"
     inkscape:window-y="33"
     inkscape:window-maximized="1"
     inkscape:current-layer="g27601"
     showguides="true"
     inkscape:guide-bbox="true" /><clipPath
     id="_clip1"><path
       d="M250.44,54.927c0,-21.142 -17.139,-38.281 -38.281,-38.281l-156.812,-0c-21.142,-0 -38.282,17.139 -38.282,38.281l0,156.813c0,21.142 17.14,38.281 38.282,38.281l156.812,-0c21.142,-0 38.281,-17.139 38.281,-38.281l0,-156.813Z"
       id="path5" /></clipPath><g
     id="g27601"
     transform="matrix(2.2081558,0,0,2.2081558,-1.6578526,-33.932856)"><path
       d="m 61.153549,35.743477 5.062828,78.356863 c 1.096707,1.66489 2.301286,2.37445 4.142315,2.37445 H 94.292064 V 35.743477 Z m 0,0"
       fill="#deddda"
       id="path27520"
       style="stroke-width:1.0454" /><path
       d="m 66.303136,109.51673 -3.46304,-76.394342 c -1.06276,-1.643973 -2.252899,-2.360101 -4.094005,-2.398776 L 34.712704,30.661302 33.163215,108.8206 Z"
       fill="#deddda"
       id="path27520-2"
       style="clip-rule:evenodd;fill:#5fb586;fill-opacity:1;fill-rule:evenodd;stroke-width:1.03176;stroke-linecap:round;stroke-linejoin:round;stroke-miterlimit:1.5"
       sodipodi:nodetypes="ccsccc" /><path
       d="m 87.154483,35.743477 h 18.410277 c 4.0668,0 7.36411,4.252676 7.36411,9.497798 v 61.735715 c 0,5.24513 -3.29731,9.4978 -7.36411,9.4978 H 87.154483 c -4.066804,0 -7.364115,-4.25267 -7.364115,-9.4978 V 45.241275 c 0,-5.245122 3.297311,-9.497798 7.364115,-9.497798 z m 0,0"
       fill="#deddda"
       id="path27522"
       style="stroke-width:1.0454" /><path
       d="m 21.040506,30.642903 h 14.783225 12.692484 c 6.069342,0 10.990284,4.136972 10.990284,9.239387 v 60.056007 c 0,5.102413 -4.920942,9.239373 -10.990284,9.239373 H 21.040506 c -6.069342,0 -10.990285,-4.13696 -10.990285,-9.239373 V 39.88229 c 0,-5.102415 4.920943,-9.239387 10.990285,-9.239387 z"
       fill="#33d17a"
       id="path27524"
       style="stroke-width:1.25961;fill:#5fb586;fill-opacity:1"
       sodipodi:nodetypes="scssssssss" /><g
       fill="#77767b"
       id="g27560"
       transform="matrix(0.92051432,0,0,0.92051432,5.9226897,0.61611988)"><path
         d="m 86,85 h 18 v 3 H 86 Z m 0,0"
         id="path27526" /><path
         d="M 86,100 V 85 h 3 v 15 z m 0,0"
         id="path27528" /><path
         d="M 101,100 V 85 h 3 v 15 z m 0,0"
         id="path27530" /><path
         d="m 86,95 h 18 v 3 H 86 Z m 0,0"
         id="path27532" /><path
         d="m 83,79 h 23 v 3 H 83 Z m 0,0"
         id="path27534" /><path
         d="m 83,64 h 23 v 3 H 83 Z m 0,0"
         id="path27536" /><path
         d="m 83,71 h 19 v 3 H 83 Z m 0,0"
         id="path27538" /><path
         d="m 99,80 v -8 h 3 v 8 z m 0,0"
         id="path27540" /><path
         d="m 86.550781,79.613281 3.882813,-14.492187 2.898437,0.777344 -3.882812,14.488281 z m 0,0"
         id="path27542" /><path
         d="m 69,85 h 10 v 3 H 69 Z m 0,0"
         id="path27544" /><path
         d="M 69,100 V 85 h 3 v 15 z m 0,0"
         id="path27546" /><path
         d="M 78,98 V 85 h 3 v 13 z m 0,0"
         id="path27548" /><path
         d="m 69,95 h 10 v 3 H 69 Z m 0,0"
         id="path27550" /><path
         d="m 69,79 h 11 v 3 H 69 Z m 0,0"
         id="path27552" /><path
         d="m 71,74 h 7 v 3 h -7 z m 0,0"
         id="path27554" /><path
         d="m 67,69 h 15 v 3 H 67 Z m 0,0"
         id="path27556" /><path
         d="m 69,64 h 11 v 3 H 69 Z m 0,0"
         id="path27558" /></g><path
       d="m 79.000346,101.56596 c 0.699219,1.74609 0.183594,4.13672 -2,5 l -9,6 c -1.480469,0.73047 -4,4 0,5.94922 -3.402344,-0.44531 -4.125,-2.87109 -5,-4.94922 l -16,-43.000004 26,16 z m 0,0"
       fill="url(#a)"
       id="path27562"
       style="fill:url(#a-5)" /><path
       d="m 38.167077,39.277721 v 62.594969 h 37.741087 c 1.841029,0 3.861845,1.17942 4.602572,2.76155 0,0 -16.263619,-52.631128 -18.410286,-58.862578 -1.298069,-3.354844 -2.894586,-6.493941 -6.493942,-6.493941 z m 0,0"
       fill="url(#b)"
       id="path27564"
       style="fill:url(#b-6);stroke-width:0.920514" /><path
       d="M 36.759918,84.382922 H 28.47529 V 64.131608 h 8.284628 c 5.591406,0 10.125658,4.534251 10.125658,10.125657 0,5.591406 -4.534252,10.125657 -10.125658,10.125657 z m 0,0"
       fill="none"
       stroke="#ffffff"
       stroke-width="5.52309"
       id="path27568" /></g></svg>
