<?xml version="1.0" encoding="UTF-8" standalone="no"?>
<!DOCTYPE svg PUBLIC "-//W3C//DTD SVG 1.1//EN" "http://www.w3.org/Graphics/SVG/1.1/DTD/svg11.dtd">
<svg version="1.1" xmlns="http://www.w3.org/2000/svg" xmlns:xlink="http://www.w3.org/1999/xlink" preserveAspectRatio="xMidYMid meet" viewBox="0 0 640 640" width="64" height="64"><defs><path d="M570.52 40.94C581.56 40.94 590.52 49.89 590.52 60.94C590.52 167.88 590.52 468.7 590.52 575.64C590.52 586.69 581.56 595.64 570.52 595.64C468.59 595.64 182.8 595.64 80.87 595.64C69.83 595.64 60.87 586.69 60.87 575.64C60.87 468.7 60.87 167.88 60.87 60.94C60.87 49.89 69.83 40.94 80.87 40.94C182.8 40.94 468.59 40.94 570.52 40.94Z" id="fIm2u6Ex"></path><path d="M81.93 337.26L571.7 337.26L571.7 577.95L81.93 577.95L81.93 337.26Z" id="b1cwWAhb2"></path><path d="M78.3 578.84C78.3 582.12 83.32 584.77 89.51 584.77C136.61 584.77 513.39 584.77 560.49 584.77C566.68 584.77 571.7 582.12 571.7 578.84C571.7 553.94 571.7 354.7 571.7 329.79C571.7 326.52 566.68 323.86 560.49 323.86C513.39 323.86 136.61 323.86 89.51 323.86C83.32 323.86 78.3 326.52 78.3 329.79C78.3 379.6 78.3 553.94 78.3 578.84ZM240.27 454.32L240.27 335.72L280.14 335.72L280.14 454.32L308.17 454.32C308.17 525.18 308.17 564.55 308.17 572.42C308.17 572.59 308.24 572.75 308.27 572.91C298.66 572.91 221.76 572.91 212.14 572.91C212.17 572.75 212.24 572.59 212.24 572.42C212.24 564.55 212.24 525.18 212.23 454.32L212.23 454.32L240.27 454.32ZM426.55 572.91C368.92 572.91 336.91 572.91 330.5 572.91C330.53 572.75 330.61 572.59 330.61 572.42C330.61 564.55 330.61 525.18 330.61 454.32L358.64 454.32L358.64 335.72L398.51 335.72L398.51 454.32L426.55 454.32L426.55 572.91ZM448.97 572.91L448.97 454.32L477.01 454.32L477.01 335.72L549.28 335.72L549.28 572.91L448.97 572.91ZM161.77 335.72L161.77 454.32L189.81 454.32C189.81 525.18 189.81 564.55 189.81 572.42C189.81 572.59 189.87 572.75 189.9 572.91C183.96 572.91 154.23 572.91 100.72 572.91L100.72 335.72L161.77 335.72Z" id="a55y2AL6jR"></path><path d="M559.2 59.55C566.11 59.55 571.7 65.14 571.7 72.05C571.7 119.55 571.7 246.89 571.7 293.73C571.7 302.45 564.6 309.5 555.89 309.44C460.37 308.75 188.34 306.8 92.5 306.11C84.64 306.06 78.3 299.67 78.3 291.81C78.3 245.36 78.3 118.84 78.3 72.05C78.3 65.14 83.89 59.55 90.8 59.55C186.98 59.55 463.02 59.55 559.2 59.55Z" id="bHP3QB0gJ"></path><path d="M99.89 78.86L548.07 78.86L548.07 290.68L99.89 290.68L99.89 78.86Z" id="b3yPoA7SxG"></path><path d="M256.36 116.59C260.44 116.59 263.75 119.9 263.75 123.98C263.75 125.45 263.75 122.5 263.75 123.98C263.75 128.06 260.44 131.36 256.36 131.36C234.66 131.36 176.93 131.36 155.23 131.36C151.15 131.36 147.84 128.06 147.84 123.98C147.84 122.5 147.84 125.45 147.84 123.98C147.84 119.9 151.15 116.59 155.23 116.59C176.93 116.59 234.66 116.59 256.36 116.59Z" id="bJ2DYc1rW"></path><path d="M434.32 162.73C438.4 162.73 441.7 166.03 441.7 170.11C441.7 171.59 441.7 168.64 441.7 170.11C441.7 174.19 438.4 177.5 434.32 177.5C397.84 177.5 295.8 177.5 259.32 177.5C255.24 177.5 251.93 174.19 251.93 170.11C251.93 168.64 251.93 171.59 251.93 170.11C251.93 166.03 255.24 162.73 259.32 162.73C295.8 162.73 397.84 162.73 434.32 162.73Z" id="d2eakvAN6Z"></path><path d="M206.65 162.73C208.69 162.73 210.34 164.38 210.34 166.42C210.34 168.64 210.34 171.59 210.34 173.81C210.34 175.85 208.69 177.5 206.65 177.5C190.34 177.5 145.11 177.5 128.81 177.5C126.77 177.5 125.11 175.85 125.11 173.81C125.11 171.59 125.11 168.64 125.11 166.42C125.11 164.38 126.77 162.73 128.81 162.73C145.11 162.73 190.34 162.73 206.65 162.73Z" id="b1I3w5whzv"></path><path d="M326.19 116.59C328.23 116.59 329.89 118.24 329.89 120.28C329.89 122.5 329.89 125.45 329.89 127.67C329.89 129.71 328.23 131.36 326.19 131.36C322.98 131.36 317.02 131.36 313.81 131.36C311.77 131.36 310.11 129.71 310.11 127.67C310.11 125.45 310.11 122.5 310.11 120.28C310.11 118.24 311.77 116.59 313.81 116.59C317.02 116.59 322.98 116.59 326.19 116.59Z" id="a1732Em9Vm"></path><path d="M485.97 162.73C488.01 162.73 489.66 164.38 489.66 166.42C489.66 168.64 489.66 171.59 489.66 173.81C489.66 175.85 488.01 177.5 485.97 177.5C482.75 177.5 476.8 177.5 473.58 177.5C471.54 177.5 469.89 175.85 469.89 173.81C469.89 171.59 469.89 168.64 469.89 166.42C469.89 164.38 471.54 162.73 473.58 162.73C476.8 162.73 482.75 162.73 485.97 162.73Z" id="e5tvZPFI2b"></path><path d="M505.74 211.14C507.78 211.14 509.43 212.79 509.43 214.83C509.43 217.05 509.43 220 509.43 222.22C509.43 224.26 507.78 225.91 505.74 225.91C502.52 225.91 496.57 225.91 493.35 225.91C491.31 225.91 489.66 224.26 489.66 222.22C489.66 220 489.66 217.05 489.66 214.83C489.66 212.79 491.31 211.14 493.35 211.14C496.57 211.14 502.52 211.14 505.74 211.14Z" id="ae3RxO0tg"></path><path d="M459.32 211.14C463.4 211.14 466.7 214.44 466.7 218.52C466.7 220 466.7 217.05 466.7 218.52C466.7 222.6 463.4 225.91 459.32 225.91C437.61 225.91 379.89 225.91 358.18 225.91C354.1 225.91 350.8 222.6 350.8 218.52C350.8 217.05 350.8 220 350.8 218.52C350.8 214.44 354.1 211.14 358.18 211.14C379.89 211.14 437.61 211.14 459.32 211.14Z" id="aPCqjbRSy"></path><path d="M306.42 211.14C308.46 211.14 310.11 212.79 310.11 214.83C310.11 217.05 310.11 220 310.11 222.22C310.11 224.26 308.46 225.91 306.42 225.91C291.16 225.91 249.07 225.91 233.81 225.91C231.77 225.91 230.11 224.26 230.11 222.22C230.11 220 230.11 217.05 230.11 214.83C230.11 212.79 231.77 211.14 233.81 211.14C249.07 211.14 291.16 211.14 306.42 211.14Z" id="cpJJ7I2jE"></path><path d="M189.38 211.14C191.41 211.14 193.07 212.79 193.07 214.83C193.07 217.05 193.07 220 193.07 222.22C193.07 224.26 191.41 225.91 189.38 225.91C186.16 225.91 180.2 225.91 176.99 225.91C174.95 225.91 173.3 224.26 173.3 222.22C173.3 220 173.3 217.05 173.3 214.83C173.3 212.79 174.95 211.14 176.99 211.14C180.2 211.14 186.16 211.14 189.38 211.14Z" id="d10tzVnnzV"></path><path d="M484.23 116.59C487.23 116.59 489.66 119.02 489.66 122.02C489.66 123.89 489.66 124.06 489.66 125.93C489.66 128.93 487.23 131.36 484.23 131.36C468.27 131.36 425.82 131.36 409.86 131.36C406.86 131.36 404.43 128.93 404.43 125.93C404.43 124.06 404.43 123.89 404.43 122.02C404.43 119.02 406.86 116.59 409.86 116.59C425.82 116.59 468.27 116.59 484.23 116.59Z" id="d2sJdiEqD"></path><path d="M442.05 302.73C445.94 302.73 449.09 305.88 449.09 309.77C449.09 313.45 449.09 317.45 449.09 321.14C449.09 325.03 445.94 328.18 442.05 328.18C390.27 328.18 242 328.18 190.23 328.18C186.34 328.18 183.18 325.03 183.18 321.14C183.18 317.45 183.18 313.45 183.18 309.77C183.18 305.88 186.34 302.73 190.23 302.73C242 302.73 390.27 302.73 442.05 302.73Z" id="bjCEtjcEV"></path><path d="M329.2 50.32C329.2 53.3 326.86 55.71 323.98 55.71C321.09 55.71 318.75 53.3 318.75 50.32C318.75 47.35 321.09 44.94 323.98 44.94C326.86 44.94 329.2 47.35 329.2 50.32Z" id="grzq5il4Q"></path><path d="M488.55 252.5C491.55 252.5 493.98 254.93 493.98 257.93C493.98 259.8 493.98 259.97 493.98 261.84C493.98 264.84 491.55 267.27 488.55 267.27C472.59 267.27 430.14 267.27 414.18 267.27C411.18 267.27 408.75 264.84 408.75 261.84C408.75 259.97 408.75 259.8 408.75 257.93C408.75 254.93 411.18 252.5 414.18 252.5C430.14 252.5 472.59 252.5 488.55 252.5Z" id="a5iN51DbY"></path><path d="M288.41 252.5C292.49 252.5 295.8 255.81 295.8 259.89C295.8 261.36 295.8 258.41 295.8 259.89C295.8 263.97 292.49 267.27 288.41 267.27C251.93 267.27 149.89 267.27 113.41 267.27C109.33 267.27 106.02 263.97 106.02 259.89C106.02 258.41 106.02 261.36 106.02 259.89C106.02 255.81 109.33 252.5 113.41 252.5C149.89 252.5 251.93 252.5 288.41 252.5Z" id="ccMBTUvth"></path><path d="M356.99 252.5C359.03 252.5 360.68 254.15 360.68 256.19C360.68 258.41 360.68 261.36 360.68 263.58C360.68 265.62 359.03 267.27 356.99 267.27C353.77 267.27 347.82 267.27 344.6 267.27C342.56 267.27 340.91 265.62 340.91 263.58C340.91 261.36 340.91 258.41 340.91 256.19C340.91 254.15 342.56 252.5 344.6 252.5C347.82 252.5 353.77 252.5 356.99 252.5Z" id="enkgKNz1p"></path></defs><g><g><g><use xlink:href="#fIm2u6Ex" opacity="1" fill="#909090" fill-opacity="1"></use></g><g><use xlink:href="#b1cwWAhb2" opacity="1" fill="#e0e0e0" fill-opacity="1"></use></g><g><use xlink:href="#a55y2AL6jR" opacity="1" fill="#232323" fill-opacity="1"></use><g><use xlink:href="#a55y2AL6jR" opacity="1" fill-opacity="0" stroke="#000000" stroke-width="0" stroke-opacity="0"></use></g></g><g><use xlink:href="#bHP3QB0gJ" opacity="1" fill="#232323" fill-opacity="1"></use></g><g><use xlink:href="#b3yPoA7SxG" opacity="1" fill="#ba679d" fill-opacity="1"></use></g><g><use xlink:href="#bJ2DYc1rW" opacity="1" fill="#e0e0e0" fill-opacity="1"></use></g><g><use xlink:href="#d2eakvAN6Z" opacity="1" fill="#e0e0e0" fill-opacity="1"></use></g><g><use xlink:href="#b1I3w5whzv" opacity="1" fill="#e0e0e0" fill-opacity="1"></use></g><g><use xlink:href="#a1732Em9Vm" opacity="1" fill="#e0e0e0" fill-opacity="1"></use></g><g><use xlink:href="#e5tvZPFI2b" opacity="1" fill="#e0e0e0" fill-opacity="1"></use></g><g><use xlink:href="#ae3RxO0tg" opacity="1" fill="#e0e0e0" fill-opacity="1"></use></g><g><use xlink:href="#aPCqjbRSy" opacity="1" fill="#e0e0e0" fill-opacity="1"></use></g><g><use xlink:href="#cpJJ7I2jE" opacity="1" fill="#e0e0e0" fill-opacity="1"></use></g><g><use xlink:href="#d10tzVnnzV" opacity="1" fill="#e0e0e0" fill-opacity="1"></use></g><g><use xlink:href="#d2sJdiEqD" opacity="1" fill="#e0e0e0" fill-opacity="1"></use></g><g><use xlink:href="#bjCEtjcEV" opacity="1" fill="#232323" fill-opacity="1"></use></g><g><use xlink:href="#grzq5il4Q" opacity="1" fill="#232323" fill-opacity="1"></use></g><g><use xlink:href="#a5iN51DbY" opacity="1" fill="#e0e0e0" fill-opacity="1"></use></g><g><use xlink:href="#ccMBTUvth" opacity="1" fill="#e0e0e0" fill-opacity="1"></use></g><g><use xlink:href="#enkgKNz1p" opacity="1" fill="#e0e0e0" fill-opacity="1"></use></g></g></g></svg>