<?xml version="1.0" encoding="UTF-8" standalone="no"?>
<svg
   xmlns:dc="http://purl.org/dc/elements/1.1/"
   xmlns:cc="http://creativecommons.org/ns#"
   xmlns:rdf="http://www.w3.org/1999/02/22-rdf-syntax-ns#"
   xmlns:svg="http://www.w3.org/2000/svg"
   xmlns="http://www.w3.org/2000/svg"
   xmlns:xlink="http://www.w3.org/1999/xlink"
   xmlns:sodipodi="http://sodipodi.sourceforge.net/DTD/sodipodi-0.dtd"
   xmlns:inkscape="http://www.inkscape.org/namespaces/inkscape"
   version="1.1"
   preserveAspectRatio="xMidYMid meet"
   viewBox="0 0 640 640"
   width="64"
   height="64"
   id="svg118"
   sodipodi:docname="com.rafaelmardojai.Blanket2.svg.svg"
   inkscape:version="1.0.1 (3bc2e813f5, 2020-09-07)">
  <metadata
     id="metadata122">
    <rdf:RDF>
      <cc:Work
         rdf:about="">
        <dc:format>image/svg+xml</dc:format>
        <dc:type
           rdf:resource="http://purl.org/dc/dcmitype/StillImage" />
      </cc:Work>
    </rdf:RDF>
  </metadata>
  <sodipodi:namedview
     pagecolor="#ffffff"
     bordercolor="#666666"
     borderopacity="1"
     objecttolerance="10"
     gridtolerance="10"
     guidetolerance="10"
     inkscape:pageopacity="0"
     inkscape:pageshadow="2"
     inkscape:window-width="1850"
     inkscape:window-height="1048"
     id="namedview120"
     showgrid="false"
     inkscape:zoom="4.574097"
     inkscape:cx="31.188627"
     inkscape:cy="31.838086"
     inkscape:window-x="70"
     inkscape:window-y="32"
     inkscape:window-maximized="1"
     inkscape:current-layer="g114" />
  <defs
     id="defs24">
    <path
       d="M459.6 36.25C535.75 36.25 597.49 97.98 597.49 174.14C597.49 260.74 597.49 382.67 597.49 469.28C597.49 545.43 535.75 607.17 459.6 607.17C376.86 607.17 266.55 607.17 183.82 607.17C107.66 607.17 45.93 545.43 45.93 469.28C45.93 382.67 45.93 260.74 45.93 174.14C45.93 97.98 107.66 36.25 183.82 36.25C266.55 36.25 376.86 36.25 459.6 36.25Z"
       id="cKDpSYvbU" />
    <path
       d="M483.49 92.06C516.88 92.06 543.95 119.13 543.95 152.52C543.95 204.03 543.95 332.8 543.95 538.83L121.11 538.83C121.11 327.8 121.11 195.91 121.11 143.16C121.11 114.94 143.98 92.06 172.2 92.06C246.55 92.06 411.02 92.06 483.49 92.06Z"
       id="bqBwly0nw" />
    <path
       d="M481.59 92.06C516.03 92.06 543.95 119.98 543.95 154.42C543.95 158.75 543.95 169.56 543.95 186.87C462.9 186.87 412.24 186.87 391.98 186.87C378.89 186.87 368.27 176.26 368.27 163.17C368.27 148.94 368.27 129.98 368.27 115.76C368.27 102.67 378.89 92.06 391.98 92.06C422.37 92.06 458.93 92.06 481.59 92.06Z"
       id="dKs3mStv3" />
    <path
       d="M394.82 92.06C419.03 92.06 438.66 111.69 438.66 135.9C438.66 142.69 438.66 159.68 438.66 186.87C348.49 186.87 292.14 186.87 269.6 186.87C256.51 186.87 245.9 176.26 245.9 163.17C245.9 148.94 245.9 129.98 245.9 115.76C245.9 102.67 256.51 92.06 269.6 92.06C303.41 92.06 365.04 92.06 394.82 92.06Z"
       id="b265iGhx9M" />
    <path
       d="M287.55 92.06C311.76 92.06 331.39 111.69 331.39 135.9C331.39 142.69 331.39 159.68 331.39 186.87C261.88 186.87 218.43 186.87 201.06 186.87C187.97 186.87 177.35 176.26 177.35 163.17C177.35 148.94 177.35 129.98 177.35 115.76C177.35 102.67 187.97 92.06 201.06 92.06C227.12 92.06 265.51 92.06 287.55 92.06Z"
       id="fvvVCfWTQ" />
    <path
       d="M173.6 88.64C202 88.64 225.03 111.67 225.03 140.07C225.03 193.24 225.03 326.16 225.03 538.83C170.77 538.83 136.86 538.83 123.29 538.83C118.94 538.83 115.41 535.3 115.41 530.94C115.41 442.48 115.41 219.22 115.41 139.32C115.41 111.33 138.1 88.64 166.09 88.64C177.88 88.64 161.96 88.64 173.6 88.64Z"
       id="cccIyFCTP" />
    <path
       d="M225.03 186.87L331.39 186.87L331.39 288.51L225.03 288.51L225.03 186.87Z"
       id="b7juGwrC6F" />
    <path
       d="M437.59 186.87L543.95 186.87L543.95 288.51L437.59 288.51L437.59 186.87Z"
       id="cU99wDHT" />
    <path
       d="M437.59 288.51L543.95 288.51L543.95 390.15L437.59 390.15L437.59 288.51Z"
       id="acni5B0O2" />
    <path
       d="M225.03 288.51L331.39 288.51L331.39 390.15L225.03 390.15L225.03 288.51Z"
       id="i8BpycRfkg" />
    <path
       d="M332.29 288.51L438.66 288.51L438.66 390.15L332.29 390.15L332.29 288.51Z"
       id="b14tdr9e4k" />
    <path
       d="M222.68 390.15L332.29 390.15L332.29 569.58L222.68 569.58L222.68 390.15Z"
       id="g7Oxx8HRb" />
    <path
       d="M438.66 390.15L545.03 390.15L545.03 569.58L438.66 569.58L438.66 390.15Z"
       id="aLKWENkS3" />
    <path
       d="M148.58 474.91L174.77 474.91L174.77 562.61L148.58 562.61L148.58 474.91Z"
       id="c3pS2x2CGj" />
    <path
       d="M204.46 474.77L222.68 474.77L222.68 569.58L204.46 569.58L204.46 474.77Z"
       id="b60QxhHUaX" />
    <path
       d="M254.37 494.97L280.57 494.97L280.57 582.68L254.37 582.68L254.37 494.97Z"
       id="abmi8evJI" />
    <path
       d="M314.87 494.97L333.1 494.97L333.1 582.68L314.87 582.68L314.87 494.97Z"
       id="b1wXmhkQ3h" />
    <path
       d="M331.22 390.15L437.59 390.15L437.59 569.58L331.22 569.58L331.22 390.15Z"
       id="b6WtNGyAvP" />
    <path
       d="M362.76 494.97L388.96 494.97L388.96 582.68L362.76 582.68L362.76 494.97Z"
       id="b9c17abUR" />
    <path
       d="M420.44 494.97L438.66 494.97L438.66 582.68L420.44 582.68L420.44 494.97Z"
       id="b1UjutKLAg" />
    <path
       d="M470.47 494.97L496.67 494.97L496.67 582.68L470.47 582.68L470.47 494.97Z"
       id="c1qzxEuOm6" />
    <path
       d="M525.78 494.97L551.98 494.97L555.39 569.58L525.78 574.13L525.78 494.97Z"
       id="bH73qLlJX" />
  </defs>
  <g
     id="g116">
    <g
       id="g114">
      <g
         id="g28"
         style="fill:#55678d;fill-opacity:1">
        <use
           xlink:href="#cKDpSYvbU"
           opacity="1"
           fill="#505050"
           fill-opacity="1"
           id="use26"
           style="fill:#55678d;fill-opacity:1" />
      </g>
      <g
         id="g32"
         transform="matrix(0.81158424,0,0,0.77703409,58.471313,54.73077)"
         style="opacity:0.76437906">
        <use
           xlink:href="#bqBwly0nw"
           opacity="1"
           fill="#6d9aaa"
           fill-opacity="1"
           id="use30"
           style="fill:#e6e6e6"
           x="0"
           y="0"
           width="100%"
           height="100%" />
      </g>
      <g
         id="g36"
         transform="matrix(0.81158424,0,0,0.77703409,60.013323,54.73077)"
         style="opacity:0.89352076">
        <use
           xlink:href="#dKs3mStv3"
           opacity="1"
           fill="#7a8487"
           fill-opacity="1"
           id="use34"
           x="0"
           y="0"
           width="100%"
           height="100%"
           transform="matrix(0.83371799,0,0,1,90.4491,0)" />
      </g>
      <g
         id="g40"
         transform="matrix(0.81158424,0,0,0.77703409,58.471313,54.73077)"
         style="opacity:1">
        <use
           xlink:href="#b265iGhx9M"
           opacity="1"
           fill="#bdc1c2"
           fill-opacity="1"
           id="use38"
           x="0"
           y="0"
           width="100%"
           height="100%" />
      </g>
      <g
         id="g44"
         style="fill:#cccccc;opacity:0.76437906"
         transform="matrix(0.81158424,0,0,0.77703409,58.471313,54.73077)">
        <use
           xlink:href="#fvvVCfWTQ"
           opacity="1"
           fill="#7a8487"
           fill-opacity="1"
           id="use42"
           style="fill:#cccccc"
           x="0"
           y="0"
           width="100%"
           height="100%" />
      </g>
      <g
         id="g48"
         style="fill:#ffffff;opacity:0.76437906"
         transform="matrix(0.81158424,0,0,0.77703409,58.471313,54.73077)">
        <use
           xlink:href="#cccIyFCTP"
           opacity="1"
           fill="#61666c"
           fill-opacity="1"
           id="use46"
           style="fill:#ffffff"
           x="0"
           y="0"
           width="100%"
           height="100%" />
      </g>
      <g
         id="g52"
         style="fill:#999999;opacity:0.76437906"
         transform="matrix(0.81158424,0,0,0.77703409,58.471313,54.73077)">
        <use
           xlink:href="#b7juGwrC6F"
           opacity="1"
           fill="#55678d"
           fill-opacity="1"
           id="use50"
           style="fill:#999999"
           x="0"
           y="0"
           width="100%"
           height="100%" />
      </g>
      <g
         id="g56"
         style="fill:#ffffff;opacity:0.76437906"
         transform="matrix(0.81158424,0,0,0.77703409,58.471313,54.73077)">
        <use
           xlink:href="#cU99wDHT"
           opacity="1"
           fill="#55678d"
           fill-opacity="1"
           id="use54"
           style="fill:#ffffff"
           x="0"
           y="0"
           width="100%"
           height="100%" />
      </g>
      <g
         id="g60"
         transform="matrix(0.81158424,0,0,0.77703409,58.471313,54.73077)"
         style="opacity:0.76437906">
        <use
           xlink:href="#acni5B0O2"
           opacity="1"
           fill="#7a8487"
           fill-opacity="1"
           id="use58"
           x="0"
           y="0"
           width="100%"
           height="100%" />
      </g>
      <g
         id="g64"
         transform="matrix(0.81158424,0,0,0.77703409,58.471313,54.73077)"
         style="opacity:0.76437906">
        <use
           xlink:href="#i8BpycRfkg"
           opacity="1"
           fill="#7a8487"
           fill-opacity="1"
           id="use62"
           x="0"
           y="0"
           width="100%"
           height="100%" />
      </g>
      <g
         id="g68"
         transform="matrix(0.81158424,0,0,0.77703409,58.471313,54.73077)"
         style="opacity:0.76437906">
        <use
           xlink:href="#b14tdr9e4k"
           opacity="1"
           fill="#bdc1c2"
           fill-opacity="1"
           id="use66"
           x="0"
           y="0"
           width="100%"
           height="100%" />
      </g>
      <g
         id="g72"
         style="fill:#e6e6e6;opacity:0.76437906"
         transform="matrix(0.81158424,0,0,0.77703409,58.471313,54.73077)">
        <use
           xlink:href="#g7Oxx8HRb"
           opacity="1"
           fill="#55678d"
           fill-opacity="1"
           id="use70"
           style="fill:#e6e6e6"
           x="0"
           y="0"
           width="100%"
           height="100%" />
      </g>
      <g
         id="g76"
         style="fill:#f9f9f9;opacity:0.76437906"
         transform="matrix(0.81158424,0,0,0.77703409,58.471313,54.73077)">
        <use
           xlink:href="#aLKWENkS3"
           opacity="1"
           fill="#55678d"
           fill-opacity="1"
           id="use74"
           style="fill:#f9f9f9"
           x="0"
           y="0"
           width="100%"
           height="100%" />
      </g>
      <g
         id="g80"
         style="fill:#55678d;fill-opacity:0.97000003;opacity:1"
         transform="matrix(0.81158424,0,0,0.77703409,58.471313,54.73077)">
        <use
           xlink:href="#c3pS2x2CGj"
           opacity="1"
           fill="#505050"
           fill-opacity="1"
           id="use78"
           style="fill:#55678d;fill-opacity:0.97000003"
           x="0"
           y="0"
           width="100%"
           height="100%" />
      </g>
      <g
         id="g84"
         style="fill:#55678d;fill-opacity:0.97000003;opacity:1"
         transform="matrix(0.81158424,0,0,0.77703409,58.471313,54.73077)">
        <use
           xlink:href="#b60QxhHUaX"
           opacity="1"
           fill="#505050"
           fill-opacity="1"
           id="use82"
           style="fill:#55678d;fill-opacity:0.97000003"
           x="0"
           y="0"
           width="100%"
           height="100%" />
      </g>
      <g
         id="g88"
         style="fill:#55678d;fill-opacity:0.97000003;opacity:1"
         transform="matrix(0.81158424,0,0,0.77703409,58.471313,54.73077)">
        <use
           xlink:href="#abmi8evJI"
           opacity="1"
           fill="#505050"
           fill-opacity="1"
           id="use86"
           style="fill:#55678d;fill-opacity:0.97000003"
           x="0"
           y="0"
           width="100%"
           height="100%" />
      </g>
      <g
         id="g92"
         style="fill:#55678d;fill-opacity:0.97000003;opacity:1"
         transform="matrix(0.81158424,0,0,0.77703409,58.471313,54.73077)">
        <use
           xlink:href="#b1wXmhkQ3h"
           opacity="1"
           fill="#505050"
           fill-opacity="1"
           id="use90"
           style="fill:#55678d;fill-opacity:0.97000003"
           x="0"
           y="0"
           width="100%"
           height="100%" />
      </g>
      <g
         id="g96"
         style="fill:#b3b3b3;opacity:0.76437906"
         transform="matrix(0.81158424,0,0,0.77703409,58.471313,54.73077)">
        <use
           xlink:href="#b6WtNGyAvP"
           opacity="1"
           fill="#6d9aaa"
           fill-opacity="1"
           id="use94"
           style="fill:#b3b3b3"
           x="0"
           y="0"
           width="100%"
           height="100%" />
      </g>
      <g
         id="g100"
         style="fill:#55678d;fill-opacity:0.97000003;opacity:1"
         transform="matrix(0.81158424,0,0,0.77703409,58.471313,54.73077)">
        <use
           xlink:href="#b9c17abUR"
           opacity="1"
           fill="#505050"
           fill-opacity="1"
           id="use98"
           style="fill:#55678d;fill-opacity:0.97000003"
           x="0"
           y="0"
           width="100%"
           height="100%" />
      </g>
      <g
         id="g104"
         style="fill:#55678d;fill-opacity:0.97000003;opacity:1"
         transform="matrix(0.81158424,0,0,0.77703409,58.471313,54.73077)">
        <use
           xlink:href="#b1UjutKLAg"
           opacity="1"
           fill="#505050"
           fill-opacity="1"
           id="use102"
           style="fill:#55678d;fill-opacity:0.97000003"
           x="0"
           y="0"
           width="100%"
           height="100%" />
      </g>
      <g
         id="g108"
         style="fill:#55678d;fill-opacity:0.97000003;opacity:1"
         transform="matrix(0.81158424,0,0,0.77703409,58.471313,54.73077)">
        <use
           xlink:href="#c1qzxEuOm6"
           opacity="1"
           fill="#505050"
           fill-opacity="1"
           id="use106"
           style="fill:#55678d;fill-opacity:0.97000003"
           x="0"
           y="0"
           width="100%"
           height="100%" />
      </g>
      <g
         id="g112"
         style="fill:#55678d;fill-opacity:0.97000003;opacity:1"
         transform="matrix(0.81158424,0,0,0.77703409,58.471313,54.73077)">
        <use
           xlink:href="#bH73qLlJX"
           opacity="1"
           fill="#505050"
           fill-opacity="1"
           id="use110"
           style="fill:#55678d;fill-opacity:0.97000003"
           x="0"
           y="0"
           width="100%"
           height="100%" />
      </g>
    </g>
  </g>
</svg>
