<svg height="48" width="48" xmlns="http://www.w3.org/2000/svg"><g fill="#9e6b51" opacity=".99" transform="matrix(1.1503549 0 0 1.1503549 -4.486125 -7.525565)"><path d="m44.322082 27.405077a19.729762 19.729765 0 0 1 -19.729762 19.729765 19.729762 19.729765 0 0 1 -19.7297621-19.729765 19.729762 19.729765 0 0 1 19.7297621-19.7297632 19.729762 19.729765 0 0 1 19.729762 19.7297632z"/><path d="m44.322082 27.405077a19.729762 19.729765 0 0 1 -19.729762 19.729765 19.729762 19.729765 0 0 1 -19.7297621-19.729765 19.729762 19.729765 0 0 1 19.7297621-19.7297632 19.729762 19.729765 0 0 1 19.729762 19.7297632z"/></g><path d="m20.988281 10.693359c-.666693.033497-1.406118.193261-2.208984.50586-2.08678.77353-1.547924 3.57164-1.371094 5.476562-.118164.17767-.358327.119141-.535156.119141-2.263614.119005-3.275093 2.500491-3.751953 4.40625.118169 1.727251-.118777 3.630802-.417969 5.296875-.299188 1.666911-.893622 2.976576-.953125 4.583984-.118167 1.428901.416997 3.096354.298828 4.40625-.625254 1.843539-1.159814 3.374786-1.621094 4.935547a21.196228 21.196231 0 0 0 5.333985 3.177734c.460513-1.268503.995344-2.525621 1.644531-3.767578.235496-.17767.176394-.654638.59375-.833984 1.361171 2.270513 3.660309 3.991453 5.199219 6.166016a21.196228 21.196231 0 0 0 .605469.029296 21.196228 21.196231 0 0 0 5.921874-.855468c-.022029-.050742-.034149-.111779-.058593-.160156-.712355-1.368561-2.3181-3.274019-3.6875-4.642579.176833-.17767.417892-.418103.71289-.537109 0-1.309057-.536531-1.725693-1.248047-2.677734-.599216-.95288-1.963901-2.796714-2.980468-3.392578 0 0-.000172-.060547-1.011719-.060547-.05867-.654529.121999-1.192218.298828-1.90625 0-.535523.418941-.236007.537109-1.427735.299187-1.011544.175495-.41619.416016-1.427734.235496-.476021.359375-.954144.359375-1.728516.889188.298352 2.675126.238011 3.451172 0l.177734.119141c.240527.06034.299733-.295967.476563-.355469 1.370236-.715708 1.844898-1.964979 2.974609-2.083984 0 0 .599935-.298351 1.488281 0 .358692 0 .658204.058193.658204-.298828.05867-.535523.057402-.951855.357422-1.310547.235495 1.428901.889466 3.038032 2.082031 4.585937l1.189453-.833984c-1.129711-1.368561-1.841648-2.916372-1.964844-4.703125.05866.119004.122065.238417.240234.357422.417356 0 .654001-.893487 1.13086-.833985.05867-.119005.181496-.655747.298828-1.072265h4.462891l1.605468-.357422v-.833985l-1.1875-.11914v-.953125h-.298828v-1.070313h-.71289v1.011719l-1.845703-.119141v-.65625h-.712891v.595704l-1.904297-.177735v-.892578h-.716797v.833985l-2.800781-.177735v-.296875h-2.078125v-.535156h-1.128906v.296875c-.122358.05867-.241206.179616-.359375.238281h-.119141c-1.969448-1.547906-2.086867 1.607446-3.398437.892578-.11817-.655367-.058594-1.249904-.058594-2.023437 2.263614-.06034 1.430195-.656155.777344-1.429688-.2355-.298351-.359309-.774752-.417969-1.072265-.401644-1.473317-1.742107-2.510646-3.742188-2.410157zm4.009766 9.169922c.28358.000105.449219.089844.449219.089844.713191-.120681 1.366101.059525 2.5 0-.181861 1.964425-1.611133 1.129287-3.158204 2.201172-.417355-.05867-.893181-.058594-1.546874-.058594-.11817-1.309895.358248-1.547146.59375-1.785156.476437-.357435.878529-.44737 1.162109-.447266z" fill="#fff" fill-rule="evenodd" stroke-width=".475527"/></svg>