<svg height="48" width="48" xmlns="http://www.w3.org/2000/svg"><path d="m44.322082 27.405077a19.729762 19.729765 0 0 1 -19.729762 19.729765 19.729762 19.729765 0 0 1 -19.7297621-19.729765 19.729762 19.729765 0 0 1 19.7297621-19.7297632 19.729762 19.729765 0 0 1 19.729762 19.7297632z" fill="#3e7596" opacity=".99" transform="matrix(1.1503549 0 0 1.1503549 -4.486125 -7.525565)"/><path d="m25.284441 7.0507899c9.103228 17.1192941 3.965483 26.0179281-15.4134292 26.6961221 28.8644002 4.800799 34.0021432-4.097834 15.4134292-26.6961221zm-1.282424 5.9320531c-13.474307.225041-16.1071082 6.698609-7.969613 19.401688.861532-.158521 1.725891-.355268 2.575046-.592593-2.108657-8.400056.991262-13.800955 9.307807-16.178112-.222867-.80926-.498228-1.663369-.831478-2.564188-1.086021-.04855-2.117214-.06583-3.090975-.05035zm7.10507.368685c.323285.471333.633374.935635.931008 1.392979 1.738434-.257651 3.636913-.422493 5.698436-.49257-2.371097-.393679-4.578996-.692382-6.629444-.900409zm-12.855657 22.314331c1.19934 1.668862 2.545335 3.430475 4.06756 5.283353-.963538-1.815464-1.777242-3.538228-2.425334-5.170822-.53448-.03006-1.082006-.06753-1.642226-.112529z" fill="#fff"/></svg>