<svg height="48" width="48" xmlns="http://www.w3.org/2000/svg"><path d="m44.322082 27.405077a19.729762 19.729765 0 0 1 -19.729762 19.729765 19.729762 19.729765 0 0 1 -19.7297621-19.729765 19.729762 19.729765 0 0 1 19.7297621-19.7297632 19.729762 19.729765 0 0 1 19.729762 19.7297632z" fill="#b78099" opacity=".99" transform="matrix(1.1503549 0 0 1.1503549 -4.486125 -7.525565)"/><path d="m25.849609 13.861328c-.09044-.01015-.181364-.007436-.28125.007813-.13318.02033-.282912.06229-.472656.11914-1.358513.40702-1.865234 1.603877-1.865234 3.851563 0 1.060315-.111643 2.17329-.248047 2.472656-.143788.315579-.673157.760337-1.261719 1.058594-1.965605.99604-4.838375 3.436445-7.806641 6.361328-1.649981 1.625948-2.951817 3.120295-3.625 3.564453-1.2205787.805305-1.2207552.806568-.6191401.927734l.6015621.123047-.568359.158203c-.3129274.08775-.5683594.238685-.5683594.333985 0 .224817 1.6009374-.05324 3.5371094-.857422 1.470124-.610638 1.61692-.744349 5.876953-1.15625 1.534147-.148404 1.580154-.09588.71875.865234-.36903.411726-.359303.470208.44336 2.332032.816546 1.894008 1.085927 3.577364.617187 3.867187-.339656.209913-.211372.575343.425781.958984-.0018-.000002-.003959 0-.005859 0-2.744822 0-7.591803 2-10.34375.103516-.4842413-.333739-1.2083185-.608482-1.7656251-.820313-.6915654-.262864-1.6389937-.374533-2.4785157-.283203v.410157a22.696228 22.696232 0 0 0 17.6445318 8.435546 22.696228 22.696232 0 0 0 21.384765-15.173828c-.662132.464844-1.327316.991542-1.582031 1.136719-1.081302.616536-2.229177.243393-2.863281 1.689453-.234452.534717-.15905 1.358814-.679688 1.447266-.908209.154297-3.908209.053519-4.34375.353516-1.979527 1.128543-4.408548 2.063148-6.591797 2.685546-.417399.118955-.656272.735116-1.085937.898438-1.183622.449871-2.744979.07817-4.263672-.3125.469821-.01897.458639-.07942.166015-.300781-.220884-.167112-.622366-.304688-.892578-.304688-.855681 0-1.710559-.568373-1.566406-1.142578.07063-.281539.02508-.636586-.101562-.789063-.145096-.174869-.222765-1.244095-.208985-2.892578.01881-2.249996.0786-2.68661.421875-3.123046.219519-.279082.51982-.741839.667969-1.027344.148148-.285611 1.132459-.933061 1.820313-1.439453.68785-.506461 1.493199-1.239026 1.789062-1.626953 1.231259-1.614261 1.597298-3.975842 1.076172-6.935547-.384202-2.182014-.599319-2.508264.486328-3.023438 1.32727-.629828 4.520301.001999 6.310547.927735.330497.170909.536464.207385.458984.082031-.429962-.695697-2.417201-1.742025-5.160156-2.082031-.688186-.085301-1.493613-.975914-2.123047-1.367188-.531492-.330388-.802899-.483222-1.074219-.513672zm-5.326171 17.111328c.166382-.05545.227114.247887.121093.865235-.08306.483681-.141969 1.182847-.130859 1.552734.02339.779155-.08074.843219-.400391.246094-.3185-.59516-.314442-1.560327.009766-2.166016.161289-.301384.30056-.464775.400391-.498047z" fill="#fff"/></svg>