<svg height="48" width="48" xmlns="http://www.w3.org/2000/svg"><g fill="#ac9393" opacity=".99" transform="matrix(1.1503549 0 0 1.1503549 -4.486125 -7.525565)"><path d="m44.322082 27.405077a19.729762 19.729765 0 0 1 -19.729762 19.729765 19.729762 19.729765 0 0 1 -19.7297621-19.729765 19.729762 19.729765 0 0 1 19.7297621-19.7297632 19.729762 19.729765 0 0 1 19.729762 19.7297632z" fill="#80c778"/><path d="m44.322082 27.405077c0 10.896448-8.833315 19.729765-19.729762 19.729765s-19.7297621-8.833317-19.7297621-19.729765h19.7297621z" fill="#80c7f3"/><path d="m24.59232 7.6753138c10.896446 0 19.729761 8.8333152 19.729762 19.7297632 0 10.896448-8.833315 19.729765-19.729762 19.729765" fill="#ffc778"/><path d="m10.641272 13.454028c3.570385-3.5703853 8.502825-5.7787142 13.951048-5.7787142 10.896446.0000001 19.729761 8.8333152 19.729762 19.7297632h-19.729762z" fill="#4dc778"/><path d="m24.59232 27.529263v-19.8539492c10.896446 0 19.729761 8.8333152 19.729762 19.7297632" fill="#ffc778"/></g><path d="m46.5 24a22.696228 22.696232 0 0 1 -22.696229 22.696232 22.696228 22.696232 0 0 1 -22.6962282-22.696232 22.696228 22.696232 0 0 1 22.6962282-22.69623 22.696228 22.696232 0 0 1 22.696229 22.69623z" fill="#80c778"/><path d="m46.5 24c0 12.534782-10.161447 22.696232-22.696229 22.696232-12.534781 0-22.6962282-10.16145-22.6962282-22.696232h22.6962282z" fill="#80c7f3"/><path d="m23.803771 1.30377c12.53478 0 22.696228 10.161447 22.696229 22.69623 0 12.534782-10.161447 22.696232-22.696229 22.696232" fill="#e17760"/><path d="m7.7551149 7.9513422c4.1072101-4.1072102 9.7812661-6.6475722 16.0486561-6.6475722 12.53478.0000002 22.696228 10.161447 22.696229 22.69623h-22.696229z" fill="#4dc778"/><path d="m23.803771 24.142858v-22.839088c12.53478 0 22.696228 10.161447 22.696229 22.69623" fill="#ffc778"/><path d="m23.902344 1.3066406c-.032732.0001387-.064958.0036292-.097656.0039063v22.6894531h.195312l15.947266-15.9472656c-4.093407-4.1436959-9.766374-6.7194995-16.044922-6.7460938z" fill="#f9b278"/><path d="m23.803771 24.000001 22.696229-.000001c0 6.267391-2.540362 11.941449-6.647571 16.048659" fill="#d87a9c"/><path d="m23.803771 24v22.696232c-6.267391 0-11.941448-2.540362-16.048657-6.647573" fill="#5fb2e6"/><circle cx="23.803772" cy="24.000002" fill="#fff" r="13.5"/></svg>