<svg height="48" width="48" xmlns="http://www.w3.org/2000/svg"><rect fill="#ca7253" height="43" ry="1.452703" width="43" x="2" y="3"/><g fill="#fff" transform="matrix(.91506628 .40330349 -.40330349 .91506628 12.632029 -9.647134)"><path d="m15.800781 13.876954c-.554 0-1 .446-1 1v1.361328a7.986136 8.0745239 0 0 0 -1.96875.841797l-.980469-.980469c-.195869-.195868-.451412-.294922-.707031-.294922s-.511163.09905-.707031.294922l-1.4140628 1.414063c-.3917368.391737-.3917368 1.022324 0 1.414062l.9882818.988281a7.986136 8.0745239 0 0 0 -.8300786 1.960938h-1.3808594c-.554 0-1 .446-1 1v2c0 .554.446 1 1 1h1.3046875a7.986136 8.0745239 0 0 0 .7910156 2.076172l-.8730469.873047c-.3917368.391738-.3917368 1.022325 0 1.414062l1.4140628 1.414063c.391737.391737 1.022324.391737 1.414062 0l.785157-.785156a7.986136 8.0745239 0 0 0 2.164062.953124v1.054688c0 .554.446 1 1 1h2c.554 0 1-.446 1-1v-1.015625a7.986136 8.0745239 0 0 0 2.220703-.935547l.728516.728516c.391738.391737 1.022325.391737 1.414062 0l1.414063-1.414063c.391737-.391737.391737-1.022324 0-1.414062l-.783203-.783203a7.986136 8.0745239 0 0 0 .841797-2.166016h1.164062c.554 0 1-.446 1-1v-2c0-.554-.446-1-1-1h-1.236328a7.986136 8.0745239 0 0 0 -.886719-2.048828l.900391-.900391c.391737-.391738.391737-1.022325 0-1.414062l-1.414063-1.414063c-.391737-.391737-1.022324-.391737-1.414062 0l-.925781.925782a7.986136 8.0745239 0 0 0 -2.023438-.816407v-1.332031c0-.554-.446-1-1-1zm1 4.3125a5.6875 5.6875 0 0 1 5.6875 5.6875 5.6875 5.6875 0 0 1 -5.6875 5.6875 5.6875 5.6875 0 0 1 -5.6875-5.6875 5.6875 5.6875 0 0 1 5.6875-5.6875z"/><g fill-opacity=".50365"><path d="m33 19.697266c-.554 0-1 .446-1 1v1a6.1897211 6.1897211 0 0 0 -1.681641.697266l-.707031-.707032c-.391737-.391737-1.022325-.391737-1.414062 0l-.707032.707032c-.391737.391737-.391737 1.022325 0 1.414062l.708985.708984a6.1897211 6.1897211 0 0 0 -.697266 1.679688h-1.001953c-.554 0-1 .446-1 1v1c0 .554.446 1 1 1h1a6.1897211 6.1897211 0 0 0 .697266 1.681641l-.707032.707031c-.391737.391737-.391737 1.022325 0 1.414062l.707032.707032c.391737.391737 1.022325.391737 1.414062 0l.708984-.708985a6.1897211 6.1897211 0 0 0 1.679688.697266v1.001953c0 .554.446 1 1 1h1c.554 0 1-.446 1-1v-1a6.1897211 6.1897211 0 0 0 1.681641-.697266l.707031.707032c.391737.391737 1.022325.391737 1.414062 0l.707032-.707032c.391737-.391737.391737-1.022325 0-1.414062l-.708985-.708984a6.1897211 6.1897211 0 0 0 .697266-1.679688h1.001953c.554 0 1-.446 1-1v-1c0-.554-.446-1-1-1h-1a6.1897211 6.1897211 0 0 0 -.697266-1.681641l.707032-.707031c.391737-.391737.391737-1.022325 0-1.414062l-.707032-.707032c-.391737-.391737-1.022325-.391737-1.414062 0l-.708984.708985a6.1897211 6.1897211 0 0 0 -1.679688-.697266v-1.001953c0-.554-.446-1-1-1zm.5 4.40625a3.59375 3.59375 0 0 1 3.59375 3.59375 3.59375 3.59375 0 0 1 -3.59375 3.59375 3.59375 3.59375 0 0 1 -3.59375-3.59375 3.59375 3.59375 0 0 1 3.59375-3.59375z"/><path d="m22.438201 32.743544c-.385491 0-.695832.31034-.695832.69583v.695832a4.3070007 4.3070007 0 0 0 -1.170137.485179l-.491975-.491974c-.272583-.272584-.711366-.272584-.983948 0l-.491975.491974c-.272583.272583-.272583.711366 0 .983948l.493333.493334a4.3070007 4.3070007 0 0 0 -.485178 1.168779h-.69719c-.385491 0-.695832.310341-.695832.695832v.69583c0 .385491.310341.695832.695832.695832h.69583a4.3070007 4.3070007 0 0 0 .48518 1.170137l-.491975.491975c-.272583.272583-.272583.711366 0 .983948l.491975.491975c.272582.272583.711365.272583.983948 0l.493333-.493333a4.3070007 4.3070007 0 0 0 1.168779.485178v.69719c0 .385491.310341.695832.695832.695832h.69583c.385491 0 .695832-.310341.695832-.695832v-.69583a4.3070007 4.3070007 0 0 0 1.170137-.48518l.491976.491975c.272582.272583.711365.272583.983948 0l.491974-.491975c.272584-.272582.272584-.711365 0-.983948l-.493333-.493333a4.3070007 4.3070007 0 0 0 .48518-1.168779h.69719c.38549 0 .69583-.310341.69583-.695832v-.69583c0-.385491-.31034-.695832-.69583-.695832h-.695832a4.3070007 4.3070007 0 0 0 -.485179-1.170137l.491974-.491976c.272584-.272582.272584-.711365 0-.983948l-.491974-.491974c-.272583-.272584-.711366-.272584-.983948 0l-.493334.493333a4.3070007 4.3070007 0 0 0 -1.168779-.48518v-.69719c0-.38549-.310341-.69583-.695832-.69583zm.347916 3.066006a2.5006431 2.5006431 0 0 1 2.500642 2.500642 2.5006431 2.5006431 0 0 1 -2.500642 2.500644 2.5006431 2.5006431 0 0 1 -2.500644-2.500644 2.5006431 2.5006431 0 0 1 2.500644-2.500642z"/></g></g></svg>