<svg height="48" width="48" xmlns="http://www.w3.org/2000/svg"><path d="m44.322082 27.405077a19.729762 19.729765 0 0 1 -19.729762 19.729765 19.729762 19.729765 0 0 1 -19.7297621-19.729765 19.729762 19.729765 0 0 1 19.7297621-19.7297632 19.729762 19.729765 0 0 1 19.729762 19.7297632z" fill="#b6597a" opacity=".99" transform="matrix(1.1503549 0 0 1.1503549 -4.486125 -7.525565)"/><path d="m20.664062 11.095703c-3.170576.0017-5.89065 2.260617-6.474609 5.376953-.06442-.0029-.12888-.004859-.193359-.005859-3.640763-.000516-6.5923131 2.951034-6.5917971 6.591797.0004553 2.943619 1.9322111 5.433535 4.5957031 6.279297v-5.771485h22.5v5.740235c2.380479-.826346 4.091863-3.082324 4.091797-5.744141.000084-3.361205-2.724733-6.086021-6.085938-6.085938-.337196.002-.673641.032084-1.005859.089844-.721404-1.600404-2.312875-2.630319-4.068359-2.632812-.254684.000447-.508866.022656-.759766.066406-1.058546-2.371368-3.410912-3.900101-6.007813-3.904297zm-7.164062 13.970703v13.5h19.5v-13.5zm9.763672.462891c.622415.00464 1.252255.104557 1.871094.324219 2.978549 1.057007 4.514398 4.265879 3.429687 7.167968-1.084302 2.902089-4.378054 4.398413-7.357422 3.341797-2.978139-1.056612-4.513989-4.26588-3.429687-7.167969.608997-1.629607 1.925373-2.791755 3.480468-3.332031-.027477.051871.435699-.23362 1.386719-.30664.205049-.01856.41167-.028944.619141-.027344zm1.140625.716797c-1.074049.715047-2.022447 2.121188-2.347656 3.082031 0 0-.582405 1.411424.248047 2.279297-.000001 0 .772417.710239 1.863281-.314453 0 0 .691797-.551172 1.111328-2.203125 0 0 .156616.08683.166015.11914.009433.031924-.087586 1.355601-.710937 2.277344 0 0-.669643 1.106516-1.884766.982422-1.215123-.123696-1.838838-1.088841-2.197265-1.916016-.266979-.616888-.451783-2.089771-.216797-3.689453-.939947.573796-1.709862 1.428523-2.119141 2.523438-.276044.738989-.345088 1.49551-.267578 2.228515 1.029348.713053 3.493076 2.186278 5.654297 1.613282 1.467334-.389046 1.796875-1.728516 1.796875-1.728516.346129-.984788.074219-2.181641.074219-2.181641 1.684276 2.970323-.642578 4.779297-.642578 4.779297-1.221274 1.112077-3.0341 1.424061-4.421875 1.320313.279278.163998.577114.307.894531.419922 2.681636.950874 5.645878-.396211 6.621094-3.007813.452341-1.211436.380269-2.474301-.076172-3.583984-.237856-.065439-.505879-.146528-.785157-.25586 0 0-1.244956-.37861-2.058593-.28125 0 0-.596615.046499-1.251953.25 0 0-.128366.014536-.197266.214844-.069307.199912-.375341.688381-.853516.869141 0 0-.30823.039968-.25.27539 0 0 .080478.314685.425782.136719 0 0 .876447-.423965 1.30664-1.457031 0 0 .265283-.099359.601563-.037109 0 0-.529681 1.590815-1.607422 2.101562 0 0-1.045811.54382-.837891-.740234 0 0 .134638-1.24478 2.144532-2.06836 0 0 1.267395-.590225 2.052734-.86914-.481456-.426955-1.049212-.775227-1.699219-1.00586-.176752-.062646-.356352-.089722-.535156-.132812z" fill="#fff"/><circle cx="32.793915" cy="21" fill="#b6597a" r="1.5"/></svg>