<svg height="48" width="48" xmlns="http://www.w3.org/2000/svg"><g fill="#5f8dd3" opacity=".99" transform="matrix(1.1503549 0 0 1.1503549 -4.486125 -7.525565)"><path d="m44.322082 27.405077a19.729762 19.729765 0 0 1 -19.729762 19.729765 19.729762 19.729765 0 0 1 -19.7297621-19.729765 19.729762 19.729765 0 0 1 19.7297621-19.7297632 19.729762 19.729765 0 0 1 19.729762 19.7297632z"/><path d="m44.322082 27.405077a19.729762 19.729765 0 0 1 -19.729762 19.729765 19.729762 19.729765 0 0 1 -19.7297621-19.729765 19.729762 19.729765 0 0 1 19.7297621-19.7297632 19.729762 19.729765 0 0 1 19.729762 19.7297632z"/></g><path d="m24 7.5c-3.683114 5.15601-17.3304776 20.094562-12 28.5 4.124691 6.503241 19.923236 6.536556 24 0 5.304176-8.503631-8.862592-23.34399-11.998047-28.5zm-4.5 13.5h9v9h3l-7.5 6-7.5-6h3z" fill="#fff" stroke-width="2.922411" transform="matrix(1.00000000115 0 0 1.00000000115 -.00000127456 .00000031393)"/></svg>