<svg height="48" width="48" xmlns="http://www.w3.org/2000/svg"><path d="m44.322082 27.405077a19.729762 19.729765 0 0 1 -19.729762 19.729765 19.729762 19.729765 0 0 1 -19.7297621-19.729765 19.729762 19.729765 0 0 1 19.7297621-19.7297632 19.729762 19.729765 0 0 1 19.729762 19.7297632z" fill="#b36489" opacity=".99" transform="matrix(1.1503549 0 0 1.1503549 -4.486125 -7.525565)"/><path d="m10 11.5c-.554 0-1 .446-1 1v22c0 .554.446 1 1 1h27c.554 0 1-.446 1-1v-22c0-.554-.446-1-1-1zm1 2h12v10h-12zm13 10h12v10h-12z" fill="#fff"/></svg>