<?xml version="1.0" encoding="UTF-8" standalone="no"?>
<svg
   xmlns:dc="http://purl.org/dc/elements/1.1/"
   xmlns:cc="http://creativecommons.org/ns#"
   xmlns:rdf="http://www.w3.org/1999/02/22-rdf-syntax-ns#"
   xmlns:svg="http://www.w3.org/2000/svg"
   xmlns="http://www.w3.org/2000/svg"
   xmlns:sodipodi="http://sodipodi.sourceforge.net/DTD/sodipodi-0.dtd"
   xmlns:inkscape="http://www.inkscape.org/namespaces/inkscape"
   height="48"
   width="48"
   version="1.1"
   id="svg18"
   sodipodi:docname="desktop-environment-kde.svg"
   inkscape:version="0.92.1 r15371">
  <metadata
     id="metadata24">
    <rdf:RDF>
      <cc:Work
         rdf:about="">
        <dc:format>image/svg+xml</dc:format>
        <dc:type
           rdf:resource="http://purl.org/dc/dcmitype/StillImage" />
        <dc:title></dc:title>
      </cc:Work>
    </rdf:RDF>
  </metadata>
  <defs
     id="defs22" />
  <sodipodi:namedview
     pagecolor="#ffffff"
     bordercolor="#666666"
     borderopacity="1"
     objecttolerance="10"
     gridtolerance="10"
     guidetolerance="10"
     inkscape:pageopacity="0"
     inkscape:pageshadow="2"
     inkscape:window-width="1920"
     inkscape:window-height="1040"
     id="namedview20"
     showgrid="true"
     inkscape:zoom="9.8333336"
     inkscape:cx="10.080681"
     inkscape:cy="22.366699"
     inkscape:window-x="0"
     inkscape:window-y="0"
     inkscape:window-maximized="1"
     inkscape:current-layer="svg18">
    <inkscape:grid
       type="xygrid"
       id="grid834" />
  </sodipodi:namedview>
  <circle
     cx="23.940615"
     cy="31.534513"
     fill="#6c6753"
     opacity=".99"
     r="13.232998"
     transform="matrix(1.72140702696 0 0 1.72140725788 -17.2289093957 -30.06939350282)"
     id="circle2"
     style="fill:#5f8dd3" />
  <path
     inkscape:connector-curvature="0"
     d="M 25.87353,12.344142 21.75,12.638479 v 16.426827 l 4.12353,-0.501776 v -7.170618 c 1.78845,2.699495 3.22369,5.211173 5.62044,7.820964 l 4.2721,-1.227807 A 55.795144,55.795144 0 0 1 30.2129,20.459443 c 1.62026,-2.391141 3.65259,-4.793494 5.63726,-6.940755 l -4.42627,-1.087647 a 70.584896,70.584896 0 0 0 -5.55036,7.153799 m -9.39637,-3.868433 a 0.33638552,0.33638552 0 0 0 -0.18221,0.09531 c -0.48496,0.459728 -0.94468,0.919455 -1.42964,1.379181 -0.21024,0.204634 0.006,0.448515 0.0981,0.616707 l 0.98113,1.356755 0.73444,0.989534 c 0.10372,0.140161 0.13455,0.156981 0.0813,0.257896 -0.0673,0.103719 -0.12054,0.187815 -0.18221,0.294338 -0.95309,1.603437 -0.28593,1.726779 -2.32666,2.245373 l -1.567,0.260699 c -0.22986,0.07569 -0.53261,0.07008 -0.54943,0.392449 0,0.644739 -0.0196,1.289478 -0.0196,1.934217 -0.0112,0.299944 0.32237,0.327976 0.51859,0.378434 l 1.66511,0.288731 1.24743,0.22706 c 0.1682,0.02243 0.20744,-0.01682 0.24669,0.112129 0.51018,2.150063 1.17734,1.653895 0.0645,3.537654 l -0.89703,1.247429 c -0.11773,0.215848 -0.33639,0.428892 -0.11213,0.647542 0.47094,0.468137 0.92226,0.939077 1.396,1.407214 0.21024,0.204634 0.47935,-0.0056 0.65034,-0.09811 l 1.37919,-0.958699 1.03158,-0.692393 c 0.14016,-0.117735 0.15978,-0.145767 0.2663,-0.0841 2.06597,1.264249 2.13885,0.353205 2.74155,2.47804 l 0.29714,1.522145 c 0.0785,0.224257 0.0841,0.518594 0.40086,0.53261 h 2.0099 c 0.29995,0 0.32798,-0.344795 0.36441,-0.53261 l 0.28033,-1.620257 0.20183,-1.196972 c 0.014,-0.114932 0.008,-0.173799 0.0308,-0.213044 2.42198,-0.498972 1.82209,-1.199775 3.78995,-0.08129 l 1.27826,0.874603 c 0.23547,0.114931 0.45973,0.316762 0.68399,0.100915 0.47374,-0.448514 0.94468,-0.899832 1.42123,-1.345543 0.21304,-0.215847 0.003,-0.462529 -0.0981,-0.627919 h -0.0196 l -0.93067,-1.278265 -0.6139,0.207437 c -0.15698,0.10372 -0.36442,0.06447 -0.55223,-0.176601 l -1.34554,-1.732387 a 6.9295417,6.9295417 0 0 1 -5.58681,2.786394 c -3.78714,0 -6.88189,-3.01065 -6.88189,-6.699678 0,-2.623807 1.56139,-4.894409 3.82359,-5.993269 v -1.541767 c -0.0757,0.03924 -0.1682,0.05887 -0.22987,0.0841 -0.88581,0.356007 -0.94188,0.518594 -2.39114,-0.291535 l -1.27826,-0.888618 c -0.17941,-0.07849 -0.33638,-0.224257 -0.49897,-0.185013 m 4.38983,3.445149 a 6.1754777,6.1754777 0 0 0 -3.22929,5.390578 c 0,3.400298 2.85086,6.183887 6.35768,6.183887 2.16688,0 4.06746,-1.070827 5.21398,-2.69669 l -0.0617,-0.131751 c -1.34554,1.452065 -2.86208,2.393944 -5.17193,2.444402 -2.87609,0.05045 -5.78863,-2.444402 -5.80265,-5.73257 -0.0252,-2.119229 0.98113,-3.543261 2.69108,-4.560828 v -0.89143"
     id="path28-3-6"
     style="fill:#ffffff;fill-rule:evenodd;stroke-width:2.80321288" />
</svg>
