<svg height="48" width="48" xmlns="http://www.w3.org/2000/svg"><rect fill="#7399ae" height="42" ry="1.452703" width="44" x="2" y="4"/><g stroke-width="3"><path d="m14 17-8 8 8 8" fill="none" stroke="#fff"/><path d="m19 33 10-16" fill="none" stroke="#fff"/><path d="m34 17 8 8-8 8" fill="none" stroke="#fff"/><circle cx="33.611168" cy="34.5" fill="#d4e0e6" r="9.5" stroke="#7399ae"/></g><path d="m33.075035 29.318359c-.197982 0-.342795.159981-.357422.357422l-.06055.832031c-.773832.185245-1.477781.590687-2.025391 1.167969l-.751953-.361328c-.171457-.09899-.38929-.0406-.488281.130859l-.535156.927735c-.09899.171458-.03281.376893.130859.488281l.687503.46875c-.113624.379818-.173119.773475-.173828 1.169922.001.396248.06004.790365.173828 1.169922l-.6875.46875c-.171458.09899-.22985.316823-.130859.488281l.535156.927734c.09899.171458.309979.216915.488281.13086l.75-.361328c.548268.577374 1.252841.983292 2.027344 1.167968l.06055.832032c0 .197983.15944.357421.357422.357421h1.072262c.197983 0 .342795-.159979.357422-.357421l.06055-.832032c.773832-.185245 1.477781-.590685 2.025391-1.167968l.751953.361328c.171458.09899.38929.0406.488281-.13086l.535156-.927734c.09899-.171458.03281-.376893-.130859-.488281l-.6875-.46875c.113622-.379817.173115-.773474.173825-1.169922-.001-.396247-.06004-.790363-.173828-1.169922l.6875-.46875c.171457-.09899.229851-.316823.130859-.488281l-.535156-.927735c-.09899-.171458-.309978-.216913-.488281-.130859l-.75.361328c-.548268-.577375-1.252841-.983293-2.027344-1.167969l-.06055-.832031c0-.197982-.159439-.357422-.357422-.357422zm.535156 2.28125c1.596888 0 2.900391 1.303503 2.900391 2.900391s-1.303503 2.90039-2.900391 2.90039-2.898438-1.303502-2.898438-2.90039c.000001-1.596888 1.30155-2.900391 2.898438-2.900391zm0 .800781c-1.164536 0-2.099609.935074-2.099609 2.09961s.935073 2.099609 2.099609 2.099609 2.101562-.935073 2.101562-2.099609-.937026-2.09961-2.101562-2.09961z" fill="#7399ae"/></svg>