<svg height="48" preserveAspectRatio="xMidYMid meet" viewBox="0 0 36 36" width="48" xmlns="http://www.w3.org/2000/svg"><ellipse cx="18.021252" cy="18.094751" fill="#fff" rx="16.732296" ry="11.722791" stroke-width=".041625"/><g fill="#56a0e0" transform="matrix(.00554994 0 0 -.00554994 .5667 35.521527)"><path d="m2790 6284c-667-80-1288-365-1779-817-523-483-869-1137-983-1858-20-128-22-180-22-464s2-336 22-464c161-1022 784-1888 1687-2348 326-165 627-262 980-314 189-28 721-28 910 0 630 93 1215 373 1684 804 523 483 869 1137 983 1858 20 128 22 180 22 464s-2 336-22 464c-163 1032-792 1900-1711 2359-347 174-677 272-1061 316-167 20-547 20-710 0zm-830-1839c219-39 434-140 610-286 31-26 173-171 315-323s261-275 264-274c4 2 109 113 235 248 323 346 403 415 614 520 192 96 348 129 604 130 267 0 423-36 639-147 351-181 595-505 681-906 28-132 30-359 5-489-82-415-329-748-694-936-203-104-368-142-621-142-246 0-413 35-600 125-209 100-278 159-604 507-137 148-253 268-258 268s-13-6-17-14c-10-17-463-496-516-545-68-63-208-158-304-205-204-101-363-136-612-136-195 0-298 15-448 65-450 150-774 516-875 988-31 145-30 370 1 517 112 527 511 923 1036 1030 118 24 420 27 545 5z"/><path d="m1589 3900c-200-20-401-132-517-286-224-299-212-680 32-967 87-103 243-195 391-232 95-24 313-24 410-1 127 32 255 102 350 193 63 61 500 534 500 542 0 5-22 33-50 63-515 555-513 552-638 612-50 24-121 51-157 59-83 20-224 27-321 17z"/><path d="m4484 3900c-134-14-265-65-369-142-52-39-123-111-384-393-31-33-89-94-129-136l-73-77 262-278c271-288 334-346 429-394 236-119 569-114 784 12 198 116 333 307 372 528 51 288-72 585-312 748-117 79-216 115-359 132-99 11-116 11-221 0z"/></g></svg>