<svg height="48" width="48" xmlns="http://www.w3.org/2000/svg"><ellipse cx="23.982632" cy="24.214348" fill="#916ab1" rx="22.779375" ry="22.779379"/><circle cx="26.576172" cy="24.42857" fill="#faf6fb" fill-opacity=".427007" r="11.285714"/><path d="m21.433594 13.142578a11.285714 11.285714 0 0 0 -11.285156 11.285156 11.285714 11.285714 0 0 0 11.285156 11.28711 11.285714 11.285714 0 0 0 2.566406-.310547 11.285714 11.285714 0 0 1 -8.708984-10.976563 11.285714 11.285714 0 0 1 8.71875-10.974609 11.285714 11.285714 0 0 0 -2.576172-.310547z" fill="#faf6fb"/><g fill="none" stroke="#fff" stroke-linecap="round" transform="translate(0 -.57143)"><path d="m14 22h12"/><path d="m14 25h14"/><path d="m14 28h12"/></g></svg>