<?xml version="1.0" encoding="UTF-8" standalone="no"?>
<svg
   xmlns:dc="http://purl.org/dc/elements/1.1/"
   xmlns:cc="http://creativecommons.org/ns#"
   xmlns:rdf="http://www.w3.org/1999/02/22-rdf-syntax-ns#"
   xmlns:svg="http://www.w3.org/2000/svg"
   xmlns="http://www.w3.org/2000/svg"
   xmlns:sodipodi="http://sodipodi.sourceforge.net/DTD/sodipodi-0.dtd"
   xmlns:inkscape="http://www.inkscape.org/namespaces/inkscape"
   height="48"
   width="48"
   version="1.1"
   id="svg6"
   sodipodi:docname="element-desktop.svg"
   inkscape:version="1.0.2 (e86c870879, 2021-01-15)">
  <metadata
     id="metadata12">
    <rdf:RDF>
      <cc:Work
         rdf:about="">
        <dc:format>image/svg+xml</dc:format>
        <dc:type
           rdf:resource="http://purl.org/dc/dcmitype/StillImage" />
        <dc:title></dc:title>
      </cc:Work>
    </rdf:RDF>
  </metadata>
  <defs
     id="defs10">
    <linearGradient
       gradientUnits="userSpaceOnUse"
       gradientTransform="matrix(0.0920001,0,0,0.09064843,-21.193131,1.5846311)"
       y2="269.48999"
       y1="235.14999"
       x2="657.65002"
       x1="319.20999"
       id="a-12">
      <stop
         id="stop1076"
         offset="0"
         stop-color="#e54c18" />
      <stop
         id="stop1078"
         offset="1"
         stop-color="#fec350" />
    </linearGradient>
    <linearGradient
       gradientTransform="matrix(3.7153302,0,0,3.7153302,-10.576378,-4.6381435)"
       gradientUnits="userSpaceOnUse"
       y2="12.7"
       y1="4.2333002"
       x2="8.2018995"
       x1="8.2018995"
       id="linearGradient893-3">
      <stop
         id="stop874-6"
         offset="0"
         stop-color="#fff" />
      <stop
         id="stop876-7"
         offset="1"
         stop-color="#c0f6cc" />
    </linearGradient>
  </defs>
  <sodipodi:namedview
     pagecolor="#ffffff"
     bordercolor="#666666"
     borderopacity="1"
     objecttolerance="10"
     gridtolerance="10"
     guidetolerance="10"
     inkscape:pageopacity="0"
     inkscape:pageshadow="2"
     inkscape:window-width="1920"
     inkscape:window-height="1031"
     id="namedview8"
     showgrid="true"
     inkscape:zoom="13.110938"
     inkscape:cx="45.355498"
     inkscape:cy="13.767042"
     inkscape:window-x="0"
     inkscape:window-y="24"
     inkscape:window-maximized="1"
     inkscape:current-layer="svg6"
     inkscape:document-rotation="0">
    <inkscape:grid
       type="xygrid"
       id="grid837" />
  </sodipodi:namedview>
  <circle
     cx="23.940615"
     cy="31.534513"
     fill="#74a2f3"
     opacity=".99"
     r="13.232998"
     transform="matrix(1.75830584759 0 0 1.75830608345 -18.15909274367 -30.97874795549)"
     id="circle2"
     style="fill:#9cc7a1;fill-opacity:1" />
  <ellipse
     cx="23.935829"
     cy="24.468578"
     fill="#74a2f3"
     opacity="0.99"
     id="circle846"
     style="fill:#ffffff;fill-opacity:0.31997341;stroke-width:1.534"
     rx="20.299435"
     ry="20.299437" />
  <path
     id="path897-5"
     d="m 22.756135,6.7746145 a 2.3593834,2.3593834 0 1 0 0,4.7184705 c 0,0 0.436665,-0.02266 1.465289,0.320255 1.028629,0.342882 2.452937,1.036022 3.944197,2.527357 1.491332,1.491332 2.184467,2.915565 2.52735,3.944192 0.342882,1.028624 0.320255,1.465287 0.320255,1.465287 a 2.3593834,2.3593834 0 1 0 4.71847,0 c 0,0 -0.02266,-1.332689 -0.564434,-2.958143 -0.541843,-1.625458 -1.618061,-3.739852 -3.665468,-5.787371 -2.047406,-2.0474079 -4.161912,-3.1236659 -5.78737,-3.6654361 -1.625455,-0.541807 -2.958147,-0.56447 -2.958147,-0.56447 z m -2.359158,5.8980895 c 0,0 -1.33269,0.02266 -2.958147,0.56447 -1.625457,0.541804 -3.739854,1.618024 -5.78737,3.665432 -2.0474074,2.047407 -3.1236648,4.161913 -3.6654345,5.787371 -0.5418067,1.625454 -0.5644329,2.958143 -0.5644329,2.958143 a 2.3593834,2.3593834 0 1 0 4.7184684,0 c 0,0 -0.02266,-0.43666 0.320255,-1.465284 0.342881,-1.028629 1.035982,-2.452937 2.527352,-3.944197 1.491335,-1.491332 2.915572,-2.184467 3.944197,-2.527354 1.028628,-0.342882 1.465291,-0.320219 1.465291,-0.320219 a 2.3593834,2.3593834 0 1 0 0,-4.718468 z m 17.659338,8.224997 a 2.3593834,2.3593834 0 0 0 -2.324611,2.391373 c 0,0 0.02266,0.436661 -0.320255,1.46529 -0.342882,1.028625 -1.036019,2.452934 -2.527389,3.944194 -1.491334,1.491331 -2.915566,2.184464 -3.944194,2.527353 -1.028625,0.342881 -1.465291,0.320255 -1.465291,0.320255 a 2.3593834,2.3593834 0 1 0 0,4.71847 c 0,0 1.332693,-0.02266 2.958147,-0.564472 1.625458,-0.541805 3.739851,-1.618027 5.78737,-3.665434 2.047409,-2.047408 3.123663,-4.161914 3.665433,-5.787372 0.541807,-1.625455 0.564471,-2.958143 0.564471,-2.958143 a 2.3593834,2.3593834 0 0 0 -2.393711,-2.391411 z m -23.59161,5.898086 a 2.3593834,2.3593834 0 0 0 -2.324606,2.391372 c 0,0 0.02266,1.332688 0.56447,2.958147 0.541807,1.625457 1.618029,3.739854 3.665436,5.787369 2.047408,2.047406 4.161914,3.123664 5.787369,3.665436 1.625458,0.541805 2.958147,0.564431 2.958147,0.564431 a 2.3593834,2.3593834 0 1 0 0,-4.718468 c 0,0 -0.436663,0.02266 -1.465291,-0.320255 -1.028625,-0.342845 -2.452935,-1.035981 -3.944194,-2.527352 -1.491335,-1.491335 -2.184465,-2.915572 -2.527353,-3.944196 -0.342882,-1.028623 -0.320255,-1.46529 -0.320255,-1.46529 a 2.3593834,2.3593834 0 0 0 -2.393716,-2.391373 z"
     inkscape:connector-curvature="0"
     style="fill:#ffffff;stroke-width:1.17958" />
</svg>
