<svg height="48" width="48" xmlns="http://www.w3.org/2000/svg"><g fill="#806794" opacity=".99" transform="matrix(1.1503549 0 0 1.1503549 -4.486125 -7.525565)"><path d="m44.322082 27.405077a19.729762 19.729765 0 0 1 -19.729762 19.729765 19.729762 19.729765 0 0 1 -19.7297621-19.729765 19.729762 19.729765 0 0 1 19.7297621-19.7297632 19.729762 19.729765 0 0 1 19.729762 19.7297632z"/><path d="m44.322082 27.405077a19.729762 19.729765 0 0 1 -19.729762 19.729765 19.729762 19.729765 0 0 1 -19.7297621-19.729765 19.729762 19.729765 0 0 1 19.7297621-19.7297632 19.729762 19.729765 0 0 1 19.729762 19.7297632z"/></g><path d="m15.305837 36.743945s1.6691.48464 3.8909.76171c.89978.11221 4.3233.50438 6.9481.49409 0 0 3.1968.004 4.9615-.24705 1.8464-.26228 2.8925-.59701 3.4746-1.265.0152-.15928.28099-.67847-.43672-1.1791-1.8349-1.28-4.207-1.6304-8.8146-2.7246-5.0951-1.281-6.6177-2.5076-7.3784-3.3954-.72118-.88971.13537-2.7374 4.2409-3.6439 2.0787-.50585 9.8206-.59879 9.8206-.59879-2.2211-1.7634-6.391-4.9206-7.2433-5.592-.74754-.58885-1.9522-1.4925-2.0817-2.3-.17468-.78609 1.0627-1.1646 1.7178-1.2082 2.1108-.14557 4.9931.1019 7.5552.6114 1.2878.25611 1.514.21836 1.514.21836 1.8342.0874 3.2608-.87343 3.188-2.8969-.0146-2.0526-2.0668-3.6984-4.338-3.7703-2.1389-.0677-7.4096.3057-7.4096.3057 6.1431 1.2665 7.1474 1.5897 7.4678 2.3292.18924.43671-.31612.87093-2.0089.78608-1.8429-.0923-5.6191-.5386-5.6191-.5386-3.5956-.55319-6.0995-1.0772-7.1912.34937-.71327.93202.1019 2.0671.42216 2.7367 1.4266 2.4893 3.8935 4.1971 5.4589 5.4007.58903.45287 2.3874 1.4557 2.3874 1.4557-5.59-1.5285-10.044-.66963-12.869.81521-3.2461995 1.9216-2.691 5.1642 2.4602 8.1957 3.0424 1.7905 4.5573 2.6507 9.5387 3.2623 2.9117.46428 3.3456.65424 3.3235.89661-.0312.34122-3.4463.47051-4.385.53526-2.3881.16469-8.5642.20588-8.5951.20588z" fill="#fff"/></svg>