<svg height="48" width="48" xmlns="http://www.w3.org/2000/svg"><path d="m44.322082 27.405077a19.729762 19.729765 0 0 1 -19.729762 19.729765 19.729762 19.729765 0 0 1 -19.7297621-19.729765 19.729762 19.729765 0 0 1 19.7297621-19.7297632 19.729762 19.729765 0 0 1 19.729762 19.7297632z" fill="#78915b" opacity=".99" transform="matrix(1.1503549 0 0 1.1503549 -4.486125 -7.525565)"/><circle cx="29.648533" cy="39.214424" fill="#fff" fill-opacity=".609091" r="2.720728" stroke-width="1.016335"/><path d="m29.296828 2.9372956c-.384267-.00506-1.011832.8295062-1.510853 1.5763901-1.137575 1.702601-2.198465 3.5647715-3.361784 5.9105763-1.151117 2.321194-1.261389 2.240809-1.1265 7.058328-.244173-.02057-.481072-.03437-.703175-.03543-.755961.07113-1.439493.235799-2.063477.472917l-.03543-.05491c-2.081562-3.094489-5.493036-5.928521-9.660263-8.301725-.359326-.204629-.621032-.289673-.802364-.278083-1.2693332.08113 1.40539 4.868657 2.192775 6.085928.714193 1.104047 2.487143 3.116054 3.90555 4.638836.30394.326288.57522.611041.832475.878527 0 0 .03156.03251.05137.05491-.09519.159662-.193892.315996-.279853.483546-.173656.543592-.267454 1.146793-.267454 1.806649 0 2.28239.705098 4.045122.503028 6.364009-.273836 3.142769-2.605011 5.039527-1.569306 7.880175.0215.06948.02794.132911.05313.203691.213836.60052.638399 1.222511 1.236314 1.916466.09681.112357.21171.210134.329448.306422.469831.39227 1.090534.663784 1.804878.83956.488524.120217 1.017297.199048 1.563991.2462.186125.01601.375702.02779.565021.03719l.161181-.02124c1.91857.07578 3.927398-.141496 5.102897-.205463.280783-.01529.563875-.04667.844874-.0921.868023-.140419 1.725447-.42138 2.515139-.814763h.0053c.03821-.01946.07192-.04548.109813-.06554.300888-.155633.595364-.321086.871442-.508342.883593-.599224 1.623485-1.352103 2.105986-2.210487.411756-.732511.633875-1.541549.602216-2.396467-.01049-.88536-.278643-1.819944-.889155-2.771966-1.989025-3.101488-4.147707-6.908229-4.259794-11.054211-.06022-.604024-.271761-1.132273-.598675-1.581705-.296093-.367068-.672262-.666083-1.091073-.91218.109174-.204664.21764-.500153.31882-.703175 1.707276-3.42671 2.334297-8.643936 2.82156-12.7829262.171259-1.4546135.0208-1.9656859-.278081-1.9696019zm-3.175805 19.9528424c.522563-.00097 1.138746.145211 1.416979.361329.590375.458578.883446 1.52447 1.02731 2.086502.143862.562031.182424 1.41094.175351 2.410638-.0071 1.015189-2.978351.484663-3.595585.05137-.617234-.433297-.940109-.798499-.938748-1.751742.000963-.729592.888813-2.960331 1.438234-3.104957.137355-.03616.302272-.05281.476459-.05313zm-6.470284.0018c.270888.01598.565913.112453.8803.311733.663886.420809 1.713786 1.748588 1.820817 2.532851.274845 2.012696-.893938 2.748107-2.323845 3.41133-1.429902.663224-2.053306-2.484656-2.157352-3.625696-.113815-1.247456.606239-2.699481 1.78008-2.630268zm.928123 2.718828a.90657049.90657049 0 0 0 -.906867.906867.90657049.90657049 0 0 0 .906867.906867.90657049.90657049 0 0 0 .906867-.906867.90657049.90657049 0 0 0 -.906867-.906867zm5.441202 0a.90657049.90657049 0 0 0 -.906867.906867.90657049.90657049 0 0 0 .906867.906867.90657049.90657049 0 0 0 .906867-.906867.90657049.90657049 0 0 0 -.906867-.906867zm3.420233 3.861268c.769171.271124 1.257569.860636 1.257569 2.139639-.000001 1.169684-1.799268 2.884566-2.334473 4.488284-.05934-.45381-.09209-.908922-.09209-1.354987 0-1.39593.517737-3.847617 1.169007-5.272936zm-11.636944 2.244103c1.069137 1.392822 1.909979 2.675917 2.669235 4.158835.360864.704881.486824 1.485724.520741 2.309676-.187797-1.927741-3.693003-2.297949-3.693003-5.007252 0-.561817.183307-1.044719.503027-1.461259z" fill="#fff" fill-opacity=".659091" stroke-width=".906936"/><path d="m19.967234 13.009854c-.555891-5.5686313-12.8472403-5.2704989-12.8472403 2.58201 0 2.512994.7785907 4.455137.5558888 7.008314-.3705929 4.248947-4.1754621 6.427435-.3088272 11.004282 1.9527606 2.311466 7.9747867 1.49269 10.5001477 1.352482 4.842624-.268912 9.980177-4.811405 6.794212-9.774754-2.192091-3.414857-4.570651-7.607458-4.694181-12.172334z" fill="none" stroke-width="1.12071"/><path d="m26.516006 29.238207c-.08915.000314-.181239.01194-.270999.01411-.0012.000029-.0024-.000029-.0035 0-2.431606.0495-6.595458.489882-8.241507 2.247683-.880862.471956-1.57452.955939-1.962516 1.386869-.111067.759577-1.425274 2.409158-.575649 4.796477.213719.600518.638725 1.220738 1.236316 1.914693.483015.560846 1.239741.914719 2.132552 1.13004.488258.117758 1.017597.194698 1.563991.240887.186026.01569.37404.028.563252.03719 1.965131.09543 4.054587-.139706 5.262307-.205462.280629-.01528.562257-.04491.843102-.09034.869371-.140723 1.729826-.421848 2.520452-.816536.341534-.170515.670603-.36305.981259-.573877.88311-.599224 1.621979-1.352103 2.104214-2.210487.813501-1.448.89713-3.194004-.286939-5.003708-.496079-.977161-1.248926-1.658592-2.159121-2.114843.0022.0025.0031.0063.0053.0088.06712.0796.128861.168415.182437.265686.0084.01529.01487.03208.02303.04782.04597.08973.08621.186786.120447.292253.0084.02576.01706.05118.0248.07793.02774.09729.04949.202628.06731.313506.007.04269.01582.08268.02124.127527.01795.150838.03011.311116.03011.487086-.000002 1.169683-1.799269 2.884567-2.334474 4.488283.04502.344436.104846.687465.180665 1.025539-.07582-.338074-.137415-.681103-.182436-1.025539-.0023-.01721-.0013-.03416-.0035-.05137-.05516-.43675-.08678-.874402-.08678-1.30362 0-.34132.03194-.746034.08856-1.181407.05301-.412513.133245-.854759.226717-1.300079.0025-.01213.0028-.02335.0053-.03543.09875-.465803.218565-.926281.350705-1.369157.129013-.432404.270879-.824247.42155-1.179634.0047-.01109.0077-.02626.01243-.0372.02221-.05172.04122-.120687.06377-.170037-.712234-.251054-1.666191-.230285-2.697575-.23026h-.0018c-.03008.000003-.0701.0017-.100951.0018-.0022.000008-.0048-.00001-.0071 0-.03963-.000242-.07714-.0054-.11689-.0053zm2.924291.2338c.17254.06083.325664.143831.467604.240887-.140903-.09796-.295398-.180201-.467604-.240887zm-11.636944 2.244142c1.069137 1.392822 1.909979 2.675917 2.669235 4.158835.360864.704881.486824 1.485724.520741 2.309677-.187797-1.927741-3.693003-2.29795-3.693003-5.007253 0-.561817.183307-1.044719.503027-1.461259z" fill="#fff" stroke-width="1.016335"/><g fill="none" stroke-width="1.12071"><path d="m16.682453 20.62472c.680622.477798 3.956108 1.062419 3.964042-.05703.0078-1.102362-.03552-2.03856-.194149-2.65831-.158638-.619751-.481645-1.794092-1.132651-2.299764-.409078-.317742-1.480944-.50021-2.086787-.340729-.605845.159481-1.58485 2.619301-1.585912 3.42382-.0015 1.05114.354834 1.454224 1.035457 1.932022z"/><path d="m12.064362 35.186774c-.003-2.021329.29977-4.027103-.535353-5.658197-.837231-1.63521-1.7635585-3.050216-2.9424937-4.586078"/><path d="m21.576103 33.960556c-.883846-1.541882-1.446531-3.69245-1.446531-5.67764 0-1.539288.570804-4.243264 1.288957-5.81496"/><path d="m12.111605 32.317264c.07348-2.339815-4.0804317-2.665317-4.0804317-5.762198 0-3.698171 7.2255557-4.33972 10.4112067-4.33972 2.366457 0 4.362009-.105066 4.362009 2.611868 0 1.289807-1.984698 3.181516-2.574868 4.949931"/><path d="m11.038237 22.110487c1.576751-.731335 2.867248-1.542127 2.564178-3.761576-.118025-.864805-1.276027-2.327768-2.008092-2.791793-1.8489299-1.171993-3.0893674.86369-2.9348999 2.556696.1147304 1.258223.8020628 4.728008 2.3788139 3.996673z"/></g></svg>