<?xml version="1.0" encoding="UTF-8" standalone="no"?>
<svg
   xmlns:dc="http://purl.org/dc/elements/1.1/"
   xmlns:cc="http://creativecommons.org/ns#"
   xmlns:rdf="http://www.w3.org/1999/02/22-rdf-syntax-ns#"
   xmlns:svg="http://www.w3.org/2000/svg"
   xmlns="http://www.w3.org/2000/svg"
   xmlns:xlink="http://www.w3.org/1999/xlink"
   xmlns:sodipodi="http://sodipodi.sourceforge.net/DTD/sodipodi-0.dtd"
   xmlns:inkscape="http://www.inkscape.org/namespaces/inkscape"
   version="1.1"
   preserveAspectRatio="xMidYMid meet"
   viewBox="0 0 640 640"
   width="64"
   height="64"
   id="svg94"
   sodipodi:docname="eom.svg"
   inkscape:version="0.92.4 5da689c313, 2019-01-14">
  <metadata
     id="metadata98">
    <rdf:RDF>
      <cc:Work
         rdf:about="">
        <dc:format>image/svg+xml</dc:format>
        <dc:type
           rdf:resource="http://purl.org/dc/dcmitype/StillImage" />
      </cc:Work>
    </rdf:RDF>
  </metadata>
  <sodipodi:namedview
     pagecolor="#ffffff"
     bordercolor="#666666"
     borderopacity="1"
     objecttolerance="10"
     gridtolerance="10"
     guidetolerance="10"
     inkscape:pageopacity="0"
     inkscape:pageshadow="2"
     inkscape:window-width="1851"
     inkscape:window-height="1048"
     id="namedview96"
     showgrid="false"
     inkscape:zoom="5.2149125"
     inkscape:cx="37.932869"
     inkscape:cy="20.207049"
     inkscape:window-x="69"
     inkscape:window-y="32"
     inkscape:window-maximized="1"
     inkscape:current-layer="g90" />
  <defs
     id="defs12">
    <path
       d="M599.31 328.99C599.31 484.08 473.15 609.98 317.75 609.98C162.36 609.98 36.2 484.08 36.2 328.99C36.2 173.91 162.36 48 317.75 48C473.15 48 599.31 173.91 599.31 328.99Z"
       id="bQ48fCX1r" />
    <path
       d="M462.08 131.17C481.38 131.17 497.02 146.82 497.02 166.12C497.02 235.34 497.02 408.03 497.02 477.25C497.02 496.55 481.38 512.2 462.08 512.2C399.16 512.2 245.34 512.2 182.42 512.2C163.12 512.2 147.47 496.55 147.47 477.25C147.47 408.03 147.47 235.34 147.47 166.12C147.47 146.82 163.12 131.17 182.42 131.17C245.34 131.17 399.16 131.17 462.08 131.17Z"
       id="ctSwVoHvC" />
    <path
       d="M177.82 166.02L466.68 166.02L466.68 414.41L177.82 414.41L177.82 166.02Z"
       id="fblSp7sqI" />
    <path
       d="M177.76 420.03L466.62 420.03L466.62 312.13L177.76 312.13L177.76 420.03Z"
       id="cOVur6oc6" />
    <path
       d="M348.16 274.59L322.19 237.46L296.21 274.59L267.41 255.87L286.3 314.79L358.07 314.79L376.96 255.87L348.16 274.59Z"
       id="a3VV07hfwq" />
    <path
       d="M358.07 314.79L286.3 314.79L322.19 291.46L358.07 314.79Z"
       id="fvsiVRAn5" />
    <path
       d="M322.19 237.46C316.65 291.5 317.11 287.65 316.88 288.02C315.5 287.12 308.61 282.65 296.21 274.59C310.07 254.79 318.72 242.41 322.19 237.46Z"
       id="e4m3TwtZI" />
    <path
       d="M348.16 274.59C335.76 282.65 328.87 287.12 327.49 288.02C327.27 287.65 327.72 291.55 322.19 237.46C325.65 242.41 334.31 254.79 348.16 274.59Z"
       id="e8Np1RRc5" />
    <path
       d="M402.97 312.38L406.12 312.7L409.26 313.14L412.39 313.71L415.49 314.4L418.58 315.22L421.63 316.16L424.66 317.23L427.66 318.43L430.61 319.75L433.52 321.2L436.39 322.77L439.21 324.47L441.98 326.3L444.69 328.25L447.34 330.33L449.92 332.53L452.44 334.86L454.89 337.31L456.89 339.47L458.8 341.69L460.63 343.95L462.37 346.25L464.02 348.6L465.59 350.99L467.07 353.42L468.46 355.88L469.77 358.38L470.99 360.92L472.12 363.48L473.17 366.07L474.13 368.69L475 371.33L475.79 373.99L476.49 376.67L477.1 379.37L477.63 382.09L478.07 384.81L478.42 387.55L478.68 390.3L478.86 393.05L478.96 395.81L478.96 398.57L478.88 401.33L478.72 404.09L478.46 406.84L478.12 409.58L477.7 412.32L477.18 415.05L476.58 417.76L475.89 420.46L475.12 423.14L474.26 425.8L473.31 428.44L472.28 431.06L471.16 433.65L469.95 436.21L468.66 438.74L467.28 441.24L467.28 441.24L467.27 441.26L467.26 441.28L467.24 441.31L467.22 441.34L467.2 441.39L467.18 441.44L467.15 441.5L467.12 441.57L467.09 441.64L467.06 441.72L467.03 441.81L467 441.9L466.97 441.99L466.94 442.1L466.92 442.2L466.89 442.31L466.87 442.43L466.84 442.55L466.83 442.67L466.81 442.8L466.8 442.93L466.79 443.07L466.79 443.2L466.8 443.34L466.8 443.48L466.82 443.63L466.84 443.77L466.87 443.92L466.9 444.07L466.95 444.22L467 444.37L467.06 444.52L467.13 444.67L467.21 444.81L467.3 444.96L467.39 445.11L467.5 445.26L467.62 445.41L467.76 445.55L468.58 446.42L469.48 447.36L470.45 448.37L471.49 449.45L472.58 450.59L473.72 451.79L474.92 453.04L476.16 454.34L477.44 455.68L478.75 457.05L480.1 458.45L481.47 459.89L482.85 461.34L484.26 462.8L485.67 464.28L487.09 465.76L488.5 467.24L489.92 468.72L491.32 470.19L492.71 471.64L494.08 473.07L495.42 474.47L496.73 475.85L498.01 477.18L499.25 478.48L500.45 479.73L501.6 480.93L502.69 482.07L503.72 483.15L504.69 484.17L506.42 485.97L507.83 487.45L509.27 488.95L509.78 489.49L510.39 490.15L510.99 490.82L511.55 491.51L512.09 492.2L512.61 492.91L513.1 493.63L513.57 494.35L514.01 495.09L514.42 495.83L514.81 496.57L515.17 497.32L515.5 498.08L515.81 498.84L516.09 499.61L516.34 500.37L516.56 501.14L516.76 501.91L516.92 502.68L517.06 503.45L517.17 504.22L517.24 504.99L517.29 505.75L517.31 506.51L517.3 507.27L517.25 508.02L517.18 508.77L517.07 509.51L516.93 510.24L516.77 510.96L516.56 511.68L516.33 512.39L516.06 513.09L515.76 513.77L515.43 514.45L515.06 515.11L514.66 515.76L514.23 516.39L513.76 517.02L513.26 517.62L512.72 518.21L511.44 519.55L510.88 520.11L510.3 520.64L509.7 521.13L509.09 521.58L508.47 522L507.84 522.38L507.19 522.73L506.54 523.04L505.87 523.32L505.19 523.57L504.51 523.78L503.81 523.96L503.11 524.1L502.41 524.21L501.69 524.29L500.97 524.33L500.25 524.35L499.52 524.33L498.79 524.28L498.06 524.2L497.32 524.09L496.58 523.94L495.85 523.77L495.11 523.57L494.38 523.33L493.64 523.07L492.91 522.78L492.18 522.46L491.46 522.11L490.74 521.74L490.03 521.33L489.32 520.9L488.62 520.44L487.93 519.95L487.24 519.44L486.56 518.9L485.9 518.33L485.24 517.74L484.6 517.12L483.96 516.48L482.59 515.04L481.35 513.75L479.78 512.11L478.88 511.17L477.92 510.16L476.89 509.08L475.8 507.94L474.65 506.74L473.46 505.49L472.22 504.2L470.94 502.87L469.63 501.49L468.29 500.09L466.93 498.67L465.54 497.22L464.14 495.75L462.73 494.28L461.32 492.8L459.9 491.32L458.49 489.85L457.09 488.39L455.71 486.94L454.34 485.51L453 484.11L451.69 482.74L450.42 481.4L449.18 480.11L447.98 478.86L446.84 477.67L445.75 476.53L444.72 475.45L443.75 474.44L442.85 473.5L442.03 472.64L441.88 472.49L441.74 472.36L441.59 472.24L441.44 472.13L441.29 472.03L441.14 471.94L441 471.87L440.85 471.8L440.7 471.74L440.56 471.69L440.41 471.65L440.27 471.62L440.12 471.59L439.98 471.57L439.85 471.56L439.71 471.56L439.58 471.56L439.45 471.56L439.32 471.57L439.2 471.58L439.08 471.6L438.96 471.62L438.85 471.64L438.74 471.67L438.64 471.7L438.54 471.73L438.45 471.76L438.36 471.79L438.28 471.82L438.2 471.85L438.13 471.88L438.06 471.91L438.01 471.94L437.96 471.96L437.91 471.99L437.88 472.01L437.85 472.02L437.83 472.03L437.82 472.04L437.81 472.04L435.42 473.49L433 474.84L430.55 476.1L428.07 477.27L425.57 478.35L423.05 479.34L420.5 480.24L417.94 481.05L415.36 481.77L412.76 482.4L410.15 482.93L407.53 483.38L404.91 483.74L402.27 484L399.64 484.18L397 484.26L394.36 484.25L391.72 484.16L389.09 483.97L386.46 483.69L383.84 483.32L381.23 482.86L378.63 482.31L376.05 481.67L373.49 480.94L370.94 480.12L368.41 479.2L365.91 478.2L363.43 477.11L360.98 475.92L358.56 474.65L356.17 473.28L353.81 471.82L351.49 470.28L349.2 468.64L346.95 466.91L344.75 465.09L342.59 463.18L340.47 461.18L338.4 459.09L336.06 456.53L333.83 453.9L331.72 451.2L329.73 448.43L327.87 445.6L326.12 442.7L324.49 439.76L322.99 436.76L321.6 433.71L320.34 430.62L319.2 427.49L318.17 424.33L317.27 421.13L316.49 417.91L315.82 414.66L315.28 411.39L314.86 408.11L314.56 404.81L314.38 401.51L314.32 398.2L314.38 394.89L314.56 391.59L314.86 388.3L315.28 385.01L315.82 381.75L316.49 378.5L317.27 375.27L318.17 372.08L319.2 368.91L320.34 365.78L321.6 362.69L322.99 359.65L324.49 356.65L326.12 353.7L327.87 350.81L329.73 347.97L331.72 345.2L333.83 342.5L336.06 339.87L338.4 337.31L340.85 334.86L343.37 332.53L345.95 330.33L348.6 328.25L351.31 326.3L354.08 324.47L356.9 322.77L359.77 321.2L362.68 319.75L365.64 318.43L368.63 317.23L371.66 316.16L374.72 315.22L377.8 314.4L380.91 313.71L384.03 313.14L387.17 312.7L390.32 312.38L393.48 312.2L396.65 312.13L399.81 312.2L402.97 312.38ZM391.97 334.79L389.65 335.03L387.33 335.35L385.02 335.77L382.72 336.28L380.44 336.89L378.18 337.58L375.95 338.37L373.73 339.26L371.55 340.23L369.4 341.3L367.28 342.47L365.19 343.72L363.15 345.07L361.15 346.51L359.19 348.05L357.28 349.68L355.42 351.4L353.61 353.21L351.88 355.1L350.23 357.05L348.67 359.04L347.2 361.09L345.83 363.18L344.54 365.32L343.33 367.5L342.22 369.71L341.2 371.97L340.26 374.25L339.42 376.56L338.66 378.9L337.99 381.26L337.42 383.64L336.93 386.04L336.53 388.46L336.22 390.88L335.99 393.32L335.86 395.76L335.81 398.2L335.86 400.65L335.99 403.09L336.22 405.52L336.53 407.95L336.93 410.36L337.42 412.76L337.99 415.14L338.66 417.51L339.42 419.84L340.26 422.16L341.2 424.44L342.22 426.69L343.33 428.91L344.54 431.08L345.83 433.22L347.2 435.31L348.67 437.36L350.23 439.36L351.88 441.3L353.61 443.19L355.42 445.01L357.28 446.73L359.19 448.36L361.15 449.89L363.15 451.33L365.19 452.68L367.28 453.94L369.4 455.1L371.55 456.17L373.73 457.15L375.95 458.03L378.18 458.82L380.44 459.52L382.72 460.12L385.02 460.63L387.33 461.05L389.65 461.38L391.97 461.61L394.31 461.75L396.65 461.8L398.98 461.75L401.32 461.61L403.65 461.38L405.97 461.05L408.28 460.63L410.57 460.12L412.85 459.52L415.11 458.82L417.35 458.03L419.56 457.15L421.74 456.17L423.9 455.1L426.02 453.94L428.1 452.68L430.14 451.33L432.15 449.89L434.1 448.36L436.01 446.73L437.87 445.01L439.68 443.19L441.42 441.3L443.06 439.36L444.62 437.36L446.09 435.31L447.47 433.22L448.76 431.08L449.96 428.91L451.07 426.69L452.1 424.44L453.03 422.16L453.87 419.84L454.63 417.51L455.3 415.14L455.88 412.76L456.37 410.36L456.77 407.95L457.08 405.52L457.3 403.09L457.43 400.65L457.48 398.2L457.43 395.76L457.3 393.32L457.08 390.88L456.77 388.46L456.37 386.04L455.88 383.64L455.3 381.26L454.63 378.9L453.87 376.56L453.03 374.25L452.09 371.97L451.07 369.71L449.96 367.5L448.76 365.32L447.47 363.18L446.09 361.09L444.62 359.04L443.06 357.05L441.42 355.1L439.68 353.21L437.87 351.4L436.01 349.68L434.1 348.05L432.15 346.51L430.14 345.07L428.1 343.72L426.02 342.47L423.9 341.3L421.74 340.23L419.56 339.26L417.35 338.37L415.11 337.58L412.85 336.89L410.57 336.28L408.28 335.77L405.97 335.35L403.65 335.03L401.32 334.79L398.98 334.65L396.65 334.61L394.31 334.65L391.97 334.79Z"
       id="beTcX2580" />
    <path
       d="M359.06 381.76C355.6 380.24 353.98 376.1 355.44 372.52C364.65 349.98 389.84 339.4 411.6 348.94C415.06 350.45 416.68 354.59 415.22 358.18C413.75 361.76 409.76 363.44 406.3 361.92C391.45 355.42 374.26 362.63 367.98 378.01C366.88 380.7 364.36 382.32 361.71 382.32C360.82 382.32 359.92 382.14 359.06 381.76Z"
       id="bVJsPNfq8" />
  </defs>
  <g
     id="g92">
    <g
       id="g90">
      <g
         id="g20"
         style="fill:#96afd8;fill-opacity:1">
        <use
           xlink:href="#bQ48fCX1r"
           opacity="1"
           fill="#dec2ec"
           fill-opacity="1"
           id="use14"
           style="fill:#96afd8;fill-opacity:1" />
        <g
           id="g18"
           style="fill:#96afd8;fill-opacity:1">
          <use
             xlink:href="#bQ48fCX1r"
             opacity="1"
             fill-opacity="0"
             stroke="#7fab68"
             stroke-width="0"
             stroke-opacity="1"
             id="use16"
             style="fill:#96afd8;fill-opacity:1" />
        </g>
      </g>
      <g
         id="g24">
        <use
           xlink:href="#ctSwVoHvC"
           opacity="1"
           fill="#ffffff"
           fill-opacity="1"
           id="use22" />
      </g>
      <g
         id="g32">
        <use
           xlink:href="#fblSp7sqI"
           opacity="1"
           fill="#dec2ec"
           fill-opacity="1"
           id="use26"
           style="fill:#96afd8;fill-opacity:1" />
        <g
           id="g30">
          <use
             xlink:href="#fblSp7sqI"
             opacity="1"
             fill-opacity="0"
             stroke="#edb164"
             stroke-width="0"
             stroke-opacity="1"
             id="use28" />
        </g>
      </g>
      <g
         id="g40"
         style="fill:#5e6f8d;fill-opacity:1">
        <use
           xlink:href="#cOVur6oc6"
           opacity="1"
           fill="#96afd8"
           fill-opacity="1"
           id="use34"
           style="fill:#5e6f8d;fill-opacity:1" />
        <g
           id="g38"
           style="fill:#5e6f8d;fill-opacity:1">
          <use
             xlink:href="#cOVur6oc6"
             opacity="1"
             fill-opacity="0"
             stroke="#66b2fe"
             stroke-width="0"
             stroke-opacity="1"
             id="use36"
             style="fill:#5e6f8d;fill-opacity:1" />
        </g>
      </g>
      <g
         id="g48">
        <use
           xlink:href="#a3VV07hfwq"
           opacity="1"
           fill="#7b5656"
           fill-opacity="1"
           id="use42" />
        <g
           id="g46">
          <use
             xlink:href="#a3VV07hfwq"
             opacity="1"
             fill-opacity="0"
             stroke="#000000"
             stroke-width="0"
             stroke-opacity="0"
             id="use44" />
        </g>
      </g>
      <g
         id="g56">
        <use
           xlink:href="#fvsiVRAn5"
           opacity="1"
           fill="#a16d6d"
           fill-opacity="1"
           id="use50" />
        <g
           id="g54">
          <use
             xlink:href="#fvsiVRAn5"
             opacity="1"
             fill-opacity="0"
             stroke="#000000"
             stroke-width="0"
             stroke-opacity="0"
             id="use52" />
        </g>
      </g>
      <g
         id="g64">
        <use
           xlink:href="#e4m3TwtZI"
           opacity="1"
           fill="#a16d6d"
           fill-opacity="1"
           id="use58" />
        <g
           id="g62">
          <use
             xlink:href="#e4m3TwtZI"
             opacity="1"
             fill-opacity="0"
             stroke="#000000"
             stroke-width="0"
             stroke-opacity="0"
             id="use60" />
        </g>
      </g>
      <g
         id="g72">
        <use
           xlink:href="#e8Np1RRc5"
           opacity="1"
           fill="#a16d6d"
           fill-opacity="1"
           id="use66" />
        <g
           id="g70">
          <use
             xlink:href="#e8Np1RRc5"
             opacity="1"
             fill-opacity="0"
             stroke="#000000"
             stroke-width="0"
             stroke-opacity="0"
             id="use68" />
        </g>
      </g>
      <g
         id="g80"
         style="fill:#ffffff;fill-opacity:1"
         transform="matrix(1.2403166,0,0,1.2403166,-174.33841,-213.72217)">
        <use
           xlink:href="#beTcX2580"
           id="use74"
           style="opacity:1;fill:#ffffff;fill-opacity:1"
           x="0"
           y="0"
           width="100%"
           height="100%" />
        <g
           id="g78"
           style="fill:#ffffff;fill-opacity:1">
          <use
             xlink:href="#beTcX2580"
             id="use76"
             style="opacity:1;fill:#ffffff;fill-opacity:1;stroke:#000000;stroke-width:0;stroke-opacity:0"
             x="0"
             y="0"
             width="100%"
             height="100%" />
        </g>
      </g>
    </g>
  </g>
</svg>
