<svg height="48" width="48" xmlns="http://www.w3.org/2000/svg"><g fill="#d09d67" opacity=".99" transform="matrix(1.1503549 0 0 1.1503549 -4.486125 -7.525565)"><path d="m44.322082 27.405077a19.729762 19.729765 0 0 1 -19.729762 19.729765 19.729762 19.729765 0 0 1 -19.7297621-19.729765 19.729762 19.729765 0 0 1 19.7297621-19.7297632 19.729762 19.729765 0 0 1 19.729762 19.7297632z"/><path d="m44.322082 27.405077a19.729762 19.729765 0 0 1 -19.729762 19.729765 19.729762 19.729765 0 0 1 -19.7297621-19.729765 19.729762 19.729765 0 0 1 19.7297621-19.7297632 19.729762 19.729765 0 0 1 19.729762 19.7297632z"/></g><path d="m14 13c0 1 1 2 2 2 9.9411-.00001 18 8.0589 18 18 0 1 .90694 2 2 2 1 0 2-1 2-2 0-12.15-9.8497-22-22-22-1 0-2 1-2 2zm0 8c0 1 1 2 2 2 5.5229-.000006 10 4.4771 10 10 0 1 1 2 2 2s2-1 2-2c0-7.732-6.268-14-14-14-1 0-2 1-2 2zm4 6c-2.2091 0-4 1.7909-4 4 0 2.209 1.791 4 4 4 2.2091 0 4-1.7909 4-4s-1.7909-4-4-4z" fill="#fff"/></svg>