<svg height="48" width="48" xmlns="http://www.w3.org/2000/svg"><circle cx="23.940615" cy="31.534513" fill="#8876ad" opacity=".99" r="13.232998" transform="matrix(1.72140698859 0 0 1.72140721951 -17.22890938181 -30.06939267246)"/><g fill-rule="evenodd"><path d="m34.226779 24.199744 2.365898 5.063018c-5.257796.514995-8.761951 2.783632-12.870477 4.447891-4.188805-1.734325-7.871991-3.757573-13.7222-4.542523l3.406886-4.968386h.953766l.433079 3.264128 8.400049 4.498323 6.362029-2.077132 2.671861-5.685319z" fill="#fff" fill-opacity=".651408"/><path d="m10.192876 9.9999738c-2.1503745 7.0313352 1.736218 11.4409932 1.736218 11.4409932-.367441 1.809814-1.789481 4.111782-2.8005411 6.029734 9.4026991 1.952733 10.2241661 8.009291 12.9736941 12.973685.999079.946068 2.026659 1.079803 3.099931-.07579 2.378734-5.064922 4.325662-10.433853 12.182116-12.897996-1.079641-1.416844-1.379097-4.394369-1.6146-6.029602.957628-2.577848 2.550025-4.441514.724948-11.440994-4.616499 1.241791-9.17846 3.90574-9.586907 5.663309-2.12022-.75133-4.752202-.677427-6.183957 0-.004-.836302-3.627545-5.640483-10.530902-5.663309zm1.059661 2.2241312s1.616472 2.262904 1.806863 3.546701c.190386 1.283787-.669178 3.747374-.669178 3.747374s-1.116174-1.90297-1.338365-3.14522c-.222183-1.24225.20068-4.148855.20068-4.148855zm24.254119.06692s.422865 2.906734.200673 4.148992c-.222184 1.242249-1.338357 3.145083-1.338357 3.145083s-.859562-2.463577-.669179-3.747374c.190392-1.283796 1.806863-3.546701 1.806863-3.546701zm-20.538697 11.041457 3.345892 3.546572-3.011307-.86986zm16.322819 0-.334594 2.676712-3.011307.86986zm-5.621005 13.918849-2.007535 2.944411-1.940646-2.877522z" fill="#fffcfa" fill-opacity=".647887"/><path d="m10.192876 9.9999738c-2.1503745 7.0313352 1.736218 11.4409932 1.736218 11.4409932-.367441 1.809814-1.789481 4.111782-2.8005411 6.029734 9.4026991 1.952733 10.2241661 8.009291 12.9736941 12.973685.999079.946068 2.026659 1.079803 3.099931-.07579 2.378734-5.064922 4.325662-10.433853 12.182116-12.897996-1.079641-1.416844-1.379097-4.394369-1.6146-6.029602.957628-2.577848 2.550025-4.441514.724948-11.440994-4.616499 1.241791-9.17846 3.90574-9.586907 5.663309-2.12022-.75133-4.752202-.677427-6.183957 0-.004-.836302-3.627545-5.640483-10.530902-5.663309zm1.059661 2.2241312s1.616472 2.262904 1.806863 3.546701c.190386 1.283787-.669178 3.747374-.669178 3.747374s-1.116174-1.90297-1.338365-3.14522c-.222183-1.24225.20068-4.148855.20068-4.148855zm24.254119.06692s.422865 2.906734.200673 4.148992c-.222184 1.242249-1.338357 3.145083-1.338357 3.145083s-.859562-2.463577-.669179-3.747374c.190392-1.283796 1.806863-3.546701 1.806863-3.546701zm-20.538697 11.041457 3.345892 3.546572-3.011307-.86986zm16.322819 0-.334594 2.676712-3.011307.86986zm-5.621005 13.918849-2.007535 2.944411-1.940646-2.877522z" fill="#fff"/></g></svg>