<svg height="48" width="48" xmlns="http://www.w3.org/2000/svg"><g transform="matrix(.09046934 0 0 .09046934 .677537 42.855997)"><circle cx="23.940615" cy="31.534513" fill="#f98665" opacity=".99" r="13.232998" transform="matrix(19.02751792589 0 0 19.02752047829 -197.92834104689 -806.07849767068)"/><path d="m85.522544-345.56923c-5.52119 36.11218 6.429227 91.7429 35.225936 116.14609-18.35709 16.76439-29.291442 38.43465-28.084908 64.73612l157.559618 162.7962174 162.31948-162.3194974c-1.82409-23.9257-11.68033-43.77499-26.65721-59.50199 34.98023-19.6975 49.83716-82.33522 43.79469-121.85694-15.17568 4.93951-63.3808 12.49095-88.5379 42.36452-12.70388 15.08561-10.8003 30.18875-12.85435 44.74567-43.58724-15.08392-96.93226-16.23593-141.84985-4.2856-1.27389-13.25405-.9036-26.8349-12.37762-40.46007-25.15706-29.87357-73.3622-37.42501-88.537886-42.36452zm334.460036 35.86076c4.11544.23696-8.79373 27.72057-15.56897 35.93735-8.78583 10.65516-39.18823 35.51469-35.38898 21.54165 2.53087-9.30818 44.66684-52.70391 48.08523-55.77711 1.35027-1.21391 2.2848-1.73574 2.87272-1.70189zm-324.792104 4.45605c.587913-.0339 1.522452.48798 2.872715 1.70189 3.418409 3.07321 45.554359 46.46892 48.085229 55.7771 3.79924 13.97305-26.60563-10.88651-35.39145-21.54166-6.77524-8.21677-19.681924-35.70037-15.566494-35.93733zm53.675044 158.13761c5.28388-.0314 26.81641.35121 33.18319 8.47489 4.41308 5.63086 0 21.46013 0 21.46013l-34.36142-29.91772s.42339-.0128 1.17823-.0173zm199.06454 0c.75484.004 1.17823.0173 1.17823.0173l-34.36142 29.91772s-4.41308-15.82927 0-21.46013c6.36679-8.12368 27.89931-8.50632 33.18319-8.47489z" fill="#fff9f7"/></g></svg>