<?xml version="1.0" encoding="UTF-8" standalone="no"?>
<svg
   xmlns:dc="http://purl.org/dc/elements/1.1/"
   xmlns:cc="http://creativecommons.org/ns#"
   xmlns:rdf="http://www.w3.org/1999/02/22-rdf-syntax-ns#"
   xmlns:svg="http://www.w3.org/2000/svg"
   xmlns="http://www.w3.org/2000/svg"
   xmlns:sodipodi="http://sodipodi.sourceforge.net/DTD/sodipodi-0.dtd"
   xmlns:inkscape="http://www.inkscape.org/namespaces/inkscape"
   height="48"
   width="48"
   version="1.1"
   id="svg6"
   sodipodi:docname="fmit.svg"
   inkscape:version="0.92.5 (2060ec1f9f, 2020-04-08)">
  <metadata
     id="metadata12">
    <rdf:RDF>
      <cc:Work
         rdf:about="">
        <dc:format>image/svg+xml</dc:format>
        <dc:type
           rdf:resource="http://purl.org/dc/dcmitype/StillImage" />
        <dc:title></dc:title>
      </cc:Work>
    </rdf:RDF>
  </metadata>
  <defs
     id="defs10" />
  <sodipodi:namedview
     pagecolor="#ffffff"
     bordercolor="#666666"
     borderopacity="1"
     objecttolerance="10"
     gridtolerance="10"
     guidetolerance="10"
     inkscape:pageopacity="0"
     inkscape:pageshadow="2"
     inkscape:window-width="1920"
     inkscape:window-height="1025"
     id="namedview8"
     showgrid="false"
     inkscape:zoom="9.8333333"
     inkscape:cx="6.9661016"
     inkscape:cy="34.169491"
     inkscape:window-x="0"
     inkscape:window-y="30"
     inkscape:window-maximized="1"
     inkscape:current-layer="svg6" />
  <circle
     cx="23.940615"
     cy="31.534513"
     fill="#74a2f3"
     opacity=".99"
     r="13.232998"
     transform="matrix(1.75830584759 0 0 1.75830608345 -18.15909274367 -30.97874795549)"
     id="circle2"
     style="fill:#6e966e;fill-opacity:1" />
  <g
     inkscape:label="Layer 1"
     id="layer1-6"
     transform="matrix(0.25192936,0,0,0.24684195,8.1472497,-222.88612)"
     style="fill:#ffffff;fill-opacity:1">
    <g
       id="g3923"
       transform="matrix(0.5703594,0,0,0.5703594,26.58056,614.68158)"
       inkscape:export-filename="/home/degottex/Research/Perso/Code/FMIT/fmit/ui/images/fmit.png"
       inkscape:export-xdpi="15.936898"
       inkscape:export-ydpi="15.936898"
       style="fill:#ffffff;fill-opacity:1">
      <g
         transform="matrix(1.5692673,0,0,1.5692673,-796.10231,-273.34315)"
         id="g3816"
         style="fill:#ffffff;fill-opacity:1">
        <path
           sodipodi:type="arc"
           style="fill:#ffffff;fill-opacity:1;stroke:none;stroke-width:4.78333998;stroke-miterlimit:4;stroke-dasharray:none;stroke-opacity:1"
           id="path3618"
           sodipodi:cx="548.88611"
           sodipodi:cy="646.06091"
           sodipodi:rx="86.080238"
           sodipodi:ry="116.53075"
           d="m 479.45774,577.17256 a 86.080238,116.53075 0 0 1 68.53931,-47.63618 86.080238,116.53075 0 0 1 69.25153,45.70952 l -68.36247,70.81501 z"
           sodipodi:start="3.7740893"
           sodipodi:end="5.6300319"
           sodipodi:arc-type="slice" />
        <path
           style="fill:#ffffff;fill-opacity:1;stroke:#6e966e;stroke-width:4.59973001;stroke-linecap:butt;stroke-linejoin:miter;stroke-miterlimit:4;stroke-dasharray:none;stroke-opacity:0.99215686"
           d="m 550.26004,529.50866 v 10.92387"
           id="path3654"
           sodipodi:nodetypes="cc"
           inkscape:connector-curvature="0" />
        <path
           style="fill:#ffffff;fill-opacity:1;stroke:#6e966e;stroke-width:4.59973001;stroke-linecap:butt;stroke-linejoin:miter;stroke-miterlimit:4;stroke-dasharray:none;stroke-opacity:0.99215686"
           d="m 510.30596,541.58818 5.46193,9.02406"
           id="path3654-4"
           sodipodi:nodetypes="cc"
           inkscape:connector-curvature="0" />
        <path
           style="fill:#ffffff;fill-opacity:1;stroke:#6e966e;stroke-width:4.59973001;stroke-linecap:butt;stroke-linejoin:miter;stroke-miterlimit:4;stroke-dasharray:none;stroke-opacity:0.99215686"
           d="m 588.7915,541.58818 -5.46193,9.02406"
           id="path3654-4-6"
           sodipodi:nodetypes="cc"
           inkscape:connector-curvature="0" />
        <path
           style="fill:#ffffff;fill-opacity:1;stroke:#6e966e;stroke-width:4.59973001;stroke-linecap:butt;stroke-linejoin:miter;stroke-miterlimit:4;stroke-dasharray:none;stroke-opacity:0.99215686"
           d="m 607.31457,557.02407 -6.88678,7.12426"
           id="path3654-4-6-2"
           sodipodi:nodetypes="cc"
           inkscape:connector-curvature="0" />
        <path
           style="fill:#ffffff;fill-opacity:1;stroke:#6e966e;stroke-width:4.59973001;stroke-linecap:butt;stroke-linejoin:miter;stroke-miterlimit:4;stroke-dasharray:none;stroke-opacity:0.99215686"
           d="m 492.25786,557.02407 6.41183,6.64931"
           id="path3654-4-6-2-5"
           sodipodi:nodetypes="cc"
           inkscape:connector-curvature="0" />
        <path
           style="fill:#ffffff;fill-opacity:1;stroke:#6e966e;stroke-width:4.59973001;stroke-linecap:butt;stroke-linejoin:miter;stroke-miterlimit:4;stroke-dasharray:none;stroke-opacity:0.99215686"
           d="m 528.05835,532.47148 3.32466,9.49901"
           id="path3654-4-8"
           sodipodi:nodetypes="cc"
           inkscape:connector-curvature="0" />
        <path
           style="fill:#ffffff;fill-opacity:1;stroke:#6e966e;stroke-width:4.59973001;stroke-linecap:butt;stroke-linejoin:miter;stroke-miterlimit:4;stroke-dasharray:none;stroke-opacity:0.99215686"
           d="m 572.22958,533.78323 -3.32466,9.49901"
           id="path3654-4-8-6"
           sodipodi:nodetypes="cc"
           inkscape:connector-curvature="0" />
      </g>
      <g
         transform="matrix(3.0114113,0,0,3.0114113,-621.22547,-364.65118)"
         id="g3646"
         style="fill:#ffffff;fill-opacity:1" />
    </g>
  </g>
  <rect
     style="opacity:1;fill:#7dbf7d;fill-opacity:1;stroke:#6e966e;stroke-width:0.28697693;stroke-linejoin:round;stroke-miterlimit:4;stroke-dasharray:none;stroke-opacity:0.99215686;paint-order:markers fill stroke"
     id="rect1453"
     width="0.30091646"
     height="16.921858"
     x="28.984518"
     y="3.1250334"
     transform="matrix(0.95443012,0.2984345,-0.14030462,0.99010838,0,0)"
     ry="0.12487718" />
  <rect
     style="opacity:1;fill:#6e966e;fill-opacity:0.99215686;stroke:#6e966e;stroke-width:0.51704198;stroke-linejoin:round;stroke-miterlimit:4;stroke-dasharray:none;stroke-opacity:0.99215686;paint-order:markers fill stroke"
     id="rect1451"
     width="0.77718872"
     height="17.160725"
     x="28.334703"
     y="13.303809"
     transform="matrix(0.99542381,0.09555851,-0.14538531,0.98937511,0,0)" />
  <g
     id="g939"
     transform="matrix(0.14783659,0,0,0.16916944,1.3914471,5.3026533)"
     style="stroke-width:5.10274982;stroke-miterlimit:4;stroke-dasharray:none">
    <path
       style="opacity:1;fill:#95a67b;fill-opacity:0;stroke:#ffffff;stroke-width:5.10274982;stroke-linecap:butt;stroke-linejoin:miter;stroke-miterlimit:4;stroke-dasharray:none;stroke-opacity:0.60326089"
       d="m 246.31475,176.15824 c -4.59076,0.38971 -15.15371,32.32254 -16.71171,34.58014 -1.558,2.2576 -1.38301,-16.90814 -2.79136,-10.91559 -1.50749,0.89052 -1.35912,-16.66071 -3.32376,-17.04002 -1.96462,-0.37918 -3.76438,29.21657 -6.46379,23.47007 -0.45014,-2.59424 -0.31482,-4.81111 -3.15921,-3.48171 -2.84437,1.32968 0.51637,-21.37221 -5.54405,-12.85788 -3.19113,5.36041 -3.57944,-11.29953 -6.01739,-0.0596 -2.43794,11.23977 -6.70121,3.16169 -7.3228,4.89991 -0.62159,1.73808 -2.48672,-1.57294 -2.83105,-3.13703 -1.16339,-5.28434 -1.75929,-8.41915 -3.57167,-3.66055 -1.81239,4.7586 -2.79331,0.20088 -4.87548,3.80463 -2.08213,3.60362 0.29532,-7.89258 -5.27612,-8.08376"
       id="path3616-2-8-7"
       sodipodi:nodetypes="czczczczzszzc"
       inkscape:connector-curvature="0"
       inkscape:export-filename="/home/degottex/Research/Perso/Code/FMIT/fmit/ui/images/fmit.png"
       inkscape:export-xdpi="15.936898"
       inkscape:export-ydpi="15.936898" />
    <path
       style="fill:#404040;fill-opacity:0;fill-rule:nonzero;stroke:#ffffff;stroke-width:5.10274982;stroke-linecap:butt;stroke-linejoin:miter;stroke-miterlimit:4;stroke-dasharray:none;stroke-opacity:0.60326089"
       d="m 67.600742,201.62432 c 3.60276,-0.53877 -2.45261,-30.84492 -1.22992,-33.96325 1.2227,-3.11833 12.9079,17.17744 14.01316,8.90031 1.18306,-1.23002 4.64036,21.29031 6.18217,21.81398 1.54183,0.52381 2.95423,-40.35521 5.07268,-32.41783 0.35327,3.58335 0.24707,6.64521 2.47928,4.80879 2.23221,-1.83626 -0.40521,29.52057 4.3509,17.76018 2.504318,-7.40382 0.73248,18.64165 4.722328,0.0817 2.88339,-15.127 2.52113,-6.72111 3.8346,-8.38549 1.31347,-1.66444 3.22149,-0.39331 4.13397,5.95071 0.91301,7.29867 1.38065,11.62864 2.80298,5.05576 1.42234,-6.57274 2.19213,-0.27749 3.82617,-5.25484 1.63404,-4.97763 -0.23174,10.9016 4.14062,11.16551"
       id="path3616-2-8"
       sodipodi:nodetypes="czczczcczczzc"
       inkscape:connector-curvature="0"
       inkscape:export-filename="/home/degottex/Research/Perso/Code/FMIT/fmit/ui/images/fmit.png"
       inkscape:export-xdpi="15.936898"
       inkscape:export-ydpi="15.936898" />
    <path
       style="fill:#95a67b;fill-opacity:0;stroke:#ffffff;stroke-width:5.10274982;stroke-linecap:butt;stroke-linejoin:miter;stroke-miterlimit:4;stroke-dasharray:none;stroke-opacity:0.60326089"
       d="m 121.92968,197.13989 c 0.98568,0.56828 1.52721,-12.36718 2.80897,-13.50374 1.28175,-1.13669 1.38753,-3.92571 2.01993,-3.51066 2.78802,-0.11775 2.67232,6.66515 4.44393,5.93242 1.77162,-0.73272 4.88551,7.81376 7.06012,0.8412 0.40796,-2.33892 5.73558,-6.48117 6.98649,-6.20202 2.32262,0.56579 3.69566,12.58413 6.32158,16.83569 2.6259,4.25141 6.94954,15.48121 9.402,9.93613 2.45248,-5.54479 -6.81449,-9.9565 -5.43009,-14.41697 1.3844,-4.4606 11.6938,-6.95981 10.06196,-1.07656 -1.63183,5.88324 -8.25112,-8.14347 -6.44847,-13.20968 1.80263,-5.06615 5.94189,-0.4792 9.24174,6.79639 3.29987,7.27568 7.03395,-2.16671 10.02852,-1.88521"
       id="path3616-2"
       sodipodi:nodetypes="czczcczzzzzzz"
       inkscape:connector-curvature="0"
       inkscape:export-filename="/home/degottex/Research/Perso/Code/FMIT/fmit/ui/images/fmit.png"
       inkscape:export-xdpi="15.936898"
       inkscape:export-ydpi="15.936898" />
  </g>
</svg>
