<svg height="48" width="48" xmlns="http://www.w3.org/2000/svg"><path d="m44.322082 27.405077a19.729762 19.729765 0 0 1 -19.729762 19.729765 19.729762 19.729765 0 0 1 -19.7297621-19.729765 19.729762 19.729765 0 0 1 19.7297621-19.7297632 19.729762 19.729765 0 0 1 19.729762 19.7297632z" fill="#b99e30" opacity=".99" transform="matrix(1.1503549 0 0 1.1503549 -4.486125 -7.525565)"/><path d="m23.999687 11.841639c-3.516299.01037-7.147286 2.311779-8.532827 7.145846a.69457822.69457822 0 1 0 1.335211.382748c1.422653-4.963548 5.174743-6.634898 8.436519-6.027895 3.261776.607004 6.047622 3.481644 5.427432 8.387915l-.000933.0065-.0007.0064c-.07906.735933-.178128 1.45297-.0059 2.182092.172252.729121.714143 1.415506 1.59407 1.802062a.69457822.69457822 0 1 0 .558636-1.271684c-.585686-.257295-.711352-.47112-.800765-.849598-.08941-.378479-.04422-.976526.03504-1.714343l-.0016.01289c.696323-5.508554-2.625153-9.197317-6.551262-9.927949-.490764-.09133-.990684-.136449-1.493013-.134969zm-.01063 2.474866c-.09192-.001-.183833.000105-.275814.0034-2.555815.0913-5.099554 1.851637-5.647857 5.18847-.411381 1.445494-1.27527 2.150156-2.464466 2.129424a.69457822.69457822 0 1 0 -.02419 1.388789c1.818412.03173 3.293814-1.258672 3.828164-3.148803l.01176-.04094.0065-.04228c.493562-3.205645 2.946141-4.383261 5.175582-4.037516 1.114721.172873 2.150614.747623 2.84292 1.701453.692306.953834 1.068562 2.30215.773863 4.135629-.183756 1.143233-.339879 2.378333.06601 3.635996.405892 1.257669 1.38424 2.453396 3.200798 3.498326a.69457822.69457822 0 1 0 .692701-1.203863c-1.615727-.929398-2.28162-1.822469-2.571627-2.721068-.290007-.898593-.193553-1.887448-.0165-2.988959.342308-2.129663-.09733-3.899107-1.021189-5.17197-.923862-1.272862-2.304543-2.033497-3.75401-2.258283-.271775-.04215-.54693-.06472-.822695-.06782zm-.263831 2.7708c-.596523-.0074-1.204312.160678-1.739664.523818-.806616.547152-1.423523 1.507185-1.711177 2.836593-.496826 1.554348-1.110989 2.450195-1.901534 2.999813-.794545.552407-1.84381.79535-3.313386.831287a.69457822.69457822 0 1 0 .03391 1.388568c1.606217-.03931 2.964901-.309364 4.072327-1.079292 1.107425-.769934 1.886854-1.999912 2.440276-3.742931l.01063-.03348.0072-.03435c.228225-1.089854.678946-1.703099 1.141463-2.016831.462518-.313738.962255-.35921 1.439434-.20121.954356.315995 1.835263 1.468367 1.226241 3.451064-.420156 1.367841-.684561 2.783137-1.856093 4.101715-1.171533 1.318584-3.308576 2.606941-7.641178 3.420999a.69457822.69457822 0 1 0 .25637 1.365054c4.513911-.848123 6.99093-2.251406 8.423179-3.863432 1.432252-1.612021 1.761415-3.366173 2.145473-4.616494.777299-2.53053-.405623-4.610813-2.117438-5.177612-.213978-.07085-.435916-.117702-.661276-.13949-.08451-.0082-.169571-.01271-.254788-.01376zm.105803 2.412695a.69457822.69457822 0 0 0 -.663536.653586c-.206436 2.861746-1.322383 4.203903-2.825285 5.100753-1.5029.896849-3.455119 1.252437-5.195251 1.773123a.69459327.69459327 0 1 0 .398123 1.330913c1.618302-.48423 3.70388-.834161 5.508819-1.911254 1.80494-1.077093 3.266997-2.977284 3.498995-6.193383a.69457822.69457822 0 0 0 -.721865-.753738zm2.883614 7.41284a.69457822.69457822 0 0 0 -.52382 1.175374c1.348145 1.442887 2.788118 2.39927 4.278508 2.972688a.69457822.69457822 0 1 0 .498726-1.296329c-1.289499-.496121-2.540728-1.317033-3.76237-2.624524a.69457822.69457822 0 0 0 -.49104-.227209zm-1.665963 2.816695c-.06224-.000578-.125076.000577-.188547.0029-3.139991.129639-5.452994 1.820613-7.876073 2.160163a.69457822.69457822 0 1 0 .192843 1.37568c2.879448-.403498 5.10243-2.039034 7.740653-2.147958.636008-.02624 1.261201.21898 2.134847.608149.873646.389163 1.963628.896686 3.441118 1.215387a.69457822.69457822 0 1 0 .29277-1.357589c-1.319384-.284601-2.278909-.73041-3.168696-1.12677-.834176-.371585-1.635257-.722385-2.568915-.730229zm.1049 2.758368c-.05744.000228-.115825.0018-.175209.0041-1.531641.06324-2.709334.406204-3.787243.760299s-2.054871.712798-3.300499.887355a.69457822.69457822 0 1 0 .192843 1.375673c1.405635-.196969 2.494001-.599458 3.541046-.943418 1.047045-.343959 2.05381-.635972 3.411276-.692018.701409-.02898 1.071683.117742 1.733786.396762.662102.279026 1.556513.678704 3.014285.993159a.69457822.69457822 0 1 0 .292996-1.357822c-1.339101-.288852-2.08041-.625679-2.767862-.915383-.644483-.271602-1.293868-.51202-2.155419-.508672zm-.704682 2.516009c-1.636689.04776-2.766868.785972-4.285743 1.029784a.69458633.69458633 0 1 0 .220199 1.371608c1.922414-.308588 3.013918-1.051863 4.359671-1.012824.414584.01201.788376.186017 1.322099.491718.533721.305696 1.196469.725763 2.097769 1.04244a.69457822.69457822 0 1 0 .460518-1.310571c-.739635-.259874-1.295335-.609041-1.868074-.93709-.57274-.328044-1.193602-.652484-1.972071-.675065-.11388-.0035-.225254-.0029-.334368 0z" fill="#fff"/></svg>