<svg height="48" width="48" xmlns="http://www.w3.org/2000/svg"><path d="m44.322082 27.405077a19.729762 19.729765 0 0 1 -19.729762 19.729765 19.729762 19.729765 0 0 1 -19.7297621-19.729765 19.729762 19.729765 0 0 1 19.7297621-19.7297632 19.729762 19.729765 0 0 1 19.729762 19.7297632z" fill="#52afbd" opacity=".99" transform="matrix(1.1503549 0 0 1.1503549 -4.486125 -7.525565)"/><path d="m8.7417067 12.180195c-.3334251-.111562-.5569805.223641-.5548417 1.339174.014985 3.628826.079792 7.706781.2875874 11.396041 1.7941836-.571984 3.7846906-1.511475 5.4496506-3.11118-1.044237-2.841266-2.343617-5.734877-3.9623262-8.284861-.4434414-.66939-.8866459-1.227611-1.2200701-1.339174zm30.1241293 0c-.333424.111563-.779534.669784-1.222975 1.339174-1.618668 2.549921-2.915656 5.443663-3.959421 8.284861 1.66496 1.599709 3.655467 2.539198 5.44965 3.11118.207794-3.68926.2726-7.767215.287588-11.396041.0021-1.115533-.221418-1.450736-.554842-1.339174zm-20.709249 8.729317c-1.045775 0-2.161269.41831-3.276762 1.533803-4.461973 4.461974-11.1549332 4.461974-11.1549332 4.461974 6.6929602 4.461973 13.3859202 4.461973 20.0788792 0 6.69296 4.461973 13.38592 4.461973 20.07888 0 0 0-6.69296 0-11.154933-4.461974-4.461973-4.461973-8.923947 2.230987-8.923947 2.230987s-2.509859-3.76479-5.647184-3.76479zm-9.165056 9.693753c.1556249 1.142423.3307874 2.192744.5519358 3.026937.31065 1.040989.370982 2.342188 1.8940152 2.199033h4.787326c.4369 0 .883059-.447189.888909-1.21426-.07895-.857486-.269464-2.112493-.569366-3.602114-2.516919.439217-5.044536.304705-7.55282-.409596zm29.624481 0c-2.508284.714301-5.035901.848813-7.55282.409596-.299654 1.48964-.490414 2.74462-.569366 3.602114.0058.767071.452009 1.21426.888909 1.21426h4.787326c1.523033.143155 1.583364-1.158044 1.894015-2.199033.221148-.834193.396311-1.884514.551936-3.026937z" fill="#fff"/></svg>