<?xml version="1.0" encoding="UTF-8" standalone="no"?>
<svg
   xmlns:dc="http://purl.org/dc/elements/1.1/"
   xmlns:cc="http://creativecommons.org/ns#"
   xmlns:rdf="http://www.w3.org/1999/02/22-rdf-syntax-ns#"
   xmlns:svg="http://www.w3.org/2000/svg"
   xmlns="http://www.w3.org/2000/svg"
   xmlns:sodipodi="http://sodipodi.sourceforge.net/DTD/sodipodi-0.dtd"
   xmlns:inkscape="http://www.inkscape.org/namespaces/inkscape"
   height="48"
   width="48"
   version="1.1"
   id="svg22"
   sodipodi:docname="freeoffice-presentations.svg"
   inkscape:version="1.0.2 (e86c870879, 2021-01-15)">
  <metadata
     id="metadata28">
    <rdf:RDF>
      <cc:Work
         rdf:about="">
        <dc:format>image/svg+xml</dc:format>
        <dc:type
           rdf:resource="http://purl.org/dc/dcmitype/StillImage" />
        <dc:title />
      </cc:Work>
    </rdf:RDF>
  </metadata>
  <defs
     id="defs26" />
  <sodipodi:namedview
     pagecolor="#ffffff"
     bordercolor="#666666"
     borderopacity="1"
     objecttolerance="10"
     gridtolerance="10"
     guidetolerance="10"
     inkscape:pageopacity="0"
     inkscape:pageshadow="2"
     inkscape:window-width="1920"
     inkscape:window-height="1031"
     id="namedview24"
     showgrid="false"
     inkscape:zoom="9.2708333"
     inkscape:cx="21.17901"
     inkscape:cy="37.164259"
     inkscape:window-x="0"
     inkscape:window-y="24"
     inkscape:window-maximized="1"
     inkscape:current-layer="svg22"
     inkscape:document-rotation="0" />
  <rect
     fill="#d88f4f"
     height="42.5"
     ry="2.5"
     width="32.5"
     x="7.5"
     y="3"
     id="rect2"
     style="fill:#dc9a60;fill-opacity:1" />
  <path
     d="m10.5 4h26.5c1.108 0 2 .892 2 2v16.857143 7.642857c0 1.108-.892 2-2 2h-26.5c-1.108 0-2-.892-2-2v-24.5c0-1.108.892-2 2-2z"
     fill="#fff"
     id="path4" />
  <path
     d="m40 22.928572v1.321428 18.75c0 1.385-1.115 2.5-2.5 2.5h-27.5c-1.385 0-2.5-1.115-2.5-2.5v-18.75-1.178571z"
     fill="#d88f4f"
     id="path6"
     style="fill:#dc9a60;fill-opacity:1" />
  <path
     d="m12.5 8h22.5v12.5h-22.5z"
     fill="none"
     stroke="#d88f4f"
     stroke-width="1.3"
     id="path10"
     style="stroke:#dc9a60;stroke-opacity:1" />
  <g
     fill="#d88f4f"
     id="g20">
    <path
       d="m15 10.5h2.5v2.5h-2.5z"
       id="path12"
       style="fill:#dc9a60;fill-opacity:1" />
    <path
       d="m15 15.5h2.5v2.5h-2.5z"
       id="path14"
       style="fill:#dc9a60;fill-opacity:1" />
    <path
       d="m20 10.5v2.5h12.5v-2.5z"
       id="path16"
       style="fill:#dc9a60;fill-opacity:1" />
    <path
       d="m20 15.5v2.5h12.5v-2.5z"
       id="path18"
       style="fill:#dc9a60;fill-opacity:1" />
  </g>
  <g
     id="g877"
     transform="translate(-0.30589294)">
    <circle
       style="fill:#ffffff;fill-opacity:1;stroke:none;stroke-width:3.0125;stroke-linecap:round;stroke-linejoin:round;stroke-miterlimit:4;stroke-dasharray:none;stroke-opacity:1"
       id="path1576"
       cx="24.055893"
       cy="34.418327"
       r="9.5007734" />
    <path
       d="m 27.02095,36.44604 q 0,1.21153 -0.879952,1.938446 -0.867199,0.714163 -2.474068,0.714163 -1.441082,0 -2.576092,-0.548375 v -1.798163 q 0.650399,0.280564 1.339058,0.52287 0.701411,0.229553 1.390069,0.229553 0.714164,0 1.007481,-0.267811 0.306071,-0.280566 0.306071,-0.701413 0,-0.344328 -0.242306,-0.586633 -0.229552,-0.242306 -0.624893,-0.446353 -0.395341,-0.2168 -0.905458,-0.459105 -0.318824,-0.153035 -0.688659,-0.357083 -0.369835,-0.216799 -0.714164,-0.522869 -0.331576,-0.318825 -0.548376,-0.765176 -0.2168,-0.446353 -0.2168,-1.071246 0,-1.224281 0.828941,-1.900187 0.82894,-0.688658 2.257269,-0.688658 0.714163,0 1.35181,0.165787 0.6504,0.165789 1.35181,0.471859 l -0.624893,1.504846 q -0.624895,-0.255059 -1.122258,-0.39534 -0.497364,-0.140283 -1.020234,-0.140283 -0.548376,0 -0.841693,0.255059 -0.293318,0.255058 -0.293318,0.663152 0,0.484612 0.433599,0.765175 0.4336,0.280565 1.288046,0.688659 0.701411,0.331577 1.186023,0.688658 0.497364,0.357082 0.765176,0.841693 0.267811,0.484611 0.267811,1.198775 z"
       style="font-style:normal;font-variant:normal;font-weight:bold;font-stretch:normal;font-size:10.5833px;line-height:1.25;font-family:sans-serif;-inkscape-font-specification:'sans-serif Bold';letter-spacing:0px;word-spacing:0px;fill:#dc9a60;fill-opacity:1;stroke:none;stroke-width:0.318823"
       id="path4589" />
  </g>
</svg>
