<?xml version="1.0" encoding="UTF-8" standalone="no"?>
<svg
   xmlns:dc="http://purl.org/dc/elements/1.1/"
   xmlns:cc="http://creativecommons.org/ns#"
   xmlns:rdf="http://www.w3.org/1999/02/22-rdf-syntax-ns#"
   xmlns:svg="http://www.w3.org/2000/svg"
   xmlns="http://www.w3.org/2000/svg"
   xmlns:sodipodi="http://sodipodi.sourceforge.net/DTD/sodipodi-0.dtd"
   xmlns:inkscape="http://www.inkscape.org/namespaces/inkscape"
   height="48"
   width="48"
   version="1.1"
   id="svg10"
   sodipodi:docname="frogr.svg"
   inkscape:version="0.92.3 (2405546, 2018-03-11)">
  <metadata
     id="metadata16">
    <rdf:RDF>
      <cc:Work
         rdf:about="">
        <dc:format>image/svg+xml</dc:format>
        <dc:type
           rdf:resource="http://purl.org/dc/dcmitype/StillImage" />
        <dc:title></dc:title>
      </cc:Work>
    </rdf:RDF>
  </metadata>
  <defs
     id="defs14" />
  <sodipodi:namedview
     pagecolor="#ffffff"
     bordercolor="#666666"
     borderopacity="1"
     objecttolerance="10"
     gridtolerance="10"
     guidetolerance="10"
     inkscape:pageopacity="0"
     inkscape:pageshadow="2"
     inkscape:window-width="720"
     inkscape:window-height="480"
     id="namedview12"
     showgrid="false"
     inkscape:zoom="4.9166667"
     inkscape:cx="24"
     inkscape:cy="24"
     inkscape:window-x="0"
     inkscape:window-y="30"
     inkscape:window-maximized="0"
     inkscape:current-layer="svg10" />
  <g
     fill="#5f8dd3"
     opacity=".99"
     transform="matrix(1.1503549 0 0 1.1503549 -4.486125 -7.525565)"
     id="g6"
     style="fill:#9b9b67;fill-opacity:1">
    <path
       d="m44.322082 27.405077a19.729762 19.729765 0 0 1 -19.729762 19.729765 19.729762 19.729765 0 0 1 -19.7297621-19.729765 19.729762 19.729765 0 0 1 19.7297621-19.7297632 19.729762 19.729765 0 0 1 19.729762 19.7297632z"
       id="path2"
       style="fill:#9b9b67;fill-opacity:1" />
    <path
       d="m44.322082 27.405077a19.729762 19.729765 0 0 1 -19.729762 19.729765 19.729762 19.729765 0 0 1 -19.7297621-19.729765 19.729762 19.729765 0 0 1 19.7297621-19.7297632 19.729762 19.729765 0 0 1 19.729762 19.7297632z"
       id="path4"
       style="fill:#9b9b67;fill-opacity:1" />
  </g>
  <path
     d="m27.902061 40.7539c-.100474-.01897-.664227-.263802-1.252783-.544016-1.528503-.727735-2.140933-.870199-3.743836-.870907-2.425379-.0014-2.902376-.20828-4.007177-1.740741-.36728-.509448-.410926-.544126-.894355-.710643-.884927-.30481-1.667675-.962722-2.056767-1.728736-.195883-.385642-.231166-.66286-.149144-1.171951.05127-.318162.04357-.347095-.09196-.347095-.324499 0-.962956-.310954-1.288912-.627749-.373389-.362888-.69349-.986266-.746091-1.452975l-.0345-.305992-.740888.03196c-1.102195.04755-1.79576-.154721-2.400871-.700201-.424025-.382241-.6402227-.882315-.6411093-1.482904-.0006116-.414424.028383-.522382.2063223-.767272.113868-.156744.267513-.334313.341432-.394597.21182-.17275.674392-.926209.839411-1.36727.08274-.221146.233475-.801393.334959-1.289433.101484-.488048.268641-1.062385.371451-1.276308.331069-.688851 1.15534-1.119212 2.153056-1.124139.751795-.0034 1.19599.152999 1.599707.564358.176839.180186.363596.327612.415008.327612.07224 0 .43291-.602238.666804-1.113425.01354-.02962-.08785-.120232-.225344-.20136-.309779-.182771-.419221-.413339-.419221-.883202 0-.854379.451033-1.260013 2.071769-1.863248.517035-.19244.60861-.257239.92614-.655383.594858-.745878 1.325761-1.963021 2.279775-3.796423.501916-.964563 1.081744-2.05298 1.288499-2.418699.206762-.36572.523145-1.056262.703084-1.534544.450133-1.196491.571024-1.301913 1.915849-1.6707324 2.279494-.6251581 2.934285-.7297004 3.855807-.6155918 1.579736.195608 2.435084.8190411 3.146806 2.2936092.595951 1.234702.717413 1.985398.50841 3.142153-.05807.321524-.106844 1.028511-.108329 1.571077-.0027 1.077298-.116892 1.777887-.369733 2.273494-.08867.173802-.559692.712196-1.046729 1.19643-.487037.484233-.980713 1.020037-1.097056 1.190684l-.211545.31026.128768.475705c.175795.649438.556469 1.42117.874879 1.773612.145378.160916.476832.448586.736559.639274.33966.24937.595792.527096.912326.989255.61283.894747 1.129947 1.23093 1.988195 1.29254.480969.0345.495965.03017.741466-.215331.267053-.267053.353418-.501174.494411-1.340241.08303-.494157.07858-.547026-.07006-.832195-.282723-.542408-.197203-.747885.409077-.982871.621907-.241048 1.332104-.102282 1.332104.26029 0 .08455-.197677.425812-.439281.758352-.534306.735397-.875903 1.435773-.875979 1.796009-.000138.512561.611035.948688 1.14811.819302.431894-.104041.944861-.429461 1.478932-.938208.624657-.59503.935384-.737377 1.471139-.673924.523592.06199.797675.226904.797675.479897 0 .507118-.545404.822772-1.717224.993846-1.041307.15203-1.444028.338574-1.985185.919584-.828538.889551-1.006952 1.04018-1.517768 1.281379-.75354.355803-1.67812.499387-2.744814.426265-1.223479-.08387-1.665935-.06852-2.156533.07492-.611331.178708-1.377812.188158-1.547573.0191-.173383-.172689-.07379-.331227.347364-.552937.301222-.158579.383017-.167802 1.154041-.130142.972027.04749 1.28865-.03718 1.371318-.366516.120788-.481265-.84293-1.750803-1.973241-2.599423-.778528-.584501-1.02972-.825638-1.30192-1.249787-.141166-.219963-.251247-.325598-.294364-.282481-.03787.03787-.132383.491937-.209999 1.00902-.255384 1.701356-.678907 2.911126-1.392766 3.978362-.701868 1.0493-1.415528 1.648006-3.082955 2.586365-.194907.109683-.326437.223785-.292295.253556.03415.02976.29226.129063.573587.220657.532505.173363 2.388489 1.06688 2.959473 1.424771 1.17463.736243 2.215456 1.977344 2.376015 2.833207.06494.346133-.06872.741198-.316506.93561l-.196144.153879.258902-.03464c.44357-.05931 1.325163-.475766 1.888546-.892073.459705-.339701.58714-.3989.858612-.3989.37108 0 .611069.187911.611069.478461 0 .288941-.308163.514898-.898107.658544-.289753.07055-.773876.233598-1.075827.362331-.628986.268153-1.517067.472997-3.15884.728601-1.227925.191169-1.589968.316575-1.589968.550724 0 .226135.227241.399249.811735.618382 1.556906.583704 2.038123.850757 2.038123 1.131046 0 .07189-.04934.171658-.109649.221702-.119668.09932-.623062.153893-.913378.09902z"
     fill="#fff"
     stroke-width=".067629"
     id="path8" />
</svg>
