<svg height="48" width="48" xmlns="http://www.w3.org/2000/svg"><circle cx="23.940615" cy="31.534513" fill="#28947a" opacity=".99" r="13.232998" transform="matrix(1.72140702696 0 0 1.72140725788 -17.2289093957 -30.06939350282)"/><g stroke-width=".043162"><path d="m26.680731 9.924154c-.806194 1.36151-1.338117 2.864778-2.295291 4.13375-.749117.993144-1.581903 1.9454-2.657247 2.669188 2.087785-.765274 4.598689-1.099517 6.179618-1.821234.05425-.02582.112511-.05383.168015-.0803-.248104-1.666534-.691238-3.330663-1.395095-4.9014z" fill="#fff" fill-opacity=".707747"/><path d="m34.976562 9.0410156c-.691346 2.6562974-4.43266 4.5287384-6.943359 5.7265624-.01629.0077-.034571.015718-.050781.023438-.03994.01911-.080821.03841-.119141.05664-.04538.02072-.089825.040447-.136719.060547-.0072.003-.016217.006766-.023437.009766-.02429.01032-.047566.02109-.072266.03125-.0397.01635-.080432.032868-.121093.048828-.0209.0082-.04136.015337-.0625.023437-.04432.01699-.089394.034192-.134766.050782-.01881.0069-.037681.014674-.056641.021484-.0601.02156-.121799.04156-.183593.0625-.0031.001-.004713.002806-.007813.003906h-.001953c-.06757.02283-.135631.04619-.205078.06836-.01325.0043-.027706.007488-.041016.011718-.0561.01772-.11271.035395-.169922.052735-.01818.0055-.036407.010145-.054687.015625-.0573.01717-.115512.033921-.173828.050781-.01293.0037-.026093.008089-.039063.011719-.09522.02731-.191437.055381-.289062.082031-.08619.02352-.17387.047182-.261719.070313-.04261.011229-.083988.022043-.126953.033203-.02386.0062-.048286.011398-.072266.017578-.148028.03818-.297778.077388-.449218.115234-.475454.118808-.965108.2362-1.455079.363281-.693754.179935-1.386651.378053-2.039062.617188-.511697.18756-.998575.400885-1.439453.652344-1.995397 1.138095-3.448133 2.687138-4.578125 4.490234-1.520184 2.42571-.466015 5.544869-4.625 7.865234-.0689.0818-.153617.157851-.25.228516.0046-.0034.009052-.006346.013672-.009766.0035.0021.006105.005513.009765.007813-1.0206035.731424-3.0300726.749558-2.1796872 2.328125.4587339.708709.8133934 1.282057 1.3750002 1.832031-.0119092.0088-.0196394.016201-.0332034.025391 1.4840814 1.445505 3.6326714 2.431169 5.9570314 2.630859 1.150914.124131 2.773391.065723 3.457031.064453 5.808526-.01447 11.342768-2.710422 14.667969-6.535156.247138-.299852 1.220108-1.441028 1.238281-1.644531 1.531383-2.454271 3.229241-4.965761 3.333984-7.777344v-.001953c-1.660857.493007-3.407304 1.044601-5.191406 1.210937.01873-.000868.036998-.001553.054688-.001953.008-.000095.015707.000078.023437 0-.456963.005926-1.314481.1816-1.519531-.035156 1.959195-2.189384 3.818893-4.577739 4.232422-7.326172.259643-1.90842-.067743-3.970954-1.25586-5.6328124zm4.558594 4.2363284c-1.693771.295002.251089 2.066109-.154297 3.033203 1.470158-.40931 1.76161-2.625517.154297-3.033203zm.703125 3.746094c-.08175.001-.172554.031575-.228515.072265-1.057047.768563-.329439 2.401857-1.035157 3.359375.498792.02851 1.001191-.136704 1.441407-.3125 1.431681-.470442.905789-2.41312-.048828-3.085937-.034031-.02399-.079856-.033854-.128907-.033203zm-2.185547.074218c-.509198-.0037-.336821 1.335089.222657 1.357422.473296.0189.524935-.776353.326171-1.126953-.086359-.152319-.419031-.22952-.548828-.230469zm-19.017578 5.228516c1.185058-.0014 1.273775 1.841351 1.404297 2.667969.19723 1.23671.426802 2.626791-1.400391 3.089843-.124151.05296-.603705.357819-.46289-.021484.519435-.903123-.382193-3.182462-1.771484-2.048828-.138422-1.287033.322439-2.759222 1.652343-3.566406.217359-.08378.408832-.120887.578125-.121094zm16.22461 6.248047h.001953c.0045-.000552.008148-.000299.011719 0-.057801.001-.217442.102837-.527344.357422-.015173.008281-.024472.009914-.039063.017578.011212-.005938.021697-.011299.033203-.017578.04908-.04032.09494-.076454.136719-.109375.01621-.01275.029782-.023477.044922-.035157.02492-.01925.048182-.038247.070313-.054687.01357-.01008.026532-.018304.039062-.027344.02038-.01469.040834-.028966.058594-.041016.01518-.0103.029618-.020856.042968-.029296.002801-.0017.005213-.002307.007813-.003907.01889-.01175.035671-.021307.050781-.029297.0062-.003199.012048-.007165.017578-.009765.0023-.0012.005613-.002906.007813-.003906.0075-.0034.015164-.005713.021484-.007813 0 0 .001953-.001953.001953-.001953.0072-.0024.013852-.003006.019532-.003906zm-24.498047 1.353515c-.008.0057-.017181.011958-.025391.017578.0082-.0057.017301-.011858.025391-.017578zm12.246093.566407a.50005.50005 0 0 1 .398438.796875c-.997442 1.387973-2.350239 2.799629-5.339844 3.205078a.50051874.50051874 0 1 1 -.132812-.992188c2.740567-.371675 3.71165-1.475045 4.660156-2.794922a.50005.50005 0 0 1 .414062-.214843z" fill="#fffcfc"/></g></svg>