<svg height="48" width="48" xmlns="http://www.w3.org/2000/svg"><path d="m44.322082 27.405077a19.729762 19.729765 0 0 1 -19.729762 19.729765 19.729762 19.729765 0 0 1 -19.7297621-19.729765 19.729762 19.729765 0 0 1 19.7297621-19.7297632 19.729762 19.729765 0 0 1 19.729762 19.7297632z" fill="#b76732" opacity=".99" transform="matrix(1.1503549 0 0 1.1503549 -4.486125 -7.525565)"/><path d="m23.737398 13.435191-9.7037 12.420163c-1.819455 2.328781-1.310106 6.477016 1.018658 8.296467 2.328804 1.819435 6.47702 1.310106 8.29647-1.018674l9.703701-12.420184 1.212934-1.55252c1.212982-1.552521.873429-4.318004-.679082-5.530965-1.552531-1.212962-4.318012-.873421-5.53097.679116l-1.212973 1.552522-7.277773 9.315121-1.212954 1.552521c-.606497.776261-.436704 2.15901.339553 2.765502.776254.606454 2.159004.436701 2.765481-.33956l8.49073-10.86766 1.552527 1.21296-8.490726 10.867646c-1.212974 1.552539-3.978459 1.892095-5.53097.679118-1.552527-1.212966-1.892099-3.978447-.679141-5.530967l1.21297-1.552521 8.49075-10.867643c1.819435-2.328799 5.96765-2.83811 8.29645-1.018675 2.32878 1.819433 2.838129 5.967667 1.018679 8.296446l-1.212955 1.552539-9.703704 12.420146c-2.425947 3.105057-7.956913 3.784175-11.061951 1.358255-3.105038-2.425944-3.784163-7.95689-1.358235-11.06195l9.703704-12.420164z" fill="#fff"/></svg>