<svg height="48" width="48" xmlns="http://www.w3.org/2000/svg" xmlns:xlink="http://www.w3.org/1999/xlink"><clipPath id="a"><path d="m3.4527029 3h40.0945941c.804798 0 1.452703.6479055 1.452703 1.4527029v8.5455121l-43 .151523v-8.6970351c0-.8047974.6479055-1.4527029 1.4527029-1.4527029z"/></clipPath><rect fill="#ac939d" height="43" ry="1.452703" width="43" x="2" y="3"/><path d="m3.4527029 3h40.0945941c.804798 0 1.452703.6479055 1.452703 1.4527029v8.5455121l-43 .151523v-8.6970351c0-.8047974.6479055-1.4527029 1.4527029-1.4527029z" fill="#48373e"/><g clip-path="url(#a)" fill="none" stroke="#fff" stroke-linecap="square" stroke-width="3"><path d="m9 3-2 5 2 5"/><path d="m16 3-2 5 2 5"/><path d="m23 3-2 5 2 5"/><path d="m30 3-2 5 2 5"/><path d="m37 3-2 5 2 5"/><path d="m44 3-2 5 2 5"/></g><g fill-rule="evenodd"><path d="m2 8h43" fill="#3c4147" stroke="#48373e" stroke-width=".8"/><path d="m6 25.75a1.250125 1.250125 0 1 0 0 2.5h11a1.250125 1.250125 0 1 0 0-2.5z" fill="#fff"/><path d="m21 25.75a1.250125 1.250125 0 1 0 0 2.5h8a1.250125 1.250125 0 1 0 0-2.5z" fill="#fff"/><path d="m33 25.75a1.250125 1.250125 0 1 0 0 2.5h4a1.250125 1.250125 0 1 0 0-2.5z" fill="#fff"/><path d="m6 29.75a1.250125 1.250125 0 1 0 0 2.5h17a1.250125 1.250125 0 1 0 0-2.5z" fill="#fff"/><path d="m27 29.75a1.250125 1.250125 0 1 0 0 2.5h3a1.250125 1.250125 0 1 0 0-2.5z" fill="#fff"/><path d="m6 33.75a1.250125 1.250125 0 1 0 0 2.5h8a1.250125 1.250125 0 1 0 0-2.5z" fill="#fff"/><path d="m18 33.75a1.250125 1.250125 0 1 0 0 2.5h13a1.250125 1.250125 0 1 0 0-2.5z" fill="#fff"/><path d="m35 33.75a1.250125 1.250125 0 1 0 0 2.5h5a1.250125 1.250125 0 1 0 0-2.5z" fill="#fff"/><path d="m6 37.75a1.250125 1.250125 0 1 0 0 2.5h12a1.250125 1.250125 0 1 0 0-2.5z" fill="#fff"/></g></svg>