<?xml version="1.0" encoding="UTF-8" standalone="no"?><!DOCTYPE svg PUBLIC "-//W3C//DTD SVG 1.1//EN" "http://www.w3.org/Graphics/SVG/1.1/DTD/svg11.dtd"><svg width="100%" height="100%" viewBox="0 0 1071 1067" version="1.1" xmlns="http://www.w3.org/2000/svg" xmlns:xlink="http://www.w3.org/1999/xlink" xml:space="preserve" xmlns:serif="http://www.serif.com/" style="fill-rule:evenodd;clip-rule:evenodd;stroke-linejoin:round;stroke-miterlimit:2;"><rect id="gtk-gnutella" x="3.403" y="0" width="1066.67" height="1066.67" style="fill:none;"/><g><circle cx="536.736" cy="533.333" r="444.002" style="fill:#ffd6ac;"/><path d="M536.736,89.332c245.051,-0 444.001,198.95 444.001,444.001c0,245.052 -198.95,444.002 -444.001,444.002c-245.052,-0 -444.002,-198.95 -444.002,-444.002c-0,-245.051 198.95,-444.001 444.002,-444.001Zm-0,44.359c220.568,0 399.642,179.074 399.642,399.642c-0,220.569 -179.074,399.642 -399.642,399.642c-220.569,0 -399.642,-179.073 -399.642,-399.642c-0,-220.568 179.073,-399.642 399.642,-399.642Z" style="fill:#e8c39e;"/><circle cx="536.749" cy="533.333" r="255.083" style="fill:#ffc672;"/><g><g><circle cx="721.736" cy="149.177" r="75.302" style="fill:#ffc672;"/><circle cx="351.636" cy="149.177" r="75.302" style="fill:#ffc672;"/></g><g><path d="M932.656,830.946c-10.756,40.144 -52.081,64.002 -92.225,53.246c-40.144,-10.757 -64.002,-52.081 -53.246,-92.225c10.757,-40.144 52.081,-64.003 92.225,-53.247c40.144,10.757 64.003,52.082 53.246,92.226Z" style="fill:#ffc672;"/><path d="M1028.44,473.456c-10.756,40.144 -52.081,64.003 -92.225,53.246c-40.144,-10.756 -64.002,-52.081 -53.246,-92.225c10.757,-40.144 52.081,-64.002 92.225,-53.246c40.144,10.757 64.003,52.081 53.246,92.225Z" style="fill:#ffc672;"/></g><g><path d="M45.053,473.554c-10.757,-40.144 13.102,-81.469 53.246,-92.226c40.144,-10.756 81.469,13.103 92.225,53.247c10.757,40.144 -13.102,81.468 -53.246,92.225c-40.144,10.756 -81.469,-13.102 -92.225,-53.246Z" style="fill:#ffc672;"/><path d="M140.842,831.043c-10.757,-40.144 13.102,-81.469 53.246,-92.225c40.144,-10.757 81.469,13.102 92.225,53.246c10.757,40.144 -13.102,81.469 -53.246,92.225c-40.144,10.757 -81.469,-13.102 -92.225,-53.246Z" style="fill:#ffc672;"/></g></g><path d="M527.04,371.318c43.252,0 64.884,7.136 75.218,12.763c5.677,3.291 12.866,2.293 17.432,-2.421c3.237,-3.294 6.983,-7.163 10.645,-10.944c9.215,-9.515 24.251,-10.193 34.284,-1.546c0.993,0.855 1.996,1.719 3,2.585c5.524,4.76 8.694,11.693 8.681,18.984c-0.012,7.291 -3.207,14.213 -8.746,18.954c-3.163,2.707 -6.307,5.397 -9.157,7.836c-5.884,5.037 -6.697,13.84 -1.836,19.87c8.628,11.039 19.775,32.261 19.775,68.048c-0,206.557 -229.43,131.586 -229.43,181.232c-0,32.827 94.52,5.359 141.233,5.359c46.713,-0 107.931,19.638 107.931,96.237c-0,76.598 -64.733,123.192 -156.949,123.192c-51.742,0 -94.394,-14.669 -121.867,-27.546c-8.627,-4.145 -14.928,-11.956 -17.154,-21.265c-2.227,-9.308 -0.143,-19.125 5.674,-26.725c-0.038,-0.032 -0.036,-0.033 -0.035,-0.035c9.676,-12.642 27.202,-16.192 41.035,-8.313c19.674,10.97 51.4,23.674 92.347,23.674c71.801,0 89.8,-34.697 89.8,-62.982c-0,-28.286 -35.819,-37.811 -62.809,-37.811c-26.991,0 -53.771,9.525 -90.87,9.525c-37.099,-0 -84.547,-6.537 -84.547,-56.716c0,-28.394 20.613,-44.871 38.512,-53.825c4,-1.967 6.642,-5.924 6.923,-10.372c0.282,-4.449 -1.839,-8.708 -5.56,-11.163c-22.733,-15.555 -53.141,-48.696 -53.141,-115.001c-0,-98.093 78.217,-141.594 149.611,-141.594Zm1.68,54.318c45.586,-0 82.596,41.495 82.596,92.605c0,51.111 -37.01,92.606 -82.596,92.606c-45.587,-0 -82.597,-41.495 -82.597,-92.606c-0,-51.11 37.01,-92.605 82.597,-92.605Z" style="fill:#3e3e3e;"/></g></svg>