<?xml version="1.0" encoding="UTF-8" standalone="no"?>
<svg
   xmlns:dc="http://purl.org/dc/elements/1.1/"
   xmlns:cc="http://creativecommons.org/ns#"
   xmlns:rdf="http://www.w3.org/1999/02/22-rdf-syntax-ns#"
   xmlns:svg="http://www.w3.org/2000/svg"
   xmlns="http://www.w3.org/2000/svg"
   xmlns:sodipodi="http://sodipodi.sourceforge.net/DTD/sodipodi-0.dtd"
   xmlns:inkscape="http://www.inkscape.org/namespaces/inkscape"
   height="48"
   width="48"
   version="1.1"
   id="svg16"
   sodipodi:docname="gwoffice.svg"
   inkscape:version="0.92.4 (5da689c313, 2019-01-14)">
  <metadata
     id="metadata22">
    <rdf:RDF>
      <cc:Work
         rdf:about="">
        <dc:format>image/svg+xml</dc:format>
        <dc:type
           rdf:resource="http://purl.org/dc/dcmitype/StillImage" />
        <dc:title></dc:title>
      </cc:Work>
    </rdf:RDF>
  </metadata>
  <defs
     id="defs20" />
  <sodipodi:namedview
     pagecolor="#ffffff"
     bordercolor="#666666"
     borderopacity="1"
     objecttolerance="10"
     gridtolerance="10"
     guidetolerance="10"
     inkscape:pageopacity="0"
     inkscape:pageshadow="2"
     inkscape:window-width="1920"
     inkscape:window-height="1023"
     id="namedview18"
     showgrid="false"
     inkscape:zoom="2.4583333"
     inkscape:cx="-122.13559"
     inkscape:cy="24"
     inkscape:window-x="0"
     inkscape:window-y="29"
     inkscape:window-maximized="1"
     inkscape:current-layer="svg16" />
  <path
     inkscape:connector-curvature="0"
     d="M 46.499999,24 A 22.696228,22.696232 0 0 1 23.803771,46.696232 22.696228,22.696232 0 0 1 1.1075422,24 22.696228,22.696232 0 0 1 23.803771,1.3037693 22.696228,22.696232 0 0 1 46.499999,24 Z"
     id="path2-3"
     style="opacity:0.98999999;fill:#87b7ad;fill-opacity:1;stroke-width:1.15035486" />
  <path
     style="fill:#ffffff;fill-opacity:1;stroke:none;stroke-width:1.55969;stroke-opacity:0.8"
     d="m 19.248673,13.05764 0.01549,0.02787 c -2.722137,4.762873 -8.144069,14.316631 -8.144069,14.316631 l 4.443626,7.498942 -0.01755,0.02993 h 0.03406 l 0.0072,0.01135 0.0062,-0.01135 h 16.204527 l 4.68929,-7.480361 h -0.07329 L 28.234995,13.057638 Z m 4.468399,7.828214 3.742762,6.55551 -7.529908,-0.0083 z"
     id="Google-Drive-1"
     inkscape:connector-curvature="0" />
</svg>
