<svg height="48" width="48" xmlns="http://www.w3.org/2000/svg"><circle cx="23.940615" cy="31.534513" fill="#8fbf94" opacity=".99" r="13.232998" transform="matrix(1.75830584759 0 0 1.75830608345 -18.15909274367 -30.97874795549)"/><g fill="#fff" transform="translate(.653566 .61204)"><path d="m16.724647 12.497164-.865235 1.5 5.691407 9.859375-5.691407 9.859375.865235 1.5h1.732422l4.826172-8.359375 4.826171 8.359375h1.732422l.865235-1.5-5.691407-9.859375 5.691407-9.859375-.865235-1.5h-1.732422l-4.826171 8.359375-4.826172-8.359375z" fill-opacity=".591549" fill-rule="evenodd"/><path d="m16.724647 12.497164-6.558594 11.359375 6.558594 11.359375h13.117187l6.556641-11.359375-6.556641-11.359375zm2.140625 3.707031h8.835937l4.416016 7.652344-4.416016 7.652344h-8.835937l-4.417969-7.652344z"/></g></svg>