<?xml version="1.0" encoding="UTF-8" standalone="no"?>
<svg
   xmlns:osb="http://www.openswatchbook.org/uri/2009/osb"
   xmlns:dc="http://purl.org/dc/elements/1.1/"
   xmlns:cc="http://creativecommons.org/ns#"
   xmlns:rdf="http://www.w3.org/1999/02/22-rdf-syntax-ns#"
   xmlns:svg="http://www.w3.org/2000/svg"
   xmlns="http://www.w3.org/2000/svg"
   xmlns:xlink="http://www.w3.org/1999/xlink"
   xmlns:sodipodi="http://sodipodi.sourceforge.net/DTD/sodipodi-0.dtd"
   xmlns:inkscape="http://www.inkscape.org/namespaces/inkscape"
   width="297mm"
   height="297mm"
   viewBox="0 0 297 297"
   version="1.1"
   id="svg8"
   inkscape:version="1.0.1 (3bc2e813f5, 2020-09-07)"
   sodipodi:docname="io.github.antimicrox.antimicrox.svg">
  <defs
     id="defs2">
    <linearGradient
       id="linearGradient3399"
       osb:paint="solid">
      <stop
         style="stop-color:#263f20;stop-opacity:1;"
         offset="0"
         id="stop3397" />
    </linearGradient>
    <clipPath
       id="_clipPath_pedkB2BO9LJqqpfzYxiy2CNxBWzVm7YQ">
      <rect
         width="180"
         height="180"
         id="rect1311" />
    </clipPath>
    <linearGradient
       id="a">
      <stop
         stop-color="#fcdd99"
         id="stop1362" />
      <stop
         offset="1"
         stop-color="#fcdd99"
         stop-opacity="0"
         id="stop1364" />
    </linearGradient>
    <linearGradient
       id="b"
       y1="522.99"
       x1="430.51"
       y2="523.86"
       gradientUnits="userSpaceOnUse"
       x2="378.58"
       gradientTransform="matrix(0.70711,0.70711,-0.70711,0.70711,105.4,-635.69)">
      <stop
         stop-color="#fcfcfc"
         id="stop1367" />
      <stop
         offset="1"
         stop-color="#e9eaeb"
         id="stop1369" />
    </linearGradient>
    <linearGradient
       id="c"
       y1="19.869"
       x1="-28.649"
       y2="49.804"
       gradientUnits="userSpaceOnUse"
       x2="3.614"
       gradientTransform="translate(45.719-.92)">
      <stop
         id="stop1372" />
      <stop
         offset="1"
         stop-opacity="0"
         id="stop1374" />
    </linearGradient>
    <linearGradient
       id="d"
       y1="522.18"
       x1="388.34"
       y2="523.7"
       gradientUnits="userSpaceOnUse"
       x2="402.03"
       gradientTransform="matrix(0.70711,0.70711,-0.70711,0.70711,105.48,-635.28)">
      <stop
         stop-color="#ffffff"
         id="stop1377" />
      <stop
         offset="1"
         stop-color="#eff0f1"
         id="stop1379" />
    </linearGradient>
    <linearGradient
       id="e"
       y1="527.21"
       x1="422.48"
       y2="527.34"
       gradientUnits="userSpaceOnUse"
       x2="425.86"
       gradientTransform="matrix(0.70711,0.70711,-0.70711,0.70711,105.48,-635.28)">
      <stop
         stop-color="#f9f9f9"
         id="stop1382" />
      <stop
         offset="1"
         stop-color="#f6f6f6"
         id="stop1384" />
    </linearGradient>
    <linearGradient
       id="f"
       y1="8.627"
       x1="9.642"
       y2="24.326"
       x2="23.912"
       gradientUnits="userSpaceOnUse">
      <stop
         stop-color="#491309"
         id="stop1387" />
      <stop
         offset="1"
         stop-color="#b6642d"
         id="stop1389" />
    </linearGradient>
    <linearGradient
       id="g"
       y1="15.871"
       x1="16.296"
       y2="31.01"
       x2="30.633"
       gradientUnits="userSpaceOnUse">
      <stop
         stop-color="#fee3a8"
         id="stop1392" />
      <stop
         offset="1"
         stop-color="#fcdd99"
         stop-opacity="0"
         id="stop1394" />
    </linearGradient>
    <linearGradient
       id="h"
       y1="33.922"
       x1="32.641"
       y2="34.953"
       x2="33.609"
       gradientUnits="userSpaceOnUse"
       gradientTransform="translate(-51.64974,-1.0711201)">
      <stop
         stop-color="#cfcfcf"
         id="stop1397" />
      <stop
         offset="1"
         stop-color="#ededed"
         stop-opacity="0"
         id="stop1399" />
    </linearGradient>
    <linearGradient
       id="i"
       y1="42.01"
       x1="13.247"
       y2="34.887"
       x2="8.892"
       gradientUnits="userSpaceOnUse"
       gradientTransform="matrix(1.31518,0,0,1.22972,-3.891,-7.222)">
      <stop
         stop-color="#d6d6d6"
         id="stop1402" />
      <stop
         offset="1"
         stop-color="#7a7a7a"
         id="stop1404" />
    </linearGradient>
    <linearGradient
       id="j"
       y1="1.586"
       x1="12"
       y2="45.31"
       gradientUnits="userSpaceOnUse"
       x2="11.875">
      <stop
         stop-color="#e0e0e0"
         id="stop1407" />
      <stop
         offset=".125"
         stop-color="#c0c0c0"
         id="stop1409" />
      <stop
         offset=".66"
         stop-color="#9b9b9b"
         id="stop1411" />
      <stop
         offset=".732"
         stop-color="#b3b3b3"
         id="stop1413" />
      <stop
         offset="1"
         stop-color="#b1b1b1"
         id="stop1415" />
    </linearGradient>
    <radialGradient
       cx="23.731"
       cy="23.885"
       xlink:href="#a"
       id="k"
       r="8.335"
       gradientUnits="userSpaceOnUse"
       gradientTransform="matrix(3.38134,-0.04028,0.04004,3.36093,-57.47,-55.43)" />
    <radialGradient
       cx="23.748"
       cy="23.82"
       xlink:href="#a"
       id="l"
       r="5.657"
       gradientUnits="userSpaceOnUse"
       gradientTransform="matrix(4.9331,-0.01446,0.01148,3.91554,-93.68,-69.1)" />
    <linearGradient
       xlink:href="#c"
       id="m"
       y1="20.869"
       x1="-20.15"
       y2="21.429"
       gradientUnits="userSpaceOnUse"
       x2="-11.636"
       gradientTransform="translate(0.97982187,-8.1418527)" />
    <linearGradient
       xlink:href="#c"
       id="n"
       y1="19.12"
       x1="-14.524"
       y2="19.804"
       gradientUnits="userSpaceOnUse"
       x2="-10.761"
       gradientTransform="translate(6.7228833,18.904274)" />
    <linearGradient
       id="o"
       y1="522.24"
       x1="385.61"
       y2="523.27"
       gradientUnits="userSpaceOnUse"
       x2="409.82"
       gradientTransform="matrix(0.70711,0.70711,-0.70711,0.70711,105.48,-635.28)">
      <stop
         stop-color="#ffffff"
         id="stop1422" />
      <stop
         offset="1"
         stop-color="#dfe1e3"
         id="stop1424" />
    </linearGradient>
    <path
       id="p"
       color="#000000"
       d="M25 15A9 9 0 1 1 7 15 9 9 0 1 1 25 15" />
    <inkscape:perspective
       sodipodi:type="inkscape:persp3d"
       inkscape:vp_x="0 : 526.18109 : 1"
       inkscape:vp_y="0 : 1000 : 0"
       inkscape:vp_z="744.09448 : 526.18109 : 1"
       inkscape:persp3d-origin="372.04724 : 350.78739 : 1"
       id="perspective10" />
    <inkscape:perspective
       id="perspective2824"
       inkscape:persp3d-origin="0.5 : 0.33333333 : 1"
       inkscape:vp_z="1 : 0.5 : 1"
       inkscape:vp_y="0 : 1000 : 0"
       inkscape:vp_x="0 : 0.5 : 1"
       sodipodi:type="inkscape:persp3d" />
    <inkscape:perspective
       id="perspective2838"
       inkscape:persp3d-origin="0.5 : 0.33333333 : 1"
       inkscape:vp_z="1 : 0.5 : 1"
       inkscape:vp_y="0 : 1000 : 0"
       inkscape:vp_x="0 : 0.5 : 1"
       sodipodi:type="inkscape:persp3d" />
    <inkscape:perspective
       id="perspective3632"
       inkscape:persp3d-origin="0.5 : 0.33333333 : 1"
       inkscape:vp_z="1 : 0.5 : 1"
       inkscape:vp_y="0 : 1000 : 0"
       inkscape:vp_x="0 : 0.5 : 1"
       sodipodi:type="inkscape:persp3d" />
    <inkscape:perspective
       id="perspective3664"
       inkscape:persp3d-origin="0.5 : 0.33333333 : 1"
       inkscape:vp_z="1 : 0.5 : 1"
       inkscape:vp_y="0 : 1000 : 0"
       inkscape:vp_x="0 : 0.5 : 1"
       sodipodi:type="inkscape:persp3d" />
    <inkscape:perspective
       id="perspective3686"
       inkscape:persp3d-origin="0.5 : 0.33333333 : 1"
       inkscape:vp_z="1 : 0.5 : 1"
       inkscape:vp_y="0 : 1000 : 0"
       inkscape:vp_x="0 : 0.5 : 1"
       sodipodi:type="inkscape:persp3d" />
    <inkscape:perspective
       id="perspective3708"
       inkscape:persp3d-origin="0.5 : 0.33333333 : 1"
       inkscape:vp_z="1 : 0.5 : 1"
       inkscape:vp_y="0 : 1000 : 0"
       inkscape:vp_x="0 : 0.5 : 1"
       sodipodi:type="inkscape:persp3d" />
    <inkscape:perspective
       id="perspective3730"
       inkscape:persp3d-origin="0.5 : 0.33333333 : 1"
       inkscape:vp_z="1 : 0.5 : 1"
       inkscape:vp_y="0 : 1000 : 0"
       inkscape:vp_x="0 : 0.5 : 1"
       sodipodi:type="inkscape:persp3d" />
    <inkscape:perspective
       id="perspective3752"
       inkscape:persp3d-origin="0.5 : 0.33333333 : 1"
       inkscape:vp_z="1 : 0.5 : 1"
       inkscape:vp_y="0 : 1000 : 0"
       inkscape:vp_x="0 : 0.5 : 1"
       sodipodi:type="inkscape:persp3d" />
    <inkscape:perspective
       id="perspective3780"
       inkscape:persp3d-origin="0.5 : 0.33333333 : 1"
       inkscape:vp_z="1 : 0.5 : 1"
       inkscape:vp_y="0 : 1000 : 0"
       inkscape:vp_x="0 : 0.5 : 1"
       sodipodi:type="inkscape:persp3d" />
    <inkscape:perspective
       id="perspective3802"
       inkscape:persp3d-origin="0.5 : 0.33333333 : 1"
       inkscape:vp_z="1 : 0.5 : 1"
       inkscape:vp_y="0 : 1000 : 0"
       inkscape:vp_x="0 : 0.5 : 1"
       sodipodi:type="inkscape:persp3d" />
    <inkscape:perspective
       id="perspective3834"
       inkscape:persp3d-origin="0.5 : 0.33333333 : 1"
       inkscape:vp_z="1 : 0.5 : 1"
       inkscape:vp_y="0 : 1000 : 0"
       inkscape:vp_x="0 : 0.5 : 1"
       sodipodi:type="inkscape:persp3d" />
    <inkscape:perspective
       id="perspective3856"
       inkscape:persp3d-origin="0.5 : 0.33333333 : 1"
       inkscape:vp_z="1 : 0.5 : 1"
       inkscape:vp_y="0 : 1000 : 0"
       inkscape:vp_x="0 : 0.5 : 1"
       sodipodi:type="inkscape:persp3d" />
    <inkscape:perspective
       id="perspective3968"
       inkscape:persp3d-origin="0.5 : 0.33333333 : 1"
       inkscape:vp_z="1 : 0.5 : 1"
       inkscape:vp_y="0 : 1000 : 0"
       inkscape:vp_x="0 : 0.5 : 1"
       sodipodi:type="inkscape:persp3d" />
    <inkscape:perspective
       id="perspective3990"
       inkscape:persp3d-origin="0.5 : 0.33333333 : 1"
       inkscape:vp_z="1 : 0.5 : 1"
       inkscape:vp_y="0 : 1000 : 0"
       inkscape:vp_x="0 : 0.5 : 1"
       sodipodi:type="inkscape:persp3d" />
  </defs>
  <sodipodi:namedview
     id="base"
     pagecolor="#ffffff"
     bordercolor="#666666"
     borderopacity="1.0"
     inkscape:pageopacity="0.0"
     inkscape:pageshadow="2"
     inkscape:zoom="0.35983456"
     inkscape:cx="177.81006"
     inkscape:cy="576.97144"
     inkscape:document-units="mm"
     inkscape:current-layer="g3489"
     inkscape:document-rotation="0"
     showgrid="false"
     inkscape:window-width="1849"
     inkscape:window-height="1048"
     inkscape:window-x="71"
     inkscape:window-y="32"
     inkscape:window-maximized="1"
     showguides="true"
     inkscape:guide-bbox="true">
    <sodipodi:guide
       position="433.08677,-73.586974"
       orientation="0,-1"
       id="guide917" />
  </sodipodi:namedview>
  <metadata
     id="metadata5">
    <rdf:RDF>
      <cc:Work
         rdf:about="">
        <dc:format>image/svg+xml</dc:format>
        <dc:type
           rdf:resource="http://purl.org/dc/dcmitype/StillImage" />
        <dc:title />
      </cc:Work>
    </rdf:RDF>
  </metadata>
  <g
     inkscape:label="Layer 1"
     inkscape:groupmode="layer"
     id="layer1">
    <g
       id="g3489"
       transform="matrix(0.47535993,0,0,0.47813917,31.194548,21.229613)">
      <g
         id="g3431"
         style="stroke:#ccecff;stroke-width:13.1663;stroke-miterlimit:4;stroke-dasharray:none;stroke-opacity:1"
         transform="translate(-5.532981,2.9921021)">
        <path
           d="M 504.595,297.417 449.122,142.124 C 435.826,104.903 400.568,80.057 361.043,80.057 H 150.956 c -39.525,0 -74.783,24.845 -88.079,62.067 L 7.405,297.417 c -13.922,38.973 -7.987,82.285 15.905,116.077 17.318,24.493 53.611,24.62 71.1,0.249 l 55.094,-76.776 c 6.832,-9.521 17.833,-15.167 29.551,-15.167 h 153.889 c 11.719,0 22.719,5.646 29.551,15.167 l 55.094,76.776 c 17.489,24.371 53.782,24.244 71.1,-0.249 23.893,-33.792 29.828,-77.104 15.906,-116.077 z"
           fill="#407093"
           id="path3429"
           style="fill:#88a7be;fill-opacity:1;stroke:#ccecff;stroke-width:13.1663;stroke-miterlimit:4;stroke-dasharray:none;stroke-opacity:1" />
      </g>
      <g
         id="g3435" />
      <g
         id="g3439"
         transform="translate(-5.532981,2.9921021)">
        <path
           d="m 177.426,144.772 h -19.794 c -1.148,0 -2.078,-0.931 -2.078,-2.078 V 122.9 c 0,-3.444 -2.792,-6.235 -6.235,-6.235 h -21.337 c -3.444,0 -6.235,2.792 -6.235,6.235 v 19.794 c 0,1.148 -0.931,2.078 -2.078,2.078 H 99.874 c -3.444,0 -6.235,2.792 -6.235,6.235 v 21.337 c 0,3.444 2.792,6.235 6.235,6.235 h 19.794 c 1.148,0 2.078,0.931 2.078,2.078 v 19.794 c 0,3.444 2.792,6.235 6.235,6.235 h 21.337 c 3.444,0 6.235,-2.792 6.235,-6.235 v -19.794 c 0,-1.148 0.931,-2.078 2.078,-2.078 h 19.794 c 3.444,0 6.235,-2.792 6.235,-6.235 v -21.337 c 0.001,-3.443 -2.791,-6.235 -6.234,-6.235 z"
           fill="#dae7ef"
           id="path3437"
           style="fill:#ccecff;fill-opacity:1" />
      </g>
      <g
         id="g3445">
        <g
           id="g3443" />
      </g>
      <g
         id="g3449"
         transform="translate(-5.532981,2.9921021)">
        <circle
           cx="313.92401"
           cy="253.095"
           fill="#dae7ef"
           r="37.824001"
           id="circle3447"
           style="fill:#ccecff;fill-opacity:1" />
      </g>
      <g
         id="g3453"
         transform="translate(-5.532981,2.9921021)">
        <circle
           cx="198.198"
           cy="253.095"
           fill="#dae7ef"
           r="37.824001"
           id="circle3451"
           style="fill:#ccecff;fill-opacity:1" />
      </g>
      <g
         id="g3457" />
      <g
         id="g3461" />
      <circle
         cx="250.63203"
         cy="155.4561"
         fill="#dae7ef"
         r="22.492001"
         id="circle3463"
         style="fill:#ccecff;fill-opacity:1" />
      <g
         id="g3475"
         transform="translate(-5.532981,2.9921021)">
        <path
           d="m 372.918,121.096 c -6.973,0 -12.626,5.653 -12.626,12.626 0,6.973 5.653,12.626 12.626,12.626 6.974,0 12.626,-5.653 12.626,-12.626 0,-6.973 -5.652,-12.626 -12.626,-12.626 z"
           fill="#f6e266"
           id="path3467"
           style="fill:#cec16e;fill-opacity:1" />
        <path
           d="m 372.918,202.466 c 6.974,0 12.626,-5.653 12.626,-12.626 0,-6.973 -5.653,-12.626 -12.626,-12.626 -6.973,0 -12.626,5.653 -12.626,12.626 0,6.973 5.653,12.626 12.626,12.626 z"
           fill="#86f1a7"
           id="path3469" />
        <circle
           cx="400.97699"
           cy="161.78101"
           fill="#dd5790"
           r="12.626"
           id="circle3471"
           style="fill:#bc7694;fill-opacity:1" />
        <path
           d="m 357.486,161.781 c 0,-6.973 -5.653,-12.626 -12.627,-12.626 -6.973,0 -12.626,5.653 -12.626,12.626 0,6.973 5.653,12.626 12.626,12.626 6.974,10e-4 12.627,-5.653 12.627,-12.626 z"
           fill="#61a2f9"
           id="path3473" />
      </g>
      <g
         id="g3481"
         transform="translate(-5.532981,2.9921021)">
        <g
           id="g3479">
          <path
             d="m 313.923,298.419 c -24.992,0 -45.324,-20.332 -45.324,-45.324 0,-24.992 20.332,-45.324 45.324,-45.324 24.992,0 45.324,20.333 45.324,45.324 0,24.991 -20.331,45.324 -45.324,45.324 z m 0,-75.648 c -16.721,0 -30.324,13.604 -30.324,30.324 0,16.72 13.604,30.324 30.324,30.324 16.72,0 30.324,-13.603 30.324,-30.324 0,-16.721 -13.603,-30.324 -30.324,-30.324 z"
             fill="#dd5790"
             id="path3477"
             style="fill:#bc7694;fill-opacity:1" />
        </g>
      </g>
      <g
         id="g3487"
         transform="translate(-5.532981,2.9921021)">
        <g
           id="g3485">
          <path
             d="m 198.198,298.419 c -24.992,0 -45.324,-20.333 -45.324,-45.324 0,-24.991 20.332,-45.324 45.324,-45.324 24.992,0 45.324,20.333 45.324,45.324 0,24.991 -20.332,45.324 -45.324,45.324 z m 0,-75.648 c -16.721,0 -30.324,13.604 -30.324,30.324 0,16.72 13.604,30.324 30.324,30.324 16.72,0 30.324,-13.604 30.324,-30.324 0,-16.72 -13.604,-30.324 -30.324,-30.324 z"
             fill="#dd5790"
             id="path3483"
             style="fill:#bc7694;fill-opacity:1" />
        </g>
      </g>
    </g>
  </g>
</svg>
