<?xml version="1.0" encoding="UTF-8" standalone="no"?>
<svg
   xmlns:dc="http://purl.org/dc/elements/1.1/"
   xmlns:cc="http://creativecommons.org/ns#"
   xmlns:rdf="http://www.w3.org/1999/02/22-rdf-syntax-ns#"
   xmlns:svg="http://www.w3.org/2000/svg"
   xmlns="http://www.w3.org/2000/svg"
   xmlns:sodipodi="http://sodipodi.sourceforge.net/DTD/sodipodi-0.dtd"
   xmlns:inkscape="http://www.inkscape.org/namespaces/inkscape"
   height="48"
   width="48"
   version="1.1"
   id="svg6"
   sodipodi:docname="jitsi.svg"
   inkscape:version="1.0.2 (e86c870879, 2021-01-15)">
  <metadata
     id="metadata12">
    <rdf:RDF>
      <cc:Work
         rdf:about="">
        <dc:format>image/svg+xml</dc:format>
        <dc:type
           rdf:resource="http://purl.org/dc/dcmitype/StillImage" />
        <dc:title></dc:title>
      </cc:Work>
    </rdf:RDF>
  </metadata>
  <defs
     id="defs10">
    <linearGradient
       gradientUnits="userSpaceOnUse"
       gradientTransform="matrix(0.0920001,0,0,0.09064843,-21.193131,1.5846311)"
       y2="269.48999"
       y1="235.14999"
       x2="657.65002"
       x1="319.20999"
       id="a-12">
      <stop
         id="stop1076"
         offset="0"
         stop-color="#e54c18" />
      <stop
         id="stop1078"
         offset="1"
         stop-color="#fec350" />
    </linearGradient>
    <linearGradient
       id="linearGradient946"
       x1="31.833"
       x2="32.167"
       y1="51.558998"
       y2="11.098"
       gradientUnits="userSpaceOnUse"
       gradientTransform="matrix(0.83258662,0,0,0.83258662,-4.004011,0.8380211)">
      <stop
         stop-color="#f9f9f9"
         offset="0"
         id="stop5" />
      <stop
         stop-color="#f0fee6"
         offset="1"
         id="stop7-3" />
    </linearGradient>
    <linearGradient
       gradientUnits="userSpaceOnUse"
       y2="12.7"
       y1="4.2333002"
       x2="7.9373002"
       x1="7.9373002"
       id="linearGradient1166">
      <stop
         id="stop13"
         offset="0"
         stop-color="#fff" />
      <stop
         id="stop15"
         offset="1"
         stop-color="#b8ffe1"
         style="stop-color:#d6f2dc;stop-opacity:1" />
    </linearGradient>
  </defs>
  <sodipodi:namedview
     pagecolor="#ffffff"
     bordercolor="#666666"
     borderopacity="1"
     objecttolerance="10"
     gridtolerance="10"
     guidetolerance="10"
     inkscape:pageopacity="0"
     inkscape:pageshadow="2"
     inkscape:window-width="1920"
     inkscape:window-height="1031"
     id="namedview8"
     showgrid="true"
     inkscape:zoom="9.2708332"
     inkscape:cx="1.6739251"
     inkscape:cy="26.488403"
     inkscape:window-x="0"
     inkscape:window-y="24"
     inkscape:window-maximized="1"
     inkscape:current-layer="svg6"
     inkscape:document-rotation="0">
    <inkscape:grid
       type="xygrid"
       id="grid837" />
  </sodipodi:namedview>
  <circle
     cx="23.940615"
     cy="31.534513"
     fill="#74a2f3"
     opacity=".99"
     r="13.232998"
     transform="matrix(1.75830584759 0 0 1.75830608345 -18.15909274367 -30.97874795549)"
     id="circle2"
     style="fill:#80b1da;fill-opacity:1" />
  <ellipse
     cx="23.935829"
     cy="24.468578"
     fill="#74a2f3"
     opacity="0.99"
     id="circle858"
     style="fill:#ffffff;fill-opacity:0.26542;stroke-width:1.50099"
     rx="19.862556"
     ry="19.862558" />
  <path
     style="fill:#ffffff;stroke-width:0.922655"
     d="M 30.018668,4.1701563 A 2.048004,2.0730044 0 0 0 28.519179,4.8456557 2.048004,2.0730044 0 0 0 28.008366,6.463525 c 0.05905,0.610586 -0.09859,1.659098 -0.197734,2.0348427 -0.0085,0.023482 -0.190015,0.5656177 -1.573641,1.2509258 a 2.5056942,2.5362814 0 0 0 -0.205981,0.075067 c -0.717118,0.2412465 -2.053543,0.6915165 -2.933063,1.8763965 -0.668607,0.815538 -0.842155,1.645486 -1.029869,2.601929 a 8.8205494,8.928223 0 0 0 -0.205985,2.209973 v 0.158456 l -0.156537,0.0417 c -2.239918,0.499572 -3.856467,1.526202 -4.795045,3.035587 -0.97233,1.569165 -1.139943,3.519544 -0.486097,5.820982 0.0063,0.03202 0.02452,0.07619 0.03296,0.116753 l 0.09885,0.308563 -0.313077,-0.05005 C 16.129255,25.92116 16.021352,25.91167 15.905349,25.8946 a 3.1975017,3.2365344 0 0 0 -0.288363,-0.01661 c -1.086223,0 -2.249762,0.700254 -3.106084,1.86805 -0.66017,0.909478 -1.459612,2.501993 -1.491249,4.987037 -0.01687,1.868052 0.182104,3.585657 0.584965,5.112124 0.30583,1.125102 0.643693,1.81648 0.774462,2.059863 l 2.562309,4.861938 1.169931,-5.378987 c 0.476675,-2.158403 0.938646,-2.976608 1.491252,-3.535956 l 0.107102,-0.108393 0.131829,0.08339 c 1.26972,0.777108 2.784567,1.184213 4.374882,1.184213 a 10.566942,10.695935 0 0 0 5.23997,-1.467758 c 1.037708,-0.619123 1.919542,-1.376355 2.62822,-2.251668 l 0.09062,-0.06673 0.164786,-0.0081 c 0.411288,-0.0087 0.989204,-0.2251 1.581877,-0.583767 0.493546,-0.298892 1.26135,-0.859836 2.018541,-1.801337 a 11.473885,11.613948 0 0 0 1.870245,-3.460899 c 0.550489,-1.56703 0.891251,-3.402393 1.005149,-5.45405 0.132862,-1.885129 -0.09215,-3.437346 -0.64264,-4.620089 A 4.9396763,4.9999758 0 0 0 32.72923,14.536395 l -0.123581,-0.03336 -0.02473,-0.133434 a 6.1672132,6.2424974 0 0 0 -0.329537,-1.242667 l -0.03298,-0.100071 0.04944,-0.08339 a 5.3509647,5.4162846 0 0 0 0.68386,-4.8286242 C 32.532007,6.7804375 32.202383,5.9292056 31.921863,5.421096 31.352387,4.3877949 30.577596,4.1701687 30.018666,4.1701687 Z m -0.02882,1.5845107 a 0.44292571,0.44833256 0 0 1 0.02882,0 c 0.297394,0 0.543113,6.55e-5 1.450053,2.8437736 0.478782,1.4923074 0.124448,2.9016194 -1.054583,4.1697594 l -0.04119,0.05003 c 0.0085,0.0087 0.0079,0.01644 0.01642,0.02503 0.495654,0.824078 0.766091,1.858379 0.683833,2.626949 a 3.8597811,3.9068981 0 0 1 -0.08239,0.50037 v 0.0083 c 0.09915,-0.0087 0.213157,-0.01661 0.346036,-0.01661 0.584239,0 1.423689,0.09182 2.10917,0.53373 0.41129,0.266867 0.938579,0.675298 1.318231,1.484433 0.436599,0.935094 0.602103,2.226452 0.486097,3.83618 -0.101252,1.900076 -0.404301,3.596201 -0.906285,5.028731 a 9.8962259,10.017031 0 0 1 -1.614831,2.985546 c -1.088332,1.351401 -2.225109,1.803273 -2.463446,1.809678 -0.164509,0 -0.245389,-0.05898 -0.584965,-0.300222 -0.03163,-0.01698 -0.07547,-0.05158 -0.107101,-0.07507 -0.643299,1.159256 -1.640934,2.158998 -2.900108,2.91049 a 8.9913918,9.1011514 0 0 1 -4.457263,1.259298 c -1.746392,0 -3.30467,-0.575226 -4.498464,-1.651226 -1.434235,0.935094 -2.365171,1.76738 -3.130797,5.262239 l -0.263606,1.200818 -0.568488,-1.084137 a 8.3164576,8.4179779 0 0 1 -0.642648,-1.734569 16.77423,16.978996 0 0 1 -0.527294,-4.678473 c 0.02532,-1.951317 0.600124,-3.219122 1.095778,-3.927913 0.567368,-0.84116 1.30973,-1.359343 1.936155,-1.359343 h 0.115351 c 0.99764,0.117417 1.622805,0.540733 2.776524,1.309302 l 0.362529,0.241843 c 0.396522,0.258323 0.865747,0.526123 1.013389,0.583767 0.101252,-0.05765 0.338127,-0.449132 0.411948,-1.0341 l 0.01642,-0.08339 v -0.02504 c -0.0085,-0.0087 -0.0079,-0.0083 -0.01642,-0.0083 -0.774066,-0.266862 -1.834781,-1.501914 -2.381056,-3.335804 -0.518854,-1.836031 -0.412474,-3.35222 0.313079,-4.520017 1.176916,-1.90008 3.700603,-2.335938 4.52318,-2.47684 0.255211,-0.05124 0.519253,-0.09909 0.774465,-0.141775 0.05062,-0.0087 0.08771,-0.02692 0.123562,-0.03336 a 0.56736675,0.57429268 0 0 1 -0.02473,-0.08341 c -0.01476,-0.07472 -0.04482,-0.168459 -0.06591,-0.275204 -0.257321,-1.176339 -0.125223,-2.159935 0.03296,-2.960528 0.181413,-0.892397 0.288428,-1.426661 0.725026,-1.934771 0.586349,-0.817673 1.598488,-1.158458 2.20804,-1.36768 a 5.1041915,5.1664993 0 0 0 0.362514,-0.133431 C 28.617358,10.342564 29.160141,9.4834586 29.318325,8.9070293 29.44065,8.4309432 29.64795,7.1740128 29.557257,6.305101 a 0.49143664,0.49743568 0 0 1 0.123562,-0.4002965 0.44292571,0.44833256 0 0 1 0.308958,-0.1501067 z m 0.449023,3.2190523 c -0.164509,1.0759977 -0.420978,2.1032947 -0.91452,3.1856967 0.53573,-0.61699 0.850259,-1.283552 0.955717,-2.026504 0.04218,-0.307428 0.08536,-0.6083836 -0.04119,-1.1591927 z m -1.194644,1.8346927 c -0.831015,0.809134 -1.855019,1.252664 -2.504642,1.534472 a 6.3696934,6.4474494 0 0 0 -0.535536,0.241849 c -0.04218,0.03203 -0.09979,0.05757 -0.148289,0.09174 -0.396526,0.232705 -0.990721,0.585166 -1.079303,0.792255 v 0.01661 c -0.272085,0.576428 -0.420911,1.441603 -0.477859,1.93477 0.634858,-0.384288 1.276835,-0.64121 1.812566,-0.858971 0.501983,-0.198548 0.930078,-0.366407 1.145213,-0.567088 0.963892,-0.875318 1.541079,-2.327461 1.787854,-3.185696 z m 0.420186,2.802079 c -0.215135,0.149452 -0.642046,0.483892 -0.931002,0.742217 a 1.1937903,1.208363 0 0 0 -0.304836,0.400301 c -0.0085,0.01698 -0.01624,0.03316 -0.02473,0.0417 -0.156077,0.467548 0.05624,1.109959 0.469621,1.342663 0.10546,0.06619 0.213949,0.108209 0.313077,0.116753 h 0.04119 c 0.312156,0 0.570263,-0.233175 0.757981,-0.692185 a 1.9889474,2.0132265 0 0 0 0.04944,-1.134173 2.8305062,2.8650587 0 0 0 -0.370749,-0.817269 z m -2.257477,1.392703 c -1.936217,0.649014 -2.521842,1.017417 -2.842435,1.284282 -0.172942,0.140907 -0.273006,0.541072 0.214211,1.651227 0.246775,0.557213 1.095517,1.324385 1.458294,1.392704 a 0.2531004,0.25619004 0 0 0 0.08239,0.0083 c 0.609548,0 1.977546,-0.899402 2.232754,-1.309306 l 0.02473,-0.03336 0.02473,-0.02502 c 0.0907,-0.08328 0.33905,-0.542067 0.461383,-0.808932 -1.301356,-0.399172 -1.440764,-1.110967 -1.573641,-1.742902 a 1.189572,1.2040932 0 0 0 -0.04119,-0.20015 1.6451528,1.6652354 0 0 0 -0.04119,-0.216827 z m 4.939245,2.20997 a 0.38175979,0.38641998 0 0 0 -0.135907,0.03336 c -0.172961,0.06831 -0.451893,0.874248 -0.32956,1.467757 0.08437,0.407767 0.558732,1.76731 0.799174,2.418462 0.08014,0.249785 0.131645,0.365733 0.140096,0.416974 a 0.80148465,0.81126848 0 0 1 0.04944,0.150097 c 0.189827,0.576427 0.668015,2.060727 0.815658,3.269091 A 17.463928,17.677113 0 0 0 34.08055,20.290433 4.4123838,4.4662463 0 0 0 33.437916,18.030426 C 33.115193,17.522324 32.71234,17.213159 32.383309,17.213159 a 0.38175979,0.38641998 0 0 0 -0.03709,0 z m -1.215243,0.183479 a 4.8510913,4.9103091 0 0 0 -1.186409,0.675501 l -0.02473,0.01661 a 10.756767,10.888077 0 0 0 -0.642642,0.533732 c -1.326664,1.208362 -2.324829,1.836025 -2.966019,1.868049 h -0.03296 c -0.558942,-0.05126 -1.409,-0.874205 -1.754905,-1.292647 a 0.45136239,0.45687224 0 0 0 -0.263647,-0.07507 c -0.105459,0 -0.231944,0.02441 -0.354277,0.05004 -0.08226,0.01495 -0.172943,0.03102 -0.263643,0.0417 a 8.2784926,8.3795493 0 0 0 -1.046348,0.208497 28.38943,28.735984 0 0 0 -0.757981,0.175139 c -0.93857,0.27541 -1.6458,0.599452 -1.993812,0.909014 l -0.02473,0.02502 c -0.240446,0.166521 -0.801353,0.64174 -0.972194,1.459416 v 0.0083 c -0.354342,1.509388 0.183036,3.369168 0.898042,4.436624 0.337468,0.499569 0.69128,0.809865 0.988674,0.858969 0.07171,0.0087 0.164509,0.01661 0.263647,0.01661 1.145278,0 3.559027,-0.691846 5.149339,-1.150853 l 0.642642,-0.183479 a 1.3498688,1.3663469 0 0 0 0.09062,-0.02502 c -0.08226,-0.09182 -0.239523,-0.22443 -0.477858,-0.433653 -1.063022,-0.725871 -2.067183,-1.067458 -3.155517,-1.067458 -0.240446,0 -0.483791,0.01569 -0.757981,0.05005 -0.92171,0.106751 -1.688525,0.324773 -2.059738,0.433653 a 1.1726986,1.1870139 0 0 1 -0.304843,0.0751 0.26575541,0.26899953 0 0 1 -0.24717,-0.175138 0.27630127,0.27967413 0 0 1 0.08239,-0.291885 h 0.0081 c 0.632749,-0.54227 1.827792,-1.551018 4.078277,-2.001485 0.385978,-0.07472 0.805374,-0.116772 1.24408,-0.116772 1.003966,0 2.0515,0.209159 3.106082,0.625468 1.425802,0.567888 2.403863,1.291423 3.188472,1.876391 0.428162,0.307431 0.791666,0.582301 1.11226,0.73388 0.08437,0.0427 0.123212,0.05006 0.140059,0.05006 a 0.56947594,0.57642763 0 0 0 0.09062,-0.2085 c 0.01476,-0.03203 0.105663,-0.417909 -0.53553,-2.601928 a 38.471265,38.940889 0 0 0 -1.054567,-3.135747 c -0.45347,-1.116561 -0.34518,-1.898743 -0.205981,-2.368424 z m -5.899086,5.896038 c -0.989201,0 -1.852313,0.190476 -2.529355,0.425316 0.166632,-0.0087 0.337666,-0.0083 0.519053,-0.0083 0.2067,0 0.427303,0.0018 0.650875,0.01661 0.706575,0.05122 2.52204,0.37481 4.152427,2.351743 0.331141,0.392824 0.684826,0.725536 1.697227,0.725536 0.35434,0 0.775052,-0.04183 1.277037,-0.125075 l 0.140059,-0.0417 c 0.345905,-0.0918 0.619304,-0.173717 0.823897,-0.233503 -0.419726,-0.29035 -0.907338,-0.667565 -1.565403,-1.184214 -1.62406,-1.276679 -3.360369,-1.926427 -5.165817,-1.926427 z m 2.166843,3.327468 c -0.0232,0.0087 -0.06433,0.01624 -0.131829,0.03336 l -0.02473,0.0081 c -0.337467,0.125961 -0.947544,0.33418 -1.647788,0.575425 -0.847884,0.292485 -1.806238,0.616525 -2.603509,0.909008 -1.022946,0.384286 -1.350726,0.534664 -1.458293,0.583767 l -0.06593,0.191802 c -0.238336,0.742951 -0.790871,2.444746 -3.518026,3.63603 0.569471,0.576427 1.78897,1.609528 4.201861,1.609528 0.206697,0 0.427501,-0.0078 0.642634,-0.02502 a 7.4284971,7.519178 0 0 0 4.819786,-2.293369 c 1.170592,-1.225444 1.828651,-2.761449 1.845525,-4.228136 a 3.8450171,3.8919537 0 0 1 -1.219381,-0.308532 c 0,-0.0087 -0.511737,-0.259393 -0.823897,-0.667162 -0.0085,-0.0087 -0.01642,-0.01642 -0.01642,-0.02502 z M 33.133,26.745224 a 4.6211916,4.6776033 0 0 1 -1.309994,0.558747 c -0.56947,0.166521 -1.1197,0.257327 -1.417096,0.308563 -0.0253,0.298887 -0.07448,0.875716 -0.148289,1.317645 a 6.943388,7.0281469 0 0 1 -0.346038,1.20923 l 0.436667,0.400295 c 0.421836,-0.283943 1.820871,-1.360677 2.784761,-3.79448 z m -17.54895,2.051525 c -0.198264,0.05124 -1.550241,0.975657 -1.845527,3.736105 -0.147644,1.334321 0.10616,3.042389 0.321321,4.086361 0.172943,-0.619123 0.444903,-1.293091 0.972192,-1.984805 0.493549,-0.651149 1.02862,-1.159061 1.697227,-1.609528 a 1.60086,1.620402 0 0 1 -0.601447,-0.425311 1.3583055,1.3748866 0 0 1 -0.304841,-1.075802 c 0.17296,-2.07727 -0.06544,-2.576244 -0.173017,-2.693663 -0.02532,-0.03416 -0.04312,-0.03338 -0.04943,-0.03334 z m 1.466528,0.525387 c -0.0085,0.441927 -0.06473,0.849364 -0.115351,1.259265 a 14.781065,14.9615 0 0 0 -0.08239,0.675503 c -0.03163,0.459007 0.06702,0.618258 0.107102,0.658823 0.0253,0.03416 0.06602,0.05839 0.148289,0.05839 a 0.607441,0.61485612 0 0 0 0.22245,-0.05004 c 0.807808,-0.341585 1.573172,-0.943097 1.94439,-1.267604 -0.569476,-0.260462 -1.433579,-0.81127 -2.224517,-1.334323 z"
     id="path8" />
</svg>
