<svg height="48" width="48" xmlns="http://www.w3.org/2000/svg"><path d="m44.322082 27.405077a19.729762 19.729765 0 0 1 -19.729762 19.729765 19.729762 19.729765 0 0 1 -19.7297621-19.729765 19.729762 19.729765 0 0 1 19.7297621-19.7297632 19.729762 19.729765 0 0 1 19.729762 19.7297632z" fill="#d35f5f" opacity=".99" transform="matrix(1.1503549 0 0 1.1503549 -4.486125 -7.525565)"/><g fill="#fff"><path d="m40.714285 26.000002c0 8.126476-7.611159 14.714286-17 14.714286s-17.0000001-6.58781-17.0000001-14.714286c5.8416531 8.860109 12.0536451 2.439842 13.0523991 8.719183-3.387435-8.048978-6.830268-10.652596-2.78106-13.588957-.0561 4.04594 3.031648 5.3727 3.738487 5.664992 5.164393 2.135572 7.787109 2.290825 8.741247-.489505.421755-1.22898-.013559-4.404003-.965358-6.805715 10.963471 6.076829-1.463346 19.722472-1.640215 16.423691-.133803-2.49557 4.274901-8.343041 7.582231-5.913409 2.239125 1.644907 4.987879-1.122324 6.272269-4.01028z" fill-opacity=".982518"/><path d="m13.5 34.5s-5.3522577-5.609747-5.7121831-9.202031c-.2587297-2.582286.1676-7.139549 2.7121831-7.297969.140567 2.648174-.435981 6.771875 3 6s1.994216-7.849623 1.5-9c5.345834 4.750073 2.199943 9.781904 1.5 12 3.12326 4.931049 2.349623-1.060347 3-3 .378413-1.987747-.872732-5.413163-.32977-7.779433.38404-1.673675 2.379523-2.746093 3.32977-2.720567-1.04906 1.677024-1.8781 4.553555 1.547094 6.152339 1.86461 2.145203 2.786132 6.861204 3.69918 6.739432-1.207314-1.270509-1.128764-7.762263.633003-9.890632 1.574545-1.902189-1.249673-4.406319-1.379277-4.501139 2.138109.474157 6.330234 2.074789 7.5 4.5-3.049992 5.270249-2.027076 6.204118-2.100444 8.727126l-.09374 3.223763c-.000805.02767 2.032172-2.110571 3.042752-3.597823 1.396795-2.055645.022305-5.352724.651432-5.353066 7.385387 1.28865 4.43636 8.932041 0 12-6.223222 4.303662-22.5 3-22.5 3z" fill-opacity=".534966" fill-rule="evenodd"/></g></svg>