<?xml version="1.0" encoding="UTF-8" standalone="no"?>
<svg
   xmlns:dc="http://purl.org/dc/elements/1.1/"
   xmlns:cc="http://creativecommons.org/ns#"
   xmlns:rdf="http://www.w3.org/1999/02/22-rdf-syntax-ns#"
   xmlns:svg="http://www.w3.org/2000/svg"
   xmlns="http://www.w3.org/2000/svg"
   xmlns:sodipodi="http://sodipodi.sourceforge.net/DTD/sodipodi-0.dtd"
   xmlns:inkscape="http://www.inkscape.org/namespaces/inkscape"
   height="48"
   width="48"
   version="1.1"
   id="svg10"
   sodipodi:docname="kaku.svg"
   inkscape:version="0.92.1 r15371">
  <metadata
     id="metadata16">
    <rdf:RDF>
      <cc:Work
         rdf:about="">
        <dc:format>image/svg+xml</dc:format>
        <dc:type
           rdf:resource="http://purl.org/dc/dcmitype/StillImage" />
        <dc:title></dc:title>
      </cc:Work>
    </rdf:RDF>
  </metadata>
  <defs
     id="defs14">
    <filter
       id="a"
       width="400%"
       height="400%"
       x="-200%"
       y="-200%"
       color-interpolation-filters="sRGB"
       filterUnits="objectBoundingBox">
      <feGaussianBlur
         in="SourceGraphic"
         stdDeviation="4.294"
         id="feGaussianBlur837" />
      <feOffset
         dy="4"
         result="pf_100_offsetBlur"
         id="feOffset839" />
      <feFlood
         flood-opacity=".4"
         id="feFlood841" />
      <feComposite
         in2="pf_100_offsetBlur"
         operator="in"
         result="pf_100_dropShadow"
         id="feComposite843" />
      <feBlend
         in="SourceGraphic"
         in2="pf_100_dropShadow"
         id="feBlend845" />
    </filter>
  </defs>
  <sodipodi:namedview
     pagecolor="#ffffff"
     bordercolor="#666666"
     borderopacity="1"
     objecttolerance="10"
     gridtolerance="10"
     guidetolerance="10"
     inkscape:pageopacity="0"
     inkscape:pageshadow="2"
     inkscape:window-width="1920"
     inkscape:window-height="1040"
     id="namedview12"
     showgrid="false"
     inkscape:zoom="4.9166667"
     inkscape:cx="24"
     inkscape:cy="24"
     inkscape:window-x="0"
     inkscape:window-y="0"
     inkscape:window-maximized="1"
     inkscape:current-layer="svg10" />
  <path
     d="m44.322082 27.405077a19.729762 19.729765 0 0 1 -19.729762 19.729765 19.729762 19.729765 0 0 1 -19.7297621-19.729765 19.729762 19.729765 0 0 1 19.7297621-19.7297632 19.729762 19.729765 0 0 1 19.729762 19.7297632z"
     fill="#5fbe9e"
     opacity=".99"
     transform="matrix(1.1503549 0 0 1.1503549 -4.486125 -7.525565)"
     id="path2"
     style="fill:#ae9779;fill-opacity:1" />
  <circle
     style="opacity:1;fill:#ffffff;fill-opacity:0.30327868;stroke:none;stroke-width:12.95837975;stroke-linecap:round;stroke-linejoin:round;stroke-miterlimit:4;stroke-dasharray:none;stroke-dashoffset:0;stroke-opacity:0.00784314"
     id="path4619"
     cx="23.80377"
     cy="24"
     r="19.830509" />
  <path
     inkscape:connector-curvature="0"
     style="fill:#ffffff;stroke-width:0.71202451"
     d="m 30.04408,14.387394 c -0.407169,0 -0.919524,0.06615 -1.137571,0.147411 -0.930881,0.346924 -1.652968,1.424287 -2.06654,3.081732 -0.665268,2.666142 -1.8082,3.854945 -3.706143,3.854945 -0.579812,0 -0.585218,0.115795 -0.0306,0.634147 1.076813,1.006379 1.732006,2.514622 1.909394,4.397307 0.06973,0.73988 0.173828,1.067497 0.43528,1.373985 0.188639,0.221136 0.421185,0.400513 0.518721,0.400513 0.09754,0 0.286959,-0.327607 0.421374,-0.728712 0.180647,-0.539049 0.273606,-1.490148 0.356012,-3.646344 0.09554,-2.499951 0.15589,-3.031775 0.421374,-3.717268 0.679568,-1.754666 2.19908,-2.69234 3.746473,-1.999065 0.742964,0.332871 1.38481,1.299622 2.326593,2.947503 0.698479,1.222162 1.483365,2.144418 1.825958,2.144418 0.17306,0 0.176949,-0.237699 0.0055,-0.342106 -0.348113,-0.212214 -0.608036,-1.559797 -0.652229,-3.384898 -0.0442,-1.826231 -0.06031,-1.92365 -0.510377,-2.793861 -0.758548,-1.466694 -2.232427,-2.369707 -3.863278,-2.369707 z m -10.050393,6.81847 c -0.134613,0.0012 -0.288528,0.01298 -0.479783,0.0306 -0.904688,0.08333 -1.354515,0.201931 -1.354515,0.357403 0,0.0508 0.560845,0.653288 1.244652,1.339217 1.360168,1.364378 2.010855,2.450205 2.307126,3.850774 0.133391,0.455873 0.173371,0.922426 0.203039,1.390672 -1.015896,0.46146 -1.668758,1.473642 -1.670198,2.589432 0,1.572962 1.275137,2.848099 2.848098,2.848099 1.572961,0 2.848098,-1.275137 2.848098,-2.848099 -0.001,-1.095072 -0.629802,-2.092579 -1.617352,-2.565791 -0.143352,-0.393301 -0.107083,-0.77419 -0.107083,-1.162602 0,-2.327329 -1.216435,-4.471061 -3.115107,-5.490377 -0.480804,-0.258122 -0.703136,-0.342983 -1.106975,-0.339323 z m -2.978821,0.927578 -0.767652,0.520112 c -1.127113,0.765702 -2.225304,2.009673 -2.816113,3.188813 -0.468055,0.934145 -0.526039,1.17416 -0.581301,2.396129 -0.03844,0.849781 -0.145186,1.520467 -0.283697,1.789796 -0.300734,0.584754 -0.151478,1.133582 0.342106,1.255778 0.207798,0.05144 0.697593,0.41639 1.088896,0.809371 1.310206,1.315814 3.802536,1.855477 6.028567,1.305842 0.576335,-0.142306 0.646252,-0.267957 0.305948,-0.546534 -0.122227,-0.100058 -0.382625,-0.494894 -0.57991,-0.878905 -0.674701,-1.313323 -0.423708,-2.946994 0.617458,-4.000967 0.472412,-0.478218 0.500609,-0.554299 0.418593,-1.144523 -0.04832,-0.347931 -0.248674,-0.947377 -0.446406,-1.332266 -0.402971,-0.784404 -2.09906,-2.616823 -2.841145,-3.069214 z m -1.399017,5.782418 c 0.58986,0 1.068036,0.478177 1.068036,1.068037 0,0.58986 -0.478176,1.068036 -1.068036,1.068036 -0.589861,0 -1.068037,-0.478176 -1.068037,-1.068036 0,-0.58986 0.478176,-1.068037 1.068037,-1.068037 z m 7.476257,1.424049 c 0.78648,0 1.424049,0.637569 1.424049,1.424049 0,0.78648 -0.637569,1.424049 -1.424049,1.424049 -0.786481,0 -1.424049,-0.637569 -1.424049,-1.424049 0,-0.78648 0.637568,-1.424049 1.424049,-1.424049 z"
     id="path853-8-7" />
</svg>
