<svg height="48" width="48" xmlns="http://www.w3.org/2000/svg"><g fill="#4ca786" opacity=".99" transform="matrix(1.1503549 0 0 1.1503549 -4.486125 -7.525565)"><path d="m44.322082 27.405077a19.729762 19.729765 0 0 1 -19.729762 19.729765 19.729762 19.729765 0 0 1 -19.7297621-19.729765 19.729762 19.729765 0 0 1 19.7297621-19.7297632 19.729762 19.729765 0 0 1 19.729762 19.7297632z"/><path d="m44.322082 27.405077a19.729762 19.729765 0 0 1 -19.729762 19.729765 19.729762 19.729765 0 0 1 -19.7297621-19.729765 19.729762 19.729765 0 0 1 19.7297621-19.7297632 19.729762 19.729765 0 0 1 19.729762 19.7297632z"/></g><path d="m7.8037713 24.000001a9 9 0 0 1 8.9999997-9 9 9 0 0 1 8.058593 5h10.941407l4 4-4 4h-1l-1.5 2-1.5-2h-1.5l-2 2-2-2h-1.449219a9 9 0 0 1 -8.050781 5 9 9 0 0 1 -8.9999997-9zm2 0a4 4 0 0 0 3.9999997 4 4 4 0 0 0 4-4 4 4 0 0 0 -4-4 4 4 0 0 0 -3.9999997 4zm15.9999997-3v2h9v-2z" fill="#fff"/></svg>