<svg height="48" width="48" xmlns="http://www.w3.org/2000/svg"><path d="m44.322082 27.405077a19.729762 19.729765 0 0 1 -19.729762 19.729765 19.729762 19.729765 0 0 1 -19.7297621-19.729765 19.729762 19.729765 0 0 1 19.7297621-19.7297632 19.729762 19.729765 0 0 1 19.729762 19.7297632z" fill="#556843" opacity=".99" transform="matrix(1.1503549 0 0 1.1503549 -4.486125 -7.525565)"/><path d="m24 19.5a2.25 2.25 0 0 0 -2.25 2.25 2.25 2.25 0 0 0 .167969.851562c.09782.06855.184982.150793.277343.226563.05659.07182.108446.14716.169922.214844.104339.114875.240119.198619.34961.308593.143528.144164.269513.304952.398437.462891a2.25 2.25 0 0 0 .886719.185547 2.25 2.25 0 0 0 2.25-2.25 2.25 2.25 0 0 0 -2.25-2.25z" fill="#a77777"/><g fill="#fff" stroke-width=".714879"><path d="m18.816406 8.9042969c-.633668 0-1.144531.5108626-1.144531 1.1445311v17.728516c0 .633668.510863 1.144531 1.144531 1.144531h.996094c-.446498-.130412-.665847-.160836-.732422-.744141-.0112-.0981.06769-.186557.101563-.279296.0046-.0059.0078-.0084.01367-.01758.03153-.08835.0721-.182716.08398-.199218.0076-.01051-.0019.0514.002.03906.01778-.0558.02756-.112922.04102-.169922.0152-.04575.02383-.09532.04492-.138672.0048-.0098.02824-.0047.0293-.01563.02879-.292948-.05742-.594154.0039-.886718.04199-.201152.06542-.424042.232421-.576172.25211-.229651.516638-.183449.798829-.115235.01416.0076.04112.0179.06445.02734.01285.0024.03312.0063.04297.0078.04111.0062.07848.02975.117188.04492.449189.175985.239054.08362.724609.347656.113503.06596.229634.125457.34375.189453.006-.0015.01001-.0062.01563-.0078.05301-.01539.102633-.01416.154297-.02344-.03906-.05088-.07812-.101468-.117187-.152344-.256771-.309806-.525825-.610997-.771485-.929687-.494843-.64195-.661646-.932284-1.064453-1.566407-.08679-.20926-.349592-.656896-.123047-.919921-.367275-.515059-.115214-.977067.304688-.904297.150445.02607.32067.121151.488281.30664.36356.402336.717125.821735.996094 1.289063.05282.08848.09826.181291.144531.273437.85929.61099 1.853593 1.025567 2.636719 1.742188.180957.165589.343968.377676.498047.572265.02266.09051.01561.06041.03125.119141.09685.02903.177717.07075.177734.132813.000028.101735-.01348.194279-.03516.279296.0289.03958.04868.0846.07617.125.0017-.0051.0022-.01055.0039-.01563.000174-.000512.0023.02496.002.02734.158917.234931.307403.47529.4375.728516.04778.09613.09251.186702.138672.277343.584246.115523 1.114919.407866 1.560547.798829.100089.10886.196798.221089.292969.333984h8.972656c.633669 0 1.144531-.510863 1.144531-1.144531v-17.72849c0-.6336685-.510862-1.1445311-1.144531-1.1445311zm8.88086 5.7539061h1.396484v1.460938h-1.396484zm2.833984 0h1.398438v1.460938h-1.398438zm-.5 2.929688c1.037647.000007 1.857485.352434 2.458984 1.05664.606053.699359.910157 1.651636.910157 2.857422v.650391h-5.828125c.05512.916403.316803 1.615399.785156 2.097656.472907.477496 1.130506.716797 1.970703.716797.486682 0 .957518-.0621 1.412109-.1875.459124-.125404.913337-.313645 1.363282-.564453v1.257812c-.454556.202576-.920899.358735-1.398438.464844-.47751.106109-.961789.158203-1.453125.158203-1.230521 0-2.204969-.37646-2.925781-1.128906-.716309-.752768-1.076172-1.770241-1.076172-3.052735-.000007-1.326385.340017-2.377795 1.019531-3.154296.684118-.781363 1.604687-1.171875 2.761719-1.171875zm.01367 1.128906c-.70708.000007-1.274175.209301-1.701172.628906-.422408.41962-.664234 1.009495-.728516 1.771485l4.517578-.0059c-.0092-.728319-.204856-1.310066-.585937-1.74414-.376498-.434075-.877506-.650384-1.501953-.650391zm-7.085938 7.027344c.06408.140089.111042.287923.175782.427734.07056.152372.150203.300627.228515.449219.181188.105447.351642.249311.511719.382812.0021-.0105-.0047-.03263.0059-.03125.05554.0073.111896.04091.167969.06836-.247193-.152768-.310345-.401303-.199219-.59961-.03172-.03772-.07361-.09429-.0918-.111328-.26988-.252917-.521098-.415982-.798828-.585937zm-3.052732.880859c-.01962.0094.06848.07369.134766.125.0074.0059.02369.01141.02148.01758.04477-.006.08795-.01573.130859-.02539-.103111-.04266-.275963-.1225-.287109-.117188zm2.191406 1.146484c-.134633.01823-.229909.03221-.455078.04687-.427666-.04205-.833995.135092-1.259766.08203-.02511-.0026-.064-.02407-.09961-.03906-.000702.0021-.0012.0037-.002.0059-.02396.07618-.03111.08502-.04687.130859.0072.0021.01425.004.02148.0059.04495.01131.09106.01543.136719.02344.175519.02516.35915-.0408.533203-.02344.107152.01069.212139.03754.316407.06445.261813.06757.06177.05449.220703.05859.188021-.01997.374866-.03381.564453-.0293.153916.133058.31571.0915.480468.136719.178588.04902.368602.110628.544922.167969.04006.0051.0722.02638.109375.03711-.0099-.07026-.01786-.151624-.03516-.1875-.0037-.0076-.0098-.01397-.01367-.02148-.09392-.03624-.188708-.07174-.28125-.111328-.250387-.107119-.492156-.227724-.734375-.347657zm3.007813.958985c.01346.06412.03132.12726.04492.191406h.123047c-.02908-.03304-.06403-.06437-.0918-.09766-.02577-.03089-.03937-.06115-.0625-.0918-.0046-.000584-.0091-.0014-.01367-.002z" fill-opacity=".355372"/><path d="m10.238281 17.482422c-.6336685 0-1.144531.510862-1.144531 1.144531v17.728516c0 .633668.5108625 1.144531 1.144531 1.144531h17.728516c.633669 0 1.144531-.510863 1.144531-1.144531v-17.728516c0-.633669-.510862-1.144531-1.144531-1.144531zm9.740235 5.753906h1.339843l1.917969 2.566406h-1.039062zm2.271484 3.369141c1.101771.000007 1.924656.288849 2.46875.865234.543766.576031.816085 1.449139.816406 2.619141v.002 4.382812h-1.25v-1.166015c-.285658.46658-.64212.811041-1.068359 1.035156-.426211.219568-.947799.330078-1.564453.330078-.779862 0-1.400755-.219067-1.863282-.658203-.458237-.443225-.6875-1.036729-.6875-1.777344 0-.864574.286148-1.515928.857422-1.955078.575835-.439176 1.432226-.65825 2.570313-.65825h1.755859v-.125c-.000006-.580932-.191399-1.028131-.572265-1.34375-.376334-.320194-.907158-.480462-1.591797-.480469-.435276.000007-.858856.053-1.271485.158203-.412606.105216-.808565.262239-1.189453.472657v-1.166016c.457945-.178391.901317-.311515 1.332032-.398437.430743-.09148.849759-.136712 1.257812-.136719zm.789062 4.005859c-1.011124.000007-1.711667.118276-2.101562.351563-.389938.233293-.583984.630699-.583984 1.193359 0 .448286.145363.805021.435546 1.070312.294717.260738.693991.390625 1.197266.390626.693719 0 1.248812-.246203 1.666016-.740235.421664-.498599.632805-1.161049.632812-1.984375v-.28125z"/></g></svg>