<svg height="48" width="48" xmlns="http://www.w3.org/2000/svg"><rect fill="#4393b5" height="43" ry="1.452703" width="43" x="2" y="3"/><path d="m23.406614 4.2187496c-1.068967 0-2.138928.3985388-2.938006 1.1975981l-6.779431 6.7794303v19.353262l19.393118-19.393119-6.737676-6.7395733c-.799077-.7990592-1.869038-1.1975981-2.938005-1.1975981zm12.423894 10.6853834-9.624438 9.624438 9.721233 9.721233 6.688329-6.686432c1.598157-1.598119 1.598158-4.275996 0-5.874114zm-26.0283053 1.180517-5.6046074 5.604608c-1.5981577 1.598117-1.5963249 4.2722.00189 5.870319l5.6027125 5.602709zm13.6537573 11.194031-9.766783 9.766784v.0057l6.781329 6.781329c1.598158 1.598119 4.275957 1.599951 5.874113.0019l6.832573-6.834394z" fill="#fff" stroke-width=".971744"/></svg>