<svg height="48" width="48" xmlns="http://www.w3.org/2000/svg"><path d="m44.322082 27.405077a19.729762 19.729765 0 0 1 -19.729762 19.729765 19.729762 19.729765 0 0 1 -19.7297621-19.729765 19.729762 19.729765 0 0 1 19.7297621-19.7297632 19.729762 19.729765 0 0 1 19.729762 19.7297632z" fill="#78a188" opacity=".99" transform="matrix(1.1503549 0 0 1.1503549 -4.486125 -7.525565)"/><g fill="#fff"><rect height="10.5" ry="1.5" transform="matrix(.5 -.8660254 .8660254 .5 -.346227 .577406)" width="7.5" x="-6.159996" y="23.020954"/><rect height="10.5" ry="1.5" transform="matrix(.5 -.8660254 .8660254 .5 -.346227 .577406)" width="7.5" x="-17.730762" y="31.7798"/><rect fill-opacity=".427007" height="7.582497" ry="1.5" transform="matrix(-.5 .8660254 -.8660254 -.5 -.346227 .577406)" width="10.266729" x="-1.192889" y="-42.266144"/><rect fill-opacity=".427007" height="7.582498" ry="1.5" transform="matrix(-.5 .8660254 -.8660254 -.5 -.346227 .577406)" width="10.266729" x="7.565957" y="-30.695377"/></g></svg>