<svg height="48" width="48" xmlns="http://www.w3.org/2000/svg"><rect fill="#8cccc0" height="42.5" ry="2.5" width="32.5" x="7.5" y="3"/><g fill="none" stroke="#fff"><path d="m20 25.5h17.5v15h-17.5z" stroke-linecap="round" stroke-width="2"/><path d="m27.5 25.5v15" stroke-width="1.3"/><path d="m32.5 25.5v15" stroke-width="1.3"/><path d="m37.5 33h-17.5" stroke-width="1.3"/></g><path d="m10 3h13.75v42.5h-13.75c-1.385 0-2.5-1.115-2.5-2.5v-37.5c0-1.385 1.115-2.5 2.5-2.5z" fill="#59b6a4"/><path d="m29.991433 13.358366a7.5 7.5 0 0 1 -7.836122 7.133709 7.5 7.5 0 0 1 -7.148003-7.823085 7.5 7.5 0 0 1 7.810023-7.1622737 7.5 7.5 0 0 1 7.17652 7.7969337" fill="#fff"/><path d="m25.710068 17.703936q-.679165.352397-1.415996.531799-.73683.179403-1.537733.179403-2.389893 0-3.786667-1.332702-1.396774-1.33911-1.396774-3.626487 0-2.293785 1.396774-3.6264874 1.396774-1.3391091 3.786667-1.3391091.800903 0 1.537733.1794022.736831.1794021 1.415996.5317993v1.979831q-.685573-.467727-1.351923-.685572-.666351-.217846-1.403182-.217846-1.319887 0-2.075939.845753-.756052.845753-.756052 2.332229 0 1.480068.756052 2.325821.756052.845753 2.075939.845753.736831 0 1.403182-.217846.66635-.217845 1.351923-.685572z" fill="#59b6a4"/></svg>