<svg height="48" width="48" xmlns="http://www.w3.org/2000/svg"><rect fill="#dfb28d" height="42.5" ry="2.5" width="32.5" x="7.5" y="3"/><path d="m10 3h13.75v42.5h-13.75c-1.385 0-2.5-1.115-2.5-2.5v-37.5c0-1.385 1.115-2.5 2.5-2.5z" fill="#d79e70"/><path d="m29.991433 13.358366a7.5 7.5 0 0 1 -7.836122 7.133709 7.5 7.5 0 0 1 -7.148003-7.823085 7.5 7.5 0 0 1 7.810023-7.1622737 7.5 7.5 0 0 1 7.17652 7.7969337" fill="#fff"/><path d="m36 33.015709c.000001-8.000012-12-8.000012-12 0 0 8.000013 12.000001 8.000013 12 0z" fill="#fff"/><path d="m30 26.015722v6.999987h7v-6.999987z" fill="#dfb28d"/><path d="m32 25.015697v6h6.000001c0-3.999988-2-6-6.000001-6z" fill="#fff"/><text style="font-size:14.552059;font-family:sans-serif;letter-spacing:0;word-spacing:0;fill:#d79e70;stroke-width:.363801" x="20.113707" y="18.858885"><tspan fill="#d79e70" font-family="Noto Sans Gurmukhi" font-weight="bold" stroke-width=".363801" x="20.113707" y="18.858885">I</tspan></text></svg>