<?xml version="1.0" encoding="UTF-8" standalone="no"?>
<svg
   xmlns:dc="http://purl.org/dc/elements/1.1/"
   xmlns:cc="http://creativecommons.org/ns#"
   xmlns:rdf="http://www.w3.org/1999/02/22-rdf-syntax-ns#"
   xmlns:svg="http://www.w3.org/2000/svg"
   xmlns="http://www.w3.org/2000/svg"
   xmlns:sodipodi="http://sodipodi.sourceforge.net/DTD/sodipodi-0.dtd"
   xmlns:inkscape="http://www.inkscape.org/namespaces/inkscape"
   height="48"
   width="48"
   version="1.1"
   id="svg10"
   sodipodi:docname="librewolf.svg"
   inkscape:version="1.0.2 (e86c870879, 2021-01-15)">
  <metadata
     id="metadata16">
    <rdf:RDF>
      <cc:Work
         rdf:about="">
        <dc:format>image/svg+xml</dc:format>
        <dc:type
           rdf:resource="http://purl.org/dc/dcmitype/StillImage" />
        <dc:title></dc:title>
      </cc:Work>
    </rdf:RDF>
  </metadata>
  <defs
     id="defs14" />
  <sodipodi:namedview
     pagecolor="#ffffff"
     bordercolor="#666666"
     borderopacity="1"
     objecttolerance="10"
     gridtolerance="10"
     guidetolerance="10"
     inkscape:pageopacity="0"
     inkscape:pageshadow="2"
     inkscape:window-width="1920"
     inkscape:window-height="1030"
     id="namedview12"
     showgrid="false"
     inkscape:zoom="5.6715855"
     inkscape:cx="-42.52794"
     inkscape:cy="30.294635"
     inkscape:window-x="0"
     inkscape:window-y="24"
     inkscape:window-maximized="1"
     inkscape:current-layer="svg10"
     inkscape:document-rotation="0" />
  <path
     d="m44.322082 27.405077a19.729762 19.729765 0 0 1 -19.729762 19.729765 19.729762 19.729765 0 0 1 -19.7297621-19.729765 19.729762 19.729765 0 0 1 19.7297621-19.7297632 19.729762 19.729765 0 0 1 19.729762 19.7297632z"
     fill="#73517c"
     opacity=".99"
     transform="matrix(1.1503549 0 0 1.1503549 -4.486125 -7.525565)"
     id="path2"
     style="fill:#6ba3cc;fill-opacity:1" />
  <circle
     style="fill:#ffffff;fill-opacity:0.26148391;stroke-width:1.04799;stroke-linecap:round;stroke-linejoin:round"
     id="path842"
     cx="23.80377"
     cy="24"
     r="14.272896" />
  <path
     id="path847"
     style="fill:#ffffff;fill-opacity:0.824416;stroke:none;stroke-width:0.196622px;stroke-linecap:butt;stroke-linejoin:miter;stroke-opacity:1"
     d="m 23.803386,3.8418381 c -11.115725,0 -20.1579729,9.0430099 -20.1579729,20.1587409 0,11.115715 9.0422479,20.157584 20.1579729,20.157584 11.115726,0 20.158742,-9.041869 20.158742,-20.157584 0,-11.115731 -9.043016,-20.1587409 -20.158742,-20.1587409 z m 0,2.9723665 c 9.509239,0 17.186376,7.6771294 17.186376,17.1863744 0,8.039394 -5.487666,14.767918 -12.930202,16.656032 l -0.03189,-2.950494 2.059154,-3.370214 0.356758,-5.21317 2.364458,-5.501195 3.234278,-2.827203 0.977732,-2.321837 -0.150922,-1.399392 -1.677815,-0.32873 -0.704309,0.638645 0.761911,-2.263075 -1.130187,-3.053398 -7.089529,5.08567 -2.498866,0.155916 -3.85717,2.319528 -2.02843,0.134783 -3.314924,0.776509 2.61369,3.45894 -2.166682,3.870987 -1.868292,1.677823 -1.746556,3.879052 -1.86167,1.220217 C 7.9933965,31.721143 6.6181597,28.02509 6.6181597,24.000579 c 0,-9.509245 7.6759823,-17.1863744 17.1852163,-17.1863744 z m 3.256549,11.3384064 -0.865596,1.574893 -1.88442,0.05493 0.911297,-1.496165 z"
     sodipodi:nodetypes="sssssssccccccccccccccccccccccsssccccc" />
  <path
     style="fill:#ffffff;stroke:none;stroke-width:1px;stroke-linecap:butt;stroke-linejoin:miter;stroke-opacity:1;fill-opacity:0.8244158"
     d="m 15.329809,20.538954 2.61369,3.45894 5.156155,-4.323185 -2.426491,-0.04705 -2.02843,0.134783 z"
     id="path844" />
  <path
     style="fill:#ffffff;stroke:none;stroke-width:1px;stroke-linecap:butt;stroke-linejoin:miter;stroke-opacity:1;fill-opacity:0.8244158"
     d="m 34.118728,12.066548 1.130187,3.053398 -0.761911,2.263075 -3.432198,-3.095085 z"
     id="path846" />
</svg>
