<svg height="48" width="48" xmlns="http://www.w3.org/2000/svg"><rect fill="#86a0ac" height="42.5" ry="2.5" width="32.5" x="7.5" y="3"/><path d="m10 3h13.75v42.5h-13.75c-1.385 0-2.5-1.115-2.5-2.5v-37.5c0-1.385 1.115-2.5 2.5-2.5z" fill="#658493"/><path d="m29.991433 13.358366a7.5 7.5 0 0 1 -7.836122 7.133709 7.5 7.5 0 0 1 -7.148003-7.823085 7.5 7.5 0 0 1 7.810023-7.1622737 7.5 7.5 0 0 1 7.17652 7.7969337" fill="#fff"/><path d="m19.604918 19.285713h2.092951l.523238-3.908894c.07695-.738689.138504-1.477378.169283-2.185288h.06156c.03078.70791.07695 1.446599.169283 2.185288l.523238 3.908894h2.154509l.923358-11.4342854h-1.754386l-.323176 6.4019684c-.04617.938751-.04617 1.66205-.06156 2.646968h-.06156c-.12311-.984918-.215446-1.723607-.338561-2.646968l-.46168-3.477992h-1.385042l-.507848 3.477992c-.138504.938751-.215451 1.692829-.323176 2.646968h-.06156c-.03078-.954139-.04617-1.708217-.09234-2.646968l-.307781-6.4019684h-1.923668z" fill="#658493" transform="matrix(1 0 0 -1 0 27.137141)"/><g fill="none" stroke="#fff" stroke-width="2"><path d="m31.25 21.25v7.5"/><path d="m35 25h-7.5"/><path d="m35 33.5h-7.5"/><path d="m35 38h-7.5"/></g></svg>