<svg height="48" width="48" xmlns="http://www.w3.org/2000/svg"><path d="m12.071428 3h31.475869c.804798 0 1.452703.6479055 1.452703 1.4527029v40.0945941c0 .804798-.647905 1.452703-1.452703 1.452703h-40.0945941c-.8047974 0-1.4527029-.647905-1.4527029-1.452703v-31.475868z" fill="#e6e7e7"/><path d="m45 25v19.547297c0 .804798-.647905 1.452703-1.452703 1.452703h-40.0945941c-.8047974 0-1.4527029-.647905-1.4527029-1.452703v-19.547297z" fill="#d874be"/><path d="m10.618725 13.071428h-8.618725l10.071427-10.071428v8.618726c0 .804797-.647905 1.452702-1.452702 1.452702z" fill="#c2c4c4"/><path d="m18.542636 42.73598h5.88011c3.174813 0 6.081331-1.274396 6.081331-4.762218 0-1.408544-.670735-3.040666-2.504077-3.599612v-.04472c1.207323-.693093 1.8557-2.05692 1.8557-3.39839 0-2.750014-2.235783-4.180915-5.432954-4.180915h-5.88011zm3.912621-9.792731v-2.839445h1.945131c1.050819 0 1.475618.626019 1.475618 1.363828 0 .760166-.424799 1.475617-1.408544 1.475617zm0 6.439056v-3.30896h2.36993c1.14025 0 1.676838.737809 1.676838 1.632123 0 .894313-.558946 1.676837-1.699196 1.676837z" fill="#fff"/><g fill="#7f7f7f"><path d="m16.05 12.016545v.275734c0-.09488.0143-.182339.025-.275734zm0 .275734.000002 3.294118v.413603h.05c.365978 2.246783 3.775823 3.998162 7.949998 3.998162 4.174172 0 7.584019-1.751379 7.95-3.998162h.05v-.413603l-.000002-3.294118c0 2.436547-3.581726 4.411765-8 4.411765-4.418273 0-7.999998-1.975218-7.999998-4.411765zm16 0v-.275734h-.025c.01071.09339.025.18085.025.275734z"/><path d="m32.05 11.409927c0 2.436546-3.581711 4.411765-7.999985 4.411765-4.418275 0-7.999985-1.975219-7.999985-4.411765s3.58171-4.411765 7.999985-4.411765c4.418274 0 7.999985 1.975219 7.999985 4.411765z"/><path d="m16.05 16.310663v.275734c0-.09488.0143-.182339.025-.275734zm0 .275734.000002 3.294118v.413603h.05c.365978 2.246783 3.775823 3.998162 7.949998 3.998162 4.174172 0 7.584019-1.751379 7.95-3.998162h.05v-.413603l-.000002-3.294118c0 2.436547-3.581726 4.411765-8 4.411765-4.418273 0-7.999998-1.975218-7.999998-4.411765zm16 0v-.275734h-.025c.01071.09339.025.18085.025.275734z"/></g></svg>