<?xml version="1.0" encoding="UTF-8" standalone="no"?>
<svg
   xmlns:dc="http://purl.org/dc/elements/1.1/"
   xmlns:cc="http://creativecommons.org/ns#"
   xmlns:rdf="http://www.w3.org/1999/02/22-rdf-syntax-ns#"
   xmlns:svg="http://www.w3.org/2000/svg"
   xmlns="http://www.w3.org/2000/svg"
   xmlns:sodipodi="http://sodipodi.sourceforge.net/DTD/sodipodi-0.dtd"
   xmlns:inkscape="http://www.inkscape.org/namespaces/inkscape"
   height="48"
   width="48"
   version="1.1"
   id="svg22"
   sodipodi:docname="lightcord.svg"
   inkscape:version="1.0.1 (3bc2e813f5, 2020-09-07)">
  <metadata
     id="metadata28">
    <rdf:RDF>
      <cc:Work
         rdf:about="">
        <dc:format>image/svg+xml</dc:format>
        <dc:type
           rdf:resource="http://purl.org/dc/dcmitype/StillImage" />
        <dc:title></dc:title>
      </cc:Work>
    </rdf:RDF>
  </metadata>
  <defs
     id="defs26" />
  <sodipodi:namedview
     pagecolor="#ffffff"
     bordercolor="#666666"
     borderopacity="1"
     objecttolerance="10"
     gridtolerance="10"
     guidetolerance="10"
     inkscape:pageopacity="0"
     inkscape:pageshadow="2"
     inkscape:window-width="1920"
     inkscape:window-height="1031"
     id="namedview24"
     showgrid="false"
     inkscape:zoom="8.0208333"
     inkscape:cx="19.444052"
     inkscape:cy="23.570423"
     inkscape:window-x="0"
     inkscape:window-y="24"
     inkscape:window-maximized="1"
     inkscape:current-layer="svg22" />
  <g
     fill="#fff"
     id="g10">
    <path
       d="m13 36v-2l2-1 1-1h5l1 1 2 1v2z"
       fill-opacity=".96831"
       fill-rule="evenodd"
       id="path2" />
    <path
       d="m23 26.000001a4.5002861 4.5002861 0 0 1 -4.701972 4.280497 4.5002861 4.5002861 0 0 1 -4.289075-4.694149 4.5002861 4.5002861 0 0 1 4.686312-4.297638 4.5002861 4.5002861 0 0 1 4.306185 4.678458"
       id="path4" />
    <path
       d="m28.000001 18a3 3 0 0 1 -3.134449 2.853483 3 3 0 0 1 -2.859201-3.129234 3 3 0 0 1 3.124009-2.864909 3 3 0 0 1 2.870608 3.118773"
       fill-opacity=".947183"
       id="path6" />
    <path
       d="m34.000001 21a2 2 0 0 1 -2.089633 1.902323 2 2 0 0 1 -1.906134-2.086156 2 2 0 0 1 2.082673-1.90994 2 2 0 0 1 1.913738 2.079182"
       fill-opacity=".950704"
       id="path8" />
  </g>
  <path
     d="m18 26 7-8 7 3"
     fill="none"
     stroke="#fafafa"
     stroke-width="3"
     id="path12" />
  <path
     d="m30 24v2l-3 2 1 4h1v-4h2l1 3h1l1-3h2v4h1l1-4-3-2v-2z"
     fill="#fff"
     fill-rule="evenodd"
     id="path14" />
  <rect
     fill="#68b0dd"
     height="33"
     ry="1"
     width="46"
     x="1"
     y="5"
     id="rect16"
     style="fill:#dd8068;fill-opacity:1" />
  <path
     d="m2 5c-.554 0-1 .446-1 1v40c0 .284065.1196391.537041.3085938.71875l45.3828122-41.4375c-.179555-.1726705-.421471-.28125-.691406-.28125z"
     fill="#94c7e8"
     id="path18"
     style="fill:#e59f8d;fill-opacity:1" />
  <path
     d="m 28.656452,28.793143 c 1.54728,-0.485761 2.88247,-1.239013 3.92005,-2.580443 -5.67947,3.282147 -11.29776,3.181662 -16.966524,0.02274 0.462507,0.659911 1.019444,1.161266 1.669534,1.53758 0.64812,0.375236 1.33605,0.681802 2.02975,1.030271 -0.29913,0.373537 -0.65412,0.764086 -0.94651,1.196825 -0.27832,0.412323 -0.5939,0.556759 -1.10257,0.497613 -1.916678,-0.22275 -3.63975,-0.860602 -5.06851,-2.194771 -0.04141,-0.03879 -0.08035,-0.08019 -0.122372,-0.118067 -0.583299,-0.525343 -0.826807,-1.111704 -0.77662,-1.959886 0.237324,-4.014985 1.23907,-7.813798 2.992882,-11.422016 0.08597,-0.176872 0.232787,-0.347109 0.39344,-0.461093 1.400973,-0.994433 2.93742,-1.681336 4.63679,-1.97826 0.32442,-0.05671 0.65356,-0.09918 0.98207,-0.113756 0.13354,-0.0059 0.27123,0.08002 0.40404,0.176135 -2.01954,0.675108 -3.93871,1.488473 -5.626569,2.847537 5.799919,-2.762815 11.565999,-2.899538 17.348289,-0.07003 -1.54569,-1.24911 -3.33256,-2.023174 -5.20194,-2.634883 0.13956,-0.287113 0.33435,-0.342346 0.63286,-0.31456 2.023,0.187987 3.82955,0.9316 5.47856,2.088329 0.15476,0.10854 0.29925,0.26806 0.38256,0.436482 1.2795,2.590368 2.14192,5.315924 2.6308,8.162837 0.22706,1.323225 0.34398,2.655637 0.36718,3.99576 0.003,0.188384 -0.0768,0.412891 -0.19281,0.563451 -1.07745,1.397966 -2.51364,2.261402 -4.20467,2.693291 -0.65322,0.166779 -1.3344,0.226152 -2.00514,0.318416 -0.10389,0.01429 -0.26108,-0.02279 -0.32335,-0.09601 -0.44674,-0.523587 -0.87512,-1.06254 -1.33122,-1.623495 z m -8.95856,-3.580091 c 0.7414,-0.0018 1.181,-0.158839 1.56678,-0.479297 0.6306,-0.524209 0.86588,-1.214799 0.91442,-2.016479 0.0542,-0.896498 -0.29386,-1.563326 -1.03867,-2.018239 -0.76845,-0.469258 -1.57143,-0.508047 -2.34918,-0.01996 -1.24837,0.783421 -1.48286,2.646903 -0.48956,3.769893 0.43466,0.491319 0.97458,0.758866 1.39621,0.764082 z m 8.18307,0.03459 c 0.25486,-0.05847 0.52166,-0.08626 0.76268,-0.180445 1.48745,-0.58035 1.96107,-2.57755 0.93256,-3.893972 -0.80146,-1.025732 -2.29481,-1.118168 -3.20797,-0.18912 -0.604,0.61443 -0.79239,1.366152 -0.68946,2.207359 0.13638,1.114938 1.11227,2.016708 2.20219,2.056178 z"
     fill="#ffffff"
     stroke-width="0.056708"
     id="path20" />
</svg>
