<svg height="48" width="48" xmlns="http://www.w3.org/2000/svg"><path d="m44.322082 27.405077a19.729762 19.729765 0 0 1 -19.729762 19.729765 19.729762 19.729765 0 0 1 -19.7297621-19.729765 19.729762 19.729765 0 0 1 19.7297621-19.7297632 19.729762 19.729765 0 0 1 19.729762 19.7297632z" fill="#5cbc8d" opacity=".99" transform="matrix(1.1503549 0 0 1.1503549 -4.486125 -7.525565)"/><path d="m9.0997238 35.178308.014394-11.808124-.014394-5.604564 14.7040472-8.8998182 14.704048 9.2867672v17.025739l-4.901091 2.321692-5.159573-2.321692v-5.417281l3.869486-3.869486v-4.643383l-8.51287-6.191178-9.286766 6.191178v4.643383l4.643383 3.869486v5.417281l-5.159341 2.321692z" fill="#fff" stroke-width=".773897"/></svg>