<svg height="48" width="48" xmlns="http://www.w3.org/2000/svg"><g fill="#e08c9b" opacity=".99" transform="matrix(1.1503549 0 0 1.1503549 -4.486125 -7.525565)"><path d="m44.322082 27.405077a19.729762 19.729765 0 0 1 -19.729762 19.729765 19.729762 19.729765 0 0 1 -19.7297621-19.729765 19.729762 19.729765 0 0 1 19.7297621-19.7297632 19.729762 19.729765 0 0 1 19.729762 19.7297632z"/><path d="m44.322082 27.405077a19.729762 19.729765 0 0 1 -19.729762 19.729765 19.729762 19.729765 0 0 1 -19.7297621-19.729765 19.729762 19.729765 0 0 1 19.7297621-19.7297632 19.729762 19.729765 0 0 1 19.729762 19.7297632z"/></g><g fill="#fff"><path d="m23.804688 1.3046875a22.696228 22.696232 0 0 0 -7.333985 1.2460937c-10.6618765 4.4085354-16.58624619 16.7471858-12.3867186 27.7695308 3.8510634 10.107746 15.4116006 15.806621 25.6914066 11.830079 9.160279-3.543476 14.318877-14.062721 10.644531-23.394532-3.241782-8.233218-12.742055-12.863593-21.146484-9.4843746-7.327958 2.9463946-11.443541 11.4539946-8.351563 18.9531246 2.657813 6.446128 10.200726 10.059834 16.818359 7.246094 5.589674-2.376664 8.717984-8.984098 6.171875-14.746094-2.103765-4.760946-7.809441-7.420459-12.74414-5.128906-3.962877 1.840263-6.173362 6.685484-4.119141 10.824219 1.58793 3.199276 5.618546 4.980609 8.996094 3.138672 1.237779-.67502 2.161097-1.780887 2.617187-3.083985.456091-1.303097.404321-2.872251-.43164-4.199218-.567454-.900751-1.42575-1.545932-2.447266-1.84375-1.021516-.297819-2.304609-.176337-3.285156.61914-.606133.49173-.971175 1.110697-1.111328 1.896485-.140154.785787.145486 1.93544 1.021484 2.529296.36732.249014.561305.267817.785156.308594.223852.04078.448819.058818.734375.023438.285557-.03538.687111-.09868 1.109375-.53125.39592-.405587.473227-1.145466.369141-1.617188.09571.0834.228491.124896.285156.214844.3168.502873.341589 1.029622.138672 1.609375-.202916.579753-.673019 1.141663-1.222656 1.441406-1.734276.945783-3.984132-.052841-4.871094-1.839843-1.241787-2.501887.17136-5.595517 2.695313-6.767579 3.303332-1.533986 7.277309.317294 8.736328 3.619141 1.827189 4.135039-.486685 9.023839-4.601563 10.773438-4.994214 2.12348-10.826517-.670093-12.871094-5.628907-2.423807-5.878582.866824-12.683064 6.697266-15.027343 6.786245-2.7285859 14.587516 1.071585 17.236328 7.798828 3.037971 7.715595-1.288371 16.539887-8.935547 19.498046-8.665257 3.351985-18.532436-1.511052-21.8046871-10.099609-3.6705787-9.634033 1.7429995-20.5672259 11.2929691-24.158203 10.620878-3.9936601 22.638516 1.9795696 26.552734 12.509766 1.958389 5.26854 1.678489 10.842324-.279297 15.759765a22.696228 22.696232 0 0 0 2.044922-9.363281 22.696228 22.696232 0 0 0 -22.695312-22.6953125zm-.246094 21.5253905c.10484-.01299.128043-.006447.173828.001953.04578.0083.0839-.026591.359375.160157.149474.10133.250462.468878.248047.482421-.0024.01354.092315-.130613.046875-.09375.164544-.133487.284173-.149751.55664-.070312.134588.03924.235765.179586.369141.279297l-2.744141.857422c-.07894-.252617-.000208-.935277.322266-1.265625.322474-.330349.563128-.338572.667969-.351563z" fill-opacity=".404545" fill-rule="evenodd"/><path d="m33.9 24.000002-7.875001 4.546633-7.874999 4.546634v-9.093267-9.093267l7.875 4.546634z" stroke="#fff" stroke-linejoin="round" stroke-width="3"/></g></svg>