<?xml version="1.0" encoding="UTF-8" standalone="no"?>
<svg
   xmlns:dc="http://purl.org/dc/elements/1.1/"
   xmlns:cc="http://creativecommons.org/ns#"
   xmlns:rdf="http://www.w3.org/1999/02/22-rdf-syntax-ns#"
   xmlns:svg="http://www.w3.org/2000/svg"
   xmlns="http://www.w3.org/2000/svg"
   xmlns:sodipodi="http://sodipodi.sourceforge.net/DTD/sodipodi-0.dtd"
   xmlns:inkscape="http://www.inkscape.org/namespaces/inkscape"
   height="48"
   width="48"
   version="1.1"
   id="svg14"
   sodipodi:docname="gtk-find.svg"
   inkscape:version="0.92.3 (2405546, 2018-03-11)">
  <metadata
     id="metadata20">
    <rdf:RDF>
      <cc:Work
         rdf:about="">
        <dc:format>image/svg+xml</dc:format>
        <dc:type
           rdf:resource="http://purl.org/dc/dcmitype/StillImage" />
      </cc:Work>
    </rdf:RDF>
  </metadata>
  <defs
     id="defs18" />
  <sodipodi:namedview
     pagecolor="#ffffff"
     bordercolor="#666666"
     borderopacity="1"
     objecttolerance="10"
     gridtolerance="10"
     guidetolerance="10"
     inkscape:pageopacity="0"
     inkscape:pageshadow="2"
     inkscape:window-width="1920"
     inkscape:window-height="1029"
     id="namedview16"
     showgrid="false"
     inkscape:zoom="4.9166667"
     inkscape:cx="24"
     inkscape:cy="24"
     inkscape:window-x="0"
     inkscape:window-y="25"
     inkscape:window-maximized="1"
     inkscape:current-layer="svg14" />
  <path
     d="m3.4609375 8.4949237c-.8097214 0-1.4609375.6512155-1.4609375 1.460938v14.5089823 1.535156h44v-13.614451c0-.809722-.651216-1.460937-1.460938-1.460937h-.769531-22.769531c-.349829 0-.699658-2.4296883-1.049487-2.4296883z"
     fill="#5270ad"
     id="path2" />
  <rect
     fill="#fff"
     height="32.095718"
     ry="1.445225"
     width="44"
     x="2"
     y="14"
     id="rect4" />
  <path
     d="m23.400391 12.382812c-1.77905.819241-2.314221 2.781522-3.453962 4.546876h-16.4854915c-.8097214 0-1.4609375.651216-1.4609375 1.460937v26.148437c0 .809722.6512161 1.460938 1.4609375 1.460938h19.9394535 20.36914.769531c.809721 0 1.460938-.651216 1.460938-1.460938v-30.693359c0-.809721-.651217-1.462891-1.460938-1.462891l-.345703.07031c-.135219-.04106-.274844-.07031-.423828-.07031z"
     fill="#9d7f7f"
     id="path6" />
  <path
     d="m16.923828 18.144531a10.571428 10.571428 0 0 0 -10.279296 10.09961 10.571428 10.571428 0 0 0 10.076171 11.027344 10.571428 10.571428 0 0 0 11.044922-10.054688l.0039-.07617a10.571428 10.571428 0 0 0 -10.117181-10.990236 10.571428 10.571428 0 0 0 -.728516-.00586zm.076172 2.855469a7.7142849 7.7142849 0 0 1 .533203.0039 7.7142849 7.7142849 0 0 1 7.38086 8.019532l-.002.05664a7.7142849 7.7142849 0 0 1 -8.0605 7.337897 7.7142849 7.7142849 0 0 1 -7.351563-8.046875 7.7142849 7.7142849 0 0 1 7.5-7.371094z"
     fill="#fff"
     id="path8" />
  <path
     d="m25 34 12.124356 7"
     fill="none"
     stroke="#fff"
     stroke-linecap="round"
     stroke-width="3"
     id="path10" />
  <path
     d="m18.999354 24.047545a2.0002487 2.0002487 0 0 1 -2.089892 1.902559 2.0002487 2.0002487 0 0 1 -1.906371-2.086415 2.0002487 2.0002487 0 0 1 2.082932-1.910177 2.0002487 2.0002487 0 0 1 1.913976 2.079441"
     fill="#fff"
     fill-opacity=".644366"
     id="path12" />
</svg>
