<svg height="48" width="48" xmlns="http://www.w3.org/2000/svg"><rect fill="#5b909a" height="43" ry="1.452703" width="43" x="2" y="3"/><g fill="#fff"><path d="m8 18v18h28v-18z" fill-opacity=".253886"/><path d="m8 36 14-12 14 12z" fill-opacity=".378238"/><path d="m8 18 14 12 14-12z"/><circle cx="34" cy="18" r="8"/></g><path d="m30.779297 14.300781c-.578196-.09596-1.231675.01107-1.787109.337891-1.209911.711915-1.570313 2.092142-1.570313 3.361328s.360402 2.649413 1.570313 3.361328c.555434.32682 1.208913.433851 1.787109.337891s1.075989-.354287 1.529297-.669922c.629756-.438495 1.151698-1.055784 1.691406-1.640625.539708.584841 1.06165 1.20213 1.691406 1.640625.453308.315635.951101.573962 1.529297.669922s1.231675-.01107 1.787109-.337891c1.209911-.711915 1.570313-2.092142 1.570313-3.361328s-.360402-2.649413-1.570313-3.361328c-.555434-.32682-1.208913-.433851-1.787109-.337891s-1.075989.354287-1.529297.669922c-.629756.438495-1.151698 1.055784-1.691406 1.640625-.539708-.584841-1.06165-1.20213-1.691406-1.640625-.453308-.315635-.951101-.573962-1.529297-.669922zm-.328125 1.972657c.16818.02791.416834.132341.714844.339843.402214.28006.917139.861982 1.410156 1.386719-.493017.524737-1.007942 1.106659-1.410156 1.386719-.29801.207502-.546664.311932-.714844.339843-.168181.02791-.259335.02039-.44336-.08789-.226541-.133298-.585937-.830465-.585937-1.638672s.359396-1.505374.585937-1.638672c.184025-.10828.275179-.115802.44336-.08789zm7.097656 0c.168181-.02791.259335-.02039.44336.08789.226541.133298.585937.830465.585937 1.638672s-.359396 1.505374-.585937 1.638672c-.184025.10828-.275179.115802-.44336.08789-.16818-.02791-.416834-.132341-.714844-.339843-.402214-.28006-.917139-.861982-1.410156-1.386719.493017-.524737 1.007942-1.106659 1.410156-1.386719.29801-.207502.546664-.311932.714844-.339843z" fill="#5b909a"/></svg>