<svg height="48" width="48" xmlns="http://www.w3.org/2000/svg"><path d="m44.322082 27.405077a19.729762 19.729765 0 0 1 -19.729762 19.729765 19.729762 19.729765 0 0 1 -19.7297621-19.729765 19.729762 19.729765 0 0 1 19.7297621-19.7297632 19.729762 19.729765 0 0 1 19.729762 19.7297632z" fill="#7f8c98" opacity=".99" transform="matrix(1.1503549 0 0 1.1503549 -4.486125 -7.525565)"/><path d="m16.646718 34.659083c-.92812-.151408-1.679353-.766778-1.976553-1.61909-.183068-.524997-.198828-1.003397-.04797-1.456122.133266-.39993.338915-.733671 1.052683-1.708365.735416-1.004256 1.060754-1.491095 1.455239-2.177635 1.407946-2.450295 2.212524-5.525071 2.442367-9.333763.02452-.406448.0717-1.679188.06256-1.687838-.0027-.0026-.144278-.0178-.31454-.03379-.400631-.03765-1.336402-.03808-1.673969-.000787-1.301109.143749-2.234068.599747-2.927522 1.430863-.223119.267411-.384213.510377-.695032 1.048266-.236633.409504-.434417.716992-.476721.741131-.01786.01021-.784829-.04511-.796601-.05744-.0038-.004.07817-.218765.182145-.477314.103971-.258546.352074-.903483.551337-1.433191.632649-1.681821.848892-2.149741 1.241068-2.685498.556906-.760796 1.383629-1.214307 2.692016-1.476744 1.532742-.307435 3.71046-.412407 8.541824-.411741 2.287465.0742 4.604658-.01681 6.903735.0014 1.892943.133395 1.984029 1.167756 1.994226 2.593473-.06007 1.347045-1.423396.813425-2.636454.80628l-2.642331-.0156c-.0071 3.486134-.62122 7.000141-.687798 9.787611-.02308 1.340975.06722 2.203663.30605 2.923713.315254.950472.887699 1.502443 1.727157 1.665383.707196.137268 1.506969-.01664 2.0294-.390546.270009-.193246.567407-.549904.7284-.873543.151516-.304588.274508-.761829.315954-1.174611.01491-.148527.03088-.283184.03548-.299243.0064-.02253.101287-.02776.415903-.02293l.407546.0063-.0065.240775c-.02744 1.018073-.376749 2.31653-.901302 3.35032-.685967 1.351903-1.689169 2.257491-2.86437 2.58566-.827932.231196-1.933708.199904-2.765064-.07824-1.396595-.467261-2.330117-1.585482-2.645254-3.168616-.126684-.63641-.143093-1.135179-.08169-2.482741.114747-4.858233.911021-6.984192.997513-12.076462v-.0541h-2.429656-2.429652l-.01183.07452c-.442051 4.159187-.590187 8.554089-1.230202 12.675121-.467842 2.971159-1.127642 4.410418-2.291401 4.998363-.448743.22671-1.104235.339514-1.550168.266766z" fill="#fff" stroke-width=".098524"/></svg>