<svg height="48" width="48" xmlns="http://www.w3.org/2000/svg"><path d="m44.322082 27.405077a19.729762 19.729765 0 0 1 -19.729762 19.729765 19.729762 19.729765 0 0 1 -19.7297621-19.729765 19.729762 19.729765 0 0 1 19.7297621-19.7297632 19.729762 19.729765 0 0 1 19.729762 19.7297632z" fill="#619a4a" opacity=".99" transform="matrix(1.1503549 0 0 1.1503549 -4.486125 -7.525565)"/><path d="m29.503906 14.458985c.152513 2.440316-1.087682 4.664757-3.0625 5.277344-5.763705-3.37184-10.938119-5.602726-17.0761716 5.505859 8.6347656-13.841797 19.1347656 1.158203 29.5156246-.828125-1.615526.06613-3.147977-.215673-4.61914-.695313 1.069448-.923493 1.102995-2.272187 1.138672-3.61914-.572067 1.716199-1.417911 2.605138-2.275391 3.205078-.585998-.234715-1.156903-.507937-1.724609-.789063 1.622633-2.232305 1.57835-3.437892 1.298828-5.115234 0 2.827935-1.346418 3.633305-2.748047 4.361328-.732335-.404856-1.453337-.81807-2.16211-1.238281 1.754224-.846047 3.113875-2.951542 1.714844-6.064453zm-13.003906 8.941406c-2.011391 8.845682 13.900391 10.46875 13.5 2.099609-2.4 4.8-10 5.701172-13.5-2.099609z" fill="#fff"/></svg>