<?xml version="1.0" encoding="UTF-8" standalone="no"?>
<svg
   xmlns:dc="http://purl.org/dc/elements/1.1/"
   xmlns:cc="http://creativecommons.org/ns#"
   xmlns:rdf="http://www.w3.org/1999/02/22-rdf-syntax-ns#"
   xmlns:svg="http://www.w3.org/2000/svg"
   xmlns="http://www.w3.org/2000/svg"
   xmlns:sodipodi="http://sodipodi.sourceforge.net/DTD/sodipodi-0.dtd"
   xmlns:inkscape="http://www.inkscape.org/namespaces/inkscape"
   height="48"
   width="48"
   version="1.1"
   id="svg12"
   sodipodi:docname="minetime.svg"
   inkscape:version="0.92.4 5da689c313, 2019-01-14">
  <metadata
     id="metadata18">
    <rdf:RDF>
      <cc:Work
         rdf:about="">
        <dc:format>image/svg+xml</dc:format>
        <dc:type
           rdf:resource="http://purl.org/dc/dcmitype/StillImage" />
        <dc:title></dc:title>
      </cc:Work>
    </rdf:RDF>
  </metadata>
  <defs
     id="defs16" />
  <sodipodi:namedview
     pagecolor="#ffffff"
     bordercolor="#666666"
     borderopacity="1"
     objecttolerance="10"
     gridtolerance="10"
     guidetolerance="10"
     inkscape:pageopacity="0"
     inkscape:pageshadow="2"
     inkscape:window-width="1920"
     inkscape:window-height="1031"
     id="namedview14"
     showgrid="true"
     inkscape:zoom="0.5"
     inkscape:cx="20.550181"
     inkscape:cy="25.344733"
     inkscape:window-x="0"
     inkscape:window-y="26"
     inkscape:window-maximized="1"
     inkscape:current-layer="svg12">
    <inkscape:grid
       type="xygrid"
       id="grid828" />
  </sodipodi:namedview>
  <rect
     fill="#6271d1"
     height="43"
     ry="1.452703"
     width="43"
     x="2"
     y="3"
     id="rect2"
     style="fill:#6b77c8;fill-opacity:1" />
  <path
     style="fill:#ffffff;fill-opacity:1;stroke:none;stroke-width:1px;stroke-linecap:butt;stroke-linejoin:miter;stroke-opacity:1"
     d="M 9.2734375 6 L 6 12 L 4 12 L 4 44 L 43 44 L 43 12 L 23.273438 12 L 19.273438 6 L 9.2734375 6 z M 10.628906 7.3691406 C 10.954296 7.3691406 11.208407 7.4636178 11.390625 7.6523438 C 11.572843 7.8410696 11.664062 8.0984387 11.664062 8.4238281 C 11.664062 8.641839 11.612263 8.8418717 11.509766 9.0273438 C 11.408895 9.2128156 11.239487 9.4565011 11.001953 9.7558594 L 10.539062 10.419922 L 11.740234 10.419922 L 11.740234 10.972656 L 9.640625 10.972656 L 9.640625 10.501953 L 10.609375 9.2753906 C 10.737904 9.0931726 10.829449 8.9338647 10.884766 8.7988281 C 10.941709 8.6637915 10.970703 8.5403199 10.970703 8.4296875 C 10.970703 8.2783814 10.941384 8.1571891 10.882812 8.0644531 C 10.824243 7.9717171 10.739539 7.9257812 10.628906 7.9257812 C 10.51502 7.9257812 10.427058 7.9814907 10.365234 8.09375 C 10.305037 8.2060093 10.275391 8.3529383 10.275391 8.5351562 L 9.5996094 8.5351562 L 9.59375 8.5234375 C 9.5872422 8.201302 9.6784617 7.9279699 9.8671875 7.7050781 C 10.055913 7.4805594 10.310025 7.3691406 10.628906 7.3691406 z M 13.160156 7.3691406 C 13.477411 7.3691406 13.729243 7.4929384 13.917969 7.7402344 C 14.106695 7.9859034 14.201172 8.3445917 14.201172 8.8164062 L 14.201172 9.5800781 C 14.201172 10.05352 14.106695 10.412534 13.917969 10.658203 C 13.73087 10.902245 13.47969 11.025391 13.164062 11.025391 C 12.845182 11.025391 12.59107 10.902245 12.402344 10.658203 C 12.213618 10.412534 12.119141 10.05352 12.119141 9.5800781 L 12.119141 8.8164062 C 12.119141 8.3445916 12.213292 7.9859034 12.400391 7.7402344 C 12.589116 7.4929384 12.842902 7.3691406 13.160156 7.3691406 z M 18.105469 7.3691406 C 18.416216 7.3691406 18.670001 7.4939169 18.865234 7.7460938 C 19.060468 7.9966435 19.158203 8.3478376 19.158203 8.796875 L 19.158203 9.6660156 C 19.158203 10.082514 19.04711 10.412534 18.824219 10.658203 C 18.602954 10.902245 18.322454 11.025391 17.982422 11.025391 C 17.881551 11.025391 17.774369 11.012359 17.662109 10.986328 C 17.54985 10.960297 17.445599 10.921855 17.349609 10.873047 L 17.427734 10.355469 C 17.517216 10.394515 17.605178 10.423836 17.691406 10.443359 C 17.779261 10.461256 17.87667 10.470703 17.982422 10.470703 C 18.122339 10.470703 18.237016 10.402941 18.328125 10.269531 C 18.420861 10.136122 18.466797 9.9497725 18.466797 9.7089844 L 18.466797 9.5722656 C 18.401719 9.6666285 18.326136 9.738301 18.238281 9.7871094 C 18.152053 9.8359178 18.060507 9.8613281 17.962891 9.8613281 C 17.684683 9.8613281 17.466081 9.751214 17.306641 9.5332031 C 17.148827 9.3135653 17.068359 9.0161236 17.068359 8.6386719 C 17.068359 8.2823705 17.166094 7.9803702 17.361328 7.7363281 C 17.558189 7.4906591 17.806111 7.3691406 18.105469 7.3691406 z M 16.064453 7.4179688 L 16.064453 10.972656 L 15.371094 10.972656 L 15.371094 8.1445312 L 14.710938 8.1601562 L 14.710938 7.6582031 L 16.064453 7.4179688 z M 18.099609 7.9394531 C 18.000366 7.9329453 17.91892 8.0010337 17.855469 8.1425781 C 17.792018 8.2824956 17.759766 8.4483191 17.759766 8.6386719 C 17.759766 8.8518019 17.78876 9.0215356 17.845703 9.1484375 C 17.902646 9.2753394 17.984745 9.3378906 18.09375 9.3378906 C 18.175097 9.3378906 18.24677 9.3183436 18.308594 9.2792969 C 18.372045 9.2386232 18.424496 9.1835661 18.466797 9.1152344 L 18.466797 8.7109375 C 18.466797 8.4538799 18.434219 8.2587358 18.369141 8.1269531 C 18.304063 7.9951704 18.219033 7.9329453 18.113281 7.9394531 L 18.099609 7.9394531 z M 13.152344 7.9414062 C 13.043338 7.9332715 12.958961 7.9951704 12.900391 8.1269531 C 12.841821 8.2587358 12.8125 8.4675636 12.8125 8.7539062 L 12.8125 9.6367188 C 12.8125 9.9263153 12.8441 10.136122 12.904297 10.269531 C 12.964494 10.401314 13.049198 10.462887 13.158203 10.453125 L 13.171875 10.453125 C 13.279253 10.462887 13.361352 10.401314 13.419922 10.269531 C 13.478492 10.137749 13.507813 9.9279422 13.507812 9.6367188 L 13.507812 8.7539062 C 13.507812 8.4675637 13.478166 8.2587358 13.417969 8.1269531 C 13.357772 7.9951704 13.275347 7.9332716 13.167969 7.9414062 L 13.152344 7.9414062 z M 18 22 L 20 22 L 23 26 L 24 26 L 27 22 L 29 22 L 30 23 L 30 32 L 29 33 L 27 33 L 26 32 L 26 29 L 25 30 L 22 30 L 21 29 L 21 32 L 20 33 L 18 33 L 17 32 L 17 23 L 18 22 z "
     id="path843" />
  <path
     style="fill:#ffffff;fill-opacity:1;stroke:none;stroke-width:1px;stroke-linecap:butt;stroke-linejoin:miter;stroke-opacity:1"
     d="M 29 6 L 26.03125 11.048828 L 41.558594 11.048828 L 39 6 L 29 6 z M 30.253906 7.3691406 C 30.579296 7.3691406 30.833407 7.4636179 31.015625 7.6523438 C 31.197843 7.8410696 31.289062 8.0984387 31.289062 8.4238281 C 31.289062 8.641839 31.237263 8.8418718 31.134766 9.0273438 C 31.033895 9.2128157 30.864487 9.4565011 30.626953 9.7558594 L 30.164062 10.419922 L 31.365234 10.419922 L 31.365234 10.972656 L 29.265625 10.972656 L 29.265625 10.501953 L 30.234375 9.2753906 C 30.362904 9.0931726 30.454449 8.9338647 30.509766 8.7988281 C 30.566709 8.6637915 30.595703 8.5403199 30.595703 8.4296875 C 30.595703 8.2783814 30.566383 8.1571891 30.507812 8.0644531 C 30.449242 7.9717171 30.364539 7.9257812 30.253906 7.9257812 C 30.14002 7.9257812 30.052058 7.9814907 29.990234 8.09375 C 29.930037 8.2060093 29.900391 8.3529382 29.900391 8.5351562 L 29.224609 8.5351562 L 29.21875 8.5234375 C 29.212242 8.201302 29.303462 7.9279699 29.492188 7.7050781 C 29.680913 7.4805594 29.935025 7.3691406 30.253906 7.3691406 z M 32.785156 7.3691406 C 33.102411 7.3691406 33.354243 7.4929384 33.542969 7.7402344 C 33.731695 7.9859034 33.826172 8.3445916 33.826172 8.8164062 L 33.826172 9.5800781 C 33.826172 10.05352 33.731695 10.412534 33.542969 10.658203 C 33.35587 10.902245 33.10469 11.025391 32.789062 11.025391 C 32.470181 11.025391 32.21607 10.902245 32.027344 10.658203 C 31.838618 10.412534 31.744141 10.05352 31.744141 9.5800781 L 31.744141 8.8164062 C 31.744141 8.3445916 31.838292 7.9859034 32.025391 7.7402344 C 32.214116 7.4929384 32.467902 7.3691406 32.785156 7.3691406 z M 37.753906 7.3691406 C 38.046757 7.3691406 38.281973 7.4548229 38.460938 7.6289062 C 38.641529 7.8029896 38.732422 8.0473274 38.732422 8.3613281 C 38.732422 8.5402923 38.690722 8.699274 38.609375 8.8359375 C 38.529655 8.972601 38.421167 9.0778304 38.28125 9.1542969 C 38.440691 9.2356442 38.565141 9.3496685 38.65625 9.4960938 C 38.747359 9.642519 38.792969 9.8116003 38.792969 10.001953 C 38.792969 10.332223 38.698165 10.586008 38.507812 10.761719 C 38.31746 10.937429 38.066606 11.025391 37.755859 11.025391 C 37.445113 11.025391 37.193933 10.937429 37.001953 10.761719 C 36.809973 10.584382 36.712891 10.330596 36.712891 10.001953 C 36.712891 9.8116003 36.7585 9.642519 36.849609 9.4960938 C 36.940718 9.3480416 37.067448 9.2340173 37.228516 9.1542969 C 37.086971 9.0778304 36.976205 8.972601 36.896484 8.8359375 C 36.816764 8.699274 36.777344 8.5402923 36.777344 8.3613281 C 36.777344 8.0473274 36.865958 7.8029896 37.044922 7.6289062 C 37.223886 7.4548229 37.461056 7.3691406 37.753906 7.3691406 z M 35.689453 7.4179688 L 35.689453 10.972656 L 34.996094 10.972656 L 34.996094 8.1445312 L 34.335938 8.1601562 L 34.335938 7.6582031 L 35.689453 7.4179688 z M 37.753906 7.9257812 C 37.662797 7.9257812 37.594056 7.9658538 37.546875 8.0488281 C 37.499694 8.1318024 37.474609 8.2484322 37.474609 8.3964844 C 37.474609 8.5461635 37.499694 8.6637718 37.546875 8.75 C 37.595683 8.8346012 37.66475 8.8769531 37.755859 8.8769531 C 37.846968 8.8769531 37.915709 8.8346012 37.962891 8.75 C 38.010072 8.6653988 38.033203 8.5477904 38.033203 8.3964844 C 38.033203 8.2516861 38.009746 8.1373356 37.960938 8.0527344 C 37.913756 7.9681331 37.845015 7.9257812 37.753906 7.9257812 z M 32.777344 7.9414062 C 32.668338 7.9332715 32.583961 7.9951704 32.525391 8.1269531 C 32.466821 8.2587358 32.4375 8.4675636 32.4375 8.7539062 L 32.4375 9.6367188 C 32.4375 9.9263153 32.4691 10.136122 32.529297 10.269531 C 32.589494 10.401314 32.674198 10.462887 32.783203 10.453125 L 32.796875 10.453125 C 32.904253 10.462887 32.986352 10.401314 33.044922 10.269531 C 33.103492 10.137749 33.132812 9.9279423 33.132812 9.6367188 L 33.132812 8.7539062 C 33.132812 8.4675636 33.103166 8.2587358 33.042969 8.1269531 C 32.982772 7.9951704 32.900347 7.9332715 32.792969 7.9414062 L 32.777344 7.9414062 z M 37.753906 9.4316406 C 37.648155 9.4316406 37.563777 9.4779027 37.501953 9.5722656 C 37.440129 9.6650016 37.410156 9.7917311 37.410156 9.9511719 C 37.410156 10.113867 37.440129 10.241248 37.501953 10.333984 C 37.563777 10.425093 37.648481 10.470703 37.755859 10.470703 C 37.859984 10.470703 37.942082 10.425093 38.003906 10.333984 C 38.067357 10.241248 38.099609 10.113867 38.099609 9.9511719 C 38.099609 9.7917311 38.067357 9.6650016 38.003906 9.5722656 C 37.940455 9.4779027 37.858031 9.4316406 37.753906 9.4316406 z "
     id="path817" />
  <path
     style="fill:none;stroke:#6b77c8;stroke-width:0.5;stroke-linecap:butt;stroke-linejoin:miter;stroke-opacity:1;stroke-miterlimit:4;stroke-dasharray:none"
     d="m 6,18 h 4 v -5"
     id="path829"
     inkscape:connector-curvature="0" />
  <path
     style="fill:none;stroke:#6b77c8;stroke-width:0.5;stroke-linecap:butt;stroke-linejoin:miter;stroke-opacity:1;stroke-miterlimit:4;stroke-dasharray:none"
     d="m 10,18 h 5"
     id="path831"
     inkscape:connector-curvature="0" />
  <path
     style="fill:none;stroke:#6b77c8;stroke-width:0.5;stroke-linecap:butt;stroke-linejoin:miter;stroke-opacity:1;stroke-miterlimit:4;stroke-dasharray:none"
     d="M 15,13 V 33"
     id="path833"
     inkscape:connector-curvature="0"
     sodipodi:nodetypes="cc" />
  <path
     style="fill:none;stroke:#6b77c8;stroke-width:0.5;stroke-linecap:butt;stroke-linejoin:miter;stroke-opacity:1;stroke-miterlimit:4;stroke-dasharray:none"
     d="M 6,23 H 20"
     id="path835"
     inkscape:connector-curvature="0" />
  <path
     style="fill:none;stroke:#6b77c8;stroke-width:0.5;stroke-linecap:butt;stroke-linejoin:miter;stroke-miterlimit:4;stroke-dasharray:none;stroke-opacity:1"
     d="M 10,13 V 33"
     id="path837"
     inkscape:connector-curvature="0"
     sodipodi:nodetypes="cc" />
  <path
     style="fill:none;stroke:#6b77c8;stroke-width:0.5;stroke-linecap:butt;stroke-linejoin:miter;stroke-opacity:1;stroke-miterlimit:4;stroke-dasharray:none"
     d="m 6,28 h 9"
     id="path839"
     inkscape:connector-curvature="0" />
  <path
     inkscape:connector-curvature="0"
     id="path841"
     d="M 28,38 H 42"
     style="fill:none;stroke:#6b77c8;stroke-width:0.5;stroke-linecap:butt;stroke-linejoin:miter;stroke-miterlimit:4;stroke-dasharray:none;stroke-opacity:1" />
  <path
     sodipodi:nodetypes="cc"
     inkscape:connector-curvature="0"
     id="path844"
     d="M 38,24 V 44"
     style="fill:none;stroke:#6b77c8;stroke-width:0.5;stroke-linecap:butt;stroke-linejoin:miter;stroke-miterlimit:4;stroke-dasharray:none;stroke-opacity:1" />
</svg>
