<?xml version="1.0" encoding="UTF-8" standalone="no"?>
<svg
   xmlns:dc="http://purl.org/dc/elements/1.1/"
   xmlns:cc="http://creativecommons.org/ns#"
   xmlns:rdf="http://www.w3.org/1999/02/22-rdf-syntax-ns#"
   xmlns:svg="http://www.w3.org/2000/svg"
   xmlns="http://www.w3.org/2000/svg"
   xmlns:sodipodi="http://sodipodi.sourceforge.net/DTD/sodipodi-0.dtd"
   xmlns:inkscape="http://www.inkscape.org/namespaces/inkscape"
   height="48"
   width="48"
   version="1.1"
   id="svg18"
   sodipodi:docname="mirage.svg"
   inkscape:version="0.92.4 5da689c313, 2019-01-14">
  <metadata
     id="metadata24">
    <rdf:RDF>
      <cc:Work
         rdf:about="">
        <dc:format>image/svg+xml</dc:format>
        <dc:type
           rdf:resource="http://purl.org/dc/dcmitype/StillImage" />
      </cc:Work>
    </rdf:RDF>
  </metadata>
  <defs
     id="defs22" />
  <sodipodi:namedview
     pagecolor="#ffffff"
     bordercolor="#666666"
     borderopacity="1"
     objecttolerance="10"
     gridtolerance="10"
     guidetolerance="10"
     inkscape:pageopacity="0"
     inkscape:pageshadow="2"
     inkscape:window-width="774"
     inkscape:window-height="480"
     id="namedview20"
     showgrid="false"
     inkscape:zoom="4.9166667"
     inkscape:cx="24"
     inkscape:cy="24"
     inkscape:window-x="0"
     inkscape:window-y="26"
     inkscape:window-maximized="0"
     inkscape:current-layer="svg18" />
  <rect
     fill="#5f636c"
     height="43"
     ry="1.452703"
     width="43"
     x="2"
     y="3"
     id="rect2" />
  <path
     d="m5 6h37v33h-37z"
     fill="#f4efd7"
     fill-rule="evenodd"
     id="path4" />
  <path
     d="m3.453125 3c-.8047974 0-1.453125.6483276-1.453125 1.453125v40.09375c0 .804797.6483276 1.453125 1.453125 1.453125h40.09375c.804797 0 1.453125-.648328 1.453125-1.453125v-40.09375c0-.8047974-.648328-1.453125-1.453125-1.453125zm1.546875 3h37v33h-37z"
     fill="#555962"
     id="path6" />
  <path
     d="m5 31h37v8h-37z"
     fill="#7ee4df"
     id="path8" />
  <circle
     cx="22.611168"
     cy="23.368526"
     fill="#f4ac87"
     r="9.5"
     id="circle10" />
  <path
     d="m7 33c4.542421-5.009983 5.580057-12.887081 32 0z"
     fill="#e9d280"
     id="path12"
     style="fill:#ffffff" />
  <path
     d="m26 31-1-14h3v14z"
     fill="#887850"
     id="path14" />
  <path
     d="m18 20c4-12 14-10 18 0l-6-4 2 4-6-2-2 2-2-2z"
     fill="#57c52b"
     id="path16"
     style="fill:#ffffff" />
</svg>
