<svg height="48" width="48" xmlns="http://www.w3.org/2000/svg"><path d="m44.322082 27.405077a19.729762 19.729765 0 0 1 -19.729762 19.729765 19.729762 19.729765 0 0 1 -19.7297621-19.729765 19.729762 19.729765 0 0 1 19.7297621-19.7297632 19.729762 19.729765 0 0 1 19.729762 19.7297632z" fill="#61b586" opacity=".99" transform="matrix(1.1503549 0 0 1.1503549 -4.486125 -7.525565)"/><path d="m16.779297 11.707031c-.431579.001486-.820435.017808-1.154297.052735-1.156019.117792-2.338965.401132-2.712891.636718-.09999.08081.642.26246 1.919922.498047 1.15054.213671 1.99046.40209 1.867188.433594-.139709.02192-1.939149-.178224-4.029297-.445313-3.6598141-.471173-3.793457-.48168-4.060547-.246093-.535549.482132-1.2934551 1.794609-1.4550781 2.5-.149296.680736-.1410484.760848.1972656 1.451172.578009 1.182043 1.6605707 2.044419 4.1054685 3.28125 1.156019.601294 2.075842 1.093877 2.042969 1.130859-.03698.0315-1.026382-.337192-2.193359-.826172l-2.134766-.882812-3.1308594.876953c-1.6884602.470289-3.0863218.84878-3.1992187.861328a21.196228 21.196231 0 0 0 -.234375 2.970703 21.196228 21.196231 0 0 0 5.2089843 13.876953c2.003459-2.438072 4.5504248-5.457732 4.6406248-5.4375.08081.02192 3.14878 1.320757 6.808594 2.894531 6.258117 2.687334 6.676065 2.845721 6.841797 2.621094.257502-.347902 1.13782-2.187909 1.603516-3.353516l.396484-.99414-.664063-.363281c-.945087-.513634-2.330251-1.665964-3.197265-2.65625-.791681-.903996-2.220703-3.081278-2.220703-3.386719 0-.102726.455623.358554 1.011718 1.021484 1.557338 1.853192 5.144511 4.765793 5.369141 4.353516.26709-.491719.444553-1.939114.433594-3.621094-.01095-2.050427-.277616-3.646564-.984375-5.847656l-.396485-1.234375-1.947265-.611328c-1.075207-.342422-2.151512-.673094-2.392578-.753907-.8451-.268459-.312015-.25344.917968.027344 1.476527.331466 2.978387.602909 3.904297.720703.824555.101357.999647-.058896 1.085938-.96289.112314-1.162872-.632399-4.373263-1.392578-5.964844-.299962-.636906-.437565-.779379-1.042969-1.054687-1.754573-.819761-6.791445-1.576808-9.8125-1.566407z" fill="#fff" stroke-width="1.369691"/></svg>