<svg height="48" width="48" xmlns="http://www.w3.org/2000/svg"><rect fill="#c4a063" height="43" ry="1.452703" width="43" x="2" y="3"/><path d="m23.5 3h20.047297c.804798 0 1.452703.6479055 1.452703 1.4527029v20.0472971h-21.5z" fill="#6dc891"/><path d="m45 24.5v20.047297c0 .804798-.647905 1.452703-1.452703 1.452703h-40.0945941c-.8047974 0-1.4527029-.647905-1.4527029-1.452703v-20.047297z" fill="#7cc463"/><path d="m45 24.5v20.047297c0 .804798-.647905 1.452703-1.452703 1.452703h-20.047297v-21.5z" fill="#70a0c9"/><path d="m9 10v29h29v-29zm23.025391 5.152344c.895645 0 1.623815.271898 2.183593.814453.559778.538249.831677 1.218573.814454 2.041015l-.013672.039063h-1.783204c0-.430599-.106965-.779904-.322265-1.046875-.215299-.266971-.518312-.400391-.910156-.400391-.366009 0-.652688.112027-.859375.335938-.202382.219605-.304688.496164-.304688.832031 0 .310031.115533.567149.34375.769531.228217.198076.623415.418622 1.1875.664063.891339.301419 1.561943.685344 2.009766 1.15039.452128.460741.677734 1.085051.677734 1.873047 0 .813832-.271899 1.451369-.814453 1.91211-.542555.46074-1.264111.691406-2.164063.691406-.895645 0-1.671262-.260226-2.330078-.78125-.65451-.525331-.972702-1.276447-.951172-2.253906l.013672-.039063h1.789063c0 .581309.123699.9979.369141 1.251953.245439.254054.614186.38086 1.109374.38086.387539 0 .674217-.101906.859376-.308594.189464-.206687.285156-.486753.285156-.839844 0-.366009-.095692-.654241-.285156-.865234-.189465-.215299-.522036-.426125-1-.632813-.97746-.340172-1.712242-.725651-2.203126-1.15625-.486576-.434905-.730468-1.042882-.730468-1.822265 0-.770772.285125-1.396636.853515-1.878907.568391-.486575 1.293054-.730468 2.175782-.730468zm-20.074219.134765h2.382812l1.685547 6.90625h.039063l1.705078-6.90625h2.396484v9.404297h-1.828125v-2.730468l.15625-3.65625-.039062-.007813-1.794922 6.394531h-1.220703l-1.777344-6.341797-.039062.00586.162109 3.605469v2.730468h-1.828125zm9.591797 0h3.267578c.938705 0 1.680101.278513 2.222656.833985.542554.555472.814453 1.283642.814453 2.183594 0 .904257-.273452 1.63398-.820312 2.189453-.542555.551166-1.282398.826172-2.216797.826171h-1.427735v3.371094h-1.839843zm1.839843 1.472657v3.08789h1.427735c.391845 0 .69175-.143139.898437-.43164.206688-.288502.310547-.656093.310547-1.09961 0-.447822-.103859-.816567-.310547-1.109375-.202381-.297112-.502286-.447265-.898437-.447265zm-11.382812 14.240234h12v2h-12z" fill="#fff"/></svg>