<?xml version="1.0" encoding="UTF-8" standalone="no"?>
<svg
   xmlns:dc="http://purl.org/dc/elements/1.1/"
   xmlns:cc="http://creativecommons.org/ns#"
   xmlns:rdf="http://www.w3.org/1999/02/22-rdf-syntax-ns#"
   xmlns:svg="http://www.w3.org/2000/svg"
   xmlns="http://www.w3.org/2000/svg"
   xmlns:xlink="http://www.w3.org/1999/xlink"
   xmlns:sodipodi="http://sodipodi.sourceforge.net/DTD/sodipodi-0.dtd"
   xmlns:inkscape="http://www.inkscape.org/namespaces/inkscape"
   version="1.1"
   preserveAspectRatio="xMidYMid meet"
   viewBox="0 0 640 640"
   width="64"
   height="64"
   id="svg125"
   sodipodi:docname="mumble.svg"
   inkscape:version="0.92.1 r15371">
  <metadata
     id="metadata129">
    <rdf:RDF>
      <cc:Work
         rdf:about="">
        <dc:format>image/svg+xml</dc:format>
        <dc:type
           rdf:resource="http://purl.org/dc/dcmitype/StillImage" />
        <dc:title></dc:title>
      </cc:Work>
    </rdf:RDF>
  </metadata>
  <sodipodi:namedview
     pagecolor="#ffffff"
     bordercolor="#666666"
     borderopacity="1"
     objecttolerance="10"
     gridtolerance="10"
     guidetolerance="10"
     inkscape:pageopacity="0"
     inkscape:pageshadow="2"
     inkscape:window-width="1920"
     inkscape:window-height="1040"
     id="namedview127"
     showgrid="false"
     inkscape:zoom="10.429825"
     inkscape:cx="32"
     inkscape:cy="32"
     inkscape:window-x="0"
     inkscape:window-y="0"
     inkscape:window-maximized="1"
     inkscape:current-layer="svg125" />
  <defs
     id="defs15">
    <path
       d="M303.91 543.21C303.91 543.21 303.91 543.21 303.91 543.21C163.07 543.21 48.9 427.9 48.9 285.66C48.9 285.66 48.9 285.66 48.9 285.66C48.9 143.41 163.07 28.1 303.91 28.1C303.91 28.1 303.91 28.1 303.91 28.1C444.75 28.1 558.93 143.41 558.93 285.66C558.93 285.66 558.93 285.66 558.93 285.66C558.93 427.9 444.75 543.21 303.91 543.21Z"
       id="fhuja3WdJ" />
    <path
       d="M322.77 588.76C322.77 588.76 322.77 588.76 322.77 588.76C165.94 588.76 38.8 460.99 38.8 303.37C38.8 303.37 38.8 303.37 38.8 303.37C38.8 145.76 165.94 17.98 322.77 17.98C322.77 17.98 322.77 17.98 322.77 17.98C479.6 17.98 606.73 145.76 606.73 303.37C606.73 303.37 606.73 303.37 606.73 303.37C606.73 460.99 479.6 588.76 322.77 588.76Z"
       id="bmKUGbFll" />
    <path
       d="M442.19 460.57C442.19 460.57 440.7 464.95 435.58 468.81C431.08 472.2 426.81 475.45 422.24 478.49C418.13 481.23 413.72 484.18 409.59 486.19C406.34 487.78 403.69 488.01 403.69 488.01C399.06 488.01 362.06 488.01 357.44 488.01C354.55 488.01 352.18 490.31 352.18 493.18C352.18 493.31 352.18 494.33 352.18 494.45C352.18 497.32 354.55 499.68 357.44 499.68C362.3 499.68 401.21 499.68 406.07 499.68C407.19 499.68 411.23 498.48 413.64 497.42C419.63 494.75 423.54 491.36 430.45 487.21C437.79 482.45 451.36 471.39 451.36 471.39C453.77 469.81 454.42 466.61 452.83 464.22C452.76 464.11 452.21 463.24 452.14 463.13C451.15 461.63 449.52 460.83 447.84 460.81C446.84 460.8 443.09 459.98 442.19 460.57Z"
       id="aBKJgZUde" />
    <path
       d="M177.98 124.35C175.9 132.96 175.05 141.11 174.9 149.42C174.9 180.23 174.9 211.04 174.9 241.85C186.86 241.85 198.82 241.85 210.78 241.85C210.91 209.33 210.6 176.99 211.03 144.41C212.13 123.71 227.93 101.9 249.85 102.15C250.01 135.09 249.53 168.04 250.11 200.96C251.98 227.73 277.04 249.89 303.57 247.62C320.14 247.21 336.84 248.59 353.3 246.56C378.37 241.81 395.72 215.96 393.39 190.7C393.39 161.23 393.39 131.76 393.39 102.29C416.2 100.6 433.49 123.01 434.5 144.54C434.93 177.12 434.62 209.47 434.75 241.99C446.71 241.99 458.67 241.99 470.63 241.99C470.63 209.3 470.63 176.61 470.63 143.92C469.46 133.35 467.8 120.41 462.14 110.22C447.46 80.07 413.12 63.8 380.73 66.25C371.27 65.04 361.09 71.51 358.5 80.59C358.66 119.43 358.77 158.29 358.48 197.13C357.4 213.4 341.56 225.85 325.75 223.78C314.56 224.27 301.93 223.8 294.3 214.07C284.02 203.07 287.46 187.33 286.86 173.67C286.89 142.11 286.76 110.59 287.04 79.09C282.36 69.51 271.96 64.57 261.66 66.14C261.55 66.14 260.98 66.13 259.96 66.12L258.15 66.06L258.15 66.06C210.67 81.27 183.94 100.7 177.98 124.35Z"
       id="b2g1TOBRZK" />
    <path
       d="M449.2 470.65C497.22 465.32 534.97 412.28 534.97 347.61C534.97 282.95 497.22 229.91 449.2 224.58C449.2 273.79 449.2 446.04 449.2 470.65Z"
       id="n1NSkt8v3" />
    <path
       d="M195.23 471.6C147.21 466.26 109.47 413.22 109.47 348.56C109.47 283.9 147.21 230.86 195.23 225.52C195.23 274.74 195.23 446.99 195.23 471.6Z"
       id="aYHwvVDej" />
    <path
       d="M319.45 519.96C297.65 519.96 279.98 509.56 279.98 496.72C279.98 483.88 297.65 473.47 319.45 473.47C341.25 473.47 358.93 483.88 358.93 496.72C358.93 509.56 341.25 519.96 319.45 519.96Z"
       id="c6lkBf4WQX" />
    <path
       d="M448.15 220.84C451.85 220.84 453.7 222.55 453.7 225.98C453.7 369.7 453.7 449.54 453.7 465.51C453.7 468.94 451.85 470.65 448.15 470.65C443.4 470.65 440.76 470.65 440.23 470.65C436.54 470.65 434.69 468.94 434.69 465.51C434.69 321.79 434.69 241.95 434.69 225.98C434.69 222.55 436.54 220.84 440.23 220.84C444.98 220.84 447.62 220.84 448.15 220.84Z"
       id="aqNUEkB8F" />
    <path
       d="M205.06 221.77C208.68 221.77 210.49 223.48 210.49 226.91C210.49 370.64 210.49 450.48 210.49 466.45C210.49 469.88 208.68 471.6 205.06 471.6C200.4 471.6 197.81 471.6 197.3 471.6C193.67 471.6 191.86 469.88 191.86 466.45C191.86 322.73 191.86 242.88 191.86 226.91C191.86 223.48 193.67 221.77 197.3 221.77C201.95 221.77 204.54 221.77 205.06 221.77Z"
       id="cGEbfHDOG" />
    <path
       d="M419.03 270.21C419.03 270.21 419.03 270.21 419.03 270.21C419.03 363.09 419.03 414.7 419.03 425.02C419.03 425.02 419.03 425.02 419.03 425.02C303.51 425.02 239.34 425.02 226.5 425.02C226.5 425.02 226.5 425.02 226.5 425.02C226.5 332.13 226.5 280.53 226.5 270.21C226.5 270.21 226.5 270.21 226.5 270.21C342.02 270.21 406.19 270.21 419.03 270.21Z"
       id="aVs5Q1345" />
    <path
       d="M266.07 287.14L268.22 287.62L270.22 288.29L272.08 289.12L273.8 290.11L275.38 291.25L276.84 292.52L278.16 293.92L279.36 295.44L280.43 297.06L281.39 298.78L282.23 300.59L282.96 302.48L283.58 304.43L284.09 306.44L284.5 308.49L284.82 310.59L285.03 312.71L285.16 314.84L285.19 316.98L285.14 319.12L285.01 321.25L284.79 323.35L284.51 325.41L284.15 327.44L283.72 329.41L283.22 331.31L282.66 333.14L282.05 334.89L281.37 336.55L280.65 338.1L279.87 339.53L279.05 340.84L278.19 342.02L277.29 343.05L276.35 343.93L275.38 344.65L274.38 345.19L273.35 345.54L274.9 345.66L276.37 346.01L277.78 346.59L279.11 347.37L280.37 348.34L281.56 349.51L282.67 350.84L283.7 352.34L284.65 353.99L285.52 355.78L286.31 357.69L287.02 359.72L287.64 361.85L288.18 364.07L288.63 366.37L288.99 368.74L289.26 371.17L289.44 373.64L289.53 376.14L289.52 378.66L289.41 381.19L289.21 383.72L288.91 386.24L288.51 388.73L288.01 391.18L287.4 393.58L286.69 395.92L285.88 398.19L284.96 400.37L283.92 402.45L282.78 404.43L281.53 406.29L280.17 408.01L278.69 409.6L277.09 411.02L275.38 412.28L273.55 413.36L271.6 414.25L269.53 414.94L267.34 415.41L234.26 415.41L234.26 286.74L261.32 286.74L263.77 286.84L266.07 287.14ZM251.1 391.89L261.32 391.89L262.33 391.83L263.31 391.64L264.26 391.32L265.18 390.9L266.07 390.36L266.91 389.72L267.7 388.98L268.45 388.15L269.15 387.23L269.79 386.23L270.36 385.16L270.88 384.01L271.32 382.8L271.7 381.53L271.99 380.21L272.21 378.84L272.34 377.43L272.39 375.98L272.34 374.53L272.21 373.12L271.99 371.75L271.7 370.43L271.32 369.16L270.88 367.95L270.36 366.8L269.79 365.73L269.15 364.73L268.45 363.81L267.7 362.98L266.91 362.24L266.07 361.6L265.18 361.06L264.26 360.64L263.31 360.33L262.33 360.13L261.32 360.07L251.1 360.07L251.1 391.89ZM251.1 337.93L258.31 337.93L259.34 337.85L260.33 337.62L261.28 337.24L262.19 336.73L263.05 336.09L263.86 335.33L264.6 334.45L265.28 333.48L265.89 332.41L266.42 331.25L266.86 330.01L267.22 328.7L267.48 327.33L267.64 325.91L267.7 324.44L267.64 322.97L267.48 321.55L267.22 320.18L266.86 318.87L266.42 317.63L265.89 316.47L265.28 315.4L264.6 314.42L263.86 313.55L263.05 312.79L262.19 312.15L261.28 311.64L260.33 311.26L259.34 311.03L258.31 310.95L251.1 310.95L251.1 337.93Z"
       id="bH89oKxOj" />
    <path
       d="M303.57 416.45L322.88 416.45L322.96 416.45L352.18 416.45L352.18 389.82L322.96 389.82L322.96 285.66L303.57 285.66L303.57 416.45Z"
       id="b1fNoy4oYg" />
    <path
       d="M362.3 416.47L381.69 416.47L410.91 416.47L410.91 389.84L381.69 389.84L381.69 359.01L408.56 359.01L408.56 333.2L381.69 333.2L381.69 312.31L410.91 312.31L410.91 285.68L381.69 285.68L381.61 285.68L362.3 285.68L362.3 416.47Z"
       id="a3CT4lgKbh" />
  </defs>
  <g
     id="g23">
    <use
       xlink:href="#fhuja3WdJ"
       id="use17"
       style="opacity:1;fill:#ffffff;fill-opacity:1"
       x="0"
       y="0"
       width="100%"
       height="100%" />
    <g
       id="g21">
      <use
         xlink:href="#fhuja3WdJ"
         id="use19"
         style="opacity:1;fill-opacity:0;stroke:#000000;stroke-width:1;stroke-opacity:0"
         x="0"
         y="0"
         width="100%"
         height="100%" />
    </g>
  </g>
  <g
     id="g31"
     style="fill:#a9b4bd;fill-opacity:1">
    <use
       xlink:href="#bmKUGbFll"
       id="use25"
       style="opacity:1;fill:#a9b4bd;fill-opacity:1"
       x="0"
       y="0"
       width="100%"
       height="100%" />
    <g
       id="g29"
       style="fill:#a9b4bd;fill-opacity:1">
      <use
         xlink:href="#bmKUGbFll"
         id="use27"
         style="opacity:1;fill-opacity:1;stroke:#333333;stroke-width:0;stroke-opacity:1;fill:#a9b4bd"
         x="0"
         y="0"
         width="100%"
         height="100%" />
    </g>
  </g>
  <g
     id="g39"
     style="fill:#ffffff">
    <use
       xlink:href="#aBKJgZUde"
       id="use33"
       style="opacity:1;fill:#ffffff;fill-opacity:1"
       x="0"
       y="0"
       width="100%"
       height="100%" />
    <g
       id="g37"
       style="fill:#ffffff">
      <use
         xlink:href="#aBKJgZUde"
         id="use35"
         style="opacity:1;fill-opacity:0;stroke:#ffffff;stroke-width:0;stroke-opacity:1;fill:#ffffff"
         x="0"
         y="0"
         width="100%"
         height="100%" />
    </g>
  </g>
  <g
     id="g47"
     style="fill:#ffffff">
    <use
       xlink:href="#b2g1TOBRZK"
       id="use41"
       style="opacity:1;fill:#ffffff;fill-opacity:1"
       x="0"
       y="0"
       width="100%"
       height="100%" />
    <g
       id="g45"
       style="fill:#ffffff">
      <use
         xlink:href="#b2g1TOBRZK"
         id="use43"
         style="opacity:1;fill-opacity:0;stroke:#ffffff;stroke-width:0;stroke-opacity:1;fill:#ffffff"
         x="0"
         y="0"
         width="100%"
         height="100%" />
    </g>
  </g>
  <g
     id="g55"
     style="fill:#ffffff">
    <use
       xlink:href="#n1NSkt8v3"
       id="use49"
       style="opacity:1;fill:#ffffff;fill-opacity:1"
       x="0"
       y="0"
       width="100%"
       height="100%" />
    <g
       id="g53"
       style="fill:#ffffff">
      <use
         xlink:href="#n1NSkt8v3"
         id="use51"
         style="opacity:1;fill-opacity:0;stroke:#ffffff;stroke-width:0;stroke-opacity:1;fill:#ffffff"
         x="0"
         y="0"
         width="100%"
         height="100%" />
    </g>
  </g>
  <g
     id="g63"
     style="fill:#ffffff">
    <use
       xlink:href="#aYHwvVDej"
       id="use57"
       style="opacity:1;fill:#ffffff;fill-opacity:1"
       x="0"
       y="0"
       width="100%"
       height="100%" />
    <g
       id="g61"
       style="fill:#ffffff">
      <use
         xlink:href="#aYHwvVDej"
         id="use59"
         style="opacity:1;fill-opacity:0;stroke:#ffffff;stroke-width:0;stroke-opacity:1;fill:#ffffff"
         x="0"
         y="0"
         width="100%"
         height="100%" />
    </g>
  </g>
  <g
     id="g71"
     style="fill:#ffffff">
    <use
       xlink:href="#c6lkBf4WQX"
       id="use65"
       style="opacity:1;fill:#ffffff;fill-opacity:1"
       x="0"
       y="0"
       width="100%"
       height="100%" />
    <g
       id="g69"
       style="fill:#ffffff">
      <use
         xlink:href="#c6lkBf4WQX"
         id="use67"
         style="opacity:1;fill-opacity:0;stroke:#ffffff;stroke-width:0;stroke-opacity:1;fill:#ffffff"
         x="0"
         y="0"
         width="100%"
         height="100%" />
    </g>
  </g>
  <g
     id="g79"
     style="fill:#ffffff">
    <use
       xlink:href="#aqNUEkB8F"
       id="use73"
       style="opacity:1;fill:#ffffff;fill-opacity:1"
       x="0"
       y="0"
       width="100%"
       height="100%" />
    <g
       id="g77"
       style="fill:#ffffff">
      <use
         xlink:href="#aqNUEkB8F"
         id="use75"
         style="opacity:1;fill-opacity:0;stroke:#ffffff;stroke-width:0;stroke-opacity:1;fill:#ffffff"
         x="0"
         y="0"
         width="100%"
         height="100%" />
    </g>
  </g>
  <g
     id="g87"
     style="fill:#ffffff">
    <use
       xlink:href="#cGEbfHDOG"
       id="use81"
       style="opacity:1;fill:#ffffff;fill-opacity:1"
       x="0"
       y="0"
       width="100%"
       height="100%" />
    <g
       id="g85"
       style="fill:#ffffff">
      <use
         xlink:href="#cGEbfHDOG"
         id="use83"
         style="opacity:1;fill-opacity:0;stroke:#ffffff;stroke-width:0;stroke-opacity:1;fill:#ffffff"
         x="0"
         y="0"
         width="100%"
         height="100%" />
    </g>
  </g>
  <g
     id="g95"
     style="fill:#ffffff">
    <use
       xlink:href="#aVs5Q1345"
       id="use89"
       style="opacity:1;fill:#ffffff;fill-opacity:1"
       x="0"
       y="0"
       width="100%"
       height="100%" />
    <g
       id="g93"
       style="fill:#ffffff">
      <use
         xlink:href="#aVs5Q1345"
         id="use91"
         style="opacity:1;fill-opacity:0;stroke:#000000;stroke-width:1;stroke-opacity:0;fill:#ffffff"
         x="0"
         y="0"
         width="100%"
         height="100%" />
    </g>
  </g>
  <g
     id="g103"
     style="fill:#a9b4bd;fill-opacity:1">
    <use
       xlink:href="#bH89oKxOj"
       id="use97"
       style="opacity:1;fill:#a9b4bd;fill-opacity:1"
       x="0"
       y="0"
       width="100%"
       height="100%" />
    <g
       id="g101"
       style="fill:#a9b4bd;fill-opacity:1">
      <use
         xlink:href="#bH89oKxOj"
         id="use99"
         style="opacity:1;fill-opacity:1;stroke:#000000;stroke-width:1;stroke-opacity:0;fill:#a9b4bd"
         x="0"
         y="0"
         width="100%"
         height="100%" />
    </g>
  </g>
  <g
     id="g111"
     style="fill:#a9b4bd;fill-opacity:1">
    <use
       xlink:href="#b1fNoy4oYg"
       id="use105"
       style="opacity:1;fill:#a9b4bd;fill-opacity:1"
       x="0"
       y="0"
       width="100%"
       height="100%" />
    <g
       id="g109"
       style="fill:#a9b4bd;fill-opacity:1">
      <use
         xlink:href="#b1fNoy4oYg"
         id="use107"
         style="opacity:1;fill-opacity:1;stroke:#000000;stroke-width:1;stroke-opacity:0;fill:#a9b4bd"
         x="0"
         y="0"
         width="100%"
         height="100%" />
    </g>
  </g>
  <g
     id="g119"
     style="fill:#a9b4bd;fill-opacity:1">
    <use
       xlink:href="#a3CT4lgKbh"
       id="use113"
       style="opacity:1;fill:#a9b4bd;fill-opacity:1"
       x="0"
       y="0"
       width="100%"
       height="100%" />
    <g
       id="g117"
       style="fill:#a9b4bd;fill-opacity:1">
      <use
         xlink:href="#a3CT4lgKbh"
         id="use115"
         style="opacity:1;fill-opacity:1;stroke:#000000;stroke-width:1;stroke-opacity:0;fill:#a9b4bd"
         x="0"
         y="0"
         width="100%"
         height="100%" />
    </g>
  </g>
</svg>
