<?xml version="1.0" encoding="UTF-8" standalone="no"?>
<svg
   xmlns:dc="http://purl.org/dc/elements/1.1/"
   xmlns:cc="http://creativecommons.org/ns#"
   xmlns:rdf="http://www.w3.org/1999/02/22-rdf-syntax-ns#"
   xmlns:svg="http://www.w3.org/2000/svg"
   xmlns="http://www.w3.org/2000/svg"
   xmlns:sodipodi="http://sodipodi.sourceforge.net/DTD/sodipodi-0.dtd"
   xmlns:inkscape="http://www.inkscape.org/namespaces/inkscape"
   height="48"
   width="48"
   version="1.1"
   id="svg15"
   sodipodi:docname="mx-tweak.svg"
   inkscape:version="0.92.1 r15371">
  <metadata
     id="metadata21">
    <rdf:RDF>
      <cc:Work
         rdf:about="">
        <dc:format>image/svg+xml</dc:format>
        <dc:type
           rdf:resource="http://purl.org/dc/dcmitype/StillImage" />
        <dc:title></dc:title>
      </cc:Work>
    </rdf:RDF>
  </metadata>
  <defs
     id="defs19" />
  <sodipodi:namedview
     pagecolor="#ffffff"
     bordercolor="#666666"
     borderopacity="1"
     objecttolerance="10"
     gridtolerance="10"
     guidetolerance="10"
     inkscape:pageopacity="0"
     inkscape:pageshadow="2"
     inkscape:window-width="1920"
     inkscape:window-height="1025"
     id="namedview17"
     showgrid="true"
     inkscape:zoom="19.666667"
     inkscape:cx="26.502118"
     inkscape:cy="21.421698"
     inkscape:window-x="0"
     inkscape:window-y="29"
     inkscape:window-maximized="1"
     inkscape:current-layer="svg15">
    <inkscape:grid
       type="xygrid"
       id="grid4500" />
  </sodipodi:namedview>
  <clipPath
     id="a">
    <rect
       height="43"
       ry="1.452703"
       width="43"
       x="2"
       y="3"
       id="rect2" />
  </clipPath>
  <rect
     fill="#f16e5d"
     height="43"
     ry="1.452703"
     width="43"
     x="2"
     y="3"
     id="rect5"
     style="fill:#f1bb5d;fill-opacity:1" />
  <g
     clip-path="url(#a)"
     fill-rule="evenodd"
     id="g13">
    <path
       d="m16 32 29-29v43h-19z"
       fill="#79b0de"
       id="path7"
       style="fill:#5f9ed2;fill-opacity:1" />
    <path
       d="m23 3 22 21v-21z"
       fill="#e1bc3d"
       id="path9"
       style="fill:#af75cf;fill-opacity:1" />
    <path
       d="m2 46 14-14 10 14"
       fill="#79de90"
       id="path11"
       style="fill:#de797b;fill-opacity:1" />
  </g>
  <g
     style="fill:#ffffff"
     id="g10"
     transform="translate(-0.30377111,0.4999991)">
    <path
       d="M 22 10 C 21.446 10 21.04093 10.447514 21 11 L 20.828125 13.330078 C 18.662767 13.848437 16.694447 14.984241 15.162109 16.599609 L 13.058594 15.583984 C 12.578816 15.306984 11.970358 15.471393 11.693359 15.951172 L 10.193359 18.548828 C 9.9163598 19.028607 10.100589 19.604327 10.558594 19.916016 L 12.482422 21.224609 C 12.164475 22.287423 12.001985 23.390649 12 24.5 C 12.0028 25.608791 12.165954 26.711348 12.484375 27.773438 L 10.558594 29.083984 C 10.078815 29.360984 9.9163598 29.971394 10.193359 30.451172 L 11.693359 33.048828 C 11.970359 33.528607 12.559662 33.656813 13.058594 33.416016 L 15.15625 32.404297 C 16.69043 34.019924 18.660889 35.155109 20.828125 35.671875 L 21 38 C 21 38.554 21.446 39 22 39 L 25 39 C 25.554 39 25.95907 38.552486 26 38 L 26.171875 35.669922 C 28.337233 35.151563 30.305553 34.015759 31.837891 32.400391 L 33.941406 33.416016 C 34.421184 33.693016 35.029642 33.528607 35.306641 33.048828 L 36.806641 30.451172 C 37.083642 29.971393 36.899411 29.395673 36.441406 29.083984 L 34.517578 27.775391 C 34.835525 26.712577 34.998015 25.609351 35 24.5 C 34.9972 23.391209 34.834046 22.288653 34.515625 21.226562 L 36.441406 19.916016 C 36.921184 19.639016 37.083642 19.028606 36.806641 18.548828 L 35.306641 15.951172 C 35.029641 15.471393 34.440338 15.343187 33.941406 15.583984 L 31.84375 16.595703 C 30.30957 14.980076 28.339111 13.844891 26.171875 13.328125 L 26 11 C 26 10.446 25.554 10 25 10 L 22 10 z M 17.486328 19.998047 L 19.257812 19.998047 L 20.509766 26.304688 L 20.539062 26.304688 L 21.806641 19.998047 L 23.585938 19.998047 L 23.585938 28.587891 L 22.228516 28.587891 L 22.228516 26.09375 L 22.34375 22.753906 L 22.314453 22.748047 L 20.980469 28.587891 L 20.074219 28.587891 L 18.753906 22.794922 L 18.724609 22.800781 L 18.845703 26.09375 L 18.845703 28.587891 L 17.486328 28.587891 L 17.486328 19.998047 z M 24.335938 19.998047 L 25.904297 19.998047 L 26.839844 23.001953 L 26.869141 23.001953 L 27.818359 19.998047 L 29.398438 19.998047 L 27.705078 24.257812 L 29.513672 28.587891 L 27.867188 28.587891 L 26.888672 25.521484 L 26.859375 25.521484 L 25.880859 28.587891 L 24.291016 28.587891 L 26.029297 24.257812 L 24.335938 19.998047 z "
       transform="translate(0.30377111,-0.4999991)"
       id="path4" />
  </g>
  <g
     aria-label="MX"
     transform="scale(0.90189518,1.1087763)"
     style="font-style:normal;font-variant:normal;font-weight:bold;font-stretch:condensed;font-size:10.89799881px;line-height:1.25;font-family:'Roboto Condensed';-inkscape-font-specification:'Roboto Condensed,  Bold Condensed';letter-spacing:0px;word-spacing:0px;fill:#000000;fill-opacity:1;stroke:none;stroke-width:0.27244997"
     id="text4536" />
</svg>
