<?xml version="1.0" encoding="UTF-8" standalone="no"?>
<svg
   xmlns:dc="http://purl.org/dc/elements/1.1/"
   xmlns:cc="http://creativecommons.org/ns#"
   xmlns:rdf="http://www.w3.org/1999/02/22-rdf-syntax-ns#"
   xmlns:svg="http://www.w3.org/2000/svg"
   xmlns="http://www.w3.org/2000/svg"
   xmlns:sodipodi="http://sodipodi.sourceforge.net/DTD/sodipodi-0.dtd"
   xmlns:inkscape="http://www.inkscape.org/namespaces/inkscape"
   height="48"
   width="48"
   version="1.1"
   id="svg18"
   sodipodi:docname="mx-timeset-gui-icon.svg"
   inkscape:version="0.92.1 r15371">
  <metadata
     id="metadata24">
    <rdf:RDF>
      <cc:Work
         rdf:about="">
        <dc:format>image/svg+xml</dc:format>
        <dc:type
           rdf:resource="http://purl.org/dc/dcmitype/StillImage" />
        <dc:title></dc:title>
      </cc:Work>
    </rdf:RDF>
  </metadata>
  <defs
     id="defs22" />
  <sodipodi:namedview
     pagecolor="#ffffff"
     bordercolor="#666666"
     borderopacity="1"
     objecttolerance="10"
     gridtolerance="10"
     guidetolerance="10"
     inkscape:pageopacity="0"
     inkscape:pageshadow="2"
     inkscape:window-width="765"
     inkscape:window-height="480"
     id="namedview20"
     showgrid="false"
     inkscape:zoom="4.9166667"
     inkscape:cx="24"
     inkscape:cy="24"
     inkscape:window-x="0"
     inkscape:window-y="29"
     inkscape:window-maximized="0"
     inkscape:current-layer="svg18" />
  <path
     d="m44.322082 27.405077a19.729762 19.729765 0 0 1 -19.729762 19.729765 19.729762 19.729765 0 0 1 -19.7297621-19.729765 19.729762 19.729765 0 0 1 19.7297621-19.7297632 19.729762 19.729765 0 0 1 19.729762 19.7297632z"
     fill="#ac9d93"
     opacity=".99"
     transform="matrix(1.1503549 0 0 1.1503549 -4.486125 -7.525565)"
     id="path2"
     style="fill:#ac7d65;fill-opacity:1" />
  <g
     fill="none"
     stroke="#fff"
     id="g14">
    <path
       d="m24 3v6"
       stroke-opacity=".423313"
       stroke-width="2.5"
       id="path4" />
    <path
       d="m24 39v6"
       stroke-opacity=".423313"
       stroke-width="2.5"
       id="path6" />
    <path
       d="m39 24h6"
       stroke-opacity=".423313"
       stroke-width="2.5"
       id="path8" />
    <path
       d="m3 24h6"
       stroke-opacity=".423313"
       stroke-width="2.5"
       id="path10" />
    <path
       d="m28.5 12-4.5 12 7.5 6"
       stroke-linecap="round"
       stroke-opacity=".509202"
       stroke-width="1.5"
       id="path12" />
  </g>
  <path
     d="m26.996573 24.143347a3 3 0 0 1 -3.134449 2.853483 3 3 0 0 1 -2.859201-3.129234 3 3 0 0 1 3.124009-2.864909 3 3 0 0 1 2.870608 3.118773"
     fill="#fff"
     id="path16" />
</svg>
