<?xml version="1.0" encoding="UTF-8" standalone="no"?>
<svg
   xmlns:dc="http://purl.org/dc/elements/1.1/"
   xmlns:cc="http://creativecommons.org/ns#"
   xmlns:rdf="http://www.w3.org/1999/02/22-rdf-syntax-ns#"
   xmlns:svg="http://www.w3.org/2000/svg"
   xmlns="http://www.w3.org/2000/svg"
   xmlns:sodipodi="http://sodipodi.sourceforge.net/DTD/sodipodi-0.dtd"
   xmlns:inkscape="http://www.inkscape.org/namespaces/inkscape"
   height="48"
   width="48"
   version="1.1"
   id="svg16"
   sodipodi:docname="mx-usb-unmounter.svg"
   inkscape:version="0.92.4 5da689c313, 2019-01-14">
  <metadata
     id="metadata22">
    <rdf:RDF>
      <cc:Work
         rdf:about="">
        <dc:format>image/svg+xml</dc:format>
        <dc:type
           rdf:resource="http://purl.org/dc/dcmitype/StillImage" />
        <dc:title />
      </cc:Work>
    </rdf:RDF>
  </metadata>
  <defs
     id="defs20" />
  <sodipodi:namedview
     pagecolor="#ffffff"
     bordercolor="#666666"
     borderopacity="1"
     objecttolerance="10"
     gridtolerance="10"
     guidetolerance="10"
     inkscape:pageopacity="0"
     inkscape:pageshadow="2"
     inkscape:window-width="1920"
     inkscape:window-height="1027"
     id="namedview18"
     showgrid="false"
     inkscape:zoom="9.8333332"
     inkscape:cx="13.635222"
     inkscape:cy="28.618519"
     inkscape:window-x="0"
     inkscape:window-y="30"
     inkscape:window-maximized="1"
     inkscape:current-layer="svg16"
     showguides="false" />
  <path
     inkscape:connector-curvature="0"
     d="M 46.499999,24 A 22.696228,22.696232 0 0 1 23.803771,46.696232 22.696228,22.696232 0 0 1 1.1075422,24 22.696228,22.696232 0 0 1 23.803771,1.30377 22.696228,22.696232 0 0 1 46.499999,24 Z"
     id="path2-0"
     style="opacity:0.98999999;fill:#a86d96;fill-opacity:1;stroke-width:1.15035486" />
  <path
     style="fill:#ffffff;fill-opacity:0.50777205"
     inkscape:connector-curvature="0"
     id="path4"
     d="m 12,6 c -0.831001,0 -1.5,0.669 -1.5,1.5 v 24 c 0,0.831 0.669,1.5 1.5,1.5 h 1.5 v 9 H 33 v -9 h 1.5 C 35.331,33 36,32.331 36,31.5 V 7.5 C 36,6.669 35.331,6 34.5,6 Z m 4.5,30 h 3 v 3 h -3 z M 27,36 h 3 v 3 h -3 z" />
  <path
     style="fill:#ffffff"
     inkscape:connector-curvature="0"
     id="path6"
     d="m 12,6 c -0.831001,0 -1.5,0.669 -1.5,1.5 v 24 c 0,0.831 0.669,1.5 1.5,1.5 H 13.5 33 34.5 C 35.331,33 36,32.331 36,31.5 V 7.5 C 36,6.669 35.331,6 34.5,6 Z" />
  <path
     inkscape:connector-curvature="0"
     style="stroke:#a86d96;stroke-linecap:round;stroke-linejoin:bevel;stroke-opacity:1;fill:#ffffff;fill-opacity:1"
     d="m 24.285715,13.107143 a 8.3928576,8.3928576 0 0 1 -8.392857,8.392858 8.3928576,8.3928576 0 0 1 -8.3928581,-8.392858 8.3928576,8.3928576 0 0 1 8.3928581,-8.392857 8.3928576,8.3928576 0 0 1 8.392857,8.392857 z"
     id="circle8-7" />
  <path
     style="opacity:1;fill:#a86d96;fill-opacity:1;stroke:none;stroke-width:0.2;stroke-linecap:round;stroke-linejoin:round;stroke-miterlimit:4;stroke-dasharray:none;stroke-dashoffset:0;stroke-opacity:1;paint-order:fill markers stroke"
     d="m 13.524927,9.051046 v 4.119141 h -2.083984 l 4.398437,4.167969 4.398438,-4.167969 H 17.847193 V 9.051046 Z"
     id="rect4499"
     inkscape:connector-curvature="0" />
</svg>
