<svg height="48" width="48" xmlns="http://www.w3.org/2000/svg"><path d="m44.322082 27.405077a19.729762 19.729765 0 0 1 -19.729762 19.729765 19.729762 19.729765 0 0 1 -19.7297621-19.729765 19.729762 19.729765 0 0 1 19.7297621-19.7297632 19.729762 19.729765 0 0 1 19.729762 19.7297632z" fill="#aa87de" opacity=".99" transform="matrix(1.1503549 0 0 1.1503549 -4.486125 -7.525565)"/><g fill="#fff"><path d="m15 16.2 8.25 3v4.5l-10.5-3v-2.25c0-1.2465 1.0035-2.25 2.25-2.25z"/><path d="m35.227781 28.53371.022219 2.21629c.0125 1.246437-1.0035 2.25-2.25 2.25l-8.23893-2.9928c-.01161-1.497443-.01117-2.994902-.01138-4.492375z"/><path d="m24.75 19.5 10.5 3v4.5l-10.5-3z"/><path d="m24.75 13.5 10.5 3v4.5l-10.5-3z"/><path d="m12.75 22.2 10.5 3v4.5l-10.5-3z"/><path d="m12.75 28.2 10.5 3v4.5l-10.5-3z"/></g></svg>