<svg height="48" width="48" xmlns="http://www.w3.org/2000/svg"><g fill="#4c78b1" opacity=".99" transform="matrix(1.1503549 0 0 1.1503549 -4.486125 -7.525565)"><path d="m44.322082 27.405077a19.729762 19.729765 0 0 1 -19.729762 19.729765 19.729762 19.729765 0 0 1 -19.7297621-19.729765 19.729762 19.729765 0 0 1 19.7297621-19.7297632 19.729762 19.729765 0 0 1 19.729762 19.7297632z"/><path d="m44.322082 27.405077a19.729762 19.729765 0 0 1 -19.729762 19.729765 19.729762 19.729765 0 0 1 -19.7297621-19.729765 19.729762 19.729765 0 0 1 19.7297621-19.7297632 19.729762 19.729765 0 0 1 19.729762 19.7297632z"/></g><g fill="#fff"><path d="m23.714844 12.75c-6.195437 0-11.250001 5.054564-11.25 11.25 0 6.195436 5.054563 11.25 11.25 11.25 6.195436 0 11.25-5.054564 11.25-11.25s-5.054564-11.25-11.25-11.25zm0 3c4.574116 0 8.25 3.675884 8.25 8.25s-3.675884 8.25-8.25 8.25c-4.574117 0-8.25-3.675884-8.25-8.25s3.675883-8.25 8.25-8.25z"/><path d="m8.4121094 17.419922c-3.8171459 0-6.9335938 3.114495-6.9335938 6.93164 0 3.817147 3.1164479 6.933594 6.9335938 6.933594 3.8171456 0 6.9316406-3.116447 6.9316406-6.933594 0-3.817145-3.114495-6.93164-6.9316406-6.93164zm30.6074216 0c-3.817146 0-6.933593 3.114495-6.933593 6.93164 0 3.817147 3.116447 6.933594 6.933593 6.933594s6.931641-3.116447 6.931641-6.933594c0-3.817145-3.114495-6.93164-6.931641-6.93164zm-30.6074216 2c2.7362656 0 4.9316406 2.195375 4.9316406 4.93164 0 2.736267-2.195375 4.933594-4.9316406 4.933594s-4.9335938-2.197327-4.9335938-4.933594c0-2.736264 2.1973282-4.93164 4.9335938-4.93164zm30.6074216 0c2.736266 0 4.931641 2.195375 4.931641 4.93164 0 2.736267-2.195375 4.933594-4.931641 4.933594-2.736265 0-4.933593-2.197327-4.933593-4.933594 0-2.736264 2.197328-4.93164 4.933593-4.93164z" fill-opacity=".579186"/></g></svg>