<svg height="48" width="48" xmlns="http://www.w3.org/2000/svg"><path d="m44.322082 27.405077a19.729762 19.729765 0 0 1 -19.729762 19.729765 19.729762 19.729765 0 0 1 -19.7297621-19.729765 19.729762 19.729765 0 0 1 19.7297621-19.7297632 19.729762 19.729765 0 0 1 19.729762 19.7297632z" fill="#5995b6" opacity=".99" transform="matrix(1.1503549 0 0 1.1503549 -4.486125 -7.525565)"/><path d="m22.164062 14.529297c-3.170576.0017-5.89065 2.260617-6.474609 5.376953-.06442-.0029-.12888-.004859-.193359-.005859-3.640763-.000516-6.5923131 2.951034-6.5917971 6.591797.000563 3.64 2.9517971 6.590359 6.5917971 6.589843h18.509765c3.361205.000083 6.086021-2.724732 6.085938-6.085937.000084-3.361205-2.724733-6.086021-6.085938-6.085938-.337196.002-.673641.032084-1.005859.089844-.721404-1.600408-2.312875-2.630319-4.068359-2.632812-.254684.000448-.508866.022656-.759766.066406-1.058546-2.371368-3.410913-3.900101-6.007813-3.904297zm-1.164062 6.470703 9 5.195312-9 5.197266z" fill="#fff"/></svg>