<svg height="48" width="48" xmlns="http://www.w3.org/2000/svg"><rect fill="#a8bcb0" height="42.5" ry="2.5" width="32.5" x="7.5" y="3"/><path d="m10 3h13.75v42.5h-13.75c-1.385 0-2.5-1.115-2.5-2.5v-37.5c0-1.385 1.115-2.5 2.5-2.5z" fill="#93ac9d"/><g fill="#fff" stroke-width=".03234"><path d="m19.221061 8.255928h8.278939v2.069734h1.034868v-2.069734c0-.570989-.462878-1.034868-1.034868-1.034868h-8.278939c-.570989 0-1.034869.463879-1.034869 1.034868v2.069734h1.034869z"/><path d="m30.604601 11.36053h-14.488144c-.570988 0-1.034867.46388-1.034867 1.034867v5.174338c0 .572023.463879 1.034867 1.034867 1.034867h2.069735v4.13947c0 .572023.46388 1.034867 1.034869 1.034867h8.278939c.57202 0 1.034868-.462877 1.034868-1.034867v-4.13947h2.069733c.572024 0 1.034867-.462877 1.034867-1.034867v-5.174338c0-.570987-.462843-1.034867-1.034867-1.034867m-3.104601 11.383542h-8.278939v-7.244072h8.278939zm2.069734-8.278939c-.572024 0-1.034866-.462878-1.034866-1.034868 0-.570988.462876-1.034868 1.034866-1.034868s1.034867.46388 1.034867 1.034868c0 .572022-.462843 1.034868-1.034867 1.034868"/></g></svg>