<?xml version="1.0" encoding="UTF-8" standalone="no"?>
<svg
   xmlns:dc="http://purl.org/dc/elements/1.1/"
   xmlns:cc="http://creativecommons.org/ns#"
   xmlns:rdf="http://www.w3.org/1999/02/22-rdf-syntax-ns#"
   xmlns:svg="http://www.w3.org/2000/svg"
   xmlns="http://www.w3.org/2000/svg"
   xmlns:xlink="http://www.w3.org/1999/xlink"
   xmlns:sodipodi="http://sodipodi.sourceforge.net/DTD/sodipodi-0.dtd"
   xmlns:inkscape="http://www.inkscape.org/namespaces/inkscape"
   version="1.1"
   preserveAspectRatio="xMidYMid meet"
   viewBox="0 0 640 640"
   width="64"
   height="64"
   id="svg23"
   sodipodi:docname="offroad.svg"
   inkscape:version="0.92.5 (2060ec1f9f, 2020-04-08)">
  <metadata
     id="metadata27">
    <rdf:RDF>
      <cc:Work
         rdf:about="">
        <dc:format>image/svg+xml</dc:format>
        <dc:type
           rdf:resource="http://purl.org/dc/dcmitype/StillImage" />
      </cc:Work>
    </rdf:RDF>
  </metadata>
  <sodipodi:namedview
     pagecolor="#ffffff"
     bordercolor="#666666"
     borderopacity="1"
     objecttolerance="10"
     gridtolerance="10"
     guidetolerance="10"
     inkscape:pageopacity="0"
     inkscape:pageshadow="2"
     inkscape:window-width="1850"
     inkscape:window-height="1048"
     id="namedview25"
     showgrid="false"
     inkscape:zoom="3.6875"
     inkscape:cx="32.184869"
     inkscape:cy="40.237934"
     inkscape:window-x="70"
     inkscape:window-y="32"
     inkscape:window-maximized="1"
     inkscape:current-layer="svg23" />
  <defs
     id="defs5">
    <path
       d="M618.52 318.86C618.52 484.56 485.27 619.09 321.14 619.09C157 619.09 23.75 484.56 23.75 318.86C23.75 153.16 157 18.64 321.14 18.64C485.27 18.64 618.52 153.16 618.52 318.86Z"
       id="g5d0q7jZlK" />
    <path
       d="M548.07 319.43C548.07 424.11 476.86 512.25 380.39 537.78C362.02 542.64 342.73 587.27 322.84 587.27C303.57 587.27 284.87 542.8 267.01 538.22C169.67 513.3 97.61 424.74 97.61 319.43C97.61 194.81 198.53 93.64 322.84 93.64C447.15 93.64 548.07 194.81 548.07 319.43Z"
       id="f433UwJ0Wc" />
    <path
       d="M465.68 318.86C465.68 397.7 401.17 461.7 321.7 461.7C242.24 461.7 177.73 397.7 177.73 318.86C177.73 240.03 242.24 176.02 321.7 176.02C401.17 176.02 465.68 240.03 465.68 318.86Z"
       id="fmcZ1KDVS" />
  </defs>
  <g
     id="g21">
    <g
       id="g19">
      <g
         id="g9"
         style="fill:#cfc685;fill-opacity:1">
        <use
           xlink:href="#g5d0q7jZlK"
           opacity="1"
           fill="#b3b2b2"
           fill-opacity="1"
           id="use7"
           style="fill:#cfc685;fill-opacity:1" />
      </g>
      <g
         id="g13"
         style="fill:#ffffff;fill-opacity:1">
        <use
           xlink:href="#f433UwJ0Wc"
           opacity="1"
           fill="#eddb5c"
           fill-opacity="1"
           id="use11"
           style="fill:#ffffff;fill-opacity:1" />
      </g>
      <g
         id="g17"
         style="fill:#e6d774;fill-opacity:1">
        <use
           xlink:href="#fmcZ1KDVS"
           opacity="1"
           fill="#b3b2b2"
           fill-opacity="1"
           id="use15"
           style="fill:#e6d774;fill-opacity:1" />
      </g>
    </g>
  </g>
</svg>
