<?xml version="1.0" encoding="UTF-8" standalone="no"?>
<svg
   xmlns:dc="http://purl.org/dc/elements/1.1/"
   xmlns:cc="http://creativecommons.org/ns#"
   xmlns:rdf="http://www.w3.org/1999/02/22-rdf-syntax-ns#"
   xmlns:svg="http://www.w3.org/2000/svg"
   xmlns="http://www.w3.org/2000/svg"
   xmlns:sodipodi="http://sodipodi.sourceforge.net/DTD/sodipodi-0.dtd"
   xmlns:inkscape="http://www.inkscape.org/namespaces/inkscape"
   height="48"
   width="48"
   version="1.1"
   id="svg18"
   sodipodi:docname="onlyoffice-alt.svg"
   inkscape:version="0.92.4 5da689c313, 2019-01-14">
  <metadata
     id="metadata24">
    <rdf:RDF>
      <cc:Work
         rdf:about="">
        <dc:format>image/svg+xml</dc:format>
        <dc:type
           rdf:resource="http://purl.org/dc/dcmitype/StillImage" />
        <dc:title></dc:title>
      </cc:Work>
    </rdf:RDF>
  </metadata>
  <defs
     id="defs22" />
  <sodipodi:namedview
     pagecolor="#ffffff"
     bordercolor="#666666"
     borderopacity="1"
     objecttolerance="10"
     gridtolerance="10"
     guidetolerance="10"
     inkscape:pageopacity="0"
     inkscape:pageshadow="2"
     inkscape:window-width="1920"
     inkscape:window-height="1031"
     id="namedview20"
     showgrid="true"
     inkscape:zoom="13.906433"
     inkscape:cx="21.897568"
     inkscape:cy="16.48873"
     inkscape:window-x="0"
     inkscape:window-y="26"
     inkscape:window-maximized="1"
     inkscape:current-layer="svg18">
    <inkscape:grid
       type="xygrid"
       id="grid834" />
  </sodipodi:namedview>
  <rect
     fill="#6186db"
     height="42.5"
     ry="2.5"
     width="32.5"
     x="7.5"
     y="3"
     id="rect2"
     style="fill:#618fdb;fill-opacity:1" />
  <path
     d="m10.5 4h26.5c1.108 0 2 .892 2 2v16.857143 7.642857c0 1.108-.892 2-2 2h-26.5c-1.108 0-2-.892-2-2v-24.5c0-1.108.892-2 2-2z"
     fill="#fff"
     id="path4" />
  <path
     d="m40 22.928572v1.321428 18.75c0 1.385-1.115 2.5-2.5 2.5h-27.5c-1.385 0-2.5-1.115-2.5-2.5v-18.75-1.178571z"
     fill="#6186db"
     id="path6"
     style="fill:#618fdb;fill-opacity:1" />
  <g
     fill="none"
     stroke="#6186db"
     stroke-linecap="round"
     stroke-width="2"
     id="g16">
    <path
       d="m15 8h17.5"
       id="path10" />
    <path
       d="m15 13h10"
       id="path12" />
    <path
       d="m15 18h17.5"
       id="path14" />
  </g>
  <path
     style="opacity:1;fill:#ffffff;fill-opacity:0.96153846;stroke:none;stroke-width:6;stroke-linecap:round;stroke-linejoin:round;stroke-miterlimit:4;stroke-dasharray:none;stroke-dashoffset:0;stroke-opacity:1;paint-order:fill markers stroke"
     d="m 23.75,26.59961 c -0.230948,0 -0.461819,0.06452 -0.707031,0.193359 l -6.363282,3.34375 c -0.490425,0.257681 -0.494952,1.165187 0,1.414062 L 23.042969,34.75 c 0.494951,0.248874 0.919111,0.248874 1.414062,0 l 6.363281,-3.199219 c 0.494952,-0.248874 0.490425,-1.156381 0,-1.414062 l -6.363281,-3.34375 C 24.211819,26.664129 23.980947,26.59961 23.75,26.59961 Z M 17.890625,33 16.679687,33.636719 c -0.490425,0.257681 -0.494952,1.165188 0,1.414062 L 23.042969,38.25 c 0.494951,0.248874 0.919111,0.248874 1.414062,0 l 6.363281,-3.199219 c 0.494952,-0.248874 0.490425,-1.156381 0,-1.414062 L 29.609375,33 24.794922,35.421875 c -0.648649,0.326158 -1.441195,0.326157 -2.089844,0 z m 0.002,3.5 -1.212891,0.636719 c -0.490425,0.257681 -0.494952,1.165188 0,1.414062 L 23.043016,41.75 c 0.494951,0.248874 0.919111,0.248874 1.414062,0 l 6.363281,-3.199219 c 0.494952,-0.248874 0.490425,-1.156381 0,-1.414062 L 29.607469,36.5 l -4.8125,2.419922 c -0.648595,0.32613 -1.441249,0.32613 -2.089844,0 z"
     id="rect841"
     inkscape:connector-curvature="0" />
</svg>
