<?xml version="1.0" encoding="UTF-8" standalone="no"?>
<svg
   xmlns:dc="http://purl.org/dc/elements/1.1/"
   xmlns:cc="http://creativecommons.org/ns#"
   xmlns:rdf="http://www.w3.org/1999/02/22-rdf-syntax-ns#"
   xmlns:svg="http://www.w3.org/2000/svg"
   xmlns="http://www.w3.org/2000/svg"
   xmlns:sodipodi="http://sodipodi.sourceforge.net/DTD/sodipodi-0.dtd"
   xmlns:inkscape="http://www.inkscape.org/namespaces/inkscape"
   height="48"
   width="48"
   version="1.1"
   id="svg10"
   sodipodi:docname="opendesktop-app.svg"
   inkscape:version="0.92.4 5da689c313, 2019-01-14">
  <metadata
     id="metadata16">
    <rdf:RDF>
      <cc:Work
         rdf:about="">
        <dc:format>image/svg+xml</dc:format>
        <dc:type
           rdf:resource="http://purl.org/dc/dcmitype/StillImage" />
        <dc:title></dc:title>
      </cc:Work>
    </rdf:RDF>
  </metadata>
  <defs
     id="defs14" />
  <sodipodi:namedview
     pagecolor="#ffffff"
     bordercolor="#666666"
     borderopacity="1"
     objecttolerance="10"
     gridtolerance="10"
     guidetolerance="10"
     inkscape:pageopacity="0"
     inkscape:pageshadow="2"
     inkscape:window-width="1920"
     inkscape:window-height="1027"
     id="namedview12"
     showgrid="true"
     inkscape:zoom="13.906433"
     inkscape:cx="18.853392"
     inkscape:cy="19.430434"
     inkscape:window-x="0"
     inkscape:window-y="30"
     inkscape:window-maximized="1"
     inkscape:current-layer="svg10">
    <inkscape:grid
       type="xygrid"
       id="grid842" />
  </sodipodi:namedview>
  <path
     inkscape:connector-curvature="0"
     d="M 45,4 V 44.547297 C 45,45.352095 44.352095,46 43.547297,46 H 3.452703 C 2.647905,46 2,45.352095 2,44.547297 V 4 L 4.6875,8 7.375,4 10.0625,8 12.75,4 15.4375,8 18.125,4 20.8125,8 23.5,4 26.1875,8 28.875,4 31.5625,8 34.25,4 36.9375,8 39.625,4 42.3125,8 Z"
     id="path2-5"
     style="fill:#4eb196;fill-opacity:1" />
  <path
     style="fill:#8941bd;fill-opacity:1"
     d="M 18.125 4 L 17.666016 4.6835938 L 17.666016 46 L 43.546875 46 C 44.351673 46 45 45.351673 45 44.546875 L 45 4 L 42.3125 8 L 39.625 4 L 36.9375 8 L 34.25 4 L 31.5625 8 L 28.875 4 L 26.1875 8 L 23.5 4 L 20.8125 8 L 18.125 4 z "
     id="path839" />
  <path
     style="fill:#cf9476;fill-opacity:1"
     d="M 28.875 4 L 28 5.3027344 L 28 46 L 43.546875 46 C 44.351673 46 45 45.351673 45 44.546875 L 45 4 L 42.3125 8 L 39.625 4 L 36.9375 8 L 34.25 4 L 31.5625 8 L 28.875 4 z "
     id="path844" />
  <path
     style="opacity:1;fill:#ffffff;fill-opacity:1;stroke:none;stroke-width:2;stroke-linecap:round;stroke-linejoin:miter;stroke-miterlimit:4;stroke-dasharray:none;stroke-dashoffset:0;stroke-opacity:1;paint-order:fill markers stroke"
     d="m 23.5,12 a 14.5,14.5 0 0 0 -9.884766,3.908203 l 2.505859,2.505859 c 0.169762,-0.309001 0.486419,-0.52539 0.865235,-0.52539 h 13.027343 c 0.378817,0 0.695474,0.216389 0.865235,0.52539 l 2.501953,-2.501953 A 14.5,14.5 0 0 0 23.5,12 Z m 10.591797,4.615234 -3.078126,3.078125 v 13.613282 l 3.074219,3.074218 A 14.5,14.5 0 0 0 38,26.5 14.5,14.5 0 0 0 34.091797,16.615234 Z m -21.177735,0.0059 A 14.5,14.5 0 0 0 8.9999998,26.50004 14.5,14.5 0 0 0 12.90625,36.386759 l 3.064453,-3.064454 v -3.441406 l 0.01563,0.01367 v -10.20121 z m 17.964844,17.964843 c -0.169761,0.309002 -0.486418,0.525391 -0.865235,0.525391 H 18.080078 l -2.109375,2.109335 V 34.736328 L 13.61914,37.087891 A 14.5,14.5 0 0 0 23.5,41 14.5,14.5 0 0 0 33.384765,37.091797 Z"
     id="path819"
     inkscape:connector-curvature="0" />
  <path
     inkscape:connector-curvature="0"
     style="fill:#ffffff;fill-opacity:0.22727273"
     id="path859-7"
     d="M 45,25 V 44.547297 C 45,45.352095 44.352095,46 43.547297,46 H 3.452703 C 2.647906,46 2,45.352095 2,44.547297 V 25 Z" />
</svg>
