<?xml version="1.0" encoding="UTF-8" standalone="no"?>
<svg
   xmlns:dc="http://purl.org/dc/elements/1.1/"
   xmlns:cc="http://creativecommons.org/ns#"
   xmlns:rdf="http://www.w3.org/1999/02/22-rdf-syntax-ns#"
   xmlns:svg="http://www.w3.org/2000/svg"
   xmlns="http://www.w3.org/2000/svg"
   xmlns:sodipodi="http://sodipodi.sourceforge.net/DTD/sodipodi-0.dtd"
   xmlns:inkscape="http://www.inkscape.org/namespaces/inkscape"
   width="100%"
   height="100%"
   viewBox="0 0 1024 1024"
   version="1.1"
   xml:space="preserve"
   style="fill-rule:evenodd;clip-rule:evenodd;stroke-linejoin:round;stroke-miterlimit:2;"
   id="svg37"
   sodipodi:docname="org.gnome.DiskUtility.svg"
   inkscape:version="0.92.1 r15371"><metadata
     id="metadata43"><rdf:RDF><cc:Work
         rdf:about=""><dc:format>image/svg+xml</dc:format><dc:type
           rdf:resource="http://purl.org/dc/dcmitype/StillImage" /><dc:title></dc:title></cc:Work></rdf:RDF></metadata><defs
     id="defs41" /><sodipodi:namedview
     pagecolor="#ffffff"
     bordercolor="#666666"
     borderopacity="1"
     objecttolerance="10"
     gridtolerance="10"
     guidetolerance="10"
     inkscape:pageopacity="0"
     inkscape:pageshadow="2"
     inkscape:window-width="1920"
     inkscape:window-height="1040"
     id="namedview39"
     showgrid="false"
     inkscape:zoom="0.4609375"
     inkscape:cx="-373.15254"
     inkscape:cy="512"
     inkscape:window-x="0"
     inkscape:window-y="0"
     inkscape:window-maximized="1"
     inkscape:current-layer="svg37" /><g
     id="Layer1"
     transform="matrix(1.1666292,0,0,1.1666292,-84.180248,-82.711571)"><path
       d="m 481.533,92.683 c 7.981,-8.268 18.979,-12.938 30.471,-12.938 11.492,0 22.491,4.67 30.471,12.939 76.296,79.05 274.556,284.466 346.28,358.779 15.014,15.556 15.907,39.921 2.072,56.533 -69.282,83.192 -267.764,321.523 -346.288,415.813 -8.046,9.661 -19.97,15.248 -32.543,15.248 -12.574,0 -24.497,-5.587 -32.543,-15.25 -78.522,-94.293 -277,-332.638 -346.281,-415.834 -13.834,-16.613 -12.94,-40.978 2.074,-56.533 71.726,-74.309 269.989,-279.712 346.287,-358.757 z"
       style="fill:#f4a9a1"
       id="path2"
       inkscape:connector-curvature="0" /><path
       d="m 782.586,224.818 c 0,-16.71 -6.638,-32.735 -18.453,-44.551 -11.816,-11.816 -27.841,-18.453 -44.551,-18.453 H 303.871 c -16.709,0 -32.735,6.637 -44.55,18.453 -11.816,11.816 -18.454,27.841 -18.454,44.551 v 547.103 c 0,16.71 6.638,32.735 18.454,44.551 11.815,11.816 27.841,18.454 44.55,18.454 h 415.711 c 16.71,0 32.735,-6.638 44.551,-18.454 11.815,-11.816 18.453,-27.841 18.453,-44.551 z"
       style="fill:#f46665"
       id="path4"
       inkscape:connector-curvature="0" /><g
       id="g18"><rect
         x="367.54501"
         y="291.439"
         width="287.57101"
         height="220.561"
         style="fill:#f4a9a1"
         id="rect6" /><circle
         cx="511.33099"
         cy="580.36798"
         r="211.69099"
         style="fill:#f4a9a1"
         id="circle8" /><path
         d="m 738.109,293.532 c 0,-11.466 -4.554,-22.461 -12.661,-30.568 -8.108,-8.108 -19.103,-12.662 -30.569,-12.662 -86.498,0 -279.972,0 -366.471,0 -11.465,0 -22.461,4.554 -30.568,12.662 -8.107,8.107 -12.662,19.102 -12.662,30.568 0,0 0,0.001 0,0.001 0,11.466 4.555,22.461 12.662,30.569 8.107,8.107 19.103,12.661 30.568,12.661 86.499,0 279.973,0 366.471,0 11.466,0 22.461,-4.554 30.569,-12.661 8.107,-8.108 12.661,-19.103 12.661,-30.569 0,0 0,-0.001 0,-0.001 z"
         style="fill:#f4a9a1"
         id="path10"
         inkscape:connector-curvature="0" /><path
         d="m 515.903,200.537 c 18.376,0.028 60.37,0.164 71.768,0.812 9.924,0.564 18.386,5.778 20.036,11.357 1.563,5.287 0.355,11.175 11.302,24.209 12.689,15.109 38.918,15.225 38.918,15.225 l -27.035,9.002 -165.546,16.853 9.105,-16.853 h -82.245 l -27.035,-9.002 c 0,0 26.228,-0.116 38.918,-15.225 10.947,-13.034 9.739,-18.922 11.302,-24.209 1.65,-5.579 10.112,-10.793 20.036,-11.357 11.398,-0.648 53.39,-0.784 71.766,-0.812 l 0.005,-0.008 c 0,0 1.598,0 4.351,0.003 2.753,-0.003 4.351,-0.003 4.351,-0.003 z"
         style="fill:#f4a9a1"
         id="path12"
         inkscape:connector-curvature="0" /><path
         d="m 654.539,337.083 c 5.058,0 13.615,0.413 17.915,2.427 11.396,5.336 15.539,17.622 15.539,31.027 0,14.064 5.541,66.949 -7.661,74.227 -1.516,0.836 -12.535,-9.742 -23.334,-18.154 -35.284,-27.486 -35.913,-44.385 -35.913,-56.073 0,-18.464 14.99,-33.454 33.454,-33.454 z"
         style="fill:#f46665"
         id="path14"
         inkscape:connector-curvature="0" /><path
         d="m 368.123,337.083 c -5.059,0 -13.615,0.413 -17.916,2.427 -11.395,5.336 -15.538,17.622 -15.538,31.027 0,14.064 -5.542,66.949 7.661,74.227 1.515,0.836 12.535,-9.742 23.333,-18.154 35.284,-27.486 35.913,-44.385 35.913,-56.073 0,-18.464 -14.99,-33.454 -33.453,-33.454 z"
         style="fill:#f46665"
         id="path16"
         inkscape:connector-curvature="0" /></g><circle
       cx="309.423"
       cy="205.896"
       r="24.091"
       style="fill:#f4a9a1"
       id="circle20" /><circle
       cx="309.26999"
       cy="390.94699"
       r="24.091"
       style="fill:#f4a9a1"
       id="circle22" /><circle
       cx="309.423"
       cy="753.66101"
       r="24.091"
       style="fill:#f4a9a1"
       id="circle24" /><circle
       cx="713.39203"
       cy="205.896"
       r="24.091"
       style="fill:#f4a9a1"
       id="circle26" /><circle
       cx="713.23798"
       cy="390.94699"
       r="24.091"
       style="fill:#f4a9a1"
       id="circle28" /><path
       d="m 527.989,476.867 -69.863,59.029 c 0,0 141.475,167.443 204.353,241.862 16.3,19.292 45.153,21.718 64.446,5.417 0,0 0,0 0,0 19.292,-16.3 21.718,-45.154 5.417,-64.446 C 669.464,644.31 527.989,476.867 527.989,476.867 Z"
       style="fill:#ffffff"
       id="path30"
       inkscape:connector-curvature="0" /><circle
       cx="482.772"
       cy="499.366"
       r="108.419"
       style="fill:#ffffff"
       id="circle32" /><path
       d="m 439.477,383.278 -63.429,52.985 c 0,0 47.588,56.967 70.319,84.179 6.527,7.814 18.152,8.857 25.966,2.33 10.468,-8.745 24.666,-20.605 35.134,-29.349 7.813,-6.527 8.856,-18.153 2.329,-25.966 -22.731,-27.212 -70.319,-84.179 -70.319,-84.179 z"
       style="fill:#f4a9a1"
       id="path34"
       inkscape:connector-curvature="0" /></g></svg>