<svg height="48" width="48" xmlns="http://www.w3.org/2000/svg"><path d="m44.322082 27.405077a19.729762 19.729765 0 0 1 -19.729762 19.729765 19.729762 19.729765 0 0 1 -19.7297621-19.729765 19.729762 19.729765 0 0 1 19.7297621-19.7297632 19.729762 19.729765 0 0 1 19.729762 19.7297632z" fill="#d9935b" opacity=".99" transform="matrix(1.1503549 0 0 1.1503549 -4.486125 -7.525565)"/><path d="m17.206369 10.861917-.72938 5.993641-3.509511-1.048143.75215 3.372896c1.264163-1.780567 3.349987-2.939901 5.69726-2.939901 1.500713 0 2.895188.467984 4.033582 1.276221l-.364304-4.238889-3.053745 2.962668zm6.244101 6.654714c1.780562 1.264165 2.939897 3.349991 2.939897 5.69726 0 .140911-.01465.271347-.02277.410227.469195-.35738.973336-.667186 1.527067-.88876l3.281428-2.34752-5.400878-.113852.934301-3.235897zm-9.730842 1.66368-6.0164145-.638304 4.7401925 4.056351-3.4412028 2.438597 4.0567368 1.116837-2.666671 4.785728 4.991036-2.028367c-1.776879-1.262622-2.939899-3.351482-2.939899-5.697262 0-1.500713.467984-2.895189 1.276222-4.03358zm1.663677 9.730842.04553 4.101886c0-1.301015.494749-2.478034 1.298991-3.37251-.473803-.19767-.931162-.435645-1.344526-.729376zm.04553 4.101886v.319152l.02277-.02277c-.0058-.100836-.02277-.194191-.02277-.296381zm3.988045-15.610253c-3.206656 0-5.811107 2.604452-5.811107 5.811105 0 2.622388 1.736062 4.86158 4.124659 5.583414.604098-.40516 1.287835-.703843 2.028367-.843221.435446-1.659699 1.874329-2.9399 3.668892-2.9399.49231 0 .948483.10337 1.367682.273614.03062-.04625.05939-.09154.09108-.136998.215812-.607577.341919-1.255824.341919-1.936909 0-3.206653-2.604834-5.811105-5.81149-5.811105zm10.870448 6.016026c-2.30775 0-4.292542 1.401453-5.104882 3.418433-.479456-.409142-1.075051-.683453-1.754755-.683453-1.51626 0-2.734592 1.2411-2.734592 2.757361-2.27439 0-4.124657 1.827499-4.124657 4.101886 0 2.274389 1.850267 4.125045 4.124657 4.125045h15.086572c2.27439 0 4.124658-1.850656 4.124658-4.125045 0-2.274387-1.850268-4.101886-4.124658-4.101886 0-3.032522-2.45982-5.492341-5.492341-5.492341z" fill="#fff" stroke-width=".202856"/></svg>