<svg height="48" width="48" xmlns="http://www.w3.org/2000/svg"><path d="m45 4v40.547297c0 .804798-.647905 1.452703-1.452703 1.452703h-40.0945941c-.8047974 0-1.4527029-.647905-1.4527029-1.452703v-40.547297l2.6875 4 2.6875-4 2.6875 4 2.6875-4 2.6875 4 2.6875-4 2.6875 4 2.6875-4 2.6875 4 2.6875-4 2.6875 4 2.6875-4 2.6875 4 2.6875-4 2.6875 4z" fill="#4e9298"/><path d="m45 25v19.547297c0 .804798-.647905 1.452703-1.452703 1.452703h-40.0945941c-.8047974 0-1.4527029-.647905-1.4527029-1.452703v-19.547297z" fill="#63a9af"/><path d="m15 26c0 3 6 3 6 0 0 3 6 3 6 0 0 3 6 3 6 0l-1-7h-16z" fill="#fff"/><path d="m17 29.6v6.4h14v-6.4" fill="none" stroke="#fff" stroke-linejoin="round" stroke-width="2"/></svg>