<?xml version="1.0" encoding="UTF-8" standalone="no"?>
<svg
   xmlns:dc="http://purl.org/dc/elements/1.1/"
   xmlns:cc="http://creativecommons.org/ns#"
   xmlns:rdf="http://www.w3.org/1999/02/22-rdf-syntax-ns#"
   xmlns:svg="http://www.w3.org/2000/svg"
   xmlns="http://www.w3.org/2000/svg"
   xmlns:sodipodi="http://sodipodi.sourceforge.net/DTD/sodipodi-0.dtd"
   xmlns:inkscape="http://www.inkscape.org/namespaces/inkscape"
   height="48"
   width="48"
   version="1.1"
   id="svg6"
   sodipodi:docname="org.xfce.PanelProfiles.svg"
   inkscape:version="1.0.2 (e86c870879, 2021-01-15)">
  <metadata
     id="metadata12">
    <rdf:RDF>
      <cc:Work
         rdf:about="">
        <dc:format>image/svg+xml</dc:format>
        <dc:type
           rdf:resource="http://purl.org/dc/dcmitype/StillImage" />
        <dc:title></dc:title>
      </cc:Work>
    </rdf:RDF>
  </metadata>
  <defs
     id="defs10" />
  <sodipodi:namedview
     pagecolor="#ffffff"
     bordercolor="#666666"
     borderopacity="1"
     objecttolerance="10"
     gridtolerance="10"
     guidetolerance="10"
     inkscape:pageopacity="0"
     inkscape:pageshadow="2"
     inkscape:window-width="1920"
     inkscape:window-height="1031"
     id="namedview8"
     showgrid="true"
     inkscape:zoom="4.9166668"
     inkscape:cx="-54.639444"
     inkscape:cy="8.3379233"
     inkscape:window-x="0"
     inkscape:window-y="24"
     inkscape:window-maximized="1"
     inkscape:current-layer="svg6"
     inkscape:document-rotation="0">
    <inkscape:grid
       type="xygrid"
       id="grid822" />
  </sodipodi:namedview>
  <rect
     fill="#7a8a8a"
     height="43"
     ry="1.452703"
     width="43"
     x="2"
     y="3"
     id="rect2"
     style="fill:#7b9db3;fill-opacity:1" />
  <path
     style="fill:#ffffff;fill-opacity:1;stroke:none;stroke-width:1px;stroke-linecap:butt;stroke-linejoin:miter;stroke-opacity:1"
     d="M 4,4 C 3.279661,4 3,4.279661 3,5 v 8 H 44 V 5 C 44,4.2787064 43.669492,4 43,4 Z"
     id="path817"
     inkscape:connector-curvature="0"
     sodipodi:nodetypes="ssccsss" />
  <circle
     style="opacity:1;fill:#7b9db3;fill-opacity:1;stroke:none;stroke-width:5.44279671;stroke-linecap:round;stroke-linejoin:bevel;stroke-miterlimit:4;stroke-dasharray:none;stroke-opacity:1;paint-order:stroke fill markers"
     id="path818"
     cx="7.2457623"
     cy="8.550848"
     r="3.1101694" />
  <path
     sodipodi:type="star"
     style="fill:#fffaf5;fill-opacity:0.992157;stroke:none;stroke-width:2.12411;stroke-linecap:square;stroke-linejoin:round"
     id="path833"
     sodipodi:sides="5"
     sodipodi:cx="35.516521"
     sodipodi:cy="29.76504"
     sodipodi:r1="3.0039427"
     sodipodi:r2="1.5019712"
     sodipodi:arg1="0.78539816"
     sodipodi:arg2="1.4137167"
     inkscape:flatsided="false"
     inkscape:rounded="0"
     inkscape:randomized="0"
     d="m 37.64063,31.889148 -1.889148,-0.640629 -1.598722,1.193053 0.02549,-1.994652 -1.628693,-1.151801 1.904905,-0.592134 0.592134,-1.904905 1.151801,1.628693 1.994652,-0.02549 L 37.000001,30 Z"
     inkscape:transform-center-x="0.38873976"
     inkscape:transform-center-y="-0.38873834" />
  <path
     sodipodi:type="star"
     style="fill:#fffaf5;fill-opacity:0.992157;stroke:none;stroke-width:4;stroke-linecap:square;stroke-linejoin:round"
     id="path835"
     sodipodi:sides="5"
     sodipodi:cx="31"
     sodipodi:cy="37"
     sodipodi:r1="5.6568542"
     sodipodi:r2="2.8284271"
     sodipodi:arg1="0.78539816"
     sodipodi:arg2="1.4137167"
     inkscape:flatsided="false"
     inkscape:rounded="0"
     inkscape:randomized="0"
     d="m 35,41 -3.557537,-1.206396 -3.010621,2.24669 0.04801,-3.756215 L 25.412791,36.115073 29,35 l 1.115073,-3.587209 2.169006,3.067062 3.756215,-0.04801 -2.24669,3.010621 z"
     inkscape:transform-center-x="0.73205081"
     inkscape:transform-center-y="-0.73205081" />
  <path
     sodipodi:type="star"
     style="fill:#fffaf5;fill-opacity:0.992157;stroke:none;stroke-width:2.12411;stroke-linecap:square;stroke-linejoin:round"
     id="path837"
     sodipodi:sides="5"
     sodipodi:cx="24.338266"
     sodipodi:cy="32.318119"
     sodipodi:r1="3.0039427"
     sodipodi:r2="1.5019712"
     sodipodi:arg1="0.78539816"
     sodipodi:arg2="1.4137167"
     inkscape:flatsided="false"
     inkscape:rounded="0"
     inkscape:randomized="0"
     d="M 26.462375,34.442227 24.573226,33.801599 22.974505,34.994652 23,33 l -1.628693,-1.151801 1.904905,-0.592134 0.592134,-1.904905 1.151801,1.628693 1.994652,-0.02549 -1.193053,1.598721 z"
     inkscape:transform-center-x="0.38873976"
     inkscape:transform-center-y="-0.38873834" />
  <path
     sodipodi:type="star"
     style="fill:#fffaf5;fill-opacity:0.992157;stroke:none;stroke-width:2.12411;stroke-linecap:square;stroke-linejoin:round"
     id="path839"
     sodipodi:sides="5"
     sodipodi:cx="24.062054"
     sodipodi:cy="40.062054"
     sodipodi:r1="3.0039427"
     sodipodi:r2="1.5019712"
     sodipodi:arg1="0.78539816"
     sodipodi:arg2="1.4137167"
     inkscape:flatsided="false"
     inkscape:rounded="0"
     inkscape:randomized="0"
     d="m 26.186162,42.186162 -1.889148,-0.640629 -1.598722,1.193053 0.0255,-1.994652 -1.628693,-1.1518 L 23,39 l 0.592133,-1.904906 1.151801,1.628694 1.994652,-0.0255 -1.193053,1.598722 z"
     inkscape:transform-center-x="0.26898091"
     inkscape:transform-center-y="-0.26349375"
     transform="matrix(0.69193076,0,0,0.67781855,6.4987498,13.76958)" />
  <path
     sodipodi:type="star"
     style="fill:#fffaf5;fill-opacity:0.992157;stroke:none;stroke-width:2.12411;stroke-linecap:square;stroke-linejoin:round"
     id="path841"
     sodipodi:sides="5"
     sodipodi:cx="24.062054"
     sodipodi:cy="40.062054"
     sodipodi:r1="3.0039427"
     sodipodi:r2="1.5019712"
     sodipodi:arg1="0.78539816"
     sodipodi:arg2="1.4137167"
     inkscape:flatsided="false"
     inkscape:rounded="0"
     inkscape:randomized="0"
     d="m 26.186162,42.186162 -1.889148,-0.640629 -1.598722,1.193053 0.0255,-1.994652 -1.628693,-1.1518 L 23,39 l 0.592133,-1.904906 1.151801,1.628694 1.994652,-0.0255 -1.193053,1.598722 z"
     inkscape:transform-center-x="0.16254673"
     inkscape:transform-center-y="-0.15923072"
     transform="matrix(0.41813777,0,0,0.40960968,16.099949,28.148805)" />
  <path
     sodipodi:type="star"
     style="fill:#fffaf5;fill-opacity:0.992157;stroke:none;stroke-width:2.12411;stroke-linecap:square;stroke-linejoin:round"
     id="path843"
     sodipodi:sides="5"
     sodipodi:cx="24.062054"
     sodipodi:cy="40.062054"
     sodipodi:r1="3.0039427"
     sodipodi:r2="1.5019712"
     sodipodi:arg1="0.78539816"
     sodipodi:arg2="1.4137167"
     inkscape:flatsided="false"
     inkscape:rounded="0"
     inkscape:randomized="0"
     d="m 26.186162,42.186162 -1.889148,-0.640629 -1.598722,1.193053 0.0255,-1.994652 -1.628693,-1.1518 L 23,39 l 0.592133,-1.904906 1.151801,1.628694 1.994652,-0.0255 -1.193053,1.598722 z"
     inkscape:transform-center-x="0.16254673"
     inkscape:transform-center-y="-0.15923072"
     transform="matrix(0.41813777,0,0,0.40960968,14.318448,20.493953)" />
  <path
     sodipodi:type="star"
     style="fill:#fffaf5;fill-opacity:0.992157;stroke:none;stroke-width:2.12411;stroke-linecap:square;stroke-linejoin:round"
     id="path845"
     sodipodi:sides="5"
     sodipodi:cx="24.062054"
     sodipodi:cy="40.062054"
     sodipodi:r1="3.0039427"
     sodipodi:r2="1.5019712"
     sodipodi:arg1="0.78539816"
     sodipodi:arg2="1.4137167"
     inkscape:flatsided="false"
     inkscape:rounded="0"
     inkscape:randomized="0"
     d="m 26.186162,42.186162 -1.889148,-0.640629 -1.598722,1.193053 0.0255,-1.994652 -1.628693,-1.1518 L 23,39 l 0.592133,-1.904906 1.151801,1.628694 1.994652,-0.0255 -1.193053,1.598722 z"
     inkscape:transform-center-x="0.16254673"
     inkscape:transform-center-y="-0.15923072"
     transform="matrix(0.41813777,0,0,0.40960968,19.653626,13.138362)" />
  <path
     sodipodi:type="star"
     style="fill:#fffaf5;fill-opacity:0.992157;stroke:none;stroke-width:2.12411;stroke-linecap:square;stroke-linejoin:round"
     id="path847"
     sodipodi:sides="5"
     sodipodi:cx="24.062054"
     sodipodi:cy="40.062054"
     sodipodi:r1="3.0039427"
     sodipodi:r2="1.5019712"
     sodipodi:arg1="0.78539816"
     sodipodi:arg2="1.4137167"
     inkscape:flatsided="false"
     inkscape:rounded="0"
     inkscape:randomized="0"
     d="m 26.186162,42.186162 -1.889148,-0.640629 -1.598722,1.193053 0.0255,-1.994652 -1.628693,-1.1518 L 23,39 l 0.592133,-1.904906 1.151801,1.628694 1.994652,-0.0255 -1.193053,1.598722 z"
     inkscape:transform-center-x="0.16254673"
     inkscape:transform-center-y="-0.15923072"
     transform="matrix(0.41813777,0,0,0.40960968,28.318448,18.493953)" />
  <path
     sodipodi:type="star"
     style="fill:#fffaf5;fill-opacity:0.992157;stroke:none;stroke-width:2.12411;stroke-linecap:square;stroke-linejoin:round"
     id="path849"
     sodipodi:sides="5"
     sodipodi:cx="24.062054"
     sodipodi:cy="40.062054"
     sodipodi:r1="3.0039427"
     sodipodi:r2="1.5019712"
     sodipodi:arg1="0.78539816"
     sodipodi:arg2="1.4137167"
     inkscape:flatsided="false"
     inkscape:rounded="0"
     inkscape:randomized="0"
     d="m 26.186162,42.186162 -1.889148,-0.640629 -1.598722,1.193053 0.0255,-1.994652 -1.628693,-1.1518 L 23,39 l 0.592133,-1.904906 1.151801,1.628694 1.994652,-0.0255 -1.193053,1.598722 z"
     inkscape:transform-center-x="0.071920968"
     inkscape:transform-center-y="-0.070454206"
     transform="matrix(0.18501068,0,0,0.18123731,21.744754,32.931745)" />
  <path
     sodipodi:type="star"
     style="fill:#fffaf5;fill-opacity:0.992157;stroke:none;stroke-width:2.12411;stroke-linecap:square;stroke-linejoin:round"
     id="path851"
     sodipodi:sides="5"
     sodipodi:cx="24.062054"
     sodipodi:cy="40.062054"
     sodipodi:r1="3.0039427"
     sodipodi:r2="1.5019712"
     sodipodi:arg1="0.78539816"
     sodipodi:arg2="1.4137167"
     inkscape:flatsided="false"
     inkscape:rounded="0"
     inkscape:randomized="0"
     d="m 26.186162,42.186162 -1.889148,-0.640629 -1.598722,1.193053 0.0255,-1.994652 -1.628693,-1.1518 L 23,39 l 0.592133,-1.904906 1.151801,1.628694 1.994652,-0.0255 -1.193053,1.598722 z"
     inkscape:transform-center-x="0.071920968"
     inkscape:transform-center-y="-0.070454206"
     transform="matrix(0.18501068,0,0,0.18123731,28.504793,23.470399)" />
  <path
     sodipodi:type="star"
     style="fill:#fffaf5;fill-opacity:0.992157;stroke:none;stroke-width:2.12411;stroke-linecap:square;stroke-linejoin:round"
     id="path853"
     sodipodi:sides="5"
     sodipodi:cx="24.062054"
     sodipodi:cy="40.062054"
     sodipodi:r1="3.0039427"
     sodipodi:r2="1.5019712"
     sodipodi:arg1="0.78539816"
     sodipodi:arg2="1.4137167"
     inkscape:flatsided="false"
     inkscape:rounded="0"
     inkscape:randomized="0"
     d="m 26.186162,42.186162 -1.889148,-0.640629 -1.598722,1.193053 0.0255,-1.994652 -1.628693,-1.1518 L 23,39 l 0.592133,-1.904906 1.151801,1.628694 1.994652,-0.0255 -1.193053,1.598722 z"
     inkscape:transform-center-x="0.071920968"
     inkscape:transform-center-y="-0.070454206"
     transform="matrix(0.18501068,0,0,0.18123731,13.795857,31.615679)" />
  <path
     sodipodi:type="star"
     style="fill:#fffaf5;fill-opacity:0.992157;stroke:none;stroke-width:2.12411;stroke-linecap:square;stroke-linejoin:round"
     id="path855"
     sodipodi:sides="5"
     sodipodi:cx="24.062054"
     sodipodi:cy="40.062054"
     sodipodi:r1="3.0039427"
     sodipodi:r2="1.5019712"
     sodipodi:arg1="0.78539816"
     sodipodi:arg2="1.4137167"
     inkscape:flatsided="false"
     inkscape:rounded="0"
     inkscape:randomized="0"
     d="m 26.186162,42.186162 -1.889148,-0.640629 -1.598722,1.193053 0.0255,-1.994652 -1.628693,-1.1518 L 23,39 l 0.592133,-1.904906 1.151801,1.628694 1.994652,-0.0255 -1.193053,1.598722 z"
     inkscape:transform-center-x="0.071920968"
     inkscape:transform-center-y="-0.070454206"
     transform="matrix(0.18501068,0,0,0.18123731,16.504793,27.470399)" />
  <path
     sodipodi:type="star"
     style="fill:#fffaf5;fill-opacity:0.992157;stroke:none;stroke-width:2.12411;stroke-linecap:square;stroke-linejoin:round"
     id="path857"
     sodipodi:sides="5"
     sodipodi:cx="24.062054"
     sodipodi:cy="40.062054"
     sodipodi:r1="3.0039427"
     sodipodi:r2="1.5019712"
     sodipodi:arg1="0.78539816"
     sodipodi:arg2="1.4137167"
     inkscape:flatsided="false"
     inkscape:rounded="0"
     inkscape:randomized="0"
     d="m 26.186162,42.186162 -1.889148,-0.640629 -1.598722,1.193053 0.0255,-1.994652 -1.628693,-1.1518 L 23,39 l 0.592133,-1.904906 1.151801,1.628694 1.994652,-0.0255 -1.193053,1.598722 z"
     inkscape:transform-center-x="0.071920968"
     inkscape:transform-center-y="-0.070454206"
     transform="matrix(0.18501068,0,0,0.18123731,22.504793,21.470399)" />
  <path
     sodipodi:type="star"
     style="fill:#fffaf5;fill-opacity:0.992157;stroke:none;stroke-width:2.12411;stroke-linecap:square;stroke-linejoin:round"
     id="path859"
     sodipodi:sides="5"
     sodipodi:cx="24.062054"
     sodipodi:cy="40.062054"
     sodipodi:r1="3.0039427"
     sodipodi:r2="1.5019712"
     sodipodi:arg1="0.78539816"
     sodipodi:arg2="1.4137167"
     inkscape:flatsided="false"
     inkscape:rounded="0"
     inkscape:randomized="0"
     d="m 26.186162,42.186162 -1.889148,-0.640629 -1.598722,1.193053 0.0255,-1.994652 -1.628693,-1.1518 L 23,39 l 0.592133,-1.904906 1.151801,1.628694 1.994652,-0.0255 -1.193053,1.598722 z"
     inkscape:transform-center-x="0.071920968"
     inkscape:transform-center-y="-0.070454206"
     transform="matrix(0.18501068,0,0,0.18123731,35.273804,22.696678)" />
  <path
     sodipodi:type="star"
     style="fill:#fffaf5;fill-opacity:0.992157;stroke:none;stroke-width:2.12411;stroke-linecap:square;stroke-linejoin:round"
     id="path861"
     sodipodi:sides="5"
     sodipodi:cx="24.062054"
     sodipodi:cy="40.062054"
     sodipodi:r1="3.0039427"
     sodipodi:r2="1.5019712"
     sodipodi:arg1="0.78539816"
     sodipodi:arg2="1.4137167"
     inkscape:flatsided="false"
     inkscape:rounded="0"
     inkscape:randomized="0"
     d="m 26.186162,42.186162 -1.889148,-0.640629 -1.598722,1.193053 0.0255,-1.994652 -1.628693,-1.1518 L 23,39 l 0.592133,-1.904906 1.151801,1.628694 1.994652,-0.0255 -1.193053,1.598722 z"
     inkscape:transform-center-x="0.071920968"
     inkscape:transform-center-y="-0.070454206"
     transform="matrix(0.18501068,0,0,0.18123731,25.273804,17.696678)" />
</svg>
