<svg height="48" width="48" xmlns="http://www.w3.org/2000/svg"><path d="m44.322082 27.405077a19.729762 19.729765 0 0 1 -19.729762 19.729765 19.729762 19.729765 0 0 1 -19.7297621-19.729765 19.729762 19.729765 0 0 1 19.7297621-19.7297632 19.729762 19.729765 0 0 1 19.729762 19.7297632z" fill="#5f8dd3" opacity=".99" transform="matrix(1.1503549 0 0 1.1503549 -4.486125 -7.525565)"/><g fill="none" stroke="#fff"><path d="m24 3v6" stroke-opacity=".423313" stroke-width="2.5"/><path d="m24 39v6" stroke-opacity=".423313" stroke-width="2.5"/><path d="m39 24h6" stroke-opacity=".423313" stroke-width="2.5"/><path d="m3 24h6" stroke-opacity=".423313" stroke-width="2.5"/><path d="m28.5 12-4.5 12 7.5 6" stroke-linecap="round" stroke-opacity=".509202" stroke-width="1.5"/></g><path d="m26.996573 24.143347a3 3 0 0 1 -3.134449 2.853483 3 3 0 0 1 -2.859201-3.129234 3 3 0 0 1 3.124009-2.864909 3 3 0 0 1 2.870608 3.118773" fill="#fff"/></svg>