<?xml version="1.0" encoding="UTF-8" standalone="no"?>
<svg
   xmlns:dc="http://purl.org/dc/elements/1.1/"
   xmlns:cc="http://creativecommons.org/ns#"
   xmlns:rdf="http://www.w3.org/1999/02/22-rdf-syntax-ns#"
   xmlns:svg="http://www.w3.org/2000/svg"
   xmlns="http://www.w3.org/2000/svg"
   xmlns:sodipodi="http://sodipodi.sourceforge.net/DTD/sodipodi-0.dtd"
   xmlns:inkscape="http://www.inkscape.org/namespaces/inkscape"
   height="48"
   width="48"
   version="1.1"
   id="svg6"
   sodipodi:docname="origin.svg"
   inkscape:version="1.0.2 (e86c870879, 2021-01-15)">
  <metadata
     id="metadata12">
    <rdf:RDF>
      <cc:Work
         rdf:about="">
        <dc:format>image/svg+xml</dc:format>
        <dc:type
           rdf:resource="http://purl.org/dc/dcmitype/StillImage" />
        <dc:title></dc:title>
      </cc:Work>
    </rdf:RDF>
  </metadata>
  <defs
     id="defs10">
    <linearGradient
       gradientUnits="userSpaceOnUse"
       gradientTransform="matrix(0.0920001,0,0,0.09064843,-21.193131,1.5846311)"
       y2="269.48999"
       y1="235.14999"
       x2="657.65002"
       x1="319.20999"
       id="a-12">
      <stop
         id="stop1076"
         offset="0"
         stop-color="#e54c18" />
      <stop
         id="stop1078"
         offset="1"
         stop-color="#fec350" />
    </linearGradient>
  </defs>
  <sodipodi:namedview
     pagecolor="#ffffff"
     bordercolor="#666666"
     borderopacity="1"
     objecttolerance="10"
     gridtolerance="10"
     guidetolerance="10"
     inkscape:pageopacity="0"
     inkscape:pageshadow="2"
     inkscape:window-width="1920"
     inkscape:window-height="1031"
     id="namedview8"
     showgrid="true"
     inkscape:zoom="9.2708334"
     inkscape:cx="26.85424"
     inkscape:cy="24.131477"
     inkscape:window-x="0"
     inkscape:window-y="24"
     inkscape:window-maximized="1"
     inkscape:current-layer="svg6"
     inkscape:document-rotation="0">
    <inkscape:grid
       type="xygrid"
       id="grid837" />
  </sodipodi:namedview>
  <circle
     cx="23.940615"
     cy="31.534513"
     fill="#74a2f3"
     opacity=".99"
     r="13.232998"
     transform="matrix(1.75830584759 0 0 1.75830608345 -18.15909274367 -30.97874795549)"
     id="circle2"
     style="fill:#dfc092;fill-opacity:1" />
  <ellipse
     cx="23.935829"
     cy="24.468578"
     fill="#74a2f3"
     opacity="0.99"
     id="circle1966"
     style="fill:#ffffff;fill-opacity:0.222457;stroke-width:1.54862"
     rx="20.492931"
     ry="20.492933" />
  <path
     id="path1415"
     d="M 23.722044,7.9204804 C 23.506637,7.9029734 23.253811,7.9559814 22.978435,8.1047035 15.505407,12.136743 11.138502,19.417874 11.204707,24.272441 c 0.09572,7.060927 5.514223,12.840926 13.594373,12.644472 -0.371326,1.882771 -1.48746,2.505963 -1.322905,3.40165 0.06501,0.354291 0.583374,0.961894 1.285723,0.579296 7.172467,-3.907303 11.759337,-10.884998 11.900622,-15.909155 0.193097,-6.86519 -5.029914,-13.377046 -13.628673,-12.940474 0.203653,-0.950141 0.681002,-1.792818 1.278048,-2.7774995 0.372284,-0.614077 0.05661,-1.2974777 -0.58937,-1.3500099 z m 0.213969,11.4558946 c 2.812281,0 5.092281,2.280001 5.092281,5.092762 0,2.81252 -2.28,5.092521 -5.092281,5.092521 -2.81252,0 -5.092522,-2.280001 -5.092522,-5.092521 0,-2.812761 2.280002,-5.092762 5.092522,-5.092762 z"
     inkscape:connector-curvature="0"
     style="opacity:1;isolation:isolate;fill:#ffffff;fill-opacity:1;fill-rule:evenodd;stroke-width:0.239874" />
</svg>
