<svg height="48" width="48" xmlns="http://www.w3.org/2000/svg"><path d="m23.804688 1.3046875a22.696228 22.696232 0 0 0 -22.6054692 20.8593745v3.730469a22.696228 22.696232 0 0 0 22.6054692 20.800781 22.696228 22.696232 0 0 0 22.695312-22.695312 22.696228 22.696232 0 0 0 -22.695312-22.6953125z" fill="#72a5d4"/><path d="m16.300781 2.6054688a22.696228 22.696232 0 0 0 -15.1015622 19.5585932v3.730469a22.696228 22.696232 0 0 0 15.1015622 19.498047z" fill="#f88c6b"/><path d="m23.804688 1.3046875a22.696228 22.696232 0 0 0 -7.503907 1.3007813v42.7871092a22.696228 22.696232 0 0 0 7.503907 1.302734 22.696228 22.696232 0 0 0 7.595703-1.332031v-42.7207029a22.696228 22.696232 0 0 0 -7.595703-1.3378906z" fill="#7fe49b" opacity=".99" transform="matrix(.99999999448 0 0 .99999999448 -.00000087021 .00000038841)"/><path d="m13.379369 13.10711a1.2100947 1.3478442 0 0 0 -1.168615.993855l-4.6577434 19.089911a1.2100947 1.3478442 0 0 0 1.1670952 1.702013h5.3719822a1.2100947 1.3478442 0 0 0 1.167094-.995375l4.657744-19.089909a1.2100947 1.3478442 0 0 0 -1.167095-1.700495zm10.114825 0a1.2100947 1.3478442 0 0 0 -1.168614.993855l-4.657744 19.089911a1.2100947 1.3478442 0 0 0 1.167096 1.702013h5.371981a1.2100947 1.3478442 0 0 0 1.167096-.995375l4.657743-19.089909a1.2100947 1.3478442 0 0 0 -1.167095-1.700495zm10.114827 0a1.2100947 1.3478442 0 0 0 -1.168615.993855l-4.657744 19.089911a1.2100947 1.3478442 0 0 0 1.167095 1.702013h5.371982a1.2100947 1.3478442 0 0 0 1.167096-.995375l4.657743-19.089909a1.2100947 1.3478442 0 0 0 -1.167095-1.700495z" fill="#fff" stroke-width=".778063"/></svg>