<?xml version="1.0" encoding="UTF-8" standalone="no"?>
<svg
   xmlns:dc="http://purl.org/dc/elements/1.1/"
   xmlns:cc="http://creativecommons.org/ns#"
   xmlns:rdf="http://www.w3.org/1999/02/22-rdf-syntax-ns#"
   xmlns:svg="http://www.w3.org/2000/svg"
   xmlns="http://www.w3.org/2000/svg"
   xmlns:sodipodi="http://sodipodi.sourceforge.net/DTD/sodipodi-0.dtd"
   xmlns:inkscape="http://www.inkscape.org/namespaces/inkscape"
   height="48"
   width="48"
   version="1.1"
   id="svg6"
   sodipodi:docname="pcsxr-icon.svg"
   inkscape:version="1.0.2 (e86c870879, 2021-01-15)">
  <metadata
     id="metadata12">
    <rdf:RDF>
      <cc:Work
         rdf:about="">
        <dc:format>image/svg+xml</dc:format>
        <dc:type
           rdf:resource="http://purl.org/dc/dcmitype/StillImage" />
        <dc:title></dc:title>
      </cc:Work>
    </rdf:RDF>
  </metadata>
  <defs
     id="defs10" />
  <sodipodi:namedview
     pagecolor="#ffffff"
     bordercolor="#666666"
     borderopacity="1"
     objecttolerance="10"
     gridtolerance="10"
     guidetolerance="10"
     inkscape:pageopacity="0"
     inkscape:pageshadow="2"
     inkscape:window-width="1920"
     inkscape:window-height="1031"
     id="namedview8"
     showgrid="true"
     inkscape:zoom="9.2708334"
     inkscape:cx="28.510148"
     inkscape:cy="31.462763"
     inkscape:window-x="0"
     inkscape:window-y="24"
     inkscape:window-maximized="1"
     inkscape:current-layer="svg6"
     inkscape:document-rotation="0">
    <inkscape:grid
       type="xygrid"
       id="grid837" />
  </sodipodi:namedview>
  <circle
     cx="23.940615"
     cy="31.534513"
     fill="#74a2f3"
     opacity=".99"
     r="13.232998"
     transform="matrix(1.75830584759 0 0 1.75830608345 -18.15909274367 -30.97874795549)"
     id="circle2"
     style="fill:#adb6cb;fill-opacity:1" />
  <circle
     style="fill:#ffffff;fill-opacity:1;stroke-width:0.954029;stroke-dasharray:0.954029, 1.90806000000000009;opacity:1"
     id="path847"
     cx="23.935829"
     cy="24.468578"
     r="19.887896" />
  <path
     style="fill:#d48787;fill-opacity:1;fill-rule:evenodd;stroke-width:0.157048"
     class="cls-2"
     id="path-1"
     d="m 39.175398,30.038847 c -0.607416,0.766332 -2.095585,1.313009 -2.095585,1.313009 0,0 -11.070513,3.97645 -11.070513,3.97645 0,0 0,-2.932541 0,-2.932541 0,0 8.147144,-2.902885 8.147144,-2.902885 0.924545,-0.331255 1.06651,-0.799529 0.315011,-1.045321 -0.75009,-0.246499 -2.108299,-0.175867 -3.03355,0.156798 0,0 -5.428605,1.911948 -5.428605,1.911948 0,0 0,-3.043437 0,-3.043437 0,0 0.312889,-0.105945 0.312889,-0.105945 0,0 1.568688,-0.55515 3.774456,-0.799529 2.205769,-0.242967 4.906651,0.03319 7.026957,0.836964 2.389406,0.755031 2.658505,1.868156 2.051796,2.634489 z m -12.1123,-4.993525 c 0,0 0,-7.499471 0,-7.499471 0,-0.880752 -0.16245,-1.691583 -0.988818,-1.921129 -0.632844,-0.202708 -1.025546,0.384931 -1.025546,1.264979 0,0 0,18.780459 0,18.780459 0,0 -5.064861,-1.607534 -5.064861,-1.607534 0,0 0,-22.392466 0,-22.392466 2.153502,0.399764 5.290876,1.344791 6.977516,1.913361 4.289347,1.47263 5.743615,3.305475 5.743615,7.435197 0,4.025192 -2.484757,5.550794 -5.641906,4.026604 z M 10.690406,32.089227 C 8.2374337,31.398471 7.8291947,29.959036 8.9472634,29.129843 9.980577,28.364215 11.737846,27.787876 11.737846,27.787876 c 0,0 7.262154,-2.582224 7.262154,-2.582224 0,0 0,2.943849 0,2.943849 0,0 -5.225896,1.870277 -5.225896,1.870277 -0.923132,0.331253 -1.065099,0.800235 -0.31501,1.046028 0.750795,0.24579 2.109711,0.175868 3.034254,-0.156093 C 16.493348,30.909713 19,30 19,30 c 0,0 0,2.633791 0,2.633791 -0.158916,0.02827 -0.336196,0.05652 -0.500058,0.08411 -2.507358,0.40966 -5.17787,0.238733 -7.809536,-0.628606 z m 26.871808,1.166106 c 0.317127,0 0.614478,0.122838 0.838374,0.349613 0.223898,0.223187 0.3475,0.521245 0.3475,0.837662 0,0.317843 -0.123599,0.61449 -0.3475,0.837677 -0.223896,0.225308 -0.521247,0.3482 -0.838374,0.3482 -0.317128,0 -0.613775,-0.122838 -0.838376,-0.3482 -0.223897,-0.223187 -0.346792,-0.519834 -0.346792,-0.837677 0,-0.65403 0.531134,-1.187275 1.185168,-1.187275 z m -0.985993,1.187275 c 0,0.26345 0.102415,0.511368 0.288876,0.696413 0.185757,0.187872 0.434373,0.28958 0.697117,0.28958 0.544554,0 0.98599,-0.442135 0.98599,-0.985993 0,-0.264142 -0.101708,-0.51206 -0.288875,-0.697812 -0.185757,-0.187885 -0.434373,-0.288886 -0.697115,-0.288886 -0.262744,0 -0.51136,0.100955 -0.697117,0.288886 -0.186464,0.185752 -0.288876,0.43367 -0.288876,0.697812 z m 1.344085,-0.639192 c 0.129959,0.05721 0.195644,0.167394 0.195644,0.324189 0,0.08058 -0.01696,0.14833 -0.05156,0.201296 -0.02472,0.03818 -0.06003,0.06916 -0.09959,0.09607 0.03108,0.01834 0.05862,0.04022 0.07912,0.06563 0.02826,0.03669 0.0445,0.09539 0.04662,0.175166 0,0 0.0064,0.168794 0.0064,0.168794 0.0022,0.04525 0.0049,0.07976 0.01196,0.100956 0.0071,0.03112 0.02048,0.05082 0.03744,0.05721 0,0 0.01767,0.0082 0.01767,0.0082 0,0 0,0.01902 0,0.01902 0,0 0,0.02894 0,0.02894 0,0 0,0.02894 0,0.02894 0,0 -0.02895,0 -0.02895,0 0,0 -0.209772,0 -0.209772,0 0,0 -0.01695,0 -0.01695,0 0,0 -0.0084,-0.01481 -0.0084,-0.01481 -0.0071,-0.01413 -0.01196,-0.03043 -0.01695,-0.0515 -0.0035,-0.01902 -0.0071,-0.05232 -0.0093,-0.103134 0,0 -0.01057,-0.209762 -0.01057,-0.209762 -0.0028,-0.0727 -0.02754,-0.117947 -0.07416,-0.141971 -0.02895,-0.01358 -0.07699,-0.01971 -0.141967,-0.01971 0,0 -0.359505,0 -0.359505,0 0,0 0,0.512061 0,0.512061 0,0 0,0.02894 0,0.02894 0,0 -0.02966,0 -0.02966,0 0,0 -0.170925,0 -0.170925,0 0,0 -0.02895,0 -0.02895,0 0,0 0,-0.02894 0,-0.02894 0,0 0,-1.26216 0,-1.26216 0,0 0,-0.02894 0,-0.02894 0,0 0.02895,0 0.02895,0 0,0 0.584108,0 0.584108,0 0.100291,0 0.184345,0.01481 0.249325,0.04525 z m -0.632842,0.531845 c 0,0 0.365861,0 0.365861,0 0.07346,0 0.132078,-0.01358 0.17375,-0.04103 0.03815,-0.02758 0.0565,-0.07772 0.0565,-0.150436 0,-0.07908 -0.02613,-0.130719 -0.08122,-0.158222 -0.03037,-0.01481 -0.07275,-0.02338 -0.126426,-0.02338 0,0 -0.388463,0 -0.388463,0 0,0 0,0.372931 0,0.372931 z" />
</svg>
