<svg height="48" width="48" xmlns="http://www.w3.org/2000/svg"><path d="m44.322082 27.405077a19.729762 19.729765 0 0 1 -19.729762 19.729765 19.729762 19.729765 0 0 1 -19.7297621-19.729765 19.729762 19.729765 0 0 1 19.7297621-19.7297632 19.729762 19.729765 0 0 1 19.729762 19.7297632z" fill="#b96364" opacity=".99" transform="matrix(1.1503549 0 0 1.1503549 -4.486125 -7.525565)"/><g fill="#fff" transform="matrix(1.5416667 0 0 1.5416667 -.862896 -1.4375)"><path d="m15 19c-2.1 2.8-1.978498 5.023192-2.5 8-.700624-3.156686-.4-5.2-2.5-8l2.5.5z"/><path d="m22 19c-2.1 2.8-1.978498 5.023192-2.5 8-.700624-3.156686-.4-5.2-2.5-8l2.5.5z"/><path d="m10 13c2.8 2.1 9.023192 1.978498 12 2.5-3.156686.700624-9.2.4-12 2.5l.5-2.5z"/><path d="m10 6c2.8 2.1 9.023192 1.978498 12 2.5-3.156686.700624-9.2.4-12 2.5l.5-2.5z"/><path d="m12 9.5000003c2.8 2.0999997 5.023192 1.9784977 8 2.4999997-3.156686.700624-5.2.4-8 2.5l.5-2.5z"/></g></svg>