<svg height="48" width="48" xmlns="http://www.w3.org/2000/svg"><path d="m44.322082 27.405077a19.729762 19.729765 0 0 1 -19.729762 19.729765 19.729762 19.729765 0 0 1 -19.7297621-19.729765 19.729762 19.729765 0 0 1 19.7297621-19.7297632 19.729762 19.729765 0 0 1 19.729762 19.7297632z" fill="#299595" opacity=".99" transform="matrix(1.1503549 0 0 1.1503549 -4.486125 -7.525565)"/><path d="m13.5 25.5v-12.6c0-.4986.4014-.9.9-.9h19.2c.4986 0 .9.4014.9.9v12.6" fill="none" stroke="#fff" stroke-linejoin="round" stroke-width="1.6"/><path d="m12 27h24v9h-24z" fill="#fff" fill-opacity=".363636"/><path d="m18 28.5h3v6.000001h-3z" fill="#299595"/><path d="m18 30h3v4.5h-3z" fill="#fff"/><path d="m27 28.5h3v6.000001h-3z" fill="#299595"/><g fill="#fff"><path d="m27 31.5h3v3h-3z"/><path d="m15 25.5 6-7.5 6 7.5z"/><path d="m27.9 25.5-3.9-4.5.9-1.2 8.4 5.7z"/><circle cx="29.25" cy="17.25" r="2.25"/></g></svg>