<?xml version="1.0" encoding="UTF-8" standalone="no"?>
<svg
   xmlns:dc="http://purl.org/dc/elements/1.1/"
   xmlns:cc="http://creativecommons.org/ns#"
   xmlns:rdf="http://www.w3.org/1999/02/22-rdf-syntax-ns#"
   xmlns:svg="http://www.w3.org/2000/svg"
   xmlns="http://www.w3.org/2000/svg"
   xmlns:xlink="http://www.w3.org/1999/xlink"
   xmlns:sodipodi="http://sodipodi.sourceforge.net/DTD/sodipodi-0.dtd"
   xmlns:inkscape="http://www.inkscape.org/namespaces/inkscape"
   height="48"
   width="48"
   version="1.1"
   id="svg6"
   sodipodi:docname="photoscape.svg"
   inkscape:version="0.92.4 (5da689c313, 2019-01-14)">
  <metadata
     id="metadata12">
    <rdf:RDF>
      <cc:Work
         rdf:about="">
        <dc:format>image/svg+xml</dc:format>
        <dc:type
           rdf:resource="http://purl.org/dc/dcmitype/StillImage" />
        <dc:title></dc:title>
      </cc:Work>
    </rdf:RDF>
  </metadata>
  <defs
     id="defs10">
    <linearGradient
       inkscape:collect="always"
       id="linearGradient5113">
      <stop
         style="stop-color:#86d3af;stop-opacity:0.99607843"
         offset="0"
         id="stop5109" />
      <stop
         style="stop-color:#6fbbde;stop-opacity:1"
         offset="1"
         id="stop5111" />
    </linearGradient>
    <linearGradient
       id="linearGradient879"
       inkscape:collect="always">
      <stop
         id="stop875"
         offset="0"
         style="stop-color:#1461ff;stop-opacity:1" />
      <stop
         id="stop877"
         offset="1"
         style="stop-color:#91ff68;stop-opacity:1" />
    </linearGradient>
    <linearGradient
       id="linearGradient3866">
      <stop
         id="stop3868"
         offset="0"
         style="stop-color:#000000;stop-opacity:0.52083331" />
      <stop
         id="stop3870"
         offset="1"
         style="stop-color:#2883c3;stop-opacity:0;" />
    </linearGradient>
    <linearGradient
       id="linearGradient3874">
      <stop
         id="stop3876"
         offset="0"
         style="stop-color:#000d0e;stop-opacity:0.84105963;" />
      <stop
         id="stop3878"
         offset="1"
         style="stop-color:#000000;stop-opacity:0;" />
    </linearGradient>
    <clipPath
       id="clipPath4178"
       clipPathUnits="userSpaceOnUse">
      <circle
         style="opacity:1;fill:#1c5266;fill-opacity:0.19099205;fill-rule:evenodd;stroke:none;stroke-width:3.33392239;stroke-linecap:butt;stroke-linejoin:miter;stroke-miterlimit:4;stroke-dasharray:none;stroke-dashoffset:0;stroke-opacity:1"
         id="circle4180"
         cx="204.3168"
         cy="222.68037"
         r="225" />
    </clipPath>
    <clipPath
       id="clipPath4178-1"
       clipPathUnits="userSpaceOnUse">
      <circle
         style="opacity:1;fill:#1c5266;fill-opacity:0.19099205;fill-rule:evenodd;stroke:none;stroke-width:3.33392239;stroke-linecap:butt;stroke-linejoin:miter;stroke-miterlimit:4;stroke-dasharray:none;stroke-dashoffset:0;stroke-opacity:1"
         id="circle4180-7"
         cx="204.3168"
         cy="222.68037"
         r="225" />
    </clipPath>
    <clipPath
       clipPathUnits="userSpaceOnUse"
       id="clipPath892">
      <path
         style="fill:#ffffff;fill-opacity:0.25520833;stroke:none;stroke-width:1.52630627;stroke-linecap:round;stroke-linejoin:round;stroke-miterlimit:4;stroke-dasharray:none;stroke-opacity:1"
         d="M 38.524123,20.232391 V 51.2388 h 3.597154 V 20.232391 Z M 14.125746,21.0025 V 52.010565 H 17.7229 V 21.0025 Z M 5.9924018,21.259203 V 52.267267 H 9.591212 V 21.259203 Z m 24.3983772,1.37129 v 31.006409 h 3.597153 V 22.630493 Z m -20.330877,1.626338 v 31.008065 h 3.597154 V 24.256831 Z m 24.396721,0.08612 v 31.008065 h 3.598809 V 24.342951 Z M 1.9265577,25.798705 V 56.80677 H 5.5237118 V 25.798705 Z m 16.2650323,0.08612 v 31.008064 h 3.597155 V 25.884825 Z m 24.398377,0 v 31.008064 h 3.597154 V 25.884825 Z m -16.265033,2.22752 v 31.006408 h 3.597155 V 28.112345 Z M 22.25909,30.76715 v 31.008065 h 3.597155 V 30.76715 Z"
         id="path894"
         inkscape:connector-curvature="0" />
    </clipPath>
    <clipPath
       id="clipPath3881"
       clipPathUnits="userSpaceOnUse">
      <path
         transform="translate(-412,-17)"
         d="m 643,152.5 a 103.5,103.5 0 1 1 -207,0 103.5,103.5 0 1 1 207,0 z"
         sodipodi:ry="103.5"
         sodipodi:rx="103.5"
         sodipodi:cy="152.5"
         sodipodi:cx="539.5"
         id="path3883"
         style="fill:#008dff;fill-opacity:1;fill-rule:evenodd;stroke:none"
         sodipodi:type="arc" />
    </clipPath>
    <linearGradient
       id="linearGradient4019">
      <stop
         id="stop4021"
         style="stop-color:#adcce1;stop-opacity:1;"
         offset="0" />
      <stop
         id="stop4023"
         style="stop-color:#6bbfe1;stop-opacity:1;"
         offset="0.26238" />
      <stop
         id="stop4025"
         style="stop-color:#2596d1;stop-opacity:1;"
         offset="0.74620908" />
      <stop
         id="stop4027"
         style="stop-color:#2372c0;stop-opacity:1;"
         offset="1" />
    </linearGradient>
    <linearGradient
       id="linearGradient4085">
      <stop
         id="stop4087"
         style="stop-color:#ffffff;stop-opacity:1"
         offset="0" />
      <stop
         id="stop4089"
         style="stop-color:#ffffff;stop-opacity:0.2"
         offset="0.06316455" />
      <stop
         id="stop4091"
         style="stop-color:#ffffff;stop-opacity:0.2"
         offset="0.95056331" />
      <stop
         id="stop4093"
         style="stop-color:#ffffff;stop-opacity:0.39215687"
         offset="1" />
    </linearGradient>
    <filter
       color-interpolation-filters="sRGB"
       id="filter3174">
      <feGaussianBlur
         id="feGaussianBlur3176"
         stdDeviation="1.71" />
    </filter>
    <linearGradient
       x1="45.447727"
       y1="92.539597"
       x2="45.447727"
       y2="7.0165396"
       id="ButtonShadow"
       gradientUnits="userSpaceOnUse"
       gradientTransform="scale(1.0058652,0.994169)">
      <stop
         id="stop3750"
         style="stop-color:#000000;stop-opacity:1"
         offset="0" />
      <stop
         id="stop3752"
         style="stop-color:#000000;stop-opacity:0.58823532"
         offset="1" />
    </linearGradient>
    <linearGradient
       id="linearGradient5048-8-7">
      <stop
         id="stop5050-4-2"
         style="stop-color:#000000;stop-opacity:0"
         offset="0" />
      <stop
         id="stop5056-7-4"
         style="stop-color:#000000;stop-opacity:1"
         offset="0.5" />
      <stop
         id="stop5052-0-1-7"
         style="stop-color:#000000;stop-opacity:0"
         offset="1" />
    </linearGradient>
    <linearGradient
       id="linearGradient5060-29-0">
      <stop
         id="stop5062-9-7"
         style="stop-color:#000000;stop-opacity:1"
         offset="0" />
      <stop
         id="stop5064-08-2"
         style="stop-color:#000000;stop-opacity:0"
         offset="1" />
    </linearGradient>
    <linearGradient
       id="linearGradient3851">
      <stop
         offset="0"
         style="stop-color:#5b8da7;stop-opacity:1;"
         id="stop3853" />
      <stop
         offset="1"
         style="stop-color:#1c3447;stop-opacity:1;"
         id="stop3855" />
    </linearGradient>
    <filter
       color-interpolation-filters="sRGB"
       id="filter3174-0">
      <feGaussianBlur
         id="feGaussianBlur3176-9"
         stdDeviation="1.71" />
    </filter>
    <filter
       color-interpolation-filters="sRGB"
       id="filter3174-5">
      <feGaussianBlur
         id="feGaussianBlur3176-35"
         stdDeviation="1.71" />
    </filter>
    <filter
       color-interpolation-filters="sRGB"
       id="filter3174-0-9">
      <feGaussianBlur
         id="feGaussianBlur3176-9-36"
         stdDeviation="1.71" />
    </filter>
    <linearGradient
       id="linearGradient3780">
      <stop
         style="stop-color:#ffffff;stop-opacity:0.39175257"
         offset="0"
         id="stop3782" />
      <stop
         id="stop4585"
         offset="0.5"
         style="stop-color:#ffffff;stop-opacity:0" />
      <stop
         style="stop-color:#ffffff;stop-opacity:0.30927834"
         offset="1"
         id="stop3784" />
    </linearGradient>
    <linearGradient
       id="linearGradient2490-3">
      <stop
         id="stop2492-3"
         style="stop-color:#136383;stop-opacity:1;"
         offset="0" />
      <stop
         id="stop2494-8"
         style="stop-color:#46a9d2;stop-opacity:1;"
         offset="1" />
    </linearGradient>
    <linearGradient
       id="linearGradient3242-7">
      <stop
         id="stop3244-5"
         style="stop-color:#92e1f4;stop-opacity:1;"
         offset="0" />
      <stop
         id="stop3246-9"
         style="stop-color:#8cd9f0;stop-opacity:1;"
         offset="0.26238" />
      <stop
         id="stop3248-7"
         style="stop-color:#38a4cd;stop-opacity:1;"
         offset="0.66093999" />
      <stop
         id="stop3250-8"
         style="stop-color:#37a4cd;stop-opacity:1;"
         offset="1" />
    </linearGradient>
    <filter
       id="filter3174-2"
       color-interpolation-filters="sRGB">
      <feGaussianBlur
         stdDeviation="1.71"
         id="feGaussianBlur3176-68" />
    </filter>
    <filter
       color-interpolation-filters="sRGB"
       id="filter3174-8">
      <feGaussianBlur
         id="feGaussianBlur3176-3"
         stdDeviation="1.71" />
    </filter>
    <filter
       color-interpolation-filters="sRGB"
       id="filter3174-4">
      <feGaussianBlur
         id="feGaussianBlur3176-4"
         stdDeviation="1.71" />
    </filter>
    <filter
       color-interpolation-filters="sRGB"
       id="filter3174-0-8">
      <feGaussianBlur
         id="feGaussianBlur3176-9-70"
         stdDeviation="1.71" />
    </filter>
    <filter
       color-interpolation-filters="sRGB"
       id="filter3174-9">
      <feGaussianBlur
         id="feGaussianBlur3176-5"
         stdDeviation="1.71" />
    </filter>
    <filter
       color-interpolation-filters="sRGB"
       id="filter3174-0-5">
      <feGaussianBlur
         id="feGaussianBlur3176-9-9"
         stdDeviation="1.71" />
    </filter>
    <filter
       color-interpolation-filters="sRGB"
       id="filter3174-3">
      <feGaussianBlur
         id="feGaussianBlur3176-2"
         stdDeviation="1.71" />
    </filter>
    <filter
       color-interpolation-filters="sRGB"
       id="filter3174-0-2">
      <feGaussianBlur
         id="feGaussianBlur3176-9-7"
         stdDeviation="1.71" />
    </filter>
    <filter
       color-interpolation-filters="sRGB"
       id="filter3174-7">
      <feGaussianBlur
         id="feGaussianBlur3176-1"
         stdDeviation="1.71" />
    </filter>
    <filter
       color-interpolation-filters="sRGB"
       id="filter3174-0-7">
      <feGaussianBlur
         id="feGaussianBlur3176-9-0"
         stdDeviation="1.71" />
    </filter>
    <filter
       color-interpolation-filters="sRGB"
       id="filter3174-00">
      <feGaussianBlur
         id="feGaussianBlur3176-28"
         stdDeviation="1.71" />
    </filter>
    <filter
       color-interpolation-filters="sRGB"
       id="filter3174-88">
      <feGaussianBlur
         id="feGaussianBlur3176-8"
         stdDeviation="1.71" />
    </filter>
    <filter
       color-interpolation-filters="sRGB"
       id="filter3174-0-35">
      <feGaussianBlur
         id="feGaussianBlur3176-9-75"
         stdDeviation="1.71" />
    </filter>
    <filter
       id="filter3174-31"
       color-interpolation-filters="sRGB">
      <feGaussianBlur
         stdDeviation="1.71"
         id="feGaussianBlur3176-22" />
    </filter>
    <filter
       color-interpolation-filters="sRGB"
       id="filter3174-8-7">
      <feGaussianBlur
         id="feGaussianBlur3176-3-7"
         stdDeviation="1.71" />
    </filter>
    <filter
       color-interpolation-filters="sRGB"
       id="filter3174-4-1">
      <feGaussianBlur
         id="feGaussianBlur3176-4-5"
         stdDeviation="1.71" />
    </filter>
    <filter
       color-interpolation-filters="sRGB"
       id="filter3174-0-3">
      <feGaussianBlur
         id="feGaussianBlur3176-9-4"
         stdDeviation="1.71" />
    </filter>
    <filter
       color-interpolation-filters="sRGB"
       id="filter3174-9-0">
      <feGaussianBlur
         id="feGaussianBlur3176-5-9"
         stdDeviation="1.71" />
    </filter>
    <filter
       color-interpolation-filters="sRGB"
       id="filter3174-0-5-6">
      <feGaussianBlur
         id="feGaussianBlur3176-9-9-7"
         stdDeviation="1.71" />
    </filter>
    <filter
       color-interpolation-filters="sRGB"
       id="filter3174-3-8">
      <feGaussianBlur
         id="feGaussianBlur3176-2-5"
         stdDeviation="1.71" />
    </filter>
    <filter
       color-interpolation-filters="sRGB"
       id="filter3174-0-2-4">
      <feGaussianBlur
         id="feGaussianBlur3176-9-7-1"
         stdDeviation="1.71" />
    </filter>
    <filter
       color-interpolation-filters="sRGB"
       id="filter3174-7-4">
      <feGaussianBlur
         id="feGaussianBlur3176-1-4"
         stdDeviation="1.71" />
    </filter>
    <filter
       color-interpolation-filters="sRGB"
       id="filter3174-0-7-1">
      <feGaussianBlur
         id="feGaussianBlur3176-9-0-4"
         stdDeviation="1.71" />
    </filter>
    <filter
       color-interpolation-filters="sRGB"
       id="filter3174-00-3">
      <feGaussianBlur
         id="feGaussianBlur3176-28-1"
         stdDeviation="1.71" />
    </filter>
    <filter
       color-interpolation-filters="sRGB"
       id="filter3174-34">
      <feGaussianBlur
         id="feGaussianBlur3176-41"
         stdDeviation="1.71" />
    </filter>
    <filter
       color-interpolation-filters="sRGB"
       id="filter3174-0-6">
      <feGaussianBlur
         id="feGaussianBlur3176-9-3"
         stdDeviation="1.71" />
    </filter>
    <filter
       id="filter3174-31-4"
       color-interpolation-filters="sRGB">
      <feGaussianBlur
         stdDeviation="1.71"
         id="feGaussianBlur3176-22-8" />
    </filter>
    <filter
       color-interpolation-filters="sRGB"
       id="filter3174-8-1">
      <feGaussianBlur
         id="feGaussianBlur3176-3-3"
         stdDeviation="1.71" />
    </filter>
    <filter
       color-interpolation-filters="sRGB"
       id="filter3174-4-2">
      <feGaussianBlur
         id="feGaussianBlur3176-4-1"
         stdDeviation="1.71" />
    </filter>
    <filter
       color-interpolation-filters="sRGB"
       id="filter3174-0-3-3">
      <feGaussianBlur
         id="feGaussianBlur3176-9-4-7"
         stdDeviation="1.71" />
    </filter>
    <filter
       color-interpolation-filters="sRGB"
       id="filter3174-9-00">
      <feGaussianBlur
         id="feGaussianBlur3176-5-0"
         stdDeviation="1.71" />
    </filter>
    <filter
       color-interpolation-filters="sRGB"
       id="filter3174-0-5-3">
      <feGaussianBlur
         id="feGaussianBlur3176-9-9-9"
         stdDeviation="1.71" />
    </filter>
    <filter
       color-interpolation-filters="sRGB"
       id="filter3174-3-0">
      <feGaussianBlur
         id="feGaussianBlur3176-2-8"
         stdDeviation="1.71" />
    </filter>
    <filter
       color-interpolation-filters="sRGB"
       id="filter3174-0-2-45">
      <feGaussianBlur
         id="feGaussianBlur3176-9-7-2"
         stdDeviation="1.71" />
    </filter>
    <filter
       color-interpolation-filters="sRGB"
       id="filter3174-7-6">
      <feGaussianBlur
         id="feGaussianBlur3176-1-8"
         stdDeviation="1.71" />
    </filter>
    <filter
       color-interpolation-filters="sRGB"
       id="filter3174-0-7-11">
      <feGaussianBlur
         id="feGaussianBlur3176-9-0-9"
         stdDeviation="1.71" />
    </filter>
    <filter
       color-interpolation-filters="sRGB"
       id="filter3174-00-7">
      <feGaussianBlur
         id="feGaussianBlur3176-28-5"
         stdDeviation="1.71" />
    </filter>
    <filter
       color-interpolation-filters="sRGB"
       id="filter3174-97">
      <feGaussianBlur
         id="feGaussianBlur3176-11"
         stdDeviation="1.71" />
    </filter>
    <filter
       color-interpolation-filters="sRGB"
       id="filter3174-0-54">
      <feGaussianBlur
         id="feGaussianBlur3176-9-96"
         stdDeviation="1.71" />
    </filter>
    <filter
       id="filter3174-31-7"
       color-interpolation-filters="sRGB">
      <feGaussianBlur
         stdDeviation="1.71"
         id="feGaussianBlur3176-22-2" />
    </filter>
    <filter
       color-interpolation-filters="sRGB"
       id="filter3174-8-3">
      <feGaussianBlur
         id="feGaussianBlur3176-3-8"
         stdDeviation="1.71" />
    </filter>
    <filter
       color-interpolation-filters="sRGB"
       id="filter3174-4-6">
      <feGaussianBlur
         id="feGaussianBlur3176-4-0"
         stdDeviation="1.71" />
    </filter>
    <filter
       color-interpolation-filters="sRGB"
       id="filter3174-0-3-4">
      <feGaussianBlur
         id="feGaussianBlur3176-9-4-3"
         stdDeviation="1.71" />
    </filter>
    <filter
       color-interpolation-filters="sRGB"
       id="filter3174-9-3">
      <feGaussianBlur
         id="feGaussianBlur3176-5-98"
         stdDeviation="1.71" />
    </filter>
    <filter
       color-interpolation-filters="sRGB"
       id="filter3174-0-5-1">
      <feGaussianBlur
         id="feGaussianBlur3176-9-9-1"
         stdDeviation="1.71" />
    </filter>
    <filter
       color-interpolation-filters="sRGB"
       id="filter3174-3-06">
      <feGaussianBlur
         id="feGaussianBlur3176-2-0"
         stdDeviation="1.71" />
    </filter>
    <filter
       color-interpolation-filters="sRGB"
       id="filter3174-0-2-1">
      <feGaussianBlur
         id="feGaussianBlur3176-9-7-5"
         stdDeviation="1.71" />
    </filter>
    <filter
       color-interpolation-filters="sRGB"
       id="filter3174-7-1">
      <feGaussianBlur
         id="feGaussianBlur3176-1-3"
         stdDeviation="1.71" />
    </filter>
    <filter
       color-interpolation-filters="sRGB"
       id="filter3174-0-7-5">
      <feGaussianBlur
         id="feGaussianBlur3176-9-0-40"
         stdDeviation="1.71" />
    </filter>
    <filter
       color-interpolation-filters="sRGB"
       id="filter3174-00-2">
      <feGaussianBlur
         id="feGaussianBlur3176-28-9"
         stdDeviation="1.71" />
    </filter>
    <filter
       color-interpolation-filters="sRGB"
       id="filter3174-43">
      <feGaussianBlur
         id="feGaussianBlur3176-6"
         stdDeviation="1.71" />
    </filter>
    <filter
       color-interpolation-filters="sRGB"
       id="filter3174-0-53">
      <feGaussianBlur
         id="feGaussianBlur3176-9-97"
         stdDeviation="1.71" />
    </filter>
    <filter
       id="filter3174-31-74"
       color-interpolation-filters="sRGB">
      <feGaussianBlur
         stdDeviation="1.71"
         id="feGaussianBlur3176-22-3" />
    </filter>
    <filter
       color-interpolation-filters="sRGB"
       id="filter3174-8-5">
      <feGaussianBlur
         id="feGaussianBlur3176-3-6"
         stdDeviation="1.71" />
    </filter>
    <filter
       color-interpolation-filters="sRGB"
       id="filter3174-4-5">
      <feGaussianBlur
         id="feGaussianBlur3176-4-2"
         stdDeviation="1.71" />
    </filter>
    <filter
       color-interpolation-filters="sRGB"
       id="filter3174-0-3-7">
      <feGaussianBlur
         id="feGaussianBlur3176-9-4-5"
         stdDeviation="1.71" />
    </filter>
    <filter
       color-interpolation-filters="sRGB"
       id="filter3174-9-6">
      <feGaussianBlur
         id="feGaussianBlur3176-5-4"
         stdDeviation="1.71" />
    </filter>
    <filter
       color-interpolation-filters="sRGB"
       id="filter3174-0-5-2">
      <feGaussianBlur
         id="feGaussianBlur3176-9-9-3"
         stdDeviation="1.71" />
    </filter>
    <filter
       color-interpolation-filters="sRGB"
       id="filter3174-3-2">
      <feGaussianBlur
         id="feGaussianBlur3176-2-1"
         stdDeviation="1.71" />
    </filter>
    <filter
       color-interpolation-filters="sRGB"
       id="filter3174-0-2-7">
      <feGaussianBlur
         id="feGaussianBlur3176-9-7-20"
         stdDeviation="1.71" />
    </filter>
    <filter
       color-interpolation-filters="sRGB"
       id="filter3174-7-17">
      <feGaussianBlur
         id="feGaussianBlur3176-1-6"
         stdDeviation="1.71" />
    </filter>
    <filter
       color-interpolation-filters="sRGB"
       id="filter3174-0-7-0">
      <feGaussianBlur
         id="feGaussianBlur3176-9-0-1"
         stdDeviation="1.71" />
    </filter>
    <filter
       color-interpolation-filters="sRGB"
       id="filter3174-00-35">
      <feGaussianBlur
         id="feGaussianBlur3176-28-0"
         stdDeviation="1.71" />
    </filter>
    <clipPath
       id="clipPath2121"
       clipPathUnits="userSpaceOnUse">
      <path
         inkscape:connector-curvature="0"
         id="path2123"
         d="M 68.113281,5.2167969 A 64.021523,64.021523 0 0 0 4.0898438,69.238281 64.021523,64.021523 0 0 0 68.113281,133.25977 64.021523,64.021523 0 0 0 132.13477,69.238281 64.021523,64.021523 0 0 0 68.113281,5.2167969 Z"
         style="fill:url(#linearGradient2125);fill-opacity:1;stroke:#e83c2b;stroke-width:6;stroke-miterlimit:4;stroke-dasharray:none;stroke-opacity:1" />
    </clipPath>
    <linearGradient
       y2="11.319979"
       x2="77.588379"
       y1="130.14767"
       x1="74.704201"
       gradientUnits="userSpaceOnUse"
       id="linearGradient2125"
       xlink:href="#linearGradient879"
       inkscape:collect="always" />
    <linearGradient
       inkscape:collect="always"
       xlink:href="#linearGradient5113"
       id="linearGradient5115"
       x1="8.7388348"
       y1="-39.681239"
       x2="87.427688"
       y2="-39.681239"
       gradientUnits="userSpaceOnUse"
       gradientTransform="translate(-8.8388348,52.762714)" />
    <pattern
       patternUnits="userSpaceOnUse"
       width="78.488853"
       height="26.162951"
       patternTransform="translate(8.8388348,-52.762714)"
       id="pattern5119">
      <rect
         ry="0"
         rx="0"
         y="0"
         x="0"
         height="26.162951"
         width="78.488853"
         id="rect5107"
         style="fill:url(#linearGradient5115);fill-opacity:1;stroke:none;stroke-width:0.2;stroke-miterlimit:4;stroke-dasharray:none;stroke-opacity:1" />
    </pattern>
  </defs>
  <sodipodi:namedview
     pagecolor="#ffffff"
     bordercolor="#666666"
     borderopacity="1"
     objecttolerance="10"
     gridtolerance="10"
     guidetolerance="10"
     inkscape:pageopacity="0"
     inkscape:pageshadow="2"
     inkscape:window-width="1920"
     inkscape:window-height="1022"
     id="namedview8"
     showgrid="false"
     inkscape:zoom="16"
     inkscape:cx="32.047856"
     inkscape:cy="29.598938"
     inkscape:window-x="0"
     inkscape:window-y="30"
     inkscape:window-maximized="1"
     inkscape:current-layer="svg6" />
  <g
     id="g5103">
    <g
       transform="rotate(90,23.935829,24.46858)"
       id="g5045">
      <path
         transform="matrix(1.7583058,0,0,1.7583061,-18.159093,-30.978748)"
         style="opacity:0.98999999;fill:#73bfd5;fill-opacity:1"
         d="m 29.091495,43.727596 c -0.791587,0.334813 -1.622533,0.594792 -2.483969,0.771068 -0.861437,0.176275 -1.753363,0.268847 -2.666911,0.268847 V 31.534514 Z"
         id="path5021"
         inkscape:connector-curvature="0"
         sodipodi:nodetypes="csccc" />
      <path
         transform="matrix(1.7583058,0,0,1.7583061,-18.159093,-30.978748)"
         style="opacity:0.98999999;fill:#74c0d4;fill-opacity:1"
         d="m 31.33931,42.507523 c -0.704,0.475613 -1.456228,0.88526 -2.247815,1.220073 -0.791587,0.334813 -1.622533,0.594792 -2.483969,0.771068 l -2.666911,-12.96415 z"
         id="path5023"
         inkscape:connector-curvature="0"
         sodipodi:nodetypes="csccc" />
      <path
         transform="matrix(1.7583058,0,0,1.7583061,-18.159093,-30.978748)"
         style="opacity:0.98999999;fill:#73c0d5;fill-opacity:1"
         d="m 34.913625,38.933208 c -0.475613,0.704 -1.017192,1.359772 -1.615867,1.958448 -0.598676,0.598675 -1.254448,1.140254 -1.958448,1.615867 -0.704,0.475613 -1.456228,0.88526 -2.247815,1.220073 l -5.15088,-12.193082 z"
         id="path5025"
         inkscape:connector-curvature="0"
         sodipodi:nodetypes="cssccc" />
      <path
         transform="matrix(1.7583058,0,0,1.7583061,-18.159093,-30.978748)"
         style="opacity:0.98999999;fill:#73bfd6;fill-opacity:1"
         d="m 37.173613,31.534513 c 0,0.913548 -0.09257,1.805474 -0.268847,2.666911 -0.176276,0.861436 -0.436255,1.692382 -0.771068,2.483969 -0.334813,0.791587 -0.74446,1.543815 -1.220073,2.247815 -0.475613,0.704 -1.017192,1.359772 -1.615867,1.958448 -0.598676,0.598675 -1.254448,1.140254 -1.958448,1.615867 L 23.940615,31.534514 Z"
         id="path5027"
         inkscape:connector-curvature="0"
         sodipodi:nodetypes="cssssccc" />
      <path
         transform="matrix(1.7583058,0,0,1.7583061,-18.159093,-30.978748)"
         style="opacity:0.98999999;fill:#74c0d4;fill-opacity:1"
         d="m 37.173613,31.534513 c 0,0.913548 -0.09257,1.805474 -0.268847,2.666911 -0.176276,0.861436 -0.436255,1.692382 -0.771068,2.483969 -0.334813,0.791587 -0.74446,1.543815 -1.220073,2.247815 -0.475613,0.704 -1.017192,1.359772 -1.615867,1.958448 l -9.357143,-9.357142 z"
         id="path5029"
         inkscape:connector-curvature="0"
         sodipodi:nodetypes="csssccc" />
      <path
         transform="matrix(1.7583058,0,0,1.7583061,-18.159093,-30.978748)"
         style="opacity:0.98999999;fill:#74c1d3;fill-opacity:1"
         d="m 37.173613,31.534513 c 0,0.913548 -0.09257,1.805474 -0.268847,2.666911 -0.176276,0.861436 -0.436255,1.692382 -0.771068,2.483969 -0.334813,0.791587 -0.74446,1.543815 -1.220073,2.247815 l -10.97301,-7.398694 12.193083,-5.150881 c 0.334813,0.791587 0.594792,1.622533 0.771067,2.48397 0.176276,0.861436 0.268848,1.753362 0.268848,2.66691 z"
         id="path5031"
         inkscape:connector-curvature="0"
         sodipodi:nodetypes="ssscccss" />
      <path
         transform="matrix(1.7583058,0,0,1.7583061,-18.159093,-30.978748)"
         style="opacity:0.98999999;fill:#75c1d1;fill-opacity:1"
         d="m 37.173613,31.534513 c 0,0.913548 -0.09257,1.805474 -0.268847,2.666911 -0.176276,0.861436 -0.436255,1.692382 -0.771068,2.483969 l -12.193083,-5.150879 12.96415,-2.666911 c 0.176276,0.861436 0.268848,1.753362 0.268848,2.66691 z"
         id="path5033"
         inkscape:connector-curvature="0"
         sodipodi:nodetypes="sscccs" />
      <path
         transform="matrix(1.7583058,0,0,1.7583061,-18.159093,-30.978748)"
         style="opacity:0.98999999;fill:#76c3ce;fill-opacity:1"
         d="m 37.173613,31.534513 c 0,0.913548 -0.09257,1.805474 -0.268847,2.666911 l -12.964151,-2.66691 12.96415,-2.666911 c 0.176276,0.861436 0.268848,1.753362 0.268848,2.66691 z"
         id="path5035"
         inkscape:connector-curvature="0"
         sodipodi:nodetypes="scccs" />
    </g>
    <g
       id="g5055">
      <path
         sodipodi:nodetypes="csccc"
         inkscape:connector-curvature="0"
         id="path4991"
         d="m 29.091495,43.727596 c -0.791587,0.334813 -1.622533,0.594792 -2.483969,0.771068 -0.861437,0.176275 -1.753363,0.268847 -2.666911,0.268847 V 31.534514 Z"
         style="opacity:0.98999999;fill:#76c2cf;fill-opacity:1"
         transform="matrix(1.7583058,0,0,1.7583061,-18.159093,-30.978748)" />
      <path
         sodipodi:nodetypes="csccc"
         inkscape:connector-curvature="0"
         id="path4989"
         d="m 31.33931,42.507523 c -0.704,0.475613 -1.456228,0.88526 -2.247815,1.220073 -0.791587,0.334813 -1.622533,0.594792 -2.483969,0.771068 l -2.666911,-12.96415 z"
         style="opacity:0.98999999;fill:#76c2cf;fill-opacity:1"
         transform="matrix(1.7583058,0,0,1.7583061,-18.159093,-30.978748)" />
      <path
         sodipodi:nodetypes="cssccc"
         inkscape:connector-curvature="0"
         id="path4987"
         d="m 34.913625,38.933208 c -0.475613,0.704 -1.017192,1.359772 -1.615867,1.958448 -0.598676,0.598675 -1.254448,1.140254 -1.958448,1.615867 -0.704,0.475613 -1.456228,0.88526 -2.247815,1.220073 l -5.15088,-12.193082 z"
         style="opacity:0.98999999;fill:#77c3cd;fill-opacity:1"
         transform="matrix(1.7583058,0,0,1.7583061,-18.159093,-30.978748)" />
      <path
         sodipodi:nodetypes="cssssccc"
         inkscape:connector-curvature="0"
         id="path4985"
         d="m 37.173613,31.534513 c 0,0.913548 -0.09257,1.805474 -0.268847,2.666911 -0.176276,0.861436 -0.436255,1.692382 -0.771068,2.483969 -0.334813,0.791587 -0.74446,1.543815 -1.220073,2.247815 -0.475613,0.704 -1.017192,1.359772 -1.615867,1.958448 -0.598676,0.598675 -1.254448,1.140254 -1.958448,1.615867 L 23.940615,31.534514 Z"
         style="opacity:0.98999999;fill:#7ac6c8;fill-opacity:1"
         transform="matrix(1.7583058,0,0,1.7583061,-18.159093,-30.978748)" />
      <path
         sodipodi:nodetypes="csssccc"
         inkscape:connector-curvature="0"
         id="path4983"
         d="m 37.173613,31.534513 c 0,0.913548 -0.09257,1.805474 -0.268847,2.666911 -0.176276,0.861436 -0.436255,1.692382 -0.771068,2.483969 -0.334813,0.791587 -0.74446,1.543815 -1.220073,2.247815 -0.475613,0.704 -1.017192,1.359772 -1.615867,1.958448 l -9.357143,-9.357142 z"
         style="opacity:0.98999999;fill:#7ac6c8;fill-opacity:1"
         transform="matrix(1.7583058,0,0,1.7583061,-18.159093,-30.978748)" />
      <path
         sodipodi:nodetypes="ssscccss"
         inkscape:connector-curvature="0"
         id="path4981"
         d="m 37.173613,31.534513 c 0,0.913548 -0.09257,1.805474 -0.268847,2.666911 -0.176276,0.861436 -0.436255,1.692382 -0.771068,2.483969 -0.334813,0.791587 -0.74446,1.543815 -1.220073,2.247815 l -10.97301,-7.398694 12.193083,-5.150881 c 0.334813,0.791587 0.594792,1.622533 0.771067,2.48397 0.176276,0.861436 0.268848,1.753362 0.268848,2.66691 z"
         style="opacity:0.98999999;fill:#7cc9c4;fill-opacity:0.99607843"
         transform="matrix(1.7583058,0,0,1.7583061,-18.159093,-30.978748)" />
      <path
         sodipodi:nodetypes="sscccs"
         inkscape:connector-curvature="0"
         id="path4979"
         d="m 37.173613,31.534513 c 0,0.913548 -0.09257,1.805474 -0.268847,2.666911 -0.176276,0.861436 -0.436255,1.692382 -0.771068,2.483969 l -12.193083,-5.150879 12.96415,-2.666911 c 0.176276,0.861436 0.268848,1.753362 0.268848,2.66691 z"
         style="opacity:0.98999999;fill:#7ccac3;fill-opacity:0.99607843"
         transform="matrix(1.7583058,0,0,1.7583061,-18.159093,-30.978748)" />
      <path
         sodipodi:nodetypes="scccs"
         inkscape:connector-curvature="0"
         id="path4977"
         d="m 37.173613,31.534513 c 0,0.913548 -0.09257,1.805474 -0.268847,2.666911 l -12.964151,-2.66691 12.96415,-2.666911 c 0.176276,0.861436 0.268848,1.753362 0.268848,2.66691 z"
         style="opacity:0.98999999;fill:#7ecbc0;fill-opacity:0.99607843"
         transform="matrix(1.7583058,0,0,1.7583061,-18.159093,-30.978748)" />
    </g>
    <g
       id="g5065">
      <path
         sodipodi:nodetypes="cccsssssssc"
         inkscape:connector-curvature="0"
         id="path4975"
         d="M 37.173613,31.534513 H 23.940615 V 18.301516 c 0.913548,0 1.805474,0.09257 2.666911,0.268847 0.861436,0.176276 1.692382,0.436254 2.483969,0.771067 0.791587,0.334814 1.543815,0.744461 2.247815,1.220074 0.704,0.475613 1.359772,1.017192 1.958447,1.615867 0.598676,0.598675 1.140255,1.254447 1.615868,1.958447 0.475613,0.704 0.88526,1.456228 1.220073,2.247815 0.334813,0.791587 0.594792,1.622533 0.771067,2.48397 0.176276,0.861436 0.268848,1.753362 0.268848,2.66691 z"
         style="opacity:0.98999999;fill:#7eccbe;fill-opacity:0.99607843"
         transform="matrix(1.7583058,0,0,1.7583061,-18.159093,-30.978748)" />
      <path
         sodipodi:nodetypes="ccsssssscc"
         inkscape:connector-curvature="0"
         id="path4973"
         d="M 23.940615,31.534513 V 18.301516 c 0.913548,0 1.805474,0.09257 2.666911,0.268847 0.861436,0.176276 1.692382,0.436254 2.483969,0.771067 0.791587,0.334814 1.543815,0.744461 2.247815,1.220074 0.704,0.475613 1.359772,1.017192 1.958447,1.615867 0.598676,0.598675 1.140255,1.254447 1.615868,1.958447 0.475613,0.704 0.88526,1.456228 1.220073,2.247815 0.334813,0.791587 0.594792,1.622533 0.771067,2.48397 z"
         style="opacity:0.98999999;fill:#81cdbb;fill-opacity:0.99607843"
         transform="matrix(1.7583058,0,0,1.7583061,-18.159093,-30.978748)" />
      <path
         sodipodi:nodetypes="ccssssscc"
         inkscape:connector-curvature="0"
         id="path4971"
         d="M 23.940615,31.534513 V 18.301516 c 0.913548,0 1.805474,0.09257 2.666911,0.268847 0.861436,0.176276 1.692382,0.436254 2.483969,0.771067 0.791587,0.334814 1.543815,0.744461 2.247815,1.220074 0.704,0.475613 1.359772,1.017192 1.958447,1.615867 0.598676,0.598675 1.140255,1.254447 1.615868,1.958447 0.475613,0.704 0.88526,1.456228 1.220073,2.247815 z"
         style="opacity:0.98999999;fill:#81ceba;fill-opacity:0.99607843"
         transform="matrix(1.7583058,0,0,1.7583061,-18.159093,-30.978748)" />
      <path
         sodipodi:nodetypes="ccsssscc"
         inkscape:connector-curvature="0"
         id="path4969"
         d="M 23.940615,31.534513 V 18.301516 c 0.913548,0 1.805474,0.09257 2.666911,0.268847 0.861436,0.176276 1.692382,0.436254 2.483969,0.771067 0.791587,0.334814 1.543815,0.744461 2.247815,1.220074 0.704,0.475613 1.359772,1.017192 1.958447,1.615867 0.598676,0.598675 1.140255,1.254447 1.615868,1.958447 z"
         style="opacity:0.98999999;fill:#83cfb8;fill-opacity:0.99607843"
         transform="matrix(1.7583058,0,0,1.7583061,-18.159093,-30.978748)" />
      <path
         sodipodi:nodetypes="ccssscc"
         inkscape:connector-curvature="0"
         id="path4967"
         d="M 23.940615,31.534513 V 18.301516 c 0.913548,0 1.805474,0.09257 2.666911,0.268847 0.861436,0.176276 1.692382,0.436254 2.483969,0.771067 0.791587,0.334814 1.543815,0.744461 2.247815,1.220074 0.704,0.475613 1.359772,1.017192 1.958447,1.615867 z"
         style="opacity:0.98999999;fill:#83d0b6;fill-opacity:0.99607843"
         transform="matrix(1.7583058,0,0,1.7583061,-18.159093,-30.978748)" />
      <path
         sodipodi:nodetypes="ccsscc"
         inkscape:connector-curvature="0"
         id="path4965"
         d="M 23.940615,31.534513 V 18.301516 c 0.913548,0 1.805474,0.09257 2.666911,0.268847 0.861436,0.176276 1.692382,0.436254 2.483969,0.771067 0.791587,0.334814 1.543815,0.744461 2.247815,1.220074 z"
         style="opacity:0.98999999;fill:#84d1b4;fill-opacity:0.99607843"
         transform="matrix(1.7583058,0,0,1.7583061,-18.159093,-30.978748)" />
      <path
         sodipodi:nodetypes="ccscc"
         inkscape:connector-curvature="0"
         id="path4954"
         d="M 23.940615,31.534513 V 18.301516 c 0.913548,0 1.805474,0.09257 2.666911,0.268847 0.861436,0.176276 1.692382,0.436254 2.483969,0.771067 z"
         style="opacity:0.98999999;fill:#85d2b2;fill-opacity:0.99607843"
         transform="matrix(1.7583058,0,0,1.7583061,-18.159093,-30.978748)" />
      <path
         sodipodi:nodetypes="cccc"
         inkscape:connector-curvature="0"
         id="path4952"
         d="M 23.940615,31.534513 V 18.301516 c 0.913548,0 1.805474,0.09257 2.666911,0.268847 z"
         style="opacity:0.98999999;fill:#86d3b0;fill-opacity:0.99607843"
         transform="matrix(1.7583058,0,0,1.7583061,-18.159093,-30.978748)" />
    </g>
    <g
       transform="rotate(-90,23.935828,24.468577)"
       id="g5019">
      <path
         transform="matrix(1.7583058,0,0,1.7583061,-18.159093,-30.978748)"
         style="opacity:0.98999999;fill:#6fbbdd;fill-opacity:1"
         d="M 37.173613,31.534513 H 23.940615 V 18.301516 c 0.913548,0 1.805474,0.09257 2.666911,0.268847 0.861436,0.176276 1.692382,0.436254 2.483969,0.771067 0.791587,0.334814 1.543815,0.744461 2.247815,1.220074 0.704,0.475613 1.359772,1.017192 1.958447,1.615867 0.598676,0.598675 1.140255,1.254447 1.615868,1.958447 0.475613,0.704 0.88526,1.456228 1.220073,2.247815 0.334813,0.791587 0.594792,1.622533 0.771067,2.48397 0.176276,0.861436 0.268848,1.753362 0.268848,2.66691 z"
         id="path4995"
         inkscape:connector-curvature="0"
         sodipodi:nodetypes="cccsssssssc" />
      <path
         transform="matrix(1.7583058,0,0,1.7583061,-18.159093,-30.978748)"
         style="opacity:0.98999999;fill:#71bddb;fill-opacity:1"
         d="M 23.940615,31.534513 V 18.301516 c 0.913548,0 1.805474,0.09257 2.666911,0.268847 0.861436,0.176276 1.692382,0.436254 2.483969,0.771067 0.791587,0.334814 1.543815,0.744461 2.247815,1.220074 0.704,0.475613 1.359772,1.017192 1.958447,1.615867 0.598676,0.598675 1.140255,1.254447 1.615868,1.958447 0.475613,0.704 0.88526,1.456228 1.220073,2.247815 0.334813,0.791587 0.594792,1.622533 0.771067,2.48397 z"
         id="path4997"
         inkscape:connector-curvature="0"
         sodipodi:nodetypes="ccsssssscc" />
      <path
         transform="matrix(1.7583058,0,0,1.7583061,-18.159093,-30.978748)"
         style="opacity:0.98999999;fill:#71bdda;fill-opacity:1"
         d="M 23.940615,31.534513 V 18.301516 c 0.913548,0 1.805474,0.09257 2.666911,0.268847 0.861436,0.176276 1.692382,0.436254 2.483969,0.771067 0.791587,0.334814 1.543815,0.744461 2.247815,1.220074 0.704,0.475613 1.359772,1.017192 1.958447,1.615867 0.598676,0.598675 1.140255,1.254447 1.615868,1.958447 0.475613,0.704 0.88526,1.456228 1.220073,2.247815 z"
         id="path4999"
         inkscape:connector-curvature="0"
         sodipodi:nodetypes="ccssssscc" />
      <path
         transform="matrix(1.7583058,0,0,1.7583061,-18.159093,-30.978748)"
         style="opacity:0.98999999;fill:#73bfd6;fill-opacity:1"
         d="M 23.940615,31.534513 V 18.301516 c 0.913548,0 1.805474,0.09257 2.666911,0.268847 0.861436,0.176276 1.692382,0.436254 2.483969,0.771067 0.791587,0.334814 1.543815,0.744461 2.247815,1.220074 0.704,0.475613 1.359772,1.017192 1.958447,1.615867 0.598676,0.598675 1.140255,1.254447 1.615868,1.958447 z"
         id="path5001"
         inkscape:connector-curvature="0"
         sodipodi:nodetypes="ccsssscc" />
      <path
         transform="matrix(1.7583058,0,0,1.7583061,-18.159093,-30.978748)"
         style="opacity:0.98999999;fill:#71bdd9;fill-opacity:1"
         d="M 23.940615,31.534513 V 18.301516 c 0.913548,0 1.805474,0.09257 2.666911,0.268847 0.861436,0.176276 1.692382,0.436254 2.483969,0.771067 0.791587,0.334814 1.543815,0.744461 2.247815,1.220074 0.704,0.475613 1.359772,1.017192 1.958447,1.615867 z"
         id="path5003"
         inkscape:connector-curvature="0"
         sodipodi:nodetypes="ccssscc" />
      <path
         transform="matrix(1.7583058,0,0,1.7583061,-18.159093,-30.978748)"
         style="opacity:0.98999999;fill:#71bdd9;fill-opacity:1"
         d="M 23.940615,31.534513 V 18.301516 c 0.913548,0 1.805474,0.09257 2.666911,0.268847 0.861436,0.176276 1.692382,0.436254 2.483969,0.771067 0.791587,0.334814 1.543815,0.744461 2.247815,1.220074 z"
         id="path5005"
         inkscape:connector-curvature="0"
         sodipodi:nodetypes="ccsscc" />
      <path
         transform="matrix(1.7583058,0,0,1.7583061,-18.159093,-30.978748)"
         style="opacity:0.98999999;fill:#72bed8;fill-opacity:1"
         d="M 23.940615,31.534513 V 18.301516 c 0.913548,0 1.805474,0.09257 2.666911,0.268847 0.861436,0.176276 1.692382,0.436254 2.483969,0.771067 z"
         id="path5007"
         inkscape:connector-curvature="0"
         sodipodi:nodetypes="ccscc" />
      <path
         transform="matrix(1.7583058,0,0,1.7583061,-18.159093,-30.978748)"
         style="opacity:0.98999999;fill:#73bfd6;fill-opacity:1"
         d="M 23.940615,31.534513 V 18.301516 c 0.913548,0 1.805474,0.09257 2.666911,0.268847 z"
         id="path5009"
         inkscape:connector-curvature="0"
         sodipodi:nodetypes="cccc" />
    </g>
  </g>
  <path
     inkscape:connector-curvature="0"
     id="path2148-3"
     d="m 23.312243,11.458882 c -6.916105,0.288381 -12.487285,6.034237 -12.487285,13.017813 0,0.240301 0.0075,0.479013 0.02056,0.716211 -0.230565,4.128793 -2.4342728,5.772774 -4.8423878,7.159466 l 1.744772,4.979663 c 2.4018948,-0.841221 4.3808858,-2.413397 5.8934938,-4.790663 2.286694,2.885277 5.763975,4.790231 9.670849,4.953138 v -5.269465 c -4.063099,-0.27557 -7.224456,-3.609752 -7.224456,-7.74835 0,-4.138599 3.161357,-7.472781 7.224455,-7.748351 z m 1.35815,0.01459 v 5.276093 c 3.66562,0.373671 6.5389,3.247951 6.912768,6.913434 H 36.85992 C 36.452492,17.141876 31.191726,11.880897 24.670393,11.473472 Z m 6.934652,13.547676 c -0.257207,3.793167 -3.179788,6.799908 -6.934652,7.182676 v 5.276096 c 6.61096,-0.413027 11.927767,-5.813579 12.204779,-12.458772 z"
     style="color:#000000;font-style:normal;font-variant:normal;font-weight:normal;font-stretch:normal;font-size:medium;line-height:normal;font-family:sans-serif;font-variant-ligatures:normal;font-variant-position:normal;font-variant-caps:normal;font-variant-numeric:normal;font-variant-alternates:normal;font-feature-settings:normal;text-indent:0;text-align:start;text-decoration:none;text-decoration-line:none;text-decoration-style:solid;text-decoration-color:#000000;letter-spacing:normal;word-spacing:normal;text-transform:none;writing-mode:lr-tb;direction:ltr;text-orientation:mixed;dominant-baseline:auto;baseline-shift:baseline;text-anchor:start;white-space:normal;shape-padding:0;clip-rule:nonzero;display:inline;overflow:visible;visibility:visible;opacity:1;isolation:auto;mix-blend-mode:normal;color-interpolation:sRGB;color-interpolation-filters:linearRGB;solid-color:#000000;solid-opacity:1;vector-effect:none;fill:#ffffff;fill-opacity:1;fill-rule:nonzero;stroke:none;stroke-width:5.26283026;stroke-linecap:square;stroke-linejoin:round;stroke-miterlimit:4;stroke-dasharray:none;stroke-dashoffset:0;stroke-opacity:1;color-rendering:auto;image-rendering:auto;shape-rendering:auto;text-rendering:auto;enable-background:accumulate" />
</svg>
