<?xml version="1.0" encoding="UTF-8" standalone="no"?>
<svg
   xmlns:dc="http://purl.org/dc/elements/1.1/"
   xmlns:cc="http://creativecommons.org/ns#"
   xmlns:rdf="http://www.w3.org/1999/02/22-rdf-syntax-ns#"
   xmlns:svg="http://www.w3.org/2000/svg"
   xmlns="http://www.w3.org/2000/svg"
   xmlns:sodipodi="http://sodipodi.sourceforge.net/DTD/sodipodi-0.dtd"
   xmlns:inkscape="http://www.inkscape.org/namespaces/inkscape"
   height="48"
   width="48"
   version="1.1"
   id="svg10"
   sodipodi:docname="plank.svg"
   inkscape:version="0.92.3 (2405546, 2018-03-11)">
  <metadata
     id="metadata16">
    <rdf:RDF>
      <cc:Work
         rdf:about="">
        <dc:format>image/svg+xml</dc:format>
        <dc:type
           rdf:resource="http://purl.org/dc/dcmitype/StillImage" />
        <dc:title></dc:title>
      </cc:Work>
    </rdf:RDF>
  </metadata>
  <defs
     id="defs14" />
  <sodipodi:namedview
     pagecolor="#ffffff"
     bordercolor="#666666"
     borderopacity="1"
     objecttolerance="10"
     gridtolerance="10"
     guidetolerance="10"
     inkscape:pageopacity="0"
     inkscape:pageshadow="2"
     inkscape:window-width="1920"
     inkscape:window-height="1026"
     id="namedview12"
     showgrid="true"
     inkscape:zoom="4.9166667"
     inkscape:cx="24.40678"
     inkscape:cy="24"
     inkscape:window-x="0"
     inkscape:window-y="28"
     inkscape:window-maximized="1"
     inkscape:current-layer="svg10">
    <inkscape:grid
       type="xygrid"
       id="grid823" />
  </sodipodi:namedview>
  <circle
     cx="23.940615"
     cy="31.534513"
     fill="#66b8cc"
     opacity=".99"
     r="13.232998"
     transform="matrix(1.72140702696 0 0 1.72140725788 -17.2289093957 -30.06939350282)"
     id="circle2"
     style="fill:#6bb1c7;fill-opacity:1" />
  <path
     id="path833-3"
     d="m 23.982833,12.214247 c -1.6568,0 -3,1.3432 -3,3 9.5e-4,1.2705 0.80214,2.4027 2,2.8262 v 2.174 h -4 v 2 h 4 v 8 c 0,1 -1.3774,1.5923 -2.036,1.506 -2.9521,-0.3869 -5.3486,-1.0231 -6.727,-2.3009 l 2.0228,0.1015 -1.7246,-1.6074 -1.7246,-1.6074 c -0.651,1.473 -0.728,2.936 -0.811,4.51 l 1.0684,-1.0528 c 0.514,2.117 7.522,3.451 8.512,4.322 l 2.42,2.129 2.418,-2.127 c 0.992,-0.873 8,-2.211 8.506,-4.33 l 1.076,1.059 c 0,-1.602 -0.349,-3.005 -0.811,-4.51 l -1.724,1.607 -1.465,1.608 1.767,-0.102 c -1.375,1.273 -3.761,1.913 -6.702,2.301 -0.667,0.088 -2.065,-0.506 -2.065,-1.506 v -8 h 4 v -2 h -4 v -2.1758 c 1.197,-0.423 1.998,-1.554 2,-2.824 0,-1.657 -1.343,-3 -3,-3 z m 0,2 c 0.55228,0 1,0.4477 1,1 0,0.5523 -0.44772,1 -1,1 -0.55228,0 -1,-0.4477 -1,-1 0,-0.5523 0.44772,-1 1,-1 z"
     inkscape:connector-curvature="0"
     style="fill:#ffffff" />
</svg>
