<svg height="48" width="48" xmlns="http://www.w3.org/2000/svg"><g fill="#be514c" opacity=".99" transform="matrix(1.1503549 0 0 1.1503549 -4.486125 -7.525565)"><path d="m44.322082 27.405077a19.729762 19.729765 0 0 1 -19.729762 19.729765 19.729762 19.729765 0 0 1 -19.7297621-19.729765 19.729762 19.729765 0 0 1 19.7297621-19.7297632 19.729762 19.729765 0 0 1 19.729762 19.7297632z"/><path d="m44.322082 27.405077a19.729762 19.729765 0 0 1 -19.729762 19.729765 19.729762 19.729765 0 0 1 -19.7297621-19.729765 19.729762 19.729765 0 0 1 19.7297621-19.7297632 19.729762 19.729765 0 0 1 19.729762 19.7297632z"/></g><path d="m26.538449 7.7065469c-.870207.000685-1.038502.01762-1.574039.160086-2.288383.608806-3.875079 1.973987-5.216367 4.4877141-.168902.316547-.315702.575443-.326136.575443-.01041 0-.267258-.245768-.570853-.546086-.849107-.839926-1.58987-1.211205-2.529744-1.26808-.643619-.03895-1.062249.04967-1.66899.3532-.890719.445597-1.613426 1.376625-1.850176 2.383416-.257526 1.095147.07221 2.33558.880939 3.314355l.226141.273616-.167198.115821c-.415334.287878-1.007692.961223-1.201572 1.365786-.39063.815135-.290448 1.804563.258022 2.549241.29435.399646.725671.712172 1.055473.764883.124073.01982.235146.05262.246783.07271.01163.0201-.0031.215126-.03303.433474-.06939.50767.01486.686729.438745.931624 1.443324.833877 6.542 1.308553 12.030162 1.120152 4.715394-.161872 7.574287-.665919 7.825461-1.379777.05172-.146938.03801-.183804-.116055-.316276l-.174307-.149997.146102-.09472c.08037-.05201.275016-.213609.432554-.359164 1.042069-.962808.803765-2.702861-.483015-3.527881-.173013-.110929-.300892-.232864-.284395-.270863.576716-1.327898.693702-1.815842.730944-3.049912.03226-1.068212-.03639-1.609187-.310085-2.447177-.766113-2.345756-2.843374-4.3474971-5.321636-5.1280681-.937359-.295238-1.402234-.364332-2.443735-.36352zm3.267566 8.5144331c.237353-.0067.482891.04403.717407.15871 1.16214.568296 1.006354 2.28931-.241278 2.664604-.361321.108685-.515123.103438-.908689-.03166-.793539-.272381-1.170123-1.199572-.805252-1.982741.233695-.501591.715623-.794214 1.237812-.80892zm-9.935723.01194c.354204.0071.66873.138899.943093.3954.42475.39711.569282.940546.400218 1.504544-.160589.535735-.796073.994008-1.3784.994008-.186182 0-.405545-.05137-.593795-.138986-.681537-.317204-.999405-1.038695-.780481-1.771508.099-.331382.591041-.831101.901811-.915799.177339-.04833.346551-.07089.507554-.06766zm.401362.361459c-.151577.0017-.30545.07876-.40985.247698-.30651.495992.302948.995377.747913.612825.110257-.09479.160776-.195293.160776-.319944 0-.337634-.246216-.543587-.498839-.540579zm10.077688.02385c-.131906-.0072-.254666.05376-.370624.18348-.225634.252395-.129935.66554.183479.79195.185884.07498.225705.0698.435075-.05779.33293-.202898.33293-.625636 0-.83117-.08638-.05333-.16878-.08218-.24793-.08647zm-5.634006 2.598318c2.000089 0 2.071947.004 2.157277.118117.07005.09371.08358.264104.06605.826352-.01836.58941-.04473.755015-.157564.986671-.217825.447307-.560697.790515-.998829.999514-.340674.162508-.469491.190331-.955705.207333-.368381.01287-.647598-.0083-.81076-.0617-.591798-.193734-1.072743-.604354-1.356382-1.157768-.155644-.303679-.166511-.371176-.166511-1.044692 0-.512048.02224-.742346.07684-.796994.06012-.06019.525176-.07684 2.145584-.07684zm9.910718 4.292768c-.05068-.0096-.124782.0434-.164668.117887-.301131.562391-2.03413.985745-5.165219 1.26189-1.421156.125339-6.112703.177012-7.895878.08693-3.747969-.189348-6.16252-.579607-7.044977-1.13873-.155526-.09854-.299336-.162797-.319486-.142657-.02016.02013.341295 3.124845.803188 6.899345l.839881 6.862875.217886.226141c.279459.290063 1.140107.867609 1.75018 1.174505 1.406727.707668 3.423591 1.224612 5.466125 1.401107.840671.07264 2.825407.02598 3.684527-.08669 1.955976-.256507 3.693203-.809784 4.960867-1.580001.447868-.272118 1.265667-.916012 1.340099-1.055016.03167-.0592.430853-3.116453.886897-6.793839.857744-6.916474.881779-7.188224.640578-7.233738zm-3.017109 1.534818c.02773.001.04545.0039.05042.0089.04984.0498-.745567 13.376014-.807547 13.529885-.05734.142403-.880654.477456-1.73733.706859-.568306.152178-.722605.172449-.763053.100228-.03038-.05422.363727-14.016106.396546-14.048908.01286-.01287.457791-.0612.988732-.107336.530948-.04614 1.17267-.113792 1.425875-.150455.189905-.02749.363106-.04214.446322-.03922zm-14.336287.0017c.140789.0043.428759.03007.741494.06789.416974.0504 1.018171.109621 1.335968.131419.317797.02178.594448.0667.614895.09977.04887.07907.966752 14.035267.927268 14.099134-.03581.05796-.09205.05551-.407336-.01741-.527631-.122064-2.128898-.655531-2.160943-.719935-.0026-.0058-.276004-3.074939-.607092-6.820445-.450918-5.101131-.584234-6.816701-.531407-6.836961.0097-.0037.04021-.0048.08715-.0034zm5.604199.396089 1.432068.01582 1.4323.01582.05139 7.132592c.02922 4.054519.02922 7.153998 0 7.182592-.06102.05962-1.415176.112436-1.988472.07752-.239597-.01459-.411764-.05303-.426826-.09541-.02709-.0763-.501115-13.263321-.500675-13.929415z" fill="#fff"/></svg>