<svg height="48" width="48" xmlns="http://www.w3.org/2000/svg"><path d="m44.322082 27.405077a19.729762 19.729765 0 0 1 -19.729762 19.729765 19.729762 19.729765 0 0 1 -19.7297621-19.729765 19.729762 19.729765 0 0 1 19.7297621-19.7297632 19.729762 19.729765 0 0 1 19.729762 19.7297632z" fill="#87aade" opacity=".99" transform="matrix(1.1503549 0 0 1.1503549 -4.486125 -7.525565)"/><path d="m14.40342 15.623221c-.771072.445178-1.033434 1.424326-.588256 2.195398l2.231795 3.865582 7.633227 2.105059 2.041553-7.84786-2.163784-3.747782c-.445177-.771072-1.424325-1.033434-2.195398-.588256zm-2.647148 9.879292c-.771072.445177-1.033434 1.424325-.588255 2.195398l4.017858 6.959134c.445178.771072 1.424326 1.033434 2.195398.588256l3.905452-2.254814 1.960641-7.540179-7.716125-2.127273zm15.59281-9.002513-2.015791 7.745996 7.512118 2.071078 4.021437-2.321777c.771072-.445178 1.033434-1.424325.588256-2.195398l-4.017859-6.959135c-.445178-.771072-1.424326-1.033433-2.195398-.588255zm-2.4468 9.405998-1.993578 7.663097 2.156461 3.735098c.445178.771072 1.424325 1.033434 2.195398.588255l6.959134-4.017858c.771073-.445179 1.033434-1.424327.588255-2.195398l-2.088447-3.6173z" fill="#fff"/></svg>