<?xml version="1.0" encoding="UTF-8" standalone="no"?>
<svg
   xmlns:dc="http://purl.org/dc/elements/1.1/"
   xmlns:cc="http://creativecommons.org/ns#"
   xmlns:rdf="http://www.w3.org/1999/02/22-rdf-syntax-ns#"
   xmlns:svg="http://www.w3.org/2000/svg"
   xmlns="http://www.w3.org/2000/svg"
   xmlns:sodipodi="http://sodipodi.sourceforge.net/DTD/sodipodi-0.dtd"
   xmlns:inkscape="http://www.inkscape.org/namespaces/inkscape"
   height="48"
   width="48"
   version="1.1"
   id="svg12"
   sodipodi:docname="preferences-desktop-online-accounts.svg"
   inkscape:version="0.92.3 (2405546, 2018-03-11)">
  <metadata
     id="metadata18">
    <rdf:RDF>
      <cc:Work
         rdf:about="">
        <dc:format>image/svg+xml</dc:format>
        <dc:type
           rdf:resource="http://purl.org/dc/dcmitype/StillImage" />
        <dc:title />
      </cc:Work>
    </rdf:RDF>
  </metadata>
  <defs
     id="defs16" />
  <sodipodi:namedview
     pagecolor="#ffffff"
     bordercolor="#666666"
     borderopacity="1"
     objecttolerance="10"
     gridtolerance="10"
     guidetolerance="10"
     inkscape:pageopacity="0"
     inkscape:pageshadow="2"
     inkscape:window-width="1920"
     inkscape:window-height="1029"
     id="namedview14"
     showgrid="true"
     inkscape:zoom="8"
     inkscape:cx="-2.286535"
     inkscape:cy="20.297501"
     inkscape:window-x="0"
     inkscape:window-y="25"
     inkscape:window-maximized="1"
     inkscape:current-layer="svg12">
    <inkscape:grid
       type="xygrid"
       id="grid828" />
  </sodipodi:namedview>
  <rect
     fill="#6271d1"
     height="43"
     ry="1.452703"
     width="43"
     x="2"
     y="3"
     id="rect2"
     style="fill:#6b77c8;fill-opacity:1" />
  <circle
     style="opacity:1;fill:#ffffff;fill-opacity:1;stroke:none;stroke-width:1.30722225;stroke-linecap:butt;stroke-linejoin:round;stroke-miterlimit:4;stroke-dasharray:1.30722225, 2.61444448999999990;stroke-dashoffset:0;stroke-opacity:1;paint-order:fill markers stroke"
     id="path837"
     cx="31.5"
     cy="6.5"
     r="1.5" />
  <circle
     r="1.5"
     cy="6.5"
     cx="36.497688"
     id="circle839"
     style="opacity:1;fill:#ffffff;fill-opacity:1;stroke:none;stroke-width:1.30722225;stroke-linecap:butt;stroke-linejoin:round;stroke-miterlimit:4;stroke-dasharray:1.30722225, 2.61444448999999990;stroke-dashoffset:0;stroke-opacity:1;paint-order:fill markers stroke" />
  <circle
     style="opacity:1;fill:#ffffff;fill-opacity:1;stroke:none;stroke-width:1.30722225;stroke-linecap:butt;stroke-linejoin:round;stroke-miterlimit:4;stroke-dasharray:1.30722225, 2.61444448999999990;stroke-dashoffset:0;stroke-opacity:1;paint-order:fill markers stroke"
     id="circle841"
     cx="41.567284"
     cy="6.5"
     r="1.5" />
  <path
     style="fill:#ffffff;fill-opacity:1;stroke:none;stroke-width:1px;stroke-linecap:butt;stroke-linejoin:miter;stroke-opacity:1"
     d="M 10 6 L 6.7265625 10 L 4 10 L 4 44 L 43 44 L 43 10 L 24 10 L 20 6 L 10 6 z M 23.599609 15.978516 C 27.729095 15.980118 31.265826 18.936302 32 23 L 32.144531 23 C 36.022531 23 38.923828 26.122 38.923828 30 C 38.923828 33.878 36.022531 37 32.144531 37 L 15.144531 37 C 11.266531 37 7.8789062 33.878 7.8789062 30 C 7.8789062 26.122 11.045828 23 14.923828 23 L 14.982422 23 C 15.716333 18.937751 19.471597 15.982006 23.599609 15.978516 z M 24 20.466797 A 3.2443881 3.2443881 0 0 0 20.755859 23.710938 A 3.2443881 3.2443881 0 0 0 24 26.955078 A 3.2443881 3.2443881 0 0 0 27.244141 23.710938 A 3.2443881 3.2443881 0 0 0 24 20.466797 z M 20 28 C 18.892 28 18 28.892 18 30 L 18 32 C 18 33.108 18.892 34 20 34 L 28 34 C 29.108 34 30 33.108 30 32 L 30 30 C 30 28.892 29.108 28 28 28 L 20 28 z "
     id="path843" />
</svg>
