<?xml version="1.0" encoding="UTF-8" standalone="no"?>
<svg
   xmlns:dc="http://purl.org/dc/elements/1.1/"
   xmlns:cc="http://creativecommons.org/ns#"
   xmlns:rdf="http://www.w3.org/1999/02/22-rdf-syntax-ns#"
   xmlns:svg="http://www.w3.org/2000/svg"
   xmlns="http://www.w3.org/2000/svg"
   xmlns:sodipodi="http://sodipodi.sourceforge.net/DTD/sodipodi-0.dtd"
   xmlns:inkscape="http://www.inkscape.org/namespaces/inkscape"
   height="48"
   width="48"
   version="1.1"
   id="svg10"
   sodipodi:docname="preferences-desktop-applications.svg"
   inkscape:version="0.92.3 (2405546, 2018-03-11)">
  <metadata
     id="metadata16">
    <rdf:RDF>
      <cc:Work
         rdf:about="">
        <dc:format>image/svg+xml</dc:format>
        <dc:type
           rdf:resource="http://purl.org/dc/dcmitype/StillImage" />
        <dc:title></dc:title>
      </cc:Work>
    </rdf:RDF>
  </metadata>
  <defs
     id="defs14" />
  <sodipodi:namedview
     pagecolor="#ffffff"
     bordercolor="#666666"
     borderopacity="1"
     objecttolerance="10"
     gridtolerance="10"
     guidetolerance="10"
     inkscape:pageopacity="0"
     inkscape:pageshadow="2"
     inkscape:window-width="1920"
     inkscape:window-height="1017"
     id="namedview12"
     showgrid="false"
     inkscape:zoom="4.9166667"
     inkscape:cx="24.40678"
     inkscape:cy="24"
     inkscape:window-x="0"
     inkscape:window-y="30"
     inkscape:window-maximized="1"
     inkscape:current-layer="svg10" />
  <path
     d="m44.322082 27.405077a19.729762 19.729765 0 0 1 -19.729762 19.729765 19.729762 19.729765 0 0 1 -19.7297621-19.729765 19.729762 19.729765 0 0 1 19.7297621-19.7297632 19.729762 19.729765 0 0 1 19.729762 19.7297632z"
     fill="#5fbe9e"
     opacity=".99"
     transform="matrix(1.1503549 0 0 1.1503549 -4.486125 -7.525565)"
     id="path2"
     style="fill:#be885f;fill-opacity:1" />
  <g
     fill-rule="evenodd"
     transform="matrix(.70710678 .70710678 -.70710678 .70710678 22.831151 -8.97187)"
     id="g8">
    <path
       d="m24.00238 7.0351824c-5.131099 5.6298066-6.596159 11.2853156-5.303301 18.0312226l-1.06066 1.06066v8.485282l3.605968-4.879313.847976 1.273344 4.031337-.211303.847976-1.273345 3.394665 5.090617v-8.485282l-1.06066-1.06066c2.837705-9.739749-2.013687-14.899739-5.303301-18.0312226zm-1.287155 6.7423736a2.25 2.25 0 0 1 3.18198 0 2.25 2.25 0 0 1 0 3.18198 2.25 2.25 0 0 1 -3.18198 0 2.25 2.25 0 0 1 0-3.18198z"
       fill="#fff"
       id="path4" />
    <path
       d="m21.881059 33.763819c.517455-.642061 2.121321-1.272793 2.121321-1.272793s1.452914.935221 1.697056 1.697057c.262523.819196-.424264 2.545584-.424264 2.545584-.187569-.780264.08155-.295807-.636396-1.06066.359602 1.261169-.173031 1.417273-.848528 2.545584-.348244-.581525-2.084385-1.50638-1.272793-2.12132-.86651.637418-.306318.85543-.424264 1.272792-.86756-.164509-1.248184-2.320715-.212132-3.606244z"
       fill="#fefeff"
       fill-opacity=".630282"
       id="path6" />
  </g>
</svg>
