<svg height="48" width="48" xmlns="http://www.w3.org/2000/svg"><g fill="#69aee7"><path d="m44.322082 27.405077a19.729762 19.729765 0 0 1 -19.729762 19.729765 19.729762 19.729765 0 0 1 -19.7297621-19.729765 19.729762 19.729765 0 0 1 19.7297621-19.7297632 19.729762 19.729765 0 0 1 19.729762 19.7297632z" opacity=".99" transform="matrix(1.1503549 0 0 1.1503549 -4.486125 -7.525565)"/><path d="m27 30 3-.9v1.5l-3 .9z"/><path d="m18 29.1 3 .9v1.5l-3-.9z"/></g><path d="m22.09375 11.410156v2.492188a10.506001 10.506001 0 0 0 -3.40625 1.419921l-1.767578-1.769531-3.183594 3.183594 1.767578 1.765625a10.506001 10.506001 0 0 0 -1.412109 3.408203h-2.498047v4.5h2.492188a10.506001 10.506001 0 0 0 1.419921 3.40625l-1.769531 1.767578 3.183594 3.183594 1.765625-1.765625a10.506001 10.506001 0 0 0 3.408203 1.408203v2.5h4.5v-2.490234a10.506001 10.506001 0 0 0 3.40625-1.419922l1.767578 1.767578 3.183594-3.183594-1.765625-1.765625a10.506001 10.506001 0 0 0 1.408203-3.408203h2.5v-4.5h-2.494141a10.506001 10.506001 0 0 0 -1.417968-3.404297l1.769531-1.769531-3.183594-3.183594-1.767578 1.767578a10.506001 10.506001 0 0 0 -3.40625-1.412109v-2.498047zm2.0625 5.681641a7.0705009 7.0705009 0 0 1 .486328.0039 7.0705009 7.0705009 0 0 1 6.765625 7.351562l-.002.05078a7.0705009 7.0705009 0 0 1 -7.386719 6.724609 7.0705009 7.0705009 0 0 1 -6.740234-7.375 7.0705009 7.0705009 0 0 1 6.876953-6.755859z" fill="#fff"/></svg>