<svg height="48" width="48" xmlns="http://www.w3.org/2000/svg"><rect fill="#47b472" height="43" ry="1.452703" width="43" x="2" y="3"/><path d="m23.5 3h20.047297c.804798 0 1.452703.6479055 1.452703 1.4527029v20.0472971h-21.5z" fill="#6da1c8"/><path d="m45 24.5v20.047297c0 .804798-.647905 1.452703-1.452703 1.452703h-40.0945941c-.8047974 0-1.4527029-.647905-1.4527029-1.452703v-20.047297z" fill="#6dc8bd"/><path d="m45 24.5v20.047297c0 .804798-.647905 1.452703-1.452703 1.452703h-20.047297v-21.5z" fill="#d5bf56"/><path d="m9 10v29h29v-29zm16.416016 3.871094c1.300861 0 2.283667.347682 2.945312 1.042968.667252.695288 1.010775 1.72535 1.033203 3.087891l-.02539.050781h-2.302735c.03364-.801824-.075805-1.381123-.328125-1.734375-.252322-.35325-.694263-.529297-1.322265-.529297-.538288.000002-.950363.210323-1.236328.63086-.285966.420537-.427735 1.057867-.427735 1.910156v3.675781c0 .863504.150338 1.505245.453125 1.925782.308394.420537.756951.630859 1.345703.630859.577538 0 .978839-.165271 1.203125-.496094.229894-.336429.33077-.909365.302735-1.716797h2.304687l.025391.050782c.011213 1.345718-.308555 2.360847-.958985 3.044921-.650431.684074-1.609735 1.025391-2.876953 1.025391s-2.278189-.386367-3.035156-1.160156c-.756967-.779395-1.136719-1.880468-1.136719-3.304688v-3.660156c0-1.418612.364819-2.51748 1.09375-3.296875.734538-.785003 1.715391-1.177734 2.94336-1.177734zm-13.490235.177734h4.25586c1.222361 0 2.188029.360662 2.894531 1.083984.706503.723324 1.058594 1.671853 1.058594 2.84375 0 1.177504-.35625 2.12824-1.06836 2.851563-.706502.717717-1.668011 1.076172-2.884765 1.076172h-1.859375v4.390625h-2.396485zm2.396485 1.917969v4.019531h1.859375c.510251 0 .900777-.18682 1.169921-.5625.269144-.375679.402344-.854104.402344-1.43164 0-.583145-.133199-1.064026-.402344-1.445313-.263536-.386894-.654063-.580078-1.169921-.580078zm-2.322266 15.033203h12v2h-12z" fill="#fff"/></svg>