<?xml version="1.0" encoding="UTF-8" standalone="no"?>
<svg
   xmlns:dc="http://purl.org/dc/elements/1.1/"
   xmlns:cc="http://creativecommons.org/ns#"
   xmlns:rdf="http://www.w3.org/1999/02/22-rdf-syntax-ns#"
   xmlns:svg="http://www.w3.org/2000/svg"
   xmlns="http://www.w3.org/2000/svg"
   xmlns:sodipodi="http://sodipodi.sourceforge.net/DTD/sodipodi-0.dtd"
   xmlns:inkscape="http://www.inkscape.org/namespaces/inkscape"
   height="48"
   width="48"
   version="1.1"
   id="svg12"
   sodipodi:docname="pyrenamer.svg"
   inkscape:version="0.92.4 5da689c313, 2019-01-14">
  <metadata
     id="metadata18">
    <rdf:RDF>
      <cc:Work
         rdf:about="">
        <dc:format>image/svg+xml</dc:format>
        <dc:type
           rdf:resource="http://purl.org/dc/dcmitype/StillImage" />
        <dc:title></dc:title>
      </cc:Work>
    </rdf:RDF>
  </metadata>
  <defs
     id="defs16" />
  <sodipodi:namedview
     pagecolor="#ffffff"
     bordercolor="#666666"
     borderopacity="1"
     objecttolerance="10"
     gridtolerance="10"
     guidetolerance="10"
     inkscape:pageopacity="0"
     inkscape:pageshadow="2"
     inkscape:window-width="1920"
     inkscape:window-height="1027"
     id="namedview14"
     showgrid="true"
     inkscape:zoom="1.4142136"
     inkscape:cx="-2.976175"
     inkscape:cy="16.752095"
     inkscape:window-x="0"
     inkscape:window-y="30"
     inkscape:window-maximized="1"
     inkscape:current-layer="svg12">
    <inkscape:grid
       type="xygrid"
       id="grid828" />
  </sodipodi:namedview>
  <path
     inkscape:connector-curvature="0"
     style="fill:#a15252;fill-opacity:1"
     d="M 3.452703,46 H 43.5473 C 44.35209,46 45,45.352094 45,44.547297 V 4.452703 C 45,3.647906 44.35209,3 43.5473,3 H 3.452703 C 2.647906,3 2,3.647906 2,4.452703 V 44.547297 C 2,45.352094 2.647906,46 3.452703,46 Z"
     id="rect2-2" />
  <path
     style="fill:#ffffff;stroke:none;stroke-width:1px;stroke-linecap:butt;stroke-linejoin:miter;stroke-opacity:1;fill-opacity:1"
     d="M 43,5 4,44 h 39 z"
     id="path815"
     inkscape:connector-curvature="0" />
  <g
     aria-label="A"
     style="font-style:normal;font-variant:normal;font-weight:bold;font-stretch:normal;font-size:21.67779922px;line-height:125%;font-family:'Source Sans Pro';-inkscape-font-specification:'Source Sans Pro Bold';letter-spacing:0px;word-spacing:0px;fill:#000000;fill-opacity:1;stroke:none;stroke-width:0.54194498px;stroke-linecap:butt;stroke-linejoin:miter;stroke-opacity:1"
     id="text821">
    <path
       d="m 11.154116,16.725482 0.346844,-1.300668 c 0.390201,-1.409057 0.758723,-3.05657 1.105568,-4.552338 h 0.08671 c 0.368523,1.47409 0.758723,3.143281 1.148924,4.552338 l 0.325167,1.300668 z m 4.53066,5.853005 h 3.381736 L 14.644241,8.4445623 h -3.83697 L 6.3849998,22.578487 h 3.2516699 l 0.8671123,-3.360058 h 4.313882 z"
       style="stroke-width:0.54194498px;fill:#ffffff;fill-opacity:1"
       id="path827" />
  </g>
  <g
     aria-label="B"
     style="font-style:normal;font-variant:normal;font-weight:bold;font-stretch:normal;font-size:21.67779922px;line-height:125%;font-family:'Source Sans Pro';-inkscape-font-specification:'Source Sans Pro Bold';letter-spacing:0px;word-spacing:0px;fill:#000000;fill-opacity:1;stroke:none;stroke-width:0.54194498px;stroke-linecap:butt;stroke-linejoin:miter;stroke-opacity:1"
     id="text825">
    <path
       d="m 27.508678,41 h 5.246027 c 3.05657,0 5.484483,-1.27899 5.484483,-4.162137 0,-1.885969 -1.040534,-2.948181 -3.056569,-3.316704 v -0.08671 c 1.647512,-0.433556 2.36288,-1.799257 2.36288,-3.05657 0,-2.709725 -2.276169,-3.511803 -5.202672,-3.511803 h -4.834149 z m 3.186636,-8.432664 v -3.229992 h 1.517446 c 1.495768,0 2.211136,0.433556 2.211136,1.495768 0,1.062212 -0.672012,1.734224 -2.232814,1.734224 z m 0,5.961395 v -3.706904 h 1.799257 c 1.755902,0 2.623014,0.541945 2.623014,1.77758 0,1.27899 -0.88879,1.929324 -2.623014,1.929324 z"
       style="stroke-width:0.54194498px;fill:#a15252;fill-opacity:1"
       id="path830" />
  </g>
</svg>
