<svg height="48" width="48" xmlns="http://www.w3.org/2000/svg"><rect fill="#c8b7b7" height="42.5" ry="2.5" width="32.5" x="7.5" y="3"/><path d="m35 10.5-2.5 2.5" fill="none"/><g fill="#fff" fill-rule="evenodd"><path d="m23.172343 14.587282c-2.195997 0-3.976529 1.780532-3.976529 3.976536 0 1.020296.385252 1.951171 1.016995 2.65511-.39936-.134744-.826422-.208527-1.271243-.208527-2.196003 0-3.976535 1.780532-3.976535 3.976529 0 2.196004 1.780532 3.976536 3.976535 3.976536.915375 0 1.758845-.309775 2.43097-.829652l-1.687183 5.580081h3.48699 3.55499l-1.727333-5.713895c.678465.539023 1.537021.860873 2.47112.860873 2.196004 0 3.976536-2.142023 3.976536-4.338027 0-2.196003-1.780532-3.613924-3.976536-3.613924-.399864 0-.785638.05854-1.149689.168383.559584-.685043.895442-1.559953.895442-2.513487 0-2.196004-1.84852-3.976536-4.04453-3.976536z"/><path d="m11.692894 6.246227c-.368999 0-.668186.299187-.668186.668188 0 .171443.06473.32786.170888.446145-.06711-.02264-.138866-.03504-.21361-.03504-.369001 0-.668188.299187-.668188.668186 0 .369.299187.668188.668188.668188.153812 0 .295543-.05205.408482-.139409l-.283502.937636h.585928.597354l-.290248-.960121c.114004.09057.25827.144655.415229.144655.369 0 .668188-.35993.668188-.72893s-.299188-.607257-.668188-.607257c-.06719 0-.132013.0098-.193185.02829.09403-.11511.150463-.262123.150463-.422348 0-.368996-.310611-.668183-.679613-.668183z"/><path d="m35.997298 42.614333c-.368999 0-.668186-.299187-.668186-.668188 0-.171443.06473-.32786.170888-.446145-.06711.02264-.138866.03504-.21361.03504-.369001 0-.668188-.299187-.668188-.668186 0-.369.299187-.668188.668188-.668188.153812 0 .295543.05205.408482.139409l-.283502-.937636h.585928.597354l-.290248.960121c.114004-.09057.25827-.144655.415229-.144655.369 0 .668188.35993.668188.72893s-.299188.607257-.668188.607257c-.06719 0-.132013-.0098-.193185-.02829.09403.11511.150463.262123.150463.422348 0 .368996-.310611.668183-.679613.668183z"/></g></svg>