<svg height="48" width="48" xmlns="http://www.w3.org/2000/svg"><path d="m44.322082 27.405077a19.729762 19.729765 0 0 1 -19.729762 19.729765 19.729762 19.729765 0 0 1 -19.7297621-19.729765 19.729762 19.729765 0 0 1 19.7297621-19.7297632 19.729762 19.729765 0 0 1 19.729762 19.7297632z" fill="#5999b6" opacity=".99" transform="matrix(1.1503549 0 0 1.1503549 -4.486125 -7.525565)"/><path d="m22.839453 5.859375c-.255601.00303-.511541.1045611-.705078.3027344l-3.203125 3.2792968 4.283203 4.2832028a2.875 2.875 0 0 1 .744141-.09961 2.875 2.875 0 0 1 2.875 2.875 2.875 2.875 0 0 1 -.101562.742188l4.167968 4.167969a2.875 2.875 0 0 1 .433594-.03516 2.875 2.875 0 0 1 2.875 2.875 2.875 2.875 0 0 1 -2.875 2.875 2.875 2.875 0 0 1 -2.875-2.875 2.875 2.875 0 0 1 .357422-1.386719l-3.72461-3.724609a2.875 2.875 0 0 1 -.359374.128906l-1.601563 7.646484a2.875 2.875 0 0 1 1.203125 2.335938 2.875 2.875 0 0 1 -2.875 2.875 2.875 2.875 0 0 1 -2.875-2.875 2.875 2.875 0 0 1 2.083984-2.761719l1.603516-7.664062a2.875 2.875 0 0 1 -1.1875-2.324215 2.875 2.875 0 0 1 .234375-1.134766l-4.134766-4.134765-11.4667965 11.74414c-.3870729.396347-.3807216 1.02699.015625 1.414063l17.8867185 17.466797c.396347.387073 1.02699.378768 1.414063-.01758l16.417969-16.8125c.387072-.396347.380721-1.02699-.01563-1.414063l-17.886714-17.4667948c-.198174-.1935364-.453383-.2881819-.708985-.2851562z" fill="#fff"/></svg>