<?xml version="1.0" encoding="UTF-8" standalone="no"?>
<svg
   xmlns:dc="http://purl.org/dc/elements/1.1/"
   xmlns:cc="http://creativecommons.org/ns#"
   xmlns:rdf="http://www.w3.org/1999/02/22-rdf-syntax-ns#"
   xmlns:svg="http://www.w3.org/2000/svg"
   xmlns="http://www.w3.org/2000/svg"
   xmlns:sodipodi="http://sodipodi.sourceforge.net/DTD/sodipodi-0.dtd"
   xmlns:inkscape="http://www.inkscape.org/namespaces/inkscape"
   height="48"
   width="48"
   version="1.1"
   id="svg16"
   sodipodi:docname="qtpass.svg"
   inkscape:version="0.92.4 5da689c313, 2019-01-14">
  <metadata
     id="metadata22">
    <rdf:RDF>
      <cc:Work
         rdf:about="">
        <dc:format>image/svg+xml</dc:format>
        <dc:type
           rdf:resource="http://purl.org/dc/dcmitype/StillImage" />
        <dc:title></dc:title>
      </cc:Work>
    </rdf:RDF>
  </metadata>
  <defs
     id="defs20">
    <radialGradient
       gradientTransform="matrix(3.57049e-7,-0.102549,-0.288309,-1.33269e-7,78.984696,88.973262)"
       r="21.166656"
       fy="189.579361"
       fx="450.908936"
       cy="189.579361"
       cx="450.908936"
       gradientUnits="userSpaceOnUse"
       id="radial0">
      <stop
         id="stop822"
         style="stop-color:rgb(0%,0%,0%);stop-opacity:0.313726;"
         offset="0" />
      <stop
         id="stop824"
         style="stop-color:rgb(0%,0%,0%);stop-opacity:0.27451;"
         offset="0.222222" />
      <stop
         id="stop826"
         style="stop-color:rgb(0%,0%,0%);stop-opacity:0;"
         offset="1" />
    </radialGradient>
    <radialGradient
       gradientTransform="matrix(-3.57049e-7,0.102549,0.288309,1.33269e-7,-31.685907,-4.375346)"
       r="21.166656"
       fy="189.579361"
       fx="450.908936"
       cy="189.579361"
       cx="450.908936"
       gradientUnits="userSpaceOnUse"
       id="radial1">
      <stop
         id="stop829"
         style="stop-color:rgb(0%,0%,0%);stop-opacity:0.313726;"
         offset="0" />
      <stop
         id="stop831"
         style="stop-color:rgb(0%,0%,0%);stop-opacity:0.27451;"
         offset="0.222222" />
      <stop
         id="stop833"
         style="stop-color:rgb(0%,0%,0%);stop-opacity:0;"
         offset="1" />
    </radialGradient>
    <radialGradient
       gradientTransform="matrix(-3.57049e-7,-0.102549,0.288309,-1.33269e-7,-31.685907,88.973262)"
       r="21.166656"
       fy="189.579361"
       fx="450.908936"
       cy="189.579361"
       cx="450.908936"
       gradientUnits="userSpaceOnUse"
       id="radial2">
      <stop
         id="stop836"
         style="stop-color:rgb(0%,0%,0%);stop-opacity:0.313726;"
         offset="0" />
      <stop
         id="stop838"
         style="stop-color:rgb(0%,0%,0%);stop-opacity:0.27451;"
         offset="0.222222" />
      <stop
         id="stop840"
         style="stop-color:rgb(0%,0%,0%);stop-opacity:0;"
         offset="1" />
    </radialGradient>
    <radialGradient
       gradientTransform="matrix(3.57049e-7,0.102549,-0.288309,1.33269e-7,78.984692,-4.375346)"
       r="21.166656"
       fy="189.579361"
       fx="450.908936"
       cy="189.579361"
       cx="450.908936"
       gradientUnits="userSpaceOnUse"
       id="radial3">
      <stop
         id="stop843"
         style="stop-color:rgb(0%,0%,0%);stop-opacity:0.313726;"
         offset="0" />
      <stop
         id="stop845"
         style="stop-color:rgb(0%,0%,0%);stop-opacity:0.27451;"
         offset="0.222222" />
      <stop
         id="stop847"
         style="stop-color:rgb(0%,0%,0%);stop-opacity:0;"
         offset="1" />
    </radialGradient>
    <linearGradient
       gradientTransform="matrix(0.0273881,0,0,0.082039,16.656575,23.142854)"
       y2="254.666656"
       x2="255.323044"
       y1="233.5"
       x1="255.323059"
       gradientUnits="userSpaceOnUse"
       id="linear0">
      <stop
         id="stop850"
         style="stop-color:rgb(0%,0%,0%);stop-opacity:0.27451;"
         offset="0" />
      <stop
         id="stop852"
         style="stop-color:rgb(0%,0%,0%);stop-opacity:0;"
         offset="1" />
    </linearGradient>
    <linearGradient
       gradientTransform="matrix(0.093759,0,0,0.093759,0,20.158175)"
       y2="-168.666672"
       x2="254"
       y1="233.5"
       x1="254"
       gradientUnits="userSpaceOnUse"
       id="linear1">
      <stop
         id="stop855"
         style="stop-color:rgb(100%,43.921569%,26.274511%);stop-opacity:1;"
         offset="0" />
      <stop
         id="stop857"
         style="stop-color:rgb(100%,54.11765%,39.607844%);stop-opacity:1;"
         offset="1" />
    </linearGradient>
    <linearGradient
       gradientTransform="matrix(0.093759,0,0,0.093759,0,20.158175)"
       y2="-84"
       x2="254"
       y1="148.833328"
       x1="254"
       gradientUnits="userSpaceOnUse"
       id="linear2">
      <stop
         id="stop860"
         style="stop-color:rgb(74.117649%,74.117649%,74.117649%);stop-opacity:1;"
         offset="0" />
      <stop
         id="stop862"
         style="stop-color:rgb(87.843138%,87.843138%,87.843138%);stop-opacity:1;"
         offset="1" />
    </linearGradient>
    <linearGradient
       gradientTransform="matrix(0.08461253,0,0,0.08461253,-19.162897,21.468351)"
       y2="-84"
       x2="254"
       y1="148.83333"
       x1="254"
       gradientUnits="userSpaceOnUse"
       id="linear2-3">
      <stop
         id="stop860-6"
         style="stop-color:rgb(74.117649%,74.117649%,74.117649%);stop-opacity:1;"
         offset="0" />
      <stop
         id="stop862-7"
         style="stop-color:rgb(87.843138%,87.843138%,87.843138%);stop-opacity:1;"
         offset="1" />
    </linearGradient>
  </defs>
  <sodipodi:namedview
     pagecolor="#ffffff"
     bordercolor="#666666"
     borderopacity="1"
     objecttolerance="10"
     gridtolerance="10"
     guidetolerance="10"
     inkscape:pageopacity="0"
     inkscape:pageshadow="2"
     inkscape:window-width="1920"
     inkscape:window-height="1031"
     id="namedview18"
     showgrid="true"
     inkscape:zoom="4.9166667"
     inkscape:cx="-13.578535"
     inkscape:cy="16.220643"
     inkscape:window-x="0"
     inkscape:window-y="26"
     inkscape:window-maximized="1"
     inkscape:current-layer="svg16"
     showguides="false">
    <inkscape:grid
       type="xygrid"
       id="grid829" />
  </sodipodi:namedview>
  <circle
     style="opacity:1;fill:#799856;fill-opacity:1;stroke:none;stroke-width:6;stroke-linecap:round;stroke-linejoin:round;stroke-miterlimit:4;stroke-dasharray:none;stroke-dashoffset:0;stroke-opacity:1;paint-order:fill markers stroke"
     id="path4167"
     cx="23.713203"
     cy="23.985281"
     r="22.684189" />
  <path
     style="fill:#ffffff;fill-opacity:1;stroke-width:0.26283321"
     d="m 23.711681,13.180305 c -0.174072,0 -0.347362,0.05362 -0.495185,0.161377 -1.411917,1.027854 -5.703414,3.83773 -10.961494,4.329552 -0.632738,0.05805 -1.118588,0.583672 -1.12964,1.219172 -0.06355,4.147335 0.601846,18.227055 12.270196,21.360379 0.207228,0.05526 0.426122,0.05526 0.633351,0 11.668352,-3.130534 12.333196,-17.213072 12.27241,-21.360379 -0.0083,-0.6355 -0.496934,-1.16112 -1.129645,-1.219172 -5.258076,-0.491822 -9.54905,-3.301698 -10.963703,-4.329552 -0.147823,-0.107759 -0.322218,-0.161377 -0.49629,-0.161377 z m -0.05416,8.781796 c 1.645022,0 2.983268,1.338394 2.983268,2.983268 v 1.21254 c 0.235111,0.0495 0.412286,0.257644 0.412286,0.507344 v 4.541774 c 0,0.286002 -0.232262,0.519502 -0.518397,0.519502 h -5.753211 c -0.286141,0 -0.519502,-0.2335 -0.519502,-0.519502 v -4.541774 c 0,-0.2497 0.177184,-0.458431 0.412285,-0.507344 v -1.21254 c 0,-1.644874 1.338246,-2.983268 2.983269,-2.983268 z m 0,1.037899 c -1.072742,0 -1.94537,0.872611 -1.94537,1.945369 v 1.201487 h 3.89074 V 24.945369 C 25.602891,23.872664 24.730258,23 23.657522,23 Z m -2.627354,3.709466 c -0.180331,0 -0.326071,0.146818 -0.326071,0.327175 0,0.18031 0.145772,0.32607 0.326071,0.32607 0.180304,0 0.32607,-0.14576 0.32607,-0.32607 0,-0.180251 -0.145739,-0.327175 -0.32607,-0.327175 z m 5.254708,0 c -0.180336,0 -0.326071,0.146818 -0.326071,0.327175 0,0.18031 0.145772,0.32607 0.326071,0.32607 0.18031,0 0.327175,-0.14576 0.327175,-0.32607 0,-0.180251 -0.146849,-0.327175 -0.327175,-0.327175 z m -2.627354,1.031266 c -0.402048,0 -0.727304,0.326175 -0.727304,0.728409 0,0.213185 0.09166,0.405207 0.237645,0.538292 l -0.193431,1.021319 c -0.01058,0.05692 0.02804,0.102795 0.08511,0.102795 h 1.210329 c 0.05709,0 0.09572,-0.04584 0.08511,-0.102795 L 24.159336,28.99638 c 0.139106,-0.132643 0.226591,-0.319926 0.226591,-0.527239 0,-0.402234 -0.326372,-0.728409 -0.728408,-0.728409 z m -2.627354,2.768836 c -0.180331,0 -0.326071,0.146866 -0.326071,0.327175 0,0.180305 0.145772,0.326071 0.326071,0.326071 0.180304,0 0.32607,-0.145878 0.32607,-0.326071 0,-0.180309 -0.145739,-0.327175 -0.32607,-0.327175 z m 5.254708,0 c -0.180336,0 -0.326071,0.146866 -0.326071,0.327175 0,0.180305 0.145772,0.326071 0.326071,0.326071 0.18031,0 0.327175,-0.145878 0.327175,-0.326071 0,-0.180309 -0.146849,-0.327175 -0.327175,-0.327175 z"
     id="path1022"
     inkscape:connector-curvature="0" />
</svg>
