<svg height="48" width="48" xmlns="http://www.w3.org/2000/svg"><path d="m44.322082 27.405077a19.729762 19.729765 0 0 1 -19.729762 19.729765 19.729762 19.729765 0 0 1 -19.7297621-19.729765 19.729762 19.729765 0 0 1 19.7297621-19.7297632 19.729762 19.729765 0 0 1 19.729762 19.7297632z" fill="#4f5580" opacity=".99" transform="matrix(1.1503549 0 0 1.1503549 -4.486125 -7.525565)"/><path d="m23.803771 8.999999a15 15 0 0 0 -15 15 15 15 0 0 0 .816406 4.824219c3.433-.714 5.313188-1.038375 6.867188-3.609375 1.807-2.99 2.336406-7.441844 4.316406-10.214844 0 1.634 0 2.495 1 3 0-3.231 2-4 3-4-.495.528-1 1.636-1 3 1-2.692 5-2.631 6.25-1.75-3.237.511-5.048 1.981-4.25 4.25 1 0 2-.018 3 1.5.384 0 1.25.396 1.25 1.25 0 1.091-1.050781 1.25-1.050781 1.25s-.199219.5.300781 1.25c0 0 .693-.652 1.25-.25.25.181.25.5.25 1.5.711.618 2.5 2 2.5 3 0 .278-.112391 1-.900391 1-.58 2-1.599609 2-3.599609 2-.305.605-2.490391.549-3.400391.25.393 1.72 1.139828 4.641625.04883 6.640625a15 15 0 0 0 13.35156-14.890625 15 15 0 0 0 -14.999999-15zm-14.179688 19.832032a15 15 0 0 0 .533204 1.345703 15 15 0 0 1 -.533204-1.345703zm.564454 1.416015a15 15 0 0 0 .642578 1.244141 15 15 0 0 1 -.642578-1.244141zm.701172 1.345703a15 15 0 0 0 .751953 1.152344 15 15 0 0 1 -.751953-1.152344zm.824218 1.253906a15 15 0 0 0 .863282 1.072266 15 15 0 0 1 -.863282-1.072266zm.947266 1.166016a15 15 0 0 0 .935547.951172 15 15 0 0 1 -.935547-.951172zm1.072266 1.080078a15 15 0 0 0 .982421.816406 15 15 0 0 1 -.982421-.816406zm1.189453.972656a15 15 0 0 0 .972656.65625 15 15 0 0 1 -.972656-.65625zm1.287109.847657a15 15 0 0 0 .974609.52539 15 15 0 0 1 -.974609-.52539zm1.34375.703125a15 15 0 0 0 .958984.398437 15 15 0 0 1 -.958984-.398437zm1.419922.568359a15 15 0 0 0 .953125.285156 15 15 0 0 1 -.953125-.285156zm1.464844.416016a15 15 0 0 0 .880859.171875 15 15 0 0 1 -.880859-.171875zm1.521484.269531a15 15 0 0 0 .826172.07813 15 15 0 0 1 -.826172-.07813zm3.339844.03711a15 15 0 0 1 -1.490235.0918 15 15 0 0 0 1.490235-.0918z" fill="#fff"/></svg>