<?xml version="1.0" encoding="UTF-8" standalone="no"?>
<svg
   xmlns:dc="http://purl.org/dc/elements/1.1/"
   xmlns:cc="http://creativecommons.org/ns#"
   xmlns:rdf="http://www.w3.org/1999/02/22-rdf-syntax-ns#"
   xmlns:svg="http://www.w3.org/2000/svg"
   xmlns="http://www.w3.org/2000/svg"
   xmlns:sodipodi="http://sodipodi.sourceforge.net/DTD/sodipodi-0.dtd"
   xmlns:inkscape="http://www.inkscape.org/namespaces/inkscape"
   height="48"
   width="48"
   version="1.1"
   id="svg31"
   sodipodi:docname="org.gnome.Recipes.svg"
   inkscape:version="0.92.4 5da689c313, 2019-01-14">
  <metadata
     id="metadata37">
    <rdf:RDF>
      <cc:Work
         rdf:about="">
        <dc:format>image/svg+xml</dc:format>
        <dc:type
           rdf:resource="http://purl.org/dc/dcmitype/StillImage" />
        <dc:title></dc:title>
      </cc:Work>
    </rdf:RDF>
  </metadata>
  <defs
     id="defs35">
    <linearGradient
       id="linearGradient3866">
      <stop
         style="stop-color:#000000;stop-opacity:0.52083331"
         offset="0"
         id="stop3868" />
      <stop
         style="stop-color:#2883c3;stop-opacity:0;"
         offset="1"
         id="stop3870" />
    </linearGradient>
    <linearGradient
       id="linearGradient3874">
      <stop
         style="stop-color:#000d0e;stop-opacity:0.84105963;"
         offset="0"
         id="stop3876" />
      <stop
         style="stop-color:#000000;stop-opacity:0;"
         offset="1"
         id="stop3878" />
    </linearGradient>
  </defs>
  <sodipodi:namedview
     pagecolor="#ffffff"
     bordercolor="#666666"
     borderopacity="1"
     objecttolerance="10"
     gridtolerance="10"
     guidetolerance="10"
     inkscape:pageopacity="0"
     inkscape:pageshadow="2"
     inkscape:window-width="1920"
     inkscape:window-height="1027"
     id="namedview33"
     showgrid="true"
     inkscape:measure-start="0,0"
     inkscape:measure-end="0,0"
     inkscape:zoom="13.906433"
     inkscape:cx="25.929901"
     inkscape:cy="17.838042"
     inkscape:window-x="0"
     inkscape:window-y="30"
     inkscape:window-maximized="1"
     inkscape:current-layer="svg31">
    <inkscape:grid
       type="xygrid"
       id="grid826" />
  </sodipodi:namedview>
  <clipPath
     id="a">
    <path
       d="m3.4527029 3h40.0945941c.804798 0 1.452703.6479055 1.452703 1.4527029v8.5455121l-43 .151523v-8.6970351c0-.8047974.6479055-1.4527029 1.4527029-1.4527029z"
       id="path2" />
  </clipPath>
  <path
     style="fill:#6f8b49;fill-opacity:1"
     d="M 3.452703,3 43.547297,3 C 44.352094,3 45,3.6479055 45,4.452703 l 0,40.094594 C 45,45.352094 44.352094,46 43.547297,46 L 3.452703,46 C 2.6479055,46 2,45.352094 2,44.547297 L 2,4.452703 C 2,3.6479055 2.6479055,3 3.452703,3 Z"
     id="rect5" />
  <rect
     style="opacity:1;fill:#ffffff;fill-opacity:0.07575755;stroke:none;stroke-width:0.2;stroke-linecap:round;stroke-linejoin:round;stroke-miterlimit:4;stroke-dasharray:none;stroke-dashoffset:0;stroke-opacity:1;paint-order:fill markers stroke"
     id="rect4514"
     width="35.954582"
     height="35.954578"
     x="5.5227089"
     y="6.5227108"
     ry="1.2943649" />
  <path
     style="fill:#ffffff;fill-opacity:1;stroke:none;stroke-width:1px;stroke-linecap:butt;stroke-linejoin:miter;stroke-opacity:1"
     d="m 16,38 c 6.894699,-1.656108 11.111561,-0.971587 15,0 l -1,-9 c 0,0 11,0 5.271867,-9.755046 C 30.026375,10.311847 27,20 27,20 27,20 31,14 22.957318,14.166316 17.859388,14.271737 19,19 19,19 19,19 14.203768,12.603588 11.238225,18.892137 6,30 17,29 17,29 Z"
     id="path828"
     inkscape:connector-curvature="0"
     sodipodi:nodetypes="cccscscscc" />
  <path
     style="fill:none;stroke:#7a9457;stroke-width:1px;stroke-linecap:butt;stroke-linejoin:miter;stroke-opacity:1"
     d="m 15,35 c 6,-1.333333 12,-1.333334 18,0"
     id="path830"
     inkscape:connector-curvature="0"
     sodipodi:nodetypes="cc" />
</svg>
