<?xml version="1.0" encoding="UTF-8" standalone="no"?>
<svg
   xmlns:dc="http://purl.org/dc/elements/1.1/"
   xmlns:cc="http://creativecommons.org/ns#"
   xmlns:rdf="http://www.w3.org/1999/02/22-rdf-syntax-ns#"
   xmlns:svg="http://www.w3.org/2000/svg"
   xmlns="http://www.w3.org/2000/svg"
   xmlns:sodipodi="http://sodipodi.sourceforge.net/DTD/sodipodi-0.dtd"
   xmlns:inkscape="http://www.inkscape.org/namespaces/inkscape"
   height="48"
   width="48"
   version="1.1"
   id="svg6"
   sodipodi:docname="retroarch.svg"
   inkscape:version="1.0.2 (e86c870879, 2021-01-15)">
  <metadata
     id="metadata12">
    <rdf:RDF>
      <cc:Work
         rdf:about="">
        <dc:format>image/svg+xml</dc:format>
        <dc:type
           rdf:resource="http://purl.org/dc/dcmitype/StillImage" />
        <dc:title></dc:title>
      </cc:Work>
    </rdf:RDF>
  </metadata>
  <defs
     id="defs10">
    <linearGradient
       id="1"
       y1="38"
       x2="0"
       y2="13"
       gradientUnits="userSpaceOnUse"
       gradientTransform="matrix(0.99994569,0,0,0.99994569,-0.79787918,-6.6609734)">
      <stop
         stop-color="#00cafe"
         id="stop7" />
      <stop
         offset="1"
         stop-color="#1460f3"
         id="stop9" />
    </linearGradient>
  </defs>
  <sodipodi:namedview
     pagecolor="#ffffff"
     bordercolor="#666666"
     borderopacity="1"
     objecttolerance="10"
     gridtolerance="10"
     guidetolerance="10"
     inkscape:pageopacity="0"
     inkscape:pageshadow="2"
     inkscape:window-width="1920"
     inkscape:window-height="1028"
     id="namedview8"
     showgrid="false"
     inkscape:zoom="6.6880516"
     inkscape:cx="5.6811301"
     inkscape:cy="24.778565"
     inkscape:window-x="0"
     inkscape:window-y="24"
     inkscape:window-maximized="1"
     inkscape:current-layer="svg6" />
  <rect
     fill="#5f8dd3"
     height="43"
     ry="1.452703"
     width="43"
     x="2"
     y="3"
     id="rect2"
     style="fill:#af95cc;fill-opacity:1" />
  <rect
     style="fill:#3ebbff;stroke-width:35;stroke-linecap:round;stroke-linejoin:round;fill-opacity:0.44113177"
     id="rect837"
     width="39.501316"
     height="25.545401"
     x="3.6806102"
     y="4.6089535"
     rx="1.1519942"
     ry="1.1519942" />
  <circle
     style="fill:#ffffff;fill-opacity:1;stroke-width:35;stroke-linecap:round;stroke-linejoin:round"
     id="path839"
     cx="8.5035439"
     cy="35.143848"
     r="2.8051097" />
  <circle
     style="fill:#ffffff;fill-opacity:1;stroke-width:35;stroke-linecap:round;stroke-linejoin:round"
     id="circle841"
     cx="15.862426"
     cy="41.320526"
     r="2.8051097" />
  <rect
     style="fill:#ffffff;fill-opacity:1;stroke-width:35;stroke-linecap:round;stroke-linejoin:round"
     id="rect843"
     width="4.7316813"
     height="11.902602"
     x="32.109543"
     y="32.251041"
     rx="0"
     ry="0" />
  <rect
     style="fill:#ffffff;fill-opacity:1;stroke-width:35;stroke-linecap:round;stroke-linejoin:round"
     id="rect845"
     width="4.7316813"
     height="11.902602"
     x="35.836502"
     y="-40.426685"
     rx="0"
     ry="0"
     transform="rotate(90)" />
  <path
     d="m 13.465346,5.2793781 c -0.204989,0 -0.251986,0.1739905 -0.251986,0.3789794 v 2.2298789 c 0,0.2049889 0.047,0.3589805 0.251986,0.3589805 h 2.247878 c 0.204989,0 0.36898,-0.1599913 0.36698,-0.3649802 -0.006,-0.7419597 -0.007,-1.4879192 -0.008,-2.2298789 0,-0.2049888 -0.165991,-0.3729797 -0.37098,-0.3729797 h -2.235879 m 18.03902,0 c -0.204988,0 -0.481973,0.1699908 -0.481973,0.3749796 v 2.245878 c 0,0.2049889 0.220988,0.36898 0.425977,0.3669801 0.741959,-0.006 1.45892,-0.005 2.20088,-0.006 0.204989,0 0.341981,-0.1679908 0.341981,-0.3729797 V 5.6543577 c 0,-0.2049888 -0.051,-0.3749796 -0.255986,-0.3749796 H 31.505366 M 16.52718,8.263216 c -0.205989,-0.002 -0.345981,0.1619912 -0.345981,0.3669801 v 2.2968749 c 0,0.204989 -0.263986,0.288985 -0.468975,0.288985 h -2.276876 c -0.204989,0 -0.220988,0.247986 -0.220988,0.452975 v 2.267877 c 0,0.204989 -0.316983,0.245987 -0.520972,0.245987 h -2.270877 c -0.204988,0 -0.5469699,0.290984 -0.5469699,0.495973 v 2.270876 c 0,0.204989 0.009,0.200989 -0.1949894,0.200989 H 7.4446731 c -0.2049888,0 -0.5369708,0.333982 -0.5369708,0.538971 v 8.228553 c 0,0.204989 0.331982,0.507973 0.5369708,0.507973 h 2.2338787 c 0.2049889,0 0.1969893,-0.302984 0.1969893,-0.507973 v -5.235716 c 0,-0.204988 0.3399819,-0.190989 0.5449709,-0.190989 h 2.294875 c 0.204989,0 0.499973,-0.013 0.499973,0.190989 v 5.269714 c 0,0.204989 0.100994,0.37098 0.306983,0.37098 0.760959,0 1.528917,0 2.261877,0.006 0.204989,0.002 0.397979,-0.161991 0.397979,-0.36698 v -2.261877 c 0,-0.204989 0.047,-0.241987 0.251986,-0.241987 h 14.339221 c 0.204989,0 0.37098,0.101994 0.37098,0.306983 0,0.760959 0,1.529917 -0.006,2.270877 -0.002,0.204989 0.161992,0.390978 0.36698,0.390978 h 2.257878 c 0.203989,0 0.226987,-0.271985 0.226987,-0.476974 v -5.261714 c 0,-0.204989 0.310984,-0.196989 0.515972,-0.196989 h 2.306875 c 0.204989,0 0.517972,-0.008 0.517972,0.196989 v 5.229716 c 0,0.204989 0.02,0.507973 0.224988,0.507973 h 2.20688 c 0.204989,0 0.536971,-0.302984 0.536971,-0.507973 v -8.241552 c 0,-0.204989 -0.331982,-0.524972 -0.536971,-0.524972 H 37.50704 c -0.204988,0 -0.54697,-0.012 -0.54697,-0.216988 v -2.276876 c 0,-0.204989 10e-4,-0.474974 -0.194989,-0.474974 h -2.265877 c -0.204989,0 -0.507973,-0.063 -0.507973,-0.267986 v -2.265877 c 0,-0.204989 -0.03,-0.433976 -0.233987,-0.433976 h -2.259877 c -0.204989,0 -0.472974,-0.103995 -0.472974,-0.308984 V 8.631196 c 0,-0.2049888 -0.115994,-0.3709798 -0.319983,-0.3689799 -0.73996,0.006 -1.498919,0.008 -2.267877,0.008 -0.204989,0 -0.380979,0.165991 -0.380979,0.3709799 v 2.255878 c 0,0.205989 -0.094,0.317983 -0.298984,0.317983 h -8.323548 c -0.204989,0 -0.280985,-0.113994 -0.280985,-0.317983 V 8.6391956 c 0,-0.2049889 -0.210988,-0.3709798 -0.415977,-0.3709798 -0.760959,0 -1.47392,0 -2.20688,-0.006 m -0.08,5.9196792 h 2.265877 c 0.204989,0 0.437976,0.266985 0.437976,0.472974 0,0.753959 0,1.501918 0,2.261877 0,0.204989 -0.232987,0.233987 -0.437976,0.233987 h -2.265873 c -0.204989,0 -0.265985,-0.03 -0.265985,-0.233987 v -2.261877 c 0,-0.204989 0.06,-0.472974 0.265985,-0.472974 m 12.049346,0 h 2.261877 c 0.204989,0 0.267985,0.271985 0.267985,0.476974 v 2.263877 c 0,0.204989 -0.063,0.228987 -0.267985,0.228987 H 28.49853 c -0.204989,0 -0.438976,-0.023 -0.438976,-0.228987 v -2.263877 c 0,-0.203989 0.234987,-0.476974 0.438976,-0.476974 m -12.049346,12.15134 c -0.204989,-10e-5 -0.37298,0.165991 -0.37098,0.370979 0.006,0.74196 0.004,1.530917 0.004,2.272877 0,0.204989 0.163991,0.415977 0.36898,0.415977 h 5.247715 c 0.204989,0 0.427977,-0.255986 0.427977,-0.460975 v -2.212879 c 0,-0.204989 -0.19399,-0.37198 -0.397979,-0.37098 -0.557969,0 -1.122939,0 -1.671909,-0.002 -1.200935,-0.004 -2.406869,-0.009 -3.606804,-0.014 m 14.462215,0.006 c -0.058,0.004 -0.09,0.047 -0.147992,0.047 -1.766904,10e-5 -3.50281,0.039 -5.269714,0.039 h -0.169991 c -0.09299,0 -0.228987,0.088 -0.228987,0.292984 v 2.220879 c 0,0.204989 0.227987,0.454975 0.433976,0.454975 h 5.241715 c 0.204989,0 0.259986,-0.249986 0.259986,-0.454975 v -2.247878 c 0,-0.204989 -0.022,-0.35898 -0.118993,-0.351981"
     fill="url(#1)"
     id="path16"
     style="fill:#ffffff;stroke-width:0.999946;fill-opacity:0.68295366" />
</svg>
