<svg height="48" width="48" xmlns="http://www.w3.org/2000/svg"><g fill="#e49b71" opacity=".99" transform="matrix(1.1503549 0 0 1.1503549 -4.486125 -7.525565)"><path d="m44.322082 27.405077a19.729762 19.729765 0 0 1 -19.729762 19.729765 19.729762 19.729765 0 0 1 -19.7297621-19.729765 19.729762 19.729765 0 0 1 19.7297621-19.7297632 19.729762 19.729765 0 0 1 19.729762 19.7297632z" fill="#9a5690"/><path d="m38.543368 13.454028c3.570384 3.570384 5.778714 8.502825 5.778714 13.951049.000001 10.896448-8.833315 19.729765-19.729762 19.729765-5.448223 0-10.380664-2.208329-13.951049-5.778714z" fill="#a0be8e"/></g><g fill="#fff" transform="translate(-.946229 .338135)"><path d="m23.804688 8.0664062a11.25 11.25 0 0 0 -1.238282.0742188l-9.929687 9.929687a11.25 11.25 0 0 0 -.082031 1.246094 11.25 11.25 0 0 0 .013671.408203l11.642579-11.6425778a11.25 11.25 0 0 0 -.40625-.015625zm1.697265.1386719-12.947265 12.9472659v1.585937l14.261718-14.2617185a11.25 11.25 0 0 0 -1.314453-.2714844zm-4.693359.2792969a11.25 11.25 0 0 0 -7.851563 7.851563zm7.068359.3457031-15.322265 15.3222659v1.585937l16.412109-16.4121091a11.25 11.25 0 0 0 -1.089844-.4960938zm1.990235 1.0097657-17.3125 17.3125002v1.585937l18.238281-18.238281a11.25 11.25 0 0 0 -.925781-.6601562zm1.677734 1.3222652-18.990234 18.990235v1.585937l19.765624-19.765625a11.25 11.25 0 0 0 -.77539-.810547zm1.394531 1.605469-20.384765 20.384766v1.585937l21.003906-21.003906a11.25 11.25 0 0 0 -.619141-.966797zm1.097656 1.902344-21.335937 21.335937c.10033.402024.259097.776451.458984 1.126953l21.324219-21.324218a11.25 11.25 0 0 0 -.447266-1.138672zm.751953 2.248047-21.037109 21.037109c.255118.276742.540094.522982.857422.728516l6.945313-6.945313v-1.40039a11.25 11.25 0 0 0 1.224609.175781l12.222656-12.222656a11.25 11.25 0 0 0 -.212891-1.373047zm.251954 2.748047-10.882813 10.882812a11.25 11.25 0 0 0 1.777344-.191406l8.904297-8.904297a11.25 11.25 0 0 0 .201172-1.787109zm-.771485 3.771484-6.330078 6.330078a11.25 11.25 0 0 0 6.330078-6.330078zm-12.714843 9.714844-5.988282 5.988281c.419781.146929.86493.23776 1.332032.253906l4.65625-4.65625zm-.28125 3.28125-2.695313 2.695312c1.257417-.452405 2.243523-1.437596 2.695313-2.695312z" fill-opacity=".624" transform="translate(.946229 -.338135)"/><path d="m17.55 10.428516a4.525862 4.8024409 0 0 0 -1.65658 6.560257 4.525862 4.8024409 0 0 0 6.182442 1.757815 4.525862 4.8024409 0 0 0 1.65658-6.560256 4.525862 4.8024409 0 0 0 -6.182442-1.757816zm7.112069 13.071256c-2.171409 1.330276-2.910244 4.25615-1.65658 6.560256l3.87931 7.129776c1.253664 2.304106 4.011033 3.088091 6.182442 1.757815 2.17141-1.330276 2.910244-4.25615 1.656581-6.560256l-3.879311-7.129776c-1.253664-2.304106-4.011033-3.088091-6.182442-1.757815z" stroke-width=".888019"/></g></svg>