<?xml version="1.0" encoding="UTF-8" standalone="no"?>
<svg
   xmlns:dc="http://purl.org/dc/elements/1.1/"
   xmlns:cc="http://creativecommons.org/ns#"
   xmlns:rdf="http://www.w3.org/1999/02/22-rdf-syntax-ns#"
   xmlns:svg="http://www.w3.org/2000/svg"
   xmlns="http://www.w3.org/2000/svg"
   xmlns:sodipodi="http://sodipodi.sourceforge.net/DTD/sodipodi-0.dtd"
   xmlns:inkscape="http://www.inkscape.org/namespaces/inkscape"
   height="48"
   width="48"
   version="1.1"
   id="svg12"
   sodipodi:docname="rubymine.svg"
   inkscape:version="1.0.2 (e86c870879, 2021-01-15)">
  <metadata
     id="metadata18">
    <rdf:RDF>
      <cc:Work
         rdf:about="">
        <dc:format>image/svg+xml</dc:format>
        <dc:type
           rdf:resource="http://purl.org/dc/dcmitype/StillImage" />
        <dc:title></dc:title>
      </cc:Work>
    </rdf:RDF>
  </metadata>
  <defs
     id="defs16" />
  <sodipodi:namedview
     pagecolor="#ffffff"
     bordercolor="#666666"
     borderopacity="1"
     objecttolerance="10"
     gridtolerance="10"
     guidetolerance="10"
     inkscape:pageopacity="0"
     inkscape:pageshadow="2"
     inkscape:window-width="1920"
     inkscape:window-height="1031"
     id="namedview14"
     showgrid="true"
     inkscape:zoom="13.906433"
     inkscape:cx="33.56165"
     inkscape:cy="16.549755"
     inkscape:window-x="0"
     inkscape:window-y="24"
     inkscape:window-maximized="1"
     inkscape:current-layer="svg12"
     inkscape:document-rotation="0">
    <inkscape:grid
       type="xygrid"
       id="grid828" />
  </sodipodi:namedview>
  <rect
     fill="#47b472"
     height="43"
     ry="1.452703"
     width="43"
     x="2"
     y="3"
     id="rect2"
     style="fill:#b49b79;fill-opacity:1" />
  <path
     d="m23.5 3h20.047297c.804798 0 1.452703.6479055 1.452703 1.4527029v20.0472971h-21.5z"
     fill="#6da1c8"
     id="path4" />
  <path
     d="m45 24.5v20.047297c0 .804798-.647905 1.452703-1.452703 1.452703h-40.0945941c-.8047974 0-1.4527029-.647905-1.4527029-1.452703v-20.047297z"
     fill="#6dc8bd"
     id="path6"
     style="fill:#8bbedc;fill-opacity:1" />
  <path
     d="m45 24.5v20.047297c0 .804798-.647905 1.452703-1.452703 1.452703h-20.047297v-21.5z"
     fill="#d5bf56"
     id="path8"
     style="fill:#a27bb7;fill-opacity:1" />
  <path
     id="path10"
     style="fill:#ffffff"
     d="M 9 10 L 9 39 L 38 39 L 38 10 L 9 10 z M 12.664062 17.357422 L 15.794922 17.357422 C 17.259497 17.357422 18.337134 17.659397 19.029297 18.261719 C 19.731491 18.86404 20.082031 19.778489 20.082031 21.005859 C 20.082031 21.562723 19.98747 22.052167 19.796875 22.472656 C 19.61631 22.88178 19.371518 23.233819 19.060547 23.529297 C 18.759606 23.813411 18.433129 24.046684 18.082031 24.228516 L 21.242188 29.529297 L 18.712891 29.529297 L 16.15625 24.857422 L 14.9375 24.857422 L 14.9375 29.529297 L 12.664062 29.529297 L 12.664062 17.357422 z M 22.595703 17.357422 L 25.695312 17.357422 L 28.238281 26.666016 L 28.283203 26.666016 L 30.976562 17.357422 L 34.076172 17.357422 L 34.076172 29.529297 L 31.955078 29.529297 L 31.955078 23.767578 C 31.955078 23.381183 31.96071 22.937539 31.970703 22.4375 C 31.99077 21.937459 32.005598 21.466653 32.015625 21.023438 C 32.035685 20.568856 32.050514 20.227291 32.060547 20 L 32 20 L 29.230469 29.529297 L 27.140625 29.529297 L 24.552734 19.982422 L 24.492188 19.982422 C 24.502181 20.209714 24.517009 20.551279 24.537109 21.005859 C 24.557169 21.460441 24.577596 21.949886 24.597656 22.472656 C 24.617723 22.98406 24.626953 23.448653 24.626953 23.869141 L 24.626953 29.529297 L 22.595703 29.529297 L 22.595703 17.357422 z M 14.9375 19.470703 L 14.9375 22.761719 L 15.673828 22.761719 C 16.426178 22.761719 16.9622 22.620051 17.283203 22.335938 C 17.614238 22.051823 17.78125 21.631081 17.78125 21.074219 C 17.78125 20.494627 17.605003 20.084358 17.253906 19.845703 C 16.91284 19.595682 16.371226 19.470703 15.628906 19.470703 L 14.9375 19.470703 z " />
  <g
     aria-label="IJ"
     style="font-style:normal;font-variant:normal;font-weight:bold;font-stretch:condensed;font-size:26.59427071px;line-height:1.25;font-family:'Roboto Condensed';-inkscape-font-specification:'Roboto Condensed,  Bold Condensed';letter-spacing:0px;word-spacing:0px;fill:#000000;fill-opacity:1;stroke:none;stroke-width:0.66485679"
     id="text832" />
  <g
     aria-label="DG"
     transform="scale(0.80125772,1.2480379)"
     id="text838"
     style="font-style:normal;font-variant:normal;font-weight:bold;font-stretch:normal;font-size:16.9032px;line-height:1.25;font-family:'DejaVu Sans';-inkscape-font-specification:'DejaVu Sans Bold';fill:#000000;fill-opacity:1;stroke:none;stroke-width:0.42258" />
</svg>
