<svg height="48" width="48" xmlns="http://www.w3.org/2000/svg"><rect fill="#9b9da0" height="36.000023" ry="1.452703" width="43" x="2" y="6"/><path d="m6 10h34v28h-34z" fill="#fff" fill-opacity=".978873"/><path d="m6 26h28v12h-28z" fill="#fbe8e8" fill-opacity=".989437" fill-rule="evenodd"/><path d="m32 18.000001a7 7 0 0 1 -7.313714 6.658128 7 7 0 0 1 -6.67147-7.301547 7 7 0 0 1 7.289355-6.684788 7 7 0 0 1 6.698085 7.277138" fill="#ee7358"/><g fill-rule="evenodd"><path d="m17 26 5 2.222222h-5c-.383877.374936.103397 1.644058 1 3.333334h6l-5 1.111111 1 2.222222h2l-1 1.111111h5l-5 1.111111v1.111111h8l1-2.222222-2-1.111111 1.792582-1.069902.207418-1.15232h-4l4-1.111111h-2l3-1.111112-5-1.111111 5-1.111111v-2.222222z" fill="#ec6749" fill-opacity=".619718"/><path d="m30 2v44l16-4v-36z" fill="#8b8b8b"/></g></svg>