<?xml version="1.0" encoding="UTF-8" standalone="no"?>
<!-- Created with Inkscape (http://www.inkscape.org/) -->

<svg
   xmlns:dc="http://purl.org/dc/elements/1.1/"
   xmlns:cc="http://creativecommons.org/ns#"
   xmlns:rdf="http://www.w3.org/1999/02/22-rdf-syntax-ns#"
   xmlns:svg="http://www.w3.org/2000/svg"
   xmlns="http://www.w3.org/2000/svg"
   xmlns:xlink="http://www.w3.org/1999/xlink"
   xmlns:sodipodi="http://sodipodi.sourceforge.net/DTD/sodipodi-0.dtd"
   xmlns:inkscape="http://www.inkscape.org/namespaces/inkscape"
   width="48"
   height="48"
   viewBox="0 0 48 48.000001"
   id="svg4232"
   version="1.1"
   inkscape:version="0.92.4 5da689c313, 2019-01-14"
   sodipodi:docname="seafile.svg">
  <defs
     id="defs4234">
    <radialGradient
       id="radial0"
       gradientUnits="userSpaceOnUse"
       cx="450.908936"
       cy="189.579361"
       fx="450.908936"
       fy="189.579361"
       r="21.166656"
       gradientTransform="matrix(3.57049e-7,-0.102549,-0.288309,-1.33269e-7,78.984696,88.973262)">
      <stop
         offset="0"
         style="stop-color:rgb(0%,0%,0%);stop-opacity:0.313726;"
         id="stop822" />
      <stop
         offset="0.222222"
         style="stop-color:rgb(0%,0%,0%);stop-opacity:0.27451;"
         id="stop824" />
      <stop
         offset="1"
         style="stop-color:rgb(0%,0%,0%);stop-opacity:0;"
         id="stop826" />
    </radialGradient>
    <radialGradient
       id="radial1"
       gradientUnits="userSpaceOnUse"
       cx="450.908936"
       cy="189.579361"
       fx="450.908936"
       fy="189.579361"
       r="21.166656"
       gradientTransform="matrix(-3.57049e-7,0.102549,0.288309,1.33269e-7,-31.685907,-4.375346)">
      <stop
         offset="0"
         style="stop-color:rgb(0%,0%,0%);stop-opacity:0.313726;"
         id="stop829" />
      <stop
         offset="0.222222"
         style="stop-color:rgb(0%,0%,0%);stop-opacity:0.27451;"
         id="stop831" />
      <stop
         offset="1"
         style="stop-color:rgb(0%,0%,0%);stop-opacity:0;"
         id="stop833" />
    </radialGradient>
    <radialGradient
       id="radial2"
       gradientUnits="userSpaceOnUse"
       cx="450.908936"
       cy="189.579361"
       fx="450.908936"
       fy="189.579361"
       r="21.166656"
       gradientTransform="matrix(-3.57049e-7,-0.102549,0.288309,-1.33269e-7,-31.685907,88.973262)">
      <stop
         offset="0"
         style="stop-color:rgb(0%,0%,0%);stop-opacity:0.313726;"
         id="stop836" />
      <stop
         offset="0.222222"
         style="stop-color:rgb(0%,0%,0%);stop-opacity:0.27451;"
         id="stop838" />
      <stop
         offset="1"
         style="stop-color:rgb(0%,0%,0%);stop-opacity:0;"
         id="stop840" />
    </radialGradient>
    <radialGradient
       id="radial3"
       gradientUnits="userSpaceOnUse"
       cx="450.908936"
       cy="189.579361"
       fx="450.908936"
       fy="189.579361"
       r="21.166656"
       gradientTransform="matrix(3.57049e-7,0.102549,-0.288309,1.33269e-7,78.984692,-4.375346)">
      <stop
         offset="0"
         style="stop-color:rgb(0%,0%,0%);stop-opacity:0.313726;"
         id="stop843" />
      <stop
         offset="0.222222"
         style="stop-color:rgb(0%,0%,0%);stop-opacity:0.27451;"
         id="stop845" />
      <stop
         offset="1"
         style="stop-color:rgb(0%,0%,0%);stop-opacity:0;"
         id="stop847" />
    </radialGradient>
    <linearGradient
       id="linear0"
       gradientUnits="userSpaceOnUse"
       x1="255.323059"
       y1="233.5"
       x2="255.323044"
       y2="254.666656"
       gradientTransform="matrix(0.0273881,0,0,0.082039,16.656575,23.142854)">
      <stop
         offset="0"
         style="stop-color:rgb(0%,0%,0%);stop-opacity:0.27451;"
         id="stop850" />
      <stop
         offset="1"
         style="stop-color:rgb(0%,0%,0%);stop-opacity:0;"
         id="stop852" />
    </linearGradient>
    <linearGradient
       id="linear1"
       gradientUnits="userSpaceOnUse"
       x1="254"
       y1="233.5"
       x2="254"
       y2="-168.666672"
       gradientTransform="matrix(0.093759,0,0,0.093759,0,20.158175)">
      <stop
         offset="0"
         style="stop-color:rgb(100%,43.921569%,26.274511%);stop-opacity:1;"
         id="stop855" />
      <stop
         offset="1"
         style="stop-color:rgb(100%,54.11765%,39.607844%);stop-opacity:1;"
         id="stop857" />
    </linearGradient>
    <linearGradient
       id="linear2"
       gradientUnits="userSpaceOnUse"
       x1="254"
       y1="148.833328"
       x2="254"
       y2="-84"
       gradientTransform="matrix(0.093759,0,0,0.093759,0,20.158175)">
      <stop
         offset="0"
         style="stop-color:rgb(74.117649%,74.117649%,74.117649%);stop-opacity:1;"
         id="stop860" />
      <stop
         offset="1"
         style="stop-color:rgb(87.843138%,87.843138%,87.843138%);stop-opacity:1;"
         id="stop862" />
    </linearGradient>
    <linearGradient
       id="linear2-3"
       gradientUnits="userSpaceOnUse"
       x1="254"
       y1="148.83333"
       x2="254"
       y2="-84"
       gradientTransform="matrix(0.08461253,0,0,0.08461253,-19.162897,21.468351)">
      <stop
         offset="0"
         style="stop-color:rgb(74.117649%,74.117649%,74.117649%);stop-opacity:1;"
         id="stop860-6" />
      <stop
         offset="1"
         style="stop-color:rgb(87.843138%,87.843138%,87.843138%);stop-opacity:1;"
         id="stop862-7" />
    </linearGradient>
    <radialGradient
       id="radial0-1"
       gradientUnits="userSpaceOnUse"
       cx="450.908936"
       cy="189.579361"
       fx="450.908936"
       fy="189.579361"
       r="21.166656"
       gradientTransform="matrix(3.57049e-7,-0.102549,-0.288309,-1.33269e-7,78.984696,88.973262)">
      <stop
         offset="0"
         style="stop-color:rgb(0%,0%,0%);stop-opacity:0.313726;"
         id="stop822-2" />
      <stop
         offset="0.222222"
         style="stop-color:rgb(0%,0%,0%);stop-opacity:0.27451;"
         id="stop824-7" />
      <stop
         offset="1"
         style="stop-color:rgb(0%,0%,0%);stop-opacity:0;"
         id="stop826-0" />
    </radialGradient>
    <radialGradient
       id="radial1-9"
       gradientUnits="userSpaceOnUse"
       cx="450.908936"
       cy="189.579361"
       fx="450.908936"
       fy="189.579361"
       r="21.166656"
       gradientTransform="matrix(-3.57049e-7,0.102549,0.288309,1.33269e-7,-31.685907,-4.375346)">
      <stop
         offset="0"
         style="stop-color:rgb(0%,0%,0%);stop-opacity:0.313726;"
         id="stop829-3" />
      <stop
         offset="0.222222"
         style="stop-color:rgb(0%,0%,0%);stop-opacity:0.27451;"
         id="stop831-6" />
      <stop
         offset="1"
         style="stop-color:rgb(0%,0%,0%);stop-opacity:0;"
         id="stop833-0" />
    </radialGradient>
    <radialGradient
       id="radial2-6"
       gradientUnits="userSpaceOnUse"
       cx="450.908936"
       cy="189.579361"
       fx="450.908936"
       fy="189.579361"
       r="21.166656"
       gradientTransform="matrix(-3.57049e-7,-0.102549,0.288309,-1.33269e-7,-31.685907,88.973262)">
      <stop
         offset="0"
         style="stop-color:rgb(0%,0%,0%);stop-opacity:0.313726;"
         id="stop836-2" />
      <stop
         offset="0.222222"
         style="stop-color:rgb(0%,0%,0%);stop-opacity:0.27451;"
         id="stop838-6" />
      <stop
         offset="1"
         style="stop-color:rgb(0%,0%,0%);stop-opacity:0;"
         id="stop840-1" />
    </radialGradient>
    <radialGradient
       id="radial3-8"
       gradientUnits="userSpaceOnUse"
       cx="450.908936"
       cy="189.579361"
       fx="450.908936"
       fy="189.579361"
       r="21.166656"
       gradientTransform="matrix(3.57049e-7,0.102549,-0.288309,1.33269e-7,78.984692,-4.375346)">
      <stop
         offset="0"
         style="stop-color:rgb(0%,0%,0%);stop-opacity:0.313726;"
         id="stop843-7" />
      <stop
         offset="0.222222"
         style="stop-color:rgb(0%,0%,0%);stop-opacity:0.27451;"
         id="stop845-9" />
      <stop
         offset="1"
         style="stop-color:rgb(0%,0%,0%);stop-opacity:0;"
         id="stop847-2" />
    </radialGradient>
    <radialGradient
       id="radial0-3"
       gradientUnits="userSpaceOnUse"
       cx="450.908936"
       cy="189.579361"
       fx="450.908936"
       fy="189.579361"
       r="21.166656"
       gradientTransform="matrix(3.57049e-7,-0.102549,-0.288309,-1.33269e-7,78.984696,88.973262)">
      <stop
         offset="0"
         style="stop-color:rgb(0%,0%,0%);stop-opacity:0.313726;"
         id="stop822-6" />
      <stop
         offset="0.222222"
         style="stop-color:rgb(0%,0%,0%);stop-opacity:0.27451;"
         id="stop824-75" />
      <stop
         offset="1"
         style="stop-color:rgb(0%,0%,0%);stop-opacity:0;"
         id="stop826-3" />
    </radialGradient>
    <radialGradient
       id="radial1-5"
       gradientUnits="userSpaceOnUse"
       cx="450.908936"
       cy="189.579361"
       fx="450.908936"
       fy="189.579361"
       r="21.166656"
       gradientTransform="matrix(-3.57049e-7,0.102549,0.288309,1.33269e-7,-31.685907,-4.375346)">
      <stop
         offset="0"
         style="stop-color:rgb(0%,0%,0%);stop-opacity:0.313726;"
         id="stop829-6" />
      <stop
         offset="0.222222"
         style="stop-color:rgb(0%,0%,0%);stop-opacity:0.27451;"
         id="stop831-2" />
      <stop
         offset="1"
         style="stop-color:rgb(0%,0%,0%);stop-opacity:0;"
         id="stop833-9" />
    </radialGradient>
    <radialGradient
       id="radial2-1"
       gradientUnits="userSpaceOnUse"
       cx="450.908936"
       cy="189.579361"
       fx="450.908936"
       fy="189.579361"
       r="21.166656"
       gradientTransform="matrix(-3.57049e-7,-0.102549,0.288309,-1.33269e-7,-31.685907,88.973262)">
      <stop
         offset="0"
         style="stop-color:rgb(0%,0%,0%);stop-opacity:0.313726;"
         id="stop836-27" />
      <stop
         offset="0.222222"
         style="stop-color:rgb(0%,0%,0%);stop-opacity:0.27451;"
         id="stop838-0" />
      <stop
         offset="1"
         style="stop-color:rgb(0%,0%,0%);stop-opacity:0;"
         id="stop840-9" />
    </radialGradient>
    <radialGradient
       id="radial3-3"
       gradientUnits="userSpaceOnUse"
       cx="450.908936"
       cy="189.579361"
       fx="450.908936"
       fy="189.579361"
       r="21.166656"
       gradientTransform="matrix(3.57049e-7,0.102549,-0.288309,1.33269e-7,78.984692,-4.375346)">
      <stop
         offset="0"
         style="stop-color:rgb(0%,0%,0%);stop-opacity:0.313726;"
         id="stop843-6" />
      <stop
         offset="0.222222"
         style="stop-color:rgb(0%,0%,0%);stop-opacity:0.27451;"
         id="stop845-0" />
      <stop
         offset="1"
         style="stop-color:rgb(0%,0%,0%);stop-opacity:0;"
         id="stop847-6" />
    </radialGradient>
    <radialGradient
       id="radial0-7"
       gradientUnits="userSpaceOnUse"
       cx="450.908936"
       cy="189.579361"
       fx="450.908936"
       fy="189.579361"
       r="21.166656"
       gradientTransform="matrix(3.57049e-7,-0.102549,-0.288309,-1.33269e-7,78.984696,88.973262)">
      <stop
         offset="0"
         style="stop-color:rgb(0%,0%,0%);stop-opacity:0.313726;"
         id="stop822-5" />
      <stop
         offset="0.222222"
         style="stop-color:rgb(0%,0%,0%);stop-opacity:0.27451;"
         id="stop824-9" />
      <stop
         offset="1"
         style="stop-color:rgb(0%,0%,0%);stop-opacity:0;"
         id="stop826-2" />
    </radialGradient>
    <radialGradient
       id="radial1-2"
       gradientUnits="userSpaceOnUse"
       cx="450.908936"
       cy="189.579361"
       fx="450.908936"
       fy="189.579361"
       r="21.166656"
       gradientTransform="matrix(-3.57049e-7,0.102549,0.288309,1.33269e-7,-31.685907,-4.375346)">
      <stop
         offset="0"
         style="stop-color:rgb(0%,0%,0%);stop-opacity:0.313726;"
         id="stop829-8" />
      <stop
         offset="0.222222"
         style="stop-color:rgb(0%,0%,0%);stop-opacity:0.27451;"
         id="stop831-9" />
      <stop
         offset="1"
         style="stop-color:rgb(0%,0%,0%);stop-opacity:0;"
         id="stop833-7" />
    </radialGradient>
    <radialGradient
       id="radial2-3"
       gradientUnits="userSpaceOnUse"
       cx="450.908936"
       cy="189.579361"
       fx="450.908936"
       fy="189.579361"
       r="21.166656"
       gradientTransform="matrix(-3.57049e-7,-0.102549,0.288309,-1.33269e-7,-31.685907,88.973262)">
      <stop
         offset="0"
         style="stop-color:rgb(0%,0%,0%);stop-opacity:0.313726;"
         id="stop836-6" />
      <stop
         offset="0.222222"
         style="stop-color:rgb(0%,0%,0%);stop-opacity:0.27451;"
         id="stop838-1" />
      <stop
         offset="1"
         style="stop-color:rgb(0%,0%,0%);stop-opacity:0;"
         id="stop840-2" />
    </radialGradient>
    <radialGradient
       id="radial3-9"
       gradientUnits="userSpaceOnUse"
       cx="450.908936"
       cy="189.579361"
       fx="450.908936"
       fy="189.579361"
       r="21.166656"
       gradientTransform="matrix(3.57049e-7,0.102549,-0.288309,1.33269e-7,78.984692,-4.375346)">
      <stop
         offset="0"
         style="stop-color:rgb(0%,0%,0%);stop-opacity:0.313726;"
         id="stop843-3" />
      <stop
         offset="0.222222"
         style="stop-color:rgb(0%,0%,0%);stop-opacity:0.27451;"
         id="stop845-1" />
      <stop
         offset="1"
         style="stop-color:rgb(0%,0%,0%);stop-opacity:0;"
         id="stop847-9" />
    </radialGradient>
    <linearGradient
       id="linearGradient3866">
      <stop
         style="stop-color:#000000;stop-opacity:0.52083331"
         offset="0"
         id="stop3868" />
      <stop
         style="stop-color:#2883c3;stop-opacity:0;"
         offset="1"
         id="stop3870" />
    </linearGradient>
    <linearGradient
       id="linearGradient3874">
      <stop
         style="stop-color:#000d0e;stop-opacity:0.84105963;"
         offset="0"
         id="stop3876" />
      <stop
         style="stop-color:#000000;stop-opacity:0;"
         offset="1"
         id="stop3878" />
    </linearGradient>
    <clipPath
       id="clipPath892"
       clipPathUnits="userSpaceOnUse">
      <path
         inkscape:connector-curvature="0"
         id="path894"
         d="M 38.524123,20.232391 V 51.2388 h 3.597154 V 20.232391 Z M 14.125746,21.0025 V 52.010565 H 17.7229 V 21.0025 Z M 5.9924018,21.259203 V 52.267267 H 9.591212 V 21.259203 Z m 24.3983772,1.37129 v 31.006409 h 3.597153 V 22.630493 Z m -20.330877,1.626338 v 31.008065 h 3.597154 V 24.256831 Z m 24.396721,0.08612 v 31.008065 h 3.598809 V 24.342951 Z M 1.9265577,25.798705 V 56.80677 H 5.5237118 V 25.798705 Z m 16.2650323,0.08612 v 31.008064 h 3.597155 V 25.884825 Z m 24.398377,0 v 31.008064 h 3.597154 V 25.884825 Z m -16.265033,2.22752 v 31.006408 h 3.597155 V 28.112345 Z M 22.25909,30.76715 v 31.008065 h 3.597155 V 30.76715 Z"
         style="fill:#ffffff;fill-opacity:0.25520833;stroke:none;stroke-width:1.52630627;stroke-linecap:round;stroke-linejoin:round;stroke-miterlimit:4;stroke-dasharray:none;stroke-opacity:1" />
    </clipPath>
    <clipPath
       clipPathUnits="userSpaceOnUse"
       id="clipPath3881">
      <circle
         r="103.5"
         cy="152.5"
         cx="539.5"
         style="fill:#008dff;fill-opacity:1;fill-rule:evenodd;stroke:none"
         id="path3883"
         transform="translate(-412,-17)" />
    </clipPath>
    <linearGradient
       id="linearGradient4019">
      <stop
         offset="0"
         style="stop-color:#adcce1;stop-opacity:1;"
         id="stop4021" />
      <stop
         offset="0.26238"
         style="stop-color:#6bbfe1;stop-opacity:1;"
         id="stop4023" />
      <stop
         offset="0.74620908"
         style="stop-color:#2596d1;stop-opacity:1;"
         id="stop4025" />
      <stop
         offset="1"
         style="stop-color:#2372c0;stop-opacity:1;"
         id="stop4027" />
    </linearGradient>
    <linearGradient
       id="linearGradient4085">
      <stop
         offset="0"
         style="stop-color:#ffffff;stop-opacity:1"
         id="stop4087" />
      <stop
         offset="0.06316455"
         style="stop-color:#ffffff;stop-opacity:0.2"
         id="stop4089" />
      <stop
         offset="0.95056331"
         style="stop-color:#ffffff;stop-opacity:0.2"
         id="stop4091" />
      <stop
         offset="1"
         style="stop-color:#ffffff;stop-opacity:0.39215687"
         id="stop4093" />
    </linearGradient>
    <filter
       style="color-interpolation-filters:sRGB"
       id="filter3174">
      <feGaussianBlur
         stdDeviation="1.71"
         id="feGaussianBlur3176" />
    </filter>
    <linearGradient
       gradientTransform="scale(1.0058652,0.994169)"
       gradientUnits="userSpaceOnUse"
       id="ButtonShadow"
       y2="7.0165396"
       x2="45.447727"
       y1="92.539597"
       x1="45.447727">
      <stop
         offset="0"
         style="stop-color:#000000;stop-opacity:1"
         id="stop3750" />
      <stop
         offset="1"
         style="stop-color:#000000;stop-opacity:0.58823532"
         id="stop3752" />
    </linearGradient>
    <linearGradient
       id="linearGradient5048-8-7">
      <stop
         offset="0"
         style="stop-color:#000000;stop-opacity:0"
         id="stop5050-4-2" />
      <stop
         offset="0.5"
         style="stop-color:#000000;stop-opacity:1"
         id="stop5056-7-4" />
      <stop
         offset="1"
         style="stop-color:#000000;stop-opacity:0"
         id="stop5052-0-1-7" />
    </linearGradient>
    <linearGradient
       id="linearGradient5060-29-0">
      <stop
         offset="0"
         style="stop-color:#000000;stop-opacity:1"
         id="stop5062-9-7" />
      <stop
         offset="1"
         style="stop-color:#000000;stop-opacity:0"
         id="stop5064-08-2" />
    </linearGradient>
    <linearGradient
       id="linearGradient3851">
      <stop
         id="stop3853"
         style="stop-color:#5b8da7;stop-opacity:1;"
         offset="0" />
      <stop
         id="stop3855"
         style="stop-color:#1c3447;stop-opacity:1;"
         offset="1" />
    </linearGradient>
    <filter
       style="color-interpolation-filters:sRGB"
       id="filter3174-0">
      <feGaussianBlur
         stdDeviation="1.71"
         id="feGaussianBlur3176-9" />
    </filter>
    <clipPath
       id="clipPath916"
       clipPathUnits="userSpaceOnUse">
      <g
         id="g920"
         inkscape:label="circulo"
         style="display:inline;opacity:0.98999999;fill:#126136;fill-opacity:1"
         transform="matrix(1.1503549,0,0,1.1503549,-4.4861245,-7.5255648)">
        <path
           style="fill:#126136;fill-opacity:1;stroke:none;stroke-width:1.4909519"
           d="M 44.322082,27.405077 A 19.729762,19.729765 0 0 1 24.59232,47.134842 19.729762,19.729765 0 0 1 4.8625579,27.405077 19.729762,19.729765 0 0 1 24.59232,7.6753138 19.729762,19.729765 0 0 1 44.322082,27.405077 Z"
           id="path918"
           inkscape:connector-curvature="0" />
      </g>
    </clipPath>
    <clipPath
       clipPathUnits="userSpaceOnUse"
       id="clipPath3866">
      <circle
         r="312"
         cy="449"
         cx="1132"
         id="path3868"
         style="fill:#44abb1;fill-opacity:1;fill-rule:evenodd;stroke:none"
         transform="matrix(0.68724124,0,0,0.68724124,-521.35527,-47.661719)" />
    </clipPath>
    <linearGradient
       inkscape:collect="always"
       id="linearGradient4118">
      <stop
         style="stop-color:#0eb474;stop-opacity:1;"
         offset="0"
         id="stop4120" />
      <stop
         style="stop-color:#0eb474;stop-opacity:0;"
         offset="1"
         id="stop4122" />
    </linearGradient>
    <linearGradient
       id="linearGradient3837"
       inkscape:collect="always">
      <stop
         id="stop3839"
         offset="0"
         style="stop-color:#7db257;stop-opacity:1;" />
      <stop
         id="stop3841"
         offset="1"
         style="stop-color:#7db257;stop-opacity:0;" />
    </linearGradient>
    <linearGradient
       gradientUnits="userSpaceOnUse"
       y2="356.66208"
       x2="316.05505"
       y1="546.63525"
       x1="502.83536"
       id="linearGradient3843"
       xlink:href="#linearGradient3837"
       inkscape:collect="always" />
    <clipPath
       id="clipPath3847"
       clipPathUnits="userSpaceOnUse">
      <circle
         r="260.2153"
         cy="342.29437"
         cx="322.4407"
         style="fill:url(#linearGradient3843);fill-opacity:1;fill-rule:evenodd;stroke:none"
         id="path3849"
         transform="matrix(0.88586957,0,0,0.88586957,-24.010886,495.98978)" />
    </clipPath>
    <clipPath
       clipPathUnits="userSpaceOnUse"
       id="clipPath3344">
      <circle
         r="260.2153"
         cy="342.29437"
         cx="322.4407"
         transform="matrix(0.09964174,0,0,0.09964174,-8.1283951,-10.106867)"
         id="path3346"
         style="fill:#0eb474;fill-opacity:1;fill-rule:evenodd;stroke:none" />
    </clipPath>
    <linearGradient
       inkscape:collect="always"
       xlink:href="#linearGradient4118"
       id="linearGradient4124"
       x1="62.225403"
       y1="342.29437"
       x2="582.65601"
       y2="342.29437"
       gradientUnits="userSpaceOnUse" />
    <clipPath
       id="clipPath932"
       clipPathUnits="userSpaceOnUse">
      <g
         id="g936"
         inkscape:label="circulo"
         style="display:inline;opacity:0.98999999;fill:#32b6a1;fill-opacity:1"
         transform="matrix(1.1503549,0,0,1.1503549,-4.4861245,-7.5255648)">
        <path
           style="fill:#32b6a1;fill-opacity:1;stroke:none;stroke-width:1.4909519"
           d="M 44.322082,27.405077 A 19.729762,19.729765 0 0 1 24.59232,47.134842 19.729762,19.729765 0 0 1 4.8625579,27.405077 19.729762,19.729765 0 0 1 24.59232,7.6753138 19.729762,19.729765 0 0 1 44.322082,27.405077 Z"
           id="path934"
           inkscape:connector-curvature="0" />
      </g>
    </clipPath>
    <clipPath
       id="clipPath942"
       clipPathUnits="userSpaceOnUse">
      <g
         id="g946"
         inkscape:label="circulo"
         style="display:inline;opacity:0.98999999;fill:#32b6a1;fill-opacity:1"
         transform="matrix(1.1503549,0,0,1.1503549,-4.4861245,-7.5255648)">
        <path
           style="fill:#32b6a1;fill-opacity:1;stroke:none;stroke-width:1.4909519"
           d="M 44.322082,27.405077 A 19.729762,19.729765 0 0 1 24.59232,47.134842 19.729762,19.729765 0 0 1 4.8625579,27.405077 19.729762,19.729765 0 0 1 24.59232,7.6753138 19.729762,19.729765 0 0 1 44.322082,27.405077 Z"
           id="path944"
           inkscape:connector-curvature="0" />
      </g>
    </clipPath>
    <linearGradient
       id="linearGradient3822">
      <stop
         id="stop3824"
         style="stop-color:#e6e6e6;stop-opacity:1"
         offset="0" />
      <stop
         id="stop3826"
         style="stop-color:#f5f5f5;stop-opacity:1"
         offset="1" />
    </linearGradient>
    <linearGradient
       id="linearGradient3737">
      <stop
         id="stop3739"
         style="stop-color:#ffffff;stop-opacity:1"
         offset="0" />
      <stop
         id="stop3741"
         style="stop-color:#ffffff;stop-opacity:0"
         offset="1" />
    </linearGradient>
    <linearGradient
       id="linearGradient3700">
      <stop
         id="stop3702"
         style="stop-color:#f05517;stop-opacity:1"
         offset="0" />
      <stop
         id="stop3704"
         style="stop-color:#f37340;stop-opacity:1"
         offset="1" />
    </linearGradient>
    <filter
       id="filter3174-7"
       style="color-interpolation-filters:sRGB">
      <feGaussianBlur
         id="feGaussianBlur3176-5"
         stdDeviation="1.71" />
    </filter>
    <linearGradient
       x1="36.357143"
       y1="6"
       x2="36.357143"
       y2="63.893143"
       id="linearGradient3188"
       xlink:href="#linearGradient3737"
       gradientUnits="userSpaceOnUse" />
    <filter
       x="-0.192"
       y="-0.192"
       width="1.3839999"
       height="1.3839999"
       id="filter3794"
       style="color-interpolation-filters:sRGB">
      <feGaussianBlur
         id="feGaussianBlur3796"
         stdDeviation="5.28" />
    </filter>
    <linearGradient
       x1="48"
       y1="20.220806"
       x2="48"
       y2="138.66119"
       id="linearGradient3613"
       xlink:href="#linearGradient3737"
       gradientUnits="userSpaceOnUse" />
    <radialGradient
       cx="48"
       cy="90.171875"
       r="42"
       fx="48"
       fy="90.171875"
       id="radialGradient3619"
       xlink:href="#linearGradient3737"
       gradientUnits="userSpaceOnUse"
       gradientTransform="matrix(1.1573129,0,0,0.99590774,-7.5510206,0.19713193)" />
    <clipPath
       id="clipPath3613">
      <rect
         width="84"
         height="84"
         rx="6"
         ry="6"
         x="6"
         y="6"
         id="rect3615"
         style="fill:#ffffff;fill-opacity:1;fill-rule:nonzero;stroke:none" />
    </clipPath>
    <linearGradient
       x1="48"
       y1="90"
       x2="48"
       y2="5.9877172"
       id="linearGradient3617"
       xlink:href="#linearGradient3822"
       gradientUnits="userSpaceOnUse" />
    <linearGradient
       x1="45.447727"
       y1="92.539597"
       x2="45.447727"
       y2="7.0165396"
       id="ButtonShadow-0"
       gradientUnits="userSpaceOnUse"
       gradientTransform="matrix(1.0058652,0,0,0.994169,100,0)">
      <stop
         id="stop3750-8"
         style="stop-color:#000000;stop-opacity:1"
         offset="0" />
      <stop
         id="stop3752-5"
         style="stop-color:#000000;stop-opacity:0.58823532"
         offset="1" />
    </linearGradient>
    <linearGradient
       x1="32.251034"
       y1="6.1317081"
       x2="32.251034"
       y2="90.238609"
       id="linearGradient3780"
       xlink:href="#ButtonShadow-0"
       gradientUnits="userSpaceOnUse"
       gradientTransform="matrix(1.0238095,0,0,1.0119048,-1.1428571,-98.071429)" />
    <linearGradient
       x1="32.251034"
       y1="6.1317081"
       x2="32.251034"
       y2="90.238609"
       id="linearGradient3721"
       xlink:href="#ButtonShadow-0"
       gradientUnits="userSpaceOnUse"
       gradientTransform="translate(0,-97)" />
    <linearGradient
       gradientTransform="matrix(3.6907816,0,0,3.6907816,86.006062,-394.23151)"
       x1="47.973103"
       y1="79.776169"
       x2="47.973103"
       y2="16.436062"
       id="linearGradient3067"
       xlink:href="#linearGradient3700"
       gradientUnits="userSpaceOnUse" />
    <clipPath
       id="clipPath1109"
       clipPathUnits="userSpaceOnUse">
      <g
         id="g1113"
         inkscape:label="circulo"
         style="display:inline;opacity:0.98999999;fill:#fa6e31;fill-opacity:1"
         transform="matrix(12.332308,0,0,12.332308,-47.545312,-534.58518)">
        <path
           style="fill:#fa6e31;fill-opacity:1;stroke:none;stroke-width:1.4909519"
           d="M 44.322082,27.405077 A 19.729762,19.729765 0 0 1 24.59232,47.134842 19.729762,19.729765 0 0 1 4.8625579,27.405077 19.729762,19.729765 0 0 1 24.59232,7.6753138 19.729762,19.729765 0 0 1 44.322082,27.405077 Z"
           id="path1111"
           inkscape:connector-curvature="0" />
      </g>
    </clipPath>
    <radialGradient
       id="radial0-36"
       gradientUnits="userSpaceOnUse"
       cx="450.908936"
       cy="189.579361"
       fx="450.908936"
       fy="189.579361"
       r="21.166656"
       gradientTransform="matrix(3.57049e-7,-0.102549,-0.288309,-1.33269e-7,78.984696,88.973262)">
      <stop
         offset="0"
         style="stop-color:rgb(0%,0%,0%);stop-opacity:0.313726;"
         id="stop822-7" />
      <stop
         offset="0.222222"
         style="stop-color:rgb(0%,0%,0%);stop-opacity:0.27451;"
         id="stop824-5" />
      <stop
         offset="1"
         style="stop-color:rgb(0%,0%,0%);stop-opacity:0;"
         id="stop826-35" />
    </radialGradient>
    <radialGradient
       id="radial1-6"
       gradientUnits="userSpaceOnUse"
       cx="450.908936"
       cy="189.579361"
       fx="450.908936"
       fy="189.579361"
       r="21.166656"
       gradientTransform="matrix(-3.57049e-7,0.102549,0.288309,1.33269e-7,-31.685907,-4.375346)">
      <stop
         offset="0"
         style="stop-color:rgb(0%,0%,0%);stop-opacity:0.313726;"
         id="stop829-2" />
      <stop
         offset="0.222222"
         style="stop-color:rgb(0%,0%,0%);stop-opacity:0.27451;"
         id="stop831-91" />
      <stop
         offset="1"
         style="stop-color:rgb(0%,0%,0%);stop-opacity:0;"
         id="stop833-2" />
    </radialGradient>
    <radialGradient
       id="radial2-7"
       gradientUnits="userSpaceOnUse"
       cx="450.908936"
       cy="189.579361"
       fx="450.908936"
       fy="189.579361"
       r="21.166656"
       gradientTransform="matrix(-3.57049e-7,-0.102549,0.288309,-1.33269e-7,-31.685907,88.973262)">
      <stop
         offset="0"
         style="stop-color:rgb(0%,0%,0%);stop-opacity:0.313726;"
         id="stop836-0" />
      <stop
         offset="0.222222"
         style="stop-color:rgb(0%,0%,0%);stop-opacity:0.27451;"
         id="stop838-9" />
      <stop
         offset="1"
         style="stop-color:rgb(0%,0%,0%);stop-opacity:0;"
         id="stop840-3" />
    </radialGradient>
    <radialGradient
       id="radial3-6"
       gradientUnits="userSpaceOnUse"
       cx="450.908936"
       cy="189.579361"
       fx="450.908936"
       fy="189.579361"
       r="21.166656"
       gradientTransform="matrix(3.57049e-7,0.102549,-0.288309,1.33269e-7,78.984692,-4.375346)">
      <stop
         offset="0"
         style="stop-color:rgb(0%,0%,0%);stop-opacity:0.313726;"
         id="stop843-0" />
      <stop
         offset="0.222222"
         style="stop-color:rgb(0%,0%,0%);stop-opacity:0.27451;"
         id="stop845-6" />
      <stop
         offset="1"
         style="stop-color:rgb(0%,0%,0%);stop-opacity:0;"
         id="stop847-26" />
    </radialGradient>
    <filter
       filterUnits="objectBoundingBox"
       y="0%"
       x="0%"
       height="100%"
       width="100%"
       id="alpha">
      <feColorMatrix
         id="feColorMatrix1038"
         values="0 0 0 0 1 0 0 0 0 1 0 0 0 0 1 0 0 0 1 0"
         type="matrix"
         in="SourceGraphic" />
    </filter>
    <mask
       id="mask0">
      <g
         id="g1043"
         filter="url(#alpha)">
        <rect
           id="rect1041"
           style="fill:rgb(0%,0%,0%);fill-opacity:0.2"
           y="0"
           x="0"
           height="384"
           width="384" />
      </g>
    </mask>
    <clipPath
       id="clip1">
      <rect
         id="rect1046"
         y="0"
         x="0"
         height="384"
         width="384" />
    </clipPath>
    <g
       clip-path="url(#clip1)"
       id="surface5">
      <path
         id="path1049"
         d="M 343.324219 141.292969 L 198 192 L 203.730469 195.996094 L 345.382812 146.566406 C 344.765625 144.773438 344.011719 143.050781 343.324219 141.292969 Z M 42.085938 195 C 42.066406 196.003906 42 196.992188 42 198 C 42 284.425781 111.578125 354 198 354 C 251.125 354 297.882812 327.707031 326.03125 287.375 L 323.101562 285.328125 C 294.703125 323.394531 249.351562 348 198 348 C 112.585938 348 43.675781 280.019531 42.085938 195 Z M 42.085938 195"
         style="fill:rgb(0%,0%,0%)" />
    </g>
    <mask
       id="mask1">
      <g
         id="g1054"
         filter="url(#alpha)">
        <rect
           id="rect1052"
           style="fill:rgb(0%,0%,0%);fill-opacity:0.2"
           y="0"
           x="0"
           height="384"
           width="384" />
      </g>
    </mask>
    <clipPath
       id="clip2">
      <rect
         id="rect1057"
         y="0"
         x="0"
         height="384"
         width="384" />
    </clipPath>
    <g
       clip-path="url(#clip2)"
       id="surface8">
      <path
         id="path1060"
         d="M 198 36 C 111.574219 36 42 105.574219 42 192 C 42 193.007812 42.0625 193.996094 42.082031 195 C 43.675781 109.980469 112.582031 42 198 42 C 264.363281 42 320.710938 83.101562 343.324219 141.292969 L 345.382812 140.566406 C 324.214844 79.570312 266.375 36 198 36 Z M 203.730469 195.996094 L 198 198 L 323.101562 285.328125 C 324.078125 284.015625 325.085938 282.726562 326.027344 281.375 Z M 203.730469 195.996094"
         style="fill:rgb(100.000%,100.000%,100.000%)" />
    </g>
    <filter
       filterUnits="objectBoundingBox"
       y="0%"
       x="0%"
       height="100%"
       width="100%"
       id="alpha-6">
      <feColorMatrix
         id="feColorMatrix1011"
         values="0 0 0 0 1 0 0 0 0 1 0 0 0 0 1 0 0 0 1 0"
         type="matrix"
         in="SourceGraphic" />
    </filter>
    <mask
       id="mask0-6">
      <g
         style="filter:url(#alpha-6)"
         id="g1016"
         filter="url(#alpha)">
        <rect
           id="rect1014"
           style="fill:rgb(0%,0%,0%);fill-opacity:0.2"
           y="0"
           x="0"
           height="384"
           width="384" />
      </g>
    </mask>
    <clipPath
       id="clip1-4">
      <rect
         id="rect1019"
         y="0"
         x="0"
         height="384"
         width="384" />
    </clipPath>
    <g
       clip-path="url(#clip1-4)"
       id="surface5-3">
      <path
         id="path1022"
         d="M 24.304688 192.003906 C 24.234375 194.007812 24 195.976562 24 198.003906 C 24 291.074219 98.925781 366 191.996094 366 C 285.066406 366 359.992188 291.074219 359.992188 198.003906 C 359.992188 195.976562 359.757812 194.011719 359.6875 192.003906 C 356.519531 282.253906 283.035156 354 191.992188 354 C 100.945312 354 27.464844 282.253906 24.296875 192.003906 Z M 24.304688 192.003906"
         style="fill:rgb(0%,0%,0%)" />
    </g>
    <mask
       id="mask1-3">
      <g
         style="filter:url(#alpha-6)"
         id="g1027"
         filter="url(#alpha)">
        <rect
           id="rect1025"
           style="fill:rgb(0%,0%,0%);fill-opacity:0.2"
           y="0"
           x="0"
           height="384"
           width="384" />
      </g>
    </mask>
    <clipPath
       id="clip2-9">
      <rect
         id="rect1030"
         y="0"
         x="0"
         height="384"
         width="384" />
    </clipPath>
    <g
       clip-path="url(#clip2-9)"
       id="surface8-6">
      <path
         id="path1033"
         d="M 192 24.011719 C 98.929688 24.011719 24 98.929688 24 192 C 24 192.589844 24.066406 193.164062 24.105469 193.746094 C 26.355469 102.664062 100.355469 30 192 30 C 283.644531 30 357.644531 102.664062 359.894531 193.746094 C 359.933594 193.164062 360 192.589844 360 192 C 360 98.929688 285.070312 24.011719 192 24.011719 Z M 192 24.011719"
         style="fill:rgb(100.000%,100.000%,100.000%)" />
    </g>
    <mask
       id="mask2">
      <g
         style="filter:url(#alpha-6)"
         id="g1038"
         filter="url(#alpha)">
        <rect
           id="rect1036"
           style="fill:rgb(0%,0%,0%);fill-opacity:0.2"
           y="0"
           x="0"
           height="384"
           width="384" />
      </g>
    </mask>
    <clipPath
       id="clip3">
      <rect
         id="rect1041-3"
         y="0"
         x="0"
         height="384"
         width="384" />
    </clipPath>
    <g
       clip-path="url(#clip3)"
       id="surface11">
      <path
         id="path1044"
         d="M 156.503906 126.082031 C 151.730469 126.328125 147.035156 127.238281 144.269531 128.730469 C 134.972656 133.746094 128.113281 140.332031 126.175781 151.042969 C 125.667969 153.855469 124.9375 156.484375 124.558594 156.878906 C 124.179688 157.273438 122.324219 157.152344 120.433594 156.609375 C 116.046875 155.347656 109.769531 156.808594 104.414062 160.347656 C 100.167969 163.148438 96.226562 172.714844 95.214844 178.640625 C 94.644531 181.984375 94.441406 179.753906 91.113281 179.753906 C 88.414062 179.753906 87.199219 180.308594 85.757812 182.214844 C 83.308594 185.453125 83.410156 187.144531 86.109375 189.949219 C 88.292969 192.21875 88.484375 192.25 104.765625 192.234375 C 110.820312 192.230469 115.390625 192.066406 118.535156 191.859375 C 120.332031 188.03125 122.679688 184.394531 125.8125 181.136719 C 139.160156 167.253906 159.742188 165.175781 175.910156 174.09375 C 179.945312 167.023438 184.957031 160.945312 190.921875 156.339844 C 190.898438 155.601562 190.117188 152.484375 189.140625 149.261719 C 185.980469 138.832031 179.117188 131.34375 169.160156 127.441406 C 166.121094 126.25 161.277344 125.835938 156.503906 126.082031 Z M 227.671875 156.070312 C 218.140625 155.894531 208.296875 158.714844 199.605469 164.71875 C 191.296875 170.457031 185.40625 176.957031 182.25 187.371094 C 181.40625 190.160156 180.335938 192.445312 179.871094 192.445312 C 179.410156 192.445312 177.65625 189.378906 175.96875 187.839844 C 163.992188 176.902344 145.851562 177.609375 134.460938 189.457031 C 125.984375 198.273438 124.425781 213.675781 128.742188 225.375 C 129.195312 226.605469 125.136719 227.582031 120.949219 229.78125 C 114.679688 233.074219 110.609375 237.761719 109.066406 243.492188 C 106.289062 253.800781 114.273438 264.761719 125.167969 268.804688 C 129.726562 270.5 138.53125 270.375 143.777344 268.546875 C 147.664062 267.191406 151.484375 263.632812 174.820312 239.566406 C 205.566406 207.859375 206.71875 204.011719 219.292969 203.964844 C 225.660156 203.941406 230.210938 204.308594 235.511719 207.023438 C 242.722656 210.714844 248.007812 219.566406 250.582031 226.722656 C 252.976562 233.375 253 241.472656 250.640625 245.496094 C 248.574219 249.019531 241.085938 252.316406 237.058594 252.316406 C 233.058594 252.316406 226.339844 248.8125 224.707031 245.238281 C 222.070312 239.125 221.683594 233.355469 228 228 C 215.480469 228.320312 213.984375 232.984375 210 247.300781 C 210 257.199219 215.019531 266.710938 223.277344 269.25 C 225.292969 269.867188 236.554688 270.117188 253.910156 269.929688 C 280.054688 269.644531 281.511719 269.53125 284.941406 267.597656 C 289.96875 264.765625 295.746094 258.292969 298.007812 252.960938 C 300.253906 247.660156 300.65625 237.519531 298.898438 231.9375 C 295.574219 222.1875 280.257812 211.671875 270.5625 218.273438 C 268.867188 220.195312 267.242188 218.515625 266.941406 218.203125 C 266.640625 217.890625 268.273438 216.421875 269.097656 213.46875 C 270.199219 209.523438 270.5 205.59375 270.246094 198.632812 C 269.921875 189.78125 269.660156 188.636719 266.144531 181.113281 C 258.609375 164.976562 243.558594 156.359375 227.671875 156.070312 Z M 227.671875 156.070312"
         style="fill:rgb(0%,0%,0%)" />
    </g>
  </defs>
  <sodipodi:namedview
     id="base"
     pagecolor="#ffffff"
     bordercolor="#666666"
     borderopacity="1.0"
     inkscape:pageopacity="0.0"
     inkscape:pageshadow="2"
     inkscape:zoom="7.919596"
     inkscape:cx="-7.5960986"
     inkscape:cy="21.182881"
     inkscape:document-units="px"
     inkscape:current-layer="layer1"
     showgrid="true"
     units="px"
     inkscape:window-width="1920"
     inkscape:window-height="1027"
     inkscape:window-x="0"
     inkscape:window-y="30"
     inkscape:window-maximized="1">
    <inkscape:grid
       type="xygrid"
       id="grid4780" />
  </sodipodi:namedview>
  <metadata
     id="metadata4237">
    <rdf:RDF>
      <cc:Work
         rdf:about="">
        <dc:format>image/svg+xml</dc:format>
        <dc:type
           rdf:resource="http://purl.org/dc/dcmitype/StillImage" />
        <dc:title></dc:title>
      </cc:Work>
    </rdf:RDF>
  </metadata>
  <g
     inkscape:label="Capa 1"
     inkscape:groupmode="layer"
     id="layer1"
     transform="translate(0,-1004.3622)">
    <circle
       style="opacity:1;fill:#d2b071;fill-opacity:1;stroke:none;stroke-width:6;stroke-linecap:round;stroke-linejoin:round;stroke-miterlimit:4;stroke-dasharray:none;stroke-dashoffset:0;stroke-opacity:1;paint-order:fill markers stroke"
       id="path4782"
       cx="23.446428"
       cy="1028.804"
       r="22.5" />
    <circle
       style="opacity:1;fill:#ffffff;fill-opacity:0.30769232;stroke:none;stroke-width:1.01930499;stroke-linecap:square;stroke-linejoin:miter;stroke-miterlimit:4;stroke-dasharray:none;stroke-dashoffset:0;stroke-opacity:1;paint-order:fill markers stroke"
       id="path1112"
       cx="23.446428"
       cy="1028.804"
       r="18.34749" />
    <path
       id="path1057-4"
       d="m 18.542811,1018.8668 c -0.659494,0.034 -1.308195,0.1598 -1.690293,0.3659 -1.284449,0.693 -2.232135,1.6029 -2.499819,3.0827 -0.07015,0.3886 -0.17108,0.7518 -0.22343,0.8063 -0.05235,0.054 -0.308699,0.038 -0.569907,-0.037 -0.606065,-0.1738 -1.473339,0.028 -2.213247,0.5165 -0.586636,0.3874 -1.131179,1.7086 -1.270957,2.5273 -0.078794,0.462 -0.1068574,0.1538 -0.5666688,0.1538 -0.3729221,0 -0.540764,0.077 -0.7399077,0.3401 -0.3383822,0.4473 -0.3243506,0.681 0.048572,1.0684 0.3016838,0.3137 0.3281283,0.318 2.5775345,0.3158 0.83651,-5e-4 1.467943,-0.023 1.902389,-0.052 0.248253,-0.5284 0.572605,-1.0313 1.005431,-1.4815 1.844104,-1.918 4.687703,-2.2051 6.921458,-0.973 0.557493,-0.9769 1.249908,-1.8166 2.074007,-2.4529 -0.0033,-0.102 -0.111174,-0.5326 -0.246097,-0.9778 -0.436603,-1.441 -1.384829,-2.4757 -2.760485,-3.0148 -0.419876,-0.1646 -1.089086,-0.2217 -1.74858,-0.1878 z m 9.832515,4.1432 c -1.31683,-0.023 -2.676836,0.3653 -3.877633,1.1948 -1.147911,0.7929 -1.961755,1.6909 -2.39782,3.1297 -0.116571,0.3853 -0.264445,0.701 -0.328668,0.701 -0.06368,0 -0.306001,-0.4236 -0.539145,-0.6363 -1.654673,-1.511 -4.16097,-1.4134 -5.734689,0.2235 -1.171116,1.2181 -1.386451,3.3466 -0.790099,4.9624 0.0626,0.17 -0.498129,0.3049 -1.076671,0.6087 -0.866194,0.455 -1.428545,1.1026 -1.64172,1.8943 -0.383718,1.4243 0.719399,2.9386 2.22458,3.4972 0.629811,0.2342 1.846261,0.2169 2.571057,-0.036 0.536986,-0.1872 1.064797,-0.6788 4.288874,-4.0039 4.24786,-4.3806 4.407066,-4.9121 6.144312,-4.9187 0.879686,0 1.508419,0.048 2.24077,0.4226 0.996259,0.51 1.726452,1.733 2.082104,2.7217 0.330826,0.9191 0.334064,2.0378 0.0081,2.5937 -0.285493,0.4868 -1.320068,0.9423 -1.876484,0.9423 -0.552638,0 -1.480895,-0.4841 -1.706483,-0.9779 -0.364288,-0.8446 -0.417717,-1.6417 0.454953,-2.3816 -1.729689,0.044 -1.93639,0.6886 -2.486867,2.6665 0,1.3676 0.693494,2.6817 1.834387,3.0325 0.278478,0.085 1.83439,0.1198 4.23221,0.094 3.612109,-0.039 3.813412,-0.055 4.287255,-0.3223 0.694574,-0.3912 1.492766,-1.2855 1.805244,-2.0221 0.31032,-0.7324 0.365907,-2.1334 0.123049,-2.9046 -0.459271,-1.3471 -2.575377,-2.7999 -3.914873,-1.8879 -0.234223,0.2661 -0.458732,0.034 -0.500288,-0.01 -0.04156,-0.043 0.184033,-0.2461 0.297907,-0.6541 0.15219,-0.5451 0.193746,-1.088 0.158665,-2.0497 -0.04475,-1.2229 -0.08091,-1.3811 -0.566632,-2.4205 -1.041053,-2.2295 -3.120458,-3.42 -5.315356,-3.4599 z m 0,0"
       style="fill:#ffffff;stroke-width:0.13815929"
       inkscape:connector-curvature="0" />
  </g>
</svg>
