<svg height="48" width="48" xmlns="http://www.w3.org/2000/svg"><ellipse cx="23.982632" cy="24.214348" fill="#ac9393" rx="22.779375" ry="22.779379"/><path d="m24.482632 7c-9 10-7 14-4 24h7c3-10 6-14-3-24zm-8 15s-2.233072.276859-3 1c-1.306032 1.231464-2 5-2 5l7 2zm15 0-2 8 7-2s-.693968-3.768536-2-5c-.766928-.723141-3-1-3-1zm-10 10 1 3h3l1-3zm2 4s-1.848979 1.069365-2 2c-.119393.735732 1 2 1 2 0-1 0-1 1-1 2 1 1 2 1 2s2.118427-1.803999 2-3c-.0929-.938221-2-2-2-2z" fill="#fff" fill-opacity=".948571"/></svg>