<?xml version="1.0" encoding="UTF-8" standalone="no"?>
<svg
   xmlns:dc="http://purl.org/dc/elements/1.1/"
   xmlns:cc="http://creativecommons.org/ns#"
   xmlns:rdf="http://www.w3.org/1999/02/22-rdf-syntax-ns#"
   xmlns:svg="http://www.w3.org/2000/svg"
   xmlns="http://www.w3.org/2000/svg"
   xmlns:sodipodi="http://sodipodi.sourceforge.net/DTD/sodipodi-0.dtd"
   xmlns:inkscape="http://www.inkscape.org/namespaces/inkscape"
   height="48"
   width="48"
   version="1.1"
   id="svg6"
   sodipodi:docname="shadow-tactics.svg"
   inkscape:version="1.0.2 (e86c870879, 2021-01-15)">
  <metadata
     id="metadata12">
    <rdf:RDF>
      <cc:Work
         rdf:about="">
        <dc:format>image/svg+xml</dc:format>
        <dc:type
           rdf:resource="http://purl.org/dc/dcmitype/StillImage" />
        <dc:title></dc:title>
      </cc:Work>
    </rdf:RDF>
  </metadata>
  <defs
     id="defs10">
    <linearGradient
       gradientUnits="userSpaceOnUse"
       gradientTransform="matrix(0.0920001,0,0,0.09064843,-21.193131,1.5846311)"
       y2="269.48999"
       y1="235.14999"
       x2="657.65002"
       x1="319.20999"
       id="a-12">
      <stop
         id="stop1076"
         offset="0"
         stop-color="#e54c18" />
      <stop
         id="stop1078"
         offset="1"
         stop-color="#fec350" />
    </linearGradient>
    <linearGradient
       id="linearGradient946"
       x1="31.833"
       x2="32.167"
       y1="51.558998"
       y2="11.098"
       gradientUnits="userSpaceOnUse"
       gradientTransform="matrix(0.83258662,0,0,0.83258662,-4.004011,0.8380211)">
      <stop
         stop-color="#f9f9f9"
         offset="0"
         id="stop5" />
      <stop
         stop-color="#f0fee6"
         offset="1"
         id="stop7-3" />
    </linearGradient>
    <linearGradient
       gradientUnits="userSpaceOnUse"
       y2="12.7"
       y1="4.2333002"
       x2="7.9373002"
       x1="7.9373002"
       id="linearGradient1166">
      <stop
         id="stop13"
         offset="0"
         stop-color="#fff" />
      <stop
         id="stop15"
         offset="1"
         stop-color="#b8ffe1"
         style="stop-color:#d6f2dc;stop-opacity:1" />
    </linearGradient>
  </defs>
  <sodipodi:namedview
     pagecolor="#ffffff"
     bordercolor="#666666"
     borderopacity="1"
     objecttolerance="10"
     gridtolerance="10"
     guidetolerance="10"
     inkscape:pageopacity="0"
     inkscape:pageshadow="2"
     inkscape:window-width="1920"
     inkscape:window-height="1031"
     id="namedview8"
     showgrid="true"
     inkscape:zoom="9.2708332"
     inkscape:cx="1.6739251"
     inkscape:cy="26.488403"
     inkscape:window-x="0"
     inkscape:window-y="24"
     inkscape:window-maximized="1"
     inkscape:current-layer="svg6"
     inkscape:document-rotation="0">
    <inkscape:grid
       type="xygrid"
       id="grid837" />
  </sodipodi:namedview>
  <circle
     cx="23.940615"
     cy="31.534513"
     fill="#74a2f3"
     opacity=".99"
     r="13.232998"
     transform="matrix(1.75830584759 0 0 1.75830608345 -18.15909274367 -30.97874795549)"
     id="circle2"
     style="fill:#dd977d;fill-opacity:1" />
  <ellipse
     cx="23.935829"
     cy="24.468578"
     fill="#74a2f3"
     opacity="0.99"
     id="circle858"
     style="fill:#ffffff;fill-opacity:0.26542;stroke-width:1.50099"
     rx="19.862556"
     ry="19.862558" />
  <path
     style="fill:#ffffff;fill-opacity:1;stroke-width:0.78695"
     d="m 26.111709,40.856083 c -0.487369,-0.05983 -0.952905,-0.185189 -1.050296,-0.282531 -0.147087,-0.147108 -0.170838,-0.6399 -0.149147,-3.094742 0.01984,-2.246673 -0.0086,-2.947161 -0.123441,-3.038712 -0.08206,-0.06553 -0.954899,-0.530399 -1.9396,-1.033353 -0.984693,-0.502858 -1.769703,-0.934965 -1.744431,-0.960227 0.02526,-0.02564 1.728827,0.781306 3.785724,1.792343 7.631069,3.750974 7.412797,3.548786 7.839358,3.385156 0.10212,-0.03894 0.185664,-0.131722 0.185664,-0.205513 0,-0.07408 -1.939206,-1.000019 -4.021136,-2.058159 -2.081931,-1.058046 -3.883067,-2.008492 -4.002528,-2.112102 -0.193898,-0.16819 -0.208561,-0.303615 -0.136622,-1.262987 0.05993,-0.799636 0.03134,-1.31617 -0.111959,-2.018464 C 24.537419,29.447599 24.466853,28.742552 24.486492,28.4 l 0.0357,-0.622898 0.264099,0.502383 c 0.145245,0.276359 0.264089,0.632966 0.264089,0.792323 0,0.623373 0.95167,1.024712 1.035196,0.436571 0.04644,-0.327357 0.256605,-0.345496 0.339303,-0.02944 0.09032,0.345307 0.268743,0.285666 0.268743,-0.09022 0,-0.426315 -0.386172,-1.145797 -0.928301,-1.729474 -0.239842,-0.25822 -0.586069,-0.707231 -0.769397,-0.99774 -0.183336,-0.290414 -0.404518,-0.570382 -0.491556,-0.622045 -0.175379,-0.103992 -0.218856,-0.551672 -0.05357,-0.551672 0.208702,0 0.27388,-0.629357 0.07986,-0.77124 -0.10148,-0.07408 -0.184514,-0.291174 -0.184514,-0.482155 0,-0.190984 -0.08158,-0.622045 -0.181381,-0.958044 -0.09975,-0.335904 -0.151551,-0.658987 -0.115083,-0.717963 0.03647,-0.05888 0.0151,-0.335145 -0.04759,-0.613687 -0.0737,-0.327737 -0.07332,-0.934112 9.45e-4,-1.719502 0.144722,-1.528234 -0.189052,-2.181179 -0.70589,-2.991358 -0.204952,-0.320899 -0.43244,-0.756709 -0.505518,-0.9683 -0.126936,-0.367528 -0.119756,-0.384812 0.160231,-0.384812 0.347318,0 1.020238,-0.678931 1.278192,-1.289484 0.09506,-0.225076 0.28917,-0.533249 0.431329,-0.684819 0.206385,-0.220042 0.255398,-0.404282 0.243147,-0.914073 -0.03267,-1.360045 -1.318182,-2.30071 -2.443514,-1.787972 -0.249776,0.113771 -0.337926,0.100289 -0.540276,-0.08262 -0.199168,-0.180251 -0.281715,-0.193926 -0.468376,-0.07692 -0.124617,0.07787 -0.302968,0.141504 -0.396332,0.141504 -0.09335,0 -0.207127,0.11776 -0.252825,0.261734 -0.04567,0.143971 -0.23122,0.400101 -0.412316,0.569336 -0.223699,0.208931 -0.309371,0.383578 -0.267252,0.544644 0.04132,0.158123 -0.05869,0.374651 -0.299815,0.649301 -0.396266,0.451386 -0.457749,0.674562 -0.185797,0.674562 0.340311,0 0.170811,0.204942 -0.326702,0.394879 -0.639043,0.24407 -0.670981,0.241696 -0.670981,-0.04938 0,-0.132766 -0.05983,-0.478926 -0.132889,-0.769151 -0.119111,-0.473038 -0.16478,-0.524131 -0.440152,-0.492127 l -0.307376,0.03514 v 1.167164 1.167165 l -0.49885,0.33714 c -0.274365,0.185377 -0.498842,0.382911 -0.498842,0.438943 0,0.05603 -0.07948,0.434798 -0.272579,0.745727 -0.253614,0.408459 -0.372229,0.777222 -0.427207,1.328324 -0.04187,0.419572 -0.154124,0.917492 -0.249482,1.106385 -0.10462,0.207221 -0.08628,0.504383 -0.12197,1.253495 -0.05299,1.112178 -0.08907,1.273245 -0.347614,1.550553 -0.254506,0.273034 -0.274251,0.355942 -0.167724,0.704192 0.402334,1.315411 0.795134,2.238125 1.213803,2.851433 0.828478,1.213794 1.735732,2.788753 1.668818,2.897017 -0.120924,0.195635 -0.285353,0.104852 -0.289522,-0.159832 -0.0028,-0.145206 -0.06828,-0.372942 -0.146717,-0.505898 -0.267194,-0.45338 -0.846465,-1.107999 -0.980466,-1.107999 -0.07351,0 -0.16799,-0.183004 -0.209947,-0.406655 -0.144371,-0.769531 -0.302143,-0.571521 -0.2952,0.370378 0.0095,1.293187 0.112993,1.73821 0.404053,1.73821 0.168826,0 0.245171,0.09022 0.271886,0.322798 0.02602,0.225835 -0.01605,0.322799 -0.139794,0.322799 -0.09729,0 -0.209577,-0.05318 -0.249473,-0.117382 -0.03988,-0.06457 -0.220754,-0.117381 -0.401908,-0.117381 -0.181142,0 -0.455335,-0.0982 -0.60928,-0.218238 -0.153963,-0.12004 -0.534616,-0.255845 -0.845914,-0.301905 L 14,28.288134 l 0.08214,0.566012 c 0.08433,0.580735 0.16949,0.815971 0.16949,0.468196 0,-0.217003 0.408109,-0.272559 0.531797,-0.07217 0.04187,0.06743 0.52038,0.3284 1.063305,0.579212 0.542918,0.250908 0.987133,0.512357 0.987133,0.581019 0,0.06837 -0.04501,0.124979 -0.100026,0.124979 -0.154523,0 -0.383093,1.559193 -0.248296,1.693955 0.195722,0.19573 0.125112,0.763357 -0.121171,0.974187 -0.308666,0.264299 -0.344669,1.322628 -0.04501,1.322628 0.14081,0 0.170354,0.06837 0.114551,0.264108 -0.0414,0.145207 -0.106019,0.404661 -0.143668,0.576459 -0.03875,0.177022 -0.17008,0.338943 -0.30296,0.373701 -0.246729,0.06459 -0.239937,0.32109 0.01069,0.404662 0.08091,0.0266 0.176889,-0.06459 0.213243,-0.203803 0.09335,-0.356892 0.437825,-0.25651 0.483704,0.141029 0.04434,0.384432 0.07028,0.390416 0.373673,0.08737 0.13042,-0.130487 0.234752,-0.391271 0.234752,-0.586906 0,-0.193642 0.0528,-0.352144 0.117373,-0.352144 0.119413,0 0.158274,0.146252 0.12701,0.478262 -0.03219,0.341602 0.337225,1.551503 0.54321,1.779142 0.195123,0.215579 0.191382,0.235047 -0.08557,0.443978 -0.257859,0.194401 -0.267185,0.22707 -0.085,0.296967 0.112557,0.04274 0.204647,0.1944 0.204647,0.335903 0,0.375317 0.222284,0.539137 0.731401,0.539137 0.557058,0 0.661105,0.210166 0.430294,0.869058 -0.162264,0.463162 -0.185465,0.479592 -0.635702,0.450341 -0.795152,-0.05223 -1.511225,-0.28386 -1.80258,-0.584151 -0.201485,-0.207698 -0.363805,-0.27123 -0.584768,-0.22897 -0.423256,0.08072 -0.861575,-0.174742 -1.315022,-0.766871 -0.646147,-0.843701 -1.438385,-1.625387 -1.87072,-1.845715 -0.457616,-0.233148 -0.265381,-0.424509 -1.238098,-0.533439 -0.638302,-0.07123 -1.525861,-0.520427 -1.525861,-0.771809 0,-0.06648 -0.188266,-0.200289 -0.4183463,-0.296492 C 9.276557,35.13736 8.5435028,34.572298 8.2933841,34.160989 7.8041152,33.35651 7.6963739,32.78195 7.7896133,31.474612 7.9367486,29.411609 7.9084955,29.209135 7.29099,27.900943 6.7370581,26.727416 6.7341231,26.714691 6.7472768,25.547241 c 0.011867,-1.058425 0.059352,-1.3005 0.483181,-2.464816 0.2584855,-0.710175 0.5329918,-1.656917 0.6100216,-2.104029 0.1841156,-1.068586 0.3422194,-1.657826 0.9499235,-2.359453 0.7359493,-0.84959 0.7495643,-1.207462 0.8266217,-2.3317 0.059265,-0.864689 0.092027,-0.962222 0.3992674,-1.189386 0.410198,-0.30333 0.425023,-0.438091 0.04825,-0.438091 -0.4870666,0 -0.4274929,-0.163726 0.29444,-0.809417 0.382981,-0.342457 0.696321,-0.685862 0.696321,-0.763168 0,-0.171418 0.84162,-1.009706 1.013779,-1.009706 0.068,0 0.219178,-0.1056 0.336018,-0.234762 0.11685,-0.129062 0.312,-0.234667 0.433684,-0.234667 0.258581,0 0.989612,-0.07883 1.100945,-0.258985 0.04208,-0.06837 0.171712,-0.09402 0.28803,-0.05698 0.296064,0.09402 0.942487,-0.472278 0.942487,-0.825562 0,-0.223461 0.189262,-0.6235589 0.513722,-0.6844349 0.22176,-0.04179 0.448573,-0.04748 0.504045,-0.0133 0.05546,0.03418 0.329342,-0.03988 0.608616,-0.165054 0.72159,-0.322989 2.941786,-0.728791 3.384539,-0.618531 0.193242,0.04843 0.264088,0.01424 0.264088,-0.126783 0,-0.288514 0.237061,-0.325838 0.866371,-0.13647 0.391318,0.117856 0.656821,0.136754 0.855799,0.06078 0.428091,-0.162676 1.443049,-0.132952 2.100535,0.06173 0.318355,0.09402 1.07324,0.251002 1.677516,0.34844 0.604285,0.09754 1.173366,0.239226 1.264621,0.314916 0.09127,0.07597 0.197497,0.106174 0.236083,0.06743 0.03856,-0.03894 0.314592,0.05318 0.613374,0.204278 0.29877,0.150999 0.884271,0.3616399 1.301116,0.4680979 0.416828,0.106361 0.839371,0.264869 0.938993,0.352049 0.179899,0.157553 1.1142,0.655474 1.22989,0.655474 0.03324,0 0.0066,-0.140648 -0.0584,-0.312541 -0.06534,-0.171894 -0.07456,-0.356892 -0.02041,-0.411025 0.12363,-0.12365 1.117287,0.491558 1.701591,1.053487 0.371347,0.357177 0.557874,0.439704 1.173745,0.519288 1.260025,0.162872 1.282001,0.161542 1.421595,-0.08642 0.07275,-0.129062 0.14402,-0.255276 0.158407,-0.280442 0.01435,-0.02469 0.207118,0.09211 0.428309,0.261068 0.417616,0.318524 0.528064,0.288705 0.698399,-0.188607 0.04084,-0.114438 0.167876,-0.241314 0.282314,-0.281962 0.114437,-0.04084 0.305266,-0.157553 0.424072,-0.25993 0.197821,-0.170277 0.22856,-0.168757 0.36507,0.01804 0.24291,0.332201 0.492952,0.239796 1.162614,-0.429827 0.898631,-0.8986889 1.484104,-1.1605159 1.484104,-0.663735 0,0.146535 -0.229701,0.381012 -0.640422,0.653573 -0.717478,0.476268 -1.354936,1.145132 -1.354936,1.42168 0,0.100577 -0.105645,0.3171 -0.234752,0.481301 -0.12912,0.164106 -0.234754,0.448631 -0.234754,0.6323 0,0.18367 -0.07493,0.53306 -0.166603,0.776465 -0.202074,0.536667 -0.30482,1.481889 -0.182596,1.679709 0.06506,0.105127 0.203233,0.05698 0.512545,-0.179015 0.489697,-0.373513 0.555966,-0.235903 0.130098,0.270279 -0.260375,0.309409 -0.404157,0.843037 -0.227175,0.843037 0.102638,0 0.686557,-0.716348 0.780928,-0.958043 0.102615,-0.262778 0.248912,-0.27465 0.446779,-0.03609 0.123535,0.148911 0.103001,0.228495 -0.12022,0.466106 -0.330473,0.351764 -0.212331,0.54474 0.455943,0.745029 0.252323,0.07597 0.483695,0.202948 0.514161,0.283101 0.170098,0.447113 -0.516658,1.10629 -1.020742,0.979697 -0.318695,-0.07978 -0.50095,0.0963 -0.326103,0.315485 0.06211,0.07787 0.149946,0.68007 0.195123,1.338297 0.0452,0.658228 0.489705,1.476952 0.58397,1.819315 0.523381,1.900701 0.672596,2.967568 0.715513,5.891461 l 0.04245,2.891129 -0.308012,0.366009 c -0.169405,0.201333 -0.376275,0.366104 -0.459696,0.366104 -0.299748,0 -0.757839,0.796217 -0.953817,1.657772 -0.108047,0.475033 -0.274355,0.98264 -0.369598,1.127942 -0.107474,0.164106 -0.474462,0.380159 -0.426872,0.569812 0.04483,0.178447 0.01738,0.37693 -0.066,0.477407 -0.08034,0.09678 -0.157495,0.610744 -0.176613,1.176186 -0.02317,0.685769 -0.09505,1.097647 -0.226491,1.29822 -0.189101,0.288611 -0.209462,0.292124 -1.148892,0.196207 -1.475479,-0.150716 -2.153101,-0.121276 -3.130005,0.334478 -0.683755,0.319 -1.153374,0.657278 -1.883608,1.356628 -1.33276,1.276282 -1.967876,1.467739 -3.368758,1.502118 -0.613269,0.0152 -1.508956,-0.02088 -1.990409,-0.08072 z m -8.710226,-1.620449 c 0.09335,-0.05888 0.156509,-0.317006 0.156509,-0.639139 0,-0.866398 -0.241165,-1.048549 -0.532917,-0.402478 -0.251562,0.557181 -0.333169,0.891851 -0.250233,1.026042 0.0886,0.143402 0.412335,0.151474 0.626641,0.0152 z m -1.74105,-1.833844 c 0,-0.09686 -0.0792,-0.176072 -0.176062,-0.176072 -0.09683,0 -0.176062,0.07883 -0.176062,0.176072 0,0.09686 0.0792,0.176072 0.176062,0.176072 0.09684,0 0.176062,-0.07883 0.176062,-0.176072 z m -2.72652,-1.371821 c -0.07256,-0.217669 -0.32522,-0.253756 -0.32522,-0.04654 0,0.102186 0.08367,0.185854 0.185845,0.185854 0.102218,0 0.164931,-0.06268 0.139375,-0.139415 z m 1.631722,-1.885317 c -0.03618,-0.145303 -0.108366,-0.438375 -0.160402,-0.65139 -0.05205,-0.213014 -0.147429,-0.397824 -0.21198,-0.410834 -0.166137,-0.03324 -0.210582,0.633346 -0.06732,1.010085 0.150915,0.396969 0.537028,0.442744 0.439714,0.05223 z m -0.350899,-2.927028 c -0.03741,-0.09402 -0.06525,-0.06553 -0.07094,0.07123 -0.0047,0.123745 0.0227,0.193072 0.06163,0.154039 0.03903,-0.03894 0.04321,-0.140268 0.0095,-0.22498 z m 0.06325,-0.995461 -0.119158,-0.449676 -0.01215,0.580922 c -0.0086,0.428403 0.02232,0.546546 0.119157,0.449771 0.09345,-0.09402 0.09697,-0.260878 0.01215,-0.581017 z M 39.158141,17.180516 c 0.124389,-0.09402 0.19288,-0.204467 0.152187,-0.245115 -0.13099,-0.131055 -0.671809,0.07028 -0.671809,0.249863 0,0.219188 0.226292,0.217193 0.519622,-0.0095 z M 20.316287,40.551329 c -0.116326,-0.116338 -0.09468,-0.802295 0.03618,-1.146557 0.103585,-0.272369 0.175445,-0.301051 0.754955,-0.301051 0.572973,0 0.666043,-0.03609 0.883207,-0.340936 0.133507,-0.187468 0.242739,-0.395639 0.242739,-0.462497 0,-0.271896 0.250918,-0.247584 0.527676,0.05129 0.218817,0.236188 0.293955,0.446068 0.293955,0.82129 0,0.277308 -0.0528,0.536762 -0.117381,0.576648 -0.06457,0.03988 -0.117372,0.0133 -0.117372,-0.05888 0,-0.07217 -0.0528,-0.09858 -0.117371,-0.05888 -0.06457,0.03988 -0.117381,0.19706 -0.117381,0.34939 0,0.500105 -0.121997,0.648256 -0.533819,0.648256 -0.215228,0 -0.423968,-0.05318 -0.463865,-0.117382 -0.03988,-0.06457 -0.198351,-0.11738 -0.352124,-0.11738 -0.153774,0 -0.312229,0.05318 -0.352125,0.11738 -0.08196,0.132672 -0.448517,0.157933 -0.567304,0.03894 z m -0.07825,-8.020574 c 0,-0.06459 0.0528,-0.117381 0.117372,-0.117381 0.06459,0 0.117372,0.05318 0.117372,0.117381 0,0.06459 -0.0528,0.117382 -0.117372,0.117382 -0.06458,0 -0.117372,-0.05318 -0.117372,-0.117382 z m 0.488366,-1.350453 c 0.02498,-0.219283 0.116367,-0.364015 0.245219,-0.388422 0.282903,-0.05413 0.259873,0.244734 -0.0398,0.515869 -0.243812,0.220707 -0.244982,0.219948 -0.205399,-0.127447 z m -2.462071,-6.06745 c -0.102285,-0.336094 -0.158475,-2.206785 -0.06629,-2.206785 0.05632,0 0.357357,0.733251 0.516752,1.258808 0.159643,0.526411 0.05499,1.206387 -0.198664,1.290909 -0.0736,0.02469 -0.186925,-0.129728 -0.25178,-0.342932 z m 21.90005,-6.746273 c 0,-0.102284 0.08367,-0.185853 0.185844,-0.185853 0.207288,0 0.171172,0.252615 -0.04644,0.325173 -0.07663,0.02564 -0.139385,-0.03704 -0.139385,-0.13932 z m 0.968338,-1.085206 c -0.281221,-0.113487 -0.163157,-0.787861 0.219121,-1.251591 0.317897,-0.385668 0.421708,-0.43923 0.792276,-0.40827 0.637799,0.05318 0.609166,0.375695 -0.09961,1.121389 -0.586859,0.617391 -0.63933,0.648351 -0.911794,0.538472 z M 17.936234,16.030112 c 0,-0.177874 0.830225,-0.422039 0.967635,-0.28462 0.08537,0.08547 0.01928,0.145872 -0.217069,0.198865 -0.18686,0.04179 -0.432192,0.101138 -0.545158,0.131721 -0.112975,0.03038 -0.205408,0.01047 -0.205408,-0.04559 z m 21.573129,-1.617171 c 0.360254,-0.329257 0.655017,-0.669435 0.655017,-0.756046 0,-0.222036 0.23159,-0.338658 0.379295,-0.190981 0.320339,0.320328 -0.811117,1.545708 -1.427254,1.545708 -0.219824,0 -0.156451,-0.09658 0.392942,-0.598681 z M 9.2949,13.837811 c 0,-0.06457 0.1056339,-0.117381 0.2347432,-0.117381 0.129111,0 0.2347535,0.05318 0.2347535,0.117381 0,0.06458 -0.1056449,0.117381 -0.2347535,0.117381 -0.1291093,0 -0.2347432,-0.05318 -0.2347432,-0.117381 z m 11.226182,-0.685532 c 0.0038,-0.207981 0.435581,-0.745313 0.526201,-0.654712 0.09822,0.0982 -0.265446,0.801439 -0.414453,0.801439 -0.06286,0 -0.113183,-0.06648 -0.111748,-0.146727 z m 20.618625,-0.210693 c -0.165625,-0.431631 0.478509,-0.81559 0.850435,-0.506846 0.216748,0.179869 0.213689,0.285855 -0.01482,0.514444 -0.241237,0.241221 -0.741865,0.236662 -0.835598,-0.0095 z M 29.092057,8.9472121 c -0.262569,-0.262491 0.212445,-0.954433 0.562946,-0.819957 0.214325,0.08262 0.239187,0.557749 0.0396,0.757374 -0.15345,0.153468 -0.47794,0.187183 -0.602519,0.06268 z M 15.359244,8.5950701 c -0.12324,-0.123174 -0.09136,-0.48662 0.05043,-0.574276 0.18744,-0.115766 0.479915,0.22479 0.391309,0.455659 -0.07692,0.200385 -0.300034,0.26031 -0.441699,0.118617 z"
     id="path10" />
</svg>
