<svg height="48" width="48" xmlns="http://www.w3.org/2000/svg"><path d="m44.322082 27.405077a19.729762 19.729765 0 0 1 -19.729762 19.729765 19.729762 19.729765 0 0 1 -19.7297621-19.729765 19.729762 19.729765 0 0 1 19.7297621-19.7297632 19.729762 19.729765 0 0 1 19.729762 19.7297632z" fill="#8787de" opacity=".99" transform="matrix(1.1503549 0 0 1.1503549 -4.486125 -7.525565)"/><g fill="#fff" fill-rule="evenodd"><path d="m19.5 19.5c0-10.5 1.5-10.5 15-10.5-6 4.5-15 10.5-15 10.5z"/><path d="m24 18c10.5-7.5 7.5-4.5 13.5 3z"/><path d="m28.5 21c10.498974 1.499665 7.5 1.5 7.5 10.5z"/><path d="m28.5 25.5c6 7.5 4.5 7.5-4.5 12z"/><path d="m25.2 29.4c-2.7 8.1-2.7 6.6-11.7 5.1z"/><path d="m21 28.8c-6 4.2-7.5 4.2-12-4.8z"/><path d="m18 25.5c-9-4.5-6-4.5 0-13.5z"/></g></svg>