<svg height="48" width="48" xmlns="http://www.w3.org/2000/svg"><rect fill="#aca793" height="42.5" ry="2.5" width="32.5" x="7.5" y="3"/><g fill="none"><path d="m35 10.5-2.5 2.5"/><path d="m10 35.5h7" stroke="#fff" stroke-linecap="round" stroke-opacity=".408759" stroke-width="1.3"/><path d="m19 35.5h2.5" stroke="#fff" stroke-linecap="round" stroke-opacity=".408759" stroke-width="1.3"/><path d="m23.5 35.5h8" stroke="#fff" stroke-linecap="round" stroke-opacity=".408759" stroke-width="1.3"/><path d="m33.5 35.5h2" stroke="#fff" stroke-linecap="round" stroke-opacity=".408759" stroke-width="1.3"/><path d="m10 38h9" stroke="#fff" stroke-linecap="round" stroke-opacity=".408759" stroke-width="1.3"/><path d="m21 38h2.5" stroke="#fff" stroke-linecap="round" stroke-opacity=".408759" stroke-width="1.3"/><path d="m25.5 38h6.5" stroke="#fff" stroke-linecap="round" stroke-opacity=".408759" stroke-width="1.3"/><path d="m10 40.5h7" stroke="#fff" stroke-linecap="round" stroke-opacity=".408759" stroke-width="1.3"/><path d="m19 40.5h8.5" stroke="#fff" stroke-linecap="round" stroke-opacity=".408759" stroke-width="1.3"/><path d="m29 40.5h4.5" stroke="#fff" stroke-linecap="round" stroke-opacity=".408759" stroke-width="1.3"/><path d="m10 43h2.5" stroke="#fff" stroke-linecap="round" stroke-opacity=".408759" stroke-width="1.3"/><path d="m14 43h9" stroke="#fff" stroke-linecap="round" stroke-opacity=".408759" stroke-width="1.3"/></g><path d="m16.759283 8.361841c1.698619-1.909572 5.061865-2.7693793 7.564304-2.3274787 1.593643.2619415 2.05854.3009327 3.460225 1.2927107.8908-.390912 1.733612-.472894 2.671401-.526882-.229949 1.901574-.13297 1.729612.190957 2.796373.261941.843811.358921 1.761606-.02299 2.640408-.280936.66785-.468894.878803-.894798 1.362695-.35892.405909-.80482.62086-1.776603.792822.06598-.440901.167963-.737835.265941-2.108528.155965-2.128522-.433903-2.335475-1.077758-3.108303-1.905573-2.261493-5.248824-2.694396-7.783256-1.054763-1.218727.780825-1.397686 1.702618-1.331702 3.163291.04299.960784.960785 1.878579 1.421682 2.214504 1.335701.983779 2.972333 1.651629 4.463999 2.327478.550877.206954 2.929343 1.101753 3.476221 1.343699.718839.31593 1.530657.75783 1.925568 1.058763 1.179736.897798 1.878579 1.819591 2.28049 2.890351.729836 1.956562.831813 5.775705-.8978 7.705274-1.983556 2.210504-5.361799 3.151293-8.350129 3.085308-2.784376.02299-3.358248-.761829-7.455329-.644856-.13297-.57787-.218951-1.999552-.140968-2.292486-.354921-.608864-.558875-1.444676-.636858-2.812369-.05099-.870805-.008-1.573647.444901-2.909349.530881-1.585644 2.378466-2.80837 4.077086-2.968334 1.460673.02 2.925343.22295 4.120076 1.140744 1.026769.792823 1.257719 2.31948 1.093755 3.237275-.253943 1.433678-1.147742 2.628411-2.640408 2.667401-.75783.02299-1.913571-.882801-1.894576-1.569647.06298-2.190509 2.272491-1.839588 2.671402-1.534656.323927.245945.644856.608864.515884 1.276714.546877-.577871.921793-1.870581.190957-2.706394-1.823591-2.101529-4.662954-1.655629-5.959663-.253943-.804821.870805-.515885 2.382466-.347923 3.577199.190957 1.374692 1.257718 2.479444 2.358472 3.397238 1.050764.874803 2.292487 1.132746 2.620412 1.15574 2.116526.128971 2.999327.339925 5.350801-.741833 1.456673-.67185 2.261493-1.433679 2.929343-3.394239.17996-.530882.13297-1.585645-.101977-2.409461-.237946-.835811-.745832-1.608638-1.425681-2.218502-1.511661-1.42568-3.354247-1.913571-5.268818-2.714392-1.722614-.722838-3.029321-1.241721-4.627963-2.175512-1.116751-.726837-1.440678-.972781-2.198507-2.022546-.495889-.687846-.835813-2.515436-.733837-3.280265.245946-1.253719.487892-2.308482 1.472671-3.335253m0-.016" fill="#fff"/></svg>