<svg height="48" width="48" xmlns="http://www.w3.org/2000/svg"><path d="m44.322082 27.405077a19.729762 19.729765 0 0 1 -19.729762 19.729765 19.729762 19.729765 0 0 1 -19.7297621-19.729765 19.729762 19.729765 0 0 1 19.7297621-19.7297632 19.729762 19.729765 0 0 1 19.729762 19.7297632z" fill="#949494" opacity=".99" transform="matrix(1.1503549 0 0 1.1503549 -4.486125 -7.525565)"/><g fill-rule="evenodd"><path d="m34.5 12c-7.609109.35264-12.644112 3.315735-16.5 9h-1.5l-6 6 6-.900391-.300781 1.5 3 2.701172 1.5-.300781-1.199219 6 6-6v-1.5c8.893603-4.880482 9.111815-11.959598 9-16.5zm-5.677734 3.857422a2.25 2.25 0 0 1 2.25 2.25 2.25 2.25 0 0 1 -2.25 2.25 2.25 2.25 0 0 1 -2.25-2.25 2.25 2.25 0 0 1 2.25-2.25z" fill="#fff" fill-opacity=".827465"/><path d="m14.1 29.4c.819901-.08811 2.4.6 2.4.6s.366065 1.688666 0 2.4c-.393627.764891-2.1 1.5-2.1 1.5.419099-.684361.266834-.151501.3-1.2-.637504 1.146058-1.124514.879812-2.4 1.2.164955-.657446-.408711-2.539054.6-2.4-1.063438-.161993-.82148.38828-1.2.6-.497132-.729783.758394-2.523593 2.4-2.7z" fill="#fefeff" fill-opacity=".630282"/></g></svg>