<svg height="48" width="48" xmlns="http://www.w3.org/2000/svg"><g fill="#336b78" opacity=".99" transform="matrix(1.1503549 0 0 1.1503549 -4.486125 -7.525565)"><path d="m44.322082 27.405077a19.729762 19.729765 0 0 1 -19.729762 19.729765 19.729762 19.729765 0 0 1 -19.7297621-19.729765 19.729762 19.729765 0 0 1 19.7297621-19.7297632 19.729762 19.729765 0 0 1 19.729762 19.7297632z"/><path d="m44.322082 27.405077a19.729762 19.729765 0 0 1 -19.729762 19.729765 19.729762 19.729765 0 0 1 -19.7297621-19.729765 19.729762 19.729765 0 0 1 19.7297621-19.7297632 19.729762 19.729765 0 0 1 19.729762 19.7297632z"/></g><path d="m11.84496 10.700406c-.582373-.05706-.269983.629861-.348235.984538-.0057 5.006245.01148 10.01388-.0086 15.019256-.09028.476199-.649486.387289-.988125.2958-2.1173-.187355-4.4752961 1.279679-4.7769951 3.494155-.3155229 1.668578 1.3806591 3.103933 2.9588341 2.943605 2.172045-.124019 3.918058-2.325263 3.627452-4.483502.0051-4.047714-.01025-8.096599.0077-12.143584.07364-.443712.648445-.470332.916293-.183432 1.996865 1.146625 3.791918 3.058782 3.950689 5.473109.08725.477576-.06587 1.657926-.0317 1.680433.699127-2.609536-.02161-5.604222-2.010452-7.462407-1.431031-1.524027-2.692779-3.512827-2.935848-5.559031-.116685-.03747-.235407-.07487-.361007-.05894z" fill="#f7f7f7" fill-opacity=".556561" stroke="#a2bac0" stroke-opacity=".996078" stroke-width=".723978"/><path d="m37.035669 14.746148c-.582373-.05706-.269983.629861-.348235.984538-.0057 5.006245.01148 10.01388-.0086 15.019256-.09028.476199-.649486.387289-.988125.2958-2.1173-.187355-4.475296 1.279679-4.776995 3.494155-.315523 1.668578 1.380659 3.103933 2.958834 2.943605 2.172045-.124019 3.918058-2.325263 3.627452-4.483502.0051-4.047714-.01025-8.096599.0077-12.143584.07364-.443712.648445-.470332.916293-.183432 1.996865 1.146625 3.791918 3.058782 3.950689 5.473109.08725.477576-.06587 1.657926-.0317 1.680433.699127-2.609536-.02161-5.604222-2.010452-7.462407-1.431031-1.524027-2.692779-3.512827-2.935848-5.559031-.116685-.03747-.235407-.07487-.361007-.05894z" fill="#f7f7f7" fill-opacity=".556561" stroke="#a2bac0" stroke-opacity=".996078" stroke-width=".723978"/><path d="m22.303771 8.2500008-4.5 4.5000002 4.5 4.5v-3c3.394904.03921 5.976599 1.860205 7.5 6 0-5.208618-1.864675-7.515419-7.5-9zm-4.5 19.5000002c0 5.208618 1.864675 7.515419 7.5 9v3l4.5-4.5-4.5-4.5v3c-3.394904-.03921-5.976599-1.860205-7.5-6z" fill="#fff"/></svg>