<?xml version="1.0" encoding="UTF-8" standalone="no"?>
<!DOCTYPE svg PUBLIC "-//W3C//DTD SVG 1.1//EN" "http://www.w3.org/Graphics/SVG/1.1/DTD/svg11.dtd">
<svg version="1.1" xmlns="http://www.w3.org/2000/svg" xmlns:xlink="http://www.w3.org/1999/xlink" preserveAspectRatio="xMidYMid meet" viewBox="0 0 640 640" width="64" height="64"><defs><path d="M34.04 35.73L603.71 35.73L603.71 594.16L34.04 594.16L34.04 35.73Z" id="c2BfIJ0Oxj"></path><path d="M420.44 462.04C485.87 386.79 485.8 276.57 420.29 215.87C354.77 155.16 248.62 166.95 183.19 242.2C182.34 241.42 175.56 235.13 174.72 234.35C244.82 153.72 358.55 141.09 428.75 206.14C498.95 271.18 499.02 389.26 428.91 469.89C427.22 468.32 421.29 462.82 420.44 462.04Z" id="c4D3Q27MQo"></path><path d="M403.49 446.33C459.58 381.83 459.52 287.37 403.36 235.33C347.21 183.3 256.22 193.4 200.14 257.9C199.29 257.12 192.51 250.84 191.66 250.05C252.42 180.18 350.99 169.23 411.83 225.6C472.66 281.97 472.72 384.31 411.97 454.19C410.27 452.62 404.34 447.12 403.49 446.33Z" id="bqmXf87b3"></path><path d="M386.55 430.63C433.29 376.88 433.24 298.16 386.44 254.8C339.64 211.43 263.82 219.86 217.08 273.61C216.23 272.82 209.46 266.54 208.61 265.75C260.02 206.63 343.43 197.37 394.9 245.07C446.38 292.76 446.43 379.36 395.02 438.48C393.33 436.91 387.4 431.42 386.55 430.63Z" id="a1SjKM0OD"></path><path d="M369.6 414.93C406.99 371.93 406.95 308.95 369.51 274.26C332.07 239.57 271.42 246.31 234.03 289.31C233.18 288.52 226.4 282.24 225.56 281.46C267.62 233.08 335.86 225.5 377.98 264.53C420.09 303.55 420.14 374.41 378.07 422.78C376.38 421.21 370.45 415.71 369.6 414.93Z" id="b7icjflkoP"></path><path d="M352.65 399.23C380.69 366.98 380.67 319.74 352.59 293.73C324.51 267.71 279.02 272.76 250.98 305.01C250.13 304.23 243.35 297.94 242.5 297.16C275.22 259.54 328.29 253.64 361.05 283.99C393.81 314.35 393.84 369.45 361.13 407.08C359.43 405.51 353.5 400.01 352.65 399.23Z" id="a4UWFUwC2"></path><path d="M335.71 383.52C354.4 362.03 354.38 330.53 335.66 313.19C316.95 295.85 286.61 299.22 267.92 320.71C267.07 319.93 260.3 313.65 259.45 312.86C282.82 285.99 320.73 281.78 344.13 303.46C367.53 325.14 367.55 364.5 344.18 391.38C342.49 389.81 336.56 384.31 335.71 383.52Z" id="asjhk4jZW"></path></defs><g><g><g><use xlink:href="#c2BfIJ0Oxj" opacity="1" fill="#9eb6da" fill-opacity="1"></use></g><g><use xlink:href="#c4D3Q27MQo" opacity="1" fill="#ffffff" fill-opacity="1"></use><g><use xlink:href="#c4D3Q27MQo" opacity="1" fill-opacity="0" stroke="#000000" stroke-width="1" stroke-opacity="0"></use></g></g><g><use xlink:href="#bqmXf87b3" opacity="1" fill="#ffffff" fill-opacity="1"></use><g><use xlink:href="#bqmXf87b3" opacity="1" fill-opacity="0" stroke="#000000" stroke-width="1" stroke-opacity="0"></use></g></g><g><use xlink:href="#a1SjKM0OD" opacity="1" fill="#ffffff" fill-opacity="1"></use><g><use xlink:href="#a1SjKM0OD" opacity="1" fill-opacity="0" stroke="#000000" stroke-width="1" stroke-opacity="0"></use></g></g><g><use xlink:href="#b7icjflkoP" opacity="1" fill="#ffffff" fill-opacity="1"></use><g><use xlink:href="#b7icjflkoP" opacity="1" fill-opacity="0" stroke="#000000" stroke-width="1" stroke-opacity="0"></use></g></g><g><use xlink:href="#a4UWFUwC2" opacity="1" fill="#fcfdff" fill-opacity="1"></use><g><use xlink:href="#a4UWFUwC2" opacity="1" fill-opacity="0" stroke="#000000" stroke-width="1" stroke-opacity="0"></use></g></g><g><use xlink:href="#asjhk4jZW" opacity="1" fill="#ffffff" fill-opacity="1"></use><g><use xlink:href="#asjhk4jZW" opacity="1" fill-opacity="0" stroke="#000000" stroke-width="1" stroke-opacity="0"></use></g></g></g></g></svg>