<svg height="48" width="48" xmlns="http://www.w3.org/2000/svg"><path d="m44.322082 27.405077a19.729762 19.729765 0 0 1 -19.729762 19.729765 19.729762 19.729765 0 0 1 -19.7297621-19.729765 19.729762 19.729765 0 0 1 19.7297621-19.7297632 19.729762 19.729765 0 0 1 19.729762 19.7297632z" fill="#8065ac" opacity=".99" transform="matrix(1.1503549 0 0 1.1503549 -4.486125 -7.525565)"/><path d="m29.333984 8.5175781-2.128906 3.2226559a9.2858 9.2858 0 0 0 -1.207031-.089843 9.2858 9.2858 0 0 0 -3.556641.710937l-2.884765-2.5566405.77539 3.7910155a9.2858 9.2858 0 0 0 -2.019531 2.164063 31.429 31.429 0 0 0 -10.8847656-1.966797 31.429 31.429 0 0 0 -2.1425782.107422v1.482421a30.714 30.714 0 0 1 2.8574219-.162109 30.714 30.714 0 0 1 30.1132809 24.912109 22.696228 22.696232 0 0 0 .097657-.105468 31.429 31.429 0 0 0 -5.353516-13.027344 9.2858 9.2858 0 0 0 1.552734-2.46875l3.892578-.232422-3.251953-2.148437a9.2858 9.2858 0 0 0 .091797-1.214844 9.2858 9.2858 0 0 0 -.695312-3.517578l2.568359-2.896485-3.794922.777344a9.2858 9.2858 0 0 0 -3.798828-2.929687zm-3.335937 4.5605469a7.8572 7.8572 0 0 1 7.859375 7.857422 7.8572 7.8572 0 0 1 -1.75 4.923828 31.429 31.429 0 0 0 -12.455078-9.537109 7.8572 7.8572 0 0 1 6.345703-3.244141z" fill="#fff"/></svg>