<?xml version="1.0" encoding="UTF-8" standalone="no"?>
<svg
   xmlns:dc="http://purl.org/dc/elements/1.1/"
   xmlns:cc="http://creativecommons.org/ns#"
   xmlns:rdf="http://www.w3.org/1999/02/22-rdf-syntax-ns#"
   xmlns:svg="http://www.w3.org/2000/svg"
   xmlns="http://www.w3.org/2000/svg"
   xmlns:sodipodi="http://sodipodi.sourceforge.net/DTD/sodipodi-0.dtd"
   xmlns:inkscape="http://www.inkscape.org/namespaces/inkscape"
   height="48"
   width="48"
   version="1.1"
   id="svg6"
   sodipodi:docname="station.svg"
   inkscape:version="0.92.4 5da689c313, 2019-01-14">
  <metadata
     id="metadata12">
    <rdf:RDF>
      <cc:Work
         rdf:about="">
        <dc:format>image/svg+xml</dc:format>
        <dc:type
           rdf:resource="http://purl.org/dc/dcmitype/StillImage" />
        <dc:title></dc:title>
      </cc:Work>
    </rdf:RDF>
  </metadata>
  <defs
     id="defs10" />
  <sodipodi:namedview
     pagecolor="#ffffff"
     bordercolor="#666666"
     borderopacity="1"
     objecttolerance="10"
     gridtolerance="10"
     guidetolerance="10"
     inkscape:pageopacity="0"
     inkscape:pageshadow="2"
     inkscape:window-width="1920"
     inkscape:window-height="1031"
     id="namedview8"
     showgrid="true"
     inkscape:zoom="5.6568544"
     inkscape:cx="9.3679575"
     inkscape:cy="22.879481"
     inkscape:window-x="0"
     inkscape:window-y="26"
     inkscape:window-maximized="1"
     inkscape:current-layer="svg6"
     showguides="true">
    <inkscape:grid
       type="xygrid"
       id="grid816" />
  </sodipodi:namedview>
  <rect
     style="opacity:1;fill:#80aad3;fill-opacity:1;stroke:none;stroke-width:6;stroke-linecap:round;stroke-linejoin:round;stroke-miterlimit:4;stroke-dasharray:none;stroke-dashoffset:0;stroke-opacity:1;paint-order:fill markers stroke"
     id="rect4164"
     width="40"
     height="43"
     x="4.0409989"
     y="2.9966362"
     ry="1.71676" />
  <path
     style="opacity:1;fill:#236484;fill-opacity:0.49809888;stroke:none;stroke-width:6;stroke-linecap:round;stroke-linejoin:round;stroke-miterlimit:4;stroke-dasharray:none;stroke-dashoffset:0;stroke-opacity:1;paint-order:fill markers stroke"
     d="m 44.040999,32.875 0,11.404876 c 0,0.951085 -0.765675,1.71676 -1.71676,1.71676 l -12.511739,0 z"
     id="rect4184"
     inkscape:connector-curvature="0"
     sodipodi:nodetypes="csscc" />
  <path
     style="color:#000000;font-style:normal;font-variant:normal;font-weight:normal;font-stretch:normal;font-size:medium;line-height:normal;font-family:sans-serif;font-variant-ligatures:normal;font-variant-position:normal;font-variant-caps:normal;font-variant-numeric:normal;font-variant-alternates:normal;font-feature-settings:normal;text-indent:0;text-align:start;text-decoration:none;text-decoration-line:none;text-decoration-style:solid;text-decoration-color:#000000;letter-spacing:normal;word-spacing:normal;text-transform:none;writing-mode:lr-tb;direction:ltr;text-orientation:mixed;dominant-baseline:auto;baseline-shift:baseline;text-anchor:start;white-space:normal;shape-padding:0;clip-rule:nonzero;display:inline;overflow:visible;visibility:visible;opacity:1;isolation:auto;mix-blend-mode:normal;color-interpolation:sRGB;color-interpolation-filters:linearRGB;solid-color:#000000;solid-opacity:1;vector-effect:none;fill:#ffffff;fill-opacity:0.99450546;fill-rule:nonzero;stroke:none;stroke-width:2;stroke-linecap:round;stroke-linejoin:round;stroke-miterlimit:4;stroke-dasharray:none;stroke-dashoffset:0;stroke-opacity:1;paint-order:fill markers stroke;color-rendering:auto;image-rendering:auto;shape-rendering:auto;text-rendering:auto;enable-background:accumulate"
     d="m 24.023411,14.994147 v 0.01 c -4.127945,0.01 -7.489086,3.3857 -7.482422,7.5137 0.0067,4.128 3.377904,7.4897 7.505859,7.4863 3.99447,0 7.209951,-3.1787 7.417969,-7.123 a 1.0001,1.0001 0 0 0 0.07617,-0.3772 1.0001,1.0001 0 0 0 0,-0.016 1.0001,1.0001 0 0 0 0,-0.014 c -7e-6,0 -0.0019,2e-4 -0.002,-0.01 a 1.0001,1.0001 0 0 0 -0.07422,-0.3671 c -0.218903,-3.9453 -3.445699,-7.1132 -7.441404,-7.1036 z m 0.0039,2.0059 c 3.047638,-0.01 5.503831,2.4347 5.513672,5.4824 a 1.0001,1.0001 0 0 0 0,0.01 1.0001,1.0001 0 0 0 0,0.01 c 0,3.0477 -2.448447,5.4976 -5.496094,5.5 -3.047646,0 -5.498986,-2.4427 -5.503906,-5.4903 -0.0049,-3.0476 2.43869,-5.5023 5.486328,-5.5097 z m -6.486328,15 v 2 h 13 v -2 z"
     id="path996"
     inkscape:connector-curvature="0" />
  <path
     style="opacity:1;fill:#ffffff;fill-opacity:0.86263734;stroke:none;stroke-width:6;stroke-linecap:round;stroke-linejoin:round;stroke-miterlimit:4;stroke-dasharray:none;stroke-dashoffset:0;stroke-opacity:1;paint-order:fill markers stroke"
     id="path821"
     sodipodi:type="arc"
     sodipodi:cx="7.7500114"
     sodipodi:cy="8.0072651"
     sodipodi:rx="2.2500005"
     sodipodi:ry="2.2500005"
     sodipodi:start="0"
     sodipodi:end="6.2799564"
     sodipodi:open="true"
     d="M 10.000012,8.0072651 A 2.2500005,2.2500005 0 0 1 7.7518277,10.257265 2.2500005,2.2500005 0 0 1 5.5000139,8.0108976 2.2500005,2.2500005 0 0 1 7.7445627,5.7572712 2.2500005,2.2500005 0 0 1 10,8.0000001" />
  <path
     d="m 10.000012,15.007265 a 2.2500005,2.2500005 0 0 1 -2.2481843,2.25 A 2.2500005,2.2500005 0 0 1 5.5000139,15.010898 2.2500005,2.2500005 0 0 1 7.7445627,12.757271 2.2500005,2.2500005 0 0 1 10,15"
     sodipodi:open="true"
     sodipodi:end="6.2799564"
     sodipodi:start="0"
     sodipodi:ry="2.2500005"
     sodipodi:rx="2.2500005"
     sodipodi:cy="15.007265"
     sodipodi:cx="7.7500114"
     sodipodi:type="arc"
     id="path823"
     style="opacity:1;fill:#ffffff;fill-opacity:0.86263734;stroke:none;stroke-width:6;stroke-linecap:round;stroke-linejoin:round;stroke-miterlimit:4;stroke-dasharray:none;stroke-dashoffset:0;stroke-opacity:1;paint-order:fill markers stroke" />
  <path
     style="opacity:1;fill:#ffffff;fill-opacity:0.86263734;stroke:none;stroke-width:6;stroke-linecap:round;stroke-linejoin:round;stroke-miterlimit:4;stroke-dasharray:none;stroke-dashoffset:0;stroke-opacity:1;paint-order:fill markers stroke"
     id="path825"
     sodipodi:type="arc"
     sodipodi:cx="7.7500114"
     sodipodi:cy="22.007265"
     sodipodi:rx="2.2500005"
     sodipodi:ry="2.2500005"
     sodipodi:start="0"
     sodipodi:end="6.2799564"
     sodipodi:open="true"
     d="m 10.000012,22.007265 a 2.2500005,2.2500005 0 0 1 -2.2481843,2.25 A 2.2500005,2.2500005 0 0 1 5.5000139,22.010898 2.2500005,2.2500005 0 0 1 7.7445627,19.757271 2.2500005,2.2500005 0 0 1 10,22" />
  <path
     style="fill:none;stroke:#ffffff;stroke-width:2;stroke-linecap:round;stroke-linejoin:miter;stroke-miterlimit:4;stroke-dasharray:none;stroke-opacity:0.21428572"
     d="m 12,9 h 7"
     id="path827"
     inkscape:connector-curvature="0"
     sodipodi:nodetypes="cc" />
  <path
     style="fill:none;stroke:#ffffff;stroke-width:2;stroke-linecap:round;stroke-linejoin:miter;stroke-opacity:0.21428572;stroke-miterlimit:4;stroke-dasharray:none"
     d="m 22,9 h 6"
     id="path829"
     inkscape:connector-curvature="0" />
  <path
     sodipodi:nodetypes="cc"
     inkscape:connector-curvature="0"
     id="path831"
     d="m 12,16 h 7"
     style="fill:none;stroke:#ffffff;stroke-width:2;stroke-linecap:round;stroke-linejoin:miter;stroke-miterlimit:4;stroke-dasharray:none;stroke-opacity:0.21428572" />
</svg>
