<svg height="48" width="48" xmlns="http://www.w3.org/2000/svg"><g fill="#e49b71" opacity=".99" transform="matrix(1.1503549 0 0 1.1503549 -4.486125 -7.525565)"><path d="m44.322082 27.405077a19.729762 19.729765 0 0 1 -19.729762 19.729765 19.729762 19.729765 0 0 1 -19.7297621-19.729765 19.729762 19.729765 0 0 1 19.7297621-19.7297632 19.729762 19.729765 0 0 1 19.729762 19.7297632z" fill="#e49b71"/><path d="m44.322082 27.405077a19.729762 19.729765 0 0 1 -19.729762 19.729765 19.729762 19.729765 0 0 1 -19.7297621-19.729765 19.729762 19.729765 0 0 1 19.7297621-19.7297632 19.729762 19.729765 0 0 1 19.729762 19.7297632z" fill="#e1937d"/></g><rect fill="#fff" height="7.5" ry="1.5" width="4.5" x="11.1" y="27"/><rect fill="#fff" height="7.5" ry="1.5" width="4.5" x="32.099998" y="27"/><circle cx="24.089287" cy="22.975" fill="#fff" r="5.253572"/><circle cx="24.089287" cy="17.6" fill="#fff" r="4.2"/><path d="m15 25.5 1.5-6h15l1.5 6" fill="none" stroke="#fff" stroke-linejoin="round"/><ellipse cx="24.038324" cy="23.538897" fill="#e1937d" rx="3.6" ry="4.218719"/><rect fill="#fff" height="9" ry="1.5" stroke="#e1937d" stroke-linejoin="round" stroke-width=".8" width="22.5" x="12.6" y="24"/><g fill="#e1937d"><circle cx="16.103554" cy="27.75" r="2.25"/><circle cx="31.356857" cy="27.75" r="2.25"/><path d="m19.775391 26.75a.25032212.25032212 0 0 0 .02539.5h8.09961a.250025.250025 0 1 0 0-.5h-8.09961a.250025.250025 0 0 0 -.02539 0z"/><path d="m19.775391 31.25a.25032212.25032212 0 0 0 .02539.5h8.09961a.250025.250025 0 1 0 0-.5h-8.09961a.250025.250025 0 0 0 -.02539 0z"/><path d="m19.775391 27.875a.25032212.25032212 0 0 0 .02539.5h8.09961a.250025.250025 0 1 0 0-.5h-8.09961a.250025.250025 0 0 0 -.02539 0z"/><path d="m19.775391 30.125a.25032212.25032212 0 0 0 .02539.5h8.09961a.250025.250025 0 1 0 0-.5h-8.09961a.250025.250025 0 0 0 -.02539 0z"/><path d="m19.775391 29a.25032212.25032212 0 0 0 .02539.5h8.09961a.250025.250025 0 1 0 0-.5h-8.09961a.250025.250025 0 0 0 -.02539 0z"/><path d="m22.8 17.4s.7-.9 1.2-.9 1.2.9 1.2.9l-1.2 1.5z"/><circle cx="21.9" cy="15.9" r=".9"/><circle cx="26.268909" cy="15.9" r=".9"/></g></svg>