<?xml version="1.0" encoding="UTF-8" standalone="no"?>
<svg
   xmlns:dc="http://purl.org/dc/elements/1.1/"
   xmlns:cc="http://creativecommons.org/ns#"
   xmlns:rdf="http://www.w3.org/1999/02/22-rdf-syntax-ns#"
   xmlns:svg="http://www.w3.org/2000/svg"
   xmlns="http://www.w3.org/2000/svg"
   xmlns:sodipodi="http://sodipodi.sourceforge.net/DTD/sodipodi-0.dtd"
   xmlns:inkscape="http://www.inkscape.org/namespaces/inkscape"
   height="48"
   width="48"
   version="1.1"
   id="svg10"
   sodipodi:docname="sweethome3d.svg"
   inkscape:version="1.0.1 (3bc2e813f5, 2020-09-07)">
  <metadata
     id="metadata16">
    <rdf:RDF>
      <cc:Work
         rdf:about="">
        <dc:format>image/svg+xml</dc:format>
        <dc:type
           rdf:resource="http://purl.org/dc/dcmitype/StillImage" />
        <dc:title></dc:title>
      </cc:Work>
    </rdf:RDF>
  </metadata>
  <defs
     id="defs14">
    <clipPath
       id="_clip1">
      <path
         d="m 380.303,84.472 c 0,-33.633 -27.306,-60.939 -60.939,-60.939 H 86.313 c -33.633,0 -60.939,27.306 -60.939,60.939 v 233.051 c 0,33.633 27.306,60.939 60.939,60.939 h 233.051 c 33.633,0 60.939,-27.306 60.939,-60.939 z"
         id="path5" />
    </clipPath>
    <clipPath
       id="_clip2">
      <path
         d="m 362.691,209.643 h 9.844 v 36.359 H 65.488 v 33.244 H 33.142 V 176.398 h 32.346 v 33.245 H 226.136 V 68.456 h 36.772 z M 258.482,114.224 v 95.419 h 67.436 z"
         id="path44" />
    </clipPath>
    <clipPath
       id="_clip3">
      <path
         d="m 222.648,71.647 v 137.967 h 20.733 V 71.647 Z"
         id="path47" />
    </clipPath>
    <clipPath
       id="_clip4">
      <path
         d="m 246.665,71.675 99.352,137.968 H 366.75 L 267.398,71.675 Z"
         id="path54" />
    </clipPath>
    <clipPath
       id="_clip5">
      <path
         d="m 86.76,328.6 c -0.209,0.14 -0.307,0.397 -0.242,0.64 0.065,0.244 0.279,0.418 0.53,0.434 5.977,0.37 25.279,1.568 25.279,1.568 l -4.458,-16.639 c 0,0 -16.118,10.688 -21.109,13.997 z"
         id="path73" />
    </clipPath>
  </defs>
  <sodipodi:namedview
     pagecolor="#ffffff"
     bordercolor="#666666"
     borderopacity="1"
     objecttolerance="10"
     gridtolerance="10"
     guidetolerance="10"
     inkscape:pageopacity="0"
     inkscape:pageshadow="2"
     inkscape:window-width="1920"
     inkscape:window-height="1031"
     id="namedview12"
     showgrid="false"
     inkscape:zoom="8.0208333"
     inkscape:cx="0.09764283"
     inkscape:cy="44.267139"
     inkscape:window-x="0"
     inkscape:window-y="24"
     inkscape:window-maximized="1"
     inkscape:current-layer="svg10" />
  <rect
     fill="#7b8b7b"
     height="43"
     ry="1.452703"
     width="43"
     x="2"
     y="3"
     id="rect2"
     style="fill:#a6b1a6;fill-opacity:1" />
  <g
     clip-path="url(#_clip1)"
     id="g38"
     style="clip-rule:evenodd;fill-rule:evenodd;stroke-miterlimit:2.29"
     transform="matrix(0.11675584,0,0,0.11675584,-0.39931233,0.5689127)">
    <g
       id="g36">
      <path
         d="M 205.008,56.88 V 345.817"
         style="fill:none;stroke:#ececec;stroke-width:1.09px"
         id="path8" />
      <path
         d="M 348.95,200.822 H 60.014"
         style="fill:none;stroke:#ececec;stroke-width:1.09px"
         id="path10" />
      <path
         d="M 90.568,56.88 V 345.817"
         style="fill:none;stroke:#ececec;stroke-width:1.09px"
         id="path12" />
      <path
         d="M 348.95,86.381 H 60.014"
         style="fill:none;stroke:#ececec;stroke-width:1.09px"
         id="path14" />
      <path
         d="M 243.155,56.529 V 345.466"
         style="fill:none;stroke:#ececec;stroke-width:1.09px"
         id="path16" />
      <path
         d="M 349.301,238.969 H 60.365"
         style="fill:none;stroke:#ececec;stroke-width:1.09px"
         id="path18" />
      <path
         d="M 128.715,56.529 V 345.466"
         style="fill:none;stroke:#ececec;stroke-width:1.09px"
         id="path20" />
      <path
         d="M 349.301,124.528 H 60.365"
         style="fill:none;stroke:#ececec;stroke-width:1.09px"
         id="path22" />
      <path
         d="M 281.302,56.178 V 345.115"
         style="fill:none;stroke:#ececec;stroke-width:1.09px"
         id="path24" />
      <path
         d="M 349.652,277.116 H 60.716"
         style="fill:none;stroke:#ececec;stroke-width:1.09px"
         id="path26" />
      <path
         d="M 166.862,56.178 V 345.115"
         style="fill:none;stroke:#ececec;stroke-width:1.09px"
         id="path28" />
      <path
         d="M 349.652,162.675 H 60.716"
         style="fill:none;stroke:#ececec;stroke-width:1.09px"
         id="path30" />
      <path
         d="M 319.449,55.827 V 344.763"
         style="fill:none;stroke:#ececec;stroke-width:1.09px"
         id="path32" />
      <path
         d="M 350.003,315.263 H 61.067"
         style="fill:none;stroke:#ececec;stroke-width:1.09px"
         id="path34" />
    </g>
  </g>
  <path
     d="m 41.946984,25.045957 h 1.149341 v 4.245129 H 7.2467952 v 3.881431 H 3.4702113 V 21.164411 h 3.7765839 v 3.881546 H 26.003388 V 8.5615507 h 4.293349 z M 29.779972,13.905231 v 11.140726 h 7.873548 z"
     style="clip-rule:evenodd;fill:#d5d5d5;fill-rule:evenodd;stroke-width:0.116756;stroke-miterlimit:2.29"
     id="path42" />
  <g
     clip-path="url(#_clip2)"
     id="g63"
     style="clip-rule:evenodd;fill-rule:evenodd;stroke-miterlimit:2.29"
     transform="matrix(0.11675584,0,0,0.11675584,-0.39931233,0.5689127)">
    <clipPath
       id="clipPath971">
      <path
         d="m 222.648,71.647 v 137.967 h 20.733 V 71.647 Z"
         id="path969" />
    </clipPath>
    <g
       clip-path="url(#_clip3)"
       id="g52">
      <path
         d="m 242.855,-30.609 v -3.385 h -20.207 v 3.385 z m 0,49.242 v -3.385 h -20.207 v 3.385 z m 0,8.207 v -3.384 h -20.207 v 3.384 z m 0,8.207 v -3.384 h -20.207 v 3.384 z m 0,8.207 V 39.87 h -20.207 v 3.384 z m 0,8.207 v -3.384 h -20.207 v 3.384 z m 0,-49.242 v -3.385 h -20.207 v 3.385 z m 0,8.207 V 7.041 h -20.207 v 3.385 z m 0,49.242 v -3.384 h -20.207 v 3.384 z m 0,8.207 v -3.384 h -20.207 v 3.384 z m 0,8.207 v -3.384 h -20.207 v 3.384 z m 0,16.414 v -3.384 h -20.207 v 3.384 z m 0,73.864 v -3.384 h -20.207 v 3.384 z m 0,65.657 v -3.385 h -20.207 v 3.385 z m 0,-131.314 v -3.384 h -20.207 v 3.384 z m 0,-16.414 v -3.384 h -20.207 v 3.384 z m 0,114.9 v -3.385 h -20.207 v 3.385 z m 0,41.035 v -3.384 h -20.207 v 3.384 z m 0,8.207 v -3.384 h -20.207 v 3.384 z m 0,8.207 v -3.384 h -20.207 v 3.384 z m 0,8.207 v -3.384 h -20.207 v 3.384 z m 0,8.207 v -3.384 h -20.207 v 3.384 z m 0,-57.449 v -3.385 h -20.207 v 3.385 z m 0,8.207 v -3.385 h -20.207 v 3.385 z m 0,-238.005 v -3.385 h -20.207 v 3.385 z m 0,-8.207 v -3.385 h -20.207 v 3.385 z m 0,196.969 v -3.384 h -20.207 v 3.384 z m 0,-16.414 v -3.384 h -20.207 v 3.384 z m 0,-8.206 v -3.385 h -20.207 v 3.385 z m 0,-8.208 v -3.384 h -20.207 v 3.384 z m 0,-8.207 v -3.384 h -20.207 v 3.384 z m 0,-16.414 v -3.385 h -20.207 v 3.385 z m 0,-8.207 v -3.385 h -20.207 v 3.385 z m 0,73.863 v -3.384 h -20.207 v 3.384 z m 0,8.208 v -3.385 h -20.207 v 3.385 z m 0,16.414 v -3.385 h -20.207 v 3.385 z m 0,-213.384 v -3.385 h -20.207 v 3.385 z m 0,131.313 v -3.384 h -20.207 v 3.384 z"
         style="fill:#c7c7c7"
         id="path50" />
    </g>
    <clipPath
       id="clipPath977">
      <path
         d="m 246.665,71.675 99.352,137.968 H 366.75 L 267.398,71.675 Z"
         id="path975" />
    </clipPath>
    <g
       clip-path="url(#_clip4)"
       id="g59">
      <path
         d="m 193.236,-30.581 -2.437,-3.384 h -20.207 l 2.437,3.384 z m 35.46,49.242 -2.437,-3.384 h -20.207 l 2.437,3.384 z m 5.91,8.207 -2.437,-3.384 h -20.207 l 2.437,3.384 z m 5.91,8.207 -2.437,-3.384 h -20.207 l 2.437,3.384 z m 5.91,8.208 -2.437,-3.385 h -20.207 l 2.437,3.385 z m 5.91,8.207 -2.437,-3.385 h -20.207 l 2.437,3.385 z m -35.46,-49.243 -2.437,-3.384 h -20.207 l 2.437,3.384 z m 5.91,8.207 -2.437,-3.384 h -20.207 l 2.437,3.384 z m 35.46,49.243 -2.437,-3.385 h -20.207 l 2.437,3.385 z m 5.91,8.207 -2.437,-3.385 h -20.207 l 2.437,3.385 z m 5.91,8.207 -2.437,-3.385 h -20.207 l 2.437,3.385 z m 11.82,16.414 -2.437,-3.385 h -20.207 l 2.437,3.385 z m 53.19,73.864 -2.437,-3.385 h -20.207 l 2.437,3.385 z m 47.28,65.656 -2.437,-3.384 h -20.207 l 2.437,3.384 z m -94.56,-131.313 -2.437,-3.385 h -20.207 l 2.437,3.385 z m -11.82,-16.415 -2.437,-3.384 h -20.207 l 2.437,3.384 z m 82.74,114.9 -2.437,-3.385 h -20.207 l 2.437,3.385 z m 29.55,41.035 -2.437,-3.384 h -20.207 l 2.437,3.384 z m 5.91,8.207 -2.437,-3.384 h -20.207 l 2.437,3.384 z m 5.91,8.208 -2.437,-3.385 h -20.207 l 2.437,3.385 z m 5.91,8.206 -2.437,-3.384 h -20.207 l 2.437,3.384 z m 5.91,8.208 -2.437,-3.385 h -20.207 l 2.437,3.385 z m -41.37,-57.45 -2.437,-3.385 h -20.207 l 2.437,3.385 z m 5.91,8.207 -2.437,-3.384 h -20.207 l 2.437,3.384 z m -171.39,-238.005 -2.437,-3.384 h -20.207 l 2.437,3.384 z m -5.91,-8.207 -2.437,-3.384 h -20.207 l 2.437,3.384 z m 141.84,196.97 -2.437,-3.385 h -20.207 l 2.437,3.385 z m -11.82,-16.414 -2.437,-3.385 h -20.207 l 2.437,3.385 z m -5.91,-8.207 -2.437,-3.385 h -20.207 l 2.438,3.385 z m -5.91,-8.207 -2.437,-3.385 h -20.207 l 2.437,3.385 z m -5.91,-8.207 -2.437,-3.385 h -20.207 l 2.437,3.385 z m -11.82,-16.415 -2.437,-3.384 h -20.207 l 2.437,3.384 z m -5.91,-8.207 -2.437,-3.385 h -20.207 l 2.437,3.385 z m 53.19,73.864 -2.437,-3.385 h -20.207 l 2.437,3.385 z m 5.91,8.207 -2.437,-3.385 h -20.207 l 2.437,3.385 z m 11.82,16.414 -2.437,-3.385 h -20.207 l 2.437,3.385 z M 210.966,-5.96 208.529,-9.344 h -20.207 l 2.437,3.384 z m 94.56,131.313 -2.437,-3.384 h -20.207 l 2.437,3.384 z"
         style="fill:#c7c7c7"
         id="path57" />
    </g>
    <path
       d="m 369.15,229.849 h 3.385 v -20.206 h -3.385 z m -49.242,0 h 3.384 v -20.206 h -3.384 z m -8.207,0 h 3.384 v -20.206 h -3.384 z m -8.207,0 h 3.384 v -20.206 h -3.384 z m -8.207,0 h 3.384 v -20.206 h -3.384 z m -8.208,0 h 3.385 v -20.206 h -3.385 z m 49.243,0 h 3.384 v -20.206 h -3.384 z m -8.207,0 h 3.384 v -20.206 h -3.384 z m -49.243,0 h 3.385 v -20.206 h -3.385 z m -8.206,0 h 3.384 v -20.206 h -3.384 z m -8.207,0 h 3.384 v -20.206 h -3.384 z m -16.415,0 h 3.385 v -20.206 h -3.385 z m -73.864,0 h 3.385 v -20.206 h -3.385 z m -65.656,0 h 3.385 v -20.206 h -3.385 z m 131.313,0 h 3.385 v -20.206 h -3.385 z m 16.415,0 h 3.384 v -20.206 h -3.384 z m -114.9,0 h 3.385 v -20.206 h -3.385 z m -41.035,0 h 3.384 v -20.206 h -3.384 z m -8.207,0 h 3.384 V 209.643 H 90.11 Z m -8.207,0 h 3.384 v -20.206 h -3.384 z m -8.207,0 h 3.384 v -20.206 h -3.384 z m -8.208,0 h 3.385 v -20.206 h -3.385 z m 57.45,0 h 3.385 v -20.206 h -3.385 z m -8.207,0 h 3.384 v -20.206 h -3.384 z m 238.005,0 h 3.384 v -20.206 h -3.384 z m 8.207,0 h 3.384 v -20.206 h -3.384 z m -196.97,0 h 3.385 v -20.206 h -3.385 z m 16.414,0 h 3.385 v -20.206 h -3.385 z m 8.207,0 h 3.385 v -20.206 h -3.385 z m 8.207,0 h 3.385 v -20.206 h -3.385 z m 8.207,0 h 3.385 v -20.206 h -3.385 z m 16.415,0 h 3.384 v -20.206 h -3.384 z m 8.207,0 h 3.385 v -20.206 h -3.385 z m -73.864,0 h 3.385 v -20.206 h -3.385 z m -8.207,0 h 3.385 v -20.206 h -3.385 z m -16.414,0 h 3.385 v -20.206 h -3.385 z m 213.384,0 h 3.384 v -20.206 h -3.384 z m -131.313,0 h 3.384 v -20.206 h -3.384 z"
       style="fill:#c7c7c7"
       id="path61" />
  </g>
  <g
     id="pencil"
     style="clip-rule:evenodd;fill-rule:evenodd;stroke-miterlimit:2.29"
     transform="matrix(0.11675584,0,0,0.11675584,-0.39931233,0.5689127)">
    <g
       id="g80">
      <g
         id="g69">
        <path
           d="m 314.807,276.988 -4.458,-16.64 -202.48,54.255 4.458,16.639 z"
           style="fill:#ffc27b"
           id="path65" />
        <path
           d="m 313.455,271.942 -1.339,-4.998 -202.48,54.254 1.339,4.999 z"
           style="fill:#ffcd93"
           id="path67" />
      </g>
      <path
         d="m 86.76,328.6 c -0.209,0.14 -0.307,0.397 -0.242,0.64 0.065,0.244 0.279,0.418 0.53,0.434 5.977,0.37 25.279,1.568 25.279,1.568 l -4.458,-16.639 c 0,0 -16.118,10.688 -21.109,13.997 z"
         style="fill:#ffdeb7"
         id="path71" />
      <clipPath
         id="clipPath989">
        <path
           d="m 86.76,328.6 c -0.209,0.14 -0.307,0.397 -0.242,0.64 0.065,0.244 0.279,0.418 0.53,0.434 5.977,0.37 25.279,1.568 25.279,1.568 l -4.458,-16.639 c 0,0 -16.118,10.688 -21.109,13.997 z"
           id="path987" />
      </clipPath>
      <g
         clip-path="url(#_clip5)"
         id="g78">
        <path
           d="m 85.557,328.913 c -0.227,0.134 -0.337,0.403 -0.268,0.657 0.068,0.254 0.297,0.432 0.56,0.434 2.851,0.025 7.574,0.065 7.574,0.065 l -1.34,-4.998 c 0,0 -4.07,2.396 -6.526,3.842 z"
           style="fill:#626262"
           id="path76" />
      </g>
    </g>
    <g
       id="g100">
      <g
         id="g92">
        <path
           d="m 317.439,276.282 -4.458,-16.639 -14.717,3.943 4.458,16.64 z"
           style="fill:#dedede"
           id="path82" />
        <g
           id="g90">
          <path
             d="m 310.259,276.806 -3.758,-14.027 -1.057,0.284 3.758,14.026 z"
             style="fill:#c3c3c3"
             id="path84" />
          <path
             d="m 306.721,277.754 -3.758,-14.027 -1.057,0.284 3.758,14.026 z"
             style="fill:#c3c3c3"
             id="path86" />
          <path
             d="m 313.798,275.858 -3.759,-14.027 -1.057,0.283 3.759,14.027 z"
             style="fill:#c3c3c3"
             id="path88" />
        </g>
      </g>
      <g
         id="g98">
        <path
           d="m 328.261,273.383 c 1.458,-0.391 2.324,-1.89 1.933,-3.349 -0.833,-3.111 -2.21,-8.247 -3.043,-11.357 -0.391,-1.459 -1.89,-2.324 -3.349,-1.934 -3.92,1.051 -10.821,2.9 -10.821,2.9 l 4.458,16.639 c 0,0 6.901,-1.849 10.822,-2.899 z"
           style="fill:#ff8677"
           id="path94" />
        <path
           d="m 328.707,271.627 c 0.271,-0.073 0.502,-0.25 0.642,-0.492 0.14,-0.243 0.178,-0.531 0.105,-0.802 -0.675,-2.521 -2.418,-9.024 -3.093,-11.545 -0.073,-0.271 -0.25,-0.502 -0.492,-0.642 -0.243,-0.14 -0.531,-0.178 -0.802,-0.105 -0.001,0 -0.002,0 -0.002,0 l 3.641,13.586 c 0,0 0,0 10e-4,0 z"
           style="fill:#ff9c95"
           id="path96" />
      </g>
    </g>
  </g>
</svg>
