<?xml version="1.0" encoding="UTF-8" standalone="no"?>
<svg
   xmlns:dc="http://purl.org/dc/elements/1.1/"
   xmlns:cc="http://creativecommons.org/ns#"
   xmlns:rdf="http://www.w3.org/1999/02/22-rdf-syntax-ns#"
   xmlns:svg="http://www.w3.org/2000/svg"
   xmlns="http://www.w3.org/2000/svg"
   xmlns:sodipodi="http://sodipodi.sourceforge.net/DTD/sodipodi-0.dtd"
   xmlns:inkscape="http://www.inkscape.org/namespaces/inkscape"
   height="48"
   width="48"
   version="1.1"
   id="svg6"
   sodipodi:docname="synapse.svg"
   inkscape:version="1.0.2 (e86c870879, 2021-01-15)">
  <metadata
     id="metadata12">
    <rdf:RDF>
      <cc:Work
         rdf:about="">
        <dc:format>image/svg+xml</dc:format>
        <dc:type
           rdf:resource="http://purl.org/dc/dcmitype/StillImage" />
        <dc:title></dc:title>
      </cc:Work>
    </rdf:RDF>
  </metadata>
  <defs
     id="defs10" />
  <sodipodi:namedview
     pagecolor="#ffffff"
     bordercolor="#666666"
     borderopacity="1"
     objecttolerance="10"
     gridtolerance="10"
     guidetolerance="10"
     inkscape:pageopacity="0"
     inkscape:pageshadow="2"
     inkscape:window-width="1920"
     inkscape:window-height="1031"
     id="namedview8"
     showgrid="false"
     inkscape:zoom="13.376103"
     inkscape:cx="8.2943403"
     inkscape:cy="17.2874"
     inkscape:window-x="0"
     inkscape:window-y="24"
     inkscape:window-maximized="1"
     inkscape:current-layer="svg6"
     inkscape:document-rotation="0" />
  <circle
     cx="23.940615"
     cy="31.534513"
     fill="#74a2f3"
     opacity=".99"
     id="circle2"
     style="fill:#f1bfa1;fill-opacity:1"
     transform="matrix(1.75830584759 0 0 1.75830608345 -18.15909274367 -30.97874795549)"
     r="13.232998" />
  <path
     style="opacity:1;fill:#ffffff;fill-opacity:0.47970784"
     d="M 24.010906,3.2912698 A 21,21 0 0 0 3.0109059,24.291272 a 21,21 0 0 0 0.243163,3 h 1.406251 4.669923 29.3759771 a 15.000001,15.000001 0 0 1 -14.695314,12 15.000001,15.000001 0 0 1 -11.982422,-6 H 5.0646179 a 21,21 0 0 0 18.9462881,12 21,21 0 0 0 21.000002,-21 21,21 0 0 0 -0.243164,-3 H 42.160322 38.69157 9.3155939 A 15.000001,15.000001 0 0 1 24.010906,9.2912708 15.000001,15.000001 0 0 1 35.99333,15.29127 h 6.963866 A 21,21 0 0 0 24.010906,3.2912698 Z"
     id="path6" />
  <rect
     style="fill:#ffffff"
     width="8"
     height="14"
     x="20.010906"
     y="13.291271"
     id="rect10" />
  <path
     style="fill:#ffffff;stroke-width:1.21061"
     d="m 15.010906,24.291272 h 18 l -9,11 z"
     id="path12" />
</svg>
