<svg height="48" width="48" xmlns="http://www.w3.org/2000/svg"><path d="m44.322082 27.405077a19.729762 19.729765 0 0 1 -19.729762 19.729765 19.729762 19.729765 0 0 1 -19.7297621-19.729765 19.729762 19.729765 0 0 1 19.7297621-19.7297632 19.729762 19.729765 0 0 1 19.729762 19.7297632z" fill="#e2604d" opacity=".99" transform="matrix(1.1503549 0 0 1.1503549 -4.486125 -7.525565)"/><g fill="#fff"><rect height="18" ry="1.5" width="15" x="16.5" y="16.5"/><path d="m19.5 12h9v3h-9z"/><path d="m21 35.400002h6v2.100002h-6z"/><path d="m25.5 13.5 3-4.5" stroke="#fff" stroke-width="2"/><path d="m22.5 13.5-3-4.5" stroke="#fff" stroke-width="2"/><path d="m12 21h24" stroke="#fff" stroke-width="2"/><path d="m12 25.5h24" stroke="#fff" stroke-width="2"/><path d="m12 30h24" stroke="#fff" stroke-width="2"/></g><path d="m21 21h6v9h-6z" fill="#e2604d"/></svg>