<svg height="48" width="48" xmlns="http://www.w3.org/2000/svg"><path d="m44.322082 27.405077a19.729762 19.729765 0 0 1 -19.729762 19.729765 19.729762 19.729765 0 0 1 -19.7297621-19.729765 19.729762 19.729765 0 0 1 19.7297621-19.7297632 19.729762 19.729765 0 0 1 19.729762 19.7297632z" fill="#909676" opacity=".99" transform="matrix(1.1503549 0 0 1.1503549 -4.486125 -7.525565)"/><circle cx="23.803772" cy="24" fill="#fbfbfb" fill-opacity=".432624" r=".3"/><g fill="#fff"><path d="m15.458984 11.617188c-.804796 0-1.453125.648329-1.453125 1.453125v2.09375c0 .804796.648329 1.453125 1.453125 1.453125h17.09375c.804796 0 1.453125-.648329 1.453125-1.453125v-2.09375c0-.804796-.648329-1.453125-1.453125-1.453125zm1.041016 2.382812a1 1 0 0 1 1 1 1 1 0 0 1 -1 1 1 1 0 0 1 -1-1 1 1 0 0 1 1-1zm-1.041016 4.617188c-.804796 0-1.453125.648329-1.453125 1.453125v2.09375c0 .804796.648329 1.453125 1.453125 1.453125h17.09375c.804796 0 1.453125-.648329 1.453125-1.453125v-2.09375c0-.804796-.648329-1.453125-1.453125-1.453125zm1.041016 2.382812a1 1 0 0 1 1 1 1 1 0 0 1 -1 1 1 1 0 0 1 -1-1 1 1 0 0 1 1-1zm-1.041016 4.617188c-.804796 0-1.453125.648329-1.453125 1.453125v2.09375c0 .804796.648329 1.453125 1.453125 1.453125h17.09375c.804796 0 1.453125-.648329 1.453125-1.453125v-2.09375c0-.804796-.648329-1.453125-1.453125-1.453125zm1.041016 2.382812a1 1 0 0 1 1 1 1 1 0 0 1 -1 1 1 1 0 0 1 -1-1 1 1 0 0 1 1-1z"/><path d="m22.755859 31.617188v2h-2.75v1.5h-6v1h6v.5h8v-.5h6v-1h-6v-1.5h-2.75v-2z"/></g></svg>