<svg height="48" width="48" xmlns="http://www.w3.org/2000/svg"><path d="m44.322082 27.405077a19.729762 19.729765 0 0 1 -19.729762 19.729765 19.729762 19.729765 0 0 1 -19.7297621-19.729765 19.729762 19.729765 0 0 1 19.7297621-19.7297632 19.729762 19.729765 0 0 1 19.729762 19.7297632z" fill="#668ecc" opacity=".99" transform="matrix(1.1503549 0 0 1.1503549 -4.486125 -7.525565)"/><path d="m23.803771 7.5000007a16.5 16.5 0 0 0 -16.4999997 16.5000003 16.5 16.5 0 0 0 16.4999997 16.5 16.5 16.5 0 0 0 16.5-16.5 16.5 16.5 0 0 0 -16.5-16.5000003zm-4.671875 11.1425783v2.892578h9v-2.892578l9 5.197266-9 5.195312v-3h-9v3l-9-5.195312z" fill="#fff"/></svg>