<svg height="48" width="48" xmlns="http://www.w3.org/2000/svg"><rect fill="#93ac93" height="42.5" ry="2.5" width="32.5" x="7.5" y="3"/><g fill="none"><path d="m35 10.5-2.5 2.5"/><path d="m10 35.5h7" stroke="#fff" stroke-linecap="round" stroke-opacity=".408759" stroke-width="1.3"/><path d="m19 35.5h2.5" stroke="#fff" stroke-linecap="round" stroke-opacity=".408759" stroke-width="1.3"/><path d="m23.5 35.5h8" stroke="#fff" stroke-linecap="round" stroke-opacity=".408759" stroke-width="1.3"/><path d="m33.5 35.5h2" stroke="#fff" stroke-linecap="round" stroke-opacity=".408759" stroke-width="1.3"/><path d="m10 38h9" stroke="#fff" stroke-linecap="round" stroke-opacity=".408759" stroke-width="1.3"/><path d="m21 38h2.5" stroke="#fff" stroke-linecap="round" stroke-opacity=".408759" stroke-width="1.3"/><path d="m25.5 38h6.5" stroke="#fff" stroke-linecap="round" stroke-opacity=".408759" stroke-width="1.3"/><path d="m10 40.5h7" stroke="#fff" stroke-linecap="round" stroke-opacity=".408759" stroke-width="1.3"/><path d="m19 40.5h8.5" stroke="#fff" stroke-linecap="round" stroke-opacity=".408759" stroke-width="1.3"/><path d="m29 40.5h4.5" stroke="#fff" stroke-linecap="round" stroke-opacity=".408759" stroke-width="1.3"/><path d="m10 43h2.5" stroke="#fff" stroke-linecap="round" stroke-opacity=".408759" stroke-width="1.3"/><path d="m14 43h9" stroke="#fff" stroke-linecap="round" stroke-opacity=".408759" stroke-width="1.3"/></g><path d="m15.575164 32.601593c-1.041027-.169822-1.883647-.860052-2.217003-1.816051-.205338-.588864-.223014-1.125462-.0538-1.633261.149478-.448581.380144-.822922 1.180742-1.916188.824881-1.126425 1.189797-1.672489 1.632271-2.442546 1.579223-2.748376 2.481679-6.197201 2.739482-10.469222.02751-.455893.08043-1.883463.07018-1.893165-.003-.0029-.16183-.01995-.352805-.0379-.449367-.04222-1.498976-.0427-1.877608-.000884-1.459389.161236-2.505844.672705-3.283657 1.604928-.250262.299942-.430953.572465-.779583 1.175789-.265419.45932-.487265.804214-.534714.83129-.02002.01143-.880304-.0506-.893507-.06443-.0043-.0045.08767-.245378.204301-.535378.116622-.290001.394905-1.013394.618408-1.607541.709611-1.886417.95216-2.411259 1.392045-3.01219.624655-.853349 1.551948-1.3620296 3.019501-1.656391 1.719202-.3448348 4.161841-.4625769 9.58094-.4618297 2.565737.083219 5.164817-.018854 7.743579.00152 2.123217.1496218 2.225389 1.3098137 2.236824 2.9089697-.0674 1.510915-1.596551.912379-2.957175.904364l-2.963788-.01748c-.008 3.910224-.696792 7.851712-.771467 10.978281-.02589 1.504105.07543 2.47174.343276 3.279383.353605 1.066097.995691 1.685218 1.937274 1.867977.793222.153969 1.690286-.01867 2.276274-.438054.302854-.216755.636435-.616802.817013-.979811.169947-.341641.307898-.854506.354391-1.317503.01669-.166594.03464-.317634.03982-.335646.0071-.02528.113616-.03115.466497-.02572l.457125.007096-.0071.270066c-.0308 1.141922-.422576 2.598337-1.010947 3.757888-.769414 1.516364-1.894656 2.532118-3.212823 2.900211-.928647.259316-2.168942.224224-3.101429-.08775-1.566493-.524104-2.613577-1.778359-2.967057-3.554084-.142094-.713828-.160502-1.273274-.09162-2.784767.128703-5.449241 1.021848-7.833825 1.118859-13.545572v-.06065h-2.725268-2.72522l-.0133.08359c-.495858 4.665187-.662015 9.594731-1.379889 14.21709-.524755 3.332601-1.264819 4.946947-2.57015 5.606415-.503334.25429-1.238566.380815-1.738749.299221z" fill="#fff" stroke-width=".11051"/></svg>