<svg height="48" width="48" xmlns="http://www.w3.org/2000/svg"><circle cx="23.940615" cy="31.534513" fill="#d47369" opacity=".99" r="13.232998" transform="matrix(1.75830584759 0 0 1.75830608345 -18.15909274367 -30.97874795549)"/><path d="m10.736166 18.547506 10.842975 19.156926s.586892 1.025505 2.06449 1.025505c1.476561 0 2.064489-1.025505 2.064489-1.025505s7.536268-11.542891 10.610707-17.700067c.309-.617998.641848-1.243255.781831-1.921395.0954-.460389.14102-.953958.03111-1.411236-.133763-.557858-.391955-1.128158-.812941-1.517-.48631-.448982-1.16134-.724801-1.818741-.793237-.707173-.07466-1.461007.0954-2.09456.42617-.444834.234343-.839898.608668-1.088756 1.047281-.246785.434465-.310036.961216-.338032 1.459969-.01866.343219.04873.688509.119244 1.024469.02385.115097.06325.227083.102654.336995.10058.281004.237453.54749.340107.827455.08503.230195.203234.456241.230194.700952.04355.394026.03318.815012-.111987 1.183115-.70821 1.791782-1.925542 3.515127-3.534828 4.567592-.666733.435503-1.520111.544378-2.315421.578596-.907298.03837-1.952503-.03318-2.688711-.433429-.736206-.400247-1.082535-1.094978-1.54396-1.707792-2.117371-2.810028-5.578579-8.96513-5.578579-8.96513s-1.504557-2.659676-4.211931-1.04728c-2.7063377 1.613433-1.052465 4.189119-1.052465 4.189119z" fill="#f9f9f9" fill-rule="evenodd"/></svg>