<svg height="48" width="48" xmlns="http://www.w3.org/2000/svg"><path d="m44.322082 27.405077a19.729762 19.729765 0 0 1 -19.729762 19.729765 19.729762 19.729765 0 0 1 -19.7297621-19.729765 19.729762 19.729765 0 0 1 19.7297621-19.7297632 19.729762 19.729765 0 0 1 19.729762 19.7297632z" fill="#d08795" opacity=".99" transform="matrix(1.1503549 0 0 1.1503549 -4.486125 -7.525565)"/><path d="m21.6 17.4v15h1.5v-15zm3 0v15h1.5v-15zm-6 1.5v12h1.5v-12zm9 0v12h1.5v-12zm-12 1.5v9h1.5v-9zm15 0v9h1.5v-9zm-18 1.5v6h1.5v-6zm21 0v6h1.5v-6zm-24 1.5v3h1.5v-3zm27 0v3h1.5v-3z" fill="#fff" fill-opacity=".506787"/><rect fill="#fff" fill-opacity=".654545" height="24" ry="6" width="12" x="18" y="9"/><path d="m16.5 27c0 10.5 15 10.5 15 0" fill="none" stroke="#fff" stroke-width="2"/><g fill="#fff"><path d="m23 34.5v4.5h2v-4.5z"/><path d="m21 38v2h6v-2z"/></g></svg>