<?xml version="1.0" encoding="UTF-8" standalone="no"?>
<svg
   xmlns:dc="http://purl.org/dc/elements/1.1/"
   xmlns:cc="http://creativecommons.org/ns#"
   xmlns:rdf="http://www.w3.org/1999/02/22-rdf-syntax-ns#"
   xmlns:svg="http://www.w3.org/2000/svg"
   xmlns="http://www.w3.org/2000/svg"
   xmlns:xlink="http://www.w3.org/1999/xlink"
   xmlns:sodipodi="http://sodipodi.sourceforge.net/DTD/sodipodi-0.dtd"
   xmlns:inkscape="http://www.inkscape.org/namespaces/inkscape"
   height="48"
   width="48"
   version="1.1"
   id="svg10"
   sodipodi:docname="dayjournal.svg"
   inkscape:version="0.92.1 r15371">
  <metadata
     id="metadata16">
    <rdf:RDF>
      <cc:Work
         rdf:about="">
        <dc:format>image/svg+xml</dc:format>
        <dc:type
           rdf:resource="http://purl.org/dc/dcmitype/StillImage" />
        <dc:title />
      </cc:Work>
    </rdf:RDF>
  </metadata>
  <defs
     id="defs14">
    <linearGradient
       id="linearGradient3820-7-2-8-6">
      <stop
         id="stop3822-2-6-5-0"
         style="stop-color:#3d3d3d;stop-opacity:1"
         offset="0" />
      <stop
         id="stop3864-8-7-4-1"
         style="stop-color:#686868;stop-opacity:0.49803922"
         offset="0.5" />
      <stop
         id="stop3824-1-2-6-7"
         style="stop-color:#686868;stop-opacity:0"
         offset="1" />
    </linearGradient>
    <linearGradient
       id="linearGradient4806">
      <stop
         offset="0"
         style="stop-color:#ffffff;stop-opacity:1"
         id="stop4808" />
      <stop
         offset="0.42447853"
         style="stop-color:#ffffff;stop-opacity:0.23529412"
         id="stop4810" />
      <stop
         offset="0.82089913"
         style="stop-color:#ffffff;stop-opacity:0.15686275"
         id="stop4812" />
      <stop
         offset="1"
         style="stop-color:#ffffff;stop-opacity:0.39215687"
         id="stop4814" />
    </linearGradient>
    <linearGradient
       xlink:href="#linearGradient4806"
       id="linearGradient3118"
       gradientUnits="userSpaceOnUse"
       gradientTransform="matrix(4.16388,0,0,4.16388,-236.03265,-50.036246)"
       x1="71.204407"
       y1="15.369057"
       x2="71.204407"
       y2="40.495617" />
    <radialGradient
       xlink:href="#linearGradient3820-7-2-8-6"
       id="radialGradient3163"
       gradientUnits="userSpaceOnUse"
       gradientTransform="matrix(0.6869404,0,0,0.21461693,-4.02174,68.573331)"
       cx="99.157013"
       cy="186.17059"
       fx="99.157013"
       fy="186.17059"
       r="62.769119" />
    <radialGradient
       cx="7.4605465"
       cy="9.9571075"
       r="12.671875"
       fx="6.9303164"
       fy="9.9571075"
       id="radialGradient5521-1"
       xlink:href="#linearGradient2867-449-88-871-390-598-476-591-434-148-57-177-3-8-8-9"
       gradientUnits="userSpaceOnUse"
       gradientTransform="matrix(0,46.861858,-92.320077,0,985.84907,-380.50601)" />
    <linearGradient
       id="linearGradient2867-449-88-871-390-598-476-591-434-148-57-177-3-8-8-9">
      <stop
         offset="0"
         style="stop-color:#90dbec;stop-opacity:1"
         id="stop3750-8-9-0" />
      <stop
         offset="0.26238"
         style="stop-color:#42baea;stop-opacity:1"
         id="stop3752-3-2-2" />
      <stop
         offset="0.704952"
         style="stop-color:#3689e6;stop-opacity:1"
         id="stop3754-7-2-2" />
      <stop
         offset="1"
         style="stop-color:#2b63a0;stop-opacity:1"
         id="stop3756-9-3-05" />
    </linearGradient>
    <linearGradient
       id="linearGradient1225">
      <stop
         id="stop1221"
         offset="0"
         style="stop-color:#f37329;stop-opacity:1" />
      <stop
         id="stop1223"
         offset="1"
         style="stop-color:#e95420;stop-opacity:1" />
    </linearGradient>
    <linearGradient
       xlink:href="#linearGradient4806"
       id="linearGradient3118-2"
       gradientUnits="userSpaceOnUse"
       gradientTransform="matrix(4.16388,0,0,4.16388,-237.90031,-51.829821)"
       x1="71.204407"
       y1="15.369057"
       x2="71.204407"
       y2="40.495617" />
    <radialGradient
       xlink:href="#linearGradient3820-7-2-8-6"
       id="radialGradient3163-9"
       gradientUnits="userSpaceOnUse"
       gradientTransform="matrix(0.75814376,0,0,0.2368626,-10.029824,66.656498)"
       cx="99.157013"
       cy="186.17059"
       fx="99.157013"
       fy="186.17059"
       r="62.769119" />
    <linearGradient
       gradientUnits="userSpaceOnUse"
       y2="118.04783"
       x2="64.5"
       y1="13.998179"
       x1="64.5"
       id="linearGradient1227"
       xlink:href="#linearGradient1225" />
    <clipPath
       id="clipPath849">
      <rect
         width="384"
         height="384"
         id="rect847" />
    </clipPath>
    <clipPath
       id="clipPath853">
      <rect
         width="384"
         height="384"
         id="rect851" />
    </clipPath>
    <clipPath
       id="clipPath857">
      <rect
         width="384"
         height="384"
         id="rect855" />
    </clipPath>
    <filter
       filterUnits="objectBoundingBox"
       color-interpolation-filters="sRGB"
       y="-200%"
       x="-200%"
       height="400%"
       width="400%"
       id="xPHBR2KRsqNJJmxgfSMnWsjFL63MuKr0">
      <feGaussianBlur
         id="feGaussianBlur823"
         stdDeviation="4.294"
         in="SourceGraphic" />
      <feOffset
         id="feOffset825"
         result="pf_100_offsetBlur"
         dy="4"
         dx="0" />
      <feFlood
         id="feFlood827"
         flood-opacity=".4" />
      <feComposite
         id="feComposite829"
         result="pf_100_dropShadow"
         operator="in"
         in2="pf_100_offsetBlur" />
      <feBlend
         id="feBlend831"
         mode="normal"
         in2="pf_100_dropShadow"
         in="SourceGraphic" />
    </filter>
    <filter
       filterUnits="objectBoundingBox"
       color-interpolation-filters="sRGB"
       y="-200%"
       x="-200%"
       height="400%"
       width="400%"
       id="2JmMAOqgjSUXbdZfecnmpMzAW6swRgvN">
      <feGaussianBlur
         id="feGaussianBlur858"
         stdDeviation="4.294" />
    </filter>
    <radialGradient
       xlink:href="#linearGradient3820-7-2-8-6"
       id="radialGradient3163-7"
       gradientUnits="userSpaceOnUse"
       gradientTransform="matrix(0.6869404,0,0,0.21461693,-4.02174,68.573331)"
       cx="99.157013"
       cy="186.17059"
       fx="99.157013"
       fy="186.17059"
       r="62.769119" />
    <radialGradient
       xlink:href="#linearGradient3820-7-2-8-6"
       id="radialGradient3163-1"
       gradientUnits="userSpaceOnUse"
       gradientTransform="matrix(0.6869404,0,0,0.21461693,-4.02174,68.573331)"
       cx="99.157013"
       cy="186.17059"
       fx="99.157013"
       fy="186.17059"
       r="62.769119" />
    <radialGradient
       cx="7.4605465"
       cy="9.9571075"
       r="12.671875"
       fx="6.9303164"
       fy="9.9571075"
       id="radialGradient5521-1-8"
       xlink:href="#linearGradient2867-449-88-871-390-598-476-591-434-148-57-177-3-8-8-9"
       gradientUnits="userSpaceOnUse"
       gradientTransform="matrix(0,46.861858,-92.320077,0,985.84907,-380.50601)" />
    <clipPath
       id="clipPath849-3">
      <rect
         width="384"
         height="384"
         id="rect847-7" />
    </clipPath>
    <clipPath
       id="clipPath853-5">
      <rect
         width="384"
         height="384"
         id="rect851-9" />
    </clipPath>
    <clipPath
       id="clipPath857-2">
      <rect
         width="384"
         height="384"
         id="rect855-2" />
    </clipPath>
    <path
       id="b16bjkfelL"
       d="M272.58 33.21L278.33 33.78L284.01 34.57L289.61 35.58L295.14 36.8L300.58 38.22L305.94 39.85L311.2 41.67L316.37 43.69L321.43 45.9L326.39 48.29L331.24 50.87L335.97 53.61L340.58 56.53L345.07 59.62L349.43 62.87L353.65 66.27L357.74 69.83L361.68 73.53L365.48 77.38L367.5 79.6L369.17 78.22L372.07 76L375.06 73.9L378.13 71.91L381.28 70.03L384.51 68.28L387.81 66.65L391.19 65.14L394.63 63.76L398.13 62.52L401.7 61.41L405.32 60.44L409 59.61L412.73 58.92L416.51 58.38L420.34 57.99L424.21 57.75L428.12 57.68L432.03 57.75L435.9 57.99L439.73 58.38L443.51 58.92L447.25 59.61L450.93 60.44L454.55 61.41L458.12 62.52L461.62 63.76L465.06 65.14L468.43 66.65L471.74 68.28L474.96 70.03L478.11 71.91L481.19 73.9L484.17 76L487.08 78.22L489.89 80.54L492.61 82.97L495.24 85.49L497.77 88.12L500.19 90.84L502.51 93.65L504.73 96.56L506.83 99.55L508.82 102.62L510.7 105.77L512.45 109L514.08 112.3L515.12 114.62L517.85 114.89L522.32 115.49L526.73 116.26L531.08 117.2L535.36 118.29L539.57 119.54L543.71 120.94L547.78 122.49L551.76 124.18L555.66 126.02L559.48 127.99L563.2 130.1L566.83 132.34L570.36 134.7L573.79 137.19L577.11 139.81L580.33 142.53L583.43 145.38L586.42 148.33L589.29 151.39L592.03 154.55L594.65 157.82L597.13 161.18L599.48 164.63L601.7 168.18L603.77 171.81L605.7 175.52L607.48 179.31L609.11 183.18L610.58 187.12L611.89 191.13L613.04 195.21L614.02 199.35L614.83 203.54L615.47 207.8L615.93 212.1L616.21 216.45L616.3 220.85L616.21 225.25L615.93 229.6L615.47 233.91L614.83 238.16L614.02 242.35L613.04 246.49L611.89 250.57L610.58 254.58L609.11 258.52L607.48 262.39L605.7 266.18L603.77 269.89L601.7 273.52L599.48 277.07L597.13 280.52L594.65 283.88L592.03 287.15L589.29 290.31L586.42 293.37L583.43 296.32L580.33 299.17L577.11 301.9L573.79 304.51L570.36 307L566.83 309.36L563.2 311.6L559.48 313.71L558.8 314.06L558.87 317.17L558.78 321.51L558.52 325.81L558.09 330.06L557.49 334.26L556.72 338.4L555.8 342.49L554.72 346.51L553.49 350.47L552.11 354.36L550.58 358.18L548.91 361.93L547.09 365.59L545.15 369.18L543.07 372.68L540.86 376.09L538.52 379.41L536.06 382.63L533.48 385.75L530.79 388.77L527.98 391.69L525.06 394.5L522.04 397.19L518.92 399.77L515.7 402.23L512.38 404.56L508.97 406.77L505.47 408.86L501.88 410.8L498.22 412.62L494.47 414.29L490.65 415.82L486.76 417.2L482.8 418.43L478.78 419.51L474.69 420.43L470.55 421.2L466.35 421.79L462.1 422.23L457.8 422.49L453.46 422.58L449.12 422.49L444.82 422.23L440.57 421.79L436.37 421.2L432.23 420.43L428.14 419.51L424.12 418.43L420.16 417.2L416.27 415.82L412.45 414.29L408.7 412.62L406.61 411.58L403.12 415.59L399.38 419.57L395.49 423.4L391.46 427.08L387.3 430.6L383 433.95L378.58 437.14L374.04 440.16L369.37 443L364.59 445.66L359.71 448.13L354.72 450.41L349.62 452.5L344.44 454.39L339.16 456.07L333.79 457.54L328.35 458.8L322.82 459.84L317.23 460.66L311.56 461.25L305.83 461.61L300.05 461.73L294.26 461.61L288.53 461.25L282.87 460.66L277.27 459.84L271.75 458.8L266.3 457.54L260.93 456.07L255.66 454.39L250.47 452.5L245.38 450.41L240.39 448.13L235.5 445.66L230.72 443L226.06 440.16L221.51 437.14L217.09 433.95L212.79 430.6L208.63 427.08L204.6 423.4L200.71 419.57L196.97 415.59L193.38 411.46L189.94 407.2L186.67 402.8L183.55 398.27L180.61 393.61L177.83 388.84L176.86 387.01L176.7 387.05L171.8 388.17L166.83 389.1L161.8 389.83L156.7 390.36L151.55 390.68L146.35 390.78L141.14 390.68L135.99 390.36L130.9 389.83L125.86 389.1L120.9 388.17L116 387.05L111.18 385.74L106.43 384.23L101.76 382.55L97.19 380.69L92.7 378.65L88.3 376.44L84.01 374.07L79.81 371.54L75.72 368.85L71.75 366L67.88 363L64.14 359.86L60.52 356.58L57.02 353.16L53.66 349.61L50.43 345.93L47.34 342.13L44.39 338.2L41.59 334.16L38.94 330.01L36.44 325.75L34.11 321.38L31.94 316.92L29.93 312.36L28.1 307.7L26.44 302.96L24.97 298.14L23.67 293.24L22.57 288.26L21.65 283.22L20.93 278.1L20.42 272.93L20.1 267.69L20 262.4L20.1 257.12L20.42 251.88L20.93 246.71L21.65 241.59L22.57 236.55L23.67 231.57L24.97 226.67L26.44 221.85L28.1 217.11L29.93 212.45L31.94 207.89L34.11 203.43L36.44 199.06L38.94 194.8L41.59 190.65L44.39 186.61L47.34 182.68L50.43 178.88L53.66 175.2L57.02 171.65L60.52 168.23L64.14 164.95L67.88 161.8L71.75 158.81L75.72 155.96L79.81 153.27L84.01 150.74L88.3 148.36L92.7 146.16L97.19 144.12L101.76 142.26L106.43 140.58L111.18 139.07L116 137.76L120.9 136.64L123.1 136.23L123.93 133.19L125.6 127.96L127.47 122.82L129.54 117.78L131.8 112.84L134.25 107.99L136.88 103.26L139.7 98.64L142.69 94.14L145.85 89.76L149.17 85.5L152.66 81.38L156.31 77.38L160.1 73.53L164.05 69.83L168.13 66.27L172.36 62.87L176.72 59.62L181.21 56.53L185.82 53.61L190.55 50.87L195.4 48.29L200.36 45.9L205.42 43.69L210.59 41.67L215.85 39.85L221.21 38.22L226.65 36.8L232.18 35.58L237.78 34.57L243.46 33.78L249.21 33.21L255.02 32.86L260.89 32.75L266.77 32.86L272.58 33.21Z" />
    <linearGradient
       y2="461.73"
       x2="318.15"
       y1="32.75"
       x1="318.15"
       gradientUnits="userSpaceOnUse"
       id="gradientc33HQh27aZ">
      <stop
         id="stop5079"
         offset="0%"
         style="stop-color: #ffffff;stop-opacity: 1" />
      <stop
         id="stop5081"
         offset="100%"
         style="stop-color: #e0e0e0;stop-opacity: 1" />
    </linearGradient>
    <path
       id="k1z5szEyZ7"
       d="M452.91 509.7C452.91 536.18 429.29 557.68 400.21 557.68C371.12 557.68 347.5 536.18 347.5 509.7C347.5 483.23 371.12 461.73 400.21 461.73C429.29 461.73 452.91 483.23 452.91 509.7Z" />
    <path
       id="i1dWBxciv4"
       d="M296.53 555.3C296.53 576.55 278.65 593.81 256.63 593.81C234.6 593.81 216.72 576.55 216.72 555.3C216.72 534.04 234.6 516.78 256.63 516.78C278.65 516.78 296.53 534.04 296.53 555.3Z" />
    <path
       id="a3sduYxIbo"
       d="M361.39 170.92L327.54 198.07L296.53 222.95" />
    <path
       id="b1Uu1ewGb"
       d="M490.72 139.23C494.82 139.23 498.14 142.55 498.14 146.65C498.14 160.3 498.14 193.83 498.14 207.48C498.14 211.58 494.82 214.9 490.72 214.9C463.42 214.9 388.95 214.9 361.65 214.9C357.55 214.9 354.22 211.58 354.22 207.48C354.22 193.83 354.22 160.3 354.22 146.65C354.22 142.55 357.55 139.23 361.65 139.23C388.95 139.23 463.42 139.23 490.72 139.23Z" />
    <path
       id="b4EML11Oyk"
       d="M361.39 333.62L327.54 306.47L296.53 281.59" />
    <path
       id="b24bcEG6b5"
       d="M297.34 214.9C302.86 214.9 307.34 219.38 307.34 224.9C307.34 238.04 307.34 267.45 307.34 280.58C307.34 286.1 302.86 290.58 297.34 290.58C260.55 290.58 160.2 290.58 123.42 290.58C117.9 290.58 113.42 286.1 113.42 280.58C113.42 267.45 113.42 238.04 113.42 224.9C113.42 219.38 117.9 214.9 123.42 214.9C160.2 214.9 260.55 214.9 297.34 214.9Z" />
    <path
       id="d4HHCachsN"
       d="M490.72 290.58C494.82 290.58 498.14 293.9 498.14 298C498.14 311.65 498.14 345.18 498.14 358.83C498.14 362.93 494.82 366.26 490.72 366.26C463.42 366.26 388.95 366.26 361.65 366.26C357.55 366.26 354.22 362.93 354.22 358.83C354.22 345.18 354.22 311.65 354.22 298C354.22 293.9 357.55 290.58 361.65 290.58C388.95 290.58 463.42 290.58 490.72 290.58Z" />
  </defs>
  <sodipodi:namedview
     pagecolor="#ffffff"
     bordercolor="#666666"
     borderopacity="1"
     objecttolerance="10"
     gridtolerance="10"
     guidetolerance="10"
     inkscape:pageopacity="0"
     inkscape:pageshadow="2"
     inkscape:window-width="1920"
     inkscape:window-height="1040"
     id="namedview12"
     showgrid="true"
     inkscape:zoom="4.9166667"
     inkscape:cx="-0.21871231"
     inkscape:cy="16.411574"
     inkscape:window-x="0"
     inkscape:window-y="0"
     inkscape:window-maximized="1"
     inkscape:current-layer="svg10">
    <inkscape:grid
       type="xygrid"
       id="grid823" />
  </sodipodi:namedview>
  <style
     id="style3"
     type="text/css">
	.st0{fill:url(#SVGID_1_);}
	.st1{fill:url(#SVGID_2_);}
	.st2{fill:url(#SVGID_3_);}
	.st3{fill:url(#SVGID_4_);}
	.st4{fill:url(#SVGID_5_);}
	.st5{fill:url(#SVGID_6_);}
	.st6{opacity:0.29;}
	.st7{fill:url(#SVGID_7_);}
</style>
  <rect
     transform="rotate(-21.624634)"
     ry="2"
     rx="2"
     y="17.529825"
     x="6.0791531"
     height="15"
     width="30"
     id="rect5522"
     style="opacity:1;fill:#54ab6b;fill-opacity:1;stroke:none;stroke-width:1;stroke-linecap:butt;stroke-linejoin:round;stroke-miterlimit:4;stroke-dasharray:none;stroke-dashoffset:0;stroke-opacity:1" />
  <rect
     style="opacity:1;fill:#6dd289;fill-opacity:1;stroke:none;stroke-width:1;stroke-linecap:butt;stroke-linejoin:round;stroke-miterlimit:4;stroke-dasharray:none;stroke-dashoffset:0;stroke-opacity:1"
     id="rect5520"
     width="30"
     height="15"
     x="-2.1197636"
     y="14.279567"
     rx="2"
     ry="2"
     transform="rotate(-21.624634)" />
  <rect
     style="opacity:1;fill:#81a5c0;fill-opacity:1;stroke:none;stroke-width:3;stroke-linecap:round;stroke-linejoin:round;stroke-miterlimit:4;stroke-dasharray:none;stroke-dashoffset:0;stroke-opacity:1"
     id="rect5506"
     width="44"
     height="32"
     x="2"
     y="12"
     rx="2"
     ry="2" />
  <path
     style="fill:none;stroke:#ffffff;stroke-width:1;stroke-linecap:round;stroke-linejoin:miter;stroke-opacity:1;stroke-miterlimit:4;stroke-dasharray:1, 3;stroke-dashoffset:0"
     d="M 5,15 H 43"
     id="path5511"
     inkscape:connector-curvature="0" />
  <path
     inkscape:connector-curvature="0"
     id="path5513"
     d="M 5,41 H 43"
     style="fill:none;stroke:#ffffff;stroke-width:1;stroke-linecap:round;stroke-linejoin:miter;stroke-miterlimit:4;stroke-dasharray:1, 3;stroke-dashoffset:0;stroke-opacity:1" />
  <path
     style="opacity:1;fill:none;fill-opacity:1;stroke:#ffffff;stroke-width:1;stroke-linecap:butt;stroke-linejoin:round;stroke-miterlimit:4;stroke-dasharray:none;stroke-dashoffset:0;stroke-opacity:1"
     d="M 45.762712,32.381356 H 37 c -1.108,0 -2,-0.892 -2,-2 V 25.72888 c 0,-1.108 0.892,-2 2,-2 h 8.864407"
     id="rect5515"
     inkscape:connector-curvature="0"
     sodipodi:nodetypes="cssssc" />
  <circle
     style="opacity:1;fill:none;fill-opacity:1;stroke:#ffffff;stroke-width:1;stroke-linecap:butt;stroke-linejoin:round;stroke-miterlimit:4;stroke-dasharray:none;stroke-dashoffset:0;stroke-opacity:1"
     id="path5518"
     cx="42.203388"
     cy="28"
     r="2" />
</svg>
