<?xml version="1.0" encoding="UTF-8" standalone="no"?>
<svg
   xmlns:dc="http://purl.org/dc/elements/1.1/"
   xmlns:cc="http://creativecommons.org/ns#"
   xmlns:rdf="http://www.w3.org/1999/02/22-rdf-syntax-ns#"
   xmlns:svg="http://www.w3.org/2000/svg"
   xmlns="http://www.w3.org/2000/svg"
   xmlns:sodipodi="http://sodipodi.sourceforge.net/DTD/sodipodi-0.dtd"
   xmlns:inkscape="http://www.inkscape.org/namespaces/inkscape"
   height="48"
   width="48"
   version="1.1"
   id="svg16"
   sodipodi:docname="wargus.svg"
   inkscape:version="0.92.1 r15371">
  <metadata
     id="metadata22">
    <rdf:RDF>
      <cc:Work
         rdf:about="">
        <dc:format>image/svg+xml</dc:format>
        <dc:type
           rdf:resource="http://purl.org/dc/dcmitype/StillImage" />
        <dc:title></dc:title>
      </cc:Work>
    </rdf:RDF>
  </metadata>
  <defs
     id="defs20" />
  <sodipodi:namedview
     pagecolor="#ffffff"
     bordercolor="#666666"
     borderopacity="1"
     objecttolerance="10"
     gridtolerance="10"
     guidetolerance="10"
     inkscape:pageopacity="0"
     inkscape:pageshadow="2"
     inkscape:window-width="1920"
     inkscape:window-height="1025"
     id="namedview18"
     showgrid="false"
     inkscape:zoom="4.9166667"
     inkscape:cx="-16.372881"
     inkscape:cy="24"
     inkscape:window-x="0"
     inkscape:window-y="29"
     inkscape:window-maximized="1"
     inkscape:current-layer="svg16" />
  <path
     d="m44.322082 27.405077a19.729762 19.729765 0 0 1 -19.729762 19.729765 19.729762 19.729765 0 0 1 -19.7297621-19.729765 19.729762 19.729765 0 0 1 19.7297621-19.7297632 19.729762 19.729765 0 0 1 19.729762 19.7297632z"
     fill="#d08795"
     opacity=".99"
     transform="matrix(1.1503549 0 0 1.1503549 -4.486125 -7.525565)"
     id="path2"
     style="fill:#6c5353" />
  <path
     id="path4509-3"
     d="m 13.787117,37.635246 c -0.123299,-0.200619 0.269556,-0.778194 0.750991,-1.283516 0.481431,-0.505321 1.275667,-1.181104 1.275667,-1.501734 0,-0.320629 -1.579116,-4.335198 -2.897825,-8.921305 -1.958258,-6.810249 -2.373387,-8.526724 -3.1550864,-9.36642 -0.5264,-0.565475 -0.957093,-1.169543 -0.957093,-1.299875 0,-0.130306 1.6983444,-0.232367 3.7740914,-0.224821 l 2.374574,0.0086 c 1.319768,-0.05349 1.091011,0.04504 0.176678,0.7979 -0.507407,0.417759 -0.622272,0.97275 -0.622272,1.23328 0,0.518635 1.350621,5.609336 2.391397,9.22749 0.407261,1.390537 0.787466,2.526095 1.455653,3.750401 0.232518,0.05598 0.544234,-0.849237 2.024774,-6.392597 2.36055,-8.838245 2.40041,-8.639674 3.510833,-8.639674 h 0.941871 l 1.959894,7.629866 c 1.137495,4.428259 2.110542,7.48172 2.302049,7.419869 0.37622,-0.121493 2.982128,-9.540277 3.534846,-12.918789 0.292099,-1.785441 0.05831,-2.311784 -0.412192,-3.308843 -0.325923,-0.690687 -0.434629,-1.307772 -0.260387,-1.478126 0.468881,-0.458454 5.642359,-2.366951 6.36817,-2.366951 0.81884,0 0.605409,0.690147 -0.758451,2.4526 -1.496179,1.9334 -1.37471,4.01182 -2.882392,9.185933 -0.756908,2.597594 -1.833553,6.079702 -2.392541,7.737991 -0.518055,1.536851 -0.46068,2.707121 -0.485722,3.638637 -0.03953,1.470525 0.162683,2.346038 0.975802,3.129407 0.689944,0.664706 1.054964,1.095159 0.986397,1.372156 -0.101143,0.408596 -2.645623,0.483276 -4.982523,0.483276 -2.693285,0 -3.921135,-0.149952 -3.95182,-0.650988 -0.01377,-0.225118 0.514432,-0.521088 0.959624,-0.906183 1.083493,-0.807867 1.092897,-1.194499 0.835302,-2.217458 -0.792116,-2.955064 -2.4601,-10.732889 -2.729895,-11.225382 -0.133065,-0.242904 -0.56126,-0.100309 -0.783891,1.188732 -0.665903,3.473753 -2.008683,7.298213 -2.30962,10.434143 0.08509,0.637109 0.109256,1.03479 0.773889,1.544585 0.743031,0.569895 1.162071,0.968303 1.190222,1.244357 0.04855,0.476134 -2.266096,0.588194 -4.886741,0.588194 -2.268971,0 -3.955681,-0.13928 -4.094273,-0.364775 z"
     style="fill:#ffffff;fill-opacity:1;stroke-width:0.26875481"
     inkscape:connector-curvature="0" />
</svg>
