<?xml version="1.0" encoding="UTF-8" standalone="no"?>
<svg
   xmlns:dc="http://purl.org/dc/elements/1.1/"
   xmlns:cc="http://creativecommons.org/ns#"
   xmlns:rdf="http://www.w3.org/1999/02/22-rdf-syntax-ns#"
   xmlns:svg="http://www.w3.org/2000/svg"
   xmlns="http://www.w3.org/2000/svg"
   xmlns:sodipodi="http://sodipodi.sourceforge.net/DTD/sodipodi-0.dtd"
   xmlns:inkscape="http://www.inkscape.org/namespaces/inkscape"
   height="48"
   width="48"
   version="1.1"
   id="svg6"
   sodipodi:docname="warpinator.svg"
   inkscape:version="1.0.2 (e86c870879, 2021-01-15)">
  <metadata
     id="metadata12">
    <rdf:RDF>
      <cc:Work
         rdf:about="">
        <dc:format>image/svg+xml</dc:format>
        <dc:type
           rdf:resource="http://purl.org/dc/dcmitype/StillImage" />
        <dc:title></dc:title>
      </cc:Work>
    </rdf:RDF>
  </metadata>
  <defs
     id="defs10">
    <linearGradient
       gradientUnits="userSpaceOnUse"
       gradientTransform="matrix(0.0920001,0,0,0.09064843,-21.193131,1.5846311)"
       y2="269.48999"
       y1="235.14999"
       x2="657.65002"
       x1="319.20999"
       id="a-12">
      <stop
         id="stop1076"
         offset="0"
         stop-color="#e54c18" />
      <stop
         id="stop1078"
         offset="1"
         stop-color="#fec350" />
    </linearGradient>
  </defs>
  <sodipodi:namedview
     pagecolor="#ffffff"
     bordercolor="#666666"
     borderopacity="1"
     objecttolerance="10"
     gridtolerance="10"
     guidetolerance="10"
     inkscape:pageopacity="0"
     inkscape:pageshadow="2"
     inkscape:window-width="1920"
     inkscape:window-height="1031"
     id="namedview8"
     showgrid="true"
     inkscape:zoom="6.555469"
     inkscape:cx="13.691802"
     inkscape:cy="13.837886"
     inkscape:window-x="0"
     inkscape:window-y="24"
     inkscape:window-maximized="1"
     inkscape:current-layer="svg6"
     inkscape:document-rotation="0">
    <inkscape:grid
       type="xygrid"
       id="grid837" />
  </sodipodi:namedview>
  <circle
     cx="23.940615"
     cy="31.534513"
     fill="#74a2f3"
     opacity=".99"
     id="circle2"
     style="fill:#9b84ab;fill-opacity:1"
     transform="matrix(1.75830584759 0 0 1.75830608345 -18.15909274367 -30.97874795549)"
     r="13.232998" />
  <path
     inkscape:connector-curvature="0"
     id="path844-3"
     d="M 23.935828,3.5630174 C 12.390003,3.5630111 3.0302611,12.922754 3.0302686,24.468579 3.0302614,36.014404 12.390003,45.374146 23.935828,45.37414 35.481655,45.374149 44.841399,36.014406 44.841392,24.468579 44.8414,12.922752 35.481655,3.5630086 23.935828,3.5630174 Z"
     style="fill:#ffffff;fill-opacity:0.34572223;stroke-width:0.610974"
     sodipodi:nodetypes="ccccc" />
  <path
     style="color:#000000;font-style:normal;font-variant:normal;font-weight:normal;font-stretch:normal;font-size:medium;line-height:normal;font-family:sans-serif;font-variant-ligatures:normal;font-variant-position:normal;font-variant-caps:normal;font-variant-numeric:normal;font-variant-alternates:normal;font-feature-settings:normal;text-indent:0;text-align:start;text-decoration:none;text-decoration-line:none;text-decoration-style:solid;text-decoration-color:#000000;letter-spacing:normal;word-spacing:normal;text-transform:none;writing-mode:lr-tb;direction:ltr;text-orientation:mixed;dominant-baseline:auto;baseline-shift:baseline;text-anchor:start;white-space:normal;shape-padding:0;clip-rule:nonzero;display:inline;overflow:visible;visibility:visible;isolation:auto;mix-blend-mode:normal;color-interpolation:sRGB;color-interpolation-filters:linearRGB;solid-color:#000000;solid-opacity:1;vector-effect:none;fill:#ffffff;fill-opacity:1;fill-rule:nonzero;stroke:none;stroke-width:1.90317;stroke-linecap:round;stroke-linejoin:round;stroke-miterlimit:4;stroke-dasharray:1.90317, 3.80633;stroke-dashoffset:0;stroke-opacity:1;color-rendering:auto;image-rendering:auto;shape-rendering:auto;text-rendering:auto;enable-background:accumulate"
     d="m 32.864206,8.075221 c -2.080767,0 -3.796259,1.711807 -3.796259,3.792572 0,0.698663 0.196619,1.353351 0.532313,1.917801 L 25,20 c -0.774038,-0.363359 -1.632254,-0.572881 -2.538625,-0.572881 -1.010061,0 -1.963644,0.254134 -2.80171,0.699506 0.123477,-0.284512 0.109208,-0.629239 -0.152443,-0.952753 l -1.193701,-1.477689 c -0.17869,-0.229545 -0.45288,-0.365275 -0.743764,-0.367579 -0.810736,-0.0067 -1.258133,0.938649 -0.738842,1.561285 l 1.193706,1.482607 c 0.205304,0.253853 0.45549,0.361722 0.700734,0.367577 -1.306683,1.041736 -2.176528,2.611936 -2.278,4.377748 L 7.1878213,26.21318 C 6.6879075,25.421266 5.8098695,24.886701 4.8139325,24.886701 c -1.5402827,0 -2.8066295,1.270031 -2.8066295,2.810316 0,1.540281 1.2663468,2.806625 2.8066295,2.806625 1.0362904,0 1.9406004,-0.579463 2.4279821,-1.423598 l 9.7254584,-1.149451 c 0.948875,2.095159 3.057833,3.5676 5.494006,3.5676 1.606415,0 3.069998,-0.643076 4.15523,-1.679303 l 1.174038,1.456788 c 0.799177,0.98813 2.280556,-0.210489 1.481378,-1.198625 l -1.193708,-1.477688 c -0.08654,-0.111192 -0.196002,-0.19919 -0.318405,-0.261853 0.468578,-0.856526 0.736388,-1.837117 0.736388,-2.87547 0,-1.292123 -0.416627,-2.491063 -1.117489,-3.476626 l 4.735491,-6.402503 c 0.242675,0.04939 0.493624,0.07623 0.749907,0.07623 2.080765,0 3.791341,-1.71058 3.791341,-3.791344 0,-2.080764 -1.710576,-3.792571 -3.791341,-3.792571 z m -19.947574,2.346845 a 2.6930309,2.6930309 0 0 0 -2.692296,2.692296 2.6930309,2.6930309 0 0 0 2.692296,2.693527 2.6930309,2.6930309 0 0 0 1.042498,-0.212679 l 1.132236,1.405154 c 0.79918,0.988132 2.281786,-0.21049 1.482608,-1.198624 l -1.194936,-1.47769 c -0.01158,-0.01504 -0.02678,-0.02629 -0.03935,-0.04056 a 2.6930309,2.6930309 0 0 0 0.270462,-1.169131 2.6930309,2.6930309 0 0 0 -2.693526,-2.692295 z m 19.947574,0.03319 c 0.795083,0 1.412531,0.617451 1.412531,1.412533 0,0.795082 -0.617448,1.412534 -1.412531,1.412534 -0.795084,0 -1.41745,-0.617452 -1.41745,-1.412534 0,-0.795082 0.622366,-1.412533 1.41745,-1.412533 z M 22.461375,22.521408 c 1.643171,0 2.945542,1.297452 2.945542,2.940627 0,1.643167 -1.302371,2.941854 -2.945542,2.941854 -1.643173,0 -2.941855,-1.298687 -2.941855,-2.941854 0,-1.643175 1.298682,-2.940627 2.941855,-2.940627 z M 4.81393,26.647136 c 0.5885559,0 1.0498735,0.461312 1.0498669,1.049874 0,0.588557 -0.461311,1.046183 -1.0498669,1.046183 -0.5885625,0 -1.0449573,-0.457626 -1.0449573,-1.046183 0,-0.588562 0.4563948,-1.049874 1.0449573,-1.049874 z m 14.747387,4.442902 c -0.346612,-7.44e-4 -0.694346,0.183203 -0.865467,0.550753 l -0.832278,1.71127 c -0.553765,1.143864 1.162416,1.974913 1.716185,0.831043 l 0.827358,-1.710038 c 0.131611,-0.259417 0.137861,-0.564409 0.01587,-0.828588 -0.169603,-0.368195 -0.515169,-0.55371 -0.861777,-0.55444 z m 10.839256,0.645413 c -0.810735,-0.0067 -1.258135,0.93865 -0.738844,1.561285 l 1.193706,1.481378 c 0.03388,0.04189 0.07083,0.07396 0.106959,0.108166 a 3.4155516,3.4155516 0 0 0 -0.42044,1.633819 3.4155516,3.4155516 0 0 0 3.41639,3.415157 3.4155516,3.4155516 0 0 0 3.415158,-3.415157 3.4155516,3.4155516 0 0 0 -3.415158,-3.416388 3.4155516,3.4155516 0 0 0 -1.657178,0.430277 l -1.15806,-1.432199 c -0.178683,-0.229546 -0.451647,-0.364042 -0.742529,-0.366351 z m -13.345918,3.032827 a 2.1456672,2.1456672 0 0 0 -2.145232,2.145233 2.1456672,2.1456672 0 0 0 2.145232,2.14646 2.1456672,2.1456672 0 0 0 2.146462,-2.14646 2.1456672,2.1456672 0 0 0 -2.146462,-2.145233 z"
     id="path1083"
     inkscape:connector-curvature="0" />
</svg>
