<svg height="48" width="48" xmlns="http://www.w3.org/2000/svg"><rect fill="#669f71" height="43" ry="1.452703" width="43" x="2" y="3"/><path d="m23.5 3h20.047297c.804798 0 1.452703.6479055 1.452703 1.4527029v20.0472971h-21.5z" fill="#d0b558"/><path d="m45 24.5v20.047297c0 .804798-.647905 1.452703-1.452703 1.452703h-40.0945941c-.8047974 0-1.4527029-.647905-1.4527029-1.452703v-20.047297z" fill="#64c4b9"/><path d="m45 24.5v20.047297c0 .804798-.647905 1.452703-1.452703 1.452703h-20.047297v-21.5z" fill="#88b568"/><path d="m9 10v29h29v-29zm20.59375 2.728516c1.174808 0 2.13098.356697 2.865234 1.068359.734255.706014 1.088999 1.598945 1.066407 2.677734l-.017579.050782h-2.33789c0-.564812-.141423-1.022864-.423828-1.373047-.282406-.350183-.679381-.525391-1.19336-.525391-.480089 0-.855843.145751-1.126953.439453-.265461.288054-.398437.653197-.398437 1.09375 0 .406664.149869.742351.449218 1.007813.299351.259813.818691.551104 1.558594.873047 1.16916.395368 2.047362.897816 2.634766 1.507812.593052.604348.890625 1.423427.890625 2.457031 0 1.067494-.356697 1.903465-1.068359 2.507813-.711663.604348-1.657435.90625-2.837891.90625-1.174808 0-2.194433-.341969-3.058594-1.025391-.858513-.68907-1.274334-1.674909-1.246094-2.957031l.017579-.050781h2.345703c0 .762495.162432 1.311292.484375 1.644531.321942.333239.807498.5 1.457031.5.50833 0 .884084-.135141 1.126953-.40625.248517-.271109.373047-.638417.373047-1.101562 0-.48009-.12453-.858009-.373047-1.134766-.248517-.282406-.687513-.560922-1.314453-.832031-1.282122-.446201-2.244787-.950814-2.888672-1.515625-.638237-.57046-.957031-1.366364-.957031-2.388672 0-1.011013.373589-1.834208 1.11914-2.466797.745551-.638237 1.695653-.957031 2.853516-.957031zm-17.791016.177734h2.337891l1.330078 7.871094h.050781l1.779297-7.871094h1.728516l1.804687 7.871094h.050782l1.330078-7.871094h2.33789l-2.378906 12.335938h-2.246094l-1.736328-7.556641h-.050781l-1.720703 7.556641h-2.236328zm.197266 18.09375h12v2h-12z" fill="#fff"/></svg>