<svg height="48" width="48" xmlns="http://www.w3.org/2000/svg"><rect fill="#ebebeb" height="43" ry="1.452703" width="43" x="2" y="3"/><path d="m3.4527029 3h40.0945941c.804798 0 1.452703.6479055 1.452703 1.4527029v12.5472971l-43 .220296v-12.7675931c0-.8047974.6479055-1.4527029 1.4527029-1.4527029z" fill="#566b71"/><circle cx="11.101015" cy="10.585787" fill="#ffdec7" r="5"/><circle cx="24.030968" cy="10.585787" fill="#cedd90" r="5"/><circle cx="37.061935" cy="10.585787" fill="#97d4e2" r="5"/><g fill="#6f8a91"><path d="m15.835937 23.007812c-.554 0-1 .446-1 1v1.283203a6.9041886 6.9041886 0 0 0 -1.339843.548828l-.902344-.902343c-.391737-.391737-1.022326-.391737-1.414063 0l-1.4140621 1.414062c-.3917372.391737-.3917372 1.022326 0 1.414062l.9023441.902344a6.9041886 6.9041886 0 0 0 -.544922 1.339844h-1.2871096c-.554 0-1 .446-1 1v2c0 .554.446 1 1 1h1.3398436a6.9041886 6.9041886 0 0 0 .554688 1.277344l-.9648441.964844c-.3917372.391736-.3917372 1.022325 0 1.414062l1.4140621 1.414062c.391737.391737 1.022326.391737 1.414063 0l1.017578-1.017578a6.9041886 6.9041886 0 0 0 1.224609.488282v1.458984c0 .554.446 1 1 1h2c.554 0 1-.446 1-1v-1.511719a6.9041886 6.9041886 0 0 0 1.164063-.496093l1.078125 1.078124c.391737.391737 1.022325.391737 1.414062 0l1.414063-1.414062c.391737-.391737.391737-1.022326 0-1.414062l-1.076172-1.076172a6.9041886 6.9041886 0 0 0 .5-1.166016h1.505859c.554 0 1-.446 1-1v-2c0-.554-.446-1-1-1h-1.455078a6.9041886 6.9041886 0 0 0 -.488281-1.228516l1.013672-1.013672c.391737-.391736.391737-1.022325 0-1.414062l-1.414063-1.414062c-.391737-.391737-1.022325-.391737-1.414062 0l-.962891.96289a6.9041886 6.9041886 0 0 0 -1.279297-.558594v-1.333984c0-.554-.446-1-1-1zm1 4.302734a4.6969543 4.6969543 0 0 1 4.697266 4.697266 4.6969543 4.6969543 0 0 1 -4.697266 4.697266 4.6969543 4.6969543 0 0 1 -4.697265-4.697266 4.6969543 4.6969543 0 0 1 4.697265-4.697266z"/><path d="m31.464844 28.292969c-.554 0-1 .446-1 1v1.169922a6.1718278 6.1718278 0 0 0 -.705078.296875l-.830078-.830078c-.391737-.391737-1.022326-.391737-1.414063 0l-1.414062 1.414062c-.391737.391737-.391737 1.022326 0 1.414063l.828125.828125a6.1718278 6.1718278 0 0 0 -.296875.707031h-1.167969c-.554 0-1 .446-1 1v2c0 .554.446 1 1 1h1.169922a6.1718278 6.1718278 0 0 0 .296875.705078l-.830078.830078c-.391737.391737-.391737 1.022326 0 1.414063l1.414062 1.414062c.391737.391737 1.022326.391737 1.414063 0l.828125-.828125a6.1718278 6.1718278 0 0 0 .707031.296875v1.167969c0 .554.446 1 1 1h2c.554 0 1-.446 1-1v-1.169922a6.1718278 6.1718278 0 0 0 .705078-.296875l.830078.830078c.391737.391737 1.022326.391737 1.414063 0l1.414062-1.414062c.391737-.391737.391737-1.022326 0-1.414063l-.828125-.828125a6.1718278 6.1718278 0 0 0 .296875-.707031h1.167969c.554 0 1-.446 1-1v-2c0-.554-.446-1-1-1h-1.169922a6.1718278 6.1718278 0 0 0 -.296875-.705078l.830078-.830078c.391737-.391737.391737-1.022326 0-1.414063l-1.414062-1.414062c-.391737-.391737-1.022326-.391737-1.414063 0l-.828125.828125a6.1718278 6.1718278 0 0 0 -.707031-.296875v-1.167969c0-.554-.446-1-1-1zm1 3.96875a4.0303302 4.0303302 0 0 1 4.03125 4.03125 4.0303302 4.0303302 0 0 1 -4.03125 4.03125 4.0303302 4.0303302 0 0 1 -4.03125-4.03125 4.0303302 4.0303302 0 0 1 4.03125-4.03125z"/></g></svg>