<svg height="48" width="48" xmlns="http://www.w3.org/2000/svg"><circle cx="23.940615" cy="31.534513" fill="#8f3c4b" opacity=".99" r="13.232998" transform="matrix(1.72140702696 0 0 1.72140725788 -17.2289093957 -30.06939350282)"/><g fill="#fff"><path d="m10 9.2255201v12.7949589h12.794959v-12.7949589zm0 28.7886579c-14.9274535 8.529972-7.4637268 4.264986 0 0zm15.993699-12.794959v12.794959h12.794957v-12.794959z" fill-opacity=".289593" stroke-width="1.59937"/><path d="m10 9.2255201v12.7949589h12.794959v-12.7949589zm15.993699 0v12.7949589h12.794957v-12.7949589zm-15.993699 15.9936989v12.794959h12.794959v-12.794959zm15.993699 0v12.794959h12.794957v-12.794959z" fill-opacity=".257919" stroke-width="1.59937"/><path d="m25.993699 9.2255201v12.7949589h12.794957v-12.7949589z" fill-opacity=".395455" stroke-width="1.59937"/><path d="m22.70261 12.267471-.255002 3.555063a8.533483 8.533483 0 0 0 -3.308392 1.378357l-2.698382-2.340041-1.811697 1.8117 2.333375 2.691712a8.533483 8.533483 0 0 0 -1.366693 3.31506l-3.560062.255003v2.560046l3.555064.255003a8.533483 8.533483 0 0 0 1.378355 3.308393l-2.340039 2.698381 1.811697 1.811698 2.691713-2.333376a8.533483 8.533483 0 0 0 3.315061 1.366692l.255002 3.560062h2.560045l.255003-3.555062a8.533483 8.533483 0 0 0 3.308391-1.378357l2.698382 2.340041 1.811702-1.811698-2.333379-2.691714a8.533483 8.533483 0 0 0 1.366692-3.31506l3.560062-.255003v-2.560046l-3.555064-.255003a8.533483 8.533483 0 0 0 -1.378354-3.308392l2.340043-2.69838-1.811702-1.8117-2.691712 2.333376a8.533483 8.533483 0 0 0 -3.315061-1.366692l-.255003-3.560063zm-.513342 4.67175a2.986719 2.986719 0 0 1 2.986716 2.986718 2.986719 2.986719 0 0 1 -2.986716 2.986719 2.986719 2.986719 0 0 1 -2.986716-2.986719 2.986719 2.986719 0 0 1 2.986716-2.986718z" stroke-width=".853348"/></g></svg>