<svg height="48" width="48" xmlns="http://www.w3.org/2000/svg"><path d="m44.322082 27.405077a19.729762 19.729765 0 0 1 -19.729762 19.729765 19.729762 19.729765 0 0 1 -19.7297621-19.729765 19.729762 19.729765 0 0 1 19.7297621-19.7297632 19.729762 19.729765 0 0 1 19.729762 19.7297632z" fill="#4dacc2" opacity=".99" transform="matrix(1.1503549 0 0 1.1503549 -4.486125 -7.525565)"/><path d="m2.9980469 33a22.696228 22.696232 0 0 0 20.8066411 13.695312 22.696228 22.696232 0 0 0 20.826171-13.695312z" fill="#32323a" fill-opacity=".542857"/><g fill="#fff"><path d="m10.5 24h6v6h-6z"/><path d="m21 24h6v6h-6z"/><path d="m31.5 24h6v6h-6z"/></g></svg>