<svg height="48" width="48" xmlns="http://www.w3.org/2000/svg"><path d="m46.5 24a22.696228 22.696232 0 0 1 -22.696229 22.696232 22.696228 22.696232 0 0 1 -22.6962282-22.696232 22.696228 22.696232 0 0 1 22.6962282-22.69623 22.696228 22.696232 0 0 1 22.696229 22.69623z" fill="#4e7cc6"/><g fill="#fff"><path d="m23.804688 6c-9.941126-.0000003-18.0000005 8.058874-18.0000005 18s8.0588745 18 18.0000005 18c5.097384-.0082 9.95227-2.177307 13.359374-5.96875l-13.164062-10.53125 15.669922-9.970703c-3.125427-5.8600806-9.223788-9.5230016-15.865234-9.529297z" fill-opacity=".312217"/><path d="m23.804688 6c-9.941126-.0000003-18.0000005 8.058874-18.0000005 18 .00611 3.161487.8447854 6.265602 2.4316406 9h2.2636719 4.5v4.5h4.5 4.5v-4.5h4.5v4.5h4.5v-4.5h.375l-9.375-7.5 15.669922-9.970703c-3.125427-5.8600806-9.223788-9.5230016-15.865234-9.529297z" fill-opacity=".425339"/><path d="m23.804688 6c-9.941126-.0000003-18.0000005 8.058874-18.0000005 18 .0086194.824468.0738772 1.64737.1953125 2.462891v-2.16211h4.5v4.199219h4.5 4.5v-4.199219h4.5v1.199219l15.669922-9.970703c-3.125427-5.8600806-9.223788-9.5230016-15.865234-9.529297zm.195312 19.5v3h3.75zm0 3h-4.5v4.5h4.5 4.5v4.5h4.5v-4.5h.375l-4.875-3.900391v3.59961h-4.5zm-13.5 0h-4.0917969c.4032649 1.575706 1.0182374 3.089484 1.828125 4.5h2.2636719 4.5v-.300781h-4.5z"/></g><path d="m16.267578 11.029297v1.375a3.3 3.3 0 0 0 -1.130859.652343l-1.191407-.6875-1.050781 1.81836 1.189453.685547a3.3 3.3 0 0 0 -.06641.65625 3.3 3.3 0 0 0 .06836.652343l-1.191406.6875 1.050781 1.81836 1.189457-.6875a3.3 3.3 0 0 0 1.132812.654297v1.375h2.099609v-1.375a3.3 3.3 0 0 0 1.132813-.654297l1.189453.6875 1.050781-1.81836-1.189453-.685546a3.3 3.3 0 0 0 .06641-.654297 3.3 3.3 0 0 0 -.06836-.654297l1.191406-.6875-1.050781-1.81836-1.191406.6875a3.3 3.3 0 0 0 -1.13086-.652343v-1.375z" fill="#4e7cc6"/><path d="m24.870388 13.606625v1.172011a2.7964412 2.8128249 0 0 0 -.958297.556038l-1.009606-.586005-.890438 1.549918 1.00795.58434a2.7964412 2.8128249 0 0 0 -.05628.559369 2.7964412 2.8128249 0 0 0 .05793.556038l-1.009605.586005.890439 1.549918 1.007953-.586005a2.7964412 2.8128249 0 0 0 .959952.557704v1.17201h1.779222v-1.17201a2.7964412 2.8128249 0 0 0 .959953-.557704l1.00795.586005.890439-1.549918-1.00795-.584339a2.7964412 2.8128249 0 0 0 .05628-.557704 2.7964412 2.8128249 0 0 0 -.05793-.557704l1.009605-.586005-.890439-1.549918-1.009605.586005a2.7964412 2.8128249 0 0 0 -.958298-.556038v-1.172011z" fill="#4e7cc6"/></svg>