<svg height="48" width="48" xmlns="http://www.w3.org/2000/svg"><path d="m44.322082 27.405077a19.729762 19.729765 0 0 1 -19.729762 19.729765 19.729762 19.729765 0 0 1 -19.7297621-19.729765 19.729762 19.729765 0 0 1 19.7297621-19.7297632 19.729762 19.729765 0 0 1 19.729762 19.7297632z" fill="#5d6c53" opacity=".99" transform="matrix(1.1503549 0 0 1.1503549 -4.486125 -7.525565)"/><g fill="#fff" fill-rule="evenodd"><path d="m36 11.900391s-3.234143-.02157-6.5625 1.226562c-1.664178.624067-3.398223 1.577884-4.757812 3.107422-1.35959 1.529538-2.279297 3.660069-2.279297 6.265625s.919707 4.736087 2.279297 6.265625c1.359589 1.529538 3.093634 2.483355 4.757812 3.107422 3.328357 1.248134 6.5625 1.226562 6.5625 1.226562v-3.199218s-2.765857-.02157-5.4375-1.023438c-1.335822-.500933-2.601777-1.234616-3.492188-2.236328-.89041-1.001712-1.470703-2.246181-1.470703-4.140625s.580293-3.138913 1.470703-4.140625c.890411-1.001712 2.156366-1.735395 3.492188-2.236328 2.671643-1.001866 5.4375-1.023438 5.4375-1.023438z"/><path d="m12 16.400391v3.199218s2.765857.02157 5.4375 1.023438c1.335822.500933 2.601777 1.234616 3.492188 2.236328.89041 1.001712 1.470703 2.246181 1.470703 4.140625s-.580293 3.138913-1.470703 4.140625c-.890411 1.001712-2.156366 1.735395-3.492188 2.236328-2.671643 1.001866-5.4375 1.023438-5.4375 1.023438v3.199218s3.234143.02157 6.5625-1.226562c1.664178-.624067 3.398223-1.577884 4.757812-3.107422 1.35959-1.529538 2.279297-3.660069 2.279297-6.265625s-.919707-4.736087-2.279297-6.265625c-1.359589-1.529538-3.093634-2.483355-4.757812-3.107422-3.328357-1.248134-6.5625-1.226562-6.5625-1.226562z"/></g></svg>