<?xml version="1.0" encoding="UTF-8" standalone="no"?>
<svg
   xmlns:dc="http://purl.org/dc/elements/1.1/"
   xmlns:cc="http://creativecommons.org/ns#"
   xmlns:rdf="http://www.w3.org/1999/02/22-rdf-syntax-ns#"
   xmlns:svg="http://www.w3.org/2000/svg"
   xmlns="http://www.w3.org/2000/svg"
   xmlns:sodipodi="http://sodipodi.sourceforge.net/DTD/sodipodi-0.dtd"
   xmlns:inkscape="http://www.inkscape.org/namespaces/inkscape"
   height="48"
   width="48"
   version="1.1"
   id="svg6"
   sodipodi:docname="xorg.svg"
   inkscape:version="1.0.2 (e86c870879, 2021-01-15)">
  <metadata
     id="metadata12">
    <rdf:RDF>
      <cc:Work
         rdf:about="">
        <dc:format>image/svg+xml</dc:format>
        <dc:type
           rdf:resource="http://purl.org/dc/dcmitype/StillImage" />
        <dc:title></dc:title>
      </cc:Work>
    </rdf:RDF>
  </metadata>
  <defs
     id="defs10">
    <linearGradient
       gradientUnits="userSpaceOnUse"
       gradientTransform="matrix(0.0920001,0,0,0.09064843,-21.193131,1.5846311)"
       y2="269.48999"
       y1="235.14999"
       x2="657.65002"
       x1="319.20999"
       id="a-12">
      <stop
         id="stop1076"
         offset="0"
         stop-color="#e54c18" />
      <stop
         id="stop1078"
         offset="1"
         stop-color="#fec350" />
    </linearGradient>
  </defs>
  <sodipodi:namedview
     pagecolor="#ffffff"
     bordercolor="#666666"
     borderopacity="1"
     objecttolerance="10"
     gridtolerance="10"
     guidetolerance="10"
     inkscape:pageopacity="0"
     inkscape:pageshadow="2"
     inkscape:window-width="1920"
     inkscape:window-height="1031"
     id="namedview8"
     showgrid="true"
     inkscape:zoom="9.2708334"
     inkscape:cx="26.85424"
     inkscape:cy="24.131477"
     inkscape:window-x="0"
     inkscape:window-y="24"
     inkscape:window-maximized="1"
     inkscape:current-layer="svg6"
     inkscape:document-rotation="0">
    <inkscape:grid
       type="xygrid"
       id="grid837" />
  </sodipodi:namedview>
  <circle
     cx="23.940615"
     cy="31.534513"
     fill="#74a2f3"
     opacity=".99"
     r="13.232998"
     transform="matrix(1.75830584759 0 0 1.75830608345 -18.15909274367 -30.97874795549)"
     id="circle2"
     style="fill:#d5bd92;fill-opacity:1" />
  <path
     inkscape:connector-curvature="0"
     d="M 10.305176,37.56301 20.540233,24.200426 10.002797,9.5081007 16.775491,9.5136816 25.171936,21.06607 12.617935,37.562351 H 10.305247 Z M 30.338053,37.57251 22,26 34.658965,9.4960925 h 2.25548 L 26.637682,22.921074 37.111862,37.5718 Z"
     id="path1118"
     style="fill:#ffffff;fill-opacity:0.443258;stroke-width:0.872139" />
  <path
     inkscape:connector-curvature="0"
     d="m 23.555696,14.621851 c -0.814273,0 -1.684225,0.06212 -2.467424,0.136205 1.395259,1.793001 2.552925,3.31132 3.885344,5.035685 -0.747818,-1.585706 -2.284815,-3.106312 -1.753458,-3.88828 0.525967,-0.774134 1.495079,-0.643809 1.568903,-0.643809 1.553678,0 3.049314,0.172901 4.447493,0.492898 l 0.327739,-0.444742 c -1.864887,-0.473022 -3.890419,-0.687894 -6.008611,-0.687894 z m 8.415212,1.447046 -0.301866,0.424914 c 4.307843,1.662178 7.221678,4.836987 7.221678,8.475543 0,5.357859 -6.31704,9.704755 -14.101354,9.704755 -7.784732,0 -14.104135,-4.347173 -14.104135,-9.704755 0,-2.917736 1.874133,-5.536799 4.838503,-7.317045 L 14.612353,16.28409 c -4.650124,1.942753 -7.7367679,5.35273 -7.7367679,9.234701 0,6.0402 7.4726189,10.940208 16.6802769,10.940208 9.208353,0 16.683057,-4.899868 16.683057,-10.940208 0,-4.027772 -3.323194,-7.549993 -8.26854,-9.450316 z"
     id="path1120"
     style="fill:#ffffff;fill-opacity:1;stroke-width:0.872139" />
</svg>
