<svg height="48" width="48" xmlns="http://www.w3.org/2000/svg"><rect fill="#9c6a9b" height="43" ry="1.452703" width="43" x="2" y="3"/><g fill="#fbf4ed"><path d="m14.78711 7.585937a8.0045719 8.0045719 0 0 0 -7.783204 7.648438 8.0045719 8.0045719 0 0 0 7.628907 8.349609 8.0045719 8.0045719 0 0 0 3.367187-.583984 8.0045719 8.0045719 0 0 1 -4.996094-7.765625 8.0045719 8.0045719 0 0 1 4.996094-7.056641 8.0045719 8.0045719 0 0 0 -2.660156-.585938 8.0045719 8.0045719 0 0 0 -.552734-.005859z"/><path d="m27 10-1.190983.587785-.190983 1.314328-.927051-.951056-1.309017.224514.618034-1.175571-.618034-1.1755705 1.309017.224514.927051-.9510565.190983 1.3143277z" fill-opacity=".619718"/><path d="m33.190983 15.412215-1.190983.587785-.190983 1.314328-.927051-.951056-1.309017.224514.618034-1.175571-.618034-1.17557 1.309017.224514.927051-.951057.190983 1.314328z" fill-opacity=".619718"/><path d="m39.190983 9.4122143-1.190983.5877852-.190983 1.3143275-.927051-.951056-1.309017.224514.618034-1.1755707-.618034-1.1755705 1.309017.224514.927051-.9510566.190983 1.3143278z" fill-opacity=".619718"/><path d="m39 18-1.190983.587785-.190983 1.314328-.927051-.951056-1.309017.224514.618034-1.175571-.618034-1.175571 1.309017.224514.927051-.951056.190983 1.314328z" fill-opacity=".619718"/></g><path d="m18 30c-5.688173-.298553-16 6-16 6v10h28 15v-10s-7.098787-3.947464-11-4c-2.311177-.03112-6.578125 2.193359-6.578125 2.193359-2.598456-1.712722-6.613679-4.045966-9.421875-4.193359z" fill="#56576a" fill-rule="evenodd"/></svg>