<?xml version="1.0" encoding="UTF-8" standalone="no"?>
<svg
   xmlns:dc="http://purl.org/dc/elements/1.1/"
   xmlns:cc="http://creativecommons.org/ns#"
   xmlns:rdf="http://www.w3.org/1999/02/22-rdf-syntax-ns#"
   xmlns:svg="http://www.w3.org/2000/svg"
   xmlns="http://www.w3.org/2000/svg"
   xmlns:sodipodi="http://sodipodi.sourceforge.net/DTD/sodipodi-0.dtd"
   xmlns:inkscape="http://www.inkscape.org/namespaces/inkscape"
   height="48"
   width="48"
   version="1.1"
   id="svg16"
   sodipodi:docname="yast-remote.svg"
   inkscape:version="0.92.4 (5da689c313, 2019-01-14)">
  <metadata
     id="metadata22">
    <rdf:RDF>
      <cc:Work
         rdf:about="">
        <dc:format>image/svg+xml</dc:format>
        <dc:type
           rdf:resource="http://purl.org/dc/dcmitype/StillImage" />
        <dc:title></dc:title>
      </cc:Work>
    </rdf:RDF>
  </metadata>
  <defs
     id="defs20">
    <radialGradient
       gradientTransform="matrix(3.57049e-7,-0.102549,-0.288309,-1.33269e-7,78.984696,88.973262)"
       r="21.166656"
       fy="189.579361"
       fx="450.908936"
       cy="189.579361"
       cx="450.908936"
       gradientUnits="userSpaceOnUse"
       id="radial0">
      <stop
         id="stop822"
         style="stop-color:rgb(0%,0%,0%);stop-opacity:0.313726;"
         offset="0" />
      <stop
         id="stop824"
         style="stop-color:rgb(0%,0%,0%);stop-opacity:0.27451;"
         offset="0.222222" />
      <stop
         id="stop826"
         style="stop-color:rgb(0%,0%,0%);stop-opacity:0;"
         offset="1" />
    </radialGradient>
    <radialGradient
       gradientTransform="matrix(-3.57049e-7,0.102549,0.288309,1.33269e-7,-31.685907,-4.375346)"
       r="21.166656"
       fy="189.579361"
       fx="450.908936"
       cy="189.579361"
       cx="450.908936"
       gradientUnits="userSpaceOnUse"
       id="radial1">
      <stop
         id="stop829"
         style="stop-color:rgb(0%,0%,0%);stop-opacity:0.313726;"
         offset="0" />
      <stop
         id="stop831"
         style="stop-color:rgb(0%,0%,0%);stop-opacity:0.27451;"
         offset="0.222222" />
      <stop
         id="stop833"
         style="stop-color:rgb(0%,0%,0%);stop-opacity:0;"
         offset="1" />
    </radialGradient>
    <radialGradient
       gradientTransform="matrix(-3.57049e-7,-0.102549,0.288309,-1.33269e-7,-31.685907,88.973262)"
       r="21.166656"
       fy="189.579361"
       fx="450.908936"
       cy="189.579361"
       cx="450.908936"
       gradientUnits="userSpaceOnUse"
       id="radial2">
      <stop
         id="stop836"
         style="stop-color:rgb(0%,0%,0%);stop-opacity:0.313726;"
         offset="0" />
      <stop
         id="stop838"
         style="stop-color:rgb(0%,0%,0%);stop-opacity:0.27451;"
         offset="0.222222" />
      <stop
         id="stop840"
         style="stop-color:rgb(0%,0%,0%);stop-opacity:0;"
         offset="1" />
    </radialGradient>
    <radialGradient
       gradientTransform="matrix(3.57049e-7,0.102549,-0.288309,1.33269e-7,78.984692,-4.375346)"
       r="21.166656"
       fy="189.579361"
       fx="450.908936"
       cy="189.579361"
       cx="450.908936"
       gradientUnits="userSpaceOnUse"
       id="radial3">
      <stop
         id="stop843"
         style="stop-color:rgb(0%,0%,0%);stop-opacity:0.313726;"
         offset="0" />
      <stop
         id="stop845"
         style="stop-color:rgb(0%,0%,0%);stop-opacity:0.27451;"
         offset="0.222222" />
      <stop
         id="stop847"
         style="stop-color:rgb(0%,0%,0%);stop-opacity:0;"
         offset="1" />
    </radialGradient>
    <linearGradient
       gradientTransform="matrix(0.0273881,0,0,0.082039,16.656575,23.142854)"
       y2="254.666656"
       x2="255.323044"
       y1="233.5"
       x1="255.323059"
       gradientUnits="userSpaceOnUse"
       id="linear0">
      <stop
         id="stop850"
         style="stop-color:rgb(0%,0%,0%);stop-opacity:0.27451;"
         offset="0" />
      <stop
         id="stop852"
         style="stop-color:rgb(0%,0%,0%);stop-opacity:0;"
         offset="1" />
    </linearGradient>
    <linearGradient
       gradientTransform="matrix(0.093759,0,0,0.093759,0,20.158175)"
       y2="-168.666672"
       x2="254"
       y1="233.5"
       x1="254"
       gradientUnits="userSpaceOnUse"
       id="linear1">
      <stop
         id="stop855"
         style="stop-color:rgb(100%,43.921569%,26.274511%);stop-opacity:1;"
         offset="0" />
      <stop
         id="stop857"
         style="stop-color:rgb(100%,54.11765%,39.607844%);stop-opacity:1;"
         offset="1" />
    </linearGradient>
    <linearGradient
       gradientTransform="matrix(0.093759,0,0,0.093759,0,20.158175)"
       y2="-84"
       x2="254"
       y1="148.833328"
       x1="254"
       gradientUnits="userSpaceOnUse"
       id="linear2">
      <stop
         id="stop860"
         style="stop-color:rgb(74.117649%,74.117649%,74.117649%);stop-opacity:1;"
         offset="0" />
      <stop
         id="stop862"
         style="stop-color:rgb(87.843138%,87.843138%,87.843138%);stop-opacity:1;"
         offset="1" />
    </linearGradient>
    <linearGradient
       gradientTransform="matrix(0.08461253,0,0,0.08461253,-19.162897,21.468351)"
       y2="-84"
       x2="254"
       y1="148.83333"
       x1="254"
       gradientUnits="userSpaceOnUse"
       id="linear2-3">
      <stop
         id="stop860-6"
         style="stop-color:rgb(74.117649%,74.117649%,74.117649%);stop-opacity:1;"
         offset="0" />
      <stop
         id="stop862-7"
         style="stop-color:rgb(87.843138%,87.843138%,87.843138%);stop-opacity:1;"
         offset="1" />
    </linearGradient>
    <filter
       y="-0.082800001"
       x="-0.082800001"
       width="1.1655999"
       height="1.1655999"
       id="c"
       style="color-interpolation-filters:sRGB">
      <feGaussianBlur
         id="feGaussianBlur10"
         stdDeviation="2.1101835" />
    </filter>
    <filter
       y="-0.015513"
       x="-0.015688"
       width="1.031376"
       height="1.031026"
       id="a"
       style="color-interpolation-filters:sRGB">
      <feGaussianBlur
         id="feGaussianBlur2"
         stdDeviation=".7986332" />
    </filter>
    <clipPath
       clipPathUnits="userSpaceOnUse"
       id="clipPath16">
      <path
         d="m 0,200.303 320,0 L 320,0 0,0 0,200.303 Z"
         id="path18"
         inkscape:connector-curvature="0" />
    </clipPath>
  </defs>
  <sodipodi:namedview
     pagecolor="#ffffff"
     bordercolor="#666666"
     borderopacity="1"
     objecttolerance="10"
     gridtolerance="10"
     guidetolerance="10"
     inkscape:pageopacity="0"
     inkscape:pageshadow="2"
     inkscape:window-width="1920"
     inkscape:window-height="1031"
     id="namedview18"
     showgrid="true"
     inkscape:zoom="4.9166667"
     inkscape:cx="44.184177"
     inkscape:cy="12.457932"
     inkscape:window-x="0"
     inkscape:window-y="25"
     inkscape:window-maximized="1"
     inkscape:current-layer="svg16"
     showguides="false">
    <inkscape:grid
       type="xygrid"
       id="grid829" />
  </sodipodi:namedview>
  <circle
     style="opacity:1;fill:#82b2b7;fill-opacity:1;stroke:none;stroke-width:6;stroke-linecap:round;stroke-linejoin:round;stroke-miterlimit:4;stroke-dasharray:none;stroke-dashoffset:0;stroke-opacity:1;paint-order:fill markers stroke"
     id="path4167"
     cx="23.713203"
     cy="23.985281"
     r="22.684189" />
  <path
     style="opacity:1;fill:#ffffff;fill-opacity:1;stroke-width:1.01989508"
     d="M 18.568359 12.935547 C 17.464897 12.949549 14.98678 13.817172 14.058594 14.583984 C 12.810029 15.615482 11.766327 17.001387 11.142578 18.470703 C 10.752776 19.426434 10.545105 20.933505 10.765625 21.199219 C 10.913311 21.377064 11.895982 21.441406 14.453125 21.441406 C 17.530735 21.441406 17.912066 21.475958 17.699219 21.732422 C 17.503906 21.967731 16.890435 22.023438 14.466797 22.023438 L 11.472656 22.023438 L 11.535156 22.458984 C 11.596679 22.892376 11.620669 22.894926 15.460938 22.947266 L 19.322266 23 L 20.164062 22.173828 L 21.005859 21.347656 L 21.916016 21.830078 C 22.756476 22.275943 23.254347 22.781321 23.503906 23.480469 C 24.047163 23.112305 24.627623 22.796845 25.228516 22.519531 C 25.356071 21.813071 25.559993 21.441406 25.859375 21.441406 C 25.952897 21.441406 26.030903 21.768425 26.033203 22.167969 C 26.033232 22.174947 26.035106 22.178644 26.035156 22.185547 C 27.355208 21.689093 28.777523 21.404252 30.267578 21.404297 C 32.459496 21.404386 34.512895 22.000821 36.289062 23.027344 C 35.085324 18.614377 31.609423 15.303756 26.859375 14.060547 C 25.119862 13.605263 22.124919 13.508137 20.847656 13.865234 C 20.027429 14.094795 20.023438 14.097644 20.023438 15.017578 C 20.023437 15.868589 19.784556 16.404297 19.404297 16.404297 C 19.319075 16.404297 19.25 15.660964 19.25 14.751953 C 19.25 13.436439 19.188705 13.076275 18.949219 12.984375 C 18.85621 12.948683 18.725997 12.933547 18.568359 12.935547 z M 21.896484 22.697266 C 21.675701 22.663816 21.474223 22.812055 21.011719 23.263672 C 20.335126 23.924276 20.23199 23.960938 18.986328 23.960938 C 17.735472 23.960937 17.675465 23.981248 17.734375 24.396484 C 17.790037 24.788372 17.919516 24.838525 19.015625 24.890625 C 20.116133 24.94288 20.252115 24.996144 20.419922 25.4375 C 20.535374 25.741163 20.725157 25.873394 20.898438 25.867188 C 21.016461 25.722635 21.145087 25.58813 21.269531 25.449219 C 21.280714 25.391879 21.291845 25.333997 21.292969 25.265625 C 21.298288 24.942816 21.541802 24.489815 21.921875 24.097656 C 22.649283 23.347194 22.692626 23.085664 22.134766 22.787109 C 22.046357 22.739799 21.970079 22.708416 21.896484 22.697266 z "
     id="path1104-7" />
  <path
     inkscape:connector-curvature="0"
     style="opacity:1;fill:#ffffff;fill-opacity:1;stroke:none;stroke-width:1.05352247;stroke-linecap:round;stroke-linejoin:round;stroke-miterlimit:4;stroke-dasharray:none;stroke-dashoffset:0;stroke-opacity:0.03831416;paint-order:fill markers stroke"
     d="M 30.268046,22.903339 A 10.595428,10.595428 0 0 0 19.672297,33.499089 10.595428,10.595428 0 0 0 30.268046,44.094085 10.595428,10.595428 0 0 0 40.863041,33.499089 10.595428,10.595428 0 0 0 30.268046,22.903339 Z m -0.153279,5.403206 c 2.696348,0 5.252361,1.084749 7.197986,3.053461 0.365861,0.370221 0.378545,0.984066 0.02795,1.370433 -0.180507,0.198114 -0.421874,0.299003 -0.662941,0.299003 v 0.0015 c -0.228235,0 -0.456946,-0.0899 -0.635005,-0.269557 -1.602395,-1.621795 -3.707024,-2.515103 -5.927974,-2.515103 -2.225231,0 -4.330622,0.891632 -5.928725,2.512083 -0.365266,0.370221 -0.946756,0.357961 -1.29795,-0.0302 -0.351206,-0.386235 -0.339299,-0.999457 0.02567,-1.369678 1.94196,-1.968112 4.499157,-3.05195 7.201003,-3.05195 z m 0,3.231654 c 1.954199,0 3.793771,0.801808 5.178955,2.256873 0.359761,0.37722 0.360987,0.990511 0.0039,1.370432 -0.179254,0.189116 -0.415314,0.286169 -0.65086,0.286169 h -7.73e-4 c -0.23434,0 -0.468443,-0.09477 -0.647087,-0.282392 -1.038892,-1.091303 -2.418073,-1.692088 -3.884027,-1.692088 -1.469002,0 -2.848471,0.599625 -3.885535,1.688311 -0.359163,0.377235 -0.940645,0.375089 -1.297948,-0.0045 -0.35731,-0.379222 -0.356131,-0.992357 0.0039,-1.369679 1.382739,-1.452509 3.222458,-2.253098 5.179707,-2.253098 z m 0,3.231655 c 1.206529,0 2.363741,0.542063 3.175025,1.486712 0.340802,0.396743 0.312199,1.009063 -0.06342,1.368925 -0.175002,0.1686 -0.39585,0.251434 -0.616129,0.251434 -0.249644,0 -0.4992,-0.10729 -0.680306,-0.317881 -0.464377,-0.541467 -1.125624,-0.850952 -1.815166,-0.850952 -0.701155,0 -1.34499,0.300659 -1.813651,0.846421 -0.34015,0.397237 -0.920156,0.427894 -1.296438,0.0672 -0.37567,-0.359699 -0.405029,-0.97284 -0.06418,-1.368925 0.808841,-0.942704 1.965905,-1.482935 3.174269,-1.482935 z M 30,38 c 0.612293,0 1.108428,0.497279 1.108428,1.11069 0,0.613457 -0.496146,1.110694 -1.108428,1.110694 -0.6123,0 -1.108427,-0.497237 -1.108427,-1.110694 C 28.891573,38.497279 29.387715,38 30,38 Z"
     id="path1600-5" />
</svg>
