<svg height="48" width="48" xmlns="http://www.w3.org/2000/svg"><rect fill="#b277cb" height="43" ry="1.452703" width="43" x="2" y="3"/><path d="m23.5 3h20.047297c.804798 0 1.452703.6479055 1.452703 1.4527029v20.0472971h-21.5z" fill="#6dc8bd"/><path d="m45 24.5v20.047297c0 .804798-.647905 1.452703-1.452703 1.452703h-40.0945941c-.8047974 0-1.4527029-.647905-1.4527029-1.452703v-20.047297z" fill="#6dc8bd"/><path d="m45 24.5v20.047297c0 .804798-.647905 1.452703-1.452703 1.452703h-20.047297v-21.5z" fill="#7870c9"/><path d="m9 10v29h29v-29zm2.044922 3.712891h2.625l2.02539 5.265625h.050782l2.050781-5.265625h2.607422l-3.509766 7.916015v4.371094h-2.396484v-4.523438zm9.80664 0h7.917969v1.923828h-2.769531v10.363281h-2.396484v-10.363281h-2.751954zm-8.851562 17.287109h12v2h-12z" fill="#fff"/></svg>