<?xml version="1.0" encoding="UTF-8" standalone="no"?>
<svg
   xmlns:dc="http://purl.org/dc/elements/1.1/"
   xmlns:cc="http://creativecommons.org/ns#"
   xmlns:rdf="http://www.w3.org/1999/02/22-rdf-syntax-ns#"
   xmlns:svg="http://www.w3.org/2000/svg"
   xmlns="http://www.w3.org/2000/svg"
   xmlns:sodipodi="http://sodipodi.sourceforge.net/DTD/sodipodi-0.dtd"
   xmlns:inkscape="http://www.inkscape.org/namespaces/inkscape"
   height="48"
   width="48"
   version="1.1"
   id="svg20"
   sodipodi:docname="yubikey-neo-manager.svg"
   inkscape:version="1.0.2 (e86c870879, 2021-01-15)">
  <metadata
     id="metadata26">
    <rdf:RDF>
      <cc:Work
         rdf:about="">
        <dc:format>image/svg+xml</dc:format>
        <dc:type
           rdf:resource="http://purl.org/dc/dcmitype/StillImage" />
        <dc:title></dc:title>
      </cc:Work>
    </rdf:RDF>
  </metadata>
  <defs
     id="defs24" />
  <sodipodi:namedview
     pagecolor="#ffffff"
     bordercolor="#666666"
     borderopacity="1"
     objecttolerance="10"
     gridtolerance="10"
     guidetolerance="10"
     inkscape:pageopacity="0"
     inkscape:pageshadow="2"
     inkscape:window-width="1920"
     inkscape:window-height="1031"
     id="namedview22"
     showgrid="false"
     inkscape:zoom="13.110938"
     inkscape:cx="52.319362"
     inkscape:cy="31.546628"
     inkscape:window-x="0"
     inkscape:window-y="24"
     inkscape:window-maximized="1"
     inkscape:current-layer="svg20"
     inkscape:document-rotation="0" />
  <path
     d="m44.322082 27.405077a19.729762 19.729765 0 0 1 -19.729762 19.729765 19.729762 19.729765 0 0 1 -19.7297621-19.729765 19.729762 19.729765 0 0 1 19.7297621-19.7297632 19.729762 19.729765 0 0 1 19.729762 19.7297632z"
     fill="#9d93ac"
     opacity=".99"
     transform="matrix(1.1503549 0 0 1.1503549 -4.486125 -7.525565)"
     id="path2"
     style="fill:#96c3aa;fill-opacity:1" />
  <path
     style="isolation:isolate;fill:#feffff;fill-opacity:1;stroke-width:0.157618"
     inkscape:connector-curvature="0"
     d="m 23.481587,35.430724 -4.376424,0.0067 2.518716,-6.51973 -6.24874,-16.329338 4.311487,-0.0067 3.645265,9.557868 v 0 q 0.292825,0.712777 0.488545,1.522786 v 0 0 q 0.06439,-0.259365 0.483959,-1.52426 v 0 l 3.616521,-9.568773 4.311486,-0.0067 z"
     id="path1040-7-1" />
  <circle
     style="fill:#96c3aa;fill-opacity:0.99215686;stroke-width:1.16969"
     id="path1654"
     cx="32.358425"
     cy="32.290138"
     r="11.012547" />
  <circle
     style="fill:#ffffff;fill-opacity:1;stroke-width:0.960757"
     id="circle1656"
     cx="32.358425"
     cy="32.290138"
     r="9.0455179" />
  <path
     id="path1060-2-3-8"
     d="M 37.280343,26.172113 V 39.0434 h -2.004242 l -5.332388,-8.127298 v 0 q -0.257427,-0.386137 -0.533239,-0.956145 v 0 0 q 0.05515,0.441301 0.05515,0.956145 v 0 8.127298 H 27.27751 V 26.172113 h 2.132956 l 5.203676,7.998592 v 0 q 0.183873,0.275808 0.533237,0.974539 v 0 0 q -0.05515,-0.496466 -0.05515,-0.974539 v 0 -7.998592 z"
     inkscape:connector-curvature="0"
     style="isolation:isolate;fill:#96c4aa;fill-opacity:1;stroke-width:0.183875" />
</svg>
