<svg height="48" width="48" xmlns="http://www.w3.org/2000/svg"><path d="m44.322082 27.405077a19.729762 19.729765 0 0 1 -19.729762 19.729765 19.729762 19.729765 0 0 1 -19.7297621-19.729765 19.729762 19.729765 0 0 1 19.7297621-19.7297632 19.729762 19.729765 0 0 1 19.729762 19.7297632z" fill="#73517c" opacity=".99" transform="matrix(1.1503549 0 0 1.1503549 -4.486125 -7.525565)"/><g fill="#fff"><path d="m24.187499 12c-5.817195 0-9.395989 1.983576-11.61035 4.427491a4.2187499 4.2187499 0 0 1 1.138183-.160401 4.2187499 4.2187499 0 0 1 4.218749 4.21875 4.2187499 4.2187499 0 0 1 -4.218749 4.21875 4.2187499 4.2187499 0 0 1 -4.0451661-3.034424c-.6556568 2.157083-.6701659 3.829834-.6701659 3.829834 9.385132 1.93156 19.273139 2.550272 30.374999 0 0 0-.0075-1.843003-.77124-4.163818a4.2187499 4.2187499 0 0 1 -4.104491 3.269531 4.2187499 4.2187499 0 0 1 -4.21875-4.218751 4.2187499 4.2187499 0 0 1 4.21875-4.21875 4.2187499 4.2187499 0 0 1 1.23706.188965c-2.219279-2.411798-5.786969-4.357177-11.548829-4.357177zm.118653 1.384277a4.4673422 4.4673422 0 0 1 4.467041 4.467041 4.4673422 4.4673422 0 0 1 -4.467041 4.467042 4.4673422 4.4673422 0 0 1 -4.46704-4.467042 4.4673422 4.4673422 0 0 1 4.46704-4.467041z" fill-rule="evenodd"/><path d="m12.374999 25.5v6.75c0 1.869749 1.505251 3.374999 3.375001 3.374999h16.874999c1.869751 0 3.375001-1.50525 3.375001-3.374999v-6.75zm5.053712 3.374999a1.6874999 1.6874999 0 0 1 1.6875 1.687501 1.6874999 1.6874999 0 0 1 -1.6875 1.6875 1.6874999 1.6874999 0 0 1 -1.6875-1.6875 1.6874999 1.6874999 0 0 1 1.6875-1.687501zm13.546142 0a1.6874999 1.6874999 0 0 1 1.6875 1.687501 1.6874999 1.6874999 0 0 1 -1.6875 1.6875 1.6874999 1.6874999 0 0 1 -1.6875-1.6875 1.6874999 1.6874999 0 0 1 1.6875-1.687501z" fill-opacity=".379562"/></g></svg>