<?xml version="1.0" encoding="UTF-8" standalone="no"?>
<svg
   style="isolation:isolate"
   width="110"
   height="110"
   version="1.1"
   id="svg45"
   sodipodi:docname="applogo.svg"
   inkscape:version="1.1.1 (3bf5ae0d25, 2021-09-20, custom)"
   xmlns:inkscape="http://www.inkscape.org/namespaces/inkscape"
   xmlns:sodipodi="http://sodipodi.sourceforge.net/DTD/sodipodi-0.dtd"
   xmlns:xlink="http://www.w3.org/1999/xlink"
   xmlns="http://www.w3.org/2000/svg"
   xmlns:svg="http://www.w3.org/2000/svg">
  <sodipodi:namedview
     id="namedview47"
     pagecolor="#32302f"
     bordercolor="#eeeeee"
     borderopacity="1"
     inkscape:pageshadow="0"
     inkscape:pageopacity="0"
     inkscape:pagecheckerboard="0"
     showgrid="false"
     inkscape:zoom="4.938699"
     inkscape:cx="26.120239"
     inkscape:cy="58.416194"
     inkscape:window-width="1920"
     inkscape:window-height="952"
     inkscape:window-x="0"
     inkscape:window-y="0"
     inkscape:window-maximized="1"
     inkscape:current-layer="svg45" />
  <defs
     id="defs13">
    <filter
       id="a"
       width="1.0842484"
       height="1.1077841"
       x="-0.042124196"
       y="-0.045133094"
       color-interpolation-filters="sRGB"
       filterUnits="objectBoundingBox">
      <feGaussianBlur
         in="SourceGraphic"
         stdDeviation="4.294"
         id="feGaussianBlur2" />
      <feOffset
         dy="4"
         result="pf_100_offsetBlur"
         id="feOffset4" />
      <feFlood
         flood-opacity=".4"
         id="feFlood6" />
      <feComposite
         in2="pf_100_offsetBlur"
         operator="in"
         result="pf_100_dropShadow"
         id="feComposite8" />
      <feBlend
         in="SourceGraphic"
         in2="pf_100_dropShadow"
         id="feBlend10"
         mode="normal" />
    </filter>
    <linearGradient
       inkscape:collect="always"
       id="linearGradient4166">
      <stop
         style="stop-color:#c35781;stop-opacity:1"
         offset="0"
         id="stop4168" />
      <stop
         style="stop-color:#25458b;stop-opacity:1"
         offset="1"
         id="stop4170" />
    </linearGradient>
    <linearGradient
       inkscape:collect="always"
       id="linearGradient4205">
      <stop
         style="stop-color:#bf73d3;stop-opacity:1"
         offset="0"
         id="stop4207" />
      <stop
         style="stop-color:#ff8428;stop-opacity:1"
         offset="1"
         id="stop4209" />
    </linearGradient>
    <linearGradient
       inkscape:collect="always"
       id="linearGradient4160">
      <stop
         style="stop-color:#dca11f;stop-opacity:1"
         offset="0"
         id="stop4162" />
      <stop
         style="stop-color:#eab3b3;stop-opacity:1"
         offset="1"
         id="stop4164" />
    </linearGradient>
    <linearGradient
       inkscape:collect="always"
       xlink:href="#linearGradient4166"
       id="linearGradient4172-3"
       x1="1037.0122"
       y1="589.11401"
       x2="1043.105"
       y2="108.17625"
       gradientUnits="userSpaceOnUse"
       gradientTransform="matrix(0.30291929,0,0,0.30782519,-154.45397,-13.827168)" />
    <linearGradient
       inkscape:collect="always"
       xlink:href="#linearGradient4205"
       id="linearGradient4211-5"
       x1="1090.6018"
       y1="651.76404"
       x2="1082.9858"
       y2="414.90842"
       gradientUnits="userSpaceOnUse"
       gradientTransform="matrix(0.30291929,0,0,0.30782519,-154.45397,-13.827168)" />
    <linearGradient
       inkscape:collect="always"
       xlink:href="#linearGradient4160"
       id="linearGradient4167-6"
       x1="843.57886"
       y1="376.56763"
       x2="821.90533"
       y2="536.67523"
       gradientUnits="userSpaceOnUse"
       gradientTransform="matrix(0.30291929,0,0,0.30782519,-154.45397,-13.827168)" />
    <linearGradient
       inkscape:collect="always"
       xlink:href="#linearGradient4160"
       id="linearGradient3940"
       x1="99.401703"
       y1="1.7003965"
       x2="79.639793"
       y2="32.877888"
       gradientUnits="userSpaceOnUse"
       gradientTransform="matrix(2.1955977,0,0,1.6227993,13.014103,33.991066)" />
    <linearGradient
       inkscape:collect="always"
       xlink:href="#linearGradient4166"
       id="linearGradient4848"
       x1="126.84282"
       y1="13.128123"
       x2="129.45204"
       y2="238.80434"
       gradientUnits="userSpaceOnUse" />
  </defs>
  <defs
     id="defs28">
    <filter
       id="b"
       width="1.1241639"
       height="1.1482602"
       x="-0.062081929"
       y="-0.062081929"
       color-interpolation-filters="sRGB"
       filterUnits="objectBoundingBox">
      <feGaussianBlur
         in="SourceGraphic"
         stdDeviation="4.294"
         id="feGaussianBlur17" />
      <feOffset
         dy="4"
         result="pf_100_offsetBlur"
         id="feOffset19" />
      <feFlood
         flood-opacity=".4"
         id="feFlood21" />
      <feComposite
         in2="pf_100_offsetBlur"
         operator="in"
         result="pf_100_dropShadow"
         id="feComposite23" />
      <feBlend
         in="SourceGraphic"
         in2="pf_100_dropShadow"
         id="feBlend25"
         mode="normal" />
    </filter>
  </defs>
  <g
     id="g1806">
    <path
       fill="#1a1a1a"
       d="m 165.685,11.947 c 74.055,0 84.639,10.557 84.639,84.544 v 59.251 c 0,73.986 -10.584,84.543 -84.639,84.543 H 90.315 C 16.26,240.285 5.676,229.728 5.676,155.742 V 96.491 c 0,-73.987 10.584,-84.544 84.639,-84.544 z"
       filter="url(#a)"
       id="path15"
       transform="matrix(0.42366122,0,0,0.43854694,0.98136253,-0.06981028)"
       style="fill:#131414;fill-opacity:1" />
    <g
       id="g905"
       style="isolation:isolate"
       transform="matrix(0.48066364,0,0,0.48068752,-7.1222058,-0.9560483)">
      <ellipse
         style="display:inline;fill:url(#linearGradient4172-3);fill-opacity:1;stroke:none;stroke-width:0.305362"
         id="path4164-1"
         cx="126.45231"
         cy="118.72811"
         rx="80.188759"
         ry="81.48745" />
      <path
         style="display:inline;fill:url(#linearGradient4211-5);fill-opacity:1;fill-rule:evenodd;stroke:none;stroke-width:0.305362px;stroke-linecap:butt;stroke-linejoin:miter;stroke-opacity:1"
         d="m 172.83684,151.57368 11.55468,4.84527 4.77725,-1.84288 4.34895,1.58762 c 0,0 -2.8711,5.25864 -4.37456,7.39659 -5.60471,7.96997 -15.46572,15.92222 -15.46572,15.92222 l -12.12392,-21.89094 z"
         id="path4201-2"
         inkscape:connector-curvature="0"
         sodipodi:nodetypes="ccccsccc" />
      <path
         style="display:inline;fill:url(#linearGradient4167-6);fill-opacity:1;fill-rule:evenodd;stroke:none;stroke-width:0.191269px;stroke-linecap:butt;stroke-linejoin:miter;stroke-opacity:1"
         d="M 98.213879,95.895943 C 85.654985,94.813035 62.173612,112.44288 51.630525,129.38154 c 5.165728,38.45978 37.091476,67.11636 74.821675,67.16001 17.16715,-0.005 33.82164,-6.02136 47.22524,-17.05905 -1.45852,-11.37425 -6.46091,-22.17579 -19.05553,-36.89573 C 139.25438,124.34136 115.64283,98.850607 98.213879,95.895943 Z"
         id="path3342-7"
         inkscape:connector-curvature="0"
         sodipodi:nodetypes="cccccc" />
      <path
         style="display:inline;fill:#000000;fill-rule:evenodd;stroke:none;stroke-width:0.305362px;stroke-linecap:butt;stroke-linejoin:miter;stroke-opacity:1"
         d="m 123.36621,66.69162 c -2.46458,0.02761 -5.0379,0.217 -7.74397,0.620458 -19.567721,2.917473 -32.104132,10.771597 -48.165949,30.469882 -6.525867,8.00335 -12.293184,17.64974 -16.418585,25.05469 0.143269,2.734 0.426661,5.45832 0.849008,8.16158 11.271583,-15.85097 42.652238,-39.287715 49.717216,-28.95542 8.08893,11.82978 -15.212735,28.27212 -12.084819,32.7413 3.351585,4.78879 18.030739,-2.8109 31.653879,-3.80512 15.20917,-1.10996 23.28953,3.67234 33.44892,11.60778 -2.5586,-4.90606 -4.23662,-8.48946 -5.20997,-12.00759 -2.02319,-7.31292 3.3768,-14.11027 5.39633,-18.11238 3.20864,-6.35848 5.91083,-15.217063 10.68087,-19.999024 8.34852,-8.369425 22.92329,-12.701077 35.8007,-17.043416 4.03004,-1.358951 7.60237,-1.071164 11.80555,-2.006875 -3.90087,-2.212617 -8.76988,-3.032221 -12.74688,-3.092086 -21.20038,-0.3191 -34.1204,2.945488 -42.67611,1.99846 -10.85133,-1.201126 -20.99747,-5.781294 -34.30619,-5.632239 z"
         id="path3481-0"
         inkscape:connector-curvature="0"
         sodipodi:nodetypes="sssccssscsssscsss" />
      <ellipse
         style="display:inline;fill:#b3b3b3;fill-opacity:1;stroke:none;stroke-width:0.285265"
         id="path3485-9"
         cx="142.11485"
         cy="62.786037"
         rx="5.6059322"
         ry="5.6390743"
         transform="matrix(0.9797281,0.20033186,-0.19423998,0.98095404,0,0)" />
      <path
         style="display:inline;fill:#000000;fill-rule:evenodd;stroke:#000000;stroke-width:0.305362px;stroke-linecap:butt;stroke-linejoin:miter;stroke-opacity:1"
         d="m 72.924219,141.63262 c -3.598862,-0.065 -12.233988,3.89697 -16.6576,5.96832 a 75.61877,77.813701 0 0 0 8.467537,15.92334 c 2.544375,-10.91258 11.348978,-18.48765 9.663244,-21.31088 -0.233119,-0.39041 -0.749578,-0.56771 -1.473181,-0.58078 z"
         id="path4152-3"
         inkscape:connector-curvature="0" />
      <ellipse
         style="display:inline;fill:#ffffff;fill-opacity:1;stroke:none;stroke-width:0.305362;stroke-opacity:1"
         id="path4181-6"
         cx="107.35871"
         cy="56.172333"
         rx="1.0545405"
         ry="1.0716192" />
      <ellipse
         cy="52.263023"
         cx="113.4973"
         id="circle4187-0"
         style="display:inline;fill:#acaad1;fill-opacity:1;stroke:none;stroke-width:0.305362;stroke-opacity:1"
         rx="0.7453323"
         ry="0.75740319" />
      <ellipse
         style="display:inline;fill:#7572b2;fill-opacity:1;stroke:none;stroke-width:0.305362;stroke-opacity:1"
         id="circle4213-6"
         cx="159.8069"
         cy="62.861492"
         rx="0.7453323"
         ry="0.75740319" />
      <path
         sodipodi:nodetypes="csccc"
         inkscape:connector-curvature="0"
         id="path4068-2"
         d="m 150.26856,87.383878 c -2.25028,3.008399 3.36444,4.932692 7.23403,-0.09328 6.16028,-8.001342 37.02804,-12.845301 47.76612,-14.73418 -18.37158,1.662694 -42.77044,4.534045 -55.00015,14.82753 z"
         style="display:inline;isolation:isolate;fill:url(#linearGradient3940);fill-opacity:1;fill-rule:evenodd;stroke:none;stroke-width:0.200585px;stroke-linecap:butt;stroke-linejoin:miter;stroke-opacity:1" />
    </g>
    <g
       opacity="0.4"
       id="g43"
       transform="matrix(0.4234203,0,0,0.43833657,0.98508407,0.03199066)"
       style="opacity:0.5;fill:#3d3835;fill-opacity:1">
      <linearGradient
         id="c"
         x1="0.51700002"
         x2="0.51700002"
         y2="1"
         gradientTransform="matrix(244.65,0,0,228.34,5.68,11.95)"
         gradientUnits="userSpaceOnUse"
         style="fill:url(#linearGradient4848);fill-opacity:1">
        <stop
           offset="0%"
           stop-color="#ffffff"
           id="stop32"
           style="fill-opacity:1.0;fill:url(#linearGradient4848)" />
        <stop
           offset="12.5%"
           stop-color="#ffffff"
           stop-opacity=".098"
           id="stop34"
           style="fill-opacity:1.0;fill:url(#linearGradient4848)" />
        <stop
           offset="92.5%"
           stop-opacity=".098"
           id="stop36"
           style="fill-opacity:1.0;fill:url(#linearGradient4848)" />
        <stop
           offset="100%"
           stop-opacity=".498"
           id="stop38"
           style="fill-opacity:1.0;fill:url(#linearGradient4848)" />
      </linearGradient>
      <path
         fill="url(#c)"
         fill-rule="evenodd"
         d="m 165.068,11.951 c 4.328,-0.01 8.656,0.04 12.984,0.138 3.875,0.078 7.75,0.226 11.626,0.452 3.453,0.196 6.905,0.481 10.348,0.854 3.06,0.335 6.118,0.786 9.148,1.346 a 80.47,80.47 0 0 1 8.046,1.916 53.64,53.64 0 0 1 7.023,2.584 40.413,40.413 0 0 1 6.06,3.35 35.176,35.176 0 0 1 5.134,4.215 35.072,35.072 0 0 1 4.22,5.119 41.692,41.692 0 0 1 3.363,6.042 55.982,55.982 0 0 1 2.597,7.005 80.224,80.224 0 0 1 1.918,8.037 124.43,124.43 0 0 1 1.348,9.127 c 0.374,3.439 0.659,6.878 0.856,10.326 0.226,3.861 0.373,7.732 0.462,11.593 0.088,4.323 0.138,8.646 0.128,12.96 v 58.21 c 0.01,4.324 -0.04,8.637 -0.128,12.96 a 325.177,325.177 0 0 1 -0.462,11.593 200.984,200.984 0 0 1 -0.856,10.326 124.691,124.691 0 0 1 -1.348,9.137 80.687,80.687 0 0 1 -1.918,8.027 55.414,55.414 0 0 1 -2.597,7.005 41.18,41.18 0 0 1 -3.364,6.042 34.559,34.559 0 0 1 -4.22,5.119 35.177,35.177 0 0 1 -5.134,4.215 40.412,40.412 0 0 1 -6.059,3.35 55.138,55.138 0 0 1 -7.023,2.594 77.806,77.806 0 0 1 -8.046,1.906 120,120 0 0 1 -9.148,1.346 c -3.443,0.373 -6.895,0.658 -10.348,0.854 -3.875,0.226 -7.75,0.374 -11.626,0.462 -4.328,0.088 -8.656,0.138 -12.984,0.128 H 90.942 c -4.328,0.01 -8.656,-0.04 -12.984,-0.128 a 328.387,328.387 0 0 1 -11.626,-0.462 203.003,203.003 0 0 1 -10.348,-0.854 120,120 0 0 1 -9.148,-1.346 77.806,77.806 0 0 1 -8.046,-1.906 55.139,55.139 0 0 1 -7.023,-2.594 40.413,40.413 0 0 1 -6.06,-3.35 35.176,35.176 0 0 1 -5.134,-4.215 34.56,34.56 0 0 1 -4.22,-5.119 41.183,41.183 0 0 1 -3.363,-6.042 55.415,55.415 0 0 1 -2.597,-7.005 80.682,80.682 0 0 1 -1.918,-8.027 124.688,124.688 0 0 1 -1.348,-9.137 200.993,200.993 0 0 1 -0.856,-10.326 325.212,325.212 0 0 1 -0.462,-11.593 569.197,569.197 0 0 1 -0.128,-12.96 v -58.21 c -0.01,-4.314 0.04,-8.637 0.128,-12.96 0.089,-3.86 0.236,-7.732 0.462,-11.593 0.197,-3.448 0.482,-6.887 0.856,-10.326 0.335,-3.055 0.787,-6.101 1.348,-9.127 a 80.219,80.219 0 0 1 1.918,-8.037 55.983,55.983 0 0 1 2.597,-7.005 41.695,41.695 0 0 1 3.364,-6.042 35.072,35.072 0 0 1 4.22,-5.119 35.176,35.176 0 0 1 5.134,-4.215 40.413,40.413 0 0 1 6.059,-3.35 53.64,53.64 0 0 1 7.023,-2.584 80.47,80.47 0 0 1 8.046,-1.916 125.11,125.11 0 0 1 9.148,-1.346 c 3.443,-0.373 6.895,-0.658 10.348,-0.854 3.875,-0.226 7.75,-0.374 11.626,-0.452 4.328,-0.098 8.656,-0.148 12.984,-0.138 z m 0.01,4.009 c 4.298,-0.01 8.597,0.039 12.895,0.127 3.827,0.089 7.653,0.236 11.48,0.452 3.383,0.197 6.766,0.472 10.13,0.845 2.971,0.315 5.932,0.747 8.863,1.297 a 75.943,75.943 0 0 1 7.653,1.818 50.493,50.493 0 0 1 6.501,2.397 37.038,37.038 0 0 1 5.47,3.026 30.383,30.383 0 0 1 4.524,3.724 31.05,31.05 0 0 1 3.738,4.519 37.271,37.271 0 0 1 3.03,5.443 51.46,51.46 0 0 1 2.4,6.494 75.563,75.563 0 0 1 1.829,7.634 c 0.54,2.928 0.974,5.875 1.298,8.842 0.374,3.36 0.65,6.73 0.846,10.11 0.217,3.822 0.374,7.634 0.453,11.456 0.088,4.293 0.137,8.577 0.137,12.87 v 58.212 c 0,4.293 -0.049,8.577 -0.137,12.87 a 317.503,317.503 0 0 1 -0.453,11.456 c -0.196,3.38 -0.472,6.75 -0.846,10.12 a 121.689,121.689 0 0 1 -1.298,8.832 75.562,75.562 0 0 1 -1.83,7.634 50.902,50.902 0 0 1 -2.4,6.494 36.767,36.767 0 0 1 -3.03,5.443 30.615,30.615 0 0 1 -3.737,4.53 30.938,30.938 0 0 1 -4.525,3.713 37.038,37.038 0 0 1 -5.469,3.026 49.07,49.07 0 0 1 -6.501,2.397 75.942,75.942 0 0 1 -7.653,1.818 c -2.931,0.55 -5.892,0.982 -8.863,1.306 -3.364,0.364 -6.747,0.649 -10.13,0.836 -3.827,0.216 -7.653,0.373 -11.48,0.452 -4.298,0.098 -8.597,0.137 -12.895,0.137 H 90.932 c -4.298,0 -8.597,-0.04 -12.895,-0.137 a 320.093,320.093 0 0 1 -11.48,-0.452 193.696,193.696 0 0 1 -10.13,-0.836 116.71,116.71 0 0 1 -8.863,-1.306 75.942,75.942 0 0 1 -7.653,-1.818 49.07,49.07 0 0 1 -6.501,-2.397 37.038,37.038 0 0 1 -5.47,-3.026 30.938,30.938 0 0 1 -4.524,-3.714 30.615,30.615 0 0 1 -3.738,-4.529 36.766,36.766 0 0 1 -3.03,-5.443 50.903,50.903 0 0 1 -2.4,-6.494 75.567,75.567 0 0 1 -1.829,-7.634 121.69,121.69 0 0 1 -1.298,-8.832 c -0.374,-3.37 -0.65,-6.74 -0.846,-10.12 A 317.535,317.535 0 0 1 9.822,168.096 623.851,623.851 0 0 1 9.685,155.226 V 97.014 c 0,-4.293 0.049,-8.577 0.137,-12.87 0.079,-3.822 0.236,-7.634 0.453,-11.456 0.197,-3.38 0.472,-6.75 0.846,-10.11 0.324,-2.967 0.757,-5.914 1.298,-8.842 a 75.568,75.568 0 0 1 1.83,-7.634 51.46,51.46 0 0 1 2.4,-6.494 37.27,37.27 0 0 1 3.03,-5.443 31.05,31.05 0 0 1 3.737,-4.52 30.384,30.384 0 0 1 4.525,-3.723 37.039,37.039 0 0 1 5.469,-3.026 50.494,50.494 0 0 1 6.501,-2.397 75.943,75.943 0 0 1 7.653,-1.818 c 2.931,-0.55 5.892,-0.982 8.863,-1.297 3.364,-0.373 6.747,-0.648 10.13,-0.845 a 344.71,344.71 0 0 1 11.48,-0.452 c 4.298,-0.088 8.597,-0.137 12.895,-0.127 z"
         id="path41"
         style="fill:#3d3835;fill-opacity:1" />
    </g>
  </g>
</svg>
