<svg width="22" height="22" version="1.1" xmlns="http://www.w3.org/2000/svg">
 <defs>
  <style id="current-color-scheme" type="text/css">.ColorScheme-Text { color:#5d656b; } .ColorScheme-Highlight { color:#5294e2; }</style>
 </defs>
 <path class="ColorScheme-Text" d="m8.0237 4.0001a1.0001 1.0001 0 0 0-0.91797 0.55273l-4 8a1.0001 1.0001 0 0 0 0 0.89453l2 4a1.0001 1.0001 0 0 0 1.4531 0.38086 1.0001 1.0001 0 0 0 0.55859 0.17188h8.8828a1.0001 1.0001 0 0 0 0.83203-0.44531l2-3a1.0001 1.0001 0 0 0 0.0332-1.0547 1.0001 1.0001 0 0 0-0.01758-1.0293l-5-8a1.0001 1.0001 0 0 0-0.84766-0.4707h-4a1.0001 1.0001 0 0 0-0.5 0.13477 1.0001 1.0001 0 0 0-0.47656-0.13477zm-0.023438 1 2.1602 3.7363-4.1602 8.2637-2-4zm1 0h4l5 8h-4zm1.7793 4.7324 2.043 3.2676h-3.6875zm-2.1621 4.2676h9.3828l-2 3h-8.8828z" fill="currentColor"/>
 <path class="ColorScheme-Text" d="m8 5-4 8 2 4 4.161-8.2627zm1 0 5 8h4l-5-8zm-0.38281 9-1.5 3h8.8828l2-3z" fill="currentColor" opacity=".25"/>
</svg>
