<svg width="22" height="22" version="1.1" xmlns="http://www.w3.org/2000/svg">
 <defs>
  <style id="current-color-scheme" type="text/css">.ColorScheme-Text { color:#5d656b; } .ColorScheme-Highlight { color:#5294e2; }</style>
 </defs>
 <g class="ColorScheme-Text" fill="currentColor">
  <g class="ColorScheme-Text" fill="currentColor" transform="translate(2.998,3)">
   <rect x=".5" y=".5" width="15" height="15" rx="2" ry="2" opacity=".25"/>
   <path d="m2.502 0c-1.3762 0-2.5 1.1237-2.5 2.5v11c0 1.3763 1.1238 2.5 2.5 2.5h11c1.3762 0 2.5-1.1237 2.5-2.5v-11c0-1.3763-1.1238-2.5-2.5-2.5zm0 1h11c0.83943 0 1.5 0.66025 1.5 1.5v11c0 0.83975-0.66057 1.5-1.5 1.5h-11c-0.83943 0-1.5-0.66025-1.5-1.5v-3.5h13.996v-1h-13.996v-2h13.996v-1h-13.996v-3.5c0-0.83975 0.66057-1.5 1.5-1.5zm-0.5 1.0039v3h1v-3zm2 0v3h1v-3zm2 1v1h4v-1zm5.4941 0a0.49993 0.50001 0 0 0-0.5 0.5 0.49993 0.50001 0 0 0 0.5 0.5 0.49993 0.50001 0 0 0 0.5-0.5 0.49993 0.50001 0 0 0-0.5-0.5zm-9.4941 7.9922v3h1v-3zm2 0v3h1v-3zm1.998 1v1h4v-1zm5.4961 0a0.49993 0.50001 0 0 0-0.5 0.5 0.49993 0.50001 0 0 0 0.5 0.5 0.49993 0.50001 0 0 0 0.5-0.5 0.49993 0.50001 0 0 0-0.5-0.5z"/>
   <g class="ColorScheme-Text" fill="currentColor" fill-opacity="0">
    <path d="m2.3258 0.99648c-0.73102 0-1.3182 0.54828-1.3182 1.2305v11.537c0 0.68219 0.58717 1.2324 1.3182 1.2324h11.36c0.73102 0 1.3201-0.55023 1.3201-1.2324v-11.537c0-0.68219-0.58912-1.2305-1.3201-1.2305zm-0.32223 1.0078h0.99987v3h-0.99987zm1.9997 0h0.99987v3h-0.99987zm1.9997 1h3.9995v1h-3.9995zm-3.9995 7.9922h0.99987v3h-0.99987zm1.9997 0h0.99987v3h-0.99987zm1.9997 1h3.9995v1h-3.9995z"/>
    <g>
     <ellipse cx="13.5" cy="3.5" rx=".5" ry=".5"/>
     <ellipse cx="11.5" cy="3.5" rx=".5" ry=".5"/>
     <ellipse cx="13.5" cy="12.5" rx=".5" ry=".5"/>
     <ellipse cx="11.5" cy="12.5" rx=".5" ry=".5"/>
    </g>
    <rect x="1" y="6" width="14" height="1"/>
    <rect x="1" y="9" width="14" height="1"/>
   </g>
  </g>
  <ellipse class="ColorScheme-Text" fill="currentColor" cx="16.5" cy="6.5" rx=".5" ry=".5" opacity=".5"/>
  <ellipse class="ColorScheme-Text" fill="currentColor" cx="16.5" cy="15.5" rx=".5" ry=".5" opacity=".5"/>
 </g>
</svg>
