<svg width="16" height="16" version="1.1" xmlns="http://www.w3.org/2000/svg">
 <g transform="translate(-5,1)">
  <rect x="6" width="14" height="14" rx="1" ry="1" fill="#3c4049" fill-opacity=".8" style="paint-order:markers stroke fill"/>
  <g transform="translate(0,-6)" fill="#ffffff">
   <path d="m9.8 15.4a3.2 3.2 0 0 0 3.2 3.2 3.2 3.2 0 0 0 3.2-3.2 3.2 3.2 0 0 0-3.2-3.2 3.2 3.2 0 0 0-3.2 3.2zm1.6 0a1.6 1.6 0 0 1 1.6-1.6 1.6 1.6 0 0 1 1.6 1.6 1.6 1.6 0 0 1-1.6 1.6 1.6 1.6 0 0 1-1.6-1.6z"/>
   <path d="m12.2 13.8v-6.4h1.6v6.4zm1.6-3.6v-1.6h1.6v1.6z"/>
  </g>
 </g>
</svg>
