<svg width="16" height="16" version="1.1" viewBox="0 0 4.2335 4.2335" xmlns="http://www.w3.org/2000/svg">
 <g transform="matrix(1.0001 0 0 1.0001 -1.3225 -292.52)">
  <rect x="1.587" y="292.77" width="3.704" height="3.704" rx=".265" ry=".265" fill="#3c4049" fill-opacity=".8" style="paint-order:markers stroke fill"/>
  <path d="m3.969 293.56a0.397 0.397 0 0 0-0.397 0.397c0 0.03 6e-3 0.058 0.012 0.087l-0.426 0.265a0.397 0.397 0 1 0 0 0.62l0.426 0.264a0.38 0.38 0 0 0-0.012 0.087 0.397 0.397 0 1 0 0.149-0.31l-0.426-0.264a0.38 0.38 0 0 0 0.012-0.087 0.38 0.38 0 0 0-0.012-0.087l0.426-0.265a0.397 0.397 0 1 0 0.248-0.707z" fill="#ffffff"/>
 </g>
</svg>
