<svg xmlns="http://www.w3.org/2000/svg" xmlns:svg="http://www.w3.org/2000/svg" id="svg17" width="78" height="80" version="1.1" viewBox="0 0 78 80"><metadata id="metadata21"/><defs id="defs5"><filter style="color-interpolation-filters:sRGB" id="filter852" width="1.216" height="1.216" x="-.108" y="-.108"><feGaussianBlur id="feGaussianBlur854" stdDeviation="2.88"/></filter></defs><rect id="rect848" width="64" height="64" x="7" y="9" fill="#323232" opacity=".333" rx="12" ry="12" style="fill:#000;stroke-width:2.9091;filter:url(#filter852)"/><path id="rect869" style="stroke-width:3.00001;fill:#000;opacity:.75" d="M 19 5 C 11.798 5 6 10.797995 6 18 L 6 58 C 6 65.202005 11.798 71 19 71 L 59 71 C 66.202 71 72 65.202005 72 58 L 72 18 C 72 10.797995 66.202 5 59 5 L 19 5 z M 19 6 L 59 6 C 65.648 6 71 11.352 71 18 L 71 58 C 71 64.648 65.648 70 59 70 L 19 70 C 12.352 70 7 64.648 7 58 L 7 18 C 7 11.352 12.352 6 19 6 z"/><rect id="rect11" width="64" height="64" x="7" y="6" fill="#323232" opacity=".95" rx="12" ry="12" style="stroke-width:2.9091;opacity:1"/><path id="rect856" style="opacity:.1;fill:#fff;stroke-width:2.9091" d="M 19,6 C 12.352,6 7,11.352 7,18 v 40 c 0,6.648 5.352,12 12,12 h 40 c 6.648,0 12,-5.352 12,-12 V 18 C 71,11.352 65.648,6 59,6 Z m 0,1 h 40 c 6.094,0 11,4.905995 11,11 v 40 c 0,6.094005 -4.906,11 -11,11 H 19 C 12.906,69 8,64.094005 8,58 V 18 C 8,11.905995 12.906,7 19,7 Z"/></svg>