<svg width="16" height="16" version="1.1" xmlns="http://www.w3.org/2000/svg">
 <defs>
  <style id="current-color-scheme" type="text/css">
   .ColorScheme-Text { color:#5d656b; } .ColorScheme-Highlight { color:#5294e2; }
  </style>
 </defs>
<path style="fill:currentColor" class="ColorScheme-Text" d="M1 1.004c-.554 0-1 .446-1 1v10c0 .554.446 1 1 1h5v1s0 1-1 1v1h6v-1c-1 0-1-1-1-1v-1h5c.554 0 1-.446 1-1v-10c0-.554-.446-1-1-1zM1.5 2h13s.5 0 .5.5v9c0 .5-.5.5-.5.5h-13c-.5 0-.5-.5-.5-.5v-9s0-.5.5-.5z"/>
</svg>
