<svg width="16" height="16" version="1.1" xmlns="http://www.w3.org/2000/svg">
 <defs>
  <style id="current-color-scheme" type="text/css">.ColorScheme-Text { color:#5d656b; } .ColorScheme-Highlight { color:#5294e2; }</style>
 </defs>
 <path class="ColorScheme-Text" d="m4 0v3.9922h1v-2.9922h6.0156v2.9922h1v-3.9922zm2.0078 1.9922v1h1v-1zm3 0v1h1v-1zm-5.0078 2.0078c-1.108 0-2 0.892-2 2v8c0 1.108 0.892 2 2 2h8c1.108 0 2-0.892 2-2v-8c0-1.108-0.892-2-2-2zm0 1h8c0.554 0 1 0.446 1 1v8c0 0.554-0.446 1-1 1h-8c-0.554 0-1-0.446-1-1v-8c0-0.554 0.446-1 1-1zm4 4-2 2h4zm-2 3v1h4v-1z" fill="currentColor"/>
</svg>
