<svg width="16" height="16" version="1.1" xmlns="http://www.w3.org/2000/svg">
 <defs>
  <style id="current-color-scheme" type="text/css">
   .ColorScheme-Text { color:#5d656b; } .ColorScheme-Highlight { color:#5294e2; }
  </style>
 </defs>
 <g style="fill:currentColor" class="ColorScheme-Text">
  <path style="fill:currentColor" class="ColorScheme-Text" d="m3 0c-1.108 0-2 0.892-2 2v12c0 1.108 0.892 2 2 2h10c1.108 0 2-0.892 2-2v-12c0-1.108-0.892-2-2-2h-10zm0 1h10c0.554 0 1 0.446 1 1v12c0 0.554-0.446 1-1 1h-10c-0.554 0-1-0.446-1-1v-12c0-0.554 0.446-1 1-1z"/>
  <path style="fill:currentColor" class="ColorScheme-Text" d="m8 13c-2.209 0-4-1.7909-4-4s1.791-4 4-4h4v4c0 2.2091-1.7909 4-4 4zm0-2c1.1046 0 2-0.8954 2-2s-0.8954-2-2-2-2 0.8954-2 2 0.8954 2 2 2z"/>
  <rect style="fill:currentColor" class="ColorScheme-Text" x="3" y="2" width="1" height="1" ry=".5"/>
  <rect style="fill:currentColor" class="ColorScheme-Text" x="12" y="2" width="1" height="1" ry=".5"/>
  <rect style="fill:currentColor" class="ColorScheme-Text" x="3" y="13" width="1" height="1" ry=".5"/>
  <rect style="fill:currentColor" class="ColorScheme-Text" x="12" y="13" width="1" height="1" ry=".5"/>
 </g>
</svg>
