<svg width="16" height="16" version="1.1" viewBox="0 0 16 16" xmlns="http://www.w3.org/2000/svg">
 <defs>
  <style id="current-color-scheme" type="text/css">.ColorScheme-Text { color:#5d656b; } .ColorScheme-Highlight { color:#5294e2; }</style>
 </defs>
 <g style="fill:currentColor" class="ColorScheme-Text">
 <path d="M8.031 2C4.997 2 2.265 3.078 0 4.75l8.031 8.75L16 4.719C13.743 3.065 11.042 2 8.031 2zM7.97 3c2.393 0 4.524.836 6.437 2.031l-6.437 7L1.594 5c1.9-1.179 4.005-2 6.375-2z" opacity=".35"/>
 <path d="M10.937 11.007v1c0 .276.1.537.282.718l.78.782-.78.78a1.015 1.015 0 0 0-.282.72v1h1c.276 0 .538-.1.719-.282l.781-.78.782.78c.18.181.442.282.718.282h1v-1c0-.276-.1-.538-.281-.72l-.781-.78.781-.782c.181-.18.281-.442.281-.718v-1h-1c-.276 0-.537.1-.718.28l-.782.782-.781-.781a1.015 1.015 0 0 0-.719-.281h-1z"/>
 </g>
</svg>
