<?xml version="1.0" encoding="UTF-8" standalone="no"?>
<svg
   version="1.1"
   viewBox="0 0 20 19.999999"
   id="svg191"
   sodipodi:docname="Assets-Dark.svg"
   width="20"
   height="20"
   xmlns:inkscape="http://www.inkscape.org/namespaces/inkscape"
   xmlns:sodipodi="http://sodipodi.sourceforge.net/DTD/sodipodi-0.dtd"
   xmlns:xlink="http://www.w3.org/1999/xlink"
   xmlns="http://www.w3.org/2000/svg"
   xmlns:svg="http://www.w3.org/2000/svg">
  <sodipodi:namedview
     id="namedview193"
     pagecolor="#ffffff"
     bordercolor="#111111"
     borderopacity="1"
     inkscape:pageshadow="0"
     inkscape:pageopacity="0"
     inkscape:pagecheckerboard="1" />
  <defs
     id="defs20">
    <linearGradient
       id="linearGradient1387">
      <stop
         stop-color="#383d4b"
         offset="0"
         id="stop2" />
      <stop
         stop-color="#383d4b"
         offset=".6"
         id="stop4" />
      <stop
         stop-color="#13151a"
         offset="1"
         id="stop6" />
    </linearGradient>
    <clipPath
       id="b">
      <rect
         x="109.41"
         y="196.63"
         width="16"
         height="16"
         opacity="0.3"
         id="rect9" />
    </clipPath>
    <clipPath
       id="a">
      <rect
         x="9.5"
         y="178.85001"
         width="6"
         height="28"
         fill="#ffffff"
         opacity="0.539"
         id="rect12" />
    </clipPath>
    <radialGradient
       id="radialGradient1090-4-5"
       cx="19"
       cy="571.70001"
       r="7.5026002"
       gradientTransform="matrix(1.4225,-5.3748e-7,5.371e-7,1.4225,57.973,-174.87)"
       gradientUnits="userSpaceOnUse"
       xlink:href="#linearGradient1387" />
    <radialGradient
       id="radialGradient1090-4-5-6"
       cx="19"
       cy="571.70001"
       r="7.5026002"
       gradientTransform="matrix(1.4225,-5.3748e-7,5.371e-7,1.4225,57.973,-207.87)"
       gradientUnits="userSpaceOnUse"
       xlink:href="#linearGradient1387" />
    <clipPath
       id="clipPath6191">
      <path
         d="m 9.5,194.85 v -16 h 16 v 5 h -11 v 11 z"
         style="stroke-width:30.2;stroke-linecap:round;stroke-linejoin:round"
         id="path17" />
    </clipPath>
  </defs>
  <g
     id="close-pressed"
     transform="translate(-75,-561.35999)">
    <rect
       x="75"
       y="561.35999"
       width="20"
       height="20"
       fill="#23252e"
       stroke-width="0.71429"
       id="rect82" />
    <path
       d="m 85,563.36 c -4.4123,0 -8,3.5877 -8,8 0,4.4123 3.5877,8 8,8 4.4123,0 8,-3.5877 8,-8 0,-4.4123 -3.5877,-8 -8,-8 z"
       color="#000000"
       color-rendering="auto"
       dominant-baseline="auto"
       fill="#2777ff"
       image-rendering="auto"
       shape-rendering="auto"
       solid-color="#000000"
       stop-color="#000000"
       style="fill:#d31919;stroke-width:1.01"
       id="path84" />
    <path
       d="m 81.003,567.36 h 0.99962 c 0.01066,-1.2e-4 0.02079,-4.7e-4 0.03119,0 0.25486,0.0107 0.50967,0.12853 0.68724,0.31248 l 2.2803,2.2812 2.3117,-2.2812 c 0.26552,-0.23049 0.4465,-0.30548 0.68723,-0.31248 h 0.99962 v 0.99997 c 0,0.28646 -0.03425,0.55063 -0.2499,0.74998 l -2.2803,2.2812 2.2491,2.2499 c 0.18812,0.18817 0.28113,0.45344 0.28113,0.71874 v 0.99998 h -0.99962 c -0.26519,-10e-6 -0.53037,-0.0931 -0.71847,-0.28125 l -2.2803,-2.2811 -2.2803,2.2811 c -0.1881,0.18819 -0.45329,0.28125 -0.71849,0.28125 h -0.99962 v -0.99998 c 0,-0.26528 0.09303,-0.53057 0.28115,-0.71874 l 2.2803,-2.2499 -2.2803,-2.2812 c -0.21065,-0.19463 -0.30304,-0.46924 -0.28115,-0.74998 V 567.36 Z"
       color="#bebebe"
       enable-background="new"
       opacity="0.5"
       stroke-width="1.3331"
       style="fill:#ffffff"
       id="path86" />
  </g>
</svg>
