<?xml version="1.0" encoding="UTF-8"?>
<svg height="16px" viewBox="0 0 16 16" width="16px" xmlns="http://www.w3.org/2000/svg">
    <path d="m 5 1 l -0.007812 7.339844 c -0.453126 -0.21875 -0.960938 -0.339844 -1.492188 -0.339844 c -1.921875 0 -3.5 1.578125 -3.5 3.5 s 1.578125 3.5 3.5 3.5 s 3.5 -1.578125 3.5 -3.5 v -8.5 h 1 l 4.984375 0.003906 l 0.007813 5.335938 c -0.453126 -0.21875 -0.960938 -0.339844 -1.492188 -0.339844 c -1.921875 0 -3.5 1.578125 -3.5 3.5 s 1.578125 3.5 3.5 3.5 s 3.5 -1.578125 3.5 -3.5 v -0.003906 l -0.019531 -10.492188 l -6.980469 -0.003906 c -3 0 -3 0 -3 0 z m -1.5 9 c 0.839844 0 1.5 0.660156 1.5 1.5 s -0.660156 1.5 -1.5 1.5 s -1.5 -0.660156 -1.5 -1.5 s 0.660156 -1.5 1.5 -1.5 z m 8 0 c 0.839844 0 1.5 0.660156 1.5 1.5 s -0.660156 1.5 -1.5 1.5 s -1.5 -0.660156 -1.5 -1.5 s 0.660156 -1.5 1.5 -1.5 z m 0 0" fill="#2e3436"/>
</svg>
