<?xml version="1.0" encoding="UTF-8"?>
<svg height="16px" viewBox="0 0 16 16" width="16px" xmlns="http://www.w3.org/2000/svg">
    <g fill="#2e3436">
        <path d="m 6.03125 7.996094 c 0 1.65625 -1.34375 3 -3 3 s -3 -1.34375 -3 -3 s 1.34375 -3 3 -3 s 3 1.34375 3 3 z m 0 0"/>
        <path d="m 12.582031 2.101562 l -11.789062 5.894532 l 11.789062 5.894531 l 0.894531 -1.789063 l -8.210937 -4.105468 l 8.210937 -4.105469 z m 0 0"/>
        <path d="m 16.03125 2.996094 c 0 1.65625 -1.34375 3 -3 3 s -3 -1.34375 -3 -3 s 1.34375 -3.00000025 3 -3.00000025 s 3 1.34375025 3 3.00000025 z m 0 0"/>
        <path d="m 16.03125 12.996094 c 0 1.65625 -1.34375 3 -3 3 s -3 -1.34375 -3 -3 s 1.34375 -3 3 -3 s 3 1.34375 3 3 z m 0 0"/>
    </g>
</svg>
