<svg width="32" height="32" version="1.1" viewBox="0 0 8.467 8.467" xmlns="http://www.w3.org/2000/svg">
 <g paint-order="markers stroke fill">
  <path d="M1.588 1.058c-.147 0-.133.133-.133.265H.926c-.132 0-.132 0-.132.132v2.778c0 .147.118.265.264.265h6.35a.264.264 0 0 0 .265-.265V1.455c0-.132 0-.132-.133-.132H3.836c0-.132.015-.265-.132-.265z" fill="#fff" fill-opacity=".976" stroke="#000" stroke-opacity=".268" stroke-width=".529"/>
  <path d="M1.587 1.058c-.146 0-.132.133-.132.265H.926c-.132 0-.132 0-.132.132v2.778c0 .147.118.265.264.265h6.35a.264.264 0 0 0 .265-.265V1.455c0-.132 0-.132-.132-.132H3.836c0-.132.015-.265-.132-.265z" fill="#fff" fill-opacity=".976"/>
  <path d="M4.233 2.117c-.146 0-.19.138-.264.265l-.154.264H.397c-.132 0-.132.132-.132.132v4.498c0 .132.132.132.132.132H8.07c.132 0 .132-.132.132-.132V2.249c0-.132-.132-.132-.132-.132z" fill="none" stroke="#003579" stroke-opacity=".561" stroke-width=".529"/>
  <path d="M4.233 2.117c-.146 0-.19.138-.264.264l-.155.265H.397c-.132 0-.132.132-.132.132v4.498c0 .132.132.132.132.132H8.07c.132 0 .132-.132.132-.132V2.249c0-.132-.132-.132-.132-.132z" fill="#6ba4e7"/>
 </g>
 <path d="m4.2813 3.7013c-0.037019-0.00111-0.058174 0.00561-0.060464 0.0062-0.00217-1.056e-4 -0.00334-0.00199-0.00568-0.00207-0.016294-5.879e-4 -0.020814-0.00191-0.041343 0a0.26462 0.26462 0 0 0-0.00155 0c-6.355e-4 6.38e-5 -0.00346-6.16e-5 -0.00413 0a0.26462 0.26462 0 0 0-0.060464 0.015504c-0.025287 0.00408-0.039312 0.00179-0.080102 0.019638a0.26462 0.26462 0 0 0-0.14833 0.16589s-0.019495 0.083355-0.031524 0.19534c-0.082416-0.06725-0.14057-0.10749-0.14057-0.10749a0.26462 0.26462 0 0 0-0.23824-0.021188c-0.12863 0.050518-0.16001 0.10988-0.16796 0.12299-0.013158 0.00802-0.072451 0.040038-0.12299 0.16796a0.26462 0.26462 0 0 0 0.021705 0.23617s0.039527 0.060006 0.10697 0.14263c-0.11275 0.012292-0.1969 0.033074-0.1969 0.033074a0.26462 0.26462 0 0 0-0.1602 0.14677c-0.052087 0.1202-0.039276 0.20103-0.039276 0.20103a0.26462 0.26462 0 0 0 0 0.00568s-0.012913 0.081127 0.039276 0.20155a0.26462 0.26462 0 0 0 0.1602 0.14625s0.084145 0.020782 0.1969 0.033074c-0.067449 0.082632-0.10697 0.14264-0.10697 0.14264a0.26462 0.26462 0 0 0-0.021705 0.23824c0.050644 0.12771 0.1098 0.15838 0.12299 0.1664 0.00797 0.013267 0.040275 0.072399 0.17002 0.12299a0.26462 0.26462 0 0 0 0.23617-0.021705s0.058149-0.04024 0.14057-0.10749c0.012297 0.11486 0.035141 0.19948 0.035141 0.19948a0.26462 0.26462 0 0 0 0.1447 0.15814c0.12018 0.052045 0.20103 0.040826 0.20103 0.040826a0.26462 0.26462 0 0 0 0.00775 0s0.080849 0.011639 0.20155-0.040826a0.26462 0.26462 0 0 0 0.14418-0.15814s0.022969-0.084368 0.035141-0.19948c0.081319 0.066302 0.14108 0.10749 0.14108 0.10749a0.26462 0.26462 0 0 0 0.23617 0.021705c0.12909-0.05052 0.15996-0.10974 0.16796-0.12299 0.013206-0.0079899 0.072271-0.039574 0.12299-0.16796a0.26462 0.26462 0 0 0-0.021704-0.23669s-0.039528-0.060007-0.10697-0.14263c0.11354-0.011942 0.19483-0.031007 0.19483-0.031007a0.26462 0.26462 0 0 0 0.16796-0.14832c0.054183-0.12503 0.036372-0.19282 0.033591-0.20516 0.00301-0.013513 0.020408-0.078935-0.033591-0.2031a0.26462 0.26462 0 0 0-0.16796-0.14832s-0.081296-0.019582-0.19483-0.031524c0.067079-0.082312 0.10697-0.14057 0.10697-0.14057a0.26462 0.26462 0 0 0 0.021705-0.23824c-0.049709-0.12535-0.10419-0.15491-0.11938-0.16434-0.0060584-0.010401-0.039201-0.074624-0.17157-0.12661a0.26462 0.26462 0 0 0-0.23617 0.021188s-0.059697 0.041242-0.14108 0.10749c-0.011981-0.11166-0.033074-0.19328-0.033074-0.19328a0.26462 0.26462 0 0 0-0.14625-0.16796c-0.066434-0.029356-0.11957-0.038166-0.15659-0.039276zm-0.082169 0.26769c0.0195-0.00181 0.033074 0 0.033074 0s0.0575-0.00397 0.099223 0.01447c0 0 0.013492 0.044473 0.023772 0.15555 0.012543 0.13602 0.061827 0.17211 0.15555 0.21292 0.093727 0.040804 0.15953 0.049476 0.26459-0.037725 0.085865-0.071333 0.12299-0.094572 0.12299-0.094572 0.042328 0.016624 0.080101 0.060981 0.080101 0.060981s0.044717 0.038303 0.061497 0.080619c0 0-0.023371 0.037154-0.094572 0.12299-0.087378 0.10489-0.078997 0.17335-0.066148 0.25012 0.00665 0.014658 0.018179 0.027264 0.023772 0.042376 0.045359 0.063474 0.081509 0.11511 0.21757 0.12765 0.11111 0.010277 0.15555 0.023255 0.15555 0.023255 0.01814 0.04171 0.01447 0.099223 0.01447 0.099223s0.00367 0.057361-0.01447 0.099223c0 0-0.044441 0.013495-0.15555 0.023772-0.13591 0.012694-0.17221 0.064173-0.21757 0.12765h-0.00465c-0.00559 0.014961-0.012471 0.027717-0.019121 0.042376-0.012848 0.076778-0.021229 0.14524 0.066148 0.25012 0.071352 0.085841 0.094572 0.12299 0.094572 0.12299-0.016779 0.042467-0.061497 0.080101-0.061497 0.080101s-0.037623 0.044873-0.080101 0.061497c0 0-0.037282-0.023239-0.12299-0.094572-0.10506-0.087201-0.17333-0.078628-0.25012-0.065632-0.014664 0.00665-0.027259 0.013014-0.042376 0.018604v0.00465c-0.06334 0.045193-0.1151 0.081186-0.12765 0.21705-0.010128 0.11123-0.023772 0.15142-0.023772 0.15142-0.041722 0.018136-0.099223 0.018604-0.099223 0.018604s-0.057349-4.702e-4 -0.099223-0.018604c0 0-0.013492-0.040338-0.023772-0.15142-0.012547-0.13586-0.06457-0.17063-0.10387-0.19844-0.039304-0.027655-0.051486-0.035209-0.066149-0.04186-0.076793-0.012845-0.14506-0.02157-0.25012 0.065632-0.085864 0.071333-0.12299 0.094572-0.12299 0.094572-0.04263-0.016624-0.080102-0.061497-0.080102-0.061497s-0.044717-0.037787-0.061497-0.080101c0 0 0.023219-0.037155 0.094572-0.12299 0.087378-0.10489 0.078998-0.17335 0.066148-0.25012-0.00665-0.01481-0.015078-0.026855-0.042893-0.066149-0.02782-0.039142-0.062025-0.091331-0.19793-0.10387-0.11111-0.010277-0.15142-0.023772-0.15142-0.023772-0.018143-0.041862-0.019121-0.099223-0.019121-0.099223 0 3e-7 9.8e-4 -0.05736 0.019121-0.099223 0 0 0.040307-0.012978 0.15142-0.023255 0.13591-0.012543 0.17026-0.064581 0.19793-0.10387 0.027815-0.039142 0.036243-0.051489 0.042893-0.066148 0.012849-0.076778 0.021077-0.14524-0.066148-0.25012-0.071353-0.085841-0.094572-0.12299-0.094572-0.12299 0.01678-0.042467 0.061497-0.080102 0.061497-0.080102s0.037775-0.044873 0.080102-0.061497c0 0 0.03713 0.023239 0.12299 0.094572 0.10506 0.087201 0.17333 0.078478 0.25012 0.065632 0.014815-0.00665 0.026843-0.014719 0.066149-0.042376 0.039152-0.027654 0.091327-0.062431 0.10387-0.19845 0.010279-0.11107 0.023772-0.15555 0.023772-0.15555 0.020711-0.00907 0.046495-0.0125 0.066148-0.01447zm0.033074 0.75554a0.30241 0.30232 0 0 0 0 0.60464 0.30241 0.30232 0 1 0 0-0.60464zm5.167e-4 0.26408c0.034654 0 0.027568 0.00356 0.029457 0.00568 0.00189 0.00212 0.00775 0.016843 0.00775 0.033591s-0.00586 0.028883-0.00775 0.031007c-0.00189 0.00212 0.0052 0.00568-0.029457 0.00568-0.034654 0-0.027568-0.00356-0.029457-0.00568-0.00189-0.00212-0.00982-0.014259-0.00982-0.031007s0.00793-0.031467 0.00982-0.033591c0.00189-0.00212-0.0052-0.00568 0.029457-0.00568z" color="#000000" color-rendering="auto" dominant-baseline="auto" image-rendering="auto" opacity=".3" shape-rendering="auto" solid-color="#000000" style="font-feature-settings:normal;font-variant-alternates:normal;font-variant-caps:normal;font-variant-ligatures:normal;font-variant-numeric:normal;font-variant-position:normal;isolation:auto;mix-blend-mode:normal;shape-padding:0;text-decoration-color:#000000;text-decoration-line:none;text-decoration-style:solid;text-indent:0;text-orientation:mixed;text-transform:none;white-space:normal"/>
 <path d="m4.2002 3.9691c-0.019653 0.00197-0.045351 0.00514-0.066062 0.014206 0 0-0.013454 0.044734-0.023733 0.15581-0.012547 0.13601-0.064702 0.17078-0.10385 0.19843-0.039305 0.027657-0.051398 0.035817-0.066213 0.042467-0.076794 0.012846-0.14528 0.021158-0.25034-0.066043-0.085865-0.071333-0.12275-0.094455-0.12275-0.094455-0.042327 0.016624-0.080423 0.061358-0.080423 0.061358s-0.044595 0.037782-0.061375 0.080249c0 0 0.023128 0.037026 0.094481 0.12287 0.087225 0.10488 0.079062 0.1735 0.066213 0.25028-0.00665 0.01466-0.014815 0.026901-0.04263 0.066043-0.027665 0.039293-0.062434 0.091433-0.19834 0.10398-0.11111 0.010277-0.15117 0.023576-0.15117 0.023576-0.018141 0.041862-0.018897 0.09914-0.018897 0.09914s7.543e-4 0.057429 0.018897 0.099291c0 0 0.040061 0.013299 0.15117 0.023576 0.1359 0.012543 0.17052 0.064683 0.19834 0.10383 0.027815 0.039293 0.035979 0.051384 0.04263 0.066194 0.01285 0.076773 0.021165 0.14538-0.066213 0.25028-0.071353 0.08584-0.094481 0.12287-0.094481 0.12287 0.01678 0.042315 0.061375 0.080098 0.061375 0.080098s0.037793 0.044886 0.080423 0.06151c0 0 0.036886-0.023122 0.12275-0.094455 0.10506-0.087201 0.17354-0.078888 0.25034-0.066043 0.014663 0.00665 0.026909 0.01466 0.066213 0.042315 0.039305 0.027808 0.091308 0.062567 0.10385 0.19843 0.01028 0.11108 0.023733 0.15113 0.023733 0.15113 0.041874 0.018134 0.099168 0.01889 0.099168 0.01889s0.057446-7.543e-4 0.099168-0.01889c0 0 0.013454-0.039898 0.023582-0.15113 0.012547-0.13586 0.064248-0.17199 0.12759-0.21718v-0.00469c0.015117-0.00559 0.027815-0.01224 0.042479-0.01889 0.076794-0.012996 0.14543-0.021158 0.25049 0.066043 0.085713 0.071333 0.12275 0.094455 0.12275 0.094455 0.042479-0.016624 0.080272-0.061359 0.080272-0.061359s0.044747-0.037782 0.061526-0.080249c0 0-0.023129-0.037026-0.094481-0.12287-0.087377-0.10488-0.079062-0.1735-0.066214-0.25028 0.00665-0.014659 0.013302-0.027506 0.018896-0.042467h0.00469c0.045353-0.063473 0.081483-0.11486 0.21739-0.12755 0.11111-0.010277 0.15585-0.023576 0.15585-0.023576 0.018141-0.041862 0.01421-0.099291 0.01421-0.099291s0.00393-0.057429-0.01421-0.099139c0 0-0.044747-0.013299-0.15585-0.023576-0.13606-0.01254-0.17203-0.064074-0.21739-0.12755-0.0055928-0.015113-0.016931-0.027808-0.023582-0.042467-0.012849-0.076773-0.021164-0.14538 0.066214-0.25028 0.071201-0.08584 0.094481-0.12287 0.094481-0.12287-0.01678-0.042315-0.061526-0.080249-0.061526-0.080249s-0.037793-0.044734-0.080121-0.061358c0 0-0.037037 0.023122-0.1229 0.094455-0.10506 0.087201-0.17082 0.078586-0.26455 0.037782-0.093725-0.040805-0.14346-0.076622-0.156-0.21264-0.01028-0.11108-0.023582-0.15566-0.023582-0.15566-0.041723-0.018437-0.099168-0.014509-0.099168-0.014509s-0.013606-0.00181-0.033106 0zm0.033106 0.75563a0.30235 0.30226 0 1 1 0 0.60451 0.30235 0.30226 0 0 1 0-0.60451z" opacity=".15" stroke-width=".26459"/>
</svg>
