<svg xmlns="http://www.w3.org/2000/svg" width="32" height="32" viewBox="0 0 8.467 8.467"><g paint-order="markers stroke fill"><path d="M1.588 1.058c-.147 0-.133.133-.133.265H.926c-.132 0-.132 0-.132.132v2.778c0 .147.118.265.264.265h6.35a.264.264 0 0 0 .265-.265V1.455c0-.132 0-.132-.133-.132H3.836c0-.132.015-.265-.132-.265z" fill="#fff" fill-opacity=".976" stroke="#000" stroke-width=".529" stroke-opacity=".268"/><path d="M1.587 1.058c-.146 0-.132.133-.132.265H.926c-.132 0-.132 0-.132.132v2.778c0 .147.118.265.264.265h6.35a.264.264 0 0 0 .265-.265V1.455c0-.132 0-.132-.132-.132H3.836c0-.132.015-.265-.132-.265z" fill="#fff" fill-opacity=".976"/><path d="M4.233 2.117c-.146 0-.19.138-.264.265l-.154.264H.397c-.132 0-.132.132-.132.132v4.498c0 .132.132.132.132.132H8.07c.132 0 .132-.132.132-.132V2.249c0-.132-.132-.132-.132-.132z" fill="none" stroke="#003579" stroke-width=".529" stroke-opacity=".561"/><path d="M4.233 2.117c-.146 0-.19.138-.264.264l-.155.265H.397c-.132 0-.132.132-.132.132v4.498c0 .132.132.132.132.132H8.07c.132 0 .132-.132.132-.132V2.249c0-.132-.132-.132-.132-.132z" fill="#6ba4e7"/></g><path d="M3.175 4.392l1.058-.635 1.059.635v1.693H3.175z" opacity=".15"/><path d="M4.233 3.44l-1.72 1.058h.397V6.35h2.646V4.498h.397zm0 .317l1.059.635v1.693H3.175V4.392z" opacity=".3"/></svg>