<svg xmlns="http://www.w3.org/2000/svg" width="32" height="32" viewBox="0 0 8.467 8.467"><g paint-order="markers stroke fill"><path d="M1.588 1.058c-.147 0-.133.133-.133.265H.926c-.132 0-.132 0-.132.132v2.778c0 .147.118.265.264.265h6.35a.264.264 0 0 0 .265-.265V1.455c0-.132 0-.132-.133-.132H3.836c0-.132.015-.265-.132-.265z" fill="#fff" fill-opacity=".976" stroke="#000" stroke-width=".529" stroke-opacity=".268"/><path d="M1.587 1.058c-.146 0-.132.133-.132.265H.926c-.132 0-.132 0-.132.132v2.778c0 .147.118.265.264.265h6.35a.264.264 0 0 0 .265-.265V1.455c0-.132 0-.132-.132-.132H3.836c0-.132.015-.265-.132-.265z" fill="#fff" fill-opacity=".976"/><path d="M4.233 2.117c-.146 0-.19.138-.264.265l-.154.264H.397c-.132 0-.132.132-.132.132v4.498c0 .132.132.132.132.132H8.07c.132 0 .132-.132.132-.132V2.249c0-.132-.132-.132-.132-.132z" fill="none" stroke="#003579" stroke-width=".529" stroke-opacity=".561"/><path d="M4.233 2.117c-.146 0-.19.138-.264.264l-.155.265H.397c-.132 0-.132.132-.132.132v4.498c0 .132.132.132.132.132H8.07c.132 0 .132-.132.132-.132V2.249c0-.132-.132-.132-.132-.132z" fill="#6ba4e7"/></g><g opacity=".3"><path style="marker:none" d="M4.233 5.556a.49.49 0 0 0-.336.143l.336.382.34-.379a.485.485 0 0 0-.34-.146zm0-.663a1.18 1.18 0 0 0-.772.308l.21.235c.144-.108.368-.212.554-.212.19 0 .425.107.57.22l.217-.246a1.193 1.193 0 0 0-.779-.305zm0-.664c-.453 0-.868.182-1.19.485l.205.242c.288-.263.59-.395.985-.395s.688.124.99.4l.201-.247a1.732 1.732 0 0 0-1.19-.485z" overflow="visible" opacity=".9" color="#000" stroke-width="1.7"/></g></svg>