<svg xmlns="http://www.w3.org/2000/svg" width="32" height="32" viewBox="0 0 8.467 8.467"><g paint-order="markers stroke fill"><path d="M1.588 1.058c-.147 0-.133.133-.133.265H.926c-.132 0-.132 0-.132.132v2.778c0 .147.118.265.264.265h6.35a.264.264 0 0 0 .265-.265V1.455c0-.132 0-.132-.133-.132H3.836c0-.132.015-.265-.132-.265z" fill="#fff" fill-opacity=".976" stroke="#000" stroke-width=".529" stroke-opacity=".268"/><path d="M1.587 1.058c-.146 0-.132.133-.132.265H.926c-.132 0-.132 0-.132.132v2.778c0 .147.118.265.264.265h6.35a.264.264 0 0 0 .265-.265V1.455c0-.132 0-.132-.132-.132H3.836c0-.132.015-.265-.132-.265z" fill="#fff" fill-opacity=".976"/><path d="M4.233 2.117c-.146 0-.19.138-.264.265l-.154.264H.397c-.132 0-.132.132-.132.132v4.498c0 .132.132.132.132.132H8.07c.132 0 .132-.132.132-.132V2.249c0-.132-.132-.132-.132-.132z" fill="none" stroke="#003579" stroke-width=".529" stroke-opacity=".561"/><path d="M4.233 2.117c-.146 0-.19.138-.264.264l-.155.265H.397c-.132 0-.132.132-.132.132v4.498c0 .132.132.132.132.132H8.07c.132 0 .132-.132.132-.132V2.249c0-.132-.132-.132-.132-.132z" fill="#6ba4e7"/></g><g style="marker:none" color="#000" fill="#000" stroke-width="5.625"><path style="marker:none" d="M4.233 3.414c-.735 0-1.34.508-1.406 1.248H2.47l.527.693.527-.693H3.18c.065-.54.512-.886 1.053-.886.586 0 1.061.49 1.061 1.094 0 .603-.475 1.093-1.06 1.093-.318 0-.604-.144-.798-.373l-.258.247c.259.3.636.488 1.055.488.78 0 1.412-.652 1.412-1.455 0-.804-.632-1.456-1.412-1.456z" overflow="visible" opacity=".3"/><path style="marker:none" d="M4.322 3.969H4.19l-.132.97.661.554v-.138L4.322 4.8z" overflow="visible" opacity=".3"/></g></svg>