<svg xmlns="http://www.w3.org/2000/svg" width="32" height="32" viewBox="0 0 8.467 8.467"><g paint-order="markers stroke fill"><path d="M1.588 1.058c-.147 0-.133.133-.133.265H.926c-.132 0-.132 0-.132.132v2.778c0 .147.118.265.264.265h6.35a.264.264 0 0 0 .265-.265V1.455c0-.132 0-.132-.133-.132H3.836c0-.132.015-.265-.132-.265z" fill="#fff" fill-opacity=".976" stroke="#000" stroke-width=".529" stroke-opacity=".268"/><path d="M1.587 1.058c-.146 0-.132.133-.132.265H.926c-.132 0-.132 0-.132.132v2.778c0 .147.118.265.264.265h6.35a.264.264 0 0 0 .265-.265V1.455c0-.132 0-.132-.132-.132H3.836c0-.132.015-.265-.132-.265z" fill="#fff" fill-opacity=".976"/><path d="M4.233 2.117c-.146 0-.19.138-.264.265l-.154.264H.397c-.132 0-.132.132-.132.132v4.498c0 .132.132.132.132.132H8.07c.132 0 .132-.132.132-.132V2.249c0-.132-.132-.132-.132-.132z" fill="none" stroke="#003579" stroke-width=".529" stroke-opacity=".561"/><path d="M4.233 2.117c-.146 0-.19.138-.264.264l-.155.265H.397c-.132 0-.132.132-.132.132v4.498c0 .132.132.132.132.132H8.07c.132 0 .132-.132.132-.132V2.249c0-.132-.132-.132-.132-.132z" fill="#6ba4e7"/></g><g transform="matrix(.26458 0 0 .26458 -11.377 2.514)"><ellipse ry="1.5" rx="1.5" cy="6" cx="62.5" opacity=".15"/><ellipse ry="1.5" rx="1.5" cy="12" cx="62.5" opacity=".15"/><ellipse ry="1.5" rx="1.5" cy="9" cx="55.5" opacity=".15"/><path d="M62.5 3.5a2.5 2.5 0 0 0-2.451 2.988l-2.54 1.037A2.488 2.488 0 0 0 55.5 6.5a2.5 2.5 0 1 0 0 5 2.49 2.49 0 0 0 2.016-1.031l2.53 1.066A2.5 2.5 0 1 0 63 9.551l.001-1.102a2.5 2.5 0 0 0-.5-4.949zm0 1a1.5 1.5 0 1 1 0 3 1.5 1.5 0 0 1 0-3zm-2.063 2.91c.36.527.916.908 1.563 1.04v1.1a2.497 2.497 0 0 0-1.576 1.06l-2.492-1.051A2.49 2.49 0 0 0 58 9a2.49 2.49 0 0 0-.07-.566zM55.5 7.5a1.5 1.5 0 1 1 0 3 1.5 1.5 0 0 1 0-3zm7 3a1.5 1.5 0 1 1 0 3 1.5 1.5 0 0 1 0-3z" opacity=".3"/></g></svg>