<svg xmlns="http://www.w3.org/2000/svg" width="32" height="32" viewBox="0 0 45 45"><defs><clipPath clipPathUnits="userSpaceOnUse" id="a"><path d="M-32768 32767h65535v-65535h-65535v65535z"/></clipPath><radialGradient fx="0" fy="0" cx="0" cy="0" r="1" gradientUnits="userSpaceOnUse" gradientTransform="matrix(5.58338 0 0 -1.17477 11.913 1.291)" spreadMethod="pad" id="b"><stop offset="0" stop-color="#fff"/><stop offset=".531" stop-opacity="0" stop-color="#fff"/><stop offset="1" stop-opacity="0" stop-color="#fff"/></radialGradient><clipPath clipPathUnits="userSpaceOnUse" id="c"><path d="M-32768 32767h65535v-65535h-65535v65535z"/></clipPath><radialGradient fx="0" fy="0" cx="0" cy="0" r="1" gradientUnits="userSpaceOnUse" gradientTransform="matrix(5.58338 0 0 -1.17477 24.266 1.291)" spreadMethod="pad" id="d"><stop offset="0" stop-color="#fff"/><stop offset=".531" stop-opacity="0" stop-color="#fff"/><stop offset="1" stop-opacity="0" stop-color="#fff"/></radialGradient></defs><g transform="matrix(1.406 0 0 1.406 -171.563 -45)"><rect width="32" height="32" x="122" y="32" rx=".5" ry=".5" fill="none"/><path d="M148.5 48.5v3.167c-1.114-1.453-2.045-2.207-4-2.207V60.5c3.148 0 6-2.471 6-5.52 0-.245-.025-.484-.06-.72h.06V48.5zM125.5 48.5v5.76h.06c-.035.236-.06.475-.06.72 0 3.049 2.852 5.52 6 5.52V49.46c-1.955 0-2.886.754-4 2.207V48.5z" fill="#4c5263" stroke="#272a2f" stroke-opacity=".784"/><path d="M138.16 38c-2.959-.044-6.067 1.678-8.16 3.826L131.403 43c1.743-1.827 4.118-2.857 6.597-2.86 2.48.002 4.856 1.03 6.6 2.858l1.4-1.172c-2.014-2.067-4.992-3.783-7.84-3.826z" fill="#6e768e"/><rect rx="2" ry=".7" y="48" x="131" height="14" width="2" fill="#6e768e"/><rect rx="2" ry=".7" y="48" x="143" height="14" width="2" fill="#6e768e"/><path d="M138 35.5c-7.18 0-13 5.631-13 13h2.667c0-5.857 4.626-10.263 10.333-10.263s10.333 4.406 10.333 10.263H151c0-7.369-5.82-13-13-13z" fill="#575e71" stroke="#242832" stroke-opacity=".784"/></g></svg>