<svg xmlns="http://www.w3.org/2000/svg" height="32" width="32"><g transform="translate(137.102 47.22)"><path d="M-121.102-44.72c-2.57 0-5.087.694-7.254 2.077h-2.74c-.77 0-1.429.659-1.429 1.428v2.764c-1.378 2.16-2.071 4.668-2.077 7.23.001 2.571.695 5.088 2.077 7.255v2.74c0 .77.66 1.429 1.429 1.429h2.763c2.161 1.378 4.669 2.071 7.231 2.077 2.57-.001 5.088-.695 7.255-2.077h2.74c.769 0 1.428-.66 1.428-1.429v-2.764c1.378-2.16 2.072-4.668 2.077-7.23 0-2.57-.694-5.088-2.077-7.255v-2.74c0-.77-.659-1.428-1.428-1.428h-2.764c-2.16-1.378-4.668-2.072-7.23-2.077z" fill="#4c5263" stroke="#252831" stroke-opacity=".784"/><circle r="11.5" cy="-31.22" cx="-121.102" fill="#fff669" stroke="#252831" stroke-opacity=".784"/><rect ry="1.5" rx="1.5" y="-41.22" x="-131.102" height="1" width="1" fill="#b2b7bf"/><rect ry="1.5" rx="1.5" y="-41.22" x="-112.102" height="1" width="1" fill="#b2b7bf"/><rect ry="1.5" rx="1.5" y="-22.22" x="-112.102" height="1" width="1" fill="#b2b7bf"/><rect ry="1.5" rx="1.5" y="-22.22" x="-131.102" height="1" width="1" fill="#b2b7bf"/><circle r="4" cy="-31.22" cx="-121.102" fill="#4c5263"/></g></svg>