<svg width="32" height="32" version="1.1" viewBox="0 0 32 32" xmlns="http://www.w3.org/2000/svg">
 <g fill-rule="evenodd">
  <path d="m6.5 4c-0.277 0-0.5 0.21408-0.5 0.48v23.04c0 0.26592 0.223 0.48 0.5 0.48h19c0.277 0 0.5-0.21408 0.5-0.48v-20.52l-3-3z" fill="#f5f5f6" stroke="#b0b6bd" stroke-linecap="round" stroke-linejoin="round" stroke-width="2"/>
  <path d="m6.5 4c-0.277 0-0.5 0.21408-0.5 0.48v23.04c0 0.26592 0.223 0.48 0.5 0.48h19c0.277 0 0.5-0.21408 0.5-0.48v-20.52l-3-3z" fill="#f5f5f6" stroke-width=".4899"/>
  <rect transform="scale(-1)" x="-25" y="-27" width="18" height="22" rx="2.2092" ry="2.2092" fill="#8ec177" stroke-width=".47597"/>
 </g>
 <g transform="matrix(.88889 0 0 .90909 1.7778 1)" fill-rule="evenodd" stroke-width=".5">
  <path d="m8.5 5.5c-0.831 0-1.5 0.669-1.5 1.5v7h0.61815c0.01831-0.02746 0.01811-0.02659 0.0459-0.0752 0.054895-0.09602 0.12589-0.22604 0.21386-0.37598 0.17596-0.29986 0.41888-0.68035 0.7461-1.0566 0.61555-0.70795 1.5537-1.3964 2.876-1.4766v0.5c-1.1515 0.07722-1.9435 0.6658-2.499 1.3047-0.29779 0.34247-0.52355 0.6954-0.6914 0.98145-0.083925 0.14302-0.15349 0.2689-0.21192 0.3711-0.058425 0.10219-0.08791 0.17106-0.1709 0.2539-0.04688 0.04688-0.11046 0.07323-0.17676 0.07324h-0.75v4h0.75c0.0663 1.2e-5 0.12988 0.02636 0.17676 0.07324 0.08299 0.08284 0.11247 0.15172 0.1709 0.2539 0.058425 0.10219 0.12799 0.22807 0.21192 0.3711 0.16785 0.28605 0.39362 0.639 0.6914 0.98145 0.5956 0.68495 1.4575 1.3203 2.749 1.3203h8.5c1.2916 0 2.1534-0.63535 2.749-1.3203 0.29779-0.34247 0.52355-0.6954 0.6914-0.98145 0.08392-0.14302 0.15349-0.2689 0.21192-0.3711 0.05842-0.10219 0.08791-0.17106 0.1709-0.2539 0.04688-0.04688 0.11046-0.07323 0.17676-0.07324h0.75v-4h-0.75c-0.0663-1.3e-5 -0.12988-0.02636-0.17676-0.07324-0.08299-0.08284-0.11247-0.15172-0.1709-0.2539-0.05842-0.10219-0.12799-0.22807-0.21192-0.3711-0.16785-0.28605-0.39362-0.639-0.6914-0.98145-0.5956-0.68495-1.4575-1.3203-2.749-1.3203h-6a1.25 1.25 0 0 1-1.25-1.25v-4.75zm5 0v4.75a0.75 0.75 0 0 0 0.75 0.75h4.25v-5.5zm5.5 0v5.5h1.25c1.4582 0 2.4716 0.73955 3.126 1.4922 0.32721 0.3763 0.57015 0.7568 0.7461 1.0566 0.08798 0.14994 0.15897 0.27996 0.21386 0.37598 0.02779 0.04861 0.02759 0.04773 0.0459 0.07519h0.61815v-7c0-0.831-0.669-1.5-1.5-1.5zm-11 10.5a0.5 0.5 0 0 1 0.5 0.5 0.5 0.5 0 0 1-0.5 0.5 0.5 0.5 0 0 1-0.5-0.5 0.5 0.5 0 0 1 0.5-0.5zm-1 3v7c0 0.831 0.669 1.5 1.5 1.5h4.5v-5.5h-1.25c-1.4582 0-2.4716-0.73955-3.126-1.4922-0.32721-0.3763-0.57015-0.7568-0.7461-1.0566-0.08798-0.14994-0.15897-0.27996-0.21386-0.37598-0.02779-0.04861-0.02759-0.04773-0.0459-0.0752zm17.382 0c-0.01831 0.02746-0.01811 0.02659-0.0459 0.0752-0.05489 0.09602-0.12589 0.22604-0.21386 0.37598-0.17596 0.29986-0.41888 0.68035-0.7461 1.0566-0.6544 0.7526-1.6678 1.4922-3.126 1.4922h-1.25v5.5h4.5c0.831 0 1.5-0.669 1.5-1.5v-7zm-10.882 3v5.5h5v-5.5z" fill="#fdd898"/>
  <path d="m7 18.5v0.5h0.61815c0.01831 0.02746 0.01811 0.02659 0.0459 0.0752 0.054895 0.09602 0.12589 0.22604 0.21386 0.37598 0.17596 0.29986 0.41888 0.68035 0.7461 1.0566 0.6544 0.7526 1.6678 1.4922 3.126 1.4922h1.25v5.5h0.5v-5.5h5v5.5h0.5v-5.5h1.25c1.4582 0 2.4716-0.73955 3.126-1.4922 0.32721-0.3763 0.57015-0.7568 0.7461-1.0566 0.08798-0.14994 0.15897-0.27996 0.21386-0.37598 0.02779-0.04861 0.02759-0.04773 0.0459-0.0752h0.61815v-0.5h-0.75c-0.0663 1.2e-5 -0.12988 0.02636-0.17676 0.07324-0.08299 0.08284-0.11247 0.15172-0.1709 0.2539-0.05842 0.10219-0.12799 0.22807-0.21192 0.3711-0.16785 0.28605-0.39362 0.639-0.6914 0.98145-0.5956 0.68495-1.4575 1.3203-2.749 1.3203h-8.5c-1.2916 0-2.1534-0.63535-2.749-1.3203-0.29779-0.34247-0.52355-0.6954-0.6914-0.98145-0.083925-0.14302-0.15349-0.2689-0.21192-0.3711-0.058425-0.10219-0.08791-0.17106-0.1709-0.2539-0.046878-0.046882-0.11046-0.07323-0.17676-0.07324z" opacity=".5"/>
  <path d="m13 5.5v4.75a1.25 1.25 0 0 0 1.25 1.25h6c1.2916 0 2.1534 0.63535 2.749 1.3203 0.29779 0.34247 0.52355 0.6954 0.6914 0.98145 0.08393 0.14302 0.15349 0.2689 0.21192 0.3711 0.05842 0.10219 0.08791 0.17106 0.1709 0.2539 0.04688 0.04688 0.11046 0.07323 0.17676 0.07324h0.75v-0.5h-0.61815c-0.01831-0.02747-0.01811-0.02659-0.0459-0.0752-0.05489-0.09602-0.12589-0.22604-0.21386-0.37598-0.17596-0.29986-0.41888-0.68035-0.7461-1.0566-0.6544-0.7526-1.6678-1.4922-3.126-1.4922h-1.25v-5.5h-0.5v5.5h-4.25a0.75 0.75 0 0 1-0.75-0.75v-4.75zm-1.5 5.5155c-1.3222 0.08019-2.2604 0.76865-2.876 1.4766-0.32721 0.3763-0.57015 0.7568-0.7461 1.0566-0.08798 0.14994-0.15897 0.27996-0.21386 0.37598-0.02779 0.04861-0.02759 0.04773-0.0459 0.07519h-0.61815v0.5h0.75c0.0663-1.3e-5 0.12988-0.02636 0.17676-0.07324 0.08299-0.08284 0.11247-0.15172 0.1709-0.2539 0.058425-0.10219 0.12799-0.22807 0.21192-0.3711 0.16785-0.28605 0.39362-0.639 0.6914-0.98145 0.55555-0.6389 1.3475-1.2274 2.499-1.3047z" opacity=".5"/>
  <circle cx="8" cy="16.5" r=".5" opacity=".5"/>
 </g>
</svg>
