<svg xmlns="http://www.w3.org/2000/svg" version="1.0" width="32" height="32"><path d="M16 3.42c-4.155 0-7.5.575-7.5 1.289V13.3c0-.714 3.345-1.289 7.5-1.289 4.155 0 7.5.575 7.5 1.289V4.709c0-.714-3.345-1.29-7.5-1.29z" style="marker:none;font-variant-east_asian:normal" color="#000" overflow="visible" fill="#f2f2f2"/><rect width="15" height="17.5" rx="9.18" ry="1.01" x="8.5" y="12" style="marker:none" color="#000" overflow="visible" fill="#3b9ee8"/><path d="M23 13.029c0-.57-3.122-1.029-7-1.029s-7 .459-7 1.029" style="marker:none" color="#000" overflow="visible" opacity=".5" stroke="#00537d" stroke-linejoin="round" fill="none"/><path d="M18.5 3.5V2.318c0-.454-1.115-.818-2.5-.818s-2.5.364-2.5.818V3.5" style="marker:none" color="#000" overflow="visible" fill="#e6e6e6"/><path d="M18.5 3v-.886c0-.341-1.115-.614-2.5-.614s-2.5.273-2.5.614V3" style="marker:none" color="#000" display="block" overflow="visible" opacity=".3" fill="none" stroke="#000" stroke-miterlimit="7"/><rect width="15" height="26" rx="9.18" ry="1" x="8.5" y="3.5" style="marker:none" color="#000" display="block" overflow="visible" opacity=".3" fill="none" stroke="#000" stroke-miterlimit="7"/></svg>