<svg xmlns="http://www.w3.org/2000/svg" width="32" height="32"><path d="M12.524 30.213c-3.37-.953-5.415-3.324-6.439-7.467-.556-2.251-.773-8.282-.398-11.086.845-6.325 3.421-9.382 8.45-10.025 1.405-.18 2.34-.18 3.736-.001 5.068.647 7.62 3.74 8.48 10.273.297 2.26.118 8.398-.3 10.265-.933 4.17-2.697 6.587-5.656 7.752-1.558.613-6.132.78-7.873.289z" fill="#5cb2fb"/><path d="M12.527 30.21c-3.367-.952-5.41-3.323-6.432-7.466-.556-2.25-.772-8.282-.398-11.086.843-6.325 3.417-9.382 8.44-10.024 1.404-.18 2.339-.18 3.733-.002 5.062.648 7.612 3.74 8.47 10.273.297 2.26.118 8.398-.299 10.265-.932 4.17-2.694 6.587-5.65 7.752-1.556.613-6.125.78-7.864.289z" opacity=".35" fill="none" stroke="#002e99"/><path style="marker:none" d="M15.573 7c-.357 0-.569.287-.573.643v6.268l-2.28-1.929c-.402-.351-.974-.282-1.326.12a.968.968 0 0 0 .08 1.367L14.367 16l-2.893 2.531a.968.968 0 0 0-.08 1.366c.352.403.924.472 1.326.12L15 18.09v6.268c0 .356.216.643.573.643.363 0 .562-.025.843-.241l4.54-4.058c.145-.129.234-.31.282-.482a.958.958 0 0 0 .04-.362.929.929 0 0 0-.04-.2 1.003 1.003 0 0 0-.282-.483L17.34 16l3.616-3.174c.146-.127.232-.31.282-.482a.914.914 0 0 0 0-.563 1.003 1.003 0 0 0-.282-.482l-4.54-4.058c-.256-.207-.55-.241-.843-.241zM16 9.5l2.907 2.563L16 14.5zm0 8l2.907 2.438L16 22.5z" color="#bebebe" overflow="visible" fill="#fff"/></svg>