<svg xmlns="http://www.w3.org/2000/svg" width="32" height="32"><g transform="translate(239.347 74.322)"><path d="M-226.113-52.322c-.404 0-.73.275-.729.616v4.845l-2.277.154c-.404 0-.728.275-.728.616v.769h13v-.769c0-.34-.325-.616-.729-.616l-2.267-.154v-4.845c0-.341-.325-.616-.729-.616z" fill="none" stroke="#42557f" stroke-opacity=".291"/><path d="M-225.892-52.405c-.26 0-.452.184-.45.407v5.349l-2.545.184h-.01c-.26 0-.45.184-.45.407v.269h12v-.269c0-.223-.19-.407-.45-.407h-.012l-2.543-.184v-5.349c0-.223-.19-.407-.45-.407z" fill="#fafafa"/><rect y="-71.322" x="-237.847" ry="1" rx="1" height="19" width="29" fill="#434855" stroke="#252831" stroke-linecap="round" stroke-linejoin="round" stroke-dashoffset=".5" stroke-opacity=".784"/><path fill="#5294e2" fill-rule="evenodd" d="M-237.347-70.822h28v18h-28z"/></g></svg>