<svg xmlns="http://www.w3.org/2000/svg" version="1.0" width="32" height="32"><defs><linearGradient id="c"><stop offset="0"/><stop offset="1" stop-opacity="0"/></linearGradient><linearGradient id="b"><stop offset="0" stop-opacity="0"/><stop offset=".5"/><stop offset="1" stop-opacity="0"/></linearGradient><linearGradient id="a"><stop offset="0" stop-color="#7a7a7a"/><stop offset="1" stop-color="#474747"/></linearGradient><linearGradient id="d"><stop offset="0" stop-color="#e6e6e6"/><stop offset="1" stop-color="#c8c8c8"/></linearGradient><linearGradient id="e"><stop offset="0" stop-color="#fff"/><stop offset=".021" stop-color="#fff" stop-opacity=".235"/><stop offset=".992" stop-color="#fff" stop-opacity=".157"/><stop offset="1" stop-color="#fff" stop-opacity=".392"/></linearGradient><linearGradient id="f"><stop offset="0" stop-color="#7a7a7a"/><stop offset="1" stop-color="#474747"/></linearGradient><linearGradient id="g"><stop offset="0" stop-color="#e6e6e6"/><stop offset="1" stop-color="#c8c8c8"/></linearGradient><linearGradient id="h"><stop offset="0"/><stop offset="1" stop-opacity="0"/></linearGradient><linearGradient id="i"><stop offset="0" stop-opacity="0"/><stop offset=".5"/><stop offset="1" stop-opacity="0"/></linearGradient><linearGradient id="j"><stop offset="0" stop-color="#fff"/><stop offset=".034" stop-color="#fff" stop-opacity=".235"/><stop offset=".992" stop-color="#fff" stop-opacity=".157"/><stop offset="1" stop-color="#fff" stop-opacity=".392"/></linearGradient></defs><path d="M5 2v28h22V2z" fill="#e1e3e7"/><rect width="23" height="29" x="4.5" y="1.5" rx=".5" ry=".5" fill="none" stroke="#000" stroke-opacity=".24"/><path d="M19.606 4.5l-9.238 8.892A8.5 8.074 0 0 0 7.5 19.426 8.5 8.074 0 0 0 16 27.5a8.5 8.074 0 0 0 8.5-8.074 8.5 8.074 0 0 0-.015-.417.222.222 0 0 0 .015-.073V4.745a.25.25 0 0 0-.258-.245h-4.636z" fill="#edeff3" stroke="#cbcdd1"/><ellipse cx="16" cy="19" rx="3.5" ry="3.5" fill="#e1e3e7" stroke="#cfd1d5"/><rect width="11" height="6" x="8.5" y="5.5" rx="1.5" ry="1.5" fill="#4c5263" stroke="#323642"/><path d="M10 6.667v.666h1.595v-.666zm1.804 0v.666h1.511v-.666zm1.721 0v.666h1.322v-.666zm1.532 0v.666h.587v-.666zM10 8v.667h2.539V8zm2.79 0v.667h1.218V8zm1.448 0v.667h.567V8zM10 10v.667h2.812V10zm3.021 0v.667h1.472V10zM15.333 10v.667H18V10z" fill="#e9eaee"/></svg>