<svg xmlns="http://www.w3.org/2000/svg" version="1.0" width="32" height="32"><defs><linearGradient id="c"><stop offset="0"/><stop offset="1" stop-opacity="0"/></linearGradient><linearGradient id="b"><stop offset="0" stop-opacity="0"/><stop offset=".5"/><stop offset="1" stop-opacity="0"/></linearGradient><linearGradient id="a"><stop offset="0" stop-color="#7a7a7a"/><stop offset="1" stop-color="#474747"/></linearGradient><linearGradient id="d"><stop offset="0" stop-color="#e6e6e6"/><stop offset="1" stop-color="#c8c8c8"/></linearGradient><linearGradient id="e"><stop offset="0" stop-color="#fff"/><stop offset=".021" stop-color="#fff" stop-opacity=".235"/><stop offset=".992" stop-color="#fff" stop-opacity=".157"/><stop offset="1" stop-color="#fff" stop-opacity=".392"/></linearGradient><linearGradient id="f"><stop offset="0" stop-color="#fff"/><stop offset=".034" stop-color="#fff" stop-opacity=".235"/><stop offset=".992" stop-color="#fff" stop-opacity=".157"/><stop offset="1" stop-color="#fff" stop-opacity=".392"/></linearGradient><radialGradient cx="113.065" cy="97.588" r="2.563" fx="113.667" fy="98" id="g" gradientUnits="userSpaceOnUse"><stop offset="0" stop-color="#eee"/><stop offset=".16" stop-color="#cecece"/><stop offset=".468" stop-color="#888"/><stop offset="1" stop-color="#555"/></radialGradient><linearGradient id="h"><stop offset="0" stop-color="#f5f5f5"/><stop offset=".47" stop-color="#e7e7e7"/><stop offset=".693" stop-color="#8c8c8c"/><stop offset=".835" stop-color="#ddd"/><stop offset="1" stop-color="#a8a8a8"/></linearGradient><linearGradient id="i"><stop offset="0" stop-color="#f5f5f5"/><stop offset=".278" stop-color="#e7e7e7"/><stop offset=".524" stop-color="#8c8c8c"/><stop offset="1" stop-color="#ddd"/><stop offset="1" stop-color="#a8a8a8"/></linearGradient><linearGradient id="j"><stop offset="0"/><stop offset="1" stop-color="#bbb" stop-opacity="0"/></linearGradient><linearGradient id="k"><stop offset="0" stop-color="#eee"/><stop offset="1" stop-color="#eee" stop-opacity="0"/></linearGradient></defs><g transform="translate(-117.696 -413.071)"><path d="M122.696 415.071v28h22v-28z" fill="#e1e3e7"/><rect ry=".5" rx=".5" y="414.571" x="122.196" height="29" width="23" fill="none" stroke="#000" stroke-opacity=".24"/><rect ry="1" rx="1" y="416.071" x="123.696" height="1" width="1" fill="#8c8c8c"/><rect ry="1" rx="1" y="416.071" x="142.696" height="1" width="1" fill="#8c8c8c"/><rect ry="1" rx="1" y="441.071" x="142.696" height="1" width="1" fill="#8c8c8c"/><rect ry="1" rx="1" y="441.071" x="123.696" height="1" width="1" fill="#8c8c8c"/><rect ry="1" rx="1" y="428.071" x="123.696" height="1" width="1" fill="#8c8c8c"/><rect ry="1" rx="1" y="428.071" x="142.696" height="1" width="1" fill="#8c8c8c"/><path d="M137.302 417.571l-9.239 8.892a8.5 8.074 0 0 0-2.867 6.034 8.5 8.074 0 0 0 8.5 8.074 8.5 8.074 0 0 0 8.5-8.074 8.5 8.074 0 0 0-.016-.417.222.222 0 0 0 .016-.073v-14.191a.25.25 0 0 0-.258-.245h-4.636z" fill="#edeff3" stroke="#cbcdd1"/><ellipse ry="3.5" rx="3.5" cy="432.071" cx="133.696" fill="#e1e3e7" stroke="#cfd1d5"/><rect ry="1.5" rx="1.5" y="418.571" x="126.196" height="6" width="11" fill="#4c5263" stroke="#323642"/><path d="M127.696 419.738v.667h1.594v-.667zm1.804 0v.667h1.51v-.667zm1.72 0v.667h1.322v-.667zm1.532 0v.667h.588v-.667zm-5.056 1.333v.667h2.538v-.667zm2.79 0v.667h1.217v-.667zm1.448 0v.667h.566v-.667zm-4.238 2v.667h2.811v-.667zm3.02 0v.667h1.473v-.667zM133.029 423.071v.667h2.667v-.667z" fill="#e9eaee"/></g></svg>