<svg xmlns="http://www.w3.org/2000/svg" height="32" width="32" version="1.0"><g transform="translate(249.246 101.585)"><rect ry="2" rx="2" y="-96.585" x="-247.746" height="22" width="29" fill="none" stroke="#4f6698" stroke-opacity=".267"/><rect ry="1.5" rx="1.5" y="-96.085" x="-247.246" height="21" width="28" fill="#f5f5f5"/><path d="M-245.669-96.085h2.423v21h-2.423c-.95 0-1.577-.473-1.577-1.285V-94.8c0-.812.627-1.285 1.577-1.285z" fill="#4c5263"/><ellipse cy="-77.085" cx="-245.246" rx="1" ry="1" fill="#82b2ea"/><path d="M-245.675-96.585h2.93v22h-2.93c-1.187 0-2.07-.895-2.07-1.746v-18.508c0-.85.883-1.746 2.07-1.746z" fill="none" stroke="#252831" stroke-opacity=".784"/><path d="M-226.588-90.875c.378.3.464.815.192 1.154l-6.858 8.586c-.271.34-1.435.866-1.662.686-.228-.18.026-1.428.297-1.768l6.858-8.586c.272-.34.795-.372 1.173-.072z" fill="#586075" fill-opacity=".784"/></g></svg>