<svg xmlns="http://www.w3.org/2000/svg" width="32" height="32"><g transform="matrix(.65854 0 0 .65854 .195 -10.341)"><g transform="matrix(.75 0 0 .75 0 16)"><ellipse ry="27.333" rx="27.333" cx="32" cy="32" fill="none" stroke="#2c3854" stroke-width="2.025" stroke-opacity=".302"/><path d="M32 5.679C17.463 5.679 5.679 17.463 5.679 32S17.463 58.321 32 58.321 58.321 46.537 58.321 32 46.537 5.679 32 5.679zm0 16.266c5.922 0 10.055 4.133 10.055 10.055S37.922 42.055 32 42.055 21.945 37.922 21.945 32 26.078 21.945 32 21.945z" fill="#fafafa"/></g><path d="M24 32.407a7.593 7.593 0 1 0 0 15.186 7.593 7.593 0 0 0 0-15.186zm0 4.497c1.46 0 3.096 1.636 3.096 3.096 0 1.46-1.636 3.096-3.096 3.096-1.46 0-3.096-1.636-3.096-3.096 0-1.46 1.636-3.096 3.096-3.096z" fill="#fff" fill-opacity=".388"/><ellipse cy="40" cx="24" rx="2.278" ry="2.278" fill="none" stroke="#2c3854" stroke-width="1.519" stroke-opacity=".302"/><ellipse cx="24" cy="40" rx="6.833" ry="6.833" fill="none" stroke="#2c3854" stroke-width="1.519" stroke-opacity=".302"/></g></svg>