<svg xmlns="http://www.w3.org/2000/svg" xmlns:xlink="http://www.w3.org/1999/xlink" height="32" width="32"><defs><linearGradient id="d"><stop offset="0" stop-color="#fff"/><stop offset="1" stop-color="#fff" stop-opacity="0"/></linearGradient><linearGradient id="c"><stop offset="0" stop-color="#fff"/><stop offset=".006" stop-color="#fff" stop-opacity=".235"/><stop offset=".796" stop-color="#fff" stop-opacity=".157"/><stop offset="1" stop-color="#fff" stop-opacity=".392"/></linearGradient><linearGradient id="a"><stop offset="0"/><stop offset="1" stop-opacity="0"/></linearGradient><linearGradient id="f"><stop offset="0" stop-color="#b4b4b4"/><stop offset="1" stop-color="#fff"/></linearGradient><linearGradient id="e"><stop offset="0" stop-color="#002e99"/><stop offset="1" stop-color="#002e99" stop-opacity="0"/></linearGradient><linearGradient id="b"><stop offset="0" stop-color="#64baff"/><stop offset="1" stop-color="#3689e6"/></linearGradient><linearGradient xlink:href="#g" id="h" gradientUnits="userSpaceOnUse" gradientTransform="matrix(1 0 0 1.0909 60 -2.182)" x1="24" y1="14" x2="24" y2="33"/><linearGradient id="g"><stop offset="0" stop-color="#2d2d2d"/><stop offset="1" stop-color="#3f3f3f"/></linearGradient><linearGradient xlink:href="#g" id="i" gradientUnits="userSpaceOnUse" gradientTransform="matrix(1 0 0 1.0909 60 -2.182)" x1="881" y1="-244.24" x2="881" y2="-233.927"/></defs><path d="M16 1L4 4.925c0 8.264-.037 12.794 1.416 16.073C6.87 24.278 9.853 26.438 16 30c6.147-3.562 9.13-5.721 10.584-9.002 1.453-3.279 1.417-7.81 1.416-16.073L16 1z" style="isolation:auto;mix-blend-mode:normal;solid-color:#000;solid-opacity:1;marker:none" color="#000" overflow="visible" fill="#f2f2f2"/><path d="M6.002 7L16 3.5 26 7c0 13.474.3 14.547-10 20.5C5.614 21.503 6.002 20.47 6.002 7z" style="isolation:auto;mix-blend-mode:normal;solid-color:#000;solid-opacity:1;marker:none" color="#000" overflow="visible" fill="#74bcfb"/><path d="M4 4.932L16 1v29C3.755 22.905 4 21.398 4 4.932z" style="isolation:auto;mix-blend-mode:normal;solid-color:#000;solid-opacity:1;marker:none" color="#000" overflow="visible" opacity=".2" fill="#fff"/><path d="M3.5 4.568L16 .5l12.5 4.068c0 17.034 0 18.74-12.5 25.932C3.5 23.308 3.5 21.602 3.5 4.568z" style="isolation:auto;mix-blend-mode:normal;solid-color:#000;solid-opacity:1" color="#000" overflow="visible" opacity=".35" fill="none" stroke="#555761" stroke-linecap="round" stroke-linejoin="round"/><path d="M6.5 7.354L16 4l9.5 3.354c0 13.06.193 14.02-9.5 19.646-9.693-5.627-9.5-6.587-9.5-19.646z" opacity=".35" fill="none" stroke="#002e99" stroke-linecap="round" stroke-linejoin="round"/><path style="marker:none" overflow="visible" d="M941-269a3 3 0 0 0-3 3c0 1.243.745 2.304 1.822 2.759L938-257h6l-1.821-6.241A2.984 2.984 0 0 0 944-266a3 3 0 0 0-3-3z" color="#000" fill="url(#i)" transform="matrix(.91667 0 0 .91667 -846.333 256.583)" stroke-width="1.091"/><path style="marker:none" overflow="visible" d="M16 9.695a2.83 2.83 0 0 0-2.83 2.83c0 1.172.703 2.172 1.72 2.601l-1.72 5.886h5.66l-1.718-5.886a2.814 2.814 0 0 0 1.717-2.602A2.83 2.83 0 0 0 16 9.695z" color="#000" fill="none" stroke-width="1.06"/><path d="M16.25 10.5A2.25 2.25 0 0 0 14 12.75a2.25 2.25 0 0 0 1.818 2.207l-1.64 5.543h4.16l-1.654-5.545A2.25 2.25 0 0 0 18.5 12.75a2.25 2.25 0 0 0-2.25-2.25z" style="marker:none" fill="#0d69ed" stroke="#0045c8"/></svg>