<svg xmlns="http://www.w3.org/2000/svg" xmlns:xlink="http://www.w3.org/1999/xlink" height="32" width="32"><defs><linearGradient id="f"><stop offset="0" stop-color="#fff3cb"/><stop offset=".262" stop-color="#fff7dd"/><stop offset=".661" stop-color="#fdedc5"/><stop offset="1" stop-color="#eeb878"/></linearGradient><linearGradient id="l"><stop offset="0" stop-color="#fff"/><stop offset="1" stop-color="#fff" stop-opacity="0"/></linearGradient><linearGradient id="h"><stop offset="0" stop-color="#fff3cb"/><stop offset=".262" stop-color="#fdde76"/><stop offset=".661" stop-color="#f9c440"/><stop offset="1" stop-color="#e48b20"/></linearGradient><linearGradient id="d"><stop offset="0" stop-color="#fff"/><stop offset=".063" stop-color="#fff" stop-opacity=".235"/><stop offset=".951" stop-color="#fff" stop-opacity=".157"/><stop offset="1" stop-color="#fff" stop-opacity=".392"/></linearGradient><linearGradient id="e"><stop offset="0" stop-color="#ce4f47"/><stop offset="1" stop-color="#b93b36"/></linearGradient><radialGradient gradientTransform="matrix(2.00378 0 0 1.4 27.988 -17.4)" gradientUnits="userSpaceOnUse" xlink:href="#a" id="m" fy="43.5" fx="4.993" r="2.5" cy="43.5" cx="4.993"/><linearGradient id="a"><stop offset="0" stop-color="#181818"/><stop offset="1" stop-color="#181818" stop-opacity="0"/></linearGradient><radialGradient gradientTransform="matrix(2.00378 0 0 1.4 -20.012 -104.4)" gradientUnits="userSpaceOnUse" xlink:href="#b" id="n" fy="43.5" fx="4.993" r="2.5" cy="43.5" cx="4.993"/><linearGradient id="b"><stop offset="0" stop-color="#181818"/><stop offset="1" stop-color="#181818" stop-opacity="0"/></linearGradient><linearGradient gradientUnits="userSpaceOnUse" xlink:href="#c" id="o" y2="39.999" x2="25.058" y1="47.028" x1="25.058"/><linearGradient id="c"><stop offset="0" stop-color="#181818" stop-opacity="0"/><stop offset=".5" stop-color="#181818"/><stop offset="1" stop-color="#181818" stop-opacity="0"/></linearGradient><linearGradient id="g"><stop offset="0" stop-color="#fff"/><stop offset="1" stop-color="#fff" stop-opacity="0"/></linearGradient><linearGradient id="k"><stop offset="0" stop-color="#fff3cb"/><stop offset=".262" stop-color="#fff7dd"/><stop offset=".661" stop-color="#fdedc5"/><stop offset="1" stop-color="#f7dec0"/></linearGradient><clipPath id="p" clipPathUnits="userSpaceOnUse"><path style="isolation:auto;mix-blend-mode:normal;solid-color:#000;solid-opacity:1;marker:none" d="M14.674 8c-.07 2.905-.988 5.45-2.754 7.635-.07-.86-.336-1.72-.8-2.58-.047.65-.31 1.517-.786 2.597-.476 1.081-.772 1.864-.889 2.352-.255 1.232-.11 2.313.436 3.242.546.93 1.621 1.848 3.224 2.754 2.145 1.289 3.363.99 5.37 0 1.138-.65 2.044-1.366 2.718-2.145.674-.778 1.103-1.533 1.29-2.265a6.421 6.421 0 0 0 .156-2.266 6.628 6.628 0 0 0-.557-2.11c-.29-.627-.622-1.219-.994-1.777-.372-.557-.708-.998-1.01-1.324-.302-.325-.546-.558-.732-.697.162.442.22.918.174 1.43a4.39 4.39 0 0 1-.348 1.394 6.216 6.216 0 0 0-.611-2.092c-.337-.697-.697-1.273-1.08-1.726a10.852 10.852 0 0 0-1.325-1.307c-.5-.418-.843-.69-1.029-.818A9.263 9.263 0 0 0 14.674 8z" color="#000" overflow="visible" fill="url(#i)"/></clipPath><linearGradient y2="53.756" x2="-34.629" y1="-.342" x1="-34.629" gradientTransform="matrix(.50704 0 0 .50651 34.62 2.262)" gradientUnits="userSpaceOnUse" id="i" xlink:href="#h"/><linearGradient y2="53.756" x2="-34.629" y1="-.342" x1="-34.629" gradientTransform="matrix(.50704 0 0 .50651 34.62 2.262)" gradientUnits="userSpaceOnUse" id="j" xlink:href="#k"/></defs><path d="M3.5 2.5c-.554 0-1 .446-1 1v4c0 .554.446 1 1 1h4c.554 0 1-.446 1-1 0 .554.446 1 1 1h10c.554 0 1-.446 1-1 0 .554.446 1 1 1h7c.554 0 1-.446 1-1v-4c0-.554-.446-1-1-1h-7c-.554 0-1 .446-1 1 0-.554-.446-1-1-1h-10c-.554 0-1 .446-1 1 0-.554-.446-1-1-1h-4z" style="isolation:auto;mix-blend-mode:normal;solid-color:#000;solid-opacity:1;marker:none" color="#000" overflow="visible" fill="#bf413b"/><path d="M3.5 14.5c-.554 0-1 .446-1 1v4c0 .554.446 1 1 1h4c.554 0 1-.446 1-1 0 .554.446 1 1 1h10c.554 0 1-.446 1-1 0 .554.446 1 1 1h7c.554 0 1-.446 1-1v-4c0-.554-.446-1-1-1h-7c-.554 0-1 .446-1 1 0-.554-.446-1-1-1h-10c-.554 0-1 .446-1 1 0-.554-.446-1-1-1h-4z" style="marker:none;isolation:auto;mix-blend-mode:normal;solid-color:#000;solid-opacity:1;filter-blend-mode:normal;filter-gaussianBlur-deviation:0" color="#000" overflow="visible" fill="#bf413b"/><path d="M3.5 20.5c-.554 0-1 .446-1 1v4c0 .554.446 1 1 1h7c.554 0 1-.446 1-1 0 .554.446 1 1 1h10c.554 0 1-.446 1-1 0 .554.446 1 1 1h4c.554 0 1-.446 1-1v-4c0-.554-.446-1-1-1h-4c-.554 0-1 .446-1 1 0-.554-.446-1-1-1h-10c-.554 0-1 .446-1 1 0-.554-.446-1-1-1h-7zM3.5 8.5c-.554 0-1 .446-1 1v4c0 .554.446 1 1 1h7c.554 0 1-.446 1-1 0 .554.446 1 1 1h10c.554 0 1-.446 1-1 0 .554.446 1 1 1h4c.554 0 1-.446 1-1v-4c0-.554-.446-1-1-1h-4c-.554 0-1 .446-1 1 0-.554-.446-1-1-1h-10c-.554 0-1 .446-1 1 0-.554-.446-1-1-1h-7z" style="marker:none" color="#000" overflow="visible" fill="#bf413b"/><rect transform="scale(-1 1)" style="marker:none" y="20.5" x="-29.5" ry="1" rx="1" height="6" width="6" color="#000" overflow="visible" opacity=".35" fill="none" stroke="#681d22" stroke-linecap="round" stroke-linejoin="round"/><rect transform="scale(-1 1)" style="marker:none" y="20.5" x="-23.5" ry="1" rx="1" height="6" width="12" color="#000" overflow="visible" opacity=".5" fill="none" stroke="#681d22" stroke-linecap="round" stroke-linejoin="round"/><rect transform="scale(-1 1)" style="marker:none" y="20.5" x="-11.5" ry="1" rx="1" height="6" width="9" color="#000" overflow="visible" opacity=".35" fill="none" stroke="#681d22" stroke-linecap="round" stroke-linejoin="round"/><rect transform="scale(-1 1)" style="marker:none" y="8.5" x="-29.5" ry="1" rx="1" height="6" width="6" color="#000" overflow="visible" opacity=".35" fill="none" stroke="#681d22" stroke-linecap="round" stroke-linejoin="round"/><rect transform="scale(-1 1)" style="marker:none" y="8.5" x="-23.5" ry="1" rx="1" height="6" width="12" color="#000" overflow="visible" opacity=".35" fill="none" stroke="#681d22" stroke-linecap="round" stroke-linejoin="round"/><rect transform="scale(-1 1)" style="marker:none" y="8.5" x="-11.5" ry="1" rx="1" height="6" width="9" color="#000" overflow="visible" opacity=".35" fill="none" stroke="#681d22" stroke-linecap="round" stroke-linejoin="round"/><rect style="marker:none" y="14.5" x="2.5" ry="1" rx="1" height="6" width="6" color="#000" overflow="visible" opacity=".35" fill="none" stroke="#681d22" stroke-linecap="round" stroke-linejoin="round"/><rect style="marker:none" y="14.5" x="8.5" ry="1" rx="1" height="6" width="12" color="#000" overflow="visible" opacity=".5" fill="none" stroke="#681d22" stroke-linecap="round" stroke-linejoin="round"/><rect style="marker:none" y="14.5" x="20.5" ry="1" rx="1" height="6" width="9" color="#000" overflow="visible" opacity=".35" fill="none" stroke="#681d22" stroke-linecap="round" stroke-linejoin="round"/><rect style="marker:none" y="2.5" x="2.5" ry="1" rx="1" height="6" width="6" color="#000" overflow="visible" opacity=".35" fill="none" stroke="#681d22" stroke-linecap="round" stroke-linejoin="round"/><rect style="marker:none" y="2.5" x="8.5" ry="1" rx="1" height="6" width="12" color="#000" overflow="visible" opacity=".35" fill="none" stroke="#681d22" stroke-linecap="round" stroke-linejoin="round"/><rect style="marker:none" y="2.5" x="20.5" ry="1" rx="1" height="6" width="9" color="#000" overflow="visible" opacity=".35" fill="none" stroke="#681d22" stroke-linecap="round" stroke-linejoin="round"/><g opacity=".4"><path fill="url(#m)" d="M38 40h5v7h-5z" transform="matrix(.73684 0 0 .57143 -1.684 4.143)"/><path transform="matrix(-.73684 0 0 -.57143 -1.684 4.143)" fill="url(#n)" d="M-10-47h5v7h-5z"/><path fill="url(#o)" d="M10 40h28v7H10z" transform="matrix(.73684 0 0 .57143 -1.684 4.143)"/></g><path d="M3.5 26.5c-.554 0-1 .446-1 1v1c0 .554.446 1 1 1h4c.554 0 1-.446 1-1 0 .554.446 1 1 1h10c.554 0 1-.446 1-1 0 .554.446 1 1 1h7c.554 0 1-.446 1-1v-1c0-.554-.446-1-1-1h-7c-.554 0-1 .446-1 1 0-.554-.446-1-1-1h-10c-.554 0-1 .446-1 1 0-.554-.446-1-1-1h-4z" style="marker:none;isolation:auto;mix-blend-mode:normal;solid-color:#000;solid-opacity:1;filter-blend-mode:normal;filter-gaussianBlur-deviation:0" color="#000" overflow="visible" fill="#bf413b"/><rect style="marker:none" y="26.5" x="2.5" ry="1" rx="1" height="3" width="6" color="#000" overflow="visible" opacity=".35" fill="none" stroke="#681d22" stroke-linecap="round" stroke-linejoin="round"/><rect style="marker:none" y="26.5" x="8.5" ry="1" rx="1" height="3" width="12" color="#000" overflow="visible" opacity=".35" fill="none" stroke="#681d22" stroke-linecap="round" stroke-linejoin="round"/><rect style="marker:none" y="26.5" x="20.5" ry="1" rx="1" height="3" width="9" color="#000" overflow="visible" opacity=".35" fill="none" stroke="#681d22" stroke-linecap="round" stroke-linejoin="round"/><g color="#000"><path d="M14.674 8c-.07 2.905-.988 5.45-2.754 7.635-.07-.86-.336-1.72-.8-2.58-.047.65-.31 1.517-.786 2.597-.476 1.081-.772 1.864-.889 2.352-.255 1.232-.11 2.313.436 3.242.546.93 1.621 1.848 3.224 2.754 2.27.758 3.363.99 5.37 0 1.138-.65 2.044-1.366 2.718-2.145.674-.778 1.103-1.533 1.29-2.265a6.421 6.421 0 0 0 .156-2.266 6.628 6.628 0 0 0-.557-2.11c-.29-.627-.622-1.219-.994-1.777-.372-.557-.708-.998-1.01-1.324-.302-.325-.546-.558-.732-.697.162.442.22.918.174 1.43a4.39 4.39 0 0 1-.348 1.394 6.216 6.216 0 0 0-.611-2.092c-.337-.697-.697-1.273-1.08-1.726a10.852 10.852 0 0 0-1.325-1.307c-.5-.418-.843-.69-1.029-.818A9.263 9.263 0 0 0 14.674 8z" style="isolation:auto;mix-blend-mode:normal;solid-color:#000;solid-opacity:1;marker:none" overflow="visible" opacity=".3" fill="none" stroke="#662c05" stroke-width="2" stroke-linejoin="round"/><path d="M14.674 9c-.07 2.905-.988 5.45-2.754 7.635-.07-.86-.336-1.72-.8-2.58-.047.65-.31 1.517-.786 2.597-.476 1.081-.772 1.864-.889 2.352-.255 1.232-.11 2.313.436 3.242.546.93 1.621 1.848 3.224 2.754 2.114.789 3.363.99 5.37 0 1.138-.65 2.044-1.366 2.718-2.145.674-.778 1.103-1.533 1.29-2.265a6.421 6.421 0 0 0 .156-2.266 6.628 6.628 0 0 0-.557-2.11c-.29-.627-.622-1.219-.994-1.776-.372-.558-.708-1-1.01-1.325-.302-.325-.546-.558-.732-.697.162.442.22.918.174 1.43a4.39 4.39 0 0 1-.348 1.394 6.216 6.216 0 0 0-.611-2.092c-.337-.697-.697-1.273-1.08-1.726a10.852 10.852 0 0 0-1.325-1.307c-.5-.418-.843-.69-1.029-.818A9.263 9.263 0 0 0 14.674 9z" style="isolation:auto;mix-blend-mode:normal;solid-color:#000;solid-opacity:1;marker:none" overflow="visible" opacity=".15" fill="#662c05"/><path style="isolation:auto;mix-blend-mode:normal;solid-color:#000;solid-opacity:1;marker:none" d="M14.674 8c-.07 2.905-.988 5.45-2.754 7.635-.07-.86-.336-1.72-.8-2.58-.047.65-.31 1.517-.786 2.597-.476 1.081-.772 1.864-.889 2.352-.255 1.232-.11 2.313.436 3.242.546.93 1.621 1.848 3.224 2.754 2.426.945 3.363.99 5.37 0 1.138-.65 2.044-1.366 2.718-2.145.674-.778 1.103-1.533 1.29-2.265a6.421 6.421 0 0 0 .156-2.266 6.628 6.628 0 0 0-.557-2.11c-.29-.627-.622-1.219-.994-1.777-.372-.557-.708-.998-1.01-1.324-.302-.325-.546-.558-.732-.697.162.442.22.918.174 1.43a4.39 4.39 0 0 1-.348 1.394 6.216 6.216 0 0 0-.611-2.092c-.337-.697-.697-1.273-1.08-1.726a10.852 10.852 0 0 0-1.325-1.307c-.5-.418-.843-.69-1.029-.818A9.263 9.263 0 0 0 14.674 8z" overflow="visible" fill="#fbd25c"/><path d="M18.474 24c.767-1.534.918-3.19.453-4.967-.465-1.778-1.383-3.143-2.754-4.096.116.511.053 1.353-.191 2.527-.244 1.174-.634 2.063-1.168 2.667.093-.744.116-1.348.07-1.813-.047-.465-.117-.813-.21-1.046l-.174-.313c-.14.836-.5 1.673-1.08 2.51a6.618 6.618 0 0 0-.68 1.22c-.151.371-.21.848-.175 1.429.035.58.215 1.208.54 1.882 0 0 .92.75 1.944.75 2.482 0 2.595-.276 3.425-.75z" style="isolation:auto;mix-blend-mode:normal;solid-color:#000;solid-opacity:1;marker:none" clip-path="url(#p)" overflow="visible" fill="none" stroke="#ba8234" stroke-width="2" stroke-linejoin="round" stroke-opacity=".273"/><path style="isolation:auto;mix-blend-mode:normal;solid-color:#000;solid-opacity:1;marker:none" d="M18.474 24c.767-1.534.918-3.19.453-4.967-.465-1.778-1.383-3.143-2.754-4.096.116.511.053 1.353-.191 2.527-.244 1.174-.634 2.063-1.168 2.667.093-.744.116-1.348.07-1.813-.047-.465-.117-.813-.21-1.046l-.174-.313c-.14.836-.5 1.673-1.08 2.51a6.618 6.618 0 0 0-.68 1.22c-.151.371-.21.848-.175 1.429.035.58.215 1.208.54 1.882 0 0 .92.75 1.944.75 2.482 0 2.595-.276 3.425-.75z" overflow="visible" fill="#fdedc6"/></g></svg>