<svg xmlns="http://www.w3.org/2000/svg" width="32" height="32"><rect style="marker:none" y="2.5" x="2.5" ry="2.16" rx="2.16" height="27" width="27" color="#000" overflow="visible" fill="#9fe14d"/><rect style="isolation:auto;mix-blend-mode:normal;solid-color:#000;solid-opacity:1;marker:none" y="2.5" x="2.5" ry="2.16" rx="2.16" height="27" width="27" color="#000" overflow="visible" opacity=".25" fill="none" stroke="#0a3600" stroke-linecap="round"/><g color="#000" font-weight="400" font-family="sans-serif" fill="#fff" fill-rule="evenodd"><path style="line-height:normal;text-indent:0;text-align:start;text-decoration-line:none;text-decoration-style:solid;text-decoration-color:#000;text-transform:none;block-progression:tb;white-space:normal;isolation:auto;mix-blend-mode:normal;solid-color:#000;solid-opacity:1" d="M11 9c-2.735 0-5 2.169-5 4.865v.27c0 2.008 1.258 3.72 3.03 4.465a5.93 5.93 0 0 1-.03-.567v-.066c0-.53.077-1.042.209-1.531A2.805 2.805 0 0 1 8 14.135v-.27C8 12.28 9.303 11 11 11h6c1.697 0 3 1.28 3 2.865v.27C20 15.72 18.697 17 17 17h-3.754a2.013 2.013 0 0 0-.246.967v.066c0 .36.093.684.246.967H17c2.735 0 5-2.169 5-4.865v-.27C22 11.17 19.735 9 17 9h-6z" overflow="visible"/><path style="line-height:normal;text-indent:0;text-align:start;text-decoration-line:none;text-decoration-style:solid;text-decoration-color:#000;text-transform:none;block-progression:tb;white-space:normal;isolation:auto;mix-blend-mode:normal;solid-color:#000;solid-opacity:1" d="M15 13c-2.748 0-5 2.228-5 4.967v.066C10 20.772 12.252 23 15 23h6c2.748 0 5-2.228 5-4.967v-.066c0-2.042-1.253-3.798-3.03-4.56.018.184.03.37.03.56v.066c0 .536-.078 1.054-.213 1.549A2.929 2.929 0 0 1 24 17.967v.066C24 19.69 22.684 21 21 21h-6c-1.684 0-3-1.31-3-2.967v-.066C12 16.31 13.316 15 15 15h3.754c.153-.283.246-.608.246-.967v-.066c0-.36-.093-.684-.246-.967H15z" overflow="visible"/></g></svg>