<svg xmlns="http://www.w3.org/2000/svg" width="32" height="32"><defs><linearGradient id="e"><stop offset="0" stop-color="#fafafa"/><stop offset="1" stop-color="#d4d4d4"/></linearGradient><linearGradient id="d"><stop offset="0" stop-color="#fff"/><stop offset=".04" stop-color="#fff" stop-opacity=".235"/><stop offset=".958" stop-color="#fff" stop-opacity=".157"/><stop offset="1" stop-color="#fff" stop-opacity=".392"/></linearGradient><linearGradient id="a"><stop offset="0" stop-color="#181818"/><stop offset="1" stop-color="#181818" stop-opacity="0"/></linearGradient><linearGradient id="b"><stop offset="0" stop-color="#181818"/><stop offset="1" stop-color="#181818" stop-opacity="0"/></linearGradient><linearGradient id="c"><stop offset="0" stop-color="#181818" stop-opacity="0"/><stop offset=".5" stop-color="#181818"/><stop offset="1" stop-color="#181818" stop-opacity="0"/></linearGradient><linearGradient id="f"><stop offset="0" stop-color="#dcc383" stop-opacity="0"/><stop offset=".172" stop-color="#dcc383"/><stop offset=".279" stop-color="#856101"/><stop offset=".657" stop-color="#fef3b1"/><stop offset=".833" stop-color="#fff4b0"/><stop offset="1" stop-color="#7d5a00"/></linearGradient><linearGradient id="g"><stop offset="0" stop-color="#2d2d2d"/><stop offset="1" stop-color="#3f3f3f"/></linearGradient></defs><rect transform="scale(1 -1)" width="26" height="26" rx="1.615" ry="1.615" x="3" y="-29" style="marker:none" color="#000" overflow="visible" fill="#f4f4f4"/><rect width="27" height="27" rx="2.16" ry="2.16" x="2.5" y="2.5" style="marker:none" color="#000" overflow="visible" fill="none" stroke="#555761" stroke-linecap="round" stroke-linejoin="round" opacity=".35"/><path style="marker:none" d="M8 10v11h4v1h1v1h6v-1h1v-1h4V10z" color="#000" overflow="visible" fill="#3c3c3c"/><path style="marker:none" d="M8.5 10.5v10h4v1h1v1h5v-1h1v-1h4v-10z" color="#000" overflow="visible" opacity=".3" fill="none" stroke="#000"/><path style="marker:none" color="#000" overflow="visible" fill="#fff4b0" d="M20.25 11h.7v2h-.7zM11 11h.7v2H11zM12.85 11h.7v2h-.7zM14.7 11h.7v2h-.7zM16.55 11h.7v2h-.7zM18.4 11h.7v2h-.7z"/></svg>