<svg xmlns="http://www.w3.org/2000/svg" height="32" width="32"><defs><linearGradient id="h"><stop offset="0"/><stop offset="1" stop-opacity="0"/></linearGradient><linearGradient id="d"><stop offset="0" stop-color="#fff"/><stop offset=".063" stop-color="#fff" stop-opacity=".235"/><stop offset=".951" stop-color="#fff" stop-opacity=".157"/><stop offset="1" stop-color="#fff" stop-opacity=".392"/></linearGradient><linearGradient id="a"><stop offset="0" stop-color="#181818"/><stop offset="1" stop-color="#181818" stop-opacity="0"/></linearGradient><linearGradient id="b"><stop offset="0" stop-color="#181818"/><stop offset="1" stop-color="#181818" stop-opacity="0"/></linearGradient><linearGradient id="c"><stop offset="0" stop-color="#181818" stop-opacity="0"/><stop offset=".5" stop-color="#181818"/><stop offset="1" stop-color="#181818" stop-opacity="0"/></linearGradient><linearGradient id="e"><stop offset="0" stop-color="#fff"/><stop offset=".036" stop-color="#fff" stop-opacity=".235"/><stop offset=".951" stop-color="#fff" stop-opacity=".157"/><stop offset="1" stop-color="#fff" stop-opacity=".392"/></linearGradient><linearGradient id="f"><stop offset="0" stop-color="#f4f4f4"/><stop offset="1" stop-color="#dbdbdb"/></linearGradient><linearGradient id="g"><stop offset="0" stop-color="#fff"/><stop offset=".063" stop-color="#fff" stop-opacity=".235"/><stop offset=".951" stop-color="#fff" stop-opacity=".157"/><stop offset="1" stop-color="#fff" stop-opacity=".392"/></linearGradient><linearGradient id="i"><stop offset="0" stop-color="#505050"/><stop offset=".262" stop-color="#2b2b2b"/><stop offset=".705" stop-color="#0a0a0a"/><stop offset="1"/></linearGradient><linearGradient id="j"><stop offset="0" stop-color="#474747" stop-opacity="0"/><stop offset=".1" stop-color="#474747"/><stop offset=".9" stop-color="#474747"/><stop offset="1" stop-color="#474747" stop-opacity="0"/></linearGradient><linearGradient id="k"><stop offset="0" stop-color="#fff" stop-opacity="0"/><stop offset=".108" stop-color="#d9d9d9"/><stop offset=".921" stop-color="#d9d9d9"/><stop offset="1" stop-color="#fff" stop-opacity="0"/></linearGradient><linearGradient id="l"><stop offset="0" stop-color="#7a7a7a"/><stop offset=".198" stop-color="#ebebeb"/><stop offset=".599" stop-color="#b9b9b9"/><stop offset="1" stop-color="#878787"/></linearGradient></defs><g transform="translate(254.847 85.085)"><g transform="matrix(.49175 0 0 .5121 -229.005 -81.068)"><rect width="38.667" height="19.5" x="-39.333" y="-1" rx=".61" ry=".586" fill="none" stroke="#4f6698" stroke-width="1.993" stroke-opacity=".267"/><path fill="#fafafa" d="M-38.317-.023h36.604v17.575h-36.604z"/></g><rect ry="1" rx="1" y="-74.579" x="-254.347" height="15" width="31" fill="#4c5263" stroke="#262830" stroke-opacity=".784"/><rect ry=".3" rx=".3" y="-63.579" x="-248.347" height="7" width="19" fill="none" stroke="#4f6698" stroke-opacity=".267"/><ellipse ry="1" rx="1" cy="-70.079" cx="-228.847" fill="#82b2ea"/><rect ry=".3" rx=".3" y="-64.079" x="-248.847" height="1.333" width="20" fill-opacity=".404"/><path fill="#fafafa" d="M-247.847-63.079h18v6h-18z"/><path d="M-230.847-58.08v-1h-1.595v1zm-1.805 0v-1h-1.51v1zm-1.72 0v-1h-1.322v1zm-1.532 0v-1h-.588v1zm-.797 0v-1h-1.301v1zm-1.532 0v-1h-3.357v1zm7.386-2v-1h-2.54v1zm-2.791 0v-1h-1.217v1zm-1.448 0v-1h-.566v1zm-.818 0v-1h-1.091v1zm-1.343 0v-1h-1.091v1zm-1.322 0v-1h-1.783v1zm-2.035 0v-1h-2.33v1z" fill="#b4bfd8" fill-opacity=".643"/></g><path d="M4.572 14.598l-.859 1.963M8.165 14.598l-.858 1.963M11.758 14.598L10.9 16.56M15.352 14.598l-.859 1.963" opacity=".5" fill="none" stroke="#000" stroke-width="2" stroke-linecap="round"/></svg>