<svg xmlns="http://www.w3.org/2000/svg" width="32" height="32"><g transform="translate(254.847 85.085)"><g transform="matrix(.49175 0 0 .5121 -229.005 -81.068)"><rect width="38.667" height="19.5" x="-39.333" y="-1" rx=".61" ry=".586" fill="none" stroke="#4f6698" stroke-width="1.993" stroke-opacity=".267"/><path fill="#fafafa" d="M-38.317-.023h36.604v17.575h-36.604z"/></g><rect ry="1" rx="1" y="-74.579" x="-254.347" height="15" width="31" fill="#4c5263" stroke="#262830" stroke-opacity=".784"/><rect ry=".3" rx=".3" y="-63.579" x="-248.347" height="7" width="19" fill="none" stroke="#4f6698" stroke-opacity=".267"/><ellipse ry="1" rx="1" cy="-70.079" cx="-228.847" fill="#82b2ea"/><rect ry=".3" rx=".3" y="-64.079" x="-248.847" height="1.333" width="20" fill-opacity=".404"/><path fill="#fafafa" d="M-247.847-63.079h18v6h-18z"/><path d="M-230.847-58.08v-1h-1.595v1zm-1.805 0v-1h-1.51v1zm-1.72 0v-1h-1.322v1zm-1.532 0v-1h-.588v1zm-.797 0v-1h-1.301v1zm-1.532 0v-1h-3.357v1zm7.386-2v-1h-2.54v1zm-2.791 0v-1h-1.217v1zm-1.448 0v-1h-.566v1zm-.818 0v-1h-1.091v1zm-1.343 0v-1h-1.091v1zm-1.322 0v-1h-1.783v1zm-2.035 0v-1h-2.33v1z" fill="#b4bfd8" fill-opacity=".643"/></g></svg>