<svg width="64" height="64" version="1.1" viewBox="0 0 16.933 16.933" xmlns="http://www.w3.org/2000/svg">
 <defs>
  <linearGradient id="c-3" x1="-197.1" x2="-196.91" y1="217.68" y2="219.37" gradientTransform="rotate(-45 -338.07 -140.03)" gradientUnits="userSpaceOnUse">
   <stop offset="0"/>
   <stop stop-opacity="0" offset="1"/>
  </linearGradient>
 </defs>
 <path d="m3.175 2.381c-0.293 0-0.265 0.264-0.265 0.53h-1.058c-0.265 0-0.265 0-0.265 0.264v5.556c0 0.293 0.237 0.53 0.53 0.53h12.7a0.529 0.529 0 0 0 0.529-0.53v-5.556c0-0.265 0-0.265-0.265-0.265h-7.408c0-0.265 0.028-0.53-0.265-0.53z" fill="#ffffff" fill-opacity=".976" stroke="#000000" stroke-opacity=".268" stroke-width=".529" paint-order="markers stroke fill"/>
 <path d="m3.175 2.381c-0.293 0-0.265 0.264-0.265 0.53h-1.058c-0.265 0-0.265 0-0.265 0.264v5.556c0 0.293 0.237 0.53 0.53 0.53h12.7a0.529 0.529 0 0 0 0.529-0.53v-5.556c0-0.265 0-0.265-0.265-0.265h-7.408c0-0.265 0.028-0.53-0.265-0.53z" fill="#ffffff" fill-opacity=".976" paint-order="markers stroke fill"/>
 <path d="m8.467 4.233c-0.293 0-0.382 0.276-0.53 0.53l-0.308 0.528h-6.835c-0.265 0-0.265 0.265-0.265 0.265v8.996c0 0.264 0.265 0.264 0.265 0.264h15.346c0.264 0 0.264-0.264 0.264-0.264v-10.054c0-0.265-0.264-0.265-0.264-0.265z" fill="none" stroke="#003579" stroke-opacity=".561" stroke-width=".529" paint-order="markers stroke fill"/>
 <path d="m8.467 4.233c-0.293 0-0.382 0.276-0.53 0.53l-0.308 0.528h-6.835c-0.265 0-0.265 0.265-0.265 0.265v8.996c0 0.264 0.265 0.264 0.265 0.264h15.346c0.264 0 0.264-0.264 0.264-0.264v-10.054c0-0.265-0.264-0.265-0.264-0.265z" fill="#6ba4e7" paint-order="markers stroke fill"/>
 <rect x="3.44" y="2.91" width="3.704" height=".529" rx=".265" ry=".265" fill-opacity=".267" paint-order="markers stroke fill"/>
 <path transform="scale(.26458)" d="m30.842 28a0.9996 0.9996 0 0 0-0.99609 1.0039v2.0664c-0.41975 0.131-0.82112 0.29854-1.2109 0.50195l-1.4688-1.4688a0.9996 0.9996 0 0 0-1.418 0l-1.6465 1.6465a0.9996 0.9996 0 0 0 0.007813 1.418l1.4688 1.4688c-0.20275 0.38675-0.37056 0.78669-0.50195 1.2031h-2.0742a0.9996 0.9996 0 0 0-1.0039 0.99609v2.3262a0.9996 0.9996 0 0 0 1.0039 1.0039h2.082c0.12986 0.41588 0.28729 0.81657 0.48828 1.2031l-1.4629 1.4688a0.9996 0.9996 0 0 0 0 1.418l1.6387 1.6387a0.9996 0.9996 0 0 0 1.418 0l1.4766-1.4766c0.38753 0.20251 0.78592 0.37105 1.2031 0.50195v2.082a0.9996 0.9996 0 0 0 0.99609 0.99609h2.3184a0.9996 0.9996 0 0 0 1.0039-0.99609v-2.082c0.41897-0.13081 0.82177-0.29114 1.2109-0.49414l1.4688 1.4688a0.9996 0.9996 0 0 0 1.4102 0l1.6387-1.6465a0.9996 0.9996 0 0 0 0-1.4102l-1.4688-1.4688c0.20463-0.39011 0.36996-0.79066 0.50195-1.2109h2.0742a0.9996 0.9996 0 0 0 1.0039-0.99609v-2.3262a0.9996 0.9996 0 0 0-1.0039-0.99609h-2.082c-0.13082-0.41897-0.29115-0.82177-0.49414-1.2109l1.4688-1.4688a0.9996 0.9996 0 0 0 0-1.4102l-1.6465-1.6465a0.9996 0.9996 0 0 0-1.4102 0.007812l-1.4688 1.4688c-0.38748-0.20346-0.7858-0.37016-1.2031-0.50195v-2.0742a0.9996 0.9996 0 0 0-1.0039-1.0039h-2.3184zm0 1h2.3203v2.7227a6.3875 6.3875 0 0 1 2.4531 1.0195l1.9277-1.9277 1.6445 1.6406-1.9238 1.9277a6.3875 6.3875 0 0 1 1.0117 2.457h2.7266v2.3203h-2.7227a6.3875 6.3875 0 0 1-1.0195 2.457l1.9277 1.9277-1.6406 1.6406-1.9277-1.9199a6.3875 6.3875 0 0 1-2.457 1.0117v2.7227h-2.3203v-2.7227a6.3875 6.3875 0 0 1-2.457-1.0195l-1.9277 1.9277-1.6445-1.6406 1.9238-1.9238a6.3875 6.3875 0 0 1-1.0117-2.457h-2.7266v-2.3242h2.7227a6.3875 6.3875 0 0 1 1.0195-2.4531l-1.9277-1.9277 1.6445-1.6484 1.9277 1.9277a6.3875 6.3875 0 0 1 2.457-1.0156v-2.7227zm1.1602 5.5156a3.4848 3.4848 0 0 0-3.4844 3.4844 3.4848 3.4848 0 0 0 3.4844 3.4844 3.4848 3.4848 0 0 0 3.4805-3.4844 3.4848 3.4848 0 0 0-3.4805-3.4805v-0.003906zm0 1c1.3822 0.001498 2.479 1.1041 2.4805 2.4863 1e-6 1.3833-1.0971 2.479-2.4805 2.4805-1.3844 0-2.4883-1.096-2.4883-2.4805 0-1.3844 1.1039-2.4863 2.4883-2.4863z" color="#000000" fill="#000000" opacity=".35" stroke-linecap="round" stroke-linejoin="round" stroke-width="3.7796" style="-inkscape-stroke:none;paint-order:stroke fill markers"/>
 <path d="M8.16 7.673v.72a1.69 1.69 0 0 0-.65.269L7 8.152l-.435.436.51.51a1.69 1.69 0 0 0-.27.649h-.72v.615h.721a1.69 1.69 0 0 0 .268.65l-.509.509.435.434.51-.51a1.69 1.69 0 0 0 .65.27v.72h.614v-.72a1.69 1.69 0 0 0 .65-.268l.51.508.434-.434-.51-.51a1.69 1.69 0 0 0 .27-.65h.72v-.614h-.721a1.69 1.69 0 0 0-.268-.65l.509-.51-.435-.434-.51.51a1.69 1.69 0 0 0-.649-.27v-.72zm.307 1.46a.922.922 0 0 1 .921.921.922.922 0 0 1-.921.922.922.922 0 0 1-.922-.922.922.922 0 0 1 .922-.922z" fill="#000000" opacity=".15" paint-order="stroke markers fill"/>
 <path d="m16.404 11.641-3.1744 3.1749h2.6458c0.29307 0 0.52864-0.23557 0.52864-0.52864z" fill="url(#c-3)" opacity=".1" stroke-width=".26458"/>
</svg>
