<svg width="64" height="64" version="1.1" viewBox="0 0 16.933 16.933" xmlns="http://www.w3.org/2000/svg" xmlns:xlink="http://www.w3.org/1999/xlink">
 <defs>
  <linearGradient id="c-3" x1="-197.1" x2="-196.91" y1="217.68" y2="219.37" gradientTransform="rotate(-45 -338.07 -140.03)" gradientUnits="userSpaceOnUse">
   <stop offset="0"/>
   <stop stop-opacity="0" offset="1"/>
  </linearGradient>
 </defs>
 <path d="m3.175 2.381c-0.293 0-0.265 0.264-0.265 0.53h-1.058c-0.265 0-0.265 0-0.265 0.264v5.556c0 0.293 0.237 0.53 0.53 0.53h12.7a0.529 0.529 0 0 0 0.529-0.53v-5.556c0-0.265 0-0.265-0.265-0.265h-7.408c0-0.265 0.028-0.53-0.265-0.53z" fill="#ffffff" fill-opacity=".976" stroke="#000000" stroke-opacity=".268" stroke-width=".529" paint-order="markers stroke fill"/>
 <path d="m3.175 2.381c-0.293 0-0.265 0.264-0.265 0.53h-1.058c-0.265 0-0.265 0-0.265 0.264v5.556c0 0.293 0.237 0.53 0.53 0.53h12.7a0.529 0.529 0 0 0 0.529-0.53v-5.556c0-0.265 0-0.265-0.265-0.265h-7.408c0-0.265 0.028-0.53-0.265-0.53z" fill="#ffffff" fill-opacity=".976" paint-order="markers stroke fill"/>
 <path d="m8.467 4.233c-0.293 0-0.382 0.276-0.53 0.53l-0.308 0.528h-6.835c-0.265 0-0.265 0.265-0.265 0.265v8.996c0 0.264 0.265 0.264 0.265 0.264h15.346c0.264 0 0.264-0.264 0.264-0.264v-10.054c0-0.265-0.264-0.265-0.264-0.265z" fill="none" stroke="#003579" stroke-opacity=".561" stroke-width=".529" paint-order="markers stroke fill"/>
 <path d="m8.467 4.233c-0.293 0-0.382 0.276-0.53 0.53l-0.308 0.528h-6.835c-0.265 0-0.265 0.265-0.265 0.265v8.996c0 0.264 0.265 0.264 0.265 0.264h15.346c0.264 0 0.264-0.264 0.264-0.264v-10.054c0-0.265-0.264-0.265-0.264-0.265z" fill="#6ba4e7" paint-order="markers stroke fill"/>
 <rect x="3.44" y="2.91" width="3.704" height=".529" rx=".265" ry=".265" fill-opacity=".267" paint-order="markers stroke fill"/>
 <g transform="translate(-.53 4.763) scale(.26458)">
  <path d="M30 10h12v4H30z" opacity=".15"/>
  <ellipse cx="38.5" cy="25.5" rx="3.5" ry="2.5" opacity=".15"/>
  <ellipse cx="25.5" cy="27.5" rx="3.5" ry="2.5" opacity=".15"/>
  <path d="M29 9v16.324c-.825-.8-2.078-1.324-3.5-1.324-2.485 0-4.5 1.567-4.5 3.5s2.015 3.5 4.5 3.5 4.5-1.567 4.5-3.5l-.002-.021H30V15h12v8.324c-.825-.8-2.078-1.324-3.5-1.324-2.485 0-4.5 1.567-4.5 3.5s2.015 3.5 4.5 3.5 4.5-1.567 4.5-3.5c0-.013-.004-.024-.004-.037H43V9h-1zm1 1h12v4H30zm8.5 13c1.933 0 3.5 1.12 3.5 2.5S40.433 28 38.5 28 35 26.88 35 25.5s1.567-2.5 3.5-2.5zm-13 2c1.933 0 3.5 1.12 3.5 2.5S27.433 30 25.5 30 22 28.88 22 27.5s1.567-2.5 3.5-2.5z" opacity=".3"/>
 </g>
 <path d="m16.404 11.641-3.1744 3.1749h2.6458c0.29307 0 0.52864-0.23557 0.52864-0.52864z" fill="url(#c-3)" opacity=".1" stroke-width=".26458"/>
</svg>
