<svg width="64" height="64" version="1.1" viewBox="0 0 16.933 16.933" xmlns="http://www.w3.org/2000/svg" xmlns:xlink="http://www.w3.org/1999/xlink">
 <defs>
  <linearGradient id="c" x1="-197.1" x2="-196.91" y1="217.68" y2="219.36" gradientTransform="matrix(2.6726 -2.6726 2.6726 2.6726 5.4095e-6 -1058.5)" gradientUnits="userSpaceOnUse">
   <stop offset="0"/>
   <stop stop-opacity="0" offset="1"/>
  </linearGradient>
 </defs>
 <path d="m3.175 2.381c-0.293 0-0.265 0.264-0.265 0.53h-1.058c-0.265 0-0.265 0-0.265 0.264v5.556c0 0.293 0.237 0.53 0.53 0.53h12.7a0.529 0.529 0 0 0 0.529-0.53v-5.556c0-0.265 0-0.265-0.265-0.265h-7.408c0-0.265 0.028-0.53-0.265-0.53z" fill="#ffffff" fill-opacity=".976" stroke="#000000" stroke-opacity=".268" stroke-width=".529" paint-order="markers stroke fill"/>
 <path d="m3.175 2.381c-0.293 0-0.265 0.264-0.265 0.53h-1.058c-0.265 0-0.265 0-0.265 0.264v5.556c0 0.293 0.237 0.53 0.53 0.53h12.7a0.529 0.529 0 0 0 0.529-0.53v-5.556c0-0.265 0-0.265-0.265-0.265h-7.408c0-0.265 0.028-0.53-0.265-0.53z" fill="#ffffff" fill-opacity=".976" paint-order="markers stroke fill"/>
 <path d="m8.467 4.233c-0.293 0-0.382 0.276-0.53 0.53l-0.308 0.528h-6.835c-0.265 0-0.265 0.265-0.265 0.265v8.996c0 0.264 0.265 0.264 0.265 0.264h15.346c0.264 0 0.264-0.264 0.264-0.264v-10.054c0-0.265-0.264-0.265-0.264-0.265z" fill="none" stroke="#003579" stroke-opacity=".561" stroke-width=".529" paint-order="markers stroke fill"/>
 <path d="m8.467 4.233c-0.293 0-0.382 0.276-0.53 0.53l-0.308 0.528h-6.835c-0.265 0-0.265 0.265-0.265 0.265v8.996c0 0.264 0.265 0.264 0.265 0.264h15.346c0.264 0 0.264-0.264 0.264-0.264v-10.054c0-0.265-0.264-0.265-0.264-0.265z" fill="#6ba4e7" paint-order="markers stroke fill"/>
 <path transform="scale(.26458)" d="m62 43.998-11.998 12h10c1.1077 0 1.998-0.89037 1.998-1.998v-10.002z" fill="url(#c)" opacity=".1"/>
 <rect x="3.44" y="2.91" width="3.704" height=".529" rx=".265" ry=".265" fill-opacity=".267" paint-order="markers stroke fill"/>
</svg>
