<svg width="64" height="64" version="1.1" viewBox="0 0 16.933 16.933" xmlns="http://www.w3.org/2000/svg" xmlns:xlink="http://www.w3.org/1999/xlink">
 <defs>
  <linearGradient id="a">
   <stop offset="0"/>
   <stop stop-opacity="0" offset="1"/>
  </linearGradient>
  <linearGradient id="d" x1="-197.1" x2="-196.91" y1="217.68" y2="219.36" gradientTransform="matrix(.42425 -.42425 .42425 .42425 6.0324 -166.35)" gradientUnits="userSpaceOnUse" xlink:href="#a"/>
  <linearGradient id="c-7" x1="-197.1" x2="-196.91" y1="217.68" y2="219.36" gradientTransform="matrix(.42425 -.42425 .42425 .42425 1.0061 -162.38)" gradientUnits="userSpaceOnUse" xlink:href="#a"/>
 </defs>
 <g opacity=".35">
  <path transform="scale(.26458)" d="m11.604 26.797c-0.66899 0-0.89502 0.61351-1.2012 1.2031h-1.8047a1.1981 1.1981 0 0 0-1.1973 1.1973v4.2031h13.701l0.69922-1.2012c0.33638-0.5745 0.53584-1.1992 1.1973-1.1992h15.604v-1.8027a1.1981 1.1981 0 0 0-1.2031-1.1973h-16.195c-0.3515-0.56694-0.53206-1.2031-1.1973-1.2031h-8.4023z" fill="#6ba4e7" stroke-width="3.7796"/>
  <path d="m3.0702 7.0912c-0.177 0-0.2368 0.16232-0.3178 0.31832h-0.47748a0.317 0.317 0 0 0-0.31677 0.31677v1.1121h3.625l0.185-0.3178c0.089-0.152 0.14177-0.31729 0.31677-0.31729h4.1283v-0.47696a0.317 0.317 0 0 0-0.31832-0.31677h-4.2849c-0.093-0.15-0.14077-0.31832-0.31677-0.31832z" fill="#000000" opacity=".2" stroke="#000000" stroke-opacity=".96929" stroke-width=".26458"/>
  <path transform="scale(.26458)" d="m9.8008 29.799c-0.33293 0-0.60156 0.26668-0.60156 0.59961v3.002h11.902l0.69922-1.2012c0.33638-0.5745 0.53584-1.1992 1.1973-1.1992h13.805v-0.60156c0-0.33293-0.26863-0.59961-0.60156-0.59961h-26.4z" fill="#ffffff" stroke-width="3.7796"/>
  <path d="m6.085 8.202c-0.175 0-0.228 0.165-0.317 0.317l-0.185 0.318h-3.943a0.316 0.316 0 0 0-0.317 0.317v5.08c0 0.176 0.141 0.318 0.317 0.318h8.89a0.316 0.316 0 0 0 0.318-0.318v-5.715a0.316 0.316 0 0 0-0.317-0.317z" fill="#6ba4e7" stroke="#000000" stroke-opacity=".16" stroke-width=".26458" paint-order="markers stroke fill"/>
  <rect x="3.228" y="7.249" width="1.905" height=".317" ry=".159" opacity=".25" paint-order="stroke markers fill"/>
  <path d="m10.848 12.647-1.9053 1.9053h1.588c0.17584 0 0.31728-0.14197 0.31728-0.31781z" fill="url(#c-7)" opacity=".1" stroke-width=".60002"/>
 </g>
 <path d="m8.096 3.122c-0.176 0-0.236 0.161-0.317 0.317h-0.477a0.317 0.317 0 0 0-0.317 0.318v3.175c0 0.176 0.142 0.317 0.317 0.317h7.62a0.317 0.317 0 0 0 0.318-0.317v-3.175a0.317 0.317 0 0 0-0.318-0.318h-4.286c-0.093-0.149-0.141-0.317-0.317-0.317z" fill="#6ba4e7" paint-order="markers stroke fill"/>
 <path d="m8.096 3.122c-0.176 0-0.236 0.161-0.317 0.317h-0.477a0.317 0.317 0 0 0-0.317 0.318v3.175c0 0.176 0.142 0.317 0.317 0.317h7.62a0.317 0.317 0 0 0 0.318-0.317v-3.175a0.317 0.317 0 0 0-0.318-0.318h-4.286c-0.093-0.149-0.141-0.317-0.317-0.317z" opacity=".1" stroke="#000000" stroke-opacity=".96895" stroke-width=".26458" paint-order="markers stroke fill"/>
 <rect x="7.461" y="3.915" width="7.303" height="3.016" ry=".159" fill="#ffffff" paint-order="markers stroke fill"/>
 <path d="m11.112 4.233c-0.175 0-0.228 0.165-0.317 0.317l-0.185 0.318h-3.943a0.316 0.316 0 0 0-0.317 0.317v5.08c0 0.177 0.141 0.318 0.317 0.318h8.89a0.316 0.316 0 0 0 0.318-0.317v-5.716a0.316 0.316 0 0 0-0.317-0.317z" fill="#6ba4e7" stroke="#000000" stroke-opacity=".16" stroke-width=".26458" style="paint-order:stroke fill markers"/>
 <rect x="8.255" y="3.28" width="1.905" height=".317" ry=".159" opacity=".25" paint-order="stroke markers fill"/>
 <path d="m15.875 8.6774-1.9053 1.9053h1.588c0.17584 0 0.31728-0.14197 0.31728-0.31781z" fill="url(#d)" opacity=".1" stroke-width=".60002"/>
</svg>
