<svg xmlns="http://www.w3.org/2000/svg" width="64" height="64"><path fill="none" d="M0 0h64v64H0z"/><g transform="matrix(.5 0 0 .5 -254.5 -325)"><rect y="659.168" x="535.108" height="86.079" width="75.776" rx="2" ry="2" fill="#636a78" transform="matrix(1.31968 0 0 1.23143 -183.171 -149.72)"/><rect y="661" x="522" height="108" width="102" rx="4" ry="4" fill="none" stroke="#272a2f" stroke-width="2" stroke-opacity=".784"/><g transform="matrix(.97826 0 0 1 12.446 4.323)"><rect ry="2" rx="2.044" y="662.667" x="527" height="16" width="92" fill-opacity=".157" stroke="#484e57" stroke-width="2.022"/><rect ry="0" y="665.667" x="530.067" height="10" width="2.044" fill-opacity=".296"/><ellipse cy="670.667" cx="612.867" rx="1.022" ry="1" fill-opacity=".296"/><ellipse cy="670.667" cx="606.733" rx="1.022" ry="1" fill="#6ba4e7"/><ellipse cy="670.667" cx="600.6" rx="1.022" ry="1" fill="#6ba4e7"/><ellipse cy="670.667" cx="594.467" rx="1.022" ry="1" fill="#6ba4e7"/><rect transform="rotate(90)" ry="0" y="-589.356" x="667.667" height="34.756" width="6" fill-opacity=".176"/><rect ry="0" y="665.667" x="534.156" height="10" width="2.044" fill-opacity=".296"/><rect ry="0" y="665.667" x="538.244" height="10" width="2.044" fill-opacity=".296"/><rect ry="0" y="665.667" x="542.333" height="10" width="2.044" fill-opacity=".296"/><rect ry="0" y="665.667" x="546.422" height="10" width="2.044" fill-opacity=".296"/></g><g transform="matrix(.9785 0 0 1 12.32 24.323)"><rect ry="2" rx="2.044" y="662.667" x="527" height="16" width="92" fill-opacity=".157" stroke="#484e57" stroke-width="2.022"/><rect ry="0" y="665.667" x="530.067" height="10" width="2.044" fill-opacity=".296"/><ellipse cy="670.667" cx="612.867" rx="1.022" ry="1" fill-opacity=".296"/><ellipse cy="670.667" cx="606.733" rx="1.022" ry="1" fill="#6ba4e7"/><ellipse cy="670.667" cx="600.6" rx="1.022" ry="1" fill="#6ba4e7"/><ellipse cy="670.667" cx="594.467" rx="1.022" ry="1" fill="#6ba4e7"/><rect transform="rotate(90)" ry="0" y="-589.356" x="667.667" height="34.756" width="6" fill-opacity=".176"/><rect ry="0" y="665.667" x="534.156" height="10" width="2.044" fill-opacity=".296"/><rect ry="0" y="665.667" x="538.244" height="10" width="2.044" fill-opacity=".296"/><rect ry="0" y="665.667" x="542.333" height="10" width="2.044" fill-opacity=".296"/><rect ry="0" y="665.667" x="546.422" height="10" width="2.044" fill-opacity=".296"/></g><g transform="matrix(.9785 0 0 .99863 12.321 45.253)"><rect ry="2.003" rx="2.044" y="662.667" x="527" height="16" width="92" fill-opacity=".157" stroke="#484e57" stroke-width="2.023"/><rect ry="0" y="665.667" x="530.067" height="10" width="2.044" fill-opacity=".296"/><ellipse cy="670.667" cx="612.867" rx="1.022" ry="1" fill-opacity=".296"/><ellipse cy="670.667" cx="606.733" rx="1.022" ry="1" fill="#6ba4e7"/><ellipse cy="670.667" cx="600.6" rx="1.022" ry="1" fill="#6ba4e7"/><ellipse cy="670.667" cx="594.467" rx="1.022" ry="1" fill="#6ba4e7"/><rect transform="rotate(90)" ry="0" y="-589.356" x="667.667" height="34.756" width="6" fill-opacity=".176"/><rect ry="0" y="665.667" x="534.156" height="10" width="2.044" fill-opacity=".296"/><rect ry="0" y="665.667" x="538.244" height="10" width="2.044" fill-opacity=".296"/><rect ry="0" y="665.667" x="542.333" height="10" width="2.044" fill-opacity=".296"/><rect ry="0" y="665.667" x="546.422" height="10" width="2.044" fill-opacity=".296"/></g><g transform="matrix(.9785 0 0 .99862 12.32 65.258)"><rect ry="2.003" rx="2.044" y="662.667" x="527" height="16" width="92" fill-opacity=".157" stroke="#484e57" stroke-width="2.023"/><rect ry="0" y="665.667" x="530.067" height="10" width="2.044" fill-opacity=".296"/><ellipse cy="670.667" cx="612.867" rx="1.022" ry="1" fill-opacity=".296"/><ellipse cy="670.667" cx="606.733" rx="1.022" ry="1" fill="#6ba4e7"/><ellipse cy="670.667" cx="600.6" rx="1.022" ry="1" fill="#6ba4e7"/><ellipse cy="670.667" cx="594.467" rx="1.022" ry="1" fill="#6ba4e7"/><rect transform="rotate(90)" ry="0" y="-589.356" x="667.667" height="34.756" width="6" fill-opacity=".176"/><rect ry="0" y="665.667" x="534.156" height="10" width="2.044" fill-opacity=".296"/><rect ry="0" y="665.667" x="538.244" height="10" width="2.044" fill-opacity=".296"/><rect ry="0" y="665.667" x="542.333" height="10" width="2.044" fill-opacity=".296"/><rect ry="0" y="665.667" x="546.422" height="10" width="2.044" fill-opacity=".296"/></g><g transform="matrix(.9785 0 0 .99863 12.32 85.255)"><rect ry="2.003" rx="2.044" y="662.667" x="527" height="16" width="92" fill-opacity=".157" stroke="#484e57" stroke-width="2.023"/><rect ry="0" y="665.667" x="530.067" height="10" width="2.044" fill-opacity=".296"/><ellipse cy="670.667" cx="612.867" rx="1.022" ry="1" fill-opacity=".296"/><ellipse cy="670.667" cx="606.733" rx="1.022" ry="1" fill="#6ba4e7"/><ellipse cy="670.667" cx="600.6" rx="1.022" ry="1" fill="#6ba4e7"/><ellipse cy="670.667" cx="594.467" rx="1.022" ry="1" fill="#6ba4e7"/><rect transform="rotate(90)" ry="0" y="-589.356" x="667.667" height="34.756" width="6" fill-opacity=".176"/><rect ry="0" y="665.667" x="534.156" height="10" width="2.044" fill-opacity=".296"/><rect ry="0" y="665.667" x="538.244" height="10" width="2.044" fill-opacity=".296"/><rect ry="0" y="665.667" x="542.333" height="10" width="2.044" fill-opacity=".296"/><rect ry="0" y="665.667" x="546.422" height="10" width="2.044" fill-opacity=".296"/></g></g></svg>