<svg xmlns="http://www.w3.org/2000/svg" width="64" height="64"><path fill="none" d="M0 0h64v64H0z"/><path d="M12 5.5h40c1.108 0 1.625.958 2 2l1.8 5c.375 1.043-.892 2-2 2H10.2c-1.108 0-2.375-.957-2-2l1.8-5c.375-1.042.892-2 2-2z" fill="#636a78" stroke="#272a2f" stroke-opacity=".784"/><path d="M52 6l-6.3 43.042c-.157 1.073-.892 1.957-2 1.957H20.3c-1.108 0-1.843-.884-2-1.957L12 6z" opacity=".3"/><path d="M55.8 13.501l-4.3 43.042c-.108 1.08-.892 1.957-2 1.957h-35c-1.108 0-1.892-.878-2-1.957L8.2 13.501z" fill="#636a78" stroke="#272a2f" stroke-opacity=".784"/><path d="M23.812 41.641c-.256.46-.46 1.152-.46 1.587 0 .101 0 .23.025.409l-3.198-5.501A1.427 1.427 0 0 1 20 37.47c0-.231.076-.512.179-.69l1.535-2.688-1.714-.97 5.578-.103 2.712 4.886-1.74-.997zm2.456-16.104c.486-.845 1.28-1.306 2.251-1.306 1.05 0 1.87.487 2.457 1.484l.87 1.458-3.02 5.82-4.886-3.44zm.358 20.53a2.675 2.675 0 0 1-2.66-2.66c0-.41.179-1.101.435-1.536l.818-1.458h6.064v5.654h-4.657zm4.862-20.684c-.383-.665-.895-1.127-1.51-1.383h6.294c.563 0 .998.231 1.255.667l1.56 2.66 1.688-.998-2.712 4.862-5.551-.078 1.714-.972zm9.698 15.081c.767 0 1.407-.204 1.944-.613l-3.173 5.526a1.382 1.382 0 0 1-1.253.69h-2.995v1.97l-2.865-4.784 2.865-4.785v1.996h5.477zm2.455-4.605c.23.41.359.844.359 1.305 0 .92-.59 1.893-1.407 2.353a2.857 2.857 0 0 1-1.458.334h-1.69l-3.018-5.22 4.886-2.79z" fill="#fff"/></svg>