<svg height="48" width="48" xmlns="http://www.w3.org/2000/svg"><rect fill="#4d4d4d" height="42.5" ry="2.5" width="32.5" x="7.5" y="3"/><g fill="none"><path d="m35 10.5-2.5 2.5"/><path d="m32.5 18-15 15" stroke="#fff" stroke-width="5"/><path d="m36.5 14-2.5 2.5" stroke="#fff" stroke-opacity=".609155" stroke-width="5"/></g><path d="m14.5 32.5 3.5 3.5-5 1z" fill="#fff" fill-opacity=".607843" fill-rule="evenodd"/><path d="m15 15v8h8v-8zm0 18c-9.333334 5.333333-4.666667 2.666667 0 0zm10-8v8h8v-8z" fill="#fff" fill-opacity=".665158"/><path d="m15 15v8h8v-8zm10 0v8h8v-8zm-10 10v8h8v-8zm10 0v8h8v-8z" fill="#fff" fill-opacity=".204545"/></svg>