<?xml version="1.0" encoding="UTF-8" standalone="no"?>
<!DOCTYPE svg PUBLIC "-//W3C//DTD SVG 1.1//EN" "http://www.w3.org/Graphics/SVG/1.1/DTD/svg11.dtd">
<svg version="1.1" xmlns="http://www.w3.org/2000/svg" xmlns:xlink="http://www.w3.org/1999/xlink" preserveAspectRatio="xMidYMid meet" viewBox="0 0 640 640" width="64" height="64"><defs><path d="M607.17 325.11C607.17 483.6 478.5 612.28 320 612.28C161.5 612.28 32.83 483.6 32.83 325.11C32.83 166.61 161.5 37.93 320 37.93C478.5 37.93 607.17 166.61 607.17 325.11Z" id="b1lGZH5a2h"></path><path d="M191.18 255.56C196.91 248.19 203.41 241.33 210.58 235.08C207.88 172.19 223.87 168.4 261.58 205.37C269.25 202.62 277.23 200.39 285.44 198.74C277.61 184.93 235.95 151.32 213.3 150.55C189.12 148.66 180.77 215.96 191.18 255.56Z" id="b44ZfGcIUB"></path><path d="M210.58 235.08C225.11 222.41 242.4 212.25 261.58 205.37C223.87 168.4 207.88 172.19 210.58 235.08Z" id="c4enFsuphJ"></path><path d="M378.24 205.37C397.41 212.25 414.71 222.41 429.24 235.08C431.94 172.19 415.94 168.4 378.24 205.37Z" id="anM1T1eqT"></path><path d="M429.42 236.58C436.59 242.82 443.09 249.68 448.82 257.06C459.23 217.45 450.87 150.16 426.7 152.04C404.05 152.82 362.39 186.43 354.55 200.24C362.77 201.89 370.75 204.12 378.42 206.87C416.12 169.9 432.12 173.69 429.42 236.58Z" id="b6kOUoyQCi"></path><path d="M376.57 204.89C368.79 202.16 360.71 200 352.39 198.43C347.16 197.45 341.83 196.71 336.41 196.22C345.38 217.55 361.12 270.27 466.09 285.07C461.43 274.7 455.51 264.93 448.51 255.95C442.59 248.35 435.91 241.32 428.55 234.93C413.65 221.98 396.03 211.7 376.57 204.89Z" id="b3FqlEdmY"></path><path d="M292.98 221.03C289.76 213.38 287.32 205.87 285.45 198.75C285.45 198.75 285.45 198.74 285.44 198.74C277.23 200.39 269.25 202.62 261.58 205.37C242.4 212.25 225.11 222.41 210.58 235.08C203.41 241.33 196.91 248.18 191.18 255.56C173.73 278.05 163.51 305.33 163.51 334.75C163.51 392.35 202.72 441.78 258.66 463.04C247.7 455.18 241.13 443.52 241.13 426.78C241.13 410.84 247.09 392.78 257.13 377.03C260.92 371.08 265.3 365.46 270.16 360.41C277.79 352.48 286.6 345.95 296.21 341.75C296.1 341.02 296.04 340.28 296.04 339.54C296.04 327.75 306.77 324.24 320 324.24C333.23 324.24 343.95 327.75 343.95 339.54C343.95 340.28 343.9 341.02 343.79 341.75C353.39 345.95 362.21 352.48 369.83 360.41C374.69 365.46 379.07 371.08 382.87 377.03C392.91 392.78 398.87 410.84 398.87 426.78C398.87 443.52 392.3 455.18 381.34 463.04C437.28 441.78 476.49 392.35 476.49 334.75C476.49 328.35 476.01 322.05 475.07 315.88C358.03 315.88 311.96 266.16 292.98 221.03Z" id="kKGII3e8P"></path><path d="M266.58 221.35C274.93 218.19 281.89 216.12 287.47 215.15C290.79 214.57 293.95 216.79 294.53 220.11C294.7 221.11 294.44 219.62 294.68 221C295.08 223.25 293.55 225.38 291.29 225.73C280.52 227.42 273.3 228.97 269.61 230.4C266.3 231.68 261.04 234.77 253.83 239.66C251.17 241.47 247.54 240.72 245.8 238.01C245 236.77 246.55 239.17 245.94 238.23C243.76 234.83 245.09 230.3 248.76 228.61C252.98 226.67 258.92 224.25 266.58 221.35Z" id="a1jZz8q219"></path><path d="M337.64 196.32C331.45 195.67 325.15 195.33 318.76 195.33C306.8 195.33 295.15 196.51 283.95 198.74C283.95 198.74 283.95 198.75 283.95 198.75C285.84 205.87 288.29 213.38 291.53 221.03C310.65 266.16 357.08 315.88 474.99 315.88C473.28 304.69 470.07 293.92 465.54 283.74C360.88 267.6 346.18 216.89 337.64 196.32Z" id="c42u8zobB6"></path><path d="M231.82 334.33C229.07 332.67 228.55 328.89 230.76 326.55C231.62 325.64 229.9 327.46 230.76 326.55C233.26 323.89 237.27 323.34 240.41 325.21C244.15 327.45 239.33 324.57 240.41 325.21C252.76 332.6 263.41 342.51 271.67 354.3C272.57 355.58 269.9 351.77 272.59 355.61C274.67 358.59 274.38 362.63 271.89 365.28C271.03 366.19 272.74 364.37 271.89 365.28C269.67 367.63 265.86 367.37 263.99 364.73C261.27 360.89 263.86 364.54 262.92 363.22C254.65 351.56 244.07 341.72 231.82 334.33C230.75 333.69 235.54 336.57 231.82 334.33Z" id="buhPmYvnU"></path><path d="M377.71 367.15C375.89 369.8 372.08 370.1 369.88 367.76C369.02 366.85 370.74 368.66 369.88 367.76C367.38 365.1 367.06 361.06 369.11 358.04C371.57 354.44 368.41 359.08 369.11 358.04C377.22 346.15 387.75 336.11 400.01 328.57C401.35 327.75 397.39 330.19 401.38 327.73C404.48 325.83 408.49 326.36 410.99 329.01C411.85 329.92 410.13 328.1 410.99 329.01C413.2 331.36 412.71 335.15 409.97 336.86C405.97 339.35 409.78 336.98 408.4 337.84C396.26 345.39 385.81 355.38 377.71 367.15C377 368.18 380.17 363.58 377.71 367.15Z" id="b2VYeQ53nM"></path><path d="M200.01 355.07C196.74 354.36 194.88 350.9 196.07 347.78C196.53 346.59 195.62 348.96 196.07 347.78C197.38 344.36 200.98 342.41 204.55 343.18C210.71 344.51 210.59 344.49 213.65 345.15C228.02 348.25 241.81 353.61 254.51 361.02C257.62 362.83 258.72 363.48 264.57 366.89C267.73 368.73 269.09 372.6 267.79 376.02C267.33 377.21 268.24 374.84 267.79 376.03C266.6 379.14 262.9 380.45 260.02 378.78C254.13 375.38 252.84 374.64 249.68 372.8C237.03 365.5 223.34 360.18 209.07 357.06C206.02 356.39 206.13 356.41 200.01 355.07Z" id="biteLx0C0"></path><path d="M385.09 379C382.23 380.74 378.5 379.53 377.2 376.45C376.71 375.27 377.69 377.62 377.2 376.44C375.79 373.08 377.04 369.18 380.16 367.27C385.53 363.97 385.42 364.04 388.09 362.4C400.63 354.71 414.3 349.05 428.6 345.64C432.1 344.8 433.34 344.5 439.92 342.93C443.48 342.08 447.14 343.93 448.56 347.31C449.05 348.48 448.07 346.14 448.56 347.31C449.85 350.39 448.09 353.89 444.85 354.67C438.25 356.28 436.8 356.63 433.24 357.5C419.06 360.95 405.48 366.58 393.01 374.17C390.34 375.8 390.44 375.74 385.09 379Z" id="c3aBHAsgTf"></path><path d="M391.31 391.32C388.31 392.48 385.01 390.58 384.5 387.41C384.31 386.17 384.7 388.64 384.5 387.41C383.93 383.8 385.94 380.28 389.34 378.95C393.4 377.35 388.17 379.41 389.34 378.95C402.74 373.69 417.09 371.32 431.47 371.99C433.04 372.07 428.39 371.85 433.07 372.07C436.7 372.24 439.72 374.94 440.29 378.53C440.49 379.77 440.1 377.3 440.29 378.53C440.8 381.72 438.26 384.58 435.03 384.45C430.33 384.25 434.8 384.44 433.18 384.37C418.9 383.78 404.64 386.15 391.31 391.32C390.15 391.77 395.35 389.75 391.31 391.32Z" id="ePDzTHqPY"></path><path d="M210.91 385.36C207.71 385.65 205.06 382.91 205.45 379.72C205.6 378.48 205.29 380.96 205.45 379.72C205.89 376.1 208.79 373.27 212.43 372.92C216.77 372.51 211.18 373.04 212.43 372.92C226.75 371.57 241.21 373.25 254.84 377.86C256.33 378.36 251.92 376.87 256.36 378.37C259.81 379.54 261.96 382.96 261.52 386.58C261.37 387.82 261.67 385.34 261.52 386.58C261.13 389.79 257.9 391.83 254.83 390.81C250.36 389.33 254.61 390.74 253.07 390.23C239.5 385.72 225.15 384.06 210.91 385.36C209.67 385.47 215.23 384.97 210.91 385.36Z" id="emdMyX7O1"></path><path d="M320 362.06C311.19 362.06 297.86 352.63 296.21 341.75C286.6 345.95 277.79 352.48 270.16 360.41C265.3 365.46 260.93 371.08 257.13 377.03C247.09 392.78 241.13 410.84 241.13 426.78C241.13 443.52 247.7 455.18 258.66 463.04C273.12 473.4 295.23 477.13 320 477.13C344.77 477.13 366.88 473.4 381.34 463.04C392.31 455.18 398.87 443.52 398.87 426.78C398.87 410.84 392.91 392.78 382.87 377.03C379.08 371.08 374.7 365.46 369.84 360.41C362.21 352.48 353.4 345.95 343.79 341.75C342.14 352.63 328.81 362.06 320 362.06Z" id="c14aheZUK2"></path><path d="M320 350.82C324.54 350.82 328.22 354.5 328.22 359.04C328.22 366.7 328.22 381.47 328.22 389.13C328.22 393.67 324.54 397.35 320 397.35C318.36 397.35 321.64 397.35 320 397.35C315.46 397.35 311.78 393.67 311.78 389.13C311.78 381.47 311.78 366.7 311.78 359.04C311.78 354.5 315.46 350.82 320 350.82C321.64 350.82 318.36 350.82 320 350.82Z" id="a6q5tRxlVs"></path><path d="M320 324.11C306.77 324.11 296.04 327.61 296.04 339.4C296.04 340.14 296.1 340.88 296.21 341.62C297.86 352.5 311.19 361.92 320 361.92C328.81 361.92 342.14 352.5 343.79 341.62C343.9 340.88 343.96 340.14 343.96 339.4C343.96 327.61 333.23 324.11 320 324.11Z" id="c7jlD7sOF"></path><path d="M228.06 242C225.17 244.17 224.59 248.3 226.72 251.25C227.99 253.01 229.97 253.94 231.97 253.94C233.32 253.94 234.69 253.52 235.85 252.64C235.86 252.64 235.92 252.59 235.93 252.59C238.82 250.41 239.4 246.28 237.27 243.33C235.14 240.39 231.04 239.77 228.14 241.94C228.13 241.95 228.07 241.99 228.06 242Z" id="a2QumTarm"></path><path d="M291.65 281.67C288.89 286.69 283.79 289.81 278.33 289.81C272.88 289.81 267.77 286.69 265.02 281.67C263.26 278.47 259.29 277.32 256.15 279.11C253 280.9 251.88 284.94 253.63 288.14C258.69 297.36 268.16 303.09 278.33 303.09C288.51 303.09 297.97 297.36 303.03 288.14C304.79 284.94 303.66 280.9 300.52 279.11C297.37 277.32 293.4 278.47 291.65 281.67Z" id="dQwPwiTNf"></path><path d="M312.74 388.83C317.29 387.37 322.16 387.33 326.73 388.7C331 389.98 338.38 392.2 343.04 393.6C345.83 394.44 347.44 397.35 346.67 400.15C346.25 401.7 346.53 400.67 346.15 402.06C345.27 405.27 341.94 407.15 338.74 406.25C334.94 405.17 329.91 403.76 326.25 402.73C321.99 401.52 317.46 401.56 313.22 402.84C309.2 404.05 304.07 405.59 300.15 406.77C296.66 407.82 293.14 405.21 293.14 401.56C293.14 400.27 293.14 401.2 293.14 399.27C293.14 396.79 294.74 394.59 297.11 393.84C301.63 392.39 308.82 390.08 312.74 388.83Z" id="d2dCDePe4E"></path></defs><g><g><g><use xlink:href="#b1lGZH5a2h" opacity="1" fill="#565555" fill-opacity="1"></use></g><g><use xlink:href="#b44ZfGcIUB" opacity="1" fill="#aaa5a5" fill-opacity="1"></use><g><use xlink:href="#b44ZfGcIUB" opacity="1" fill-opacity="0" stroke="#000000" stroke-width="0" stroke-opacity="0"></use></g></g><g><use xlink:href="#c4enFsuphJ" opacity="1" fill="#5d5b5b" fill-opacity="1"></use><g><use xlink:href="#c4enFsuphJ" opacity="1" fill-opacity="0" stroke="#000000" stroke-width="0" stroke-opacity="0"></use></g></g><g><use xlink:href="#anM1T1eqT" opacity="1" fill="#5d5b5b" fill-opacity="1"></use><g><use xlink:href="#anM1T1eqT" opacity="1" fill-opacity="0" stroke="#000000" stroke-width="0" stroke-opacity="0"></use></g></g><g><use xlink:href="#b6kOUoyQCi" opacity="1" fill="#aaa5a5" fill-opacity="1"></use><g><use xlink:href="#b6kOUoyQCi" opacity="1" fill-opacity="0" stroke="#000000" stroke-width="0" stroke-opacity="0"></use></g></g><g><use xlink:href="#b3FqlEdmY" opacity="1" fill="#f9f9f9" fill-opacity="1"></use><g><use xlink:href="#b3FqlEdmY" opacity="1" fill-opacity="0" stroke="#000000" stroke-width="0" stroke-opacity="0"></use></g></g><g><use xlink:href="#kKGII3e8P" opacity="1" fill="#aaa5a5" fill-opacity="1"></use><g><use xlink:href="#kKGII3e8P" opacity="1" fill-opacity="0" stroke="#000000" stroke-width="0" stroke-opacity="0"></use></g></g><g><use xlink:href="#a1jZz8q219" opacity="1" fill="#5d5b5b" fill-opacity="1"></use></g><g><use xlink:href="#c42u8zobB6" opacity="1" fill="#f9f9f9" fill-opacity="1"></use><g><use xlink:href="#c42u8zobB6" opacity="1" fill-opacity="0" stroke="#000000" stroke-width="0" stroke-opacity="0"></use></g></g><g><use xlink:href="#buhPmYvnU" opacity="1" fill="#5d5b5b" fill-opacity="1"></use></g><g><use xlink:href="#b2VYeQ53nM" opacity="1" fill="#5d5b5b" fill-opacity="1"></use></g><g><use xlink:href="#biteLx0C0" opacity="1" fill="#5d5b5b" fill-opacity="1"></use></g><g><use xlink:href="#c3aBHAsgTf" opacity="1" fill="#5d5b5b" fill-opacity="1"></use></g><g><use xlink:href="#ePDzTHqPY" opacity="1" fill="#5d5b5b" fill-opacity="1"></use></g><g><use xlink:href="#emdMyX7O1" opacity="1" fill="#5d5b5b" fill-opacity="1"></use></g><g><use xlink:href="#c14aheZUK2" opacity="1" fill="#f9f9f9" fill-opacity="1"></use><g><use xlink:href="#c14aheZUK2" opacity="1" fill-opacity="0" stroke="#000000" stroke-width="0" stroke-opacity="0"></use></g></g><g><use xlink:href="#a6q5tRxlVs" opacity="1" fill="#5d5b5b" fill-opacity="1"></use></g><g><use xlink:href="#c7jlD7sOF" opacity="1" fill="#5d5b5b" fill-opacity="1"></use><g><use xlink:href="#c7jlD7sOF" opacity="1" fill-opacity="0" stroke="#000000" stroke-width="0" stroke-opacity="0"></use></g></g><g><use xlink:href="#a2QumTarm" opacity="1" fill="#5d5b5b" fill-opacity="1"></use><g><use xlink:href="#a2QumTarm" opacity="1" fill-opacity="0" stroke="#000000" stroke-width="0" stroke-opacity="0"></use></g></g><g><use xlink:href="#dQwPwiTNf" opacity="1" fill="#5d5b5b" fill-opacity="1"></use><g><use xlink:href="#dQwPwiTNf" opacity="1" fill-opacity="0" stroke="#000000" stroke-width="0" stroke-opacity="0"></use></g></g><g><use xlink:href="#d2dCDePe4E" opacity="1" fill="#5d5b5b" fill-opacity="1"></use></g></g></g></svg>