<svg width="96" height="96" version="1.1" viewBox="0 0 25.4 25.4" xmlns="http://www.w3.org/2000/svg">
 <defs>
  <linearGradient id="c" x1="-197.1" x2="-196.91" y1="217.68" y2="219.36" gradientTransform="matrix(1.0606 -1.0606 1.0606 1.0606 -.00028315 -420.36)" gradientUnits="userSpaceOnUse">
   <stop offset="0"/>
   <stop stop-opacity="0" offset="1"/>
  </linearGradient>
 </defs>
 <path d="m5.16 3.175c-0.44 0-0.592 0.403-0.794 0.794h-1.72c-0.265 0-0.265 0.264-0.265 0.264v8.467c0 0.44 0.354 0.794 0.794 0.794h19.05c0.44 0 0.794-0.354 0.794-0.794v-8.467c0-0.264-0.265-0.264-0.265-0.264h-11.244c-0.233-0.373-0.354-0.794-0.793-0.794z" fill="#ffffff" stroke="#000000" stroke-opacity=".267" stroke-width=".529" paint-order="markers stroke fill"/>
 <path d="m5.16 3.175c-0.44 0-0.592 0.403-0.794 0.794h-1.72c-0.265 0-0.265 0.264-0.265 0.264v8.467c0 0.44 0.354 0.794 0.794 0.794h19.05c0.44 0 0.794-0.354 0.794-0.794v-8.467c0-0.264-0.265-0.264-0.265-0.264h-11.244c-0.233-0.373-0.354-0.794-0.793-0.794z" fill="#ffffff" paint-order="markers stroke fill"/>
 <path d="m12.7 6.085c-0.44 0-0.572 0.414-0.794 0.794l-0.463 0.794h-10.385a0.264 0.264 0 0 0-0.264 0.264v13.759c0 0.146 0.118 0.264 0.264 0.264h23.284a0.264 0.264 0 0 0 0.264-0.264v-15.346c0-0.265-0.264-0.265-0.264-0.265z" fill="#6ba4e7" stroke="#003579" stroke-opacity=".561" stroke-width=".52916" paint-order="markers stroke fill"/>
 <rect x="5.556" y="3.704" width="4.762" height=".794" ry=".397" opacity=".25" paint-order="stroke markers fill"/>
 <path d="m12.7 6.085c-0.44 0-0.572 0.414-0.794 0.794l-0.463 0.794h-10.385a0.264 0.264 0 0 0-0.264 0.264v13.759c0 0.146 0.118 0.264 0.264 0.264h23.284a0.264 0.264 0 0 0 0.264-0.264v-15.346c0-0.265-0.264-0.265-0.264-0.265z" fill="#6ba4e7" paint-order="markers stroke fill"/>
 <path d="M9.525 10.319v8.731h6.35v-8.731zm.265.264h.264v.265H9.79zm.529 0h4.762v3.97H10.32zm5.027 0h.264v.265h-.264zm-5.556.53h.264v.264H9.79zm5.556 0h.264v.264h-.264zm-5.556.529h.264v.264H9.79zm5.556 0h.264v.264h-.264zm-5.556.529h.264v.264H9.79zm5.556 0h.264v.264h-.264zM9.79 12.7h.264v.265H9.79zm5.556 0h.264v.265h-.264zm-5.556.53h.264v.264H9.79zm5.556 0h.264v.264h-.264zm-5.556.528h.264v.265H9.79zm5.556 0h.264v.265h-.264zm-5.556.53h.264v.264H9.79zm5.556 0h.264v.264h-.264zm-5.556.529h.264v.264H9.79zm.529 0h4.762v3.968H10.32zm5.027 0h.264v.264h-.264zm-5.556.529h.264v.264H9.79zm5.556 0h.264v.264h-.264zm-5.556.529h.264v.265H9.79zm5.556 0h.264v.265h-.264zm-5.556.53h.264v.264H9.79zm5.556 0h.264v.264h-.264zm-5.556.528h.264v.265H9.79zm5.556 0h.264v.265h-.264zm-5.556.53h.264v.264H9.79zm5.556 0h.264v.264h-.264zm-5.556.529h.264v.264H9.79zm5.556 0h.264v.264h-.264zm-5.556.529h.264v.264H9.79zm5.556 0h.264v.264h-.264z" opacity=".3"/>
 <path d="m10.319 10.583v3.97h4.762v-3.97zm0 4.234v3.968h4.762v-3.968z" opacity=".15"/>
 <path d="m24.605 17.197-4.763 4.763h3.9692c0.4396 0 0.79374-0.35414 0.79374-0.79374z" fill="url(#c)" opacity=".1" stroke-width=".26458"/>
</svg>
