<svg width="96" height="96" version="1.1" viewBox="0 0 25.4 25.4" xmlns="http://www.w3.org/2000/svg">
 <defs>
  <linearGradient id="c-6" x1="-197.1" x2="-196.91" y1="217.68" y2="219.36" gradientTransform="matrix(1.0606 -1.0606 1.0606 1.0606 -.00028315 -420.36)" gradientUnits="userSpaceOnUse">
   <stop offset="0"/>
   <stop stop-opacity="0" offset="1"/>
  </linearGradient>
 </defs>
 <path d="m5.1599 3.1749c-0.43999 0-0.59199 0.40299-0.79398 0.79398h-1.72c-0.26499 0-0.26499 0.26399-0.26499 0.26399v8.4668c0 0.43999 0.35399 0.79398 0.79398 0.79398h19.05c0.43999 0 0.79398-0.35399 0.79398-0.79398v-8.4668c0-0.26399-0.265-0.26399-0.265-0.26399h-11.244c-0.233-0.37299-0.35399-0.79398-0.79298-0.79398z" fill="#ffffff" stroke="#000000" stroke-opacity=".267" stroke-width=".52899" paint-order="markers stroke fill"/>
 <path d="m5.1599 3.1749c-0.43999 0-0.59199 0.40299-0.79398 0.79398h-1.72c-0.26499 0-0.26499 0.26399-0.26499 0.26399v8.4668c0 0.43999 0.35399 0.79398 0.79398 0.79398h19.05c0.43999 0 0.79398-0.35399 0.79398-0.79398v-8.4668c0-0.26399-0.265-0.26399-0.265-0.26399h-11.244c-0.233-0.37299-0.35399-0.79398-0.79298-0.79398z" fill="#ffffff" stroke-width=".99998" paint-order="markers stroke fill"/>
 <path d="m12.7 6.0849c-0.43999 0-0.57199 0.41399-0.79398 0.79398l-0.46299 0.79398h-10.385a0.26399 0.26399 0 0 0-0.26399 0.26399v13.759c0 0.146 0.118 0.264 0.26399 0.264h23.284a0.26399 0.26399 0 0 0 0.264-0.264v-15.346c0-0.26499-0.264-0.26499-0.264-0.26499z" fill="#6ba4e7" stroke="#003579" stroke-opacity=".561" stroke-width=".52915" paint-order="markers stroke fill"/>
 <rect x="5.5559" y="3.7039" width="4.7619" height=".79398" ry=".39699" opacity=".25" stroke-width=".99998" paint-order="stroke markers fill"/>
 <path d="m12.7 6.0849c-0.43999 0-0.57199 0.41399-0.79398 0.79398l-0.46299 0.79398h-10.385a0.26399 0.26399 0 0 0-0.26399 0.26399v13.759c0 0.146 0.118 0.264 0.26399 0.264h23.284a0.26399 0.26399 0 0 0 0.264-0.264v-15.346c0-0.26499-0.264-0.26499-0.264-0.26499z" fill="#6ba4e7" stroke-width=".99998" paint-order="markers stroke fill"/>
 <path d="m24.605 17.196-4.7629 4.7629h3.9692c0.43959 0 0.79372-0.35413 0.79372-0.79372z" fill="url(#c-6)" opacity=".1" stroke-width=".26458"/>
 <path d="m12.592 11.113c-0.06386 0.0063-0.14739 0.0167-0.21468 0.04617 0 0-0.04371 0.14537-0.07712 0.50634-0.04079 0.44201-0.21026 0.555-0.33749 0.64485-0.12772 0.08988-0.16705 0.11641-0.21518 0.138-0.24955 0.04174-0.47212 0.06875-0.81354-0.21463-0.27903-0.23182-0.39891-0.30695-0.39891-0.30695-0.13754 0.05402-0.26135 0.1994-0.26135 0.1994s-0.14492 0.12279-0.19945 0.26079c0 0 0.07517 0.12032 0.30706 0.3993 0.28345 0.34082 0.25693 0.56384 0.21518 0.81335-0.02177 0.04764-0.04813 0.08742-0.13855 0.21463-0.0899 0.12769-0.20288 0.29713-0.64454 0.33791-0.36108 0.03339-0.49128 0.07662-0.49128 0.07662-0.058962 0.13604-0.061403 0.32218-0.061403 0.32218s0.00245 0.18662 0.061403 0.32267c0 0 0.1302 0.04322 0.49128 0.07662 0.44165 0.04077 0.55415 0.21021 0.64454 0.33742 0.09038 0.12769 0.11693 0.16698 0.13855 0.2151 0.04176 0.2495 0.06877 0.47246-0.21518 0.81335-0.23187 0.27895-0.30706 0.3993-0.30706 0.3993 0.05454 0.13751 0.19945 0.2603 0.19945 0.2603s0.12282 0.14587 0.26135 0.19989c0 0 0.11986-0.07514 0.39891-0.30695 0.34142-0.2834 0.56397-0.25637 0.81354-0.21463 0.04766 0.02161 0.08746 0.04765 0.21518 0.13751 0.12772 0.09036 0.29671 0.20333 0.33749 0.64485 0.03341 0.36097 0.07712 0.49113 0.07712 0.49113 0.13608 0.05894 0.32225 0.06139 0.32225 0.06139s0.18668-0.0024 0.32227-0.06139c0 0 0.04371-0.12965 0.07664-0.49113 0.04079-0.44152 0.20878-0.55893 0.41464-0.70577v-0.01526c0.04914-0.01817 0.09038-0.03978 0.13806-0.06139 0.24955-0.04223 0.47261-0.06875 0.81403 0.21463 0.27854 0.23182 0.39891 0.30695 0.39891 0.30695 0.13806-0.05403 0.26086-0.1994 0.26086-0.1994s0.14544-0.12279 0.19994-0.26079c0 0-0.07517-0.12034-0.30706-0.3993-0.28394-0.34078-0.25695-0.56379-0.21518-0.8133 0.02176-0.04765 0.04323-0.08939 0.06141-0.13801h0.01529c0.14739-0.20626 0.2648-0.37327 0.70647-0.4145 0.36108-0.03339 0.50647-0.07662 0.50647-0.07662 0.05895-0.13604 0.04618-0.32267 0.04618-0.32267s0.01271-0.18662-0.04618-0.32218c0 0-0.14544-0.04322-0.50647-0.07661-0.44217-0.04075-0.55905-0.20823-0.70647-0.41451-0.0182-0.04911-0.05502-0.09038-0.07664-0.138-0.04176-0.24949-0.06877-0.47246 0.21518-0.81335 0.2314-0.27895 0.30705-0.3993 0.30705-0.3993-0.05454-0.13751-0.19994-0.26079-0.19994-0.26079s-0.12282-0.14537-0.26039-0.1994c0 0-0.12038 0.07514-0.3994 0.30695-0.34142 0.2834-0.55512 0.25539-0.85972 0.12278-0.30457-0.1326-0.46622-0.249-0.50696-0.69102-0.03341-0.36098-0.07664-0.50586-0.07664-0.50586-0.13559-0.05991-0.32225-0.04714-0.32225-0.04714s-0.04423-0.0059-0.10761 0zm0.10756 2.4557a0.98257 0.98228 0 1 1 0 1.9646 0.98257 0.98228 0 0 1 0-1.9646z" color="#000000" fill="#000000" opacity=".15" stroke-width=".52916" style="-inkscape-stroke:none"/>
 <path d="m12.762 10.844-0.08106-8.39e-4 -0.11478 6e-3 -0.1628 0.03057-0.13224 0.0361-0.11317 0.05064-0.03514 0.1173s-0.05102 0.18098-0.08578 0.55654c-0.0175 0.18967-0.05947 0.28006-0.09405 0.33176-0.03458 0.05169-0.06667 0.07473-0.13281 0.12144-0.09814 0.06906-0.11126 0.07587-0.13281 0.08785-0.21831 0.03856-0.29695 0.0791-0.57411-0.15038h-0.0021c-0.28442-0.23613-0.4258-0.32814-0.4258-0.32814l-0.11317-0.07028-0.12506 0.04858c-0.22885 0.08988-0.34231 0.25159-0.35139 0.26406-0.01897 0.01401-0.16962 0.12033-0.25786 0.34364l-0.049091 0.12506 0.070795 0.11317s0.090316 0.14176 0.32814 0.42787c0.23166 0.27854 0.18894 0.35792 0.15038 0.57618-0.01244 0.02215-0.01831 0.03509-0.0863 0.13074h-0.00207c-0.04663 0.06623-0.0693 0.1003-0.12092 0.13487-0.05162 0.03457-0.14073 0.07397-0.33021 0.09147-0.37612 0.03478-0.55086 0.08992-0.55086 0.08992l-0.1111 0.03721-0.049092 0.10748c-0.092924 0.21439-0.081647 0.42374-0.081647 0.42374v0.0077s-0.011336 0.20915 0.081647 0.42374l0.049092 0.10955 0.1111 0.03721s0.17475 0.05513 0.55086 0.08992c0.18946 0.01749 0.27857 0.0569 0.33021 0.09147 0.05164 0.03457 0.07569 0.06831 0.12299 0.13487 0.06924 0.09783 0.07589 0.1093 0.08785 0.13074 0.03869 0.21886 0.07973 0.29537-0.15244 0.57411-0.23781 0.28609-0.32814 0.42994-0.32814 0.42994l-0.070278 0.11317 0.049091 0.12299c0.089272 0.22508 0.24378 0.33594 0.25993 0.34778 0.01176 0.0162 0.12355 0.17315 0.35139 0.26199l0.12299 0.04857 0.11317-0.07028s0.14138-0.09201 0.4258-0.32814c0.28024-0.23262 0.3576-0.18923 0.57825-0.15038 0.02212 0.01229 0.03492 0.01984 0.12867 0.08578 0.06634 0.04693 0.10032 0.06974 0.13487 0.12144 0.03456 0.0517 0.07655 0.14227 0.09405 0.33176 0.03482 0.37625 0.0894 0.55086 0.0894 0.55086l0.03721 0.1111 0.10748 0.04702c0.21438 0.09286 0.42374 0.08423 0.42374 0.08423h0.0077s0.20961 0.0091 0.42426-0.08423l0.10697-0.04702 0.03721-0.1111s0.05558-0.17401 0.08991-0.55086c0.01753-0.18977 0.05565-0.27446 0.09767-0.33382 0.04201-0.05936 0.10373-0.10808 0.20722-0.1819l0.03721-0.02532 0.0036-0.0021c0.23049-0.04013 0.30227-0.08271 0.58807 0.15451 0.28574 0.23781 0.42787 0.32814 0.42787 0.32814l0.11317 0.07028 0.12506-0.04909c0.22685-0.08878 0.33544-0.24526 0.34726-0.26148 0.0162-0.01182 0.17269-0.12164 0.26199-0.34778l0.04857-0.12299-0.07028-0.11317s-0.09031-0.14383-0.32814-0.42994c-0.23677-0.28417-0.19368-0.35672-0.15399-0.586 1.24e-4 -7.14e-4 -1.23e-4 -7.5e-4 0-0.0015l0.0021-0.0041 0.02532-0.03514c0.07401-0.10357 0.11984-0.16524 0.17931-0.20722 0.05947-0.04197 0.14633-0.08147 0.33641-0.09922 0.37544-0.03472 0.55861-0.0863 0.55861-0.0863l0.11679-0.03514 0.04909-0.11317c0.09569-0.22082 0.06832-0.41188 0.06614-0.42787 0.0022-0.01597 0.02974-0.20665-0.06614-0.42736l-0.04909-0.11369-0.11679-0.03514s-0.18322-0.05106-0.55861-0.08578c-0.19022-0.01753-0.2771-0.05575-0.33641-0.09767-0.05931-0.04192-0.10514-0.10343-0.17931-0.20722-0.01072-0.01867-0.01891-0.03813-0.02532-0.04651-0.03919-0.22384-0.08249-0.30095 0.15193-0.58238 0.23719-0.2858 0.32814-0.42736 0.32814-0.42736l0.07028-0.11317-0.04857-0.12506c-0.0894-0.22539-0.24534-0.33595-0.26148-0.34778-0.01182-0.01623-0.12141-0.17101-0.34778-0.25993l-0.12299-0.04858-0.11368 0.07028s-0.14325 0.09038-0.42942 0.32814c-0.14654 0.12164-0.23 0.15013-0.29713 0.15606-0.06714 0.0059-0.14901-0.01391-0.2868-0.0739-0.14201-0.06183-0.21365-0.10549-0.25424-0.15451-0.04059-0.04902-0.07797-0.12704-0.0956-0.31832-0.03474-0.37536-0.08578-0.55654-0.08578-0.55654l-0.03514-0.1173-0.11162-0.04909c-0.14401-0.06363-0.2826-0.07423-0.36638-0.07338zm-0.12712 0.26561c0.03918-8.3e-4 0.06408 0.0026 0.06408 0.0026s0.18687-0.01237 0.32246 0.04754c0 0 0.04307 0.14441 0.07648 0.50538 0.04075 0.44202 0.20236 0.55882 0.50694 0.69142 0.3046 0.13261 0.51846 0.16041 0.85988-0.12299 0.27902-0.23181 0.39945-0.30695 0.39945-0.30695 0.13757 0.05404 0.25993 0.19947 0.25993 0.19947s0.14544 0.12345 0.19998 0.26096c0 0-0.07556 0.11999-0.30695 0.39893-0.28395 0.3409-0.25673 0.56388-0.21497 0.81337 0.02162 0.04762 0.05828 0.08886 0.07648 0.13797 0.14742 0.20628 0.26424 0.37369 0.7064 0.41444 0.36103 0.03339 0.50642 0.077 0.50642 0.077 0.05889 0.13556 0.04651 0.32194 0.04651 0.32194s0.01244 0.18694-0.04651 0.32297c0 0-0.14534 0.04309-0.50642 0.07648-0.44166 0.04124-0.55902 0.20817-0.7064 0.41444h-0.0155c-0.01818 0.04862-0.03922 0.09032-0.06098 0.13797-0.04177 0.24951-0.06897 0.47259 0.21497 0.81337 0.23188 0.27896 0.30695 0.39945 0.30695 0.39945-0.0545 0.138-0.19998 0.26044-0.19998 0.26044s-0.1229 0.14544-0.26096 0.19947c0 0-0.11988-0.07514-0.39842-0.30695-0.34142-0.28338-0.56485-0.25668-0.8144-0.21445-0.04768 0.02161-0.08883 0.04332-0.13797 0.06149v0.01499c-0.20586 0.14684-0.37365 0.26437-0.41444 0.70589-0.03293 0.36148-0.077 0.49092-0.077 0.49092-0.13559 0.05899-0.32194 0.06149-0.32194 0.06149s-0.18638-0.0026-0.32246-0.06149c0 0-0.04359-0.12994-0.077-0.49092-0.04078-0.44152-0.20972-0.55455-0.33744-0.64491-0.12772-0.08986-0.16783-0.11585-0.21549-0.13746-0.24957-0.04174-0.47195-0.06894-0.81337 0.21445-0.27905 0.23181-0.39893 0.30695-0.39893 0.30695-0.13853-0.05402-0.26148-0.19998-0.26148-0.19998s-0.14493-0.12242-0.19947-0.25993c0 0 0.0756-0.1205 0.30747-0.39945 0.28395-0.3409 0.25673-0.56388 0.21497-0.81337-0.02162-0.04813-0.04811-0.08728-0.13849-0.21497-0.09039-0.12721-0.20275-0.29667-0.64439-0.33744-0.36108-0.0334-0.49143-0.07648-0.49143-0.07648-0.058953-0.13605-0.061494-0.32297-0.061494-0.32297s0.00253-0.1859 0.061494-0.32194c0 0 0.13036-0.04361 0.49143-0.077 0.44166-0.04078 0.55449-0.20975 0.64439-0.33744 0.09042-0.12721 0.11672-0.16733 0.13849-0.21497 0.04176-0.24951 0.06848-0.47254-0.21497-0.81337-0.23189-0.27898-0.30747-0.39893-0.30747-0.39893 0.05453-0.138 0.19947-0.26096 0.19947-0.26096s0.12394-0.14545 0.26148-0.19947c0 0 0.1199 0.07514 0.39893 0.30695 0.34142 0.28338 0.56382 0.25619 0.81337 0.21445 0.04813-0.02159 0.08777-0.04809 0.21549-0.13797 0.12722-0.08984 0.29665-0.2029 0.33744-0.64491 0.03341-0.36097 0.077-0.5059 0.077-0.5059 0.0673-0.02947 0.15111-0.04021 0.21497-0.04651v-5.17e-4c0.01584-0.0015 0.03035-0.0023 0.04341-0.0026zm0.06408 2.4587c-1.3096 5.6e-4 -1.3096 1.9653 0 1.9647 1.3107 5.61e-4 1.3107-1.9641 0-1.9647zm0 0.2651c0.26169-1.94e-4 0.42367 0.08754 0.53898 0.21704 0.1153 0.1295 0.17983 0.3135 0.17983 0.50022 0 0.18671-0.06442 0.36991-0.17983 0.4997-0.11541 0.12979-0.27729 0.21839-0.53898 0.21859-0.2611-1.94e-4 -0.42376-0.08883-0.53897-0.21859-0.11522-0.12976-0.17776-0.3129-0.17776-0.4997 0-0.1868 0.06265-0.37075 0.17776-0.50022 0.11511-0.12947 0.27787-0.21723 0.53897-0.21704z" color="#000000" fill="#000000" opacity=".3" style="-inkscape-stroke:none"/>
</svg>
