<svg width="96" height="96" version="1.1" viewBox="0 0 25.4 25.4" xmlns="http://www.w3.org/2000/svg" xmlns:xlink="http://www.w3.org/1999/xlink">
 <defs>
  <linearGradient id="c-3" x1="-197.1" x2="-196.91" y1="217.68" y2="219.36" gradientTransform="matrix(1.0606 -1.0606 1.0606 1.0606 -.00028315 -420.36)" gradientUnits="userSpaceOnUse">
   <stop offset="0"/>
   <stop stop-opacity="0" offset="1"/>
  </linearGradient>
 </defs>
 <path d="m5.16 3.175c-0.44 0-0.592 0.403-0.794 0.794h-1.72c-0.265 0-0.265 0.264-0.265 0.264v8.467c0 0.44 0.354 0.794 0.794 0.794h19.05c0.44 0 0.794-0.354 0.794-0.794v-8.467c0-0.264-0.265-0.264-0.265-0.264h-11.244c-0.233-0.373-0.354-0.794-0.793-0.794z" fill="#ffffff" stroke="#000000" stroke-opacity=".267" stroke-width=".529" paint-order="markers stroke fill"/>
 <path d="m5.16 3.175c-0.44 0-0.592 0.403-0.794 0.794h-1.72c-0.265 0-0.265 0.264-0.265 0.264v8.467c0 0.44 0.354 0.794 0.794 0.794h19.05c0.44 0 0.794-0.354 0.794-0.794v-8.467c0-0.264-0.265-0.264-0.265-0.264h-11.244c-0.233-0.373-0.354-0.794-0.793-0.794z" fill="#ffffff" paint-order="markers stroke fill"/>
 <path d="m12.7 6.085c-0.44 0-0.572 0.414-0.794 0.794l-0.463 0.794h-10.385a0.264 0.264 0 0 0-0.264 0.264v13.759c0 0.146 0.118 0.264 0.264 0.264h23.284a0.264 0.264 0 0 0 0.264-0.264v-15.346c0-0.265-0.264-0.265-0.264-0.265z" fill="#6ba4e7" stroke="#003579" stroke-opacity=".561" stroke-width=".52916" paint-order="markers stroke fill"/>
 <rect x="5.556" y="3.704" width="4.762" height=".794" ry=".397" opacity=".25" paint-order="stroke markers fill"/>
 <path d="m12.7 6.085c-0.44 0-0.572 0.414-0.794 0.794l-0.463 0.794h-10.385a0.264 0.264 0 0 0-0.264 0.264v13.759c0 0.146 0.118 0.264 0.264 0.264h23.284a0.264 0.264 0 0 0 0.264-0.264v-15.346c0-0.265-0.264-0.265-0.264-0.265z" fill="#6ba4e7" paint-order="markers stroke fill"/>
 <path d="M13.889 10.434a2.56 2.56 0 0 0-1.816.755 2.565 2.565 0 0 0-.321 3.245c-.015.012-.034.019-.048.032l-2.65 2.426c-.21.192-.09.634.112.835.201.201.642.322.835.113l2.426-2.651c.013-.015.02-.033.032-.048 1 .672 2.361.562 3.245-.322a2.565 2.565 0 0 0 0-3.63 2.56 2.56 0 0 0-1.815-.755zm0 1.028c.394 0 .79.149 1.092.45a1.547 1.547 0 0 1 0 2.185 1.547 1.547 0 0 1-2.185 0 1.547 1.547 0 0 1 0-2.185 1.54 1.54 0 0 1 1.093-.45z" opacity=".3"/>
 <path d="m24.605 17.197-4.763 4.763h3.9692c0.4396 0 0.79374-0.35414 0.79374-0.79374z" fill="url(#c-3)" opacity=".1" stroke-width=".26458"/>
</svg>
