<svg width="96" height="96" version="1.1" viewBox="0 0 25.4 25.4" xmlns="http://www.w3.org/2000/svg">
 <defs>
  <linearGradient id="c-3" x1="-197.1" x2="-196.91" y1="217.68" y2="219.36" gradientTransform="matrix(1.0606 -1.0606 1.0606 1.0606 -.00028315 -420.36)" gradientUnits="userSpaceOnUse">
   <stop offset="0"/>
   <stop stop-opacity="0" offset="1"/>
  </linearGradient>
 </defs>
 <path d="m5.027 3.44c-0.44 0-0.592 0.403-0.794 0.793h-1.587c-0.265 0-0.265 0.265-0.265 0.265v8.334c0 0.44 0.354 0.794 0.794 0.794h19.05c0.44 0 0.794-0.354 0.794-0.794v-8.334c0-0.265-0.265-0.265-0.265-0.265h-11.112c-0.233-0.373-0.354-0.793-0.794-0.793z" fill="#ffffff" stroke="#000000" stroke-opacity=".255" stroke-width=".529" paint-order="markers stroke fill"/>
 <path d="m5.027 3.44c-0.44 0-0.592 0.403-0.794 0.793h-1.587c-0.265 0-0.265 0.265-0.265 0.265v8.334c0 0.44 0.354 0.794 0.794 0.794h19.05c0.44 0 0.794-0.354 0.794-0.794v-8.334c0-0.265-0.265-0.265-0.265-0.265h-11.112c-0.233-0.373-0.354-0.793-0.794-0.793z" fill="#ffffff" paint-order="markers stroke fill"/>
 <path d="m12.7 9.525c-0.44 0-0.572 0.546-0.794 0.926l-0.232 0.397h-10.616c-0.264 0-0.264 0.264-0.264 0.264v10.584c0 0.264 0.264 0.264 0.264 0.264h23.284s0.264 0 0.264-0.264v-11.906c0-0.265-0.264-0.265-0.264-0.265z" fill="#5294e2" stroke="#003479" stroke-opacity=".561" stroke-width=".529" paint-order="markers stroke fill"/>
 <path d="m12.7 9.525c-0.44 0-0.572 0.546-0.794 0.926l-0.232 0.397h-10.616c-0.264 0-0.264 0.264-0.264 0.264v10.584c0 0.264 0.264 0.264 0.264 0.264h23.284s0.264 0 0.264-0.264v-11.906c0-0.265-0.264-0.265-0.264-0.265z" fill="#6ba4e7" paint-order="markers stroke fill"/>
 <path d="m24.605 17.197-4.763 4.763h3.9692c0.4396 0 0.79374-0.35414 0.79374-0.79374z" fill="url(#c-3)" opacity=".1" stroke-width=".26458"/>
</svg>
