<svg width="96" height="96" version="1.1" viewBox="0 0 25.4 25.4" xmlns="http://www.w3.org/2000/svg" xmlns:xlink="http://www.w3.org/1999/xlink">
 <g transform="matrix(.19844 0 0 .19844 -101 -128.98)">
  <g id="dckndc" transform="translate(509,10)">
   <g transform="translate(0,640)">
    <rect width="128" height="128" fill="none"/>
   </g>
  </g>
  <g transform="translate(3.8147e-6 2.4637e-6)">
   <g transform="matrix(1.3197 0 0 1.2314 -183.17 -149.72)">
    <rect x="535.61" y="657" width="74.766" height="89.868" rx="1.3333" ry="1.3333" fill="#636a78"/>
   </g>
   <rect x="523" y="658.67" width="100" height="112" rx="2.6667" ry="2.6667" fill="none" stroke="#272a2f" stroke-opacity=".78431" stroke-width="1.3333"/>
   <g transform="translate(0 1.3334)">
    <g>
     <rect x="527" y="662.67" width="92" height="16" rx="1.3333" ry="1.3333" fill-opacity=".15686" stroke="#484e57" stroke-width="1.3333"/>
     <g fill-opacity=".29592">
      <rect x="530.33" y="666" width="1.3334" height="9.3333" ry="0"/>
      <rect x="534.33" y="666" width="1.3334" height="9.3333" ry="0"/>
      <ellipse cx="612.33" cy="670.67" rx=".66668" ry=".66665"/>
     </g>
    </g>
    <ellipse cx="595" cy="670.67" rx=".66667" ry=".66666" fill="#6ba4e7"/>
    <g>
     <rect transform="rotate(90)" x="667.33" y="-589" width="6.6667" height="34.667" ry="0" fill-opacity=".17647"/>
     <g fill-opacity=".29592">
      <rect x="538.33" y="666" width="1.3334" height="9.3333" ry="0"/>
      <rect x="542.33" y="666" width="1.3334" height="9.3333" ry="0"/>
      <rect x="546.33" y="666" width="1.3334" height="9.3333" ry="0"/>
     </g>
    </g>
    <ellipse cx="600.33" cy="670.67" rx=".66667" ry=".66666" fill="#6ba4e7"/>
    <ellipse cx="607" cy="670.67" rx=".66667" ry=".66666" fill="#6ba4e7"/>
   </g>
   <g transform="translate(1.9868e-8 22.667)">
    <g>
     <rect x="527" y="662.67" width="92" height="16" rx="1.3333" ry="1.3333" fill-opacity=".15686" stroke="#484e57" stroke-width="1.3333"/>
     <g fill-opacity=".29592">
      <rect x="530.33" y="666" width="1.3334" height="9.3333" ry="0"/>
      <rect x="534.33" y="666" width="1.3334" height="9.3333" ry="0"/>
      <circle cx="613.5" cy="670.5" r="0"/>
     </g>
    </g>
    <circle cx="607.5" cy="670.5" r="0" fill="#6ba4e7"/>
    <g>
     <rect transform="rotate(90)" x="667.33" y="-589" width="6.6667" height="34.667" ry="0" fill-opacity=".17647"/>
     <g fill-opacity=".29592">
      <rect x="538.33" y="666" width="1.3334" height="9.3333" ry="0"/>
      <rect x="542.33" y="666" width="1.3334" height="9.3333" ry="0"/>
      <rect x="546.33" y="666" width="1.3334" height="9.3333" ry="0"/>
      <ellipse cx="612.33" cy="670.67" rx=".66668" ry=".66665"/>
     </g>
    </g>
    <g fill="#6ba4e7">
     <ellipse cx="595" cy="670.67" rx=".66667" ry=".66666"/>
     <ellipse cx="600.33" cy="670.67" rx=".66667" ry=".66666"/>
     <ellipse cx="607" cy="670.67" rx=".66667" ry=".66666"/>
    </g>
   </g>
   <g transform="translate(1.9868e-8 44)">
    <g>
     <rect x="527" y="662.67" width="92" height="16" rx="1.3333" ry="1.3333" fill-opacity=".15686" stroke="#484e57" stroke-width="1.3333"/>
     <g fill-opacity=".29592">
      <rect x="530.33" y="666" width="1.3334" height="9.3333" ry="0"/>
      <rect x="534.33" y="666" width="1.3334" height="9.3333" ry="0"/>
      <circle cx="613.5" cy="670.5" r="0"/>
     </g>
    </g>
    <circle cx="607.5" cy="670.5" r="0" fill="#6ba4e7"/>
    <g>
     <rect transform="rotate(90)" x="667.33" y="-589" width="6.6667" height="34.667" ry="0" fill-opacity=".17647"/>
     <g fill-opacity=".29592">
      <rect x="538.33" y="666" width="1.3334" height="9.3333" ry="0"/>
      <rect x="542.33" y="666" width="1.3334" height="9.3333" ry="0"/>
      <rect x="546.33" y="666" width="1.3334" height="9.3333" ry="0"/>
      <ellipse cx="612.33" cy="670.67" rx=".66668" ry=".66665"/>
     </g>
    </g>
    <g fill="#6ba4e7">
     <ellipse cx="595" cy="670.67" rx=".66667" ry=".66666"/>
     <ellipse cx="600.33" cy="670.67" rx=".66667" ry=".66666"/>
     <ellipse cx="607" cy="670.67" rx=".66667" ry=".66666"/>
    </g>
   </g>
   <g transform="translate(1.9868e-8 65.333)">
    <g>
     <rect x="527" y="662.67" width="92" height="16" rx="1.3333" ry="1.3333" fill-opacity=".15686" stroke="#484e57" stroke-width="1.3333"/>
     <g fill-opacity=".29592">
      <rect x="530.33" y="666" width="1.3334" height="9.3333" ry="0"/>
      <rect x="534.33" y="666" width="1.3334" height="9.3333" ry="0"/>
      <circle cx="613.5" cy="670.5" r="0"/>
     </g>
    </g>
    <circle cx="607.5" cy="670.5" r="0" fill="#6ba4e7"/>
    <g>
     <rect transform="rotate(90)" x="667.33" y="-589" width="6.6667" height="34.667" ry="0" fill-opacity=".17647"/>
     <g fill-opacity=".29592">
      <rect x="538.33" y="666" width="1.3334" height="9.3333" ry="0"/>
      <rect x="542.33" y="666" width="1.3334" height="9.3333" ry="0"/>
      <rect x="546.33" y="666" width="1.3334" height="9.3333" ry="0"/>
      <ellipse cx="612.33" cy="670.67" rx=".66668" ry=".66665"/>
     </g>
    </g>
    <g fill="#6ba4e7">
     <ellipse cx="595" cy="670.67" rx=".66667" ry=".66666"/>
     <ellipse cx="600.33" cy="670.67" rx=".66667" ry=".66666"/>
     <ellipse cx="607" cy="670.67" rx=".66667" ry=".66666"/>
    </g>
   </g>
   <g transform="translate(1.9868e-8 86.667)">
    <g>
     <rect x="527" y="662.67" width="92" height="16" rx="1.3333" ry="1.3333" fill-opacity=".15686" stroke="#484e57" stroke-width="1.3333"/>
     <g fill-opacity=".29592">
      <rect x="530.33" y="666" width="1.3334" height="9.3333" ry="0"/>
      <rect x="534.33" y="666" width="1.3334" height="9.3333" ry="0"/>
      <circle cx="613.5" cy="670.5" r="0"/>
     </g>
    </g>
    <circle cx="607.5" cy="670.5" r="0" fill="#6ba4e7"/>
    <g>
     <rect transform="rotate(90)" x="667.33" y="-589" width="6.6667" height="34.667" ry="0" fill-opacity=".17647"/>
     <g fill-opacity=".29592">
      <rect x="538.33" y="666" width="1.3334" height="9.3333" ry="0"/>
      <rect x="542.33" y="666" width="1.3334" height="9.3333" ry="0"/>
      <rect x="546.33" y="666" width="1.3334" height="9.3333" ry="0"/>
      <ellipse cx="612.33" cy="670.67" rx=".66668" ry=".66665"/>
     </g>
    </g>
    <g fill="#6ba4e7">
     <ellipse cx="595" cy="670.67" rx=".66667" ry=".66666"/>
     <ellipse cx="600.33" cy="670.67" rx=".66667" ry=".66666"/>
     <ellipse cx="607" cy="670.67" rx=".66667" ry=".66666"/>
    </g>
   </g>
  </g>
 </g>
</svg>
