<svg xmlns="http://www.w3.org/2000/svg" width="96" height="96"><defs><linearGradient id="f"><stop offset="0" stop-color="#f2c66f"/><stop offset="1" stop-color="#fbd68f"/></linearGradient><linearGradient id="e"><stop offset="0"/><stop offset="1" stop-opacity="0"/></linearGradient><linearGradient id="d"><stop offset="0" stop-color="#f8f4e1"/><stop offset="1" stop-color="#ad9e57"/></linearGradient><linearGradient id="c"><stop offset="0" stop-color="#49b7ef"/><stop offset="1" stop-color="#1d8de2"/></linearGradient><linearGradient id="b"><stop offset="0" stop-color="#fdfeff"/><stop offset="1" stop-color="#dfe4e4"/></linearGradient><linearGradient id="a"><stop offset="0"/><stop offset="1" stop-opacity=".294"/></linearGradient></defs><path fill="none" d="M0 0h96v96H0z"/><path d="M18 8.5h60c1.662 0 2.437 1.41 3 2.944l2.7 7.362c.563 1.534-1.338 2.944-3 2.944H15.3c-1.662 0-3.563-1.41-3-2.944l2.7-7.362C15.563 9.91 16.338 8.5 18 8.5z" fill="#636a78" stroke="#272a2f" stroke-opacity=".784"/><path d="M78 9l-9.45 64.563c-.236 1.61-1.338 2.935-3 2.935h-35.1c-1.662 0-2.764-1.326-3-2.935L18 9z" opacity=".3"/><path d="M83.7 20.5l-6.45 64.087c-.162 1.606-1.338 2.913-3 2.913h-52.5c-1.662 0-2.838-1.307-3-2.913L12.3 20.5z" fill="#636a78" stroke="#272a2f" stroke-opacity=".784"/><path d="M35.717 62.462c-.383.69-.689 1.726-.689 2.38 0 .152 0 .345.038.612l-4.798-8.25a2.14 2.14 0 0 1-.268-.999c0-.346.114-.767.268-1.035l2.303-4.03L30 49.682l8.367-.154 4.067 7.33-2.608-1.497zm3.686-24.157c.728-1.268 1.919-1.958 3.376-1.958 1.575 0 2.803.73 3.685 2.224l1.306 2.188-4.53 8.731-7.33-5.16zm.535 30.796c-2.187 0-3.99-1.804-3.99-3.991 0-.615.27-1.652.653-2.304l1.227-2.187h9.097v8.482h-6.987zm7.294-31.028c-.575-.996-1.343-1.689-2.264-2.073h9.44c.845 0 1.497.347 1.882 1l2.34 3.99 2.533-1.497-4.07 7.293-8.325-.117 2.57-1.457zM61.78 60.696c1.15 0 2.11-.307 2.916-.92l-4.76 8.289a2.073 2.073 0 0 1-1.88 1.036h-4.491v2.955l-4.298-7.177 4.298-7.177v2.994h8.215zm3.682-6.908c.346.614.539 1.266.539 1.957 0 1.382-.884 2.84-2.11 3.53-.577.309-1.386.549-2.188.501h-2.535l-4.527-7.831 7.33-4.183z" fill="#fff"/></svg>