<svg width="48" height="48" version="1.1" viewBox="0 0 12.7 12.7" xmlns="http://www.w3.org/2000/svg">
 <path d="m2.381 1.587s-0.264 0-0.264 0.265v0.265h-0.794s-0.265-2e-3 -0.265 0.262v4.09c0 0.226 0.182 0.408 0.407 0.408h9.77a0.406 0.406 0 0 0 0.407-0.407v-4.089c0-0.264-0.265-0.264-0.265-0.264h-5.556v-0.265c0-0.265-0.265-0.265-0.265-0.265z" fill="#ffffff" fill-opacity=".976" stroke="#000000" stroke-opacity=".267" stroke-width=".529" paint-order="markers stroke fill"/>
 <path d="m2.381 1.587s-0.264 0-0.264 0.265v0.265h-0.794s-0.265-2e-3 -0.265 0.262v4.09c0 0.226 0.182 0.408 0.407 0.408h9.77a0.406 0.406 0 0 0 0.407-0.407v-4.089c0-0.264-0.265-0.264-0.265-0.264h-5.556v-0.265c0-0.265-0.265-0.265-0.265-0.265z" fill="#ffffff" fill-opacity=".976" paint-order="markers stroke fill"/>
 <path d="m6.35 2.908c-0.225 0-0.292 0.212-0.406 0.406l-0.236 0.388h-5.179c-0.264 0-0.264 0.265-0.264 0.265v6.88c0 0.265 0.264 0.265 0.264 0.265h11.642c0.264 0 0.264-0.264 0.264-0.264v-7.673c0-0.265-0.264-0.265-0.264-0.265z" fill="#6ba4e7" stroke="#003579" stroke-opacity=".561" stroke-width=".529" paint-order="markers stroke fill"/>
 <path d="m6.35 2.908c-0.225 0-0.292 0.212-0.406 0.406l-0.236 0.388h-5.179c-0.264 0-0.264 0.265-0.264 0.265v6.88c0 0.265 0.264 0.265 0.264 0.265h11.642c0.264 0 0.264-0.264 0.264-0.264v-7.673c0-0.265-0.264-0.265-0.264-0.265z" fill="#6ba4e7" paint-order="markers stroke fill"/>
 <path d="m6.2834 5.292c-0.0393 0.00394-0.0907 0.01028-0.13212 0.028412 0 0-0.0269 0.089464-0.04746 0.31161-0.0251 0.27201-0.1294 0.34155-0.20769 0.39684-0.0786 0.055312-0.1028 0.071632-0.13242 0.08493-0.15358 0.025692-0.29055 0.042314-0.50066-0.13208-0.17172-0.14266-0.24549-0.1889-0.24549-0.1889-0.08464 0.033246-0.16084 0.12271-0.16084 0.12271s-0.08918 0.075562-0.12274 0.16049c0 0 0.04626 0.07405 0.18896 0.24573 0.17444 0.20975 0.15812 0.34699 0.13242 0.50054-0.0134 0.029318-0.02962 0.0538-0.08526 0.13208-0.05532 0.078584-0.12486 0.18286-0.39666 0.20795-0.22221 0.020554-0.30233 0.04715-0.30233 0.04715-0.03628 0.08372-0.037792 0.19827-0.037792 0.19827s0.00151 0.11485 0.037792 0.19857c0 0 0.080118 0.026598 0.30233 0.04715 0.27179 0.025084 0.34103 0.12936 0.39666 0.20765 0.05562 0.078582 0.07196 0.10276 0.08526 0.13238 0.0257 0.15354 0.04232 0.29075-0.13242 0.50054-0.1427 0.17167-0.18896 0.24573-0.18896 0.24573 0.03356 0.084626 0.12274 0.16019 0.12274 0.16019s0.07558 0.089768 0.16084 0.12302c0 0 0.07376-0.046242 0.24549-0.1889 0.21011-0.1744 0.34707-0.15777 0.50066-0.13208 0.02932 0.0133 0.05382 0.02932 0.13242 0.084626 0.0786 0.055614 0.1826 0.12513 0.20769 0.39684 0.02056 0.22215 0.04746 0.30225 0.04746 0.30225 0.08374 0.036266 0.19832 0.037778 0.19832 0.037778s0.11488-0.00151 0.19832-0.037778c0 0 0.0269-0.079794 0.04716-0.30225 0.0251-0.27171 0.12848-0.34397 0.25517-0.43434v-0.00938c0.03024-0.01118 0.05562-0.02448 0.08496-0.037778 0.15358-0.02599 0.29085-0.042314 0.50096 0.13208 0.17142 0.14266 0.24549 0.1889 0.24549 0.1889 0.08496-0.033246 0.16054-0.12271 0.16054-0.12271s0.0895-0.07556 0.12304-0.16049c0 0-0.04626-0.07405-0.18896-0.24573-0.17474-0.20975-0.15812-0.34699-0.13242-0.50054 0.0134-0.029316 0.0266-0.05501 0.0378-0.08493h0.0094c0.0907-0.12694 0.16296-0.22971 0.43476-0.25509 0.22221-0.020554 0.31169-0.04715 0.31169-0.04715 0.03628-0.08372 0.02842-0.19857 0.02842-0.19857s0.0078-0.11485-0.02842-0.19827c0 0-0.0895-0.026596-0.31169-0.04715-0.27211-0.025078-0.34404-0.12814-0.43476-0.25509-0.0112-0.030224-0.03386-0.055614-0.04716-0.08493-0.0257-0.15354-0.04232-0.29075 0.13242-0.50054 0.1424-0.17167 0.18896-0.24573 0.18896-0.24573-0.03356-0.084626-0.12304-0.16049-0.12304-0.16049s-0.07558-0.089464-0.16024-0.12271c0 0-0.07408 0.046242-0.24579 0.1889-0.21011 0.1744-0.34162 0.15717-0.52908 0.075562-0.18744-0.081606-0.28691-0.15324-0.31199-0.42526-0.02056-0.22215-0.04716-0.31131-0.04716-0.31131-0.08344-0.036872-0.19832-0.029016-0.19832-0.029016s-0.02722-0.00362-0.06622 0zm0.0662 1.5112a0.60468 0.6045 0 1 1 0 1.209 0.60468 0.6045 0 0 1 0-1.209z" opacity=".15" stroke-width=".26458"/>
 <path transform="scale(.26458)" d="m24.318 18.99c-0.21171-0.010426-0.3444 0.015208-0.35742 0.017578-0.086673-0.006274-0.14184-0.020788-0.30274-0.005859a1.0001 1.0001 0 0 0-0.28711 0.072266 1.0001 1.0001 0 0 0-0.007813 0c-0.15527 0.021241-0.28671 0.018945-0.51562 0.11914a1.0001 1.0001 0 0 0-0.55469 0.62695s-0.13789 0.47828-0.2207 1.373c-0.036511 0.3956-0.10984 0.53216-0.14844 0.58984-0.038589 0.057687-0.055352 0.074278-0.21289 0.18555-0.16253 0.11438-0.1439 0.097636-0.18555 0.125-0.41316 0.085363-0.44413 0.20032-0.99609-0.25781-0.6756-0.56127-1.0332-0.79102-1.0332-0.79102a1.0001 1.0001 0 0 0-0.90039-0.080078c-0.66242 0.26019-0.91552 0.66494-0.94531 0.70898-0.065825 0.045751-0.43471 0.28215-0.6875 0.92188a1.0001 1.0001 0 0 0 0.082031 0.90039s0.22728 0.35733 0.78906 1.0332c0.45478 0.54684 0.34397 0.58664 0.25977 0.99023-0.027477 0.041836-0.012762 0.022934-0.12695 0.18359a1.0001 1.0001 0 0 0 0 0.007813c-0.11085 0.15747-0.12614 0.17636-0.18359 0.21484-0.057456 0.03848-0.19469 0.11-0.58984 0.14648-0.89668 0.08295-1.3672 0.22852-1.3672 0.22852a1.0001 1.0001 0 0 0-0.59766 0.54688c-0.26542 0.61248-0.22852 1.1367-0.22852 1.1367a1.0001 1.0001 0 0 0 0 0.029297s-0.037287 0.51755 0.22852 1.1309a1.0001 1.0001 0 0 0 0.59766 0.55274s0.4705 0.13777 1.3672 0.2207c0.39509 0.036472 0.53223 0.11768 0.58984 0.15625 0.057611 0.03857 0.070476 0.053712 0.18359 0.21289 0.1149 0.16234 0.099805 0.14443 0.12695 0.18555 0.085316 0.41207 0.19852 0.43807-0.25977 0.98828-0.5618 0.67586-0.78906 1.041-0.78906 1.041a1.0001 1.0001 0 0 0-0.082031 0.90039c0.25681 0.64758 0.6387 0.8928 0.69531 0.93164 0.038506 0.056735 0.2868 0.44514 0.94336 0.70117a1.0001 1.0001 0 0 0 0.89453-0.082031s0.35759-0.23562 1.0332-0.79688c0.54806-0.4549 0.58391-0.33641 0.98828-0.25195 0.041821 0.027061 0.030194 0.01212 0.19336 0.12695v-0.007812c0.15792 0.11174 0.17432 0.12588 0.21289 0.18359 0.038574 0.057714 0.11194 0.19652 0.14844 0.5918 0.083051 0.89736 0.22852 1.373 0.22852 1.373a1.0001 1.0001 0 0 0 0.55274 0.59766c0.61246 0.26524 1.1309 0.2207 1.1309 0.2207a1.0001 1.0001 0 0 0 0.029297 0s0.52291 0.046098 1.1367-0.2207a1.0001 1.0001 0 0 0 0.54688-0.59766s0.14665-0.47416 0.22852-1.373c0.036624-0.39633 0.10136-0.51701 0.1543-0.5918 0.050765-0.071729 0.15653-0.15041 0.37695-0.30859 0.43144-0.087599 0.4511-0.20751 1.0117 0.25781 0.67509 0.56182 1.0332 0.79688 1.0332 0.79688a1.0001 1.0001 0 0 0 0.89258 0.082031c0.65388-0.25587 0.90687-0.64475 0.94531-0.70117 0.056712-0.038721 0.43633-0.28664 0.69336-0.9375a1.0001 1.0001 0 0 0-0.080078-0.89453s-0.22924-0.36514-0.79102-1.041c-0.46546-0.55873-0.35281-0.57146-0.26562-1.0039 0.15843-0.22041 0.23856-0.32419 0.31055-0.375 0.07506-0.052978 0.20025-0.12696 0.59766-0.16406 0.89412-0.082704 1.373-0.21289 1.373-0.21289a1.0001 1.0001 0 0 0 0.62695-0.56055c0.275-0.6346 0.19474-1.0976 0.18555-1.1523 0.009997-0.060061 0.088299-0.51386-0.18555-1.1445a1.0001 1.0001 0 0 0-0.62695-0.56055s-0.47902-0.13214-1.373-0.21484c-0.39758-0.036624-0.52312-0.10161-0.59766-0.1543-0.070658-0.049947-0.15532-0.15358-0.31055-0.36914-0.001078-0.001613 0.001039-0.006301 0-0.007812-0.087241-0.43309-0.20014-0.45252 0.26562-1.0117 0.56004-0.67517 0.79102-1.0332 0.79102-1.0332a1.0001 1.0001 0 0 0 0.080078-0.90039c-0.25732-0.64887-0.63693-0.89885-0.69336-0.9375-0.03859-0.056712-0.28497-0.43709-0.9375-0.69336a1.0001 1.0001 0 0 0-0.90039 0.080078s-0.35718 0.22936-1.0332 0.79102c-0.30571 0.25374-0.42174 0.27411-0.48047 0.2793-0.058722 0.005178-0.18108-0.008357-0.48047-0.13867-0.31539-0.13731-0.41729-0.21339-0.44922-0.25195s-0.095776-0.12954-0.13281-0.53125c-0.082738-0.89399-0.22266-1.373-0.22266-1.373a1.0001 1.0001 0 0 0-0.55273-0.62695c-0.32861-0.14521-0.62032-0.1927-0.83203-0.20312zm-0.57031 1.0098c0.1474-0.013682 0.25 0 0.25 0s0.43464-0.029984 0.75 0.10938c0 0 0.10003 0.33811 0.17773 1.1777 0.094791 1.0281 0.47125 1.297 1.1797 1.6055 0.70849 0.30843 1.2059 0.37398 2-0.28516 0.64898-0.53919 0.92969-0.71289 0.92969-0.71289 0.31997 0.12566 0.60547 0.46289 0.60547 0.46289s0.338 0.28758 0.46484 0.60742c0 0-0.17664 0.27889-0.71484 0.92773-0.66044 0.79291-0.59713 1.3123-0.5 1.8926 0.050268 0.1108 0.1354 0.20608 0.17773 0.32031 0.34287 0.4798 0.61413 0.87006 1.6426 0.96484 0.83976 0.077685 1.1797 0.17774 1.1797 0.17774 0.13689 0.31527 0.10742 0.75 0.10742 0.75s0.029699 0.43358-0.10742 0.75c0 0-0.33983 0.10005-1.1797 0.17773-1.0273 0.095921-1.2998 0.48507-1.6426 0.96484h-0.035156c-0.042331 0.11308-0.091932 0.20951-0.14258 0.32031-0.097134 0.58036-0.16044 1.0998 0.5 1.8926 0.53934 0.64887 0.71484 0.92773 0.71484 0.92773-0.12677 0.321-0.46484 0.60742-0.46484 0.60742s-0.28631 0.33724-0.60742 0.46289c0 0-0.27985-0.1737-0.92773-0.71289-0.79412-0.65913-1.3141-0.59823-1.8945-0.5-0.11089 0.05026-0.20602 0.10032-0.32031 0.14258v0.037109c-0.47883 0.34158-0.86998 0.61369-0.96484 1.6406-0.076573 0.84077-0.17773 1.1426-0.17773 1.1426-0.31536 0.13708-0.75 0.14258-0.75 0.14258s-0.4335-0.00551-0.75-0.14258c0 0-0.10003-0.30295-0.17774-1.1426-0.094835-1.027-0.48808-1.2898-0.78516-1.5-0.29707-0.20903-0.39114-0.27004-0.50195-0.32031-0.5805-0.097096-1.0965-0.15913-1.8906 0.5-0.64905 0.53919-0.92773 0.71289-0.92773 0.71289-0.32224-0.12566-0.60938-0.46484-0.60938-0.46484s-0.33605-0.28562-0.46289-0.60547c0 0 0.1755-0.27889 0.71484-0.92773 0.66044-0.79291 0.59713-1.3123 0.5-1.8926-0.050268-0.11194-0.11205-0.203-0.32227-0.5-0.21028-0.29591-0.47276-0.69035-1.5-0.78516-0.83985-0.077677-1.1426-0.17773-1.1426-0.17773-0.13713-0.31642-0.14258-0.75-0.14258-0.75s0.005457-0.43358 0.14258-0.75c0 0 0.30272-0.10005 1.1426-0.17774 1.0273-0.094835 1.2909-0.4901 1.5-0.78711 0.21029-0.29586 0.27162-0.38724 0.32227-0.49805 0.097134-0.58036 0.1593-1.0998-0.5-1.8926-0.53934-0.64887-0.71484-0.92773-0.71484-0.92773 0.12684-0.321 0.46289-0.60742 0.46289-0.60742s0.28948-0.33724 0.60938-0.46289c0 0 0.27872 0.1737 0.92773 0.71289 0.79412 0.65913 1.3102 0.5971 1.8906 0.5 0.11195-0.05026 0.20488-0.11126 0.50195-0.32031 0.2959-0.209 0.69029-0.47193 0.78516-1.5 0.077708-0.8396 0.17774-1.1777 0.17774-1.1777 0.15655-0.06853 0.35146-0.092531 0.5-0.10742v-0.001953zm0.25 5.7129a2.2854 2.2847 0 0 0 0 4.5684 2.2854 2.2847 0 1 0 0-4.5684zm0.007812 1.002c0.51579-0.002971 0.77614 0.15473 0.97461 0.37695s0.31641 0.55754 0.31641 0.9082-0.11794 0.68598-0.31641 0.9082c-0.19848 0.22222-0.45882 0.37797-0.97461 0.375-0.50797-0.002925-0.76229-0.1606-0.95898-0.38281-0.1967-0.22221-0.31836-0.55326-0.31836-0.90039s0.12166-0.68599 0.31836-0.9082 0.45101-0.37403 0.95898-0.37695z" color="#000000" color-rendering="auto" dominant-baseline="auto" image-rendering="auto" opacity=".3" shape-rendering="auto" solid-color="#000000" style="font-feature-settings:normal;font-variant-alternates:normal;font-variant-caps:normal;font-variant-ligatures:normal;font-variant-numeric:normal;font-variant-position:normal;isolation:auto;mix-blend-mode:normal;shape-padding:0;text-decoration-color:#000000;text-decoration-line:none;text-decoration-style:solid;text-indent:0;text-orientation:mixed;text-transform:none;white-space:normal"/>
</svg>
