<svg width="48" height="48" version="1.1" viewBox="0 0 12.7 12.7" xmlns="http://www.w3.org/2000/svg" xmlns:xlink="http://www.w3.org/1999/xlink">
 <path d="m2.381 1.587s-0.264 0-0.264 0.265v0.265h-0.794s-0.265-2e-3 -0.265 0.262v4.09c0 0.226 0.182 0.408 0.407 0.408h9.77a0.406 0.406 0 0 0 0.407-0.407v-4.089c0-0.264-0.265-0.264-0.265-0.264h-5.556v-0.265c0-0.265-0.265-0.265-0.265-0.265z" fill="#ffffff" fill-opacity=".976" stroke="#000000" stroke-opacity=".267" stroke-width=".529" paint-order="markers stroke fill"/>
 <path d="m2.381 1.587s-0.264 0-0.264 0.265v0.265h-0.794s-0.265-2e-3 -0.265 0.262v4.09c0 0.226 0.182 0.408 0.407 0.408h9.77a0.406 0.406 0 0 0 0.407-0.407v-4.089c0-0.264-0.265-0.264-0.265-0.264h-5.556v-0.265c0-0.265-0.265-0.265-0.265-0.265z" fill="#ffffff" fill-opacity=".976" paint-order="markers stroke fill"/>
 <path d="m6.35 2.908c-0.225 0-0.292 0.212-0.406 0.406l-0.236 0.388h-5.179c-0.264 0-0.264 0.265-0.264 0.265v6.88c0 0.265 0.264 0.265 0.264 0.265h11.642c0.264 0 0.264-0.264 0.264-0.264v-7.673c0-0.265-0.264-0.265-0.264-0.265z" fill="#6ba4e7" stroke="#003579" stroke-opacity=".561" stroke-width=".529" paint-order="markers stroke fill"/>
 <path d="m6.35 2.908c-0.225 0-0.292 0.212-0.406 0.406l-0.236 0.388h-5.179c-0.264 0-0.264 0.265-0.264 0.265v6.88c0 0.265 0.264 0.265 0.264 0.265h11.642c0.264 0 0.264-0.264 0.264-0.264v-7.673c0-0.265-0.264-0.265-0.264-0.265z" fill="#6ba4e7" paint-order="markers stroke fill"/>
 <path transform="scale(.26458)" d="m27 19c-0.063726 0-0.12671 0.001945-0.18945 0.005859a3 3 0 0 0-0.076172 0.00586c-0.046493 0.004082-0.092811 0.009446-0.13867 0.015625a3 3 0 0 0-0.042969 0.005859c-0.003257 4.87e-4 -0.006511 0.001456-0.009765 0.001953a3 3 0 0 0-0.001953 0c-0.070944 0.010887-0.13977 0.025251-0.20898 0.041016-0.070808 0.016127-0.14018 0.03365-0.20898 0.054687a3 3 0 0 0-0.013672 0.003907c-0.066542 0.020696-0.1328 0.045198-0.19727 0.070312a3 3 0 0 0-0.017578 0.00586c-0.13714 0.054401-0.26818 0.11823-0.39453 0.19141-0.064463 0.037332-0.12814 0.077264-0.18945 0.11914-0.052016 0.035527-0.10275 0.072687-0.15234 0.11133a3 3 0 0 0-0.056641 0.044922c-0.045047 0.036868-0.090001 0.073902-0.13281 0.11328a3 3 0 0 0-0.039062 0.037109c-0.03473 0.033112-0.068451 0.066833-0.10156 0.10156a3 3 0 0 0-0.037109 0.039062c-0.03938 0.042811-0.076414 0.087765-0.11328 0.13281a3 3 0 0 0-0.044922 0.056641c-0.038641 0.049596-0.075801 0.10033-0.11133 0.15234-0.041876 0.061313-0.081808 0.12499-0.11914 0.18945-0.037866 0.065384-0.072517 0.13083-0.10547 0.19922-0.030726 0.063766-0.059689 0.12914-0.085937 0.19531a3 3 0 0 0-0.00586 0.017578c-0.025114 0.064467-0.049616 0.12877-0.070312 0.19531a3 3 0 0 0-0.001954 0.007812c-0.021796 0.070758-0.04004 0.14392-0.05664 0.2168-0.015765 0.069215-0.030129 0.13804-0.041016 0.20898v0.001953a3 3 0 0 0-0.007812 0.052734c-0.006179 0.045861-0.011543 0.092179-0.015625 0.13867a3 3 0 0 0-0.00586 0.076172c-0.003914 0.062739-0.005859 0.12573-0.005859 0.18945 0 0.058302 0.00231 0.11651 0.005859 0.17383a3 3 0 0 0 0.015625 0.16602 3 3 0 0 0 0.023438 0.16602 3 3 0 0 0 0.24805 0.78906l-2.002 1.998a3 3 0 0 0-1.125-0.28906c-0.055437-0.003508-0.11032-0.005467-0.16602-0.005859-4.0013 0-4.0013 6.002 0 6.002a3 3 0 0 0 1.293-0.29297l2 1.998a3 3 0 0 0-0.29297 1.2949c0 0.070303 0.003429 0.14056 0.007812 0.20898a3 3 0 0 0 0.001954 0.025391c0.18134 2.5167 3.2787 3.7233 5.1133 1.8887 0.85381-0.85381 1.0469-1.9811 0.75781-2.9609a3 3 0 0 0-0.001953-0.009765c-0.04336-0.14525-0.098023-0.28652-0.16211-0.42383a3 3 0 0 0-0.03125-0.06836l-0.001953-0.001953a3 3 0 0 0-0.035156-0.068359c-0.012082-0.022854-0.024456-0.045811-0.03711-0.06836a3 3 0 0 0-0.027344-0.048828c-0.45525-0.77782-1.2533-1.3589-2.2754-1.457a3 3 0 0 0-0.003906 0c-0.024157-0.002288-0.047862-0.004116-0.072266-0.005859a3 3 0 0 0-0.078125-0.00586c-0.02511-0.001181-0.050812-0.001352-0.076172-0.001953a3 3 0 0 0-0.078125-0.001953c-0.0557 3.92e-4 -0.11058 0.002351-0.16602 0.005859a3 3 0 0 0-1.127 0.28711l-2-2a3 3 0 0 0 0.28711-1.127c0.003467-0.054793 0.005436-0.11292 0.005859-0.16797-1.8e-4 -0.025548-0.001116-0.050672-0.001953-0.076172a3 3 0 0 0-0.29297-1.2168l2.0039-1.998a3 3 0 0 0 0.78516 0.24805 3 3 0 0 0 0.12891 0.019531c0.033535 0.004531 0.067675 0.008373 0.10156 0.011719a3 3 0 0 0 0.070313 0.00586c0.068314 0.005031 0.13549 0.009765 0.20508 0.009765 3.9493 0 4.0009-5.8461 0.1543-5.998a3 3 0 0 0-0.1543-0.003906zm0 1a2 2 0 0 1 2 2 2 2 0 0 1-2 2 2 2 0 0 1-2-2 2 2 0 0 1 2-2zm-6 6a2 2 0 0 1 2 2 2 2 0 0 1-2 2 2 2 0 0 1-2-2 2 2 0 0 1 2-2zm6 6a2 2 0 0 1 2 2 2 2 0 0 1-2 2 2 2 0 0 1-2-2 2 2 0 0 1 2-2z" opacity=".3" stroke-width="3.7795"/>
 <circle cx="5.5563" cy="7.4083" r=".52916" fill="#000000" opacity=".15"/>
 <circle cx="7.144" cy="8.9953" r="0" opacity=".15" stroke-width=".26458"/>
 <circle cx="7.144" cy="5.8203" r="0" opacity=".15" stroke-width=".26458"/>
 <circle cx="7.1437" cy="8.9958" r=".52916" fill="#000000" opacity=".15"/>
 <circle cx="7.1438" cy="5.8208" r=".52916" fill="#000000" opacity=".15"/>
</svg>
