<svg width="48" height="48" version="1.1" viewBox="0 0 12.7 12.7" xmlns="http://www.w3.org/2000/svg" xmlns:xlink="http://www.w3.org/1999/xlink">
 <path d="m2.381 1.587s-0.264 0-0.264 0.265v0.265h-0.794s-0.265-2e-3 -0.265 0.262v4.09c0 0.226 0.182 0.408 0.407 0.408h9.77a0.406 0.406 0 0 0 0.407-0.407v-4.089c0-0.264-0.265-0.264-0.265-0.264h-5.556v-0.265c0-0.265-0.265-0.265-0.265-0.265z" fill="#ffffff" fill-opacity=".976" stroke="#000000" stroke-opacity=".267" stroke-width=".529" paint-order="markers stroke fill"/>
 <path d="m2.381 1.587s-0.264 0-0.264 0.265v0.265h-0.794s-0.265-2e-3 -0.265 0.262v4.09c0 0.226 0.182 0.408 0.407 0.408h9.77a0.406 0.406 0 0 0 0.407-0.407v-4.089c0-0.264-0.265-0.264-0.265-0.264h-5.556v-0.265c0-0.265-0.265-0.265-0.265-0.265z" fill="#ffffff" fill-opacity=".976" paint-order="markers stroke fill"/>
 <path d="m6.35 2.908c-0.225 0-0.292 0.212-0.406 0.406l-0.236 0.388h-5.179c-0.264 0-0.264 0.265-0.264 0.265v6.88c0 0.265 0.264 0.265 0.264 0.265h11.642c0.264 0 0.264-0.264 0.264-0.264v-7.673c0-0.265-0.264-0.265-0.264-0.265z" fill="#6ba4e7" stroke="#003579" stroke-opacity=".561" stroke-width=".529" paint-order="markers stroke fill"/>
 <path d="m6.35 2.908c-0.225 0-0.292 0.212-0.406 0.406l-0.236 0.388h-5.179c-0.264 0-0.264 0.265-0.264 0.265v6.88c0 0.265 0.264 0.265 0.264 0.265h11.642c0.264 0 0.264-0.264 0.264-0.264v-7.673c0-0.265-0.264-0.265-0.264-0.265z" fill="#6ba4e7" paint-order="markers stroke fill"/>
 <path d="M6.35 6.35a1.058 1.058 0 1 0 0 2.117 1.058 1.058 0 0 0 0-2.117zm0 .265a.794.794 0 1 1 0 1.587.794.794 0 0 1 0-1.587z" opacity=".3"/>
 <path d="M4.233 6.085a.264.264 0 0 0-.264.265v2.646c0 .146.118.264.264.264h4.234a.264.264 0 0 0 .264-.264V6.35a.264.264 0 0 0-.264-.265h-.53l-.264-.529H5.027l-.264.53zm0 .265h.662l.264-.53H7.54l.265.53h.662v2.646H4.233z" opacity=".3"/>
 <path d="M5.16 5.82l-.265.53h-.662v2.646h4.234V6.35h-.662l-.264-.53zm1.19.53a1.058 1.058 0 1 1 0 2.117 1.058 1.058 0 0 1 0-2.117z" opacity=".15"/>
</svg>
