<svg width="48" height="48" version="1.1" viewBox="0 0 12.7 12.7" xmlns="http://www.w3.org/2000/svg" xmlns:xlink="http://www.w3.org/1999/xlink">
 <path d="m2.381 1.587s-0.264 0-0.264 0.265v0.265h-0.794s-0.265-2e-3 -0.265 0.262v4.09c0 0.226 0.182 0.408 0.407 0.408h9.77a0.406 0.406 0 0 0 0.407-0.407v-4.089c0-0.264-0.265-0.264-0.265-0.264h-5.556v-0.265c0-0.265-0.265-0.265-0.265-0.265z" fill="#ffffff" fill-opacity=".976" stroke="#000000" stroke-opacity=".267" stroke-width=".529" paint-order="markers stroke fill"/>
 <path d="m2.381 1.587s-0.264 0-0.264 0.265v0.265h-0.794s-0.265-2e-3 -0.265 0.262v4.09c0 0.226 0.182 0.408 0.407 0.408h9.77a0.406 0.406 0 0 0 0.407-0.407v-4.089c0-0.264-0.265-0.264-0.265-0.264h-5.556v-0.265c0-0.265-0.265-0.265-0.265-0.265z" fill="#ffffff" fill-opacity=".976" paint-order="markers stroke fill"/>
 <path d="m6.35 2.908c-0.225 0-0.292 0.212-0.406 0.406l-0.236 0.388h-5.179c-0.264 0-0.264 0.265-0.264 0.265v6.88c0 0.265 0.264 0.265 0.264 0.265h11.642c0.264 0 0.264-0.264 0.264-0.264v-7.673c0-0.265-0.264-0.265-0.264-0.265z" fill="#6ba4e7" stroke="#003579" stroke-opacity=".561" stroke-width=".529" paint-order="markers stroke fill"/>
 <path d="m6.35 2.908c-0.225 0-0.292 0.212-0.406 0.406l-0.236 0.388h-5.179c-0.264 0-0.264 0.265-0.264 0.265v6.88c0 0.265 0.264 0.265 0.264 0.265h11.642c0.264 0 0.264-0.264 0.264-0.264v-7.673c0-0.265-0.264-0.265-0.264-0.265z" fill="#6ba4e7" paint-order="markers stroke fill"/>
 <path d="M5.027 6.773l1.323-.9 1.323.9v2.223H5.027z" opacity=".15"/>
 <path d="M6.35 5.556L4.366 6.88h.397V9.26h3.174V6.88h.397zm0 .318l1.323.9v2.222H5.027V6.774z" opacity=".3"/>
</svg>
