<svg width="128" height="128" version="1.1" viewBox="0 0 33.866 33.866" xmlns="http://www.w3.org/2000/svg">
 <defs>
  <linearGradient id="c" x1="-197.1" x2="-196.91" y1="217.68" y2="219.37" gradientTransform="matrix(5.2589 -5.2589 5.2589 5.2589 1.0331 -2083.1)" gradientUnits="userSpaceOnUse">
   <stop offset="0"/>
   <stop stop-opacity="0" offset="1"/>
  </linearGradient>
 </defs>
 <path d="m7.1436 4.4978c-0.79373 0-1.0583 0.53658-1.0583 1.0583h-2.126c-0.40245 0-0.51977 0.14903-0.51977 0.51781v10.879c0 0.57469 0.46485 1.0395 1.0395 1.0395h24.91c0.57381 1e-6 1.0387-0.46574 1.0376-1.0395v-10.879c0-0.38976-0.13476-0.51977-0.51977-0.51977h-14.561c0-0.51977-0.26458-1.0564-1.0583-1.0564z" fill="#fff" fill-opacity=".976" stroke="#000" stroke-opacity=".268" stroke-width=".52916" style="paint-order:markers stroke fill"/>
 <path d="m7.1436 4.4978c-0.79373 0-1.0583 0.53658-1.0583 1.0583h-2.126c-0.40245 0-0.51977 0.14903-0.51977 0.51781v10.879c0 0.57469 0.46485 1.0395 1.0395 1.0395h24.91c0.57381 1e-6 1.0387-0.46574 1.0376-1.0395v-10.879c0-0.38976-0.13476-0.51977-0.51977-0.51977h-14.561c0-0.51977-0.26458-1.0564-1.0583-1.0564z" fill="#fff" fill-opacity=".976" style="paint-order:markers stroke fill"/>
 <path d="m16.934 8.2019c-0.57654 0-0.76808 0.55851-1.0593 1.0583l-0.58965 1.0583h-13.449c-0.52144 0-0.52144 0.52144-0.52144 0.52144v17.744c0 0.51948 0.52144 0.51948 0.52144 0.51948h30.197c0.51948 0 0.51948-0.51948 0.51948-0.51948v-19.861c0-0.52144-0.51948-0.52144-0.51948-0.52144z" fill="#6ba4e7" stroke="#003579" stroke-opacity=".56078" stroke-width=".52916" style="paint-order:markers stroke fill"/>
 <path d="m16.934 8.2019c-0.57654 0-0.76808 0.55851-1.0593 1.0583l-0.58965 1.0583h-13.449c-0.52144 0-0.52144 0.52144-0.52144 0.52144v17.744c0 0.51948 0.52144 0.51948 0.52144 0.51948h30.197c0.51948 0 0.51948-0.51948 0.51948-0.51948v-19.861c0-0.52144-0.51948-0.52144-0.51948-0.52144z" fill="#6ba4e7" style="paint-order:markers stroke fill"/>
 <path transform="scale(.26458)" d="m123.03 86.385-23.613 23.615h21.648c1.9634 0 1.9648-1.9629 1.9648-1.9629v-21.652z" fill="url(#c)" opacity=".1" stroke-width="3.7796" style="paint-order:stroke markers fill"/>
 <rect x="7.6728" y="5.5561" width="6.3499" height="1.0583" rx=".52916" ry=".53016" fill-opacity=".267" style="paint-order:markers stroke fill"/>
 <path d="m18.518 14.552c-0.87705 0-1.7511 0.33751-2.4203 1.0067-1.1782 1.1782-1.3246 2.9941-0.42835 4.3265-0.02064 0.01537-0.04492 0.02511-0.06427 0.04283l-3.534 3.2342c-0.27974 0.25675-0.11858 0.84527 0.14991 1.1138 0.26849 0.26849 0.85702 0.42967 1.1138 0.14993l3.2342-3.534c0.01773-0.01934 0.02744-0.04367 0.04281-0.06427 1.3324 0.89622 3.1484 0.74981 4.3265-0.42837 1.3383-1.3383 1.3383-3.5023 0-4.8406-0.66914-0.66915-1.5433-1.0067-2.4203-1.0067zm0 1.3708c0.52622 0 1.055 0.19822 1.4564 0.59972 0.80299 0.80299 0.80299 2.1099 0 2.9129-0.803 0.80299-2.1099 0.80299-2.9129 0-0.80297-0.80298-0.80297-2.1099 0-2.9129 0.4015-0.40149 0.93026-0.59972 1.4565-0.59972z" opacity=".3" stroke-width="0"/>
</svg>
