<svg width="128" height="128" version="1.1" viewBox="0 0 33.866 33.866" xmlns="http://www.w3.org/2000/svg">
 <defs>
  <linearGradient id="c-7" x1="-197.1" x2="-196.91" y1="217.68" y2="219.37" gradientTransform="matrix(1.3914 -1.3914 1.3914 1.3914 .27334 -551.15)" gradientUnits="userSpaceOnUse">
   <stop offset="0"/>
   <stop stop-opacity="0" offset="1"/>
  </linearGradient>
 </defs>
 <path d="m7.1436 4.4978c-0.79373 0-1.0583 0.53658-1.0583 1.0583h-2.126c-0.40245 0-0.51977 0.14903-0.51977 0.51781v10.879c0 0.57469 0.46485 1.0395 1.0395 1.0395h24.91c0.57381 1e-6 1.0387-0.46574 1.0376-1.0395v-10.879c0-0.38976-0.13476-0.51977-0.51977-0.51977h-14.561c0-0.51977-0.26458-1.0564-1.0583-1.0564z" fill="#ffffff" fill-opacity=".976" stroke="#000000" stroke-opacity=".268" stroke-width=".52916" style="paint-order:markers stroke fill"/>
 <path d="m7.1436 4.4978c-0.79373 0-1.0583 0.53658-1.0583 1.0583h-2.126c-0.40245 0-0.51977 0.14903-0.51977 0.51781v10.879c0 0.57469 0.46485 1.0395 1.0395 1.0395h24.91c0.57381 1e-6 1.0387-0.46574 1.0376-1.0395v-10.879c0-0.38976-0.13476-0.51977-0.51977-0.51977h-14.561c0-0.51977-0.26458-1.0564-1.0583-1.0564z" fill="#ffffff" fill-opacity=".976" style="paint-order:markers stroke fill"/>
 <path d="m16.934 12.171c-0.57654 0-0.76808 0.55851-1.0593 1.0583l-0.58965 1.0583h-13.449c-0.52144 0-0.52144 0.52144-0.52144 0.52144v13.775c0 0.51948 0.52144 0.51948 0.52144 0.51948h30.197c0.51948 0 0.51948-0.51948 0.51948-0.51948v-15.892c0-0.52144-0.51948-0.52144-0.51948-0.52144z" fill="#6ba4e7" stroke="#003579" stroke-opacity=".56078" stroke-width=".52916" style="paint-order:markers stroke fill"/>
 <path d="m16.934 12.171c-0.57654 0-0.76808 0.55851-1.0593 1.0583l-0.58965 1.0583h-13.449c-0.52144 0-0.52144 0.52144-0.52144 0.52144v13.775c0 0.51948 0.52144 0.51948 0.52144 0.51948h30.197c0.51948 0 0.51948-0.51948 0.51948-0.51948v-15.892c0-0.52144-0.51948-0.52144-0.51948-0.52144z" fill="#6ba4e7" style="paint-order:markers stroke fill"/>
 <path d="m32.551 22.856-6.2475 6.2481h5.7276c0.51948 0 0.51985-0.51934 0.51985-0.51934v-5.7287z" fill="url(#c-7)" opacity=".1" stroke-width=".26458"/>
</svg>
