<svg width="128" height="128" version="1.1" viewBox="0 0 33.866 33.866" xmlns="http://www.w3.org/2000/svg">
 <defs>
  <linearGradient id="c" x1="-197.1" x2="-196.91" y1="217.68" y2="219.37" gradientTransform="matrix(5.2589 -5.2589 5.2589 5.2589 1.0331 -2083.1)" gradientUnits="userSpaceOnUse">
   <stop offset="0"/>
   <stop stop-opacity="0" offset="1"/>
  </linearGradient>
 </defs>
 <path d="m7.1436 4.4978c-0.79373 0-1.0583 0.53658-1.0583 1.0583h-2.126c-0.40245 0-0.51977 0.14903-0.51977 0.51781v10.879c0 0.57469 0.46485 1.0395 1.0395 1.0395h24.91c0.57381 1e-6 1.0387-0.46574 1.0376-1.0395v-10.879c0-0.38976-0.13476-0.51977-0.51977-0.51977h-14.561c0-0.51977-0.26458-1.0564-1.0583-1.0564z" fill="#fff" fill-opacity=".976" stroke="#000" stroke-opacity=".268" stroke-width=".52916" style="paint-order:markers stroke fill"/>
 <path d="m7.1436 4.4978c-0.79373 0-1.0583 0.53658-1.0583 1.0583h-2.126c-0.40245 0-0.51977 0.14903-0.51977 0.51781v10.879c0 0.57469 0.46485 1.0395 1.0395 1.0395h24.91c0.57381 1e-6 1.0387-0.46574 1.0376-1.0395v-10.879c0-0.38976-0.13476-0.51977-0.51977-0.51977h-14.561c0-0.51977-0.26458-1.0564-1.0583-1.0564z" fill="#fff" fill-opacity=".976" style="paint-order:markers stroke fill"/>
 <path d="m16.934 8.2019c-0.57654 0-0.76808 0.55851-1.0593 1.0583l-0.58965 1.0583h-13.449c-0.52144 0-0.52144 0.52144-0.52144 0.52144v17.744c0 0.51948 0.52144 0.51948 0.52144 0.51948h30.197c0.51948 0 0.51948-0.51948 0.51948-0.51948v-19.861c0-0.52144-0.51948-0.52144-0.51948-0.52144z" fill="#6ba4e7" stroke="#003579" stroke-opacity=".56078" stroke-width=".52916" style="paint-order:markers stroke fill"/>
 <path d="m16.934 8.2019c-0.57654 0-0.76808 0.55851-1.0593 1.0583l-0.58965 1.0583h-13.449c-0.52144 0-0.52144 0.52144-0.52144 0.52144v17.744c0 0.51948 0.52144 0.51948 0.52144 0.51948h30.197c0.51948 0 0.51948-0.51948 0.51948-0.51948v-19.861c0-0.52144-0.51948-0.52144-0.51948-0.52144z" fill="#6ba4e7" style="paint-order:markers stroke fill"/>
 <path transform="scale(.26458)" d="m123.03 86.385-23.613 23.615h21.648c1.9634 0 1.9648-1.9629 1.9648-1.9629v-21.652z" fill="url(#c)" opacity=".1" stroke-width="3.7796" style="paint-order:stroke markers fill"/>
 <rect x="7.6728" y="5.5561" width="6.3499" height="1.0583" rx=".52916" ry=".53016" fill-opacity=".267" style="paint-order:markers stroke fill"/>
 <g transform="matrix(.26458 0 0 .26458 -1.2675e-6 -.26462)">
  <path d="m64 79.796c-2.8281 0-5.6265 1.4934-6.7791 2.7757l6.7791 7.4282 6.8449-7.3619c-1.1526-1.3487-4.0168-2.8421-6.8449-2.8421zm0-12.898c-5.9132 0-11.213 2.3748-15.568 6.0013l4.2385 4.5585c2.9004-2.0932 7.4138-4.1108 11.158-4.1108 3.8349 0 8.5633 2.0632 11.505 4.2501l4.3668-4.7647c-4.3546-3.6265-9.7873-5.9344-15.701-5.9344zm0-12.898c-9.131 0-17.499 3.5352-24 9.4245l4.1469 4.7057c5.7975-5.122 11.897-7.6812 19.853-7.6812 7.9566 0 13.87 2.4103 19.945 7.7849l4.0548-4.8094c-6.5014-5.8894-14.869-9.4245-24-9.4245z" color="#000000" opacity=".3"/>
 </g>
</svg>
