<svg width="128" height="128" version="1.1" viewBox="0 0 33.866 33.866" xmlns="http://www.w3.org/2000/svg">
 <defs>
  <linearGradient id="c" x1="-197.1" x2="-196.91" y1="217.68" y2="219.37" gradientTransform="matrix(5.2589 -5.2589 5.2589 5.2589 1.0331 -2083.1)" gradientUnits="userSpaceOnUse">
   <stop offset="0"/>
   <stop stop-opacity="0" offset="1"/>
  </linearGradient>
 </defs>
 <path d="m7.1436 4.4978c-0.79373 0-1.0583 0.53658-1.0583 1.0583h-2.126c-0.40245 0-0.51977 0.14903-0.51977 0.51781v10.879c0 0.57469 0.46485 1.0395 1.0395 1.0395h24.91c0.57381 1e-6 1.0387-0.46574 1.0376-1.0395v-10.879c0-0.38976-0.13476-0.51977-0.51977-0.51977h-14.561c0-0.51977-0.26458-1.0564-1.0583-1.0564z" fill="#fff" fill-opacity=".976" stroke="#000" stroke-opacity=".268" stroke-width=".52916" style="paint-order:markers stroke fill"/>
 <path d="m7.1436 4.4978c-0.79373 0-1.0583 0.53658-1.0583 1.0583h-2.126c-0.40245 0-0.51977 0.14903-0.51977 0.51781v10.879c0 0.57469 0.46485 1.0395 1.0395 1.0395h24.91c0.57381 1e-6 1.0387-0.46574 1.0376-1.0395v-10.879c0-0.38976-0.13476-0.51977-0.51977-0.51977h-14.561c0-0.51977-0.26458-1.0564-1.0583-1.0564z" fill="#fff" fill-opacity=".976" style="paint-order:markers stroke fill"/>
 <path d="m16.934 8.2019c-0.57654 0-0.76808 0.55851-1.0593 1.0583l-0.58965 1.0583h-13.449c-0.52144 0-0.52144 0.52144-0.52144 0.52144v17.744c0 0.51948 0.52144 0.51948 0.52144 0.51948h30.197c0.51948 0 0.51948-0.51948 0.51948-0.51948v-19.861c0-0.52144-0.51948-0.52144-0.51948-0.52144z" fill="#6ba4e7" stroke="#003579" stroke-opacity=".56078" stroke-width=".52916" style="paint-order:markers stroke fill"/>
 <path d="m16.934 8.2019c-0.57654 0-0.76808 0.55851-1.0593 1.0583l-0.58965 1.0583h-13.449c-0.52144 0-0.52144 0.52144-0.52144 0.52144v17.744c0 0.51948 0.52144 0.51948 0.52144 0.51948h30.197c0.51948 0 0.51948-0.51948 0.51948-0.51948v-19.861c0-0.52144-0.51948-0.52144-0.51948-0.52144z" fill="#6ba4e7" style="paint-order:markers stroke fill"/>
 <path transform="scale(.26458)" d="m123.03 86.385-23.613 23.615h21.648c1.9634 0 1.9648-1.9629 1.9648-1.9629v-21.652z" fill="url(#c)" opacity=".1" stroke-width="3.7796" style="paint-order:stroke markers fill"/>
 <rect x="7.6728" y="5.5561" width="6.3499" height="1.0583" rx=".52916" ry=".53016" fill-opacity=".267" style="paint-order:markers stroke fill"/>
 <path d="m16.933 14.069c-0.19223 0-0.3856 0.01554-0.57284 0.03501a5.445 5.445 0 0 0-1.0768 0.20836 5.5811 5.5811 0 0 0-3.6632 3.6632 5.445 5.445 0 0 0-0.20836 1.0768 5.5728 5.5728 0 0 0-0.03501 0.57284c0 0.19223 0.01554 0.3856 0.03501 0.57284a5.445 5.445 0 0 0 0.20836 1.0768 5.5811 5.5811 0 0 0 3.6632 3.6632 5.445 5.445 0 0 0 1.0768 0.20891c0.18724 0.0189 0.3806 0.03444 0.57284 0.03444 0.19223 0 0.3856-0.01554 0.57284-0.03501a5.445 5.445 0 0 0 1.0768-0.20779 5.6756 5.6756 0 0 0 1.0068-0.43449 5.5461 5.5461 0 0 0 2.6569-3.2292 5.445 5.445 0 0 0 0.2078-1.0768c0.01953-0.18724 0.03501-0.3806 0.03501-0.57284 0-0.19169-0.01554-0.38615-0.03501-0.57284a5.445 5.445 0 0 0-0.2078-1.0768 5.595 5.595 0 0 0-1.0246-1.8924c-0.11334-0.13724-0.23891-0.25614-0.36504-0.38226-0.50172-0.50172-1.0884-0.91732-1.7535-1.1979a5.7573 5.7573 0 0 0-0.52061-0.19058 5.445 5.445 0 0 0-1.0768-0.20836 5.7306 5.7306 0 0 0-0.57284-0.03501zm0 0.55561c0.84064 0 1.6313 0.20614 2.3269 0.57284 0.01827 0.01008 0.03333 0.02501 0.05168 0.03501 0.01449 0.01827 0.01008 0.03835 0.03501 0.05168 0.01785 0.0105 0.03501 0.0261 0.05168 0.03501 0.02944 0.01659 0.05834 0.04112 0.05223 0.06945-0.0078 0.04166-0.07556 0.03889-0.10391 0.06945 4e-3 0.05834-0.01995 0.04723-0.03501 0.08667 0.0094 0.02556 0.03112 0.02222 0.03501 0.05223-0.0055 0.03224-0.04723 0.03612-0.03501 0.06945 0.05445 0.04223 0.105 0.0071 0.15668 0 0.11279-0.01449 0.2078 0.0023 0.27781-0.05223-0.0078-0.04334 0.03333-0.05557 0.05168-0.08667 0.03723 0.0261 0.06833 0.06 0.10445 0.08667-0.0211 0.0094-0.06779 0.02278-0.08723 0.03501-0.02778 0.0189-0.03667 0.04834-0.0689 0.06945-0.02333 0.01617-0.08001 0.06945-0.10445 0.06945-0.02944 0-0.08335-0.02444-0.10445-0.01785-0.03001 0.0094-0.01785 0.05779-0.05168 0.06945-0.06668 0.02444-0.18501-0.06499-0.20836 0.03501 0.02778 0.05779 0.12279 0.03835 0.17336 0.06945 0.03167 0.01995 0.0789 0.12224 0.08723 0.15614a0.40726 0.40726 0 0 1 0 0.15668c-0.03167 0.08056-0.11556 0.07113-0.20891 0.06945-0.02501 0-0.04612 0.0023-0.0689 0-0.15668-0.0105-0.31114-0.06-0.38226 0.05168 5e-3 0.08612 0.01953 0.13335 0 0.20836-0.01386 0.05445-0.07222 0.09169-0.06945 0.13889 0.0012 0.02444 0.04612 0.07113 0.05223 0.10445 4e-3 0.01785-0.0084 0.05334 0 0.06945 0.0261 0.04945 0.09223-0.0084 0.13892 0 0.04446 0.0067 0.08667 0.07222 0.08667 0.12113a0.31726 0.31726 0 0 1-0.03501 0.13889c-0.04446 0.06668-0.12724 0.05057-0.19058 0.08723-0.05277 0.03001-0.07279 0.10334-0.10445 0.15614-0.03333 0.05668-0.06502 0.07556-0.05168 0.15614a0.37504 0.37504 0 0 1-0.19112 0.19114 0.54895 0.54895 0 0 0-0.08723 0.05223 0.44005 0.44005 0 0 0-0.0689 0.06945c-0.03555 0.03889-0.08501 0.05611-0.10445 0.08667-0.01449 0.02333-0.0023 0.07279-0.01722 0.10445-0.02222 0.04223-0.05888 0.0789-0.08723 0.12113-0.01281 0.02058-0.03778 0.04334-0.05168 0.06945-0.03224 0.05888-0.07556 0.105-0.06945 0.15668 5e-3 0.04946 0.06668 0.06056 0.06945 0.10391 0.0027 0.02444-0.01827 0.04334-0.01785 0.06945 0.0017 0.03889 0.01449 0.05668 0.01785 0.08667 0.0067 0.07501-0.03835 0.105-0.05223 0.15668-0.0071 0.0239 0.0055 0.05 0 0.0689-0.01218 0.03778-0.06833 0.06-0.06945 0.10445-0.0012 0.03112 0.04889 0.06 0.05223 0.10445 0.0023 0.03001-0.02333 0.05834-0.01785 0.08667 0.01113 0.05445 0.1139 0.13112 0.15668 0.17336 0.05722 0.05779 0.11334 0.09557 0.13889 0.15668 0.0211 0.05111 0.03001 0.13501 0.06945 0.17336 0.0289 0.02778 0.08389 0.04001 0.12113 0.06945 0.03555 0.02778 0.08446 0.04001 0.12224 0.06945 0.06111 0.04834 0.14446 0.14612 0.2428 0.1389 0.05111-4e-3 0.09834-0.02444 0.15614-0.03501 0.05945-0.01008 0.13058-0.04055 0.19114-0.03444 0.04612 5e-3 0.09001 0.03778 0.13889 0.03501 0.05-0.0034 0.11613-0.02722 0.17336-0.05223 0.1-0.04334 0.25392-0.12556 0.39949-0.10445 0.11113 0.01659 0.11334 0.14169 0.19112 0.19112 0.08889 0.0078 0.15502-0.01659 0.22558 0 0.05334 0.01344 0.11668 0.1139 0.12167 0.15614 5e-3 0.04334-0.0289 0.07724-0.03501 0.10445-0.01386 0.05834-0.02444 0.13612-0.03444 0.17336-0.0084 0.02944-0.01827 0.05779-0.01785 0.08723 0 0.0261 0.04223 0.08667 0.07001 0.12113 0.03335 0.04278 0.08112 0.07501 0.12113 0.12167 0.0739 0.08501 0.10502 0.20002 0.15668 0.31281 0.01281 0.02778-0.01218 0.03335 0 0.0689-0.02222 0.17002-0.08001 0.28114-0.19112 0.46894-0.05279 0.06111-0.10557 0.13278-0.10445 0.20836-4e-3 0.18169 0.095 0.27558 0.08723 0.45171-0.01827 0.23614 5.56e-4 0.27281-0.01785 0.39893 0.08001 0.04055 0.04055 0.15945 0.01785 0.24336-0.03444 0.1-0.06779 0.12445-0.08723 0.19112a0.22225 0.22225 0 0 0 0.12167 0.01722 4.9966 4.9966 0 0 1-3.6115 1.5279 4.9911 4.9911 0 0 1-1.8752-0.36449c-0.0017-0.0012 0.0017-0.01659 0-0.01785 0.05279-0.02222 0.1528 0.03889 0.19114-0.03444 0.0189-0.03555-0.02556-0.10334 0-0.13892 0.01785-0.02444 0.13612-0.04612 0.17336-0.05223 0.05389-0.0088 0.10891 0.0023 0.1389-0.01722a0.15835 0.15835 0 0 0 0.06945-0.13889c-0.0027-0.02944-0.0289-0.04334-0.05168-0.06945-0.01953-0.02222-0.0044-0.04945-0.01785-0.06945-0.0239-0.03555-0.05945-0.05277-0.06945-0.10445 0.07279-0.01386 0.17279 0.08167 0.27781 0.05223 0.05-0.01386 0.13335-0.10945 0.15668-0.15614 0.0067-0.01449-0.0084-0.06945 0-0.08667 0.0088-0.01953 0.03112-0.02501 0.03444-0.03501 0.0071-0.02722-0.0057-0.03501 0-0.05168 0.01827-0.05168 0.0739-0.08446 0.10445-0.12224 0.02278-0.02778 0.04777-0.05723 0.06945-0.08667 0.0239-0.03112 0.03555-0.04166 0.05168-0.0689 0.01554-0.09223-0.05668-0.16279-0.03444-0.24336 0.0239-0.09112 0.15557-0.15002 0.2428-0.19112 0.03055-0.01386 0.06168-0.04278 0.08723-0.05168 0.06056-0.02167 0.1339-0.01491 0.19058-0.03501 0.095-0.03444 0.12778-0.13889 0.1739-0.22558 0.02222-0.04055 0.04778-0.07501 0.05168-0.10445 0.0044-0.0261-5e-3 -0.05611 0-0.08667 0.0055-0.03001 0.0094-0.05334 0.01785-0.08667a0.88343 0.88343 0 0 0 0.01722-0.1739c0-0.04001-0.01659-0.05-0.01722-0.08667-0.0071-0.13112 0.03835-0.13669 0.08667-0.20836 0.02444-0.03555 0.03501-0.09612 0.05223-0.12167 0.08167-0.12113 0.21836-0.18058 0.20836-0.36448-4e-3 -0.06111-0.02501-0.18892-0.06945-0.20836-0.02556-0.01113-0.08446-0.0034-0.12167-0.01722-0.11945-0.04446-0.20557-0.18112-0.33003-0.19114-0.0261-0.0012-0.04001 0.0012-0.06945 0-0.04834-0.0012-0.10168-0.04612-0.15614-0.05223-0.03444-4e-3 -0.10112 0.01008-0.12167 0-0.03112-0.01491-0.02667-0.06945-0.05168-0.08667-0.02058-0.01449-0.05557-0.02333-0.08723-0.03501a0.41393 0.41393 0 0 0-0.13892-0.03444c-0.01785-0.0012-0.06668 0.0027-0.08667 0-0.03112-5e-3 -0.05779-0.03389-0.08667-0.05223-0.03667-0.02222-0.05445-0.03778-0.06945-0.06945 0.03333-0.10891-0.08224-0.12724-0.10445-0.19057-0.01008-0.02944 0.01008-0.07778 0-0.10445-0.01281-0.03723-0.045-0.05557-0.08667-0.08667-0.07222-0.05668-0.13891-0.10834-0.24336-0.12167-0.04612-5e-3 -0.1 4e-3 -0.15557 0a0.27058 0.27058 0 0 1-0.1739-0.08667c-0.04278-0.05-0.05-0.09834-0.08723-0.12167-0.03501-0.02222-0.09723-0.0289-0.12113-0.05223-0.01113-0.01008-0.0071-0.0289-0.01785-0.05168-0.01785-0.03667-0.05668-0.04278-0.03444-0.08723-0.04055-0.01995-0.0261 0.02556-0.06945 0.01785-0.03889-0.05557-0.06722-0.08667-0.15614-0.07001-0.04055 0.0084-0.07445 0.0689-0.12167 0.07001-0.03889 0.0012-0.07001-0.06279-0.12167-0.07001-0.03889-0.0044-0.09446 0.04112-0.12113 0.03501-0.04389-0.0078-0.04777-0.06056-0.08723-0.08667-0.0289-0.01953-0.08778-0.07056-0.10391-0.06945-0.05057 0.0012-0.08667 0.10668-0.15668 0.06945-0.03389-0.04334 0.05834-0.04666 0.01785-0.08723-0.03055-0.03001-0.04557 0.0017-0.06945 0.01785-0.02833 0.0189-0.05557 0.04112-0.08723 0.05168-0.06945 0.02667-0.1189 0.0239-0.17336 0.05223-0.05 0.02667-0.05779 0.07001-0.08667 0.12167-0.02333 0.04223-0.0689 0.10223-0.10445 0.10445-0.04223 0.0027-0.08335-0.05334-0.12113-0.07001-0.11668-0.05-0.18224 0.03389-0.27781 0.03501-0.08889 0.0012-0.2128-0.14169-0.20836-0.22558 0.0027-0.05168 0.02833-0.12778 0.03444-0.19112 5e-3 -0.05 0.05111-0.09223 0.05223-0.13892 0.0012-0.06111-0.09891-0.11445-0.13892-0.12167-0.095-0.01659-0.22225 0.04278-0.33004 0-0.01995-0.03444 0.04001-0.05334 0.05223-0.08667 0.0067-0.01953-0.0071-0.03112 0-0.05223 0.01218-0.03224 0.05389-0.05223 0.06945-0.08667 0.01113-0.02612 0.0061-0.07224 0.01722-0.10445 0.01323-0.03612 0.04889-0.06 0.05223-0.08667 4e-3 -0.03444-0.02501-0.08167-0.05223-0.10391a0.54117 0.54117 0 0 0-0.19114 0.03444c-0.10891 0.05-0.08056 0.19169-0.19058 0.22613-0.03778 0.01176-0.09668 0.02778-0.13889 0.03444a4.9505 4.9505 0 0 1 0.32948-1.0418c0.03889 0.0071 0.07113 0.03167 0.10445 0.03501 0.0928 0.0067 0.09668-0.0639 0.17336-0.10445 0.0789 0.01113 0.11945-0.0078 0.19114 0 0.04834 5e-3 0.11779 0.06668 0.15614 0.06945 0.03224 0.0012 0.03889-0.04 0.06945-0.03501 0.03055 0.0055 0.08167 0.06833 0.08723 0.10445 5e-3 0.04557-0.03056 0.08889-0.01785 0.13892 0.04777 0.04834 0.14057 0.07613 0.20836 0.10445 0.04446-0.03667 0.0071-0.12113 0-0.1739-0.0012-0.02333 0.0027-0.04834 0-0.06945-5e-3 -0.03612-0.01722-0.07279-0.01722-0.10445 0-0.14446 0.11113-0.20336 0.20836-0.26003 0.04166-0.02444 0.08501-0.0689 0.12167-0.08723 0.05111-0.02501 0.0789-0.02778 0.12113-0.05168 0.07724-0.04334 0.14891-0.08946 0.20836-0.13889 0.02778-0.06556-0.0027-0.14391 0-0.20836 0.02778-0.01722 0.04055 0.0027 0.06945 0 0.04668-0.01008 0.06111-0.07778 0.08723-0.10445 0.01491-0.01491 0.06833-0.01953 0.08667-0.03444 0.04666-0.03667 0.04666-0.08835 0.08667-0.10445 0.01449-5e-3 0.04723-0.01113 0.06945-0.01722 0.03055-0.0084 0.07333-0.03501 0.12167-0.05223 0.03112-0.01113 0.10945-0.0055 0.12168-0.01722 0.01491-0.01491-4e-3 -0.08112 0-0.10445 0.0239-0.1139 0.1928-0.11779 0.29503-0.15557 0.07056-0.02778 0.14669-0.08501 0.22558-0.07001-0.01491 0.05445-0.08224 0.03889-0.06945 0.10445 0.01722 0.09167 0.1239-0.02222 0.15668-0.03501 0.06111-0.0261 0.17947-0.04 0.26003-0.06945 0.07113-0.02501 0.18835-0.07445 0.12167-0.15614-0.05557-4e-3 -0.07279 0.04946-0.12167 0.06945-0.03335 5e-3 -0.04112-0.01554-0.06945-0.01722-0.02722-0.0012-0.04223 0.02222-0.06945 0.01722s-0.06502-0.05445-0.06945-0.08667c-0.01113-0.08501 0.08723-0.11113 0.12167-0.1739-0.02333-0.07667-0.12613-0.0044-0.19114-0.03444 0.0071-0.04557 0.03333-0.095 0.08723-0.10445a0.34337 0.34337 0 0 1 0.17335 0.03501c0.01491 0.01281-0.0055 0.04777 0.01722 0.06945 0.02667 0.02333 0.07001 5e-3 0.10445 0 0.01218-0.05779-0.07946-0.03224-0.06945-0.06945 0.06833-0.04446 0.19391-0.0239 0.27781-0.03501 0.04834-0.0067 0.09557-0.04612 0.13892-0.06945 0.04001-0.02333 0.0789-0.05557 0.12113-0.01722 0.01218 0.04166-0.0289 0.06556-0.05168 0.08667-0.07778 0.0689-0.1478 0.14612-0.20836 0.22614 0.03723 0.03612 0.09334 0.01008 0.15614 0.01659 0.02444 0.0034 0.06111 0.01386 0.08667 0.01785 0.03055 5e-3 0.06279-5e-3 0.08723 0 0.04223 0.01008 0.04446 0.06945 0.08667 0.06945 0.06833 0 0.0739-0.05779 0.03444-0.10445 0.01218-0.04723 0.03501-0.08778 0.01785-0.12113-0.03167-0.06279-0.15002 0.01008-0.15668-0.06945-4e-3 -0.05057 0.05168-0.06611 0.06945-0.10445-0.0078-0.09668 0.07946-0.1028 0.06945-0.19058-5e-3 -0.03667-0.04446-0.03555-0.06945-0.06945-0.01281-0.01827-0.01953-0.05668-0.03444-0.06945-0.05277-0.04446-0.15002-0.03723-0.15668-0.12224-0.0027-0.05 0.0071-0.0839 0-0.13889-0.0067-0.05111-0.05945-0.1978-0.10391-0.2078-0.05668-0.01218-0.08889 0.09001-0.15614 0.12113a0.27392 0.27392 0 0 1-0.13891 0.01785c-0.02444-0.0055-0.06668-0.02333-0.06945-0.06945-0.0027-0.02667 0.0055-0.03612 0.01722-0.05223 0.0027-4e-3 -0.0027-0.01344 0-0.01722a5.0394 5.0394 0 0 1 1.389-0.19112zm-2.0663 0.45171c-0.04889 0.15779-0.19169 0.2478-0.38171 0.2428-0.04666 0.04446-0.02722 0.12946-0.05223 0.19114a0.15335 0.15335 0 0 1-0.13889 0.08667c-0.03723-0.0027-0.10445-0.05168-0.10445-0.08667 0-0.0289 0.02778-0.06168 0.03501-0.08723a4.9583 4.9583 0 0 1 0.64229-0.34726zm4.2543 0.17336a0.15224 0.15224 0 0 0-0.05223 0.01722c-0.03889 0.02333-0.04055 0.05834-0.06945 0.06945-0.04166 0.01554-0.09834 0.01491-0.10445 0.05223-5e-3 0.03112 0.03612 0.04112 0.03501 0.06945-0.01554 0.03723-0.04446 0.04112-0.05223 0.08667 0.05168 0.0839 0.17947 0.0012 0.24336-0.01722 0.02778-0.0084 0.05389 0.0044 0.0689-0.01722 0.01722-0.02778 0.0044-0.08335 0.01785-0.12167 0.01386-0.04223 0.05722-0.03221 0.05168-0.06945-0.0034-0.03723-0.07612-0.07556-0.13889-0.06945zm-5.5045 0.64229c0.03723 0.04446 0.06833 0.11002 0 0.13889-0.01008 0.0055-0.13167 0.02222-0.15614 0.01785-0.0078-0.0012-0.01113-0.01281-0.01722-0.01785 0.05279-0.05168 0.11836-0.08946 0.17336-0.13889zm0.13892 0.1739c0.02444 0.0012 0.04112 0.05 0.06945 0.05168 0.02778 0.0027 0.07056-0.02222 0.08723-0.01659 0.04223 0.01113 0.05779 0.09001 0.01659 0.12113-0.03335 0.0038-0.04446-0.04-0.0689-0.03501-0.0689 0.01218-0.08778 0.14335-0.13889 0.13892-0.04889-5e-3 -0.08446-0.10334-0.03501-0.13892 0.0012-0.03001-0.01953-0.03889-0.01722-0.06945 0.01491-0.0189 0.04612-0.055 0.08667-0.05168zm-0.22558 0.03444c0.01449 0 0.01218-0.0055 0.01722 0-0.0067 0.05389-0.02778 0.06168-0.06945 0.08723a0.28447 0.28447 0 0 0-0.13889 0.19058c-0.0067 0.02778-0.08723 0.11113-0.12113 0.10445-0.08001-0.01722 0.03333-0.16779 0.05168-0.19114 0.02058-0.02556 0.04612-0.04112 0.06945-0.06945 0.02333-0.02778 0.03001-0.08778 0.05223-0.10445 0.02444-0.01659 0.09668-0.0189 0.13889-0.01659zm6.8413 0.13889c0.07946-5e-3 0.11945 0.09057 0.15557 0.13889 0.03055 0.03946 0.12445 0.09446 0.1739 0.12167 0.02833 0.01491 0.05557 0.03778 0.08723 0.05223 0.03278 0.01449 0.08224 0.03335 0.12113 0.06945 0.03889 0.03555 0.06833 0.08889 0.06945 0.12113 0.0012 0.03278-0.02222 0.05668-0.01722 0.08723 0.03501 0.0055 0.05334-0.03001 0.06945-0.06945 0.13112 0.18669 0.24225 0.38615 0.34726 0.59006a0.065562 0.065562 0 0 0-0.03501 0.05223c-0.01008 0.05668 0.03333 0.1289-0.05168 0.13889-0.05389 0.0071-0.11724-0.05334-0.19112-0.06945-0.03001-0.0071-0.08001 0.0078-0.10445 0-0.05557-0.01953-0.03889-0.08835-0.08667-0.12167a0.38893 0.38893 0 0 0-0.13892-0.05168c-0.02722-0.0034-0.04112 0.0034-0.06945 0-0.03444-0.0044-0.09334 0-0.12113-0.01785-0.02778-0.01659-0.09723-0.04612-0.10445-0.06945-0.01113-0.03723 0.08501-0.09001 0.08667-0.12113 0.0023-0.02444-0.02944-0.03335-0.03444-0.07001-0.0038-0.02222 5e-3 -0.055 0-0.0689-0.0071-0.02667-0.04555-0.05111-0.08723-0.05223-0.03612 0-0.07222 0.01722-0.10391 0.01722-0.04446 0.0012-0.13558-0.02222-0.19112-0.01722-0.03335 0.0027-0.05557 0.01491-0.08667 0.01722-0.08778 0.0071-0.13946-5e-3 -0.20836 0-0.05 0.0027-0.14446 0.03112-0.19112 0.05223-0.02333 0.01113-0.03889 0.03667-0.06945 0.05168-0.01386 0.0071-0.03335 0.0094-0.05168 0.01785-0.02833 0.01281-0.07724 0.04446-0.10445 0.05168-0.03889 0.0105-0.08446-0.0027-0.15614 0-0.05168 0.0034-0.1378-0.0078-0.13889-0.0689-0.0012-0.09446 0.1717-0.05334 0.26003-0.07001 0.03333-0.0067 0.04666-0.04612 0.08723-0.0689 0.0189-0.01113 0.03333-0.02279 0.05168-0.03501 0.03055-0.02111 0.08224-0.06279 0.08723-0.08667 4e-3 -0.02222-0.02058-0.05334-0.01785-0.06945 0.0044-0.0211 0.04223-0.04223 0.07001-0.06945 0.04223-0.04278 0.0689-0.09446 0.12113-0.12167 0.03555-0.01953 0.10557-0.0239 0.12167-0.05223 0.0038-0.03224-0.0012-0.04001 0-0.06945 0.02222-0.01995 0.01659-0.03055 0.03501-0.03444 0.05445-0.01218 0.10945 0.02058 0.17336 0.01722 0.02778-0.0012 0.05779 0.0023 0.08667-0.01722 0.02444-0.01659 0.04555-0.04001 0.06945-0.05223 0.02667-0.01449 0.05445-0.05 0.08723-0.05223zm-6.3729 0.05223c0.01386-0.0023 0.03612 0.0017 0.05279 0 0.02279-0.0012 0.04446 0 0.06945 0 0.02501 0 0.0589-0.01008 0.06945 0-0.01659 0.06668-0.17336 0.04166-0.22613 0.01722 0.0017-0.01218 0.02167-0.01491 0.03501-0.01722zm-0.19057 0.12167c0.01659 0 0.03389-0.0071 0.05223 0-0.04668 0.03889-0.11056 0.06111-0.19114 0.08667-0.03889 0.01218-0.09723 0.02501-0.10445-0.01722-0.0078-0.05277 0.03555-0.04723 0.06945-0.05223 0.04446-5e-3 0.12224-0.01659 0.1739-0.01722zm6.5807 0c-0.03335 0.01113-0.05 0.07778 0 0.08667 0.02333-0.01386 0.02333-0.04446 0.01722-0.08667-0.01323-0.01449-0.0071-0.0038-0.01722 0zm-0.01785 0.13892c-0.01617 5e-3 -0.03444-0.0012-0.05168 0.01722 0.0012 0.05668 0.01113 0.08889 0 0.13889 0.03224 0.06279 0.10557 0.02501 0.12113-0.01722 0.01953-0.10557-0.02058-0.15223-0.0689-0.13889zm0.43449 0.27781a0.14946 0.14946 0 0 0-0.10445 0.03444c0.03778 0.06111 0.10723 0.07222 0.19112 0.08723 0.03001-0.02222 0.02058-0.08335 0.03501-0.12224-0.03667 0-0.06 0.0027-0.10445 0h-0.01722zm-8.8204 2.1352c0.03555 0.04557 0.0739 0.09834 0.12113 0.12224 0.02556 0.01281 0.055 0.01008 0.08723 0.01659 0.0261 0.0055 0.04446 0.02722 0.06945 0.03501 0.05334 0.01827 0.13112 0.01554 0.17335 0.03501 0.06502 0.02778 0.10057 0.14112 0.15668 0.17336 0.0027 0.03224-0.0105 0.06279 0 0.08667 0.02612 0.03555 0.0789 0.04612 0.12113 0.06945 0.05168 0.02833 0.07335 0.09946 0.12167 0.12167 0.01659 0.0071 0.04334-0.0078 0.06945 0 0.06668 0.01995 0.08112 0.12113 0.13892 0.10445 0.03723-0.01113 0.04612-0.06833 0.05223-0.10445 0.02501-0.02778 0.04723-0.06945 0.08667-0.06945 0.06279-0.0012 0.08112 0.07778 0.10445 0.13889 0.01281 0.03444 0.04278 0.06779 0.05168 0.10445a0.91121 0.91121 0 0 1 0 0.27781c-0.01617 0.04612-0.08335 0.07056-0.12113 0.12113-0.01827 0.02444-0.03835 0.05334-0.05223 0.06945-0.02444 0.03055-0.05111 0.04223-0.06945 0.06945-0.01008 0.01554-0.0084 0.04834-0.01785 0.06945-0.03001 0.06502-0.07724 0.11334-0.05168 0.19114 0.01008 0.03112 0.05168 0.06668 0.05168 0.10445 0 0.04446-0.09668 0.05557-0.10391 0.10391-5e-3 0.03555 0.04112 0.10891 0.05223 0.15614 0.0078 0.03555 0.06556 0.0639 0.08669 0.08723 0.03555 0.03889 0.07222 0.08835 0.10446 0.13892 0.06334 0.0978 0.09334 0.21669 0.15557 0.31226 0.03335 0.05 0.1 0.08612 0.12224 0.13892 0.01113 0.0261-0.0105 0.08001 0 0.10445 0.03612 0.08167 0.2128 0.16779 0.29448 0.20779 0.03889 0.01953 0.06945 0.03224 0.10445 0.05223 0.05389 0.03055 0.1639 0.09169 0.19112 0.13889 0.02444 0.04278 0.04001 0.14057 0.05223 0.20836 0.01491 0.08889-0.0038 0.16445 0 0.26058 0.0027 0.05223 0.01722 0.08612 0.01722 0.13889 0 0.01827 0.0012 0.05111 0 0.06945-0.0012 0.06279 5e-3 0.12778 0 0.19112a0.72341 0.72341 0 0 0 0 0.10391c0.0027 0.03167 0.03278 0.04223 0.03501 0.06945 0.0023 0.02944-0.03835 0.0639-0.03501 0.08723 0.0071 0.06334 0.07445 0.11502 0.08667 0.17336 0.01008 0.04666 0.02333 0.1528 0.01785 0.20836-0.0044 0.02944-0.01344 0.07222-0.01785 0.10445-0.0027 0.02501 4e-3 0.04612 0 0.0689-1.384-0.88899-2.3091-2.4336-2.3091-4.2016 0-0.22669 0.02278-0.44116 0.05223-0.66007zm1.9096 0.50394c0.04889-0.02222 0.03944 0.06334 0 0.06945-0.03723 5e-3 -0.03612-0.05223 0-0.06945z" color="#000000" fill-opacity=".298" stroke-width=".26458"/>
</svg>
