<svg width="128" height="128" version="1.1" viewBox="0 0 33.866 33.866" xmlns="http://www.w3.org/2000/svg">
 <defs>
  <linearGradient id="c" x1="-197.1" x2="-196.91" y1="217.68" y2="219.37" gradientTransform="matrix(5.2589 -5.2589 5.2589 5.2589 1.0331 -2083.1)" gradientUnits="userSpaceOnUse">
   <stop offset="0"/>
   <stop stop-opacity="0" offset="1"/>
  </linearGradient>
 </defs>
 <path d="m7.1436 4.4978c-0.79373 0-1.0583 0.53658-1.0583 1.0583h-2.126c-0.40245 0-0.51977 0.14903-0.51977 0.51781v10.879c0 0.57469 0.46485 1.0395 1.0395 1.0395h24.91c0.57381 1e-6 1.0387-0.46574 1.0376-1.0395v-10.879c0-0.38976-0.13476-0.51977-0.51977-0.51977h-14.561c0-0.51977-0.26458-1.0564-1.0583-1.0564z" fill="#fff" fill-opacity=".976" stroke="#000" stroke-opacity=".268" stroke-width=".52916" style="paint-order:markers stroke fill"/>
 <path d="m7.1436 4.4978c-0.79373 0-1.0583 0.53658-1.0583 1.0583h-2.126c-0.40245 0-0.51977 0.14903-0.51977 0.51781v10.879c0 0.57469 0.46485 1.0395 1.0395 1.0395h24.91c0.57381 1e-6 1.0387-0.46574 1.0376-1.0395v-10.879c0-0.38976-0.13476-0.51977-0.51977-0.51977h-14.561c0-0.51977-0.26458-1.0564-1.0583-1.0564z" fill="#fff" fill-opacity=".976" style="paint-order:markers stroke fill"/>
 <path d="m16.934 8.2019c-0.57654 0-0.76808 0.55851-1.0593 1.0583l-0.58965 1.0583h-13.449c-0.52144 0-0.52144 0.52144-0.52144 0.52144v17.744c0 0.51948 0.52144 0.51948 0.52144 0.51948h30.197c0.51948 0 0.51948-0.51948 0.51948-0.51948v-19.861c0-0.52144-0.51948-0.52144-0.51948-0.52144z" fill="#6ba4e7" stroke="#003579" stroke-opacity=".56078" stroke-width=".52916" style="paint-order:markers stroke fill"/>
 <path d="m16.934 8.2019c-0.57654 0-0.76808 0.55851-1.0593 1.0583l-0.58965 1.0583h-13.449c-0.52144 0-0.52144 0.52144-0.52144 0.52144v17.744c0 0.51948 0.52144 0.51948 0.52144 0.51948h30.197c0.51948 0 0.51948-0.51948 0.51948-0.51948v-19.861c0-0.52144-0.51948-0.52144-0.51948-0.52144z" fill="#6ba4e7" style="paint-order:markers stroke fill"/>
 <path transform="scale(.26458)" d="m123.03 86.385-23.613 23.615h21.648c1.9634 0 1.9648-1.9629 1.9648-1.9629v-21.652z" fill="url(#c)" opacity=".1" stroke-width="3.7796" style="paint-order:stroke markers fill"/>
 <rect x="7.6728" y="5.5561" width="6.3499" height="1.0583" rx=".52916" ry=".53016" fill-opacity=".267" style="paint-order:markers stroke fill"/>
 <g transform="matrix(.26458 0 0 .26458 3.2e-7 .78596)">
  <path d="m79.326 93.098-15.323-8.0683-15.323 8.0707 5.1026-15.358-13.283-11.262h16.348l7.1522-16.381 7.1522 16.381h16.348l-13.283 11.262z" fill="none" opacity=".3" stroke="#000" stroke-linecap="round" stroke-linejoin="round"/>
  <path d="m64 51.352-6.6934 15.328a0.50005 0.50005 0 0 1-0.45898 0.30078h-14.984l12.242 10.381a0.50005 0.50005 0 0 1 0.15234 0.53906l-4.7129 14.18 14.225-7.4922a0.50005 0.50005 0 0 1 0.4668 0l14.223 7.4902-4.7168-14.178a0.50005 0.50005 0 0 1 0.15234-0.53906l12.242-10.381h-14.984a0.50005 0.50005 0 0 1-0.45898-0.30078z" opacity=".15"/>
 </g>
</svg>
