<svg width="128" height="128" version="1.1" viewBox="0 0 33.866 33.866" xmlns="http://www.w3.org/2000/svg">
 <g transform="matrix(.26458 0 0 .26458 -134.67 -171.98)">
  <g id="dcdnmc" transform="translate(509,10)">
   <g transform="translate(0,640)">
    <rect width="128" height="128" fill="none"/>
   </g>
  </g>
  <g transform="matrix(1.3197 0 0 1.2314 -183.17 -149.72)">
   <rect transform="translate(7.216e-6 -.0002448)" x="535.86" y="655.92" width="74.261" height="91.762" rx="1" ry="1" fill="#636a78"/>
  </g>
  <rect x="523.5" y="657.5" width="99" height="114" rx="2" ry="2" fill="none" stroke="#272a2f" stroke-opacity=".78431"/>
  <g>
   <rect x="527.5" y="662.5" width="91" height="16" rx="1" ry="1" fill-opacity=".15686" stroke="#484e57"/>
   <g fill-opacity=".29592">
    <rect x="531" y="666" width="1" height="9" ry="0"/>
    <rect x="534" y="666" width="1" height="9" ry="0"/>
    <rect transform="scale(1,-1)" x="537" y="-675" width="1" height="9" ry="0"/>
    <rect x="540" y="666" width="1" height="9" ry="0"/>
    <rect x="543" y="666" width="1" height="9" ry="0"/>
    <rect x="546" y="666" width="1" height="9" ry="0"/>
   </g>
   <rect transform="rotate(90)" x="668" y="-588" width="5" height="33" ry="0" fill-opacity=".17647"/>
   <ellipse cx="608.5" cy="670.5" rx=".50001" ry=".49999" fill-opacity=".29592"/>
  </g>
  <g fill="#6ba4e7">
   <ellipse cx="595.5" cy="670.5" rx=".50001" ry=".49999"/>
   <ellipse cx="599.5" cy="670.5" rx=".50001" ry=".49999"/>
   <ellipse cx="604.5" cy="670.5" rx=".50001" ry=".49999"/>
  </g>
  <g transform="translate(0,22)">
   <g>
    <rect x="527.5" y="662.5" width="91" height="16" rx="1" ry="1" fill-opacity=".15686" stroke="#484e57"/>
    <g fill-opacity=".29592">
     <rect x="531" y="666" width="1" height="9" ry="0"/>
     <rect x="534" y="666" width="1" height="9" ry="0"/>
     <rect transform="scale(1,-1)" x="537" y="-675" width="1" height="9" ry="0"/>
     <rect x="540" y="666" width="1" height="9" ry="0"/>
     <rect x="543" y="666" width="1" height="9" ry="0"/>
     <rect x="546" y="666" width="1" height="9" ry="0"/>
    </g>
    <rect transform="rotate(90)" x="668" y="-588" width="5" height="33" ry="0" fill-opacity=".17647"/>
    <ellipse cx="608.5" cy="670.5" rx=".50001" ry=".49999" fill-opacity=".29592"/>
   </g>
   <g fill="#6ba4e7">
    <ellipse cx="595.5" cy="670.5" rx=".50001" ry=".49999"/>
    <ellipse cx="599.5" cy="670.5" rx=".50001" ry=".49999"/>
    <ellipse cx="604.5" cy="670.5" rx=".50001" ry=".49999"/>
   </g>
  </g>
  <g transform="translate(0,44)">
   <g>
    <rect x="527.5" y="662.5" width="91" height="16" rx="1" ry="1" fill-opacity=".15686" stroke="#484e57"/>
    <g fill-opacity=".29592">
     <rect x="531" y="666" width="1" height="9" ry="0"/>
     <rect x="534" y="666" width="1" height="9" ry="0"/>
     <rect transform="scale(1,-1)" x="537" y="-675" width="1" height="9" ry="0"/>
     <rect x="540" y="666" width="1" height="9" ry="0"/>
     <rect x="543" y="666" width="1" height="9" ry="0"/>
     <rect x="546" y="666" width="1" height="9" ry="0"/>
    </g>
    <rect transform="rotate(90)" x="668" y="-588" width="5" height="33" ry="0" fill-opacity=".17647"/>
    <ellipse cx="608.5" cy="670.5" rx=".50001" ry=".49999" fill-opacity=".29592"/>
   </g>
   <g fill="#6ba4e7">
    <ellipse cx="595.5" cy="670.5" rx=".50001" ry=".49999"/>
    <ellipse cx="599.5" cy="670.5" rx=".50001" ry=".49999"/>
    <ellipse cx="604.5" cy="670.5" rx=".50001" ry=".49999"/>
   </g>
  </g>
  <g transform="translate(0,66)">
   <g>
    <rect x="527.5" y="662.5" width="91" height="16" rx="1" ry="1" fill-opacity=".15686" stroke="#484e57"/>
    <g fill-opacity=".29592">
     <rect x="531" y="666" width="1" height="9" ry="0"/>
     <rect x="534" y="666" width="1" height="9" ry="0"/>
     <rect transform="scale(1,-1)" x="537" y="-675" width="1" height="9" ry="0"/>
     <rect x="540" y="666" width="1" height="9" ry="0"/>
     <rect x="543" y="666" width="1" height="9" ry="0"/>
     <rect x="546" y="666" width="1" height="9" ry="0"/>
    </g>
    <rect transform="rotate(90)" x="668" y="-588" width="5" height="33" ry="0" fill-opacity=".17647"/>
    <ellipse cx="608.5" cy="670.5" rx=".50001" ry=".49999" fill-opacity=".29592"/>
   </g>
   <g fill="#6ba4e7">
    <ellipse cx="595.5" cy="670.5" rx=".50001" ry=".49999"/>
    <ellipse cx="599.5" cy="670.5" rx=".50001" ry=".49999"/>
    <ellipse cx="604.5" cy="670.5" rx=".50001" ry=".49999"/>
   </g>
  </g>
  <g transform="translate(0,88)">
   <g>
    <rect x="527.5" y="662.5" width="91" height="16" rx="1" ry="1" fill-opacity=".15686" stroke="#484e57"/>
    <g fill-opacity=".29592">
     <rect x="531" y="666" width="1" height="9" ry="0"/>
     <rect x="534" y="666" width="1" height="9" ry="0"/>
     <rect transform="scale(1,-1)" x="537" y="-675" width="1" height="9" ry="0"/>
     <rect x="540" y="666" width="1" height="9" ry="0"/>
     <rect x="543" y="666" width="1" height="9" ry="0"/>
     <rect x="546" y="666" width="1" height="9" ry="0"/>
    </g>
    <rect transform="rotate(90)" x="668" y="-588" width="5" height="33" ry="0" fill-opacity=".17647"/>
    <ellipse cx="608.5" cy="671.5" rx=".50001" ry=".49999" fill-opacity=".29592"/>
   </g>
   <g fill="#6ba4e7">
    <ellipse cx="595.5" cy="671.5" rx=".50001" ry=".49999"/>
    <ellipse cx="599.5" cy="671.5" rx=".50001" ry=".49999"/>
    <ellipse cx="604.5" cy="671.5" rx=".50001" ry=".49999"/>
   </g>
  </g>
 </g>
</svg>
