<svg width="128" height="128" version="1.1" viewBox="0 0 33.866 33.866" xmlns="http://www.w3.org/2000/svg">
 <g transform="matrix(.26458 0 0 .26458 -266.69 -171.98)">
  <g transform="translate(1008,650)">
   <path d="m24 11.5h80c2.216 0 3.2494 1.915 4 4l3.6 9.9999c0.7506 2.085-1.784 4-4 4h-87.2c-2.216 0-4.7506-1.915-4-4l3.6-9.9999c0.7506-2.085 1.784-4 4-4z" fill="#636a78" stroke="#272a2f" stroke-opacity=".78431"/>
   <path d="m104 12-12.6 86.084c-0.31409 2.1459-1.784 3.9129-4 3.9129h-46.8c-2.216 0-3.6859-1.767-4-3.9129l-12.6-86.084z" opacity=".3"/>
   <path d="m111.6 27.5-8.6 85.13c-0.21559 2.1341-1.784 3.8696-4 3.8696h-70c-2.216 0-3.7844-1.7355-4-3.8696l-8.6-85.13z" fill="#636a78" stroke="#272a2f" stroke-opacity=".78431"/>
   <path d="m47.623 83.282c-0.5118 0.9192-0.91918 2.3022-0.91918 3.1737 0 0.2023 0 0.45962 0.0502 0.81658l-6.3969-11.001c-0.20476-0.35696-0.35726-0.86908-0.35726-1.3305 0-0.462 0.1526-1.0236 0.35726-1.3812l3.071-5.3732-3.4282-1.9429 11.156-0.20652 5.4233 9.7729-3.4784-1.9954zm4.9137-32.209c0.97146-1.6904 2.5592-2.6114 4.5021-2.6114 2.0995 0 3.7374 0.97352 4.9136 2.9665l1.7402 2.9164-6.0397 11.642-9.7729-6.8808zm0.71444 41.061c-2.9164 0-5.321-2.4049-5.321-5.3213 0-0.81896 0.35932-2.2019 0.87114-3.071l1.6358-2.9164h12.129v11.309h-9.3153zm9.7249-41.37c-0.76678-1.3287-1.7904-2.2521-3.0188-2.7642h12.587c1.126 0 1.9951 0.462 2.509 1.3328l3.1212 5.3213 3.3763-1.9972-5.4258 9.7245-11.102-0.1564 3.4283-1.9429zm19.396 30.164c1.5334 0 2.814-0.40944 3.8879-1.2266l-6.3467 11.051c-0.51182 0.86906-1.4316 1.417-2.5052 1.3812h-5.9895v3.9401l-5.7305-9.5682 5.7305-9.5706v3.9926h10.954zm4.9094-9.2112c0.4617 0.81896 0.71864 1.688 0.71864 2.6096 0 1.8426-1.1783 3.7873-2.814 4.7065-0.76876 0.41188-1.8466 0.73182-2.9164 0.66852h-3.3802l-6.0358-10.441 9.7732-5.578z" fill="#fff"/>
  </g>
  <g id="dcdcn" transform="translate(1008,650)">
   <rect width="128" height="128" fill="none"/>
  </g>
 </g>
</svg>
