<svg width="64" height="64" viewBox="0 0 16.933 16.933" xmlns="http://www.w3.org/2000/svg"><defs><filter id="a" x="-.048" y="-.048" width="1.095" height="1.097" color-interpolation-filters="sRGB"><feGaussianBlur stdDeviation=".304"/></filter></defs><g stroke-linecap="round" stroke-linejoin="round"><path d="M3.44 1.058c-.733 0-1.236.353-1.313 1.082L.794 14.704c-.077.729.59 1.436 1.323 1.436h12.7c.732 0 1.4-.707 1.322-1.436L14.806 2.14c-.076-.729-.58-1.082-1.312-1.082H8.467z" filter="url(#a)" opacity=".2"/><path d="M3.44.794c-.733 0-1.236.352-1.313 1.081L.794 14.44c-.077.73.59 1.436 1.323 1.436h12.7c.732 0 1.4-.707 1.322-1.436L14.806 1.875c-.076-.729-.58-1.081-1.312-1.081H8.467z" fill="#d6dee0"/><rect x=".793" y="13.228" width="15.346" height="2.646" rx="1.323" ry="1.323" fill="#a1acaf"/></g><g stroke-linecap="round" stroke-linejoin="round"><path d="M2.117 13.494c-.587 0-1.059.472-1.059 1.058s.472 1.059 1.059 1.059h12.7c.586 0 1.058-.472 1.058-1.059s-.472-1.058-1.058-1.058zm0 .132h12.7c.513 0 .926.413.926.926s-.413.926-.926.926h-12.7c-.513 0-.926-.413-.926-.926s.413-.926.926-.926z"/><circle cx="14.816" cy="14.551" r=".306" fill="#333"/><circle cx="14.816" cy="14.551" r=".265" fill="#62d346"/><path d="M3.44.794c-.733 0-1.236.352-1.313 1.081L.794 14.44c-.009.082-.008.164.001.244L2.127 2.136c.077-.729.58-1.081 1.313-1.081h10.054c.732 0 1.235.352 1.312 1.081l1.332 12.547c.009-.08.01-.162.001-.244L14.806 1.875c-.077-.729-.58-1.081-1.312-1.081H3.44z" fill="#fff" opacity=".35"/></g></svg>