<svg width="64" height="64" viewBox="0 0 16.933 16.933" xmlns="http://www.w3.org/2000/svg"><defs><filter id="a" x="-.022" y="-.095" width="1.044" height="1.189" color-interpolation-filters="sRGB"><feGaussianBlur stdDeviation=".283"/></filter><filter id="c" x="-.036" y="-.145" width="1.073" height="1.291" color-interpolation-filters="sRGB"><feGaussianBlur stdDeviation="1.006"/></filter><linearGradient id="b" x1="-17.94" x2="-17.94" y1="351.1" y2="361.98" gradientTransform="matrix(.18197 0 0 .0851 19.129 264.03)" gradientUnits="userSpaceOnUse"><stop stop-color="#4c4c4c" offset="0"/><stop stop-color="#828282" offset="1"/></linearGradient></defs><g transform="matrix(.40412 0 0 .44895 2.036 -117.752)" stroke-width="2.348"><path d="M2.15 289.98c-.534.092-.522.959-.464 1.824.02 1.123.08 2.426.18 3.595.055.972.652 1.758 1.46 1.758H30.54c.81 0 1.406-.786 1.46-1.758.1-1.169.16-2.472.18-3.595.059-.865.071-1.731-.463-1.824H4.291z" filter="url(#a)" opacity=".5"/><path d="M2.15 289.45c-.534.092-.522.959-.464 1.824.02 1.123.08 2.426.18 3.595.055.972.652 1.757 1.46 1.757H30.54c.81 0 1.406-.785 1.46-1.757.1-1.169.16-2.472.18-3.595.059-.865.071-1.732-.463-1.824H4.291z" fill="#d9dcde"/><path d="M5.458 263.5c-.308 0-.574.05-.79.158-.352.13-.5.375-.602.773l-2.427 25.716a1.214 1.214 0 0 0 .177.76 1.391 1.391 0 0 0 .275.324 1.527 1.527 0 0 0 .363.236c.2.093.422.145.65.145h27.659c.533 0 1.03-.283 1.287-.706a1.285 1.285 0 0 0 .158-.394c.024-.117.032-.239.02-.365l-2.427-25.716c-.101-.398-.25-.643-.602-.773-.216-.108-.483-.159-.79-.158l-11.475.019z" fill="#bec4c6"/><path d="M6.04 264.03c-.6.004-1.305.092-1.457.722l-1.835 20.042a.798.798 0 0 0 .076.444.95.95 0 0 0 .135.207l.015.017.036.04.02.02.036.034.02.017c.01.01.021.02.032.028l.01.007.01.01.03.021.014.01.031.022a1.01 1.01 0 0 0 .07.044l.036.02.035.02.038.018.037.018.015.007.042.018.01.003.008.004.07.025c.026.008.053.017.08.024l.025.007.056.014.03.006.054.01.028.006.06.008.026.003a1.399 1.399 0 0 0 .174.008H29.76a2.545 2.545 0 0 0 .174-.008l.026-.003.06-.008.028-.005a.684.684 0 0 0 .083-.017.95.95 0 0 0 .058-.014l.024-.006a1.483 1.483 0 0 0 .15-.05l.008-.003.012-.005a.767.767 0 0 0 .04-.017l.015-.007.037-.017.036-.018.037-.02.037-.021.032-.02.036-.023.031-.022.015-.01.029-.022.011-.01.01-.006.032-.028.02-.018c.012-.01.024-.022.035-.034l.02-.02a1.06 1.06 0 0 0 .046-.05l.005-.005a1.051 1.051 0 0 0 .135-.208.835.835 0 0 0 .077-.444l-1.836-20.043c-.173-.72-1.07-.731-1.706-.72l-10.643.014-10.643-.015-.25-.002z" fill="#f2f2f2"/><rect x="5.251" y="293.78" width="23.365" height="1" ry=".5" fill="url(#b)"/></g><g stroke-width="9.216"><path transform="matrix(.10828 0 0 .12029 1.948 .489)" d="M32.182 114.43c7.558 10.09 19.61 16.619 33.188 16.619 13.577 0 25.629-6.529 33.188-16.619z" filter="url(#c)" opacity=".35"/><path d="M5.605 14.144c.803 1.114 2.037 1.829 3.422 1.829 1.385 0 2.619-.715 3.422-1.829z" fill="#e6e6e6"/><path d="M5.742 14.144c.785 1.045 1.965 1.71 3.285 1.71s2.5-.665 3.284-1.71z" fill="#ccc"/></g></svg>