<svg width="64" height="64" viewBox="0 0 16.933 16.933" xmlns="http://www.w3.org/2000/svg"><defs><filter id="a" x="-.045" y="-.03" width="1.09" height="1.06" color-interpolation-filters="sRGB"><feGaussianBlur stdDeviation=".416"/></filter></defs><g transform="matrix(.49367 0 0 .49515 .107 -130.21)" stroke-width="2.023"><rect x="5.793" y="263.5" width="22.28" height="33.13" ry="2.132" filter="url(#a)" opacity=".25"/><rect x="5.793" y="263.5" width="22.28" height="33.13" ry="2.132" fill="#ccc"/><path d="M16.933 280.67a7.425 7.441 0 0 0-7.425 7.441 7.425 7.441 0 0 0 7.425 7.442 7.425 7.441 0 0 0 7.425-7.442 7.425 7.441 0 0 0-7.425-7.441zm.018.32a.329.33 0 0 1 .329.33.329.33 0 0 1-.329.33.329.33 0 0 1-.328-.33.329.33 0 0 1 .328-.33zm-.018 3.406a3.707 3.716 0 0 1 3.707 3.715 3.707 3.716 0 0 1-3.707 3.716 3.707 3.716 0 0 1-3.707-3.716 3.707 3.716 0 0 1 3.707-3.715zm-6.649 3.477a.329.33 0 0 1 .329.33.329.33 0 0 1-.329.328.329.33 0 0 1-.328-.329.329.33 0 0 1 .328-.329zm13.298 0a.329.33 0 0 1 .329.33.329.33 0 0 1-.329.328.329.33 0 0 1-.328-.329.329.33 0 0 1 .328-.329zm-6.63 6.7a.329.33 0 0 1 .328.33.329.33 0 0 1-.329.329.329.33 0 0 1-.328-.33.329.33 0 0 1 .328-.329z" fill="#333"/><rect x="8.243" y="265.06" width="17.38" height="13.311" ry=".912" fill="#333"/></g></svg>