<svg width="64" height="64" xmlns="http://www.w3.org/2000/svg"><defs><radialGradient id="a" cx="199.22" cy="60.978" r="62.148" gradientTransform="matrix(.49549 0 0 2.4566 -66.708 -122.5)" gradientUnits="userSpaceOnUse"><stop stop-color="#e6e6e8" offset="0"/><stop stop-color="#cbccce" offset="1"/></radialGradient><linearGradient id="b" x1="33" x2="24" y1="21" y2="12" gradientTransform="translate(377.71 494.8) scale(1.2857)" gradientUnits="userSpaceOnUse"><stop stop-color="#ee6406" offset="0"/><stop stop-color="#ffce0d" offset="1"/></linearGradient></defs><path d="M39.617 52.606c-.043 1.784-.463 3.77 2.424 5.464 2.305 1.41-1.279 1.507-2.169 1.507h-15.74c-.89 0-4.473-.096-2.169-1.507 2.888-1.693 2.468-3.68 2.424-5.464z" fill="#b3b3b3"/><rect x="1.569" y="2.846" width="60.865" height="50.113" rx="2.772" fill="url(#a)"/><rect x="1.569" y="2.846" width="60.865" height="50.113" rx="2.772" fill="#dddee0"/><path d="M4.34 2.846c-1.535 0-2.772 1.217-2.772 2.73v36.476h60.865V5.575c0-1.512-1.236-2.73-2.772-2.73z" fill="#080808"/><path d="M4.096 4.57h55.572v35.35H4.096z" fill="#1c92f4"/><path d="M34.091 48.221a2.76 2.76 0 0 1-.279.493 2.515 2.515 0 0 1-.358.427.701.701 0 0 1-.462.2c-.118 0-.26-.033-.426-.1a1.239 1.239 0 0 0-.458-.1c-.147 0-.304.033-.472.1a1.285 1.285 0 0 1-.407.105c-.158.007-.315-.061-.472-.205a2.641 2.641 0 0 1-.375-.442 3.04 3.04 0 0 1-.397-.776 2.803 2.803 0 0 1-.167-.925c0-.342.075-.637.225-.884a1.311 1.311 0 0 1 1.11-.647c.126 0 .29.038.494.113.203.075.334.113.391.113.043 0 .188-.044.434-.133.233-.083.43-.117.59-.103.436.034.764.203.981.508-.39.233-.582.558-.579.976.004.326.124.597.36.812.106.1.226.177.358.232-.028.082-.059.16-.091.236zm-1-3.873c0 .255-.094.493-.283.713-.228.262-.503.414-.802.39a.764.764 0 0 1-.006-.097c0-.245.108-.507.3-.721.097-.108.219-.199.367-.27.148-.072.287-.11.419-.118a.898.898 0 0 1 .005.103z" fill="#1e1f28"/><path d="M4.096 4.569V39.92h55.572V4.569zm.27.244h55.078v34.885H4.367z" fill-opacity=".212"/><path d="M4.34 2.966c-1.535 0-2.772 1.217-2.772 2.73V42.05h60.865V5.695c0-1.512-1.236-2.73-2.772-2.73zm-.244 2.567h55.572v34.388H4.096z" fill="#080808"/><path d="M32 14c-4.986 0-9 4.014-9 9s4.014 9 9 9 9-4.014 9-9-4.014-9-9-9zm0 1a8 8 0 0 1 8 8 8 8 0 0 1-8 8 8 8 0 0 1-8-8 8 8 0 0 1 8-8z" fill="#fff" fill-opacity=".453" opacity=".85"/><path d="M408.57 512.8v1a8 8 0 0 1 8 8h1c0-4.986-4.014-9-9-9z" fill="url(#b)" opacity=".85" transform="translate(-376.57 -498.8)"/><g transform="translate(-376.57 -500.8)"><rect x="405.62" y="520.8" width="5.909" height="6" rx="2.954" ry="3" opacity=".8"/><path d="m410.34 523.8-2.954-1.8v3.6z" fill="#fff" fill-rule="evenodd"/></g></svg>