<svg width="22" height="22" version="1.1" xmlns="http://www.w3.org/2000/svg">
 <defs>
  <style id="current-color-scheme" type="text/css">.ColorScheme-Text { color:#d3dae3; } .ColorScheme-Highlight { color:#5294e2; }</style>
 </defs>
 <path class="ColorScheme-Text" d="m10.5 3c-3.047 0-5.5 2.676-5.5 6v4c0 3.324 2.453 6 5.5 6s5.5-2.676 5.5-6v-4c0-3.324-2.453-6-5.5-6zm-0.5 2h0.5c0.208 0 0.393 0.133 0.469 0.313l2.875 2.843 0.406 0.375-0.438 0.344-2.562 2.125 2.562 2.125 0.438 0.344-0.406 0.375-2.875 2.844c-0.026 0.06-0.08 0.11-0.125 0.156a0.484 0.484 0 0 1-0.344 0.156h-0.5v-4.937l-2.156 1.78a0.485 0.485 0 0 1-0.344 0.157h-0.5v-0.5c0-0.153 0.079-0.283 0.187-0.375l2.563-2.125-2.438-2.031c-0.046-0.02-0.086-0.062-0.125-0.094a0.494 0.494 0 0 1-0.187-0.375v-0.5h0.5c0.123 0 0.225 0.051 0.312 0.125l0.032 0.031 2.156 1.782zm1 1.688v3.25l1.781-1.47zm0 5.375v3.25l1.781-1.782z" fill="currentColor"/>
</svg>
