<svg width="22" height="22" version="1.1" xmlns="http://www.w3.org/2000/svg">
 <defs>
  <style id="current-color-scheme" type="text/css">.ColorScheme-Text { color:#d3dae3; } .ColorScheme-Highlight { color:#5294e2; }</style>
 </defs>
 <path class="ColorScheme-Text" d="m9.5 4a4.501 4.501 0 0 0-4.5 4.5v6c0 2.484 2.016 4.5 4.5 4.5h2c2.484 0 4.5-2.016 4.5-4.5v-6c0-2.484-2.016-4.5-4.5-4.5zm0 1h0.5v4h-4v-0.5c0-1.948 1.553-3.5 3.5-3.5zm1.5 0h0.5c1.948 0 3.5 1.552 3.5 3.5v0.5h-4zm-5 5h9v4.5c0 1.948-1.552 3.5-3.5 3.5h-2a3.481 3.481 0 0 1-3.5-3.5z" fill="currentColor"/>
</svg>
