<?xml version="1.0" encoding="UTF-8" standalone="no"?>
<svg
   xmlns:dc="http://purl.org/dc/elements/1.1/"
   xmlns:cc="http://creativecommons.org/ns#"
   xmlns:rdf="http://www.w3.org/1999/02/22-rdf-syntax-ns#"
   xmlns:svg="http://www.w3.org/2000/svg"
   xmlns="http://www.w3.org/2000/svg"
   xmlns:sodipodi="http://sodipodi.sourceforge.net/DTD/sodipodi-0.dtd"
   xmlns:inkscape="http://www.inkscape.org/namespaces/inkscape"
   viewBox="0 0 22 22"
   version="1.1"
   id="svg4"
   sodipodi:docname="applications-other.svg"
   inkscape:version="0.92.2 (5c3e80d, 2017-08-06)">
  <metadata
     id="metadata10">
    <rdf:RDF>
      <cc:Work
         rdf:about="">
        <dc:format>image/svg+xml</dc:format>
        <dc:type
           rdf:resource="http://purl.org/dc/dcmitype/StillImage" />
        <dc:title />
      </cc:Work>
    </rdf:RDF>
  </metadata>
  <defs
     id="defs8" />
  <sodipodi:namedview
     pagecolor="#ffffff"
     bordercolor="#666666"
     borderopacity="1"
     objecttolerance="10"
     gridtolerance="10"
     guidetolerance="10"
     inkscape:pageopacity="0"
     inkscape:pageshadow="2"
     inkscape:window-width="1360"
     inkscape:window-height="718"
     id="namedview6"
     showgrid="true"
     inkscape:zoom="21.454546"
     inkscape:cx="5.7579505"
     inkscape:cy="7.3103185"
     inkscape:window-x="0"
     inkscape:window-y="24"
     inkscape:window-maximized="1"
     inkscape:current-layer="svg4">
    <inkscape:grid
       type="xygrid"
       id="grid4506" />
  </sodipodi:namedview>
  <path
     style="fill:#e5ecef;stroke:none;stroke-width:1px;stroke-linecap:butt;stroke-linejoin:miter;stroke-opacity:1;fill-opacity:1"
     d="M 4 9 L 1 12 L 2 13 L 5 10 L 5 18 L 18 18 L 18 10 L 21 13 L 22 12 L 19 9 L 18 9 L 17 9 L 6 9 L 5 9 L 4 9 z "
     id="path818" />
  <path
     style="fill:#e5ecef;fill-opacity:0.59770113;stroke:none;stroke-width:1px;stroke-linecap:butt;stroke-linejoin:miter;stroke-opacity:1"
     d="M 12.859375 3 L 12.859375 4.2089844 A 3.2264514 3.2264514 0 0 0 12.585938 4.3125 L 11.738281 3.4648438 L 10.324219 4.8789062 L 10.445312 5 L 10.132812 5.3125 A 3.2264514 3.2264514 0 0 0 9.859375 5.2089844 L 9.859375 4 L 7.859375 4 L 7.859375 5.2089844 A 3.2264514 3.2264514 0 0 0 7.5859375 5.3125 L 6.7382812 4.4648438 L 5.3242188 5.8789062 L 6.0820312 6.6367188 A 3.2264514 3.2264514 0 0 0 5.8984375 7 L 4.859375 7 L 4.859375 8 L 17 8 L 17.859375 8 L 17.859375 6 L 16.822266 6 A 3.2264514 3.2264514 0 0 0 16.638672 5.6347656 L 17.394531 4.8789062 L 15.980469 3.4648438 L 15.132812 4.3125 A 3.2264514 3.2264514 0 0 0 14.859375 4.2089844 L 14.859375 3 L 12.859375 3 z "
     id="path828" />
</svg>
