<svg xmlns="http://www.w3.org/2000/svg" xmlns:xlink="http://www.w3.org/1999/xlink" width="32" height="32"><defs><linearGradient y2="27.727" x2="69.312" y1="21.319" x1="69.312" gradientTransform="matrix(.19811 0 0 .23067 -32.626 24.95)" gradientUnits="userSpaceOnUse" id="b" xlink:href="#a"/><linearGradient id="a"><stop offset="0"/><stop offset="1" stop-opacity="0"/></linearGradient></defs><path style="marker:none" d="M16 1.498C7.998 1.498 1.498 7.998 1.498 16S7.998 30.502 16 30.502 30.502 24.002 30.502 16 24.002 1.498 16 1.498z" color="#000" overflow="visible" opacity=".99" fill="#5294e2"/><path style="marker:none" d="M16 1.5C8 1.5 1.5 8 1.5 16S8 30.5 16 30.5 30.5 24 30.5 16 24 1.5 16 1.5z" color="#000" overflow="visible" opacity=".35" fill="none" stroke="#00217a" stroke-linecap="round" stroke-linejoin="round"/><path fill="none" d="M-37.285 7.371h32v32h-32z"/><path style="line-height:100%;-inkscape-font-specification:'URW Palladio L Bold';text-align:start" d="M11.981 15.788c.192.52.407.94.865.365.569-.339 2.473-1.82 2.283-.369-.61 2.687-1.352 5.346-1.92 8.04-.593 1.476.754 2.811 2.161 1.852 1.496-.617 2.783-1.621 4.098-2.542-.18-.44-.3-1.072-.795-.497-.65.295-2.072 1.688-2.337.54.547-2.91 1.56-5.712 2.208-8.598.595-1.327-.378-3.004-1.834-1.906-1.746.76-3.205 2.002-4.729 3.115zm6.477-9.786c-1.78-.094-2.711 2.776-1.02 3.562 1.374.563 2.868-.845 2.533-2.252-.104-.733-.762-1.334-1.513-1.31z" font-weight="700" font-size="40" font-family="URW Palladio L" fill="#fff"/><path style="line-height:100%;-inkscape-font-specification:'URW Palladio L Bold';text-align:start" d="M-18.188 30.095c-.404.324-.793.78-1.306.823" font-weight="700" font-size="40" font-family="URW Palladio L" opacity=".1" fill="none" stroke="url(#b)"/></svg>