<svg xmlns="http://www.w3.org/2000/svg" xmlns:xlink="http://www.w3.org/1999/xlink" width="32" height="32"><defs><linearGradient y2="-5.497" x2="44.424" y1="60.535" x1="44.424" gradientTransform="translate(-6.723 1.226) scale(.50174)" gradientUnits="userSpaceOnUse" id="b" xlink:href="#a"/><linearGradient id="a"><stop offset="0" stop-color="#634215"/><stop offset="1" stop-color="#93700d"/></linearGradient></defs><path fill="none" d="M0 0h32v32H0z"/><path d="M30.298 26.643L17.711 3.5c-.361-.643-1.016-1-1.745-1-.73 0-1.387.429-1.754 1.071L1.719 26.714c-.294.572-.298 1.357.064 1.929.362.571.944.857 1.674.857h25.08c.728 0 1.386-.357 1.68-.929.367-.571.37-1.285.081-1.928z" fill="#fac848"/><path style="line-height:125%;text-align:start;marker:none" d="M14.416 9.516c.375 3.666.805 7.307 1.125 10.987h1.02c.265-3.534.692-7.047 1-10.578.158-.835-.272-1.828-1.154-2.03-.873-.256-1.847.376-1.963 1.278-.02.113-.028.228-.028.343zm-.111 14.905c-.04 1.092 1.161 1.947 2.186 1.601.993-.253 1.516-1.501 1.007-2.389-.455-.917-1.791-1.219-2.56-.517-.388.32-.646.796-.633 1.305z" color="#000" font-weight="400" font-size="62.458" font-family="Georgia" overflow="visible" fill="url(#b)" transform="translate(.004)"/><path style="marker:none" d="M30.298 26.643L17.711 3.5c-.361-.643-1.016-1-1.745-1-.73 0-1.387.429-1.754 1.071L1.719 26.714c-.294.572-.298 1.357.064 1.929.362.571.944.857 1.674.857h25.08c.728 0 1.386-.357 1.68-.929.367-.571.37-1.285.081-1.928z" color="#000" overflow="visible" opacity=".3" fill="none" stroke="#311d00"/></svg>