<svg xmlns="http://www.w3.org/2000/svg" width="32" height="32"><path style="marker:none" d="M16 1.498C7.998 1.498 1.498 7.998 1.498 16S7.998 30.502 16 30.502 30.502 24.002 30.502 16 24.002 1.498 16 1.498z" color="#000" overflow="visible" opacity=".99" fill="#5294e2"/><path style="marker:none" d="M16 1.5C8 1.5 1.5 8 1.5 16S8 30.5 16 30.5 30.5 24 30.5 16 24 1.5 16 1.5z" color="#000" overflow="visible" opacity=".35" fill="none" stroke="#00217a" stroke-linecap="round" stroke-linejoin="round"/><path d="M16.683 19.873c-.05-1.77.347-3.487 2.018-4.703 1.765-1.376 3.466-3.097 3.286-5.126-.04-1.957-2.32-3.49-4.776-3.711-2.763-.383-6.106.564-7.032 2.722-.47 1.05-.034 2.932 1.542 2.932.921 0 1.345-.595 1.414-1.14.053-.412-.116-.78-.216-1.12-.114-.388.372-1.14.901-1.446.443-.256.906-.342.974-.359 1.588-.381 3.172.462 3.833 1.488.66 1.027-.067 2.584-1.112 4.098-1.046 1.514-2.168 3.233-2.164 5.06 0 .695-.062.931-.018 1.212.036.225.78.198 1.35.093zm-.725 2.38c-1.52-.082-2.57 1.64-1.658 2.737.815 1.212 3.1.913 3.491-.459.408-1.067-.572-2.295-1.833-2.277z" font-weight="700" font-size="72" font-family="Standard Symbols L" fill="#fff"/></svg>