<svg xmlns="http://www.w3.org/2000/svg" width="32" height="32"><path style="marker:none" d="M16 1.498C7.998 1.498 1.498 7.998 1.498 16S7.998 30.502 16 30.502 30.502 24.002 30.502 16 24.002 1.498 16 1.498z" color="#000" overflow="visible" opacity=".99" fill="#f46062"/><path style="marker:none" d="M16 1.5C8 1.5 1.5 8 1.5 16S8 30.5 16 30.5 30.5 24 30.5 16 24 1.5 16 1.5z" color="#000" overflow="visible" opacity=".35" fill="none" stroke="#7a0000" stroke-linecap="round" stroke-linejoin="round"/><path d="M16 6a2 2 0 0 0-2 2c0 2 .667 6.667 1.333 12h1.334C17.333 14.667 18 10 18 8a2 2 0 0 0-2-2zm0 16a2 2 0 1 0 0 4 2 2 0 0 0 0-4z" fill="#fff"/></svg>