<svg xmlns="http://www.w3.org/2000/svg" xmlns:xlink="http://www.w3.org/1999/xlink" width="32" height="32"><defs><linearGradient id="c"><stop offset="0" stop-color="#fff"/><stop offset=".508" stop-color="#fff" stop-opacity=".235"/><stop offset=".835" stop-color="#fff" stop-opacity=".157"/><stop offset="1" stop-color="#fff" stop-opacity=".392"/></linearGradient><linearGradient id="a"><stop offset="0" stop-color="#3d3d3d"/><stop offset=".5" stop-color="#686868" stop-opacity=".498"/><stop offset="1" stop-color="#686868" stop-opacity="0"/></linearGradient><linearGradient id="e"><stop offset="0" stop-color="#2d2d2d"/><stop offset="1" stop-color="#3f3f3f"/></linearGradient><linearGradient id="b"><stop offset="0" stop-color="#fafafa"/><stop offset="1" stop-color="#d4d4d4"/></linearGradient><linearGradient id="d"><stop offset="0" stop-color="#fafafa"/><stop offset="1" stop-color="#abacae"/></linearGradient><linearGradient xlink:href="#e" id="f" gradientUnits="userSpaceOnUse" gradientTransform="matrix(1 0 0 1.0909 60 -2.182)" x1="24" y1="14" x2="24" y2="33"/><clipPath clipPathUnits="userSpaceOnUse" id="g"><path d="M32 24a8 8 0 1 1-16 0 8 8 0 1 1 16 0z" opacity=".2"/></clipPath></defs><path d="M16 2C8.268 2 2 8.268 2 16s6.268 14 14 14 14-6.268 14-14S23.732 2 16 2z" fill="#ececec"/><path style="marker:none" d="M16 1.5C8 1.5 1.5 8 1.5 16S8 30.5 16 30.5 30.5 24 30.5 16 24 1.5 16 1.5z" color="#000" overflow="visible" opacity=".5" fill="none" stroke="#555761" stroke-linecap="round" stroke-linejoin="round"/><path d="M16 27C9.925 27 5 22.075 5 16S9.925 5 16 5s11 4.925 11 11-4.925 11-11 11z" fill="#ccc"/><path style="marker:none" overflow="visible" d="M16.25 11a2.75 2.75 0 0 0-2.75 2.75c0 1.14.683 2.112 1.67 2.53L13.5 22H19l-1.67-5.72A2.735 2.735 0 0 0 19 13.75 2.75 2.75 0 0 0 16.25 11z" color="#000" fill="#4d4d4d" stroke-width="1.091"/><path style="marker:none" overflow="visible" d="M16 10.695a2.83 2.83 0 0 0-2.83 2.83c0 1.172.703 2.172 1.72 2.601l-1.72 5.886h5.66l-1.718-5.886a2.814 2.814 0 0 0 1.717-2.602A2.83 2.83 0 0 0 16 10.695z" color="#000" fill="none" stroke-width="1.06"/><path transform="translate(-17 -17) scale(1.375)" d="M32 24a8 8 0 1 1-16 0 8 8 0 1 1 16 0z" clip-path="url(#g)" opacity=".2" fill="none" stroke="#555761" stroke-width="1.455"/><path d="M16.25 11.5A2.25 2.25 0 0 0 14 13.75a2.25 2.25 0 0 0 1.818 2.207l-1.64 5.543h4.16l-1.654-5.545A2.25 2.25 0 0 0 18.5 13.75a2.25 2.25 0 0 0-2.25-2.25z" style="marker:none" fill="none" stroke="#3e3e3e"/></svg>