<svg width="32" height="32" version="1.0" xmlns="http://www.w3.org/2000/svg">
 <path d="m1 4 30 2e-3v23.998h-30z" fill="#fff"/>
 <path d="m29.5 26.5h-27v-21h27z" fill="#3b3b3b" stroke="#1d1d1d" stroke-linecap="round"/>
 <path d="M.5 3.5l31 .002V28.5H.5v-25z" fill="none" stroke="#000" stroke-linejoin="round" stroke-opacity=".318"/>
 <g fill="#e0574c">
  <path d="M16 10.011c3.305 0 6 2.71 6 6.003 0 3.291-2.695 5.975-6 5.975s-6-2.684-6-5.975c0-3.292 2.695-6.003 6-6.003zm0 1.73a4.27 4.27 0 0 0-4.29 4.273c0 2.368 1.912 4.245 4.29 4.245s4.29-1.877 4.29-4.245A4.27 4.27 0 0 0 16 11.74z" overflow="visible" style="text-indent:0;text-transform:none"/>
  <path d="m13.177 11.973 6.85 6.85-1.204 1.204-6.85-6.85z" overflow="visible" style="text-indent:0;text-transform:none"/>
 </g>
</svg>
