<svg xmlns="http://www.w3.org/2000/svg" width="32" height="32"><path fill="none" d="M0 0h32v32H0z"/><path d="M16.437 12.667h-.666l-.667 4.666L18.438 20v-.667l-2-2.666z" opacity=".3" fill="#fff" fill-rule="evenodd"/><path d="M16 9c-4.416 0-8 3.584-8 8s3.584 8 8 8 8-3.584 8-8-3.584-8-8-8zm0 2c3.312 0 6 2.688 6 6s-2.688 6-6 6-6-2.688-6-6 2.688-6 6-6zM9 2v2h5V2zm9 0v2h5V2zM1 10v5h2v-5zm28 0v5h2v-5zM1 19v5h2v-5zm28 0v5h2v-5zM9 30v2h5v-2zm9 0v2h5v-2z" opacity=".3" fill="#fff" fill-rule="evenodd"/><path d="M27.333 31C30 31 30 31 30 28.333m0-22.667C30 3 30 3 27.333 3M2 28.333C2 31 2 31 4.667 31m0-28C2 3 2 3 2 5.666" opacity=".3" fill="none" stroke="#fff" stroke-width="2"/><path d="M16.437 11.666h-.666l-.667 4.667L18.438 19v-.667l-2-2.667z" opacity=".5" fill-rule="evenodd"/><path d="M16 8c-4.416 0-8 3.584-8 8s3.584 8 8 8 8-3.584 8-8-3.584-8-8-8zm0 2c3.312 0 6 2.688 6 6s-2.688 6-6 6-6-2.688-6-6 2.688-6 6-6zM9 1v2h5V1zm9 0v2h5V1zM1 9v5h2V9zm28 0v5h2V9zM1 18v5h2v-5zm28 0v5h2v-5zM9 29v2h5v-2zm9 0v2h5v-2z" opacity=".5" fill-rule="evenodd"/><path d="M27.333 30C30 30 30 30 30 27.333m0-22.667C30 2 30 2 27.333 2M2 27.333C2 30 2 30 4.667 30m0-28C2 2 2 2 2 4.666" opacity=".5" fill="none" stroke="#000" stroke-width="2"/></svg>