<svg xmlns="http://www.w3.org/2000/svg" width="32" height="32"><path fill="none" d="M0 0h32v32H0z"/><path d="M4 4c-1.108 0-2 .892-2 2v18c0 1.108.892 2 2 2h4l2 2h12l2-2h4c1.108 0 2-.892 2-2V6c0-1.108-.892-2-2-2H6z" fill="#f2f2f2"/><path d="M6 8v14h4l2 2h8l2-2h4V8z" fill="#4c5263"/><path style="line-height:normal;text-indent:0;text-align:start;text-decoration-line:none;text-decoration-style:solid;text-decoration-color:#000;text-transform:none;white-space:normal;isolation:auto;mix-blend-mode:normal;solid-color:#000;solid-opacity:1" d="M4 3C2.355 3 1 4.355 1 6v18c0 1.645 1.355 3 3 3H7.586l1.707 1.707A1 1 0 0 0 10 29h12a1 1 0 0 0 .707-.293L24.414 27H28c1.645 0 3-1.355 3-3V6c0-1.645-1.355-3-3-3H6zm0 1h24c1.108 0 2 .892 2 2v18c0 1.108-.892 2-2 2h-4l-2 2H10l-2-2H4c-1.108 0-2-.892-2-2V6c0-1.108.892-2 2-2z" color="#000" font-weight="400" font-family="sans-serif" overflow="visible" fill="#4f6698" fill-opacity=".267"/><path fill="none" d="M0 0h32v32H0z"/><path d="M32 24a6 6 0 0 1-6 6 6 6 0 0 1-6-6 6 6 0 0 1 6-6 6 6 0 0 1 6 6z" fill="#a4aab9"/><g fill="#fff"><path style="line-height:normal;-inkscape-font-specification:'Andale Mono';text-indent:0;text-align:start;text-decoration-line:none;text-transform:none;marker:none" d="M23.001 21h.774a.78.78 0 0 1 .515.234l1.711 1.711 1.735-1.71c.199-.173.335-.23.515-.235h.75v.75c0 .215-.025.413-.187.563l-1.711 1.71 1.687 1.688c.142.141.211.34.211.54V27h-.75a.761.761 0 0 1-.539-.212l-1.71-1.71-1.712 1.71a.76.76 0 0 1-.539.211h-.75v-.75a.76.76 0 0 1 .211-.539l1.711-1.688-1.71-1.71A.681.681 0 0 1 23 21.75z" color="#bebebe" font-weight="400" font-family="Andale Mono" overflow="visible"/></g></svg>