<svg width="32" height="32" version="1.1" xmlns="http://www.w3.org/2000/svg">
 <defs>
  <style id="current-color-scheme" type="text/css">.ColorScheme-Text { color:#dedede; } .ColorScheme-Highlight { color:#4285f4; }</style>
 </defs>
 <path d="m16 4c-4.4448 0-8 3.8515-8 8.498 0 3.2778 1.5169 5.0641 2.791 6.3418 1.2741 1.2777 2.209 2.0083 2.209 4.1602v1h6v-1c0-2.152 0.93491-2.8825 2.209-4.1602 1.2741-1.2777 2.791-3.064 2.791-6.3418 0-4.6466-3.5552-8.498-8-8.498zm0 1c3.8659 0 7 3.3559 7 7.498 0 5.9999-5 5.5278-5 10.502h-4c0-4.9739-5-4.502-5-10.502 0-4.1422 3.1341-7.498 7-7.498zm-3 20v1h6v-1zm1 2v1h4v-1z" class="ColorScheme-Text" fill="currentColor"/>
</svg>
