<svg xmlns="http://www.w3.org/2000/svg" width="32" height="32"><path style="marker:none" d="M16.002 1.496C8 1.496 1.5 7.996 1.5 15.998S8 30.5 16.002 30.5c8.001 0 14.502-6.5 14.502-14.502 0-8.001-6.5-14.502-14.502-14.502z" color="#000" overflow="visible" opacity=".99" fill="#4da2f3" fill-opacity=".992"/><path style="isolation:auto;mix-blend-mode:normal;solid-color:#000;solid-opacity:1;marker:none" d="M16.002 1.498c-8 0-14.5 6.5-14.5 14.5s6.5 14.5 14.5 14.5 14.5-6.5 14.5-14.5-6.5-14.5-14.5-14.5z" color="#000" overflow="visible" opacity=".5" fill="none" stroke="#002e99" stroke-linecap="round" stroke-linejoin="round"/><path style="marker:none" d="M16 6.5v2.429a7.286 7.286 0 1 0 7.286 7.285h-2.429A4.857 4.857 0 1 1 16 11.357v2.429l6.071-3.643L16 6.5z" color="#bebebe" overflow="visible" fill="#fff"/></svg>