<svg xmlns="http://www.w3.org/2000/svg" width="32" height="32"><g transform="translate(0 -1090.52)"><circle cx="16" cy="1106.52" r="15" fill="#66bb6a"/><circle r="14.423" cy="-1106.52" cx="16" transform="scale(1 -1)" fill="#81c784"/><g fill="#fff" stroke-width="2" stroke-linecap="round" stroke-linejoin="round"><path d="M14.52 1107.02a.5.5 0 0 1 .48.5v2h7c.277 0 .5.223.5.5v2c0 .276-.223.5-.5.5h-7v2a.5.5 0 0 1-.806.394l-4.5-3.5a.5.5 0 0 1 0-.79l4.5-3.499a.503.503 0 0 1 .326-.105zM17.48 1098.02a.5.5 0 0 0-.48.5v2h-7c-.277 0-.5.223-.5.5v2c0 .277.223.5.5.5h7v2a.5.5 0 0 0 .806.394l4.5-3.5a.5.5 0 0 0 0-.789l-4.5-3.5a.503.503 0 0 0-.326-.105z"/></g></g></svg>