<svg width="32" height="32" version="1.1" viewBox="0 0 32 32" xmlns="http://www.w3.org/2000/svg">
 <defs>
  <style id="current-color-scheme" type="text/css">.ColorScheme-Text {
        color:#4d4d4d;
      }
      .ColorScheme-Background {
        color:#eff0f1;
      }
      .ColorScheme-Highlight {
        color:#3daee9;
      }
      .ColorScheme-ViewText {
        color:#31363b;
      }
      .ColorScheme-ViewBackground {
        color:#fcfcfc;
      }
      .ColorScheme-ViewHover {
        color:#93cee9;
      }
      .ColorScheme-ViewFocus{
        color:#3daee9;
      }
      .ColorScheme-ButtonText {
        color:#31363b;
      }
      .ColorScheme-ButtonBackground {
        color:#eff0f1;
      }
      .ColorScheme-ButtonHover {
        color:#93cee9;
      }
      .ColorScheme-ButtonFocus{
        color:#3daee9;
      }</style>
  <style type="text/css">.ColorScheme-Text {
        color:#4d4d4d;
      }
      .ColorScheme-Background {
        color:#eff0f1;
      }
      .ColorScheme-Highlight {
        color:#3daee9;
      }
      .ColorScheme-ViewText {
        color:#31363b;
      }
      .ColorScheme-ViewBackground {
        color:#fcfcfc;
      }
      .ColorScheme-ViewHover {
        color:#93cee9;
      }
      .ColorScheme-ViewFocus{
        color:#3daee9;
      }
      .ColorScheme-ButtonText {
        color:#31363b;
      }
      .ColorScheme-ButtonBackground {
        color:#eff0f1;
      }
      .ColorScheme-ButtonHover {
        color:#93cee9;
      }
      .ColorScheme-ButtonFocus{
        color:#3daee9;
      }</style>
 </defs>
 <g transform="translate(0 -1020.4)">
  <path transform="translate(0 1020.4)" d="m16 3a13 13 0 0 0-13 13 13 13 0 0 0 13 13 13 13 0 0 0 13-13 13 13 0 0 0-13-13z" fill="#90a4ae"/>
  <path d="m4 1036.4a12 12 0 0 1 12-12 12 12 0 0 1 12 12 12 12 0 0 1-12 12 12 12 0 0 1-12-12z" fill="#eceff1"/>
  <g fill="#d1d9dd">
   <circle cx="11.5" cy="1030.9" r="1.5"/>
   <circle cx="20.5" cy="1038.9" r="2.5"/>
   <circle cx="11.5" cy="1037.9" r="2.5"/>
   <circle cx="14.5" cy="1042.9" r="1.5"/>
   <circle cx="18.5" cy="1029.9" r=".5"/>
  </g>
 </g>
</svg>
