<svg width="32" height="32" version="1.1" viewBox="0 0 32 32" xmlns="http://www.w3.org/2000/svg">
 <defs>
  <style id="current-color-scheme" type="text/css">.ColorScheme-Text {
        color:#4d4d4d;
      }
      .ColorScheme-Background {
        color:#eff0f1;
      }
      .ColorScheme-Highlight {
        color:#3daee9;
      }
      .ColorScheme-ViewText {
        color:#31363b;
      }
      .ColorScheme-ViewBackground {
        color:#fcfcfc;
      }
      .ColorScheme-ViewHover {
        color:#93cee9;
      }
      .ColorScheme-ViewFocus{
        color:#3daee9;
      }
      .ColorScheme-ButtonText {
        color:#31363b;
      }
      .ColorScheme-ButtonBackground {
        color:#eff0f1;
      }
      .ColorScheme-ButtonHover {
        color:#93cee9;
      }
      .ColorScheme-ButtonFocus{
        color:#3daee9;
      }</style>
  <style type="text/css">.ColorScheme-Text {
        color:#4d4d4d;
      }
      .ColorScheme-Background {
        color:#eff0f1;
      }
      .ColorScheme-Highlight {
        color:#3daee9;
      }
      .ColorScheme-ViewText {
        color:#31363b;
      }
      .ColorScheme-ViewBackground {
        color:#fcfcfc;
      }
      .ColorScheme-ViewHover {
        color:#93cee9;
      }
      .ColorScheme-ViewFocus{
        color:#3daee9;
      }
      .ColorScheme-ButtonText {
        color:#31363b;
      }
      .ColorScheme-ButtonBackground {
        color:#eff0f1;
      }
      .ColorScheme-ButtonHover {
        color:#93cee9;
      }
      .ColorScheme-ButtonFocus{
        color:#3daee9;
      }</style>
 </defs>
 <g transform="translate(0 -1020.4)">
  <path d="m13 1029.4v16h9c4.4183 0 8-3.5817 8-8s-3.5817-8-8-8z" fill="#bdbdbd"/>
  <circle cx="13" cy="1034.4" r="11" fill="#bdbdbd"/>
  <path d="m13 1030.4v14h9a7 7 0 0 0 7-7 7 7 0 0 0-7-7z" fill="#f5f5f5"/>
  <circle cx="13" cy="1034.4" r="10" fill="#f5f5f5"/>
  <rect x="16" y="1046.4" width="2" height="4" ry="1" fill="#2196f3"/>
  <path d="m20.773 1026.6-0.70703 0.707a10 10 0 0 1 2.9336 7.0664 10 10 0 0 1-2.6094 6.7188l0.74023 0.6718a11 11 0 0 0 2.8691-7.3906 11 11 0 0 0-3.2266-7.7734z" fill="#bdbdbd"/>
 </g>
</svg>
