<?xml version="1.0" encoding="UTF-8"?>
<svg height="16px" viewBox="0 0 16 16" width="16px" xmlns="http://www.w3.org/2000/svg">
    <path d="m 3.335938 1.003906 c -0.4375 0.03125 -0.859376 0.175782 -1.222657 0.417969 c -1.152343 0.765625 -1.460937 2.320313 -0.691406 3.46875 l 4.15625 -2.777344 c -0.496094 -0.746093 -1.351563 -1.164062 -2.242187 -1.109375 z m 8 0 c -0.773438 0.054688 -1.484376 0.460938 -1.914063 1.109375 l 4.15625 2.777344 c 0.769531 -1.148437 0.460937 -2.703125 -0.691406 -3.46875 c -0.457031 -0.304687 -1 -0.453125 -1.550781 -0.417969 z m -3.835938 1.996094 c -3.578125 0 -6.5 2.925781 -6.5 6.5 c 0 1.6875 0.652344 3.230469 1.710938 4.386719 l -0.410157 0.398437 c -0.394531 0.386719 -0.402343 1.019532 -0.015625 1.414063 c 0.382813 0.394531 1.015625 0.40625 1.414063 0.019531 l 0.589843 -0.574219 c 0.945313 0.542969 2.042969 0.855469 3.210938 0.855469 c 1.1875 0 2.296875 -0.320312 3.257812 -0.882812 l 0.503907 0.554687 c 0.371093 0.410156 1 0.441406 1.410156 0.070313 c 0.410156 -0.371094 0.4375 -1.003907 0.070313 -1.410157 l -0.425782 -0.472656 c 1.042969 -1.15625 1.683594 -2.683594 1.683594 -4.359375 c 0 -3.574219 -2.921875 -6.5 -6.5 -6.5 z m 0 2 c 2.496094 0 4.5 2.003906 4.5 4.5 c 0 2.5 -2.003906 4.5 -4.5 4.5 s -4.5 -2 -4.5 -4.5 c 0 -2.496094 2.003906 -4.5 4.5 -4.5 z m 0 1 c -0.277344 0 -0.5 0.226562 -0.5 0.5 v 2.5 h -1.5 c -0.277344 0 -0.5 0.226562 -0.5 0.5 c 0 0.277344 0.222656 0.5 0.5 0.5 h 2 c 0.277344 0 0.5 -0.222656 0.5 -0.5 v -3 c 0 -0.273438 -0.222656 -0.5 -0.5 -0.5 z m 0 0" fill="#2e3436"/>
</svg>
