<?xml version="1.0" encoding="UTF-8"?>
<svg height="16px" viewBox="0 0 16 16" width="16px" xmlns="http://www.w3.org/2000/svg">
    <g fill="#2e3436">
        <path d="m 5.003906 2 c 0.554688 0 1 0.445312 1 1 v 3 c 0 0.554688 -0.445312 1 -1 1 h -0.710937 c 0.671875 2.265625 2.445312 4.042969 4.710937 4.710938 v -0.710938 c 0 -0.554688 0.449219 -1 1 -1 h 3 c 0.554688 0 1 0.445312 1 1 v 1.5 c 0 1.378906 -1.117187 2.5 -2.5 2.5 h -0.5 c -5.503906 0 -10 -4.496094 -10 -10 v -0.5 c 0 -1.378906 1.121094 -2.5 2.5 -2.5 z m 0 0"/>
        <path d="m 15 7 c 0.550781 0 1 -0.449219 1 -1 v -6 h -6 c -0.550781 0 -1 0.449219 -1 1 s 0.449219 1 1 1 h 2.585938 l -4.292969 4.292969 c -0.390625 0.390625 -0.390625 1.023437 0 1.414062 c 0.1875 0.1875 0.441406 0.292969 0.707031 0.292969 s 0.519531 -0.105469 0.707031 -0.292969 l 4.292969 -4.292969 v 2.585938 c 0 0.550781 0.449219 1 1 1 z m 0 0"/>
    </g>
</svg>
