<?xml version="1.0" encoding="UTF-8"?>
<svg height="16px" viewBox="0 0 16 16" width="16px" xmlns="http://www.w3.org/2000/svg">
    <path d="m 8 0.980469 c -0.480469 0 -0.960938 0.132812 -1.386719 0.390625 l -5.285156 3.253906 c -0.824219 0.507812 -1.328125 1.40625 -1.328125 2.375 v 6 c 0 1.644531 1.355469 3 3 3 h 10 c 1.644531 0 3 -1.355469 3 -3 v -6 c 0 -0.96875 -0.503906 -1.867188 -1.328125 -2.375 l -5.289063 -3.253906 c -0.421874 -0.257813 -0.902343 -0.390625 -1.382812 -0.390625 z m 0 2 c 0.117188 0 0.234375 0.035156 0.335938 0.097656 l 5.289062 3.25 c 0.085938 0.054687 0.164062 0.121094 0.222656 0.203125 c -0.042968 0.011719 -0.085937 0.03125 -0.125 0.050781 l -5.167968 3.445313 c -0.335938 0.226562 -0.773438 0.226562 -1.109376 0 l -5.167968 -3.445313 c -0.039063 -0.019531 -0.082032 -0.039062 -0.125 -0.050781 c 0.058594 -0.078125 0.132812 -0.148438 0.222656 -0.203125 l 5.285156 -3.25 c 0.105469 -0.066406 0.222656 -0.097656 0.339844 -0.097656 z m -6 4.621093 l 4.890625 3.257813 c 0.671875 0.449219 1.546875 0.449219 2.21875 0 l 4.890625 -3.257813 v 5.398438 c 0 0.5625 -0.4375 1 -1 1 h -10 c -0.5625 0 -1 -0.4375 -1 -1 z m 0 0" fill="#2e3436" fill-opacity="0.501961"/>
</svg>
