<?xml version="1.0" encoding="UTF-8"?>
<svg height="16px" viewBox="0 0 16 16" width="16px" xmlns="http://www.w3.org/2000/svg">
    <path d="m 8 0 s -0.707031 -0.015625 -1.449219 0.355469 c -0.738281 0.371093 -1.550781 1.3125 -1.550781 2.644531 v 1 h 2 v -1 c 0 -0.667969 0.1875 -0.726562 0.449219 -0.855469 c 0.257812 -0.128906 0.550781 -0.144531 0.550781 -0.144531 s 0.292969 0.015625 0.550781 0.144531 c 0.261719 0.128907 0.449219 0.1875 0.449219 0.855469 v 3 h -5 v 6 h 3 v 2 h -5 v 2 h 12 v -2 h -5 v -2 h 3 v -6 h -1 v -3 c 0 -1.332031 -0.8125 -2.273438 -1.550781 -2.644531 c -0.742188 -0.371094 -1.449219 -0.355469 -1.449219 -0.355469 z m 0 0" fill="#2e3436"/>
</svg>
