<?xml version="1.0" encoding="UTF-8"?>
<svg height="16px" viewBox="0 0 16 16" width="16px" xmlns="http://www.w3.org/2000/svg">
    <path d="m 8 1 c -1.644531 0 -3 1.355469 -3 3 v 1 h 2 v -1 c 0 -0.5625 0.4375 -1 1 -1 s 1 0.4375 1 1 v 1 h 2 v -1 c 0 -1.644531 -1.355469 -3 -3 -3 z m -4 10 v 1.011719 h 3 v 0.988281 h -5 v 2 h 12 v -2 h -5 v -0.988281 h 3 v -1.011719 z m 0 0" fill="#2e3434" fill-opacity="0.34902"/>
    <path d="m 3 6 c -1.105469 0 -2 0.894531 -2 2 s 0.894531 2 2 2 s 2 -0.894531 2 -2 s -0.894531 -2 -2 -2 z m 5 0 c -1.105469 0 -2 0.894531 -2 2 s 0.894531 2 2 2 s 2 -0.894531 2 -2 s -0.894531 -2 -2 -2 z m 5 0 c -1.105469 0 -2 0.894531 -2 2 s 0.894531 2 2 2 s 2 -0.894531 2 -2 s -0.894531 -2 -2 -2 z m 0 0" fill="#2e3436"/>
</svg>
