<?xml version="1.0" encoding="UTF-8"?>
<svg height="16px" viewBox="0 0 16 16" width="16px" xmlns="http://www.w3.org/2000/svg">
    <path d="m 2 1 c -0.554688 0 -1 0.445312 -1 1 v 12 c 0 0.554688 0.445312 1 1 1 h 1 c 0.554688 0 1 -0.445312 1 -1 v -12 c 0 -0.554688 -0.445312 -1 -1 -1 z m 4 3 c -0.554688 0 -1 0.445312 -1 1 v 9 c 0 0.554688 0.445312 1 1 1 h 1 c 0.554688 0 1 -0.445312 1 -1 v -9 c 0 -0.554688 -0.445312 -1 -1 -1 z m 4 3 c -0.554688 0 -1 0.445312 -1 1 v 6 c 0 0.148438 0.035156 0.289062 0.09375 0.417969 c 0.089844 -0.308594 0.253906 -0.59375 0.492188 -0.832031 l 0.585937 -0.585938 l -0.585937 -0.585938 c -0.773438 -0.773437 -0.773438 -2.054687 0 -2.828124 c 0.375 -0.375 0.882812 -0.585938 1.414062 -0.585938 c 0.355469 0 0.699219 0.097656 1 0.269531 v -1.269531 c 0 -0.554688 -0.445312 -1 -1 -1 z m 6 5.828125 l -0.171875 0.171875 l 0.171875 0.171875 z m 0 0" fill="#2e3434" fill-opacity="0.34902"/>
    <path d="m 11 10 c -0.265625 0 -0.519531 0.105469 -0.707031 0.292969 c -0.390625 0.390625 -0.390625 1.023437 0 1.414062 l 1.292969 1.292969 l -1.292969 1.292969 c -0.390625 0.390625 -0.390625 1.023437 0 1.414062 s 1.023437 0.390625 1.414062 0 l 1.292969 -1.292969 l 1.292969 1.292969 c 0.390625 0.390625 1.023437 0.390625 1.414062 0 s 0.390625 -1.023437 0 -1.414062 l -1.292969 -1.292969 l 1.292969 -1.292969 c 0.390625 -0.390625 0.390625 -1.023437 0 -1.414062 c -0.1875 -0.1875 -0.441406 -0.292969 -0.707031 -0.292969 s -0.519531 0.105469 -0.707031 0.292969 l -1.292969 1.292969 l -1.292969 -1.292969 c -0.1875 -0.1875 -0.441406 -0.292969 -0.707031 -0.292969 z m 0 0" fill="#2e3436"/>
</svg>
