<?xml version="1.0" encoding="UTF-8"?>
<svg height="16px" viewBox="0 0 16 16" width="16px" xmlns="http://www.w3.org/2000/svg">
    <path d="m 8 1.992188 c -2.617188 0 -5.238281 0.933593 -7.195312 2.808593 l -0.496094 0.480469 c -0.3984378 0.378906 -0.410156 1.011719 -0.03125 1.410156 c 0.382812 0.398438 1.015625 0.410156 1.414062 0.03125 l 0.5 -0.476562 c 0.582032 -0.558594 1.25 -1.011719 1.96875 -1.359375 c 0.332032 -1.148438 1.171875 -2.109375 2.308594 -2.582031 c 0.5625 -0.230469 1.152344 -0.328126 1.734375 -0.296876 c 0.96875 0.050782 1.910156 0.449219 2.625 1.164063 c 0.488281 0.488281 0.824219 1.078125 1.011719 1.714844 c 0.71875 0.347656 1.386718 0.800781 1.96875 1.359375 l 0.5 0.476562 c 0.398437 0.378906 1.03125 0.367188 1.414062 -0.03125 c 0.378906 -0.398437 0.367188 -1.03125 -0.03125 -1.410156 l -0.496094 -0.480469 c -1.957031 -1.875 -4.578124 -2.808593 -7.195312 -2.808593 z m -3.292969 5.007812 c -0.34375 0.230469 -0.660156 0.503906 -0.945312 0.8125 l -0.5 0.550781 c -0.375 0.40625 -0.347657 1.042969 0.0625 1.414063 c 0.410156 0.371094 1.042969 0.339844 1.414062 -0.070313 l 0.5 -0.546875 c 0.214844 -0.234375 0.472657 -0.429687 0.761719 -0.589844 v -0.570312 c 0 -0.386719 0.222656 -0.691406 0.417969 -1 z m 7.054688 0.355469 c -0.019531 0.058593 -0.042969 0.117187 -0.066407 0.175781 c -0.246093 0.59375 -0.648437 1.0625 -1.128906 1.4375 c 0.066406 0.0625 0.132813 0.125 0.195313 0.195312 l 0.5 0.542969 c 0.371093 0.410157 1.003906 0.441407 1.414062 0.070313 c 0.40625 -0.371094 0.4375 -1.007813 0.0625 -1.414063 l -0.5 -0.546875 c -0.152343 -0.167968 -0.308593 -0.320312 -0.476562 -0.460937 z m 0 0" fill="#2e3434" fill-opacity="0.34902"/>
    <path d="m 8.152344 3.007812 c -0.4375 -0.023437 -0.882813 0.046876 -1.300782 0.222657 c -1.117187 0.460937 -1.851562 1.558593 -1.851562 2.769531 h 2 c 0 -0.40625 0.242188 -0.769531 0.617188 -0.925781 c 0.375 -0.152344 0.800781 -0.070313 1.089843 0.21875 c 0.289063 0.289062 0.371094 0.714843 0.21875 1.089843 c -0.15625 0.375 -0.519531 0.617188 -0.925781 0.617188 c -0.550781 0 -1 0.449219 -1 1 v 2 h 2 v -1.179688 c 0.785156 -0.28125 1.441406 -0.875 1.769531 -1.671874 c 0.464844 -1.117188 0.207031 -2.414063 -0.648437 -3.269532 c -0.535156 -0.535156 -1.242188 -0.835937 -1.96875 -0.871094 z m -0.152344 7.992188 c -0.550781 0 -1 0.449219 -1 1 s 0.449219 1 1 1 s 1 -0.449219 1 -1 s -0.449219 -1 -1 -1 z m 0 0" fill="#2e3436"/>
</svg>
