<?xml version="1.0" encoding="UTF-8"?>
<svg height="16px" viewBox="0 0 16 16" width="16px" xmlns="http://www.w3.org/2000/svg">
    <g fill="#2e3436">
        <path d="m 8.136719 4.007812 c -0.4375 -0.023437 -0.882813 0.046876 -1.300781 0.222657 c -1.117188 0.460937 -1.851563 1.558593 -1.851563 2.769531 h 2 c 0 -0.40625 0.242187 -0.769531 0.617187 -0.925781 c 0.375 -0.152344 0.800782 -0.070313 1.089844 0.21875 c 0.289063 0.289062 0.371094 0.714843 0.21875 1.089843 c -0.15625 0.375 -0.519531 0.617188 -0.925781 0.617188 c -0.550781 0 -1 0.449219 -1 1 v 2 h 2 v -1.179688 c 0.785156 -0.28125 1.441406 -0.875 1.773437 -1.671874 c 0.460938 -1.117188 0.203126 -2.414063 -0.652343 -3.269532 c -0.535157 -0.535156 -1.242188 -0.835937 -1.96875 -0.871094 z m -0.152344 7.992188 c -0.550781 0 -1 0.449219 -1 1 s 0.449219 1 1 1 s 1 -0.449219 1 -1 s -0.449219 -1 -1 -1 z m 0 0"/>
        <path d="m 6 0 c -0.554688 0 -1 0.445312 -1 1 v 3 c 0 0.105469 0.019531 0.203125 0.050781 0.300781 c 0.382813 -0.421875 0.859375 -0.761719 1.40625 -0.988281 c 0.558594 -0.230469 1.152344 -0.324219 1.730469 -0.292969 c 0.964844 0.046875 1.90625 0.449219 2.617188 1.160157 c 0.046874 0.046874 0.089843 0.097656 0.136718 0.148437 c 0.035156 -0.101563 0.058594 -0.210937 0.058594 -0.328125 v -3 c 0 -0.554688 -0.445312 -1 -1 -1 z m 1.988281 6.984375 s 0 0.003906 -0.007812 0.003906 c -0.015625 0.007813 -0.003907 -0.007812 -0.003907 0.011719 c -0.011718 0.007812 -0.019531 0.015625 -0.027343 0.023438 c 0.011719 0 0.023437 -0.011719 0.035156 -0.011719 c 0.015625 0 0.003906 0.007812 0.007813 -0.007813 c 0.007812 -0.015625 0.011718 0 0 -0.011718 c -0.007813 -0.007813 -0.003907 -0.007813 -0.003907 -0.007813 z m -7.988281 0.015625 v 2 h 2 v 2 h -1 c -0.554688 0 -1 0.445312 -1 1 v 3 c 0 0.554688 0.445312 1 1 1 h 4 c 0.554688 0 1 -0.445312 1 -1 v -1.886719 c -0.003906 -0.035156 -0.007812 -0.074219 -0.007812 -0.113281 c 0 -0.03125 0.007812 -0.066406 0.007812 -0.097656 v -0.902344 c 0 -0.554688 -0.445312 -1 -1 -1 h -1 v -2 h 1.992188 c 0 -0.378906 0.234374 -0.695312 0.445312 -1.011719 h -1.453125 c -0.261719 0.003907 -0.515625 -0.101562 -0.699219 -0.289062 c -0.1875 -0.183594 -0.292968 -0.4375 -0.292968 -0.699219 z m 11.96875 0 c 0 0.515625 -0.09375 1.035156 -0.300781 1.527344 c -0.066407 0.167968 -0.148438 0.324218 -0.242188 0.472656 h 0.574219 v 2 h -1 c -0.554688 0 -1 0.445312 -1 1 v 3 c 0 0.554688 0.445312 1 1 1 h 4 c 0.554688 0 1 -0.445312 1 -1 v -3 c 0 -0.554688 -0.445312 -1 -1 -1 h -1 v -2 h 2 v -2 z m 0 0" fill-opacity="0.34902"/>
    </g>
</svg>
