<?xml version="1.0" encoding="UTF-8"?>
<svg height="16px" viewBox="0 0 16 16" width="16px" xmlns="http://www.w3.org/2000/svg">
    <path d="m 3 1 c 0.554688 0 1 0.445312 1 1 v 3 h -3 v -3 c 0 -0.554688 0.445312 -1 1 -1 z m 4 3 c 0.554688 0 1 0.445312 1 1 h -3 c 0 -0.554688 0.445312 -1 1 -1 z m 9 7 v 3 c 0 0.554688 -0.445312 1 -1 1 h -1 c -0.554688 0 -1 -0.445312 -1 -1 v -3 z m -4 0 v 3 c 0 0.554688 -0.445312 1 -1 1 h -1 c -0.554688 0 -1 -0.445312 -1 -1 v -3 z m -4 0 v 3 c 0 0.554688 -0.445312 1 -1 1 h -1 c -0.554688 0 -1 -0.445312 -1 -1 v -3 z m -4 0 v 3 c 0 0.554688 -0.445312 1 -1 1 h -1 c -0.554688 0 -1 -0.445312 -1 -1 v -3 z m 0 0" fill="#2e3434" fill-opacity="0.34902"/>
    <path d="m 16 6 h -16 v 4 h 16 z m 0 0" fill="#2e3436"/>
</svg>
