<?xml version="1.0" encoding="UTF-8"?>
<svg height="16px" viewBox="0 0 16 16" width="16px" xmlns="http://www.w3.org/2000/svg">
    <path d="m 5 1 c -0.550781 0 -1 0.449219 -1 1 v 1 h 8 v -1 c 0 -0.550781 -0.449219 -1 -1 -1 z m -3 3 c -1.109375 0 -2 0.890625 -2 2 v 4 c 0 1.109375 0.890625 2 2 2 v 1 c 0 1.089844 0.910156 2 2 2 h 3 v -2 h -3 v -3 h 3 v -3 h 9 v -1 c 0 -1.109375 -0.890625 -2 -2 -2 z m 0 0" fill="#2e3436"/>
    <path class="warning" d="m 9.5 8 c -0.832031 0 -1.5 0.667969 -1.5 1.5 v 5 c 0 0.832031 0.667969 1.5 1.5 1.5 h 5 c 0.832031 0 1.5 -0.667969 1.5 -1.5 v -5 c 0 -0.832031 -0.667969 -1.5 -1.5 -1.5 z m 1.5 1 h 2 v 2.5 s 0 0.5 -0.5 0.5 h -1 c -0.5 0 -0.5 -0.5 -0.5 -0.5 z m 0.5 4 h 1 c 0.277344 0 0.5 0.222656 0.5 0.5 v 1 c 0 0.277344 -0.222656 0.5 -0.5 0.5 h -1 c -0.277344 0 -0.5 -0.222656 -0.5 -0.5 v -1 c 0 -0.277344 0.222656 -0.5 0.5 -0.5 z m 0 0" fill="#ff7800"/>
</svg>
