<?xml version="1.0" encoding="UTF-8"?>
<svg height="16px" viewBox="0 0 16 16" width="16px" xmlns="http://www.w3.org/2000/svg">
    <path d="m 5.984375 0.00390625 l -1 0.99609375 l -3 0.007812 s -1 0 -1 1 l 0.015625 0.992188 h 15 l -0.015625 -0.996094 c 0 -1 -1 -1 -1 -1 l -3 -0.003906 l -1 -0.99609375 z m 0.015625 3.98046875 c -1.839844 2.390625 -0.824219 6.707031 0 9.015625 h 1 c -0.832031 -2.386719 -1.761719 -6.792969 0 -9.015625 z m 2 0 v 9.015625 h 0.96875 v -9.015625 z m 2 0 c 1.664062 2.546875 0.863281 6.792969 0 9.015625 h 0.96875 c 0.855469 -2.203125 1.816406 -6.40625 0 -9.015625 z m -8 0.015625 c -1.671875 2.925781 -1.136719 6.855469 0 9.78125 c 0.433594 1.121094 1.5 2.21875 3.1875 2.21875 h 6.625 c 1.6875 0 2.777344 -1.089844 3.1875 -2.21875 c 1.042969 -2.863281 1.597656 -6.753906 0 -9.78125 h -2 c 1.570312 2.691406 1.09375 6.277344 0.25 9.1875 c -0.175781 0.839844 -1.171875 0.8125 -1.171875 0.8125 h -7.035156 c -0.042969 0 -0.84375 -0.003906 -1.285157 -0.71875 c -0.925781 -2.925781 -1.261718 -6.558594 0.242188 -9.28125 z m 0 0" fill="#2e3436"/>
</svg>
