<?xml version="1.0" encoding="UTF-8"?>
<svg height="16px" viewBox="0 0 16 16" width="16px" xmlns="http://www.w3.org/2000/svg">
    <path d="m 9.464844 0 c -1.273438 0 -2.304688 0.972656 -2.449219 2.21875 c -0.320313 -0.121094 -0.65625 -0.21875 -1.023437 -0.21875 c -1.640626 0 -2.972657 1.34375 -2.972657 3 c 0 0.097656 0.023438 0.183594 0.03125 0.28125 c -0.296875 -0.179688 -0.652343 -0.28125 -1.023437 -0.28125 c -1.09375 0 -1.9843752 0.894531 -1.9843752 2 s 0.8906252 2 1.9843752 2 h 12.394531 c 0.824219 0 1.488281 -0.671875 1.488281 -1.5 s -0.664062 -1.5 -1.488281 -1.5 c -0.203125 0 -0.410156 0.050781 -0.589844 0.125 c 0.054688 -0.203125 0.09375 -0.40625 0.09375 -0.625 c 0 -1.230469 -0.882812 -2.226562 -2.042969 -2.4375 c 0.042969 -0.179688 0.0625 -0.367188 0.0625 -0.5625 c 0 -1.378906 -1.109374 -2.5 -2.480468 -2.5 z m -7.027344 10 c -0.210938 0.027344 -0.386719 0.1875 -0.429688 0.394531 l -1 4.921875 c -0.023437 0.128906 0 0.261719 0.074219 0.375 c 0.070313 0.109375 0.183594 0.183594 0.3125 0.210938 c 0.132813 0.027344 0.265625 0 0.375 -0.074219 c 0.109375 -0.070313 0.1875 -0.183594 0.210938 -0.316406 l 1 -4.917969 c 0.027343 -0.128906 0.003906 -0.261719 -0.070313 -0.371094 c -0.070312 -0.109375 -0.183594 -0.1875 -0.316406 -0.210937 c -0.050781 -0.011719 -0.101562 -0.015625 -0.15625 -0.011719 z m 8.007812 0 c -0.214843 0.027344 -0.386718 0.1875 -0.429687 0.394531 l -1 4.921875 c -0.027344 0.128906 0 0.261719 0.070313 0.375 c 0.074218 0.109375 0.1875 0.183594 0.316406 0.210938 s 0.265625 0 0.375 -0.074219 c 0.109375 -0.070313 0.183594 -0.183594 0.210937 -0.316406 l 1 -4.917969 c 0.027344 -0.128906 0 -0.261719 -0.070312 -0.371094 c -0.074219 -0.109375 -0.1875 -0.1875 -0.316407 -0.210937 c -0.050781 -0.011719 -0.105468 -0.015625 -0.15625 -0.011719 z m 2 0 c -0.210937 0.027344 -0.386718 0.1875 -0.429687 0.394531 l -1 4.921875 c -0.023437 0.128906 0 0.261719 0.074219 0.375 c 0.070312 0.109375 0.183594 0.183594 0.3125 0.210938 c 0.132812 0.027344 0.265625 0 0.375 -0.074219 c 0.109375 -0.070313 0.1875 -0.183594 0.210937 -0.316406 l 1 -4.917969 c 0.027344 -0.128906 0.003907 -0.261719 -0.070312 -0.371094 c -0.070313 -0.109375 -0.183594 -0.1875 -0.316407 -0.210937 c -0.050781 -0.011719 -0.101562 -0.015625 -0.15625 -0.011719 z m -6.003906 0.003906 c -0.210937 0.023438 -0.382812 0.183594 -0.429687 0.394532 l -1 4.917968 c -0.023438 0.128906 0 0.261719 0.074219 0.375 c 0.070312 0.109375 0.183593 0.183594 0.3125 0.210938 c 0.269531 0.054687 0.53125 -0.121094 0.585937 -0.386719 l 1 -4.917969 c 0.027344 -0.132812 0.003906 -0.265625 -0.070313 -0.375 c -0.074218 -0.109375 -0.1875 -0.1875 -0.316406 -0.210937 c -0.050781 -0.011719 -0.101562 -0.015625 -0.15625 -0.007813 z m 2.003906 0 c -0.214843 0.023438 -0.386718 0.183594 -0.429687 0.394532 l -1.003906 4.917968 c -0.023438 0.128906 0 0.265625 0.074219 0.375 c 0.074218 0.109375 0.1875 0.183594 0.316406 0.210938 c 0.269531 0.054687 0.53125 -0.121094 0.582031 -0.386719 l 1 -4.917969 c 0.027344 -0.132812 0.003906 -0.265625 -0.070313 -0.375 c -0.070312 -0.109375 -0.183593 -0.1875 -0.316406 -0.210937 c -0.050781 -0.011719 -0.101562 -0.015625 -0.152344 -0.007813 z m -4.003906 0.003906 c -0.210937 0.023438 -0.386718 0.183594 -0.429687 0.394532 l -1 4.914062 c -0.027344 0.128906 0 0.261719 0.070312 0.375 c 0.074219 0.109375 0.1875 0.183594 0.316407 0.210938 c 0.128906 0.027344 0.265624 0 0.375 -0.074219 c 0.109374 -0.070313 0.183593 -0.183594 0.210937 -0.3125 l 1 -4.914063 c 0.027344 -0.128906 0.003906 -0.265624 -0.070313 -0.375 c -0.070312 -0.109374 -0.183593 -0.1875 -0.316406 -0.210937 c -0.050781 -0.011719 -0.101562 -0.015625 -0.15625 -0.011719 z m 0 0" fill="#2e3436"/>
</svg>
