<?xml version="1.0" encoding="UTF-8"?>
<svg height="16px" viewBox="0 0 16 16" width="16px" xmlns="http://www.w3.org/2000/svg">
    <path d="m 6.820312 1.105469 c -3.296874 0.566406 -5.824218 3.441406 -5.824218 6.894531 c 0 2.328125 1.15625 4.394531 2.917968 5.667969 c 0.3125 -0.8125 1.0625 -1.394531 1.941407 -1.636719 c 0.140625 -1.046875 0.707031 -1.960938 1.515625 -2.554688 c -0.867188 -1.359374 -1.375 -2.964843 -1.375 -4.691406 c 0 -1.3125 0.300781 -2.554687 0.824218 -3.679687 z m 2.679688 8.894531 c -1.378906 0 -2.5 1.121094 -2.5 2.5 c 0 0.21875 0.042969 0.421875 0.09375 0.625 c -0.179688 -0.074219 -0.386719 -0.125 -0.59375 -0.125 c -0.828125 0 -1.5 0.671875 -1.5 1.5 s 0.671875 1.5 1.5 1.5 h 8 c 0.828125 0 1.5 -0.671875 1.5 -1.5 s -0.671875 -1.5 -1.5 -1.5 c 0 -1.105469 -0.894531 -2 -2 -2 c -0.316406 0 -0.609375 0.089844 -0.875 0.21875 c -0.4375 -0.726562 -1.214844 -1.21875 -2.125 -1.21875 z m 0 0" fill="#2e3436"/>
</svg>
