<?xml version="1.0" encoding="UTF-8"?>
<svg height="16px" viewBox="0 0 16 16" width="16px" xmlns="http://www.w3.org/2000/svg">
    <path d="m 7.5 0 c -0.277344 0 -0.5 0.222656 -0.5 0.5 v 2 c 0 0.277344 0.222656 0.5 0.5 0.5 h 1 c 0.277344 0 0.5 -0.222656 0.5 -0.5 v -2 c 0 -0.277344 -0.222656 -0.5 -0.5 -0.5 z m -4.449219 1.84375 c -0.128906 0 -0.253906 0.046875 -0.351562 0.144531 l -0.710938 0.710938 c -0.195312 0.195312 -0.195312 0.507812 0 0.707031 l 1.417969 1.414062 c 0.195312 0.195313 0.507812 0.195313 0.707031 0 l 0.707031 -0.707031 c 0.195313 -0.199219 0.195313 -0.511719 0 -0.707031 l -1.414062 -1.417969 c -0.101562 -0.097656 -0.226562 -0.144531 -0.355469 -0.144531 z m 9.898438 0 c -0.128907 0 -0.253907 0.046875 -0.355469 0.144531 l -1.414062 1.417969 c -0.195313 0.195312 -0.195313 0.507812 0 0.707031 l 0.707031 0.707031 c 0.199219 0.195313 0.511719 0.195313 0.707031 0 l 1.417969 -1.414062 c 0.195312 -0.199219 0.195312 -0.511719 0 -0.707031 l -0.710938 -0.710938 c -0.097656 -0.097656 -0.222656 -0.144531 -0.351562 -0.144531 z m -4.949219 2.164062 c -2.195312 0 -4 1.804688 -4 4 c 0 2.191407 1.804688 4 4 4 s 4 -1.808593 4 -4 c 0 -2.195312 -1.804688 -4 -4 -4 z m -7.5 2.992188 c -0.277344 0 -0.5 0.222656 -0.5 0.5 v 1 c 0 0.277344 0.222656 0.5 0.5 0.5 h 2 c 0.277344 0 0.5 -0.222656 0.5 -0.5 v -1 c 0 -0.277344 -0.222656 -0.5 -0.5 -0.5 z m 13 0 c -0.277344 0 -0.5 0.222656 -0.5 0.5 v 1 c 0 0.277344 0.222656 0.5 0.5 0.5 h 2 c 0.277344 0 0.5 -0.222656 0.5 -0.5 v -1 c 0 -0.277344 -0.222656 -0.5 -0.5 -0.5 z m -9.742188 4.035156 c -0.128906 0 -0.253906 0.046875 -0.351562 0.144532 l -1.417969 1.414062 c -0.195312 0.199219 -0.195312 0.511719 0 0.707031 l 0.710938 0.710938 c 0.195312 0.195312 0.507812 0.195312 0.707031 0 l 1.414062 -1.417969 c 0.195313 -0.195312 0.195313 -0.507812 0 -0.707031 l -0.707031 -0.707031 c -0.101562 -0.097657 -0.226562 -0.144532 -0.355469 -0.144532 z m 8.484376 0 c -0.128907 0 -0.253907 0.046875 -0.355469 0.144532 l -0.707031 0.707031 c -0.195313 0.199219 -0.195313 0.511719 0 0.707031 l 1.414062 1.417969 c 0.199219 0.195312 0.511719 0.195312 0.707031 0 l 0.710938 -0.710938 c 0.195312 -0.195312 0.195312 -0.507812 0 -0.707031 l -1.417969 -1.414062 c -0.097656 -0.097657 -0.222656 -0.144532 -0.351562 -0.144532 z m -4.742188 1.964844 c -0.277344 0 -0.5 0.222656 -0.5 0.5 v 2 c 0 0.277344 0.222656 0.5 0.5 0.5 h 1 c 0.277344 0 0.5 -0.222656 0.5 -0.5 v -2 c 0 -0.277344 -0.222656 -0.5 -0.5 -0.5 z m 0 0" fill="#2e3436"/>
</svg>
