<?xml version="1.0" encoding="UTF-8"?>
<svg height="16px" viewBox="0 0 16 16" width="16px" xmlns="http://www.w3.org/2000/svg">
    <path d="m 9.507812 0.0429688 c -1.269531 0 -2.304687 0.9726562 -2.449218 2.2187502 c -0.320313 -0.121094 -0.652344 -0.21875 -1.019532 -0.21875 c -1.644531 0 -2.976562 1.34375 -2.976562 3 c 0 0.101562 0.023438 0.1875 0.03125 0.28125 c -0.296875 -0.175781 -0.648438 -0.28125 -1.023438 -0.28125 c -1.09375 0 -1.9804682 0.898437 -1.9804682 2 c 0 1.105469 0.8164062 1.957031 1.9101562 1.957031 h 5 v -1.5 c -0.015625 -0.785156 0.738281 -1.46875 1.515625 -1.488281 c 0.800781 -0.015625 1.5 0.683593 1.484375 1.488281 v 1.5 h 4.5 c 0.820312 0 1.453125 -0.625 1.453125 -1.457031 c 0 -0.828125 -0.664063 -1.5 -1.488281 -1.5 c -0.203125 0 -0.40625 0.050781 -0.585938 0.125 c 0.050782 -0.199219 0.089844 -0.40625 0.089844 -0.625 c 0 -1.226563 -0.882812 -2.226563 -2.042969 -2.4375 c 0.042969 -0.179688 0.0625 -0.367188 0.0625 -0.5625 c 0 -1.378907 -1.109375 -2.5000002 -2.480469 -2.5000002 z m -1.007812 6.9570312 c -0.132812 0 -0.261719 0.050781 -0.355469 0.144531 s -0.144531 0.222657 -0.144531 0.355469 v 2.5 h -3 v 1 h -1.707031 l -2.648438 2.644531 c -0.09375 0.09375 -0.144531 0.222657 -0.144531 0.355469 s 0.050781 0.261719 0.144531 0.355469 s 0.222657 0.144531 0.355469 0.144531 s 0.261719 -0.050781 0.351562 -0.144531 l 2.355469 -2.355469 h 1.292969 v 3 c 0 0.132812 0.050781 0.261719 0.144531 0.355469 s 0.222657 0.144531 0.355469 0.144531 s 0.261719 -0.050781 0.355469 -0.144531 s 0.144531 -0.222657 0.144531 -0.355469 v -4 h 2 v 0.707031 l 2 2 v 1.292969 c 0 0.132812 0.050781 0.261719 0.144531 0.355469 s 0.222657 0.144531 0.355469 0.144531 s 0.261719 -0.050781 0.355469 -0.144531 s 0.144531 -0.222657 0.144531 -0.355469 v -1 h 1.359375 l 2.382813 1.425781 c 0.238281 0.144531 0.542968 0.066407 0.683593 -0.167969 c 0.144531 -0.234374 0.066407 -0.542968 -0.167969 -0.683593 l -2.621093 -1.574219 h -1.929688 l -1.707031 -1.707031 v -3.792969 c 0 -0.132812 -0.050781 -0.261719 -0.144531 -0.355469 s -0.222657 -0.144531 -0.355469 -0.144531 z m 0 0" fill="#2e3436"/>
</svg>
