<?xml version="1.0" encoding="UTF-8"?>
<svg height="16px" viewBox="0 0 16 16" width="16px" xmlns="http://www.w3.org/2000/svg">
    <path d="m 4 0 c -1.644531 0 -3 1.355469 -3 3 v 3 c 0 0.550781 0.449219 1 1 1 s 1 -0.449219 1 -1 v -3 c 0 -0.570312 0.429688 -1 1 -1 h 5.585938 l 3.414062 3.414062 v 7.585938 c 0 0.570312 -0.429688 1 -1 1 h -7 c -0.550781 0 -1 0.449219 -1 1 s 0.449219 1 1 1 h 7 c 1.644531 0 3 -1.355469 3 -3 v -8 c 0 -0.265625 -0.105469 -0.519531 -0.292969 -0.707031 l -4 -4 c -0.1875 -0.1875 -0.441406 -0.292969 -0.707031 -0.292969 z m 3 5 c -0.265625 0 -0.519531 0.105469 -0.707031 0.292969 c -0.390625 0.390625 -0.390625 1.023437 0 1.414062 l 1.292969 1.292969 h -2.585938 c -2.195312 0 -4 1.800781 -4 4 v 4 h 2 v -4 c 0 -1.117188 0.882812 -2 2 -2 h 2.585938 l -1.292969 1.292969 c -0.390625 0.390625 -0.390625 1.023437 0 1.414062 s 1.023437 0.390625 1.414062 0 l 3 -3 c 0.390625 -0.390625 0.390625 -1.023437 0 -1.414062 l -3 -3 c -0.1875 -0.1875 -0.441406 -0.292969 -0.707031 -0.292969 z m 0 0" fill="#2e3436"/>
</svg>
