<?xml version="1.0" encoding="UTF-8"?>
<svg height="16px" viewBox="0 0 16 16" width="16px" xmlns="http://www.w3.org/2000/svg">
    <g fill="#2e3436">
        <path d="m 13.550781 4 c -0.488281 0.003906 -0.988281 0.195312 -1.429687 0.636719 l -7.625 7.625 c -0.316406 0.316406 -0.496094 0.75 -0.496094 1.199219 v 2.539062 h 2.539062 c 0.449219 0 0.882813 -0.179688 1.199219 -0.496094 l 7.625 -7.625 c 1.515625 -1.511718 0.066407 -3.714844 -1.601562 -3.871094 c -0.070313 -0.007812 -0.140625 -0.007812 -0.210938 -0.007812 z m -1.503906 3.054688 l 0.898437 0.898437 l -5.980468 5.980469 l -0.898438 -0.898438 z m 0 0"/>
        <path d="m 6.5 0 c -3.578125 0 -6.5 2.921875 -6.5 6.5 c 0 2.128906 1.035156 4.027344 2.628906 5.210938 l 1.433594 -1.429688 c -1.242188 -0.796875 -2.0625 -2.1875 -2.0625 -3.78125 c 0 -2.496094 2.003906 -4.5 4.5 -4.5 c 1.59375 0 2.984375 0.820312 3.78125 2.0625 l 1.433594 -1.433594 c -1.1875 -1.59375 -3.085938 -2.628906 -5.214844 -2.628906 z m 7.042969 12.113281 l -1.421875 1.421875 l 2.152344 2.152344 c 0.957031 0.9375 2.363281 -0.5 1.40625 -1.4375 z m 0 0"/>
    </g>
</svg>
