<?xml version="1.0" encoding="UTF-8"?>
<svg height="16px" viewBox="0 0 16 16" width="16px" xmlns="http://www.w3.org/2000/svg">
    <g fill="#2e3436">
        <path d="m 13.550781 4 c -0.488281 0.003906 -0.988281 0.195312 -1.429687 0.636719 l -7.625 7.625 c -0.316406 0.316406 -0.496094 0.75 -0.496094 1.199219 v 2.539062 h 2.539062 c 0.449219 0 0.882813 -0.179688 1.199219 -0.496094 l 7.625 -7.625 c 1.515625 -1.511718 0.066407 -3.714844 -1.601562 -3.871094 c -0.070313 -0.007812 -0.140625 -0.007812 -0.210938 -0.007812 z m -1.503906 3.054688 l 0.898437 0.898437 l -5.980468 5.980469 l -0.898438 -0.898438 z m 0 0"/>
        <path d="m 5 1 s -0.707031 -0.015625 -1.449219 0.355469 c -0.738281 0.371093 -1.550781 1.3125 -1.550781 2.644531 v 2 h -2 v 1 h 0.0078125 c -0.00390625 0.265625 0.1015625 0.519531 0.2851565 0.707031 l 2 2 c 0.390625 0.390625 1.023437 0.390625 1.414062 0 l 2 -2 c 0.183594 -0.1875 0.289063 -0.441406 0.289063 -0.707031 h 0.003906 v -1 h -2 v -2 c 0.105469 -0.800781 0.5 -1 1 -1 h 5 c 0.550781 0 1 -0.449219 1 -1 s -0.449219 -1 -1 -1 z m 0 0"/>
    </g>
</svg>
