<?xml version="1.0" encoding="UTF-8"?>
<svg height="16px" viewBox="0 0 16 16" width="16px" xmlns="http://www.w3.org/2000/svg">
    <path d="m 1.84375 3.011719 c -0.207031 0.03125 -0.402344 0.128906 -0.550781 0.28125 c -0.1875 0.1875 -0.292969 0.441406 -0.292969 0.707031 s 0.105469 0.519531 0.292969 0.707031 l 6 6 c 0.390625 0.390625 1.023437 0.390625 1.414062 0 l 6 -6 c 0.1875 -0.1875 0.292969 -0.441406 0.292969 -0.707031 s -0.105469 -0.519531 -0.292969 -0.707031 c -0.390625 -0.390625 -1.023437 -0.390625 -1.414062 0 l -5.292969 5.292969 l -5.292969 -5.292969 c -0.226562 -0.226563 -0.546875 -0.332031 -0.863281 -0.28125 z m -0.84375 7.988281 c -0.550781 0 -1 0.449219 -1 1 s 0.449219 1 1 1 h 14 c 0.550781 0 1 -0.449219 1 -1 s -0.449219 -1 -1 -1 z m 0 0" fill="#2e3436"/>
</svg>
