<?xml version="1.0" encoding="UTF-8"?>
<svg height="16px" viewBox="0 0 16 16" width="16px" xmlns="http://www.w3.org/2000/svg">
    <g fill="#2e3436">
        <path d="m 11 1.5 v -1 c 0 -0.277344 -0.222656 -0.5 -0.5 -0.5 h -5 c -0.277344 0 -0.5 0.222656 -0.5 0.5 v 1 c 0 0.277344 0.222656 0.5 0.5 0.5 h 5 c 0.277344 0 0.5 -0.222656 0.5 -0.5 z m 0 0" fill-opacity="0.34902"/>
        <path d="m 11 4.5 v -1 c 0 -0.277344 -0.222656 -0.5 -0.5 -0.5 h -5 c -0.277344 0 -0.5 0.222656 -0.5 0.5 v 1 c 0 0.277344 0.222656 0.5 0.5 0.5 h 5 c 0.277344 0 0.5 -0.222656 0.5 -0.5 z m 0 0" fill-opacity="0.34902"/>
        <path d="m 15 7 h -14 v 2 h 14 z m 0 0"/>
        <g fill-opacity="0.34902">
            <path d="m 11 12.5 v -1 c 0 -0.277344 -0.222656 -0.5 -0.5 -0.5 h -5 c -0.277344 0 -0.5 0.222656 -0.5 0.5 v 1 c 0 0.277344 0.222656 0.5 0.5 0.5 h 5 c 0.277344 0 0.5 -0.222656 0.5 -0.5 z m 0 0"/>
            <path d="m 11 15.5 v -1 c 0 -0.277344 -0.222656 -0.5 -0.5 -0.5 h -5 c -0.277344 0 -0.5 0.222656 -0.5 0.5 v 1 c 0 0.277344 0.222656 0.5 0.5 0.5 h 5 c 0.277344 0 0.5 -0.222656 0.5 -0.5 z m 0 0"/>
        </g>
    </g>
</svg>
