<svg width="16" height="16" version="1.1" xmlns="http://www.w3.org/2000/svg">
 <defs>
  <style id="current-color-scheme" type="text/css">
   .ColorScheme-Text { color:#5d656b; } .ColorScheme-Highlight { color:#5294e2; }
  </style>
 </defs>
 <path style="fill:currentColor" class="ColorScheme-Text" d="m7.5 2a4.5 4.5 0 0 0-4.5 4.5 4.5 4.5 0 0 0 0.052734 0.65625 3 3 0 0 0-2.0527 2.8438 3 3 0 0 0 3 3h7.5a3.5 3.5 0 0 0 3.5-3.5 3.5 3.5 0 0 0-3.0293-3.4648 4.5 4.5 0 0 0-4.4707-4.0352zm0 1a3.5 3.5 0 0 1 3.5 3.5 3.5 3.5 0 0 1-0.050781 0.56445 2.5 2.5 0 0 1 0.55078-0.064453 2.5 2.5 0 0 1 2.5 2.5 2.5 2.5 0 0 1-2.5 2.5h-7.5a2 2 0 0 1-2-2 2 2 0 0 1 2-2 2 2 0 0 1 0.35742 0.033203 3.5 3.5 0 0 1-0.35742-1.5332 3.5 3.5 0 0 1 3.5-3.5z"/>
 <path style="fill:currentColor" class="ColorScheme-Text" d="m7.4914 2.9225c1.9663 0 3.5603 1.594 3.5603 3.5603-0.0016 0.19247-0.01503 0.3259-0.04774 0.51558 0.18374-0.042563 0.37166-0.045022 0.56026-0.046032 1.4045 0 2.5391 1.1776 2.5391 2.5821s-1.1386 2.543-2.543 2.543h-7.6291c-1.1236 0-2.0344-0.91085-2.0344-2.0344 0-1.1236 0.94847-2.0743 2.0721-2.0743 0.12196 3.381e-4 0.21383 0.0091172 0.33376 0.03125-0.23806-0.48551-0.3702-0.97649-0.37139-1.5172 0-1.9663 1.594-3.5603 3.5603-3.5603z" opacity=".25"/>
</svg>
