<svg width="16" height="16" version="1.1" xmlns="http://www.w3.org/2000/svg">
 <defs>
  <style id="current-color-scheme" type="text/css">
   .ColorScheme-Text { color:#5d656b; } .ColorScheme-Highlight { color:#5294e2; }
  </style>
 </defs>
 <path style="fill:currentColor" class="ColorScheme-Text" d="m3.5 5c-1.3689 0-2.5 1.1311-2.5 2.5s1.1311 2.5 2.5 2.5c1.1362 0 1.9523-0.85266 2.25-1.9004 0.29772 1.0477 1.1138 1.9004 2.25 1.9004s1.9523-0.85266 2.25-1.9004c0.29772 1.0477 1.1138 1.9004 2.25 1.9004 1.3689 0 2.5-1.1311 2.5-2.5s-1.1311-2.5-2.5-2.5c-1.1362 0-1.9523 0.85266-2.25 1.9004-0.29772-1.0477-1.1138-1.9004-2.25-1.9004s-1.9523 0.85266-2.25 1.9004c-0.29772-1.0477-1.1138-1.9004-2.25-1.9004zm0 1a1.5 1.5 0 0 1 1.5 1.5 1.5 1.5 0 0 1-1.5 1.5 1.5 1.5 0 0 1-1.5-1.5 1.5 1.5 0 0 1 1.5-1.5zm4.5 0a1.5 1.5 0 0 1 1.5 1.5 1.5 1.5 0 0 1-1.5 1.5 1.5 1.5 0 0 1-1.5-1.5 1.5 1.5 0 0 1 1.5-1.5zm4.5 0a1.5 1.5 0 0 1 1.5 1.5 1.5 1.5 0 0 1-1.5 1.5 1.5 1.5 0 0 1-1.5-1.5 1.5 1.5 0 0 1 1.5-1.5z"/>
 <path style="fill:currentColor" class="ColorScheme-Text" d="m3.5 6a1.5 1.5 0 0 0-1.5 1.5 1.5 1.5 0 0 0 1.5 1.5 1.5 1.5 0 0 0 1.5-1.5 1.5 1.5 0 0 0-1.5-1.5zm4.5 0a1.5 1.5 0 0 0-1.5 1.5 1.5 1.5 0 0 0 1.5 1.5 1.5 1.5 0 0 0 1.5-1.5 1.5 1.5 0 0 0-1.5-1.5zm4.5 0a1.5 1.5 0 0 0-1.5 1.5 1.5 1.5 0 0 0 1.5 1.5 1.5 1.5 0 0 0 1.5-1.5 1.5 1.5 0 0 0-1.5-1.5z" opacity=".25"/>
</svg>
