<svg height="16.01" width="16" xmlns="http://www.w3.org/2000/svg"><path d="M3 1.01c-.554 0-1 .446-1 1v12c0 .554.446 1 1 1h6V14l-5 .01v-12h8.5c.277 0 .5.223.5.5v6.492h1V2.01c0-.554-.446-1-1-1zm5.488 4.002c-.481-.032-.952.25-1.232.63-.273.492-.05 1.077-.22 1.596-.104.372 0 .768.27 1.037.232.292.517.673.358 1.065-.23.441-.687.7-1.103.935-.11.045-.252.122-.37.213-.106.03-.19.11-.19.225v1.047c0 .138.11.25.25.25h2.732A1.017 1.017 0 0 1 10 10.998h.983v-.53c-.552-.298-1.17-.589-1.479-1.171-.106-.462.219-.867.504-1.188.281-.357.17-.828.072-1.228-.041-.442.101-.966-.228-1.328-.357-.362-.872-.51-1.363-.541zM12 10.02v1.996h-2V14l2 .014v1.996h2v-1.996h2v-1.998h-2V10.02z" fill="#5d656b" overflow="visible" style="isolation:auto;mix-blend-mode:normal;marker:none" color="#5d656b"/></svg>