<svg xmlns="http://www.w3.org/2000/svg" width="16" height="16" enable-background="new"><defs><filter id="a" color-interpolation-filters="sRGB"><feBlend mode="darken" in2="BackgroundImage"/></filter></defs><g fill="#5d656b"><path style="marker:none" d="M2 .993v14L8 15v-1l-5-.007v-12h10V8h1V.993z" color="#5d656b" overflow="visible" enable-background="accumulate"/><path style="marker:none" d="M12 9v.563a3.063 3.063 0 0 0-1.25.5l-.156-.188a.455.455 0 0 0-.344-.125h-.5v.5c0 .128.058.277.156.375l.157.125c-.26.362-.424.79-.5 1.25H9v1h.563c.076.46.24.888.5 1.25l-.157.125a.559.559 0 0 0-.156.375v.5h.5c.128 0 .277-.027.375-.125l.156-.188c.359.253.766.425 1.219.5V16h1v-.563c.453-.075.86-.247 1.219-.5l.156.188c.098.098.25.098.375.125h.5v-.5a.559.559 0 0 0-.156-.375l-.156-.125c.258-.362.423-.79.5-1.25H16v-1h-.562a2.982 2.982 0 0 0-.5-1.25l.156-.125c.098-.098.14-.248.156-.375v-.5h-.5c-.128 0-.277.027-.375.125l-.156.188a2.932 2.932 0 0 0-1.219-.5V9zm.5 1.5a2 2 0 1 1 0 4 2 2 0 0 1 0-4z" color="#000" overflow="visible" enable-background="accumulate"/></g></svg>