<svg xmlns="http://www.w3.org/2000/svg" width="16" height="16" enable-background="new"><defs><filter id="a" color-interpolation-filters="sRGB"><feBlend mode="darken" in2="BackgroundImage"/></filter></defs><g fill="#5d656b"><path style="marker:none" d="M1 1v14h11v-3h-1v2H2V2h9v2h1V1H1z" color="#000" overflow="visible" enable-background="new"/><path d="M13.418 3.01a1.99 1.99 0 0 0-.55.65 7.27 7.27 0 0 1-.206.375c-.076.136-.168.296-.275.494a10.953 10.953 0 0 1-1.14 1.712c-.004.004-.32.365-.669.677-1.953-.838-5.151-2.203-5.46-2.281-.459-.116-.897.21-.916.223L4 5.012l.216.13L8.924 8l-4.708 2.857-.216.13.202.152c.019.014.457.338.917.223.305-.076 3.506-1.443 5.459-2.282.35.315.664.675.667.678.006.007.579.678 1.142 1.714.107.197.199.359.277.494.085.152.154.271.205.373.099.195.305.473.549.652a1.627 1.627 0 0 0 2.27-.349c.204-.28.312-.61.312-.956 0-.512-.245-1.002-.657-1.31a1.568 1.568 0 0 0-.57-.268c-.154-.056-.27-.074-.394-.095-.184-.032-.392-.067-.81-.234-.813-.326-1.493-.93-1.504-.943-.198-.164-.391-.454-.561-.836.17-.383.363-.672.565-.843.007-.004.685-.608 1.5-.935.418-.168.626-.204.81-.234.123-.02.24-.041.378-.09.207-.05.41-.145.59-.275.41-.308.653-.796.653-1.308a1.6 1.6 0 0 0-.312-.956 1.625 1.625 0 0 0-2.27-.35m1.066.617a.705.705 0 0 1 .595.691.706.706 0 0 1-.287.568.693.693 0 0 1-.522.127.69.69 0 0 1-.457-.279.702.702 0 0 1 .671-1.107M9.794 8a.548.548 0 1 1 0 0m4.998 3.117a.7.7 0 0 1-.308 1.256.693.693 0 0 1-.522-.127.705.705 0 0 1-.15-.98.7.7 0 0 1 .98-.15"/></g></svg>