<svg xmlns="http://www.w3.org/2000/svg" width="16" height="16" enable-background="new"><defs><filter id="a" color-interpolation-filters="sRGB"><feBlend mode="darken" in2="BackgroundImage"/></filter></defs><path style="marker:none" d="M8 0a2 2 0 0 0-2 2H2v13h12V2h-4c0-.138-.005-.276-.031-.406A2.008 2.008 0 0 0 8 0zm0 1c.414 0 .754.266.906.625A.94.94 0 0 1 9 2a1 1 0 1 1-1-1zM3 3h3v1S5 4 5 5h6c0-.75-.563-.953-.844-1H10V3h3v11H3V3.5z" color="#000" overflow="visible" fill="#5d656b" enable-background="accumulate"/></svg>