<svg xmlns="http://www.w3.org/2000/svg" width="16" height="16" enable-background="new"><defs><filter id="a" color-interpolation-filters="sRGB"><feBlend mode="darken" in2="BackgroundImage"/></filter></defs><g color="#000" fill="#5d656b"><path style="line-height:normal;-inkscape-font-specification:Sans;text-indent:0;text-align:start;text-decoration-line:none;text-transform:none;block-progression:tb;marker:none" d="M6.75 6.844a1 1 0 0 0 1.875.343l3.313-5.625a1.008 1.008 0 1 0-1.75-1L6.874 6.188a1 1 0 0 0-.125.657z" font-weight="400" font-family="Sans" overflow="visible" enable-background="new"/><path style="marker:none" d="M5.219 5.094l4.947 3.054c.604.314.82 1.113.165 1.597l-.622.216-6.02-3.521.018-.908c.29-.585.755-.815 1.512-.438zM3.024 7.203a3.258 3.258 0 0 0-1.85 1.972 3.258 3.258 0 0 0 .311 2.686c.313.509.765.925 1.276 1.234.512.309 1.08.515 1.663.648C5.59 14.01 6.797 14 7.991 14H12a4.62 4.62 0 0 1-2.487-.35c-.338-.15-.663-.343-.916-.612-.254-.27-.433-.62-.45-.989a1.291 1.291 0 0 1 .247-.814 1.29 1.29 0 0 1 .703-.48L3.024 7.203z" overflow="visible" enable-background="new"/></g></svg>