<svg xmlns="http://www.w3.org/2000/svg" width="16" height="16.007" enable-background="new"><defs><filter id="a" color-interpolation-filters="sRGB"><feBlend mode="darken" in2="BackgroundImage"/></filter></defs><g fill="#5d656b"><path style="line-height:normal;-inkscape-font-specification:Sans;text-indent:0;text-align:start;text-decoration-line:none;text-transform:none;block-progression:tb;marker:none" d="M1 1.007v.406a.5.5 0 0 0 0 .094v11.5c0 .833.574 1.505 1.062 1.75.489.244.938.25.938.25h6v-1H3s-.225-.02-.5-.157c-.112-.056-.5-.47-.5-.843v-7h12v3h1v-5.5a.5.5 0 0 0 0-.094v-.406H9.5c-.264 0-.427-.054-.594-.188-.166-.133-.312-.375-.5-.625a4.07 4.07 0 0 0-.718-.75A1.888 1.888 0 0 0 6.5 1.007H1zm1 1h4.5c.264 0 .427.054.594.187.166.134.312.375.5.625.187.25.416.509.718.75.303.242.702.438 1.188.438H14v1H2v-3z" color="#000" font-weight="400" font-family="Sans" overflow="visible" enable-background="accumulate"/><path d="M12 10.007v2h-2v2h2v2h2v-2h2v-2h-2v-2h-2z" enable-background="new"/></g></svg>