<svg width="16" height="16" version="1.1" viewBox="0 0 16 16" xmlns="http://www.w3.org/2000/svg">
 <title>Gnome Symbolic Icon Theme</title>
 <path d="m8 0a8 8 0 0 0-8 8 8 8 0 0 0 8 8 8 8 0 0 0 8-8 8 8 0 0 0-8-8zm0 1a7 7 0 0 1 7 7 7 7 0 0 1-7 7 7 7 0 0 1-7-7 7 7 0 0 1 7-7z" fill="#5d656b" style="paint-order:stroke fill markers"/>
 <path d="m7.4027 2.0034c-0.19918 0.020155-0.39954 0.034382-0.59279 0.073506-0.38088 0.073655-0.75343 0.18526-1.1121 0.33315-1.7177 0.73192-2.9929 2.2266-3.4453 4.0381l0.036753 0.037939c0.32011 0.34145 1.1583 0.81212 1.7784 1.0374 0.34026 0.12211 0.99589 0.31536 1.4464 0.40665 0.44815 0.092475 0.74692 0.18258 0.70305 0.18614-0.043867 0.00356-0.24542 0.15413-0.44459 0.33315-0.38057 0.34263-0.57619 0.64377-0.74099 1.1856-0.090104 0.2964-0.08062 0.3948 0.036753 0.55604 0.071135 0.09603 0.38887 0.32366 0.70424 0.5181 0.31536 0.19562 0.68289 0.46593 0.81449 0.59279 0.49083 0.47423 0.81568 1.3243 0.81568 2.1495 0 0.21103 0.02134 0.32248 0.036753 0.3699 0.04031 0.0036 0.071135-0.0036 0.11144 0 0.090104-0.03557 0.22763-0.07706 0.44459-0.18495 1.8104-0.90697 2.6379-2.0783 2.5561-3.6314-0.065207-1.2377-0.64496-1.6859-3.0007-2.185-1.7345-0.36753-2.6676-0.99233-2.6676-1.7784 0-0.20748 0.069949-0.32959 0.2964-0.55722 0.24304-0.24186 0.29284-0.25846 0.48135-0.2217 0.11974 0.023712 0.42918 0.18258 0.66748 0.37109 0.5347 0.42444 0.79671 0.59279 1.0741 0.59279 0.11856 0 0.2217-0.018969 0.2217-0.036753s-0.087733-0.15413-0.18495-0.2964c-0.53351-0.78841-0.5015-2.2621 0.074692-3.52 0.090104-0.19799 0.15768-0.33196 0.1482-0.37109-0.08062 0.00592-0.18021-0.00711-0.26083 0zm5.558 2.7778c-0.10789-0.066393-0.98403 0.8548-1.1856 1.2603-0.39954 0.80264-0.24897 1.3279 0.70305 2.3332 0.33078 0.34856 0.72795 0.81805 0.85243 1.0386 0.12449 0.21933 0.23 0.40191 0.25964 0.3699 0.02845-0.032011 0.11619-0.28454 0.18495-0.55604 0.18021-0.71135 0.19325-1.9515 0-2.6676-0.15057-0.55485-0.67578-1.6918-0.81568-1.7784z" fill="#5d656b" stroke-width="1.1856"/>
</svg>
