<svg width="16" height="16.009" version="1.1" xmlns="http://www.w3.org/2000/svg">
 <path d="m13.498 1.009c0.831 0 1.5 0.669 1.5 1.5v11c0 0.831-0.669 1.5-1.5 1.5h-9c-0.831 0-1.5-0.669-1.5-1.5v-5.967l1 1v4.967c0 0.302 0.198 0.5 0.5 0.5h9c0.302 0 0.5-0.198 0.5-0.5v-11c0-0.302-0.198-0.5-0.5-0.5h-6.963l-0.994-1zm-9.71 0a0.83 0.83 0 0 1 0.589 0.246l0.906 0.912-3.125 3.125-0.91-0.906c-0.33-0.33-0.33-0.85 0-1.18l1.95-1.95a0.83 0.83 0 0 1 0.59-0.247zm2.554 2.22 6.666 6.667v3.119h-3.121l-6.664-6.664zm5.658 6.78h-1v1h-1v1h2z" color="#5d656b" fill="#5d656b" overflow="visible"/>
</svg>
