<svg height="16.045" width="16" xmlns="http://www.w3.org/2000/svg"><g color="#5d656b" fill="#5d656b"><path d="M2.498 3.052c-.83 0-1.5.669-1.5 1.5v7c0 .831.67 1.5 1.5 1.5h6.5v-1h-6.5a.499.499 0 0 1-.5-.5V4.566L7.69 8.948c.015.013.034.016.05.026a.56.56 0 0 0 .17.064c.03.006.058.006.088.006.03 0 .059 0 .088-.006a.489.489 0 0 0 .115-.037c.02-.009.037-.016.055-.027.017-.01.035-.013.05-.026l5.692-4.384v4.488h1v-4.5c0-.831-.669-1.5-1.5-1.5zm.475 1h10.049L7.998 7.923z" overflow="visible" style="isolation:auto;mix-blend-mode:normal;marker:none"/><path d="M11.998 10.055v1.996h-2v1.998h2v1.996h2v-1.996h2v-1.998h-2v-1.996z" overflow="visible" style="marker:none"/></g></svg>