<svg xmlns="http://www.w3.org/2000/svg" height="16" width="16"><path d="M3 4v1h3.133a4 4 0 0 1 .408-1zM3 14h7v1H3zM15 3v6h-1V3z" style="marker:none" opacity=".25" fill="#5d656b" stroke-linecap="round" stroke-linejoin="round"/><path d="M.5 3c-.277 0-.5.223-.5.5v2c0 .277.223.5.5.5h2c.277 0 .5-.223.5-.5v-2c0-.277-.223-.5-.5-.5zm.75 1h.5a.25.25 0 0 1 .25.25v.5a.25.25 0 0 1-.25.25h-.5A.25.25 0 0 1 1 4.75v-.5A.25.25 0 0 1 1.25 4zM13.5 0c-.277 0-.5.223-.5.5v2c0 .277.223.5.5.5h2c.277 0 .5-.223.5-.5v-2c0-.277-.223-.5-.5-.5zm.75 1h.5a.25.25 0 0 1 .25.25v.5a.25.25 0 0 1-.25.25h-.5a.25.25 0 0 1-.25-.25v-.5a.25.25 0 0 1 .25-.25zM.5 13c-.277 0-.5.223-.5.5v2c0 .277.223.5.5.5h2c.277 0 .5-.223.5-.5v-2c0-.277-.223-.5-.5-.5zm.75 1h.5a.25.25 0 0 1 .25.25v.5a.25.25 0 0 1-.25.25h-.5a.25.25 0 0 1-.25-.25v-.5a.25.25 0 0 1 .25-.25zM10.5 13c-.277 0-.5.223-.5.5v2c0 .277.223.5.5.5h2c.277 0 .5-.223.5-.5v-2c0-.277-.223-.5-.5-.5zm.75 1h.5a.25.25 0 0 1 .25.25v.5a.25.25 0 0 1-.25.25h-.5a.25.25 0 0 1-.25-.25v-.5a.25.25 0 0 1 .25-.25z" style="marker:none" opacity=".8" fill="#5d656b" stroke-linecap="round" stroke-linejoin="round"/><path d="M10.117 2.002A4 4 0 0 0 6 6a4 4 0 0 0 .014.287A4 4 0 0 1 6 6H3.5c-.277 0-.5.223-.5.5v6c0 .277.223.5.5.5h6c.277 0 .5-.223.5-.5V9.996A4 4 0 0 0 14 6a4 4 0 0 0-3.883-3.998zm-.031 1A3 3 0 0 1 13 6a3 3 0 0 1-6 0 3 3 0 0 1 3.086-2.998zM6.04 6.545a4 4 0 0 0 .018.115 4 4 0 0 1-.018-.115zM4.25 7h1.88A4 4 0 0 0 9 9.87v1.88a.25.25 0 0 1-.25.25h-4.5a.25.25 0 0 1-.25-.25v-4.5A.25.25 0 0 1 4.25 7z" style="marker:none" fill="#5d656b" stroke-linecap="round" stroke-linejoin="round"/><path style="marker:none" d="M13 6a3 3 0 1 1-6 0 3 3 0 1 1 6 0z" opacity=".25" fill="#5d656b" stroke-linecap="round" stroke-linejoin="round"/><path d="M13.5 9c-.277 0-.5.223-.5.5v2c0 .277.223.5.5.5h2c.277 0 .5-.223.5-.5v-2c0-.277-.223-.5-.5-.5zm.75 1h.5a.25.25 0 0 1 .25.25v.5a.25.25 0 0 1-.25.25h-.5a.25.25 0 0 1-.25-.25v-.5a.25.25 0 0 1 .25-.25z" style="marker:none" opacity=".8" fill="#5d656b" stroke-linecap="round" stroke-linejoin="round"/><path style="marker:none" opacity=".25" fill="#5d656b" stroke-linecap="round" stroke-linejoin="round" d="M2 6v7H1V6zM12 9.455a4 4 0 0 1-1 .408V13h1z"/><path d="M4.5 0c-.277 0-.5.223-.5.5v2c0 .277.223.5.5.5h2c.277 0 .5-.223.5-.5v-2c0-.277-.223-.5-.5-.5zm.75 1h.5a.25.25 0 0 1 .25.25v.5a.25.25 0 0 1-.25.25h-.5A.25.25 0 0 1 5 1.75v-.5A.25.25 0 0 1 5.25 1zM4.5 9c-.277 0-.5.223-.5.5v2c0 .277.223.5.5.5h2c.277 0 .5-.223.5-.5v-2c0-.277-.223-.5-.5-.5zm.75 1h.5a.25.25 0 0 1 .25.25v.5a.25.25 0 0 1-.25.25h-.5a.25.25 0 0 1-.25-.25v-.5a.25.25 0 0 1 .25-.25z" style="marker:none" opacity=".8" fill="#5d656b" stroke-linecap="round" stroke-linejoin="round"/><path style="marker:none" opacity=".25" fill="#5d656b" stroke-linecap="round" stroke-linejoin="round" d="M6 3v6H5V3zM13 11H7v-1h6zM13 2H7V1h6z"/></svg>