<svg xmlns="http://www.w3.org/2000/svg" width="16" height="16"><path d="M10.174.002A6 6 0 0 0 4.09 5H1c-.554 0-1 .446-1 1v9c0 .554.446 1 1 1h9c.554 0 1-.446 1-1v-3.088A6 6 0 0 0 16 6 6 6 0 0 0 10.174.002zm-.03 1a5 5 0 0 1 .003 0 5 5 0 0 1 .99.129 5 5 0 0 1 2.195 1.14 5 5 0 0 1 .674.737 5 5 0 0 1 .28.414 5 5 0 0 1 0 .002 5 5 0 0 1 .425.902A5 5 0 0 1 15 6a5 5 0 0 1-.395 1.947 5 5 0 0 1-.216.45 5 5 0 0 1 0 .001 5 5 0 0 1-.1.16 5 5 0 0 1-.463.663 5 5 0 0 1-1.558 1.236 5 5 0 0 1-3.885.275 5 5 0 0 1-.461-.183 5 5 0 0 1-.002-.002A5 5 0 0 1 6.314 9.38a5 5 0 0 1-.068-.082 5 5 0 0 1-.252-.307 5 5 0 0 1-.277-.41 5 5 0 0 1-.002-.004 5 5 0 0 1-.426-.902 5 5 0 0 1-.143-.475 5 5 0 0 1-.058-.303 5 5 0 0 1-.037-.191 5 5 0 0 1-.047-.494 5 5 0 0 1 0-.004A5 5 0 0 1 5 6a5 5 0 0 1 .025-.498 5 5 0 0 1 0-.002 5 5 0 0 1 .075-.492 5 5 0 0 1 0-.002 5 5 0 0 1 .123-.483 5 5 0 0 1 0-.001 5 5 0 0 1 .172-.47 5 5 0 0 1 .478-.876 5 5 0 0 1 .303-.397 5 5 0 0 1 1.123-.986 5 5 0 0 1 .889-.453 5 5 0 0 1 1.957-.338zM1.5 6H4a6 6 0 0 0 6 5.996V14.5c0 .277-.223.5-.5.5h-8a.499.499 0 0 1-.5-.5v-8c0-.277.223-.5.5-.5z" style="marker:none" fill="#5d656b"/><path d="M1.5 6c-.277 0-.5.223-.5.5v8c0 .277.223.5.5.5h8c.277 0 .5-.223.5-.5v-2.506A6 6 0 0 1 4 6zm3.518.363a5 5 0 0 0 .023.242 5 5 0 0 1-.023-.242zm.06.483a5 5 0 0 0 .045.238 5 5 0 0 1-.045-.238zm.121.531a5 5 0 0 0 .051.168 5 5 0 0 1-.05-.168zm.158.465a5 5 0 0 0 .077.183 5 5 0 0 1-.077-.183zm.205.449a5 5 0 0 0 .088.166 5 5 0 0 1-.088-.166zm.266.455a5 5 0 0 0 .088.129 5 5 0 0 1-.088-.129zm.295.402a5 5 0 0 0 .092.114 5 5 0 0 1-.092-.114zm.356.395a5 5 0 0 0 .074.072 5 5 0 0 1-.074-.072zm.357.32a5 5 0 0 0 .1.082 5 5 0 0 1-.1-.082zm.434.319a5 5 0 0 0 .056.037 5 5 0 0 1-.056-.037zm.433.254a5 5 0 0 0 .057.029 5 5 0 0 1-.057-.03zm.438.199a5 5 0 0 0 .086.035 5 5 0 0 1-.086-.035zm.492.17a5 5 0 0 0 .056.015 5 5 0 0 1-.056-.015zm.484.111a5 5 0 0 0 .063.012 5 5 0 0 1-.063-.012zm.48.063a5 5 0 0 0 .104.007 5 5 0 0 1-.103-.007z" style="marker:none" color="#000" overflow="visible" opacity=".25" fill="#5d656b"/></svg>