<svg xmlns="http://www.w3.org/2000/svg" width="16" height="16" enable-background="new"><defs><filter id="a" color-interpolation-filters="sRGB"><feBlend mode="darken" in2="BackgroundImage"/></filter></defs><path style="text-indent:0;text-transform:none;block-progression:tb" d="M8.031 1.062a6.963 6.963 0 0 0-6.969 6.97A6.963 6.963 0 0 0 8.032 15 6.963 6.963 0 0 0 15 8.031a6.963 6.963 0 0 0-6.969-6.969zM4 4h1c.276 0 .538.1.719.281L8 6.562l2.281-2.28C10.462 4.1 10.724 4 11 4h1v1c0 .276-.1.538-.281.719L9.437 8l2.282 2.281c.18.181.281.443.281.719v1h-1c-.276 0-.538-.1-.719-.281L8 9.437 5.719 11.72A1.015 1.015 0 0 1 5 12H4v-1c0-.276.1-.538.281-.719L6.562 8l-2.28-2.281A1.015 1.015 0 0 1 4 5V4z" color="#5d656b" fill="#5d656b" enable-background="new"/></svg>