<?xml version="1.0" encoding="UTF-8" standalone="no"?>
<svg
   xmlns:dc="http://purl.org/dc/elements/1.1/"
   xmlns:cc="http://creativecommons.org/ns#"
   xmlns:rdf="http://www.w3.org/1999/02/22-rdf-syntax-ns#"
   xmlns:svg="http://www.w3.org/2000/svg"
   xmlns="http://www.w3.org/2000/svg"
   xmlns:sodipodi="http://sodipodi.sourceforge.net/DTD/sodipodi-0.dtd"
   xmlns:inkscape="http://www.inkscape.org/namespaces/inkscape"
   viewBox="0 0 22 22"
   version="1.1"
   id="svg4"
   sodipodi:docname="gpm-mouse-000.svg"
   inkscape:version="0.92.2 (5c3e80d, 2017-08-06)">
  <metadata
     id="metadata10">
    <rdf:RDF>
      <cc:Work
         rdf:about="">
        <dc:format>image/svg+xml</dc:format>
        <dc:type
           rdf:resource="http://purl.org/dc/dcmitype/StillImage" />
        <dc:title></dc:title>
      </cc:Work>
    </rdf:RDF>
  </metadata>
  <defs
     id="defs8">
    <clipPath
       clipPathUnits="userSpaceOnUse"
       id="clipPath915">
      <path
         id="path917"
         d="M 10,3 C 7.23,3 5,5.23 5,8 v 7 c 0,2.77 2.23,5 5,5 h 2 c 2.77,0 5,-2.23 5,-5 V 8 C 17,5.23 14.77,3 12,3 Z m 1,1 c 0.554,0 1,0.446 1,1 V 8 C 12,8.554 11.554,9 11,9 10.446,9 10,8.554 10,8 V 5 c 0,-0.554 0.446,-1 1,-1 z"
         style="opacity:1;fill:#ffffff;fill-opacity:0.45490196;fill-rule:nonzero;stroke:none;stroke-width:2;stroke-linecap:round;stroke-linejoin:miter;stroke-miterlimit:4;stroke-dasharray:none;stroke-dashoffset:0;stroke-opacity:1"
         inkscape:connector-curvature="0" />
    </clipPath>
    <clipPath
       clipPathUnits="userSpaceOnUse"
       id="clipPath942">
      <path
         id="path944"
         d="M 10,3 C 7.23,3 5,5.23 5,8 v 7 c 0,2.77 2.23,5 5,5 h 2 c 2.77,0 5,-2.23 5,-5 V 8 C 17,5.23 14.77,3 12,3 Z m 1,1 c 0.554,0 1,0.446 1,1 V 8 C 12,8.554 11.554,9 11,9 10.446,9 10,8.554 10,8 V 5 c 0,-0.554 0.446,-1 1,-1 z"
         style="opacity:1;fill:#ffffff;fill-opacity:0.45490196;fill-rule:nonzero;stroke:none;stroke-width:2;stroke-linecap:round;stroke-linejoin:miter;stroke-miterlimit:4;stroke-dasharray:none;stroke-dashoffset:0;stroke-opacity:1"
         inkscape:connector-curvature="0" />
    </clipPath>
    <clipPath
       clipPathUnits="userSpaceOnUse"
       id="clipPath969">
      <path
         id="path971"
         d="M 10,3 C 7.23,3 5,5.23 5,8 v 7 c 0,2.77 2.23,5 5,5 h 2 c 2.77,0 5,-2.23 5,-5 V 8 C 17,5.23 14.77,3 12,3 Z m 1,1 c 0.554,0 1,0.446 1,1 V 8 C 12,8.554 11.554,9 11,9 10.446,9 10,8.554 10,8 V 5 c 0,-0.554 0.446,-1 1,-1 z"
         style="opacity:1;fill:#ffffff;fill-opacity:0.45490196;fill-rule:nonzero;stroke:none;stroke-width:2;stroke-linecap:round;stroke-linejoin:miter;stroke-miterlimit:4;stroke-dasharray:none;stroke-dashoffset:0;stroke-opacity:1"
         inkscape:connector-curvature="0" />
    </clipPath>
    <clipPath
       id="clipPath915-5"
       clipPathUnits="userSpaceOnUse">
      <path
         inkscape:connector-curvature="0"
         style="opacity:1;fill:#ffffff;fill-opacity:0.45490196;fill-rule:nonzero;stroke:none;stroke-width:2;stroke-linecap:round;stroke-linejoin:miter;stroke-miterlimit:4;stroke-dasharray:none;stroke-dashoffset:0;stroke-opacity:1"
         d="M 10,3 C 7.23,3 5,5.23 5,8 v 7 c 0,2.77 2.23,5 5,5 h 2 c 2.77,0 5,-2.23 5,-5 V 8 C 17,5.23 14.77,3 12,3 Z m 1,1 c 0.554,0 1,0.446 1,1 V 8 C 12,8.554 11.554,9 11,9 10.446,9 10,8.554 10,8 V 5 c 0,-0.554 0.446,-1 1,-1 z"
         id="path917-3" />
    </clipPath>
    <clipPath
       id="clipPath942-5"
       clipPathUnits="userSpaceOnUse">
      <path
         inkscape:connector-curvature="0"
         style="opacity:1;fill:#ffffff;fill-opacity:0.45490196;fill-rule:nonzero;stroke:none;stroke-width:2;stroke-linecap:round;stroke-linejoin:miter;stroke-miterlimit:4;stroke-dasharray:none;stroke-dashoffset:0;stroke-opacity:1"
         d="M 10,3 C 7.23,3 5,5.23 5,8 v 7 c 0,2.77 2.23,5 5,5 h 2 c 2.77,0 5,-2.23 5,-5 V 8 C 17,5.23 14.77,3 12,3 Z m 1,1 c 0.554,0 1,0.446 1,1 V 8 C 12,8.554 11.554,9 11,9 10.446,9 10,8.554 10,8 V 5 c 0,-0.554 0.446,-1 1,-1 z"
         id="path944-6" />
    </clipPath>
    <clipPath
       id="clipPath969-2"
       clipPathUnits="userSpaceOnUse">
      <path
         inkscape:connector-curvature="0"
         style="opacity:1;fill:#ffffff;fill-opacity:0.45490196;fill-rule:nonzero;stroke:none;stroke-width:2;stroke-linecap:round;stroke-linejoin:miter;stroke-miterlimit:4;stroke-dasharray:none;stroke-dashoffset:0;stroke-opacity:1"
         d="M 10,3 C 7.23,3 5,5.23 5,8 v 7 c 0,2.77 2.23,5 5,5 h 2 c 2.77,0 5,-2.23 5,-5 V 8 C 17,5.23 14.77,3 12,3 Z m 1,1 c 0.554,0 1,0.446 1,1 V 8 C 12,8.554 11.554,9 11,9 10.446,9 10,8.554 10,8 V 5 c 0,-0.554 0.446,-1 1,-1 z"
         id="path971-9" />
    </clipPath>
    <clipPath
       id="clipPath969-2-0"
       clipPathUnits="userSpaceOnUse">
      <path
         inkscape:connector-curvature="0"
         style="opacity:1;fill:#ffffff;fill-opacity:0.45490196;fill-rule:nonzero;stroke:none;stroke-width:2;stroke-linecap:round;stroke-linejoin:miter;stroke-miterlimit:4;stroke-dasharray:none;stroke-dashoffset:0;stroke-opacity:1"
         d="M 10,3 C 7.23,3 5,5.23 5,8 v 7 c 0,2.77 2.23,5 5,5 h 2 c 2.77,0 5,-2.23 5,-5 V 8 C 17,5.23 14.77,3 12,3 Z m 1,1 c 0.554,0 1,0.446 1,1 V 8 C 12,8.554 11.554,9 11,9 10.446,9 10,8.554 10,8 V 5 c 0,-0.554 0.446,-1 1,-1 z"
         id="path971-9-9" />
    </clipPath>
    <clipPath
       clipPathUnits="userSpaceOnUse"
       id="clipPath1040">
      <path
         id="path1042"
         d="M 10,3 C 7.23,3 5,5.23 5,8 v 7 c 0,2.77 2.23,5 5,5 h 2 c 2.77,0 5,-2.23 5,-5 V 8 C 17,5.23 14.77,3 12,3 Z m 1,1 c 0.554,0 1,0.446 1,1 V 8 C 12,8.554 11.554,9 11,9 10.446,9 10,8.554 10,8 V 5 c 0,-0.554 0.446,-1 1,-1 z"
         style="opacity:1;fill:#ffffff;fill-opacity:0.45490196;fill-rule:nonzero;stroke:none;stroke-width:2;stroke-linecap:round;stroke-linejoin:miter;stroke-miterlimit:4;stroke-dasharray:none;stroke-dashoffset:0;stroke-opacity:1"
         inkscape:connector-curvature="0" />
    </clipPath>
  </defs>
  <sodipodi:namedview
     pagecolor="#696969"
     bordercolor="#666666"
     borderopacity="1"
     objecttolerance="10"
     gridtolerance="10"
     guidetolerance="10"
     inkscape:pageopacity="0"
     inkscape:pageshadow="2"
     inkscape:window-width="1360"
     inkscape:window-height="712"
     id="namedview6"
     showgrid="true"
     inkscape:zoom="21.454545"
     inkscape:cx="11.534851"
     inkscape:cy="9.3478382"
     inkscape:window-x="0"
     inkscape:window-y="24"
     inkscape:window-maximized="1"
     inkscape:current-layer="svg4">
    <inkscape:grid
       type="xygrid"
       id="grid817" />
  </sodipodi:namedview>
  <path
     style="opacity:1;fill:#f16f6f;fill-opacity:1;fill-rule:nonzero;stroke:none;stroke-width:2;stroke-linecap:round;stroke-linejoin:miter;stroke-miterlimit:4;stroke-dasharray:none;stroke-dashoffset:0;stroke-opacity:1"
     d="M 10 3 C 7.23 3 5 5.23 5 8 L 5 15 C 5 17.77 7.23 20 10 20 L 12 20 C 14.77 20 17 17.77 17 15 L 17 8 C 17 5.23 14.77 3 12 3 L 10 3 z M 11 4 C 11.554 4 12 4.446 12 5 L 12 8 C 12 8.554 11.554 9 11 9 C 10.446 9 10 8.554 10 8 L 10 5 C 10 4.446 10.446 4 11 4 z "
     id="rect819" />
</svg>
