<svg xmlns="http://www.w3.org/2000/svg" width="22" height="22" viewBox="0 0 5.821 5.821"><g transform="translate(0 -291.18)"><rect width="3.704" height="3.704" x="1.587" y="292.767" rx=".265" ry=".265" fill="#3c4049" fill-opacity=".8" paint-order="markers stroke fill"/><path style="line-height:normal;-inkscape-font-specification:'Andale Mono';text-indent:0;text-align:start;text-decoration-line:none;text-transform:none;marker:none" d="M2.646 293.825H2.851c.05.002.101.026.136.062l.453.453.459-.453c.052-.046.088-.06.136-.062h.198v.198c0 .057-.006.11-.05.15l-.452.452.447.446c.037.038.055.09.055.143v.198h-.198a.201.201 0 0 1-.143-.055l-.452-.453-.453.453a.201.201 0 0 1-.142.055h-.199v-.198c0-.053.019-.105.056-.143l.453-.446-.453-.453a.18.18 0 0 1-.056-.149v-.198z" color="#bebebe" font-weight="400" font-family="Andale Mono" overflow="visible" fill="#fff" stroke-width=".265"/></g></svg>