<svg xmlns="http://www.w3.org/2000/svg" width="22" height="22" viewBox="0 0 5.821 5.821"><g transform="translate(0 -291.18)"><rect width="3.704" height="3.704" x="1.587" y="292.767" rx=".265" ry=".265" fill="#3c4049" fill-opacity=".8" paint-order="markers stroke fill"/><path d="M3.969 293.56a.397.397 0 0 0-.397.397c0 .03.006.058.012.087l-.426.265a.397.397 0 1 0 0 .62l.426.264a.38.38 0 0 0-.012.087.397.397 0 1 0 .149-.31l-.426-.264a.38.38 0 0 0 .012-.087.38.38 0 0 0-.012-.087l.426-.265a.397.397 0 1 0 .248-.707z" fill="#fff"/></g></svg>