<svg xmlns="http://www.w3.org/2000/svg" width="22" height="22" viewBox="0 0 5.821 5.821"><g transform="translate(0 -291.18)"><rect width="3.704" height="3.704" x="1.587" y="292.767" rx=".265" ry=".265" fill="#3c4049" fill-opacity=".8" paint-order="markers stroke fill"/><g stroke-width=".265" color="#000" fill="#fff"><path d="M3.35 293.473c-.037.001-.069.008-.104.013a1.1 1.1 0 0 0-.91.807c-.025.094-.034.189-.034.282h.358c0-.062.011-.13.028-.193a.733.733 0 0 1 .902-.517.71.71 0 0 1 .324.193l-.33.297H4.5v-.882l-.324.323a1.092 1.092 0 0 0-.496-.282 1.124 1.124 0 0 0-.33-.041zM4.219 294.662a.716.716 0 0 1-.02.187.737.737 0 0 1-.903.523.71.71 0 0 1-.324-.193l.33-.296h-.916v.882l.317-.324c.137.136.312.232.503.283.11.029.216.046.324.04.036 0 .075-.008.11-.013a1.1 1.1 0 0 0 .91-.806c.025-.095.027-.189.027-.283H4.22z" style="marker:none" display="block" overflow="visible"/></g></g></svg>