<svg width="16" height="16" version="1.1" xmlns="http://www.w3.org/2000/svg">
 <defs>
  <style id="current-color-scheme" type="text/css">.ColorScheme-Text { color:#d3dae3; } .ColorScheme-Highlight { color:#5294e2; }</style>
 </defs>
 <path class="ColorScheme-Text" d="m8.0005 1.1774e-4c-4.4143 0-8.0001 3.5855-8.0001 8 0 4.4137 3.5858 8 8.0001 8s8.0001-3.5862 8.0001-8c0-4.4144-3.5858-8-8.0001-8z" fill="currentColor" opacity=".25"/>
 <path d="m8.0703 1.5469a0.42474 0.42474 0 1 0 0.0039063 0.84961c0.45889-0.0021741 0.88802 0.33929 1.2715 1.002-0.61735 0.26929-1.2508 0.6343-1.8789 1.0879-0.2329 0.16818-0.46282 0.34926-0.69141 0.53711-0.18556 0.01815-0.37302 0.031879-0.55469 0.056641-0.74826 0.10197-1.4485 0.26593-2.082 0.48242 0.14241-0.16929 0.24474-0.38659 0.24609-0.63281 0.0016218-0.29672-0.124-0.57445-0.31836-0.74805-0.19436-0.1736-0.43871-0.25-0.67578-0.25-0.23707 0-0.47751 0.076402-0.67188 0.25-0.19436 0.1736-0.31998 0.45133-0.31836 0.74805 0.00161 0.29425 0.12665 0.56677 0.32031 0.73828 0.10331 0.091497 0.22155 0.15292 0.34375 0.19336 0.011553 0.048888 0.02391 0.097476 0.037109 0.14648-0.051882 0.028053-0.11216 0.050875-0.16211 0.080078-0.86187 0.50394-1.4806 1.2558-1.3848 2.1621a0.42531 0.42531 0 1 0 0.8457-0.089844c-0.051407-0.48588 0.25586-0.92101 0.96875-1.3379 0.0046717-0.0027313 0.010923-0.0050893 0.015625-0.0078125 0.17265 0.39842 0.3737 0.7973 0.62305 1.1914 0.01053 0.016645 0.024505 0.0322 0.035156 0.048828-0.37293 0.58443-0.66979 1.1888-0.87695 1.7988-0.22774 0.035199-0.4404 0.12204-0.58008 0.27539-0.17865 0.19614-0.25781 0.44317-0.25781 0.68359 0 0.24042 0.079164 0.4855 0.25781 0.68164 0.17865 0.19614 0.46492 0.31839 0.76758 0.30859 0.28812-0.0093 0.5544-0.13807 0.7207-0.33008 0.1663-0.19201 0.24023-0.4279 0.24023-0.66016 0-0.23226-0.073936-0.4701-0.24023-0.66211-0.023687-0.027348-0.062356-0.041788-0.089844-0.066407 0.14701-0.41476 0.34709-0.83514 0.5957-1.2559 0.61365 0.80551 1.3514 1.5709 2.1328 2.2344 0.6984 0.593 1.4298 1.0937 2.1504 1.4746-0.087826 0.039809-0.17588 0.082439-0.25195 0.15039-0.19436 0.1736-0.31998 0.44938-0.31836 0.74609 0.0015999 0.29426 0.1286 0.56872 0.32227 0.74023 0.19366 0.17151 0.43618 0.24609 0.67188 0.24609s0.47627-0.074574 0.66992-0.24609c0.19366-0.17151 0.3187-0.44598 0.32031-0.74023 6.62e-4 -0.12288-0.031476-0.23767-0.070313-0.34766 0.94422 0.26348 1.8681 0.2341 2.4902-0.38867a0.42474 0.42474 0 1 0-0.59961-0.60156c-0.32424 0.32454-0.86422 0.38489-1.584 0.19727 0.65279-1.6023 0.80943-3.6806 0.62109-5.5879-0.018213-0.18443-0.047332-0.36239-0.072266-0.54297 0.49342 0.12803 0.95594 0.285 1.3574 0.48438-0.005689 0.043042-0.027101 0.080753-0.027344 0.125-0.0016 0.29681 0.12395 0.5744 0.31836 0.74805 0.19441 0.17365 0.43864 0.25 0.67578 0.25 0.23714 0 0.47942-0.076353 0.67383-0.25 0.19441-0.17365 0.31998-0.45124 0.31836-0.74805-0.001614-0.29436-0.12855-0.56868-0.32226-0.74023-0.19372-0.17156-0.43416-0.24805-0.66992-0.24805-0.1732 0-0.34356 0.05829-0.50195 0.14844-0.59378-0.31408-1.2695-0.54382-1.9883-0.70312-0.10288-0.47558-0.22641-0.92988-0.38281-1.3438 0.024951-0.0062138 0.053565-0.017854 0.078125-0.023438 0.7553-0.17172 1.2372-0.069633 1.5215 0.30469a0.42495 0.42495 0 1 0 0.67578-0.51367c-0.26631-0.3506-0.63101-0.55855-1.0449-0.65234-0.41388-0.093796-0.87787-0.074224-1.3418 0.03125-0.079698 0.018119-0.16324 0.05153-0.24414 0.074219-0.48328-0.89447-1.1821-1.5628-2.0879-1.5586zm1.6406 2.6211c0.10506 0.27749 0.19985 0.57671 0.28125 0.89844-0.55403-0.075006-1.121-0.11357-1.6895-0.11719 0.4834-0.3229 0.9587-0.5869 1.4082-0.78125zm-1.5391 1.6367c0.6811 0.0037281 1.3598 0.062972 2.0059 0.16992 0.043865 0.2657 0.083925 0.53693 0.11133 0.81445 0.17846 1.8073-0.032882 3.7942-0.5957 5.2109-0.77335-0.34858-1.6232-0.89924-2.4297-1.584-0.81724-0.69389-1.5774-1.5136-2.1816-2.3516 0.57758-0.80153 1.287-1.5656 2.0469-2.2207 0.34453-0.024843 0.69286-0.040979 1.043-0.039062zm-2.4961 0.23047c-0.39278 0.39784-0.7623 0.81628-1.0977 1.2559-0.16464-0.28191-0.30246-0.55886-0.41797-0.83203 0.44883-0.17173 0.96049-0.31562 1.5156-0.42383z" style="fill:currentColor" class="ColorScheme-Text"/>
 <path d="m8 0c-4.4143 0-8 3.5855-8 8 0 4.4137 3.5857 8 8 8s8-3.5862 8-8c0-4.4144-3.5857-8-8-8zm0 1c3.8626 0 7 3.1373 7 7 0 3.8621-3.1374 7-7 7s-7-3.1379-7-7c0-3.8628 3.1374-7 7-7z" style="fill:currentColor" class="ColorScheme-Text"/>
</svg>
