<svg width="16" height="16" version="1.1" xmlns="http://www.w3.org/2000/svg">
 <defs>
  <style id="current-color-scheme" type="text/css">.ColorScheme-Text { color:#d3dae3; } .ColorScheme-Highlight { color:#5294e2; }</style>
 </defs>
 <path d="m14.145 4.5-1.11 10.512c-0.029 0.27-0.23 0.49-0.517 0.49h-9.035c-0.286 0-0.489-0.22-0.517-0.49l-1.11-10.512z" color="#d3dae3" fill="#d3dae3" opacity=".25"/>
 <path class="ColorScheme-Text" d="m3.154 0.92561 0.35644 3.371h8.9791l0.35644-3.371h-9.692z" fill="currentColor" opacity=".15"/>
 <g style="fill:currentColor" class="ColorScheme-Text">
  <path d="m2.8164 0c-0.37463 0-0.64771 0.283-0.77344 0.51758s-0.18685 0.47824-0.23633 0.7207v0.00195l-0.4668 2.3223c-0.072408 0.36286 0.02033 0.70716 0.19531 0.96484s0.44013 0.47266 0.81445 0.47266h11.301c0.37463 0 0.6398-0.2168 0.81445-0.47461s0.26662-0.59989 0.19336-0.96289h2e-3l-0.4688-2.3223c-0.048522-0.24316-0.10686-0.48767-0.23242-0.72266-0.12556-0.23498-0.40076-0.51758-0.77539-0.51758zm0.10352 1h10.16c0.03949 0.07698 0.09227 0.2441 0.13086 0.4375l0.46875 2.3223c0.01574 0.078001-0.0081 0.15363-0.04297 0.20508-0.03485 0.051444-0.07395 0.035156 0.01367 0.035156h-11.301c0.086324 0 0.048689 0.016411 0.013672-0.035156-0.035014-0.051567-0.058557-0.12694-0.042966-0.20508l0.4668-2.3203v-0.00195c0.039575-0.19314 0.09315-0.36045 0.13281-0.4375z"/>
  <path d="m5.767 11.817a1.05 1.05 0 0 0-0.126 0.434c0 0.027 0 0.062 7e-3 0.111l-0.872-1.502a0.39 0.39 0 0 1-0.049-0.182c0-0.063 0.021-0.14 0.049-0.188l0.419-0.734-0.468-0.265 1.522-0.028 0.74 1.334-0.475-0.272zm0.67-4.397a0.681 0.681 0 0 1 0.614-0.357c0.286 0 0.51 0.133 0.67 0.405l0.237 0.398-0.824 1.59-1.332-0.94zm0.097 5.606a0.73 0.73 0 0 1-0.725-0.727c0-0.111 0.049-0.3 0.118-0.419l0.224-0.398h1.654v1.544h-1.27zm1.326-5.649a0.856 0.856 0 0 0-0.41-0.377h1.716c0.154 0 0.272 0.063 0.342 0.182l0.426 0.727 0.46-0.273-0.74 1.328-1.513-0.022 0.467-0.265zm2.645 4.119c0.21 0 0.384-0.056 0.53-0.168l-0.865 1.51a0.377 0.377 0 0 1-0.342 0.188h-0.816v0.538l-0.782-1.307 0.782-1.306v0.545zm0.67-1.258c0.063 0.112 0.098 0.23 0.098 0.357 0 0.251-0.16 0.517-0.384 0.642a0.778 0.778 0 0 1-0.398 0.091h-0.46l-0.824-1.425 1.333-0.762z"/>
  <path d="m1.3008 4 1.168 11.064c0.050702 0.48891 0.47126 0.9375 1.0137 0.9375h9.0352c0.54252 0 0.96155-0.45226 1.0137-0.9375l1.1699-11.064h-0.55664zm1.1113 1h11.178l-1.0527 9.959c-0.0059 0.05476 0.01195 0.04297-0.01953 0.04297h-9.0352c-0.02959 0-0.014233 0.01008-0.019531-0.04101v-2e-3z"/>
 </g>
</svg>
