<?xml version="1.0" encoding="UTF-8" standalone="no"?>
<!-- Created with Inkscape (http://www.inkscape.org/) -->

<svg
   xmlns:dc="http://purl.org/dc/elements/1.1/"
   xmlns:cc="http://creativecommons.org/ns#"
   xmlns:rdf="http://www.w3.org/1999/02/22-rdf-syntax-ns#"
   xmlns:svg="http://www.w3.org/2000/svg"
   xmlns="http://www.w3.org/2000/svg"
   xmlns:sodipodi="http://sodipodi.sourceforge.net/DTD/sodipodi-0.dtd"
   xmlns:inkscape="http://www.inkscape.org/namespaces/inkscape"
   width="192"
   height="192"
   viewBox="0 0 50.799999 50.800001"
   version="1.1"
   id="svg8"
   inkscape:version="0.92.4 5da689c313, 2019-01-14"
   sodipodi:docname="logo.svg">
  <defs
     id="defs2" />
  <sodipodi:namedview
     id="base"
     pagecolor="#ffffff"
     bordercolor="#666666"
     borderopacity="1.0"
     inkscape:pageopacity="0.0"
     inkscape:pageshadow="2"
     inkscape:zoom="1.4"
     inkscape:cx="81.713616"
     inkscape:cy="65.025253"
     inkscape:document-units="mm"
     inkscape:current-layer="layer1"
     showgrid="false"
     units="px"
     inkscape:window-width="1920"
     inkscape:window-height="1027"
     inkscape:window-x="0"
     inkscape:window-y="30"
     inkscape:window-maximized="1" />
  <metadata
     id="metadata5">
    <rdf:RDF>
      <cc:Work
         rdf:about="">
        <dc:format>image/svg+xml</dc:format>
        <dc:type
           rdf:resource="http://purl.org/dc/dcmitype/StillImage" />
        <dc:title></dc:title>
      </cc:Work>
    </rdf:RDF>
  </metadata>
  <g
     inkscape:label="Capa 1"
     inkscape:groupmode="layer"
     id="layer1"
     transform="translate(0,-246.19998)">
    <path
       style="opacity:1;fill:#333333;fill-opacity:1;stroke:none;stroke-width:0.2340834;stroke-linecap:round;stroke-linejoin:round;stroke-miterlimit:4;stroke-dasharray:none;stroke-opacity:1"
       d="m 15.339286,252.25829 -10.8989705,18.1038 6.8052035,12.30149 0.03414,-0.11376 c 0.178283,-0.59429 0.645703,-1.07568 1.023576,-1.29897 0.352473,-0.20828 0.624906,-0.26281 0.863021,-0.30282 l -2.32e-4,-2.3e-4 c 0.516959,-0.10008 1.045779,-0.0458 1.492336,0.0933 0.552839,0.16336 1.081848,0.4941 1.444194,0.90174 0.07281,0.0819 0.0844,0.19189 0.144418,0.28158 0.06947,0.007 0.1592,-0.0196 0.222684,-0.006 l 0.01213,0.003 0.01129,0.002 c 0.301119,0.0669 0.589751,0.20015 0.850647,0.36387 0.164435,-0.0411 0.330341,-0.0751 0.491888,-0.0933 l -6.781272,-11.74543 7.257017,-12.56934 h 14.513763 l 7.25697,12.56929 -7.14783,12.38028 c 0.0128,0.0146 0.02722,0.0289 0.03955,0.0436 0.189921,0.22471 0.353601,0.50921 0.471717,0.82242 0.165583,-0.026 0.327122,-0.0848 0.492963,-0.0885 l 0.02342,-7e-4 h 0.02342 c 0.138861,0 0.284652,0.0918 0.428956,0.10865 0.101909,-0.0246 0.153787,-0.0825 0.270279,-0.0955 0.457158,-0.0508 0.754728,0.0122 1.004215,0.0976 l 2.440612,-0.97597 -0.239892,0.58252 c 0.236609,-0.0118 0.466255,-0.0851 0.699235,-0.0508 0.179609,0.026 0.360587,0.0719 0.540838,0.13232 l 7.566511,-12.56874 -10.229047,-18.49054 z m -0.974628,30.43703 -0.0753,0.0608 c 0.01229,-0.0104 0.03206,-0.0111 0.04466,-0.0212 0.01269,-0.0103 0.01775,-0.0296 0.03065,-0.0395 z m -0.68875,0.27028 c -0.04138,0.003 -0.08231,0.008 -0.122638,0.0166 -0.161317,0.0255 -0.254758,0.0805 -0.280232,0.1654 0.06792,0.0425 0.09336,0.14004 0.07638,0.29287 l -1.865084,5.52855 c -0.02826,0.0333 -0.05508,0.0664 -0.08659,0.10058 -0.0934,0.11038 -0.190993,0.21239 -0.292874,0.30578 -0.101884,0.0849 -0.199481,0.15265 -0.292876,0.20359 -0.09339,0.0425 -0.16997,0.051 -0.229405,0.0256 -0.05943,-0.017 -0.09316,-0.0764 -0.101654,-0.17831 0,-0.10187 0.03373,-0.26307 0.101654,-0.48381 l 0.57311,-1.66849 c 0.01697,-0.0679 0.02997,-0.12736 0.03846,-0.17831 0.0085,-0.051 0.0168,-0.0977 0.02529,-0.14012 0.03398,-0.26319 -0.01692,-0.4711 -0.152756,-0.62393 -0.135847,-0.15282 -0.292885,-0.25484 -0.471184,-0.30578 -0.178292,-0.0595 -0.348051,-0.0721 -0.509367,-0.0382 -0.1613167,0.0255 -0.2547588,0.0808 -0.2802346,0.16566 0.059436,0.0425 0.080723,0.12733 0.063745,0.25469 -0.1103774,-0.13585 -0.2463963,-0.23759 -0.4077127,-0.30551 -0.1528233,-0.068 -0.318427,-0.10635 -0.4967261,-0.11484 -0.3481023,-0.017 -0.6621808,0.0552 -0.9423572,0.21649 -0.2716868,0.15284 -0.5094555,0.35659 -0.7132215,0.6113 -0.2037684,0.25471 -0.3735273,0.5392 -0.5093674,0.85334 -0.1273535,0.30565 -0.2163844,0.60701 -0.2673277,0.90417 -0.00806,0.0468 -0.014478,0.0934 -0.020705,0.13985 -0.011805,0.0131 -0.024775,0.0238 -0.035755,0.0384 -0.1952747,0.29716 -0.4203225,0.53934 -0.6750294,0.72613 -0.2462226,0.17829 -0.5091536,0.32676 -0.7893345,0.44563 l -0.1148373,0.0382 c -0.016964,-0.1783 -0.046579,-0.34805 -0.089015,-0.50937 -0.042466,-0.1783 -0.1527647,-0.33118 -0.3310637,-0.45854 -0.16981,-0.13584 -0.4330106,-0.21657 -0.7896017,-0.24204 0.2547069,-0.10188 0.5306282,-0.22492 0.8277894,-0.36926 0.3056525,-0.15282 0.5815715,-0.32672 0.8277917,-0.522 0.246218,-0.20377 0.4455617,-0.43323 0.5983845,-0.68794 0.1528251,-0.2632 0.2122666,-0.56456 0.1783107,-0.90418 -0.00848,-0.0849 -0.02124,-0.14849 -0.038199,-0.19094 -0.00848,-0.0425 -0.025346,-0.0679 -0.050846,-0.0764 -0.025451,-0.017 -0.063629,-0.0214 -0.1145724,-0.0129 H 5.7379471 3.3180429 c -0.1188645,0 -0.2250268,0.034 -0.318422,0.10193 -0.084904,0.0595 -0.1526415,0.13601 -0.2035871,0.22941 -0.067921,0.11886 -0.1104916,0.26733 -0.127472,0.44563 -0.00848,0.1698 0.016964,0.32684 0.076378,0.47117 0.016964,0.0679 0.055405,0.14865 0.1148373,0.24205 0.059432,0.0849 0.1315898,0.12306 0.2164914,0.11457 0.00848,-0.0679 0.093369,-0.12295 0.2546859,-0.1654 l 2.0374743,-0.16567 c -0.2037683,0.19528 -0.4539833,0.37361 -0.7511468,0.53493 -0.2886698,0.16131 -0.5985935,0.30148 -0.9297153,0.42034 -0.3226329,0.11038 -0.649695,0.1994 -0.9808168,0.26733 -0.3226328,0.0595 -0.6239908,0.089 -0.9041671,0.089 -0.067926,-0.008 -0.1060787,0.0214 -0.1145676,0.0893 -0.016964,0.0679 -0.012851,0.15696 0.012642,0.26733 0.025451,0.11037 0.063622,0.22925 0.1145676,0.3566 0.05095,0.11887 0.1062298,0.2336 0.1656621,0.34398 0.084901,-0.008 0.1869205,-0.0256 0.3057826,-0.0511 0.1273581,-0.0255 0.2462388,-0.0423 0.3566097,-0.0508 0.1188668,-0.017 0.2247619,-0.017 0.3181594,0 0.09339,0.017 0.1613977,0.0679 0.2038497,0.15276 0.05095,0.0934 0.076378,0.22084 0.076378,0.38216 0.00848,0.15282 -7.67e-5,0.31844 -0.025553,0.49673 -0.2037684,0.0849 -0.3989594,0.17835 -0.5857451,0.28023 -0.1867857,0.11038 -0.3606904,0.23341 -0.5220091,0.36925 -0.1528228,0.14434 -0.2888465,0.30994 -0.4077063,0.49673 -0.1188645,0.18678 -0.2078955,0.40327 -0.2673278,0.64949 -0.042466,0.15282 -0.059588,0.314 -0.051106,0.48382 0.00848,0.1698 0.046891,0.32684 0.1148373,0.47118 0.059432,0.14433 0.1526113,0.26321 0.2799648,0.3566 0.1188645,0.0934 0.27175,0.14012 0.4585357,0.14012 0.2377312,0 0.462779,-0.0423 0.6750363,-0.12721 0.2207487,-0.0849 0.4203573,-0.20378 0.5986564,-0.3566 0.1782967,-0.14434 0.3353303,-0.3141 0.4711774,-0.50937 0.1443361,-0.18679 0.2587969,-0.3864 0.3437007,-0.59866 0.00848,0 0.033931,-0.0595 0.076382,-0.1783 0.042466,-0.11887 0.085022,-0.25462 0.1274743,-0.40745 0.050948,-0.14433 0.097666,-0.2845 0.1401183,-0.42035 0.042466,-0.13584 0.067884,-0.22072 0.076378,-0.25468 0.1528228,-0.051 0.3012953,-0.10624 0.4456314,-0.16566 0.1443338,-0.0595 0.2845009,-0.12744 0.420348,-0.20386 0.2632006,-0.13585 0.5136805,-0.3139 0.7514118,-0.53465 0.071351,-0.0664 0.1413685,-0.14226 0.2105795,-0.22295 0.011596,0.0364 0.023052,0.0728 0.036847,0.10811 0.084901,0.18679 0.2165029,0.3441 0.3947996,0.47145 0.1782944,0.11887 0.4160606,0.19102 0.7132243,0.21649 0.1613164,0.017 0.3097842,-0.004 0.445627,-0.0637 0.1358468,-0.0679 0.25888,-0.1528 0.3692511,-0.25468 0.118867,-0.10189 0.2208787,-0.21662 0.3057824,-0.34397 0.093395,-0.13586 0.1741232,-0.26745 0.2420442,-0.3948 0.042469,0.29715 0.1613332,0.54764 0.3566122,0.7514 0.2037686,0.20377 0.5051266,0.30578 0.9041674,0.30578 0.229461,-0.01 0.442836,-0.0661 0.641422,-0.16566 l -0.485435,1.43908 c -0.01697,0.0679 -0.02971,0.14008 -0.0382,0.2165 -0.01697,0.0764 -0.02971,0.15714 -0.0382,0.24204 -0.02545,0.19528 -0.02988,0.38632 -0.0129,0.57311 0.01697,0.18679 0.0637,0.34797 0.140114,0.48382 0.07642,0.14433 0.18673,0.25465 0.331066,0.33106 0.144334,0.0764 0.331224,0.10627 0.560461,0.0893 0.407535,-0.017 0.721614,-0.13172 0.942362,-0.34397 0.220744,-0.20377 0.377782,-0.4584 0.471177,-0.76406 0.09339,-0.30565 0.135968,-0.64516 0.127475,-1.01873 -0.0085,-0.37358 -0.0381,-0.73437 -0.08902,-1.08248 0.373578,-0.0425 0.708936,-0.20806 1.006097,-0.49673 0.105456,-0.0996 0.204587,-0.2075 0.300943,-0.31922 0.01108,0.0344 0.02128,0.0692 0.03471,0.10274 0.0849,0.21225 0.220655,0.38616 0.407441,0.522 0.186786,0.12736 0.441421,0.19121 0.764049,0.19121 0.390554,-0.017 0.743053,-0.16986 1.057199,-0.45853 0.173765,-0.16438 0.334503,-0.34754 0.48489,-0.54568 0.01301,-0.0129 0.02618,-0.025 0.03872,-0.0403 0.118867,-0.15283 0.229447,-0.31401 0.331331,-0.48382 0.110376,-0.1698 0.216274,-0.34398 0.318157,-0.52228 0.186786,-0.32263 0.35681,-0.64085 0.509638,-0.955 0.152822,-0.32263 0.284424,-0.61983 0.394799,-0.89152 0.02545,0 0.06362,0.004 0.114568,0.0127 0.05095,0.008 0.09324,0.0212 0.127207,0.0382 l -0.560197,1.69404 c -0.07642,0.24622 -0.123138,0.4967 -0.140118,0.75141 -0.0085,0.24622 0.02966,0.47542 0.114565,0.68768 0.08491,0.21226 0.220656,0.38616 0.407442,0.52201 0.186788,0.12735 0.441691,0.19121 0.764324,0.19121 0.390554,-0.017 0.742779,-0.16986 1.056923,-0.45854 0.120084,-0.11359 0.232902,-0.23791 0.341822,-0.36764 0.09788,0.22402 0.244824,0.41061 0.442133,0.55859 0.246219,0.1783 0.568863,0.26759 0.967905,0.26759 0.246218,0 0.483715,-0.0384 0.712958,-0.11484 0.229237,-0.0849 0.441566,-0.19936 0.63684,-0.3437 0.322633,0.16132 0.645277,0.22906 0.96791,0.20358 0.322633,-0.0255 0.615685,-0.18665 0.878886,-0.48381 0.101882,-0.11887 0.195061,-0.2419 0.279963,-0.36925 0.09339,-0.12736 0.18269,-0.26337 0.267597,-0.40771 0.06792,-0.12736 0.08064,-0.23767 0.0382,-0.33107 -0.04247,-0.10188 -0.110466,-0.16989 -0.203856,-0.20385 -0.0849,-0.0255 -0.165365,-0.0169 -0.241773,0.0255 -0.06792,0.034 -0.127365,0.0848 -0.178308,0.15276 -0.07641,0.13585 -0.178424,0.27186 -0.305783,0.40771 -0.127353,0.12735 -0.254807,0.23352 -0.38216,0.31842 -0.152828,0.10188 -0.318162,0.12732 -0.49646,0.0764 0.280182,-0.34811 0.488092,-0.73461 0.623939,-1.15912 0.144335,-0.42452 0.199624,-0.83204 0.165662,-1.22259 -0.02545,-0.39056 -0.157069,-0.72591 -0.3948,-1.0061 -0.229238,-0.28867 -0.581738,-0.467 -1.057194,-0.53491 -0.229238,-0.034 -0.458434,-0.0168 -0.687671,0.0511 -0.220749,0.0679 -0.420358,0.17409 -0.598657,0.31843 -0.169804,0.13584 -0.309705,0.30559 -0.420083,0.50936 -0.101883,0.19527 -0.157174,0.4076 -0.165662,0.63685 -0.110376,-0.0255 -0.220692,-0.0172 -0.331064,0.0253 -0.101883,0.034 -0.191178,0.12325 -0.267593,0.26759 -0.178298,0.41603 -0.297178,0.81498 -0.356611,1.19704 -0.0064,0.0482 -0.0084,0.0938 -0.01264,0.14066 -0.0642,0.094 -0.137893,0.19117 -0.223487,0.29233 -0.0934,0.11038 -0.190992,0.21239 -0.292875,0.30578 -0.10189,0.0849 -0.19948,0.15265 -0.29287,0.20359 -0.0934,0.0425 -0.169971,0.051 -0.229404,0.0255 -0.05944,-0.017 -0.09317,-0.0764 -0.101666,-0.17831 0,-0.10189 0.03373,-0.25892 0.101666,-0.47118 l 0.560463,-1.68113 c 0.04247,-0.12735 0.06789,-0.23352 0.07638,-0.31842 0.01697,-0.14433 0.0042,-0.27593 -0.0382,-0.3948 -0.03398,-0.11887 -0.0934,-0.21646 -0.178303,-0.29287 -0.0849,-0.0849 -0.186651,-0.15265 -0.305511,-0.20359 -0.110378,-0.051 -0.233677,-0.0808 -0.369524,-0.0893 -0.110377,-0.017 -0.22484,-0.0255 -0.3437,-0.0255 -0.110377,-0.008 -0.212391,-0.0168 -0.305782,-0.0253 0,-0.008 0.0086,-0.0806 0.02555,-0.21649 0.01697,-0.14434 0.01285,-0.30165 -0.01264,-0.47146 -0.02545,-0.1698 -0.08492,-0.32242 -0.178308,-0.45826 -0.0934,-0.14434 -0.254854,-0.2165 -0.484091,-0.2165 -0.178292,0 -0.335331,0.0467 -0.471177,0.14012 -0.127354,0.0934 -0.224951,0.21227 -0.292869,0.35661 -0.05944,0.13584 -0.08929,0.28846 -0.08929,0.45827 0.0085,0.16131 0.05964,0.31835 0.153028,0.47118 0.11037,0.19528 0.280129,0.35258 0.509367,0.47144 -0.01697,0.0849 -0.05955,0.20794 -0.127479,0.36925 -0.05943,0.15283 -0.135738,0.32673 -0.229133,0.52201 -0.09339,0.19528 -0.199558,0.39905 -0.318422,0.6113 -0.118867,0.21226 -0.241896,0.41602 -0.36925,0.61129 -0.06792,0.10189 -0.135935,0.19975 -0.203856,0.29315 -0.05335,0.0734 -0.106671,0.14192 -0.16002,0.21003 -0.09169,0.10784 -0.18738,0.20782 -0.287224,0.29933 -0.101882,0.0849 -0.199479,0.15265 -0.292874,0.20359 -0.09339,0.0425 -0.16997,0.051 -0.229405,0.0255 -0.05943,-0.017 -0.09344,-0.0764 -0.101924,-0.1783 0,-0.10188 0.03398,-0.26307 0.101924,-0.48382 l 0.560469,-1.66848 c 0.04247,-0.12737 0.06789,-0.23353 0.07638,-0.31843 0.03398,-0.2632 -0.01692,-0.47111 -0.152756,-0.62394 -0.135847,-0.15282 -0.297303,-0.25484 -0.484091,-0.30578 -0.178292,-0.0595 -0.348051,-0.0722 -0.509367,-0.0382 -0.161317,0.0255 -0.254758,0.0808 -0.280232,0.16567 0.06792,0.0425 0.08921,0.14004 0.06374,0.29287 l -0.662127,2.0251 c -0.02066,0.0599 -0.03903,0.11983 -0.05513,0.18019 -0.02992,0.0263 -0.05964,0.0586 -0.08956,0.0998 -0.06792,0.10189 -0.152797,0.20805 -0.254681,0.31843 -0.09339,0.11038 -0.191257,0.21239 -0.293146,0.30578 -0.101884,0.0849 -0.199478,0.15265 -0.292869,0.20358 -0.09339,0.0425 -0.169706,0.051 -0.22914,0.0256 -0.05095,-0.017 -0.08494,-0.072 -0.101924,-0.1654 -0.0085,-0.0934 0.02107,-0.23798 0.08902,-0.43326 l 1.604752,-4.75024 c 0.01697,-0.0595 0.02971,-0.11446 0.0382,-0.16539 0.0085,-0.051 0.01706,-0.0977 0.02555,-0.14013 0.03398,-0.26319 -0.01692,-0.47137 -0.152755,-0.6242 -0.135847,-0.15282 -0.297301,-0.25456 -0.484091,-0.30551 -0.133719,-0.0446 -0.262559,-0.0628 -0.386729,-0.0549 z m 6.335364,0.35258 c 0.09384,0.0958 0.180593,0.19906 0.255758,0.31196 0.103498,0.15439 0.126719,0.34095 0.201437,0.51233 0.0331,0.0134 0.06671,0.009 0.09951,0.0242 0.114697,0.0504 0.212381,0.15183 0.324341,0.21864 0.0021,-10e-4 0.0031,-0.005 0.0052,-0.006 0.234562,-0.18917 0.522649,-0.29452 0.796867,-0.42492 l 0.01426,-0.0344 0.01213,0.0212 c 0.161103,-0.0751 0.298646,-0.19736 0.466604,-0.24904 l 0.0102,-0.003 0.01103,-0.003 c 0.500109,-0.14818 1.053696,-0.1916 1.58055,-0.11403 0.827352,0.11967 1.748186,0.52315 2.362349,1.28068 0.493189,0.59508 0.787297,1.37147 0.849843,2.11735 0.145047,0.10806 0.281029,0.19277 0.401253,0.32434 l 0.05084,-0.15652 -0.09735,-0.0611 0.456381,-1.52165 c 0.103358,-0.34451 0.306573,-0.62963 0.530617,-0.87001 0.0062,-0.41268 0.16203,-0.92809 0.436757,-1.36701 z m 11.131066,0.0202 c -0.328957,0.012 -0.756622,0.11678 -1.026802,0.32461 l -0.07531,0.0608 c -0.06893,0.0583 -0.108623,0.16067 -0.167546,0.23989 0.458944,-0.0579 0.923782,-0.0395 1.318333,0.0834 0.294589,0.087 0.511803,0.30881 0.769431,0.48086 0.128434,-0.0785 0.266119,-0.14072 0.404478,-0.2052 -0.06093,-0.17876 -0.09431,-0.39898 -0.166738,-0.48812 l -0.04247,-0.0508 c -0.156434,-0.18051 -0.470304,-0.36971 -0.726935,-0.42681 -0.07828,-0.0161 -0.17677,-0.0225 -0.286423,-0.0186 z m -1.380458,0.59274 -0.104617,0.0194 c 0.01441,-0.003 0.02722,0.006 0.04169,0.003 0.01739,-0.003 0.04601,-0.0199 0.06293,-0.0225 z m 6.231829,0.20036 c 0.007,0.003 0.01629,0.0114 0.02342,0.0143 0.01982,0.009 0.04887,0.0174 0.06804,0.0263 z m -20.068673,0.11079 c -0.11144,-0.001 -0.208483,0.0327 -0.291261,0.10274 -0.110373,0.0849 -0.165669,0.20794 -0.165669,0.36925 0,0.15283 0.05529,0.29715 0.165669,0.43299 0.110371,0.12736 0.246125,0.20808 0.407441,0.24205 0.152823,0.034 0.284422,0.008 0.3948,-0.0764 0.110373,-0.0934 0.165662,-0.22083 0.165662,-0.38215 0,-0.15282 -0.05529,-0.293 -0.165662,-0.42035 -0.110378,-0.13585 -0.241977,-0.22073 -0.3948,-0.25469 -0.04033,-0.008 -0.07904,-0.0129 -0.11618,-0.0135 z m 14.949172,0 c -0.11144,-0.001 -0.208477,0.0327 -0.291261,0.10274 -0.110373,0.0849 -0.165397,0.20794 -0.165397,0.36925 0,0.15283 0.05502,0.29715 0.165397,0.43299 0.110375,0.12736 0.246395,0.20808 0.407711,0.24205 0.152823,0.034 0.284424,0.008 0.394802,-0.0764 0.110371,-0.0934 0.165394,-0.22083 0.165394,-0.38215 0,-0.15282 -0.05502,-0.293 -0.165394,-0.42035 -0.110378,-0.13585 -0.241979,-0.22073 -0.394802,-0.25469 -0.04033,-0.008 -0.07931,-0.0129 -0.11645,-0.0135 z m -12.935101,0.75169 c 0.02852,-4.7e-4 0.05852,0.0335 0.09037,0.10247 0.05095,0.11037 0.07222,0.37772 0.06374,0.80223 -0.144337,-0.15282 -0.225065,-0.31843 -0.242045,-0.49673 -0.0085,-0.17828 0.0047,-0.30132 0.03846,-0.36924 0.01591,-0.0255 0.03237,-0.0383 0.04949,-0.0387 z m 30.35366,0.42061 c -0.05095,0.009 -0.102082,0.0342 -0.153026,0.0767 -0.05095,0.034 -0.0891,0.0721 -0.114568,0.11457 -0.186785,0 -0.394696,0.0213 -0.623932,0.0638 -0.220751,0.034 -0.437226,0.0976 -0.649488,0.19095 -0.212255,0.0849 -0.403298,0.19937 -0.573103,0.3437 -0.16981,0.14434 -0.288691,0.31436 -0.356612,0.50964 -0.07641,0.1783 -0.131704,0.36077 -0.165667,0.54756 -0.02545,0.18679 -0.06363,0.38198 -0.114568,0.58574 -0.04247,0.19528 -0.106042,0.39904 -0.19095,0.6113 -0.05141,0.12337 -0.122248,0.25015 -0.207884,0.37974 -0.05412,0.0752 -0.112553,0.15193 -0.179921,0.23156 -0.09339,0.11037 -0.190992,0.21238 -0.292876,0.30578 -0.101877,0.0849 -0.199478,0.15264 -0.292869,0.20358 -0.0934,0.0425 -0.169708,0.051 -0.229133,0.0256 -0.05944,-0.017 -0.09344,-0.0764 -0.101931,-0.1783 0,-0.1019 0.03398,-0.26308 0.101931,-0.48383 l 0.560197,-1.66849 c 0.04247,-0.12735 0.06788,-0.23352 0.07637,-0.31841 0.03398,-0.31415 -0.0509,-0.55607 -0.254679,-0.72587 -0.195279,-0.1698 -0.437196,-0.25884 -0.725865,-0.26732 -0.127354,0 -0.263101,0.0254 -0.407435,0.0764 -0.135847,0.0425 -0.271866,0.10604 -0.407713,0.19095 -0.135847,0.0764 -0.263028,0.16571 -0.381888,0.26759 -0.118865,0.0934 -0.220881,0.18242 -0.305788,0.26733 -0.0085,-0.20377 -0.0848,-0.36495 -0.229133,-0.48382 -0.135847,-0.11887 -0.288733,-0.19959 -0.458538,-0.24205 -0.16981,-0.051 -0.330996,-0.0636 -0.483819,-0.0382 -0.144334,0.0255 -0.229482,0.0805 -0.254951,0.16539 0.06792,0.051 0.0892,0.15296 0.06374,0.30579 -0.135847,0.38206 -0.267447,0.75143 -0.3948,1.10802 -0.127356,0.35659 -0.250389,0.73011 -0.369254,1.12066 -4.64e-4,0.003 -0.0016,0.006 -0.0021,0.009 -0.01275,0.0139 -0.0266,0.0257 -0.03846,0.0414 -0.07641,0.13586 -0.178429,0.27187 -0.305782,0.40771 -0.127354,0.12736 -0.254535,0.23353 -0.381894,0.31843 -0.152823,0.10188 -0.318429,0.12732 -0.496726,0.0764 0.280181,-0.3481 0.488093,-0.7346 0.623933,-1.15911 0.144341,-0.42452 0.199632,-0.83204 0.165669,-1.22259 -0.02545,-0.39056 -0.15707,-0.72592 -0.394802,-1.0061 -0.229238,-0.28868 -0.581466,-0.467 -1.056923,-0.53492 -0.229242,-0.034 -0.458702,-0.0168 -0.687947,0.0511 -0.220744,0.0679 -0.420088,0.1741 -0.598384,0.31843 -0.169806,0.13584 -0.309977,0.3056 -0.420348,0.50937 -0.101885,0.19527 -0.157176,0.4076 -0.16567,0.63685 -0.11037,-0.0255 -0.220685,-0.0172 -0.331059,0.0253 -0.101881,0.034 -0.190912,0.12325 -0.267325,0.26759 -0.178294,0.41602 -0.29718,0.81497 -0.356607,1.19703 -0.0052,0.0393 -0.0067,0.0762 -0.01051,0.11457 -0.186786,0.30565 -0.428972,0.54342 -0.72613,0.71323 -0.297164,0.16981 -0.645241,0.22094 -1.044289,0.15302 -0.237728,-0.034 -0.411635,-0.11911 -0.522006,-0.25495 -0.101884,-0.14433 -0.157175,-0.30967 -0.165669,-0.49646 -0.0085,-0.18679 0.02138,-0.38639 0.08929,-0.59865 0.07641,-0.21227 0.178157,-0.41602 0.305511,-0.6113 0.127358,-0.19527 0.271673,-0.36945 0.432989,-0.52228 0.169811,-0.15282 0.339562,-0.26314 0.509373,-0.33106 -0.05943,0.14434 -0.110311,0.28009 -0.15276,0.40744 -0.03393,0.12736 -0.05084,0.23794 -0.05084,0.33133 0,0.0679 0.03398,0.14424 0.101924,0.22914 0.06792,0.0764 0.144232,0.14442 0.229133,0.20385 0.0934,0.0595 0.182426,0.10616 0.267328,0.14012 0.0849,0.0255 0.148765,0.0255 0.191215,0 -0.0255,-0.034 -0.03404,-0.10612 -0.02555,-0.21649 0.01697,-0.11038 0.051,-0.23783 0.101931,-0.38216 0.05095,-0.15283 0.118683,-0.30987 0.203586,-0.47118 0.09339,-0.16132 0.199558,-0.31006 0.318423,-0.44591 0.06792,-0.0679 0.07649,-0.15694 0.02555,-0.26731 -0.04247,-0.11038 -0.148619,-0.19941 -0.318423,-0.26734 -0.127353,-0.0595 -0.229103,-0.0851 -0.30551,-0.0766 -0.07641,0.008 -0.157143,0.0638 -0.242047,0.16565 -0.195279,-0.11037 -0.424475,-0.16565 -0.687676,-0.16565 -0.382065,0.008 -0.734559,0.12736 -1.057194,0.3566 -0.314139,0.22924 -0.577344,0.51788 -0.7896,0.86598 -0.212257,0.33961 -0.356574,0.70898 -0.432989,1.10803 -0.0279,0.14553 -0.04372,0.28777 -0.04788,0.42653 -0.0016,0.002 -0.0031,0.004 -0.0047,0.006 -0.06792,0.10188 -0.14865,0.20804 -0.242044,0.31841 -0.09339,0.11038 -0.190986,0.2124 -0.292869,0.30579 -0.101885,0.0849 -0.199482,0.15264 -0.292877,0.20358 -0.09339,0.0425 -0.1697,0.051 -0.229133,0.0256 -0.05944,-0.017 -0.09344,-0.0764 -0.10193,-0.1783 0,-0.10189 0.03398,-0.26308 0.10193,-0.48383 l 0.560197,-1.66849 c 0.04247,-0.12735 0.06789,-0.23351 0.07638,-0.31841 0.03398,-0.26321 -0.01692,-0.47112 -0.152755,-0.62394 -0.135848,-0.15283 -0.297034,-0.25484 -0.48382,-0.30579 -0.178299,-0.0595 -0.34832,-0.0721 -0.509637,-0.0382 -0.161316,0.0255 -0.254495,0.0808 -0.279965,0.16567 0.06792,0.0425 0.08894,0.14005 0.06347,0.29287 l -0.662127,2.02511 c -0.0849,0.24621 -0.131627,0.4967 -0.140118,0.7514 -0.0085,0.24623 0.02966,0.47542 0.11457,0.68768 0.0849,0.21225 0.220651,0.38617 0.407441,0.52201 0.186788,0.12735 0.441688,0.19121 0.76432,0.19121 0.390555,-0.017 0.742784,-0.16987 1.056923,-0.45854 0.154593,-0.14623 0.299864,-0.30628 0.435951,-0.47924 0.120962,0.23298 0.298787,0.43512 0.533572,0.60645 0.314139,0.22075 0.759817,0.33133 1.337157,0.33133 0.517907,0 0.972158,-0.14458 1.362709,-0.43325 0.17361,-0.1256 0.331059,-0.26556 0.474136,-0.41847 0.09768,0.23556 0.248597,0.43051 0.453433,0.58412 0.246218,0.1783 0.568855,0.2676 0.967903,0.2676 0.24622,0 0.483986,-0.0384 0.713223,-0.11483 0.229239,-0.0849 0.441568,-0.19937 0.636847,-0.34371 0.322626,0.16132 0.645275,0.22906 0.967903,0.20359 0.299006,-0.0236 0.572032,-0.16528 0.819995,-0.42223 0.03196,0.12235 0.08162,0.23366 0.150065,0.33321 0.101884,0.13584 0.259185,0.23344 0.471447,0.29288 0.186788,0.0595 0.377559,0.0636 0.572841,0.0127 0.203766,-0.051 0.399228,-0.13583 0.586014,-0.25469 -0.135847,-0.0425 -0.233444,-0.13147 -0.292876,-0.26733 -0.05943,-0.13584 -0.08487,-0.30144 -0.07638,-0.49672 0.02545,-0.28019 0.09763,-0.57739 0.216492,-0.89153 0.12736,-0.32264 0.279976,-0.62399 0.458273,-0.90417 0.178299,-0.28867 0.373759,-0.53916 0.586015,-0.75141 0.212257,-0.22075 0.416018,-0.37779 0.611298,-0.47118 l -0.636844,1.92317 c -0.07642,0.24622 -0.123141,0.4967 -0.140121,0.75141 -0.0085,0.24622 0.02966,0.47542 0.114573,0.68768 0.0849,0.21225 0.22092,0.38617 0.407706,0.52201 0.186788,0.12735 0.44142,0.19121 0.764053,0.19121 0.390554,-0.017 0.742786,-0.16987 1.056923,-0.45854 0.168155,-0.15906 0.324654,-0.33535 0.470914,-0.52604 0.02472,-0.0201 0.0483,-0.0432 0.06965,-0.0726 0.195275,-0.24622 0.339594,-0.48814 0.43299,-0.72587 0.09339,-0.24621 0.169701,-0.47982 0.229133,-0.70058 0.0849,0.16132 0.165631,0.31006 0.242046,0.4459 0.0849,0.12735 0.157059,0.25039 0.216491,0.36925 0.06792,0.11887 0.123218,0.23775 0.165667,0.35662 0.05095,0.11886 0.0891,0.24189 0.114568,0.36925 -0.144336,-0.017 -0.284503,-0.0297 -0.420348,-0.0382 -0.127356,-0.017 -0.271674,-0.0253 -0.43299,-0.0253 -0.297163,0 -0.526359,0.0976 -0.687675,0.29288 -0.152823,0.18678 -0.233554,0.39469 -0.24204,0.62394 -0.0085,0.22074 0.06367,0.4245 0.216491,0.61128 0.161317,0.18679 0.403502,0.28024 0.726131,0.28024 0.178296,0 0.364922,-0.0213 0.560196,-0.0638 0.19528,-0.0425 0.377753,-0.10604 0.547562,-0.19094 0.178293,-0.0849 0.339751,-0.19107 0.484085,-0.31843 0.152829,-0.11886 0.275858,-0.25462 0.369254,-0.40744 0.416023,-0.051 0.747237,-0.19968 0.993455,-0.4459 0.24622,-0.24622 0.471269,-0.54343 0.675035,-0.89153 0.06792,-0.12735 0.08064,-0.23767 0.0382,-0.33106 -0.04246,-0.10188 -0.110464,-0.1699 -0.203855,-0.20386 -0.0849,-0.0255 -0.165631,-0.0169 -0.242046,0.0256 -0.07642,0.034 -0.135852,0.0848 -0.178302,0.15276 -0.0934,0.15283 -0.220578,0.31013 -0.381895,0.47144 -0.152822,0.16132 -0.322851,0.28435 -0.509639,0.36926 -0.02545,-0.20377 -0.08906,-0.4161 -0.190943,-0.63684 -0.101885,-0.22076 -0.212199,-0.43724 -0.331064,-0.64949 -0.110371,-0.22075 -0.21654,-0.43723 -0.318422,-0.64949 -0.101884,-0.21225 -0.165474,-0.41601 -0.190945,-0.61129 -0.01697,-0.10188 -0.01697,-0.20805 0,-0.31842 0.02545,-0.11037 0.06363,-0.21654 0.114567,-0.31842 0.05095,-0.10189 0.118953,-0.19092 0.203857,-0.26733 0.0849,-0.0764 0.190797,-0.12756 0.31815,-0.15303 -0.03393,0.068 -0.07211,0.14865 -0.114565,0.24205 -0.04247,0.0849 -0.0806,0.17835 -0.114568,0.28023 -0.03398,0.0934 -0.06355,0.18684 -0.08902,0.28023 -0.01697,0.0934 -0.01697,0.16971 0,0.22913 0.01697,0.0679 0.05929,0.14009 0.127207,0.21651 0.06792,0.0679 0.144501,0.13177 0.229403,0.19121 0.0849,0.051 0.16536,0.0891 0.241775,0.11457 0.0849,0.0255 0.148765,0.0255 0.191214,0 -0.05095,-0.0595 -0.05951,-0.15703 -0.02555,-0.29288 0.03393,-0.14433 0.08483,-0.29722 0.152755,-0.45854 0.07641,-0.16132 0.157143,-0.3142 0.242047,-0.45853 0.09339,-0.14434 0.16555,-0.24635 0.216491,-0.30579 0.05095,-0.051 0.06781,-0.11011 0.05085,-0.17803 -0.01697,-0.11887 -0.101859,-0.22088 -0.254686,-0.30579 -0.144332,-0.0934 -0.271514,-0.13596 -0.381889,-0.12747 z m -24.805474,1.29925 c 0.28867,0 0.492433,0.0849 0.611298,0.25468 0.11886,0.1698 0.169737,0.38628 0.152755,0.64948 -0.0085,0.25472 -0.07208,0.53064 -0.190944,0.8278 -0.118866,0.29716 -0.267333,0.56893 -0.44563,0.81514 -0.127354,-0.11037 -0.250659,-0.24197 -0.369524,-0.3948 -0.118865,-0.16131 -0.220609,-0.32692 -0.305511,-0.49673 -0.0849,-0.1698 -0.152911,-0.33956 -0.203856,-0.50936 -0.04247,-0.1698 -0.05932,-0.33126 -0.05084,-0.48409 0.03398,-0.18678 0.127411,-0.33967 0.280233,-0.45854 0.161317,-0.12735 0.335223,-0.1951 0.522009,-0.20358 z m 14.800184,0 c 0.28867,0 0.492427,0.0849 0.611294,0.25468 0.118864,0.1698 0.169735,0.38628 0.15276,0.64948 -0.0085,0.25472 -0.07208,0.53064 -0.19095,0.8278 -0.118865,0.29716 -0.267602,0.56893 -0.445897,0.81514 -0.127358,-0.11037 -0.250387,-0.24197 -0.369251,-0.3948 -0.118867,-0.16131 -0.220881,-0.32692 -0.305783,-0.49673 -0.0849,-0.1698 -0.152646,-0.33956 -0.203584,-0.50936 -0.04247,-0.1698 -0.05959,-0.33126 -0.05111,-0.48409 0.03398,-0.18678 0.127409,-0.33967 0.280234,-0.45854 0.161317,-0.12735 0.335487,-0.1951 0.522279,-0.20358 z m -28.9527613,0.0635 c 0.1952741,-0.008 0.322456,0.0382 0.3818901,0.14011 l -0.4074432,1.2226 c -0.042469,0.0934 -0.1187598,0.24213 -0.229133,0.4459 -0.1103711,0.19527 -0.2292562,0.39462 -0.35661,0.59838 -0.1273531,0.19528 -0.2548065,0.3653 -0.3821603,0.50964 -0.1273531,0.13584 -0.2335205,0.18671 -0.3184221,0.15276 -0.1188663,-0.0255 -0.1783033,-0.16122 -0.1783033,-0.40744 0,-0.25471 0.042573,-0.54362 0.1274715,-0.86625 0.084904,-0.30565 0.199372,-0.60701 0.3437057,-0.90417 0.1528226,-0.30565 0.3269995,-0.54342 0.5222743,-0.71322 0.1358469,-0.11038 0.3014506,-0.16982 0.4967303,-0.17831 z m 17.6786203,0.21461 c 4.65e-4,0.007 -0.0036,0.0132 -0.0031,0.0202 4.65e-4,0.008 0.0054,0.0164 0.0059,0.0244 z m 0.839625,0.9238 c 0.0042,0.009 -7.6e-5,0.0191 0.0042,0.0285 0.0047,0.0106 0.01796,0.0209 0.02234,0.0315 z m -5.804751,0.75921 c 0.127354,0.22075 0.271673,0.43308 0.43299,0.63685 0.169804,0.19527 0.348129,0.36945 0.534915,0.52228 -0.229238,0.16132 -0.454286,0.21219 -0.675035,0.15275 -0.203768,-0.051 -0.343669,-0.18696 -0.420078,-0.40771 -0.06793,-0.22074 -0.02561,-0.5221 0.127208,-0.90417 z m 14.799908,0 c 0.12736,0.22075 0.271945,0.43308 0.433262,0.63685 0.169802,0.19527 0.347862,0.36945 0.534648,0.52228 -0.229237,0.16132 -0.454021,0.21219 -0.674764,0.15275 -0.203767,-0.051 -0.343938,-0.18696 -0.420353,-0.40771 -0.06792,-0.22074 -0.02561,-0.5221 0.127207,-0.90417 z m -10.091887,0.35393 c -0.0021,0.006 -0.0062,0.0104 -0.0081,0.0162 -0.0021,0.006 -0.0012,0.014 -0.0031,0.0205 z m 19.435056,1.3272 c 0.07641,0 0.165708,0.009 0.267592,0.0256 0.101886,0.017 0.212197,0.0338 0.331061,0.0508 -0.0849,0.15282 -0.195216,0.27612 -0.331061,0.36951 -0.127353,0.0934 -0.250654,0.1357 -0.369518,0.12721 -0.135847,0 -0.229291,-0.0296 -0.280235,-0.089 -0.05095,-0.051 -0.0678,-0.11481 -0.05084,-0.19122 0.0255,-0.0679 0.07634,-0.13151 0.152755,-0.19095 0.07641,-0.0595 0.169862,-0.0934 0.280234,-0.10192 z m -33.936983,0.94236 c 0.02545,0.19528 0.0382,0.39074 0.0382,0.58601 0.0085,0.19529 -0.0042,0.36918 -0.0382,0.52202 -0.02545,0.15282 -0.07219,0.27171 -0.140117,0.35661 -0.05943,0.0849 -0.148732,0.11475 -0.267597,0.0893 0,-0.24621 0.04674,-0.50942 0.140121,-0.78959 0.101882,-0.2717 0.191178,-0.5266 0.267593,-0.76433 z m -9.3181552,0.4459 c -0.016964,0.051 -0.055405,0.16127 -0.1148372,0.33106 -0.059432,0.1783 -0.1271723,0.36078 -0.2035872,0.54756 -0.067919,0.19528 -0.1359284,0.36503 -0.2038543,0.50937 -0.067921,0.15283 -0.1187924,0.22084 -0.1527553,0.20386 -0.1188668,-0.0425 -0.169738,-0.1442 -0.1527577,-0.30552 0.016964,-0.15283 0.063701,-0.31428 0.140116,-0.48408 0.076412,-0.16981 0.1740092,-0.3227 0.2928737,-0.45854 0.1188667,-0.12736 0.2504659,-0.24182 0.394802,-0.34371 z"
       id="path849"
       inkscape:connector-curvature="0"
       inkscape:export-filename="/home/adolfo/Imágenes/opendesktop/3.png"
       inkscape:export-xdpi="20"
       inkscape:export-ydpi="20" />
  </g>
</svg>
