<?xml version="1.0" encoding="UTF-8" standalone="no"?>
<!-- Created with Inkscape (http://www.inkscape.org/) -->

<svg
   xmlns:dc="http://purl.org/dc/elements/1.1/"
   xmlns:cc="http://creativecommons.org/ns#"
   xmlns:rdf="http://www.w3.org/1999/02/22-rdf-syntax-ns#"
   xmlns:svg="http://www.w3.org/2000/svg"
   xmlns="http://www.w3.org/2000/svg"
   xmlns:sodipodi="http://sodipodi.sourceforge.net/DTD/sodipodi-0.dtd"
   xmlns:inkscape="http://www.inkscape.org/namespaces/inkscape"
   height="20"
   width="20"
   version="1.1"
   viewBox="0 0 5.2916666 5.2916669"
   id="svg11"
   sodipodi:docname="minimize_focused_prelight.svg"
   inkscape:version="0.92+devel unknown">
  <defs
     id="defs15" />
  <sodipodi:namedview
     pagecolor="#ffffff"
     bordercolor="#666666"
     inkscape:document-rotation="0"
     borderopacity="1"
     objecttolerance="10"
     gridtolerance="10"
     guidetolerance="10"
     inkscape:pageopacity="0"
     inkscape:pageshadow="2"
     inkscape:window-width="1366"
     inkscape:window-height="705"
     id="namedview13"
     showgrid="false"
     showguides="true"
     inkscape:guide-bbox="true"
     inkscape:zoom="17.9637"
     inkscape:cx="7"
     inkscape:cy="7"
     inkscape:window-x="0"
     inkscape:window-y="0"
     inkscape:window-maximized="1"
     inkscape:current-layer="svg11">
    <sodipodi:guide
       position="2.6217223,3.8294822"
       orientation="1,0"
       id="guide17"
       inkscape:locked="false" />
    <sodipodi:guide
       position="4.2271589,2.6364512"
       orientation="0,1"
       id="guide19"
       inkscape:locked="false" />
  </sodipodi:namedview>
  <metadata
     id="metadata2">
    <rdf:RDF>
      <cc:Work
         rdf:about="">
        <dc:format>image/svg+xml</dc:format>
        <dc:type
           rdf:resource="http://purl.org/dc/dcmitype/StillImage" />
        <dc:title></dc:title>
      </cc:Work>
    </rdf:RDF>
  </metadata>
  <g
     id="titlebutton-minimize-hover"
     fill-rule="evenodd"
     transform="matrix(0.0040622,0,0,-0.0040622,0.74539212,4.5473214)">
    <path
       d="m 461.9,2.0792 c 251.8,0 455.93,204.12 455.93,455.93 0,251.8 -204.12,455.92 -455.93,455.92 -251.8,0 -455.92,-204.13 -455.92,-455.93 -8e-4,-251.8 204.12,-455.92 455.92,-455.92"
       fill="#da9e10"
       id="path4"
       inkscape:connector-curvature="0" />
    <path
       d="m 461.9,40.854 c 230.38,0 417.15,186.76 417.15,417.15 0,230.38 -186.76,417.15 -417.15,417.15 -230.38,0 -417.15,-186.76 -417.15,-417.15 0,-230.39 186.77,-417.15 417.15,-417.15"
       fill="#fac536"
       id="path6"
       inkscape:connector-curvature="0" />
    <path
       d="m 195.74,495.95 h 532.33 c 20.604,0 37.458,-16.85 37.458,-37.458 v -0.98773 c 0,-20.608 -16.854,-37.458 -37.458,-37.458 H 195.74 c -20.605,0 -37.458,16.85 -37.458,37.458 v 0.98773 c 0,20.608 16.853,37.458 37.458,37.458"
       fill="#975914"
       id="path8"
       inkscape:connector-curvature="0" />
  </g>
</svg>
