<?xml version="1.0" encoding="UTF-8" standalone="no"?>
<!-- Created with Inkscape (http://www.inkscape.org/) -->

<svg
   xmlns:dc="http://purl.org/dc/elements/1.1/"
   xmlns:cc="http://creativecommons.org/ns#"
   xmlns:rdf="http://www.w3.org/1999/02/22-rdf-syntax-ns#"
   xmlns:svg="http://www.w3.org/2000/svg"
   xmlns="http://www.w3.org/2000/svg"
   xmlns:sodipodi="http://sodipodi.sourceforge.net/DTD/sodipodi-0.dtd"
   xmlns:inkscape="http://www.inkscape.org/namespaces/inkscape"
   width="28"
   height="32"
   viewBox="0 0 28 32.000001"
   id="svg4142"
   version="1.1"
   inkscape:version="0.92.2 (5c3e80d, 2017-08-06)"
   sodipodi:docname="close-prelight.svg">
  <defs
     id="defs4144">
    <filter
       inkscape:collect="always"
       style="color-interpolation-filters:sRGB"
       id="filter4145"
       x="-0.084"
       width="1.168"
       y="-0.084"
       height="1.168">
      <feGaussianBlur
         inkscape:collect="always"
         stdDeviation="0.84"
         id="feGaussianBlur4147" />
    </filter>
  </defs>
  <sodipodi:namedview
     id="base"
     pagecolor="#ffffff"
     bordercolor="#666666"
     borderopacity="1.0"
     inkscape:pageopacity="0.0"
     inkscape:pageshadow="2"
     inkscape:zoom="14.568637"
     inkscape:cx="3.9179826"
     inkscape:cy="17.099663"
     inkscape:document-units="px"
     inkscape:current-layer="layer1"
     showgrid="true"
     units="px"
     inkscape:window-width="1366"
     inkscape:window-height="656"
     inkscape:window-x="0"
     inkscape:window-y="31"
     inkscape:window-maximized="1">
    <inkscape:grid
       type="xygrid"
       id="grid4690" />
  </sodipodi:namedview>
  <metadata
     id="metadata4147">
    <rdf:RDF>
      <cc:Work
         rdf:about="">
        <dc:format>image/svg+xml</dc:format>
        <dc:type
           rdf:resource="http://purl.org/dc/dcmitype/StillImage" />
        <dc:title />
      </cc:Work>
    </rdf:RDF>
  </metadata>
  <g
     inkscape:label="Layer 1"
     inkscape:groupmode="layer"
     id="layer1"
     transform="translate(0,-1020.3622)">
    <rect
       style="opacity:1;fill:#1e1f29;fill-opacity:1;fill-rule:evenodd;stroke:none;stroke-width:2.74499989;stroke-linecap:butt;stroke-linejoin:miter;stroke-miterlimit:4;stroke-dasharray:none;stroke-dashoffset:478.43673706;stroke-opacity:1"
       id="rect4741"
       width="28"
       height="32"
       x="0"
       y="1020.3622" />
    <circle
       style="opacity:0.49000005;fill:#000000;fill-opacity:0.32000002;fill-rule:evenodd;stroke:none;stroke-width:2.74499989;stroke-linecap:butt;stroke-linejoin:miter;stroke-miterlimit:4;stroke-dasharray:none;stroke-dashoffset:478.43673706;stroke-opacity:1;filter:url(#filter4145)"
       id="path4143"
       cx="14"
       cy="1037.3622"
       r="12" />
    <rect
       style="opacity:1;fill:#ffffff;fill-opacity:0.07000002;fill-rule:evenodd;stroke:none;stroke-width:2.74499989;stroke-linecap:butt;stroke-linejoin:miter;stroke-miterlimit:4;stroke-dasharray:none;stroke-dashoffset:478.43673706;stroke-opacity:1"
       id="rect4142"
       width="28"
       height="1"
       x="0"
       y="1020.3622" />
    <path
       inkscape:connector-curvature="0"
       d="m 14.500073,1042.8622 c 3.865917,0 6.999926,-3.134 6.999926,-7 0,-3.866 -3.134009,-7 -6.999926,-7 -3.866062,0 -7.0000733,3.134 -7.0000733,7 0,3.866 3.1340113,7 7.0000733,7"
       style="fill:#ff5555;fill-opacity:1;fill-rule:evenodd;stroke:none;stroke-width:0.01351731"
       id="path4096" />
    <path
       inkscape:connector-curvature="0"
       id="path4098"
       d="m 11.348347,1032.0689 c -0.161113,0 -0.322471,0.062 -0.444723,0.1851 l -0.01105,0.011 c -0.244524,0.2445 -0.244524,0.6449 0,0.8894 l 2.707011,2.707 -2.707011,2.7098 c -0.244453,0.2444 -0.244453,0.6422 0,0.8866 l 0.01105,0.014 c 0.244435,0.2446 0.64494,0.2446 0.889446,0 l 2.707012,-2.7069 2.707012,2.7069 c 0.244451,0.2446 0.64494,0.2446 0.889447,0 l 0.01105,-0.014 c 0.244433,-0.2444 0.244433,-0.6422 0,-0.8866 l -2.707012,-2.7098 2.707011,-2.707 c 0.244434,-0.2445 0.244507,-0.645 0,-0.8894 l -0.01105,-0.011 c -0.244578,-0.2445 -0.644995,-0.2445 -0.889446,0 l -2.707012,2.707 -2.707012,-2.707 c -0.122253,-0.1223 -0.28361,-0.1851 -0.444723,-0.1851 z"
       style="fill:#9f1d2b;fill-opacity:1;fill-rule:evenodd;stroke:none;stroke-width:0.01351731" />
  </g>
</svg>
