<?xml version="1.0" encoding="UTF-8" standalone="no"?>
<svg
   xmlns:dc="http://purl.org/dc/elements/1.1/"
   xmlns:cc="http://creativecommons.org/ns#"
   xmlns:rdf="http://www.w3.org/1999/02/22-rdf-syntax-ns#"
   xmlns:svg="http://www.w3.org/2000/svg"
   xmlns="http://www.w3.org/2000/svg"
   xmlns:sodipodi="http://sodipodi.sourceforge.net/DTD/sodipodi-0.dtd"
   xmlns:inkscape="http://www.inkscape.org/namespaces/inkscape"
   width="16"
   height="16"
   viewBox="0 0 16 16"
   version="1.1"
   id="svg7"
   sodipodi:docname="nemo-prefs-behavior.svg"
   inkscape:version="0.92.3 (2405546, 2018-03-11)">
  <metadata
     id="metadata11">
    <rdf:RDF>
      <cc:Work
         rdf:about="">
        <dc:format>image/svg+xml</dc:format>
        <dc:type
           rdf:resource="http://purl.org/dc/dcmitype/StillImage" />
        <dc:title></dc:title>
      </cc:Work>
    </rdf:RDF>
  </metadata>
  <sodipodi:namedview
     pagecolor="#ffffff"
     bordercolor="#666666"
     borderopacity="1"
     objecttolerance="10"
     gridtolerance="10"
     guidetolerance="10"
     inkscape:pageopacity="0"
     inkscape:pageshadow="2"
     inkscape:window-width="1177"
     inkscape:window-height="839"
     id="namedview9"
     showgrid="false"
     inkscape:zoom="14.75"
     inkscape:cx="7.8983051"
     inkscape:cy="8"
     inkscape:window-x="0"
     inkscape:window-y="0"
     inkscape:window-maximized="0"
     inkscape:current-layer="svg7" />
  <defs
     id="defs3">
    <style
       id="current-color-scheme"
       type="text/css">
   .ColorScheme-Text { color:#6e6e6e; } .ColorScheme-Highlight { color:#5294e2; }
  </style>
  </defs>
  <path
     style="fill:#bebebe;fill-opacity:1"
     class="ColorScheme-Text"
     d="M 6.25 1 L 6.0957031 2.84375 A 5.5 5.5 0 0 0 4.4882812 3.7734375 L 2.8125 2.984375 L 1.0625 6.015625 L 2.5839844 7.0722656 A 5.5 5.5 0 0 0 2.5 8 A 5.5 5.5 0 0 0 2.5800781 8.9316406 L 1.0625 9.984375 L 2.8125 13.015625 L 4.484375 12.228516 A 5.5 5.5 0 0 0 6.0957031 13.152344 L 6.2460938 15.001953 L 9.7460938 15.001953 L 9.9003906 13.158203 A 5.5 5.5 0 0 0 11.507812 12.228516 L 13.183594 13.017578 L 14.933594 9.9863281 L 13.412109 8.9296875 A 5.5 5.5 0 0 0 13.496094 8.0019531 A 5.5 5.5 0 0 0 13.416016 7.0703125 L 14.933594 6.0175781 L 13.183594 2.9863281 L 11.511719 3.7734375 A 5.5 5.5 0 0 0 9.9003906 2.8496094 L 9.75 1 L 6.25 1 z M 8 6 A 2 2 0 0 1 10 8 A 2 2 0 0 1 8 10 A 2 2 0 0 1 6 8 A 2 2 0 0 1 8 6 z"
     id="path5" />
</svg>
