<?xml version="1.0" encoding="UTF-8" standalone="no"?>
<svg
   xmlns:dc="http://purl.org/dc/elements/1.1/"
   xmlns:cc="http://creativecommons.org/ns#"
   xmlns:rdf="http://www.w3.org/1999/02/22-rdf-syntax-ns#"
   xmlns:svg="http://www.w3.org/2000/svg"
   xmlns="http://www.w3.org/2000/svg"
   xmlns:sodipodi="http://sodipodi.sourceforge.net/DTD/sodipodi-0.dtd"
   xmlns:inkscape="http://www.inkscape.org/namespaces/inkscape"
   width="16"
   height="16"
   viewBox="0 0 16 16"
   version="1.1"
   id="svg7"
   sodipodi:docname="nemo-prefs-display-symbolic.svg"
   inkscape:version="0.92.3 (2405546, 2018-03-11)">
  <metadata
     id="metadata11">
    <rdf:RDF>
      <cc:Work
         rdf:about="">
        <dc:format>image/svg+xml</dc:format>
        <dc:type
           rdf:resource="http://purl.org/dc/dcmitype/StillImage" />
        <dc:title></dc:title>
      </cc:Work>
    </rdf:RDF>
  </metadata>
  <sodipodi:namedview
     pagecolor="#ffffff"
     bordercolor="#666666"
     borderopacity="1"
     objecttolerance="10"
     gridtolerance="10"
     guidetolerance="10"
     inkscape:pageopacity="0"
     inkscape:pageshadow="2"
     inkscape:window-width="779"
     inkscape:window-height="480"
     id="namedview9"
     showgrid="false"
     inkscape:zoom="14.75"
     inkscape:cx="8"
     inkscape:cy="8"
     inkscape:window-x="0"
     inkscape:window-y="0"
     inkscape:window-maximized="0"
     inkscape:current-layer="svg7" />
  <defs
     id="defs3">
    <style
       id="current-color-scheme"
       type="text/css">
   .ColorScheme-Text { color:#6e6e6e; } .ColorScheme-Highlight { color:#5294e2; }
  </style>
  </defs>
  <path
     style="fill:#bebebe;fill-opacity:1"
     class="ColorScheme-Text"
     d="M 8 3.0039062 C 6.4492 3.0190063 4.8879094 3.3732319 3.5371094 4.1386719 C 2.9987094 4.4892919 2.3523344 4.9421175 1.8652344 5.3984375 C 1.0987444 6.1488575 0.4427 7.0244062 0 8.0039062 C 1.2149 10.683506 3.8859187 12.6474 6.8242188 12.9375 C 8.7516188 13.15561 10.768591 12.822631 12.462891 11.869141 C 13.001291 11.518521 13.647666 11.065695 14.134766 10.609375 C 14.901256 9.858955 15.5573 8.9834063 16 8.0039062 C 14.785 5.3245062 12.114181 3.3601125 9.1757812 3.0703125 C 8.7859013 3.0248425 8.39251 3.0038963 8 3.0039062 z M 8 5.0019531 L 8 5.0039062 C 9.607 4.9683062 11.0303 6.4057062 11 8.0039062 C 11.0515 9.7703063 9.2909813 11.294844 7.5507812 10.964844 C 5.7931812 10.758504 4.5587188 8.7851344 5.1367188 7.1152344 C 5.5058788 5.8858344 6.7125 4.9866531 8 5.0019531 z M 8 7.0039062 A 1 1 0 0 0 7 8.0039062 A 1 1 0 0 0 8 9.0039062 A 1 1 0 0 0 9 8.0039062 A 1 1 0 0 0 8 7.0039062 z"
     id="path5" />
</svg>
