<svg xmlns="http://www.w3.org/2000/svg" width="16" height="16" enable-background="new"><defs><filter id="a" color-interpolation-filters="sRGB"><feBlend mode="darken" in2="BackgroundImage"/></filter></defs><path d="M3 2c-.554 0-1 .446-1 1v4h1V3h3l2 1h5v1h1V4c0-.554-.446-1-1-1H8.408l-2-1z" fill="#5d656b" fill-rule="evenodd" paint-order="fill markers stroke"/><path d="M1 7v6.006c0 1.28.802 1.994 2 2h10c1.25-.006 2-1.006 2-2V5l-7 .006L5 7zm7.324-.994H14v7c0 .682-.403.994-1 1H3a.998.998 0 0 1-1-1V8h3.324z" style="line-height:normal;-inkscape-font-specification:Sans;text-indent:0;text-align:start;text-decoration-line:none;text-transform:none;marker:none" color="#000" font-weight="400" font-family="Sans" overflow="visible" fill="#5d656b" enable-background="accumulate"/></svg>