<svg xmlns="http://www.w3.org/2000/svg" width="16" height="16.007" enable-background="new"><defs><filter id="a" color-interpolation-filters="sRGB"><feBlend mode="darken" in2="BackgroundImage"/></filter></defs><path d="M2.844 1.007c-.282.047-.844.25-.844 1v7h1v-7h7v3h3v5h1v-2c-.003-2.975 0-3 0-3l-4-4H3s-.063-.016-.156 0zm-.844 9v1h1v-1zm11 1v1h1v-1zm-11 1v1h1v-1zm11 1v1h1v-1zm-11 1v1h1v-1zm1 1v1h1v-1zm2 0v1h1v-1zm2 0v1h1v-1zm2 0v1h1v-1zm2 0v1h1v-1zm2 0v1h1v-1z" fill="#5d656b" enable-background="new"/></svg>