<svg xmlns="http://www.w3.org/2000/svg" width="16" height="16" enable-background="new"><defs><filter id="a" color-interpolation-filters="sRGB"><feBlend mode="darken" in2="BackgroundImage"/></filter></defs><path style="marker:none" d="M11.5 1A2.5 2.5 0 0 0 9 3.5c0 .218.041.423.094.625L5.125 6.594A2.511 2.511 0 0 0 3.5 6a2.5 2.5 0 0 0 0 5c.617 0 1.189-.224 1.625-.594l3.969 2.469A2.453 2.453 0 0 0 9 13.5a2.5 2.5 0 1 0 2.5-2.5c-.617 0-1.189.224-1.625.594L5.906 9.125C5.96 8.923 6 8.718 6 8.5c0-.218-.041-.423-.094-.625l3.969-2.469c.436.37 1.008.594 1.625.594a2.5 2.5 0 0 0 0-5z" color="#5d656b" overflow="visible" fill="#5d656b" enable-background="accumulate"/></svg>