<svg xmlns="http://www.w3.org/2000/svg" height="16" width="16"><path style="marker:none" overflow="visible" d="M8 1.028a.498.498 0 0 0-.375.158l-2.5 3a.428.428 0 0 0-.09.248c-.014.266.188.556.465.564H7v3.5c0 .262.238.5.5.5h1a.492.492 0 0 0 .094 0 .517.517 0 0 0 .406-.5v-3.5h1.5c.37-.01.606-.524.375-.812l-2.5-3A.497.497 0 0 0 8 1.028z" color="#5d656b" fill="#5d656b"/><path d="M2 2c-.554 0-1 .446-1 1v11c0 .554.446 1 1 1h12c.554 0 1-.446 1-1V3c0-.554-.446-1-1-1h-3.916l.791.95c.012.014.008.034.018.05H14v7h-4a2 2 0 0 1-2 2 2 2 0 0 1-2-2H2V3h3.107c.01-.016.007-.036.018-.05L5.916 2H2zm0 9h3.174A3 3 0 0 0 8 13a3 3 0 0 0 2.824-2H14v3H2v-3z" fill="#5d656b" fill-rule="evenodd" paint-order="fill markers stroke"/></svg>