<svg xmlns="http://www.w3.org/2000/svg" width="16.007" height="16" enable-background="new"><defs><filter id="a" color-interpolation-filters="sRGB"><feBlend mode="darken" in2="BackgroundImage"/></filter></defs><g fill="#5d656b"><path d="M7.32 2c-.202.02-.399.054-.594.094-.393.08-.764.19-1.125.343a6.059 6.059 0 0 0-3.5 4.094l.031.031c.324.346 1.216.836 1.844 1.063.344.124.983.313 1.437.406.455.093.764.184.72.188-.046.004-.236.13-.438.312-.386.347-.584.67-.75 1.219-.092.3-.088.369.03.531.073.098.4.334.72.531.319.198.679.496.812.625.496.481.813 1.322.813 2.157 0 .213.015.357.03.406.041.004.085-.004.126 0 .092-.035.219-.078.437-.188 1.834-.917 2.708-2.146 2.625-3.718-.065-1.254-.678-1.683-3.062-2.188-1.756-.372-2.688-.986-2.688-1.781 0-.21.052-.333.282-.563.246-.246.31-.256.5-.218.12.024.415.184.656.375.542.429.813.593 1.094.593.119 0 .218-.013.218-.03a2.1 2.1 0 0 0-.187-.313c-.541-.798-.49-2.32.094-3.594.091-.2.134-.337.125-.375-.081.005-.17-.008-.25 0zm5.625 2.844c-.11-.068-.984.871-1.188 1.281-.404.813-.246 1.325.719 2.344.334.353.718.84.844 1.062.126.223.251.376.281.344.03-.032.087-.288.156-.563.182-.72.196-1.962 0-2.687-.152-.562-.671-1.694-.812-1.781z" enable-background="new"/><path d="M8.007 0a8 8 0 1 0 0 16 8 8 0 0 0 0-16zm0 1a7 7 0 1 1 0 14 7 7 0 0 1 0-14z" enable-background="new"/></g></svg>