<?xml version="1.0" encoding="UTF-8"?>
<svg height="16px" viewBox="0 0 16 16" width="16px" xmlns="http://www.w3.org/2000/svg">
    <path d="m 3 0 c -1.644531 0 -3 1.355469 -3 3 v 10 c 0 1.644531 1.355469 3 3 3 h 10 c 1.644531 0 3 -1.355469 3 -3 v -10 c 0 -1.644531 -1.355469 -3 -3 -3 z m 0 2 h 10 c 0.421875 0 0.765625 0.234375 0.917969 0.585938 l -0.667969 0.757812 l -6.296875 7.195312 l -2.246094 -2.246093 c -0.390625 -0.390625 -1.023437 -0.390625 -1.414062 0 s -0.390625 1.027343 0 1.417969 l 3 3 c 0.410156 0.40625 1.078125 0.386718 1.460937 -0.050782 l 6.246094 -7.136718 v 7.476562 c 0 0.570312 -0.429688 1 -1 1 h -10 c -0.570312 0 -1 -0.429688 -1 -1 v -10 c 0 -0.570312 0.429688 -1 1 -1 z m 0 0" fill="#2e3436"/>
</svg>
