<svg version="1.1" viewBox="0 0 35 200" xmlns="http://www.w3.org/2000/svg"><g transform="translate(0 -852.36)"><path transform="translate(0 852.36)" d="m3 0c-1.662 0-3 1.338-3 3v194c0 1.662 1.338 3 3 3h33c1.662 0 3-1.338 3-3v-194c0-1.662-1.338-3-3-3h-33zm0 1h33c1.108 0 2 0.892 2 2v194c0 1.108-0.892 2-2 2h-33c-1.108 0-2-0.892-2-2v-194c0-1.108 0.892-2 2-2z" style="fill:#596eb5;stroke-width:0"/><rect x="1" y="853.36" width="37" height="198" rx="2" ry="2" style="fill:#2777ff;stroke-width:0"/><g style="fill:#fff"><rect x="17" y="944.36" width="2" height="16" ry="1.1429" style="fill:#fff;stroke-width:0"/><rect transform="rotate(90)" x="951.36" y="-26" width="2" height="16" ry="1.1429" style="fill:#fff;stroke-width:0"/></g></g></svg>
