<svg version="1.1" viewBox="0 0 46 22" xmlns="http://www.w3.org/2000/svg"><path d="m34.615 0.035156c6.0506 0 10.955 4.7133 10.955 10.572v0.76562c0 5.859-4.9045 10.572-10.955 10.572h-23.535c-6.0506 0-10.955-4.7133-10.955-10.572v-0.76562c0-5.859 4.9045-10.572 10.955-10.572z" color="#000000" color-rendering="auto" dominant-baseline="auto" fill="#fff" image-rendering="auto" shape-rendering="auto" solid-color="#000000" style="fill:#2777ff;font-feature-settings:normal;font-variant-alternates:normal;font-variant-caps:normal;font-variant-ligatures:normal;font-variant-numeric:normal;font-variant-position:normal;isolation:auto;mix-blend-mode:normal;shape-padding:0;text-decoration-color:#000000;text-decoration-line:none;text-decoration-style:solid;text-indent:0;text-orientation:mixed;text-transform:none;white-space:normal"/><path d="m11.08 0.035156c-6.0505 0-10.955 4.7133-10.955 10.572v0.76562c0 5.8587 4.9045 10.572 10.955 10.572h23.535c6.0505 0 10.955-4.7133 10.955-10.572v-0.76562c0-5.8587-4.9045-10.572-10.955-10.572h-23.535zm1.084 1.4414h21.883c5.626 0 10.188 4.1128 10.188 9.2246v0.66797c0 5.1121-4.5616 9.2246-10.188 9.2246h-21.883c-5.626 0-10.186-4.1128-10.186-9.2246v-0.66797c0-5.1121 4.5597-9.2246 10.186-9.2246z" style="font-feature-settings:normal;font-variant-alternates:normal;font-variant-caps:normal;font-variant-ligatures:normal;font-variant-numeric:normal;font-variant-position:normal;isolation:auto;mix-blend-mode:normal;opacity:.2;shape-padding:0;text-decoration-color:#000000;text-decoration-line:none;text-decoration-style:solid;text-indent:0;text-orientation:mixed;text-transform:none;white-space:normal"/><rect transform="scale(-1,1)" x="-44.197" y="1.4794" width="19.233" height="19.022" rx="9.5107" ry="9.5107" style="fill:#272a34"/></svg>
