<?xml version="1.0" encoding="UTF-8" standalone="no"?>
<svg
   xmlns:svg="http://www.w3.org/2000/svg"
   xmlns="http://www.w3.org/2000/svg"
   xmlns:sodipodi="http://sodipodi.sourceforge.net/DTD/sodipodi-0.dtd"
   xmlns:inkscape="http://www.inkscape.org/namespaces/inkscape"
   inkscape:version="1.1-dev (1:0.92.0+devel+202004260039+9758c7a)"
   sodipodi:docname="google-chrome-no-notification-disabled.svg"
   id="svg7"
   version="1.1"
   height="16"
   width="16">
  <sodipodi:namedview
     inkscape:current-layer="svg7"
     inkscape:window-maximized="1"
     inkscape:window-y="30"
     inkscape:window-x="0"
     inkscape:cy="8"
     inkscape:cx="8"
     inkscape:zoom="46.75"
     showgrid="false"
     id="namedview9"
     inkscape:window-height="1024"
     inkscape:window-width="1920"
     inkscape:pageshadow="2"
     inkscape:pageopacity="0"
     guidetolerance="10"
     gridtolerance="10"
     objecttolerance="10"
     borderopacity="1"
     bordercolor="#666666"
     pagecolor="#ffffff" />
  <defs
     id="defs3">
    <style
       type="text/css"
       id="current-color-scheme">
   .ColorScheme-Text { color:#dfdfdf; } .ColorScheme-Highlight { color:#4285f4; }
  </style>
  </defs>
  <path
     id="path5"
     d="M 8,1 A 7,7 0 0 0 2.918,3.1973 L 5.1523,7.0664 A 3,3 0 0 1 8,5 H 14.316 A 7,7 0 0 0 8,1 Z M 2.2402,4.0234 A 7,7 0 0 0 1,8 7,7 0 0 0 6.3828,14.803 L 8.6172,10.934 A 3,3 0 0 1 8,11 3,3 0 0 1 5.4062,9.498 L 5.4023,9.5 Z M 8,6 A 2,2 0 0 0 6,8 2,2 0 0 0 8,10 2,2 0 0 0 10,8 2,2 0 0 0 8,6 Z M 10.23,6 A 3,3 0 0 1 11,8 3,3 0 0 1 10.596,9.498 L 10.598,9.5 7.4395,14.973 A 7,7 0 0 0 8,15 7,7 0 0 0 15,8 7,7 0 0 0 14.701,6 Z"
     class="ColorScheme-Text"
     style="opacity:0.3;fill:#000000" />
</svg>
