<svg width="24" height="24" version="1.1" xmlns="http://www.w3.org/2000/svg">
 <defs>
  <style id="current-color-scheme" type="text/css">.ColorScheme-Text { color:#d3dae3; } .ColorScheme-Highlight { color:#5294e2; }</style>
 </defs>
 <g class="ColorScheme-Text" transform="translate(-317 120)" fill="currentColor">
  <path d="m329-115c-3.842 0-7 3.158-7 7s3.158 7 7 7 7-3.158 7-7-3.158-7-7-7zm0 4c1.68 0 3 1.32 3 3s-1.32 3-3 3-3-1.32-3-3 1.32-3 3-3z"/>
  <path d="m329-110c-1.099 0-2 0.901-2 2s0.901 2 2 2 2-0.901 2-2-0.901-2-2-2zm0 1c0.558 0 1 0.442 1 1s-0.442 1-1 1-1-0.442-1-1 0.442-1 1-1z"/>
 </g>
</svg>
