<?xml version="1.0" encoding="UTF-8" standalone="no"?>
<!-- Created with Inkscape (http://www.inkscape.org/) -->

<svg
   xmlns:dc="http://purl.org/dc/elements/1.1/"
   xmlns:cc="http://creativecommons.org/ns#"
   xmlns:rdf="http://www.w3.org/1999/02/22-rdf-syntax-ns#"
   xmlns:svg="http://www.w3.org/2000/svg"
   xmlns="http://www.w3.org/2000/svg"
   xmlns:sodipodi="http://sodipodi.sourceforge.net/DTD/sodipodi-0.dtd"
   xmlns:inkscape="http://www.inkscape.org/namespaces/inkscape"
   width="48"
   height="48"
   viewBox="0 0 12.7 12.7"
   version="1.1"
   id="svg8"
   inkscape:version="0.92.2 (5c3e80d, 2017-08-06)"
   sodipodi:docname="application-illustrator.svg">
  <defs
     id="defs2" />
  <sodipodi:namedview
     id="base"
     pagecolor="#ffffff"
     bordercolor="#666666"
     borderopacity="1.0"
     inkscape:pageopacity="0.0"
     inkscape:pageshadow="2"
     inkscape:zoom="4"
     inkscape:cx="-26.567655"
     inkscape:cy="21.666059"
     inkscape:document-units="mm"
     inkscape:current-layer="layer1"
     showgrid="true"
     inkscape:window-width="1360"
     inkscape:window-height="718"
     inkscape:window-x="0"
     inkscape:window-y="24"
     inkscape:window-maximized="1"
     units="px">
    <inkscape:grid
       type="xygrid"
       id="grid815" />
  </sodipodi:namedview>
  <metadata
     id="metadata5">
    <rdf:RDF>
      <cc:Work
         rdf:about="">
        <dc:format>image/svg+xml</dc:format>
        <dc:type
           rdf:resource="http://purl.org/dc/dcmitype/StillImage" />
        <dc:title></dc:title>
      </cc:Work>
    </rdf:RDF>
  </metadata>
  <g
     inkscape:label="Capa 1"
     inkscape:groupmode="layer"
     id="layer1"
     transform="translate(0,-284.3)">
    <rect
       style="opacity:1;fill:#deaa87;fill-opacity:1;fill-rule:nonzero;stroke:none;stroke-width:0.29205534;stroke-linecap:round;stroke-linejoin:miter;stroke-miterlimit:4;stroke-dasharray:none;stroke-dashoffset:0;stroke-opacity:0.8802817"
       id="rect817"
       width="8.7312498"
       height="11.377084"
       x="1.8520833"
       y="285.09375"
       ry="0.36506954" />
    <path
       style="fill:#ffffff;fill-opacity:0.23529412;fill-rule:evenodd;stroke:none;stroke-width:0.07301383px;stroke-linecap:butt;stroke-linejoin:miter;stroke-opacity:1"
       d="M 2.38125,285.62292 H 5.0270833 L 2.38125,288.26875 Z"
       id="path819"
       inkscape:connector-curvature="0"
       sodipodi:nodetypes="cccc" />
    <path
       style="fill:none;stroke:#ffffff;stroke-width:0.80000001;stroke-linecap:butt;stroke-linejoin:miter;stroke-miterlimit:4;stroke-dasharray:none;stroke-opacity:0.44571429"
       d="m 6.6145832,287.73958 c -3.9687499,4.23334 3.1750001,3.43959 0,7.67292"
       id="path828"
       inkscape:connector-curvature="0"
       sodipodi:nodetypes="cc" />
    <g
       id="g842">
      <path
         sodipodi:nodetypes="cc"
         inkscape:connector-curvature="0"
         id="path830"
         d="m 5.0270833,288.00417 0,3.96875"
         style="fill:none;stroke:#ffffff;stroke-width:0.18;stroke-linecap:butt;stroke-linejoin:miter;stroke-opacity:1;stroke-miterlimit:4;stroke-dasharray:none" />
      <path
         d="m 5.2913645,289.8689 a 0.26458332,0.26458332 0 0 1 -0.276441,0.25167 0.26458332,0.26458332 0 0 1 -0.2521656,-0.27599 0.26458332,0.26458332 0 0 1 0.2755202,-0.25266 0.26458332,0.26458332 0 0 1 0.2531717,0.27505"
         sodipodi:open="true"
         sodipodi:end="0.040497747"
         sodipodi:start="0.047800379"
         sodipodi:ry="0.26458332"
         sodipodi:rx="0.26458332"
         sodipodi:cy="289.85626"
         sodipodi:cx="5.0270834"
         sodipodi:type="arc"
         id="path832"
         style="fill:#ffffff;fill-opacity:1;stroke:none;stroke-width:0.17999999;stroke-linecap:round;stroke-linejoin:round;stroke-miterlimit:4;stroke-dasharray:none;stroke-dashoffset:0;stroke-opacity:1" />
      <path
         style="fill:#ffffff;fill-opacity:1;stroke:none;stroke-width:0.17999999;stroke-linecap:round;stroke-linejoin:round;stroke-miterlimit:4;stroke-dasharray:none;stroke-dashoffset:0;stroke-opacity:1"
         id="path834"
         sodipodi:type="arc"
         sodipodi:cx="5.0273004"
         sodipodi:cy="287.99347"
         sodipodi:rx="0.26458332"
         sodipodi:ry="0.26458332"
         sodipodi:start="0.047800379"
         sodipodi:end="0.040497747"
         sodipodi:open="true"
         d="m 5.2915815,288.00611 a 0.26458332,0.26458332 0 0 1 -0.276441,0.25166 0.26458332,0.26458332 0 0 1 -0.2521656,-0.27598 0.26458332,0.26458332 0 0 1 0.2755202,-0.25267 0.26458332,0.26458332 0 0 1 0.2531716,0.27506" />
      <path
         d="m 5.2915815,291.71027 a 0.26458332,0.26458332 0 0 1 -0.276441,0.25167 0.26458332,0.26458332 0 0 1 -0.2521656,-0.27599 0.26458332,0.26458332 0 0 1 0.2755202,-0.25266 0.26458332,0.26458332 0 0 1 0.2531716,0.27505"
         sodipodi:open="true"
         sodipodi:end="0.040497747"
         sodipodi:start="0.047800379"
         sodipodi:ry="0.26458332"
         sodipodi:rx="0.26458332"
         sodipodi:cy="291.69763"
         sodipodi:cx="5.0273004"
         sodipodi:type="arc"
         id="path836"
         style="fill:#ffffff;fill-opacity:1;stroke:none;stroke-width:0.17999999;stroke-linecap:round;stroke-linejoin:round;stroke-miterlimit:4;stroke-dasharray:none;stroke-dashoffset:0;stroke-opacity:1" />
    </g>
    <g
       id="g852"
       transform="translate(2.9107188,3.6915121)">
      <path
         style="fill:none;stroke:#ffffff;stroke-width:0.18000001;stroke-linecap:butt;stroke-linejoin:miter;stroke-miterlimit:4;stroke-dasharray:none;stroke-opacity:1"
         d="m 5.0270833,288.00417 v 3.96875"
         id="path844"
         inkscape:connector-curvature="0"
         sodipodi:nodetypes="cc" />
      <path
         style="fill:#ffffff;fill-opacity:1;stroke:none;stroke-width:0.17999999;stroke-linecap:round;stroke-linejoin:round;stroke-miterlimit:4;stroke-dasharray:none;stroke-dashoffset:0;stroke-opacity:1"
         id="path846"
         sodipodi:type="arc"
         sodipodi:cx="5.0270834"
         sodipodi:cy="289.85626"
         sodipodi:rx="0.26458332"
         sodipodi:ry="0.26458332"
         sodipodi:start="0.047800379"
         sodipodi:end="0.040497747"
         sodipodi:open="true"
         d="m 5.2913645,289.8689 a 0.26458332,0.26458332 0 0 1 -0.276441,0.25167 0.26458332,0.26458332 0 0 1 -0.2521656,-0.27599 0.26458332,0.26458332 0 0 1 0.2755202,-0.25266 0.26458332,0.26458332 0 0 1 0.2531717,0.27505" />
      <path
         d="m 5.2915815,288.00611 a 0.26458332,0.26458332 0 0 1 -0.276441,0.25166 0.26458332,0.26458332 0 0 1 -0.2521656,-0.27598 0.26458332,0.26458332 0 0 1 0.2755202,-0.25267 0.26458332,0.26458332 0 0 1 0.2531716,0.27506"
         sodipodi:open="true"
         sodipodi:end="0.040497747"
         sodipodi:start="0.047800379"
         sodipodi:ry="0.26458332"
         sodipodi:rx="0.26458332"
         sodipodi:cy="287.99347"
         sodipodi:cx="5.0273004"
         sodipodi:type="arc"
         id="path848"
         style="fill:#ffffff;fill-opacity:1;stroke:none;stroke-width:0.17999999;stroke-linecap:round;stroke-linejoin:round;stroke-miterlimit:4;stroke-dasharray:none;stroke-dashoffset:0;stroke-opacity:1" />
      <path
         style="fill:#ffffff;fill-opacity:1;stroke:none;stroke-width:0.17999999;stroke-linecap:round;stroke-linejoin:round;stroke-miterlimit:4;stroke-dasharray:none;stroke-dashoffset:0;stroke-opacity:1"
         id="path850"
         sodipodi:type="arc"
         sodipodi:cx="5.0273004"
         sodipodi:cy="291.69763"
         sodipodi:rx="0.26458332"
         sodipodi:ry="0.26458332"
         sodipodi:start="0.047800379"
         sodipodi:end="0.040497747"
         sodipodi:open="true"
         d="m 5.2915815,291.71027 a 0.26458332,0.26458332 0 0 1 -0.276441,0.25167 0.26458332,0.26458332 0 0 1 -0.2521656,-0.27599 0.26458332,0.26458332 0 0 1 0.2755202,-0.25266 0.26458332,0.26458332 0 0 1 0.2531716,0.27505" />
    </g>
  </g>
</svg>
