<?xml version="1.0" encoding="UTF-8" standalone="no"?>
<!-- Created with Inkscape (http://www.inkscape.org/) -->

<svg
   xmlns:dc="http://purl.org/dc/elements/1.1/"
   xmlns:cc="http://creativecommons.org/ns#"
   xmlns:rdf="http://www.w3.org/1999/02/22-rdf-syntax-ns#"
   xmlns:svg="http://www.w3.org/2000/svg"
   xmlns="http://www.w3.org/2000/svg"
   xmlns:sodipodi="http://sodipodi.sourceforge.net/DTD/sodipodi-0.dtd"
   xmlns:inkscape="http://www.inkscape.org/namespaces/inkscape"
   width="48"
   height="48"
   viewBox="0 0 12.7 12.7"
   version="1.1"
   id="svg8"
   inkscape:version="0.92.3 (2405546, 2018-03-11)"
   sodipodi:docname="application-vnd.wolfram.mathematica.package.svg">
  <defs
     id="defs2" />
  <sodipodi:namedview
     id="base"
     pagecolor="#ffffff"
     bordercolor="#666666"
     borderopacity="1.0"
     inkscape:pageopacity="0.0"
     inkscape:pageshadow="2"
     inkscape:zoom="11.2"
     inkscape:cx="10.307966"
     inkscape:cy="23.577794"
     inkscape:document-units="mm"
     inkscape:current-layer="layer1"
     showgrid="true"
     inkscape:window-width="1360"
     inkscape:window-height="732"
     inkscape:window-x="0"
     inkscape:window-y="0"
     inkscape:window-maximized="1"
     units="px">
    <inkscape:grid
       type="xygrid"
       id="grid815" />
  </sodipodi:namedview>
  <metadata
     id="metadata5">
    <rdf:RDF>
      <cc:Work
         rdf:about="">
        <dc:format>image/svg+xml</dc:format>
        <dc:type
           rdf:resource="http://purl.org/dc/dcmitype/StillImage" />
        <dc:title></dc:title>
      </cc:Work>
    </rdf:RDF>
  </metadata>
  <g
     inkscape:label="Capa 1"
     inkscape:groupmode="layer"
     id="layer1"
     transform="translate(0,-284.3)">
    <rect
       style="opacity:1;fill:#724c5d;fill-opacity:1;fill-rule:nonzero;stroke:none;stroke-width:0.29205534;stroke-linecap:round;stroke-linejoin:miter;stroke-miterlimit:4;stroke-dasharray:none;stroke-dashoffset:0;stroke-opacity:0.8802817"
       id="rect817"
       width="8.7312498"
       height="11.377084"
       x="1.8520833"
       y="285.09375"
       ry="0.36506954" />
    <path
       style="fill:#ffffff;fill-opacity:0.23529412;fill-rule:evenodd;stroke:none;stroke-width:0.07301383px;stroke-linecap:butt;stroke-linejoin:miter;stroke-opacity:1"
       d="M 2.38125,285.62292 H 5.0270833 L 2.38125,288.26875 Z"
       id="path819"
       inkscape:connector-curvature="0"
       sodipodi:nodetypes="cccc" />
    <path
       id="path1256-6"
       d="m 6.3923746,288.7917 a 2.6458333,2.6458333 0 0 0 -0.2661335,0.0139 c -0.084077,0.008 -0.166965,0.021 -0.2485636,0.0372 a 2.6458333,2.6458333 0 0 0 -0.010853,0.002 c -0.076701,0.0155 -0.1516621,0.0358 -0.2258261,0.0579 a 2.6458333,2.6458333 0 0 0 -0.031522,0.008 c -0.083647,0.026 -0.1655686,0.0555 -0.2454632,0.0894 a 2.6458333,2.6458333 0 0 0 -0.2315105,0.11162 2.6458333,2.6458333 0 0 0 -0.4216797,0.28525 2.6458333,2.6458333 0 0 0 -0.1881021,0.17105 2.6458333,2.6458333 0 0 0 -0.1632976,0.17932 c -0.00305,0.004 -0.00627,0.007 -0.0093,0.0109 a 2.6458333,2.6458333 0 0 0 -0.1193726,0.15968 c -0.013417,0.019 -0.027383,0.0375 -0.040308,0.0568 a 2.6458333,2.6458333 0 0 0 -0.082165,0.13436 c -0.018344,0.0314 -0.03719,0.0624 -0.054261,0.0946 a 2.6458333,2.6458333 0 0 0 -0.060461,0.12454 c -0.017706,0.0381 -0.03524,0.0762 -0.05116,0.11524 a 2.6458333,2.6458333 0 0 0 -0.044442,0.12092 c -0.015047,0.0428 -0.03002,0.0854 -0.042892,0.12919 a 2.6458333,2.6458333 0 0 0 -0.029972,0.11576 c -0.0113,0.0461 -0.02268,0.092 -0.031523,0.13901 a 2.6458333,2.6458333 0 0 0 -0.020153,0.13384 c -0.00563,0.0415 -0.011319,0.0829 -0.014986,0.12506 a 2.6458333,2.6458333 0 0 0 -0.011884,0.23029 2.6458333,2.6458333 0 0 0 0.013952,0.26614 c 0.045491,0.45216 0.2056963,0.87087 0.4506185,1.22731 0.00225,0.003 0.00446,0.007 0.00672,0.01 a 2.6458333,2.6458333 0 0 0 0.058394,0.0806 c 1.405e-4,-8.5e-4 3.704e-4,-0.002 5.292e-4,-0.003 0.483155,0.64452 1.2505857,1.06455 2.1156221,1.06455 0.4968788,0 0.960793,-0.14028 1.3585734,-0.37983 l 5.292e-4,5.3e-4 a 2.6458333,2.6458333 0 0 0 0.01602,-0.0109 c 0.063108,-0.0386 0.1244735,-0.0794 0.183968,-0.12299 a 2.6458333,2.6458333 0 0 0 0.040824,-0.0305 c 0.05224,-0.0399 0.102833,-0.0815 0.1519288,-0.12506 a 2.6458333,2.6458333 0 0 0 0.058911,-0.0543 c 0.040902,-0.0385 0.080465,-0.0783 0.1188559,-0.11937 a 2.6458333,2.6458333 0 0 0 0.067179,-0.0739 c 0.036067,-0.0416 0.070406,-0.0844 0.1038696,-0.12815 a 2.6458333,2.6458333 0 0 0 0.053744,-0.0718 c 0.035156,-0.0493 0.067958,-0.10016 0.099735,-0.15193 a 2.6458333,2.6458333 0 0 0 0.038758,-0.0636 c 0.03147,-0.0547 0.060263,-0.11094 0.08785,-0.16795 a 2.6458333,2.6458333 0 0 0 0.031523,-0.0656 c 0.024731,-0.0549 0.046687,-0.11113 0.067696,-0.16795 a 2.6458333,2.6458333 0 0 0 0.029455,-0.0811 c 0.018233,-0.0548 0.033907,-0.1106 0.048576,-0.16692 a 2.6458333,2.6458333 0 0 0 0.021691,-0.0853 c 0.01197,-0.0532 0.021278,-0.10737 0.029972,-0.16175 a 2.6458333,2.6458333 0 0 0 0.01602,-0.10749 c 0.00548,-0.0466 0.00835,-0.0938 0.011369,-0.14107 a 2.6458333,2.6458333 0 0 0 0.00878,-0.16899 c 0,-0.0892 -0.00475,-0.17709 -0.013436,-0.26406 a 2.6458333,2.6458333 0 0 0 -5.291e-4,-0.002 c -0.00846,-0.0841 -0.021021,-0.16696 -0.037207,-0.24856 -7.143e-4,-0.004 -8.202e-4,-0.007 -0.00156,-0.0109 -0.015544,-0.0767 -0.035827,-0.15167 -0.057878,-0.22583 -0.00298,-0.01 -0.00466,-0.0205 -0.00775,-0.0305 a 2.6458333,2.6458333 0 0 0 -0.00103,-0.004 c -0.025821,-0.0828 -0.055351,-0.16378 -0.088883,-0.24288 a 2.6458333,2.6458333 0 0 0 -0.1116211,-0.23151 2.6458333,2.6458333 0 0 0 -0.2852539,-0.42168 2.6458333,2.6458333 0 0 0 -0.1710492,-0.1881 2.6458333,2.6458333 0 0 0 -0.1793171,-0.16329 2.6458333,2.6458333 0 0 0 -0.00878,-0.008 c -6.614e-4,-5.5e-4 -0.0014,-10e-4 -0.00206,-0.002 a 2.6458333,2.6458333 0 0 0 -0.15968,-0.11937 c -0.019018,-0.0134 -0.037464,-0.0274 -0.056844,-0.0403 a 2.6458333,2.6458333 0 0 0 -0.1343588,-0.0822 c -0.031394,-0.0183 -0.062373,-0.0372 -0.094568,-0.0543 a 2.6458333,2.6458333 0 0 0 -0.1245478,-0.059 c -0.038088,-0.0177 -0.076201,-0.0352 -0.1152385,-0.0512 a 2.6458333,2.6458333 0 0 0 -0.1209049,-0.0444 c -0.042784,-0.015 -0.085443,-0.03 -0.129191,-0.0429 a 2.6458333,2.6458333 0 0 0 -0.1157553,-0.03 c -0.046067,-0.0113 -0.092042,-0.0227 -0.1390097,-0.0315 a 2.6458333,2.6458333 0 0 0 -0.1338418,-0.0202 c -0.041534,-0.006 -0.082943,-0.0113 -0.1250569,-0.015 a 2.6458333,2.6458333 0 0 0 -0.230477,-0.0118 z m -0.4020425,0.38189 0.3384806,0.83922 0.5927286,-0.51934 v 1.45107 l 1.4552082,1.15445 -0.4356322,0.40308 -1.2107787,-0.0124 0.6779947,0.80616 c -0.3013511,0.1646 -0.6472502,0.25838 -1.0159587,0.25838 -0.881989,0 -1.6345631,-0.535 -1.9533691,-1.29915 0.1668677,-0.6447 0.4161007,-1.26714 0.7730792,-1.61437 0.152289,-0.56043 0.4494653,-1.02432 0.7782474,-1.46709 z m 0.4020425,1.99936 0.01912,0.22531 0.5100463,0.0393 c -0.065623,-0.15862 -0.2272374,-0.23169 -0.5291667,-0.26458 z"
       style="fill:#ffffff;stroke-width:0.26458332"
       inkscape:connector-curvature="0" />
  </g>
</svg>
