<?xml version="1.0" encoding="UTF-8" standalone="no"?>
<!-- Created with Inkscape (http://www.inkscape.org/) -->

<svg
   xmlns:dc="http://purl.org/dc/elements/1.1/"
   xmlns:cc="http://creativecommons.org/ns#"
   xmlns:rdf="http://www.w3.org/1999/02/22-rdf-syntax-ns#"
   xmlns:svg="http://www.w3.org/2000/svg"
   xmlns="http://www.w3.org/2000/svg"
   xmlns:sodipodi="http://sodipodi.sourceforge.net/DTD/sodipodi-0.dtd"
   xmlns:inkscape="http://www.inkscape.org/namespaces/inkscape"
   width="48"
   height="48"
   viewBox="0 0 12.7 12.7"
   version="1.1"
   id="svg8"
   inkscape:version="0.92.3 (2405546, 2018-03-11)"
   sodipodi:docname="application-x-musescore.svg">
  <defs
     id="defs2" />
  <sodipodi:namedview
     id="base"
     pagecolor="#ffffff"
     bordercolor="#666666"
     borderopacity="1.0"
     inkscape:pageopacity="0.0"
     inkscape:pageshadow="2"
     inkscape:zoom="11.2"
     inkscape:cx="10.307966"
     inkscape:cy="23.577794"
     inkscape:document-units="mm"
     inkscape:current-layer="layer1"
     showgrid="true"
     inkscape:window-width="1360"
     inkscape:window-height="732"
     inkscape:window-x="0"
     inkscape:window-y="0"
     inkscape:window-maximized="1"
     units="px">
    <inkscape:grid
       type="xygrid"
       id="grid815" />
  </sodipodi:namedview>
  <metadata
     id="metadata5">
    <rdf:RDF>
      <cc:Work
         rdf:about="">
        <dc:format>image/svg+xml</dc:format>
        <dc:type
           rdf:resource="http://purl.org/dc/dcmitype/StillImage" />
        <dc:title></dc:title>
      </cc:Work>
    </rdf:RDF>
  </metadata>
  <g
     inkscape:label="Capa 1"
     inkscape:groupmode="layer"
     id="layer1"
     transform="translate(0,-284.3)">
    <rect
       style="opacity:1;fill:#4c6872;fill-opacity:1;fill-rule:nonzero;stroke:none;stroke-width:0.29205534;stroke-linecap:round;stroke-linejoin:miter;stroke-miterlimit:4;stroke-dasharray:none;stroke-dashoffset:0;stroke-opacity:0.8802817"
       id="rect817"
       width="8.7312498"
       height="11.377084"
       x="1.8520833"
       y="285.09375"
       ry="0.36506954" />
    <path
       style="fill:#ffffff;fill-opacity:0.23529412;fill-rule:evenodd;stroke:none;stroke-width:0.07301383px;stroke-linecap:butt;stroke-linejoin:miter;stroke-opacity:1"
       d="M 2.38125,285.62292 H 5.0270833 L 2.38125,288.26875 Z"
       id="path819"
       inkscape:connector-curvature="0"
       sodipodi:nodetypes="cccc" />
    <path
       id="path1127-2"
       d="m 5.287335,288.90319 h -0.00508 c 0.010081,1.10792 -1.931e-4,1.9513 0,3.05911 -0.4878387,-0.31022 -1.1989858,-0.10979 -1.4597591,0.40506 -0.3034506,0.52234 -0.044056,1.26076 0.5186362,1.47962 0.5496454,0.25147 1.2597871,-0.0787 1.4227175,-0.66045 0.081383,-0.31763 0.035986,-0.64918 0.048731,-0.9739 0.00132,-0.75041 0.00265,-1.23624 0.00394,-1.98665 h 2.3812501 c -0.00159,0.66696 -0.00339,1.06936 -0.00508,1.73632 -0.4878388,-0.31022 -1.1989859,-0.10979 -1.4597592,0.40506 -0.3034506,0.52234 -0.044056,1.26076 0.5186363,1.47962 0.5950743,0.26927 1.4347825,-0.13565 1.4796822,-0.81573 -0.020002,-0.61648 -0.00265,-1.235 -0.00696,-1.85235 7.938e-4,-0.75861 0.00278,-1.51723 0.00265,-2.27584 H 5.2873562 Z"
       style="fill:#ffffff;stroke-width:0.26458332"
       inkscape:connector-curvature="0" />
  </g>
</svg>
