<?xml version="1.0" encoding="UTF-8" standalone="no"?>
<!-- Created with Inkscape (http://www.inkscape.org/) -->

<svg
   xmlns:dc="http://purl.org/dc/elements/1.1/"
   xmlns:cc="http://creativecommons.org/ns#"
   xmlns:rdf="http://www.w3.org/1999/02/22-rdf-syntax-ns#"
   xmlns:svg="http://www.w3.org/2000/svg"
   xmlns="http://www.w3.org/2000/svg"
   xmlns:sodipodi="http://sodipodi.sourceforge.net/DTD/sodipodi-0.dtd"
   xmlns:inkscape="http://www.inkscape.org/namespaces/inkscape"
   width="48"
   height="48"
   viewBox="0 0 12.7 12.7"
   version="1.1"
   id="svg8"
   inkscape:version="0.92.2 (5c3e80d, 2017-08-06)"
   sodipodi:docname="image-x-xcf.svg">
  <defs
     id="defs2">
    <linearGradient
       id="linearGradient3866">
      <stop
         style="stop-color:#000000;stop-opacity:0.52083331"
         offset="0"
         id="stop3868" />
      <stop
         style="stop-color:#2883c3;stop-opacity:0;"
         offset="1"
         id="stop3870" />
    </linearGradient>
    <linearGradient
       id="linearGradient3874">
      <stop
         style="stop-color:#000d0e;stop-opacity:0.84105963;"
         offset="0"
         id="stop3876" />
      <stop
         style="stop-color:#000000;stop-opacity:0;"
         offset="1"
         id="stop3878" />
    </linearGradient>
    <clipPath
       clipPathUnits="userSpaceOnUse"
       id="clipPath4178">
      <circle
         r="225"
         cy="222.68037"
         cx="204.3168"
         id="circle4180"
         style="opacity:1;fill:#1c5266;fill-opacity:0.19099205;fill-rule:evenodd;stroke:none;stroke-width:3.33392239;stroke-linecap:butt;stroke-linejoin:miter;stroke-miterlimit:4;stroke-dasharray:none;stroke-dashoffset:0;stroke-opacity:1" />
    </clipPath>
    <clipPath
       clipPathUnits="userSpaceOnUse"
       id="clipPath4178-1">
      <circle
         r="225"
         cy="222.68037"
         cx="204.3168"
         id="circle4180-7"
         style="opacity:1;fill:#1c5266;fill-opacity:0.19099205;fill-rule:evenodd;stroke:none;stroke-width:3.33392239;stroke-linecap:butt;stroke-linejoin:miter;stroke-miterlimit:4;stroke-dasharray:none;stroke-dashoffset:0;stroke-opacity:1" />
    </clipPath>
  </defs>
  <sodipodi:namedview
     id="base"
     pagecolor="#ffffff"
     bordercolor="#666666"
     borderopacity="1.0"
     inkscape:pageopacity="0.0"
     inkscape:pageshadow="2"
     inkscape:zoom="4"
     inkscape:cx="10.303984"
     inkscape:cy="18.796333"
     inkscape:document-units="mm"
     inkscape:current-layer="layer1"
     showgrid="true"
     inkscape:window-width="1360"
     inkscape:window-height="718"
     inkscape:window-x="0"
     inkscape:window-y="24"
     inkscape:window-maximized="1"
     units="px">
    <inkscape:grid
       type="xygrid"
       id="grid815" />
  </sodipodi:namedview>
  <metadata
     id="metadata5">
    <rdf:RDF>
      <cc:Work
         rdf:about="">
        <dc:format>image/svg+xml</dc:format>
        <dc:type
           rdf:resource="http://purl.org/dc/dcmitype/StillImage" />
        <dc:title></dc:title>
      </cc:Work>
    </rdf:RDF>
  </metadata>
  <g
     inkscape:label="Capa 1"
     inkscape:groupmode="layer"
     id="layer1"
     transform="translate(0,-284.3)">
    <rect
       style="opacity:1;fill:#627f6d;fill-opacity:1;fill-rule:nonzero;stroke:none;stroke-width:0.29205534;stroke-linecap:round;stroke-linejoin:miter;stroke-miterlimit:4;stroke-dasharray:none;stroke-dashoffset:0;stroke-opacity:0.8802817"
       id="rect817"
       width="8.7312498"
       height="11.377084"
       x="1.8520833"
       y="285.09375"
       ry="0.36506954" />
    <path
       style="fill:#ffffff;fill-opacity:0.23529412;fill-rule:evenodd;stroke:none;stroke-width:0.07301383px;stroke-linecap:butt;stroke-linejoin:miter;stroke-opacity:1"
       d="M 2.38125,285.62292 H 5.0270833 L 2.38125,288.26875 Z"
       id="path819"
       inkscape:connector-curvature="0"
       sodipodi:nodetypes="cccc" />
    <path
       sodipodi:nodetypes="cacccc"
       inkscape:connector-curvature="0"
       id="path3342-7-3-7"
       d="m 6.6358993,287.93742 c -0.1789042,0.30214 -0.2969443,0.63573 -0.5093528,0.91733 -0.1662381,0.22039 -0.3510434,0.43171 -0.5896752,0.59233 0.4633047,-0.16983 1.0205047,-0.244 1.3713319,-0.40416 0.012039,-0.006 0.024968,-0.0119 0.037285,-0.0179 -0.055057,-0.36982 -0.1533941,-0.73911 -0.3095885,-1.08768 z"
       style="fill:#ffffff;fill-opacity:0.7077465;stroke-width:0.00957821" />
    <path
       id="path3344-6-5"
       d="m 8.4768445,287.74144 c -0.153418,0.58946 -0.9836608,1.00498 -1.5408153,1.27079 -0.00361,0.002 -0.00767,0.003 -0.011269,0.005 -0.00886,0.004 -0.017935,0.009 -0.026439,0.0126 -0.010071,0.004 -0.019934,0.009 -0.03034,0.0134 -0.0016,6.7e-4 -0.0036,0.002 -0.0052,0.003 -0.00539,0.003 -0.010556,0.005 -0.016037,0.007 -0.00881,0.003 -0.017848,0.008 -0.026872,0.0108 -0.00464,0.002 -0.00918,0.003 -0.013869,0.005 -0.00983,0.004 -0.019837,0.008 -0.029906,0.0112 -0.00418,0.002 -0.00836,0.003 -0.012569,0.005 -0.013337,0.005 -0.027029,0.009 -0.040742,0.0138 -6.879e-4,2.2e-4 -0.00104,6.2e-4 -0.00173,8.4e-4 0,0 -4.439e-4,0 -4.439e-4,0 -0.014995,0.005 -0.030098,0.0102 -0.045509,0.0152 -0.00294,8.4e-4 -0.00615,0.002 -0.0091,0.003 -0.012449,0.004 -0.025011,0.008 -0.037707,0.0117 -0.00403,8.4e-4 -0.00808,0.003 -0.012136,0.003 -0.012716,0.004 -0.025634,0.008 -0.038575,0.0112 -0.00287,8.2e-4 -0.00579,0.002 -0.00867,0.003 -0.021131,0.006 -0.042482,0.0123 -0.064146,0.0182 -0.019126,0.005 -0.038584,0.0105 -0.058078,0.0156 -0.00946,0.003 -0.018638,0.005 -0.028173,0.008 -0.00529,0.002 -0.010716,0.003 -0.016038,0.004 -0.03285,0.008 -0.06608,0.0172 -0.099687,0.0256 -0.1055089,0.0263 -0.2141691,0.0524 -0.3228995,0.0806 -0.1539525,0.0399 -0.3077147,0.0839 -0.4524925,0.13697 -0.1135518,0.0416 -0.2215959,0.089 -0.3194321,0.14476 -0.4428026,0.25256 -0.7651824,0.59631 -1.0159412,0.99644 -0.3373472,0.53829 -0.1034144,1.23047 -1.0263434,1.74539 -0.01529,0.0181 -0.034089,0.035 -0.055478,0.0507 0.00102,-7.6e-4 0.00202,-0.002 0.00304,-0.003 7.767e-4,4.7e-4 0.00135,8.4e-4 0.00217,0.002 -0.2264843,0.16232 -0.6724097,0.16634 -0.4836989,0.51664 0.1017985,0.15727 0.1805018,0.28451 0.3051291,0.40655 -0.00264,0.002 -0.00436,0.003 -0.00737,0.006 0.3293356,0.32078 0.8061336,0.53951 1.3219372,0.58382 0.2554018,0.0275 0.615449,0.0146 0.7671569,0.0143 1.2889822,-0.003 2.5170974,-0.60148 3.2549996,-1.45023 0.054843,-0.0665 0.2707568,-0.31978 0.2747896,-0.36494 0.3398324,-0.54463 0.7166078,-1.10196 0.7398518,-1.72589 v -4.4e-4 c -0.3685647,0.1094 -0.7561224,0.23181 -1.1520362,0.26872 0.00416,-2e-4 0.00821,-3.5e-4 0.012136,-4.5e-4 0.00178,-10e-6 0.00349,3e-5 0.0052,0 -0.1014036,0.002 -0.2916972,0.0403 -0.3372003,-0.008 0.4347691,-0.48584 0.8474585,-1.01585 0.9392256,-1.62576 0.057615,-0.42361 -0.015035,-0.88131 -0.2786935,-1.2501 z m 1.0116074,0.94009 c -0.3758685,0.0655 0.05572,0.4585 -0.03424,0.67311 0.326245,-0.0908 0.390922,-0.58263 0.03424,-0.67311 z m 0.156032,0.83131 c -0.01814,2.2e-4 -0.03829,0.007 -0.05071,0.016 -0.234572,0.17055 -0.07311,0.533 -0.229714,0.74548 0.110688,0.007 0.222176,-0.0304 0.319865,-0.0694 0.3177081,-0.1044 0.201006,-0.5355 -0.01084,-0.68481 -0.0075,-0.005 -0.01772,-0.008 -0.02861,-0.008 z m -0.4849996,0.0164 c -0.1129972,-8.2e-4 -0.074745,0.29628 0.04941,0.30123 0.105031,0.004 0.11649,-0.17228 0.07238,-0.25008 -0.01916,-0.0338 -0.092988,-0.0509 -0.1217911,-0.0512 z m -4.2202305,1.16027 c 0.2629787,-3.1e-4 0.282666,0.40862 0.3116305,0.59206 0.043768,0.27444 0.094712,0.58292 -0.3107637,0.68567 -0.02755,0.0117 -0.1339694,0.0794 -0.1027209,-0.005 0.1152689,-0.20042 -0.084813,-0.70623 -0.3931137,-0.45467 -0.030717,-0.2856 0.071553,-0.6123 0.3666749,-0.79142 0.048235,-0.0186 0.090725,-0.0268 0.1282929,-0.0268 z m 3.6004371,1.38652 c 0,0 4.439e-4,0 4.439e-4,0 9.98e-4,-1.3e-4 0.00179,-7e-5 0.0026,0 -0.012827,2.3e-4 -0.048253,0.0228 -0.117024,0.0793 -0.00336,0.002 -0.00543,0.003 -0.00867,0.004 0.00249,-0.002 0.00481,-0.003 0.00736,-0.004 0.010892,-0.009 0.021069,-0.0169 0.03034,-0.0242 0.0036,-0.003 0.00661,-0.005 0.00997,-0.008 0.00553,-0.004 0.010692,-0.008 0.015603,-0.0122 0.00301,-0.003 0.00589,-0.004 0.00867,-0.006 0.00452,-0.003 0.00906,-0.007 0.013002,-0.009 0.00337,-0.003 0.00658,-0.005 0.00954,-0.007 6.213e-4,-3.8e-4 0.00116,-5.2e-4 0.00173,-8.4e-4 0.00419,-0.003 0.00792,-0.005 0.011268,-0.007 0.00138,-7.1e-4 0.00268,-0.002 0.0039,-0.003 5.104e-4,-2.7e-4 0.00124,-6.5e-4 0.00173,-8.4e-4 0.00166,-7.5e-4 0.00336,-0.002 0.00476,-0.002 0,0 4.437e-4,-4.3e-4 4.437e-4,-4.3e-4 0.0016,-5.4e-4 0.00307,-6.7e-4 0.00434,-8.4e-4 z m -5.4364127,0.30036 c -0.00178,0.002 -0.00382,0.003 -0.00564,0.004 0.00182,-0.002 0.00384,-0.003 0.00564,-0.004 z m 2.717556,0.12569 a 0.11096714,0.11096714 0 0 1 0.088418,0.17684 c -0.2213444,0.30801 -0.5215464,0.62127 -1.1849759,0.71125 a 0.11107688,0.11107688 0 1 1 -0.029473,-0.22019 c 0.6081649,-0.0824 0.82366,-0.32732 1.034145,-0.62022 a 0.11096714,0.11096714 0 0 1 0.091885,-0.0476 z"
       style="fill:#fffcfc;fill-opacity:1;stroke-width:0.00957821"
       inkscape:connector-curvature="0" />
  </g>
</svg>
