<?xml version="1.0" encoding="UTF-8" standalone="no"?>
<!-- Created with Inkscape (http://www.inkscape.org/) -->

<svg
   xmlns:dc="http://purl.org/dc/elements/1.1/"
   xmlns:cc="http://creativecommons.org/ns#"
   xmlns:rdf="http://www.w3.org/1999/02/22-rdf-syntax-ns#"
   xmlns:svg="http://www.w3.org/2000/svg"
   xmlns="http://www.w3.org/2000/svg"
   xmlns:sodipodi="http://sodipodi.sourceforge.net/DTD/sodipodi-0.dtd"
   xmlns:inkscape="http://www.inkscape.org/namespaces/inkscape"
   width="48"
   height="48"
   viewBox="0 0 12.7 12.7"
   version="1.1"
   id="svg8"
   inkscape:version="0.92.3 (2405546, 2018-03-11)"
   sodipodi:docname="javascript.svg">
  <defs
     id="defs2" />
  <sodipodi:namedview
     id="base"
     pagecolor="#ffffff"
     bordercolor="#666666"
     borderopacity="1.0"
     inkscape:pageopacity="0.0"
     inkscape:pageshadow="2"
     inkscape:zoom="11.2"
     inkscape:cx="10.307966"
     inkscape:cy="23.577794"
     inkscape:document-units="mm"
     inkscape:current-layer="layer1"
     showgrid="true"
     inkscape:window-width="1360"
     inkscape:window-height="732"
     inkscape:window-x="0"
     inkscape:window-y="0"
     inkscape:window-maximized="1"
     units="px">
    <inkscape:grid
       type="xygrid"
       id="grid815" />
  </sodipodi:namedview>
  <metadata
     id="metadata5">
    <rdf:RDF>
      <cc:Work
         rdf:about="">
        <dc:format>image/svg+xml</dc:format>
        <dc:type
           rdf:resource="http://purl.org/dc/dcmitype/StillImage" />
        <dc:title></dc:title>
      </cc:Work>
    </rdf:RDF>
  </metadata>
  <g
     inkscape:label="Capa 1"
     inkscape:groupmode="layer"
     id="layer1"
     transform="translate(0,-284.3)">
    <rect
       style="opacity:1;fill:#a77d4e;fill-opacity:1;fill-rule:nonzero;stroke:none;stroke-width:0.29205534;stroke-linecap:round;stroke-linejoin:miter;stroke-miterlimit:4;stroke-dasharray:none;stroke-dashoffset:0;stroke-opacity:0.8802817"
       id="rect817"
       width="8.7312498"
       height="11.377084"
       x="1.8520833"
       y="285.09375"
       ry="0.36506954" />
    <path
       style="fill:#ffffff;fill-opacity:0.23529412;fill-rule:evenodd;stroke:none;stroke-width:0.07301383px;stroke-linecap:butt;stroke-linejoin:miter;stroke-opacity:1"
       d="M 2.38125,285.62292 H 5.0270833 L 2.38125,288.26875 Z"
       id="path819"
       inkscape:connector-curvature="0"
       sodipodi:nodetypes="cccc" />
    <path
       id="path1516-0"
       d="m 5.0327948,289.25992 a 0.26460979,0.26460979 0 0 0 -0.025321,5.3e-4 0.26460979,0.26460979 0 0 0 -0.069763,0.0145 c 0,0 -0.1657112,0.0546 -0.3576109,0.15555 -0.191889,0.10095 -0.4251325,0.24247 -0.5751513,0.48524 -0.166997,0.2702 -0.1036108,0.55928 -0.051676,0.73226 0.051935,0.17299 0.080526,0.24851 0.032557,0.36434 -0.023426,0.0565 -0.166952,0.18037 -0.3240087,0.25735 -0.1571625,0.077 -0.2997729,0.11721 -0.2997729,0.11721 a 0.26460979,0.26460979 0 0 0 -0.1891771,0.32517 0.26460979,0.26460979 0 0 0 0.1891771,0.31776 c 0,0 0.142666,0.0403 0.29972,0.11731 0.1570593,0.077 0.3005931,0.20079 0.3240087,0.25735 0.047969,0.11581 0.019378,0.19133 -0.032557,0.36433 -0.051935,0.17298 -0.1153186,0.46204 0.051676,0.73226 0.1500399,0.24277 0.3832755,0.38428 0.5751513,0.48525 0.1918891,0.10095 0.3576108,0.15554 0.3576108,0.15554 a 0.26460979,0.26460979 0 1 0 0.1663991,-0.50178 c 0,0 -0.1259099,-0.0422 -0.277495,-0.12196 -0.151593,-0.0798 -0.3137164,-0.20284 -0.3710252,-0.29559 -0.064836,-0.10491 -0.043561,-0.1412 0.00465,-0.30178 0.048212,-0.16059 0.1352497,-0.42723 0.01447,-0.71882 -0.1069658,-0.25824 -0.3204369,-0.39495 -0.5115984,-0.4935 0.1911535,-0.0986 0.4046273,-0.23528 0.5115984,-0.4935 0.1207823,-0.2916 0.033745,-0.55825 -0.01447,-0.71882 -0.048212,-0.16059 -0.069487,-0.19689 -0.00465,-0.30179 0.057319,-0.0927 0.2194455,-0.21583 0.3710252,-0.29559 0.1515931,-0.0797 0.277495,-0.12196 0.277495,-0.12196 a 0.26460979,0.26460979 0 0 0 -0.071313,-0.51676 z m 2.6277357,0 a 0.26460979,0.26460979 0 0 0 -0.070279,0.51676 c 0,0 0.1259099,0.0422 0.277495,0.12196 0.151593,0.0797 0.3137165,0.20284 0.3710252,0.29559 0.064836,0.10491 0.043561,0.14121 -0.00465,0.30178 -0.048212,0.16059 -0.1352523,0.42723 -0.01447,0.71882 0.1069657,0.25824 0.3204368,0.39495 0.5115983,0.4935 -0.1911535,0.0986 -0.4046273,0.23528 -0.5115983,0.49351 -0.1207823,0.29159 -0.033742,0.55824 0.01447,0.71882 0.048212,0.16058 0.069488,0.19688 0.00465,0.30178 -0.057319,0.0927 -0.2194454,0.21584 -0.3710252,0.29559 -0.151593,0.0798 -0.277495,0.12196 -0.277495,0.12196 a 0.26460979,0.26460979 0 1 0 0.1663991,0.50178 c 0,0 0.1657112,-0.0546 0.3576108,-0.15554 0.1918891,-0.10096 0.4251325,-0.24248 0.5751513,-0.48525 0.166997,-0.27019 0.1036108,-0.55928 0.051676,-0.73226 -0.051935,-0.17299 -0.080526,-0.24851 -0.032557,-0.36433 0.023426,-0.0566 0.1669521,-0.18037 0.3240087,-0.25735 0.1570567,-0.077 0.29972,-0.11731 0.29972,-0.11731 a 0.26460979,0.26460979 0 0 0 0.1891773,-0.31776 0.26460979,0.26460979 0 0 0 -0.1891771,-0.32518 c 0,0 -0.142666,-0.0403 -0.29972,-0.1173 -0.1570593,-0.077 -0.3005931,-0.20079 -0.3240087,-0.25735 -0.047969,-0.11581 -0.019378,-0.19133 0.032557,-0.36433 0.051935,-0.17299 0.1153186,-0.46204 -0.051676,-0.73226 -0.1500397,-0.24277 -0.3832752,-0.38428 -0.5751511,-0.48525 -0.191889,-0.10095 -0.3576108,-0.15554 -0.3576108,-0.15554 a 0.26460979,0.26460979 0 0 0 -0.069763,-0.0145 0.26460979,0.26460979 0 0 0 -0.025321,-5.3e-4 0.26460979,0.26460979 0 0 0 -0.00103,0 z m -1.3218583,1.19539 a 0.52916667,0.52916667 0 0 0 -0.5291666,0.52917 0.52916667,0.52916667 0 0 0 0.5291666,0.52916 0.52916667,0.52916667 0 0 0 0.5291667,-0.52916 0.52916667,0.52916667 0 0 0 -0.5291667,-0.52917 z m 0,1.5875 c -0.2922588,0 -0.5291666,0.23692 -0.5291666,0.52917 0,0.29225 0.2369158,0.52916 0.5291666,0.52916 0.1870525,0 0.2645833,0.52917 0.2645833,0.52917 0,0 0.2645834,-0.95313 0.2645834,-1.05833 0,-0.29226 -0.2369159,-0.52917 -0.5291667,-0.52917 z"
       inkscape:connector-curvature="0"
       style="fill:#ffffff;fill-rule:evenodd;stroke-width:0.26458332" />
  </g>
</svg>
