<?xml version="1.0" encoding="UTF-8" standalone="no"?>
<!-- Created with Inkscape (http://www.inkscape.org/) -->

<svg
   xmlns:dc="http://purl.org/dc/elements/1.1/"
   xmlns:cc="http://creativecommons.org/ns#"
   xmlns:rdf="http://www.w3.org/1999/02/22-rdf-syntax-ns#"
   xmlns:svg="http://www.w3.org/2000/svg"
   xmlns="http://www.w3.org/2000/svg"
   xmlns:sodipodi="http://sodipodi.sourceforge.net/DTD/sodipodi-0.dtd"
   xmlns:inkscape="http://www.inkscape.org/namespaces/inkscape"
   width="48"
   height="48"
   viewBox="0 0 12.7 12.7"
   version="1.1"
   id="svg8"
   inkscape:version="0.92.2 (5c3e80d, 2017-08-06)"
   sodipodi:docname="text-x-vala.svg">
  <defs
     id="defs2" />
  <sodipodi:namedview
     id="base"
     pagecolor="#ffffff"
     bordercolor="#666666"
     borderopacity="1.0"
     inkscape:pageopacity="0.0"
     inkscape:pageshadow="2"
     inkscape:zoom="7.5424723"
     inkscape:cx="7.7784536"
     inkscape:cy="21.277852"
     inkscape:document-units="mm"
     inkscape:current-layer="layer1"
     showgrid="true"
     inkscape:window-width="1360"
     inkscape:window-height="718"
     inkscape:window-x="0"
     inkscape:window-y="24"
     inkscape:window-maximized="1"
     units="px">
    <inkscape:grid
       type="xygrid"
       id="grid815" />
  </sodipodi:namedview>
  <metadata
     id="metadata5">
    <rdf:RDF>
      <cc:Work
         rdf:about="">
        <dc:format>image/svg+xml</dc:format>
        <dc:type
           rdf:resource="http://purl.org/dc/dcmitype/StillImage" />
        <dc:title></dc:title>
      </cc:Work>
    </rdf:RDF>
  </metadata>
  <g
     inkscape:label="Capa 1"
     inkscape:groupmode="layer"
     id="layer1"
     transform="translate(0,-284.3)">
    <rect
       style="opacity:1;fill:#4e5258;fill-opacity:1;fill-rule:nonzero;stroke:none;stroke-width:0.29205534;stroke-linecap:round;stroke-linejoin:miter;stroke-miterlimit:4;stroke-dasharray:none;stroke-dashoffset:0;stroke-opacity:0.8802817"
       id="rect817"
       width="8.7312498"
       height="11.377084"
       x="1.8520833"
       y="285.09375"
       ry="0.36506954" />
    <path
       style="fill:#ffffff;fill-opacity:0.23529412;fill-rule:evenodd;stroke:none;stroke-width:0.07301383px;stroke-linecap:butt;stroke-linejoin:miter;stroke-opacity:1"
       d="M 2.38125,285.62292 H 5.0270833 L 2.38125,288.26875 Z"
       id="path819"
       inkscape:connector-curvature="0"
       sodipodi:nodetypes="cccc" />
    <path
       id="path826-3"
       style="fill:#ffffff;fill-opacity:1;fill-rule:nonzero;stroke:none;stroke-width:0.26458332"
       d="m 8.0273044,288.20978 c -0.4564063,0 -0.6876521,0.16166 -0.8696854,0.38524 -0.1820334,0.22357 -0.2907771,0.52149 -0.4151313,0.77761 -0.083608,0.17224 -0.2709333,0.81174 -0.4439708,1.41552 -0.1439334,0.49927 -0.27305,0.99219 -0.4878917,1.43245 -0.1534583,0.23601 -0.4003146,0.3691 -0.6487583,0.3691 -0.087313,0 -0.1743604,-0.0164 -0.2579688,-0.0489 0.2950104,0.42042 0.9749896,1.10225 1.7692688,-0.0336 0.5487458,-0.7874 0.7323666,-2.48285 1.1234208,-3.12103 0.4926542,-0.81174 0.7410979,-0.62071 0.8016875,-0.55271 0.011377,-0.0664 0.017198,-0.13494 0.013758,-0.20135 -0.00503,-0.12224 -0.034925,-0.2159 -0.1055687,-0.28496 -0.070644,-0.0701 -0.2037292,-0.13546 -0.4804833,-0.13546 l 7.937e-4,-0.002 z m -3.7147501,0.7157 c 0.1172105,0.13626 0.2114022,0.3093 0.2682876,0.51276 0.1267354,0.45615 0.1510771,1.02209 0.1793875,1.5203 0.014552,0.24977 0.029369,0.48128 0.052652,0.66305 0.01905,0.28389 0.1277937,0.47704 0.3495145,0.49715 0.2682875,-0.0135 0.3511021,-0.33602 0.4315355,-0.57415 -0.1209146,-0.0524 -0.2960688,-0.34237 -0.4315355,-1.45388 -0.077788,-0.64135 -0.5344583,-0.9951 -0.8498417,-1.16549 z m -0.7231062,0.11457 c -0.057944,0 -0.1068917,0.0167 -0.1457854,0.0444 -0.051594,0.0368 -0.096837,0.0971 -0.117475,0.22198 -0.029898,0.18944 0.096837,0.39952 0.2156354,0.56621 0,0 0,-0.23601 0.2286,-0.35295 0.1243542,-0.0638 0.2778125,0.0394 0.3942292,0.14763 -0.00767,-0.0341 -0.016404,-0.0675 -0.025135,-0.0995 -0.093133,-0.3347 -0.3159125,-0.49451 -0.4884209,-0.52255 l -0.062177,-0.005 z"
       inkscape:connector-curvature="0" />
  </g>
</svg>
