<?xml version="1.0" encoding="UTF-8" standalone="no"?>
<svg
   xmlns:dc="http://purl.org/dc/elements/1.1/"
   xmlns:cc="http://creativecommons.org/ns#"
   xmlns:rdf="http://www.w3.org/1999/02/22-rdf-syntax-ns#"
   xmlns:svg="http://www.w3.org/2000/svg"
   xmlns="http://www.w3.org/2000/svg"
   xmlns:xlink="http://www.w3.org/1999/xlink"
   id="svg3883"
   height="32"
   width="32"
   version="1.1">
  <defs
     id="defs3885">
    <linearGradient
       id="linearGradient849">
      <stop
         id="stop845"
         offset="0"
         style="stop-color:#ffe16b;stop-opacity:1" />
      <stop
         id="stop847"
         offset="1"
         style="stop-color:#f9c440;stop-opacity:1" />
    </linearGradient>
    <linearGradient
       gradientUnits="userSpaceOnUse"
       y2="29.618414"
       x2="16.000036"
       y1="1.4974327"
       x1="16.000036"
       id="linearGradient851"
       xlink:href="#linearGradient849"
       gradientTransform="translate(0,0.99870295)" />
  </defs>
  <metadata
     id="metadata3888">
    <rdf:RDF>
      <cc:Work
         rdf:about="">
        <dc:format>image/svg+xml</dc:format>
        <dc:type
           rdf:resource="http://purl.org/dc/dcmitype/StillImage" />
        <dc:title />
      </cc:Work>
    </rdf:RDF>
  </metadata>
  <path
     d="m 16.000037,2.4961357 c 0.978784,0 4.13436,7.9108813 4.926214,8.4882713 0.791851,0.577387 9.263652,1.14474 9.566113,2.078973 0.302461,0.934234 -6.219087,6.39078 -6.521548,7.325013 -0.30246,0.934233 1.777824,9.195756 0.985972,9.773145 -0.791853,0.577387 -7.977967,-3.961163 -8.956752,-3.961163 -0.978783,0 -8.1648972,4.53855 -8.9567501,3.961163 C 6.251434,29.584149 8.331718,21.322625 8.0292575,20.388393 7.7267971,19.45416 1.2052494,13.997613 1.5077102,13.063378 1.810171,12.129147 10.281971,11.561794 11.073825,10.984407 c 0.791852,-0.57739 3.947429,-8.4882713 4.926212,-8.4882713 z"
     id="path1307"
     style="display:inline;overflow:visible;visibility:visible;fill:url(#linearGradient851);fill-opacity:1;fill-rule:nonzero;stroke:#ad5f00;stroke-width:1;stroke-linecap:butt;stroke-linejoin:round;stroke-miterlimit:4;stroke-dasharray:none;stroke-dashoffset:0;stroke-opacity:0.498039;marker:none" />
</svg>
