<?xml version="1.0" encoding="UTF-8" standalone="no"?>
<svg
   xmlns:svg="http://www.w3.org/2000/svg"
   xmlns="http://www.w3.org/2000/svg"
   xmlns:sodipodi="http://sodipodi.sourceforge.net/DTD/sodipodi-0.dtd"
   xmlns:inkscape="http://www.inkscape.org/namespaces/inkscape"
   sodipodi:docname="teams-tray-activity.svg"
   inkscape:version="1.1-dev (1:0.92.0+devel+202004260039+9758c7a)"
   id="svg6"
   version="1.1"
   viewBox="0 0 4.2333332 4.2333335"
   height="16"
   width="16">
  <defs
     id="defs2" />
  <sodipodi:namedview
     inkscape:window-maximized="1"
     inkscape:window-y="30"
     inkscape:window-x="0"
     inkscape:window-height="1024"
     inkscape:window-width="1920"
     inkscape:guide-bbox="true"
     showguides="true"
     units="px"
     width="16mm"
     showgrid="true"
     inkscape:current-layer="layer1"
     inkscape:document-units="mm"
     inkscape:cy="10.66348"
     inkscape:cx="8.7653413"
     inkscape:zoom="31.678384"
     inkscape:pageshadow="2"
     inkscape:pageopacity="0"
     borderopacity="1.0"
     bordercolor="#666666"
     pagecolor="#4a4a4a"
     id="base">
    <inkscape:grid
       spacingy="0.26458333"
       spacingx="0.26458333"
       id="grid829"
       type="xygrid" />
    <sodipodi:guide
       id="guide841"
       orientation="1,0"
       position="0.92604169,3.571875" />
    <sodipodi:guide
       id="guide843"
       orientation="1,0"
       position="1.984375,3.3072918" />
  </sodipodi:namedview>
  <g
     id="layer1"
     inkscape:groupmode="layer"
     inkscape:label="Layer 1">
    <path
       transform="scale(0.26458333)"
       d="M 7 6 L 7 11 C 7.0000002 12.812934 8.2342259 13.795275 9.5820312 13.964844 C 9.3577972 13.5228 9.2207031 13.032267 9.2207031 12.505859 C 9.2207035 10.715189 10.683939 9.25 12.474609 9.25 C 12.655738 9.25 12.83037 9.2702559 13 9.3007812 L 13 6 L 7 6 z M 12.474609 10.763672 C 11.500981 10.763671 10.732422 11.532231 10.732422 12.505859 C 10.732422 12.994675 10.926065 13.432082 11.242188 13.748047 C 12.228423 13.340864 13 12.430854 13 11 L 13 10.849609 C 12.833712 10.798303 12.659012 10.763672 12.474609 10.763672 z "
       style="fill:#ffffff;fill-opacity:0.66626;stroke:none;stroke-width:3.99999;stroke-linecap:round;stroke-linejoin:round;stroke-dashoffset:1"
       id="path839" />
    <path
       sodipodi:nodetypes="ccccc"
       d="M 0.52916681,1.5875 H 2.38125 v 1.3229167 c 2e-7,1.3229167 -1.85208316,1.3229167 -1.85208319,0 z"
       style="fill:#ffffff;fill-opacity:1;stroke:none;stroke-width:1.05833;stroke-linecap:round;stroke-linejoin:round;stroke-dashoffset:1"
       id="rect827" />
    <circle
       r="0.52916664"
       cy="0.79999501"
       cx="1.4555662"
       id="path834"
       style="fill:#ffffff;fill-opacity:1;stroke:none;stroke-width:1.05833;stroke-linecap:round;stroke-linejoin:round;stroke-dashoffset:1" />
    <circle
       style="fill:#ffffff;fill-opacity:0.666667;stroke:none;stroke-width:0.930392;stroke-linecap:round;stroke-linejoin:round;stroke-dashoffset:1"
       id="circle845"
       cx="2.639575"
       cy="0.85906571"
       r="0.46519765" />
    <circle
       r="0.66214758"
       cy="3.3090107"
       cx="3.301677"
       id="path863"
       style="fill:#598fbb;fill-opacity:1;stroke:none;stroke-width:1.05943;stroke-linecap:round;stroke-linejoin:round;stroke-dashoffset:1" />
    <g
       id="g884">
      <path
         id="path886"
         d="M 3.9638246,3.3090107 A 0.66214758,0.66214758 0 0 1 3.301677,3.9711583 0.66214758,0.66214758 0 0 1 2.6395294,3.3090107 0.66214758,0.66214758 0 0 1 3.301677,2.6468632 0.66214758,0.66214758 0 0 1 3.9638246,3.3090107"
         style="color:#000000;fill:#598fbb;stroke-width:0.4;stroke-linecap:round;stroke-linejoin:round;stroke-dashoffset:1" />
    </g>
  </g>
</svg>
