<svg xmlns="http://www.w3.org/2000/svg" xmlns:svg="http://www.w3.org/2000/svg" id="svg4" width="14" height="14" version="1.1" viewBox="0 0 14 14"><path id="path1941" d="m 4.1715732,4.1716 c -0.3917372,0.3917 -0.3917372,1.0224 0,1.4142 L 5.5857863,7 4.1715732,8.4142 c -0.3917372,0.3918 -0.3917372,1.0225 0,1.4142 0.3917371,0.3918 1.0224761,0.3918 1.4142131,0 l 1.414214,-1.4142 1.414214,1.4142 c 0.391737,0.3918 1.022476,0.3918 1.414213,0 0.3917367,-0.3917 0.3917367,-1.0224 0,-1.4142 L 8.4142143,7 9.8284273,5.5858 c 0.3917367,-0.3918 0.3917367,-1.0225 0,-1.4142 -0.391737,-0.3918 -1.022476,-0.3918 -1.414213,0 L 7.0000003,5.5858 5.5857863,4.1716 c -0.391737,-0.3918 -1.022476,-0.3918 -1.4142131,0 z"/></svg>