<?xml version="1.0" encoding="UTF-8"?>
<svg width="16" height="16" version="1.1" xmlns="http://www.w3.org/2000/svg" xmlns:cc="http://creativecommons.org/ns#" xmlns:dc="http://purl.org/dc/elements/1.1/" xmlns:rdf="http://www.w3.org/1999/02/22-rdf-syntax-ns#" xmlns:xlink="http://www.w3.org/1999/xlink">
 <metadata>
  <rdf:RDF>
   <cc:Work rdf:about="">
    <dc:format>image/svg+xml</dc:format>
    <dc:type rdf:resource="http://purl.org/dc/dcmitype/StillImage"/>
    <dc:title/>
   </cc:Work>
  </rdf:RDF>
 </metadata>
 <g fill-rule="evenodd" stroke-width=".30011">
  <path d="m8 8-4.6719 4.6738c0.80637 0.80698 1.825 1.3983 2.9629 1.7012l1.709-6.375z" fill="#139dcb"/>
  <path d="m8 8-1.709 6.375c0.54552 0.14518 1.1165 0.23047 1.709 0.23047s1.1635-0.085289 1.709-0.23047l-1.709-6.375z" fill="#3ed4f0"/>
  <path d="m8 8 1.709 6.375c1.1379-0.30283 2.1565-0.89419 2.9629-1.7012l-4.6719-4.6738z" fill="#32d439"/>
  <path d="m8 8 4.6719 4.6738c0.80619-0.80681 1.3966-1.8244 1.6992-2.9629l-6.3711-1.7109z" fill="#cee834"/>
  <path d="m14.371 6.2891-6.3711 1.7109 6.3711 1.7109c0.1452-0.54617 0.22852-1.1178 0.22852-1.7109s-0.083319-1.1648-0.22852-1.7109z" fill="#ffe600"/>
  <path d="m12.672 3.3262-4.6719 4.6738 6.3711-1.7109c-0.30266-1.1385-0.89303-2.1561-1.6992-2.9629z" fill="#f7ac1b"/>
  <path d="m9.709 1.625-1.709 6.375 4.6719-4.6738c-0.80637-0.80698-1.825-1.3983-2.9629-1.7012z" fill="#fa7c1a"/>
  <path d="m8 1.3945c-0.59244 0-1.1635 0.085289-1.709 0.23047l1.709 6.375 1.709-6.375c-0.54552-0.14518-1.1165-0.23047-1.709-0.23047z" fill="#ee332c"/>
  <path d="m8 8-6.3711 1.7109c0.30266 1.1385 0.89303 2.1561 1.6992 2.9629l4.6719-4.6738z" fill="#421ca8"/>
  <path d="m1.6289 6.2891c-0.1452 0.54617-0.22852 1.1178-0.22852 1.7109s0.08332 1.1648 0.22852 1.7109l6.3711-1.7109-6.3711-1.7109z" fill="#e861e2"/>
  <path d="m6.291 1.625c-1.1379 0.30283-2.1565 0.89419-2.9629 1.7012l4.6719 4.6738-1.709-6.375z" fill="#ff5474"/>
  <path d="m3.3281 3.3262c-0.80619 0.80681-1.3966 1.8244-1.6992 2.9629l6.3711 1.7109-4.6719-4.6738z" fill="#e92f61"/>
 </g>
 <path d="m8 0.5a7.5 7.5 0 0 0-7.5 7.5 7.5 7.5 0 0 0 7.5 7.5 7.5 7.5 0 0 0 7.5-7.5 7.5 7.5 0 0 0-7.5-7.5zm0 2a5.5 5.5 0 0 1 5.5 5.5 5.5 5.5 0 0 1-5.5 5.5 5.5 5.5 0 0 1-5.5-5.5 5.5 5.5 0 0 1 5.5-5.5z" fill="#fff" stroke="#4f6698" stroke-opacity=".267"/>
 <path d="m-19.517 1.7117c-3.3105 0-6 2.6895-6 6.0001 0 3.3103 2.6895 5.9998 6 5.9998s6-2.6895 6-5.9998c0-3.3106-2.6895-6.0001-6-6.0001z" color="#000000" fill="url(#radialGradient4456)" opacity=".582" overflow="visible" stroke-width=".30011"/>
 <circle cx="8" cy="8" r="5.5" fill="none" stroke="#4f6698" stroke-opacity=".267"/>
 <circle cx="8" cy="8" r="6" fill="#fff" opacity=".25"/>
</svg>
