<svg width="24" height="24" version="1.1" xmlns="http://www.w3.org/2000/svg">
 <defs>
  <style id="current-color-scheme" type="text/css">.ColorScheme-Text { color:#5d656b; } .ColorScheme-Highlight { color:#f55f55; }</style>
 </defs>
 <g>
  <path class="ColorScheme-Text" fill="currentColor" d="m12.022 4.8027a1.0001 1.0001 0 0 0-0.96289 0.66016l-1.6309 4.5059h-3.4297a1.0001 1.0001 0 0 0-0.59766 1.8008l2.8965 2.1641-1.0449 4.0117a1.0001 1.0001 0 0 0 1.543 1.0703l3.2051-2.2539 3.2051 2.252a1.0001 1.0001 0 0 0 0.79297 0.1582v-1.1719a1.0001 1.0001 0 0 1 0.13477-0.5 1.0001 1.0001 0 0 1-0.13477-0.5v-1.9316l-0.29688-1.1367 0.29688-0.2207v-1.248l-1.1855 0.88477a0.43338 0.4609 0 0 0-0.16797 0.5l1.1348 4.3477-3.541-2.4883a0.43338 0.4609 0 0 0-0.47852 0l-3.5391 2.4902 1.1309-4.3477a0.43338 0.4609 0 0 0-0.16602-0.5l-3.1875-2.3809h3.832a0.43338 0.4609 0 0 0 0.40625-0.29492l1.7617-4.8711 1.7637 4.8711a0.43338 0.4609 0 0 0 0.4043 0.29492h3.832l-0.04102 0.03125h1.041a1.0001 1.0001 0 0 0-1-1.0312h-3.4297l-1.6289-4.5059a1.0001 1.0001 0 0 0-0.91797-0.66016z"/>
  <path class="ColorScheme-Text" fill="currentColor" d="m11.999 5.8027-1.7617 4.8711a0.43338 0.4609 0 0 1-0.40625 0.29492h-3.832l3.1875 2.3809a0.43338 0.4609 0 0 1 0.16602 0.5l-1.1309 4.3477 3.5391-2.4902a0.43338 0.4609 0 0 1 0.47852 0l3.541 2.4883-1.1348-4.3477a0.43338 0.4609 0 0 1 0.16797-0.5l1.1855-0.88477v-0.46289a1.0001 1.0001 0 0 1 1-1h0.95898l0.04102-0.03125h-3.832a0.43338 0.4609 0 0 1-0.4043-0.29492l-1.7637-4.8711z" opacity=".25"/>
  <path class="ColorScheme-Highlight" fill="currentColor" d="m16.999 12v5h2v-5zm0 6v2h2v-2z"/>
 </g>
</svg>
