<svg width="24" height="24" version="1.1" xmlns="http://www.w3.org/2000/svg">
 <defs>
  <style id="current-color-scheme" type="text/css">.ColorScheme-Text { color:#5d656b; } .ColorScheme-Highlight { color:#5294e2; }</style>
 </defs>
 <path class="ColorScheme-Text" d="m12 4c-2.0398 0-3.7266 1.657-3.7266 3.6914v0.49609c-0.32185 0.28303-0.54688 0.66689-0.54688 1.1211v0.53711c0 0.43425 0.076273 0.83519 0.26758 1.2129 0.12871 0.25411 0.39895 0.50266 0.74023 0.67383 0.15376 0.44733 0.34973 0.86 0.60938 1.2305-0.00952 0.18797-0.042069 0.30289-0.0625 0.36133-1.0622 0.8573-2.2624 1.4406-3.6016 2.2656l-0.044922 0.0293-0.041016 0.03125c-0.36355 0.28054-0.58539 0.71502-0.59375 1.1777v1.6328c0 0.84194 0.71293 1.5391 1.5449 1.5391h10.91c0.832 0 1.5449-0.69709 1.5449-1.5391v-1.6407c-0.01047-0.41501-0.19294-0.80664-0.49805-1.084l-0.07031-0.06445-0.08203-0.05078c-1.3733-0.83661-2.5945-1.408-3.6289-2.2891-0.02135-0.06004-0.05471-0.17664-0.06445-0.37109 0.25959-0.37082 0.45767-0.78128 0.61133-1.2285 0.34039-0.17131 0.60783-0.42012 0.73633-0.67383 0.1913-0.3777 0.26953-0.77865 0.26953-1.2129v-0.53711c0-0.4542-0.22502-0.83806-0.54688-1.1211v-0.49609c0-2.0185-1.6633-3.656-3.6816-3.6816-0.01588-2.014e-4 -0.029-0.00977-0.04492-0.00977zm0 1a2.7273 2.6923 0 0 1 2.7266 2.6914v1.0781c0.30218 0 0.54688 0.24075 0.54688 0.53906v0.53711c-1e-6 0.59444-0.24578 1.0781-0.54688 1.0781-0.04037 0-0.06338-0.05221-0.10156-0.06836-0.16254 0.8174-0.51264 1.5274-0.98828 2.0195 0.02182 0.75488 0.11538 0.79635 0.16992 1.043 1.2262 1.1319 2.6445 1.7166 4.0234 2.5566a0.528 0.52123 0 0 1 0.16992 0.37109v1.6152c0 0.29831-0.24274 0.53906-0.54492 0.53906h-10.91c-0.30218 0-0.54492-0.24075-0.54492-0.53906v-1.6152a0.53127 0.52446 0 0 1 0.20312-0.4043c1.3582-0.8368 2.7411-1.4368 3.9902-2.5234 0.05454-0.24658 0.1481-0.28805 0.16992-1.043-0.47563-0.4921-0.82683-1.2022-0.98828-2.0195-0.038186 0.01615-0.061198 0.06836-0.10156 0.06836-0.30109 0-0.54688-0.48366-0.54688-1.0781v-0.53711c0-0.29831 0.2447-0.53906 0.54688-0.53906v-1.0781a2.7273 2.6923 0 0 1 2.7266-2.6914z" fill="currentColor"/>
 <path class="ColorScheme-Text" d="m12 5.0001a2.7273 2.6923 0 0 0-2.7273 2.6923v1.0769c-0.30218 0-0.54545 0.24015-0.54545 0.53846v0.53846c0 0.59446 0.24436 1.0769 0.54545 1.0769 0.040364 0 0.064364-0.05169 0.10255-0.06785 0.16145 0.81738 0.51273 1.5271 0.98836 2.0192-0.02182 0.75492-0.11564 0.79692-0.17018 1.0435-1.2491 1.0866-2.6313 1.6875-3.9895 2.5243a0.53127 0.52446 0 0 0-0.204 0.40385v1.6154c0 0.29831 0.24327 0.53846 0.54545 0.53846h10.909c0.30218 0 0.54545-0.24015 0.54545-0.53846v-1.6154a0.528 0.52123 0 0 0-0.17018-0.37046c-1.3789-0.84-2.7971-1.4258-4.0233-2.5577-0.05455-0.24662-0.14836-0.28862-0.17018-1.0435 0.47564-0.49215 0.82582-1.2018 0.98836-2.0192 0.03818 0.01615 0.06218 0.06785 0.10255 0.06785 0.30109 0 0.54545-0.48246 0.54545-1.0769v-0.53846c0-0.29831-0.24327-0.53846-0.54545-0.53846v-1.0769a2.7273 2.6923 0 0 0-2.7273-2.6923z" fill="currentColor" opacity=".25"/>
</svg>
