<?xml version="1.0" encoding="UTF-8" standalone="no"?>
<svg
   xmlns:dc="http://purl.org/dc/elements/1.1/"
   xmlns:cc="http://creativecommons.org/ns#"
   xmlns:rdf="http://www.w3.org/1999/02/22-rdf-syntax-ns#"
   xmlns:svg="http://www.w3.org/2000/svg"
   xmlns="http://www.w3.org/2000/svg"
   xmlns:xlink="http://www.w3.org/1999/xlink"
   xmlns:sodipodi="http://sodipodi.sourceforge.net/DTD/sodipodi-0.dtd"
   xmlns:inkscape="http://www.inkscape.org/namespaces/inkscape"
   style="isolation:isolate"
   viewBox="0 0 34 34"
   width="34pt"
   height="34pt"
   version="1.1"
   id="svg9"
   sodipodi:docname="shutdown.svg"
   inkscape:version="1.0beta2 (unknown)">
  <metadata
     id="metadata15">
    <rdf:RDF>
      <cc:Work
         rdf:about="">
        <dc:format>image/svg+xml</dc:format>
        <dc:type
           rdf:resource="http://purl.org/dc/dcmitype/StillImage" />
        <dc:title />
      </cc:Work>
    </rdf:RDF>
  </metadata>
  <defs
     id="defs13">
    <linearGradient
       gradientUnits="userSpaceOnUse"
       y2="17"
       x2="33.5"
       y1="17"
       x1="0.5"
       id="linearGradient847"
       xlink:href="#_lgradient_1"
       inkscape:collect="always" />
  </defs>
  <sodipodi:namedview
     pagecolor="#ffffff"
     bordercolor="#666666"
     borderopacity="1"
     objecttolerance="10"
     gridtolerance="10"
     guidetolerance="10"
     inkscape:pageopacity="0"
     inkscape:pageshadow="2"
     inkscape:window-width="1366"
     inkscape:window-height="711"
     id="namedview11"
     showgrid="false"
     inkscape:zoom="3.3218928"
     inkscape:cx="-12.257183"
     inkscape:cy="22.666667"
     inkscape:window-x="0"
     inkscape:window-y="27"
     inkscape:window-maximized="1"
     inkscape:current-layer="svg9"
     inkscape:document-rotation="0" />
  <linearGradient
     id="_lgradient_1"
     x1="0"
     y1="0.5"
     x2="1"
     y2="0.5"
     gradientTransform="matrix(33,0,0,33,0.5,0.5)"
     gradientUnits="userSpaceOnUse">
    <stop
       offset="0%"
       stop-opacity="1"
       style="stop-color:#ff5555;stop-opacity:1"
       id="stop2" />
    <stop
       offset="100%"
       stop-opacity="1"
       style="stop-color:#ff5555;stop-opacity:1"
       id="stop4" />
  </linearGradient>
  <path
     d=" M 29.526 8.628 L 29.526 8.628 C 29.304 8.299 29.391 7.853 29.719 7.631 L 29.719 7.631 C 30.048 7.409 30.495 7.496 30.717 7.825 L 30.717 7.825 C 32.532 10.543 33.5 13.736 33.5 17 C 33.5 21.376 31.764 25.573 28.665 28.665 C 25.573 31.764 21.376 33.5 17 33.5 C 12.624 33.5 8.427 31.764 5.335 28.665 C 2.236 25.573 0.5 21.376 0.5 17 L 0.5 17 C 0.5 12.624 2.236 8.427 5.335 5.335 C 8.427 2.243 12.624 0.5 17 0.5 C 19.453 0.5 21.885 1.045 24.102 2.107 L 24.102 2.107 C 24.459 2.277 24.61 2.705 24.439 3.061 L 24.439 3.061 C 24.269 3.417 23.842 3.569 23.485 3.398 L 23.485 3.398 C 21.462 2.437 19.245 1.935 17 1.935 C 13.004 1.935 9.173 3.52 6.347 6.347 C 3.52 9.173 1.935 13.004 1.935 17 L 1.935 17 C 1.935 20.996 3.52 24.827 6.347 27.653 C 9.173 30.48 13.004 32.065 17 32.065 C 20.996 32.065 24.827 30.48 27.653 27.653 C 30.48 24.827 32.065 20.996 32.065 17 C 32.065 14.016 31.183 11.103 29.526 8.628 L 29.526 8.628 Z  M 17.148 6.533 L 17.148 6.533 C 17.562 6.533 17.898 6.869 17.898 7.283 L 17.898 17.698 C 17.898 18.112 17.562 18.448 17.148 18.448 L 17.148 18.448 C 16.734 18.448 16.398 18.112 16.398 17.698 L 16.398 7.283 C 16.398 6.869 16.734 6.533 17.148 6.533 L 17.148 6.533 Z  M 20.375 11.461 L 20.375 11.461 C 20.007 11.275 19.859 10.825 20.045 10.456 L 20.045 10.456 C 20.231 10.088 20.682 9.94 21.05 10.126 L 21.05 10.126 C 22.535 10.876 23.787 12.024 24.657 13.441 C 25.535 14.859 26 16.486 26 18.151 C 26 18.564 25.97 18.969 25.918 19.374 C 25.625 21.526 24.56 23.506 22.925 24.939 C 21.282 26.371 19.183 27.159 17.007 27.166 C 16.602 27.166 16.19 27.136 15.793 27.084 C 13.632 26.791 11.652 25.726 10.22 24.091 C 8.787 22.449 8 20.349 8 18.174 C 8 17.761 8.022 17.356 8.082 16.951 C 8.503 13.824 10.543 11.146 13.438 9.894 L 13.438 9.894 C 13.818 9.732 14.26 9.909 14.424 10.287 L 14.424 10.287 C 14.587 10.666 14.414 11.108 14.038 11.274 L 14.038 11.274 C 11.623 12.316 9.92 14.551 9.568 17.154 C 9.522 17.491 9.5 17.829 9.5 18.174 C 9.5 19.981 10.16 21.736 11.353 23.101 C 12.545 24.466 14.195 25.351 15.987 25.591 C 16.325 25.636 16.67 25.666 17.007 25.666 C 18.823 25.659 20.57 25.006 21.935 23.806 C 23.3 22.614 24.185 20.964 24.433 19.171 C 24.477 18.834 24.5 18.496 24.5 18.151 C 24.5 15.331 22.895 12.736 20.375 11.461 Z "
     fill-rule="evenodd"
     fill="url(#_lgradient_1)"
     id="path7"
     inkscape:export-xdpi="90"
     inkscape:export-ydpi="90"
     style="fill:url(#linearGradient847);fill-opacity:1.0" />
</svg>
