<?xml version="1.0" encoding="UTF-8" standalone="no"?>
<svg
   xmlns:dc="http://purl.org/dc/elements/1.1/"
   xmlns:cc="http://creativecommons.org/ns#"
   xmlns:rdf="http://www.w3.org/1999/02/22-rdf-syntax-ns#"
   xmlns:svg="http://www.w3.org/2000/svg"
   xmlns="http://www.w3.org/2000/svg"
   xmlns:sodipodi="http://sodipodi.sourceforge.net/DTD/sodipodi-0.dtd"
   xmlns:inkscape="http://www.inkscape.org/namespaces/inkscape"
   height="48"
   width="48"
   version="1.1"
   id="svg10"
   sodipodi:docname="3D-Coat.svg"
   inkscape:version="1.0.1 (3bc2e813f5, 2020-09-07)">
  <metadata
     id="metadata16">
    <rdf:RDF>
      <cc:Work
         rdf:about="">
        <dc:format>image/svg+xml</dc:format>
        <dc:type
           rdf:resource="http://purl.org/dc/dcmitype/StillImage" />
        <dc:title></dc:title>
      </cc:Work>
    </rdf:RDF>
  </metadata>
  <defs
     id="defs14" />
  <sodipodi:namedview
     pagecolor="#ffffff"
     bordercolor="#666666"
     borderopacity="1"
     objecttolerance="10"
     gridtolerance="10"
     guidetolerance="10"
     inkscape:pageopacity="0"
     inkscape:pageshadow="2"
     inkscape:window-width="1920"
     inkscape:window-height="1031"
     id="namedview12"
     showgrid="false"
     inkscape:zoom="5.6715856"
     inkscape:cx="-41.827608"
     inkscape:cy="18.574906"
     inkscape:window-x="0"
     inkscape:window-y="24"
     inkscape:window-maximized="1"
     inkscape:current-layer="svg10" />
  <path
     d="m44.322082 27.405077a19.729762 19.729765 0 0 1 -19.729762 19.729765 19.729762 19.729765 0 0 1 -19.7297621-19.729765 19.729762 19.729765 0 0 1 19.7297621-19.7297632 19.729762 19.729765 0 0 1 19.729762 19.7297632z"
     fill="#73517c"
     opacity=".99"
     transform="matrix(1.1503549 0 0 1.1503549 -4.486125 -7.525565)"
     id="path2" />
  <path
     d="M 44.377731,23.999999 A 20.57396,20.573963 0 0 1 23.803771,44.573962 20.57396,20.573963 0 0 1 3.2298109,23.999999 20.57396,20.573963 0 0 1 23.803771,3.4260388 20.57396,20.573963 0 0 1 44.377731,23.999999 Z"
     fill="#73517c"
     opacity="0.99"
     id="path857"
     style="fill:#ffffff;fill-opacity:0.175321;stroke-width:1.04279" />
  <path
     inkscape:connector-curvature="0"
     style="fill:#ffffff;fill-opacity:1;stroke-width:0.788006"
     d="m 15.935931,15.866915 c -1.576018,0 -1.576018,1.576014 -1.576018,1.576014 v 1.576017 c 0,0 0,4.728046 -3.940033,4.728046 -2.3368408,0 -3.2730243,-1.656945 -3.6599283,-3.010436 A 17.336165,17.336165 0 0 0 6.4798428,23.746992 17.336165,17.336165 0 0 0 23.816006,41.083155 17.336165,17.336165 0 0 0 41.152173,23.746992 17.336165,17.336165 0 0 0 40.690447,19.866978 c -1.107508,0.276416 -1.11429,1.515992 -1.11429,1.515992 v 5.516051 c 0,0 0,1.576016 -1.576016,1.576016 -1.576013,0 -1.576013,-1.576016 -1.576013,-1.576016 v -4.728045 c 0,0 0,-1.576017 -1.576017,-1.576017 -1.576016,0 -1.576016,1.576017 -1.576016,1.576017 v 6.304061 c 0,0 0,2.364022 -3.15203,2.364022 -3.152028,0 -3.152028,-3.152033 -3.152028,-3.152033 v -8.66808 c 0,0 0,-3.152031 -3.152031,-3.152031 -3.152029,0 -3.152029,3.152031 -3.152029,3.152031 v 13.396128 c 0,0 0,1.576014 -1.576016,1.576014 -1.576014,0 -1.576014,-1.576014 -1.576014,-1.576014 V 17.442929 c 0,0 0,-1.576014 -1.576016,-1.576014 z"
     id="path10" />
</svg>
