<?xml version="1.0" encoding="UTF-8" standalone="no"?>
<svg
   xmlns:dc="http://purl.org/dc/elements/1.1/"
   xmlns:cc="http://creativecommons.org/ns#"
   xmlns:rdf="http://www.w3.org/1999/02/22-rdf-syntax-ns#"
   xmlns:svg="http://www.w3.org/2000/svg"
   xmlns="http://www.w3.org/2000/svg"
   xmlns:sodipodi="http://sodipodi.sourceforge.net/DTD/sodipodi-0.dtd"
   xmlns:inkscape="http://www.inkscape.org/namespaces/inkscape"
   height="48"
   width="48"
   version="1.1"
   id="svg10"
   sodipodi:docname="4chan.svg"
   inkscape:version="0.92.1 r15371">
  <metadata
     id="metadata16">
    <rdf:RDF>
      <cc:Work
         rdf:about="">
        <dc:format>image/svg+xml</dc:format>
        <dc:type
           rdf:resource="http://purl.org/dc/dcmitype/StillImage" />
        <dc:title></dc:title>
      </cc:Work>
    </rdf:RDF>
  </metadata>
  <defs
     id="defs14">
    <filter
       id="a"
       width="400%"
       height="400%"
       x="-200%"
       y="-200%"
       color-interpolation-filters="sRGB"
       filterUnits="objectBoundingBox">
      <feGaussianBlur
         in="SourceGraphic"
         stdDeviation="4.294"
         id="feGaussianBlur837" />
      <feOffset
         dy="4"
         result="pf_100_offsetBlur"
         id="feOffset839" />
      <feFlood
         flood-opacity=".4"
         id="feFlood841" />
      <feComposite
         in2="pf_100_offsetBlur"
         operator="in"
         result="pf_100_dropShadow"
         id="feComposite843" />
      <feBlend
         in="SourceGraphic"
         in2="pf_100_dropShadow"
         id="feBlend845" />
    </filter>
  </defs>
  <sodipodi:namedview
     pagecolor="#ffffff"
     bordercolor="#666666"
     borderopacity="1"
     objecttolerance="10"
     gridtolerance="10"
     guidetolerance="10"
     inkscape:pageopacity="0"
     inkscape:pageshadow="2"
     inkscape:window-width="1920"
     inkscape:window-height="1040"
     id="namedview12"
     showgrid="false"
     inkscape:zoom="4.9166667"
     inkscape:cx="24"
     inkscape:cy="24"
     inkscape:window-x="0"
     inkscape:window-y="0"
     inkscape:window-maximized="1"
     inkscape:current-layer="svg10" />
  <path
     d="m44.322082 27.405077a19.729762 19.729765 0 0 1 -19.729762 19.729765 19.729762 19.729765 0 0 1 -19.7297621-19.729765 19.729762 19.729765 0 0 1 19.7297621-19.7297632 19.729762 19.729765 0 0 1 19.729762 19.7297632z"
     fill="#5fbe9e"
     opacity=".99"
     transform="matrix(1.1503549 0 0 1.1503549 -4.486125 -7.525565)"
     id="path2" />
  <path
     style="isolation:isolate;fill:#f9f9f9;stroke-width:0.17156023"
     inkscape:connector-curvature="0"
     d="m 28.435897,11.647665 c -1.269717,0 -2.573403,1.755919 -2.573403,5.146807 0,3.088084 1.029361,5.146805 1.029361,5.146805 0,0 8.234891,-1.029361 8.234891,-5.146805 0,-3.088084 -2.899539,-5.595951 -4.117446,-3.088084 -0.459781,-1.379344 -1.344002,-2.058723 -2.573403,-2.058723 z m -11.837656,1.029362 c -3.088084,0 -5.595951,2.899539 -3.088084,4.117445 -1.379344,0.459781 -2.058722,1.344003 -2.058722,2.573403 0,1.269717 1.755919,2.573402 5.146806,2.573402 3.088084,0 5.146807,-1.029361 5.146807,-1.029361 0,0 -1.029361,-8.234889 -5.146807,-8.234889 z m 4.117446,13.381697 c 0,0 -8.234891,1.029361 -8.234891,5.146804 0,3.088086 2.899539,5.59595 4.117445,3.088086 0.459782,1.379342 1.344003,2.058723 2.573404,2.058723 1.269717,0 2.573403,-1.755921 2.573403,-5.146809 0,-3.088083 -1.029361,-5.146804 -1.029361,-5.146804 z m 10.293613,0 c -3.088083,0 -5.146806,1.029361 -5.146806,1.029361 0,0 1.029361,8.23489 5.146806,8.23489 3.088085,0 5.595952,-2.899539 3.088085,-4.117447 1.379344,-0.459779 2.058722,-1.344001 2.058722,-2.5734 0,-1.269717 -1.755918,-2.573404 -5.146807,-2.573404 z"
     id="path850-9-3" />
</svg>
