<?xml version="1.0" encoding="UTF-8" standalone="no"?>
<svg
   xmlns:dc="http://purl.org/dc/elements/1.1/"
   xmlns:cc="http://creativecommons.org/ns#"
   xmlns:rdf="http://www.w3.org/1999/02/22-rdf-syntax-ns#"
   xmlns:svg="http://www.w3.org/2000/svg"
   xmlns="http://www.w3.org/2000/svg"
   xmlns:sodipodi="http://sodipodi.sourceforge.net/DTD/sodipodi-0.dtd"
   xmlns:inkscape="http://www.inkscape.org/namespaces/inkscape"
   height="48"
   width="48"
   version="1.1"
   id="svg12"
   sodipodi:docname="4kstogram.svg"
   inkscape:version="1.0.1 (3bc2e813f5, 2020-09-07)">
  <metadata
     id="metadata18">
    <rdf:RDF>
      <cc:Work
         rdf:about="">
        <dc:format>image/svg+xml</dc:format>
        <dc:type
           rdf:resource="http://purl.org/dc/dcmitype/StillImage" />
        <dc:title></dc:title>
      </cc:Work>
    </rdf:RDF>
  </metadata>
  <defs
     id="defs16" />
  <sodipodi:namedview
     pagecolor="#ffffff"
     bordercolor="#666666"
     borderopacity="1"
     objecttolerance="10"
     gridtolerance="10"
     guidetolerance="10"
     inkscape:pageopacity="0"
     inkscape:pageshadow="2"
     inkscape:window-width="1920"
     inkscape:window-height="1031"
     id="namedview14"
     showgrid="true"
     inkscape:zoom="5.656854"
     inkscape:cx="-5.3287783"
     inkscape:cy="61.715717"
     inkscape:window-x="0"
     inkscape:window-y="24"
     inkscape:window-maximized="1"
     inkscape:current-layer="svg12"
     inkscape:document-rotation="0">
    <inkscape:grid
       type="xygrid"
       id="grid828" />
  </sodipodi:namedview>
  <path
     inkscape:connector-curvature="0"
     style="fill:#96887c;fill-opacity:1"
     d="M 3.452703,46 H 43.5473 C 44.35209,46 45,45.352094 45,44.547297 V 4.452703 C 45,3.647906 44.35209,3 43.5473,3 H 3.452703 C 2.647906,3 2,3.647906 2,4.452703 V 44.547297 C 2,45.352094 2.647906,46 3.452703,46 Z"
     id="rect2-2" />
  <path
     inkscape:connector-curvature="0"
     style="fill:#84756a;fill-opacity:1"
     d="M 3.452703,46 H 43.5473 C 44.35209,46 45,45.352094 45,44.547297 V 29 H 2 V 44.547297 C 2,45.352094 2.647906,46 3.452703,46 Z"
     id="path884"
     sodipodi:nodetypes="sssccss" />
  <rect
     style="fill:#000000;stroke-width:3.77953;stroke-linecap:square;stroke-linejoin:round;paint-order:stroke markers fill;fill-opacity:0.49847165"
     id="rect842"
     width="37"
     height="7"
     x="5"
     y="33" />
  <path
     style="fill:#ffffff;stroke:none;stroke-width:1px;stroke-linecap:butt;stroke-linejoin:miter;stroke-opacity:1;fill-opacity:1"
     d="M 8,34 5,44 H 42 L 39,34 Z"
     id="path844" />
  <rect
     style="fill:#ffffff;fill-opacity:0.513879;stroke:none;stroke-width:3.77953;stroke-linecap:square;stroke-linejoin:round;paint-order:stroke markers fill"
     id="rect846"
     width="43"
     height="1"
     x="2"
     y="28" />
  <circle
     style="fill:#e8e8e8;fill-opacity:1;stroke:none;stroke-width:4.88201;stroke-linecap:square;stroke-linejoin:round;paint-order:stroke markers fill"
     id="circle854"
     cx="23.5"
     cy="15.568449"
     r="11.625282" />
  <circle
     style="fill:#1e1e1e;fill-opacity:1;stroke:none;stroke-width:3.77953;stroke-linecap:square;stroke-linejoin:round;paint-order:stroke markers fill"
     id="path848"
     cx="23.5"
     cy="15.568449"
     r="9" />
  <circle
     style="fill:#000000;fill-opacity:0.791105;stroke:none;stroke-width:3.77953;stroke-linecap:square;stroke-linejoin:round;paint-order:stroke markers fill"
     id="path878"
     cx="23.5"
     cy="15.568449"
     r="2.5" />
  <circle
     style="fill:#bfbfbf;fill-opacity:0.514959;stroke:none;stroke-width:3.77953;stroke-linecap:square;stroke-linejoin:round;paint-order:stroke markers fill"
     id="path850"
     cx="22.006844"
     cy="11.924027"
     r="2.5" />
  <circle
     style="fill:#bfbfbf;fill-opacity:0.514959;stroke:none;stroke-width:3.77953;stroke-linecap:square;stroke-linejoin:round;paint-order:stroke markers fill"
     id="path852"
     cx="23.143799"
     cy="14.600716"
     r="1" />
  <path
     id="circle871"
     style="fill:#ffffff;fill-opacity:0.06337557;stroke:none;stroke-width:3.22723;stroke-linecap:square;stroke-linejoin:round;paint-order:stroke markers fill"
     d="M 23.433594 7.8730469 A 7.6848335 7.6848335 0 0 0 15.75 15.556641 A 7.6848335 7.6848335 0 0 0 18.820312 21.703125 A 7.6848335 7.6848335 0 0 1 16.384766 16.087891 A 7.6848335 7.6848335 0 0 1 24.068359 8.4042969 A 7.6848335 7.6848335 0 0 1 28.666016 9.9296875 A 7.6848335 7.6848335 0 0 0 23.433594 7.8730469 z " />
  <circle
     style="fill:none;fill-opacity:1;stroke:#6f6359;stroke-width:0.5;stroke-linecap:square;stroke-linejoin:round;stroke-miterlimit:4;stroke-dasharray:none;stroke-opacity:1;paint-order:stroke markers fill"
     id="circle880"
     cx="23.5"
     cy="15.568449"
     r="10.429596" />
  <circle
     style="fill:#f59860;fill-opacity:1;stroke:none;stroke-width:0.5;stroke-linecap:square;stroke-linejoin:round;stroke-miterlimit:4;stroke-dasharray:none;stroke-opacity:1;paint-order:stroke markers fill"
     id="path882"
     cx="6.5"
     cy="8.5"
     r="2.5" />
  <path
     style="fill:#5f5f5f;stroke:none;stroke-width:1px;stroke-linecap:butt;stroke-linejoin:miter;stroke-opacity:1;fill-opacity:0.7379508"
     d="m 39,42 -16,-7 5,-1 h 9 z"
     id="path886"
     sodipodi:nodetypes="cccc" />
  <path
     style="fill:#bcdcde;stroke:none;stroke-width:1px;stroke-linecap:butt;stroke-linejoin:miter;stroke-opacity:1;fill-opacity:0.7379508"
     d="M 10,34 8,42 H 39 L 23,35 28,34 Z"
     id="path888" />
</svg>
