<svg height="48" width="48" xmlns="http://www.w3.org/2000/svg"><path d="m44.322082 27.405077a19.729762 19.729765 0 0 1 -19.729762 19.729765 19.729762 19.729765 0 0 1 -19.7297621-19.729765 19.729762 19.729765 0 0 1 19.7297621-19.7297632 19.729762 19.729765 0 0 1 19.729762 19.7297632z" fill="#a77777" opacity=".99" transform="matrix(1.1503549 0 0 1.1503549 -4.486125 -7.525565)"/><g fill="#fff"><path d="m34.5 21 4.5 10.5-6 3c3-4.5-1.5-10.5-4.5-12l-4.5 6-4.5-6c-3 1.5-7.5 7.5-4.5 12l-6-3 4.5-10.5v-9l5.25 3 5.25-3 5.25 3 5.25-3z"/><path d="m33 19.5c4.5 0 6.042421-.65354 7.5-3 0 4.5-3 9-7.5 9" fill-opacity=".497696"/><path d="m15 19.5c-4.5 0-6.042421-.65354-7.5-3 0 4.5 3 9 7.5 9" fill-opacity=".497696"/></g><circle cx="24" cy="21.75" fill="#a77777" r="2.25"/></svg>