<svg height="48" width="48" xmlns="http://www.w3.org/2000/svg"><rect fill="#ac9d93" height="43" ry="1.452703" width="43" x="2" y="3"/><path d="m5 6h17l1 4 .997437-4h17.002563v37h-17l-1-5-1 5h-17z" fill="#fff"/><g fill="#ac9d93" fill-rule="evenodd"><path d="m8 8a1.0001 1.0001 0 1 0 0 2h7a1.0001 1.0001 0 1 0 0-2z"/><path d="m7 12.349609a.650391.650391 0 1 0 0 1.300782h5a.650391.650391 0 1 0 0-1.300782z"/><path d="m15 12.349609a.650391.650391 0 1 0 0 1.300782h3a.650391.650391 0 1 0 0-1.300782z"/><path d="m7 15.349609a.650391.650391 0 1 0 0 1.300782h6a.650391.650391 0 1 0 0-1.300782z"/><path d="m16 15.349609a.650391.650391 0 1 0 0 1.300782h3a.650391.650391 0 1 0 0-1.300782z"/><path d="m7 18.349609a.650391.650391 0 1 0 0 1.300782h2a.650391.650391 0 1 0 0-1.300782z"/><path d="m12 18.349609a.650391.650391 0 1 0 0 1.300782h5a.650391.650391 0 1 0 0-1.300782z"/><path d="m7 21.349609a.650391.650391 0 1 0 0 1.300782h9a.650391.650391 0 1 0 0-1.300782z"/><path d="m27 8a1.0001 1.0001 0 1 0 0 2h7a1.0001 1.0001 0 1 0 0-2z"/><path d="m27 12.349609a.650391.650391 0 1 0 0 1.300782h11a.650391.650391 0 1 0 0-1.300782z"/><path d="m27 15.349609a.650391.650391 0 1 0 0 1.300782h3a.650391.650391 0 1 0 0-1.300782z"/><path d="m33 15.349609a.650391.650391 0 1 0 0 1.300782h3a.650391.650391 0 1 0 0-1.300782z"/><path d="m27 18.349609a.650391.650391 0 1 0 0 1.300782h7a.650391.650391 0 1 0 0-1.300782z"/><path d="m37 18.349609a.650391.650391 0 1 0 0 1.300782h1a.650391.650391 0 1 0 0-1.300782z"/><path d="m27 21.349609a.650391.650391 0 1 0 0 1.300782h3a.650391.650391 0 1 0 0-1.300782z"/><path d="m33 21.349609a.650391.650391 0 1 0 0 1.300782h2a.650391.650391 0 1 0 0-1.300782z"/><path d="m38 21.349609a.650391.650391 0 1 0 0 1.300782h1a.650391.650391 0 1 0 0-1.300782z"/><path d="m27 24.349609a.650391.650391 0 1 0 0 1.300782h9a.650391.650391 0 1 0 0-1.300782z"/><path d="m27 27.349609a.650391.650391 0 1 0 0 1.300782h4a.650391.650391 0 1 0 0-1.300782z"/><path d="m35 27.349609a.650391.650391 0 1 0 0 1.300782h3a.650391.650391 0 1 0 0-1.300782z"/></g></svg>