<svg height="48" width="48" xmlns="http://www.w3.org/2000/svg"><g transform="matrix(.36404222 0 0 .36404222 .260514 -59.553138)"><circle cx="66.523804" cy="230.09819" fill="#7ab3ad" r="63.499996"/><path d="m320 50.267578v61.732422c0 20.00001.00001 20-20 20h-50.71484c-9.28572 0-9.28516.00083-9.28516 8.57227v31.42773c0 20.00001 0 20-20 20h-39.35156c-20.64796 0-20.64844-.00001-20.64844 20 0 19.99997 0 20 20 20h180c20.00002 0 20-.00001 20 20v40c0 20.00001.00003 20 20 20h64.70703a220 220 0 0 0 6.7207-52.85742 220 220 0 0 0 -151.42773-208.875002zm-273.164062 128.568362a220 220 0 0 0 -15.408204 80.30664 220 220 0 0 0 219.999996 220 220 220 0 0 0 41.75782-4.17969l-33.18555-82.96289c-20 19.99997-100-40.00001-80-80z" fill="#fff" transform="matrix(.26458333 0 0 .26458333 0 161.53332)"/></g></svg>