<?xml version="1.0" encoding="UTF-8" standalone="no"?>
<svg
   xmlns:dc="http://purl.org/dc/elements/1.1/"
   xmlns:cc="http://creativecommons.org/ns#"
   xmlns:rdf="http://www.w3.org/1999/02/22-rdf-syntax-ns#"
   xmlns:svg="http://www.w3.org/2000/svg"
   xmlns="http://www.w3.org/2000/svg"
   xmlns:sodipodi="http://sodipodi.sourceforge.net/DTD/sodipodi-0.dtd"
   xmlns:inkscape="http://www.inkscape.org/namespaces/inkscape"
   height="48"
   width="48"
   version="1.1"
   id="svg10"
   sodipodi:docname="aim.svg"
   inkscape:version="0.92.1 r15371">
  <metadata
     id="metadata16">
    <rdf:RDF>
      <cc:Work
         rdf:about="">
        <dc:format>image/svg+xml</dc:format>
        <dc:type
           rdf:resource="http://purl.org/dc/dcmitype/StillImage" />
        <dc:title></dc:title>
      </cc:Work>
    </rdf:RDF>
  </metadata>
  <defs
     id="defs14" />
  <sodipodi:namedview
     pagecolor="#ffffff"
     bordercolor="#666666"
     borderopacity="1"
     objecttolerance="10"
     gridtolerance="10"
     guidetolerance="10"
     inkscape:pageopacity="0"
     inkscape:pageshadow="2"
     inkscape:window-width="1920"
     inkscape:window-height="1040"
     id="namedview12"
     showgrid="true"
     inkscape:zoom="4.9166667"
     inkscape:cx="-2.7813419"
     inkscape:cy="73.236255"
     inkscape:window-x="0"
     inkscape:window-y="0"
     inkscape:window-maximized="1"
     inkscape:current-layer="svg10">
    <inkscape:grid
       type="xygrid"
       id="grid823" />
  </sodipodi:namedview>
  <g
     fill="#626c97"
     opacity=".99"
     transform="matrix(1.1503549 0 0 1.1503549 -4.486125 -7.525565)"
     id="g6"
     style="fill:#5f8bc6;fill-opacity:1">
    <path
       d="m44.322082 27.405077a19.729762 19.729765 0 0 1 -19.729762 19.729765 19.729762 19.729765 0 0 1 -19.7297621-19.729765 19.729762 19.729765 0 0 1 19.7297621-19.7297632 19.729762 19.729765 0 0 1 19.729762 19.7297632z"
       id="path2"
       style="fill:#5f8bc6;fill-opacity:1" />
    <path
       d="m44.322082 27.405077a19.729762 19.729765 0 0 1 -19.729762 19.729765 19.729762 19.729765 0 0 1 -19.7297621-19.729765 19.729762 19.729765 0 0 1 19.7297621-19.7297632 19.729762 19.729765 0 0 1 19.729762 19.7297632z"
       id="path4"
       style="fill:#5f8bc6;fill-opacity:1" />
  </g>
  <path
     style="fill:#f3f3f3;stroke-width:0.47156206"
     inkscape:connector-curvature="0"
     id="path4303-3"
     d="m 13.242813,30.401173 c 0.274514,-0.140049 0.713276,-0.475311 0.97503,-0.745035 0.261753,-0.269719 0.537054,-0.490401 0.611785,-0.490401 0.07475,0 0.249197,0.222172 0.387725,0.493716 0.409502,0.802684 0.961228,1.033834 1.946879,0.815666 0.362957,-0.08034 1.151103,-0.799327 1.151103,-1.050093 0,-0.05706 -0.217905,-0.138583 -0.484232,-0.18117 -0.329412,-0.05268 -0.586854,-0.1994 -0.805226,-0.458924 -0.42196,-0.501473 -0.424968,-1.272868 -0.01098,-2.818092 0.170157,-0.635166 0.309389,-1.283781 0.309389,-1.441368 0,-0.35469 -0.486191,-0.692365 -1.119106,-0.777256 -0.545054,-0.07311 -0.479429,-0.207766 -0.919445,1.886889 -0.350646,1.669259 -0.648979,2.221567 -1.537188,2.84582 -0.45008,0.316334 -0.649897,0.375109 -1.275222,0.375109 -0.70958,0 -0.762099,-0.02207 -1.219621,-0.51256 -0.276531,-0.296456 -0.539719,-0.740413 -0.624244,-1.052998 -0.201193,-0.744006 -0.09113,-2.148158 0.22411,-2.85916 0.38389,-0.865864 1.263994,-1.739296 2.16776,-2.151352 0.689753,-0.314474 0.904765,-0.351327 2.011143,-0.344697 1.390645,0.0083 2.071662,0.20057 2.811017,0.793498 0.251492,0.201692 0.484946,0.321907 0.518787,0.267154 0.101121,-0.163618 -0.16682,-1.165438 -0.42223,-1.578696 -0.535769,-0.866905 -2.255456,-1.376886 -3.932755,-1.166276 -3.18535,0.399965 -5.2341693,2.871506 -5.2293912,6.30833 0.00244,2.151379 0.7465757,3.550008 2.1664642,4.074947 0.517327,0.191256 1.702238,0.07111 2.298452,-0.233051 z m 8.78047,0.129708 c 0.506566,-0.145284 1.12345,-0.703533 1.12345,-1.016674 0,-0.166687 -0.09531,-0.224586 -0.369703,-0.224586 -0.23197,0 -0.517819,-0.132362 -0.767344,-0.355312 -0.354311,-0.316574 -0.402929,-0.441486 -0.44599,-1.145905 -0.03991,-0.653638 0.06352,-1.219823 0.597344,-3.268241 0.889488,-3.41319 0.866392,-3.159607 0.287431,-3.156033 -0.637266,0.0038 -1.422953,0.192874 -1.531344,0.368248 -0.118669,0.19202 -0.972743,4.558278 -1.102657,5.637071 -0.197621,1.641154 0.133061,2.770016 0.910658,3.108725 0.459063,0.199952 0.744339,0.211538 1.298155,0.05271 z m 15.993572,-0.157294 c 0.52167,-0.263264 0.921904,-0.76435 0.786066,-0.984141 -0.03397,-0.0549 -0.256052,-0.09982 -0.493601,-0.09982 -0.298261,0 -0.530073,-0.09816 -0.749144,-0.317234 -0.29602,-0.296023 -0.313114,-0.376783 -0.255737,-1.207849 0.03385,-0.48984 0.184369,-1.448083 0.334542,-2.129433 0.318214,-1.443734 0.284448,-2.381431 -0.115521,-3.20765 -0.633063,-1.307731 -2.352477,-1.252978 -3.837843,0.12222 -0.394309,0.36505 -0.755421,0.625225 -0.80249,0.578158 -0.04704,-0.04706 -0.190579,-0.322963 -0.318931,-0.613111 -0.604717,-1.367068 -2.479867,-1.375456 -3.888838,-0.0174 -0.608228,0.586256 -0.944999,0.688255 -0.944999,0.28622 0,-0.361292 -0.372522,-0.920942 -0.739241,-1.110576 -0.941115,-0.48667 -2.481443,0.02052 -2.625363,0.864486 -0.03614,0.211704 0.0445,0.257214 0.561692,0.317112 1.187042,0.137474 1.235857,0.532709 0.536678,4.34485 -0.304577,1.66062 -0.512885,3.063993 -0.462915,3.118605 0.04999,0.05462 0.447539,0.08249 0.883506,0.06194 l 0.792645,-0.03735 0.141224,-0.619406 c 0.0777,-0.340676 0.260631,-1.252992 0.406584,-2.027368 0.608737,-3.229814 1.816252,-4.976885 3.001458,-4.342582 0.343285,0.183721 0.600871,0.855475 0.600311,1.565544 -2.53e-4,0.32583 -0.195162,1.623734 -0.433113,2.884233 -0.237961,1.2605 -0.432869,2.363941 -0.433123,2.452095 -3.77e-4,0.119729 0.226118,0.151069 0.895055,0.123883 l 0.895518,-0.0364 0.33646,-1.840224 c 0.39121,-2.139628 0.804308,-3.455267 1.353799,-4.311577 0.87752,-1.367497 2.197894,-1.277858 2.473712,0.167942 0.103613,0.543113 0.01844,1.324019 -0.314929,2.886814 -0.326106,1.528813 -0.198737,2.546703 0.382063,3.053283 0.479946,0.41862 1.293816,0.448517 2.034475,0.07473 z M 23.305561,19.458105 c 0.908053,-0.384337 1.181264,-1.340119 0.540604,-1.891191 -0.594353,-0.511244 -1.963295,-0.322068 -2.306229,0.318705 -0.224053,0.418648 -0.15165,1.056691 0.151182,1.332201 0.485322,0.441542 0.968891,0.513517 1.614443,0.240285 z" />
</svg>
