<svg height="48" width="48" xmlns="http://www.w3.org/2000/svg"><path d="m44.322082 27.405077a19.729762 19.729765 0 0 1 -19.729762 19.729765 19.729762 19.729765 0 0 1 -19.7297621-19.729765 19.729762 19.729765 0 0 1 19.7297621-19.7297632 19.729762 19.729765 0 0 1 19.729762 19.7297632z" fill="#73a485" opacity=".99" transform="matrix(1.1503549 0 0 1.1503549 -4.486125 -7.525565)"/><path d="m38.895134 14.944699c-2.678506 2.038685-6.422056 5.237791-10.606726 8.019622-1.744605-3.493185-3.290508-7.431463-7.129436-7.936166-6.42603-.838524-10.102021 4.816541-12.5619545 10.260982-.3258718.723277-1.8916453 4.053526-1.235928 6.211433.6318731 2.074452 3.5051075 1.633332 5.4563625 1.156447 3.262691-.79481 5.496104-1.720762 8.031545-3.179238 1.239902-.723273 2.372504-1.406811 3.40973-2.054579.298054.45304.604056.902107.918004 1.335278 1.418734 1.963179 3.362043 3.946228 5.130492 4.212487 4.28402.294081 7.344036-2.932843 10.098048-5.949144l-.004-.004c-4.319792 2.261225-6.000813 2.130081-8.250123.894152-1.3472-.743145-2.324817-2.09432-3.187185-3.65612 4.244314-3.111644 6.56913-5.698747 9.931171-9.311154zm-22.258625 2.99643c1.609488-.004 2.68248 1.351175 3.596511 2.726194 1.033251 1.712814 2.022788 3.509083 3.067962 5.233817-3.075911 1.545905-6.247198 2.595051-9.307212 2.626843-2.221492.01987-4.6019434-3.250768-3.234873-5.694805.85442-1.533981 1.959204-2.964637 3.087833-3.759446 1.088888-.802757 2.002918-1.128629 2.789779-1.132603zm0 0" fill="#fff"/></svg>