<?xml version="1.0" encoding="UTF-8" standalone="no"?>
<svg
   xmlns:dc="http://purl.org/dc/elements/1.1/"
   xmlns:cc="http://creativecommons.org/ns#"
   xmlns:rdf="http://www.w3.org/1999/02/22-rdf-syntax-ns#"
   xmlns:svg="http://www.w3.org/2000/svg"
   xmlns="http://www.w3.org/2000/svg"
   xmlns:sodipodi="http://sodipodi.sourceforge.net/DTD/sodipodi-0.dtd"
   xmlns:inkscape="http://www.inkscape.org/namespaces/inkscape"
   height="48"
   width="48"
   version="1.1"
   id="svg10"
   sodipodi:docname="andromeda.svg"
   inkscape:version="1.0.2 (e86c870879, 2021-01-15)">
  <metadata
     id="metadata16">
    <rdf:RDF>
      <cc:Work
         rdf:about="">
        <dc:format>image/svg+xml</dc:format>
        <dc:type
           rdf:resource="http://purl.org/dc/dcmitype/StillImage" />
        <dc:title></dc:title>
      </cc:Work>
    </rdf:RDF>
  </metadata>
  <defs
     id="defs14" />
  <sodipodi:namedview
     pagecolor="#ffffff"
     bordercolor="#666666"
     borderopacity="1"
     objecttolerance="10"
     gridtolerance="10"
     guidetolerance="10"
     inkscape:pageopacity="0"
     inkscape:pageshadow="2"
     inkscape:window-width="1920"
     inkscape:window-height="1031"
     id="namedview12"
     showgrid="false"
     inkscape:zoom="11.343171"
     inkscape:cx="59.655906"
     inkscape:cy="40.793593"
     inkscape:window-x="0"
     inkscape:window-y="24"
     inkscape:window-maximized="1"
     inkscape:current-layer="svg10"
     inkscape:document-rotation="0" />
  <path
     d="m44.322082 27.405077a19.729762 19.729765 0 0 1 -19.729762 19.729765 19.729762 19.729765 0 0 1 -19.7297621-19.729765 19.729762 19.729765 0 0 1 19.7297621-19.7297632 19.729762 19.729765 0 0 1 19.729762 19.7297632z"
     fill="#73517c"
     opacity=".99"
     transform="matrix(1.1503549 0 0 1.1503549 -4.486125 -7.525565)"
     id="path2"
     style="fill:#917ba3;fill-opacity:1" />
  <path
     inkscape:connector-curvature="0"
     d="m 34.153301,13.91847 c 0,-2.685946 -1.066982,-5.2618303 -2.966228,-7.1610768 -1.899246,-1.899247 -4.475132,-2.9662323 -7.161083,-2.9662323 -2.57e-4,0 -5.07e-4,0 -6.35e-4,0 -2.685953,0 -5.261837,1.0669853 -7.161084,2.9662323 -1.899246,1.8992465 -2.966225,4.4751308 -2.966225,7.1610768 0,8.635943 0,19.662188 0,19.662188 H 34.153301 Z M 31.226875,30.654234 V 13.91847 c 0,-1.90987 -0.758674,-3.741409 -2.109136,-5.0918753 -1.350334,-1.3504595 -3.182006,-2.1090085 -5.091749,-2.1090085 -2.57e-4,0 -5.07e-4,0 -6.35e-4,0 -1.90987,0 -3.741416,0.758549 -5.091876,2.1090085 C 17.58302,10.177061 16.824342,12.0086 16.824342,13.91847 v 16.735764 z"
     style="clip-rule:evenodd;fill:#2c2c2c;fill-rule:evenodd;stroke-width:0.127982;stroke-linecap:round;stroke-linejoin:round;stroke-miterlimit:1.5;fill-opacity:0.9921568"
     id="path11" />
  <g
     transform="matrix(0.12798156,0,0,0.12798156,-1.8232096,-1.7929317)"
     style="clip-rule:evenodd;fill-rule:evenodd;stroke-linecap:round;stroke-linejoin:round;stroke-miterlimit:1.5;fill:#c1dae8;fill-opacity:0.4597168"
     id="g9">
    <path
       inkscape:connector-curvature="0"
       d="M 340.194,141.884 223.778,110.69 184.275,258.116 300.691,289.31 Z"
       style="fill:#ffffff;fill-opacity:0.31484771"
       id="path5" />
  </g>
  <g
     transform="matrix(0.12798156,0,0,0.12798156,-1.8232096,-1.7929317)"
     style="clip-rule:evenodd;fill-rule:evenodd;stroke-linecap:round;stroke-linejoin:round;stroke-miterlimit:1.5;fill:#ffffff;fill-opacity:0.74672174"
     id="g17">
    <path
       inkscape:connector-curvature="0"
       d="M 199.833,136.284 83.417,167.478 122.92,314.904 239.336,283.71 Z"
       style="fill:#ffffff;fill-opacity:0.46151826"
       id="path13" />
  </g>
  <path
     style="color:#000000;font-style:normal;font-variant:normal;font-weight:normal;font-stretch:normal;font-size:medium;line-height:normal;font-family:sans-serif;font-variant-ligatures:normal;font-variant-position:normal;font-variant-caps:normal;font-variant-numeric:normal;font-variant-alternates:normal;font-variant-east-asian:normal;font-feature-settings:normal;font-variation-settings:normal;text-indent:0;text-align:start;text-decoration:none;text-decoration-line:none;text-decoration-style:solid;text-decoration-color:#000000;letter-spacing:normal;word-spacing:normal;text-transform:none;writing-mode:lr-tb;direction:ltr;text-orientation:mixed;dominant-baseline:auto;baseline-shift:baseline;text-anchor:start;white-space:normal;shape-padding:0;shape-margin:0;inline-size:0;clip-rule:nonzero;display:inline;overflow:visible;visibility:visible;isolation:auto;mix-blend-mode:normal;color-interpolation:sRGB;color-interpolation-filters:linearRGB;solid-color:#000000;solid-opacity:1;vector-effect:none;fill:#f4f8fb;fill-opacity:1;fill-rule:nonzero;stroke:none;stroke-width:1px;stroke-linecap:butt;stroke-linejoin:miter;stroke-miterlimit:4;stroke-dasharray:none;stroke-dashoffset:0;stroke-opacity:1;color-rendering:auto;image-rendering:auto;shape-rendering:auto;text-rendering:auto;enable-background:accumulate;stop-color:#000000;stop-opacity:1;opacity:1"
     d="M 18.798828 22.517578 L 13.09375 24.046875 L 13.353516 25.011719 L 19.058594 23.484375 L 18.798828 22.517578 z "
     id="path860" />
  <g
     id="g4362"
     transform="matrix(0.44353993,0.15697316,-0.15697316,0.44353993,210.02713,-442.96808)"
     style="fill:#f4f8fb;fill-opacity:1">
    <path
       id="path846-1"
       style="opacity:1;fill:#f4f8fb;fill-opacity:1;stroke:none;stroke-width:1.22378;stroke-linecap:round;stroke-linejoin:round;stroke-miterlimit:4;stroke-dasharray:none;stroke-dashoffset:0;stroke-opacity:1;paint-order:fill markers stroke"
       d="m -26.680314,1045.0013 c -5.856464,0 -10.602215,4.7483 -10.602228,10.6047 1.3e-5,5.8565 4.745764,10.6023 10.602228,10.6023 5.856466,0 10.604757,-4.7458 10.604768,-10.6023 -1.1e-5,-5.8564 -4.748302,-10.6047 -10.604768,-10.6047 z m 5.016627,3.2614 v 3.0583 l -3.060778,0.6121 v 6.9801 a 3.9909127,3.3550158 0 0 1 0.0254,0.3683 3.9909127,3.3550158 0 0 1 -3.990442,3.3555 3.9909127,3.3550158 0 0 1 -3.990441,-3.3555 3.9909127,3.3550158 0 0 1 3.990441,-3.3554 3.9909127,3.3550158 0 0 1 0.906803,0.089 v -6.528 z" />
  </g>
  <path
     inkscape:connector-curvature="0"
     d="m 3.7703516,23.827825 c 0,10.778992 9.0760664,19.530116 20.2552604,19.530116 11.179186,0 20.255383,-8.751124 20.255383,-19.530116 -6.743349,-0.01358 -13.498088,-0.02445 -20.255383,-0.02445 -6.757303,0 -13.511911,0.01087 -20.2552604,0.02445 z"
     style="clip-rule:evenodd;fill:#ffffff;fill-rule:evenodd;stroke-width:0.127982;stroke-linecap:round;stroke-linejoin:round;stroke-miterlimit:1.5;fill-opacity:1"
     id="path19" />
  <path
     style="color:#000000;font-style:normal;font-variant:normal;font-weight:normal;font-stretch:normal;font-size:medium;line-height:normal;font-family:sans-serif;font-variant-ligatures:normal;font-variant-position:normal;font-variant-caps:normal;font-variant-numeric:normal;font-variant-alternates:normal;font-variant-east-asian:normal;font-feature-settings:normal;font-variation-settings:normal;text-indent:0;text-align:start;text-decoration:none;text-decoration-line:none;text-decoration-style:solid;text-decoration-color:#000000;letter-spacing:normal;word-spacing:normal;text-transform:none;writing-mode:lr-tb;direction:ltr;text-orientation:mixed;dominant-baseline:auto;baseline-shift:baseline;text-anchor:start;white-space:normal;shape-padding:0;shape-margin:0;inline-size:0;clip-rule:nonzero;display:inline;overflow:visible;visibility:visible;isolation:auto;mix-blend-mode:normal;color-interpolation:sRGB;color-interpolation-filters:linearRGB;solid-color:#000000;solid-opacity:1;vector-effect:none;fill:#f4f8fb;fill-opacity:1;fill-rule:nonzero;stroke:none;stroke-width:1px;stroke-linecap:butt;stroke-linejoin:miter;stroke-miterlimit:4;stroke-dasharray:none;stroke-dashoffset:0;stroke-opacity:1;color-rendering:auto;image-rendering:auto;shape-rendering:auto;text-rendering:auto;enable-background:accumulate;stop-color:#000000;stop-opacity:1;opacity:1"
     d="M 20.554688 18.033203 L 10.949219 20.607422 L 11.207031 21.572266 L 20.8125 18.998047 L 20.554688 18.033203 z "
     id="path868" />
  <path
     style="color:#000000;font-style:normal;font-variant:normal;font-weight:normal;font-stretch:normal;font-size:medium;line-height:normal;font-family:sans-serif;font-variant-ligatures:normal;font-variant-position:normal;font-variant-caps:normal;font-variant-numeric:normal;font-variant-alternates:normal;font-variant-east-asian:normal;font-feature-settings:normal;font-variation-settings:normal;text-indent:0;text-align:start;text-decoration:none;text-decoration-line:none;text-decoration-style:solid;text-decoration-color:#000000;letter-spacing:normal;word-spacing:normal;text-transform:none;writing-mode:lr-tb;direction:ltr;text-orientation:mixed;dominant-baseline:auto;baseline-shift:baseline;text-anchor:start;white-space:normal;shape-padding:0;shape-margin:0;inline-size:0;clip-rule:nonzero;display:inline;overflow:visible;visibility:visible;isolation:auto;mix-blend-mode:normal;color-interpolation:sRGB;color-interpolation-filters:linearRGB;solid-color:#000000;solid-opacity:1;vector-effect:none;fill:#f4f8fb;fill-opacity:1;fill-rule:nonzero;stroke:none;stroke-width:1px;stroke-linecap:butt;stroke-linejoin:miter;stroke-miterlimit:4;stroke-dasharray:none;stroke-dashoffset:0;stroke-opacity:1;color-rendering:auto;image-rendering:auto;shape-rendering:auto;text-rendering:auto;enable-background:accumulate;stop-color:#000000;stop-opacity:1;opacity:1"
     d="M 17.150391 21.201172 L 11.587891 22.691406 L 11.847656 23.658203 L 17.408203 22.167969 L 17.150391 21.201172 z "
     id="path864" />
  <rect
     style="fill:#917ba3;fill-opacity:0.99215686;stroke-width:1.88976;stroke-linecap:round;stroke-linejoin:round;paint-order:stroke markers fill"
     id="rect885"
     width="10.228012"
     height="3.0895965"
     x="18.689764"
     y="29.659004" />
</svg>
