<?xml version="1.0" encoding="UTF-8" standalone="no"?>
<svg
   xmlns:dc="http://purl.org/dc/elements/1.1/"
   xmlns:cc="http://creativecommons.org/ns#"
   xmlns:rdf="http://www.w3.org/1999/02/22-rdf-syntax-ns#"
   xmlns:svg="http://www.w3.org/2000/svg"
   xmlns="http://www.w3.org/2000/svg"
   xmlns:sodipodi="http://sodipodi.sourceforge.net/DTD/sodipodi-0.dtd"
   xmlns:inkscape="http://www.inkscape.org/namespaces/inkscape"
   height="48"
   width="48"
   version="1.1"
   id="svg6"
   sodipodi:docname="anki.svg"
   inkscape:version="0.92.5 (2060ec1f9f, 2020-04-08)">
  <metadata
     id="metadata12">
    <rdf:RDF>
      <cc:Work
         rdf:about="">
        <dc:format>image/svg+xml</dc:format>
        <dc:type
           rdf:resource="http://purl.org/dc/dcmitype/StillImage" />
        <dc:title></dc:title>
      </cc:Work>
    </rdf:RDF>
  </metadata>
  <defs
     id="defs10" />
  <sodipodi:namedview
     pagecolor="#ffffff"
     bordercolor="#666666"
     borderopacity="1"
     objecttolerance="10"
     gridtolerance="10"
     guidetolerance="10"
     inkscape:pageopacity="0"
     inkscape:pageshadow="2"
     inkscape:window-width="1920"
     inkscape:window-height="1025"
     id="namedview8"
     showgrid="false"
     inkscape:zoom="6.9532167"
     inkscape:cx="24"
     inkscape:cy="24"
     inkscape:window-x="0"
     inkscape:window-y="30"
     inkscape:window-maximized="1"
     inkscape:current-layer="svg6" />
  <circle
     cx="23.940615"
     cy="31.534513"
     fill="#74a2f3"
     opacity=".99"
     r="13.232998"
     transform="matrix(1.75830584759 0 0 1.75830608345 -18.15909274367 -30.97874795549)"
     id="circle2"
     style="fill:#74b1f3;fill-opacity:1" />
  <ellipse
     id="circle836"
     cy="24.468578"
     cx="23.935829"
     rx="19.025017"
     ry="19.025021"
     style="opacity:0.98999999;fill:#ffffff;fill-opacity:0.25543482;stroke-width:1.43769526" />
  <path
     id="path856-6"
     d="m 36.971947,21.671613 c 0,-0.386556 -0.292312,-0.626759 -0.877729,-0.720804 l -7.865194,-1.143708 -3.525365,-7.129197 c -0.198279,-0.42829 -0.454445,-0.642338 -0.76773,-0.642338 -0.313285,0 -0.569258,0.214048 -0.767728,0.642338 l -3.525559,7.129197 -7.865579,1.143708 c -0.584836,0.09404 -0.87735,0.334248 -0.87735,0.720804 0,0.219435 0.130584,0.470217 0.39175,0.752153 l 5.703356,5.546619 -1.347372,7.834231 c -0.02097,0.146352 -0.03136,0.250973 -0.03136,0.313476 0,0.219434 0.05482,0.404637 0.16443,0.556372 0.109618,0.151545 0.274052,0.227127 0.493487,0.227127 0.188085,0 0.396942,-0.06232 0.626759,-0.187891 l 7.034962,-3.698068 7.035537,3.698068 c 0.219626,0.125396 0.428483,0.187891 0.626568,0.187891 0.209434,0 0.36848,-0.07539 0.478101,-0.227127 0.109434,-0.151545 0.164239,-0.336938 0.164239,-0.556372 0,-0.135782 -0.0052,-0.240202 -0.01578,-0.313476 l -1.347551,-7.834231 5.687587,-5.546619 c 0.271935,-0.271552 0.407517,-0.522332 0.407517,-0.752153 z"
     inkscape:connector-curvature="0"
     style="opacity:1;fill:#ffffff;fill-opacity:1;stroke-width:0.2533628" />
</svg>
