<svg height="48" width="48" xmlns="http://www.w3.org/2000/svg"><path d="m44.322082 27.405077a19.729762 19.729765 0 0 1 -19.729762 19.729765 19.729762 19.729765 0 0 1 -19.7297621-19.729765 19.729762 19.729765 0 0 1 19.7297621-19.7297632 19.729762 19.729765 0 0 1 19.729762 19.7297632z" fill="#b66959" opacity=".99" transform="matrix(1.1503549 0 0 1.1503549 -4.486125 -7.525565)"/><g fill="#fff" fill-rule="evenodd"><path d="m12 34.5 12-25.5 12 25.5s-9 0-13.5-3-10.5 3-10.5 3z" fill-opacity=".394366"/><path d="m24 9-12 25.5c3.612466-5.804537 7.665161-8.522783 10.507812-6.625 4.493069 2.999617 9.020041 3.358855 13.492188 6.625z"/></g></svg>