<?xml version="1.0" encoding="UTF-8" standalone="no"?>
<svg
   width="100%"
   height="100%"
   viewBox="0 0 267 267"
   version="1.1"
   xml:space="preserve"
   style="fill-rule:evenodd;clip-rule:evenodd;stroke-linecap:round;stroke-linejoin:round;stroke-miterlimit:1.5;"
   id="svg16"
   sodipodi:docname="asc-de.svg"
   inkscape:version="1.1.1 (3bf5ae0d25, 2021-09-20, custom)"
   xmlns:inkscape="http://www.inkscape.org/namespaces/inkscape"
   xmlns:sodipodi="http://sodipodi.sourceforge.net/DTD/sodipodi-0.dtd"
   xmlns="http://www.w3.org/2000/svg"
   xmlns:svg="http://www.w3.org/2000/svg"><defs
     id="defs20"><inkscape:path-effect
       effect="spiro"
       id="path-effect1153"
       is_visible="true"
       lpeversion="1" /></defs><sodipodi:namedview
     id="namedview18"
     pagecolor="#ffffff"
     bordercolor="#666666"
     borderopacity="1.0"
     inkscape:pageshadow="2"
     inkscape:pageopacity="0.0"
     inkscape:pagecheckerboard="0"
     showgrid="false"
     inkscape:zoom="0.7181648"
     inkscape:cx="234.62581"
     inkscape:cy="203.29596"
     inkscape:window-width="1861"
     inkscape:window-height="1047"
     inkscape:window-x="59"
     inkscape:window-y="33"
     inkscape:window-maximized="1"
     inkscape:current-layer="svg16" /><clipPath
     id="_clip1"><path
       d="M250.44,54.927c0,-21.142 -17.139,-38.281 -38.281,-38.281l-156.812,-0c-21.142,-0 -38.282,17.139 -38.282,38.281l0,156.813c0,21.142 17.14,38.281 38.282,38.281l156.812,-0c21.142,-0 38.281,-17.139 38.281,-38.281l0,-156.813Z"
       id="path5" /></clipPath><g
     id="g14957"
     transform="matrix(0.45804125,0,0,0.45804125,-304.58736,179.02341)"><path
       style="fill:#7bccef;fill-opacity:1;fill-rule:evenodd;stroke:#6f97b9;stroke-width:0;stroke-linecap:square;stroke-miterlimit:1.5;stroke-dasharray:none;stroke-opacity:1;paint-order:stroke markers fill"
       d="m 941.64372,-111.82806 c -5.36089,-1.88319 -43.58331,-18.90133 -84.93872,-37.81809 -41.35541,-18.91676 -83.60654,-38.23922 -93.89141,-42.9388 -27.44069,-12.5388 -32.92875,-19.02421 -23.4215,-27.67793 4.58547,-4.1738 186.94708,-88.86148 203.64407,-94.57114 11.14868,-3.81236 36.57933,-3.13706 47.34289,1.25719 10.84265,4.42655 175.48165,80.05344 188.23565,86.46602 15.6436,7.86544 18.7412,12.76039 12.8302,20.275 -3.621,4.60333 -7.4549,6.53123 -65.3031,32.83807 -25.6557,11.66709 -64.818,29.52267 -87.0274,39.67909 -53.08924,24.27785 -53.71627,24.49674 -72.4068,25.27598 -13.67311,0.57006 -16.3628,0.27115 -25.06388,-2.78539 z"
       id="path12251" /><path
       style="fill:#b0d06c;fill-opacity:1;fill-rule:evenodd;stroke:#6f97b9;stroke-width:0;stroke-linecap:square;stroke-miterlimit:1.5;stroke-dasharray:none;stroke-opacity:1;paint-order:stroke markers fill"
       d="m 960.94389,4.3276659 c -8.93491,-1.55474 -22.00959,-7.25214 -128.88371,-56.1622599 -83.56476,-38.24277 -88.41981,-40.91526 -88.41981,-48.671256 0,-1.79809 1.57313,-4.84238 3.49585,-6.7651 3.59506,-3.59506 68.7465,-34.47973 72.73524,-34.47973 1.22454,0 26.71215,11.22478 56.63913,24.94397 80.06647,36.704216 76.54061,35.364316 94.7934,36.023476 19.42852,0.70161 19.03745,0.842 95.61201,-34.324096 31.9089,-14.65385 58.9597,-26.64335 60.1131,-26.64335 2.1564,0 21.7739,8.71144 52.5439,23.33286 24.2482,11.52241 28.833,18.07826 18.5629,26.543736 -6.6233,5.45944 -194.2198,91.66357989 -206.25077,94.7761299 -8.46204,2.1892 -22.7656,2.84824 -30.94124,1.42562 z"
       id="path13462" /><path
       style="fill:#ee9170;fill-opacity:1;fill-rule:evenodd;stroke:#6f97b9;stroke-width:0;stroke-linecap:square;stroke-miterlimit:1.5;stroke-dasharray:none;stroke-opacity:1;paint-order:stroke markers fill"
       d="m 952.45568,121.60248 c -2.68044,-0.78219 -8.31982,-2.77272 -12.53194,-4.4234 -14.43686,-5.65764 -185.81852,-84.591344 -192.10706,-88.479244 -3.53502,-2.18554 -6.85595,-5.51321 -7.59268,-7.60809 -2.25907,-6.42362 0.73823,-10.14569 13.22634,-16.4245901 14.24569,-7.16259 62.36822,-29.1842299 63.7745,-29.1842299 0.57586,0 22.93596,10.08785 49.68913,22.4174499 81.71459,37.6594201 82.44216,37.9436401 98.78665,38.5899101 18.65541,0.73765 21.96648,-0.44866 92.81808,-33.2554801 31.6516,-14.6558599 58.62,-26.9621499 59.9296,-27.3473099 2.3877,-0.70222 63.1617,26.8344699 71.242,32.2797499 2.355,1.58704 5.2378,4.5945601 6.4062,6.6833901 3.3623,6.01067 0.039,10.35035 -13.2087,17.24704 -16.8505,8.77245 -187.15695,86.287494 -193.53251,88.086384 -7.86675,2.21965 -31.09424,3.1125 -36.89961,1.41842 z"
       id="path14595" /></g></svg>
