<svg height="48" width="48" xmlns="http://www.w3.org/2000/svg"><path d="m44.322082 27.405077a19.729762 19.729765 0 0 1 -19.729762 19.729765 19.729762 19.729765 0 0 1 -19.7297621-19.729765 19.729762 19.729765 0 0 1 19.7297621-19.7297632 19.729762 19.729765 0 0 1 19.729762 19.7297632z" fill="#c25855" opacity=".99" transform="matrix(1.1503549 0 0 1.1503549 -4.574513 -7.481371)"/><path d="m24 9-12.599609 7.199219 8.0625 4.607422a.60000002.30000001 45 0 1 .554687.21289 6 6 0 0 1 .085938-.080078.60000002.30000001 51.941163 0 1 -.103516-.619141.60000002.30000001 51.941163 0 1 .025391-.017578.60000002.30000001 51.941163 0 1 .03125-.009765.60000002.30000001 53.058837 0 1 .021484-.029297.60000002.30000001 53.058837 0 1 .023437-.019531.60000002.30000001 53.058837 0 1 .574219.265625 6 6 0 0 1 .09961-.0625.60000002.30000001 60 0 1 -.021485-.636719.60000002.30000001 60 0 1 .542969.339844 6 6 0 0 1 .208984-.09961.60000002.30000001 68.058837 0 1 .039063-.625.60000002.30000001 68.058837 0 1 .027344-.013672.60000002.30000001 68.058837 0 1 .490234.416016 6 6 0 0 1 .804688-.216797.60000002.30000001 81.941163 0 1 .216796-.603516.60000002.30000001 81.941163 0 1 .03125-.001953.60000002.30000001 81.941163 0 1 .345704.519532 6 6 0 0 1 .230468-.009766.30000001.60000002 0 0 1 .300782-.572266.30000001.60000002 0 0 1 .298828.56836 6 6 0 0 1 .232422.015625.30000001.60000002 8.058837 0 1 .345703-.521485.30000001.60000002 8.058837 0 1 .03125.001953.30000001.60000002 8.058837 0 1 .216797.601563 6 6 0 0 1 .804687.214844.30000001.60000002 21.941163 0 1 .037109-.074219.30000001.60000002 21.941163 0 1 .451172-.337891.30000001.60000002 21.941163 0 1 .029297.011719l-.001953.001953a.30000001.60000002 21.941163 0 1 .042969.619141 6 6 0 0 1 .21289.095703.30000001.60000002 30 0 1 .535157-.330078.30000001.60000002 30 0 1 -.013672.625 6 6 0 0 1 .099609.066406.30000001.60000002 36.941163 0 1 .044922-.050781.30000001.60000002 36.941163 0 1 .523437-.207031.30000001.60000002 36.941163 0 1 .023438.019531.30000001.60000002 36.941163 0 1 .019531.029297.30000001.60000002 38.058837 0 1 .03125.009765.30000001.60000002 38.058837 0 1 .025391.017578.30000001.60000002 38.058837 0 1 -.09961.613282 6 6 0 0 1 .089844.080078.30000001.60000002 45 0 1 .556641-.201172l8.070312-4.613281zm-13.201172 8.400391v14.699218l12.601563 7.199219v-7.759766a.30000001.60000002 8.058837 0 1 -.316407.291016.30000001.60000002 8.058837 0 1 -.224609-.445312 6 6 0 0 1 -.869141-.238282.30000001.60000002 21.941163 0 1 -.417968.279297.30000001.60000002 21.941163 0 1 -.111328-.498047 6 6 0 0 1 -.25-.11914.30000001.60000002 30 0 1 -.457032.216797.30000001.60000002 30 0 1 -.039062-.50586 6 6 0 0 1 -.128906-.09375.30000001.60000002 36.941163 0 1 -.486329.167969.30000001.60000002 36.941163 0 1 -.042968-.048828.30000001.60000002 38.058837 0 1 -.058594-.027344.30000001.60000002 38.058837 0 1 .017578-.476562.30000001.60000002 38.058837 0 1 .025391-.042969 6 6 0 0 1 -.119141-.103516.30000001.60000002 45 0 1 -.507813.101563.30000001.60000002 45 0 1 .103516-.515625 6 6 0 0 1 -.103516-.111328.30000001.60000002 51.941163 0 1 -.521484.041015.30000001.60000002 51.941163 0 1 -.027344-.05664.30000001.60000002 53.058837 0 1 -.050781-.042969.30000001.60000002 53.058837 0 1 .140625-.455078.30000001.60000002 53.058837 0 1 .044922-.046875 6 6 0 0 1 -.078125-.126953.30000001.60000002 60 0 1 -.537109-.025391.30000001.60000002 60 0 1 .251953-.484375 6 6 0 0 1 -.113281-.236328.30000001.60000002 68.058837 0 1 -.539063-.097656.30000001.60000002 68.058837 0 1 .251953-.402344.30000001.60000002 68.058837 0 1 .074219-.042969 6 6 0 0 1 -.212891-.84375.30000001.60000002 81.941163 0 1 -.517578-.222656.30000001.60000002 81.941163 0 1 .44336-.361328 6 6 0 0 1 -.013672-.25.60000002.30000001 0 0 1 -.492188-.296875.60000002.30000001 0 0 1 .496094-.296875 6 6 0 0 1 .02539-.246094.60000002.30000001 8.058837 0 1 -.458984-.365234.60000002.30000001 8.058837 0 1 .419922-.222657.60000002.30000001 8.058837 0 1 .130859.001953 6 6 0 0 1 .228516-.818359.60000002.30000001 21.941163 0 1 -.373047-.470703.60000002.30000001 21.941163 0 1 .013672-.029297.60000002.30000001 21.941163 0 1 .589844-.050781 6 6 0 0 1 .105468-.214844.60000002.30000001 30 0 1 -.310546-.523437.60000002.30000001 30 0 1 .615234.007812 6 6 0 0 1 .052734-.074219zm26.400391 0-8.25 4.71289a6 6 0 0 1 .046875.070313.30000001.60000002 60 0 1 .603515-.001953.30000001.60000002 60 0 1 -.298828.515625 6 6 0 0 1 .105469.21875.30000001.60000002 68.058837 0 1 .576172.054687.30000001.60000002 68.058837 0 1 .015625.029297.30000001.60000002 68.058837 0 1 -.361328.464844 6 6 0 0 1 .238281.822265.30000001.60000002 81.941163 0 1 .009766 0 .30000001.60000002 81.941163 0 1 .517578.222657.30000001.60000002 81.941163 0 1 .003906.03125h-.001953a.30000001.60000002 81.941163 0 1 -.4375.328125 6 6 0 0 1 .015625.253906.60000002.30000001 0 0 1 .484375.294922.60000002.30000001 0 0 1 -.474609.292969 6 6 0 0 1 -.013672.257812.60000002.30000001 8.058837 0 1 .425781.326172.60000002.30000001 8.058837 0 1 -.001953.03125.60000002.30000001 8.058837 0 1 -.498047.224609 6 6 0 0 1 -.220703.845703.60000002.30000001 21.941163 0 1 .314453.441407.60000002.30000001 21.941163 0 1 -.525391.101562 6 6 0 0 1 -.109375.244141.60000002.30000001 30 0 1 .236328.472656.60000002.30000001 30 0 1 -.519531.033203 6 6 0 0 1 -.085937.128906.60000002.30000001 36.941163 0 1 .173828.492188.60000002.30000001 36.941163 0 1 -.050781.042969.60000002.30000001 38.058837 0 1 -.027344.05664.60000002.30000001 38.058837 0 1 -.515625-.037109 6 6 0 0 1 -.103516.117187.60000002.30000001 45 0 1 .099609.507813.60000002.30000001 45 0 1 -.503906-.095703 6 6 0 0 1 -.115234.107422.60000002.30000001 51.941163 0 1 .033203.507812.60000002.30000001 51.941163 0 1 -.058594.029297.60000002.30000001 53.058837 0 1 -.042969.046875.60000002.30000001 53.058837 0 1 -.474609-.15625 6 6 0 0 1 -.138672.087891.60000002.30000001 60 0 1 -.039062.501953.60000002.30000001 60 0 1 -.453125-.212891 6 6 0 0 1 -.253906.121094.60000002.30000001 68.058837 0 1 -.111329.490234.60000002.30000001 68.058837 0 1 -.417968-.27539 6 6 0 0 1 -.871094.240234.60000002.30000001 81.941163 0 1 -.222656.439453.60000002.30000001 81.941163 0 1 -.300782-.263672v7.732422l12.59961-7.199219zm-12.160157.90039a.15000001.15000001 0 0 1 .011719 0 .15000001.15000001 0 0 1 .148438.148438.15000001.15000001 0 0 1 -.148438.15039.15000001.15000001 0 0 1 -.15039-.15039.15000001.15000001 0 0 1 .138671-.148438zm6.140626 6a.30000001.30000001 0 0 1 .019531 0 .30000001.30000001 0 0 1 .300781.298828.30000001.30000001 0 0 1 -.300781.300782.30000001.30000001 0 0 1 -.298828-.300782.30000001.30000001 0 0 1 .279297-.298828zm.019531 1.798828a.30000001.30000001 0 0 1 .300781.300782.30000001.30000001 0 0 1 -.300781.298828.30000001.30000001 0 0 1 -.298828-.298828.30000001.30000001 0 0 1 .298828-.300782zm-1.798828 3.59961c.602855.08878 1.04444.131509 1.5 1.201172-1.117788-.07353-1.169503-.711598-1.5-1.201172zm-2.058594 1.458984a.75.30000001 57.994617 0 1 .59375.496094.75.30000001 57.994617 0 1 .142578.794922.75.30000001 57.994617 0 1 -.650391-.478516.75.30000001 57.994617 0 1 -.144531-.794922.75.30000001 57.994617 0 1 .058594-.017578zm3.992187.041016a.15000001.15000001 0 0 1 .015625 0 .15000001.15000001 0 0 1 .150391.15039.15000001.15000001 0 0 1 -.150391.150391.15000001.15000001 0 0 1 -.15039-.150391.15000001.15000001 0 0 1 .134765-.15039zm-6.263672.892578a.30000001.30000001 0 0 1 .300782.300781.30000001.30000001 0 0 1 -.300782.298828.30000001.30000001 0 0 1 -.298828-.298828.30000001.30000001 0 0 1 .298828-.300781z" fill="#fff"/></svg>