<svg height="48" width="48" xmlns="http://www.w3.org/2000/svg"><path d="m44.322082 27.405077a19.729762 19.729765 0 0 1 -19.729762 19.729765 19.729762 19.729765 0 0 1 -19.7297621-19.729765 19.729762 19.729765 0 0 1 19.7297621-19.7297632 19.729762 19.729765 0 0 1 19.729762 19.7297632z" fill="#a768a6" opacity=".99" transform="matrix(1.1503549 0 0 1.1503549 -4.486125 -7.525565)"/><circle cx="24.480932" cy="25.892544" fill="#fff" r="4.895146"/><path d="m25.5 25.5 9-12" fill="none" stroke="#fff"/><path d="m25.5 27 6 7.5" fill="none" stroke="#fff"/><path d="m24 22.5-3-7.5" fill="none" stroke="#fff"/><path d="m24 25.5-10.5 4.5" fill="none" stroke="#fff"/><g fill="#fff"><circle cx="34.984837" cy="13.18934" r="2.25"/><circle cx="20.798508" cy="14.47097" r="1.940641"/><circle cx="13.19711" cy="29.938931" r="2.205806"/><circle cx="32.465771" cy="34.623512" r="2.205806"/></g></svg>