<svg height="48" width="48" xmlns="http://www.w3.org/2000/svg"><circle cx="23.940615" cy="31.534513" fill="#eab379" opacity=".99" r="13.232998" transform="matrix(1.75830584759 0 0 1.75830608345 -18.15909274367 -30.97874795549)"/><g fill="#fcfcfc" transform="matrix(3.543307 0 0 3.543307 -.06417 1.468579)"><path d="m6.7381688 3.1045957c-.2542247 0-.5154232.035456-.7723523.1031455-1.6443391.4315485-2.6172195 2.079952-2.1766233 3.6902987l.503197-.1260695c-.0572826-.2087462-.0936174-.4267853-.0936174-.6532483 0-1.3892597 1.1441782-2.5098492 2.5627996-2.5098492 1.4186218 0 2.5745 1.1205895 2.5745 2.5098492 0 .226463-.03634.4445021-.093617.6532483l.503197.1260695c.1400401-.5118124.1400401-1.0467392 0-1.5586356-.3717565-1.3586741-1.6346738-2.2482702-3.0074836-2.2348086z"/><path d="m7.3817947 6.9324359c-.022928-.0036-.04517.010792-.058514.02292-.013334.01164-.017442.021528-.023408.034376-.011932.025296-.016578.055728-.023408.091673-.01366.071968-.027574.1675991-.035104.2865134-.015086.2378302-.027248.5535539-.035104.8710121-.00782.3174381-.015624.6345589-.035104.8709909-.00975.118238-.019969.221913-.035104.286514-.00172.0076-.00979.0049-.011696.01143-.013358-.04926-.026734-.124418-.035104-.217742-.0167545-.186606-.0167545-.4348073-.0234135-.6876447-.0066835-.2527942-.0178336-.506478-.0351047-.6990955-.0086398-.096309-.0184777-.1793462-.0351049-.2406662-.00833-.0308-.02019-.057232-.035104-.080222-.014916-.023112-.033084-.045848-.07021-.045848-.028184 0-.06404.017144-.081916.034376-.017874.017144-.02547.03524-.035104.05732-.019276.044368-.026042.096415-.035104.1604447-.018136.1280159-.029032.2940486-.035104.4584084-.00612.1643807-.00774.3282966-.0234.4469781-.00782.059376-.023726.1098343-.035104.1375207-.0057.013968-.00983.020744-.011696.022928-.00252 0-.00774-.0068-.011688-.011432-.00668-.00804-.01684-.030416-.023408-.057296-.013138-.053528-.01904-.1347479-.023408-.2177422-.0044-.082995-.00302-.1696303-.0234-.2406878-.010221-.03556-.020702-.064456-.04681-.091673-.026098-.027136-.07523-.04756-.1170211-.045848-.050526.0036-.084352.041128-.1053215.080222-.020964.039096-.037712.084202-.04681.1375415-.018176.1066383-.018478.245387-.023408.3781869-.0049.1328423-.00837.2627857-.0234.3552847-.00676.04162-.026074.0719-.035104.09167-.00334-.008-.00829-.01122-.011688-.02292-.013676-.04701-.026008-.117603-.035104-.20627-.018205-.1773563-.027244-.4137465-.035109-.6532695-.00791-.2395446-.00701-.4824333-.0234-.6647003-.0082-.091102-.019928-.1710903-.035112-.229215-.00758-.028976-.02142-.046696-.035104-.068768-.013686-.021992-.032994-.057296-.070218-.057296-.035162 0-.06805.025312-.081913.045848-.013872.020536-.015756.042144-.023408.068768-.015282.053216-.026546.1239519-.035104.2062694-.017116.1646775-.02605.3807269-.035112.5959507-.00905.2152447-.01705.4269757-.035104.5844988-.00902.078784-.022414.1433839-.035104.1833679-.00758-.02054-.029212-.04424-.035104-.080222-.0147511-.089955-.0159573-.2060977-.0234152-.3323576-.0074185-.1262383-.015046-.2548694-.0351043-.3552838-.0100226-.050208-.0255359-.1008383-.0468095-.1375206-.021265-.03668-.056304-.068768-.1053208-.068768-.034534 0-.066664.023856-.081917.045848-.015234.022016-.027256.04064-.035104.068768-.015714.05628-.02825.1310855-.035104.2177422-.013702.1733983-.0079.4034813-.011696.6303472-.00374.226843-.016424.4521-.035104.618852-.00935.0834-.019732.152231-.035104.19484-.00538.01503-.007.02667-.011696.03438-.0057-.01037-.016708-.02238-.0234-.04585-.00886-.03118-.017508-.08968-.023408-.13752h.023408l-.035104-.114597c-.0006602-.0062.0004156-.01672 0-.02292-.018503-.213298-.030257-.496297-.035105-.7793185-.00498-.2913389-.00989-.5816411-.0234-.8022409-.00676-.1102791-.00924-.2066303-.023408-.2750622-.0071-.034096-.022186-.055352-.035104-.080222-.00644-.012488-.010466-.023368-.023408-.034376-.012944-.011008-.03742-.023664-.058514-.022928-.040582 0-.057698.0334-.07021.057296-.012512.023832-.016424.04788-.023408.080222-.013938.064728-.02825.1493527-.035104.2521382-.00652.098045-.00837.2350998-.011696.3552845l-.2808623-1.0543821-.6319226.1719159c-.3436362.0902127-.5367638.4313789-.4446852.7678458l.3276635 1.2148232c.092075.336552.4404168.5371501.7840524.446958.1838606-.0301.3049948-.0763.4914977-.126112.00774.0411.013922.09269.023408.12607.0099.03484.017768.06649.035104.09169.017352.0253.05509.05836.093617.0573.033116 0 .063264-.02422.081916-.04585.018656-.02163.024672-.05133.035104-.08022.020858-.05783.036996-.130197.046808-.217743.019626-.175155.019626-.402994.023408-.630325.00374-.2273519.01022-.4520157.0234-.6188732.0066-.08344.011436-.1518934.023408-.1948406.00416-.015024.00806-.027048.011696-.034376.0008966 0 .00106-.00696.011688.011432.010612.018416.01459.059032.023408.1031455.017638.088245.027688.2066087.035104.3323606.00742.1257943.018674.2550806.035104.3552847.00822.05008.017466.08934.035104.126068.00882.01842.018738.0427.035104.0573.016358.01461.033784.02182.058514.02293.034086 0 .06655-.02531.081916-.04585.015364-.02054.026676-.04221.035104-.06877.01684-.0531.025698-.1242068.035104-.2062915.01882-.1641903.026042-.3691269.035104-.584478.00907-.2153926.018608-.4373052.035104-.5959499.00668-.064072.014288-.1085015.023408-.1489927.00981.046056.028396.1086695.035104.1833679.015861.176615.027232.4135133.035104.6532483.0079.2397134.016252.4810572.035104.6647209.00943.09186.01785.16999.035104.229214.00862.0297.020075.0464.035104.06875.015022.02238.034428.05569.070218.05732.050126.0036.096615-.04223.1170211-.08022.020409-.03798.02662-.08535.035104-.137542.016962-.104331.030198-.234041.035104-.3667353.0049-.1326519.00726-.2606262.023408-.3552845.00806-.047328.01234-.082486.023408-.1031455.011068-.020528.0212-.022904.023408-.022904.013252 0 .016212.00424.0234.011432.00718.00744.016016.020104.023408.045848.01476.051328.01908.1352766.023408.2177422.00432.082445.00594.169567.0234.2406662.00873.035584.023628.063416.04681.091694.023188.02824.064316.045848.1053208.045848.028348 0 .053012-.0053.07021-.02292.017206-.017144.026042-.046696.035104-.068768.018135-.044152.02666-.096562.035104-.1604439.016904-.1277631.02904-.2941542.035104-.4584293.00612-.164255.0066-.3285301.023408-.446958.00839-.059224.023148-.09851.035104-.1260695.00278.00744.00894.012704.011696.022928.013358.049256.026734.1244607.035104.2177638.01675.1866271.01675.4348285.023408.6876235.0066.2528366.01781.5064779.035104.6990949.00865.09631.018478.179326.035104.240666.00833.03082.020189.05723.035113.08022.014916.02311.04478.04585.081914.04585.02142 0 .033614-.01164.046808-.02292.013204-.01143.027866-.02117.035104-.03438.014476-.02642.026326-.05421.035104-.09169.017548-.07491.025152-.177208.035104-.297964.019904-.241576.027248-.564729.035104-.8824639.0079-.3177342.020295-.6372459.035104-.8710121.00554-.087461.00366-.1471935.011696-.2062911.011084.070424.027346.1543055.035104.263611.0182.255927.037264.5996755.04681.9397617.00956.3401077.017826.6844484.035104.9397624.00865.127614.020792.231944.035104.309436.00718.03876.011908.06519.023408.09167.00578.01312.011562.03338.023404.04585.011845.01249.03381.02402.058513.02292.034915-.0036.056722-.025298.070213-.045848.013488-.02053.027356-.04214.035107-.06875.015516-.0533.025998-.124334.035104-.206291.018217-.163937.025008-.382188.035107-.595951.010096-.2137834.017569-.4266153.035107-.5844984.00877-.078912.023012-.1418382.035104-.1833678.00705.019896.017832.0348.023404.068768.014568.08907.016168.2166207.023404.3438118.00725.1272119.015024.2536838.035107.3552835.010053.05078.025409.100437.04681.137521.0214.03708.067632.06877.1170249.06877.028076 0 .051729-.01714.070213-.0344.018477-.01694.025022-.03518.035104-.0573.020164-.0446.037507-.09631.046807-.160444.018612-.1282911.017919-.2939845.023407-.4584292.00548-.1644455.020099-.3282126.035104-.4469581.0075-.059328.012232-.1098343.023404-.1375199.00251.00552.00916.00384.011693.011432.01273.038336.027296.1070615.035104.1833679.015626.1526335.018481.3529349.023407.5615755.00494.2085983.0058.4240758.023404.5844778.00672.06128.021072.104945.035104.148993l-.081917.309436.6202224.160445c.3436821.0901944.6920203-.1104047.7840987-.4469557l.3276634-1.2148238c.092059-.3364829-.101067-.6776483-.4447031-.7678618l-.6319231-.1719159-.1053211.3896589c-.00441-.011008-.00496-.024848-.01169-.034376-.018264-.025672-.043861-.045848-.081917-.045848-.03476 0-.065994.023832-.081913.045848-.01593.021992-.026658.039816-.035107.068752-.016903.057912-.027313.1398495-.035107.229215-.015602.1787535-.019084.4080317-.023404.6417979-.000872.041696.0006602.073128 0 .1145967l-.1170247.435506c-.008602-.1370126-.0195811-.2842693-.0234077-.4469572-.0048986-.208535-.0187154-.412794-.0351049-.5730267-.0081912-.0800951-.0175279-.1533743-.0351078-.206291-.00879-.026416-.018455-.048216-.035104-.068768-.016642-.020536-.037842-.034376-.070216-.034376-.028349 0-.064747.00528-.081913.02292-.017164.017568-.026178.046656-.035107.068768-.017873.044216-.027034.096542-.035104.1604438-.016144.1277631-.017919.2942182-.023404.4584085-.00549.1641903-.017963.3287405-.035107.4469788-.00858.05908-.011065.098764-.023404.1260478-.00462.01037-.020317.0078-.023404.01143-.010786-.01862-.026265-.05844-.035107-.1031454-.0176871-.0894491-.0279031-.2170634-.0351114-.3438097-.007197-.1267471-.0188255-.2441798-.0351079-.3438334-.0081427-.0497839-.0170317-.1012823-.0351082-.1375198-.00903-.017992-.017595-.031536-.035104-.045848-.017528-.014392-.04548-.024024-.070213-.02292-.034926 0-.056691.025312-.070217.045848-.013529.020528-.015646.042144-.023404.068768-.015516.053216-.025998.1243551-.035104.2062919-.018221.1638518-.036712.3821661-.046812.5959495-.010096.213764-.017549.426533-.035104.584478-.00654.05897-.01485.09792-.023404.137542-.0121528-.0691281-.0269241-.1655661-.0351115-.2865131-.0170315-.251482-.0255644-.5881401-.0351047-.928311-.0095542-.3401494-.0166452-.6798339-.035108-.9397617-.0092264-.1300279-.0199039-.2401158-.0351047-.3209093-.00758-.040408-.011843-.075464-.0234-.1031458-.00578-.013968-.013098-.021912-.023408-.034376-.01031-.012488-.035064-.030712-.058505-.034376z"/></g></svg>