<svg height="48" width="48" xmlns="http://www.w3.org/2000/svg"><path d="m44.322082 27.405077a19.729762 19.729765 0 0 1 -19.729762 19.729765 19.729762 19.729765 0 0 1 -19.7297621-19.729765 19.729762 19.729765 0 0 1 19.7297621-19.7297632 19.729762 19.729765 0 0 1 19.729762 19.7297632z" fill="#d3779a" opacity=".99" transform="matrix(1.1503549 0 0 1.1503549 -4.486125 -7.525565)"/><path d="m29.376353 13.16518c-.441974-.000035-.883792.168808-1.220703.50586-.674103.674101-.674103 1.765632 0 2.439453l4.664063 4.664062c2.034697 2.035261 2.046994 5.335672.04102 7.388672-2.052718 2.005412-5.353975 1.991449-7.388672-.04297l-4.66211-4.662109c-.674102-.673821-1.767303-.673821-2.441406 0-.674102.674666-.674102 1.767585 0 2.441406l4.662109 4.662109c3.337004 3.337005 8.729601 3.392323 12.136719.169922.03125-.02675.06223-.05385.0918-.08398.01436-.01492.02833-.02861.04297-.04297.01436-.01464.03028-.02889.04492-.04297.02928-.02985.05528-.06054.08203-.0918 3.223246-3.407118 3.167083-8.799714-.169922-12.136719l-4.662109-4.662109c-.337051-.337192-.778729-.505825-1.220704-.50586zm-10.841796 1.728516c-2.191221-.02791-4.391722.763799-6.095704 2.375-.03125.02647-.06252.05469-.0918.08398-.01436.01464-.02723.02805-.04102.04297-.01464.01408-.03084.02722-.04492.04102-.02985.02985-.05557.06083-.08203.0918-3.2226835 3.408526-3.1687535 8.801668.167969 12.138672l4.664062 4.66211c.674102.674102 1.765351.674102 2.439453 0 .674103-.674666.676056-1.765914.002-2.439453l-4.664062-4.664063c-2.034416-2.034416-2.047551-5.335672-.04102-7.388672 2.052436-2.005694 5.353975-1.991727 7.388672.04297l4.66211 4.662109c.674102.673821 1.767303.673821 2.441406 0 .674384-.674666.674102-1.767585 0-2.441406l-4.66211-4.662109c-1.668361-1.668502-3.851748-2.517011-6.042968-2.544922z" fill="#fff" stroke-width=".28158"/></svg>