<?xml version="1.0" encoding="UTF-8" standalone="no"?>
<svg
   xmlns:dc="http://purl.org/dc/elements/1.1/"
   xmlns:cc="http://creativecommons.org/ns#"
   xmlns:rdf="http://www.w3.org/1999/02/22-rdf-syntax-ns#"
   xmlns:svg="http://www.w3.org/2000/svg"
   xmlns="http://www.w3.org/2000/svg"
   xmlns:xlink="http://www.w3.org/1999/xlink"
   xmlns:sodipodi="http://sodipodi.sourceforge.net/DTD/sodipodi-0.dtd"
   xmlns:inkscape="http://www.inkscape.org/namespaces/inkscape"
   version="1.1"
   preserveAspectRatio="xMidYMid meet"
   viewBox="0 0 640 640"
   width="64"
   height="64"
   id="svg49"
   sodipodi:docname="bauh.svg"
   inkscape:version="0.92.1 r15371">
  <metadata
     id="metadata53">
    <rdf:RDF>
      <cc:Work
         rdf:about="">
        <dc:format>image/svg+xml</dc:format>
        <dc:type
           rdf:resource="http://purl.org/dc/dcmitype/StillImage" />
        <dc:title></dc:title>
      </cc:Work>
    </rdf:RDF>
  </metadata>
  <sodipodi:namedview
     pagecolor="#ffffff"
     bordercolor="#666666"
     borderopacity="1"
     objecttolerance="10"
     gridtolerance="10"
     guidetolerance="10"
     inkscape:pageopacity="0"
     inkscape:pageshadow="2"
     inkscape:window-width="1920"
     inkscape:window-height="1040"
     id="namedview51"
     showgrid="false"
     inkscape:zoom="1.84375"
     inkscape:cx="-286.20534"
     inkscape:cy="-11.814289"
     inkscape:window-x="0"
     inkscape:window-y="0"
     inkscape:window-maximized="1"
     inkscape:current-layer="g45" />
  <defs
     id="defs7">
    <path
       d="M557.89 178.57L320.67 78.75L83.46 178.57L320.67 278.39L557.89 178.57Z"
       id="dpUNTwYH" />
    <path
       d="M257.52 142.25L265.76 142.25L278 140.12L285.71 152.36L285.71 163.8L296.22 177.73L298.01 177.73L298.01 172.81L302.06 181.09L314.26 183.76L319.76 189.17L324.67 190.6L319.76 200.58L325.11 210.26L325.11 210.28L325.13 210.34L325.16 210.44L325.2 210.58L325.25 210.74L325.31 210.94L325.38 211.17L325.46 211.42L325.54 211.71L325.63 212.01L325.73 212.34L325.84 212.68L325.94 213.04L326.06 213.42L326.17 213.81L326.29 214.21L326.42 214.62L326.54 215.04L326.67 215.46L326.79 215.89L326.92 216.31L327.04 216.74L327.17 217.16L327.29 217.57L327.41 217.98L327.53 218.38L327.64 218.77L327.75 219.14L327.85 219.5L327.95 219.84L328.04 220.17L328.13 220.47L328.21 220.74L328.27 220.99L328.33 221.22L328.38 221.41L328.43 221.57L328.46 221.7L328.47 221.79L328.48 221.84L328.47 221.9L328.46 222L328.43 222.14L328.39 222.32L328.34 222.54L328.28 222.79L328.21 223.08L328.13 223.4L328.05 223.74L327.95 224.11L327.86 224.5L327.75 224.91L327.64 225.34L327.53 225.79L327.41 226.25L327.29 226.72L327.17 227.2L327.05 227.69L326.92 228.18L326.8 228.67L326.67 229.16L326.54 229.65L326.42 230.13L326.3 230.61L326.18 231.07L326.06 231.52L325.95 231.96L325.84 232.38L325.74 232.78L325.64 233.15L325.55 233.5L325.46 233.83L325.39 234.13L325.32 234.39L325.26 234.62L325.21 234.81L325.17 234.97L325.14 235.08L325.11 235.17L325.88 243.86L325.65 243.88L325.42 243.91L325.2 243.94L324.97 243.96L324.74 243.99L324.51 244.01L324.29 244.04L324.06 244.06L323.83 244.08L323.6 244.11L323.37 244.13L323.14 244.15L322.92 244.17L322.69 244.19L322.46 244.21L322.23 244.23L322 244.25L321.77 244.27L321.54 244.29L321.31 244.3L321.08 244.32L320.85 244.34L320.62 244.35L320.39 244.37L320.16 244.38L319.93 244.39L319.7 244.4L319.46 244.42L319.23 244.43L319 244.44L318.77 244.44L318.54 244.45L318.3 244.46L318.07 244.47L317.84 244.47L317.61 244.48L317.37 244.48L317.14 244.48L316.91 244.48L316.67 244.48L313.65 244.42L310.65 244.25L307.7 243.95L304.77 243.54L301.89 243.03L299.04 242.4L296.24 241.67L293.48 240.83L290.77 239.89L288.12 238.85L285.51 237.71L282.96 236.48L280.46 235.16L278.03 233.74L275.65 232.24L273.35 230.65L271.1 228.98L268.93 227.23L266.83 225.4L264.8 223.49L262.84 221.5L260.97 219.45L259.18 217.33L257.47 215.13L255.84 212.88L254.3 210.56L252.85 208.18L251.5 205.74L250.24 203.25L249.08 200.7L248.01 198.11L247.05 195.46L246.19 192.77L245.44 190.03L244.8 187.25L244.27 184.43L243.86 181.58L243.55 178.69L243.37 175.76L243.31 172.81L243.32 171.82L243.34 170.84L243.37 169.85L243.42 168.88L243.48 167.9L243.56 166.93L243.65 165.97L243.75 165L243.86 164.05L243.99 163.09L244.13 162.14L244.28 161.19L244.45 160.25L244.63 159.31L244.82 158.38L245.02 157.45L245.24 156.53L245.47 155.61L245.71 154.69L245.96 153.78L246.23 152.87L246.5 151.97L246.79 151.08L247.09 150.19L247.4 149.3L247.72 148.42L248.06 147.54L248.4 146.68L248.76 145.81L249.12 144.95L249.5 144.1L249.89 143.25L250.29 142.41L250.7 141.57L251.12 140.74L251.55 139.92L252 139.1L252.45 138.29L252.91 137.48L253.38 136.69L258.66 135.49L253.37 139.59L257.52 142.25ZM345.56 122.02L347.37 126.57L348.72 130.83L358.03 139.03L360.42 139.77L363.72 134.62L375.42 133.6L377.61 132.92L378.19 133.78L378.76 134.65L379.32 135.52L379.86 136.41L380.4 137.3L380.91 138.2L381.42 139.11L381.91 140.03L382.39 140.95L382.86 141.88L383.31 142.82L383.75 143.77L384.18 144.73L384.59 145.69L384.99 146.66L385.37 147.63L385.74 148.61L386.09 149.6L386.43 150.6L386.76 151.6L387.07 152.61L387.37 153.62L387.65 154.64L387.92 155.67L388.17 156.7L388.4 157.74L388.63 158.78L388.83 159.83L389.02 160.89L389.19 161.95L389.35 163.01L389.49 164.08L389.62 165.15L389.73 166.23L389.82 167.32L389.9 168.4L389.96 169.5L390 170.59L390.03 171.69L390.04 172.8L389.99 175.32L389.86 177.82L389.64 180.3L389.33 182.75L388.94 185.18L388.47 187.57L387.92 189.94L387.29 192.28L386.58 194.59L385.79 196.86L384.93 199.1L383.99 201.3L382.99 203.46L381.91 205.58L380.76 207.67L379.55 209.71L378.27 211.71L376.92 213.66L375.51 215.57L374.04 217.43L372.51 219.24L370.92 221L369.27 222.7L367.56 224.36L365.81 225.96L363.99 227.5L362.13 228.98L360.22 230.41L358.26 231.78L356.25 233.08L354.19 234.32L352.1 235.5L349.95 236.61L347.77 237.65L345.55 238.62L343.29 239.52L340.99 240.36L338.66 241.11L336.29 241.8L333.89 242.4L335.23 237.67L347.83 229.45L351.13 220.66L359.83 216.71L368.08 201.32L355.33 194L348.73 186.67L344.83 186.22L337.03 184.18L330.31 183.14L324.43 184.75L320.83 180.8L317.22 179.77L317.53 174.51L313.17 174.64L310.7 177.43L309.28 171.56L314.97 168.92L320.83 171.56L323.97 171.56L325.11 167.02L333.87 156.75L346.03 150.75L353.07 151.63L353.71 148.27L344.98 139.61L341.69 133.17L336.88 133.17L333.88 131.46L327.43 130.52L326.08 138.01L318.26 136.54L317.67 131.86L323.67 130.53L325.65 122.13L331.6 124.52L331.44 128.09L335.98 129.94L339 130.81L342.72 128.91L339.42 125.11L332.66 118.66L332.82 115.58L339.71 116.9L345.56 122.02ZM318.43 101.14L319.3 101.17L320.18 101.21L321.05 101.25L321.92 101.31L322.78 101.38L323.64 101.45L324.5 101.54L325.36 101.64L326.21 101.74L327.06 101.86L327.91 101.98L328.75 102.12L329.59 102.26L330.43 102.41L331.26 102.58L332.09 102.75L332.92 102.93L333.74 103.12L334.56 103.32L335.38 103.53L336.19 103.75L337 103.97L337.8 104.21L338.6 104.45L339.4 104.7L340.19 104.96L340.98 105.23L341.77 105.51L342.55 105.79L343.33 106.08L344.1 106.38L344.87 106.69L345.63 107.01L346.39 107.34L347.15 107.67L347.9 108.01L345.27 108.4L338.07 107.34L332.98 110.66L329.37 114.55L316.27 115.75L310.87 114.88L307.17 120.56L296.37 121.15L289.61 119.24L283.6 122.46L270.57 124.24L260.13 127.18L260.09 127.18L261.17 125.94L262.27 124.72L263.4 123.52L264.56 122.35L265.75 121.21L266.96 120.09L268.2 119L269.46 117.94L270.75 116.9L272.06 115.9L273.39 114.92L274.75 113.97L276.14 113.05L277.54 112.16L278.97 111.3L280.41 110.47L281.88 109.68L283.37 108.91L284.88 108.18L286.41 107.49L287.96 106.82L289.52 106.19L291.1 105.6L292.71 105.03L294.32 104.51L295.96 104.02L297.61 103.57L299.27 103.15L300.95 102.77L302.65 102.43L304.36 102.13L306.08 101.86L307.81 101.64L309.56 101.46L311.32 101.31L313.09 101.21L314.87 101.14L316.67 101.12L317.55 101.13L318.43 101.14ZM297.58 108.84L297.18 109.42L296.28 110.21L295.13 111.07L293.99 111.85L293.12 112.43L292.77 112.65L297.58 115.4L307.57 112.83L305.21 108.84L300.88 110.19L297.58 108.84ZM315.46 110.87L318.46 112.77L325.11 112.12L332.07 106.94L327.26 104.22L319.77 108.25L315.46 110.87Z"
       id="bdXJkuqNj" />
    <path
       d="M316.67 567.21L79.46 467.39L79.46 184.57L316.67 284.39L316.67 567.21Z"
       id="a35wS4JI7H" />
    <path
       d="M324.67 568.21L561.89 468.39L561.89 185.57L324.67 285.39L324.67 568.21Z"
       id="a2QpYZZxCF" />
    <path
       d="M272.7 249.99L272.7 249.99L272.7 251.36L272.7 251.36L272.7 249.99Z"
       id="cPaAxmhQI" />
  </defs>
  <circle
     style="opacity:1;fill:#ab8a6a;fill-opacity:1;stroke:none;stroke-width:785.12249756;stroke-linecap:square;stroke-miterlimit:4;stroke-dasharray:none;stroke-dashoffset:0;stroke-opacity:1;paint-order:stroke markers fill"
     id="path862-3"
     cx="319.32202"
     cy="325.08472"
     r="285.4238" />
  <circle
     style="opacity:1;fill:#c1aa94;fill-opacity:1;stroke:none;stroke-width:719.1315918;stroke-linecap:square;stroke-miterlimit:4;stroke-dasharray:none;stroke-dashoffset:0;stroke-opacity:1;paint-order:stroke markers fill"
     id="path862"
     cx="319.62958"
     cy="325.69989"
     r="261.43347" />
  <g
     id="g47"
     transform="matrix(0.7393653,0,0,0.7393653,86.839577,80.300915)">
    <g
       id="g45">
      <g
         id="g15"
         style="fill:#ab8a6a;fill-opacity:1;stroke:none;stroke-width:9.58420563;stroke-miterlimit:4;stroke-dasharray:none;stroke-opacity:1">
        <use
           xlink:href="#dpUNTwYH"
           id="use9"
           style="opacity:1;fill:#ab8a6a;fill-opacity:1;stroke:none;stroke-width:9.58420563;stroke-miterlimit:4;stroke-dasharray:none;stroke-opacity:1"
           x="0"
           y="0"
           width="100%"
           height="100%" />
        <g
           id="g13"
           style="fill:#ab8a6a;fill-opacity:1;stroke:none;stroke-width:9.58420563;stroke-miterlimit:4;stroke-dasharray:none;stroke-opacity:1">
          <use
             xlink:href="#dpUNTwYH"
             id="use11"
             style="opacity:1;fill:#ab8a6a;fill-opacity:1;stroke:none;stroke-width:9.58420563;stroke-miterlimit:4;stroke-dasharray:none;stroke-opacity:1"
             x="0"
             y="0"
             width="100%"
             height="100%" />
        </g>
      </g>
      <g
         id="g23"
         style="fill:#fff7ee;fill-opacity:1"
         transform="translate(7.3450776,0.92574369)">
        <use
           xlink:href="#bdXJkuqNj"
           id="use17"
           style="opacity:1;fill:#fff7ee;fill-opacity:1"
           x="0"
           y="0"
           width="100%"
           height="100%" />
        <g
           id="g21"
           style="fill:#fff7ee;fill-opacity:1">
          <use
             xlink:href="#bdXJkuqNj"
             id="use19"
             style="opacity:1;fill:#fff7ee;fill-opacity:1;stroke:#000000;stroke-width:1;stroke-opacity:0"
             x="0"
             y="0"
             width="100%"
             height="100%" />
        </g>
      </g>
      <g
         id="g31"
         style="fill:#ab8a6a;fill-opacity:1;stroke:none;stroke-width:9.58420563;stroke-miterlimit:4;stroke-dasharray:none;stroke-opacity:1"
         transform="translate(-2.9453819,8.1570321)">
        <use
           xlink:href="#a35wS4JI7H"
           id="use25"
           style="opacity:1;fill:#ab8a6a;fill-opacity:1;stroke:none;stroke-width:9.58420563;stroke-miterlimit:4;stroke-dasharray:none;stroke-opacity:1"
           x="0"
           y="0"
           width="100%"
           height="100%" />
        <g
           id="g29"
           style="fill:#ab8a6a;fill-opacity:1;stroke:none;stroke-width:9.58420563;stroke-miterlimit:4;stroke-dasharray:none;stroke-opacity:1">
          <use
             xlink:href="#a35wS4JI7H"
             id="use27"
             style="opacity:1;fill:#ab8a6a;fill-opacity:1;stroke:none;stroke-width:9.58420563;stroke-miterlimit:4;stroke-dasharray:none;stroke-opacity:1"
             x="0"
             y="0"
             width="100%"
             height="100%" />
        </g>
      </g>
      <g
         id="g39"
         style="fill:#ab8a6a;fill-opacity:1;stroke:none;stroke-width:9.58420563;stroke-miterlimit:4;stroke-dasharray:none;stroke-opacity:1"
         transform="translate(1.7383339,7.8133902)">
        <use
           xlink:href="#a2QpYZZxCF"
           id="use33"
           style="opacity:1;fill:#ab8a6a;fill-opacity:1;stroke:none;stroke-width:9.58420563;stroke-miterlimit:4;stroke-dasharray:none;stroke-opacity:1"
           x="0"
           y="0"
           width="100%"
           height="100%" />
        <g
           id="g37"
           style="fill:#ab8a6a;fill-opacity:1;stroke:none;stroke-width:9.58420563;stroke-miterlimit:4;stroke-dasharray:none;stroke-opacity:1">
          <use
             xlink:href="#a2QpYZZxCF"
             id="use35"
             style="opacity:1;fill:#ab8a6a;fill-opacity:1;stroke:none;stroke-width:9.58420563;stroke-miterlimit:4;stroke-dasharray:none;stroke-opacity:1"
             x="0"
             y="0"
             width="100%"
             height="100%" />
        </g>
      </g>
      <g
         id="g43"
         style="stroke:#908070;stroke-opacity:1">
        <use
           xlink:href="#cPaAxmhQI"
           id="use41"
           style="opacity:1;fill:#b62880;fill-opacity:1;stroke:#908070;stroke-opacity:1"
           x="0"
           y="0"
           width="100%"
           height="100%" />
      </g>
    </g>
  </g>
</svg>
