<svg height="48" width="48" xmlns="http://www.w3.org/2000/svg"><path d="m44.322082 27.405077a19.729762 19.729765 0 0 1 -19.729762 19.729765 19.729762 19.729765 0 0 1 -19.7297621-19.729765 19.729762 19.729765 0 0 1 19.7297621-19.7297632 19.729762 19.729765 0 0 1 19.729762 19.7297632z" fill="#f0a257" opacity=".99" transform="matrix(1.1503549 0 0 1.1503549 -4.486125 -7.525565)"/><path d="m20.302864 12.000001v4c-.491694.02-1.394226 0-1.865234 0h-3.134766v2s1.718836-.02999 1.691406 0c.920258-.014 1.213314.654087 1.308594 1.099609v9.900391c-.03527.281551-.0053.98-.648438 1 .0297.026-2.351562 0-2.351562 0v2h3.253906c.550204-.02 1.214576 0 1.746094 0v4l2-.03711v-3.96289h1.96875l.0625 4h2l-.0625-4c3.815624-.276952 6.033065-2 6.033065-4.501953 0-1.498047-1.445329-3.498047-3-3.498047.561809 0 2-2 2-4 0-1.722387-1.089853-3.444775-3.009867-3.889746-.309466-.07172-1.63856-.110254-1.990071-.110254l-.0019-4h-2v4c-.597224 0-1.391758-.022-1.9981 0l-.0019-4zm2 6c2 0 5.000347.000038 5 2.5.000347 2.500163-3 2.5-5 2.5zm0 7c4 .000125 6.000416.000038 6 2.5.000416 2.500163-2 2.5-6 2.5z" fill="#fff"/></svg>