<svg height="48" width="48" xmlns="http://www.w3.org/2000/svg"><path d="m44.322082 27.405077a19.729762 19.729765 0 0 1 -19.729762 19.729765 19.729762 19.729765 0 0 1 -19.7297621-19.729765 19.729762 19.729765 0 0 1 19.7297621-19.7297632 19.729762 19.729765 0 0 1 19.729762 19.7297632z" fill="#b67890" opacity=".99" transform="matrix(1.1503549 0 0 1.1503549 -4.486125 -7.525565)"/><g fill="#fff" fill-rule="evenodd" transform="translate(-2.2 -3.966797)"><path d="m33 12.072266v3h-14l-7 7h7 14v3l7-7zm7 9.394531-7 7v3 1.570312h7zm-28 2.033203v11.572266l7-7v-3-1.572266zm7 7.966797-7 7 7 6v-3h14l7-7h-7-14z" fill-opacity=".496479"/><path d="m33 12.072266v3h-14l-7 7h7 14v3l7-7zm-14 19.394531-7 7 7 6v-3h14l7-7h-7-14z" fill-opacity=".901408"/></g></svg>