<svg height="48" width="48" xmlns="http://www.w3.org/2000/svg"><path d="m44.322082 27.405077a19.729762 19.729765 0 0 1 -19.729762 19.729765 19.729762 19.729765 0 0 1 -19.7297621-19.729765 19.729762 19.729765 0 0 1 19.7297621-19.7297632 19.729762 19.729765 0 0 1 19.729762 19.7297632z" fill="#7e609b" opacity=".99" transform="matrix(1.1503549 0 0 1.1503549 -4.486125 -7.525565)"/><path d="m24 14c-2.910714 0-5.217522 1.299201-6.695312 3.199219-1.477792 1.900018-2.179688 4.356337-2.179688 6.800781s.701896 4.900763 2.179688 6.800781c1.47779 1.900018 3.784598 3.199219 6.695312 3.199219h20.146484a22.696228 22.696232 0 0 0 .869141-2h-21.015625c-2.339286 0-3.969978-.950799-5.117188-2.425781-1.147208-1.474982-1.757812-3.518663-1.757812-5.574219s.610604-4.099237 1.757812-5.574219c1.14721-1.474982 2.777902-2.425781 5.117188-2.425781zm1.5 3c-2.141667 0-3.873914.899478-4.986328 2.234375s-1.638672 3.057292-1.638672 4.765625.526258 3.430728 1.638672 4.765625 2.844661 2.234375 4.986328 2.234375h19.878906a22.696228 22.696232 0 0 0 .542969-2h-20.421875c-1.608333 0-2.688586-.600522-3.451172-1.515625s-1.173828-2.192708-1.173828-3.484375.411242-2.569272 1.173828-3.484375 1.842839-1.515625 3.451172-1.515625zm1.5 3c-2.694444 0-4.375 2-4.375 4s1.680556 4 4.375 4h19.125a22.696228 22.696232 0 0 0 .275391-2h-19.400391c-1.805556 0-2.375-1-2.375-2s.569444-2 2.375-2z" fill="#f9f9f9"/></svg>