<svg height="48" width="48" xmlns="http://www.w3.org/2000/svg"><path d="m44.322082 27.405077a19.729762 19.729765 0 0 1 -19.729762 19.729765 19.729762 19.729765 0 0 1 -19.7297621-19.729765 19.729762 19.729765 0 0 1 19.7297621-19.7297632 19.729762 19.729765 0 0 1 19.729762 19.7297632z" fill="#5999b6" opacity=".99" transform="matrix(1.1503549 0 0 1.1503549 -4.486125 -7.525565)"/><g fill="#fff" fill-rule="evenodd"><path d="m30.054688 15.316406c-4.00368-.005-8.823609 2.059204-13.310547 6.240235l-4.744141-3.556641c2.140869 4.680069 1.854857 10.289608 0 16.5l5.248047-5.248047c9.751953 9.748047 21.751953 5.248047 21.751953-3.751953 0-6.75-3.797724-10.177195-8.945312-10.183594zm2.326171 4.183594a2.1187184 2.1187184 0 0 1 2.119141 2.119141 2.1187184 2.1187184 0 0 1 -2.119141 2.11914 2.1187184 2.1187184 0 0 1 -2.11914-2.11914 2.1187184 2.1187184 0 0 1 2.11914-2.119141z"/><path d="m26.220703 13.447266c-1.590367-.010224-3.341067.542613-5.220703 1.552734 3.063107.529616 4.335062 1.737356 1.5 4.5l9-3c-1.454273-2.095978-3.234539-3.03959-5.279297-3.052734zm-.720703 18.052734-4.5 6 12-4.5z" fill-opacity=".510563"/></g></svg>