<svg height="48" width="48" xmlns="http://www.w3.org/2000/svg"><path d="m44.322082 27.405077a19.729762 19.729765 0 0 1 -19.729762 19.729765 19.729762 19.729765 0 0 1 -19.7297621-19.729765 19.729762 19.729765 0 0 1 19.7297621-19.7297632 19.729762 19.729765 0 0 1 19.729762 19.7297632z" fill="#87aade" opacity=".99" transform="matrix(1.1503549 0 0 1.1503549 -4.486125 -7.525565)"/><rect fill="#fff" height="27" ry="1.5" width="18" x="15" y="13.5"/><path d="m18 7.5h12v6h-12z" fill="#fff"/><path d="m19.5 9h3v3h-3z" fill="#87aade"/><path d="m25.5 9h3v3h-3z" fill="#87aade"/><path d="m18 31.5 10.5-7.5-6-6v18l6-4.5-10.5-9" fill="none" stroke="#87aade" stroke-width="2"/></svg>