<svg height="48" width="48" xmlns="http://www.w3.org/2000/svg"><path d="m44.322082 27.405077a19.729762 19.729765 0 0 1 -19.729762 19.729765 19.729762 19.729765 0 0 1 -19.7297621-19.729765 19.729762 19.729765 0 0 1 19.7297621-19.7297632 19.729762 19.729765 0 0 1 19.729762 19.7297632z" fill="#53ad92" opacity=".99" transform="matrix(1.1503549 0 0 1.1503549 -4.486125 -7.525565)"/><path d="m32.886719 14.576172s-22.000389 6.977137-22 7l8.144531 3.421875 2.855469.578125.613281 2.923828 3.386719 8.076172zm-14.761719 13.003906c-.09383.008-.216511.02769-.328125.05664-.853651.222803-2.093308 1.140153-2.757812 2.041015-.753647 1.021711-1.154133 2.217671-1.152344 3.4375.000441.341179.01489.400052.115234.44336.113749.0491 1.079291-.01027 1.470704-.08984 1.128554-.230591 2.090131-.758166 2.949218-1.61914.540056-.54123.858527-.987555 1.171875-1.640626.205142-.427524.344697-.948119.273438-1.019531-.01422-.01355-.126678.05355-.25.150391-.931443.596901-1.674965 1.029005-2.730469 1.236325.273916-1.037953.56657-1.828946 1.111328-2.574219.157824-.212645.287109-.395651.28711-.40625 0-.01981-.06633-.02358-.160157-.01563z" fill="#fff"/></svg>