<svg height="48" width="48" xmlns="http://www.w3.org/2000/svg"><path d="m44.322082 27.405077a19.729762 19.729765 0 0 1 -19.729762 19.729765 19.729762 19.729765 0 0 1 -19.7297621-19.729765 19.729762 19.729765 0 0 1 19.7297621-19.7297632 19.729762 19.729765 0 0 1 19.729762 19.7297632z" fill="#eab679" opacity=".99" transform="matrix(1.1503549 0 0 1.1503549 -4.486125 -7.525565)"/><path d="m23.803829 11.78125c-5.253666 0-9.511719 4.258273-9.511719 9.511719-.01976 2.848541 2.50064 5.33858 3.658203 8.048828.515854 1.208051 1.462891 3.658203 1.462891 3.658203h8.78125s.947036-2.450152 1.462891-3.658203c1.157562-2.710248 3.607715-5.231751 3.658203-8.048828 0-5.253446-4.258053-9.511719-9.511719-9.511719zm.732422 4.388672v5.123047h2.925781l-4.388672 6.585937v-5.123047h-2.927734zm-4.796875 18.292969.324219 1.464843h7.480468l.324219-1.464843zm.65039 2.927734.324219 1.462891h.002 6.177735l.324219-1.462891zm6.185547 2.662109c-.02556.05936-.05432.115932-.08398.171875.02967-.0566.05866-.111664.08398-.171875zm-5.541015.0039c.02487.05917.05091.11428.08008.169921-.02912-.0549-.05502-.111716-.08008-.169921zm.138672.259765c.253702.426681.632799.732422 1.167968.732422h2.925782c.534955 0 .912357-.306007 1.166015-.732422z" fill="#fff" stroke-width=".731708"/></svg>