<?xml version="1.0" encoding="UTF-8" standalone="no"?>
<svg
   xmlns:dc="http://purl.org/dc/elements/1.1/"
   xmlns:cc="http://creativecommons.org/ns#"
   xmlns:rdf="http://www.w3.org/1999/02/22-rdf-syntax-ns#"
   xmlns:svg="http://www.w3.org/2000/svg"
   xmlns="http://www.w3.org/2000/svg"
   xmlns:sodipodi="http://sodipodi.sourceforge.net/DTD/sodipodi-0.dtd"
   xmlns:inkscape="http://www.inkscape.org/namespaces/inkscape"
   height="48"
   width="48"
   version="1.1"
   id="svg10"
   sodipodi:docname="brave-beta.svg"
   inkscape:version="0.92.4 5da689c313, 2019-01-14">
  <metadata
     id="metadata16">
    <rdf:RDF>
      <cc:Work
         rdf:about="">
        <dc:format>image/svg+xml</dc:format>
        <dc:type
           rdf:resource="http://purl.org/dc/dcmitype/StillImage" />
        <dc:title></dc:title>
      </cc:Work>
    </rdf:RDF>
  </metadata>
  <defs
     id="defs14">
    <filter
       y="0%"
       x="0%"
       height="100%"
       width="100%"
       id="alpha">
      <feColorMatrix
         id="feColorMatrix929"
         values="0 0 0 0 1 0 0 0 0 1 0 0 0 0 1 0 0 0 1 0"
         in="SourceGraphic" />
    </filter>
    <mask
       id="mask0">
      <g
         id="g934"
         filter="url(#alpha)">
        <rect
           id="rect932"
           style="fill-opacity:.2;fill:rgb(0%,0%,0%)"
           height="384"
           width="384" />
      </g>
    </mask>
    <clipPath
       id="clip1">
      <rect
         id="rect937"
         height="384"
         width="384" />
    </clipPath>
    <g
       clip-path="url(#clip1)"
       id="surface5">
      <path
         id="path940"
         style="fill:rgb(100%,100%,100%)"
         d="m162.49219 24.035156c-13.507813 0.222656-27.109376 3.160156-37.09375 8.109375-9.898438 4.90625-18.738282 14.425781-27.078126 29.167969-2.140624 3.78125-4.636718 7.363281-5.554687 7.96875s-4.285156 1.453125-7.464844 1.882812c-11.070312-0.371093-23.210937-2.757812-34.96875-5.140624 0 0-7.496093-1.949219-8.332031 6.152343 0.035156 1.367188 0.257812 2.65625 0.46875 3.953125 1.8125-5.617187 7.863281-4.105468 7.863281-4.105468 11.757813 2.382812 23.898438 4.769531 34.96875 5.140624 3.179688-0.429687 6.546875-1.277343 7.464844-1.882812s3.414063-4.199219 5.554687-7.980469c8.339844-14.738281 17.179688-24.25 27.078126-29.15625 11.414062-5.65625 27.554687-8.683593 42.871093-8.039062 18.414063 0.777343 34.054688 7.144531 46.832031 19.066406 8.777344 8.195313 14.589844 10.25 22.941407 8.097656 2.28125-0.589843 3.175781-0.746093 4.058593-0.855469 1.191407-1.652343 1.953126-3.363281 1.953126-4.816406 0-1.84375-0.136719-1.84375-6.011719-0.328125-8.351563 2.152344-14.164063 0.097657-22.941407-8.097656-12.777343-11.921875-28.417968-18.289063-46.832031-19.066406-1.914062-0.082031-3.84375-0.101563-5.777343-0.070313zm77.929687 40.328125c-0.410156 0.402344-0.800781 0.816407-1.269531 1.191407l-2.726563 2.203124 0.855469 0.503907c0.253906-0.042969 0.460938-0.101563 0.726562-0.136719 3.835938-0.554688 4.546876-1.980469 2.414063-3.761719zm-8.214844 11.644531c-0.457031 0.335938-0.785156 0.683594-0.785156 1.019532 0 0.398437 0.542969 3.835937 1.203125 7.636718 0.582031 3.355469 0.792969 7.929688 0.835938 12.710938 0.238281-6.9375-0.007813-13.949219-0.835938-18.710938-0.226562-1.316406-0.234375-1.535156-0.417969-2.65625zm-170.49609 34.195313c-5.027344 3.300781-7.902344 8.210937-13.792969 12.808594-0.917969 1.726562-0.429688 3.367187 1.171875 4.921875 6.414062-5.457032 9.296875-11.167969 16.910156-13.921875-1.464844-1.246094-2.851562-2.539063-4.289062-3.808594zm256.28906 45.820313c-5.183594 0-8.507812 3.1875-14.089844 10.699218-6.519531 8.789063-15.25 15.429688-21.347656 18.539063-9.554688 4.871093-16.882812 4.003906-34.152344-4.042969-18.273437-8.519531-30.953125-11.582031-49.15625-13.195312-1.289062-0.113282-2.777344-0.066407-4.242187-0.082032-3.976563 2.703125-8.339844 5.644532-9.011719 6.070313 0.847656 0 8.28125-0.433594 13.253906 0.011719 18.203125 1.613281 30.882813 4.675781 49.15625 13.195312 17.269532 8.046875 24.597656 8.914062 34.152344 4.042969 6.097656-3.109375 14.828125-9.75 21.347656-18.539063 5.582032-7.511718 8.90625-10.699218 14.089844-10.699218 5.074219 0 8.71875 3.347656 12.5625 9.210937 5.445312 8.304687 8.414062 14.230469 10.527344 28.699219 0.597656 4.132812 0.8125 10.640625 0.824218 17.445312 0.195313-8.976562-0.046874-18.070312-0.824218-23.445312-2.113282-14.46875-5.082032-20.394532-10.527344-28.699219-3.84375-5.863281-7.488281-9.210937-12.5625-9.210937zm-216 3.371093c-0.253906 5.238281-1.375 10.058594-4.625 16.363281-3.75 7.273438-7.84375 13.054688-15.941406 21.960938-14.582032 16.054688-24.941406 33.121094-29.496094 48.597656-1.648438 5.597656-2.285156 11.917969-2.039062 18.570313 0.222656-4.449219 0.894531-8.679688 2.039062-12.570313 4.554688-15.476562 14.914062-32.542968 29.496094-48.597656 8.097656-8.90625 12.191406-14.6875 15.941406-21.960938 4.433594-8.605468 4.96875-14.449218 4.625-22.363281z" />
    </g>
    <mask
       id="mask1">
      <g
         id="g945"
         filter="url(#alpha)">
        <rect
           id="rect943"
           style="fill-opacity:.2;fill:rgb(0%,0%,0%)"
           height="384"
           width="384" />
      </g>
    </mask>
    <clipPath
       id="clip2">
      <rect
         id="rect948"
         height="384"
         width="384" />
    </clipPath>
    <g
       clip-path="url(#clip2)"
       id="surface8">
      <path
         id="path951"
         style="fill:rgb(0%,0%,0%)"
         d="m243.25781 56.179688c-0.171874-0.011719-0.917968 0.210937-1.171874 0.246093-0.796876 1.09375-1.75 2.175781-2.929688 3.128907l-2.730469 2.203124 2.753907 1.640626c0.574218 0.339843 0.863281 0.640624 1.242187 0.960937 2.210937-2.1875 3.632813-4.71875 3.632813-6.761719 0-0.921875-0.027344-1.375-0.796876-1.417968zm-5.988281 12.082031c-3.363281 0.589843-5.847656 1.722656-5.847656 2.765625 0 0.257812 0.441406 2.878906 0.785156 4.980468 1.066407-0.785156 3.167969-1.507812 5.800781-1.886718 4.515626-0.652344 4.96875-2.46875 1.171876-4.722656zm-194.80078 7.859375c-0.199219 0.617187-0.386719 1.253906-0.46875 2.050781 0.355469 13.265625 9.480469 22.996094 19.710938 32.027344 1.269531-0.832031 2.652343-1.601563 4.289062-2.1875-10.800781-9.210938-21.386719-18.847657-23.53125-31.890625zm190.99219 21.246094c-0.230469 6.667968-0.914063 13.25-1.992188 17.625-3.410156 13.835937-8.582031 23.582031-17.402344 32.835937-6.867187 6.238281-26.257812 19.042969-28.070312 20.183594 0.632812 0 4.851562-0.136719 9.035156-0.082031 6.734375-4.582032 14.722656-10.179688 19.03125-14.097657 8.820312-9.25 13.996094-18.996093 17.402344-32.835937 1.414062-5.71875 2.066406-15.097656 1.992187-23.625zm-184.37109 30.574218c-0.414063 0.355469-0.71875 0.714844-1.171875 1.066406-1.417969 2.675782 0.214843 5.175782 4.804687 7.394532 5.921875 2.855468 11.992188 3.625 24.390625 3.035156 12.695313-0.609375 14.386719 1.269531 18.492188 4.664062 4.328125 3.601563 6.027343 7 6.394531 14.894532 0.007812 0.140625-0.003906 0.261718 0 0.398437 0.101562-2.035156 0.109375-4.132812 0-6.410156-0.367188-7.894531-2.066406-11.28125-6.394531-14.882813-4.105469-3.394531-5.796875-5.285156-18.492188-4.675781-12.398437 0.589844-18.46875-0.167969-24.390625-3.023437-1.621094-0.785156-2.753906-1.605469-3.632812-2.460938zm292.82422 89.4375c-0.175781 8.300782-0.71875 16.507813-1.617187 21.457032-11.171875 61.597656-50.480469 103.0625-110.49609 116.56641-16.195312 3.644531-22.71875 4.300781-45.160156 4.535156-11.644531 0.125-22.519531 0.085938-24.15625-0.082031v-0.011719c-37.652344-3.851562-63.890625-14.621094-83.273437-34.191406-7.828126-7.910156-13.144532-15.179688-17.5625-24.023438-5.847657-11.691406-9.1875-24.296875-9.75-35.90625-0.496094 13.167969 2.875 28.160156 9.75 41.90625 4.417968 8.84375 9.734374 16.117188 17.566406 24.023438 19.378906 19.570312 45.613281 30.355468 83.273437 34.207031 1.632813 0.167969 12.507813 0.203125 24.152344 0.082031 22.445313-0.234375 28.964844-0.890625 45.164063-4.535156 60.011718-13.5 99.324218-54.96875 110.49609-116.56641 1.121094-6.183594 1.640625-17.246094 1.617188-27.457032z" />
    </g>
    <linearGradient
       gradientUnits="userSpaceOnUse"
       y2="249.017"
       y1="515.328"
       x2="249.882"
       x1="-248.932"
       id="linearGradient1117">
      <stop
         id="stop954"
         offset="0"
         style="stop-color:#4aaee6" />
      <stop
         id="stop956"
         offset="1"
         style="stop-color:#357af0" />
    </linearGradient>
    <linearGradient
       id="linearGradient-1"
       y2="116.54461"
       x2="186.14996"
       y1="116.54461"
       x1="0"
       gradientTransform="scale(0.69850138,1.4316364)"
       gradientUnits="userSpaceOnUse">
      <stop
         id="stop4511"
         offset="0%"
         stop-color="#FFFFFF" />
      <stop
         id="stop4513"
         offset="14.13%"
         stop-opacity="0.9576"
         stop-color="#FFFFFF" />
      <stop
         id="stop4515"
         offset="100%"
         stop-opacity="0.7"
         stop-color="#FFFFFF" />
    </linearGradient>
    <linearGradient
       id="linearGradient-2"
       y2="112.26521"
       x2="373.38791"
       y1="112.26521"
       x1="187.35059"
       gradientTransform="scale(0.68561406,1.4585465)"
       gradientUnits="userSpaceOnUse">
      <stop
         id="stop4518"
         offset="0%"
         stop-color="#F1F1F2" />
      <stop
         id="stop4520"
         offset="9.191442%"
         stop-color="#E4E5E6" />
      <stop
         id="stop4522"
         offset="23.57%"
         stop-color="#D9DADB" />
      <stop
         id="stop4524"
         offset="43.8%"
         stop-color="#D2D4D5" />
      <stop
         id="stop4526"
         offset="100%"
         stop-color="#D0D2D3" />
    </linearGradient>
  </defs>
  <sodipodi:namedview
     pagecolor="#ffffff"
     bordercolor="#666666"
     borderopacity="1"
     objecttolerance="10"
     gridtolerance="10"
     guidetolerance="10"
     inkscape:pageopacity="0"
     inkscape:pageshadow="2"
     inkscape:window-width="1920"
     inkscape:window-height="1027"
     id="namedview12"
     showgrid="true"
     inkscape:zoom="6.9532167"
     inkscape:cx="18.430294"
     inkscape:cy="15.780312"
     inkscape:window-x="0"
     inkscape:window-y="30"
     inkscape:window-maximized="1"
     inkscape:current-layer="svg10">
    <inkscape:grid
       type="xygrid"
       id="grid823" />
  </sodipodi:namedview>
  <g
     fill="#626c97"
     opacity=".99"
     transform="matrix(1.1503549 0 0 1.1503549 -4.486125 -7.525565)"
     id="g6"
     style="fill:#8b3c5b;fill-opacity:0.54924244">
    <path
       d="m44.322082 27.405077a19.729762 19.729765 0 0 1 -19.729762 19.729765 19.729762 19.729765 0 0 1 -19.7297621-19.729765 19.729762 19.729765 0 0 1 19.7297621-19.7297632 19.729762 19.729765 0 0 1 19.729762 19.7297632z"
       id="path2"
       style="fill:#8b3c5b;fill-opacity:0.54924244" />
    <path
       d="m44.322082 27.405077a19.729762 19.729765 0 0 1 -19.729762 19.729765 19.729762 19.729765 0 0 1 -19.7297621-19.729765 19.729762 19.729765 0 0 1 19.7297621-19.7297632 19.729762 19.729765 0 0 1 19.729762 19.7297632z"
       id="path4"
       style="fill:#8b3c5b;fill-opacity:0.54924244" />
  </g>
  <circle
     style="opacity:1;fill:#ffffff;fill-opacity:0.16287878;stroke:none;stroke-width:0.2;stroke-linecap:round;stroke-linejoin:round;stroke-miterlimit:4;stroke-dasharray:none;stroke-dashoffset:0;stroke-opacity:1;paint-order:fill markers stroke"
     id="path4512"
     cx="23.80377"
     cy="24"
     r="19.192179" />
  <path
     style="fill:#ffffff;stroke-width:0.04618862"
     inkscape:connector-curvature="0"
     d="m -123.47207,5.5422316 c 0,13.7573264 -11.15358,24.9109084 -24.91091,24.9109084 -13.75788,0 -24.91091,-11.153582 -24.91091,-24.9109084 0,-13.7576038 11.15308,-24.9111396 24.91091,-24.9111396 13.75733,0 24.91091,11.1535358 24.91091,24.9111396 z"
     id="path4506" />
  <g
     id="g4541"
     transform="matrix(0.09173767,0,0,0.09173767,12.060888,10.220798)"
     style="fill:#ffffff">
    <path
       style="fill:#ffffff;stroke-width:0.17961833"
       d="m 162.44922,-1.1210938 -8.19141,0.072266 -4.79492,5.2441406 -0.86328,-0.3046875 c -1.86803,-0.6645878 -3.93335,-0.1807036 -5.31641,1.2382812 l -3.19726,3.2324219 c -0.21554,0.215542 -0.26988,0.5215882 -0.16211,0.7910157 l 1.20508,2.6953119 -1.65235,4.507813 1.07617,4.076172 4.88672,18.554687 c 0.55682,2.137458 1.84992,4.005576 3.66407,5.298828 0,0 5.92802,4.186616 11.76562,7.976563 0.52089,0.341275 1.05803,0.574218 1.63281,0.574219 0.57478,0 1.11388,-0.232944 1.63477,-0.574219 6.57403,-4.31084 11.76562,-7.994141 11.76562,-7.994141 1.79619,-1.293252 3.08967,-3.16137 3.64649,-5.298828 l 4.84961,-18.554688 1.06054,-4.095703 -1.67187,-4.507812 1.15039,-2.5859373 c 0.14369,-0.3412749 0.0718,-0.7188538 -0.17969,-0.9882813 l -3.14453,-3.1796875 c -1.38306,-1.3830611 -3.42923,-1.8673291 -5.2793,-1.2207031 l -0.88086,0.3046875 -4.81445,-5.2089844 -8.13672,-0.052734 z m 0.2168,8.0019532 c 0.55681,-0.017962 1.24023,0.1445312 1.24023,0.1445312 0.21554,0.053886 0.59267,0.1625277 0.82617,0.234375 l 3.35938,1.0761719 c 0.2335,0.071847 0.61024,0.090611 0.84375,0.054687 l 0.0723,-0.017578 c 0.23351,-0.035924 0.61025,-0.1082239 0.84375,-0.1621094 l 4.00586,-0.7910156 c 0.23351,-0.035924 0.43164,-0.070312 0.43164,-0.070312 h 0.0352 c 0.018,-0.017962 0.16099,0.1426473 0.30469,0.3222656 l 2.62304,3.2871089 c 0.16166,0.197581 0.39575,0.503592 0.52149,0.701172 l 2.02929,2.998047 c 0.1437,0.19758 0.32387,0.540319 0.43165,0.755859 l 0.17968,0.519532 c 0.0359,0.233504 0.0527,0.629777 0.0527,0.863281 0,0 -4.2e-4,0.08876 -0.0723,0.322266 C 180.28676,17.550225 179.96408,17.946115 180,18 c -0.16166,0.179618 -0.41256,0.466866 -0.57422,0.646484 l -5.94531,6.322266 c -0.16166,0.179618 -0.21676,0.503208 -0.12695,0.71875 l 1.24023,2.927734 c 0.0898,0.215542 0.10739,0.593052 0.0176,0.808594 l -0.3418,0.916016 c -0.26943,0.772359 -0.75376,1.455669 -1.40039,1.976562 l -1.20312,0.986328 c -0.17962,0.143695 -0.50321,0.197615 -0.71875,0.08984 l -3.82618,-1.8125 c -0.21554,-0.08981 -0.53913,-0.307093 -0.71875,-0.46875 l -2.73046,-2.460937 c -0.39517,-0.359237 -0.42994,-0.986083 -0.0527,-1.363282 l 5.73047,-3.880859 c 0.19758,-0.143695 0.26793,-0.413364 0.16016,-0.628906 l -2.53125,-4.742188 c -0.12574,-0.19758 -0.12692,-0.555942 -0.0371,-0.771484 l 0.30664,-0.701172 c 0.0898,-0.233504 0.35867,-0.466831 0.57422,-0.556641 l 7.38281,-2.800781 c 0.2335,-0.08981 0.21397,-0.181257 -0.0195,-0.199219 l -4.75977,-0.449218 c -0.2335,-0.01796 -0.61024,4.18e-4 -0.84375,0.07226 l -4.23828,1.185547 c -0.2335,0.05389 -0.37772,0.305559 -0.3418,0.539063 l 1.45508,8.064453 c 0.0539,0.233504 0.0363,0.574671 -0.0176,0.736328 -0.0539,0.161656 -0.28798,0.342599 -0.52148,0.396484 L 163.17,24.179679 c -0.2335,0.05388 -0.61024,0.05388 -0.84375,0 l -2.94726,-0.628907 c -0.23351,-0.05389 -0.46566,-0.216866 -0.51953,-0.396484 -0.0539,-0.179618 -0.0535,-0.502824 -0.0176,-0.736328 l 1.47265,-8.064453 c 0.0359,-0.233504 -0.10829,-0.467216 -0.34179,-0.539063 l -4.23828,-1.185547 c -0.23351,-0.05389 -0.6122,-0.09023 -0.84571,-0.07226 l -4.75976,0.449218 c -0.23351,0.01796 -0.23312,0.10941 -0.0176,0.199219 l 7.38281,2.765625 c 0.21554,0.08981 0.48441,0.341099 0.57422,0.556641 l 0.30469,0.701172 c 0.0898,0.215542 0.0726,0.555942 -0.0352,0.771484 l -2.51367,4.742188 c -0.10777,0.21554 -0.0374,0.503173 0.16016,0.628906 l 5.73046,3.861328 c 0.35924,0.39516 0.34048,1.005998 -0.0547,1.365234 l -2.72852,2.460938 c -0.17962,0.161656 -0.50321,0.376604 -0.71875,0.484375 l -3.80859,1.814453 c -0.21555,0.107771 -0.53913,0.05385 -0.71875,-0.08984 l -1.20313,-0.970703 c -0.64662,-0.520893 -1.13058,-1.202251 -1.41797,-1.974609 l -0.34179,-0.916016 c -0.0898,-0.233504 -0.0722,-0.593052 0.0176,-0.808594 l 1.24024,-2.927734 c 0.0898,-0.215542 0.0347,-0.539132 -0.12695,-0.71875 l -5.94532,-6.322266 c -0.16165,-0.161656 -0.43052,-0.466866 -0.57422,-0.646484 0,0 -0.3059,-0.395088 -0.43164,-0.826172 -0.0718,-0.251466 -0.0723,-0.324219 -0.0723,-0.324219 -0.018,-0.233504 0.0188,-0.627824 0.0547,-0.861328 l 0.17968,-0.521484 c 0.10777,-0.215542 0.30591,-0.556326 0.43164,-0.753907 l 2.0293,-3 c 0.1437,-0.197579 0.37779,-0.521553 0.52149,-0.701171 l 2.62109,-3.2871098 c 0.14369,-0.1796182 0.28868,-0.3222656 0.30664,-0.3222656 h 0.0352 c 0,0 0.19813,0.01838 0.43164,0.072266 l 4.04101,0.7539063 c 0.23351,0.035924 0.61025,0.1261857 0.84375,0.1621094 l 0.0723,0.017578 c 0.2335,0.035924 0.61024,0.01716 0.84375,-0.054687 l 3.35937,-1.0761719 c 0.21554,-0.071847 0.59267,-0.1804895 0.82617,-0.234375 0,0 0.68147,-0.1445312 1.23829,-0.1445312 z m -0.2168,25.0292966 h 0.28711 0.28711 c 0.0718,0 0.30594,0.0723 0.52148,0.16211 l 2.33399,0.970703 c 0.21554,0.08981 0.57547,0.249651 0.79101,0.357422 l 3.52149,1.796875 c 0.21554,0.107771 0.23273,0.305524 0.0352,0.449218 l -3.10742,2.208985 c -0.19758,0.143694 -0.50397,0.377406 -0.68359,0.539062 l -1.38282,1.203125 c -0.17961,0.161657 -0.46686,0.412563 -0.64648,0.574219 l -1.36523,1.185547 c -0.17962,0.161656 -0.46687,0.161656 -0.64649,0 l -1.32812,-1.185547 c -0.17962,-0.161656 -0.46687,-0.412562 -0.64649,-0.574219 l -1.38281,-1.185547 c -0.17962,-0.161656 -0.48601,-0.395367 -0.68359,-0.539062 l -3.10743,-2.191406 c -0.19758,-0.143695 -0.18038,-0.341448 0.0352,-0.449219 l 3.52148,-1.832031 c 0.21555,-0.107771 0.57548,-0.267613 0.79102,-0.357422 l 2.33398,-0.970703 c 0.21555,-0.08981 0.44964,-0.16211 0.52149,-0.16211 z"
       transform="matrix(5.5673605,0,0,5.5673605,-776.51162,6.2446405)"
       id="path4531"
       inkscape:connector-curvature="0" />
  </g>
</svg>
