<svg height="48" width="48" xmlns="http://www.w3.org/2000/svg"><rect fill="#be75c5" height="42.5" ry="2.5" width="32.5" x="7.5" y="3"/><rect fill="#fff" fill-rule="evenodd" height="12.5" ry="1.5" width="17.5" x="19.898985" y="22.116243"/><path d="m20.898985 33.116244 5.428571-4.142857 1.571429 2.642857 3-4.357143 1.964286 2.928572 2.892857-5.428572" fill="none" stroke="#be75c5"/><path d="m27.398985 32.116244-5 12.5" fill="none" stroke="#fff" stroke-width="1.5"/><path d="m10 3h13.75v42.5h-13.75c-1.385 0-2.5-1.115-2.5-2.5v-37.5c0-1.385 1.115-2.5 2.5-2.5z" fill="#b057b8"/><path d="m29.991433 13.358366a7.5 7.5 0 0 1 -7.836122 7.133709 7.5 7.5 0 0 1 -7.148003-7.823085 7.5 7.5 0 0 1 7.810023-7.1622737 7.5 7.5 0 0 1 7.17652 7.7969337" fill="#fff"/><text style="font-size:17.041988;font-family:sans-serif;letter-spacing:0;word-spacing:0;fill:#b057b8;stroke-width:.42605" x="19.563797" y="19.153513"><tspan fill="#b057b8" font-family="Ubuntu Condensed" stroke-width=".42605" x="19.563797" y="19.153513">S</tspan></text><path d="m27.898985 32.116245h1.5v12.5h-1.5z" fill="#fff"/><path d="m29.898985 32.116244 5 12.5" fill="none" stroke="#fff" stroke-width="1.5"/></svg>