<?xml version="1.0" encoding="UTF-8" standalone="no"?>
<svg
   width="100%"
   height="100%"
   viewBox="0 0 267 267"
   version="1.1"
   xml:space="preserve"
   style="fill-rule:evenodd;clip-rule:evenodd;stroke-linecap:round;stroke-linejoin:round;stroke-miterlimit:1.5;"
   id="svg16"
   sodipodi:docname="cantor.svg"
   inkscape:version="1.1.1 (3bf5ae0d25, 2021-09-20, custom)"
   xmlns:inkscape="http://www.inkscape.org/namespaces/inkscape"
   xmlns:sodipodi="http://sodipodi.sourceforge.net/DTD/sodipodi-0.dtd"
   xmlns="http://www.w3.org/2000/svg"
   xmlns:svg="http://www.w3.org/2000/svg"><defs
     id="defs20"><inkscape:path-effect
       effect="spiro"
       id="path-effect1153"
       is_visible="true"
       lpeversion="1" /><linearGradient
       id="a"
       y1="543.8"
       y2="503.8"
       x1="434.57"
       gradientUnits="userSpaceOnUse"
       x2="384.57"
       gradientTransform="matrix(0.6875,0,0,0.9,128.18,52.38)"><stop
         stop-color="#343b40"
         id="stop15765" /><stop
         offset="1"
         stop-color="#555e63"
         id="stop15767" /></linearGradient><linearGradient
       id="b"
       y1="543.8"
       y2="503.8"
       x2="0"
       gradientUnits="userSpaceOnUse"
       gradientTransform="matrix(1.15625,0,0,1,-63.34,0)"><stop
         stop-color="#bd8d48"
         id="stop15770" /><stop
         offset="1"
         stop-color="#e8b971"
         id="stop15772" /></linearGradient><linearGradient
       id="c"
       y1="17.14"
       y2="33.14"
       x1="37.581"
       gradientUnits="userSpaceOnUse"
       x2="53.58"
       gradientTransform="translate(362.99,498.66)"><stop
         stop-color="#383e51"
         id="stop15775" /><stop
         offset="1"
         stop-color="#655c6f"
         stop-opacity="0"
         id="stop15777" /></linearGradient></defs><sodipodi:namedview
     id="namedview18"
     pagecolor="#ffffff"
     bordercolor="#666666"
     borderopacity="1.0"
     inkscape:pageshadow="2"
     inkscape:pageopacity="0.0"
     inkscape:pagecheckerboard="0"
     showgrid="false"
     inkscape:zoom="0.7181648"
     inkscape:cx="234.62581"
     inkscape:cy="203.29596"
     inkscape:window-width="1861"
     inkscape:window-height="1047"
     inkscape:window-x="59"
     inkscape:window-y="33"
     inkscape:window-maximized="1"
     inkscape:current-layer="g15798" /><rect
     style="fill:#686d70;fill-opacity:1;fill-rule:evenodd;stroke:#e7b870;stroke-width:14;stroke-linecap:square;stroke-miterlimit:1.5;stroke-dasharray:none;stroke-opacity:1;paint-order:stroke markers fill"
     id="rect3141"
     width="233.29288"
     height="231.57771"
     x="20.030388"
     y="19.023914"
     ry="15.527224" /><clipPath
     id="_clip1"><path
       d="M250.44,54.927c0,-21.142 -17.139,-38.281 -38.281,-38.281l-156.812,-0c-21.142,-0 -38.282,17.139 -38.282,38.281l0,156.813c0,21.142 17.14,38.281 38.282,38.281l156.812,-0c21.142,-0 38.281,-17.139 38.281,-38.281l0,-156.813Z"
       id="path5" /></clipPath><g
     transform="matrix(7.2250159,0,0,7.2250159,-2311.2481,-3661.3554)"
     id="g15798"><path
       fill="#d6d6d6"
       d="m 346.77658,518.33374 -8,0.004 -4.441,7.691 -1.555,-2.695 h -2 v 1 h 1.428 l 2.133,3.693 5.02,-8.693 h 6.42 v 1 h 1 z m -5,3 c -1.662,0 -3,1.338 -3,3 0,1.662 1.338,3 3,3 0.773,0 1.469,-0.298 2,-0.775 v 0.775 h 1 v -6 h -1 v 0.775 c -0.531,-0.477 -1.227,-0.775 -2,-0.775 m 0,1 c 1.108,0 2,0.892 2,2 0,1.108 -0.892,2 -2,2 -1.108,0 -2,-0.892 -2,-2 0,-1.108 0.892,-2 2,-2 m -10.99,5.99 c -0.006,0 -0.01,0.223 -0.01,0.5 0,0.277 0.004,0.5 0.01,0.5 h 15.98 c 0.006,0 0.01,-0.223 0.01,-0.5 0,-0.277 -0.004,-0.5 -0.01,-0.5 z m 7,2 c -0.006,0 -0.01,0.223 -0.01,0.5 0,0.277 0.004,0.5 0.01,0.5 h 1.98 c 0.006,0 0.01,-0.223 0.01,-0.5 0,-0.277 -0.004,-0.5 -0.01,-0.5 z"
       id="path15796" /></g></svg>
