<svg height="48" width="48" xmlns="http://www.w3.org/2000/svg"><path d="m44.322082 27.405077a19.729762 19.729765 0 0 1 -19.729762 19.729765 19.729762 19.729765 0 0 1 -19.7297621-19.729765 19.729762 19.729765 0 0 1 19.7297621-19.7297632 19.729762 19.729765 0 0 1 19.729762 19.7297632z" fill="#bf755f" opacity=".99" transform="matrix(1.1503549 0 0 1.1503549 -4.486125 -7.525565)"/><path d="m12.572266 9.082812c-1.424824 3.621089-4.8896642 7.906831-1.652344 12.953125a13.5 13.5 0 0 0 -.857422 4.712891 13.5 13.5 0 0 0 13.5 13.5 13.5 13.5 0 0 0 13.5-13.5 13.5 13.5 0 0 0 -.6875-4.220704c3.798661-5.26012.168086-9.707329-1.302734-13.445312-.371579 2.598859-1.297753 5.471962-2.773438 7.394531a13.5 13.5 0 0 0 -8.736328-3.228515 13.5 13.5 0 0 0 -8.404296 2.951172c-1.361863-1.915715-2.231062-4.635152-2.585938-7.117188zm2.427734 12.537109 6.363282 5.455079a4.5 4.5 0 0 1 -4.240235 3.007812 4.5 4.5 0 0 1 -4.5-4.5 4.5 4.5 0 0 1 2.376953-3.962891zm17.123047 0a4.5 4.5 0 0 1 2.376953 3.962891 4.5 4.5 0 0 1 -4.5 4.5 4.5 4.5 0 0 1 -4.240234-3.007812z" fill="#fff"/></svg>