<svg height="48" width="48" xmlns="http://www.w3.org/2000/svg"><path d="m44.322082 27.405077a19.729762 19.729765 0 0 1 -19.729762 19.729765 19.729762 19.729765 0 0 1 -19.7297621-19.729765 19.729762 19.729765 0 0 1 19.7297621-19.7297632 19.729762 19.729765 0 0 1 19.729762 19.7297632z" fill="#b68859" opacity=".99" transform="matrix(1.1503549 0 0 1.1503549 -4.486125 -7.525565)"/><g fill="#fff"><path d="m13.5 12v27h21v-27zm3 3.849609h7.5a.650391.650391 0 1 1 0 1.300782h-7.5a.650391.650391 0 1 1 0-1.300782zm10.5 0h3a.650391.650391 0 1 1 0 1.300782h-3a.650391.650391 0 1 1 0-1.300782zm-10.5 3h9a.650391.650391 0 1 1 0 1.300782h-9a.650391.650391 0 0 1 0-1.300782zm0 3h4.5a.650391.650391 0 1 1 0 1.300782h-4.5a.650391.650391 0 0 1 0-1.300782zm7.5 0h7.5a.650391.650391 0 1 1 0 1.300782h-7.5a.650391.650391 0 0 1 0-1.300782zm-7.5 3h6a.650391.650391 0 1 1 0 1.300782h-6a.650391.650391 0 0 1 0-1.300782zm9 0h3a.650391.650391 0 1 1 0 1.300782h-3a.650391.650391 0 0 1 0-1.300782zm-9 3h10.5a.650391.650391 0 1 1 0 1.300782h-10.5a.650391.650391 0 0 1 0-1.300782zm0 3h4.5a.650391.650391 0 0 1 0 1.300782h-4.5a.650391.650391 0 1 1 0-1.300782z" fill-opacity=".623529"/><path d="m18 10.5h12v3h-12z"/><path d="m21 9h6v1.5h-6z"/></g></svg>