<svg height="48" width="48" xmlns="http://www.w3.org/2000/svg"><g transform="matrix(1.1503549 0 0 1.1503549 -4.486125 -7.525565)"><path d="m44.322082 27.405077a19.729762 19.729765 0 0 1 -19.729762 19.729765 19.729762 19.729765 0 0 1 -19.7297621-19.729765 19.729762 19.729765 0 0 1 19.7297621-19.7297632 19.729762 19.729765 0 0 1 19.729762 19.7297632z" fill="#52bc86" opacity=".99"/><path d="m44.322082 27.405077c0 10.896448-8.833315 19.729765-19.729762 19.729765s-19.7297621-8.833317-19.7297621-19.729765z" fill="#5580bd" opacity=".99"/><path d="m44.322082 27.405077c0 2.724112-.552082 5.319278-1.550462 7.679715-.49919 1.180218-1.109955 2.301754-1.819071 3.351384h-32.720458c-.7091162-1.04963-1.3198809-2.171166-1.819071-3.351384-.9983803-2.360437-1.5504623-4.955603-1.5504621-7.679715s.5520826-5.319278 1.550463-7.679714c.4991902-1.180219 1.1099549-2.301754 1.8190711-3.351384h32.720456c.709116 1.04963 1.319881 2.171166 1.819071 3.351384.99838 2.360436 1.550463 4.955602 1.550463 7.679714z" fill="#b96697" opacity=".99"/></g><path d="m30.226173 19.323992-5.048421-8.744844c-.294357-.509619-.820976-.7958193-1.358697-.7958193h-.0046-.01066l.0039.025204c-.04116-.0005086-.082.00328-.122961.0061l2.246927 12.8690493.153422.876775 1.551157 8.885373 11.926592 5.08041c.0151-.02233.03191-.04332.04583-.06645.0054-.0073.01-.01483.01529-.02215.000782-.0011.0015-.0027.0024-.0039.0015-.0031.0035-.006.0054-.0091.339432-.479031.388593-1.13688.06873-1.690925l-9.079502-15.726964zm-17.284331 7.713792-5.0353496 8.721168c-.2751459.476361-.2760388 1.029559-.055753 1.480131 1.8168695-1.475672 5.4239766-4.403008 10.0172386-8.103301l.688891-.556767c.108208-.08709.18805-.152692.296332-.239815 2.241481-1.803492 4.39203-3.522069 6.381827-5.103323l-2.298861-13.166145c-.200657.132413-.376838.310348-.50636.534619l-9.093874 15.750647zm15.70177 11.178889h9.612454c.224684 0 .436841-.04656.629321-.129072l-11.088767-4.722979-.85692-.365069-8.25681-3.517032c-4.799076 3.864547-8.624638 6.970311-10.4159113 8.4256.2622136.192609.5872852.308552.942457.308552h18.6414093z" fill="#fff"/></svg>