<?xml version="1.0" encoding="UTF-8" standalone="no"?>
<!-- Created with Inkscape (http://www.inkscape.org/) -->

<svg
   xmlns:dc="http://purl.org/dc/elements/1.1/"
   xmlns:cc="http://creativecommons.org/ns#"
   xmlns:rdf="http://www.w3.org/1999/02/22-rdf-syntax-ns#"
   xmlns:svg="http://www.w3.org/2000/svg"
   xmlns="http://www.w3.org/2000/svg"
   xmlns:sodipodi="http://sodipodi.sourceforge.net/DTD/sodipodi-0.dtd"
   xmlns:inkscape="http://www.inkscape.org/namespaces/inkscape"
   width="48"
   height="48"
   viewBox="0 0 12.7 12.7"
   version="1.1"
   id="svg5184"
   inkscape:version="0.92.3 (2405546, 2018-03-11)"
   sodipodi:docname="com.github.alcadica.develop.svg">
  <defs
     id="defs5178" />
  <sodipodi:namedview
     id="base"
     pagecolor="#ffffff"
     bordercolor="#666666"
     borderopacity="1.0"
     inkscape:pageopacity="0.0"
     inkscape:pageshadow="2"
     inkscape:zoom="11.2"
     inkscape:cx="2.0708166"
     inkscape:cy="26.328299"
     inkscape:document-units="mm"
     inkscape:current-layer="layer1"
     showgrid="true"
     units="px"
     inkscape:measure-start="45,1"
     inkscape:measure-end="30,1"
     inkscape:window-width="1920"
     inkscape:window-height="1017"
     inkscape:window-x="0"
     inkscape:window-y="30"
     inkscape:window-maximized="1"
     showguides="false">
    <inkscape:grid
       type="xygrid"
       id="grid5729" />
  </sodipodi:namedview>
  <metadata
     id="metadata5181">
    <rdf:RDF>
      <cc:Work
         rdf:about="">
        <dc:format>image/svg+xml</dc:format>
        <dc:type
           rdf:resource="http://purl.org/dc/dcmitype/StillImage" />
        <dc:title></dc:title>
      </cc:Work>
    </rdf:RDF>
  </metadata>
  <g
     inkscape:label="Capa 1"
     inkscape:groupmode="layer"
     id="layer1"
     transform="translate(0,-284.29998)">
    <rect
       style="opacity:1;fill:#4e80b9;fill-opacity:1;stroke:none;stroke-width:1;stroke-miterlimit:4;stroke-dasharray:none;stroke-opacity:1"
       id="rect5731"
       width="11.377084"
       height="11.641677"
       x="0.52916664"
       y="285.09372"
       rx="0.52916902"
       ry="0.52916902" />
    <path
       style="opacity:1;fill:#80a4cd;fill-opacity:1;stroke:none;stroke-width:3.77952766;stroke-miterlimit:4;stroke-dasharray:none;stroke-opacity:1"
       d="M 4 3 C 2.8919949 3 2 3.8919937 2 5 L 2 45 C 2 46.108006 2.8919949 47 4 47 L 30 47 L 45 32 L 45 5 C 45 3.8919937 44.108006 3 43 3 L 4 3 z "
       transform="matrix(0.26458333,0,0,0.26458333,0,284.29998)"
       id="rect5739" />
    <path
       id="path826-3"
       d="m 10.212812,291.0458 a 3.9994667,3.9994667 0 0 0 -0.05596,-0.81739 l -0.625018,-0.0515 a 3.399547,3.399547 0 0 0 -0.248023,-0.72183 l 0.4596727,-0.42432 a 3.9994667,3.9994667 0 0 0 -0.4592196,-0.67931 l -0.5647737,0.267 a 3.399547,3.399547 0 0 0 -0.5754548,-0.50296 l 0.1844599,-0.5928 a 3.9994667,3.9994667 0 0 0 -0.7374448,-0.35938 l -0.3534246,0.51022 a 3.399547,3.399547 0 0 0 -0.3712514,-0.096 3.399547,3.399547 0 0 0 -0.3794972,-0.0475 l -0.1379629,-0.61052 a 3.9994667,3.9994667 0 0 0 -0.8173966,0.0559 l -0.051464,0.62501 a 3.399547,3.399547 0 0 0 -0.7218274,0.24804 l -0.4243158,-0.45968 a 3.9994667,3.9994667 0 0 0 -0.6793223,0.45921 l 0.2670144,0.56478 a 3.399547,3.399547 0 0 0 -0.5029725,0.57546 L 2.8258298,288.80375 A 3.9994667,3.9994667 0 0 0 2.466435,289.5412 l 0.5102206,0.35342 a 3.399547,3.399547 0 0 0 -0.096038,0.37126 3.399547,3.399547 0 0 0 -0.047506,0.3795 l -0.6105111,0.13796 a 3.9994667,3.9994667 0 0 0 0.05598,0.81739 l 0.6250197,0.0515 a 3.399547,3.399547 0 0 0 0.2480187,0.72183 l -0.4596724,0.42431 a 3.9994667,3.9994667 0 0 0 0.4592068,0.67933 l 0.564774,-0.26702 a 3.399547,3.399547 0 0 0 0.5754496,0.50298 l -0.1844599,0.5928 a 3.9994667,3.9994667 0 0 0 0.7374449,0.35939 l 0.3534239,-0.51022 a 3.399547,3.399547 0 0 0 0.3712574,0.096 3.399547,3.399547 0 0 0 0.3794965,0.0475 l 0.1379653,0.61051 a 3.9994667,3.9994667 0 0 0 0.8173887,-0.056 l 0.051463,-0.62502 a 3.399547,3.399547 0 0 0 0.7218274,-0.24802 l 0.4243154,0.45967 a 3.9994667,3.9994667 0 0 0 0.6793158,-0.45922 l -0.2670145,-0.5647 a 3.399547,3.399547 0 0 0 0.5029689,-0.57546 l 0.5928003,0.18446 a 3.9994667,3.9994667 0 0 0 0.3593948,-0.73744 l -0.5102205,-0.35342 a 3.399547,3.399547 0 0 0 0.096039,-0.37126 3.399547,3.399547 0 0 0 0.047507,-0.37949 l 0.6105127,-0.13797 z m -1.2469185,0.40299 a 2.799627,2.799627 0 0 1 -3.2823842,2.21399 2.799627,2.799627 0 0 1 -2.213996,-3.28239 2.799627,2.799627 0 0 1 3.2823833,-2.21399 2.799627,2.799627 0 0 1 2.2139969,3.28239 z"
       inkscape:connector-curvature="0"
       style="fill:#ffffff;stroke-width:0.59991997;stroke-linecap:round;stroke-linejoin:round" />
  </g>
</svg>
