<?xml version="1.0" encoding="UTF-8" standalone="no"?>
<svg
   xmlns:dc="http://purl.org/dc/elements/1.1/"
   xmlns:cc="http://creativecommons.org/ns#"
   xmlns:rdf="http://www.w3.org/1999/02/22-rdf-syntax-ns#"
   xmlns:svg="http://www.w3.org/2000/svg"
   xmlns="http://www.w3.org/2000/svg"
   xmlns:sodipodi="http://sodipodi.sourceforge.net/DTD/sodipodi-0.dtd"
   xmlns:inkscape="http://www.inkscape.org/namespaces/inkscape"
   height="48"
   width="48"
   version="1.1"
   id="svg14"
   sodipodi:docname="com.github.aggalex.contacts.svg"
   inkscape:version="0.92.3 (2405546, 2018-03-11)">
  <metadata
     id="metadata20">
    <rdf:RDF>
      <cc:Work
         rdf:about="">
        <dc:format>image/svg+xml</dc:format>
        <dc:type
           rdf:resource="http://purl.org/dc/dcmitype/StillImage" />
        <dc:title />
      </cc:Work>
    </rdf:RDF>
  </metadata>
  <defs
     id="defs18" />
  <sodipodi:namedview
     pagecolor="#ffffff"
     bordercolor="#666666"
     borderopacity="1"
     objecttolerance="10"
     gridtolerance="10"
     guidetolerance="10"
     inkscape:pageopacity="0"
     inkscape:pageshadow="2"
     inkscape:window-width="1920"
     inkscape:window-height="1017"
     id="namedview16"
     showgrid="false"
     inkscape:zoom="4.9166667"
     inkscape:cx="-6.610169"
     inkscape:cy="24"
     inkscape:window-x="0"
     inkscape:window-y="30"
     inkscape:window-maximized="1"
     inkscape:current-layer="svg14" />
  <rect
     fill="#78636c"
     height="43"
     ry="1.452703"
     width="43"
     x="2"
     y="3"
     id="rect2"
     style="fill:#78909f;fill-opacity:1" />
  <rect
     fill="#ff6458"
     height="28"
     ry="1.4527"
     width="34"
     x="6"
     y="8"
     id="rect4"
     style="fill:#e176b2;fill-opacity:1" />
  <rect
     fill="#85d76b"
     height="28"
     ry="1.4527"
     width="34"
     x="6"
     y="12"
     id="rect6"
     style="fill:#6b8cd7;fill-opacity:1" />
  <rect
     fill="#61a0ff"
     height="28"
     ry="1.4527"
     width="34"
     x="6"
     y="16"
     id="rect8"
     style="fill:#93cdaf;fill-opacity:1" />
  <path
     d="m45 34v10.547297c0 .804798-.647905 1.452703-1.452703 1.452703h-40.0945941c-.8047974 0-1.4527029-.647905-1.4527029-1.452703v-10.547297z"
     fill="#a0838e"
     id="path10"
     style="fill:#8ab2cb;fill-opacity:1" />
  <path
     d="m22.943672 18.344295c-2.385669.06339-4.316293 1.960535-4.421387 4.344731-.08036 1.829787.945065 3.529127 2.601354 4.310974h3.876361c1.521997-.715778 2.524506-2.213319 2.606276-3.89324l.0014-.03306c.10157-2.505669-1.844863-4.620439-4.350347-4.726596-.104487-.0046-.2091-.0055-.313653-.0028zm2.056328 8.655705 1.87137 2.000771-2.109072.566123 1.183584 1.285556-1.670942 3.203343h6.573357v-4.655572c0-1.32992-1.0703-2.400221-2.400222-2.400221zm-3.876361 0h-3.441748c-1.32992 0-2.400924 1.070301-2.400924 2.400221v4.655572h6.567731l-1.670942-3.203343 1.183584-1.285556-2.109073-.566123zm1.986705.22012-1.035196 1.035197.517598.517599.146981.146981-.478216 3.341181.845316 1.369244.800309-1.369244-.420549-3.346808.141356-.141354.517597-.517599z"
     fill="#fff"
     id="path12" />
</svg>
