<?xml version="1.0" encoding="UTF-8" standalone="no"?>
<!-- Created with Inkscape (http://www.inkscape.org/) -->

<svg
   xmlns:dc="http://purl.org/dc/elements/1.1/"
   xmlns:cc="http://creativecommons.org/ns#"
   xmlns:rdf="http://www.w3.org/1999/02/22-rdf-syntax-ns#"
   xmlns:svg="http://www.w3.org/2000/svg"
   xmlns="http://www.w3.org/2000/svg"
   xmlns:sodipodi="http://sodipodi.sourceforge.net/DTD/sodipodi-0.dtd"
   xmlns:inkscape="http://www.inkscape.org/namespaces/inkscape"
   width="48"
   height="48"
   viewBox="0 0 12.7 12.7"
   version="1.1"
   id="svg5184"
   inkscape:version="0.92.3 (2405546, 2018-03-11)"
   sodipodi:docname="com.github.calo001.luna.svg">
  <defs
     id="defs5178" />
  <sodipodi:namedview
     id="base"
     pagecolor="#ffffff"
     bordercolor="#666666"
     borderopacity="1.0"
     inkscape:pageopacity="0.0"
     inkscape:pageshadow="2"
     inkscape:zoom="11.313708"
     inkscape:cx="17.070791"
     inkscape:cy="21.636246"
     inkscape:document-units="mm"
     inkscape:current-layer="layer1"
     showgrid="true"
     units="px"
     inkscape:measure-start="45,1"
     inkscape:measure-end="30,1"
     inkscape:window-width="1920"
     inkscape:window-height="1017"
     inkscape:window-x="0"
     inkscape:window-y="30"
     inkscape:window-maximized="1">
    <inkscape:grid
       type="xygrid"
       id="grid5729" />
  </sodipodi:namedview>
  <metadata
     id="metadata5181">
    <rdf:RDF>
      <cc:Work
         rdf:about="">
        <dc:format>image/svg+xml</dc:format>
        <dc:type
           rdf:resource="http://purl.org/dc/dcmitype/StillImage" />
        <dc:title></dc:title>
      </cc:Work>
    </rdf:RDF>
  </metadata>
  <g
     inkscape:label="Capa 1"
     inkscape:groupmode="layer"
     id="layer1"
     transform="translate(0,-284.29998)">
    <rect
       style="opacity:1;fill:#a2775d;fill-opacity:1;stroke:none;stroke-width:1;stroke-miterlimit:4;stroke-dasharray:none;stroke-opacity:1"
       id="rect5731"
       width="11.377084"
       height="11.641677"
       x="0.52916664"
       y="285.09372"
       rx="0.52916902"
       ry="0.52916902" />
    <path
       style="opacity:1;fill:#cf9c7e;fill-opacity:1;stroke:none;stroke-width:3.77952766;stroke-miterlimit:4;stroke-dasharray:none;stroke-opacity:1"
       d="M 4 3 C 2.8919949 3 2 3.8919937 2 5 L 2 45 C 2 46.108006 2.8919949 47 4 47 L 30 47 L 45 32 L 45 5 C 45 3.8919937 44.108006 3 43 3 L 4 3 z "
       transform="matrix(0.26458333,0,0,0.26458333,0,284.29998)"
       id="rect5739" />
    <rect
       style="opacity:1;fill:#ffffff;fill-opacity:0.42222223;stroke:none;stroke-width:0.52916664;stroke-linecap:butt;stroke-linejoin:round;stroke-miterlimit:4;stroke-dasharray:none;stroke-opacity:1"
       id="rect824"
       width="6.0854168"
       height="8.2020922"
       x="3.175"
       y="286.81351" />
    <rect
       y="289.06247"
       x="3.175"
       height="5.9531145"
       width="6.0854168"
       id="rect826"
       style="opacity:1;fill:#ffffff;fill-opacity:1;stroke:none;stroke-width:0.52916664;stroke-linecap:butt;stroke-linejoin:round;stroke-miterlimit:4;stroke-dasharray:none;stroke-opacity:1" />
    <rect
       style="opacity:1;fill:#ffffff;fill-opacity:1;stroke:none;stroke-width:0.43205762;stroke-linecap:butt;stroke-linejoin:round;stroke-miterlimit:4;stroke-dasharray:none;stroke-opacity:1"
       id="rect828"
       width="2.9104166"
       height="0.52915412"
       x="4.7625003"
       y="287.21042" />
    <rect
       y="288.00415"
       x="4.2333331"
       height="0.52916294"
       width="3.9687502"
       id="rect836"
       style="opacity:1;fill:#ffffff;fill-opacity:1;stroke:none;stroke-width:0.43205762;stroke-linecap:butt;stroke-linejoin:round;stroke-miterlimit:4;stroke-dasharray:none;stroke-opacity:1" />
    <g
       aria-label="12"
       style="font-style:normal;font-variant:normal;font-weight:bold;font-stretch:normal;font-size:4.32067966px;line-height:1.25;font-family:'Roboto Condensed';-inkscape-font-specification:'Roboto Condensed, Bold';letter-spacing:0px;word-spacing:0px;fill:#cf9c7e;fill-opacity:1;stroke:none;stroke-width:0.10801698"
       id="text840">
      <path
         style="font-style:normal;font-variant:normal;font-weight:bold;font-stretch:normal;font-family:'Roboto Condensed';-inkscape-font-specification:'Roboto Condensed, Bold';fill:#cf9c7e;fill-opacity:1;stroke-width:0.40825316"
         d="M 27.271484 23.365234 C 26.596378 23.365234 25.99002 23.5298 25.453125 23.859375 C 24.921545 24.183633 24.506669 24.640409 24.208984 25.230469 C 23.916615 25.820529 23.771484 26.473232 23.771484 27.185547 L 26.035156 27.185547 C 26.035156 26.568904 26.142838 26.090208 26.355469 25.75 C 26.573416 25.409792 26.865632 25.238281 27.232422 25.238281 C 27.567318 25.238281 27.822626 25.38535 27.998047 25.677734 C 28.178784 25.970093 28.267578 26.374997 28.267578 26.890625 C 28.267578 27.273365 28.171836 27.673794 27.980469 28.09375 C 27.794416 28.508364 27.5022 28.992078 27.103516 29.544922 L 23.962891 33.539062 L 23.962891 35.134766 L 30.804688 35.134766 L 30.804688 33.259766 L 26.857422 33.259766 L 28.347656 31.130859 C 29.176921 30.147452 29.748868 29.322126 30.0625 28.652344 C 30.381448 27.977219 30.541016 27.312036 30.541016 26.658203 C 30.541016 25.60568 30.253794 24.795356 29.679688 24.226562 C 29.110897 23.652452 28.308065 23.365234 27.271484 23.365234 z M 20.429688 23.509766 L 16.195312 25.238281 L 16.195312 27.121094 L 18.404297 26.267578 L 18.404297 35.134766 L 20.669922 35.134766 L 20.669922 23.509766 L 20.429688 23.509766 z "
         transform="matrix(0.26458333,0,0,0.26458333,0,284.29998)"
         id="path842" />
    </g>
  </g>
</svg>
