<?xml version="1.0" encoding="UTF-8" standalone="no"?>
<svg
   xmlns:dc="http://purl.org/dc/elements/1.1/"
   xmlns:cc="http://creativecommons.org/ns#"
   xmlns:rdf="http://www.w3.org/1999/02/22-rdf-syntax-ns#"
   xmlns:svg="http://www.w3.org/2000/svg"
   xmlns="http://www.w3.org/2000/svg"
   xmlns:sodipodi="http://sodipodi.sourceforge.net/DTD/sodipodi-0.dtd"
   xmlns:inkscape="http://www.inkscape.org/namespaces/inkscape"
   height="48"
   width="48"
   version="1.1"
   id="svg12"
   sodipodi:docname="com.github.cassidyjames.ideogram.svg"
   inkscape:version="0.92.4 5da689c313, 2019-01-14">
  <metadata
     id="metadata18">
    <rdf:RDF>
      <cc:Work
         rdf:about="">
        <dc:format>image/svg+xml</dc:format>
        <dc:type
           rdf:resource="http://purl.org/dc/dcmitype/StillImage" />
        <dc:title></dc:title>
      </cc:Work>
    </rdf:RDF>
  </metadata>
  <defs
     id="defs16" />
  <sodipodi:namedview
     pagecolor="#ffffff"
     bordercolor="#666666"
     borderopacity="1"
     objecttolerance="10"
     gridtolerance="10"
     guidetolerance="10"
     inkscape:pageopacity="0"
     inkscape:pageshadow="2"
     inkscape:window-width="1920"
     inkscape:window-height="1027"
     id="namedview14"
     showgrid="true"
     inkscape:zoom="8"
     inkscape:cx="22.865208"
     inkscape:cy="27.623862"
     inkscape:window-x="0"
     inkscape:window-y="30"
     inkscape:window-maximized="1"
     inkscape:current-layer="svg12">
    <inkscape:grid
       type="xygrid"
       id="grid828" />
  </sodipodi:namedview>
  <path
     inkscape:connector-curvature="0"
     style="fill:#a65c5c;fill-opacity:1"
     d="M 3.452703,46 H 43.5473 C 44.35209,46 45,45.352094 45,44.547297 V 4.452703 C 45,3.647906 44.35209,3 43.5473,3 H 3.452703 C 2.647906,3 2,3.647906 2,4.452703 V 44.547297 C 2,45.352094 2.647906,46 3.452703,46 Z"
     id="rect2-2" />
  <path
     style="opacity:1;fill:#f9f9f9;fill-opacity:1;stroke:none;stroke-width:4;stroke-linecap:round;stroke-linejoin:round;stroke-miterlimit:4;stroke-dasharray:none;stroke-dashoffset:0;stroke-opacity:1;paint-order:fill markers stroke"
     d="M 7 6 C 5.892 6 5 6.892 5 8 L 5 32 C 5 33.108 5.892 34 7 34 L 21 34 L 23.5 39 L 26 34 L 40 34 C 41.108 34 42 33.108 42 32 L 42 8 C 42 6.892 41.108 6 40 6 L 7 6 z "
     id="rect819" />
  <circle
     style="opacity:1;fill:#a65c5c;fill-opacity:1;stroke:none;stroke-width:4;stroke-linecap:round;stroke-linejoin:round;stroke-miterlimit:4;stroke-dasharray:none;stroke-dashoffset:0;stroke-opacity:1;paint-order:fill markers stroke"
     id="path824"
     cx="23.3125"
     cy="18.125"
     r="7.5" />
  <path
     style="fill:none;stroke:#e0e0e0;stroke-width:1px;stroke-linecap:round;stroke-linejoin:miter;stroke-opacity:1"
     d="m 25.375,16 c 0,-1 3,-1 3,0"
     id="path832"
     inkscape:connector-curvature="0"
     sodipodi:nodetypes="cc" />
  <path
     sodipodi:nodetypes="cc"
     inkscape:connector-curvature="0"
     id="path834"
     d="m 18.59375,16 c 0,-1 3,-1 3,0"
     style="fill:none;stroke:#e0e0e0;stroke-width:1px;stroke-linecap:round;stroke-linejoin:miter;stroke-opacity:1" />
  <path
     style="fill:#ffffff;stroke:none;stroke-width:1px;stroke-linecap:butt;stroke-linejoin:miter;stroke-opacity:1;fill-opacity:1"
     d="m 19,19 c 3.356351,5.701614 6.309632,4.954112 9,0 -3,0.890877 -6,0.77408 -9,0 z"
     id="path836"
     inkscape:connector-curvature="0"
     sodipodi:nodetypes="ccc" />
</svg>
