<?xml version="1.0" encoding="UTF-8" standalone="no"?><!DOCTYPE svg PUBLIC "-//W3C//DTD SVG 1.1//EN" "http://www.w3.org/Graphics/SVG/1.1/DTD/svg11.dtd"><svg width="100%" height="100%" viewBox="0 0 538 534" version="1.1" xmlns="http://www.w3.org/2000/svg" xmlns:xlink="http://www.w3.org/1999/xlink" xml:space="preserve" xmlns:serif="http://www.serif.com/" style="fill-rule:evenodd;clip-rule:evenodd;stroke-linejoin:round;stroke-miterlimit:2;"><rect id="com.github.naxuroqa.venom-symbolic" x="1.975" y="0" width="533.333" height="533.333" style="fill:none;"/><circle cx="268.642" cy="266.667" r="246.496" style="fill:#ccd9db;"/><path d="M268.642,20.171c136.044,0 246.495,110.451 246.495,246.496c0,136.044 -110.451,246.495 -246.495,246.495c-136.045,0 -246.496,-110.451 -246.496,-246.495c0,-136.045 110.451,-246.496 246.496,-246.496Zm-0,22.083c123.856,0 224.412,100.556 224.412,224.413c0,123.856 -100.556,224.412 -224.412,224.412c-123.857,-0 -224.412,-100.556 -224.412,-224.412c-0,-123.857 100.555,-224.413 224.412,-224.413Z" style="fill:#60786e;fill-opacity:0.1;"/><path d="M268.647,71.269c-49.472,-0 -90.187,35.15 -90.187,84.623l0,52.605l-0.002,0c-15.945,0 -31.236,6.334 -42.51,17.609c-11.275,11.274 -17.609,26.565 -17.609,42.51c0,27.786 0,61.069 0,90.467c0,19.856 7.888,38.899 21.929,52.94c14.04,14.04 33.083,21.928 52.94,21.928c46.04,0 104.828,0 150.868,0c19.856,0 38.899,-7.888 52.94,-21.928c14.04,-14.041 21.928,-33.084 21.928,-52.94c0,-29.398 0,-62.681 0,-90.467c0,-15.945 -6.334,-31.236 -17.608,-42.51c-11.274,-11.275 -26.566,-17.609 -42.51,-17.609c-0.002,0 -0.003,0 -0.003,0l0,-52.605c0,-49.473 -40.704,-84.623 -90.176,-84.623Zm-0,183.739l0.006,-0l-0.013,-0l0.007,0c-20.634,0.003 -37.406,17.18 -37.406,38.374c-0.073,14.861 8.475,28.488 21.886,34.89c-20.079,5.826 -34.669,22.419 -34.669,42.185l-0,18.011c-0,9.544 10.065,17.23 22.549,17.23l55.293,-0c12.484,-0 22.536,-7.686 22.536,-17.23l-0,-18.011c-0,-19.792 -14.604,-36.385 -34.682,-42.211c13.329,-6.229 21.912,-19.857 21.912,-34.877c0.026,-21.194 -16.746,-38.358 -37.419,-38.361Zm-1.404,-150.915c-31.757,0.934 -56.876,25.959 -56.082,55.868c0.794,29.909 27.164,53.393 58.902,52.422c3.904,-0.121 7.769,-0.644 11.561,-1.522c0.242,5.509 -8.89,24.325 -10.757,28.34c-1.84,3.922 42.654,-31.674 52.216,-64.057c1.812,-6.116 3.212,-12.298 3.044,-18.61c-0.765,-29.899 -27.145,-53.374 -58.884,-52.441Z" style="fill:#899d95;"/></svg>