<?xml version="1.0" encoding="UTF-8" standalone="no"?>
<svg
   xmlns:dc="http://purl.org/dc/elements/1.1/"
   xmlns:cc="http://creativecommons.org/ns#"
   xmlns:rdf="http://www.w3.org/1999/02/22-rdf-syntax-ns#"
   xmlns:svg="http://www.w3.org/2000/svg"
   xmlns="http://www.w3.org/2000/svg"
   xmlns:xlink="http://www.w3.org/1999/xlink"
   xmlns:sodipodi="http://sodipodi.sourceforge.net/DTD/sodipodi-0.dtd"
   xmlns:inkscape="http://www.inkscape.org/namespaces/inkscape"
   version="1.1"
   preserveAspectRatio="xMidYMid meet"
   viewBox="0 0 640 640"
   width="640"
   height="640"
   id="svg84"
   sodipodi:docname="com.github.maoschanz.drawing.svg"
   inkscape:version="0.92.4 5da689c313, 2019-01-14">
  <metadata
     id="metadata88">
    <rdf:RDF>
      <cc:Work
         rdf:about="">
        <dc:format>image/svg+xml</dc:format>
        <dc:type
           rdf:resource="http://purl.org/dc/dcmitype/StillImage" />
      </cc:Work>
    </rdf:RDF>
  </metadata>
  <sodipodi:namedview
     pagecolor="#ffffff"
     bordercolor="#666666"
     borderopacity="1"
     objecttolerance="10"
     gridtolerance="10"
     guidetolerance="10"
     inkscape:pageopacity="0"
     inkscape:pageshadow="2"
     inkscape:window-width="1851"
     inkscape:window-height="1048"
     id="namedview86"
     showgrid="false"
     inkscape:zoom="0.7375"
     inkscape:cx="309.39771"
     inkscape:cy="274.01404"
     inkscape:window-x="69"
     inkscape:window-y="32"
     inkscape:window-maximized="1"
     inkscape:current-layer="svg84" />
  <defs
     id="defs16">
    <path
       d="M94.29 190.74L543.88 190.74C543.88 374.27 543.88 488.98 543.88 534.86C543.88 544.07 536.41 551.54 527.2 551.54C440.62 551.54 197.55 551.54 110.97 551.54C101.76 551.54 94.29 544.07 94.29 534.86C94.29 488.98 94.29 374.27 94.29 190.74Z"
       id="b4xpgfS7R5" />
    <path
       d="M94.29 208.05L226.36 208.05L543.88 208.05C543.88 364.43 543.88 462.16 543.88 501.26C543.88 521.83 527.21 538.5 506.64 538.5C424.17 538.5 212.19 538.5 129.27 538.5C109.95 538.5 94.29 522.84 94.29 503.52C94.29 464.12 94.29 365.64 94.29 208.05Z"
       id="bIxADI5b9" />
    <path
       d="M310.58 406.18C308.29 401.71 305.57 397.82 302.41 394.53C291.55 383.18 275.6 378.82 254.55 381.43C213.81 386.49 213.94 371.79 206.08 341C198.22 310.2 158.35 335.37 157.94 299.4C157.66 275.42 147.3 261.93 126.86 258.94"
       id="a5Dbr4HLBb" />
    <path
       d="M338.95 398.89L381.33 376.06L352.36 352.66L323.4 329.26L309.98 375.49C305.26 391.76 302.31 401.92 301.13 405.99C299.43 411.84 305.63 416.84 310.99 413.95C314.72 411.95 324.04 406.93 338.95 398.89Z"
       id="d6yHzJb5a" />
    <path
       d="M517.47 114.31C532.05 114.31 543.88 126.14 543.88 140.73C543.88 144.25 543.88 153.05 543.88 167.14L94.29 167.14C94.29 153.05 94.29 144.25 94.29 140.73C94.29 126.14 106.12 114.31 120.71 114.31C205.34 114.31 432.83 114.31 517.47 114.31Z"
       id="bN2GOKSlQ" />
    <path
       d="M94.29 173.88L543.88 173.88L543.88 190.74L94.29 190.74L94.29 173.88Z"
       id="cOfP1ccln" />
    <path
       d="M94.29 167.14L543.88 167.14L543.88 173.88L94.29 173.88L94.29 167.14Z"
       id="d1FSTeJb" />
    <path
       d="M526.91 42.77L598.64 95.93L383.81 385.79L312.08 332.63L526.91 42.77Z"
       id="b1PylxveWP" />
    <path
       d="M303.99 401.49L303.99 400.93L303.99 400.93L303.99 400.93L303.99 401.49L303.99 402.05L303.99 401.49Z"
       id="atY6Ufeqd" />
    <path
       d="M340.84 293.67L412.89 346.39L402.93 360L330.88 307.27L340.84 293.67Z"
       id="c1pusCOUM" />
    <path
       d="M513.73 60.58L585.52 113.66L574.03 129.2L502.24 76.12L513.73 60.58Z"
       id="iHUQu498k" />
    <path
       d=""
       id="h1mIjueuS1" />
    <path
       d=""
       id="b2GABYVcCP" />
    <path
       d="M400.95 213.04C405.22 218.91 407.58 224.32 408.01 229.29C408.8 238.31 404.81 246.72 400.88 251.9C396.98 257.04 390.34 262.49 381.8 263.85C376.99 264.61 371.18 263.74 364.38 261.23"
       id="aDfrylcDm" />
  </defs>
  <g
     id="g82"
     transform="translate(4.9828095,3.9055211)">
    <g
       id="g80">
      <g
         id="g20"
         style="fill:#996c6c;fill-opacity:1"
         transform="matrix(1.2111151,0,0,1.2176191,-67.363674,-103.75448)">
        <use
           xlink:href="#b4xpgfS7R5"
           id="use18"
           style="opacity:1;fill:#996c6c;fill-opacity:1"
           x="0"
           y="0"
           width="100%"
           height="100%" />
      </g>
      <g
         id="g24"
         transform="matrix(1.2111151,0,0,1.2176191,-67.363674,-103.75448)"
         style="fill:#e2e2e2;fill-opacity:1;stroke:#fffefe;stroke-opacity:1">
        <use
           xlink:href="#bIxADI5b9"
           id="use22"
           style="opacity:1;fill:#e2e2e2;fill-opacity:1;stroke:#fffefe;stroke-opacity:1"
           x="0"
           y="0"
           width="100%"
           height="100%" />
      </g>
      <g
         id="g30"
         style="opacity:0.43900003;stroke:#878787;stroke-opacity:1"
         transform="matrix(0.93776977,0,0,0.88328275,15.523588,96.435721)">
        <g
           id="g28"
           style="stroke:#878787;stroke-opacity:1">
          <use
             xlink:href="#a5Dbr4HLBb"
             id="use26"
             style="opacity:1;fill-opacity:0;stroke:#878787;stroke-width:20;stroke-opacity:1"
             x="0"
             y="0"
             width="100%"
             height="100%" />
        </g>
      </g>
      <g
         id="g34"
         transform="matrix(0.67300878,0,0,0.74376908,94.921492,156.17516)"
         style="fill:#625d5d;fill-opacity:1">
        <use
           xlink:href="#d6yHzJb5a"
           id="use32"
           style="opacity:1;fill:#625d5d;fill-opacity:1"
           x="0"
           y="0"
           width="100%"
           height="100%" />
      </g>
      <g
         id="g38"
         style="fill:#c3a1a1;fill-opacity:1"
         transform="matrix(1.2111151,0,0,1.2176191,-67.363674,-72.096384)">
        <use
           xlink:href="#bN2GOKSlQ"
           id="use36"
           style="opacity:1;fill:#c3a1a1;fill-opacity:1"
           x="0"
           y="0"
           width="100%"
           height="100%" />
      </g>
      <g
         id="g50"
         style="fill:#c4a0a0;fill-opacity:1"
         transform="matrix(0.67300878,0,0,0.74376908,94.921492,156.17516)">
        <use
           xlink:href="#b1PylxveWP"
           id="use48"
           style="opacity:1;fill:#c4a0a0;fill-opacity:1"
           x="0"
           y="0"
           width="100%"
           height="100%" />
      </g>
      <g
         id="g54"
         transform="matrix(0.67300878,0,0,0.74376908,94.921492,156.17516)">
        <use
           xlink:href="#atY6Ufeqd"
           id="use52"
           style="opacity:1;fill:#c62828;fill-opacity:1"
           x="0"
           y="0"
           width="100%"
           height="100%" />
      </g>
      <g
         id="g58"
         transform="matrix(0.67300878,0,0,0.74376908,94.921492,156.17516)"
         style="fill:#996c6c;fill-opacity:1">
        <use
           xlink:href="#c1pusCOUM"
           id="use56"
           style="opacity:1;fill:#996c6c;fill-opacity:1"
           x="0"
           y="0"
           width="100%"
           height="100%" />
      </g>
      <g
         id="g62"
         transform="matrix(0.67300878,0,0,0.74376908,94.921492,156.17516)"
         style="fill:#996c6c;fill-opacity:1">
        <use
           xlink:href="#iHUQu498k"
           id="use60"
           style="opacity:1;fill:#996c6c;fill-opacity:1"
           x="0"
           y="0"
           width="100%"
           height="100%" />
      </g>
      <g
         id="g68">
        <g
           id="g66">
          <use
             xlink:href="#h1mIjueuS1"
             id="use64"
             style="opacity:1;fill-opacity:0;stroke:#b23131;stroke-width:2;stroke-opacity:0"
             x="0"
             y="0"
             width="100%"
             height="100%" />
        </g>
      </g>
      <g
         id="g74">
        <g
           id="g72">
          <use
             xlink:href="#b2GABYVcCP"
             id="use70"
             style="opacity:1;fill-opacity:0;stroke:#219e58;stroke-width:2;stroke-opacity:1"
             x="0"
             y="0"
             width="100%"
             height="100%" />
        </g>
      </g>
    </g>
  </g>
</svg>
