<?xml version="1.0" encoding="UTF-8" standalone="no"?>
<svg
   xmlns:dc="http://purl.org/dc/elements/1.1/"
   xmlns:cc="http://creativecommons.org/ns#"
   xmlns:rdf="http://www.w3.org/1999/02/22-rdf-syntax-ns#"
   xmlns:svg="http://www.w3.org/2000/svg"
   xmlns="http://www.w3.org/2000/svg"
   xmlns:sodipodi="http://sodipodi.sourceforge.net/DTD/sodipodi-0.dtd"
   xmlns:inkscape="http://www.inkscape.org/namespaces/inkscape"
   height="48"
   width="48"
   version="1.1"
   id="svg12"
   sodipodi:docname="com.github.kjlaw89.webwatcher.svg"
   inkscape:version="0.92.4 (5da689c313, 2019-01-14)">
  <metadata
     id="metadata18">
    <rdf:RDF>
      <cc:Work
         rdf:about="">
        <dc:format>image/svg+xml</dc:format>
        <dc:type
           rdf:resource="http://purl.org/dc/dcmitype/StillImage" />
        <dc:title></dc:title>
      </cc:Work>
    </rdf:RDF>
  </metadata>
  <defs
     id="defs16" />
  <sodipodi:namedview
     pagecolor="#ffffff"
     bordercolor="#666666"
     borderopacity="1"
     objecttolerance="10"
     gridtolerance="10"
     guidetolerance="10"
     inkscape:pageopacity="0"
     inkscape:pageshadow="2"
     inkscape:window-width="1920"
     inkscape:window-height="1022"
     id="namedview14"
     showgrid="true"
     inkscape:zoom="8"
     inkscape:cx="-23.411535"
     inkscape:cy="20.297501"
     inkscape:window-x="0"
     inkscape:window-y="30"
     inkscape:window-maximized="1"
     inkscape:current-layer="svg12">
    <inkscape:grid
       type="xygrid"
       id="grid828" />
  </sodipodi:namedview>
  <rect
     fill="#6271d1"
     height="43"
     ry="1.452703"
     width="43"
     x="2"
     y="3"
     id="rect2"
     style="fill:#6b95c8;fill-opacity:1" />
  <circle
     style="opacity:1;fill:#ffffff;fill-opacity:1;stroke:none;stroke-width:1.30722225;stroke-linecap:butt;stroke-linejoin:round;stroke-miterlimit:4;stroke-dasharray:1.30722225, 2.61444448999999990;stroke-dashoffset:0;stroke-opacity:1;paint-order:fill markers stroke"
     id="path837"
     cx="31.5"
     cy="6.5"
     r="1.5" />
  <circle
     r="1.5"
     cy="6.5"
     cx="36.497688"
     id="circle839"
     style="opacity:1;fill:#ffffff;fill-opacity:1;stroke:none;stroke-width:1.30722225;stroke-linecap:butt;stroke-linejoin:round;stroke-miterlimit:4;stroke-dasharray:1.30722225, 2.61444448999999990;stroke-dashoffset:0;stroke-opacity:1;paint-order:fill markers stroke" />
  <circle
     style="opacity:1;fill:#ffffff;fill-opacity:1;stroke:none;stroke-width:1.30722225;stroke-linecap:butt;stroke-linejoin:round;stroke-miterlimit:4;stroke-dasharray:1.30722225, 2.61444448999999990;stroke-dashoffset:0;stroke-opacity:1;paint-order:fill markers stroke"
     id="circle841"
     cx="41.567284"
     cy="6.5"
     r="1.5" />
  <path
     style="fill:#ffffff;fill-opacity:1;stroke:none;stroke-width:1px;stroke-linecap:butt;stroke-linejoin:miter;stroke-opacity:1"
     d="M 10 6 L 6.7265625 10 L 4 10 L 4 44 L 43 44 L 43 10 L 24 10 L 20 6 L 10 6 z M 13.757812 19.884766 C 17.737158 19.893965 20.958919 23.297728 20.949219 27.478516 C 20.939559 31.659302 17.702004 35.048262 13.722656 35.039062 C 9.7433052 35.029876 6.5195969 31.6261 6.5292969 27.445312 C 6.5389579 23.264524 9.7784635 19.875566 13.757812 19.884766 z M 13.755859 20.673828 C 10.175856 20.665564 7.2606531 23.701164 7.2519531 27.447266 C 7.2432961 31.193369 10.144609 34.243753 13.724609 34.251953 C 17.304609 34.260228 20.219816 31.222663 20.228516 27.476562 C 20.237171 23.730459 17.335859 20.682028 13.755859 20.673828 z M 13.619141 22.867188 C 13.838252 22.867694 14.012259 23.048089 14.011719 23.263672 C 14.006229 24.108297 13.993375 26.238988 13.984375 27.080078 C 13.984375 27.085638 13.982684 27.090203 13.982422 27.095703 C 14.038135 27.136284 14.085633 27.184954 14.126953 27.240234 L 17.107422 27.248047 C 17.315932 27.24853 17.484905 27.418476 17.484375 27.626953 L 17.484375 27.658203 C 17.483895 27.866697 17.313971 28.035687 17.105469 28.035156 L 14.152344 28.027344 C 14.029383 28.214192 13.818089 28.3385 13.578125 28.337891 C 13.196447 28.33701 12.889755 28.028545 12.890625 27.650391 C 12.891179 27.411501 13.013283 27.201262 13.197266 27.078125 C 13.197266 27.078125 13.195312 27.076172 13.195312 27.076172 C 13.200802 26.235077 13.213656 24.104399 13.222656 23.259766 C 13.223154 23.044183 13.400023 22.866698 13.619141 22.867188 z M 26.009766 23.759766 L 35.904297 23.78125 L 35.898438 26.609375 L 26.003906 26.585938 L 26.009766 23.759766 z M 26 28 L 40.136719 28.033203 L 40.128906 30.859375 L 25.994141 30.828125 L 26 28 z M 25.990234 32.240234 L 40.126953 32.273438 L 40.119141 35.101562 L 25.984375 35.068359 L 25.990234 32.240234 z "
     id="path843" />
</svg>
