<?xml version="1.0" encoding="UTF-8" standalone="no"?>
<svg
   xmlns:dc="http://purl.org/dc/elements/1.1/"
   xmlns:cc="http://creativecommons.org/ns#"
   xmlns:rdf="http://www.w3.org/1999/02/22-rdf-syntax-ns#"
   xmlns:svg="http://www.w3.org/2000/svg"
   xmlns="http://www.w3.org/2000/svg"
   xmlns:sodipodi="http://sodipodi.sourceforge.net/DTD/sodipodi-0.dtd"
   xmlns:inkscape="http://www.inkscape.org/namespaces/inkscape"
   height="48"
   width="48"
   version="1.1"
   id="svg10"
   sodipodi:docname="com.github.chasinglogic.tardis.svg"
   inkscape:version="0.92.3 (2405546, 2018-03-11)">
  <metadata
     id="metadata16">
    <rdf:RDF>
      <cc:Work
         rdf:about="">
        <dc:format>image/svg+xml</dc:format>
        <dc:type
           rdf:resource="http://purl.org/dc/dcmitype/StillImage" />
        <dc:title></dc:title>
      </cc:Work>
    </rdf:RDF>
  </metadata>
  <defs
     id="defs14" />
  <sodipodi:namedview
     pagecolor="#ffffff"
     bordercolor="#666666"
     borderopacity="1"
     objecttolerance="10"
     gridtolerance="10"
     guidetolerance="10"
     inkscape:pageopacity="0"
     inkscape:pageshadow="2"
     inkscape:window-width="1920"
     inkscape:window-height="1017"
     id="namedview12"
     showgrid="true"
     inkscape:zoom="4.9166667"
     inkscape:cx="-28.372881"
     inkscape:cy="24"
     inkscape:window-x="0"
     inkscape:window-y="30"
     inkscape:window-maximized="1"
     inkscape:current-layer="svg10">
    <inkscape:grid
       type="xygrid"
       id="grid823" />
  </sodipodi:namedview>
  <path
     d="m44.322082 27.405077a19.729762 19.729765 0 0 1 -19.729762 19.729765 19.729762 19.729765 0 0 1 -19.7297621-19.729765 19.729762 19.729765 0 0 1 19.7297621-19.7297632 19.729762 19.729765 0 0 1 19.729762 19.7297632z"
     fill="#67939e"
     opacity=".99"
     transform="matrix(1.1503549 0 0 1.1503549 -4.486125 -7.525565)"
     id="path2"
     style="fill:#6c97cf;fill-opacity:1" />
  <path
     d="m23.400391 8.5976562c-4.406778 0-8.421056 1.7941038-11.314453 4.6874998-2.3305752 2.330575-3.9479297 5.388377-4.4889596 8.792757-.130656.82214 1.4030216 1.064883 1.4030216 1.922087l2.398438.599609c0-3.325896 1.341567-6.31227 3.515624-8.486328 2.174059-2.174057 5.160432-3.515625 8.486329-3.515625 6.651795 0 12.001953 5.350158 12.001953 12.001953.000001 6.651795-5.350159 12.001953-12.001953 12.001953-2.770798 0-5.305947-.931117-7.332076-2.498995-1.068315-1.102567-4.218667 1.53721-3.021395 2.697081 2.791287 2.36936 6.415677 3.801914 10.353471 3.801914 8.813555 0 16.001954-7.188397 16.001953-16.001953 0-8.813555-7.188398-16.0019528-16.001953-16.0019528z"
     fill="#fff"
     id="path4" />
  <path
     d="m3.6 21h12.9l-6.45 7.5z"
     fill="#fff"
     id="path6" />
  <path
     d="m22.5 18v7.5l4.5 4.5"
     fill="none"
     stroke="#fff"
     stroke-linecap="round"
     stroke-opacity=".53886"
     stroke-width="3"
     id="path8" />
</svg>
