<?xml version="1.0" encoding="UTF-8" standalone="no"?>
<svg
   xmlns:dc="http://purl.org/dc/elements/1.1/"
   xmlns:cc="http://creativecommons.org/ns#"
   xmlns:rdf="http://www.w3.org/1999/02/22-rdf-syntax-ns#"
   xmlns:svg="http://www.w3.org/2000/svg"
   xmlns="http://www.w3.org/2000/svg"
   xmlns:xlink="http://www.w3.org/1999/xlink"
   xmlns:sodipodi="http://sodipodi.sourceforge.net/DTD/sodipodi-0.dtd"
   xmlns:inkscape="http://www.inkscape.org/namespaces/inkscape"
   version="1.1"
   preserveAspectRatio="xMidYMid meet"
   viewBox="0 0 640 640"
   width="64"
   height="64"
   id="svg40"
   sodipodi:docname="com.github.gijsgoudzwaard.image-optimizer.svg"
   inkscape:version="0.92.1 r15371">
  <metadata
     id="metadata44">
    <rdf:RDF>
      <cc:Work
         rdf:about="">
        <dc:format>image/svg+xml</dc:format>
        <dc:type
           rdf:resource="http://purl.org/dc/dcmitype/StillImage" />
        <dc:title></dc:title>
      </cc:Work>
    </rdf:RDF>
  </metadata>
  <sodipodi:namedview
     pagecolor="#ffffff"
     bordercolor="#666666"
     borderopacity="1"
     objecttolerance="10"
     gridtolerance="10"
     guidetolerance="10"
     inkscape:pageopacity="0"
     inkscape:pageshadow="2"
     inkscape:window-width="1920"
     inkscape:window-height="1040"
     id="namedview42"
     showgrid="false"
     inkscape:zoom="3.6875"
     inkscape:cx="52.037684"
     inkscape:cy="10.664265"
     inkscape:window-x="0"
     inkscape:window-y="0"
     inkscape:window-maximized="1"
     inkscape:current-layer="g38" />
  <defs
     id="defs6">
    <path
       d="M574.58 53.62C586.99 53.62 597.06 63.68 597.06 76.1C597.06 181.53 597.06 475.33 597.06 580.76C597.06 593.18 586.99 603.24 574.58 603.24C468.93 603.24 174.44 603.24 68.79 603.24C56.38 603.24 46.31 593.18 46.31 580.76C46.31 475.33 46.31 181.53 46.31 76.1C46.31 63.68 56.38 53.62 68.79 53.62C174.44 53.62 468.93 53.62 574.58 53.62Z"
       id="cf4k0pUPy" />
    <path
       d="M515.59 94.08C527.37 94.08 536.93 103.64 536.93 115.42C536.93 204.44 536.93 450.16 536.93 539.18C536.93 550.97 527.37 560.52 515.59 560.52C433.76 560.52 209.61 560.52 127.78 560.52C116 560.52 106.45 550.97 106.45 539.18C106.45 450.16 106.45 204.44 106.45 115.42C106.45 103.64 116 94.08 127.78 94.08C209.61 94.08 433.76 94.08 515.59 94.08Z"
       id="bduwUQ36k" />
    <path
       d="M490.57 124.43C501.58 124.43 510.51 133.36 510.51 144.37C510.51 208.04 510.51 379.15 510.51 442.82C510.51 453.83 501.58 462.76 490.57 462.76C419.03 462.76 224.34 462.76 152.8 462.76C141.79 462.76 132.86 453.83 132.86 442.82C132.86 379.15 132.86 208.04 132.86 144.37C132.86 133.36 141.79 124.43 152.8 124.43C224.34 124.43 419.03 124.43 490.57 124.43Z"
       id="aIqeXDlmf" />
    <path
       d="M322 231.83L322.14 231.84L322.29 231.86L322.44 231.89L322.58 231.92L322.73 231.96L322.87 232L323.02 232.05L323.16 232.1L323.3 232.17L323.43 232.23L323.57 232.3L323.7 232.38L323.83 232.47L323.96 232.56L324.08 232.65L324.21 232.75L324.32 232.86L324.44 232.97L327.69 236.29L327.78 236.38L327.86 236.47L327.95 236.56L328.03 236.65L328.12 236.74L328.2 236.83L328.29 236.92L328.37 237.02L328.45 237.11L328.54 237.2L328.62 237.3L328.7 237.39L328.78 237.49L328.86 237.58L328.95 237.68L329.03 237.77L329.11 237.87L329.19 237.97L329.26 238.06L329.34 238.16L329.42 238.26L329.5 238.36L329.58 238.45L329.65 238.55L329.73 238.65L329.81 238.75L329.88 238.85L329.96 238.95L330.03 239.05L330.11 239.15L330.18 239.25L330.26 239.35L330.33 239.45L330.4 239.56L330.47 239.66L330.55 239.76L330.62 239.86L330.69 239.97L330.76 240.07L330.83 240.18L330.92 240.09L331.02 240.01L331.11 239.93L331.21 239.85L331.3 239.77L331.4 239.69L331.49 239.61L331.59 239.53L331.69 239.45L331.78 239.37L331.88 239.29L331.98 239.22L332.08 239.14L332.17 239.06L332.27 238.99L332.37 238.91L332.47 238.84L332.57 238.76L332.67 238.69L332.77 238.61L332.87 238.54L332.98 238.47L333.08 238.4L333.18 238.32L333.28 238.25L333.38 238.18L333.49 238.11L333.59 238.04L333.69 237.97L333.8 237.9L333.9 237.84L334.01 237.77L334.11 237.7L334.22 237.64L334.32 237.57L334.43 237.5L334.53 237.44L334.64 237.37L334.75 237.31L334.85 237.25L338.7 234.98L338.83 234.9L338.97 234.82L339.12 234.75L339.26 234.68L339.41 234.62L339.55 234.57L339.7 234.52L339.85 234.48L340 234.45L340.14 234.42L340.29 234.4L340.44 234.38L340.6 234.37L340.75 234.37L340.89 234.37L341.04 234.38L341.19 234.39L341.34 234.41L341.49 234.44L341.63 234.47L341.78 234.51L341.92 234.55L342.06 234.6L342.2 234.65L342.34 234.71L342.48 234.77L342.61 234.84L342.74 234.92L342.87 235L342.99 235.08L343.11 235.17L343.23 235.27L343.35 235.37L343.46 235.47L343.57 235.58L343.67 235.7L343.77 235.82L343.87 235.94L343.96 236.07L344.05 236.21L344.13 236.35L346.43 240.41L346.49 240.52L346.55 240.63L346.61 240.74L346.67 240.85L346.73 240.96L346.79 241.07L346.85 241.18L346.91 241.29L346.96 241.41L347.02 241.52L347.08 241.63L347.13 241.75L347.19 241.86L347.24 241.97L347.3 242.09L347.35 242.2L347.41 242.32L347.46 242.43L347.51 242.55L347.56 242.66L347.61 242.78L347.66 242.89L347.71 243.01L347.76 243.12L347.81 243.24L347.86 243.36L347.91 243.47L347.96 243.59L348 243.71L348.05 243.83L348.1 243.94L348.14 244.06L348.19 244.18L348.23 244.3L348.27 244.42L348.32 244.54L348.36 244.66L348.4 244.78L348.44 244.9L348.48 245.01L348.6 244.96L348.71 244.91L348.82 244.85L348.93 244.8L349.04 244.74L349.16 244.69L349.27 244.64L349.38 244.59L349.5 244.54L349.61 244.49L349.72 244.44L349.84 244.39L349.95 244.34L350.06 244.29L350.18 244.24L350.29 244.2L350.41 244.15L350.52 244.1L350.64 244.06L350.75 244.01L350.87 243.97L350.99 243.92L351.1 243.88L351.22 243.84L351.33 243.8L351.45 243.75L351.57 243.71L351.69 243.67L351.8 243.63L351.92 243.59L352.04 243.55L352.16 243.51L352.27 243.48L352.39 243.44L352.51 243.4L352.63 243.36L352.75 243.33L352.87 243.29L352.98 243.26L353.1 243.22L357.55 242.01L357.7 241.97L357.86 241.94L358.01 241.92L358.17 241.9L358.32 241.89L358.48 241.88L358.63 241.88L358.78 241.89L358.93 241.9L359.08 241.92L359.23 241.94L359.38 241.97L359.53 242.01L359.67 242.05L359.81 242.09L359.95 242.15L360.09 242.2L360.23 242.27L360.36 242.34L360.49 242.41L360.62 242.49L360.74 242.57L360.86 242.66L360.98 242.75L361.1 242.85L361.21 242.95L361.31 243.06L361.42 243.17L361.52 243.28L361.61 243.4L361.7 243.53L361.79 243.65L361.87 243.79L361.95 243.92L362.02 244.06L362.08 244.2L362.15 244.35L362.2 244.5L362.25 244.65L362.3 244.81L363.48 249.33L363.51 249.45L363.54 249.58L363.57 249.7L363.6 249.82L363.63 249.95L363.66 250.07L363.68 250.19L363.71 250.31L363.74 250.44L363.76 250.56L363.79 250.68L363.81 250.81L363.83 250.93L363.86 251.06L363.88 251.18L363.9 251.3L363.92 251.43L363.94 251.55L363.96 251.68L363.98 251.8L364 251.93L364.02 252.05L364.04 252.17L364.06 252.3L364.07 252.42L364.09 252.55L364.11 252.67L364.12 252.8L364.14 252.92L364.15 253.05L364.16 253.18L364.18 253.3L364.19 253.43L364.2 253.55L364.21 253.68L364.22 253.8L364.23 253.93L364.24 254.05L364.25 254.18L364.26 254.31L364.38 254.28L364.5 254.26L364.63 254.24L364.75 254.21L364.87 254.19L364.99 254.17L365.12 254.15L365.24 254.13L365.36 254.11L365.49 254.09L365.61 254.08L365.73 254.06L365.85 254.04L365.98 254.03L366.1 254.01L366.22 254L366.35 253.98L366.47 253.97L366.6 253.95L366.72 253.94L366.84 253.93L366.97 253.92L367.09 253.91L367.21 253.9L367.34 253.89L367.46 253.88L367.59 253.87L367.71 253.86L367.83 253.86L367.96 253.85L368.08 253.84L368.21 253.84L368.33 253.83L368.46 253.83L368.58 253.82L368.7 253.82L368.83 253.82L368.95 253.82L369.08 253.82L369.2 253.82L373.8 253.82L373.96 253.82L374.12 253.83L374.27 253.84L374.43 253.87L374.58 253.9L374.73 253.93L374.88 253.97L375.02 254.02L375.17 254.07L375.31 254.13L375.45 254.19L375.58 254.26L375.71 254.33L375.84 254.41L375.97 254.49L376.09 254.58L376.21 254.67L376.32 254.77L376.43 254.87L376.54 254.97L376.64 255.08L376.74 255.2L376.84 255.31L376.93 255.43L377.01 255.56L377.1 255.69L377.17 255.82L377.24 255.95L377.31 256.09L377.37 256.23L377.43 256.37L377.48 256.52L377.52 256.67L377.56 256.82L377.6 256.97L377.63 257.13L377.65 257.29L377.66 257.44L377.67 257.61L377.68 257.77L377.68 262.48L377.68 262.61L377.67 262.74L377.67 262.86L377.67 262.99L377.67 263.12L377.66 263.24L377.66 263.37L377.65 263.5L377.65 263.62L377.64 263.75L377.64 263.88L377.63 264L377.62 264.13L377.61 264.25L377.61 264.38L377.6 264.51L377.59 264.63L377.58 264.76L377.56 264.89L377.55 265.01L377.54 265.14L377.53 265.26L377.51 265.39L377.5 265.52L377.48 265.64L377.47 265.77L377.45 265.89L377.44 266.02L377.42 266.14L377.4 266.27L377.38 266.39L377.37 266.52L377.35 266.64L377.33 266.77L377.31 266.89L377.29 267.02L377.26 267.14L377.24 267.27L377.22 267.39L377.2 267.52L377.32 267.53L377.44 267.54L377.57 267.55L377.69 267.56L377.81 267.57L377.94 267.58L378.06 267.59L378.18 267.6L378.3 267.62L378.43 267.63L378.55 267.64L378.67 267.66L378.8 267.68L378.92 267.69L379.04 267.71L379.16 267.72L379.29 267.74L379.41 267.76L379.53 267.78L379.65 267.8L379.77 267.82L379.9 267.84L380.02 267.86L380.14 267.88L380.26 267.91L380.38 267.93L380.51 267.95L380.63 267.98L380.75 268L380.87 268.03L380.99 268.05L381.11 268.08L381.23 268.1L381.35 268.13L381.47 268.16L381.59 268.19L381.71 268.22L381.83 268.25L381.95 268.28L382.07 268.31L386.51 269.52L386.67 269.56L386.82 269.62L386.96 269.67L387.11 269.74L387.25 269.8L387.38 269.88L387.52 269.95L387.65 270.04L387.77 270.13L387.89 270.22L388.01 270.31L388.12 270.42L388.23 270.52L388.34 270.63L388.44 270.74L388.53 270.86L388.62 270.98L388.71 271.11L388.79 271.23L388.87 271.36L388.94 271.49L389.01 271.63L389.07 271.77L389.13 271.91L389.18 272.05L389.22 272.2L389.26 272.34L389.3 272.49L389.33 272.64L389.35 272.8L389.37 272.95L389.38 273.1L389.39 273.26L389.39 273.41L389.38 273.57L389.37 273.73L389.35 273.89L389.32 274.05L389.29 274.2L389.25 274.36L388.07 278.88L388.03 279.01L388 279.13L387.97 279.25L387.93 279.37L387.89 279.49L387.86 279.61L387.82 279.73L387.78 279.85L387.75 279.97L387.71 280.09L387.67 280.21L387.63 280.33L387.59 280.45L387.55 280.57L387.51 280.69L387.47 280.81L387.42 280.93L387.38 281.04L387.34 281.16L387.29 281.28L387.25 281.4L387.2 281.52L387.16 281.63L387.11 281.75L387.07 281.87L387.02 281.98L386.97 282.1L386.93 282.22L386.88 282.33L386.83 282.45L386.78 282.56L386.73 282.68L386.68 282.79L386.63 282.91L386.58 283.02L386.52 283.14L386.47 283.25L386.42 283.37L386.36 283.48L386.31 283.59L386.43 283.64L386.55 283.68L386.66 283.72L386.78 283.76L386.9 283.81L387.01 283.85L387.13 283.9L387.24 283.94L387.36 283.99L387.48 284.04L387.59 284.08L387.71 284.13L387.82 284.18L387.94 284.23L388.05 284.28L388.17 284.33L388.28 284.38L388.39 284.43L388.51 284.48L388.62 284.54L388.73 284.59L388.85 284.64L388.96 284.7L389.07 284.75L389.18 284.8L389.29 284.86L389.41 284.92L389.52 284.97L389.63 285.03L389.74 285.09L389.85 285.15L389.96 285.2L390.07 285.26L390.18 285.32L390.29 285.38L390.4 285.44L390.51 285.51L390.62 285.57L390.72 285.63L390.83 285.69L394.68 287.95L394.82 288.03L394.95 288.12L395.09 288.21L395.21 288.3L395.34 288.4L395.45 288.5L395.57 288.61L395.68 288.72L395.78 288.83L395.88 288.95L395.97 289.07L396.06 289.2L396.14 289.32L396.22 289.45L396.29 289.59L396.36 289.72L396.43 289.86L396.48 290L396.53 290.14L396.58 290.29L396.62 290.43L396.66 290.58L396.69 290.73L396.71 290.88L396.73 291.03L396.74 291.18L396.75 291.33L396.75 291.49L396.75 291.64L396.74 291.79L396.72 291.95L396.7 292.1L396.68 292.25L396.64 292.4L396.6 292.55L396.56 292.7L396.5 292.85L396.45 293L396.38 293.15L396.31 293.29L396.23 293.43L393.93 297.49L393.87 297.6L393.81 297.7L393.74 297.81L393.68 297.92L393.62 298.03L393.55 298.14L393.48 298.24L393.42 298.35L393.35 298.46L393.29 298.56L393.22 298.67L393.15 298.77L393.08 298.88L393.01 298.98L392.94 299.09L392.87 299.19L392.8 299.3L392.73 299.4L392.66 299.5L392.59 299.61L392.52 299.71L392.45 299.81L392.37 299.91L392.3 300.02L392.22 300.12L392.15 300.22L392.08 300.32L392 300.42L391.92 300.52L391.85 300.62L391.77 300.72L391.69 300.81L391.62 300.91L391.54 301.01L391.46 301.11L391.38 301.21L391.3 301.3L391.22 301.4L391.14 301.49L391.06 301.59L391.16 301.66L391.26 301.73L391.36 301.81L391.46 301.88L391.56 301.95L391.67 302.03L391.77 302.1L391.87 302.17L391.96 302.25L392.06 302.32L392.16 302.4L392.26 302.48L392.36 302.55L392.46 302.63L392.55 302.71L392.65 302.79L392.75 302.87L392.84 302.94L392.94 303.02L393.04 303.1L393.13 303.18L393.23 303.26L393.32 303.35L393.41 303.43L393.51 303.51L393.6 303.59L393.7 303.67L393.79 303.76L393.88 303.84L393.97 303.93L394.07 304.01L394.16 304.09L394.25 304.18L394.34 304.27L394.43 304.35L394.52 304.44L394.61 304.53L394.7 304.61L394.79 304.7L394.87 304.79L398.13 308.1L398.24 308.22L398.34 308.34L398.44 308.46L398.53 308.59L398.62 308.72L398.7 308.85L398.78 308.99L398.85 309.13L398.92 309.27L398.98 309.41L399.03 309.55L399.08 309.7L399.12 309.84L399.16 309.99L399.19 310.14L399.22 310.29L399.24 310.44L399.25 310.59L399.26 310.75L399.26 310.9L399.26 311.05L399.25 311.2L399.24 311.35L399.22 311.5L399.19 311.65L399.16 311.8L399.12 311.95L399.08 312.1L399.03 312.24L398.98 312.38L398.92 312.53L398.85 312.67L398.78 312.8L398.7 312.94L398.62 313.07L398.53 313.2L398.44 313.33L398.34 313.45L398.24 313.57L398.13 313.69L394.87 317L394.79 317.09L394.7 317.18L394.61 317.27L394.52 317.36L394.43 317.44L394.34 317.53L394.25 317.62L394.16 317.7L394.07 317.79L393.98 317.87L393.89 317.96L393.79 318.04L393.7 318.13L393.61 318.21L393.52 318.29L393.42 318.37L393.33 318.46L393.23 318.54L393.14 318.62L393.04 318.7L392.95 318.78L392.85 318.86L392.76 318.94L392.66 319.02L392.56 319.1L392.47 319.18L392.37 319.25L392.27 319.33L392.17 319.41L392.08 319.48L391.98 319.56L391.88 319.64L391.78 319.71L391.68 319.78L391.58 319.86L391.48 319.93L391.38 320.01L391.28 320.08L391.18 320.15L391.07 320.22L391.15 320.32L391.23 320.41L391.31 320.51L391.39 320.61L391.47 320.7L391.55 320.8L391.63 320.9L391.71 321L391.78 321.09L391.86 321.19L391.93 321.29L392.01 321.39L392.09 321.49L392.16 321.59L392.23 321.69L392.31 321.79L392.38 321.89L392.45 321.99L392.53 322.09L392.6 322.2L392.67 322.3L392.74 322.4L392.81 322.5L392.88 322.61L392.95 322.71L393.02 322.82L393.09 322.92L393.15 323.02L393.22 323.13L393.29 323.24L393.36 323.34L393.42 323.45L393.49 323.55L393.55 323.66L393.62 323.77L393.68 323.87L393.74 323.98L393.81 324.09L393.87 324.2L393.93 324.31L396.15 328.22L396.23 328.36L396.31 328.51L396.38 328.65L396.45 328.8L396.51 328.95L396.56 329.09L396.6 329.24L396.64 329.4L396.68 329.55L396.7 329.7L396.73 329.85L396.74 330.01L396.75 330.16L396.75 330.31L396.75 330.46L396.74 330.62L396.73 330.77L396.71 330.92L396.69 331.07L396.66 331.22L396.62 331.36L396.58 331.51L396.53 331.65L396.48 331.8L396.42 331.94L396.36 332.07L396.29 332.21L396.22 332.34L396.14 332.47L396.06 332.6L395.97 332.73L395.87 332.85L395.78 332.97L395.67 333.08L395.56 333.19L395.45 333.3L395.33 333.4L395.21 333.5L395.08 333.59L394.95 333.68L394.81 333.76L390.83 336.1L390.72 336.17L390.62 336.23L390.51 336.29L390.4 336.35L390.29 336.41L390.18 336.47L390.07 336.53L389.96 336.59L389.85 336.65L389.74 336.71L389.63 336.77L389.52 336.82L389.41 336.88L389.29 336.94L389.18 336.99L389.07 337.05L388.96 337.1L388.85 337.15L388.73 337.21L388.62 337.26L388.51 337.31L388.39 337.36L388.28 337.42L388.17 337.47L388.05 337.52L387.94 337.57L387.82 337.61L387.71 337.66L387.59 337.71L387.48 337.76L387.36 337.8L387.24 337.85L387.13 337.9L387.01 337.94L386.9 337.99L386.78 338.03L386.66 338.07L386.55 338.12L386.43 338.16L386.31 338.2L386.36 338.31L386.42 338.43L386.47 338.54L386.52 338.66L386.58 338.77L386.63 338.88L386.68 339L386.73 339.11L386.78 339.23L386.83 339.35L386.88 339.46L386.93 339.58L386.97 339.69L387.02 339.81L387.07 339.93L387.11 340.04L387.16 340.16L387.2 340.28L387.25 340.4L387.29 340.51L387.34 340.63L387.38 340.75L387.42 340.87L387.47 340.99L387.51 341.11L387.55 341.22L387.59 341.34L387.63 341.46L387.67 341.58L387.71 341.7L387.75 341.82L387.78 341.94L387.82 342.06L387.86 342.18L387.89 342.3L387.93 342.42L387.97 342.54L388 342.67L388.03 342.79L388.07 342.91L389.24 347.44L389.28 347.59L389.31 347.75L389.33 347.91L389.35 348.07L389.37 348.23L389.37 348.38L389.37 348.54L389.37 348.7L389.35 348.85L389.34 349L389.31 349.16L389.28 349.31L389.25 349.45L389.21 349.6L389.16 349.75L389.11 349.89L389.05 350.03L388.99 350.17L388.92 350.3L388.85 350.44L388.77 350.57L388.69 350.69L388.61 350.82L388.52 350.94L388.42 351.05L388.32 351.17L388.22 351.28L388.11 351.38L387.99 351.48L387.88 351.58L387.75 351.67L387.63 351.76L387.5 351.84L387.37 351.92L387.23 351.99L387.09 352.06L386.95 352.12L386.8 352.18L386.65 352.23L386.5 352.28L382.06 353.49L381.94 353.52L381.82 353.55L381.7 353.58L381.58 353.61L381.46 353.64L381.34 353.67L381.22 353.69L381.1 353.72L380.97 353.75L380.85 353.77L380.73 353.8L380.61 353.82L380.49 353.85L380.37 353.87L380.25 353.89L380.13 353.91L380 353.94L379.88 353.96L379.76 353.98L379.64 354L379.52 354.02L379.39 354.04L379.27 354.05L379.15 354.07L379.03 354.09L378.9 354.11L378.78 354.12L378.66 354.14L378.53 354.15L378.41 354.17L378.29 354.18L378.17 354.19L378.04 354.21L377.92 354.22L377.8 354.23L377.67 354.24L377.55 354.25L377.43 354.26L377.3 354.27L377.18 354.28L377.2 354.4L377.23 354.53L377.25 354.65L377.27 354.78L377.29 354.9L377.31 355.03L377.33 355.15L377.35 355.28L377.37 355.4L377.39 355.53L377.4 355.65L377.42 355.78L377.44 355.9L377.45 356.03L377.47 356.16L377.48 356.28L377.5 356.41L377.51 356.53L377.52 356.66L377.54 356.79L377.55 356.91L377.56 357.04L377.57 357.16L377.58 357.29L377.59 357.42L377.6 357.54L377.61 357.67L377.61 357.8L377.62 357.92L377.63 358.05L377.63 358.18L377.64 358.3L377.64 358.43L377.65 358.56L377.65 358.68L377.65 358.81L377.66 358.94L377.66 359.06L377.66 359.19L377.66 359.32L377.66 364L377.66 364.16L377.65 364.33L377.63 364.48L377.61 364.64L377.58 364.8L377.55 364.95L377.51 365.1L377.46 365.25L377.41 365.4L377.36 365.54L377.29 365.68L377.23 365.82L377.16 365.95L377.08 366.08L377 366.21L376.91 366.34L376.82 366.46L376.73 366.57L376.63 366.69L376.52 366.8L376.42 366.9L376.31 367L376.19 367.1L376.07 367.19L375.95 367.28L375.83 367.36L375.7 367.44L375.56 367.51L375.43 367.58L375.29 367.64L375.15 367.7L375.01 367.75L374.86 367.8L374.71 367.84L374.56 367.87L374.41 367.9L374.26 367.93L374.1 367.94L373.94 367.95L373.78 367.95L369.19 367.95L369.06 367.95L368.94 367.95L368.81 367.95L368.69 367.95L368.56 367.95L368.44 367.94L368.32 367.94L368.19 367.93L368.07 367.93L367.94 367.92L367.82 367.91L367.69 367.91L367.57 367.9L367.45 367.89L367.32 367.88L367.2 367.87L367.07 367.86L366.95 367.85L366.83 367.84L366.7 367.83L366.58 367.82L366.46 367.8L366.33 367.79L366.21 367.77L366.09 367.76L365.96 367.74L365.84 367.73L365.72 367.71L365.59 367.69L365.47 367.68L365.35 367.66L365.22 367.64L365.1 367.62L364.98 367.6L364.86 367.58L364.73 367.56L364.61 367.53L364.49 367.51L364.37 367.49L364.24 367.46L364.24 367.59L364.23 367.72L364.22 367.84L364.21 367.97L364.2 368.09L364.18 368.22L364.17 368.34L364.16 368.47L364.15 368.59L364.13 368.72L364.12 368.85L364.11 368.97L364.09 369.1L364.07 369.22L364.06 369.35L364.04 369.47L364.02 369.6L364.01 369.72L363.99 369.84L363.97 369.97L363.95 370.09L363.93 370.22L363.91 370.34L363.89 370.47L363.86 370.59L363.84 370.71L363.82 370.84L363.8 370.96L363.77 371.09L363.75 371.21L363.72 371.33L363.69 371.46L363.67 371.58L363.64 371.7L363.61 371.82L363.59 371.95L363.56 372.07L363.53 372.19L363.5 372.32L363.47 372.44L362.28 376.96L362.25 377.09L362.21 377.22L362.16 377.34L362.11 377.46L362.06 377.58L362.01 377.7L361.95 377.82L361.89 377.93L361.82 378.04L361.75 378.15L361.68 378.25L361.6 378.36L361.53 378.46L361.44 378.55L361.36 378.65L361.27 378.74L361.18 378.83L361.09 378.91L360.99 379L360.9 379.08L360.8 379.15L360.69 379.22L360.59 379.29L360.48 379.36L360.37 379.42L360.26 379.48L360.15 379.54L360.03 379.59L359.92 379.63L359.8 379.68L359.68 379.72L359.56 379.75L359.43 379.79L359.31 379.81L359.18 379.84L359.05 379.86L358.93 379.87L358.8 379.89L358.67 379.89L358.53 379.89L358.51 379.89L358.48 379.89L358.46 379.89L358.43 379.89L358.41 379.89L358.38 379.89L358.36 379.89L358.33 379.89L358.31 379.89L358.28 379.89L358.25 379.88L358.23 379.88L358.2 379.88L358.18 379.88L358.15 379.87L358.13 379.87L358.1 379.87L358.08 379.87L358.05 379.86L358.03 379.86L358 379.86L357.98 379.85L357.95 379.85L357.93 379.84L357.9 379.84L357.88 379.84L357.85 379.83L357.83 379.83L357.8 379.82L357.78 379.82L357.75 379.81L357.73 379.81L357.7 379.8L357.68 379.79L357.65 379.79L357.63 379.78L357.6 379.78L357.58 379.77L357.55 379.76L357.53 379.76L353.09 378.55L352.97 378.51L352.85 378.48L352.74 378.44L352.62 378.41L352.5 378.37L352.38 378.33L352.26 378.29L352.14 378.26L352.03 378.22L351.91 378.18L351.79 378.14L351.67 378.1L351.56 378.06L351.44 378.02L351.32 377.97L351.21 377.93L351.09 377.89L350.97 377.85L350.86 377.8L350.74 377.76L350.63 377.71L350.51 377.67L350.4 377.62L350.28 377.57L350.17 377.53L350.05 377.48L349.94 377.43L349.82 377.38L349.71 377.33L349.6 377.28L349.48 377.23L349.37 377.18L349.26 377.13L349.14 377.08L349.03 377.03L348.92 376.97L348.81 376.92L348.7 376.86L348.58 376.81L348.47 376.75L348.43 376.87L348.39 376.99L348.35 377.11L348.31 377.23L348.26 377.35L348.22 377.47L348.17 377.59L348.13 377.71L348.08 377.83L348.04 377.94L347.99 378.06L347.94 378.18L347.9 378.3L347.85 378.41L347.8 378.53L347.75 378.65L347.7 378.76L347.65 378.88L347.6 378.99L347.55 379.11L347.5 379.22L347.45 379.34L347.39 379.45L347.34 379.57L347.28 379.68L347.23 379.8L347.18 379.91L347.12 380.02L347.06 380.14L347.01 380.25L346.95 380.36L346.89 380.48L346.83 380.59L346.78 380.7L346.72 380.81L346.66 380.92L346.6 381.03L346.54 381.14L346.47 381.25L346.41 381.36L344.2 385.28L344.12 385.43L344.04 385.57L343.95 385.7L343.86 385.83L343.76 385.95L343.66 386.08L343.55 386.19L343.45 386.3L343.33 386.41L343.22 386.51L343.1 386.6L342.98 386.69L342.85 386.78L342.72 386.86L342.59 386.93L342.46 387L342.32 387.06L342.19 387.12L342.05 387.18L341.9 387.22L341.76 387.27L341.62 387.3L341.47 387.33L341.32 387.36L341.18 387.38L341.03 387.39L340.88 387.4L340.73 387.4L340.58 387.4L340.43 387.39L340.28 387.37L340.13 387.35L339.98 387.32L339.83 387.28L339.68 387.24L339.53 387.2L339.39 387.14L339.24 387.08L339.1 387.02L338.96 386.95L338.82 386.87L334.84 384.52L334.8 384.5L334.76 384.48L334.73 384.45L334.69 384.43L334.65 384.41L334.61 384.38L334.57 384.36L334.53 384.34L334.49 384.31L334.45 384.29L334.42 384.26L334.38 384.24L334.34 384.21L334.3 384.19L334.26 384.17L334.23 384.14L334.19 384.12L334.15 384.09L334.11 384.07L334.07 384.04L334.04 384.02L334 383.99L333.96 383.96L333.92 383.94L333.89 383.91L333.85 383.89L333.81 383.86L333.77 383.84L333.73 383.81L333.7 383.79L333.66 383.76L333.62 383.73L333.58 383.71L333.51 383.66L333.43 383.6L333.36 383.55L333.32 383.53L333.32 418.21L334.02 417.09L334.74 415.99L335.49 414.92L336.27 413.86L337.06 412.84L337.88 411.83L338.73 410.85L339.6 409.89L340.48 408.96L341.39 408.05L342.33 407.17L343.28 406.31L344.25 405.48L345.24 404.67L346.25 403.9L347.28 403.14L348.32 402.42L349.38 401.72L350.46 401.05L351.56 400.41L352.67 399.79L353.79 399.21L354.93 398.65L356.09 398.13L357.25 397.63L358.43 397.16L359.62 396.72L360.83 396.31L362.04 395.94L363.27 395.59L364.5 395.28L365.75 394.99L367 394.74L368.27 394.53L369.54 394.34L370.81 394.19L372.1 394.07L373.39 393.98L374.69 393.93L375.99 393.91L399.26 393.91L399.42 393.91L399.58 393.92L399.74 393.94L399.89 393.96L400.04 393.99L400.19 394.02L400.34 394.06L400.49 394.11L400.63 394.16L400.77 394.22L400.91 394.28L401.04 394.35L401.18 394.42L401.3 394.5L401.43 394.58L401.55 394.67L401.67 394.76L401.79 394.86L401.9 394.96L402 395.07L402.11 395.18L402.21 395.29L402.3 395.41L402.39 395.53L402.48 395.65L402.56 395.78L402.64 395.91L402.71 396.05L402.77 396.18L402.84 396.32L402.89 396.47L402.94 396.61L402.99 396.76L403.03 396.91L403.06 397.07L403.09 397.22L403.11 397.38L403.13 397.54L403.14 397.7L403.14 397.86L403.1 399.98L402.97 402.08L402.76 404.15L402.47 406.2L402.11 408.22L401.66 410.21L401.15 412.17L400.56 414.1L399.89 416L399.16 417.86L398.36 419.68L397.5 421.47L396.56 423.22L395.57 424.92L394.51 426.58L393.39 428.2L392.22 429.77L390.98 431.29L389.7 432.77L388.35 434.19L386.96 435.56L385.52 436.87L384.02 438.13L382.48 439.32L380.89 440.46L379.26 441.54L377.59 442.56L375.88 443.51L374.12 444.39L372.33 445.2L370.51 445.95L368.65 446.62L366.75 447.23L364.83 447.75L362.87 448.2L360.89 448.58L358.88 448.87L356.85 449.08L354.79 449.21L352.72 449.26L333.32 449.26L333.32 465.07L333.32 465.24L333.31 465.4L333.29 465.56L333.27 465.71L333.24 465.87L333.21 466.02L333.17 466.17L333.12 466.32L333.07 466.47L333.02 466.61L332.96 466.75L332.89 466.89L332.82 467.02L332.74 467.16L332.66 467.28L332.57 467.41L332.48 467.53L332.39 467.65L332.29 467.76L332.19 467.87L332.08 467.97L331.97 468.07L331.85 468.17L331.73 468.26L331.61 468.35L331.49 468.43L331.36 468.51L331.23 468.59L331.09 468.65L330.95 468.72L330.81 468.77L330.67 468.83L330.52 468.87L330.38 468.91L330.23 468.95L330.07 468.97L329.92 469L329.76 469.01L329.6 469.02L329.44 469.03L329.28 469.02L329.13 469.01L328.97 469L328.81 468.97L328.66 468.95L328.51 468.91L328.36 468.87L328.22 468.83L328.07 468.77L327.93 468.72L327.8 468.65L327.66 468.59L327.53 468.51L327.4 468.43L327.27 468.35L327.15 468.26L327.03 468.17L326.92 468.07L326.81 467.97L326.7 467.87L326.6 467.76L326.5 467.65L326.4 467.53L326.31 467.41L326.23 467.28L326.15 467.16L326.07 467.02L326 466.89L325.93 466.75L325.87 466.61L325.81 466.47L325.76 466.32L325.72 466.17L325.68 466.02L325.64 465.87L325.62 465.71L325.59 465.56L325.58 465.4L325.57 465.24L325.56 465.07L325.56 387.64L324.43 388.8L324.31 388.91L324.19 389.02L324.07 389.12L323.95 389.21L323.82 389.3L323.69 389.39L323.56 389.47L323.42 389.54L323.28 389.6L323.15 389.67L323 389.72L322.86 389.77L322.72 389.81L322.57 389.85L322.43 389.88L322.28 389.91L322.13 389.93L321.98 389.94L321.83 389.95L321.69 389.95L321.54 389.95L321.39 389.94L321.24 389.93L321.09 389.91L320.95 389.88L320.8 389.85L320.65 389.81L320.51 389.77L320.37 389.72L320.23 389.67L320.09 389.6L319.95 389.54L319.82 389.47L319.68 389.39L319.55 389.3L319.42 389.21L319.3 389.12L319.18 389.02L319.06 388.91L318.94 388.8L317.81 387.64L317.81 465.07L317.8 465.24L317.79 465.4L317.78 465.56L317.76 465.71L317.73 465.87L317.69 466.02L317.65 466.17L317.61 466.32L317.56 466.47L317.5 466.61L317.44 466.75L317.37 466.89L317.3 467.02L317.23 467.16L317.14 467.28L317.06 467.41L316.97 467.53L316.87 467.65L316.77 467.76L316.67 467.87L316.56 467.97L316.45 468.07L316.34 468.17L316.22 468.26L316.1 468.35L315.97 468.43L315.84 468.51L315.71 468.59L315.58 468.65L315.44 468.72L315.3 468.77L315.15 468.83L315.01 468.87L314.86 468.91L314.71 468.95L314.56 468.97L314.4 469L314.25 469.01L314.09 469.02L313.93 469.03L313.77 469.02L313.61 469.01L313.45 469L313.3 468.97L313.15 468.95L313 468.91L312.85 468.87L312.7 468.83L312.56 468.77L312.42 468.72L312.28 468.65L312.15 468.59L312.01 468.51L311.89 468.43L311.76 468.35L311.64 468.26L311.52 468.17L311.4 468.07L311.29 467.97L311.19 467.87L311.08 467.76L310.98 467.65L310.89 467.53L310.8 467.41L310.71 467.28L310.63 467.16L310.55 467.02L310.48 466.89L310.42 466.75L310.35 466.61L310.3 466.47L310.25 466.32L310.2 466.17L310.16 466.02L310.13 465.87L310.1 465.71L310.08 465.56L310.06 465.4L310.05 465.24L310.05 465.07L310.05 437.4L290.66 437.4L288.58 437.35L286.52 437.22L284.49 437.01L282.48 436.72L280.5 436.34L278.54 435.89L276.62 435.37L274.73 434.76L272.86 434.09L271.04 433.34L269.25 432.53L267.49 431.64L265.78 430.69L264.11 429.68L262.48 428.6L260.89 427.46L259.35 426.27L257.86 425.01L256.41 423.7L255.02 422.33L253.68 420.91L252.39 419.43L251.15 417.91L249.98 416.34L248.86 414.72L247.8 413.06L246.81 411.36L245.88 409.61L245.01 407.82L244.21 406L243.48 404.14L242.82 402.24L242.23 400.31L241.71 398.35L241.27 396.36L240.9 394.33L240.61 392.29L240.4 390.22L240.28 388.12L240.23 386L240.23 385.84L240.24 385.68L240.26 385.52L240.28 385.36L240.31 385.21L240.34 385.05L240.38 384.9L240.43 384.75L240.48 384.61L240.54 384.46L240.6 384.32L240.66 384.19L240.74 384.05L240.81 383.92L240.89 383.79L240.98 383.67L241.07 383.55L241.17 383.43L241.26 383.32L241.37 383.21L241.47 383.1L241.59 383L241.7 382.9L241.82 382.81L241.94 382.72L242.07 382.64L242.2 382.56L242.33 382.49L242.46 382.42L242.6 382.36L242.74 382.3L242.88 382.25L243.03 382.2L243.18 382.16L243.33 382.13L243.48 382.1L243.64 382.08L243.79 382.06L243.95 382.05L244.11 382.05L267.38 382.05L268.68 382.07L269.97 382.12L271.26 382.2L272.54 382.32L273.82 382.48L275.09 382.66L276.35 382.88L277.6 383.13L278.84 383.41L280.07 383.72L281.3 384.06L282.51 384.43L283.71 384.84L284.9 385.27L286.08 385.74L287.24 386.23L288.4 386.75L289.53 387.31L290.66 387.89L291.77 388.5L292.86 389.13L293.94 389.8L295 390.49L296.05 391.21L297.08 391.96L298.08 392.73L299.08 393.53L300.05 394.36L301 395.21L301.93 396.09L302.84 396.99L303.74 397.91L304.6 398.86L305.45 399.84L306.27 400.84L307.08 401.86L307.85 402.91L308.6 403.98L309.33 405.07L310.03 406.18L310.03 383.5L310 383.52L309.96 383.55L309.85 383.62L309.77 383.68L309.73 383.7L309.7 383.73L309.66 383.75L309.62 383.78L309.58 383.81L309.55 383.83L309.51 383.86L309.47 383.88L309.43 383.91L309.4 383.93L309.36 383.96L309.32 383.98L309.28 384.01L309.24 384.03L309.21 384.06L309.17 384.08L309.13 384.11L309.09 384.13L309.05 384.16L309.02 384.18L308.98 384.21L308.94 384.23L308.9 384.26L308.86 384.28L308.82 384.3L308.79 384.33L308.75 384.35L308.71 384.38L308.67 384.4L308.63 384.42L308.59 384.45L308.55 384.47L308.51 384.49L304.67 386.76L304.53 386.84L304.39 386.92L304.25 386.99L304.11 387.06L303.96 387.11L303.82 387.17L303.67 387.21L303.52 387.25L303.37 387.29L303.22 387.32L303.07 387.34L302.92 387.35L302.77 387.36L302.62 387.37L302.47 387.37L302.32 387.36L302.18 387.34L302.03 387.33L301.88 387.3L301.73 387.27L301.59 387.23L301.45 387.19L301.31 387.14L301.17 387.09L301.03 387.03L300.89 386.97L300.76 386.9L300.63 386.82L300.5 386.74L300.38 386.66L300.25 386.57L300.13 386.47L300.02 386.37L299.91 386.27L299.8 386.16L299.69 386.04L299.59 385.92L299.5 385.79L299.41 385.66L299.32 385.53L299.24 385.39L296.94 381.33L296.88 381.22L296.82 381.11L296.76 381L296.7 380.89L296.64 380.78L296.58 380.67L296.52 380.56L296.46 380.44L296.4 380.33L296.35 380.22L296.29 380.11L296.23 379.99L296.18 379.88L296.12 379.77L296.07 379.65L296.02 379.54L295.96 379.42L295.91 379.31L295.86 379.19L295.81 379.08L295.75 378.96L295.7 378.85L295.65 378.73L295.6 378.61L295.55 378.5L295.51 378.38L295.46 378.26L295.41 378.15L295.36 378.03L295.32 377.91L295.27 377.79L295.23 377.68L295.18 377.56L295.14 377.44L295.09 377.32L295.05 377.2L295.01 377.08L294.97 376.96L294.92 376.84L294.88 376.72L294.77 376.78L294.66 376.83L294.55 376.89L294.44 376.94L294.32 376.99L294.21 377.05L294.1 377.1L293.99 377.15L293.87 377.2L293.76 377.25L293.65 377.3L293.53 377.35L293.42 377.4L293.3 377.45L293.19 377.49L293.07 377.54L292.96 377.59L292.84 377.63L292.73 377.68L292.61 377.73L292.5 377.77L292.38 377.81L292.27 377.86L292.15 377.9L292.03 377.94L291.92 377.98L291.8 378.03L291.68 378.07L291.57 378.11L291.45 378.15L291.33 378.19L291.21 378.22L291.09 378.26L290.98 378.3L290.86 378.34L290.74 378.37L290.62 378.41L290.5 378.45L290.38 378.48L290.26 378.51L285.83 379.72L285.8 379.73L285.78 379.74L285.75 379.74L285.73 379.75L285.7 379.76L285.68 379.76L285.65 379.77L285.63 379.77L285.6 379.78L285.58 379.78L285.55 379.79L285.53 379.79L285.5 379.8L285.48 379.8L285.45 379.81L285.43 379.81L285.4 379.82L285.38 379.82L285.35 379.82L285.33 379.83L285.3 379.83L285.28 379.83L285.25 379.84L285.23 379.84L285.2 379.84L285.18 379.85L285.15 379.85L285.13 379.85L285.1 379.85L285.08 379.85L285.05 379.86L285.03 379.86L285 379.86L284.97 379.86L284.95 379.86L284.92 379.86L284.9 379.86L284.87 379.86L284.85 379.86L284.82 379.86L284.69 379.86L284.56 379.85L284.43 379.84L284.3 379.83L284.18 379.81L284.05 379.78L283.92 379.76L283.8 379.72L283.68 379.69L283.56 379.65L283.44 379.6L283.32 379.56L283.21 379.5L283.1 379.45L282.98 379.39L282.87 379.33L282.77 379.26L282.66 379.19L282.56 379.12L282.46 379.04L282.36 378.97L282.27 378.88L282.17 378.8L282.08 378.71L282 378.62L281.91 378.52L281.83 378.43L281.75 378.33L281.68 378.22L281.6 378.12L281.54 378.01L281.47 377.9L281.41 377.79L281.35 377.67L281.29 377.55L281.24 377.43L281.19 377.31L281.15 377.18L281.11 377.06L281.08 376.93L279.89 372.41L279.86 372.28L279.83 372.16L279.8 372.04L279.77 371.92L279.74 371.79L279.71 371.67L279.69 371.55L279.66 371.42L279.64 371.3L279.61 371.18L279.59 371.05L279.56 370.93L279.54 370.81L279.51 370.68L279.49 370.56L279.47 370.43L279.45 370.31L279.43 370.19L279.41 370.06L279.39 369.94L279.37 369.81L279.35 369.69L279.33 369.56L279.31 369.44L279.3 369.31L279.28 369.19L279.27 369.06L279.25 368.94L279.24 368.81L279.22 368.69L279.21 368.56L279.2 368.44L279.18 368.31L279.17 368.19L279.16 368.06L279.15 367.94L279.14 367.81L279.13 367.68L279.12 367.56L279.11 367.43L278.99 367.46L278.87 367.48L278.75 367.5L278.62 367.52L278.5 367.55L278.38 367.57L278.26 367.59L278.13 367.61L278.01 367.63L277.89 367.64L277.76 367.66L277.64 367.68L277.52 367.7L277.39 367.71L277.27 367.73L277.15 367.74L277.02 367.76L276.9 367.77L276.78 367.78L276.65 367.8L276.53 367.81L276.41 367.82L276.28 367.83L276.16 367.84L276.03 367.85L275.91 367.86L275.79 367.87L275.66 367.88L275.54 367.88L275.41 367.89L275.29 367.9L275.17 367.9L275.04 367.91L274.92 367.91L274.79 367.91L274.67 367.92L274.54 367.92L274.42 367.92L274.3 367.92L274.17 367.92L269.57 367.92L269.41 367.92L269.26 367.91L269.1 367.89L268.95 367.87L268.79 367.84L268.64 367.81L268.49 367.77L268.35 367.72L268.21 367.67L268.06 367.61L267.93 367.55L267.79 367.48L267.66 367.41L267.53 367.33L267.41 367.25L267.28 367.16L267.17 367.07L267.05 366.97L266.94 366.87L266.83 366.76L266.73 366.66L266.63 366.54L266.53 366.42L266.44 366.3L266.36 366.18L266.28 366.05L266.2 365.92L266.13 365.79L266.06 365.65L266 365.51L265.94 365.36L265.89 365.22L265.85 365.07L265.81 364.92L265.77 364.77L265.75 364.61L265.72 364.45L265.71 364.29L265.7 364.13L265.7 363.97L265.7 359.28L265.7 359.16L265.7 359.03L265.7 358.9L265.7 358.78L265.7 358.65L265.71 358.52L265.71 358.4L265.72 358.27L265.72 358.14L265.73 358.02L265.73 357.89L265.74 357.76L265.75 357.64L265.76 357.51L265.77 357.39L265.78 357.26L265.79 357.13L265.8 357.01L265.81 356.88L265.82 356.75L265.83 356.63L265.84 356.5L265.86 356.38L265.87 356.25L265.89 356.12L265.9 356L265.92 355.87L265.93 355.75L265.95 355.62L265.97 355.5L265.99 355.37L266.01 355.25L266.03 355.12L266.05 355L266.07 354.87L266.09 354.75L266.11 354.62L266.13 354.5L266.15 354.37L266.18 354.25L266.05 354.24L265.93 354.23L265.81 354.22L265.68 354.21L265.56 354.2L265.44 354.19L265.31 354.18L265.19 354.16L265.07 354.15L264.94 354.14L264.82 354.12L264.7 354.11L264.58 354.09L264.45 354.07L264.33 354.06L264.21 354.04L264.09 354.02L263.96 354L263.84 353.99L263.72 353.97L263.6 353.95L263.47 353.93L263.35 353.9L263.23 353.88L263.11 353.86L262.99 353.84L262.87 353.81L262.75 353.79L262.62 353.77L262.5 353.74L262.38 353.71L262.26 353.69L262.14 353.66L262.02 353.63L261.9 353.61L261.78 353.58L261.66 353.55L261.54 353.52L261.42 353.49L261.3 353.46L256.86 352.25L256.71 352.2L256.55 352.15L256.41 352.09L256.26 352.03L256.12 351.96L255.99 351.89L255.86 351.81L255.73 351.73L255.6 351.64L255.48 351.55L255.36 351.45L255.25 351.35L255.14 351.24L255.04 351.13L254.94 351.02L254.84 350.9L254.75 350.78L254.66 350.66L254.58 350.53L254.5 350.4L254.43 350.27L254.37 350.14L254.3 350L254.25 349.86L254.2 349.71L254.15 349.57L254.11 349.42L254.07 349.27L254.04 349.12L254.02 348.97L254 348.82L253.99 348.66L253.98 348.51L253.98 348.35L253.99 348.19L254 348.04L254.02 347.88L254.05 347.72L254.08 347.56L254.12 347.4L255.3 342.88L255.34 342.76L255.37 342.64L255.41 342.52L255.44 342.4L255.48 342.28L255.51 342.15L255.55 342.03L255.59 341.91L255.63 341.79L255.66 341.67L255.7 341.55L255.74 341.43L255.78 341.32L255.82 341.2L255.86 341.08L255.91 340.96L255.95 340.84L255.99 340.72L256.03 340.6L256.08 340.49L256.12 340.37L256.17 340.25L256.21 340.13L256.26 340.02L256.3 339.9L256.35 339.78L256.4 339.67L256.45 339.55L256.49 339.43L256.54 339.32L256.59 339.2L256.64 339.09L256.69 338.97L256.74 338.86L256.8 338.74L256.85 338.63L256.9 338.51L256.95 338.4L257.01 338.29L257.06 338.17L256.94 338.13L256.83 338.09L256.71 338.05L256.59 338L256.48 337.96L256.36 337.91L256.24 337.87L256.13 337.82L256.01 337.78L255.9 337.73L255.78 337.68L255.66 337.63L255.55 337.59L255.43 337.54L255.32 337.49L255.21 337.44L255.09 337.39L254.98 337.34L254.86 337.28L254.75 337.23L254.64 337.18L254.53 337.13L254.41 337.07L254.3 337.02L254.19 336.96L254.08 336.91L253.96 336.85L253.85 336.79L253.74 336.74L253.63 336.68L253.52 336.62L253.41 336.56L253.3 336.5L253.19 336.44L253.08 336.38L252.97 336.32L252.86 336.26L252.76 336.2L252.65 336.14L252.54 336.07L248.69 333.82L248.55 333.73L248.42 333.65L248.29 333.56L248.16 333.47L248.04 333.37L247.92 333.27L247.8 333.16L247.7 333.05L247.59 332.93L247.49 332.82L247.4 332.69L247.31 332.57L247.23 332.44L247.15 332.31L247.08 332.18L247.01 332.04L246.95 331.9L246.89 331.76L246.84 331.62L246.79 331.48L246.75 331.33L246.71 331.18L246.68 331.04L246.66 330.89L246.64 330.73L246.63 330.58L246.62 330.43L246.62 330.28L246.62 330.13L246.63 329.97L246.65 329.82L246.67 329.67L246.7 329.51L246.73 329.36L246.77 329.21L246.82 329.06L246.87 328.91L246.93 328.77L246.99 328.62L247.06 328.47L247.14 328.33L249.44 324.28L249.5 324.17L249.56 324.06L249.63 323.95L249.69 323.85L249.76 323.74L249.82 323.63L249.88 323.53L249.95 323.42L250.02 323.31L250.08 323.21L250.15 323.1L250.22 323L250.29 322.89L250.35 322.79L250.42 322.68L250.49 322.58L250.56 322.48L250.63 322.37L250.7 322.27L250.77 322.17L250.85 322.07L250.92 321.96L250.99 321.86L251.06 321.76L251.14 321.66L251.21 321.56L251.29 321.46L251.36 321.36L251.44 321.26L251.51 321.16L251.59 321.07L251.67 320.97L251.74 320.87L251.82 320.77L251.9 320.68L251.98 320.58L252.06 320.48L252.14 320.39L252.22 320.29L252.3 320.2L252.2 320.12L252.1 320.05L251.99 319.98L251.89 319.9L251.79 319.83L251.69 319.76L251.59 319.68L251.49 319.61L251.4 319.53L251.3 319.46L251.2 319.38L251.1 319.3L251 319.22L250.91 319.15L250.81 319.07L250.71 318.99L250.62 318.91L250.52 318.83L250.42 318.75L250.33 318.67L250.23 318.59L250.14 318.51L250.04 318.43L249.95 318.35L249.86 318.26L249.76 318.18L249.67 318.1L249.58 318.01L249.49 317.93L249.39 317.85L249.3 317.76L249.21 317.67L249.12 317.59L249.03 317.5L248.94 317.42L248.85 317.33L248.76 317.24L248.67 317.15L248.59 317.07L248.5 316.98L245.25 313.66L245.14 313.55L245.03 313.43L244.93 313.3L244.84 313.17L244.75 313.04L244.67 312.91L244.59 312.78L244.52 312.64L244.45 312.5L244.39 312.36L244.34 312.21L244.29 312.07L244.25 311.92L244.21 311.77L244.18 311.62L244.16 311.47L244.14 311.32L244.12 311.17L244.11 311.02L244.11 310.87L244.11 310.72L244.12 310.57L244.14 310.41L244.16 310.26L244.18 310.11L244.21 309.97L244.25 309.82L244.29 309.67L244.34 309.53L244.39 309.38L244.45 309.24L244.52 309.1L244.59 308.96L244.67 308.83L244.75 308.69L244.84 308.56L244.93 308.44L245.03 308.31L245.14 308.19L245.25 308.07L248.5 304.76L248.59 304.67L248.67 304.58L248.76 304.5L248.85 304.41L248.94 304.32L249.03 304.24L249.12 304.15L249.22 304.07L249.31 303.98L249.4 303.9L249.49 303.81L249.58 303.73L249.68 303.65L249.77 303.56L249.86 303.48L249.96 303.4L250.05 303.32L250.15 303.24L250.24 303.16L250.34 303.08L250.43 303L250.53 302.92L250.62 302.84L250.72 302.76L250.82 302.68L250.91 302.6L251.01 302.53L251.11 302.45L251.21 302.37L251.31 302.3L251.41 302.22L251.51 302.15L251.61 302.07L251.71 302L251.81 301.92L251.91 301.85L252.01 301.78L252.11 301.71L252.21 301.63L252.31 301.56L252.23 301.47L252.15 301.37L252.07 301.27L251.99 301.18L251.91 301.08L251.83 300.98L251.76 300.89L251.68 300.79L251.6 300.69L251.52 300.59L251.45 300.49L251.37 300.39L251.3 300.29L251.22 300.19L251.15 300.09L251.07 299.99L251 299.89L250.93 299.78L250.85 299.68L250.78 299.58L250.71 299.48L250.64 299.37L250.57 299.27L250.5 299.17L250.43 299.06L250.36 298.96L250.29 298.85L250.22 298.75L250.15 298.64L250.09 298.54L250.02 298.43L249.95 298.32L249.89 298.22L249.82 298.11L249.76 298L249.69 297.89L249.63 297.79L249.56 297.68L249.5 297.57L249.44 297.46L247.22 293.54L247.14 293.4L247.06 293.26L246.99 293.11L246.92 292.97L246.87 292.82L246.81 292.67L246.77 292.52L246.73 292.37L246.7 292.22L246.67 292.07L246.65 291.91L246.63 291.76L246.62 291.61L246.62 291.45L246.62 291.3L246.63 291.15L246.64 291L246.66 290.85L246.68 290.7L246.71 290.55L246.75 290.4L246.79 290.26L246.84 290.11L246.89 289.97L246.95 289.83L247.01 289.69L247.08 289.56L247.15 289.42L247.23 289.29L247.31 289.16L247.4 289.04L247.5 288.92L247.6 288.8L247.7 288.69L247.81 288.58L247.92 288.47L248.04 288.37L248.16 288.27L248.29 288.18L248.42 288.09L248.56 288L252.54 285.66L252.65 285.6L252.76 285.54L252.86 285.47L252.97 285.41L253.08 285.35L253.19 285.29L253.3 285.23L253.41 285.17L253.52 285.11L253.63 285.06L253.74 285L253.85 284.94L253.97 284.89L254.08 284.83L254.19 284.77L254.3 284.72L254.41 284.67L254.53 284.61L254.64 284.56L254.75 284.51L254.87 284.45L254.98 284.4L255.09 284.35L255.21 284.3L255.32 284.25L255.44 284.2L255.55 284.15L255.66 284.1L255.78 284.06L255.9 284.01L256.01 283.96L256.13 283.92L256.24 283.87L256.36 283.82L256.48 283.78L256.59 283.74L256.71 283.69L256.83 283.65L256.94 283.61L257.06 283.57L257.01 283.45L256.95 283.34L256.9 283.22L256.85 283.11L256.8 283L256.74 282.88L256.69 282.77L256.64 282.65L256.59 282.54L256.54 282.42L256.49 282.3L256.45 282.19L256.4 282.07L256.35 281.96L256.3 281.84L256.26 281.72L256.21 281.6L256.17 281.49L256.12 281.37L256.08 281.25L256.03 281.13L255.99 281.02L255.95 280.9L255.91 280.78L255.86 280.66L255.82 280.54L255.78 280.42L255.74 280.3L255.7 280.18L255.66 280.06L255.63 279.94L255.59 279.82L255.55 279.7L255.51 279.58L255.48 279.46L255.44 279.34L255.41 279.22L255.37 279.1L255.34 278.98L255.3 278.86L254.12 274.33L254.08 274.18L254.05 274.02L254.02 273.86L254 273.7L253.99 273.54L253.98 273.39L253.98 273.23L253.99 273.07L254 272.92L254.02 272.77L254.04 272.61L254.07 272.46L254.11 272.32L254.15 272.17L254.2 272.02L254.25 271.88L254.3 271.74L254.37 271.6L254.43 271.47L254.5 271.33L254.58 271.2L254.66 271.08L254.75 270.95L254.84 270.83L254.94 270.72L255.04 270.6L255.14 270.49L255.25 270.39L255.36 270.29L255.48 270.19L255.6 270.1L255.73 270.01L255.86 269.93L255.99 269.85L256.13 269.78L256.27 269.71L256.41 269.64L256.56 269.59L256.71 269.54L256.86 269.49L261.3 268.28L261.42 268.25L261.54 268.22L261.66 268.19L261.78 268.16L261.9 268.13L262.02 268.1L262.14 268.08L262.26 268.05L262.38 268.02L262.5 268L262.62 267.97L262.75 267.95L262.87 267.92L262.99 267.9L263.11 267.88L263.23 267.86L263.35 267.83L263.47 267.81L263.6 267.79L263.72 267.77L263.84 267.75L263.96 267.73L264.09 267.72L264.21 267.7L264.33 267.68L264.45 267.66L264.58 267.65L264.7 267.63L264.82 267.62L264.94 267.6L265.07 267.59L265.19 267.58L265.31 267.56L265.44 267.55L265.56 267.54L265.68 267.53L265.81 267.52L265.93 267.51L266.05 267.5L266.18 267.49L266.15 267.37L266.13 267.24L266.11 267.12L266.09 266.99L266.07 266.87L266.05 266.74L266.03 266.62L266.01 266.49L265.99 266.37L265.97 266.24L265.95 266.12L265.93 265.99L265.92 265.86L265.9 265.74L265.89 265.61L265.87 265.49L265.86 265.36L265.84 265.24L265.83 265.11L265.82 264.98L265.81 264.86L265.8 264.73L265.79 264.61L265.78 264.48L265.77 264.35L265.76 264.23L265.75 264.1L265.74 263.97L265.73 263.85L265.73 263.72L265.72 263.59L265.72 263.47L265.71 263.34L265.71 263.21L265.7 263.09L265.7 262.96L265.7 262.83L265.7 262.71L265.7 262.58L265.7 262.45L265.7 257.77L265.7 257.61L265.71 257.44L265.72 257.29L265.75 257.13L265.77 256.97L265.81 256.82L265.85 256.67L265.89 256.52L265.94 256.37L266 256.23L266.06 256.09L266.13 255.95L266.2 255.82L266.28 255.69L266.36 255.56L266.44 255.43L266.53 255.31L266.63 255.2L266.73 255.08L266.83 254.97L266.94 254.87L267.05 254.77L267.17 254.67L267.28 254.58L267.41 254.49L267.53 254.41L267.66 254.33L267.79 254.26L267.93 254.19L268.06 254.13L268.21 254.07L268.35 254.02L268.49 253.97L268.64 253.93L268.79 253.9L268.95 253.87L269.1 253.84L269.26 253.83L269.41 253.82L269.57 253.82L274.19 253.82L274.31 253.82L274.44 253.82L274.56 253.82L274.68 253.82L274.81 253.82L274.93 253.83L275.06 253.83L275.18 253.84L275.31 253.84L275.43 253.85L275.55 253.86L275.68 253.86L275.8 253.87L275.93 253.88L276.05 253.89L276.17 253.9L276.3 253.91L276.42 253.92L276.54 253.93L276.67 253.94L276.79 253.95L276.92 253.97L277.04 253.98L277.16 254L277.29 254.01L277.41 254.03L277.53 254.04L277.66 254.06L277.78 254.08L277.9 254.09L278.02 254.11L278.15 254.13L278.27 254.15L278.39 254.17L278.52 254.19L278.64 254.21L278.76 254.24L278.88 254.26L279.01 254.28L279.13 254.31L279.14 254.18L279.15 254.05L279.15 253.93L279.16 253.8L279.18 253.68L279.19 253.55L279.2 253.43L279.21 253.3L279.22 253.18L279.24 253.05L279.25 252.92L279.27 252.8L279.28 252.67L279.3 252.55L279.31 252.42L279.33 252.3L279.35 252.17L279.37 252.05L279.38 251.93L279.4 251.8L279.42 251.68L279.44 251.55L279.46 251.43L279.49 251.3L279.51 251.18L279.53 251.06L279.55 250.93L279.58 250.81L279.6 250.68L279.63 250.56L279.65 250.44L279.68 250.31L279.7 250.19L279.73 250.07L279.76 249.95L279.79 249.82L279.81 249.7L279.84 249.58L279.87 249.45L279.9 249.33L281.09 244.81L281.14 244.65L281.19 244.5L281.24 244.35L281.3 244.2L281.37 244.06L281.44 243.92L281.52 243.79L281.6 243.65L281.69 243.53L281.78 243.4L281.87 243.28L281.97 243.17L282.07 243.06L282.18 242.95L282.29 242.85L282.41 242.75L282.53 242.66L282.65 242.57L282.77 242.49L282.9 242.41L283.03 242.33L283.16 242.27L283.3 242.2L283.44 242.15L283.58 242.09L283.72 242.05L283.86 242.01L284.01 241.97L284.16 241.94L284.3 241.92L284.46 241.9L284.61 241.89L284.76 241.88L284.91 241.88L285.07 241.89L285.22 241.9L285.38 241.92L285.53 241.94L285.69 241.98L285.84 242.01L290.27 243.22L290.39 243.26L290.51 243.29L290.63 243.33L290.75 243.36L290.86 243.4L290.98 243.44L291.1 243.47L291.22 243.51L291.34 243.55L291.46 243.59L291.58 243.63L291.69 243.67L291.81 243.71L291.93 243.75L292.05 243.79L292.16 243.84L292.28 243.88L292.4 243.92L292.51 243.97L292.63 244.01L292.75 244.06L292.86 244.1L292.98 244.15L293.09 244.2L293.21 244.24L293.32 244.29L293.44 244.34L293.55 244.39L293.67 244.44L293.78 244.49L293.89 244.54L294.01 244.59L294.12 244.64L294.24 244.69L294.35 244.74L294.46 244.8L294.57 244.85L294.69 244.91L294.8 244.96L294.91 245.01L294.95 244.9L294.99 244.78L295.04 244.66L295.08 244.54L295.12 244.42L295.17 244.3L295.21 244.18L295.25 244.06L295.3 243.94L295.35 243.83L295.39 243.71L295.44 243.59L295.49 243.47L295.53 243.36L295.58 243.24L295.63 243.12L295.68 243.01L295.73 242.89L295.78 242.78L295.83 242.66L295.89 242.55L295.94 242.43L295.99 242.32L296.04 242.2L296.1 242.09L296.15 241.97L296.21 241.86L296.26 241.75L296.32 241.63L296.38 241.52L296.43 241.41L296.49 241.29L296.55 241.18L296.61 241.07L296.67 240.96L296.73 240.85L296.79 240.74L296.85 240.63L296.91 240.52L296.97 240.41L299.19 236.49L299.27 236.34L299.35 236.2L299.44 236.07L299.53 235.94L299.62 235.82L299.72 235.69L299.83 235.58L299.94 235.47L300.05 235.36L300.17 235.26L300.29 235.17L300.41 235.08L300.53 234.99L300.66 234.91L300.79 234.84L300.92 234.77L301.06 234.71L301.2 234.65L301.34 234.59L301.48 234.55L301.62 234.5L301.77 234.47L301.91 234.44L302.06 234.41L302.21 234.39L302.36 234.38L302.51 234.37L302.66 234.37L302.81 234.37L302.96 234.38L303.11 234.4L303.26 234.42L303.4 234.45L303.55 234.48L303.7 234.53L303.85 234.57L303.99 234.63L304.14 234.68L304.28 234.75L304.42 234.82L304.56 234.9L308.54 237.25L308.65 237.31L308.75 237.37L308.86 237.44L308.97 237.5L309.07 237.57L309.18 237.64L309.28 237.7L309.39 237.77L309.49 237.84L309.6 237.9L309.7 237.97L309.81 238.04L309.91 238.11L310.01 238.18L310.11 238.25L310.22 238.32L310.32 238.4L310.42 238.47L310.52 238.54L310.62 238.61L310.72 238.69L310.82 238.76L310.92 238.84L311.02 238.91L311.12 238.99L311.22 239.06L311.32 239.14L311.42 239.22L311.52 239.29L311.61 239.37L311.71 239.45L311.81 239.53L311.9 239.61L312 239.69L312.09 239.77L312.19 239.85L312.28 239.93L312.38 240.01L312.47 240.09L312.57 240.18L312.64 240.07L312.71 239.97L312.78 239.86L312.85 239.76L312.92 239.66L312.99 239.56L313.07 239.45L313.14 239.35L313.21 239.25L313.29 239.15L313.36 239.05L313.44 238.95L313.51 238.85L313.59 238.75L313.66 238.65L313.74 238.55L313.82 238.45L313.9 238.36L313.97 238.26L314.05 238.16L314.13 238.06L314.21 237.97L314.29 237.87L314.37 237.77L314.45 237.68L314.53 237.58L314.61 237.49L314.69 237.39L314.78 237.3L314.86 237.2L314.94 237.11L315.02 237.02L315.11 236.92L315.19 236.83L315.28 236.74L315.36 236.65L315.45 236.56L315.53 236.47L315.62 236.38L315.7 236.29L318.96 232.97L319.07 232.86L319.19 232.75L319.31 232.65L319.44 232.56L319.56 232.47L319.69 232.38L319.83 232.3L319.96 232.23L320.1 232.17L320.24 232.1L320.38 232.05L320.52 232L320.67 231.96L320.81 231.92L320.96 231.89L321.1 231.86L321.25 231.84L321.4 231.83L321.55 231.82L321.7 231.81L321.85 231.82L322 231.83ZM374.7 401.84L373.41 401.9L372.13 402L370.86 402.14L369.6 402.31L368.35 402.53L367.11 402.78L365.88 403.07L364.66 403.39L363.46 403.75L362.27 404.14L361.09 404.57L359.93 405.03L358.78 405.53L357.65 406.06L356.54 406.62L355.44 407.22L354.36 407.85L353.3 408.51L352.26 409.2L351.24 409.92L350.24 410.67L349.26 411.45L348.3 412.25L347.37 413.09L346.46 413.96L345.57 414.85L344.71 415.77L343.87 416.72L343.06 417.69L342.28 418.69L341.52 419.72L340.8 420.77L340.1 421.84L339.43 422.94L338.79 424.06L338.18 425.21L337.61 426.37L337.06 427.56L336.55 428.78L337.27 428.06L337.99 427.36L338.73 426.68L339.48 426.01L340.24 425.36L341.01 424.73L341.79 424.11L342.59 423.51L343.39 422.93L344.21 422.36L345.03 421.81L345.87 421.27L346.71 420.76L347.56 420.26L348.43 419.77L349.3 419.31L350.18 418.86L351.06 418.43L351.96 418.02L352.86 417.63L353.77 417.25L354.69 416.89L355.61 416.55L356.54 416.23L357.48 415.93L358.42 415.65L359.37 415.38L360.33 415.13L361.28 414.91L362.25 414.7L363.22 414.51L364.19 414.34L365.17 414.18L366.15 414.05L367.14 413.94L368.13 413.85L369.12 413.78L370.11 413.72L371.11 413.69L372.11 413.68L372.27 413.68L372.43 413.69L372.58 413.71L372.74 413.73L372.89 413.76L373.04 413.79L373.19 413.83L373.34 413.88L373.48 413.93L373.62 413.99L373.76 414.05L373.89 414.12L374.02 414.19L374.15 414.27L374.28 414.35L374.4 414.44L374.52 414.53L374.63 414.63L374.75 414.73L374.85 414.84L374.96 414.94L375.06 415.06L375.15 415.17L375.24 415.3L375.33 415.42L375.41 415.55L375.48 415.68L375.56 415.81L375.62 415.95L375.68 416.09L375.74 416.23L375.79 416.38L375.84 416.53L375.88 416.68L375.91 416.83L375.94 416.99L375.96 417.15L375.98 417.31L375.99 417.47L375.99 417.63L375.99 417.79L375.98 417.95L375.96 418.11L375.94 418.27L375.91 418.43L375.88 418.58L375.84 418.73L375.79 418.88L375.74 419.03L375.68 419.17L375.62 419.31L375.56 419.45L375.48 419.58L375.41 419.71L375.33 419.84L375.24 419.97L375.15 420.09L375.06 420.2L374.96 420.32L374.85 420.43L374.75 420.53L374.63 420.63L374.52 420.73L374.4 420.82L374.28 420.91L374.15 420.99L374.02 421.07L373.89 421.14L373.76 421.21L373.62 421.27L373.48 421.33L373.34 421.38L373.19 421.43L373.04 421.47L372.89 421.5L372.74 421.53L372.58 421.55L372.43 421.57L372.27 421.58L372.11 421.58L371.03 421.6L369.96 421.65L368.89 421.72L367.82 421.82L366.76 421.94L365.71 422.09L364.66 422.27L363.62 422.48L362.59 422.71L361.56 422.96L360.54 423.24L359.53 423.55L358.53 423.88L357.54 424.23L356.56 424.61L355.59 425.02L354.62 425.45L353.67 425.9L352.73 426.37L351.81 426.87L350.89 427.39L349.99 427.94L349.1 428.5L348.23 429.09L347.36 429.7L346.52 430.34L345.68 430.99L344.87 431.67L344.06 432.36L343.28 433.08L342.51 433.82L341.76 434.58L341.02 435.36L340.31 436.16L339.61 436.97L338.93 437.81L338.27 438.67L337.62 439.54L337 440.44L336.4 441.35L352.72 441.35L354.36 441.32L356 441.22L357.61 441.06L359.21 440.84L360.79 440.56L362.35 440.23L363.89 439.83L365.41 439.38L366.9 438.87L368.37 438.31L369.82 437.7L371.24 437.03L372.62 436.31L373.99 435.55L375.32 434.73L376.61 433.87L377.88 432.96L379.11 432.01L380.31 431.01L381.47 429.97L382.59 428.88L383.68 427.76L384.72 426.6L385.72 425.39L386.68 424.15L387.6 422.88L388.47 421.57L389.3 420.22L390.08 418.84L390.81 417.43L391.49 415.99L392.13 414.52L392.71 413.02L393.23 411.49L393.7 409.94L394.12 408.36L394.48 406.76L394.78 405.13L395.03 403.48L395.21 401.82L375.99 401.82L374.7 401.84ZM248.35 391.62L248.59 393.27L248.89 394.9L249.25 396.5L249.67 398.08L250.14 399.63L250.67 401.16L251.25 402.66L251.88 404.13L252.56 405.57L253.29 406.98L254.07 408.36L254.9 409.71L255.77 411.02L256.69 412.29L257.65 413.53L258.65 414.74L259.7 415.9L260.78 417.02L261.9 418.11L263.06 419.15L264.26 420.15L265.49 421.1L266.76 422.01L268.06 422.87L269.39 423.69L270.75 424.45L272.14 425.17L273.55 425.84L275 426.45L276.47 427.01L277.96 427.52L279.48 427.97L281.02 428.36L282.58 428.7L284.16 428.98L285.76 429.2L287.38 429.36L289.01 429.46L290.66 429.49L306.97 429.49L306.37 428.58L305.75 427.68L305.11 426.81L304.44 425.95L303.76 425.11L303.07 424.29L302.35 423.5L301.61 422.72L300.86 421.96L300.09 421.22L299.31 420.5L298.51 419.81L297.69 419.13L296.86 418.48L296.01 417.84L295.15 417.23L294.27 416.64L293.38 416.08L292.48 415.53L291.56 415.01L290.64 414.51L289.7 414.04L288.75 413.59L287.79 413.16L286.81 412.75L285.83 412.37L284.84 412.02L283.84 411.69L282.83 411.38L281.81 411.1L280.79 410.84L279.75 410.61L278.71 410.41L277.66 410.23L276.61 410.08L275.55 409.95L274.49 409.86L273.42 409.78L272.34 409.74L271.26 409.72L271.1 409.72L270.94 409.71L270.79 409.69L270.63 409.67L270.48 409.64L270.33 409.61L270.18 409.57L270.04 409.52L269.89 409.47L269.75 409.41L269.61 409.35L269.48 409.28L269.35 409.21L269.22 409.13L269.09 409.05L268.97 408.96L268.85 408.87L268.74 408.77L268.63 408.67L268.52 408.57L268.42 408.46L268.32 408.34L268.22 408.23L268.13 408.1L268.05 407.98L267.96 407.85L267.89 407.72L267.82 407.59L267.75 407.45L267.69 407.31L267.63 407.17L267.58 407.02L267.54 406.87L267.5 406.72L267.46 406.57L267.43 406.41L267.41 406.25L267.4 406.09L267.39 405.93L267.38 405.77L267.39 405.61L267.4 405.45L267.41 405.29L267.43 405.13L267.46 404.97L267.5 404.82L267.54 404.67L267.58 404.52L267.63 404.37L267.69 404.23L267.75 404.09L267.82 403.95L267.89 403.82L267.96 403.69L268.05 403.56L268.13 403.44L268.22 403.31L268.32 403.2L268.42 403.08L268.52 402.97L268.63 402.87L268.74 402.77L268.85 402.67L268.97 402.58L269.09 402.49L269.22 402.41L269.35 402.33L269.48 402.26L269.61 402.19L269.75 402.13L269.89 402.07L270.04 402.02L270.18 401.97L270.33 401.93L270.48 401.9L270.63 401.87L270.79 401.85L270.94 401.83L271.1 401.82L271.26 401.82L272.26 401.83L273.26 401.86L274.25 401.92L275.25 401.99L276.24 402.08L277.22 402.19L278.2 402.32L279.18 402.48L280.16 402.65L281.12 402.84L282.09 403.05L283.05 403.27L284 403.52L284.95 403.79L285.9 404.07L286.83 404.37L287.76 404.7L288.69 405.03L289.6 405.39L290.51 405.77L291.42 406.16L292.31 406.57L293.2 407L294.08 407.45L294.95 407.92L295.81 408.4L296.66 408.9L297.51 409.42L298.34 409.95L299.17 410.5L299.98 411.07L300.79 411.65L301.58 412.26L302.36 412.87L303.14 413.51L303.9 414.16L304.65 414.83L305.38 415.51L306.11 416.21L306.82 416.92L306.31 415.71L305.77 414.52L305.19 413.35L304.59 412.21L303.95 411.09L303.28 409.99L302.58 408.91L301.85 407.86L301.1 406.84L300.32 405.84L299.51 404.86L298.67 403.92L297.81 402.99L296.92 402.1L296.01 401.24L295.08 400.4L294.12 399.59L293.14 398.81L292.14 398.06L291.12 397.34L290.08 396.65L289.02 395.99L287.94 395.36L286.84 394.77L285.72 394.2L284.59 393.67L283.45 393.17L282.28 392.71L281.11 392.28L279.91 391.89L278.71 391.53L277.49 391.21L276.26 390.92L275.02 390.67L273.77 390.45L272.51 390.28L271.24 390.14L269.96 390.04L268.68 389.98L267.38 389.96L248.16 389.96L248.35 391.62ZM325.34 362.17L324.12 362.25L322.9 362.3L321.69 362.32L320.47 362.3L319.25 362.25L318.03 362.17L316.82 362.05L315.61 361.91L315.43 363.2L315.33 364.5L315.31 365.8L315.37 367.09L315.52 368.38L315.74 369.66L316.05 370.91L316.43 372.15L316.89 373.37L317.43 374.56L317.44 374.58L317.45 374.6L317.47 374.63L317.48 374.65L317.49 374.67L317.49 374.69L317.5 374.71L317.51 374.73L317.52 374.75L317.81 375.32L318.12 375.87L318.45 376.42L318.79 376.95L319.15 377.47L319.53 377.98L319.92 378.48L320.32 378.96L320.74 379.43L321.18 379.89L321.69 380.41L322.19 379.89L322.63 379.43L323.05 378.96L323.45 378.48L323.84 377.98L324.22 377.47L324.58 376.95L324.92 376.42L325.25 375.87L325.56 375.32L325.85 374.75L325.86 374.73L325.87 374.71L325.88 374.69L325.89 374.67L325.89 374.65L325.9 374.63L325.92 374.6L325.93 374.58L325.94 374.56L326.48 373.37L326.94 372.15L327.33 370.91L327.63 369.66L327.85 368.38L328 367.09L328.06 365.8L328.05 364.5L327.95 363.2L327.76 361.91L326.55 362.05L325.34 362.17ZM335.72 367.77L335.54 369.38L335.27 370.98L334.91 372.56L334.45 374.12L335.09 374.8L335.76 375.44L336.46 376.05L337.19 376.63L337.94 377.17L338.72 377.68L339.34 378.04L339.7 377.41L340.13 376.57L340.52 375.7L340.87 374.82L341.17 373.92L341.43 373.01L341.65 372.09L340.51 370.97L339.43 369.8L338.42 368.56L337.48 367.27L336.6 365.92L335.81 364.53L335.81 366.15L335.72 367.77ZM305.94 367.27L305 368.56L303.98 369.79L302.9 370.97L301.76 372.08L301.98 373.01L302.24 373.92L302.55 374.82L302.9 375.7L303.29 376.56L303.72 377.41L304.08 378.04L304.26 377.93L304.4 377.84L304.51 377.77L304.59 377.72L304.64 377.69L304.65 377.68L305.44 377.17L306.2 376.63L306.93 376.05L307.64 375.44L308.31 374.79L308.96 374.11L308.51 372.56L308.15 370.98L307.88 369.38L307.69 367.77L307.6 366.15L307.61 364.53L306.81 365.92L305.94 367.27ZM289.25 355.19L288.41 356.96L287.74 358.78L287.24 360.66L286.92 362.58L286.77 364.53L286.81 366.48L287.03 368.44L287.44 370.39L287.63 371.1L287.75 371.06L287.86 371.03L287.96 371L288.05 370.98L288.12 370.96L288.17 370.94L288.22 370.92L288.25 370.92L288.27 370.91L288.27 370.91L290.13 370.3L291.9 369.52L293.58 368.58L295.16 367.48L296.62 366.24L297.96 364.86L299.17 363.35L300.24 361.73L301.15 359.99L301.9 358.16L300.79 357.65L299.69 357.12L298.61 356.56L297.54 355.97L296.48 355.36L295.44 354.72L294.41 354.06L293.4 353.37L292.41 352.66L291.43 351.92L290.26 353.51L289.25 355.19ZM349.96 353.37L348.95 354.06L347.92 354.72L346.88 355.36L345.82 355.97L344.75 356.56L343.67 357.12L342.57 357.65L341.46 358.16L342.21 360L343.12 361.73L344.19 363.36L345.4 364.86L346.75 366.24L348.21 367.49L349.79 368.58L351.47 369.53L353.25 370.3L355.11 370.91L355.8 371.1L355.84 370.96L355.87 370.84L355.89 370.74L355.92 370.64L355.94 370.57L355.95 370.5L355.96 370.45L355.97 370.42L355.98 370.4L355.98 370.39L356.38 368.44L356.6 366.48L356.63 364.52L356.48 362.57L356.15 360.65L355.65 358.77L354.97 356.95L354.12 355.19L353.11 353.51L351.93 351.92L350.95 352.66L349.96 353.37ZM280.44 351.67L278.98 352.33L277.48 352.9L275.95 353.38L274.4 353.78L274.14 354.68L273.93 355.59L273.75 356.52L273.63 357.44L273.54 358.38L273.5 359.32L273.5 360.05L274.22 360.06L275.15 360.01L276.08 359.92L277 359.79L277.92 359.61L278.82 359.39L279.72 359.12L280.1 357.54L280.56 355.99L281.11 354.46L281.75 352.97L282.46 351.52L283.26 350.11L281.87 350.93L280.44 351.67ZM361.67 352.97L362.31 354.46L362.85 355.98L363.32 357.53L363.7 359.11L364.59 359.38L365.5 359.6L366.42 359.78L367.34 359.92L368.27 360L369.2 360.05L369.93 360.05L369.92 359.31L369.88 358.37L369.79 357.44L369.66 356.51L369.49 355.59L369.28 354.67L369.02 353.77L367.47 353.38L365.94 352.89L364.44 352.32L362.98 351.67L361.55 350.93L360.16 350.1L360.96 351.51L361.67 352.97ZM318.19 267.54L316.47 267.72L314.77 267.97L313.09 268.28L311.43 268.66L309.8 269.1L308.2 269.61L306.62 270.18L305.08 270.81L303.56 271.5L302.08 272.25L300.63 273.05L299.21 273.91L297.83 274.82L296.49 275.79L295.18 276.8L293.92 277.86L292.7 278.98L291.52 280.13L290.38 281.34L289.29 282.58L288.25 283.87L287.25 285.2L286.31 286.57L285.41 287.98L284.57 289.42L283.78 290.9L283.05 292.41L282.37 293.96L281.75 295.53L281.19 297.14L280.7 298.77L280.26 300.43L279.89 302.12L279.58 303.83L279.34 305.56L279.16 307.32L279.05 309.09L279.02 310.88L279.06 312.68L279.16 314.45L279.34 316.2L279.58 317.94L279.89 319.64L280.27 321.33L280.71 322.99L281.21 324.62L281.77 326.23L282.39 327.8L283.06 329.35L283.8 330.86L284.58 332.34L285.43 333.78L286.32 335.19L287.27 336.56L288.26 337.88L289.31 339.17L290.4 340.42L291.53 341.62L292.71 342.78L293.93 343.89L295.2 344.95L296.5 345.97L297.84 346.93L299.22 347.84L300.64 348.7L302.09 349.51L303.57 350.25L305.09 350.94L306.63 351.57L308.21 352.14L309.81 352.65L311.44 353.1L313.09 353.48L314.77 353.8L316.47 354.05L318.19 354.23L319.93 354.34L321.69 354.37L323.44 354.34L325.19 354.23L326.91 354.05L328.61 353.8L330.28 353.49L331.94 353.11L333.57 352.66L335.17 352.16L336.75 351.59L338.29 350.96L339.81 350.27L341.29 349.52L342.74 348.72L344.16 347.86L345.54 346.95L346.88 345.98L348.19 344.97L349.45 343.91L350.68 342.79L351.86 341.64L352.99 340.43L354.08 339.19L355.13 337.9L356.12 336.57L357.07 335.2L357.96 333.79L358.8 332.35L359.59 330.87L360.32 329.36L361 327.81L361.62 326.24L362.18 324.63L362.68 323L363.11 321.34L363.49 319.65L363.79 317.94L364.04 316.21L364.21 314.45L364.32 312.68L364.35 310.88L364.32 309.09L364.21 307.32L364.04 305.56L363.79 303.83L363.49 302.12L363.11 300.43L362.68 298.77L362.18 297.14L361.62 295.53L361 293.96L360.32 292.41L359.59 290.9L358.8 289.42L357.96 287.98L357.07 286.57L356.12 285.2L355.13 283.87L354.08 282.58L352.99 281.34L351.86 280.13L350.68 278.98L349.45 277.86L348.19 276.8L346.88 275.79L345.54 274.82L344.16 273.91L342.74 273.05L341.29 272.25L339.81 271.5L338.29 270.81L336.75 270.18L335.17 269.61L333.57 269.1L331.94 268.66L330.28 268.28L328.61 267.97L326.91 267.72L325.19 267.54L323.44 267.43L321.69 267.4L319.93 267.43L318.19 267.54ZM367.05 333.3L366.5 334.41L365.92 335.5L365.32 336.57L364.69 337.64L364.04 338.68L363.36 339.71L362.66 340.73L361.94 341.72L363.49 342.94L365.14 343.98L366.87 344.85L368.66 345.55L370.51 346.06L372.4 346.4L374.31 346.54L376.24 346.5L378.16 346.27L380.08 345.84L380.76 345.67L380.57 344.96L379.98 343.07L379.22 341.26L378.29 339.54L377.22 337.93L376 336.44L374.64 335.07L373.17 333.84L371.57 332.75L369.87 331.82L368.07 331.05L367.57 332.18L367.05 333.3ZM271.83 332.72L270.23 333.81L268.75 335.05L267.4 336.42L266.18 337.91L265.1 339.52L264.18 341.24L263.42 343.05L262.83 344.94L262.64 345.65L263.33 345.82L265.25 346.25L267.17 346.48L269.1 346.52L271.01 346.37L272.9 346.04L274.74 345.52L276.54 344.83L278.26 343.96L279.91 342.91L281.46 341.7L280.74 340.7L280.04 339.69L279.36 338.66L278.71 337.61L278.08 336.55L277.48 335.47L276.9 334.38L276.35 333.28L275.83 332.16L275.33 331.02L273.53 331.79L271.83 332.72ZM380.96 324.7L379.54 324.97L378.11 325.17L376.68 325.28L375.23 325.33L375.07 325.32L374.91 325.31L374.58 325.27L374.41 325.25L374.25 325.24L375.63 326.06L376.96 326.95L378.24 327.92L379.46 328.96L380.62 330.07L381.72 331.24L382.63 331.02L383.52 330.75L384.41 330.44L385.27 330.08L386.12 329.68L386.95 329.25L387.57 328.88L387.46 328.69L387.37 328.53L387.3 328.41L387.25 328.32L387.22 328.27L387.21 328.25L386.72 327.46L386.19 326.7L385.63 325.96L385.03 325.26L384.41 324.58L383.75 323.93L382.36 324.35L380.96 324.7ZM258.34 325.26L257.75 325.97L257.19 326.7L256.66 327.46L256.17 328.25L255.82 328.88L256 328.99L256.15 329.08L256.27 329.15L256.35 329.2L256.4 329.23L256.42 329.25L257.25 329.68L258.1 330.08L258.97 330.44L259.86 330.75L260.76 331.01L261.67 331.24L262.77 330.06L263.93 328.95L265.16 327.92L266.43 326.95L267.76 326.06L269.14 325.24L268.98 325.25L268.81 325.27L268.65 325.29L268.49 325.3L268.32 325.32L268.16 325.32L266.71 325.28L265.27 325.16L263.84 324.97L262.42 324.7L261.01 324.35L259.63 323.93L258.97 324.58L258.34 325.26ZM263.98 304.82L262.13 305.32L260.34 305.99L258.62 306.83L256.97 307.85L255.43 309.03L253.98 310.37L253.47 310.88L253.57 310.98L253.66 311.07L253.73 311.15L253.8 311.22L253.86 311.27L253.9 311.32L253.94 311.36L253.96 311.38L253.98 311.4L253.98 311.4L255.43 312.74L256.97 313.92L258.62 314.94L260.34 315.78L262.13 316.46L263.98 316.95L265.86 317.27L267.78 317.39L269.71 317.33L271.65 317.08L271.5 315.84L271.39 314.61L271.31 313.37L271.26 312.13L271.25 310.88L271.26 309.64L271.31 308.4L271.39 307.16L271.5 305.92L271.65 304.69L269.71 304.44L267.78 304.38L265.86 304.51L263.98 304.82ZM371.72 304.69L371.87 305.92L371.98 307.16L372.06 308.4L372.11 309.64L372.13 310.88L372.11 312.13L372.06 313.37L371.98 314.61L371.87 315.84L371.72 317.08L373.66 317.33L375.59 317.39L377.51 317.26L379.39 316.95L381.24 316.45L383.03 315.78L384.75 314.94L386.39 313.92L387.94 312.74L389.39 311.4L389.89 310.88L389.8 310.79L389.71 310.7L389.64 310.62L389.57 310.55L389.52 310.5L389.47 310.45L389.44 310.41L389.41 310.39L389.4 310.37L389.39 310.37L387.95 309.03L386.4 307.85L384.75 306.83L383.03 305.99L381.24 305.32L379.4 304.82L377.51 304.51L375.59 304.38L373.66 304.44L371.72 304.69ZM379.48 292.8L378.27 293.83L377 294.79L375.68 295.68L374.31 296.49L375.91 296.49L377.5 296.58L379.08 296.76L380.64 297.04L382.19 297.41L383.72 297.87L384.38 297.22L385.02 296.53L385.62 295.82L386.18 295.08L386.71 294.31L387.21 293.52L387.57 292.89L387.38 292.78L387.23 292.69L387.11 292.62L387.02 292.57L386.97 292.53L386.95 292.52L386.12 292.09L385.28 291.69L384.41 291.33L383.53 291.02L382.63 290.75L381.73 290.53L380.63 291.69L379.48 292.8ZM259.86 291.02L258.98 291.33L258.11 291.69L257.27 292.09L256.44 292.52L255.82 292.89L255.92 293.08L256.01 293.24L256.07 293.36L256.12 293.45L256.15 293.5L256.16 293.52L256.66 294.31L257.19 295.08L257.76 295.82L258.36 296.53L259 297.21L259.66 297.87L261.19 297.41L262.74 297.04L264.31 296.76L265.89 296.58L267.48 296.48L269.07 296.49L267.7 295.67L266.39 294.78L265.12 293.82L263.91 292.79L262.75 291.69L261.66 290.52L260.75 290.75L259.86 291.02ZM370.49 275.73L368.64 276.24L366.85 276.94L365.12 277.81L363.47 278.86L361.92 280.07L362.65 281.07L363.35 282.08L364.02 283.11L364.68 284.16L365.3 285.22L365.9 286.3L366.48 287.39L367.03 288.49L367.56 289.61L368.05 290.75L369.85 289.98L371.56 289.05L373.15 287.96L374.63 286.72L375.98 285.35L377.2 283.86L378.28 282.25L379.2 280.53L379.97 278.72L380.56 276.83L380.74 276.12L380.05 275.95L378.14 275.52L376.21 275.29L374.28 275.25L372.37 275.39L370.49 275.73ZM265.22 275.51L263.31 275.93L262.61 276.1L262.8 276.81L263.39 278.7L264.15 280.51L265.08 282.23L266.15 283.83L267.37 285.33L268.73 286.7L270.21 287.93L271.8 289.02L273.5 289.95L275.3 290.72L275.8 289.59L276.33 288.47L276.88 287.36L277.45 286.27L278.05 285.2L278.68 284.13L279.33 283.09L280.01 282.06L280.71 281.04L281.44 280.05L279.88 278.83L278.23 277.79L276.51 276.92L274.71 276.23L272.87 275.71L270.98 275.38L269.07 275.23L267.14 275.27L265.22 275.51ZM368.27 261.77L367.34 261.85L366.42 261.99L365.5 262.17L364.59 262.39L363.7 262.66L363.32 264.24L362.85 265.79L362.3 267.32L361.67 268.81L360.96 270.26L360.16 271.67L361.54 270.86L362.97 270.13L364.43 269.48L365.93 268.92L367.45 268.45L369 268.06L369.27 267.15L369.48 266.23L369.66 265.29L369.79 264.35L369.88 263.4L369.92 262.45L369.92 261.72L369.2 261.72L368.27 261.77ZM273.45 262.45L273.5 263.4L273.58 264.35L273.71 265.29L273.89 266.23L274.11 267.15L274.37 268.06L275.92 268.45L277.45 268.92L278.94 269.48L280.4 270.13L281.83 270.86L283.21 271.67L282.42 270.26L281.7 268.81L281.07 267.32L280.52 265.79L280.05 264.24L279.67 262.66L278.78 262.39L277.87 262.17L276.96 261.99L276.03 261.85L275.1 261.77L274.17 261.72L273.45 261.72L273.45 262.45ZM353.24 251.47L351.47 252.25L349.79 253.19L348.21 254.29L346.75 255.53L345.41 256.91L344.2 258.42L343.13 260.04L342.22 261.78L341.47 263.61L342.58 264.12L343.68 264.65L344.76 265.21L345.83 265.8L346.89 266.41L347.93 267.05L348.96 267.71L349.97 268.4L350.96 269.12L351.94 269.86L353.13 268.27L354.16 266.6L355.01 264.84L355.69 263.01L356.2 261.13L356.52 259.21L356.67 257.26L356.63 255.29L356.4 253.33L355.98 251.38L355.79 250.67L355.1 250.86L353.24 251.47ZM287.5 250.93L287.48 251.03L287.46 251.13L287.44 251.2L287.42 251.27L287.41 251.32L287.4 251.35L287.39 251.37L287.39 251.38L286.98 253.33L286.75 255.29L286.71 257.26L286.85 259.21L287.18 261.13L287.69 263.01L288.37 264.84L289.23 266.6L290.25 268.28L291.44 269.86L292.42 269.12L293.42 268.4L294.43 267.71L295.45 267.05L296.49 266.41L297.55 265.8L298.62 265.21L299.71 264.65L300.8 264.12L301.92 263.61L301.16 261.77L300.25 260.04L299.18 258.41L297.97 256.91L296.63 255.53L295.16 254.28L293.58 253.19L291.9 252.24L290.12 251.47L288.26 250.86L287.57 250.67L287.53 250.81L287.5 250.93ZM319.86 243.35L318.71 244.93L317.71 246.6L316.88 248.36L316.22 250.18L315.73 252.06L315.43 253.99L315.3 255.94L315.36 257.91L315.61 259.88L316.82 259.74L318.03 259.62L319.25 259.54L320.47 259.49L321.69 259.47L322.9 259.49L324.12 259.54L325.34 259.62L326.55 259.74L327.76 259.88L328.01 257.91L328.07 255.94L327.95 253.99L327.64 252.06L327.15 250.18L326.49 248.36L325.66 246.6L324.67 244.93L323.51 243.35L322.19 241.88L321.69 241.36L321.18 241.88L319.86 243.35ZM337.94 244.6L337.19 245.14L336.46 245.72L335.77 246.33L335.1 246.98L334.46 247.66L334.91 249.21L335.27 250.79L335.54 252.39L335.72 254L335.81 255.62L335.81 257.24L336.61 255.85L337.48 254.5L338.42 253.21L339.44 251.98L340.52 250.8L341.66 249.69L341.44 248.76L341.18 247.85L340.87 246.95L340.52 246.07L340.13 245.21L339.7 244.36L339.34 243.73L338.72 244.09L337.94 244.6ZM303.24 245.2L302.85 246.07L302.51 246.95L302.2 247.85L301.94 248.76L301.72 249.68L302.86 250.8L303.94 251.97L304.95 253.21L305.9 254.5L306.77 255.85L307.56 257.24L307.56 255.61L307.65 254L307.83 252.39L308.1 250.79L308.47 249.21L308.92 247.65L308.28 246.97L307.61 246.33L306.91 245.72L306.18 245.14L305.43 244.6L304.65 244.09L304.03 243.73L303.67 244.36L303.24 245.2Z"
       id="h2lJU40bF" />
  </defs>
  <g
     id="g38">
    <g
       id="g36">
      <g
         id="g22"
         transform="matrix(1.3519063,0,0,1.2631099,-110.32838,-89.951021)">
        <use
           xlink:href="#bduwUQ36k"
           id="use16"
           style="opacity:1;fill:#809f76;fill-opacity:1"
           x="0"
           y="0"
           width="100%"
           height="100%" />
        <g
           id="g20">
          <use
             xlink:href="#bduwUQ36k"
             id="use18"
             style="opacity:1;fill-opacity:0;stroke:#6a45a5;stroke-width:0;stroke-opacity:1"
             x="0"
             y="0"
             width="100%"
             height="100%" />
        </g>
      </g>
      <g
         id="g26"
         transform="matrix(1.3519063,0,0,1.2631099,-110.32838,-89.951021)">
        <use
           xlink:href="#aIqeXDlmf"
           id="use24"
           style="opacity:1;fill:#ffffff;fill-opacity:1"
           x="0"
           y="0"
           width="100%"
           height="100%" />
      </g>
      <g
         id="g34"
         transform="matrix(1.718127,0,0,1.5946337,-229.49203,-249.51341)">
        <use
           xlink:href="#h2lJU40bF"
           id="use28"
           style="opacity:1;fill:#809f76;fill-opacity:1"
           x="0"
           y="0"
           width="100%"
           height="100%" />
        <g
           id="g32">
          <use
             xlink:href="#h2lJU40bF"
             id="use30"
             style="opacity:1;fill-opacity:0;stroke:#000000;stroke-width:0;stroke-opacity:0"
             x="0"
             y="0"
             width="100%"
             height="100%" />
        </g>
      </g>
    </g>
    <circle
       style="opacity:1;fill:#809f76;fill-opacity:1;stroke:#ffffff;stroke-width:30;stroke-linecap:round;stroke-linejoin:bevel;stroke-miterlimit:4;stroke-dasharray:none;stroke-dashoffset:0;stroke-opacity:1"
       id="path4497"
       cx="476.61017"
       cy="478.64407"
       r="124.06779" />
    <path
       style="opacity:1;fill:#f9f9f9;fill-opacity:1;stroke:none;stroke-width:150;stroke-linecap:round;stroke-linejoin:bevel;stroke-miterlimit:4;stroke-dasharray:none;stroke-dashoffset:0;stroke-opacity:1"
       d="m 465.11603,398.64407 c -6.77984,0 -12.22656,5.46625 -12.22656,12.24609 v 11.60156 a 61.016953,61.016953 0 0 0 -13.04688,7.53907 L 429.784,424.21048 c -5.87151,-3.38994 -13.32883,-1.37933 -16.71875,4.49218 l -11.48438,19.90235 c -3.38992,5.87151 -1.39885,13.32883 4.47266,16.71875 l 10.05859,5.80078 a 61.016953,61.016953 0 0 0 -0.52734,7.51953 61.016953,61.016953 0 0 0 0.54687,7.51953 l -10.07812,5.82031 c -5.87151,3.38992 -7.86258,10.84724 -4.47266,16.71875 l 11.48438,19.90235 c 3.38992,5.87151 10.84724,7.86257 16.71875,4.47265 l 10.07812,-5.82031 a 61.016953,61.016953 0 0 0 13.02735,7.59766 v 11.5625 c 0,6.77984 5.44672,12.22656 12.22656,12.22656 h 22.98828 c 6.77984,0 12.22656,-5.44672 12.22656,-12.22656 v -11.6211 a 61.016953,61.016953 0 0 0 13.04688,-7.53906 l 10.05859,5.82031 c 5.87152,3.38993 13.32883,1.39886 16.71875,-4.47265 l 11.48438,-19.90235 c 3.38992,-5.87151 1.39885,-13.32883 -4.47266,-16.71875 l -10.05859,-5.82031 a 61.016953,61.016953 0 0 0 0.52734,-7.51953 61.016953,61.016953 0 0 0 -0.54687,-7.5 l 10.07812,-5.82031 c 5.87151,-3.38992 7.86258,-10.84724 4.47266,-16.71875 l -11.48438,-19.90235 c -3.38992,-5.87151 -10.84723,-7.88212 -16.71875,-4.49218 l -10.07812,5.82031 a 61.016953,61.016953 0 0 0 -13.02735,-7.59766 v -11.54297 c 0,-6.77984 -5.44672,-12.24609 -12.22656,-12.24609 z m 11.48438,32.89062 a 47.118645,47.118645 0 0 1 47.1289,47.10938 47.118645,47.118645 0 0 1 -47.1289,47.10938 47.118645,47.118645 0 0 1 -47.10938,-47.10938 47.118645,47.118645 0 0 1 47.10938,-47.10938 z"
       id="rect4499"
       inkscape:connector-curvature="0" />
  </g>
</svg>
