<?xml version="1.0" encoding="UTF-8" standalone="no"?>
<!DOCTYPE svg PUBLIC "-//W3C//DTD SVG 1.1//EN" "http://www.w3.org/Graphics/SVG/1.1/DTD/svg11.dtd">
<svg width="100%" height="100%" viewBox="0 0 2048 2048" version="1.1" xmlns="http://www.w3.org/2000/svg" xmlns:xlink="http://www.w3.org/1999/xlink" xml:space="preserve" xmlns:serif="http://www.serif.com/" style="fill-rule:evenodd;clip-rule:evenodd;stroke-linejoin:round;stroke-miterlimit:2;">
    <g transform="matrix(1.1333,0,0,1.1333,-61.305,-134.68)">
        <circle cx="965.852" cy="1022.39" r="801.126" style="fill:rgb(240,171,174);"/>
    </g>
    <path d="M1024,511.405C1143.44,511.405 1240.4,608.372 1240.4,727.808C1240.4,775.616 1233.07,864.941 1233.07,864.941C1233.07,864.941 1095.63,944.211 1024,944.211C947.102,944.211 803.187,867.412 803.187,867.412C803.187,867.412 807.597,770.346 807.597,727.808C807.597,608.372 904.564,511.405 1024,511.405ZM1025.63,568.12C1113.76,568.12 1185.32,639.674 1185.32,727.808C1185.32,763.086 1179.9,829.002 1179.9,829.002C1179.9,829.002 1078.48,887.496 1025.63,887.496C968.883,887.496 862.684,830.825 862.684,830.825C862.684,830.825 865.939,759.198 865.939,727.808C865.939,639.674 937.493,568.12 1025.63,568.12Z" style="fill:rgb(235,235,235);"/>
    <g transform="matrix(1,0,0,1,-20.9078,-70.533)">
        <circle cx="1044.91" cy="1167.15" r="357.756" style="fill:rgb(235,235,235);"/>
    </g>
    <g transform="matrix(0.895411,0,0,0.895411,88.3783,51.5384)">
        <circle cx="1044.91" cy="1167.15" r="357.756" style="fill:rgb(239,210,212);"/>
    </g>
    <g transform="matrix(1,0,0,1.25084,-14.9572,-232.445)">
        <path d="M1038.96,915.175L1086.38,1004.4L991.53,1004.4L1038.96,915.175Z" style="fill:rgb(240,171,174);"/>
    </g>
    <g transform="matrix(0.257763,0,0,0.257763,754.662,795.769)">
        <circle cx="1044.91" cy="1167.15" r="357.756" style="fill:rgb(235,235,235);"/>
    </g>
    <path d="M1014.07,1352.37L1033.93,1352.37L1033.93,1306.11L1014.07,1306.11L1014.07,1352.37ZM1295.16,1096.62L1295.16,1076.75L1248.9,1076.75L1248.9,1096.62L1295.16,1096.62ZM752.838,1076.75L752.838,1096.62L799.096,1096.62L799.096,1076.75L752.838,1076.75ZM1033.93,821.004L1014.07,821.004L1014.07,867.263L1033.93,867.263L1033.93,821.004Z" style="fill:rgb(235,235,235);"/>
    <rect x="1014.07" y="797.47" width="19.863" height="69.793" style="fill:rgb(240,171,174);"/>
    <g transform="matrix(0.707107,0.707107,-0.707107,0.707107,1068.33,-405.795)">
        <path d="M1014.07,1352.37L1033.93,1352.37L1033.93,1306.11L1014.07,1306.11L1014.07,1352.37ZM1295.16,1096.62L1295.16,1076.75L1248.9,1076.75L1248.9,1096.62L1295.16,1096.62ZM752.838,1076.75L752.838,1096.62L799.096,1096.62L799.096,1076.75L752.838,1076.75ZM1033.93,821.004L1014.07,821.004L1014.07,867.263L1033.93,867.263L1033.93,821.004Z" style="fill:rgb(235,235,235);"/>
    </g>
</svg>
