<svg height="48" width="48" xmlns="http://www.w3.org/2000/svg"><rect fill="#9393ac" height="43" ry="1.452703" width="43" x="2" y="3"/><path d="m14 14c-1.108 0-2 .892-2 2v18c0 1.108.892 2 2 2h18c1.108 0 2-.892 2-2v-18c0-1.108-.892-2-2-2zm0 4h4v4h-4zm0 6h4v4h-4zm6 0h4v4h-4zm-6 6h4v4h-4zm6 0h4v4h-4zm6 0h4v4h-4z" fill="#fff"/><g fill="none" stroke="#fff" stroke-opacity=".632959" stroke-width="2"><path d="m32 18h6"/><path d="m32 22h6"/><path d="m32 26h6"/><path d="m32 30h6"/><path d="m32 34h6"/><path d="m30 16v-6"/><path d="m26 16v-6"/><path d="m22 16v-6"/><path d="m18 16v-6"/><path d="m14 16v-6"/><path d="m14 18h-6"/><path d="m14 22h-6"/><path d="m14 26h-6"/><path d="m14 30h-6"/><path d="m14 34h-6"/><path d="m16 40v-6"/><path d="m20 40v-6"/><path d="m24 40v-6"/><path d="m28 40v-6"/><path d="m32 40v-6"/></g></svg>