<?xml version="1.0" encoding="UTF-8" standalone="no"?>
<svg
   xmlns:dc="http://purl.org/dc/elements/1.1/"
   xmlns:cc="http://creativecommons.org/ns#"
   xmlns:rdf="http://www.w3.org/1999/02/22-rdf-syntax-ns#"
   xmlns:svg="http://www.w3.org/2000/svg"
   xmlns="http://www.w3.org/2000/svg"
   xmlns:xlink="http://www.w3.org/1999/xlink"
   xmlns:sodipodi="http://sodipodi.sourceforge.net/DTD/sodipodi-0.dtd"
   xmlns:inkscape="http://www.inkscape.org/namespaces/inkscape"
   version="1.1"
   preserveAspectRatio="xMidYMid meet"
   viewBox="0 0 640 640"
   width="64"
   height="64"
   id="svg31"
   sodipodi:docname="criptext.svg"
   inkscape:version="0.92.1 r15371">
  <metadata
     id="metadata35">
    <rdf:RDF>
      <cc:Work
         rdf:about="">
        <dc:format>image/svg+xml</dc:format>
        <dc:type
           rdf:resource="http://purl.org/dc/dcmitype/StillImage" />
      </cc:Work>
    </rdf:RDF>
  </metadata>
  <sodipodi:namedview
     pagecolor="#ffffff"
     bordercolor="#666666"
     borderopacity="1"
     objecttolerance="10"
     gridtolerance="10"
     guidetolerance="10"
     inkscape:pageopacity="0"
     inkscape:pageshadow="2"
     inkscape:window-width="1920"
     inkscape:window-height="1040"
     id="namedview33"
     showgrid="false"
     inkscape:zoom="3.6875"
     inkscape:cx="-23.050847"
     inkscape:cy="32"
     inkscape:window-x="0"
     inkscape:window-y="0"
     inkscape:window-maximized="1"
     inkscape:current-layer="svg31" />
  <defs
     id="defs5">
    <path
       d="M62.05 259.56C62.05 150.79 185.34 62.61 337.42 62.61C489.51 62.61 612.79 150.78 612.79 259.56C612.79 368.34 489.52 456.51 337.43 456.51C300.49 456.51 265.25 451.31 233.06 441.89C226.26 445.37 190.04 465.06 124.4 500.96L136.87 405.18C86.99 345.38 62.05 296.84 62.05 259.56Z"
       id="e1AOxQiwWJ" />
    <path
       d="M291.44 162.74C291.44 139.52 314.09 120.63 341.92 120.63C369.75 120.63 392.39 139.52 392.39 162.74C392.39 164.89 392.39 182.11 392.39 184.26C392.51 184.3 392.62 184.34 392.73 184.38C399.94 186.92 406.8 189.98 413.28 193.51C413.28 190.43 413.28 165.82 413.28 162.74C413.28 129.91 381.27 103.2 341.92 103.2C302.57 103.2 270.56 129.91 270.56 162.74C270.56 165.82 270.56 190.43 270.56 193.51C277.04 189.98 283.9 186.92 291.1 184.38C291.21 184.34 291.33 184.3 291.44 184.26C291.44 179.96 291.44 164.89 291.44 162.74Z"
       id="aUisw1yNG" />
    <path
       d="M350.38 193.78L354.54 194.1L358.66 194.56L362.71 195.13L366.72 195.83L370.66 196.65L374.54 197.59L378.35 198.63L382.09 199.79L385.75 201.06L389.34 202.43L392.85 203.91L396.28 205.49L399.61 207.16L402.86 208.93L406.02 210.8L409.08 212.75L412.03 214.8L414.89 216.92L417.63 219.14L420.27 221.43L422.8 223.79L425.2 226.24L427.49 228.76L429.65 231.34L431.69 233.99L433.59 236.71L435.37 239.49L437 242.33L438.5 245.23L439.85 248.18L441.06 251.19L442.11 254.24L443.02 257.34L443.76 260.48L444.35 263.67L444.77 266.89L445.03 270.15L445.11 273.45L445.03 276.74L444.77 280.01L444.35 283.23L443.76 286.42L443.02 289.56L442.11 292.66L441.06 295.71L439.85 298.72L438.5 301.67L437 304.57L435.37 307.41L433.59 310.19L431.69 312.9L429.65 315.56L427.49 318.14L425.2 320.66L422.8 323.1L420.27 325.47L417.63 327.76L414.89 329.97L412.03 332.1L409.08 334.15L406.02 336.1L402.86 337.96L399.61 339.74L396.28 341.41L392.85 342.99L389.34 344.47L385.75 345.84L382.09 347.11L378.35 348.27L374.54 349.31L370.66 350.25L366.72 351.07L362.71 351.76L358.66 352.34L354.54 352.8L350.38 353.12L346.17 353.32L341.92 353.39L337.66 353.32L333.45 353.12L329.29 352.8L325.18 352.34L321.12 351.76L317.12 351.07L313.18 350.25L309.3 349.31L305.49 348.27L301.75 347.11L298.08 345.84L294.49 344.47L290.98 342.99L287.56 341.41L284.22 339.74L280.97 337.96L277.82 336.1L274.76 334.15L271.8 332.1L268.95 329.97L266.2 327.76L263.56 325.47L261.04 323.1L258.63 320.66L256.35 318.14L254.18 315.56L252.15 312.9L250.24 310.19L248.47 307.41L246.83 304.57L245.34 301.67L243.98 298.72L242.78 295.71L241.72 292.66L240.82 289.56L240.07 286.42L239.49 283.23L239.06 280.01L238.81 276.74L238.72 273.45L238.81 270.15L239.06 266.89L239.49 263.67L240.07 260.48L240.82 257.34L241.72 254.24L242.78 251.19L243.98 248.18L245.34 245.23L246.83 242.33L248.47 239.49L250.24 236.71L252.15 233.99L254.18 231.34L256.35 228.76L258.63 226.24L261.04 223.79L263.56 221.43L266.2 219.14L268.95 216.92L271.8 214.8L274.76 212.75L277.82 210.8L280.97 208.93L284.22 207.16L287.56 205.49L290.98 203.91L294.49 202.43L298.08 201.06L301.75 199.79L305.49 198.63L309.3 197.59L313.18 196.65L317.12 195.83L321.12 195.13L325.18 194.56L329.29 194.1L333.45 193.78L337.66 193.58L341.92 193.51L346.17 193.58L350.38 193.78ZM339.83 243.8L338.81 243.89L337.8 244.01L336.8 244.17L335.82 244.36L334.86 244.58L333.92 244.83L332.99 245.12L332.09 245.43L331.2 245.78L330.34 246.15L329.51 246.55L328.69 246.97L327.9 247.42L327.14 247.9L326.41 248.4L325.7 248.93L325.02 249.47L324.38 250.04L323.76 250.63L323.18 251.24L322.63 251.87L322.12 252.52L321.64 253.19L321.19 253.87L320.79 254.57L320.42 255.29L320.09 256.02L319.8 256.76L319.56 257.52L319.35 258.29L319.19 259.08L319.08 259.87L319.01 260.67L318.99 261.49L319 262.08L319.03 262.66L319.09 263.24L319.18 263.81L319.29 264.38L319.42 264.94L319.57 265.49L319.75 266.04L319.94 266.58L320.16 267.12L320.4 267.65L320.66 268.16L320.94 268.68L321.24 269.18L321.56 269.67L321.9 270.16L322.26 270.63L322.63 271.1L323.03 271.56L323.44 272L323.86 272.44L324.31 272.87L324.77 273.28L325.25 273.69L325.74 274.08L326.25 274.46L326.77 274.82L327.31 275.18L327.86 275.52L328.43 275.85L329.01 276.17L329.6 276.47L330.2 276.76L330.82 277.03L331.45 277.29L332.09 277.54L332.09 304.72L351.75 304.72L351.75 277.54L352.39 277.29L353.01 277.03L353.63 276.76L354.24 276.47L354.83 276.17L355.41 275.85L355.97 275.52L356.52 275.18L357.06 274.83L357.58 274.46L358.09 274.08L358.59 273.69L359.06 273.28L359.52 272.87L359.97 272.44L360.4 272.01L360.81 271.56L361.2 271.1L361.58 270.63L361.94 270.16L362.27 269.67L362.59 269.18L362.89 268.68L363.17 268.16L363.43 267.65L363.67 267.12L363.89 266.58L364.09 266.04L364.26 265.49L364.42 264.94L364.55 264.38L364.66 263.81L364.74 263.24L364.8 262.66L364.84 262.08L364.85 261.49L364.83 260.67L364.76 259.87L364.64 259.08L364.48 258.29L364.28 257.52L364.03 256.76L363.74 256.02L363.41 255.29L363.05 254.57L362.64 253.87L362.2 253.19L361.72 252.52L361.2 251.87L360.65 251.24L360.07 250.63L359.46 250.04L358.81 249.47L358.13 248.93L357.43 248.4L356.69 247.9L355.93 247.42L355.14 246.97L354.33 246.55L353.49 246.15L352.63 245.78L351.75 245.43L350.84 245.12L349.92 244.83L348.98 244.58L348.01 244.36L347.03 244.17L346.04 244.01L345.03 243.89L344 243.8L342.97 243.74L341.92 243.72L340.87 243.74L339.83 243.8Z"
       id="i10jTlqN0r" />
  </defs>
  <g
     id="g29"
     transform="matrix(1.1181769,0,0,1.1181769,-56.146433,13.63205)">
    <g
       id="g27">
      <g
         id="g9">
        <use
           xlink:href="#e1AOxQiwWJ"
           id="use7"
           style="opacity:1;fill:#6e93a2;fill-opacity:1"
           x="0"
           y="0"
           width="100%"
           height="100%" />
      </g>
      <g
         id="g17">
        <use
           xlink:href="#aUisw1yNG"
           id="use11"
           style="opacity:1;fill:#ffffff;fill-opacity:1"
           x="0"
           y="0"
           width="100%"
           height="100%" />
        <g
           id="g15">
          <use
             xlink:href="#aUisw1yNG"
             id="use13"
             style="opacity:1;fill-opacity:0;stroke:#000000;stroke-width:1;stroke-opacity:0"
             x="0"
             y="0"
             width="100%"
             height="100%" />
        </g>
      </g>
      <g
         id="g25">
        <use
           xlink:href="#i10jTlqN0r"
           id="use19"
           style="opacity:1;fill:#ffffff;fill-opacity:1"
           x="0"
           y="0"
           width="100%"
           height="100%" />
        <g
           id="g23">
          <use
             xlink:href="#i10jTlqN0r"
             id="use21"
             style="opacity:1;fill-opacity:0;stroke:#000000;stroke-width:1;stroke-opacity:0"
             x="0"
             y="0"
             width="100%"
             height="100%" />
        </g>
      </g>
    </g>
  </g>
</svg>
