<?xml version="1.0" encoding="UTF-8" standalone="no"?>
<svg
   xmlns:dc="http://purl.org/dc/elements/1.1/"
   xmlns:cc="http://creativecommons.org/ns#"
   xmlns:rdf="http://www.w3.org/1999/02/22-rdf-syntax-ns#"
   xmlns:svg="http://www.w3.org/2000/svg"
   xmlns="http://www.w3.org/2000/svg"
   xmlns:sodipodi="http://sodipodi.sourceforge.net/DTD/sodipodi-0.dtd"
   xmlns:inkscape="http://www.inkscape.org/namespaces/inkscape"
   height="48"
   width="48"
   version="1.1"
   id="svg12"
   sodipodi:docname="jetbrains-datagrip.svg"
   inkscape:version="1.0.2 (e86c870879, 2021-01-15)">
  <metadata
     id="metadata18">
    <rdf:RDF>
      <cc:Work
         rdf:about="">
        <dc:format>image/svg+xml</dc:format>
        <dc:type
           rdf:resource="http://purl.org/dc/dcmitype/StillImage" />
        <dc:title></dc:title>
      </cc:Work>
    </rdf:RDF>
  </metadata>
  <defs
     id="defs16" />
  <sodipodi:namedview
     pagecolor="#ffffff"
     bordercolor="#666666"
     borderopacity="1"
     objecttolerance="10"
     gridtolerance="10"
     guidetolerance="10"
     inkscape:pageopacity="0"
     inkscape:pageshadow="2"
     inkscape:window-width="1920"
     inkscape:window-height="1031"
     id="namedview14"
     showgrid="true"
     inkscape:zoom="13.906433"
     inkscape:cx="33.56165"
     inkscape:cy="16.549755"
     inkscape:window-x="0"
     inkscape:window-y="24"
     inkscape:window-maximized="1"
     inkscape:current-layer="svg12"
     inkscape:document-rotation="0">
    <inkscape:grid
       type="xygrid"
       id="grid828" />
  </sodipodi:namedview>
  <rect
     fill="#47b472"
     height="43"
     ry="1.452703"
     width="43"
     x="2"
     y="3"
     id="rect2"
     style="fill:#b47991;fill-opacity:1" />
  <path
     d="m23.5 3h20.047297c.804798 0 1.452703.6479055 1.452703 1.4527029v20.0472971h-21.5z"
     fill="#6da1c8"
     id="path4" />
  <path
     d="m45 24.5v20.047297c0 .804798-.647905 1.452703-1.452703 1.452703h-40.0945941c-.8047974 0-1.4527029-.647905-1.4527029-1.452703v-20.047297z"
     fill="#6dc8bd"
     id="path6"
     style="fill:#b5dc8b;fill-opacity:1" />
  <path
     d="m45 24.5v20.047297c0 .804798-.647905 1.452703-1.452703 1.452703h-20.047297v-21.5z"
     fill="#d5bf56"
     id="path8"
     style="fill:#a27bb7;fill-opacity:1" />
  <path
     id="path10"
     style="fill:#ffffff"
     d="M 9 10 L 9 39 L 38 39 L 38 10 L 9 10 z M 29.603516 16.521484 C 30.260426 16.521484 30.888685 16.618267 31.488281 16.810547 C 32.092286 17.002827 32.661848 17.288324 33.195312 17.666016 L 33.195312 20.847656 C 32.644213 20.36009 32.095519 19.996209 31.548828 19.755859 C 31.006547 19.51551 30.460754 19.396484 29.914062 19.396484 C 28.900039 19.396484 28.117505 19.83875 27.566406 20.724609 C 27.019716 21.603602 26.748047 22.864615 26.748047 24.505859 C 26.748047 26.133371 27.01196 27.389531 27.541016 28.275391 C 28.070071 29.161251 28.820578 29.603516 29.794922 29.603516 C 30.05945 29.603516 30.304448 29.579324 30.529297 29.53125 C 30.758554 29.476311 30.963771 29.395029 31.144531 29.285156 L 31.144531 26.296875 L 29.589844 26.296875 L 29.589844 23.640625 L 33.558594 23.640625 L 33.558594 31.035156 C 32.923727 31.515856 32.265395 31.876837 31.582031 32.117188 C 30.898668 32.357537 30.192295 32.478516 29.464844 32.478516 C 27.820363 32.478516 26.517758 31.764302 25.556641 30.335938 C 24.595523 28.900706 24.115234 26.957427 24.115234 24.505859 C 24.115234 22.026824 24.605232 20.075793 25.583984 18.654297 C 26.562737 17.2328 27.901721 16.521484 29.603516 16.521484 z M 13.441406 16.800781 L 16.126953 16.800781 C 17.625943 16.800781 18.740796 16.968197 19.472656 17.304688 C 20.208925 17.63431 20.838634 18.197553 21.363281 18.994141 C 21.826205 19.687721 22.171636 20.48807 22.396484 21.394531 C 22.621333 22.300993 22.732422 23.327798 22.732422 24.474609 C 22.732422 25.635155 22.621333 26.672607 22.396484 27.585938 C 22.171636 28.492399 21.826205 29.290795 21.363281 29.984375 C 20.834226 30.780963 20.199662 31.349058 19.458984 31.685547 C 18.718307 32.015169 17.608308 32.179688 16.126953 32.179688 L 13.441406 32.179688 L 13.441406 16.800781 z M 15.988281 19.796875 L 15.988281 29.181641 L 16.900391 29.181641 C 17.940867 29.181641 18.734559 28.780019 19.28125 27.976562 C 19.83235 27.173108 20.107422 26.00598 20.107422 24.474609 C 20.107422 22.950105 19.8338 21.788774 19.287109 20.992188 C 18.740419 20.195599 17.945276 19.796875 16.900391 19.796875 L 15.988281 19.796875 z " />
  <g
     aria-label="IJ"
     style="font-style:normal;font-variant:normal;font-weight:bold;font-stretch:condensed;font-size:26.59427071px;line-height:1.25;font-family:'Roboto Condensed';-inkscape-font-specification:'Roboto Condensed,  Bold Condensed';letter-spacing:0px;word-spacing:0px;fill:#000000;fill-opacity:1;stroke:none;stroke-width:0.66485679"
     id="text832" />
  <g
     aria-label="DG"
     transform="scale(0.80125772,1.2480379)"
     id="text838"
     style="font-style:normal;font-variant:normal;font-weight:bold;font-stretch:normal;font-size:16.9032px;line-height:1.25;font-family:'DejaVu Sans';-inkscape-font-specification:'DejaVu Sans Bold';fill:#000000;fill-opacity:1;stroke:none;stroke-width:0.42258" />
</svg>
