<svg height="48" width="48" xmlns="http://www.w3.org/2000/svg"><g fill="#e08c9b" opacity=".99" transform="matrix(1.1503549 0 0 1.1503549 -4.486125 -7.525565)"><path d="m44.322082 27.405077a19.729762 19.729765 0 0 1 -19.729762 19.729765 19.729762 19.729765 0 0 1 -19.7297621-19.729765 19.729762 19.729765 0 0 1 19.7297621-19.7297632 19.729762 19.729765 0 0 1 19.729762 19.7297632z" fill="#e08c9b"/><path d="m44.322082 27.405077a19.729762 19.729765 0 0 1 -19.729762 19.729765 19.729762 19.729765 0 0 1 -19.7297621-19.729765 19.729762 19.729765 0 0 1 19.7297621-19.7297632 19.729762 19.729765 0 0 1 19.729762 19.7297632z" fill="#e49b71"/></g><g fill="#fff"><path d="m25.818359 5.3769531c-2.252289.073226-4.341099.6927823-6.232421 1.7070313-3.782646 2.028498-7.502938 5.2367666-9.679688 9.1269536-.152604.272726-.2937181.557771-.4394531.83789-1.299268-.354266-3.7598631-.879317-4.8925781-.080078-.1487541.10496-.2786996.226918-.3964844.359375a20.75 20.75 0 0 0 -.7792969 3.001953c.0088629.189359.003746.378389.0253906.566406.213525 1.854794 1.858921 4.732813 2.609375 5.96875-.08713.471397-.1597156.926006-.2128906 1.359375.133895 2.050188.8556934 6.012628 2.8652344 6.652344-1.361328-1.980467-1.291609-4.330467-1.015625-6.671875 1.112294-10.528796 7.1542971-16.308594 11.6542971-19.3085936 6-3.6 9.6-2.1 13.5-1.5-2.545188-1.165961-4.753572-2.0927581-7.00586-2.0195313zm-4.99414 6.5195309c-.703666.06968-1.304972.820321-1.5 1.5-.372146 1.296942-.268542 3.285146.908203 3.945313 1.378959.773612 3.257479-.522175 4.5-1.5.291814-.229647.669887-.582276.591797-.945313-.379099-1.762465-2.705998-3.177641-4.5-3zm16.74414 1.113282c-2.539237-.09345-4.55069.639457-6.208984 1.93164-1.454956 1.281053-1.66719 1.84133-.009766 3.347656.816495.762115 1.790019 1.368708 2.921875 1.820313 2.861903 1.115119 4.72478-.825406 6.017578-3.632813.633528-1.469704.531978-3.39113-1.599609-3.375-.384732-.047929-.758346-.078446-1.121094-.091796zm1.25586 10.886718c-1.935438 14.330744-10.728582 8.633646-19.5 3 4.314018 5.023361.970442 10.805677-1.847657 16.855469a20.75 20.75 0 0 0 6.328126.998047 20.75 20.75 0 0 0 15.257812-6.726562c.957331-3.642784 4.261719-5.425253 4.261719-14.126954-.585643 2.908041-1.428231 5.701418-4.5 7.5zm.599609 7.5-1.921875 6.861328c-.25957.851121-.622988 1.14756-1.25 1.34961-.85118.311139-.427734-.604576-.427734-1.011719l.300781-2.699219-.779297 3.347657c-.121786.8525-.270737.941816-.845703 1.255859-1.133074.495007-1.889638.130158-2.560547-.433594-.769187-.499081-.645879-1.299722-.699219-2.048828-.08872-1.026875-.216796-2.215253-.216796-3.320312 2.84995.110598 6.353538-.862673 8.40039-3.300782z"/><path d="m43.2 24c-.555198-4.36409-.420163-9.352468-4.2-10.8-15.953266-2.677017-26.300979 4.644623-30.3 21.6 1.8 4.2 6.3 5.7 9.3 8.7l3-3 4.5-6 7.5-1.5 6-1.5h1.5l1.5-3z" fill-opacity=".247706"/></g></svg>