<svg height="48" width="48" xmlns="http://www.w3.org/2000/svg"><path d="m1.996094 5.888227c-.554 0-1 .446-1 1v4 32c0 .554.446 1 1 1h42l.656393-.690979c.381556-.40166.658631.146694.343607-.309021v-1.283203-30.716797c0-.554-.446-1-1-1h-25l-2.074219-3c-.315024-.4557149-.446-1-1-1z" fill="#e5e5e5"/><path d="m19.996094 12c-.554 0-.715199.524812-1 1l-2.996094 5h-14.003906c-.554 0-1 .446-1 1v23.888227c0 .01318.0073.02405.0078.03711-.169125.345773.170691.708979.582032.873047.000999.000449.0029-.000446.0039 0 .124539.05545.260703.08984.406268.08984h.01953 41.980469c.1385 0 .270906-.02766.390625-.07813s.226031-.124469.316406-.214844c.180751-.180745.29297-.430026.29297-.707026v-23.888224-6c0-.554-.446-1-1-1z" fill="#b182d3"/></svg>