<svg height="48" width="48" xmlns="http://www.w3.org/2000/svg"><rect fill="#c5806b" height="43" ry="1.452703" width="43" x="2" y="3"/><g fill="#fff"><path d="m18.396484 10.376953-9.6230465 24.058594c7.4872005-3.052829 10.5183515-8.438829 12.3847655-14.435547h-1.158203v-1.603516h-1.603516v-1.603515h1.603516v-1.605469h1.603516v1.605469h.451172c.169151-.671068.340993-1.341194.5-2.017578 2.246254 6.824307 7.809179 11.413759 15.08789 14.847656-2.561276-6.817911-2.652919-13.73281-16.039062-19.246094.041408.383517.105046.751392.164062 1.123047zm3.207032 8.019531v.083985c.007853-.02826.017576-.055704.02539-.083985zm-1.603516 16.039063v3.207031h14.435547l3.207031-1.603516-3.207031-1.603515z" fill-opacity=".307339"/><path d="m18.396484 8.7734375c-1.777097 0-3.208984 1.4299345-3.208984 3.2070315v25.662109c0 1.777097 1.431887 3.207031 3.208984 3.207031h4.810547c1.777097 0 3.208985-1.429934 3.208985-3.207031v-22.455078h1.603515c0-3.207756 4.810547-3.206166 4.810547 1.605469l4.8125-3.208985v-3.207031h-11.669922c-.554199-.9557399-1.576926-1.6035155-2.765625-1.6035155zm1.603516 6.4140625h1.603516v1.605469h1.603515v1.603515h-1.603515v1.603516h-1.603516v-1.603516h-1.603516v-1.603515h1.603516z"/></g></svg>