<svg height="48" width="48" xmlns="http://www.w3.org/2000/svg"><rect fill="#5f636c" height="43" ry="1.452703" width="43" x="2" y="3"/><path d="m5 6h37v33h-37z" fill="#f4e3d7" fill-rule="evenodd"/><path d="m4 28 1 1v10h37v-15l-4 5-4-1h-3l-3-2h-2-10z" fill="#c78e59"/><path d="m10.090909 25.636363-3.1818182 2.545455h1.2727272l-3.8181817 3.181818 2.5454545-.636363-3.8181818 2.726917v.667436l1.2727273.423828-.6363637.636364h10.8181814l-2.545454-3.181818 2.545454 1.272727-2.545454-3.818182h1.272727l-1.272727-1.272727h1.272727z" fill="#37150d"/><path d="m39.909091 28.454545-3.181818 2.545455h1.272727l-3.818182 3.181818 2.545455-.636363-3.818182 2.726917v.667436l1.272727.423828-.636363.636364h10.818181l-2.545454-3.181818 2.545454 1.272727-2.545454-3.818182h1.272727l-1.272727-1.272727h1.272727z" fill="#481307"/><path d="m5 33v6h37v-6z" fill="#481307"/><path d="m16 24-5 4h2l-6 5 4-1-6 4.285156v1.048828l2 .666016-1 1h17l-4-5 4 2-4-6h2l-2-2h2z" fill="#a53f27"/><path d="m37 39h-1l2-1h-1l2-1h-1l2-2 2 2h-1l2 1h-1l1 1z" fill="#552014"/><path d="m30.090909 27.636363-3.181818 2.545455h1.272727l-3.818182 3.181818 2.545455-.636363-3.818182 2.726917v.667436l1.272727.423828-.636363.636364h10.818181l-2.545454-3.181818 2.545454 1.272727-2.545454-3.818182h1.272727l-1.272727-1.272727h1.272727z" fill="#481307"/><path d="m33 28-5 4h2l-6 5 4-1-4.199219 3h13l-.800781-1 2 1h1.333984l-3.333984-5h2l-2-2h2z" fill="#a7351b"/><path d="m25 23-5 4h2l-6 5 4-1-7 5 3 1-2 2h18.800781l-4.800781-6 4 2-4-6h2l-2-2h2z" fill="#ef6f53"/><path d="m3.453125 3c-.8047974 0-1.453125.6483276-1.453125 1.453125v40.09375c0 .804797.6483276 1.453125 1.453125 1.453125h40.09375c.804797 0 1.453125-.648328 1.453125-1.453125v-40.09375c0-.8047974-.648328-1.453125-1.453125-1.453125zm1.546875 3h37v33h-37z" fill="#707580"/></svg>