<svg height="48" width="48" xmlns="http://www.w3.org/2000/svg"><path d="m44.322082 27.405077a19.729762 19.729765 0 0 1 -19.729762 19.729765 19.729762 19.729765 0 0 1 -19.7297621-19.729765 19.729762 19.729765 0 0 1 19.7297621-19.7297632 19.729762 19.729765 0 0 1 19.729762 19.7297632z" fill="#6f8a91" opacity=".99" transform="matrix(1.1503549 0 0 1.1503549 -4.486125 -7.525565)"/><g fill="#fff"><path d="m23.400391 8.5976562c-4.406778 0-8.421056 1.7941038-11.314453 4.6874998-2.3305752 2.330575-3.9479297 5.388377-4.4889596 8.792757-.130656.82214 1.4030216 1.064883 1.4030216 1.922087l2.398438.599609c0-3.325896 1.341567-6.31227 3.515624-8.486328 2.174059-2.174057 5.160432-3.515625 8.486329-3.515625 6.651795 0 12.001953 5.350158 12.001953 12.001953.000001 6.651795-5.350159 12.001953-12.001953 12.001953-2.770798 0-5.305947-.931117-7.332076-2.498995-1.068315-1.102567-4.218667 1.53721-3.021395 2.697081 2.791287 2.36936 6.415677 3.801914 10.353471 3.801914 8.813555 0 16.001954-7.188397 16.001953-16.001953 0-8.813555-7.188398-16.0019528-16.001953-16.0019528z"/><path d="m3.6 21h12.9l-6.45 7.5z"/><path d="m24.149247 3.0700966c-.77735-.00578-1.551493.027746-2.319764.097261-3.56324.2735918-5.302632 1.3469713-5.199679 1.1526161-5.826574 2.0242889-10.7525523 6.3776813-13.0343246 12.4834393-4.0626247 10.873449 1.6919043 22.898352 12.8502926 26.857229 11.162996 3.958881 23.502882-1.647518 27.565507-12.52097 4.064161-10.873451-1.690368-22.8968598-12.850292-26.8572308-2.318644-.8230207-4.679698-1.1949652-7.01174-1.2123446zm4.269035 2.6866099c.669935.1614639 1.344732.2616777 2.006987.4964006 2.435419.8641348 4.567773 2.1660773 6.371673 3.7657739-2.942483 1.045036-7.693384 3.254849-7.693384 3.254849-7.530601 3.08577-8.039255 7.753518-8.039255 7.753518-.779031 4.811047 3.143861 2.774591 3.143861 2.774591 4.038041-1.913655 6.021771-7.877418 6.021771-7.877418-1.259966-.233227-2.252761.139234-2.252761.139234-1.611838 3.870668-4.899832 5.462816-4.899832 5.462816-1.293774.666789-1.594933-.511331-1.594933-.511331-.218192-.882077.935894-1.033157.935894-1.033157 1.791605-.677255 2.937866-2.508654 3.197537-3.257672.258144-.750512.738953-.808769.738953-.808769 2.455395-.762474 4.693999-.933069 4.693999-.933069 3.048507-.36479 7.715184 1.049705 7.715184 1.049705 1.046381.409642 2.049667.716132 2.940856.961319 1.710182 4.157716 1.980541 8.892487.285737 13.43144-3.653906 9.785061-14.763234 14.832174-24.810696 11.26948-1.189286-.423099-2.300068-.9611-3.346459-1.575563 5.199671.38871 11.984952-.777537 16.560775-4.944222 0 0 8.723176-6.781636 2.412588-17.91074 0 0 1.017162 4.485489-.279684 8.175258 0 0-1.237134 5.017318-6.734883 6.474987-8.097585 2.146881-17.3242027-3.368289-21.180923-6.039931-.2904076-2.746396-.032435-5.58401 1.001677-8.35283 1.533469-4.102401 4.416186-7.303511 7.937948-9.4533848-.880438 5.9936298-.184663 11.5119778.815632 13.8233158 1.342941 3.099226 3.676954 6.714148 8.229737 7.177611 4.552784.464958 7.063401-3.68062 7.063401-3.68062 2.335547-3.453552 2.701369-8.412816 2.666034-8.53242-.03533-.121098-.622322-.448376-.622322-.448376-1.571885 6.189478-4.164104 8.257183-4.164104 8.257183-4.087209 3.839274-6.981879 1.176427-6.981879 1.176427-3.111506-3.251721-.932668-8.53686-.932668-8.53686 1.218486-3.600066 4.769331-8.8684281 8.793539-11.5475455z" fill-opacity=".231527" fill-rule="evenodd"/></g></svg>