<svg height="48" width="48" xmlns="http://www.w3.org/2000/svg"><path d="m44.322082 27.405077a19.729762 19.729765 0 0 1 -19.729762 19.729765 19.729762 19.729765 0 0 1 -19.7297621-19.729765 19.729762 19.729765 0 0 1 19.7297621-19.7297632 19.729762 19.729765 0 0 1 19.729762 19.7297632z" fill="#6691e6" opacity=".99" transform="matrix(1.1503549 0 0 1.1503549 -4.486125 -7.525565)"/><path d="m32.225938 10.14739c-5.411339 0-6.425779 8.222617-3.379484 8.222617 3.043321 0 8.793798-8.222617 3.379484-8.222617zm-8.332688 1.264331c-.08627 0-.178494.0089-.273691.01487-3.06712.386737-1.990206 5.577933-.356988 5.676105 1.579671.09222 3.308087-5.682055.624729-5.693954zm-5.319117 1.915835c-.187419-.0119-.392687.0238-.624728.118996-2.466191 1.011465-.374838 5.191196 1.005515 4.908581 1.252431-.252866 1.430925-4.911556-.380787-5.027577zm-4.022062 3.415182c-.214193-.0059-.446235.06842-.693151.252867-1.972357 1.472574.666377 5.030551 1.826587 4.477221 1.01444-.481933.365913-4.673565-1.133436-4.730088zm11.652674 3.397333c-4.274928-.07437-9.912359 2.094328-10.876226 6.455528-1.041214 4.715213 4.286828 11.257013 9.846912 11.257013 2.73393 0 5.890297-2.498914 6.479327-5.66718.452184-2.412642-5.304242-1.4458-5.098975.15172.249892 1.915834-1.386302 2.861852-2.986797 1.627269-5.10195-3.92984 8.442759-5.890297 7.55029-11.259987-.27964-1.668919-2.353144-2.519739-4.917506-2.564363zm0 0" fill="#fffbfb"/></svg>