<?xml version="1.0" encoding="UTF-8" standalone="no"?>
<svg
   xmlns:dc="http://purl.org/dc/elements/1.1/"
   xmlns:cc="http://creativecommons.org/ns#"
   xmlns:rdf="http://www.w3.org/1999/02/22-rdf-syntax-ns#"
   xmlns:svg="http://www.w3.org/2000/svg"
   xmlns="http://www.w3.org/2000/svg"
   xmlns:sodipodi="http://sodipodi.sourceforge.net/DTD/sodipodi-0.dtd"
   xmlns:inkscape="http://www.inkscape.org/namespaces/inkscape"
   height="48"
   width="48"
   version="1.1"
   id="svg6"
   sodipodi:docname="mate-desktop.svg"
   inkscape:version="1.0.2 (e86c870879, 2021-01-15)">
  <metadata
     id="metadata12">
    <rdf:RDF>
      <cc:Work
         rdf:about="">
        <dc:format>image/svg+xml</dc:format>
        <dc:type
           rdf:resource="http://purl.org/dc/dcmitype/StillImage" />
        <dc:title></dc:title>
      </cc:Work>
    </rdf:RDF>
  </metadata>
  <defs
     id="defs10">
    <linearGradient
       gradientUnits="userSpaceOnUse"
       gradientTransform="matrix(0.0920001,0,0,0.09064843,-21.193131,1.5846311)"
       y2="269.48999"
       y1="235.14999"
       x2="657.65002"
       x1="319.20999"
       id="a-12">
      <stop
         id="stop1076"
         offset="0"
         stop-color="#e54c18" />
      <stop
         id="stop1078"
         offset="1"
         stop-color="#fec350" />
    </linearGradient>
    <linearGradient
       id="linearGradient946"
       x1="31.833"
       x2="32.167"
       y1="51.558998"
       y2="11.098"
       gradientUnits="userSpaceOnUse"
       gradientTransform="matrix(0.83258662,0,0,0.83258662,-4.004011,0.8380211)">
      <stop
         stop-color="#f9f9f9"
         offset="0"
         id="stop5" />
      <stop
         stop-color="#f0fee6"
         offset="1"
         id="stop7-3" />
    </linearGradient>
  </defs>
  <sodipodi:namedview
     pagecolor="#ffffff"
     bordercolor="#666666"
     borderopacity="1"
     objecttolerance="10"
     gridtolerance="10"
     guidetolerance="10"
     inkscape:pageopacity="0"
     inkscape:pageshadow="2"
     inkscape:window-width="1920"
     inkscape:window-height="1031"
     id="namedview8"
     showgrid="true"
     inkscape:zoom="6.555469"
     inkscape:cx="7.0953045"
     inkscape:cy="29.576412"
     inkscape:window-x="0"
     inkscape:window-y="24"
     inkscape:window-maximized="1"
     inkscape:current-layer="svg6"
     inkscape:document-rotation="0">
    <inkscape:grid
       type="xygrid"
       id="grid837" />
  </sodipodi:namedview>
  <circle
     cx="23.940615"
     cy="31.534513"
     fill="#74a2f3"
     opacity=".99"
     r="13.232998"
     transform="matrix(1.75830584759 0 0 1.75830608345 -18.15909274367 -30.97874795549)"
     id="circle2"
     style="fill:#a1d2b9;fill-opacity:1" />
  <ellipse
     cx="23.935829"
     cy="24.468578"
     fill="#74a2f3"
     opacity="0.99"
     id="circle846"
     style="fill:#ffffff;fill-opacity:0.31997341;stroke-width:1.534"
     rx="20.299435"
     ry="20.299437" />
  <path
     d="M 23.935412,9.4820199 A 14.986559,14.986559 0 0 0 11.807956,15.695201 l 2.149323,1.292588 a 12.488799,12.488799 0 0 1 9.97855,-5.008009 12.488799,12.488799 0 0 1 12.488798,12.488799 12.488799,12.488799 0 0 1 -12.488798,12.488799 12.488799,12.488799 0 0 1 -9.97855,-5.000513 l -2.15182,1.291342 A 14.986559,14.986559 0 0 0 23.936247,39.455138 14.986559,14.986559 0 0 0 38.922806,24.468579 14.986559,14.986559 0 0 0 23.936247,9.4820199 Z M 8.9488539,15.72642 v 17.484319 l 14.9865581,-8.74216 z m 14.9865581,0 a 8.7421596,8.7421596 0 0 0 -6.74645,3.195886 l 2.175552,1.305078 a 6.2443995,6.2443995 0 0 1 4.570898,-2.003205 6.2443995,6.2443995 0 0 1 6.244399,6.2444 6.2443995,6.2443995 0 0 1 -6.244399,6.244399 6.2443995,6.2443995 0 0 1 -4.573396,-2.003201 l -2.17555,1.307577 a 8.7421596,8.7421596 0 0 0 6.748946,3.193385 8.7421596,8.7421596 0 0 0 8.74216,-8.74216 8.7421596,8.7421596 0 0 0 -8.74216,-8.742159 z"
     fill="url(#linearGradient946)"
     id="path32"
     style="fill:#ffffff;fill-opacity:1;stroke-width:0.832587" />
</svg>
