<?xml version="1.0" encoding="UTF-8" standalone="no"?>
<svg
   xmlns:dc="http://purl.org/dc/elements/1.1/"
   xmlns:cc="http://creativecommons.org/ns#"
   xmlns:rdf="http://www.w3.org/1999/02/22-rdf-syntax-ns#"
   xmlns:svg="http://www.w3.org/2000/svg"
   xmlns="http://www.w3.org/2000/svg"
   xmlns:sodipodi="http://sodipodi.sourceforge.net/DTD/sodipodi-0.dtd"
   xmlns:inkscape="http://www.inkscape.org/namespaces/inkscape"
   width="48"
   height="48"
   viewBox="0 0 12.7 12.7"
   version="1.1"
   id="svg1253"
   inkscape:version="1.0.2 (e86c870879, 2021-01-15)"
   sodipodi:docname="discord.svg">
  <defs
     id="defs1247" />
  <sodipodi:namedview
     id="base"
     pagecolor="#ffffff"
     bordercolor="#666666"
     borderopacity="1.0"
     inkscape:pageopacity="0.0"
     inkscape:pageshadow="2"
     inkscape:zoom="7.9195959"
     inkscape:cx="12.788223"
     inkscape:cy="25.260692"
     inkscape:document-units="mm"
     inkscape:current-layer="layer1"
     inkscape:document-rotation="0"
     showgrid="true"
     units="px"
     inkscape:window-width="1456"
     inkscape:window-height="1029"
     inkscape:window-x="462"
     inkscape:window-y="24"
     inkscape:window-maximized="0">
    <inkscape:grid
       type="xygrid"
       id="grid1816" />
  </sodipodi:namedview>
  <metadata
     id="metadata1250">
    <rdf:RDF>
      <cc:Work
         rdf:about="">
        <dc:format>image/svg+xml</dc:format>
        <dc:type
           rdf:resource="http://purl.org/dc/dcmitype/StillImage" />
        <dc:title></dc:title>
      </cc:Work>
    </rdf:RDF>
  </metadata>
  <g
     inkscape:label="Capa 1"
     inkscape:groupmode="layer"
     id="layer1">
    <path
       id="path4322"
       d="M 0.9061604,1.0535977 H 11.489484 c 0.219872,0 0.39688,0.1770062 0.39688,0.396875 v 5.3152939 5.2680394 c 0,0.219869 -0.177008,0.396875 -0.39688,0.396875 H 0.9061604 c -0.2198713,0 -0.39687958,-0.177006 -0.39687958,-0.396875 V 6.7539397 1.4504727 c 0,-0.2198688 0.17700828,-0.396875 0.39687958,-0.396875 z"
       style="fill:#938dbf;fill-opacity:1;stroke:none;stroke-width:1.5875;stroke-linecap:round;stroke-linejoin:round;stroke-miterlimit:4;stroke-dasharray:none;stroke-dashoffset:0;stroke-opacity:1;paint-order:fill markers stroke"
       inkscape:connector-curvature="0"
       sodipodi:nodetypes="ssscsssscss" />
    <path
       d="M 7.9810773,9.5804659 C 8.57363,9.394437 9.0849598,9.1059685 9.4823156,8.5922489 7.3072826,9.8491934 5.1556795,9.8107113 2.9847466,8.6009577 3.1618701,8.8536797 3.3751569,9.0456807 3.624118,9.1897955 3.8723248,9.3334974 4.1357773,9.4509011 4.4014393,9.5843522 4.2868833,9.7274035 4.150935,9.8769698 4.0389601,10.042693 3.9323735,10.200598 3.8115177,10.255912 3.6167153,10.233261 2.8826966,10.147956 2.222822,9.9036815 1.6756582,9.3927427 1.6597996,9.3778876 1.644887,9.3620327 1.6287941,9.3475273 1.4054116,9.1463398 1.3121566,8.9217847 1.3313766,8.5969613 1.4222632,7.0593663 1.8058957,5.6045575 2.4775428,4.2227396 2.5104662,4.155004 2.5666919,4.0898095 2.6282161,4.0461577 3.1647385,3.6653255 3.7531425,3.4022663 4.4039402,3.2885552 c 0.124241,-0.021719 0.25029,-0.037982 0.3760974,-0.043565 0.05114,-0.00226 0.1038715,0.030645 0.1547329,0.067453 C 4.1613593,3.5709861 3.4263862,3.8824757 2.7799967,4.4029483 5.0011573,3.3448894 7.2093587,3.2925295 9.423768,4.3761294 8.8318244,3.8977651 8.1475174,3.6013266 7.431612,3.3670639 7.4850581,3.2571103 7.5596553,3.2359577 7.6739747,3.2465991 c 0.7747363,0.071992 1.46658,0.3567693 2.098092,0.7997551 0.05927,0.041567 0.114602,0.1026572 0.146506,0.1671568 0.4900033,0.992018 0.8202793,2.035808 1.0075023,3.1260733 0.08696,0.5067477 0.131732,1.0170136 0.140617,1.5302325 0.0011,0.072144 -0.02941,0.1581225 -0.07384,0.2157814 -0.412625,0.5353707 -0.962635,0.8660358 -1.6102385,1.0314338 -0.25016,0.06387 -0.5110274,0.08661 -0.7678967,0.121942 -0.039785,0.0055 -0.099984,-0.0087 -0.1238314,-0.03677 C 8.3198014,10.00169 8.1557473,9.7952905 7.9810773,9.5804648 Z M 4.5502708,8.2094197 C 4.8342002,8.2087304 5.0025513,8.1485901 5.1502911,8.0258661 5.3917883,7.825113 5.4818921,7.5606419 5.5004811,7.2536272 5.5212377,6.9103007 5.3879434,6.6549295 5.102708,6.4807141 4.8084191,6.3010053 4.5009067,6.2861506 4.2030563,6.4730702 3.7249755,6.7730923 3.6351742,7.4867388 4.0155725,7.9168038 4.1820317,8.1049613 4.3888016,8.2074223 4.5502708,8.2094197 Z m 3.1338218,0.013244 c 0.097602,-0.022389 0.199777,-0.033032 0.2920789,-0.069101 0.56964,-0.2222531 0.7510194,-0.987109 0.357137,-1.4912513 C 8.0263781,6.2694926 7.4544787,6.2340931 7.1047712,6.589885 6.873461,6.8251896 6.8013142,7.1130721 6.8407329,7.4352242 6.8929612,7.8622054 7.2666923,8.2075509 7.6840926,8.2226664 Z"
       fill="#ffffff"
       stroke-width="0.0217171"
       id="path859"
       style="fill:#ffffff;fill-opacity:1" />
    <path
       d="M 7.9810773,9.5804659 C 8.57363,9.394437 9.0849598,9.1059685 9.4823156,8.5922489 7.3072826,9.8491934 5.1556795,9.8107113 2.9847466,8.6009577 3.1618701,8.8536797 3.3751569,9.0456807 3.624118,9.1897955 3.8723248,9.3334974 4.1357773,9.4509011 4.4014393,9.5843522 4.2868833,9.7274035 4.150935,9.8769698 4.0389601,10.042693 3.9323735,10.200598 3.8115177,10.255912 3.6167153,10.233261 2.8826966,10.147956 2.222822,9.9036815 1.6756582,9.3927427 1.6597996,9.3778876 1.644887,9.3620327 1.6287941,9.3475273 1.4054116,9.1463398 1.3121566,8.9217847 1.3313766,8.5969613 1.4222632,7.0593663 1.8058957,5.6045575 2.4775428,4.2227396 2.5104662,4.155004 2.5666919,4.0898095 2.6282161,4.0461577 3.1647385,3.6653255 3.7531425,3.4022663 4.4039402,3.2885552 c 0.124241,-0.021719 0.25029,-0.037982 0.3760974,-0.043565 0.05114,-0.00226 0.1038715,0.030645 0.1547329,0.067453 C 4.1613593,3.5709861 3.4263862,3.8824757 2.7799967,4.4029483 5.0011573,3.3448894 7.2093587,3.2925295 9.423768,4.3761294 8.8318244,3.8977651 8.1475174,3.6013266 7.431612,3.3670639 7.4850581,3.2571103 7.5596553,3.2359577 7.6739747,3.2465991 c 0.7747363,0.071992 1.46658,0.3567693 2.098092,0.7997551 0.05927,0.041567 0.114602,0.1026572 0.146506,0.1671568 0.4900033,0.992018 0.8202793,2.035808 1.0075023,3.1260733 0.08696,0.5067477 0.131732,1.0170136 0.140617,1.5302325 0.0011,0.072144 -0.02941,0.1581225 -0.07384,0.2157814 -0.412625,0.5353707 -0.962635,0.8660358 -1.6102385,1.0314338 -0.25016,0.06387 -0.5110274,0.08661 -0.7678967,0.121942 -0.039785,0.0055 -0.099984,-0.0087 -0.1238314,-0.03677 C 8.3198014,10.00169 8.1557473,9.7952905 7.9810773,9.5804648 Z M 4.5502708,8.2094197 C 4.8342002,8.2087304 5.0025513,8.1485901 5.1502911,8.0258661 5.3917883,7.825113 5.4818921,7.5606419 5.5004811,7.2536272 5.5212377,6.9103007 5.3879434,6.6549295 5.102708,6.4807141 4.8084191,6.3010053 4.5009067,6.2861506 4.2030563,6.4730702 3.7249755,6.7730923 3.6351742,7.4867388 4.0155725,7.9168038 4.1820317,8.1049613 4.3888016,8.2074223 4.5502708,8.2094197 Z m 3.1338218,0.013244 c 0.097602,-0.022389 0.199777,-0.033032 0.2920789,-0.069101 0.56964,-0.2222531 0.7510194,-0.987109 0.357137,-1.4912513 C 8.0263781,6.2694926 7.4544787,6.2340931 7.1047712,6.589885 6.873461,6.8251896 6.8013142,7.1130721 6.8407329,7.4352242 6.8929612,7.8622054 7.2666923,8.2075509 7.6840926,8.2226664 Z"
       fill="#ffffff"
       stroke-width="0.0217171"
       id="path20"
       style="fill:#ffffff;fill-opacity:0.39164245" />
    <circle
       style="fill:#e6a796;fill-opacity:1;stroke:none;stroke-width:0.264999;stroke-linecap:round;stroke-linejoin:round;stroke-miterlimit:4;stroke-dasharray:none"
       id="path907"
       cx="9.542347"
       cy="10.036819"
       r="1.984375" />
    <path
       id="path917"
       style="fill:#e6a796;fill-opacity:1;stroke:#ffffff;stroke-width:2.89133862;stroke-linecap:butt;stroke-linejoin:round;stroke-miterlimit:4;stroke-dasharray:none;stroke-opacity:1"
       inkscape:transform-center-x="-0.26741982"
       inkscape:transform-center-y="0.26741971"
       d="M 36.029297 30.433594 A 7.5 7.5 0 0 0 31.748047 31.804688 L 28.498047 30.933594 L 29.435547 34.431641 A 7.5 7.5 0 0 0 28.566406 37.933594 A 7.5 7.5 0 0 0 36.066406 45.433594 A 7.5 7.5 0 0 0 43.566406 37.933594 A 7.5 7.5 0 0 0 36.066406 30.433594 A 7.5 7.5 0 0 0 36.029297 30.433594 z "
       transform="scale(0.26458333)" />
    <path
       sodipodi:type="star"
       style="fill:#96b0e6;fill-opacity:1;stroke:none;stroke-width:0.264999;stroke-linecap:round;stroke-linejoin:round;stroke-miterlimit:4;stroke-dasharray:none"
       id="path909"
       sodipodi:sides="3"
       sodipodi:cx="9.0015063"
       sodipodi:cy="9.6456178"
       sodipodi:r1="2.0664618"
       sodipodi:r2="1.033231"
       sodipodi:arg1="-2.3561945"
       sodipodi:arg2="-1.3089969"
       inkscape:flatsided="true"
       inkscape:rounded="0"
       inkscape:randomized="0"
       d="M 7.5402967,8.1844083 10.997555,9.1107778 8.4666662,11.641666 Z"
       inkscape:transform-center-x="-0.26741982"
       inkscape:transform-center-y="0.26741971" />
    <circle
       style="fill:#96b0e6;fill-opacity:1;stroke:none;stroke-width:0.264999;stroke-linecap:round;stroke-linejoin:round;stroke-miterlimit:4;stroke-dasharray:none"
       id="circle915"
       cx="9.542347"
       cy="10.036819"
       r="1.984375" />
    <ellipse
       style="fill:#938dbf;fill-opacity:1;stroke:none;stroke-width:0.862722;stroke-linecap:butt;stroke-linejoin:round;stroke-miterlimit:4;stroke-dasharray:none;stroke-opacity:1"
       id="path922"
       cx="7.6881609"
       cy="7.2724881"
       rx="0.86197203"
       ry="0.92959493" />
    <circle
       style="fill:#ffffff;fill-opacity:1;stroke:none;stroke-width:0.765;stroke-linecap:butt;stroke-linejoin:round;stroke-miterlimit:4;stroke-dasharray:none;stroke-opacity:1"
       id="path924"
       cx="8.6416893"
       cy="10.186459"
       r="0.66145831" />
    <circle
       style="fill:#ffffff;fill-opacity:1;stroke:none;stroke-width:0.765;stroke-linecap:butt;stroke-linejoin:round;stroke-miterlimit:4;stroke-dasharray:none;stroke-opacity:1"
       id="circle926"
       cx="10.421494"
       cy="10.186459"
       r="0.66145831" />
  </g>
</svg>
