<?xml version="1.0" encoding="UTF-8" standalone="no"?>
<svg
   xmlns:dc="http://purl.org/dc/elements/1.1/"
   xmlns:cc="http://creativecommons.org/ns#"
   xmlns:rdf="http://www.w3.org/1999/02/22-rdf-syntax-ns#"
   xmlns:svg="http://www.w3.org/2000/svg"
   xmlns="http://www.w3.org/2000/svg"
   xmlns:sodipodi="http://sodipodi.sourceforge.net/DTD/sodipodi-0.dtd"
   xmlns:inkscape="http://www.inkscape.org/namespaces/inkscape"
   height="48"
   width="48"
   version="1.1"
   id="svg24"
   sodipodi:docname="disk-check.svg"
   inkscape:version="0.92.4 5da689c313, 2019-01-14">
  <metadata
     id="metadata30">
    <rdf:RDF>
      <cc:Work
         rdf:about="">
        <dc:format>image/svg+xml</dc:format>
        <dc:type
           rdf:resource="http://purl.org/dc/dcmitype/StillImage" />
        <dc:title></dc:title>
      </cc:Work>
    </rdf:RDF>
  </metadata>
  <defs
     id="defs28" />
  <sodipodi:namedview
     pagecolor="#ffffff"
     bordercolor="#666666"
     borderopacity="1"
     objecttolerance="10"
     gridtolerance="10"
     guidetolerance="10"
     inkscape:pageopacity="0"
     inkscape:pageshadow="2"
     inkscape:window-width="1920"
     inkscape:window-height="1031"
     id="namedview26"
     showgrid="false"
     inkscape:zoom="4.9166667"
     inkscape:cx="28.024734"
     inkscape:cy="25.909946"
     inkscape:window-x="0"
     inkscape:window-y="26"
     inkscape:window-maximized="1"
     inkscape:current-layer="svg24" />
  <rect
     fill="#91766f"
     height="43"
     ry="1.452703"
     width="43"
     x="2"
     y="3"
     id="rect2" />
  <path
     d="m17 39h27v6h-27z"
     fill-opacity=".483019"
     id="path4" />
  <path
     d="m45 37v7.547298c0 .804797-.647905 1.452703-1.452703 1.452703h-40.0945941c-.8047974 0-1.4527029-.647906-1.4527029-1.452703v-7.547298z"
     fill-opacity=".228464"
     id="path6" />
  <path
     d="m40.884766 5.0234375a2.1060915 2.1060915 0 0 0 -2.107422 2.1054687 2.1060915 2.1060915 0 0 0 2.107422 2.1054688 2.1060915 2.1060915 0 0 0 2.105468-2.1054688 2.1060915 2.1060915 0 0 0 -2.105468-2.1054687zm-34.7617191.0117187a2.1060915 2.1060915 0 0 0 -2.1074219 2.1074219 2.1060915 2.1060915 0 0 0 2.1074219 2.1054688 2.1060915 2.1060915 0 0 0 2.1054687-2.1054688 2.1060915 2.1060915 0 0 0 -2.1054687-2.1074219zm0 25.7597658a2.1060915 2.1060915 0 0 0 -2.1074219 2.105469 2.1060915 2.1060915 0 0 0 2.1074219 2.105468 2.1060915 2.1060915 0 0 0 2.1054687-2.105468 2.1060915 2.1060915 0 0 0 -2.1054687-2.105469zm34.7480471 0a2.1060915 2.1060915 0 0 0 -2.105469 2.105469 2.1060915 2.1060915 0 0 0 2.105469 2.105468 2.1060915 2.1060915 0 0 0 2.107422-2.105468 2.1060915 2.1060915 0 0 0 -2.107422-2.105469z"
     fill="#fff"
     fill-opacity=".598592"
     id="path8" />
  <path
     d="m18 40h10v4h-10z"
     fill-opacity=".521569"
     id="path10" />
  <path
     d="m30 40h13v4h-13z"
     fill-opacity=".520599"
     id="path12" />
  <path
     d="m19 40v3h2v-3zm3 0v3h2v-3zm3 0v3h2v-3zm6 0v3h2v-3zm3 0v3h2v-3zm3 0v3h2v-3zm3 0v3h2v-3z"
     fill="#d9ce87"
     id="path14" />
  <path
     d="m18 43v1h10v-1zm12 0v1h13v-1z"
     fill="#9e9e9e"
     fill-opacity=".569288"
     id="path16" />
  <path
     style="color:#000000;font-style:normal;font-variant:normal;font-weight:normal;font-stretch:normal;font-size:medium;line-height:normal;font-family:sans-serif;font-variant-ligatures:normal;font-variant-position:normal;font-variant-caps:normal;font-variant-numeric:normal;font-variant-alternates:normal;font-feature-settings:normal;text-indent:0;text-align:start;text-decoration:none;text-decoration-line:none;text-decoration-style:solid;text-decoration-color:#000000;letter-spacing:normal;word-spacing:normal;text-transform:none;writing-mode:lr-tb;direction:ltr;text-orientation:mixed;dominant-baseline:auto;baseline-shift:baseline;text-anchor:start;white-space:normal;shape-padding:0;clip-rule:nonzero;display:inline;overflow:visible;visibility:visible;opacity:1;isolation:auto;mix-blend-mode:normal;color-interpolation:sRGB;color-interpolation-filters:linearRGB;solid-color:#000000;solid-opacity:1;vector-effect:none;fill:#ffffff;fill-opacity:1;fill-rule:nonzero;stroke:none;stroke-width:4;stroke-linecap:butt;stroke-linejoin:miter;stroke-miterlimit:4;stroke-dasharray:none;stroke-dashoffset:0;stroke-opacity:1;color-rendering:auto;image-rendering:auto;shape-rendering:auto;text-rendering:auto;enable-background:accumulate"
     d="m 29.458259,12.402292 -8.851377,11.77375 -2.115606,-4.720488 -3.76809,4.397168 5.970703,5.427734 14.413291,-12.781778 z"
     id="path840"
     inkscape:connector-curvature="0"
     sodipodi:nodetypes="ccccccc" />
</svg>
