<?xml version="1.0" encoding="UTF-8" standalone="no"?>
<!-- Created with Inkscape (http://www.inkscape.org/) -->

<svg
   xmlns:dc="http://purl.org/dc/elements/1.1/"
   xmlns:cc="http://creativecommons.org/ns#"
   xmlns:rdf="http://www.w3.org/1999/02/22-rdf-syntax-ns#"
   xmlns:svg="http://www.w3.org/2000/svg"
   xmlns="http://www.w3.org/2000/svg"
   xmlns:xlink="http://www.w3.org/1999/xlink"
   xmlns:sodipodi="http://sodipodi.sourceforge.net/DTD/sodipodi-0.dtd"
   xmlns:inkscape="http://www.inkscape.org/namespaces/inkscape"
   width="48"
   height="48"
   viewBox="0 0 48 48.000001"
   id="svg4232"
   version="1.1"
   inkscape:version="0.92.4 5da689c313, 2019-01-14"
   sodipodi:docname="debian-logo.svg">
  <defs
     id="defs4234">
    <radialGradient
       id="radial0"
       gradientUnits="userSpaceOnUse"
       cx="450.908936"
       cy="189.579361"
       fx="450.908936"
       fy="189.579361"
       r="21.166656"
       gradientTransform="matrix(3.57049e-7,-0.102549,-0.288309,-1.33269e-7,78.984696,88.973262)">
      <stop
         offset="0"
         style="stop-color:rgb(0%,0%,0%);stop-opacity:0.313726;"
         id="stop822" />
      <stop
         offset="0.222222"
         style="stop-color:rgb(0%,0%,0%);stop-opacity:0.27451;"
         id="stop824" />
      <stop
         offset="1"
         style="stop-color:rgb(0%,0%,0%);stop-opacity:0;"
         id="stop826" />
    </radialGradient>
    <radialGradient
       id="radial1"
       gradientUnits="userSpaceOnUse"
       cx="450.908936"
       cy="189.579361"
       fx="450.908936"
       fy="189.579361"
       r="21.166656"
       gradientTransform="matrix(-3.57049e-7,0.102549,0.288309,1.33269e-7,-31.685907,-4.375346)">
      <stop
         offset="0"
         style="stop-color:rgb(0%,0%,0%);stop-opacity:0.313726;"
         id="stop829" />
      <stop
         offset="0.222222"
         style="stop-color:rgb(0%,0%,0%);stop-opacity:0.27451;"
         id="stop831" />
      <stop
         offset="1"
         style="stop-color:rgb(0%,0%,0%);stop-opacity:0;"
         id="stop833" />
    </radialGradient>
    <radialGradient
       id="radial2"
       gradientUnits="userSpaceOnUse"
       cx="450.908936"
       cy="189.579361"
       fx="450.908936"
       fy="189.579361"
       r="21.166656"
       gradientTransform="matrix(-3.57049e-7,-0.102549,0.288309,-1.33269e-7,-31.685907,88.973262)">
      <stop
         offset="0"
         style="stop-color:rgb(0%,0%,0%);stop-opacity:0.313726;"
         id="stop836" />
      <stop
         offset="0.222222"
         style="stop-color:rgb(0%,0%,0%);stop-opacity:0.27451;"
         id="stop838" />
      <stop
         offset="1"
         style="stop-color:rgb(0%,0%,0%);stop-opacity:0;"
         id="stop840" />
    </radialGradient>
    <radialGradient
       id="radial3"
       gradientUnits="userSpaceOnUse"
       cx="450.908936"
       cy="189.579361"
       fx="450.908936"
       fy="189.579361"
       r="21.166656"
       gradientTransform="matrix(3.57049e-7,0.102549,-0.288309,1.33269e-7,78.984692,-4.375346)">
      <stop
         offset="0"
         style="stop-color:rgb(0%,0%,0%);stop-opacity:0.313726;"
         id="stop843" />
      <stop
         offset="0.222222"
         style="stop-color:rgb(0%,0%,0%);stop-opacity:0.27451;"
         id="stop845" />
      <stop
         offset="1"
         style="stop-color:rgb(0%,0%,0%);stop-opacity:0;"
         id="stop847" />
    </radialGradient>
    <linearGradient
       id="linear0"
       gradientUnits="userSpaceOnUse"
       x1="255.323059"
       y1="233.5"
       x2="255.323044"
       y2="254.666656"
       gradientTransform="matrix(0.0273881,0,0,0.082039,16.656575,23.142854)">
      <stop
         offset="0"
         style="stop-color:rgb(0%,0%,0%);stop-opacity:0.27451;"
         id="stop850" />
      <stop
         offset="1"
         style="stop-color:rgb(0%,0%,0%);stop-opacity:0;"
         id="stop852" />
    </linearGradient>
    <linearGradient
       id="linear1"
       gradientUnits="userSpaceOnUse"
       x1="254"
       y1="233.5"
       x2="254"
       y2="-168.666672"
       gradientTransform="matrix(0.093759,0,0,0.093759,0,20.158175)">
      <stop
         offset="0"
         style="stop-color:rgb(100%,43.921569%,26.274511%);stop-opacity:1;"
         id="stop855" />
      <stop
         offset="1"
         style="stop-color:rgb(100%,54.11765%,39.607844%);stop-opacity:1;"
         id="stop857" />
    </linearGradient>
    <linearGradient
       id="linear2"
       gradientUnits="userSpaceOnUse"
       x1="254"
       y1="148.833328"
       x2="254"
       y2="-84"
       gradientTransform="matrix(0.093759,0,0,0.093759,0,20.158175)">
      <stop
         offset="0"
         style="stop-color:rgb(74.117649%,74.117649%,74.117649%);stop-opacity:1;"
         id="stop860" />
      <stop
         offset="1"
         style="stop-color:rgb(87.843138%,87.843138%,87.843138%);stop-opacity:1;"
         id="stop862" />
    </linearGradient>
    <linearGradient
       id="linear2-3"
       gradientUnits="userSpaceOnUse"
       x1="254"
       y1="148.83333"
       x2="254"
       y2="-84"
       gradientTransform="matrix(0.08461253,0,0,0.08461253,-19.162897,21.468351)">
      <stop
         offset="0"
         style="stop-color:rgb(74.117649%,74.117649%,74.117649%);stop-opacity:1;"
         id="stop860-6" />
      <stop
         offset="1"
         style="stop-color:rgb(87.843138%,87.843138%,87.843138%);stop-opacity:1;"
         id="stop862-7" />
    </linearGradient>
    <radialGradient
       id="radial0-1"
       gradientUnits="userSpaceOnUse"
       cx="450.908936"
       cy="189.579361"
       fx="450.908936"
       fy="189.579361"
       r="21.166656"
       gradientTransform="matrix(3.57049e-7,-0.102549,-0.288309,-1.33269e-7,78.984696,88.973262)">
      <stop
         offset="0"
         style="stop-color:rgb(0%,0%,0%);stop-opacity:0.313726;"
         id="stop822-2" />
      <stop
         offset="0.222222"
         style="stop-color:rgb(0%,0%,0%);stop-opacity:0.27451;"
         id="stop824-7" />
      <stop
         offset="1"
         style="stop-color:rgb(0%,0%,0%);stop-opacity:0;"
         id="stop826-0" />
    </radialGradient>
    <radialGradient
       id="radial1-9"
       gradientUnits="userSpaceOnUse"
       cx="450.908936"
       cy="189.579361"
       fx="450.908936"
       fy="189.579361"
       r="21.166656"
       gradientTransform="matrix(-3.57049e-7,0.102549,0.288309,1.33269e-7,-31.685907,-4.375346)">
      <stop
         offset="0"
         style="stop-color:rgb(0%,0%,0%);stop-opacity:0.313726;"
         id="stop829-3" />
      <stop
         offset="0.222222"
         style="stop-color:rgb(0%,0%,0%);stop-opacity:0.27451;"
         id="stop831-6" />
      <stop
         offset="1"
         style="stop-color:rgb(0%,0%,0%);stop-opacity:0;"
         id="stop833-0" />
    </radialGradient>
    <radialGradient
       id="radial2-6"
       gradientUnits="userSpaceOnUse"
       cx="450.908936"
       cy="189.579361"
       fx="450.908936"
       fy="189.579361"
       r="21.166656"
       gradientTransform="matrix(-3.57049e-7,-0.102549,0.288309,-1.33269e-7,-31.685907,88.973262)">
      <stop
         offset="0"
         style="stop-color:rgb(0%,0%,0%);stop-opacity:0.313726;"
         id="stop836-2" />
      <stop
         offset="0.222222"
         style="stop-color:rgb(0%,0%,0%);stop-opacity:0.27451;"
         id="stop838-6" />
      <stop
         offset="1"
         style="stop-color:rgb(0%,0%,0%);stop-opacity:0;"
         id="stop840-1" />
    </radialGradient>
    <radialGradient
       id="radial3-8"
       gradientUnits="userSpaceOnUse"
       cx="450.908936"
       cy="189.579361"
       fx="450.908936"
       fy="189.579361"
       r="21.166656"
       gradientTransform="matrix(3.57049e-7,0.102549,-0.288309,1.33269e-7,78.984692,-4.375346)">
      <stop
         offset="0"
         style="stop-color:rgb(0%,0%,0%);stop-opacity:0.313726;"
         id="stop843-7" />
      <stop
         offset="0.222222"
         style="stop-color:rgb(0%,0%,0%);stop-opacity:0.27451;"
         id="stop845-9" />
      <stop
         offset="1"
         style="stop-color:rgb(0%,0%,0%);stop-opacity:0;"
         id="stop847-2" />
    </radialGradient>
    <radialGradient
       id="radial0-3"
       gradientUnits="userSpaceOnUse"
       cx="450.908936"
       cy="189.579361"
       fx="450.908936"
       fy="189.579361"
       r="21.166656"
       gradientTransform="matrix(3.57049e-7,-0.102549,-0.288309,-1.33269e-7,78.984696,88.973262)">
      <stop
         offset="0"
         style="stop-color:rgb(0%,0%,0%);stop-opacity:0.313726;"
         id="stop822-6" />
      <stop
         offset="0.222222"
         style="stop-color:rgb(0%,0%,0%);stop-opacity:0.27451;"
         id="stop824-75" />
      <stop
         offset="1"
         style="stop-color:rgb(0%,0%,0%);stop-opacity:0;"
         id="stop826-3" />
    </radialGradient>
    <radialGradient
       id="radial1-5"
       gradientUnits="userSpaceOnUse"
       cx="450.908936"
       cy="189.579361"
       fx="450.908936"
       fy="189.579361"
       r="21.166656"
       gradientTransform="matrix(-3.57049e-7,0.102549,0.288309,1.33269e-7,-31.685907,-4.375346)">
      <stop
         offset="0"
         style="stop-color:rgb(0%,0%,0%);stop-opacity:0.313726;"
         id="stop829-6" />
      <stop
         offset="0.222222"
         style="stop-color:rgb(0%,0%,0%);stop-opacity:0.27451;"
         id="stop831-2" />
      <stop
         offset="1"
         style="stop-color:rgb(0%,0%,0%);stop-opacity:0;"
         id="stop833-9" />
    </radialGradient>
    <radialGradient
       id="radial2-1"
       gradientUnits="userSpaceOnUse"
       cx="450.908936"
       cy="189.579361"
       fx="450.908936"
       fy="189.579361"
       r="21.166656"
       gradientTransform="matrix(-3.57049e-7,-0.102549,0.288309,-1.33269e-7,-31.685907,88.973262)">
      <stop
         offset="0"
         style="stop-color:rgb(0%,0%,0%);stop-opacity:0.313726;"
         id="stop836-27" />
      <stop
         offset="0.222222"
         style="stop-color:rgb(0%,0%,0%);stop-opacity:0.27451;"
         id="stop838-0" />
      <stop
         offset="1"
         style="stop-color:rgb(0%,0%,0%);stop-opacity:0;"
         id="stop840-9" />
    </radialGradient>
    <radialGradient
       id="radial3-3"
       gradientUnits="userSpaceOnUse"
       cx="450.908936"
       cy="189.579361"
       fx="450.908936"
       fy="189.579361"
       r="21.166656"
       gradientTransform="matrix(3.57049e-7,0.102549,-0.288309,1.33269e-7,78.984692,-4.375346)">
      <stop
         offset="0"
         style="stop-color:rgb(0%,0%,0%);stop-opacity:0.313726;"
         id="stop843-6" />
      <stop
         offset="0.222222"
         style="stop-color:rgb(0%,0%,0%);stop-opacity:0.27451;"
         id="stop845-0" />
      <stop
         offset="1"
         style="stop-color:rgb(0%,0%,0%);stop-opacity:0;"
         id="stop847-6" />
    </radialGradient>
    <radialGradient
       id="radial0-7"
       gradientUnits="userSpaceOnUse"
       cx="450.908936"
       cy="189.579361"
       fx="450.908936"
       fy="189.579361"
       r="21.166656"
       gradientTransform="matrix(3.57049e-7,-0.102549,-0.288309,-1.33269e-7,78.984696,88.973262)">
      <stop
         offset="0"
         style="stop-color:rgb(0%,0%,0%);stop-opacity:0.313726;"
         id="stop822-5" />
      <stop
         offset="0.222222"
         style="stop-color:rgb(0%,0%,0%);stop-opacity:0.27451;"
         id="stop824-9" />
      <stop
         offset="1"
         style="stop-color:rgb(0%,0%,0%);stop-opacity:0;"
         id="stop826-2" />
    </radialGradient>
    <radialGradient
       id="radial1-2"
       gradientUnits="userSpaceOnUse"
       cx="450.908936"
       cy="189.579361"
       fx="450.908936"
       fy="189.579361"
       r="21.166656"
       gradientTransform="matrix(-3.57049e-7,0.102549,0.288309,1.33269e-7,-31.685907,-4.375346)">
      <stop
         offset="0"
         style="stop-color:rgb(0%,0%,0%);stop-opacity:0.313726;"
         id="stop829-8" />
      <stop
         offset="0.222222"
         style="stop-color:rgb(0%,0%,0%);stop-opacity:0.27451;"
         id="stop831-9" />
      <stop
         offset="1"
         style="stop-color:rgb(0%,0%,0%);stop-opacity:0;"
         id="stop833-7" />
    </radialGradient>
    <radialGradient
       id="radial2-3"
       gradientUnits="userSpaceOnUse"
       cx="450.908936"
       cy="189.579361"
       fx="450.908936"
       fy="189.579361"
       r="21.166656"
       gradientTransform="matrix(-3.57049e-7,-0.102549,0.288309,-1.33269e-7,-31.685907,88.973262)">
      <stop
         offset="0"
         style="stop-color:rgb(0%,0%,0%);stop-opacity:0.313726;"
         id="stop836-6" />
      <stop
         offset="0.222222"
         style="stop-color:rgb(0%,0%,0%);stop-opacity:0.27451;"
         id="stop838-1" />
      <stop
         offset="1"
         style="stop-color:rgb(0%,0%,0%);stop-opacity:0;"
         id="stop840-2" />
    </radialGradient>
    <radialGradient
       id="radial3-9"
       gradientUnits="userSpaceOnUse"
       cx="450.908936"
       cy="189.579361"
       fx="450.908936"
       fy="189.579361"
       r="21.166656"
       gradientTransform="matrix(3.57049e-7,0.102549,-0.288309,1.33269e-7,78.984692,-4.375346)">
      <stop
         offset="0"
         style="stop-color:rgb(0%,0%,0%);stop-opacity:0.313726;"
         id="stop843-3" />
      <stop
         offset="0.222222"
         style="stop-color:rgb(0%,0%,0%);stop-opacity:0.27451;"
         id="stop845-1" />
      <stop
         offset="1"
         style="stop-color:rgb(0%,0%,0%);stop-opacity:0;"
         id="stop847-9" />
    </radialGradient>
    <linearGradient
       id="linearGradient3866">
      <stop
         style="stop-color:#000000;stop-opacity:0.52083331"
         offset="0"
         id="stop3868" />
      <stop
         style="stop-color:#2883c3;stop-opacity:0;"
         offset="1"
         id="stop3870" />
    </linearGradient>
    <linearGradient
       id="linearGradient3874">
      <stop
         style="stop-color:#000d0e;stop-opacity:0.84105963;"
         offset="0"
         id="stop3876" />
      <stop
         style="stop-color:#000000;stop-opacity:0;"
         offset="1"
         id="stop3878" />
    </linearGradient>
    <clipPath
       id="clipPath892"
       clipPathUnits="userSpaceOnUse">
      <path
         inkscape:connector-curvature="0"
         id="path894"
         d="M 38.524123,20.232391 V 51.2388 h 3.597154 V 20.232391 Z M 14.125746,21.0025 V 52.010565 H 17.7229 V 21.0025 Z M 5.9924018,21.259203 V 52.267267 H 9.591212 V 21.259203 Z m 24.3983772,1.37129 v 31.006409 h 3.597153 V 22.630493 Z m -20.330877,1.626338 v 31.008065 h 3.597154 V 24.256831 Z m 24.396721,0.08612 v 31.008065 h 3.598809 V 24.342951 Z M 1.9265577,25.798705 V 56.80677 H 5.5237118 V 25.798705 Z m 16.2650323,0.08612 v 31.008064 h 3.597155 V 25.884825 Z m 24.398377,0 v 31.008064 h 3.597154 V 25.884825 Z m -16.265033,2.22752 v 31.006408 h 3.597155 V 28.112345 Z M 22.25909,30.76715 v 31.008065 h 3.597155 V 30.76715 Z"
         style="fill:#ffffff;fill-opacity:0.25520833;stroke:none;stroke-width:1.52630627;stroke-linecap:round;stroke-linejoin:round;stroke-miterlimit:4;stroke-dasharray:none;stroke-opacity:1" />
    </clipPath>
    <clipPath
       clipPathUnits="userSpaceOnUse"
       id="clipPath3881">
      <circle
         r="103.5"
         cy="152.5"
         cx="539.5"
         style="fill:#008dff;fill-opacity:1;fill-rule:evenodd;stroke:none"
         id="path3883"
         transform="translate(-412,-17)" />
    </clipPath>
    <linearGradient
       id="linearGradient4019">
      <stop
         offset="0"
         style="stop-color:#adcce1;stop-opacity:1;"
         id="stop4021" />
      <stop
         offset="0.26238"
         style="stop-color:#6bbfe1;stop-opacity:1;"
         id="stop4023" />
      <stop
         offset="0.74620908"
         style="stop-color:#2596d1;stop-opacity:1;"
         id="stop4025" />
      <stop
         offset="1"
         style="stop-color:#2372c0;stop-opacity:1;"
         id="stop4027" />
    </linearGradient>
    <linearGradient
       id="linearGradient4085">
      <stop
         offset="0"
         style="stop-color:#ffffff;stop-opacity:1"
         id="stop4087" />
      <stop
         offset="0.06316455"
         style="stop-color:#ffffff;stop-opacity:0.2"
         id="stop4089" />
      <stop
         offset="0.95056331"
         style="stop-color:#ffffff;stop-opacity:0.2"
         id="stop4091" />
      <stop
         offset="1"
         style="stop-color:#ffffff;stop-opacity:0.39215687"
         id="stop4093" />
    </linearGradient>
    <filter
       style="color-interpolation-filters:sRGB"
       id="filter3174">
      <feGaussianBlur
         stdDeviation="1.71"
         id="feGaussianBlur3176" />
    </filter>
    <linearGradient
       gradientTransform="scale(1.0058652,0.994169)"
       gradientUnits="userSpaceOnUse"
       id="ButtonShadow"
       y2="7.0165396"
       x2="45.447727"
       y1="92.539597"
       x1="45.447727">
      <stop
         offset="0"
         style="stop-color:#000000;stop-opacity:1"
         id="stop3750" />
      <stop
         offset="1"
         style="stop-color:#000000;stop-opacity:0.58823532"
         id="stop3752" />
    </linearGradient>
    <linearGradient
       id="linearGradient5048-8-7">
      <stop
         offset="0"
         style="stop-color:#000000;stop-opacity:0"
         id="stop5050-4-2" />
      <stop
         offset="0.5"
         style="stop-color:#000000;stop-opacity:1"
         id="stop5056-7-4" />
      <stop
         offset="1"
         style="stop-color:#000000;stop-opacity:0"
         id="stop5052-0-1-7" />
    </linearGradient>
    <linearGradient
       id="linearGradient5060-29-0">
      <stop
         offset="0"
         style="stop-color:#000000;stop-opacity:1"
         id="stop5062-9-7" />
      <stop
         offset="1"
         style="stop-color:#000000;stop-opacity:0"
         id="stop5064-08-2" />
    </linearGradient>
    <linearGradient
       id="linearGradient3851">
      <stop
         id="stop3853"
         style="stop-color:#5b8da7;stop-opacity:1;"
         offset="0" />
      <stop
         id="stop3855"
         style="stop-color:#1c3447;stop-opacity:1;"
         offset="1" />
    </linearGradient>
    <filter
       style="color-interpolation-filters:sRGB"
       id="filter3174-0">
      <feGaussianBlur
         stdDeviation="1.71"
         id="feGaussianBlur3176-9" />
    </filter>
    <clipPath
       id="clipPath916"
       clipPathUnits="userSpaceOnUse">
      <g
         id="g920"
         inkscape:label="circulo"
         style="display:inline;opacity:0.98999999;fill:#126136;fill-opacity:1"
         transform="matrix(1.1503549,0,0,1.1503549,-4.4861245,-7.5255648)">
        <path
           style="fill:#126136;fill-opacity:1;stroke:none;stroke-width:1.4909519"
           d="M 44.322082,27.405077 A 19.729762,19.729765 0 0 1 24.59232,47.134842 19.729762,19.729765 0 0 1 4.8625579,27.405077 19.729762,19.729765 0 0 1 24.59232,7.6753138 19.729762,19.729765 0 0 1 44.322082,27.405077 Z"
           id="path918"
           inkscape:connector-curvature="0" />
      </g>
    </clipPath>
    <clipPath
       clipPathUnits="userSpaceOnUse"
       id="clipPath3866">
      <circle
         r="312"
         cy="449"
         cx="1132"
         id="path3868"
         style="fill:#44abb1;fill-opacity:1;fill-rule:evenodd;stroke:none"
         transform="matrix(0.68724124,0,0,0.68724124,-521.35527,-47.661719)" />
    </clipPath>
    <linearGradient
       inkscape:collect="always"
       id="linearGradient4118">
      <stop
         style="stop-color:#0eb474;stop-opacity:1;"
         offset="0"
         id="stop4120" />
      <stop
         style="stop-color:#0eb474;stop-opacity:0;"
         offset="1"
         id="stop4122" />
    </linearGradient>
    <linearGradient
       id="linearGradient3837"
       inkscape:collect="always">
      <stop
         id="stop3839"
         offset="0"
         style="stop-color:#7db257;stop-opacity:1;" />
      <stop
         id="stop3841"
         offset="1"
         style="stop-color:#7db257;stop-opacity:0;" />
    </linearGradient>
    <linearGradient
       gradientUnits="userSpaceOnUse"
       y2="356.66208"
       x2="316.05505"
       y1="546.63525"
       x1="502.83536"
       id="linearGradient3843"
       xlink:href="#linearGradient3837"
       inkscape:collect="always" />
    <clipPath
       id="clipPath3847"
       clipPathUnits="userSpaceOnUse">
      <circle
         r="260.2153"
         cy="342.29437"
         cx="322.4407"
         style="fill:url(#linearGradient3843);fill-opacity:1;fill-rule:evenodd;stroke:none"
         id="path3849"
         transform="matrix(0.88586957,0,0,0.88586957,-24.010886,495.98978)" />
    </clipPath>
    <clipPath
       clipPathUnits="userSpaceOnUse"
       id="clipPath3344">
      <circle
         r="260.2153"
         cy="342.29437"
         cx="322.4407"
         transform="matrix(0.09964174,0,0,0.09964174,-8.1283951,-10.106867)"
         id="path3346"
         style="fill:#0eb474;fill-opacity:1;fill-rule:evenodd;stroke:none" />
    </clipPath>
    <linearGradient
       inkscape:collect="always"
       xlink:href="#linearGradient4118"
       id="linearGradient4124"
       x1="62.225403"
       y1="342.29437"
       x2="582.65601"
       y2="342.29437"
       gradientUnits="userSpaceOnUse" />
    <clipPath
       id="clipPath932"
       clipPathUnits="userSpaceOnUse">
      <g
         id="g936"
         inkscape:label="circulo"
         style="display:inline;opacity:0.98999999;fill:#32b6a1;fill-opacity:1"
         transform="matrix(1.1503549,0,0,1.1503549,-4.4861245,-7.5255648)">
        <path
           style="fill:#32b6a1;fill-opacity:1;stroke:none;stroke-width:1.4909519"
           d="M 44.322082,27.405077 A 19.729762,19.729765 0 0 1 24.59232,47.134842 19.729762,19.729765 0 0 1 4.8625579,27.405077 19.729762,19.729765 0 0 1 24.59232,7.6753138 19.729762,19.729765 0 0 1 44.322082,27.405077 Z"
           id="path934"
           inkscape:connector-curvature="0" />
      </g>
    </clipPath>
    <clipPath
       id="clipPath942"
       clipPathUnits="userSpaceOnUse">
      <g
         id="g946"
         inkscape:label="circulo"
         style="display:inline;opacity:0.98999999;fill:#32b6a1;fill-opacity:1"
         transform="matrix(1.1503549,0,0,1.1503549,-4.4861245,-7.5255648)">
        <path
           style="fill:#32b6a1;fill-opacity:1;stroke:none;stroke-width:1.4909519"
           d="M 44.322082,27.405077 A 19.729762,19.729765 0 0 1 24.59232,47.134842 19.729762,19.729765 0 0 1 4.8625579,27.405077 19.729762,19.729765 0 0 1 24.59232,7.6753138 19.729762,19.729765 0 0 1 44.322082,27.405077 Z"
           id="path944"
           inkscape:connector-curvature="0" />
      </g>
    </clipPath>
    <linearGradient
       id="linearGradient3822">
      <stop
         id="stop3824"
         style="stop-color:#e6e6e6;stop-opacity:1"
         offset="0" />
      <stop
         id="stop3826"
         style="stop-color:#f5f5f5;stop-opacity:1"
         offset="1" />
    </linearGradient>
    <linearGradient
       id="linearGradient3737">
      <stop
         id="stop3739"
         style="stop-color:#ffffff;stop-opacity:1"
         offset="0" />
      <stop
         id="stop3741"
         style="stop-color:#ffffff;stop-opacity:0"
         offset="1" />
    </linearGradient>
    <linearGradient
       id="linearGradient3700">
      <stop
         id="stop3702"
         style="stop-color:#f05517;stop-opacity:1"
         offset="0" />
      <stop
         id="stop3704"
         style="stop-color:#f37340;stop-opacity:1"
         offset="1" />
    </linearGradient>
    <filter
       id="filter3174-7"
       style="color-interpolation-filters:sRGB">
      <feGaussianBlur
         id="feGaussianBlur3176-5"
         stdDeviation="1.71" />
    </filter>
    <linearGradient
       x1="36.357143"
       y1="6"
       x2="36.357143"
       y2="63.893143"
       id="linearGradient3188"
       xlink:href="#linearGradient3737"
       gradientUnits="userSpaceOnUse" />
    <filter
       x="-0.192"
       y="-0.192"
       width="1.3839999"
       height="1.3839999"
       id="filter3794"
       style="color-interpolation-filters:sRGB">
      <feGaussianBlur
         id="feGaussianBlur3796"
         stdDeviation="5.28" />
    </filter>
    <linearGradient
       x1="48"
       y1="20.220806"
       x2="48"
       y2="138.66119"
       id="linearGradient3613"
       xlink:href="#linearGradient3737"
       gradientUnits="userSpaceOnUse" />
    <radialGradient
       cx="48"
       cy="90.171875"
       r="42"
       fx="48"
       fy="90.171875"
       id="radialGradient3619"
       xlink:href="#linearGradient3737"
       gradientUnits="userSpaceOnUse"
       gradientTransform="matrix(1.1573129,0,0,0.99590774,-7.5510206,0.19713193)" />
    <clipPath
       id="clipPath3613">
      <rect
         width="84"
         height="84"
         rx="6"
         ry="6"
         x="6"
         y="6"
         id="rect3615"
         style="fill:#ffffff;fill-opacity:1;fill-rule:nonzero;stroke:none" />
    </clipPath>
    <linearGradient
       x1="48"
       y1="90"
       x2="48"
       y2="5.9877172"
       id="linearGradient3617"
       xlink:href="#linearGradient3822"
       gradientUnits="userSpaceOnUse" />
    <linearGradient
       x1="45.447727"
       y1="92.539597"
       x2="45.447727"
       y2="7.0165396"
       id="ButtonShadow-0"
       gradientUnits="userSpaceOnUse"
       gradientTransform="matrix(1.0058652,0,0,0.994169,100,0)">
      <stop
         id="stop3750-8"
         style="stop-color:#000000;stop-opacity:1"
         offset="0" />
      <stop
         id="stop3752-5"
         style="stop-color:#000000;stop-opacity:0.58823532"
         offset="1" />
    </linearGradient>
    <linearGradient
       x1="32.251034"
       y1="6.1317081"
       x2="32.251034"
       y2="90.238609"
       id="linearGradient3780"
       xlink:href="#ButtonShadow-0"
       gradientUnits="userSpaceOnUse"
       gradientTransform="matrix(1.0238095,0,0,1.0119048,-1.1428571,-98.071429)" />
    <linearGradient
       x1="32.251034"
       y1="6.1317081"
       x2="32.251034"
       y2="90.238609"
       id="linearGradient3721"
       xlink:href="#ButtonShadow-0"
       gradientUnits="userSpaceOnUse"
       gradientTransform="translate(0,-97)" />
    <linearGradient
       gradientTransform="matrix(3.6907816,0,0,3.6907816,86.006062,-394.23151)"
       x1="47.973103"
       y1="79.776169"
       x2="47.973103"
       y2="16.436062"
       id="linearGradient3067"
       xlink:href="#linearGradient3700"
       gradientUnits="userSpaceOnUse" />
    <clipPath
       id="clipPath1109"
       clipPathUnits="userSpaceOnUse">
      <g
         id="g1113"
         inkscape:label="circulo"
         style="display:inline;opacity:0.98999999;fill:#fa6e31;fill-opacity:1"
         transform="matrix(12.332308,0,0,12.332308,-47.545312,-534.58518)">
        <path
           style="fill:#fa6e31;fill-opacity:1;stroke:none;stroke-width:1.4909519"
           d="M 44.322082,27.405077 A 19.729762,19.729765 0 0 1 24.59232,47.134842 19.729762,19.729765 0 0 1 4.8625579,27.405077 19.729762,19.729765 0 0 1 24.59232,7.6753138 19.729762,19.729765 0 0 1 44.322082,27.405077 Z"
           id="path1111"
           inkscape:connector-curvature="0" />
      </g>
    </clipPath>
    <radialGradient
       id="radial0-36"
       gradientUnits="userSpaceOnUse"
       cx="450.908936"
       cy="189.579361"
       fx="450.908936"
       fy="189.579361"
       r="21.166656"
       gradientTransform="matrix(3.57049e-7,-0.102549,-0.288309,-1.33269e-7,78.984696,88.973262)">
      <stop
         offset="0"
         style="stop-color:rgb(0%,0%,0%);stop-opacity:0.313726;"
         id="stop822-7" />
      <stop
         offset="0.222222"
         style="stop-color:rgb(0%,0%,0%);stop-opacity:0.27451;"
         id="stop824-5" />
      <stop
         offset="1"
         style="stop-color:rgb(0%,0%,0%);stop-opacity:0;"
         id="stop826-35" />
    </radialGradient>
    <radialGradient
       id="radial1-6"
       gradientUnits="userSpaceOnUse"
       cx="450.908936"
       cy="189.579361"
       fx="450.908936"
       fy="189.579361"
       r="21.166656"
       gradientTransform="matrix(-3.57049e-7,0.102549,0.288309,1.33269e-7,-31.685907,-4.375346)">
      <stop
         offset="0"
         style="stop-color:rgb(0%,0%,0%);stop-opacity:0.313726;"
         id="stop829-2" />
      <stop
         offset="0.222222"
         style="stop-color:rgb(0%,0%,0%);stop-opacity:0.27451;"
         id="stop831-91" />
      <stop
         offset="1"
         style="stop-color:rgb(0%,0%,0%);stop-opacity:0;"
         id="stop833-2" />
    </radialGradient>
    <radialGradient
       id="radial2-7"
       gradientUnits="userSpaceOnUse"
       cx="450.908936"
       cy="189.579361"
       fx="450.908936"
       fy="189.579361"
       r="21.166656"
       gradientTransform="matrix(-3.57049e-7,-0.102549,0.288309,-1.33269e-7,-31.685907,88.973262)">
      <stop
         offset="0"
         style="stop-color:rgb(0%,0%,0%);stop-opacity:0.313726;"
         id="stop836-0" />
      <stop
         offset="0.222222"
         style="stop-color:rgb(0%,0%,0%);stop-opacity:0.27451;"
         id="stop838-9" />
      <stop
         offset="1"
         style="stop-color:rgb(0%,0%,0%);stop-opacity:0;"
         id="stop840-3" />
    </radialGradient>
    <radialGradient
       id="radial3-6"
       gradientUnits="userSpaceOnUse"
       cx="450.908936"
       cy="189.579361"
       fx="450.908936"
       fy="189.579361"
       r="21.166656"
       gradientTransform="matrix(3.57049e-7,0.102549,-0.288309,1.33269e-7,78.984692,-4.375346)">
      <stop
         offset="0"
         style="stop-color:rgb(0%,0%,0%);stop-opacity:0.313726;"
         id="stop843-0" />
      <stop
         offset="0.222222"
         style="stop-color:rgb(0%,0%,0%);stop-opacity:0.27451;"
         id="stop845-6" />
      <stop
         offset="1"
         style="stop-color:rgb(0%,0%,0%);stop-opacity:0;"
         id="stop847-26" />
    </radialGradient>
    <filter
       filterUnits="objectBoundingBox"
       y="0%"
       x="0%"
       height="100%"
       width="100%"
       id="alpha">
      <feColorMatrix
         id="feColorMatrix1038"
         values="0 0 0 0 1 0 0 0 0 1 0 0 0 0 1 0 0 0 1 0"
         type="matrix"
         in="SourceGraphic" />
    </filter>
    <mask
       id="mask0">
      <g
         id="g1043"
         filter="url(#alpha)">
        <rect
           id="rect1041"
           style="fill:rgb(0%,0%,0%);fill-opacity:0.2"
           y="0"
           x="0"
           height="384"
           width="384" />
      </g>
    </mask>
    <clipPath
       id="clip1">
      <rect
         id="rect1046"
         y="0"
         x="0"
         height="384"
         width="384" />
    </clipPath>
    <g
       clip-path="url(#clip1)"
       id="surface5">
      <path
         id="path1049"
         d="M 343.324219 141.292969 L 198 192 L 203.730469 195.996094 L 345.382812 146.566406 C 344.765625 144.773438 344.011719 143.050781 343.324219 141.292969 Z M 42.085938 195 C 42.066406 196.003906 42 196.992188 42 198 C 42 284.425781 111.578125 354 198 354 C 251.125 354 297.882812 327.707031 326.03125 287.375 L 323.101562 285.328125 C 294.703125 323.394531 249.351562 348 198 348 C 112.585938 348 43.675781 280.019531 42.085938 195 Z M 42.085938 195"
         style="fill:rgb(0%,0%,0%)" />
    </g>
    <mask
       id="mask1">
      <g
         id="g1054"
         filter="url(#alpha)">
        <rect
           id="rect1052"
           style="fill:rgb(0%,0%,0%);fill-opacity:0.2"
           y="0"
           x="0"
           height="384"
           width="384" />
      </g>
    </mask>
    <clipPath
       id="clip2">
      <rect
         id="rect1057"
         y="0"
         x="0"
         height="384"
         width="384" />
    </clipPath>
    <g
       clip-path="url(#clip2)"
       id="surface8">
      <path
         id="path1060"
         d="M 198 36 C 111.574219 36 42 105.574219 42 192 C 42 193.007812 42.0625 193.996094 42.082031 195 C 43.675781 109.980469 112.582031 42 198 42 C 264.363281 42 320.710938 83.101562 343.324219 141.292969 L 345.382812 140.566406 C 324.214844 79.570312 266.375 36 198 36 Z M 203.730469 195.996094 L 198 198 L 323.101562 285.328125 C 324.078125 284.015625 325.085938 282.726562 326.027344 281.375 Z M 203.730469 195.996094"
         style="fill:rgb(100.000%,100.000%,100.000%)" />
    </g>
    <clipPath
       id="clipPath1139">
      <rect
         id="rect1137"
         height="384"
         width="384" />
    </clipPath>
    <clipPath
       id="clipPath1143">
      <rect
         id="rect1141"
         height="384"
         width="384" />
    </clipPath>
    <clipPath
       id="clipPath1147">
      <rect
         id="rect1145"
         height="384"
         width="384" />
    </clipPath>
  </defs>
  <sodipodi:namedview
     id="base"
     pagecolor="#ffffff"
     bordercolor="#666666"
     borderopacity="1.0"
     inkscape:pageopacity="0.0"
     inkscape:pageshadow="2"
     inkscape:zoom="3.959798"
     inkscape:cx="13.175163"
     inkscape:cy="21.182881"
     inkscape:document-units="px"
     inkscape:current-layer="layer1"
     showgrid="true"
     units="px"
     inkscape:window-width="1920"
     inkscape:window-height="1027"
     inkscape:window-x="0"
     inkscape:window-y="30"
     inkscape:window-maximized="1">
    <inkscape:grid
       type="xygrid"
       id="grid4780" />
  </sodipodi:namedview>
  <metadata
     id="metadata4237">
    <rdf:RDF>
      <cc:Work
         rdf:about="">
        <dc:format>image/svg+xml</dc:format>
        <dc:type
           rdf:resource="http://purl.org/dc/dcmitype/StillImage" />
        <dc:title></dc:title>
      </cc:Work>
    </rdf:RDF>
  </metadata>
  <g
     inkscape:label="Capa 1"
     inkscape:groupmode="layer"
     id="layer1"
     transform="translate(0,-1004.3622)">
    <circle
       style="opacity:1;fill:#d28e84;fill-opacity:1;stroke:none;stroke-width:6;stroke-linecap:round;stroke-linejoin:round;stroke-miterlimit:4;stroke-dasharray:none;stroke-dashoffset:0;stroke-opacity:1;paint-order:fill markers stroke"
       id="path4782"
       cx="23.446428"
       cy="1028.804"
       r="22.5" />
    <path
       id="path1155-3"
       d="m 31.333092,1026.8792 c 0.02609,0.721 -0.201189,1.0712 -0.406397,1.6908 l -0.369766,0.1917 c -0.302039,0.613 0.0301,0.3893 -0.186135,0.8764 -0.47212,0.4375 -1.429923,1.3692 -1.736895,1.4545 -0.224269,0 0.152022,-0.2764 0.200687,-0.3823 -0.630665,0.4525 -0.506233,0.6793 -1.471537,0.9548 l -0.0281,-0.066 c -2.379608,1.1695 -5.685526,-1.1479 -5.64237,-4.3093 -0.02509,0.2002 -0.07225,0.1506 -0.124427,0.2308 -0.122922,-1.6265 0.718956,-3.2601 2.139298,-3.9279 1.38972,-0.718 3.01834,-0.424 4.012723,0.5459 -0.546371,-0.7481 -1.634657,-1.5408 -2.923038,-1.4676 -1.263324,0.022 -2.444856,0.8599 -2.839167,1.77 -0.646721,0.4255 -0.722475,1.6402 -1.003939,1.8629 -0.379797,2.912 0.713446,4.1698 2.562764,5.6499 0.289992,0.2047 0.08178,0.2357 0.120413,0.3918 -0.614098,-0.3 -1.176537,-0.7536 -1.639152,-1.3089 0.245346,0.3753 0.510254,0.7395 0.852919,1.026 -0.579483,-0.2042 -1.35363,-1.466 -1.578913,-1.5172 0.998415,1.8674 4.050356,3.2748 5.649306,2.5764 -0.740033,0.029 -1.679739,0.016 -2.510618,-0.305 -0.349703,-0.1877 -0.823826,-0.576 -0.739031,-0.6482 2.181426,0.8504 4.434649,0.6437 6.321691,-0.9363 0.480648,-0.3908 1.004939,-1.0551 1.156962,-1.0641 -0.228277,0.3587 0.03913,0.1726 -0.136468,0.4892 0.477643,-0.8063 -0.208215,-0.3287 0.494199,-1.3918 l 0.259384,0.3728 c -0.09683,-0.6693 0.795724,-1.4816 0.704917,-2.5397 0.204708,-0.3236 0.22829,0.3487 0.01103,1.0928 0.301538,-0.8259 0.07977,-0.9583 0.157043,-1.6402 0.08328,0.2293 0.193661,0.4726 0.249855,0.7144 -0.196668,-0.7982 0.200687,-1.3436 0.299521,-1.8076 -0.09733,-0.045 -0.303041,0.3527 -0.350204,-0.5895 0.007,-0.4094 0.109375,-0.2148 0.148502,-0.3156 -0.07676,-0.046 -0.278457,-0.3603 -0.401375,-0.9618 0.0883,-0.142 0.23782,0.3668 0.359234,0.3873 -0.07827,-0.4781 -0.212221,-0.8434 -0.217744,-1.2106 -0.354212,-0.7727 -0.125429,0.1033 -0.412408,-0.3317 -0.377293,-1.2277 0.312572,-0.285 0.359234,-0.8424 0.570954,0.864 0.896575,2.2036 1.04658,2.758 -0.114393,-0.6763 -0.29852,-1.3315 -0.524292,-1.9657 0.174101,0.077 -0.279459,-1.3913 0.226273,-0.4195 -0.539847,-2.0721 -2.307939,-4.0082 -3.935017,-4.9168 0.198684,0.1902 0.450041,0.429 0.360236,0.4666 -0.809776,-0.5027 -0.667285,-0.5429 -0.783177,-0.7551 -0.658755,-0.2799 -0.702913,0.023 -1.138402,10e-4 -1.24276,-0.6884 -1.482069,-0.6156 -2.625956,-1.0466 l 0.05218,0.2544 c -0.822813,-0.2865 -0.95878,0.1079 -1.848381,9e-4 -0.05419,-0.044 0.284983,-0.1595 0.56443,-0.2016 -0.795725,0.1098 -0.758592,-0.1641 -1.537299,0.03 0.191658,-0.1405 0.394851,-0.2338 0.599558,-0.3533 -0.648725,0.041 -1.549757,0.3944 -1.271864,0.073 -1.058128,0.4932 -2.93858,1.1861 -3.993201,2.2191 l -0.03361,-0.2313 c -0.483153,0.606 -2.107701,1.8097 -2.237168,2.5953 l -0.129442,0.032 c -0.251357,0.4445 -0.414425,0.9487 -0.613597,1.4062 -0.329127,0.5856 -0.482151,0.2253 -0.435489,0.3171 -0.647222,1.3698 -0.968823,2.5208 -1.246266,3.466 0.197682,0.309 0.005,1.8598 0.07927,3.1006 -0.324607,6.1301 4.119071,12.0805 8.976288,13.4541 0.711943,0.2669 1.770545,0.2569 2.670653,0.2835 -1.062135,-0.3176 -1.199103,-0.1681 -2.234599,-0.5449 -0.746558,-0.3677 -0.909613,-0.7867 -1.438914,-1.2663 l 0.209216,0.3863 c -1.03655,-0.3843 -0.603064,-0.4746 -1.446492,-0.7541 l 0.223769,-0.3045 c -0.336154,-0.027 -0.890552,-0.5915 -1.042073,-0.9051 l -0.367762,0.015 c -0.442014,-0.5684 -0.677316,-0.9793 -0.660259,-1.2979 l -0.118908,0.2213 c -0.135466,-0.2413 -1.626565,-2.1358 -0.852418,-1.6942 -0.143994,-0.1365 -0.335152,-0.2228 -0.541863,-0.6162 l 0.157544,-0.1881 c -0.371769,-0.5002 -0.684842,-1.1414 -0.66126,-1.3552 0.198684,0.28 0.336654,0.3327 0.473121,0.3808 -0.940219,-2.4363 -0.992905,-0.1339 -1.704784,-2.4795 l 0.150519,-0.013 c -0.115395,-0.1826 -0.185635,-0.3792 -0.278458,-0.5729 l 0.06573,-0.6818 c -0.676314,-0.8158 -0.189141,-3.474 -0.09131,-4.9319 0.06773,-0.592 0.564931,-1.2237 0.943225,-2.213 l -0.230293,-0.041 c 0.440511,-0.8023 2.514599,-3.2226 3.475459,-3.0982 0.465595,-0.6105 -0.09232,0 -0.183631,-0.156 1.022499,-1.1048 1.344125,-0.7806 2.033977,-0.9793 0.743552,-0.4611 -0.638694,0.1801 -0.285985,-0.1761 1.286455,-0.3427 0.911128,-0.7797 2.588837,-0.9538 0.177106,0.1054 -0.410404,0.1625 -0.557918,0.299 1.071164,-0.5479 3.391074,-0.4229 4.898317,0.3036 1.747427,0.8534 3.712174,3.3755 3.790009,5.7487 l 0.0883,0.025 c -0.04465,0.9432 0.13797,2.0344 -0.17911,3.0364 l 0.214238,-0.4746"
       inkscape:connector-curvature="0"
       style="fill:#ffffff;fill-opacity:1;stroke-width:0.12844002" />
  </g>
</svg>
