<?xml version="1.0" encoding="UTF-8" standalone="no"?>
<svg
   xmlns:dc="http://purl.org/dc/elements/1.1/"
   xmlns:cc="http://creativecommons.org/ns#"
   xmlns:rdf="http://www.w3.org/1999/02/22-rdf-syntax-ns#"
   xmlns:svg="http://www.w3.org/2000/svg"
   xmlns="http://www.w3.org/2000/svg"
   xmlns:sodipodi="http://sodipodi.sourceforge.net/DTD/sodipodi-0.dtd"
   xmlns:inkscape="http://www.inkscape.org/namespaces/inkscape"
   height="48"
   width="48"
   version="1.1"
   id="svg14"
   sodipodi:docname="document-viewer.svg"
   inkscape:version="0.92.3 (2405546, 2018-03-11)">
  <metadata
     id="metadata20">
    <rdf:RDF>
      <cc:Work
         rdf:about="">
        <dc:format>image/svg+xml</dc:format>
        <dc:type
           rdf:resource="http://purl.org/dc/dcmitype/StillImage" />
        <dc:title></dc:title>
      </cc:Work>
    </rdf:RDF>
  </metadata>
  <defs
     id="defs18" />
  <sodipodi:namedview
     pagecolor="#ffffff"
     bordercolor="#666666"
     borderopacity="1"
     objecttolerance="10"
     gridtolerance="10"
     guidetolerance="10"
     inkscape:pageopacity="0"
     inkscape:pageshadow="2"
     inkscape:window-width="1920"
     inkscape:window-height="1026"
     id="namedview16"
     showgrid="true"
     inkscape:zoom="4.9166667"
     inkscape:cx="30.092276"
     inkscape:cy="21.601957"
     inkscape:window-x="0"
     inkscape:window-y="28"
     inkscape:window-maximized="1"
     inkscape:current-layer="svg14">
    <inkscape:grid
       type="xygrid"
       id="grid827" />
  </sodipodi:namedview>
  <rect
     fill="#bda88c"
     height="42.5"
     ry="2.5"
     width="32.5"
     x="7.5"
     y="3"
     id="rect2"
     style="fill:#b56266;fill-opacity:1" />
  <rect
     style="opacity:1;fill:#ffffff;fill-opacity:1;stroke:none;stroke-width:2;stroke-linecap:round;stroke-linejoin:round;stroke-miterlimit:4;stroke-dasharray:none;stroke-dashoffset:0;stroke-opacity:1;paint-order:fill markers stroke"
     id="rect829"
     width="10"
     height="10"
     x="10"
     y="8"
     rx="1"
     ry="1" />
  <rect
     style="opacity:1;fill:#ffffff;fill-opacity:1;stroke:none;stroke-width:2;stroke-linecap:round;stroke-linejoin:round;stroke-miterlimit:4;stroke-dasharray:none;stroke-dashoffset:0;stroke-opacity:1;paint-order:fill markers stroke"
     id="rect831"
     width="15"
     height="2"
     x="22"
     y="16"
     rx="0"
     ry="0" />
  <rect
     ry="0"
     rx="0"
     y="21"
     x="10"
     height="2"
     width="27"
     id="rect833"
     style="opacity:1;fill:#ffffff;fill-opacity:1;stroke:none;stroke-width:2;stroke-linecap:round;stroke-linejoin:round;stroke-miterlimit:4;stroke-dasharray:none;stroke-dashoffset:0;stroke-opacity:1;paint-order:fill markers stroke" />
  <path
     style="opacity:1;fill:#ffffff;fill-opacity:1;stroke:none;stroke-width:2;stroke-linecap:round;stroke-linejoin:round;stroke-miterlimit:4;stroke-dasharray:none;stroke-dashoffset:0;stroke-opacity:1;paint-order:fill markers stroke"
     d="M 29.712891 25.412109 A 9.4247265 9.4247265 0 0 0 20.287109 34.835938 A 9.4247265 9.4247265 0 0 0 29.712891 44.259766 A 9.4247265 9.4247265 0 0 0 39.136719 34.835938 A 9.4247265 9.4247265 0 0 0 29.712891 25.412109 z M 29.712891 30.460938 C 30.056337 30.460937 30.399089 30.479721 30.740234 30.519531 C 33.311334 30.773194 35.649766 32.490938 36.712891 34.835938 C 36.325528 35.693087 35.750766 36.460422 35.080078 37.117188 C 34.653866 37.516485 34.088279 37.91384 33.617188 38.220703 C 32.134674 39.055216 30.370069 39.345196 28.683594 39.154297 C 26.112581 38.90046 23.775928 37.181024 22.712891 34.835938 C 23.100253 33.9787 23.673071 33.213399 24.34375 32.556641 C 24.769962 32.157344 25.335533 31.759988 25.806641 31.453125 C 26.988591 30.78326 28.355941 30.474148 29.712891 30.460938 z M 29.712891 32.210938 C 28.586328 32.197637 27.530055 32.984647 27.207031 34.060547 C 26.701281 35.522059 27.780459 37.247161 29.318359 37.427734 C 30.841034 37.716484 32.382941 36.381887 32.337891 34.835938 C 32.364403 33.437162 31.119016 32.179788 29.712891 32.210938 z M 29.712891 33.960938 L 29.712891 33.962891 A 0.875 0.875175 0 0 1 30.587891 34.835938 A 0.875 0.875175 0 0 1 29.712891 35.710938 A 0.875 0.875175 0 0 1 28.837891 34.835938 A 0.875 0.875175 0 0 1 29.712891 33.960938 z "
     id="path863" />
</svg>
