<svg height="48" width="48" xmlns="http://www.w3.org/2000/svg"><path d="m44.322082 27.405077a19.729762 19.729765 0 0 1 -19.729762 19.729765 19.729762 19.729765 0 0 1 -19.7297621-19.729765 19.729762 19.729765 0 0 1 19.7297621-19.7297632 19.729762 19.729765 0 0 1 19.729762 19.7297632z" fill="#2f8d8d" opacity=".99" transform="matrix(1.1503549 0 0 1.1503549 -4.486125 -7.525565)"/><path d="m19.331117 3.375v12.744141h4.255859c1.30133 0 2.297757-.315073 2.992188-.945313.700267-.63024 1.050781-1.553806 1.050781-2.773437 0-.706103-.159513-1.322457-.480469-1.847657-.320955-.5252-.817192-.8658771-1.488281-1.0234371.536871-.2334223.938596-.5839367 1.207031-1.0507813.268436-.4726801.402344-1.0122427.402344-1.6191406 0-1.1554402-.370212-2.0258193-1.111328-2.609375-.73528-.5835557-1.759265-.875-3.072266-.875zm2.496094 1.9960938h1.259765c.566049 0 .989425.1398151 1.269532.4199218.280106.2742712.419921.7094607.419921 1.3046875 0 .5310357-.137838.9386671-.412109 1.2246094-.268435.2801067-.656369.4258289-1.164062.4375h-1.373047zm0 5.1289062h1.925781c.490187 0 .846608.163443 1.068359.490234.221752.326792.332032.793493.332032 1.400391 0 .57772-.131932 1.01291-.394532 1.304687-.256764.291778-.646675.4375-1.171875.4375h-1.759765zm1.648437 6.650391c-1.342178 0-2.417349.427305-3.222656 1.279297-.805307.846155-1.207031 2.011933-1.207031 3.5v3.572265c0 1.493903.401724 2.661633 1.207031 3.501953s1.882455 1.259766 3.230469 1.259766c1.348013 0 2.427139-.419446 3.238281-1.259766s1.216797-2.00805 1.216797-3.501953v-3.572265c0-1.488067-.407632-2.653845-1.22461-3.5-.816977-.851992-1.896103-1.279297-3.238281-1.279297zm-14.0664063.183593v12.746094h4.2539063c1.301329 0 2.297756-.315072 2.992188-.945312.700267-.630241 1.050781-1.55576 1.050781-2.775391 0-.706102-.159513-1.322456-.480469-1.847656-.320955-.5252-.817192-.865878-1.488281-1.023438.536871-.233422.938596-.583936 1.207031-1.050781.268436-.47268.402344-1.012243.402344-1.619141 0-1.15544-.370212-2.023866-1.111328-2.607421-.73528-.583556-1.759265-.876954-3.072266-.876954zm19.3437503 0 3.089844 6.320313-3.167969 6.425781h2.896484l1.785157-4.552734h.05273l1.787109 4.552734h3.001954l-3.300782-6.425781 3.089844-6.320313h-2.878906l-1.734375 4.457032h-.05078l-1.707032-4.457032zm-5.277344 1.822266c.647747 0 1.140054.232374 1.478516.699219.338462.461009.507812 1.146294.507812 2.05664v3.589844c0 .922018-.16935 1.61321-.507812 2.074219s-.828792.691406-1.470703.691406c-.647747 0-1.138077-.230397-1.470703-.691406-.332627-.461009-.498047-1.152201-.498047-2.074219v-3.589844c0-.916182.163443-1.603444.490234-2.064453s.817121-.691406 1.470703-.691406zm-11.572265.173828h1.259765c.566049 0 .989425.139815 1.269531.419922.280107.274271.419922.709461.419922 1.304688 0 .531035-.137838.94062-.412109 1.226562-.268436.280107-.656369.425829-1.164063.4375h-1.373046zm0 5.13086h1.925781c.490187 0 .846608.163443 1.068359.490234s.332032.793493.332032 1.40039c0 .577721-.131932 1.010957-.394532 1.302735-.256764.291778-.646675.4375-1.171875.4375h-1.759765zm11.833984 6.822265c-1.196289 0-2.180878.328863-2.951172.988281-.770293.653583-1.154297 1.502311-1.154297 2.546875 0 1.056236.328864 1.879359.988281 2.46875.665254.583556 1.661657 1.105398 2.986329 1.566407.647746.280106 1.098704.565644 1.355468.857422.256765.285942.384766.677805.384766 1.173828 0 .478515-.128001.858565-.384766 1.138672-.250929.280106-.638862.419921-1.164062.419921-.671089 0-1.173233-.17328-1.505859-.517578-.332627-.344298-.498047-.909465-.498047-1.697265h-2.425782l-.01758.05273c-.02918 1.324671.400105 2.34275 1.28711 3.054688.89284.706102 1.94636 1.058593 3.160156 1.058593 1.219631 0 2.198313-.311142 2.933594-.935547.73528-.624404 1.101562-1.488876 1.101562-2.591796 0-1.067907-.305235-1.914658-.917969-2.539063-.606898-.63024-1.514696-1.148152-2.722656-1.556641-.764458-.332626-1.302043-.633908-1.611328-.902343-.309285-.274272-.462891-.620856-.462891-1.041016 0-.455173.135885-.833246.410157-1.130859.280106-.303449.66804-.455078 1.164062-.455078.531036 0 .942597.181164 1.234375.542968.291778.361805.4375.834413.4375 1.417969h2.416016l.01758-.05273c.02334-1.114592-.34294-2.036181-1.101563-2.765625-.758622-.735281-1.745188-1.101563-2.958984-1.101563z" fill="#fff"/></svg>