<svg height="48" width="48" xmlns="http://www.w3.org/2000/svg"><rect fill="#939dac" height="43" ry="1.452703" width="43" x="2" y="3"/><path d="m17 39h27v6h-27z" fill-opacity=".483019"/><path d="m45 37v7.547298c0 .804797-.647905 1.452703-1.452703 1.452703h-40.0945941c-.8047974 0-1.4527029-.647906-1.4527029-1.452703v-7.547298z" fill-opacity=".228464"/><path d="m40.884766 5.0234375a2.1060915 2.1060915 0 0 0 -2.107422 2.1054687 2.1060915 2.1060915 0 0 0 2.107422 2.1054688 2.1060915 2.1060915 0 0 0 2.105468-2.1054688 2.1060915 2.1060915 0 0 0 -2.105468-2.1054687zm-34.7617191.0117187a2.1060915 2.1060915 0 0 0 -2.1074219 2.1074219 2.1060915 2.1060915 0 0 0 2.1074219 2.1054688 2.1060915 2.1060915 0 0 0 2.1054687-2.1054688 2.1060915 2.1060915 0 0 0 -2.1054687-2.1074219zm0 25.7597658a2.1060915 2.1060915 0 0 0 -2.1074219 2.105469 2.1060915 2.1060915 0 0 0 2.1074219 2.105468 2.1060915 2.1060915 0 0 0 2.1054687-2.105468 2.1060915 2.1060915 0 0 0 -2.1054687-2.105469zm34.7480471 0a2.1060915 2.1060915 0 0 0 -2.105469 2.105469 2.1060915 2.1060915 0 0 0 2.105469 2.105468 2.1060915 2.1060915 0 0 0 2.107422-2.105468 2.1060915 2.1060915 0 0 0 -2.107422-2.105469z" fill="#fff"/><path d="m18 40h10v4h-10z" fill-opacity=".521569"/><path d="m30 40h13v4h-13z" fill-opacity=".520599"/><path d="m19 40v3h2v-3zm3 0v3h2v-3zm3 0v3h2v-3zm6 0v3h2v-3zm3 0v3h2v-3zm3 0v3h2v-3zm3 0v3h2v-3z" fill="#d9ce87"/><path d="m18 43v1h10v-1zm12 0v1h13v-1z" fill="#9e9e9e" fill-opacity=".569288"/><path d="m23 11.965236c-1.461 0-2.777.822261-2.777 1.83894 0 .799603.75 1.564853 1.777 1.812628v2.923592l-4.234 2.53841c-.223.111096-.418.305515-.418.497011v1.347776h-1.352v2.923593h4v-2.923593h-.996v-1.03349l3-1.890103v7.308982h-2l3 3.654491 3-3.654491h-2v-9.142075l3 1.833093v1.30173c-.777.236811-1.406.771097-1.406 1.396015 0 .847842.988 1.533425 2.203 1.533425s2.199-.685583 2.199-1.533425c0-.624918-.547-1.159204-1.32-1.396015v-1.670103c.004-.179801-.117-.362525-.316-.476545l-4.363-2.589572v-.950899c1.027-.251429 1.512-1.016679 1.512-1.815551 0-1.01668-1.051-1.83894-2.508-1.83894m-.008.0029" fill="#fff"/></svg>