<svg height="48" width="48" xmlns="http://www.w3.org/2000/svg"><path d="m44.322082 27.405077a19.729762 19.729765 0 0 1 -19.729762 19.729765 19.729762 19.729765 0 0 1 -19.7297621-19.729765 19.729762 19.729765 0 0 1 19.7297621-19.7297632 19.729762 19.729765 0 0 1 19.729762 19.7297632z" fill="#916f6f" opacity=".99" transform="matrix(1.1503549 0 0 1.1503549 -4.486125 -7.525565)"/><g fill="#fff"><path d="m14.877474 10.724586c5.726791-.595233 10.777526-1.265006 15.964157.580035 1.001588.460503 1.420922.675355 1.658615 1.989664l.487906 2.69783c.09482.700338.01742.83835-.610534.992146-3.468488.937745-10.158279-1.043976-10.459224 1.973439-.48989 3.956489 5.845182 2.601238 9.15849 3.282234-.108761 8.436474-9.17027 2.674428-9.370247 7.305616-.163248 3.349208 4.529538 2.782623 10.444296 2.766659.402295.0016.46052.01801.452714.537012l-.07481 2.992696c-.04181.742382-.04788.918185-.661847 1.157376-5.95271 2.222158-13.877453 1.359849-17.148326 1.334174z" fill-opacity=".380952"/><path d="m14.865736 10.651343c8.625896 10.5731 2.833311 20.713671-.02143 27.612949 3.000443.04009 9.580991.691521 15.155694-.764292-3.552798-1.458569-7.421084-2.304338-9.404054-5.565129-.956947-1.596615-1.191341-3.133745-.219843-4.878617 1.662347-3.291803 4.926543-3.632011 10.304062-4.951633-3.392728-.521231-9.244966.591084-8.773096-3.21987.300945-3.017415 6.990336-1.036083 10.458825-1.973828.269778-.06607.433616-.132009.530163-.238097-.572619-2.085291-4.538853-4.526016-18.030322-6.021483z"/></g></svg>