<?xml version="1.0" encoding="UTF-8" standalone="no"?>
<svg
   xmlns:dc="http://purl.org/dc/elements/1.1/"
   xmlns:cc="http://creativecommons.org/ns#"
   xmlns:rdf="http://www.w3.org/1999/02/22-rdf-syntax-ns#"
   xmlns:svg="http://www.w3.org/2000/svg"
   xmlns="http://www.w3.org/2000/svg"
   xmlns:sodipodi="http://sodipodi.sourceforge.net/DTD/sodipodi-0.dtd"
   xmlns:inkscape="http://www.inkscape.org/namespaces/inkscape"
   height="48"
   width="48"
   version="1.1"
   id="svg6"
   sodipodi:docname="effects.svg"
   inkscape:version="0.92.4 (5da689c313, 2019-01-14)">
  <metadata
     id="metadata12">
    <rdf:RDF>
      <cc:Work
         rdf:about="">
        <dc:format>image/svg+xml</dc:format>
        <dc:type
           rdf:resource="http://purl.org/dc/dcmitype/StillImage" />
        <dc:title></dc:title>
      </cc:Work>
    </rdf:RDF>
  </metadata>
  <defs
     id="defs10" />
  <sodipodi:namedview
     pagecolor="#ffffff"
     bordercolor="#666666"
     borderopacity="1"
     objecttolerance="10"
     gridtolerance="10"
     guidetolerance="10"
     inkscape:pageopacity="0"
     inkscape:pageshadow="2"
     inkscape:window-width="1920"
     inkscape:window-height="1022"
     id="namedview8"
     showgrid="false"
     showguides="false"
     inkscape:zoom="13.906433"
     inkscape:cx="20.954839"
     inkscape:cy="24.931888"
     inkscape:window-x="0"
     inkscape:window-y="30"
     inkscape:window-maximized="1"
     inkscape:current-layer="svg6" />
  <circle
     cx="23.940615"
     cy="31.534513"
     fill="#74a2f3"
     opacity=".99"
     r="13.232998"
     transform="matrix(1.75830584759 0 0 1.75830608345 -18.15909274367 -30.97874795549)"
     id="circle2"
     style="fill:#7495f3;fill-opacity:1" />
  <path
     style="fill:#ffffff;fill-opacity:0.34269664;stroke:none;stroke-width:1.14655173;stroke-opacity:1"
     d="M 23.935547 4.1796875 A 20.288136 20.288136 0 0 0 3.6484375 24.46875 A 20.288136 20.288136 0 0 0 9.2871094 38.494141 L 18.318359 27.589844 L 21.449219 30.183594 L 12.378906 41.134766 A 20.288136 20.288136 0 0 0 23.935547 44.755859 A 20.288136 20.288136 0 0 0 44.224609 24.46875 A 20.288136 20.288136 0 0 0 23.935547 4.1796875 z M 22.957031 22.40625 C 23.189853 22.384022 23.431696 22.449619 23.626953 22.611328 L 25.351562 24.039062 C 25.742075 24.362481 25.794122 24.937611 25.470703 25.328125 L 22.097656 29.400391 L 18.966797 26.806641 L 22.339844 22.734375 C 22.501553 22.53912 22.724209 22.428478 22.957031 22.40625 z "
     id="path827" />
  <path
     sodipodi:type="star"
     style="fill:#ffffff;fill-opacity:1;stroke:none;stroke-opacity:1"
     id="path834"
     sodipodi:sides="5"
     sodipodi:cx="22.98305"
     sodipodi:cy="18.254238"
     sodipodi:r1="1.0999987"
     sodipodi:r2="0.54999936"
     sodipodi:arg1="0.98279372"
     sodipodi:arg2="1.6111123"
     inkscape:flatsided="false"
     inkscape:rounded="0"
     inkscape:randomized="0"
     d="m 23.593219,19.169492 -0.632337,-0.365701 -0.659738,0.313582 0.1524,-0.714397 -0.502105,-0.530545 0.726526,-0.07582 0.34942,-0.641478 0.296617,0.667538 0.718059,0.134091 -0.543206,0.48838 z"
     inkscape:transform-center-x="-0.013700409"
     inkscape:transform-center-y="-0.091925312" />
  <path
     inkscape:transform-center-y="0.054887952"
     inkscape:transform-center-x="-0.010258106"
     d="m 27.355931,22.322034 -0.632337,-0.365701 -0.659738,0.313582 0.1524,-0.714397 -0.502105,-0.530545 0.726526,-0.07582 0.34942,-0.641478 0.296618,0.667538 0.718058,0.134091 -0.543206,0.48838 z"
     inkscape:randomized="0"
     inkscape:rounded="0"
     inkscape:flatsided="false"
     sodipodi:arg2="1.6111123"
     sodipodi:arg1="0.98279372"
     sodipodi:r2="0.54999936"
     sodipodi:r1="1.0999987"
     sodipodi:cy="21.40678"
     sodipodi:cx="26.745762"
     sodipodi:sides="5"
     id="path836"
     style="fill:#ffffff;fill-opacity:1;stroke:none;stroke-opacity:1"
     sodipodi:type="star"
     transform="matrix(0.50530368,-0.3848571,0.43766673,0.57464084,3.4856368,19.653003)" />
  <path
     inkscape:transform-center-y="0.004733763"
     inkscape:transform-center-x="0.053646836"
     d="m 28.685253,26.144682 -0.35017,-0.202515 -0.365344,0.173653 0.0844,-0.395613 -0.278052,-0.293801 0.402329,-0.04199 0.193499,-0.355232 0.164259,0.369664 0.39764,0.07426 -0.300812,0.270451 z"
     inkscape:randomized="0"
     inkscape:rounded="0"
     inkscape:flatsided="false"
     sodipodi:arg2="1.6111123"
     sodipodi:arg1="0.98279372"
     sodipodi:r2="0.30457395"
     sodipodi:r1="0.60914791"
     sodipodi:cy="25.63784"
     sodipodi:cx="28.347359"
     sodipodi:sides="5"
     id="path838"
     style="fill:#ffffff;fill-opacity:1;stroke:none;stroke-width:0.55377144;stroke-opacity:1"
     sodipodi:type="star"
     transform="rotate(-21.750928,28.347358,25.63784)" />
  <path
     transform="rotate(-21.750928,13.723541,34.083064)"
     sodipodi:type="star"
     style="fill:#ffffff;fill-opacity:1;stroke:none;stroke-width:0.55377144;stroke-opacity:1"
     id="path840"
     sodipodi:sides="5"
     sodipodi:cx="28.347359"
     sodipodi:cy="25.63784"
     sodipodi:r1="0.60914791"
     sodipodi:r2="0.30457395"
     sodipodi:arg1="0.98279372"
     sodipodi:arg2="1.6111123"
     inkscape:flatsided="false"
     inkscape:rounded="0"
     inkscape:randomized="0"
     d="m 28.685253,26.144682 -0.35017,-0.202515 -0.365344,0.173653 0.0844,-0.395613 -0.278052,-0.293801 0.402329,-0.04199 0.193499,-0.355232 0.164259,0.369664 0.39764,0.07426 -0.300812,0.270451 z"
     inkscape:transform-center-x="0.053646836"
     inkscape:transform-center-y="0.004733763" />
  <path
     inkscape:transform-center-y="0.0004720653"
     inkscape:transform-center-x="-0.057720792"
     d="m 28.685253,26.144682 -0.35017,-0.202515 -0.365344,0.173653 0.0844,-0.395613 -0.278052,-0.293801 0.402329,-0.04199 0.193499,-0.355232 0.164259,0.369664 0.39764,0.07426 -0.300812,0.270451 z"
     inkscape:randomized="0"
     inkscape:rounded="0"
     inkscape:flatsided="false"
     sodipodi:arg2="1.6111123"
     sodipodi:arg1="0.98279372"
     sodipodi:r2="0.30457395"
     sodipodi:r1="0.60914791"
     sodipodi:cy="25.63784"
     sodipodi:cx="28.347359"
     sodipodi:sides="5"
     id="path842"
     style="fill:#ffffff;fill-opacity:1;stroke:none;stroke-width:0.55377144;stroke-opacity:1"
     sodipodi:type="star"
     transform="rotate(15.833558,42.076393,26.759555)" />
  <path
     inkscape:transform-center-y="-0.091925312"
     inkscape:transform-center-x="-0.013700409"
     d="m 31.754909,24.886272 -0.632338,-0.365702 -0.659738,0.313583 0.152401,-0.714397 -0.502105,-0.530546 0.726525,-0.07582 0.349421,-0.641478 0.296617,0.667537 0.718058,0.134091 -0.543206,0.488381 z"
     inkscape:randomized="0"
     inkscape:rounded="0"
     inkscape:flatsided="false"
     sodipodi:arg2="1.6111123"
     sodipodi:arg1="0.98279372"
     sodipodi:r2="0.54999936"
     sodipodi:r1="1.0999987"
     sodipodi:cy="23.971017"
     sodipodi:cx="31.14474"
     sodipodi:sides="5"
     id="path844"
     style="fill:#ffffff;fill-opacity:1;stroke:none;stroke-opacity:1"
     sodipodi:type="star" />
  <path
     sodipodi:type="star"
     style="fill:#ffffff;fill-opacity:1;stroke:none;stroke-width:1.39555478;stroke-opacity:1"
     id="path846"
     sodipodi:sides="5"
     sodipodi:cx="26.986566"
     sodipodi:cy="17.86204"
     sodipodi:r1="1.5351084"
     sodipodi:r2="0.76755422"
     sodipodi:arg1="0.98279372"
     sodipodi:arg2="1.6111123"
     inkscape:flatsided="false"
     inkscape:rounded="0"
     inkscape:randomized="0"
     d="m 27.838092,19.139327 -0.882462,-0.510357 -0.9207,0.437621 0.212682,-0.996979 -0.700714,-0.740406 1.013906,-0.10581 0.487635,-0.895217 0.413946,0.931585 1.00209,0.187131 -0.758074,0.681561 z"
     inkscape:transform-center-x="-0.019119405"
     inkscape:transform-center-y="-0.12828766" />
  <path
     inkscape:transform-center-y="-0.085653957"
     inkscape:transform-center-x="0.062719848"
     d="m 32.871731,20.541556 -0.882461,-0.510357 -0.9207,0.437622 0.212682,-0.99698 -0.700714,-0.740406 1.013906,-0.10581 0.487635,-0.895217 0.413946,0.931585 1.00209,0.187131 -0.758074,0.681562 z"
     inkscape:randomized="0"
     inkscape:rounded="0"
     inkscape:flatsided="false"
     sodipodi:arg2="1.6111123"
     sodipodi:arg1="0.98279372"
     sodipodi:r2="0.76755422"
     sodipodi:r1="1.5351084"
     sodipodi:cy="19.264269"
     sodipodi:cx="32.020206"
     sodipodi:sides="5"
     id="path848"
     style="fill:#ffffff;fill-opacity:1;stroke:none;stroke-width:1.39555478;stroke-opacity:1"
     sodipodi:type="star"
     transform="rotate(-9.907535,39.547835,11.975986)" />
  <path
     transform="matrix(0.57811457,-0.10097549,0.10097549,0.57811457,10.112903,10.552161)"
     sodipodi:type="star"
     style="fill:#ffffff;fill-opacity:1;stroke:none;stroke-width:1.39555478;stroke-opacity:1"
     id="path850"
     sodipodi:sides="5"
     sodipodi:cx="32.020206"
     sodipodi:cy="19.264269"
     sodipodi:r1="1.5351084"
     sodipodi:r2="0.76755422"
     sodipodi:arg1="0.98279372"
     sodipodi:arg2="1.6111123"
     inkscape:flatsided="false"
     inkscape:rounded="0"
     inkscape:randomized="0"
     d="m 32.871731,20.541556 -0.882461,-0.510357 -0.9207,0.437622 0.212682,-0.99698 -0.700714,-0.740406 1.013906,-0.10581 0.487635,-0.895217 0.413946,0.931585 1.00209,0.187131 -0.758074,0.681562 z"
     inkscape:transform-center-x="0.036808548"
     inkscape:transform-center-y="-0.050267214" />
  <path
     inkscape:transform-center-y="-0.050267214"
     inkscape:transform-center-x="0.036808548"
     d="m 32.871731,20.541556 -0.882461,-0.510357 -0.9207,0.437622 0.212682,-0.99698 -0.700714,-0.740406 1.013906,-0.10581 0.487635,-0.895217 0.413946,0.931585 1.00209,0.187131 -0.758074,0.681562 z"
     inkscape:randomized="0"
     inkscape:rounded="0"
     inkscape:flatsided="false"
     sodipodi:arg2="1.6111123"
     sodipodi:arg1="0.98279372"
     sodipodi:r2="0.76755422"
     sodipodi:r1="1.5351084"
     sodipodi:cy="19.264269"
     sodipodi:cx="32.020206"
     sodipodi:sides="5"
     id="path852"
     style="fill:#ffffff;fill-opacity:1;stroke:none;stroke-width:1.39555478;stroke-opacity:1"
     sodipodi:type="star"
     transform="matrix(0.57811457,-0.10097549,0.10097549,0.57811457,4.7916248,6.7050207)" />
  <path
     transform="matrix(0.39312724,-0.06866496,0.06866496,0.39312724,14.793136,9.9191064)"
     sodipodi:type="star"
     style="fill:#ffffff;fill-opacity:1;stroke:none;stroke-width:1.39555478;stroke-opacity:1"
     id="path854"
     sodipodi:sides="5"
     sodipodi:cx="32.020206"
     sodipodi:cy="19.264269"
     sodipodi:r1="1.5351084"
     sodipodi:r2="0.76755422"
     sodipodi:arg1="0.98279372"
     sodipodi:arg2="1.6111123"
     inkscape:flatsided="false"
     inkscape:rounded="0"
     inkscape:randomized="0"
     d="m 32.871731,20.541556 -0.882461,-0.510357 -0.9207,0.437622 0.212682,-0.99698 -0.700714,-0.740406 1.013906,-0.10581 0.487635,-0.895217 0.413946,0.931585 1.00209,0.187131 -0.758074,0.681562 z"
     inkscape:transform-center-x="0.025030303"
     inkscape:transform-center-y="-0.034182371" />
  <path
     inkscape:transform-center-y="-0.16438483"
     inkscape:transform-center-x="-0.024499419"
     d="m 27.835605,10.654046 -1.130768,-0.653961 -1.179767,0.56076 0.272527,-1.27751 -0.897882,-0.9487412 1.2992,-0.1355832 0.624845,-1.1471135 0.530422,1.1937145 1.284058,0.239786 -0.97138,0.8733394 z"
     inkscape:randomized="0"
     inkscape:rounded="0"
     inkscape:flatsided="false"
     sodipodi:arg2="1.6111123"
     sodipodi:arg1="0.98279372"
     sodipodi:r2="0.98352861"
     sodipodi:r1="1.9670572"
     sodipodi:cy="9.0173559"
     sodipodi:cx="26.744478"
     sodipodi:sides="5"
     id="path856"
     style="fill:#ffffff;fill-opacity:1;stroke:none;stroke-width:1.7882359;stroke-opacity:1"
     sodipodi:type="star" />
  <path
     transform="matrix(1.3550614,-0.23667971,0.23667971,1.3550614,-13.204252,-2.7528445)"
     sodipodi:type="star"
     style="fill:#ffffff;fill-opacity:1;stroke:none;stroke-width:1.39555478;stroke-opacity:1"
     id="path858"
     sodipodi:sides="5"
     sodipodi:cx="32.020206"
     sodipodi:cy="19.264269"
     sodipodi:r1="1.5351084"
     sodipodi:r2="0.76755422"
     sodipodi:arg1="0.98279372"
     sodipodi:arg2="1.6111123"
     inkscape:flatsided="false"
     inkscape:rounded="0"
     inkscape:randomized="0"
     d="m 32.871731,20.541556 -0.882461,-0.510357 -0.9207,0.437622 0.212682,-0.99698 -0.700714,-0.740406 1.013906,-0.10581 0.487635,-0.895217 0.413946,0.931585 1.00209,0.187131 -0.758074,0.681562 z"
     inkscape:transform-center-x="0.086274929"
     inkscape:transform-center-y="-0.11782316" />
  <path
     transform="rotate(-9.907535,27.778403,-25.822331)"
     sodipodi:type="star"
     style="fill:#ffffff;fill-opacity:1;stroke:none;stroke-width:1.39555478;stroke-opacity:1"
     id="path860"
     sodipodi:sides="5"
     sodipodi:cx="32.020206"
     sodipodi:cy="19.264269"
     sodipodi:r1="1.5351084"
     sodipodi:r2="0.76755422"
     sodipodi:arg1="0.98279372"
     sodipodi:arg2="1.6111123"
     inkscape:flatsided="false"
     inkscape:rounded="0"
     inkscape:randomized="0"
     d="m 32.871731,20.541556 -0.882461,-0.510357 -0.9207,0.437622 0.212682,-0.99698 -0.700714,-0.740406 1.013906,-0.10581 0.487635,-0.895217 0.413946,0.931585 1.00209,0.187131 -0.758074,0.681562 z"
     inkscape:transform-center-x="0.062719848"
     inkscape:transform-center-y="-0.085653957" />
  <path
     inkscape:transform-center-y="-0.050267214"
     inkscape:transform-center-x="0.036808548"
     d="m 32.871731,20.541556 -0.882461,-0.510357 -0.9207,0.437622 0.212682,-0.99698 -0.700714,-0.740406 1.013906,-0.10581 0.487635,-0.895217 0.413946,0.931585 1.00209,0.187131 -0.758074,0.681562 z"
     inkscape:randomized="0"
     inkscape:rounded="0"
     inkscape:flatsided="false"
     sodipodi:arg2="1.6111123"
     sodipodi:arg1="0.98279372"
     sodipodi:r2="0.76755422"
     sodipodi:r1="1.5351084"
     sodipodi:cy="19.264269"
     sodipodi:cx="32.020206"
     sodipodi:sides="5"
     id="path862"
     style="fill:#ffffff;fill-opacity:1;stroke:none;stroke-width:1.39555478;stroke-opacity:1"
     sodipodi:type="star"
     transform="matrix(0.57811457,-0.10097549,0.10097549,0.57811457,11.551086,3.0016988)" />
  <path
     transform="rotate(-21.750928,-3.7837309,17.13605)"
     sodipodi:type="star"
     style="fill:#ffffff;fill-opacity:1;stroke:none;stroke-width:0.55377144;stroke-opacity:1"
     id="path864"
     sodipodi:sides="5"
     sodipodi:cx="28.347359"
     sodipodi:cy="25.63784"
     sodipodi:r1="0.60914791"
     sodipodi:r2="0.30457395"
     sodipodi:arg1="0.98279372"
     sodipodi:arg2="1.6111123"
     inkscape:flatsided="false"
     inkscape:rounded="0"
     inkscape:randomized="0"
     d="m 28.685253,26.144682 -0.35017,-0.202515 -0.365344,0.173653 0.0844,-0.395613 -0.278052,-0.293801 0.402329,-0.04199 0.193499,-0.355232 0.164259,0.369664 0.39764,0.07426 -0.300812,0.270451 z"
     inkscape:transform-center-x="0.053646836"
     inkscape:transform-center-y="0.004733763" />
  <path
     sodipodi:type="star"
     style="fill:#ffffff;fill-opacity:1;stroke:none;stroke-width:2.78778791;stroke-opacity:1"
     id="path866"
     sodipodi:sides="5"
     sodipodi:cx="32.162086"
     sodipodi:cy="6.3766918"
     sodipodi:r1="3.0665631"
     sodipodi:r2="1.5332814"
     sodipodi:arg1="0.98279372"
     sodipodi:arg2="1.6111123"
     inkscape:flatsided="false"
     inkscape:rounded="0"
     inkscape:randomized="0"
     d="m 33.86311,8.9282266 -1.762823,-1.0194992 -1.839209,0.8742012 0.424859,-1.9915861 -1.399762,-1.4790493 2.0254,-0.2113687 0.974109,-1.788304 0.826907,1.8609531 2.001794,0.3738166 -1.514343,1.361501 z"
     inkscape:transform-center-x="-0.038194282"
     inkscape:transform-center-y="-0.2562692" />
</svg>
