<?xml version="1.0" encoding="UTF-8" standalone="no"?>
<svg
   xmlns:dc="http://purl.org/dc/elements/1.1/"
   xmlns:cc="http://creativecommons.org/ns#"
   xmlns:rdf="http://www.w3.org/1999/02/22-rdf-syntax-ns#"
   xmlns:svg="http://www.w3.org/2000/svg"
   xmlns="http://www.w3.org/2000/svg"
   xmlns:sodipodi="http://sodipodi.sourceforge.net/DTD/sodipodi-0.dtd"
   xmlns:inkscape="http://www.inkscape.org/namespaces/inkscape"
   height="48"
   width="48"
   version="1.1"
   id="svg16"
   sodipodi:docname="electron2.svg"
   inkscape:version="0.92.4 5da689c313, 2019-01-14">
  <metadata
     id="metadata22">
    <rdf:RDF>
      <cc:Work
         rdf:about="">
        <dc:format>image/svg+xml</dc:format>
        <dc:type
           rdf:resource="http://purl.org/dc/dcmitype/StillImage" />
        <dc:title />
      </cc:Work>
    </rdf:RDF>
  </metadata>
  <defs
     id="defs20" />
  <sodipodi:namedview
     pagecolor="#ffffff"
     bordercolor="#666666"
     borderopacity="1"
     objecttolerance="10"
     gridtolerance="10"
     guidetolerance="10"
     inkscape:pageopacity="0"
     inkscape:pageshadow="2"
     inkscape:window-width="1920"
     inkscape:window-height="1028"
     id="namedview18"
     showgrid="false"
     inkscape:zoom="4.9166667"
     inkscape:cx="-39.355932"
     inkscape:cy="24"
     inkscape:window-x="0"
     inkscape:window-y="26"
     inkscape:window-maximized="1"
     inkscape:current-layer="svg16" />
  <path
     inkscape:connector-curvature="0"
     d="M 46.499999,24 A 22.696228,22.696232 0 0 1 23.803771,46.696232 22.696228,22.696232 0 0 1 1.1075422,24 22.696228,22.696232 0 0 1 23.803771,1.3037693 22.696228,22.696232 0 0 1 46.499999,24 Z"
     id="path2-3"
     style="opacity:0.98999999;fill:#8683bb;fill-opacity:1;stroke-width:1.15035486" />
  <g
     transform="translate(-.66698)"
     id="g14">
    <g
       fill="none"
       stroke="#fff"
       stroke-linecap="round"
       stroke-miterlimit="10"
       stroke-width="1.701307"
       id="g10">
      <path
         d="m30 21c4.253268 8.364761 5.245697 16.445971 2.268409 18.005503-2.977287 1.559531-8.931863-3.969717-13.185131-12.334478s-5.245698-16.445971-2.26841-18.0055024c1.417756-.7088781 3.260839 0 5.387473 1.8430824"
         id="path4" />
      <path
         d="m21.635239 36.169991c-2.693737 1.984858-5.103922 2.835512-6.521678 1.843082-2.835512-1.843082-.992429-9.782517 4.253268-17.580175 5.245698-7.797658 11.767376-12.6180291 14.602888-10.7749462 1.417756.9924292 1.701307 3.4026142.850653 6.8052292"
         id="path6" />
      <path
         d="m11.569171 27.521678c-2.551961-1.134204-4.111493-2.551961-4.111493-4.111492.141776-3.402615 7.797658-5.954576 17.154849-5.671025 9.35719.283552 16.871297 3.260839 16.871297 6.663454 0 1.701307-1.984859 3.119063-4.962146 4.111493"
         id="path8" />
    </g>
    <circle
       cx="24.328978"
       cy="23.835512"
       fill="#fff"
       r="2.26841"
       stroke-width="1.417756"
       id="circle12" />
  </g>
</svg>
