<?xml version="1.0" encoding="UTF-8" standalone="no"?>
<svg
   xmlns:dc="http://purl.org/dc/elements/1.1/"
   xmlns:cc="http://creativecommons.org/ns#"
   xmlns:rdf="http://www.w3.org/1999/02/22-rdf-syntax-ns#"
   xmlns:svg="http://www.w3.org/2000/svg"
   xmlns="http://www.w3.org/2000/svg"
   xmlns:sodipodi="http://sodipodi.sourceforge.net/DTD/sodipodi-0.dtd"
   xmlns:inkscape="http://www.inkscape.org/namespaces/inkscape"
   height="48"
   width="48"
   version="1.1"
   id="svg6"
   sodipodi:docname="eric.svg"
   inkscape:version="0.92.4 5da689c313, 2019-01-14">
  <metadata
     id="metadata12">
    <rdf:RDF>
      <cc:Work
         rdf:about="">
        <dc:format>image/svg+xml</dc:format>
        <dc:type
           rdf:resource="http://purl.org/dc/dcmitype/StillImage" />
        <dc:title></dc:title>
      </cc:Work>
    </rdf:RDF>
  </metadata>
  <defs
     id="defs10" />
  <sodipodi:namedview
     pagecolor="#ffffff"
     bordercolor="#666666"
     borderopacity="1"
     objecttolerance="10"
     gridtolerance="10"
     guidetolerance="10"
     inkscape:pageopacity="0"
     inkscape:pageshadow="2"
     inkscape:window-width="1920"
     inkscape:window-height="1027"
     id="namedview8"
     showgrid="false"
     inkscape:zoom="13.906433"
     inkscape:cx="32.231843"
     inkscape:cy="14.75252"
     inkscape:window-x="0"
     inkscape:window-y="30"
     inkscape:window-maximized="1"
     inkscape:current-layer="svg6" />
  <path
     inkscape:connector-curvature="0"
     d="M 46.499999,24 A 22.696228,22.696232 0 0 1 23.803772,46.696232 22.696228,22.696232 0 0 1 1.1075422,24 22.696228,22.696232 0 0 1 23.803772,1.3037696 22.696228,22.696232 0 0 1 46.499999,24 Z"
     id="path2-0"
     style="opacity:0.98999999;fill:#dea487;fill-opacity:1;stroke-width:1.15035486" />
  <path
     d="m23.846588 9.853716c-1.171895.0049-2.292336.107259-3.279194.278061-2.904827.510036-3.435802 1.571017-3.435802 3.531683v2.58884h6.868408v.862945h-9.44446c-1.997439 0-3.742354 1.186176-4.28916 3.442194-.629833 2.585759-.663044 4.201101 0 6.89717.486314 2.010491 1.650492 3.442194 3.646745 3.442194h2.019932v-3.4358c0-2.238223 1.961614-4.202863 4.292355-4.202863h7.188017c1.908479 0 3.717058-1.557537 3.717058-3.451785v-6.130107c0-1.839689-1.850093-3.225664-3.717058-3.531689-1.176638-.194524-2.399329-.282802-3.570038-.278056l.0032-.01276zm-3.627568 2.66235c.698966 0 1.265653.563489 1.265653 1.262457 0 .698962-.566687 1.265655-1.265653 1.265655s-1.265654-.566693-1.265654-1.265655c0-.698968.566688-1.262457 1.265654-1.262457zm11.889473 4.595982v3.017113c0 2.335484-2.004678 4.027077-4.289159 4.027077h-7.536392c-1.876455 0-3.432606 1.871183-3.432606 3.729846v6.468898c0 1.839682 1.615458 2.91756 3.432606 3.445385 2.172986.629834 4.540084.750823 7.140075 0 1.728189-.495802 3.435802-1.490651 3.435802-3.445385v-2.592037h-6.858819v-.862945h10.297817c1.992695 0 2.737535-1.380705 3.432606-3.442194.717608-2.126727.680838-4.173824 0-6.89717-.495802-1.968974-1.435166-3.442194-3.432606-3.442194zm-4.295552 16.664439c.698966 0 1.265653.566686 1.265653 1.265654 0 .698962-.566687 1.265654-1.265653 1.265654s-1.265653-.566692-1.265653-1.265654c0-.698968.566687-1.265654 1.265653-1.265654z"
     fill="#fff"
     id="path4"
     style="fill:#ffffff;fill-opacity:1" />
  <circle
     style="opacity:1;fill:#ffffff;fill-opacity:1;stroke:#dea487;stroke-width:2;stroke-linecap:round;stroke-linejoin:round;stroke-miterlimit:4;stroke-dasharray:none;stroke-dashoffset:0;stroke-opacity:1;paint-order:fill markers stroke"
     id="path822"
     cx="31.525423"
     cy="33.45763"
     r="9.4576273" />
  <path
     style="opacity:1;fill:#dea487;fill-opacity:1;stroke:none;stroke-width:2;stroke-linecap:round;stroke-linejoin:round;stroke-miterlimit:4;stroke-dasharray:none;stroke-dashoffset:0;stroke-opacity:1;paint-order:fill markers stroke"
     d="m 30.824249,28.42345 c -0.258952,0 -0.46015,0.209942 -0.46875,0.46875 l -0.01953,0.572266 a 4.1694918,4.1694918 0 0 0 -1.677735,0.96875 l -0.5,-0.265625 c -0.228435,-0.121956 -0.509196,-0.05238 -0.638672,0.171875 l -0.707031,1.226562 c -0.129477,0.224261 -0.05434,0.507243 0.169922,0.636719 l 0.488281,0.300781 a 4.1694918,4.1694918 0 0 0 -0.115234,0.953126 4.1694918,4.1694918 0 0 0 0.11914,0.970703 l -0.492187,0.30664 c -0.224259,0.129476 -0.299398,0.414413 -0.169922,0.638672 l 0.707031,1.226563 c 0.129477,0.224259 0.4109,0.293112 0.638672,0.169922 l 0.515625,-0.277344 a 4.1694918,4.1694918 0 0 0 1.66211,0.960937 l 0.01953,0.570313 c 0,0.258952 0.209798,0.46875 0.46875,0.46875 h 1.416015 c 0.258953,0 0.459597,-0.209898 0.466797,-0.46875 l 0.01563,-0.576172 a 4.1694918,4.1694918 0 0 0 1.658203,-0.955078 l 0.511719,0.277344 c 0.227772,0.12319 0.509195,0.05434 0.638672,-0.169922 l 0.707031,-1.226563 c 0.129476,-0.224259 0.05434,-0.509196 -0.169922,-0.638672 l -0.492187,-0.30664 a 4.1694918,4.1694918 0 0 0 0.11914,-0.970703 4.1694918,4.1694918 0 0 0 -0.115234,-0.953126 l 0.488281,-0.300781 c 0.224254,-0.129476 0.299394,-0.412458 0.169917,-0.636719 L 35.53128,30.339466 c -0.129476,-0.224259 -0.410237,-0.293831 -0.638672,-0.171875 l -0.501953,0.267578 A 4.1694918,4.1694918 0 0 0 32.722686,29.464466 L 32.707056,28.8922 c 0,-0.258952 -0.207844,-0.46875 -0.466797,-0.46875 z m 0.701172,2.173828 a 2.8601696,2.8601696 0 0 1 2.859375,2.859376 2.8601696,2.8601696 0 0 1 -2.859375,2.861328 2.8601696,2.8601696 0 0 1 -2.859375,-2.861328 2.8601696,2.8601696 0 0 1 2.859375,-2.859376 z"
     id="rect846"
     inkscape:connector-curvature="0" />
</svg>
