<svg height="48" width="48" xmlns="http://www.w3.org/2000/svg"><path d="m44.322082 27.405077a19.729762 19.729765 0 0 1 -19.729762 19.729765 19.729762 19.729765 0 0 1 -19.7297621-19.729765 19.729762 19.729765 0 0 1 19.7297621-19.7297632 19.729762 19.729765 0 0 1 19.729762 19.7297632z" fill="#527f66" opacity=".99" transform="matrix(1.1503549 0 0 1.1503549 -4.486125 -7.525565)"/><g fill="#fff"><path d="m12 6c-.831001 0-1.5.669-1.5 1.5v24c0 .831.669 1.5 1.5 1.5h1.5v9h19.5v-9h1.5c.831 0 1.5-.669 1.5-1.5v-24c0-.831-.669-1.5-1.5-1.5zm4.5 30h3v3h-3zm10.5 0h3v3h-3z" fill-opacity=".507772"/><path d="m12 6c-.831001 0-1.5.669-1.5 1.5v24c0 .831.669 1.5 1.5 1.5h1.5 19.5 1.5c.831 0 1.5-.669 1.5-1.5v-24c0-.831-.669-1.5-1.5-1.5z"/><circle cx="15.892858" cy="13.107143" r="8.392858" stroke="#527f66" stroke-linecap="round" stroke-linejoin="bevel"/></g><path d="m15.3 8.7h1.5v9h-1.5z" fill="#527f66" stroke="#527f66" stroke-width="1.5"/><path d="m10.8 12.3h10.5v1.5h-10.5z" fill="#527f66" stroke="#527f66" stroke-width="1.5"/></svg>