<?xml version="1.0" encoding="UTF-8" standalone="no"?>
<svg
   xmlns:dc="http://purl.org/dc/elements/1.1/"
   xmlns:cc="http://creativecommons.org/ns#"
   xmlns:rdf="http://www.w3.org/1999/02/22-rdf-syntax-ns#"
   xmlns:svg="http://www.w3.org/2000/svg"
   xmlns="http://www.w3.org/2000/svg"
   xmlns:sodipodi="http://sodipodi.sourceforge.net/DTD/sodipodi-0.dtd"
   xmlns:inkscape="http://www.inkscape.org/namespaces/inkscape"
   height="48"
   width="48"
   version="1.1"
   id="svg6"
   sodipodi:docname="ferdi.svg"
   inkscape:version="1.0.2 (e86c870879, 2021-01-15)">
  <metadata
     id="metadata12">
    <rdf:RDF>
      <cc:Work
         rdf:about="">
        <dc:format>image/svg+xml</dc:format>
        <dc:type
           rdf:resource="http://purl.org/dc/dcmitype/StillImage" />
        <dc:title></dc:title>
      </cc:Work>
    </rdf:RDF>
  </metadata>
  <defs
     id="defs10">
    <linearGradient
       gradientUnits="userSpaceOnUse"
       gradientTransform="matrix(0.0920001,0,0,0.09064843,-21.193131,1.5846311)"
       y2="269.48999"
       y1="235.14999"
       x2="657.65002"
       x1="319.20999"
       id="a-12">
      <stop
         id="stop1076"
         offset="0"
         stop-color="#e54c18" />
      <stop
         id="stop1078"
         offset="1"
         stop-color="#fec350" />
    </linearGradient>
  </defs>
  <sodipodi:namedview
     pagecolor="#ffffff"
     bordercolor="#666666"
     borderopacity="1"
     objecttolerance="10"
     gridtolerance="10"
     guidetolerance="10"
     inkscape:pageopacity="0"
     inkscape:pageshadow="2"
     inkscape:window-width="1920"
     inkscape:window-height="1031"
     id="namedview8"
     showgrid="true"
     inkscape:zoom="6.555469"
     inkscape:cx="19.163822"
     inkscape:cy="16.759602"
     inkscape:window-x="0"
     inkscape:window-y="24"
     inkscape:window-maximized="1"
     inkscape:current-layer="svg6"
     inkscape:document-rotation="0">
    <inkscape:grid
       type="xygrid"
       id="grid837" />
  </sodipodi:namedview>
  <circle
     cx="23.940615"
     cy="31.534513"
     fill="#74a2f3"
     opacity=".99"
     r="13.232998"
     transform="matrix(1.75830584759 0 0 1.75830608345 -18.15909274367 -30.97874795549)"
     id="circle2"
     style="fill:#a68dcc;fill-opacity:1" />
  <ellipse
     cx="23.935829"
     cy="24.468578"
     fill="#74a2f3"
     opacity="0.99"
     id="circle846"
     style="fill:#ffffff;fill-opacity:0.31997341;stroke-width:1.534"
     rx="20.299435"
     ry="20.299437" />
  <path
     style="fill:#ffffff;fill-opacity:1;stroke:none;stroke-width:0.0976213;stroke-linecap:square;stroke-linejoin:miter;stroke-miterlimit:4;stroke-dasharray:none;stroke-opacity:0.909804"
     d="m 19.562438,16.368747 c -3.210193,0.01638 -4.734616,3.535152 -7.101952,5.302756 -3.003823,1.897494 -3.9806885,1.286069 -6.1799044,-1.143891 -0.057481,-0.05749 -0.1368979,-0.09296 -0.2246152,-0.09296 -0.1754339,0 -0.3175656,0.14214 -0.3175656,0.317565 0.3049392,5.381086 11.0177482,7.589391 15.3186622,4.247777 1.097059,-1.076692 1.922542,-1.630246 2.7669,-1.630446 h 0.223734 c 0.844357,2e-4 1.66984,0.553754 2.7669,1.630452 4.300914,3.341614 15.013721,1.133309 15.318662,-4.247776 0,-0.175432 -0.142124,-0.317566 -0.317564,-0.317566 -0.08772,0 -0.167137,0.03546 -0.224617,0.09296 -2.199217,2.429961 -3.176082,3.041386 -6.179905,1.143891 -2.367336,-1.767603 -3.891759,-5.286386 -7.101952,-5.302756 -0.533316,4e-6 -1.041464,0.108112 -1.503579,0.303567 -1.13937,0.631376 -2.009215,0.92279 -2.869813,0.910698 -0.860597,0.01209 -1.730441,-0.279322 -2.869812,-0.910698 -0.462115,-0.195464 -0.970264,-0.30357 -1.503579,-0.303573 z m 0.998855,14.034152 c -0.495884,-2.94e-4 -0.82902,0.508458 -0.63059,0.962909 l 3.375167,7.728633 c 0.240233,0.549776 1.020066,0.549776 1.260296,0 l 3.374917,-7.728633 c 0.198346,-0.454263 -0.13454,-0.962855 -0.630211,-0.962909 z"
     id="path951"
     inkscape:connector-curvature="0" />
</svg>
