<?xml version="1.0" encoding="UTF-8" standalone="no"?>
<svg
   xmlns:dc="http://purl.org/dc/elements/1.1/"
   xmlns:cc="http://creativecommons.org/ns#"
   xmlns:rdf="http://www.w3.org/1999/02/22-rdf-syntax-ns#"
   xmlns:svg="http://www.w3.org/2000/svg"
   xmlns="http://www.w3.org/2000/svg"
   xmlns:sodipodi="http://sodipodi.sourceforge.net/DTD/sodipodi-0.dtd"
   xmlns:inkscape="http://www.inkscape.org/namespaces/inkscape"
   height="48"
   width="48"
   version="1.1"
   id="svg18"
   sodipodi:docname="freeoffice-planmaker.svg"
   inkscape:version="1.0.2 (e86c870879, 2021-01-15)">
  <metadata
     id="metadata24">
    <rdf:RDF>
      <cc:Work
         rdf:about="">
        <dc:format>image/svg+xml</dc:format>
        <dc:type
           rdf:resource="http://purl.org/dc/dcmitype/StillImage" />
        <dc:title />
      </cc:Work>
    </rdf:RDF>
  </metadata>
  <defs
     id="defs22" />
  <sodipodi:namedview
     pagecolor="#ffffff"
     bordercolor="#666666"
     borderopacity="1"
     objecttolerance="10"
     gridtolerance="10"
     guidetolerance="10"
     inkscape:pageopacity="0"
     inkscape:pageshadow="2"
     inkscape:window-width="1920"
     inkscape:window-height="1031"
     id="namedview20"
     showgrid="false"
     inkscape:zoom="9.2708333"
     inkscape:cx="28.445522"
     inkscape:cy="36.899884"
     inkscape:window-x="0"
     inkscape:window-y="24"
     inkscape:window-maximized="1"
     inkscape:current-layer="svg18"
     inkscape:document-rotation="0" />
  <rect
     fill="#50b77e"
     height="42.5"
     ry="2.5"
     width="32.5"
     x="7.5"
     y="3"
     id="rect2" />
  <path
     d="m10.5 4h26.5c1.108 0 2 .892 2 2v16.857143 7.642857c0 1.108-.892 2-2 2h-26.5c-1.108 0-2-.892-2-2v-24.5c0-1.108.892-2 2-2z"
     fill="#fff"
     id="path4" />
  <path
     d="m40 22.928572v1.321428 18.75c0 1.385-1.115 2.5-2.5 2.5h-27.5c-1.385 0-2.5-1.115-2.5-2.5v-18.75-1.178571z"
     fill="#50b77e"
     id="path6"
     style="fill:#5db585;fill-opacity:1" />
  <path
     d="m15 8v12.5h17.5v-12.5z"
     fill="none"
     stroke="#50b77e"
     stroke-width="2"
     id="path10"
     style="stroke:#5db585;stroke-opacity:1" />
  <g
     fill="#50b77e"
     id="g16">
    <path
       d="m22.5 8h2.5v12.5h-2.5z"
       id="path12"
       style="fill:#5db585;fill-opacity:1" />
    <path
       d="m15 13h17.5v2.5h-17.5z"
       id="path14"
       style="fill:#5db585;fill-opacity:1" />
  </g>
  <g
     id="g881"
     transform="translate(-0.62524986)"
     style="fill:#ffffff;fill-opacity:1">
    <circle
       style="fill:#ffffff;fill-opacity:1;stroke:none;stroke-width:3.04249;stroke-linecap:round;stroke-linejoin:round;stroke-miterlimit:4;stroke-dasharray:none;stroke-opacity:1"
       id="path1576"
       cx="24.37525"
       cy="34.372627"
       r="9.5953712" />
    <g
       aria-label="P"
       style="font-style:normal;font-variant:normal;font-weight:bold;font-stretch:normal;font-size:10.5833px;line-height:1.25;font-family:sans-serif;-inkscape-font-specification:'sans-serif Bold';letter-spacing:0px;word-spacing:0px;fill:#ffffff;fill-opacity:1;stroke:none;stroke-width:0.264583"
       id="text6186"
       transform="matrix(1.2169994,0,0,1.2169994,13.652248,3.7425617)">
      <path
         d="m 9.2290577,21.390262 q 1.4605003,0 2.1272503,0.635 0.677333,0.624417 0.677333,1.725084 0,0.656166 -0.275167,1.23825 -0.275166,0.5715 -0.92075,0.92075 -0.635,0.349249 -1.7356663,0.349249 H 8.4141411 v 2.688167 H 6.8160578 v -7.5565 z m -0.084667,1.312334 h -0.73025 v 2.243666 h 0.5291666 q 0.6773333,0 1.0689167,-0.264583 0.402167,-0.275167 0.402167,-0.878417 0,-1.100666 -1.2700003,-1.100666 z"
         style="font-style:normal;font-variant:normal;font-weight:bold;font-stretch:normal;font-family:sans-serif;-inkscape-font-specification:'sans-serif Bold';fill:#5db585;fill-opacity:1;stroke-width:0.264583"
         id="path6331" />
    </g>
  </g>
</svg>
