<?xml version="1.0" encoding="UTF-8" standalone="no"?>
<svg
   xmlns:dc="http://purl.org/dc/elements/1.1/"
   xmlns:cc="http://creativecommons.org/ns#"
   xmlns:rdf="http://www.w3.org/1999/02/22-rdf-syntax-ns#"
   xmlns:svg="http://www.w3.org/2000/svg"
   xmlns="http://www.w3.org/2000/svg"
   xmlns:sodipodi="http://sodipodi.sourceforge.net/DTD/sodipodi-0.dtd"
   xmlns:inkscape="http://www.inkscape.org/namespaces/inkscape"
   height="48"
   width="48"
   version="1.1"
   id="svg6"
   sodipodi:docname="fritzing.svg"
   inkscape:version="1.0.2 (e86c870879, 2021-01-15)">
  <metadata
     id="metadata12">
    <rdf:RDF>
      <cc:Work
         rdf:about="">
        <dc:format>image/svg+xml</dc:format>
        <dc:type
           rdf:resource="http://purl.org/dc/dcmitype/StillImage" />
        <dc:title></dc:title>
      </cc:Work>
    </rdf:RDF>
  </metadata>
  <defs
     id="defs10">
    <linearGradient
       gradientUnits="userSpaceOnUse"
       gradientTransform="matrix(0.0920001,0,0,0.09064843,-21.193131,1.5846311)"
       y2="269.48999"
       y1="235.14999"
       x2="657.65002"
       x1="319.20999"
       id="a-12">
      <stop
         id="stop1076"
         offset="0"
         stop-color="#e54c18" />
      <stop
         id="stop1078"
         offset="1"
         stop-color="#fec350" />
    </linearGradient>
    <clipPath
       clipPathUnits="userSpaceOnUse"
       id="clipPath2217">
      <path
         style="color:#000000;font-style:normal;font-variant:normal;font-weight:normal;font-stretch:normal;font-size:medium;line-height:normal;font-family:sans-serif;font-variant-ligatures:normal;font-variant-position:normal;font-variant-caps:normal;font-variant-numeric:normal;font-variant-alternates:normal;font-feature-settings:normal;text-indent:0;text-align:start;text-decoration:none;text-decoration-line:none;text-decoration-style:solid;text-decoration-color:#000000;letter-spacing:normal;word-spacing:normal;text-transform:none;writing-mode:lr-tb;direction:ltr;text-orientation:mixed;dominant-baseline:auto;baseline-shift:baseline;text-anchor:start;white-space:normal;shape-padding:0;clip-rule:nonzero;display:inline;overflow:visible;visibility:visible;opacity:1;isolation:auto;mix-blend-mode:normal;color-interpolation:sRGB;color-interpolation-filters:linearRGB;solid-color:#000000;solid-opacity:1;vector-effect:none;fill:#7642ff;fill-opacity:1;fill-rule:nonzero;stroke:none;stroke-width:0.264583;stroke-linecap:butt;stroke-linejoin:miter;stroke-miterlimit:4;stroke-dasharray:none;stroke-dashoffset:0;stroke-opacity:1;color-rendering:auto;image-rendering:auto;shape-rendering:auto;text-rendering:auto;enable-background:accumulate"
         d="m 18.922876,12.836426 c -0.151653,-0.0053 -0.306422,0.0049 -0.461987,0.03101 l -8.06049,1.353406 c -1.2445295,0.20901 -2.0822869,1.38425 -1.8732708,2.62878 l 1.0883056,6.478675 c 0.2090155,1.244531 1.3842532,2.079696 2.6287802,1.870686 l 8.06049,-1.353405 c 1.244527,-0.20902 2.082285,-1.38425 1.87327,-2.62878 l -0.105937,-0.626836 2.916101,1.087789 c 0.811126,0.30258 1.656298,-0.396368 1.512052,-1.250053 l -0.5333,-3.177583 -0.533301,-3.179651 c -0.10527,-0.628037 -0.713271,-1.045659 -1.337903,-0.921908 -0.184381,0.03664 -0.356036,0.118584 -0.500227,0.238228 l -2.400371,1.982309 -0.10542,-0.63097 c -0.182889,-1.088964 -1.105227,-1.864769 -2.166792,-1.901692 z m -3.503146,3.205489 c 1.297033,0.02967 2.457256,0.90182 2.814816,2.194181 0.07048,0.251117 0.09577,0.376891 0.105419,0.609782 v 0.0021 0.0016 c 0.09427,1.529836 -0.980819,2.88115 -2.492354,3.135209 -1.631756,0.274048 -3.173285,-0.823393 -3.447334,-2.455148 -0.273949,-1.631165 0.824367,-3.172468 2.455147,-3.447334 6.61e-4,-1.12e-4 0.0014,1.12e-4 0.0021,0 0.188942,-0.03139 0.37695,-0.04455 0.56224,-0.04031 z"
         id="path2219"
         inkscape:connector-curvature="0" />
    </clipPath>
  </defs>
  <sodipodi:namedview
     pagecolor="#ffffff"
     bordercolor="#666666"
     borderopacity="1"
     objecttolerance="10"
     gridtolerance="10"
     guidetolerance="10"
     inkscape:pageopacity="0"
     inkscape:pageshadow="2"
     inkscape:window-width="1920"
     inkscape:window-height="1031"
     id="namedview8"
     showgrid="true"
     inkscape:zoom="13.110938"
     inkscape:cx="17.764492"
     inkscape:cy="26.803476"
     inkscape:window-x="0"
     inkscape:window-y="24"
     inkscape:window-maximized="1"
     inkscape:current-layer="svg6"
     inkscape:document-rotation="0">
    <inkscape:grid
       type="xygrid"
       id="grid837" />
  </sodipodi:namedview>
  <circle
     cx="23.940615"
     cy="31.534513"
     fill="#74a2f3"
     opacity=".99"
     r="13.232998"
     transform="matrix(1.75830584759 0 0 1.75830608345 -18.15909274367 -30.97874795549)"
     id="circle2"
     style="fill:#de9884;fill-opacity:1" />
  <ellipse
     cx="23.935829"
     cy="24.468578"
     fill="#74a2f3"
     opacity="0.99"
     id="circle846"
     style="fill:#ffffff;fill-opacity:0.31997341;stroke-width:1.534"
     rx="20.299435"
     ry="20.299437" />
  <path
     style="fill:#ffffff;fill-opacity:1;stroke:none;stroke-width:0.775169;stroke-linecap:round;stroke-linejoin:miter;stroke-miterlimit:4;stroke-dasharray:none;stroke-opacity:1"
     d="m 26.133096,7.5705204 c -0.08912,0 -0.176946,0.00537 -0.263584,0.014459 -0.06696,-0.00207 -0.133614,-0.00528 -0.20109,-0.00528 -3.56527,0 -6.43532,2.8700476 -6.43532,6.4353156 0,0.05268 0.0027,0.104657 0.0041,0.157036 -0.01883,0.123446 -0.03163,0.248876 -0.03163,0.377748 v 2.502023 h -2.400291 c -1.391676,0 -2.512039,1.120363 -2.512039,2.512038 0,1.391674 1.120363,2.512038 2.512039,2.512038 h 2.400274 v 8.85923 a 5.4902508,5.4902508 0 0 0 -3.107704,4.941156 5.4902508,5.4902508 0 0 0 5.490349,5.490353 5.4902508,5.4902508 0 0 0 5.489951,-5.490353 5.4902508,5.4902508 0 0 0 -2.926238,-4.850625 V 22.07591 H 27.7339 c 1.391674,0 2.512038,-1.120364 2.512038,-2.512038 0,-1.391675 -1.120364,-2.51204 -2.512038,-2.51204 h -3.567565 l 0.01167,-2.553698 c 0.0011,-0.964342 0.671303,-1.798754 1.612737,-2.007705 0.162608,-0.06664 1.276153,-0.03331 2.517645,-0.0053 1.477057,0.03343 3.13527,0.05947 3.5892,-0.09934 0.978746,-0.329115 1.680832,-1.24973 1.680832,-2.342189 C 33.578341,8.6735504 32.475314,7.5705204 31.10516,7.5705204 Z M 21.588113,33.947117 a 1.9293568,1.9293568 0 0 1 1.929194,1.929194 1.9293568,1.9293568 0 0 1 -1.929194,1.929593 1.9293568,1.9293568 0 0 1 -1.929595,-1.929593 1.9293568,1.9293568 0 0 1 1.929595,-1.929194 z"
     id="rect3225"
     inkscape:connector-curvature="0" />
</svg>
