<svg height="48" width="48" xmlns="http://www.w3.org/2000/svg"><path d="m44.322082 27.405077a19.729762 19.729765 0 0 1 -19.729762 19.729765 19.729762 19.729765 0 0 1 -19.7297621-19.729765 19.729762 19.729765 0 0 1 19.7297621-19.7297632 19.729762 19.729765 0 0 1 19.729762 19.7297632z" fill="#59aeb6" opacity=".99" transform="matrix(1.1503549 0 0 1.1503549 -4.486125 -7.525565)"/><path d="m13.515625 12.259766c-2.062383 0-3.430991 1.681001-3.7226562 3.722656l-1.8613282 13.029297c-.291665 2.041654 1.6602737 3.722656 3.7226564 3.722656h1.861328c3.041844 0 4.87541-3.721394 8.533203-7.179687 1.655823-.30672 3.297177-.324251 4.951172-.054688 3.53865 3.976741 4.595196 7.234375 8.851562 7.234375h1.861329c2.062382 0 3.968085-1.67493 3.722656-3.722656l-1.5625-13.029297c-.245429-2.047727-1.660274-3.722656-3.722656-3.722656h-2.15625-1.865235c-1.585836 0-2.648248 1.236081-3.716797 1.884765-1.866568 1.13314-4.835144 1.107429-7.458984.03906-1.136071-.462582-2.166191-1.923828-3.714844-1.923828h-1.863281zm17.152344 4.177734a2.8156955 2.8156955 0 0 1 .195312.002 2.8156955 2.8156955 0 0 1 2.69336 2.927735v.01953a2.8156955 2.8156955 0 0 1 -2.941407 2.679687 2.8156955 2.8156955 0 0 1 -2.683593-2.9375 2.8156955 2.8156955 0 0 1 2.736328-2.691406zm-17.152344.740234h3.722656v2.792969h2.792969v3.722656h-2.792969v2.791016h-3.722656v-2.791016h-2.791016v-3.722656h2.791016zm22.568359 4.042969a2.8156955 2.8156955 0 0 1 .195313.002 2.8156955 2.8156955 0 0 1 2.693359 2.927735v.01953a2.8156955 2.8156955 0 0 1 -2.943359 2.677734 2.8156955 2.8156955 0 0 1 -2.683594-2.935547 2.8156955 2.8156955 0 0 1 2.738281-2.691406z" fill="#fff" transform="matrix(.99999999544 0 0 .99999999544 -.98398302081 3.07925187802)"/></svg>