<?xml version="1.0" encoding="UTF-8" standalone="no"?>
<svg
   xmlns:dc="http://purl.org/dc/elements/1.1/"
   xmlns:cc="http://creativecommons.org/ns#"
   xmlns:rdf="http://www.w3.org/1999/02/22-rdf-syntax-ns#"
   xmlns:svg="http://www.w3.org/2000/svg"
   xmlns="http://www.w3.org/2000/svg"
   xmlns:sodipodi="http://sodipodi.sourceforge.net/DTD/sodipodi-0.dtd"
   xmlns:inkscape="http://www.inkscape.org/namespaces/inkscape"
   height="48"
   width="48"
   version="1.1"
   id="svg6"
   sodipodi:docname="gcstar.svg"
   inkscape:version="1.0.2 (e86c870879, 2021-01-15)">
  <metadata
     id="metadata12">
    <rdf:RDF>
      <cc:Work
         rdf:about="">
        <dc:format>image/svg+xml</dc:format>
        <dc:type
           rdf:resource="http://purl.org/dc/dcmitype/StillImage" />
        <dc:title></dc:title>
      </cc:Work>
    </rdf:RDF>
  </metadata>
  <defs
     id="defs10">
    <linearGradient
       gradientUnits="userSpaceOnUse"
       gradientTransform="matrix(0.0920001,0,0,0.09064843,-21.193131,1.5846311)"
       y2="269.48999"
       y1="235.14999"
       x2="657.65002"
       x1="319.20999"
       id="a-12">
      <stop
         id="stop1076"
         offset="0"
         stop-color="#e54c18" />
      <stop
         id="stop1078"
         offset="1"
         stop-color="#fec350" />
    </linearGradient>
    <linearGradient
       id="linearGradient946"
       x1="31.833"
       x2="32.167"
       y1="51.558998"
       y2="11.098"
       gradientUnits="userSpaceOnUse"
       gradientTransform="matrix(0.83258662,0,0,0.83258662,-4.004011,0.8380211)">
      <stop
         stop-color="#f9f9f9"
         offset="0"
         id="stop5" />
      <stop
         stop-color="#f0fee6"
         offset="1"
         id="stop7-3" />
    </linearGradient>
    <linearGradient
       gradientUnits="userSpaceOnUse"
       y2="12.7"
       y1="4.2333002"
       x2="7.9373002"
       x1="7.9373002"
       id="linearGradient1166">
      <stop
         id="stop13"
         offset="0"
         stop-color="#fff" />
      <stop
         id="stop15"
         offset="1"
         stop-color="#b8ffe1"
         style="stop-color:#d6f2dc;stop-opacity:1" />
    </linearGradient>
  </defs>
  <sodipodi:namedview
     pagecolor="#ffffff"
     bordercolor="#666666"
     borderopacity="1"
     objecttolerance="10"
     gridtolerance="10"
     guidetolerance="10"
     inkscape:pageopacity="0"
     inkscape:pageshadow="2"
     inkscape:window-width="1920"
     inkscape:window-height="1031"
     id="namedview8"
     showgrid="true"
     inkscape:zoom="9.2708332"
     inkscape:cx="1.6739251"
     inkscape:cy="26.488403"
     inkscape:window-x="0"
     inkscape:window-y="24"
     inkscape:window-maximized="1"
     inkscape:current-layer="svg6"
     inkscape:document-rotation="0">
    <inkscape:grid
       type="xygrid"
       id="grid837" />
  </sodipodi:namedview>
  <circle
     cx="23.940615"
     cy="31.534513"
     fill="#74a2f3"
     opacity=".99"
     r="13.232998"
     transform="matrix(1.75830584759 0 0 1.75830608345 -18.15909274367 -30.97874795549)"
     id="circle2"
     style="fill:#80b1da;fill-opacity:1" />
  <ellipse
     cx="23.935829"
     cy="24.468578"
     fill="#74a2f3"
     opacity="0.99"
     id="circle858"
     style="fill:#ffffff;fill-opacity:0.26542;stroke-width:1.50099"
     rx="19.862556"
     ry="19.862558" />
  <path
     style="fill:#ffd189;fill-opacity:1;stroke-width:0.744415"
     d="M 23.93583,9.5804999 A 14.888079,14.888079 0 0 0 9.0477511,24.468579 14.888079,14.888079 0 0 0 23.93583,39.356658 14.888079,14.888079 0 0 0 38.823909,24.468579 14.888079,14.888079 0 0 0 23.93583,9.5804999 Z M 16.823795,20.002155 a 4.5060259,3.6733357 76.77 0 1 3.957251,3.492744 4.5060259,3.6733357 76.77 0 1 -2.404425,5.332909 4.5060259,3.6733357 76.77 0 1 -4.685129,-3.385549 4.5060259,3.6733357 76.77 0 1 2.404276,-5.332909 4.5060259,3.6733357 76.77 0 1 0.728027,-0.107195 z m 14.22407,0 a 3.6733357,4.5060259 13.23 0 1 0.728027,0.107195 3.6733357,4.5060259 13.23 0 1 2.404425,5.332909 3.6733357,4.5060259 13.23 0 1 -4.685279,3.385549 3.6733357,4.5060259 13.23 0 1 -2.404424,-5.332909 3.6733357,4.5060259 13.23 0 1 3.957251,-3.492744 z"
     id="path8" />
</svg>
