<svg height="48" width="48" xmlns="http://www.w3.org/2000/svg"><circle cx="23.940615" cy="31.534513" fill="#edc957" opacity=".99" r="13.232998" transform="matrix(1.72140702696 0 0 1.72140725788 -17.2289093957 -30.06939350282)"/><g fill="#fff" fill-rule="evenodd"><path d="m11 10c-4.2753 3.15227 1.569638 6.003427 0 10 3.024761-2.145035 2.286758-5.768298 0-10z"/><path d="m24.5 21.904297c-.17301 0-.34602.03192-.5.0957-.435521.180399-1 1-1 1l-4 2h-2c-3.468716.113117-4.423466-3.546771-7-3 3.090921 2.517736.0089 6.104968 2 8 3.402175 3.238053 7.929541 5.933107 12.326172 6h-1.326172v1l-5 2h13l-5-1.999997v-1h-1.179688c3.350898-.102391 6.5982-1.785272 9.179688-6 10.282566 5.475159 5.359978-14.488824 0-5h-3l-5-2s-.564479-.819601-1-1c-.15398-.06378-.32699-.0957-.5-.0957zm12.472656 3.095703a1 2 0 0 1 .07031.002 1 2 0 0 1 .957034 2.078078l-.002.01563a1 2 0 0 1 -1.044875 1.902339 1 2 0 0 1 -.953125-2.085938 1 2 0 0 1 .972656-1.912109z" fill-opacity=".989051"/></g></svg>