<?xml version="1.0" encoding="UTF-8" standalone="no"?>
<!-- Created with Inkscape (http://www.inkscape.org/) -->

<svg
   xmlns:dc="http://purl.org/dc/elements/1.1/"
   xmlns:cc="http://creativecommons.org/ns#"
   xmlns:rdf="http://www.w3.org/1999/02/22-rdf-syntax-ns#"
   xmlns:svg="http://www.w3.org/2000/svg"
   xmlns="http://www.w3.org/2000/svg"
   xmlns:xlink="http://www.w3.org/1999/xlink"
   xmlns:sodipodi="http://sodipodi.sourceforge.net/DTD/sodipodi-0.dtd"
   xmlns:inkscape="http://www.inkscape.org/namespaces/inkscape"
   width="48"
   height="48"
   viewBox="0 0 48 48.000001"
   id="svg4232"
   version="1.1"
   inkscape:version="0.92.4 5da689c313, 2019-01-14"
   sodipodi:docname="gens-gs.svg">
  <defs
     id="defs4234">
    <color-profile
       name="NTSC-RGB"
       xlink:href="/usr/share/color/icc/colord/NTSC-RGB.icc"
       id="color-profile3" />
    <color-profile
       name="Apple-RGB"
       xlink:href="/usr/share/color/icc/colord/AppleRGB.icc"
       id="color-profile5" />
    <color-profile
       name="Compatible-with-Adobe-RGB--1998-"
       xlink:href="/usr/share/color/icc/colord/AdobeRGB1998.icc"
       id="color-profile7" />
    <radialGradient
       id="radial0"
       gradientUnits="userSpaceOnUse"
       cx="450.908936"
       cy="189.579361"
       fx="450.908936"
       fy="189.579361"
       r="21.166656"
       gradientTransform="matrix(3.57049e-7,-0.102549,-0.288309,-1.33269e-7,78.984696,88.973262)">
      <stop
         offset="0"
         style="stop-color:rgb(0%,0%,0%);stop-opacity:0.313726;"
         id="stop822" />
      <stop
         offset="0.222222"
         style="stop-color:rgb(0%,0%,0%);stop-opacity:0.27451;"
         id="stop824" />
      <stop
         offset="1"
         style="stop-color:rgb(0%,0%,0%);stop-opacity:0;"
         id="stop826" />
    </radialGradient>
    <radialGradient
       id="radial1"
       gradientUnits="userSpaceOnUse"
       cx="450.908936"
       cy="189.579361"
       fx="450.908936"
       fy="189.579361"
       r="21.166656"
       gradientTransform="matrix(-3.57049e-7,0.102549,0.288309,1.33269e-7,-31.685907,-4.375346)">
      <stop
         offset="0"
         style="stop-color:rgb(0%,0%,0%);stop-opacity:0.313726;"
         id="stop829" />
      <stop
         offset="0.222222"
         style="stop-color:rgb(0%,0%,0%);stop-opacity:0.27451;"
         id="stop831" />
      <stop
         offset="1"
         style="stop-color:rgb(0%,0%,0%);stop-opacity:0;"
         id="stop833" />
    </radialGradient>
    <radialGradient
       id="radial2"
       gradientUnits="userSpaceOnUse"
       cx="450.908936"
       cy="189.579361"
       fx="450.908936"
       fy="189.579361"
       r="21.166656"
       gradientTransform="matrix(-3.57049e-7,-0.102549,0.288309,-1.33269e-7,-31.685907,88.973262)">
      <stop
         offset="0"
         style="stop-color:rgb(0%,0%,0%);stop-opacity:0.313726;"
         id="stop836" />
      <stop
         offset="0.222222"
         style="stop-color:rgb(0%,0%,0%);stop-opacity:0.27451;"
         id="stop838" />
      <stop
         offset="1"
         style="stop-color:rgb(0%,0%,0%);stop-opacity:0;"
         id="stop840" />
    </radialGradient>
    <radialGradient
       id="radial3"
       gradientUnits="userSpaceOnUse"
       cx="450.908936"
       cy="189.579361"
       fx="450.908936"
       fy="189.579361"
       r="21.166656"
       gradientTransform="matrix(3.57049e-7,0.102549,-0.288309,1.33269e-7,78.984692,-4.375346)">
      <stop
         offset="0"
         style="stop-color:rgb(0%,0%,0%);stop-opacity:0.313726;"
         id="stop843" />
      <stop
         offset="0.222222"
         style="stop-color:rgb(0%,0%,0%);stop-opacity:0.27451;"
         id="stop845" />
      <stop
         offset="1"
         style="stop-color:rgb(0%,0%,0%);stop-opacity:0;"
         id="stop847" />
    </radialGradient>
    <linearGradient
       id="linear0"
       gradientUnits="userSpaceOnUse"
       x1="255.323059"
       y1="233.5"
       x2="255.323044"
       y2="254.666656"
       gradientTransform="matrix(0.0273881,0,0,0.082039,16.656575,23.142854)">
      <stop
         offset="0"
         style="stop-color:rgb(0%,0%,0%);stop-opacity:0.27451;"
         id="stop850" />
      <stop
         offset="1"
         style="stop-color:rgb(0%,0%,0%);stop-opacity:0;"
         id="stop852" />
    </linearGradient>
    <linearGradient
       id="linear1"
       gradientUnits="userSpaceOnUse"
       x1="254"
       y1="233.5"
       x2="254"
       y2="-168.666672"
       gradientTransform="matrix(0.093759,0,0,0.093759,0,20.158175)">
      <stop
         offset="0"
         style="stop-color:rgb(100%,43.921569%,26.274511%);stop-opacity:1;"
         id="stop855" />
      <stop
         offset="1"
         style="stop-color:rgb(100%,54.11765%,39.607844%);stop-opacity:1;"
         id="stop857" />
    </linearGradient>
    <linearGradient
       id="linear2"
       gradientUnits="userSpaceOnUse"
       x1="254"
       y1="148.833328"
       x2="254"
       y2="-84"
       gradientTransform="matrix(0.093759,0,0,0.093759,0,20.158175)">
      <stop
         offset="0"
         style="stop-color:rgb(74.117649%,74.117649%,74.117649%);stop-opacity:1;"
         id="stop860" />
      <stop
         offset="1"
         style="stop-color:rgb(87.843138%,87.843138%,87.843138%);stop-opacity:1;"
         id="stop862" />
    </linearGradient>
    <linearGradient
       id="linear2-3"
       gradientUnits="userSpaceOnUse"
       x1="254"
       y1="148.83333"
       x2="254"
       y2="-84"
       gradientTransform="matrix(0.08461253,0,0,0.08461253,-19.162897,21.468351)">
      <stop
         offset="0"
         style="stop-color:rgb(74.117649%,74.117649%,74.117649%);stop-opacity:1;"
         id="stop860-6" />
      <stop
         offset="1"
         style="stop-color:rgb(87.843138%,87.843138%,87.843138%);stop-opacity:1;"
         id="stop862-7" />
    </linearGradient>
    <radialGradient
       id="radial0-1"
       gradientUnits="userSpaceOnUse"
       cx="450.908936"
       cy="189.579361"
       fx="450.908936"
       fy="189.579361"
       r="21.166656"
       gradientTransform="matrix(3.57049e-7,-0.102549,-0.288309,-1.33269e-7,78.984696,88.973262)">
      <stop
         offset="0"
         style="stop-color:rgb(0%,0%,0%);stop-opacity:0.313726;"
         id="stop822-2" />
      <stop
         offset="0.222222"
         style="stop-color:rgb(0%,0%,0%);stop-opacity:0.27451;"
         id="stop824-7" />
      <stop
         offset="1"
         style="stop-color:rgb(0%,0%,0%);stop-opacity:0;"
         id="stop826-0" />
    </radialGradient>
    <radialGradient
       id="radial1-9"
       gradientUnits="userSpaceOnUse"
       cx="450.908936"
       cy="189.579361"
       fx="450.908936"
       fy="189.579361"
       r="21.166656"
       gradientTransform="matrix(-3.57049e-7,0.102549,0.288309,1.33269e-7,-31.685907,-4.375346)">
      <stop
         offset="0"
         style="stop-color:rgb(0%,0%,0%);stop-opacity:0.313726;"
         id="stop829-3" />
      <stop
         offset="0.222222"
         style="stop-color:rgb(0%,0%,0%);stop-opacity:0.27451;"
         id="stop831-6" />
      <stop
         offset="1"
         style="stop-color:rgb(0%,0%,0%);stop-opacity:0;"
         id="stop833-0" />
    </radialGradient>
    <radialGradient
       id="radial2-6"
       gradientUnits="userSpaceOnUse"
       cx="450.908936"
       cy="189.579361"
       fx="450.908936"
       fy="189.579361"
       r="21.166656"
       gradientTransform="matrix(-3.57049e-7,-0.102549,0.288309,-1.33269e-7,-31.685907,88.973262)">
      <stop
         offset="0"
         style="stop-color:rgb(0%,0%,0%);stop-opacity:0.313726;"
         id="stop836-2" />
      <stop
         offset="0.222222"
         style="stop-color:rgb(0%,0%,0%);stop-opacity:0.27451;"
         id="stop838-6" />
      <stop
         offset="1"
         style="stop-color:rgb(0%,0%,0%);stop-opacity:0;"
         id="stop840-1" />
    </radialGradient>
    <radialGradient
       id="radial3-8"
       gradientUnits="userSpaceOnUse"
       cx="450.908936"
       cy="189.579361"
       fx="450.908936"
       fy="189.579361"
       r="21.166656"
       gradientTransform="matrix(3.57049e-7,0.102549,-0.288309,1.33269e-7,78.984692,-4.375346)">
      <stop
         offset="0"
         style="stop-color:rgb(0%,0%,0%);stop-opacity:0.313726;"
         id="stop843-7" />
      <stop
         offset="0.222222"
         style="stop-color:rgb(0%,0%,0%);stop-opacity:0.27451;"
         id="stop845-9" />
      <stop
         offset="1"
         style="stop-color:rgb(0%,0%,0%);stop-opacity:0;"
         id="stop847-2" />
    </radialGradient>
    <radialGradient
       id="radial0-3"
       gradientUnits="userSpaceOnUse"
       cx="450.908936"
       cy="189.579361"
       fx="450.908936"
       fy="189.579361"
       r="21.166656"
       gradientTransform="matrix(3.57049e-7,-0.102549,-0.288309,-1.33269e-7,78.984696,88.973262)">
      <stop
         offset="0"
         style="stop-color:rgb(0%,0%,0%);stop-opacity:0.313726;"
         id="stop822-6" />
      <stop
         offset="0.222222"
         style="stop-color:rgb(0%,0%,0%);stop-opacity:0.27451;"
         id="stop824-75" />
      <stop
         offset="1"
         style="stop-color:rgb(0%,0%,0%);stop-opacity:0;"
         id="stop826-3" />
    </radialGradient>
    <radialGradient
       id="radial1-5"
       gradientUnits="userSpaceOnUse"
       cx="450.908936"
       cy="189.579361"
       fx="450.908936"
       fy="189.579361"
       r="21.166656"
       gradientTransform="matrix(-3.57049e-7,0.102549,0.288309,1.33269e-7,-31.685907,-4.375346)">
      <stop
         offset="0"
         style="stop-color:rgb(0%,0%,0%);stop-opacity:0.313726;"
         id="stop829-6" />
      <stop
         offset="0.222222"
         style="stop-color:rgb(0%,0%,0%);stop-opacity:0.27451;"
         id="stop831-2" />
      <stop
         offset="1"
         style="stop-color:rgb(0%,0%,0%);stop-opacity:0;"
         id="stop833-9" />
    </radialGradient>
    <radialGradient
       id="radial2-1"
       gradientUnits="userSpaceOnUse"
       cx="450.908936"
       cy="189.579361"
       fx="450.908936"
       fy="189.579361"
       r="21.166656"
       gradientTransform="matrix(-3.57049e-7,-0.102549,0.288309,-1.33269e-7,-31.685907,88.973262)">
      <stop
         offset="0"
         style="stop-color:rgb(0%,0%,0%);stop-opacity:0.313726;"
         id="stop836-27" />
      <stop
         offset="0.222222"
         style="stop-color:rgb(0%,0%,0%);stop-opacity:0.27451;"
         id="stop838-0" />
      <stop
         offset="1"
         style="stop-color:rgb(0%,0%,0%);stop-opacity:0;"
         id="stop840-9" />
    </radialGradient>
    <radialGradient
       id="radial3-3"
       gradientUnits="userSpaceOnUse"
       cx="450.908936"
       cy="189.579361"
       fx="450.908936"
       fy="189.579361"
       r="21.166656"
       gradientTransform="matrix(3.57049e-7,0.102549,-0.288309,1.33269e-7,78.984692,-4.375346)">
      <stop
         offset="0"
         style="stop-color:rgb(0%,0%,0%);stop-opacity:0.313726;"
         id="stop843-6" />
      <stop
         offset="0.222222"
         style="stop-color:rgb(0%,0%,0%);stop-opacity:0.27451;"
         id="stop845-0" />
      <stop
         offset="1"
         style="stop-color:rgb(0%,0%,0%);stop-opacity:0;"
         id="stop847-6" />
    </radialGradient>
    <radialGradient
       id="radial0-7"
       gradientUnits="userSpaceOnUse"
       cx="450.908936"
       cy="189.579361"
       fx="450.908936"
       fy="189.579361"
       r="21.166656"
       gradientTransform="matrix(3.57049e-7,-0.102549,-0.288309,-1.33269e-7,78.984696,88.973262)">
      <stop
         offset="0"
         style="stop-color:rgb(0%,0%,0%);stop-opacity:0.313726;"
         id="stop822-5" />
      <stop
         offset="0.222222"
         style="stop-color:rgb(0%,0%,0%);stop-opacity:0.27451;"
         id="stop824-9" />
      <stop
         offset="1"
         style="stop-color:rgb(0%,0%,0%);stop-opacity:0;"
         id="stop826-2" />
    </radialGradient>
    <radialGradient
       id="radial1-2"
       gradientUnits="userSpaceOnUse"
       cx="450.908936"
       cy="189.579361"
       fx="450.908936"
       fy="189.579361"
       r="21.166656"
       gradientTransform="matrix(-3.57049e-7,0.102549,0.288309,1.33269e-7,-31.685907,-4.375346)">
      <stop
         offset="0"
         style="stop-color:rgb(0%,0%,0%);stop-opacity:0.313726;"
         id="stop829-8" />
      <stop
         offset="0.222222"
         style="stop-color:rgb(0%,0%,0%);stop-opacity:0.27451;"
         id="stop831-9" />
      <stop
         offset="1"
         style="stop-color:rgb(0%,0%,0%);stop-opacity:0;"
         id="stop833-7" />
    </radialGradient>
    <radialGradient
       id="radial2-3"
       gradientUnits="userSpaceOnUse"
       cx="450.908936"
       cy="189.579361"
       fx="450.908936"
       fy="189.579361"
       r="21.166656"
       gradientTransform="matrix(-3.57049e-7,-0.102549,0.288309,-1.33269e-7,-31.685907,88.973262)">
      <stop
         offset="0"
         style="stop-color:rgb(0%,0%,0%);stop-opacity:0.313726;"
         id="stop836-6" />
      <stop
         offset="0.222222"
         style="stop-color:rgb(0%,0%,0%);stop-opacity:0.27451;"
         id="stop838-1" />
      <stop
         offset="1"
         style="stop-color:rgb(0%,0%,0%);stop-opacity:0;"
         id="stop840-2" />
    </radialGradient>
    <radialGradient
       id="radial3-9"
       gradientUnits="userSpaceOnUse"
       cx="450.908936"
       cy="189.579361"
       fx="450.908936"
       fy="189.579361"
       r="21.166656"
       gradientTransform="matrix(3.57049e-7,0.102549,-0.288309,1.33269e-7,78.984692,-4.375346)">
      <stop
         offset="0"
         style="stop-color:rgb(0%,0%,0%);stop-opacity:0.313726;"
         id="stop843-3" />
      <stop
         offset="0.222222"
         style="stop-color:rgb(0%,0%,0%);stop-opacity:0.27451;"
         id="stop845-1" />
      <stop
         offset="1"
         style="stop-color:rgb(0%,0%,0%);stop-opacity:0;"
         id="stop847-9" />
    </radialGradient>
    <linearGradient
       id="linearGradient3866">
      <stop
         style="stop-color:#000000;stop-opacity:0.52083331"
         offset="0"
         id="stop3868" />
      <stop
         style="stop-color:#2883c3;stop-opacity:0;"
         offset="1"
         id="stop3870" />
    </linearGradient>
    <linearGradient
       id="linearGradient3874">
      <stop
         style="stop-color:#000d0e;stop-opacity:0.84105963;"
         offset="0"
         id="stop3876" />
      <stop
         style="stop-color:#000000;stop-opacity:0;"
         offset="1"
         id="stop3878" />
    </linearGradient>
    <clipPath
       id="clipPath892"
       clipPathUnits="userSpaceOnUse">
      <path
         inkscape:connector-curvature="0"
         id="path894"
         d="M 38.524123,20.232391 V 51.2388 h 3.597154 V 20.232391 Z M 14.125746,21.0025 V 52.010565 H 17.7229 V 21.0025 Z M 5.9924018,21.259203 V 52.267267 H 9.591212 V 21.259203 Z m 24.3983772,1.37129 v 31.006409 h 3.597153 V 22.630493 Z m -20.330877,1.626338 v 31.008065 h 3.597154 V 24.256831 Z m 24.396721,0.08612 v 31.008065 h 3.598809 V 24.342951 Z M 1.9265577,25.798705 V 56.80677 H 5.5237118 V 25.798705 Z m 16.2650323,0.08612 v 31.008064 h 3.597155 V 25.884825 Z m 24.398377,0 v 31.008064 h 3.597154 V 25.884825 Z m -16.265033,2.22752 v 31.006408 h 3.597155 V 28.112345 Z M 22.25909,30.76715 v 31.008065 h 3.597155 V 30.76715 Z"
         style="fill:#ffffff;fill-opacity:0.25520833;stroke:none;stroke-width:1.52630627;stroke-linecap:round;stroke-linejoin:round;stroke-miterlimit:4;stroke-dasharray:none;stroke-opacity:1" />
    </clipPath>
    <clipPath
       clipPathUnits="userSpaceOnUse"
       id="clipPath3881">
      <circle
         r="103.5"
         cy="152.5"
         cx="539.5"
         style="fill:#008dff;fill-opacity:1;fill-rule:evenodd;stroke:none"
         id="path3883"
         transform="translate(-412,-17)" />
    </clipPath>
    <linearGradient
       id="linearGradient4019">
      <stop
         offset="0"
         style="stop-color:#adcce1;stop-opacity:1;"
         id="stop4021" />
      <stop
         offset="0.26238"
         style="stop-color:#6bbfe1;stop-opacity:1;"
         id="stop4023" />
      <stop
         offset="0.74620908"
         style="stop-color:#2596d1;stop-opacity:1;"
         id="stop4025" />
      <stop
         offset="1"
         style="stop-color:#2372c0;stop-opacity:1;"
         id="stop4027" />
    </linearGradient>
    <linearGradient
       id="linearGradient4085">
      <stop
         offset="0"
         style="stop-color:#ffffff;stop-opacity:1"
         id="stop4087" />
      <stop
         offset="0.06316455"
         style="stop-color:#ffffff;stop-opacity:0.2"
         id="stop4089" />
      <stop
         offset="0.95056331"
         style="stop-color:#ffffff;stop-opacity:0.2"
         id="stop4091" />
      <stop
         offset="1"
         style="stop-color:#ffffff;stop-opacity:0.39215687"
         id="stop4093" />
    </linearGradient>
    <filter
       style="color-interpolation-filters:sRGB"
       id="filter3174">
      <feGaussianBlur
         stdDeviation="1.71"
         id="feGaussianBlur3176" />
    </filter>
    <linearGradient
       gradientTransform="scale(1.0058652,0.994169)"
       gradientUnits="userSpaceOnUse"
       id="ButtonShadow"
       y2="7.0165396"
       x2="45.447727"
       y1="92.539597"
       x1="45.447727">
      <stop
         offset="0"
         style="stop-color:#000000;stop-opacity:1"
         id="stop3750" />
      <stop
         offset="1"
         style="stop-color:#000000;stop-opacity:0.58823532"
         id="stop3752" />
    </linearGradient>
    <linearGradient
       id="linearGradient5048-8-7">
      <stop
         offset="0"
         style="stop-color:#000000;stop-opacity:0"
         id="stop5050-4-2" />
      <stop
         offset="0.5"
         style="stop-color:#000000;stop-opacity:1"
         id="stop5056-7-4" />
      <stop
         offset="1"
         style="stop-color:#000000;stop-opacity:0"
         id="stop5052-0-1-7" />
    </linearGradient>
    <linearGradient
       id="linearGradient5060-29-0">
      <stop
         offset="0"
         style="stop-color:#000000;stop-opacity:1"
         id="stop5062-9-7" />
      <stop
         offset="1"
         style="stop-color:#000000;stop-opacity:0"
         id="stop5064-08-2" />
    </linearGradient>
    <linearGradient
       id="linearGradient3851">
      <stop
         id="stop3853"
         style="stop-color:#5b8da7;stop-opacity:1;"
         offset="0" />
      <stop
         id="stop3855"
         style="stop-color:#1c3447;stop-opacity:1;"
         offset="1" />
    </linearGradient>
    <filter
       style="color-interpolation-filters:sRGB"
       id="filter3174-0">
      <feGaussianBlur
         stdDeviation="1.71"
         id="feGaussianBlur3176-9" />
    </filter>
    <clipPath
       id="clipPath916"
       clipPathUnits="userSpaceOnUse">
      <g
         id="g920"
         inkscape:label="circulo"
         style="display:inline;opacity:0.98999999;fill:#126136;fill-opacity:1"
         transform="matrix(1.1503549,0,0,1.1503549,-4.4861245,-7.5255648)">
        <path
           style="fill:#126136;fill-opacity:1;stroke:none;stroke-width:1.4909519"
           d="M 44.322082,27.405077 A 19.729762,19.729765 0 0 1 24.59232,47.134842 19.729762,19.729765 0 0 1 4.8625579,27.405077 19.729762,19.729765 0 0 1 24.59232,7.6753138 19.729762,19.729765 0 0 1 44.322082,27.405077 Z"
           id="path918"
           inkscape:connector-curvature="0" />
      </g>
    </clipPath>
    <clipPath
       clipPathUnits="userSpaceOnUse"
       id="clipPath3866">
      <circle
         r="312"
         cy="449"
         cx="1132"
         id="path3868"
         style="fill:#44abb1;fill-opacity:1;fill-rule:evenodd;stroke:none"
         transform="matrix(0.68724124,0,0,0.68724124,-521.35527,-47.661719)" />
    </clipPath>
    <linearGradient
       inkscape:collect="always"
       id="linearGradient4118">
      <stop
         style="stop-color:#0eb474;stop-opacity:1;"
         offset="0"
         id="stop4120" />
      <stop
         style="stop-color:#0eb474;stop-opacity:0;"
         offset="1"
         id="stop4122" />
    </linearGradient>
    <linearGradient
       id="linearGradient3837"
       inkscape:collect="always">
      <stop
         id="stop3839"
         offset="0"
         style="stop-color:#7db257;stop-opacity:1;" />
      <stop
         id="stop3841"
         offset="1"
         style="stop-color:#7db257;stop-opacity:0;" />
    </linearGradient>
    <linearGradient
       gradientUnits="userSpaceOnUse"
       y2="356.66208"
       x2="316.05505"
       y1="546.63525"
       x1="502.83536"
       id="linearGradient3843"
       xlink:href="#linearGradient3837"
       inkscape:collect="always" />
    <clipPath
       id="clipPath3847"
       clipPathUnits="userSpaceOnUse">
      <circle
         r="260.2153"
         cy="342.29437"
         cx="322.4407"
         style="fill:url(#linearGradient3843);fill-opacity:1;fill-rule:evenodd;stroke:none"
         id="path3849"
         transform="matrix(0.88586957,0,0,0.88586957,-24.010886,495.98978)" />
    </clipPath>
    <clipPath
       clipPathUnits="userSpaceOnUse"
       id="clipPath3344">
      <circle
         r="260.2153"
         cy="342.29437"
         cx="322.4407"
         transform="matrix(0.09964174,0,0,0.09964174,-8.1283951,-10.106867)"
         id="path3346"
         style="fill:#0eb474;fill-opacity:1;fill-rule:evenodd;stroke:none" />
    </clipPath>
    <linearGradient
       inkscape:collect="always"
       xlink:href="#linearGradient4118"
       id="linearGradient4124"
       x1="62.225403"
       y1="342.29437"
       x2="582.65601"
       y2="342.29437"
       gradientUnits="userSpaceOnUse" />
    <clipPath
       id="clipPath932"
       clipPathUnits="userSpaceOnUse">
      <g
         id="g936"
         inkscape:label="circulo"
         style="display:inline;opacity:0.98999999;fill:#32b6a1;fill-opacity:1"
         transform="matrix(1.1503549,0,0,1.1503549,-4.4861245,-7.5255648)">
        <path
           style="fill:#32b6a1;fill-opacity:1;stroke:none;stroke-width:1.4909519"
           d="M 44.322082,27.405077 A 19.729762,19.729765 0 0 1 24.59232,47.134842 19.729762,19.729765 0 0 1 4.8625579,27.405077 19.729762,19.729765 0 0 1 24.59232,7.6753138 19.729762,19.729765 0 0 1 44.322082,27.405077 Z"
           id="path934"
           inkscape:connector-curvature="0" />
      </g>
    </clipPath>
    <clipPath
       id="clipPath942"
       clipPathUnits="userSpaceOnUse">
      <g
         id="g946"
         inkscape:label="circulo"
         style="display:inline;opacity:0.98999999;fill:#32b6a1;fill-opacity:1"
         transform="matrix(1.1503549,0,0,1.1503549,-4.4861245,-7.5255648)">
        <path
           style="fill:#32b6a1;fill-opacity:1;stroke:none;stroke-width:1.4909519"
           d="M 44.322082,27.405077 A 19.729762,19.729765 0 0 1 24.59232,47.134842 19.729762,19.729765 0 0 1 4.8625579,27.405077 19.729762,19.729765 0 0 1 24.59232,7.6753138 19.729762,19.729765 0 0 1 44.322082,27.405077 Z"
           id="path944"
           inkscape:connector-curvature="0" />
      </g>
    </clipPath>
    <linearGradient
       id="linearGradient3822">
      <stop
         id="stop3824"
         style="stop-color:#e6e6e6;stop-opacity:1"
         offset="0" />
      <stop
         id="stop3826"
         style="stop-color:#f5f5f5;stop-opacity:1"
         offset="1" />
    </linearGradient>
    <linearGradient
       id="linearGradient3737">
      <stop
         id="stop3739"
         style="stop-color:#ffffff;stop-opacity:1"
         offset="0" />
      <stop
         id="stop3741"
         style="stop-color:#ffffff;stop-opacity:0"
         offset="1" />
    </linearGradient>
    <linearGradient
       id="linearGradient3700">
      <stop
         id="stop3702"
         style="stop-color:#f05517;stop-opacity:1"
         offset="0" />
      <stop
         id="stop3704"
         style="stop-color:#f37340;stop-opacity:1"
         offset="1" />
    </linearGradient>
    <filter
       id="filter3174-7"
       style="color-interpolation-filters:sRGB">
      <feGaussianBlur
         id="feGaussianBlur3176-5"
         stdDeviation="1.71" />
    </filter>
    <linearGradient
       x1="36.357143"
       y1="6"
       x2="36.357143"
       y2="63.893143"
       id="linearGradient3188"
       xlink:href="#linearGradient3737"
       gradientUnits="userSpaceOnUse" />
    <filter
       x="-0.192"
       y="-0.192"
       width="1.3839999"
       height="1.3839999"
       id="filter3794"
       style="color-interpolation-filters:sRGB">
      <feGaussianBlur
         id="feGaussianBlur3796"
         stdDeviation="5.28" />
    </filter>
    <linearGradient
       x1="48"
       y1="20.220806"
       x2="48"
       y2="138.66119"
       id="linearGradient3613"
       xlink:href="#linearGradient3737"
       gradientUnits="userSpaceOnUse" />
    <radialGradient
       cx="48"
       cy="90.171875"
       r="42"
       fx="48"
       fy="90.171875"
       id="radialGradient3619"
       xlink:href="#linearGradient3737"
       gradientUnits="userSpaceOnUse"
       gradientTransform="matrix(1.1573129,0,0,0.99590774,-7.5510206,0.19713193)" />
    <clipPath
       id="clipPath3613">
      <rect
         width="84"
         height="84"
         rx="6"
         ry="6"
         x="6"
         y="6"
         id="rect3615"
         style="fill:#ffffff;fill-opacity:1;fill-rule:nonzero;stroke:none" />
    </clipPath>
    <linearGradient
       x1="48"
       y1="90"
       x2="48"
       y2="5.9877172"
       id="linearGradient3617"
       xlink:href="#linearGradient3822"
       gradientUnits="userSpaceOnUse" />
    <linearGradient
       x1="45.447727"
       y1="92.539597"
       x2="45.447727"
       y2="7.0165396"
       id="ButtonShadow-0"
       gradientUnits="userSpaceOnUse"
       gradientTransform="matrix(1.0058652,0,0,0.994169,100,0)">
      <stop
         id="stop3750-8"
         style="stop-color:#000000;stop-opacity:1"
         offset="0" />
      <stop
         id="stop3752-5"
         style="stop-color:#000000;stop-opacity:0.58823532"
         offset="1" />
    </linearGradient>
    <linearGradient
       x1="32.251034"
       y1="6.1317081"
       x2="32.251034"
       y2="90.238609"
       id="linearGradient3780"
       xlink:href="#ButtonShadow-0"
       gradientUnits="userSpaceOnUse"
       gradientTransform="matrix(1.0238095,0,0,1.0119048,-1.1428571,-98.071429)" />
    <linearGradient
       x1="32.251034"
       y1="6.1317081"
       x2="32.251034"
       y2="90.238609"
       id="linearGradient3721"
       xlink:href="#ButtonShadow-0"
       gradientUnits="userSpaceOnUse"
       gradientTransform="translate(0,-97)" />
    <linearGradient
       gradientTransform="matrix(3.6907816,0,0,3.6907816,86.006062,-394.23151)"
       x1="47.973103"
       y1="79.776169"
       x2="47.973103"
       y2="16.436062"
       id="linearGradient3067"
       xlink:href="#linearGradient3700"
       gradientUnits="userSpaceOnUse" />
    <clipPath
       id="clipPath1109"
       clipPathUnits="userSpaceOnUse">
      <g
         id="g1113"
         inkscape:label="circulo"
         style="display:inline;opacity:0.98999999;fill:#fa6e31;fill-opacity:1"
         transform="matrix(12.332308,0,0,12.332308,-47.545312,-534.58518)">
        <path
           style="fill:#fa6e31;fill-opacity:1;stroke:none;stroke-width:1.4909519"
           d="M 44.322082,27.405077 A 19.729762,19.729765 0 0 1 24.59232,47.134842 19.729762,19.729765 0 0 1 4.8625579,27.405077 19.729762,19.729765 0 0 1 24.59232,7.6753138 19.729762,19.729765 0 0 1 44.322082,27.405077 Z"
           id="path1111"
           inkscape:connector-curvature="0" />
      </g>
    </clipPath>
    <filter
       filterUnits="objectBoundingBox"
       color-interpolation-filters="sRGB"
       y="-200%"
       x="-200%"
       height="400%"
       width="400%"
       id="JL0PC5maDbkAjO55cpfF0OHpA8bDli6c">
      <feGaussianBlur
         id="feGaussianBlur987"
         stdDeviation="4.294"
         in="SourceGraphic" />
      <feOffset
         id="feOffset989"
         result="pf_100_offsetBlur"
         dy="4"
         dx="0" />
      <feFlood
         id="feFlood991"
         flood-opacity=".4" />
      <feComposite
         id="feComposite993"
         result="pf_100_dropShadow"
         operator="in"
         in2="pf_100_offsetBlur" />
      <feBlend
         id="feBlend995"
         mode="normal"
         in2="pf_100_dropShadow"
         in="SourceGraphic" />
    </filter>
    <filter
       filterUnits="objectBoundingBox"
       color-interpolation-filters="sRGB"
       y="-200%"
       x="-200%"
       height="400%"
       width="400%"
       id="HVlZDtYZu59CWYGXCQF4k0ynMrNh2uPZ">
      <feGaussianBlur
         id="feGaussianBlur992"
         stdDeviation="4.294"
         in="SourceGraphic" />
      <feOffset
         id="feOffset994"
         result="pf_100_offsetBlur"
         dy="4"
         dx="0" />
      <feFlood
         id="feFlood996"
         flood-opacity=".4" />
      <feComposite
         id="feComposite998"
         result="pf_100_dropShadow"
         operator="in"
         in2="pf_100_offsetBlur" />
      <feBlend
         id="feBlend1000"
         mode="normal"
         in2="pf_100_dropShadow"
         in="SourceGraphic" />
    </filter>
    <linearGradient
       gradientUnits="userSpaceOnUse"
       gradientTransform="matrix(27.06568,0,0,31.449746,4.4289201,1024.6131)"
       y2="1"
       y1="0"
       x2="0"
       x1="0"
       id="_lgradient_528-1">
      <stop
         id="stop1036-3"
         style="stop-color:#5786FF"
         offset="0%" />
      <stop
         id="stop1038-6"
         style="stop-color:#51A8FF"
         offset="50%" />
      <stop
         id="stop1040-4"
         style="stop-color:#0F82F5"
         offset="100%" />
    </linearGradient>
    <linearGradient
       gradientUnits="userSpaceOnUse"
       gradientTransform="matrix(30.822001,0,0,39.061671,14.668874,1018.1092)"
       y2="1"
       y1="0"
       x2="0"
       x1="0"
       id="_lgradient_529-2">
      <stop
         id="stop1045-3"
         style="stop-color:#1FD175"
         offset="0%" />
      <stop
         id="stop1047-2"
         style="stop-color:#0F5"
         offset="100%" />
    </linearGradient>
    <linearGradient
       gradientUnits="userSpaceOnUse"
       gradientTransform="matrix(11.496396,0,0,27.300728,33.99892,6.8142)"
       y2="1"
       y1="0"
       x2="0"
       x1="0"
       id="_lgradient_527-3">
      <stop
         id="stop1027-9"
         style="stop-color:#5786FF"
         offset="0%" />
      <stop
         id="stop1029-4"
         style="stop-color:#51A8FF"
         offset="50%" />
      <stop
         id="stop1031-1"
         style="stop-color:#0F82F5"
         offset="100%" />
    </linearGradient>
    <filter
       filterUnits="objectBoundingBox"
       color-interpolation-filters="sRGB"
       y="-200%"
       x="-200%"
       height="400%"
       width="400%"
       id="rNqureEvb0NVQQqDVxx2Jux5TYBo6IeT">
      <feGaussianBlur
         id="feGaussianBlur1169"
         stdDeviation="4.294"
         in="SourceGraphic" />
      <feOffset
         id="feOffset1171"
         result="pf_100_offsetBlur"
         dy="4"
         dx="0" />
      <feFlood
         id="feFlood1173"
         flood-opacity=".4" />
      <feComposite
         id="feComposite1175"
         result="pf_100_dropShadow"
         operator="in"
         in2="pf_100_offsetBlur" />
      <feBlend
         id="feBlend1177"
         mode="normal"
         in2="pf_100_dropShadow"
         in="SourceGraphic" />
    </filter>
    <filter
       filterUnits="objectBoundingBox"
       color-interpolation-filters="sRGB"
       y="-200%"
       x="-200%"
       height="400%"
       width="400%"
       id="2pSM3saP2bj3fjKZLU6QLFODS2viyNh3">
      <feGaussianBlur
         id="feGaussianBlur1204"
         stdDeviation="4.294" />
    </filter>
    <linearGradient
       gradientUnits="userSpaceOnUse"
       gradientTransform="matrix(25.925376,0,0,21.149403,10.394245,13)"
       y2="1"
       y1="0"
       x2="0"
       x1="0"
       id="_lgradient_89-8">
      <stop
         id="stop1213-3"
         style="stop-color:#EDC268"
         offset="0%" />
      <stop
         id="stop1215-6"
         style="stop-color:#9B7424"
         offset="100%" />
    </linearGradient>
    <linearGradient
       gradientUnits="userSpaceOnUse"
       gradientTransform="matrix(24.234202,0,0,25.177806,8.121,1017.3622)"
       y2="0.99900001"
       y1="0.0049999999"
       x2="0.19"
       x1="0.18700001"
       id="_lgradient_90-5">
      <stop
         id="stop1220-3"
         style="stop-color:#07B3FF"
         offset="0%" />
      <stop
         id="stop1222-3"
         style="stop-color:#007DE8"
         offset="100%" />
    </linearGradient>
    <filter
       filterUnits="objectBoundingBox"
       color-interpolation-filters="sRGB"
       y="-200%"
       x="-200%"
       height="400%"
       width="400%"
       id="9N0yRbMFFJ3n5rbKMIn60C78Mkvhv3rx">
      <feGaussianBlur
         id="feGaussianBlur1335"
         stdDeviation="4.294"
         in="SourceGraphic" />
      <feOffset
         id="feOffset1337"
         result="pf_100_offsetBlur"
         dy="4"
         dx="0" />
      <feFlood
         id="feFlood1339"
         flood-opacity=".4" />
      <feComposite
         id="feComposite1341"
         result="pf_100_dropShadow"
         operator="in"
         in2="pf_100_offsetBlur" />
      <feBlend
         id="feBlend1343"
         mode="normal"
         in2="pf_100_dropShadow"
         in="SourceGraphic" />
    </filter>
    <filter
       filterUnits="objectBoundingBox"
       color-interpolation-filters="sRGB"
       y="-200%"
       x="-200%"
       height="400%"
       width="400%"
       id="dbGeM8BtvpZUStMXcZkknPxp8ZvGS8Y9">
      <feGaussianBlur
         id="feGaussianBlur1370"
         stdDeviation="4.294" />
    </filter>
    <filter
       filterUnits="objectBoundingBox"
       color-interpolation-filters="sRGB"
       y="-200%"
       x="-200%"
       height="400%"
       width="400%"
       id="96HFvmNjtmslLwkQU54nNKMyX92BbQod">
      <feGaussianBlur
         id="feGaussianBlur1393"
         stdDeviation="4.294" />
    </filter>
    <filter
       filterUnits="objectBoundingBox"
       color-interpolation-filters="sRGB"
       y="-200%"
       x="-200%"
       height="400%"
       width="400%"
       id="YrAZ1xy6Y4TYnZFvfyuMyFz2C4JyYMtg">
      <feGaussianBlur
         id="feGaussianBlur1408"
         stdDeviation="4.294" />
    </filter>
  </defs>
  <sodipodi:namedview
     id="base"
     pagecolor="#ffffff"
     bordercolor="#666666"
     borderopacity="1.0"
     inkscape:pageopacity="0.0"
     inkscape:pageshadow="2"
     inkscape:zoom="8"
     inkscape:cx="-10.902833"
     inkscape:cy="9.852627"
     inkscape:document-units="px"
     inkscape:current-layer="layer1"
     showgrid="true"
     units="px"
     inkscape:window-width="1920"
     inkscape:window-height="1024"
     inkscape:window-x="0"
     inkscape:window-y="30"
     inkscape:window-maximized="1">
    <inkscape:grid
       type="xygrid"
       id="grid4780" />
  </sodipodi:namedview>
  <metadata
     id="metadata4237">
    <rdf:RDF>
      <cc:Work
         rdf:about="">
        <dc:format>image/svg+xml</dc:format>
        <dc:type
           rdf:resource="http://purl.org/dc/dcmitype/StillImage" />
        <dc:title></dc:title>
      </cc:Work>
    </rdf:RDF>
  </metadata>
  <g
     inkscape:label="Capa 1"
     inkscape:groupmode="layer"
     id="layer1"
     transform="translate(0,-1004.3622)">
    <circle
       style="opacity:1;fill:#5b86a4;fill-opacity:1;stroke:none;stroke-width:6;stroke-linecap:round;stroke-linejoin:round;stroke-miterlimit:4;stroke-dasharray:none;stroke-dashoffset:0;stroke-opacity:1;paint-order:fill markers stroke"
       id="path4782"
       cx="23.446428"
       cy="1028.804"
       r="22.5" />
    <path
       inkscape:connector-curvature="0"
       style="isolation:isolate;fill:#ffffff;stroke-width:0.22927825"
       d="m 21.179294,1013.8969 c -2.916959,-0.01 -6.123514,0.5388 -9.230687,1.4348 -0.885595,0.2553 -2.2432787,0.7096 -2.3093493,0.7724 -0.034424,0.033 0.020979,0.056 0.2082299,0.085 0.4831724,0.078 1.1935224,0.2974 1.7263054,0.5334 1.941154,0.8598 3.75688,2.6354 4.984557,5.058 0.225827,0.4456 0.399446,0.8301 0.399446,0.8849 0,0.015 -0.141018,0.049 -0.372124,0.086 -2.346348,0.3824 -4.572185,1.4157 -6.6119023,3.6304 -0.8545339,0.9278 -1.7610768,2.1494 -2.4705627,3.3304 -0.479395,0.7978 -0.9104038,1.6327 -0.8432229,1.6327 0.00451,0 0.2321946,-0.055 0.5055765,-0.1214 2.9155344,-0.7101 5.5777924,-0.8449 7.4488554,-0.3771 0.788618,0.1972 1.459189,0.3307 1.932293,0.6829 0.203014,0.1512 0.411087,0.3423 0.411087,0.3776 -1.878442,1.6007 -2.999815,3.5222 -3.788908,5.6397 -0.69541,2.0301 -0.995579,4.0709 -0.974879,6.1645 1.199861,-0.9205 3.095815,-2.815 4.548392,-3.3483 1.711528,-0.6096 3.236146,-0.8094 5.346401,-0.9184 0.319397,-0.016 1.09377,-0.02 1.75317,-0.014 0,0 -0.0019,0 -0.0029,0 -1.7077,-1.093 -2.887641,-2.742 -3.150781,-4.5161 -0.05605,-0.3778 -0.04539,-0.9243 0.02553,-1.2991 0.193898,-1.0251 0.843394,-1.813 1.806021,-2.1821 h 0.0086 l 0.331384,-0.1272 0.01881,0.037 c 0.347488,-0.088 0.696704,-0.1429 1.046534,-0.1406 v 0 c 0.275366,0 0.550503,0.029 0.823528,0.075 -0.304667,-1.2475 -0.404312,-2.808 -0.249004,-4.1525 0.467988,-2.4143 1.615434,-4.0522 3.868185,-4.3214 0.135202,-0.016 0.271067,-0.019 0.407949,-0.011 0.958222,0.061 1.937269,0.7061 2.631334,1.5628 0.572422,0.7066 0.941465,1.5312 1.148616,2.5651 0.0809,0.4039 0.123101,0.3909 0.167026,1.1254 0.133763,2.2361 0.380579,3.1848 0.806973,3.4553 0.161019,0.1021 0.254196,0.079 0.421827,-0.1035 0.165097,-0.2602 0.309868,-0.5143 0.453621,-0.7868 -0.147861,0.2791 -0.294455,0.5393 -0.450483,0.7855 0.202593,0.1414 0.424168,0.2227 0.651108,0.2382 0.466856,0.1262 0.950976,-0.037 1.324175,-0.4465 0.373217,-0.4095 0.598133,-1.0239 0.615292,-1.6811 0.06152,-0.7865 -0.181134,-1.5588 -0.638565,-2.0325 -0.524687,1.107 -0.891666,1.9108 -1.222533,2.5829 0.381769,-0.7863 0.830812,-1.8057 1.659149,-3.5072 0.722701,-1.1995 1.290393,-1.7003 1.695827,-1.4935 0.04856,0.025 0.119569,0.087 0.157631,0.1389 0.590388,0.7998 0.671185,3.8246 0.08282,6.1304 -0.395617,0.071 -0.809094,0.2402 -1.209097,0.4863 -0.396519,0.2442 -0.706243,0.5094 -1.016533,0.8697 -0.139607,0.1622 -0.265175,0.3298 -0.377047,0.5002 -0.121632,0 -0.246009,0.01 -0.373006,0.023 -0.193284,0.022 -0.389456,0.057 -0.582624,0.099 -0.43794,0.1437 -0.853759,0.281 -1.18713,0.3601 -0.139886,0.053 -0.270549,0.1056 -0.376154,0.1514 -0.937473,0.4076 -1.374482,0.375 -1.789447,0.4339 -0.564437,0.081 -1.06019,0.057 -1.63003,-0.1178 -0.568978,-0.1754 -1.216257,-0.4871 -2.205458,-0.9838 -1.146025,-0.5584 -2.424796,-1.1109 -3.600831,-1.1334 -0.391088,-0.01 -0.770563,0.044 -1.130277,0.1732 -0.732731,0.2829 -1.149461,0.786 -1.299539,1.5795 -0.03714,0.1964 -0.04981,0.8324 -0.02015,1.0322 0.222401,1.4994 1.251602,2.9757 2.792985,3.9608 h 0.0058 0.0048 c 0.773355,0.5311 1.201256,0.6565 2.103816,0.9641 0.851167,0.2473 1.757277,0.3679 2.77954,0.3686 1.009124,0 1.779148,-0.097 2.650134,-0.3331 1.904572,-0.5169 3.495188,-1.6632 4.410924,-3.1496 0.04319,-0.086 0.0857,-0.166 0.128513,-0.2484 0.442623,0.087 0.951024,0 1.435231,-0.2096 0.717922,-0.31 1.412169,-0.924 1.875867,-1.6372 0.365991,-0.563 0.545791,-1.0576 0.567394,-1.6117 0.0099,-0.2558 -0.0086,-0.3979 -0.07706,-0.6126 -0.09424,-0.296 -0.260184,-0.5365 -0.497518,-0.7111 -0.339081,-0.2495 -0.756733,-0.3349 -1.205056,-0.2871 -0.0119,0 -0.02399,0 -0.0358,0.01 0.515762,-1.1288 0.895534,-2.3255 1.188031,-3.4969 0.188735,-0.7772 0.268524,-1.3155 0.284369,-1.9149 0.01881,-0.7098 -0.05173,-1.111 -0.275866,-1.566 -0.106642,-0.2165 -0.151527,-0.2807 -0.293754,-0.4222 -0.110692,-0.1102 -0.221844,-0.1953 -0.327335,-0.2504 -0.172899,-0.09 -0.450723,-0.171 -0.587988,-0.171 -0.07927,0 -0.08935,-0.01 -0.133898,-0.099 l -0.04789,-0.099 0.08061,-0.1734 c 0.403208,-0.8651 0.341461,-2.0594 0.460339,-3.4369 0.03273,-0.3796 0.05393,-1.0237 0.03676,-1.1155 -0.01785,-0.096 -0.0067,-0.092 -0.462163,-0.1389 -1.086178,-0.1115 -2.069506,-0.083 -3.453038,0.08 l -0.402581,0.05 -0.208226,-0.1841 c -1.104989,-0.9769 -2.453693,-1.7304 -3.837273,-2.3988 -2.014439,-0.9733 -4.184531,-1.6528 -6.677274,-1.927 -0.827559,-0.091 -1.69316,-0.1367 -2.586103,-0.1383 z m 0.207343,4.4382 0.200165,0.014 c 0.389053,0.028 0.905822,0.1325 1.333129,0.271 0.114434,0.037 0.374705,0.143 0.578123,0.2355 0.56343,0.2562 0.965237,0.5217 1.399856,0.9243 0.24052,0.2228 0.606396,0.637 0.593786,0.6721 -0.0048,0.013 -0.04914,0.037 -0.09942,0.054 -1.231131,0.4353 -2.585594,1.2083 -3.670237,2.0948 -0.112103,0.091 -0.212957,0.1666 -0.224359,0.1666 -0.0333,0 -0.06094,-0.063 -0.147323,-0.335 -0.214915,-0.6768 -0.291077,-1.1882 -0.291077,-1.9538 0,-0.4421 0.0215,-0.735 0.08282,-1.128 0.03589,-0.2298 0.147583,-0.7127 0.21003,-0.9082 z m 7.180618,8.8666 c -0.901744,-0.048 -1.770685,0.9047 -1.939025,2.1271 -0.168313,1.2224 0.427354,2.2543 1.329107,2.3027 0.901743,0.048 1.770233,-0.9052 1.938565,-2.1276 0.168312,-1.2223 -0.426894,-2.2538 -1.328647,-2.3022 z m -1.901856,4.6102 c 0.0077,0 -0.04117,0 -0.09319,0.013 0.0058,0 0.01123,0 0.01699,0.01 0.0382,-0.01 0.06891,-0.016 0.0761,-0.02 z m 0.09762,0 c 0.01056,0 -0.07985,0.01 -0.165241,0.022 0.0048,0 0.0086,0 0.01353,0.01 0.07294,-0.013 0.140596,-0.025 0.151805,-0.028 z m 11.971285,0.1702 c 0.215155,0.01 0.394264,0.06 0.521703,0.1545 0.153388,0.1128 0.181124,0.1513 0.249426,0.3658 0.06401,0.2011 0.0548,0.1326 0.0452,0.3776 -0.01699,0.4331 -0.130317,0.7618 -0.456327,1.2632 -0.38698,0.5952 -1.018366,1.1415 -1.572257,1.3806 -0.416558,0.1799 -0.945227,0.2207 -1.113693,0.1688 -0.293409,-0.09 -0.348189,-0.1335 -0.478276,-0.3573 -0.259311,-0.446 -0.08023,-1.3666 0.645302,-2.2091 0.273937,-0.318 0.50913,-0.5193 0.855755,-0.7326 0.388793,-0.2393 0.760015,-0.3659 1.076533,-0.4016 0.07917,-0.01 0.154877,-0.012 0.226595,-0.01 z m -14.631716,2.4213 c 0.05403,0 0.108542,0 0.162563,0.014 0.216096,0.044 0.410109,0.1718 0.531991,0.3546 0.216095,0.3158 0.459936,0.6203 0.725897,0.8974 0.210549,0.2106 0.448468,0.3879 0.708883,0.5321 0.28813,0.144 0.593075,0.249 0.91443,0.3045 0.454341,0.083 0.919815,0.1221 1.379703,0.111 0.221623,0 0.43221,0.083 0.592893,0.2382 0.155155,0.1552 0.249435,0.3657 0.249435,0.5817 0.0058,0.2217 -0.07774,0.4322 -0.232861,0.593 -0.155145,0.1551 -0.365607,0.2494 -0.581703,0.2494 -0.570714,0.011 -1.141592,-0.034 -1.701221,-0.133 -0.487604,-0.088 -0.953011,-0.2493 -1.396277,-0.4765 -0.415569,-0.2216 -0.792155,-0.5043 -1.119058,-0.8423 -0.343553,-0.3491 -0.648315,-0.7258 -0.919824,-1.1303 -0.121882,-0.1829 -0.166412,-0.4046 -0.127611,-0.6207 0.04434,-0.216 0.171815,-0.4101 0.354666,-0.532 0.137132,-0.091 0.29602,-0.1392 0.458094,-0.141 z"
       id="path1379-7" />
  </g>
</svg>
