<svg height="48" width="48" xmlns="http://www.w3.org/2000/svg"><g fill="#549cd4"><circle cx="23.940615" cy="31.534513" opacity=".99" r="13.232998" transform="matrix(1.72140702696 0 0 1.72140725788 -17.2289093957 -30.06939350282)"/><g stroke="#fff" stroke-linecap="square" stroke-miterlimit="10" transform="matrix(.89989438291 0 0 .89326050507 9.07679546899 9.62321209077)"><path d="m4.653045 21.715398c2.5528723 5.337746 9.999931 7.092936 16.633471 3.920328 6.63354-3.172609 9.941575-10.071615 7.388703-15.409361-2.552872-5.3377465-9.999931-7.0929369-16.633471-3.9203279-6.6335404 3.172609-9.9415753 10.0716149-7.388703 15.4093609z" stroke-linecap="round" stroke-linejoin="round" stroke-miterlimit="10" stroke-width="2.499522"/><path d="m19 5c0 1.6568542-1.343146 3-3 3s-3-1.3431458-3-3 1.343146-3 3-3 3 1.3431458 3 3z"/><path d="m19 5c0 1.6568542-1.343146 3-3 3s-3-1.3431458-3-3 1.343146-3 3-3 3 1.3431458 3 3z" stroke-linecap="round" stroke-linejoin="round"/><path d="m8 13c0 1.656854-1.3431458 3-3 3s-3-1.343146-3-3 1.3431458-3 3-3 3 1.343146 3 3z"/><path d="m8 13c0 1.656854-1.3431458 3-3 3s-3-1.343146-3-3 1.3431458-3 3-3 3 1.343146 3 3z" stroke-linecap="round" stroke-linejoin="round"/><path d="m12 26c0 1.656854-1.343146 3-3 3-1.6568542 0-3-1.343146-3-3s1.3431458-3 3-3c1.656854 0 3 1.343146 3 3z"/><path d="m12 26c0 1.656854-1.343146 3-3 3-1.6568542 0-3-1.343146-3-3s1.3431458-3 3-3c1.656854 0 3 1.343146 3 3z" stroke-linecap="round" stroke-linejoin="round"/><path d="m27 24c0 1.656854-1.343146 3-3 3s-3-1.343146-3-3 1.343146-3 3-3 3 1.343146 3 3z"/><path d="m27 24c0 1.656854-1.343146 3-3 3s-3-1.343146-3-3 1.343146-3 3-3 3 1.343146 3 3z" stroke-linecap="round" stroke-linejoin="round"/><path d="m32 11c0 1.656854-1.343146 3-3 3s-3-1.343146-3-3c0-1.6568542 1.343146-3 3-3s3 1.3431458 3 3z"/><path d="m32 11c0 1.656854-1.343146 3-3 3s-3-1.343146-3-3c0-1.6568542 1.343146-3 3-3s3 1.3431458 3 3z" stroke-linecap="round" stroke-linejoin="round"/></g></g></svg>