<svg height="48" width="48" xmlns="http://www.w3.org/2000/svg"><path d="m44.322082 27.405077a19.729762 19.729765 0 0 1 -19.729762 19.729765 19.729762 19.729765 0 0 1 -19.7297621-19.729765 19.729762 19.729765 0 0 1 19.7297621-19.7297632 19.729762 19.729765 0 0 1 19.729762 19.7297632z" fill="#d07373" opacity=".99" transform="matrix(1.1503549 0 0 1.1503549 -4.486125 -7.525565)"/><path d="m22.873047 30.082031c-2.382752.068706-3.373047 2.062129-3.373047 4.417969 0 2.899495 2.350505 5.25 5.25 5.25 1.368855 0 2.604483-.536331 3.539062-1.394531-2.370047-1.008038-4.03125-3.357719-4.03125-6.095703 0-.689337.066248-1.353227.207032-1.96875-.585553-.150116-1.119027-.222617-1.591797-.208985z" fill="#fff"/><path d="m36 32.25c0 2.899495-2.350505 5.25-5.25 5.25s-5.25-2.350505-5.25-5.25 1.5-5.25 5.25-4.138832c3.75-1.111168 5.25 1.888832 5.25 4.138832z" fill="#fff"/><path d="m31.5 30c-1.438481-7.553858-1.5-10.5-9-13.5.344562 4.721068 3.218284 7.394721 0 15" fill="none" stroke="#fff" stroke-width="1.5"/><path d="m22.5 15.6c3.28517 9.924788-4.485007 3.514648-9 7.5 1.012307-8.288723 4.438826-9.546579 9-7.5z" fill="#fff"/><path d="m21.6 15.9c-3.526886 1.114103-5.407321 3.376451-7.2 5.7z" fill="#d07373"/></svg>