<svg height="48" width="48" xmlns="http://www.w3.org/2000/svg"><path d="m44.322082 27.405077a19.729762 19.729765 0 0 1 -19.729762 19.729765 19.729762 19.729765 0 0 1 -19.7297621-19.729765 19.729762 19.729765 0 0 1 19.7297621-19.7297632 19.729762 19.729765 0 0 1 19.729762 19.7297632z" fill="#59a3b6" opacity=".99" transform="matrix(1.1503549 0 0 1.1503549 -4.486125 -7.525565)"/><g transform="translate(.086974 -.118163)"><path d="m12.933594 12.236328a3.75 3.75 0 0 0 -3.75 3.75 3.75 3.75 0 0 0 3.75 3.75 3.75 3.75 0 0 0 3.75-3.75 3.75 3.75 0 0 0 -3.75-3.75zm21.566406 0a3.75 3.75 0 0 0 -3.75 3.75 3.75 3.75 0 0 0 3.75 3.75 3.75 3.75 0 0 0 3.75-3.75 3.75 3.75 0 0 0 -3.75-3.75zm-21.566406 16.263672a3.75 3.75 0 0 0 -3.75 3.75 3.75 3.75 0 0 0 3.75 3.75 3.75 3.75 0 0 0 3.75-3.75 3.75 3.75 0 0 0 -3.75-3.75zm21.566406 0a3.75 3.75 0 0 0 -3.75 3.75 3.75 3.75 0 0 0 3.75 3.75 3.75 3.75 0 0 0 3.75-3.75 3.75 3.75 0 0 0 -3.75-3.75z" fill="#fff"/><path d="m12.308594 14.486328-.617188 1.027344 5.927735 3.55664a2.25 2.25 0 0 0 -.150391.804688 2.25 2.25 0 0 0 1.431641 2.09375v4.435547a2.25 2.25 0 0 0 -1.431641 2.095703 2.25 2.25 0 0 0 .05664.486328l-5.833985 3.5.617188 1.027344 5.777344-3.466797a2.25 2.25 0 0 0 1.632813.703125 2.25 2.25 0 0 0 2.166016-1.650391h4.384765a2.25 2.25 0 0 1 0 .002 2.25 2.25 0 0 0 2.167969 1.648391 2.25 2.25 0 0 0 1.574219-.642578l5.679687 3.40625.617188-1.027344-5.697266-3.417969a2.25 2.25 0 0 0 .076172-.568359 2.25 2.25 0 0 0 -1.587891-2.150391v-4.326171a2.25 2.25 0 0 0 1.587891-2.148438 2.25 2.25 0 0 0 -.181641-.878906l5.802735-3.482422-.617188-1.027344-5.941406 3.564453a2.25 2.25 0 0 0 -1.3125-.425781 2.25 2.25 0 0 0 -2.025391 1.275391h-4.666015a2.25 2.25 0 0 0 -2.027344-1.275391 2.25 2.25 0 0 0 -1.382812.476562zm9.648437 5.613281h4.244141a2.25 2.25 0 0 0 1.699219 1.957032v4.261718a2.25 2.25 0 0 0 -1.628907 1.582032h-4.384765a2.25 2.25 0 0 0 -1.78711-1.615235v-4.193359a2.25 2.25 0 0 1 .002 0 2.25 2.25 0 0 0 1.855469-1.992188z" fill="#fff" fill-opacity=".476684"/><g fill="none" stroke="#fff" stroke-width="2.5"><path d="m12 15.6875h24"/><path d="m12 32.1875h22.5"/><path d="m34.5 13.5v21"/><path d="m12.837087 13.5v21"/></g></g></svg>