<svg height="48" width="48" xmlns="http://www.w3.org/2000/svg" xmlns:xlink="http://www.w3.org/1999/xlink"><linearGradient id="a" gradientUnits="userSpaceOnUse" x1="24.62763890119" x2="23.1961208733" y1="15.39355416856" y2="36.87658812033"><stop offset="0" stop-color="#fff"/><stop offset="1" stop-color="#ececec"/></linearGradient><path d="m44.322082 27.405077a19.729762 19.729765 0 0 1 -19.729762 19.729765 19.729762 19.729765 0 0 1 -19.7297621-19.729765 19.729762 19.729765 0 0 1 19.7297621-19.7297632 19.729762 19.729765 0 0 1 19.729762 19.7297632z" fill="#ec9d72" opacity=".99" transform="matrix(1.1503549 0 0 1.1503549 -4.486125 -7.525565)"/><path d="m16.041599 11.12359c-2.428841.01575-4.800283 1.094743-6.5934942 2.110389-1.0485706.644908-1.1312925.913608-1.1497232 2.202102l-.074805 17.432868c.010965.59135.1857055 1.246833.8023493.910454.1925183-.129245.3841051-.252274.5748599-.369407 6.3860712-3.921334 11.7471882-1.128906 13.5953352 3.466591l-.216214-21.483033c-2.023202-3.23807-4.509466-4.28572-6.938308-4.269964zm15.524349 0c-2.428842-.01576-4.915109 1.031894-6.938308 4.269964l-.216214 21.483033c1.848146-4.595497 7.209261-7.387925 13.595329-3.466591.190759.117133.382345.240162.574863.369407.616645.336379.791383-.319104.802348-.910454l-.0748-17.432868c-.01845-1.288494-.101158-1.557194-1.149729-2.202102-1.79321-1.015646-4.164649-2.094633-6.593489-2.110389z" fill="url(#a)"/></svg>