<svg height="48" width="48" xmlns="http://www.w3.org/2000/svg"><rect fill="#5c626d" height="43.234528" ry="1.51962" width="32.728943" x="8.283252" y="3.553288"/><g transform="matrix(.87415896 0 0 .87415896 1.688841 .694993)"><path d="m38.170152 28.568534a11.9198 11.9198 0 0 1 -12.454001 11.33765 11.9198 11.9198 0 0 1 -11.360368-12.433281 11.9198 11.9198 0 0 1 12.41252-11.383049 11.9198 11.9198 0 0 1 11.405691 12.391719" fill="#f8f5f9" fill-opacity=".517606"/><path d="m38.173994 27.429657c-.31415-6.567117-5.886322-11.639811-12.454001-11.33765-3.28384.15108-6.196474 1.617346-8.251877 3.866868-2.055403 2.249523-3.253575 5.282303-3.108491 8.566413" fill="#f8f5f9" fill-opacity=".993007"/><path d="m36.141416 21.351487-9.906999 6.623609 3.739593 11.348218a11.9198 11.9198 0 0 0 8.195847-10.754682l.0048-.08682a11.9198 11.9198 0 0 0 -2.033177-7.130324z" fill="#ec4c7c" fill-rule="evenodd"/></g></svg>