<?xml version="1.0" encoding="UTF-8" standalone="no"?>
<svg
   xmlns:dc="http://purl.org/dc/elements/1.1/"
   xmlns:cc="http://creativecommons.org/ns#"
   xmlns:rdf="http://www.w3.org/1999/02/22-rdf-syntax-ns#"
   xmlns:svg="http://www.w3.org/2000/svg"
   xmlns="http://www.w3.org/2000/svg"
   xmlns:sodipodi="http://sodipodi.sourceforge.net/DTD/sodipodi-0.dtd"
   xmlns:inkscape="http://www.inkscape.org/namespaces/inkscape"
   height="48"
   width="48"
   version="1.1"
   id="svg16"
   sodipodi:docname="goobox.svg"
   inkscape:version="0.92.4 5da689c313, 2019-01-14">
  <metadata
     id="metadata22">
    <rdf:RDF>
      <cc:Work
         rdf:about="">
        <dc:format>image/svg+xml</dc:format>
        <dc:type
           rdf:resource="http://purl.org/dc/dcmitype/StillImage" />
        <dc:title></dc:title>
      </cc:Work>
    </rdf:RDF>
  </metadata>
  <defs
     id="defs20">
    <radialGradient
       gradientTransform="matrix(3.57049e-7,-0.102549,-0.288309,-1.33269e-7,78.984696,88.973262)"
       r="21.166656"
       fy="189.579361"
       fx="450.908936"
       cy="189.579361"
       cx="450.908936"
       gradientUnits="userSpaceOnUse"
       id="radial0">
      <stop
         id="stop822"
         style="stop-color:rgb(0%,0%,0%);stop-opacity:0.313726;"
         offset="0" />
      <stop
         id="stop824"
         style="stop-color:rgb(0%,0%,0%);stop-opacity:0.27451;"
         offset="0.222222" />
      <stop
         id="stop826"
         style="stop-color:rgb(0%,0%,0%);stop-opacity:0;"
         offset="1" />
    </radialGradient>
    <radialGradient
       gradientTransform="matrix(-3.57049e-7,0.102549,0.288309,1.33269e-7,-31.685907,-4.375346)"
       r="21.166656"
       fy="189.579361"
       fx="450.908936"
       cy="189.579361"
       cx="450.908936"
       gradientUnits="userSpaceOnUse"
       id="radial1">
      <stop
         id="stop829"
         style="stop-color:rgb(0%,0%,0%);stop-opacity:0.313726;"
         offset="0" />
      <stop
         id="stop831"
         style="stop-color:rgb(0%,0%,0%);stop-opacity:0.27451;"
         offset="0.222222" />
      <stop
         id="stop833"
         style="stop-color:rgb(0%,0%,0%);stop-opacity:0;"
         offset="1" />
    </radialGradient>
    <radialGradient
       gradientTransform="matrix(-3.57049e-7,-0.102549,0.288309,-1.33269e-7,-31.685907,88.973262)"
       r="21.166656"
       fy="189.579361"
       fx="450.908936"
       cy="189.579361"
       cx="450.908936"
       gradientUnits="userSpaceOnUse"
       id="radial2">
      <stop
         id="stop836"
         style="stop-color:rgb(0%,0%,0%);stop-opacity:0.313726;"
         offset="0" />
      <stop
         id="stop838"
         style="stop-color:rgb(0%,0%,0%);stop-opacity:0.27451;"
         offset="0.222222" />
      <stop
         id="stop840"
         style="stop-color:rgb(0%,0%,0%);stop-opacity:0;"
         offset="1" />
    </radialGradient>
    <radialGradient
       gradientTransform="matrix(3.57049e-7,0.102549,-0.288309,1.33269e-7,78.984692,-4.375346)"
       r="21.166656"
       fy="189.579361"
       fx="450.908936"
       cy="189.579361"
       cx="450.908936"
       gradientUnits="userSpaceOnUse"
       id="radial3">
      <stop
         id="stop843"
         style="stop-color:rgb(0%,0%,0%);stop-opacity:0.313726;"
         offset="0" />
      <stop
         id="stop845"
         style="stop-color:rgb(0%,0%,0%);stop-opacity:0.27451;"
         offset="0.222222" />
      <stop
         id="stop847"
         style="stop-color:rgb(0%,0%,0%);stop-opacity:0;"
         offset="1" />
    </radialGradient>
    <linearGradient
       gradientTransform="matrix(0.0273881,0,0,0.082039,16.656575,23.142854)"
       y2="254.666656"
       x2="255.323044"
       y1="233.5"
       x1="255.323059"
       gradientUnits="userSpaceOnUse"
       id="linear0">
      <stop
         id="stop850"
         style="stop-color:rgb(0%,0%,0%);stop-opacity:0.27451;"
         offset="0" />
      <stop
         id="stop852"
         style="stop-color:rgb(0%,0%,0%);stop-opacity:0;"
         offset="1" />
    </linearGradient>
    <linearGradient
       gradientTransform="matrix(0.093759,0,0,0.093759,0,20.158175)"
       y2="-168.666672"
       x2="254"
       y1="233.5"
       x1="254"
       gradientUnits="userSpaceOnUse"
       id="linear1">
      <stop
         id="stop855"
         style="stop-color:rgb(100%,43.921569%,26.274511%);stop-opacity:1;"
         offset="0" />
      <stop
         id="stop857"
         style="stop-color:rgb(100%,54.11765%,39.607844%);stop-opacity:1;"
         offset="1" />
    </linearGradient>
    <linearGradient
       gradientTransform="matrix(0.093759,0,0,0.093759,0,20.158175)"
       y2="-84"
       x2="254"
       y1="148.833328"
       x1="254"
       gradientUnits="userSpaceOnUse"
       id="linear2">
      <stop
         id="stop860"
         style="stop-color:rgb(74.117649%,74.117649%,74.117649%);stop-opacity:1;"
         offset="0" />
      <stop
         id="stop862"
         style="stop-color:rgb(87.843138%,87.843138%,87.843138%);stop-opacity:1;"
         offset="1" />
    </linearGradient>
    <linearGradient
       gradientTransform="matrix(0.08461253,0,0,0.08461253,-19.162897,21.468351)"
       y2="-84"
       x2="254"
       y1="148.83333"
       x1="254"
       gradientUnits="userSpaceOnUse"
       id="linear2-3">
      <stop
         id="stop860-6"
         style="stop-color:rgb(74.117649%,74.117649%,74.117649%);stop-opacity:1;"
         offset="0" />
      <stop
         id="stop862-7"
         style="stop-color:rgb(87.843138%,87.843138%,87.843138%);stop-opacity:1;"
         offset="1" />
    </linearGradient>
  </defs>
  <sodipodi:namedview
     pagecolor="#ffffff"
     bordercolor="#666666"
     borderopacity="1"
     objecttolerance="10"
     gridtolerance="10"
     guidetolerance="10"
     inkscape:pageopacity="0"
     inkscape:pageshadow="2"
     inkscape:window-width="1920"
     inkscape:window-height="1027"
     id="namedview18"
     showgrid="true"
     inkscape:zoom="9.8333333"
     inkscape:cx="4.7773971"
     inkscape:cy="15.254542"
     inkscape:window-x="0"
     inkscape:window-y="30"
     inkscape:window-maximized="1"
     inkscape:current-layer="svg16"
     showguides="false">
    <inkscape:grid
       type="xygrid"
       id="grid829" />
  </sodipodi:namedview>
  <circle
     style="opacity:1;fill:#9eb574;fill-opacity:1;stroke:none;stroke-width:6;stroke-linecap:round;stroke-linejoin:round;stroke-miterlimit:4;stroke-dasharray:none;stroke-dashoffset:0;stroke-opacity:1;paint-order:fill markers stroke"
     id="path4167"
     cx="23.713203"
     cy="23.985281"
     r="22.684189" />
  <g
     id="g950"
     transform="translate(0,-4.300822)">
    <path
       id="path847"
       d="m 23.675781,18.550781 a 15.5,15.5 0 0 0 -15.4628904,15.523438 15.5,15.5 0 0 0 2.6132814,8.574219 22.684189,22.684189 0 0 0 12.886719,4.021484 22.684189,22.684189 0 0 0 12.916015,-4.06836 15.5,15.5 0 0 0 2.583985,-8.550781 V 34 A 15.5,15.5 0 0 0 23.675781,18.550781 Z m 0.0332,13.5 a 2.0000052,2.0000052 0 0 1 2.003907,1.992188 v 0.0078 a 2.0000052,2.0000052 0 0 1 -1.998047,2 2.0000052,2.0000052 0 0 1 -2.001953,-1.998047 2.0000052,2.0000052 0 0 1 1.996093,-2.001953 z"
       style="opacity:1;fill:#ffffff;fill-opacity:0.74725276;stroke:none;stroke-width:0.5;stroke-linecap:round;stroke-linejoin:round;stroke-miterlimit:4;stroke-dasharray:none;stroke-dashoffset:0;stroke-opacity:0.86263733;paint-order:fill markers stroke"
       inkscape:connector-curvature="0" />
    <g
       id="g943">
      <path
         style="opacity:1;fill:none;fill-opacity:0.74725276;stroke:#ffffff;stroke-width:2;stroke-linecap:round;stroke-linejoin:round;stroke-miterlimit:4;stroke-dasharray:none;stroke-dashoffset:0;stroke-opacity:0.86263733;paint-order:fill markers stroke"
         id="path849"
         sodipodi:type="arc"
         sodipodi:cx="23.713291"
         sodipodi:cy="34.050049"
         sodipodi:rx="4.4643064"
         sodipodi:ry="4.4643064"
         sodipodi:start="0"
         sodipodi:end="6.2799564"
         sodipodi:open="true"
         d="m 28.177598,34.050049 a 4.4643064,4.4643064 0 0 1 -4.460703,4.464305 4.4643064,4.4643064 0 0 1 -4.467904,-4.457098 4.4643064,4.4643064 0 0 1 4.453489,-4.4715 4.4643064,4.4643064 0 0 1 4.475094,4.449878" />
      <path
         inkscape:connector-curvature="0"
         style="fill:#ffffff;fill-opacity:0.30418252;stroke:none;stroke-width:1px;stroke-linecap:butt;stroke-linejoin:miter;stroke-opacity:1"
         d="M 28.402666,19.296875 23.89876,32.060547 a 2.0000052,2.0000052 0 0 1 1.431641,0.818359 l 11.947265,-6.326172 a 15.5,15.5 0 0 0 -8.875,-7.255859 z m -16.632812,4.894531 a 15.5,15.5 0 0 0 -1.208985,1.673828 l 11.359375,7.304688 a 2.0000052,2.0000052 0 0 1 0.105469,-0.1875 z"
         id="path854" />
    </g>
    <path
       id="path873"
       d="m 23.675781,18.300781 c -8.690107,0.0208 -15.7260559,7.083316 -15.7128904,15.773438 0.00721,2.883226 0.8158035,5.699605 2.3125004,8.154297 a 22.684189,22.684189 0 0 0 13.4375,4.441406 22.684189,22.684189 0 0 0 13.4375,-4.441406 c 1.501126,-2.461518 2.309111,-5.286974 2.3125,-8.177735 V 34 C 39.434445,25.309889 32.365914,18.279929 23.675781,18.300781 Z m 0,0.5 C 32.095849,18.780577 38.935329,25.579953 38.962891,34 v 0.05078 c -0.0035,2.979197 -0.885477,5.888498 -2.525391,8.375 -3.739161,2.589496 -8.175441,3.984829 -12.724609,3.994141 -4.535804,-0.0016 -8.962147,-1.380114 -12.699219,-3.949219 C 9.3602281,39.981281 8.4703691,37.063354 8.4628906,34.074219 8.4501343,25.654162 15.255739,18.820931 23.675781,18.800781 Z m 0.0332,13 c -1.238828,0.0024 -2.247302,1.013123 -2.246093,2.251953 0.0012,1.239678 1.012275,2.249255 2.251953,2.248047 1.238829,-0.0012 2.248044,-1.01117 2.248047,-2.25 v -0.0078 c -0.0048,-1.23798 -1.01592,-2.244612 -2.253907,-2.242188 z m 0,0.5 c 0.968112,-0.0019 1.750125,0.776035 1.753907,1.744141 v 0.0059 c -2e-6,0.968783 -0.779265,1.749052 -1.748047,1.75 -0.969459,9.45e-4 -1.751005,-0.778588 -1.751953,-1.748047 -9.46e-4,-0.968783 0.777311,-1.750058 1.746093,-1.751953 z"
       style="color:#000000;font-style:normal;font-variant:normal;font-weight:normal;font-stretch:normal;font-size:medium;line-height:normal;font-family:sans-serif;font-variant-ligatures:normal;font-variant-position:normal;font-variant-caps:normal;font-variant-numeric:normal;font-variant-alternates:normal;font-feature-settings:normal;text-indent:0;text-align:start;text-decoration:none;text-decoration-line:none;text-decoration-style:solid;text-decoration-color:#000000;letter-spacing:normal;word-spacing:normal;text-transform:none;writing-mode:lr-tb;direction:ltr;text-orientation:mixed;dominant-baseline:auto;baseline-shift:baseline;text-anchor:start;white-space:normal;shape-padding:0;clip-rule:nonzero;display:inline;overflow:visible;visibility:visible;opacity:1;isolation:auto;mix-blend-mode:normal;color-interpolation:sRGB;color-interpolation-filters:linearRGB;solid-color:#000000;solid-opacity:1;vector-effect:none;fill:#ffffff;fill-opacity:0.86263733;fill-rule:nonzero;stroke:none;stroke-width:0.5;stroke-linecap:round;stroke-linejoin:round;stroke-miterlimit:4;stroke-dasharray:none;stroke-dashoffset:0;stroke-opacity:1;paint-order:fill markers stroke;color-rendering:auto;image-rendering:auto;shape-rendering:auto;text-rendering:auto;enable-background:accumulate"
       inkscape:connector-curvature="0" />
  </g>
  <path
     style="opacity:1;fill:#505e5d;fill-opacity:1;stroke:none;stroke-width:6;stroke-linecap:round;stroke-linejoin:round;stroke-miterlimit:4;stroke-dasharray:none;stroke-dashoffset:0;stroke-opacity:1;paint-order:fill markers stroke"
     d="m 44.614756,32.814991 c -1.147882,2.713899 -2.808894,5.157919 -4.861409,7.210434 -4.105031,4.105031 -9.776078,6.644045 -16.040144,6.644045 -6.264066,0 -11.935113,-2.539015 -16.0401435,-6.644045 C 5.6205442,37.972909 3.959533,35.52889 2.8116506,32.814991 Z"
     id="circle844"
     inkscape:connector-curvature="0"
     sodipodi:nodetypes="cssscc" />
  <circle
     style="opacity:1;fill:#ffffff;fill-opacity:1;stroke:none;stroke-width:2;stroke-linecap:round;stroke-linejoin:round;stroke-miterlimit:4;stroke-dasharray:none;stroke-dashoffset:0;stroke-opacity:1;paint-order:fill markers stroke"
     id="path850"
     cx="22.805084"
     cy="41.533901"
     r="2.2966101" />
  <path
     style="fill:#ffffff;fill-opacity:1;stroke:none;stroke-width:1px;stroke-linecap:butt;stroke-linejoin:miter;stroke-opacity:1"
     d="m 25,42 v -5 h 2 v -2 h -4 v 5 z"
     id="path852"
     inkscape:connector-curvature="0"
     sodipodi:nodetypes="ccccccc" />
</svg>
