<svg height="48" width="48" xmlns="http://www.w3.org/2000/svg"><path d="m44.322082 27.405077a19.729762 19.729765 0 0 1 -19.729762 19.729765 19.729762 19.729765 0 0 1 -19.7297621-19.729765 19.729762 19.729765 0 0 1 19.7297621-19.7297632 19.729762 19.729765 0 0 1 19.729762 19.7297632z" fill="#5bb2b5" opacity=".99" transform="matrix(1.1503549 0 0 1.1503549 -4.486125 -7.525565)"/><path d="m35.471034 35.667262c-2.985913 2.985913-7.110913 4.832738-11.667262 4.832738-9.112698 0-16.5-7.387302-16.5-16.5s7.387302-16.5 16.5-16.5c4.556349 0 8.681349 1.8468254 11.667262 4.832738" style="fill:none;stroke:#fff;stroke-width:2.5;stroke-linecap:round;stroke-linejoin:round;stroke-opacity:.7"/><circle cx="30.058123" cy="33.54797" fill="#fff" r="9.75" stroke="#5bb2b5" stroke-linecap="round" stroke-linejoin="round" stroke-width="2.5"/><path d="m29.30354 26.253677c-.278692 0-.482464.225124-.503054.503054l-.08646 1.172157c-1.089293.260763-2.079466.832135-2.850316 1.644753l-1.058183-.510915c-.241355-.139346-.547442-.05664-.686788.184716l-.754582 1.306763c-.139346.241355-.04667.530974.183733.68777l.967791.658294c-.159945.534654-.241686 1.089637-.242685 1.647701.0014.557782.08348 1.112429.243667 1.646718l-.968773.659277c-.241355.139346-.323079.446415-.183733.68777l.754582 1.306763c.139346.241355.435798.30585.686788.184716l1.055236-.50895c.771776.812748 1.763025 1.383809 2.853263 1.64377l.08646 1.171174c0 .278693.224362.503055.503054.503055h1.509164c.278693 0 .482465-.225124.503055-.503055l.08646-1.172156c1.089293-.260763 2.079466-.832135 2.850316-1.644753l1.058183.510915c.241354.139346.547442.05664.686788-.184716l.754582-1.306763c.139346-.241355.04667-.530974-.183734-.68777l-.96779-.658294c.159944-.534654.241686-1.089637.242684-1.647701-.0014-.557783-.08348-1.11243-.243667-1.646719l.968773-.659276c.241355-.139346.32308-.446416.183734-.68777l-.754582-1.306763c-.139347-.241355-.435798-.30585-.686788-.184716l-1.055233.50895c-.771776-.812749-1.763025-1.383809-2.853263-1.64377l-.08646-1.171175c0-.278692-.224362-.503054-.503055-.503054z" fill="#5bb2b5"/><circle cx="30.058123" cy="33.54797" fill="#5bb2b5" r="3.311348" stroke="#fff" stroke-linecap="round" stroke-linejoin="round" stroke-width="1.434918"/><path d="m32.1 12.9 5.4-2.4-.9 3.9z" fill="#cfe9ea" fill-opacity=".996078"/></svg>