<svg height="48" width="48" xmlns="http://www.w3.org/2000/svg"><path d="m44.322082 27.405077a19.729762 19.729765 0 0 1 -19.729762 19.729765 19.729762 19.729765 0 0 1 -19.7297621-19.729765 19.729762 19.729765 0 0 1 19.7297621-19.7297632 19.729762 19.729765 0 0 1 19.729762 19.7297632z" fill="#5999b6" opacity=".99" transform="matrix(1.1503549 0 0 1.1503549 -4.486125 -7.525565)"/><g fill="#fff"><path d="m24 19.5c6-6 6-10.5 0-16.5-6 6-6 10.5 0 16.5z" fill-rule="evenodd"/><path d="m24 19.5c8.341717-1.554271 10.887009-5.265267 9.332738-13.6069839-8.341717 1.5542711-10.887009 5.2652669-9.332738 13.6069839z" fill-opacity=".239437" fill-rule="evenodd"/><path d="m24 19.5c-8.341717-1.554271-10.887009-5.265267-9.332738-13.6069839 8.341717 1.5542711 10.887009 5.2652669 9.332738 13.6069839z" fill-opacity=".239437" fill-rule="evenodd"/><circle cx="34.858757" cy="33" fill-opacity=".239437" r="4.5" stroke="#fff" stroke-linecap="round" stroke-linejoin="round" stroke-width="2"/><circle cx="14.35266" cy="33" fill-opacity=".239437" r="4.5" stroke="#fff" stroke-linecap="round" stroke-linejoin="round" stroke-width="2"/><path d="m15 38.4c6.572505-1.160083 13.077461-1.239376 19.5 0l-3-2.4c-4.202612-.87649-8.43457-1.488871-12.9 0z" fill-rule="evenodd"/></g></svg>