<?xml version="1.0" encoding="UTF-8" standalone="no"?>
<!DOCTYPE svg PUBLIC "-//W3C//DTD SVG 1.1//EN" "http://www.w3.org/Graphics/SVG/1.1/DTD/svg11.dtd">
<svg version="1.1" xmlns="http://www.w3.org/2000/svg" xmlns:xlink="http://www.w3.org/1999/xlink" preserveAspectRatio="xMidYMid meet" viewBox="0 0 640 640" width="64" height="64"><defs><path d="M277.81 547.7C154.57 530.71 67.6 423.12 83.55 307.39C99.5 191.65 212.32 111.6 335.57 128.59C458.82 145.57 545.8 253.15 529.85 368.89C525.97 397 516.38 423.01 502.32 446.03C507.18 454.61 618.49 557.41 604.88 572.22C595.8 582.09 543.47 559.78 447.89 505.27C376.75 539.38 320.05 553.52 277.81 547.7Z" id="b2vLTFRqUK"></path><path d="M178.71 121.71L216.44 145.72L182.14 166.3L147.84 186.88L144.41 142.29C143.17 126.17 142.39 116.09 142.08 112.06C141.63 106.15 148.13 102.25 153.13 105.43C156.54 107.6 165.07 113.03 178.71 121.71Z" id="auRVNtC6y"></path><path d="M296.82 79.31L331.96 125.63L275.69 133.48L219.42 141.33L240.54 87.16C248.27 67.35 253.1 54.97 255.03 50.02C257.94 42.57 267.88 41.18 272.71 47.55C275.93 51.79 283.96 62.37 296.82 79.31Z" id="anAjkn6jI"></path><path d="M423.9 108.66L434.35 165.85L380.59 147.46L326.84 129.06L370.14 90.26C385.98 76.07 395.87 67.21 399.83 63.66C405.79 58.32 415.29 61.58 416.73 69.44C417.68 74.67 420.07 87.74 423.9 108.66Z" id="a3VQJVVYZt"></path><path d="M516.5 183.73L500.39 233.12L465.81 195.1L431.22 157.08L481.91 145.71C500.48 141.54 512.09 138.94 516.73 137.9C523.73 136.33 529.78 142.98 527.56 149.8C526.08 154.32 522.4 165.63 516.5 183.73Z" id="a1omqm5tvM"></path><path d="M559.46 273.17L530.53 308.36L514.43 266.25L498.33 224.14L543.36 231.06C559.86 233.59 570.17 235.18 574.3 235.81C580.52 236.77 583.33 244.13 579.33 248.99C576.68 252.21 570.06 260.27 559.46 273.17Z" id="b110OqUVA8"></path><path d="M558.48 387.86L522.46 408.79L527.06 360.52L531.65 312.25L563.07 339.59C574.92 349.9 582.32 356.35 585.29 358.93C589.8 362.85 589.12 370.06 583.94 373.06C580.55 375.04 572.06 379.97 558.48 387.86Z" id="a1ta9qRsoP"></path><path d="M563 463.44L549.78 499.33L525.95 472.95L502.12 446.57L539.17 437.06C552.63 433.6 561.04 431.44 564.4 430.58C569.4 429.3 573.79 434.15 572 438.99C570.8 442.25 567.8 450.4 563 463.44Z" id="eMKrbF2I"></path><path d="M602.61 533.87L594.65 560.57L574.75 533.75L554.85 506.93L582.7 507.05C593.28 507.1 599.89 507.13 602.53 507.14C606.54 507.16 609.41 511.03 608.27 514.87C607.51 517.41 605.63 523.74 602.61 533.87Z" id="a2CjBKVvhj"></path><path d="M426.77 533.52C411.41 542.23 365.65 472.12 332.13 478.33C298.61 484.53 263.75 565.76 239.01 562.35C176.16 553.69 168.16 456.68 149.6 432.6C140.5 420.8 97.07 416.03 89.73 389.21C82.08 361.28 82.76 325.96 86.75 297.04C102.7 181.31 220.52 101.25 343.77 118.24C467.02 135.23 554 242.81 538.05 358.54C534.17 386.66 524.58 412.66 510.53 435.69C515.39 444.26 598.48 545.9 606.03 568.49C613.58 591.09 464.53 479.81 452.72 481.07C440.9 482.32 443.63 523.97 426.77 533.52Z" id="dnv9zvXpf"></path><path d="M216.44 275.5C216.44 291.23 204.12 304 188.94 304C173.76 304 161.44 291.23 161.44 275.5C161.44 259.77 173.76 247 188.94 247C204.12 247 216.44 259.77 216.44 275.5Z" id="cc4UTqfOf"></path></defs><g><g><g><use xlink:href="#b2vLTFRqUK" opacity="1" fill="#69dabd" fill-opacity="1"></use></g><g><use xlink:href="#auRVNtC6y" opacity="1" fill="#5a7871" fill-opacity="1"></use></g><g><use xlink:href="#anAjkn6jI" opacity="1" fill="#5a7871" fill-opacity="1"></use></g><g><use xlink:href="#a3VQJVVYZt" opacity="1" fill="#5a7871" fill-opacity="1"></use></g><g><use xlink:href="#a1omqm5tvM" opacity="1" fill="#5a7871" fill-opacity="1"></use></g><g><use xlink:href="#b110OqUVA8" opacity="1" fill="#5a7871" fill-opacity="1"></use></g><g><use xlink:href="#a1ta9qRsoP" opacity="1" fill="#5a7871" fill-opacity="1"></use></g><g><use xlink:href="#eMKrbF2I" opacity="1" fill="#5a7871" fill-opacity="1"></use></g><g><use xlink:href="#a2CjBKVvhj" opacity="1" fill="#5a7871" fill-opacity="1"></use></g><g><use xlink:href="#dnv9zvXpf" opacity="1" fill="#3c937d" fill-opacity="1"></use></g><g><use xlink:href="#cc4UTqfOf" opacity="1" fill="#bae3d8" fill-opacity="1"></use></g></g></g></svg>