<?xml version="1.0" encoding="UTF-8" standalone="no"?>
<svg
   xmlns:dc="http://purl.org/dc/elements/1.1/"
   xmlns:cc="http://creativecommons.org/ns#"
   xmlns:rdf="http://www.w3.org/1999/02/22-rdf-syntax-ns#"
   xmlns:svg="http://www.w3.org/2000/svg"
   xmlns="http://www.w3.org/2000/svg"
   xmlns:sodipodi="http://sodipodi.sourceforge.net/DTD/sodipodi-0.dtd"
   xmlns:inkscape="http://www.inkscape.org/namespaces/inkscape"
   height="48"
   width="48"
   version="1.1"
   id="svg10"
   sodipodi:docname="imagemagick.svg"
   inkscape:version="0.92.4 5da689c313, 2019-01-14">
  <metadata
     id="metadata16">
    <rdf:RDF>
      <cc:Work
         rdf:about="">
        <dc:format>image/svg+xml</dc:format>
        <dc:type
           rdf:resource="http://purl.org/dc/dcmitype/StillImage" />
        <dc:title></dc:title>
      </cc:Work>
    </rdf:RDF>
  </metadata>
  <defs
     id="defs14">
    <filter
       filterUnits="objectBoundingBox"
       color-interpolation-filters="sRGB"
       y="-200%"
       x="-200%"
       height="400%"
       width="400%"
       id="xPHBR2KRsqNJJmxgfSMnWsjFL63MuKr0">
      <feGaussianBlur
         id="feGaussianBlur823"
         stdDeviation="4.294"
         in="SourceGraphic" />
      <feOffset
         id="feOffset825"
         result="pf_100_offsetBlur"
         dy="4"
         dx="0" />
      <feFlood
         id="feFlood827"
         flood-opacity=".4" />
      <feComposite
         id="feComposite829"
         result="pf_100_dropShadow"
         operator="in"
         in2="pf_100_offsetBlur" />
      <feBlend
         id="feBlend831"
         mode="normal"
         in2="pf_100_dropShadow"
         in="SourceGraphic" />
    </filter>
    <filter
       filterUnits="objectBoundingBox"
       color-interpolation-filters="sRGB"
       y="-200%"
       x="-200%"
       height="400%"
       width="400%"
       id="2JmMAOqgjSUXbdZfecnmpMzAW6swRgvN">
      <feGaussianBlur
         id="feGaussianBlur858"
         stdDeviation="4.294" />
    </filter>
  </defs>
  <sodipodi:namedview
     pagecolor="#ffffff"
     bordercolor="#666666"
     borderopacity="1"
     objecttolerance="10"
     gridtolerance="10"
     guidetolerance="10"
     inkscape:pageopacity="0"
     inkscape:pageshadow="2"
     inkscape:window-width="1920"
     inkscape:window-height="1023"
     id="namedview12"
     showgrid="false"
     inkscape:zoom="3.4766084"
     inkscape:cx="-44.717278"
     inkscape:cy="7.9491379"
     inkscape:window-x="0"
     inkscape:window-y="31"
     inkscape:window-maximized="1"
     inkscape:current-layer="svg10" />
  <g
     fill="#c185b1"
     opacity=".99"
     transform="matrix(1.1503549 0 0 1.1503549 -4.486125 -7.525565)"
     id="g6"
     style="fill:#6f8690;fill-opacity:1">
    <path
       d="m44.322082 27.405077a19.729762 19.729765 0 0 1 -19.729762 19.729765 19.729762 19.729765 0 0 1 -19.7297621-19.729765 19.729762 19.729765 0 0 1 19.7297621-19.7297632 19.729762 19.729765 0 0 1 19.729762 19.7297632z"
       id="path2"
       style="fill:#6f8690;fill-opacity:1" />
    <path
       d="m44.322082 27.405077a19.729762 19.729765 0 0 1 -19.729762 19.729765 19.729762 19.729765 0 0 1 -19.7297621-19.729765 19.729762 19.729765 0 0 1 19.7297621-19.7297632 19.729762 19.729765 0 0 1 19.729762 19.7297632z"
       id="path4"
       style="fill:#6f8690;fill-opacity:1" />
  </g>
  <path
     style="fill:#ffffff;stroke-width:0.99999994"
     inkscape:connector-curvature="0"
     d="m 26.163571,12.089076 c -2.480001,0.320126 -5.144999,1.527004 -7.313,5.097978 -4.956998,8.159999 -4.604999,11.000012 -5.395,11.918021 -0.793001,0.914003 -2.929999,1.409991 -2.621,2.448983 0.309014,1.035024 0.620999,0.902022 0.620999,0.902022 0,0 3.121002,4.519975 12.172002,3.347981 9.049999,-1.171994 10.304999,-3.081978 10.222998,-4.029997 -0.08202,-0.949001 -1.992,-1.640995 -1.992,-1.640995 0,0 -1.414001,-4.983988 -1.051,-7.029997 0.362986,-2.046992 1.742,-5.029984 3.104999,-5.672012 1.359001,-0.648 2.039003,2.168012 2.742002,1.472995 0.698997,-0.694979 -1.180002,-6.059981 -3.258002,-6.101972 -1.164,-0.02268 -4.059,-1.121007 -7.234,-0.706998 m 0.0079,6.847975 0.691,2.043023 2.098001,0.593991 -1.772999,1.261984 0.07801,2.144995 -1.772999,-1.261984 -2.089999,0.730016 0.672,-2.020007 -1.348003,-1.695004 2.203004,-0.0189 m -5.840001,4.226986 0.074,1.479987 1.323998,0.793021 -1.429999,0.515981 -0.358979,1.46502 -0.973002,-1.141001 -1.522998,0.09789 0.816,-1.234015 -0.582002,-1.386974 1.477001,0.38298 m 7.081999,-0.663987 1.418,1.898003 2.395,-0.09411 -1.390999,1.921965 0.816,2.188006 -2.297,-0.711005 -1.887001,1.457008 -0.01587,-2.358992 -1.988002,-1.296982 2.277,-0.746004 m 0.672,-2.258003"
     id="path24-0" />
</svg>
