<?xml version="1.0" encoding="UTF-8" standalone="no"?>
<svg
   xmlns:dc="http://purl.org/dc/elements/1.1/"
   xmlns:cc="http://creativecommons.org/ns#"
   xmlns:rdf="http://www.w3.org/1999/02/22-rdf-syntax-ns#"
   xmlns:svg="http://www.w3.org/2000/svg"
   xmlns="http://www.w3.org/2000/svg"
   xmlns:sodipodi="http://sodipodi.sourceforge.net/DTD/sodipodi-0.dtd"
   xmlns:inkscape="http://www.inkscape.org/namespaces/inkscape"
   height="48"
   width="48"
   version="1.1"
   id="svg12"
   sodipodi:docname="intellij.svg"
   inkscape:version="0.92.3 (2405546, 2018-03-11)">
  <metadata
     id="metadata18">
    <rdf:RDF>
      <cc:Work
         rdf:about="">
        <dc:format>image/svg+xml</dc:format>
        <dc:type
           rdf:resource="http://purl.org/dc/dcmitype/StillImage" />
        <dc:title></dc:title>
      </cc:Work>
    </rdf:RDF>
  </metadata>
  <defs
     id="defs16" />
  <sodipodi:namedview
     pagecolor="#ffffff"
     bordercolor="#666666"
     borderopacity="1"
     objecttolerance="10"
     gridtolerance="10"
     guidetolerance="10"
     inkscape:pageopacity="0"
     inkscape:pageshadow="2"
     inkscape:window-width="1920"
     inkscape:window-height="1029"
     id="namedview14"
     showgrid="true"
     inkscape:zoom="13.906433"
     inkscape:cx="18.904313"
     inkscape:cy="16.549755"
     inkscape:window-x="0"
     inkscape:window-y="25"
     inkscape:window-maximized="1"
     inkscape:current-layer="svg12">
    <inkscape:grid
       type="xygrid"
       id="grid828" />
  </sodipodi:namedview>
  <rect
     fill="#47b472"
     height="43"
     ry="1.452703"
     width="43"
     x="2"
     y="3"
     id="rect2"
     style="fill:#b47991;fill-opacity:1" />
  <path
     d="m23.5 3h20.047297c.804798 0 1.452703.6479055 1.452703 1.4527029v20.0472971h-21.5z"
     fill="#6da1c8"
     id="path4" />
  <path
     d="m45 24.5v20.047297c0 .804798-.647905 1.452703-1.452703 1.452703h-40.0945941c-.8047974 0-1.4527029-.647905-1.4527029-1.452703v-20.047297z"
     fill="#6dc8bd"
     id="path6"
     style="fill:#dcc68b;fill-opacity:1" />
  <path
     d="m45 24.5v20.047297c0 .804798-.647905 1.452703-1.452703 1.452703h-20.047297v-21.5z"
     fill="#d5bf56"
     id="path8"
     style="fill:#a27bb7;fill-opacity:1" />
  <path
     style="fill:#ffffff"
     d="M 9 10 L 9 39 L 38 39 L 38 10 L 9 10 z M 14.980469 14.988281 L 19 15 L 19 34 L 15 34 L 14.980469 14.988281 z M 28.408203 14.988281 L 32.082031 14.988281 L 32.082031 28.130859 C 32.082031 29.983455 31.559215 31.454141 30.511719 32.544922 C 29.47288 33.627046 28.160401 34.167969 26.576172 34.167969 C 24.862088 34.167969 23.504211 33.684426 22.5 32.714844 C 21.504446 31.74526 21.023966 30.316911 21.058594 28.429688 L 21.097656 28.351562 L 24.693359 28.351562 C 24.693359 29.347117 24.866611 30.074383 25.212891 30.533203 C 25.567827 30.992024 26.022125 31.220703 26.576172 31.220703 C 27.078277 31.220703 27.508345 30.947734 27.863281 30.402344 C 28.226875 29.856953 28.408203 29.100442 28.408203 28.130859 L 28.408203 14.988281 z "
     id="path10" />
  <g
     aria-label="IJ"
     style="font-style:normal;font-variant:normal;font-weight:bold;font-stretch:condensed;font-size:26.59427071px;line-height:1.25;font-family:'Roboto Condensed';-inkscape-font-specification:'Roboto Condensed,  Bold Condensed';letter-spacing:0px;word-spacing:0px;fill:#000000;fill-opacity:1;stroke:none;stroke-width:0.66485679"
     id="text832" />
</svg>
