<svg height="48" width="48" xmlns="http://www.w3.org/2000/svg" xmlns:xlink="http://www.w3.org/1999/xlink"><clipPath id="a"><rect height="30.112698" ry="1.530404" width="38" x="5" y="16.887302"/></clipPath><rect fill="#efbd9c" height="30.112698" ry="1.530404" width="38" x="5" y="16.887302"/><rect fill="#efbd9c" height="30.112698" ry="1.530404" width="38" x="5" y="16.887302"/><rect fill="#62646a" height="30.112698" ry="1.530404" width="38" x="5" y="16.887302"/><rect fill="#ffb380" height="37" ry="2" width="25" x="11" y="6"/><g clip-path="url(#a)" fill-rule="evenodd"><path d="m43 17-38.0000001 30h38.0000001z" fill="#6f7178"/><path d="m5 17 38 30h-38z" fill="#80828a"/></g><path d="m-15.76 43.579688q-1.52 0-2.52-.44-.96-.44-1.56-1.12-.8.76-1.68 1.08-.84.32-1.88.32-3.24 0-4.92-2.36-1.68-2.36-1.68-6.92 0-4.28 1.88-6.76 1.92-2.52 5.36-2.52 1.68 0 3 .36 1.36.32 2.08.64v11.76q0 1.68.4 2.44.4.72 1.56.72 1.64 0 2.28-2.2.68-2.2.68-6.32 0-2.64-.6-4.92-.56-2.28-1.84-3.96-1.24-1.72-3.24-2.68-1.96-.96-4.76-.96-2.48 0-4.52.96-2.04.96-3.52 2.84-1.44 1.84-2.24 4.52-.8 2.68-.8 6.12 0 3.48.76 6.2.76 2.68 2.16 4.52 1.4 1.84 3.4 2.76 2.04.96 4.56.96 1.84 0 3.08-.32 1.28-.32 1.72-.48l.44 2.76q-.28.12-.84.24-.52.16-1.24.28-.72.16-1.56.24-.8.08-1.64.08-3.08 0-5.64-1.04-2.56-1-4.44-3.12-1.88-2.08-2.92-5.32-1.04-3.28-1.04-7.76 0-4.32 1.08-7.56 1.12-3.24 3.04-5.36 1.92-2.16 4.52-3.24 2.6-1.08 5.56-1.08 3.16 0 5.68 1.08 2.56 1.04 4.32 3.08 1.8 2 2.76 4.88.96 2.84.96 6.44 0 5.48-1.6 8.32-1.6 2.84-4.6 2.84zm-7.24-3.04q1.24 0 2.08-.72-.12-.56-.16-1.12-.04-.56-.04-1.12v-9.6q-.2-.08-.6-.16-.4-.08-.96-.08-1.92 0-2.84 1.56-.88 1.56-.88 4.84 0 2.92.76 4.68.76 1.72 2.64 1.72z" fill="#fcfcfc" transform="matrix(.46247767 0 0 .46247767 34.377475 2.353517)"/></svg>