<svg height="48" viewBox="0 0 12.7 12.7" width="48" xmlns="http://www.w3.org/2000/svg"><g transform="matrix(.25753251 0 0 .25753251 -.198121 -63.91945)"><rect fill="#8c989c" height="28.731474" rx="2.187092" width="44.901279" x="2.271791" y="266.66489"/><path d="m15.68144 276.15644c-3.062294 0-5.543738 2.48323-5.543738 5.54552 0 .34486.03031.68116.09056 1.0086.05607 2.98167.386249 7.6781 2.22673 10.57075 1.926759 1.7572 5.806888-2.2119 7.763364-4.52094.08104.009.163608.0124.246823.0124.937849 0 2.874383-.53597 3.272617-1.31757 1.415668-.079.821716-.0552 2.237382.0533.407856.75306 2.091271 1.26431 3.00804 1.26431.167625 0 .330359-.0172.488319-.0497 2.342556 2.42793 6.205162 6.64171 7.598221 4.55823 2.112259-3.31979 2.235822-9.7093 2.237384-11.57935 0-.009.000034-.0166 0-.0248-.000024-.20472-.0018-.37824-.0018-.37824l-.01244.002c-.205104-2.87549-2.601796-5.14421-5.529518-5.14421-1.17018 0-2.255407.36315-3.150094.98197-3.927263.78828-7.854516.66362-11.781775-.002-.894528-.61847-1.980278-.98018-3.150094-.98018zm-.522056 2.57122c.467448 0 .843458.37601.843458.84346v.8044h.802618c.467448 0 .845233.376.845233.84346 0 .46744-.377785.84346-.845233.84346h-.802618v.80438c0 .46745-.37601.84346-.843458.84346-.467449 0-.843459-.37601-.843459-.84346v-.80438h-.804391c-.467449 0-.84346-.37602-.84346-.84346 0-.46746.376011-.84346.84346-.84346h.804391v-.8044c0-.46745.37601-.84346.843459-.84346zm19.005327.483c.488189 0 .884299.3961.884299.88429s-.39611.8843-.884299.8843c-.488195 0-.884298-.39611-.884298-.8843s.396103-.88429.884298-.88429zm-12.737102.9642h1.205701c.333892 0 .601962.26807.601962.60195 0 .33391-.26807.60375-.601962.60375h-1.205701c-.333893 0-.601963-.26984-.601963-.60375 0-.33388.26807-.60195.601963-.60195zm5.383924 0h1.205703c.333892 0 .601964.26807.601964.60195 0 .33391-.268072.60375-.601964.60375h-1.205703c-.33389 0-.601962-.26984-.601962-.60375 0-.33388.268072-.60195.601962-.60195zm5.504671.64281c.488189 0 .884305.3961.884305.88429s-.396116.8843-.884305.8843c-.488174 0-.884293-.39611-.884293-.8843s.396119-.88429.884293-.88429zm3.615327 0c.48819 0 .884304.3961.884304.88429s-.396114.8843-.884304.8843c-.488172 0-.882521-.39611-.882521-.8843s.394349-.88429.882521-.88429zm-1.76682 1.607c.488189 0 .884299.39611.884299.8843s-.39611.8843-.884299.8843c-.488195 0-.884298-.39611-.884298-.8843s.396103-.8843.884298-.8843zm-13.058503 1.44719c1.087335 0 1.969251.88014 1.969251 1.96749 0 1.08733-.881916 1.96925-1.969251 1.96925-1.087337 0-1.969253-.88192-1.969253-1.96925 0-1.08735.881916-1.96749 1.969253-1.96749zm7.63374 0c1.08731 0 1.969249.88014 1.969249 1.96749 0 1.08733-.881939 1.96925-1.969249 1.96925-1.08736 0-1.969257-.88192-1.969257-1.96925 0-1.08735.881897-1.96749 1.969257-1.96749z" fill="#fff" fill-rule="evenodd"/><path d="m4.557347 257.71918-3.62148438 9.7475v4.14239c-.0000136 3.46883 2.81192528 6.28128 6.28075348 6.28127 2.8555199-.004 5.3490099-1.9332 6.0693969-4.69636.720708 2.76438 3.216229 4.6942 6.073014 4.69636 2.8557-.003 5.349481-1.93303 6.069914-4.69636.720707 2.76438 3.216228 4.6942 6.073014 4.69636 2.855563-.003 5.349298-1.9327 6.069915-4.69584.720889 2.76419 3.216365 4.69375 6.073013 4.69584 3.468827.00001 6.280769-2.81244 6.280753-6.28127v-4.14239h-.01085l-3.622006-9.7475z" fill="#88be6a"/><path d="m4.557347 257.71918-3.62148438 9.7475h48.98977338-.010848l-3.622006-9.7475z" fill="#fff" fill-opacity=".11399"/></g></svg>