<svg height="48" width="48" xmlns="http://www.w3.org/2000/svg"><rect fill="#557670" height="43" ry="1.452703" width="43" x="2" y="3"/><g fill="#fff"><path d="m7.453125 9.212183c-.8047958 0-1.453125.6483292-1.453125 1.453125v15.09375c0 .804796.6483292 1.453125 1.453125 1.453125h8.546875v-4.546875c0-.804796.648329-1.453125 1.453125-1.453125h12.546875v-10.546875c0-.8047958-.648329-1.453125-1.453125-1.453125z" fill-opacity=".486275"/><rect fill-opacity=".486772" height="20" ry="1.4527" width="26" x="16" y="21.212183"/><path d="m17.4527 21.212183h23.0946c.804796 0 1.4527.647904 1.4527 1.4527v4.451743l-26 .07143v-4.523172c0-.804797.647904-1.452701 1.4527-1.452701z"/><text font-family="sans-serif" font-size="5.705064" font-weight="bold" letter-spacing="0" transform="scale(.78179329 1.2791105)" word-spacing="0" x="16.528921" y="17.391644"><tspan x="16.528921" y="17.391644">GTK</tspan></text></g><rect fill="none" height="20" ry="1.4527" stroke="#557670" stroke-linecap="round" stroke-width="1.6" width="26" x="16" y="21.212183"/><path d="m7.453125 9.212183c-.8047958 0-1.453125.6483292-1.453125 1.453125v3.475447l24 .07143v-3.546875c0-.8047978-.648329-1.453127-1.453125-1.453127z" fill="#fff"/><text style="font-weight:bold;font-size:5.705064;font-family:sans-serif;letter-spacing:0;word-spacing:0;fill:#fff" transform="scale(.78179329 1.2791105)" x="31.147326" y="28.11338"><tspan x="31.147326" y="28.11338">GTK</tspan></text></svg>