<?xml version="1.0" encoding="UTF-8" standalone="no"?><!DOCTYPE svg PUBLIC "-//W3C//DTD SVG 1.1//EN" "http://www.w3.org/Graphics/SVG/1.1/DTD/svg11.dtd"><svg width="100%" height="100%" viewBox="0 0 267 267" version="1.1" xmlns="http://www.w3.org/2000/svg" xmlns:xlink="http://www.w3.org/1999/xlink" xml:space="preserve" xmlns:serif="http://www.serif.com/" style="fill-rule:evenodd;clip-rule:evenodd;stroke-linecap:round;stroke-linejoin:round;stroke-miterlimit:1.5;"><rect id="Artboard2" x="0.724" y="1.592" width="266.667" height="266.667" style="fill:none;"/><path d="M241.094,59.748c0,-8.219 -3.264,-16.102 -9.076,-21.913c-5.812,-5.812 -13.694,-9.077 -21.913,-9.077l-152.096,0c-8.219,0 -16.101,3.265 -21.913,9.077c-5.811,5.811 -9.076,13.694 -9.076,21.913l-0,152.095c-0,8.219 3.265,16.101 9.076,21.913c5.812,5.812 13.694,9.077 21.913,9.077l152.096,-0c8.219,-0 16.101,-3.265 21.913,-9.077c5.812,-5.812 9.076,-13.694 9.076,-21.913l0,-152.095Z" style="fill:#96c6ed;"/><clipPath id="_clip1"><path d="M241.094,59.748c0,-8.219 -3.264,-16.102 -9.076,-21.913c-5.812,-5.812 -13.694,-9.077 -21.913,-9.077l-152.096,0c-8.219,0 -16.101,3.265 -21.913,9.077c-5.811,5.811 -9.076,13.694 -9.076,21.913l-0,152.095c-0,8.219 3.265,16.101 9.076,21.913c5.812,5.812 13.694,9.077 21.913,9.077l152.096,-0c8.219,-0 16.101,-3.265 21.913,-9.077c5.812,-5.812 9.076,-13.694 9.076,-21.913l0,-152.095Z"/></clipPath><g clip-path="url(#_clip1)"><g id="grid" opacity="0.05"><g><path d="M62.699,28.758l-0,214.075" style="fill:none;stroke:#000;stroke-width:0.52px;"/><path d="M98.378,28.758l-0,214.075" style="fill:none;stroke:#000;stroke-width:0.52px;"/><path d="M27.02,28.758l-0,214.075" style="fill:none;stroke:#000;stroke-width:0.52px;"/><path d="M241.094,28.758l0,214.075" style="fill:none;stroke:#000;stroke-width:0.52px;"/><path d="M205.415,28.758l0,214.075" style="fill:none;stroke:#000;stroke-width:0.52px;"/><path d="M169.736,28.758l0,214.075" style="fill:none;stroke:#000;stroke-width:0.52px;"/><path d="M134.057,28.758l0,214.075" style="fill:none;stroke:#000;stroke-width:0.52px;"/></g><g><path d="M241.094,64.437l-214.074,0" style="fill:none;stroke:#000;stroke-width:0.52px;"/><path d="M241.094,100.116l-214.074,0" style="fill:none;stroke:#000;stroke-width:0.52px;"/><path d="M241.094,28.758l-214.074,0" style="fill:none;stroke:#000;stroke-width:0.52px;"/><path d="M241.094,242.833l-214.074,-0" style="fill:none;stroke:#000;stroke-width:0.52px;"/><path d="M241.094,207.154l-214.074,-0" style="fill:none;stroke:#000;stroke-width:0.52px;"/><path d="M241.094,171.475l-214.074,-0" style="fill:none;stroke:#000;stroke-width:0.52px;"/><path d="M241.094,135.795l-214.074,0" style="fill:none;stroke:#000;stroke-width:0.52px;"/></g></g><path id="path3032" d="M158.016,63.456c-1.895,-1.218 -4.27,-1.417 -6.34,-0.532c-0.003,0.001 -0.006,0.002 -0.009,0.004c-1.657,0.708 -2.927,2.099 -3.479,3.815c-0.553,1.716 -0.335,3.587 0.597,5.129c0.672,1.112 1.351,2.234 1.954,3.232c1.16,1.92 3.61,2.613 5.605,1.586c0.195,-0.1 0.39,-0.201 0.583,-0.3c1.836,-0.946 4.042,-0.813 5.751,0.347c0.003,0.002 0.005,0.004 0.008,0.005c0.992,0.674 2.253,0.814 3.369,0.375c1.116,-0.438 1.944,-1.399 2.212,-2.568c0.426,-1.857 0.898,-3.914 1.292,-5.63c0.193,-0.839 -0.049,-1.718 -0.643,-2.341c-0.594,-0.623 -1.461,-0.906 -2.308,-0.754c-0.313,0.056 -0.627,0.113 -0.932,0.168c-1.865,0.335 -3.788,-0.048 -5.382,-1.072c-0.725,-0.466 -1.524,-0.98 -2.278,-1.464Zm-41.402,16.149c-0.091,-0 -0.182,0.002 -0.273,0.006c-1.21,0.059 -10.14,0.492 -14.555,0.706c-1.633,0.079 -3.25,0.35 -4.819,0.807c-1.847,0.538 -4.533,1.321 -7.155,2.085c-5.102,1.486 -8.859,5.827 -9.598,11.09c-0.005,0.033 -0.009,0.066 -0.014,0.099c-0.222,1.577 -0.981,3.031 -2.149,4.114c-0.001,0.001 -0.002,0.001 -0.002,0.002c-4.508,4.18 -5.972,10.705 -3.683,16.41c0.253,0.631 0.5,1.245 0.733,1.826c1.107,2.758 2.855,5.213 5.1,7.161c0.516,0.448 1.035,0.898 1.51,1.31c1.356,1.177 2.859,2.173 4.47,2.964c2.927,1.438 7.75,3.806 10.141,4.981c0.946,0.464 1.985,0.705 3.038,0.705c0.002,0 0.003,0 0.004,0c4.133,0 7.751,2.772 8.827,6.762c0.056,0.209 0.109,0.407 0.159,0.589c0.226,0.84 0.341,1.706 0.341,2.575c-0,1.136 -0,2.866 -0,4.607c-0,3.886 1.636,7.593 4.509,10.211c0,-0 0,0 0.001,0.001c2.54,2.315 3.855,5.682 3.556,9.106c-0.002,0.018 -0.003,0.037 -0.005,0.055c-0.169,1.94 -1.347,3.648 -3.1,4.495c-0.228,0.11 -0.46,0.222 -0.692,0.334c-0.897,0.434 -1.937,0.467 -2.86,0.09c-0.923,-0.377 -1.642,-1.128 -1.979,-2.066c-0.554,-1.541 -1.202,-3.344 -1.778,-4.946c-0.988,-2.749 -3.051,-4.979 -5.714,-6.179c-0.061,-0.028 -0.123,-0.055 -0.184,-0.083c-5.261,-2.37 -11.456,-0.938 -15.142,3.5c-0.002,0.002 -0.004,0.004 -0.006,0.006c-1.336,1.609 -1.359,3.934 -0.054,5.568c1.16,1.453 2.496,3.125 3.286,4.115c0.457,0.572 1.007,1.063 1.628,1.451c2.531,1.585 9.429,5.903 11.119,6.961c0.251,0.158 0.49,0.334 0.715,0.528c0.167,0.145 0.391,0.338 0.661,0.571c5.57,4.815 6.404,13.145 1.897,18.968c-0.208,0.269 -0.398,0.514 -0.564,0.729c-0.502,0.648 -1.121,1.198 -1.823,1.621c-0.404,0.243 -0.898,0.54 -1.438,0.865c-3.511,2.113 -5.041,6.412 -3.655,10.268c0.002,0.003 0.003,0.006 0.004,0.009c0.573,1.594 1.801,2.867 3.373,3.496c1.573,0.63 3.339,0.557 4.854,-0.202c0.202,-0.1 0.397,-0.198 0.585,-0.292c1.337,-0.669 2.848,-0.91 4.326,-0.69c1.827,0.272 4.41,0.656 6.407,0.953c0.765,0.114 1.446,0.548 1.872,1.194c0.425,0.645 0.556,1.442 0.359,2.19c-0.09,0.344 -0.181,0.689 -0.267,1.016c-0.339,1.287 -0.126,2.656 0.586,3.78c0.001,0.001 0.002,0.003 0.003,0.004c2.506,3.951 7.504,5.504 11.808,3.671c0.166,-0.071 0.328,-0.14 0.485,-0.207c1.349,-0.575 2.897,-0.424 4.11,0.4c-0,-0 -0,-0 -0,-0c1.17,0.794 1.717,2.236 1.37,3.606c-0.499,1.973 -1.197,4.729 -1.564,6.181c-0.162,0.639 -0.118,1.314 0.126,1.927c0,0.001 0.001,0.002 0.001,0.003c0.227,0.57 0.778,0.943 1.39,0.943c7.529,0 55.178,0 83.366,0c11.506,0 20.833,-9.327 20.833,-20.833c0,-29.664 0,-81.283 0,-88.33c0,-0.477 -0.315,-0.897 -0.773,-1.029c-0.001,-0 -0.002,-0.001 -0.003,-0.001c-0.527,-0.152 -1.073,-0.229 -1.622,-0.229c-0.78,-0 -1.954,-0 -2.808,-0c-0.716,-0 -1.429,-0.095 -2.121,-0.282c-0,-0 -0.001,-0 -0.002,-0c-1.337,-0.362 -2.576,-1.018 -3.626,-1.921c-0.217,-0.186 -0.447,-0.384 -0.686,-0.589c-3.069,-2.636 -6.98,-4.086 -11.025,-4.086c-0,0 -0.001,0 -0.001,0c-0.464,0 -0.927,-0.051 -1.38,-0.152c-1.021,-0.228 -2.999,-0.669 -4.61,-1.029c-1.658,-0.37 -3.265,-0.942 -4.785,-1.702c-0.442,-0.222 -0.922,-0.462 -1.411,-0.707c-3.189,-1.596 -6.805,-2.13 -10.319,-1.526c-0.561,0.096 -1.117,0.192 -1.639,0.281c-1.999,0.344 -4.056,0.104 -5.922,-0.691c-0.81,-0.345 -1.713,-0.73 -2.6,-1.108c-2.578,-1.098 -3.793,-4.066 -2.725,-6.657c0.001,-0.002 0.002,-0.004 0.002,-0.006c1.127,-2.734 0.069,-5.88 -2.48,-7.378c-0.75,-0.44 -1.541,-0.904 -2.329,-1.367c-4.101,-2.409 -9.067,-2.845 -13.525,-1.19c-0.5,0.186 -0.952,0.354 -1.321,0.491c-0.66,0.245 -1.349,0.401 -2.051,0.464c-0.23,0.021 -0.491,0.044 -0.774,0.069c-4.791,0.429 -9.563,-0.995 -13.336,-3.978c-5.624,-4.446 -13.532,-10.699 -15.475,-12.235c-0.296,-0.234 -0.586,-0.476 -0.869,-0.726c-0.468,-0.414 -1.277,-1.129 -2.193,-1.937c-3.332,-2.942 -7.624,-4.566 -12.069,-4.566c-0.001,-0 -0.001,-0 -0.002,-0Z" style="fill:#fff789;"/><clipPath id="_clip2"><path d="M158.016,63.456c-1.895,-1.218 -4.27,-1.417 -6.34,-0.532c-0.003,0.001 -0.006,0.002 -0.009,0.004c-1.657,0.708 -2.927,2.099 -3.479,3.815c-0.553,1.716 -0.335,3.587 0.597,5.129c0.672,1.112 1.351,2.234 1.954,3.232c1.16,1.92 3.61,2.613 5.605,1.586c0.195,-0.1 0.39,-0.201 0.583,-0.3c1.836,-0.946 4.042,-0.813 5.751,0.347c0.003,0.002 0.005,0.004 0.008,0.005c0.992,0.674 2.253,0.814 3.369,0.375c1.116,-0.438 1.944,-1.399 2.212,-2.568c0.426,-1.857 0.898,-3.914 1.292,-5.63c0.193,-0.839 -0.049,-1.718 -0.643,-2.341c-0.594,-0.623 -1.461,-0.906 -2.308,-0.754c-0.313,0.056 -0.627,0.113 -0.932,0.168c-1.865,0.335 -3.788,-0.048 -5.382,-1.072c-0.725,-0.466 -1.524,-0.98 -2.278,-1.464Zm-41.402,16.149c-0.091,-0 -0.182,0.002 -0.273,0.006c-1.21,0.059 -10.14,0.492 -14.555,0.706c-1.633,0.079 -3.25,0.35 -4.819,0.807c-1.847,0.538 -4.533,1.321 -7.155,2.085c-5.102,1.486 -8.859,5.827 -9.598,11.09c-0.005,0.033 -0.009,0.066 -0.014,0.099c-0.222,1.577 -0.981,3.031 -2.149,4.114c-0.001,0.001 -0.002,0.001 -0.002,0.002c-4.508,4.18 -5.972,10.705 -3.683,16.41c0.253,0.631 0.5,1.245 0.733,1.826c1.107,2.758 2.855,5.213 5.1,7.161c0.516,0.448 1.035,0.898 1.51,1.31c1.356,1.177 2.859,2.173 4.47,2.964c2.927,1.438 7.75,3.806 10.141,4.981c0.946,0.464 1.985,0.705 3.038,0.705c0.002,0 0.003,0 0.004,0c4.133,0 7.751,2.772 8.827,6.762c0.056,0.209 0.109,0.407 0.159,0.589c0.226,0.84 0.341,1.706 0.341,2.575c-0,1.136 -0,2.866 -0,4.607c-0,3.886 1.636,7.593 4.509,10.211c0,-0 0,0 0.001,0.001c2.54,2.315 3.855,5.682 3.556,9.106c-0.002,0.018 -0.003,0.037 -0.005,0.055c-0.169,1.94 -1.347,3.648 -3.1,4.495c-0.228,0.11 -0.46,0.222 -0.692,0.334c-0.897,0.434 -1.937,0.467 -2.86,0.09c-0.923,-0.377 -1.642,-1.128 -1.979,-2.066c-0.554,-1.541 -1.202,-3.344 -1.778,-4.946c-0.988,-2.749 -3.051,-4.979 -5.714,-6.179c-0.061,-0.028 -0.123,-0.055 -0.184,-0.083c-5.261,-2.37 -11.456,-0.938 -15.142,3.5c-0.002,0.002 -0.004,0.004 -0.006,0.006c-1.336,1.609 -1.359,3.934 -0.054,5.568c1.16,1.453 2.496,3.125 3.286,4.115c0.457,0.572 1.007,1.063 1.628,1.451c2.531,1.585 9.429,5.903 11.119,6.961c0.251,0.158 0.49,0.334 0.715,0.528c0.167,0.145 0.391,0.338 0.661,0.571c5.57,4.815 6.404,13.145 1.897,18.968c-0.208,0.269 -0.398,0.514 -0.564,0.729c-0.502,0.648 -1.121,1.198 -1.823,1.621c-0.404,0.243 -0.898,0.54 -1.438,0.865c-3.511,2.113 -5.041,6.412 -3.655,10.268c0.002,0.003 0.003,0.006 0.004,0.009c0.573,1.594 1.801,2.867 3.373,3.496c1.573,0.63 3.339,0.557 4.854,-0.202c0.202,-0.1 0.397,-0.198 0.585,-0.292c1.337,-0.669 2.848,-0.91 4.326,-0.69c1.827,0.272 4.41,0.656 6.407,0.953c0.765,0.114 1.446,0.548 1.872,1.194c0.425,0.645 0.556,1.442 0.359,2.19c-0.09,0.344 -0.181,0.689 -0.267,1.016c-0.339,1.287 -0.126,2.656 0.586,3.78c0.001,0.001 0.002,0.003 0.003,0.004c2.506,3.951 7.504,5.504 11.808,3.671c0.166,-0.071 0.328,-0.14 0.485,-0.207c1.349,-0.575 2.897,-0.424 4.11,0.4c-0,-0 -0,-0 -0,-0c1.17,0.794 1.717,2.236 1.37,3.606c-0.499,1.973 -1.197,4.729 -1.564,6.181c-0.162,0.639 -0.118,1.314 0.126,1.927c0,0.001 0.001,0.002 0.001,0.003c0.227,0.57 0.778,0.943 1.39,0.943c7.529,0 55.178,0 83.366,0c11.506,0 20.833,-9.327 20.833,-20.833c0,-29.664 0,-81.283 0,-88.33c0,-0.477 -0.315,-0.897 -0.773,-1.029c-0.001,-0 -0.002,-0.001 -0.003,-0.001c-0.527,-0.152 -1.073,-0.229 -1.622,-0.229c-0.78,-0 -1.954,-0 -2.808,-0c-0.716,-0 -1.429,-0.095 -2.121,-0.282c-0,-0 -0.001,-0 -0.002,-0c-1.337,-0.362 -2.576,-1.018 -3.626,-1.921c-0.217,-0.186 -0.447,-0.384 -0.686,-0.589c-3.069,-2.636 -6.98,-4.086 -11.025,-4.086c-0,0 -0.001,0 -0.001,0c-0.464,0 -0.927,-0.051 -1.38,-0.152c-1.021,-0.228 -2.999,-0.669 -4.61,-1.029c-1.658,-0.37 -3.265,-0.942 -4.785,-1.702c-0.442,-0.222 -0.922,-0.462 -1.411,-0.707c-3.189,-1.596 -6.805,-2.13 -10.319,-1.526c-0.561,0.096 -1.117,0.192 -1.639,0.281c-1.999,0.344 -4.056,0.104 -5.922,-0.691c-0.81,-0.345 -1.713,-0.73 -2.6,-1.108c-2.578,-1.098 -3.793,-4.066 -2.725,-6.657c0.001,-0.002 0.002,-0.004 0.002,-0.006c1.127,-2.734 0.069,-5.88 -2.48,-7.378c-0.75,-0.44 -1.541,-0.904 -2.329,-1.367c-4.101,-2.409 -9.067,-2.845 -13.525,-1.19c-0.5,0.186 -0.952,0.354 -1.321,0.491c-0.66,0.245 -1.349,0.401 -2.051,0.464c-0.23,0.021 -0.491,0.044 -0.774,0.069c-4.791,0.429 -9.563,-0.995 -13.336,-3.978c-5.624,-4.446 -13.532,-10.699 -15.475,-12.235c-0.296,-0.234 -0.586,-0.476 -0.869,-0.726c-0.468,-0.414 -1.277,-1.129 -2.193,-1.937c-3.332,-2.942 -7.624,-4.566 -12.069,-4.566c-0.001,-0 -0.001,-0 -0.002,-0Z"/></clipPath><g clip-path="url(#_clip2)"><g id="grid1" serif:id="grid" opacity="0.12"><g><path d="M62.699,28.758l-0,214.075" style="fill:none;stroke:#000;stroke-width:0.52px;"/><path d="M98.378,28.758l-0,214.075" style="fill:none;stroke:#000;stroke-width:0.52px;"/><path d="M27.02,28.758l-0,214.075" style="fill:none;stroke:#000;stroke-width:0.52px;"/><path d="M241.094,28.758l0,214.075" style="fill:none;stroke:#000;stroke-width:0.52px;"/><path d="M205.415,28.758l0,214.075" style="fill:none;stroke:#000;stroke-width:0.52px;"/><path d="M169.736,28.758l0,214.075" style="fill:none;stroke:#000;stroke-width:0.52px;"/><path d="M134.057,28.758l0,214.075" style="fill:none;stroke:#000;stroke-width:0.52px;"/></g><g><path d="M241.094,64.437l-214.074,0" style="fill:none;stroke:#000;stroke-width:0.52px;"/><path d="M241.094,100.116l-214.074,0" style="fill:none;stroke:#000;stroke-width:0.52px;"/><path d="M241.094,28.758l-214.074,0" style="fill:none;stroke:#000;stroke-width:0.52px;"/><path d="M241.094,242.833l-214.074,-0" style="fill:none;stroke:#000;stroke-width:0.52px;"/><path d="M241.094,207.154l-214.074,-0" style="fill:none;stroke:#000;stroke-width:0.52px;"/><path d="M241.094,171.475l-214.074,-0" style="fill:none;stroke:#000;stroke-width:0.52px;"/><path d="M241.094,135.795l-214.074,0" style="fill:none;stroke:#000;stroke-width:0.52px;"/></g></g></g></g><path d="M241.094,59.748c0,-8.219 -3.264,-16.102 -9.076,-21.913c-5.812,-5.812 -13.694,-9.077 -21.913,-9.077l-152.096,0c-8.219,0 -16.101,3.265 -21.913,9.077c-5.811,5.811 -9.076,13.694 -9.076,21.913l-0,152.095c-0,8.219 3.265,16.101 9.076,21.913c5.812,5.812 13.694,9.077 21.913,9.077l152.096,-0c8.219,-0 16.101,-3.265 21.913,-9.077c5.812,-5.812 9.076,-13.694 9.076,-21.913l0,-152.095Z" style="fill:none;stroke:#6988ab;stroke-width:10.39px;"/><circle cx="69.42" cy="199.562" r="63.766" style="fill:none;"/><clipPath id="_clip3"><circle cx="69.42" cy="199.562" r="63.766"/></clipPath><g clip-path="url(#_clip3)"><path d="M284.336,16.649c-0,-8.219 -3.265,-16.101 -9.077,-21.913c-5.812,-5.812 -13.694,-9.077 -21.913,-9.077l-207.187,0c-8.219,0 -16.102,3.265 -21.913,9.077c-5.812,5.812 -9.077,13.694 -9.077,21.913l0,207.187c0,8.219 3.265,16.102 9.077,21.913c5.811,5.812 13.694,9.077 21.913,9.077l207.187,-0c8.219,-0 16.101,-3.265 21.913,-9.077c5.812,-5.811 9.077,-13.694 9.077,-21.913l-0,-207.187Z" style="fill:#8ec6ff;"/><clipPath id="_clip4"><path d="M284.336,16.649c-0,-8.219 -3.265,-16.101 -9.077,-21.913c-5.812,-5.812 -13.694,-9.077 -21.913,-9.077l-207.187,0c-8.219,0 -16.102,3.265 -21.913,9.077c-5.812,5.812 -9.077,13.694 -9.077,21.913l0,207.187c0,8.219 3.265,16.102 9.077,21.913c5.811,5.812 13.694,9.077 21.913,9.077l207.187,-0c8.219,-0 16.101,-3.265 21.913,-9.077c5.812,-5.811 9.077,-13.694 9.077,-21.913l-0,-207.187Z"/></clipPath><g clip-path="url(#_clip4)"><g id="grid2" serif:id="grid" opacity="0.05"><g><path d="M60.03,-14.341l0,269.167" style="fill:none;stroke:#000;stroke-width:0.65px;"/><path d="M104.891,-14.341l0,269.167" style="fill:none;stroke:#000;stroke-width:0.65px;"/><path d="M15.169,-14.341l0,269.167" style="fill:none;stroke:#000;stroke-width:0.65px;"/><path d="M239.475,-14.341l-0,269.167" style="fill:none;stroke:#000;stroke-width:0.65px;"/><path d="M194.614,-14.341l-0,269.167" style="fill:none;stroke:#000;stroke-width:0.65px;"/><path d="M149.752,-14.341l0,269.167" style="fill:none;stroke:#000;stroke-width:0.65px;"/></g><g><path d="M284.336,30.52l-269.167,0" style="fill:none;stroke:#000;stroke-width:0.65px;"/><path d="M284.336,75.381l-269.167,0" style="fill:none;stroke:#000;stroke-width:0.65px;"/><path d="M284.336,254.826l-269.167,-0" style="fill:none;stroke:#000;stroke-width:0.65px;"/><path d="M284.336,209.965l-269.167,-0" style="fill:none;stroke:#000;stroke-width:0.65px;"/><path d="M284.336,165.104l-269.167,-0" style="fill:none;stroke:#000;stroke-width:0.65px;"/><path d="M284.336,120.243l-269.167,-0" style="fill:none;stroke:#000;stroke-width:0.65px;"/></g></g><path id="path30321" serif:id="path3032" d="M179.569,29.089c-2.189,-1.407 -4.934,-1.638 -7.328,-0.615c-0.002,0.001 -0.003,0.001 -0.005,0.002c-2.17,0.927 -3.832,2.749 -4.555,4.996c-0.724,2.246 -0.438,4.695 0.782,6.715c0.79,1.307 1.581,2.614 2.287,3.783c1.447,2.393 4.499,3.257 6.985,1.977c0.294,-0.152 0.589,-0.304 0.879,-0.453c2.243,-1.155 4.938,-0.992 7.026,0.424c0.003,0.003 0.006,0.005 0.01,0.007c1.27,0.862 2.883,1.042 4.312,0.48c1.428,-0.561 2.488,-1.791 2.831,-3.287c0.396,-1.724 0.821,-3.578 1.214,-5.291c0.328,-1.426 -0.083,-2.92 -1.092,-3.979c-1.009,-1.058 -2.483,-1.539 -3.922,-1.28c-0.001,-0 -0.002,-0 -0.003,0c-2.012,0.362 -4.087,-0.051 -5.807,-1.157c-1.114,-0.716 -2.424,-1.558 -3.614,-2.322Zm-51.416,20.502c-0.336,0 -0.673,0.008 -1.009,0.025c-2.494,0.121 -13.598,0.659 -18.6,0.901c-1.633,0.08 -3.25,0.35 -4.819,0.808c-2.382,0.693 -6.225,1.813 -9.92,2.89c-6.223,1.813 -10.805,7.106 -11.706,13.525c-0.001,0.002 -0.001,0.005 -0.001,0.007c-0.319,2.271 -1.412,4.363 -3.093,5.922c-0.158,0.146 -0.321,0.297 -0.487,0.451c-5.178,4.802 -6.86,12.298 -4.231,18.852c0.553,1.376 1.093,2.722 1.576,3.925c1.233,3.073 3.18,5.808 5.681,7.978c1.002,0.869 2.045,1.774 2.914,2.528c1.356,1.177 2.859,2.173 4.47,2.964c3.75,1.842 10.828,5.318 13.807,6.78c0.905,0.445 1.901,0.676 2.909,0.676c0.001,0 0.001,0 0.002,0c5.481,0 10.28,3.677 11.707,8.969c0.052,0.192 0.101,0.374 0.146,0.542c0.237,0.878 0.357,1.783 0.357,2.692c-0,1.613 -0,4.411 -0,7.062c-0,4.254 1.791,8.312 4.935,11.178c0.489,0.445 0.983,0.895 1.465,1.335c2.734,2.492 4.149,6.116 3.827,9.801c-0,0.01 -0.001,0.021 -0.002,0.032c-0.268,3.072 -2.133,5.776 -4.91,7.118c-0.001,0 -0.001,0.001 -0.002,0.001c-1.115,0.539 -2.406,0.579 -3.552,0.111c-1.146,-0.468 -2.039,-1.4 -2.458,-2.565c-0.742,-2.065 -1.621,-4.511 -2.383,-6.631c-1.161,-3.23 -3.584,-5.85 -6.713,-7.259c-0.642,-0.29 -1.317,-0.594 -2.005,-0.904c-5.77,-2.599 -12.564,-1.028 -16.607,3.838c-0.002,0.002 -0.003,0.003 -0.004,0.004c-2.266,2.727 -2.304,6.671 -0.091,9.442c1.289,1.614 2.594,3.249 3.354,4.199c0.439,0.55 0.968,1.022 1.564,1.395c2.971,1.86 12.377,7.749 14.363,8.992c0.247,0.155 0.481,0.328 0.701,0.518c0.156,0.135 0.364,0.314 0.613,0.53c7.179,6.204 8.253,16.939 2.445,24.442c-0.267,0.346 -0.505,0.653 -0.706,0.912c-0.467,0.604 -1.042,1.116 -1.696,1.51c-0.558,0.335 -1.31,0.788 -2.151,1.294c-4.417,2.658 -6.342,8.065 -4.598,12.917c0.001,0.002 0.002,0.004 0.003,0.007c0.72,2.004 2.264,3.604 4.241,4.396c1.977,0.792 4.199,0.699 6.104,-0.254c0.502,-0.251 0.976,-0.489 1.4,-0.701c1.248,-0.624 2.658,-0.849 4.039,-0.644c2.288,0.341 5.978,0.89 8.769,1.305c0.967,0.144 1.828,0.693 2.366,1.51c0.539,0.816 0.704,1.824 0.455,2.77c-0.113,0.43 -0.226,0.86 -0.333,1.269c-0.424,1.609 -0.158,3.322 0.733,4.727c0.001,0.002 0.002,0.004 0.003,0.005c3.156,4.974 9.449,6.93 14.868,4.622c0.202,-0.086 0.398,-0.17 0.588,-0.251c1.701,-0.725 3.654,-0.535 5.183,0.504c0.001,0.001 0.003,0.002 0.004,0.003c1.464,0.994 2.15,2.798 1.715,4.514c-0.627,2.478 -1.504,5.945 -1.968,7.776c-0.205,0.809 -0.149,1.663 0.16,2.439c0,0.001 0.001,0.002 0.001,0.003c0.283,0.712 0.972,1.179 1.738,1.179c9.94,-0 75.797,-0 110.189,-0c11.505,-0 20.833,-9.327 20.833,-20.833c-0,-36.042 -0,-107.091 -0,-116.418c-0,-0.603 -0.399,-1.134 -0.979,-1.301c-0.001,-0 -0.002,-0 -0.003,-0.001c-0.659,-0.19 -1.342,-0.287 -2.029,-0.287c-1.107,0 -2.85,0 -3.929,0c-0.639,0 -1.276,-0.084 -1.893,-0.251c-0,-0 -0.001,-0 -0.001,-0c-1.932,-0.523 -3.723,-1.471 -5.241,-2.775c-0.357,-0.307 -0.739,-0.635 -1.131,-0.972c-3.491,-3 -7.942,-4.649 -12.545,-4.649c-0.001,-0 -0.001,-0 -0.002,-0c-1.081,-0 -2.158,-0.119 -3.213,-0.355c-1.544,-0.344 -3.912,-0.873 -5.709,-1.274c-1.658,-0.37 -3.265,-0.942 -4.785,-1.702c-0.733,-0.367 -1.583,-0.792 -2.455,-1.229c-3.95,-1.977 -8.429,-2.639 -12.782,-1.891c-0.996,0.172 -1.982,0.341 -2.857,0.491c-2.06,0.355 -4.178,0.107 -6.101,-0.712c-1.142,-0.487 -2.493,-1.062 -3.82,-1.628c-3.297,-1.404 -4.85,-5.199 -3.484,-8.511c0.001,-0.004 0.003,-0.007 0.004,-0.011c1.393,-3.378 0.085,-7.267 -3.066,-9.118c-1.321,-0.776 -2.751,-1.615 -4.131,-2.426c-4.455,-2.617 -9.85,-3.091 -14.693,-1.292c-0.55,0.204 -1.078,0.4 -1.561,0.58c-1.695,0.629 -3.468,1.03 -5.269,1.191c-0.226,0.021 -0.46,0.042 -0.701,0.063c-5.309,0.475 -10.597,-1.102 -14.778,-4.408c-7.21,-5.7 -18.126,-14.331 -20.448,-16.168c-0.296,-0.234 -0.586,-0.476 -0.869,-0.726c-0.656,-0.579 -1.995,-1.762 -3.46,-3.056c-3.807,-3.361 -8.711,-5.217 -13.79,-5.217c-0.174,0 -0.33,0 -0.462,0Z" style="fill:#fffc6e;"/><clipPath id="_clip5"><path d="M179.569,29.089c-2.189,-1.407 -4.934,-1.638 -7.328,-0.615c-0.002,0.001 -0.003,0.001 -0.005,0.002c-2.17,0.927 -3.832,2.749 -4.555,4.996c-0.724,2.246 -0.438,4.695 0.782,6.715c0.79,1.307 1.581,2.614 2.287,3.783c1.447,2.393 4.499,3.257 6.985,1.977c0.294,-0.152 0.589,-0.304 0.879,-0.453c2.243,-1.155 4.938,-0.992 7.026,0.424c0.003,0.003 0.006,0.005 0.01,0.007c1.27,0.862 2.883,1.042 4.312,0.48c1.428,-0.561 2.488,-1.791 2.831,-3.287c0.396,-1.724 0.821,-3.578 1.214,-5.291c0.328,-1.426 -0.083,-2.92 -1.092,-3.979c-1.009,-1.058 -2.483,-1.539 -3.922,-1.28c-0.001,-0 -0.002,-0 -0.003,0c-2.012,0.362 -4.087,-0.051 -5.807,-1.157c-1.114,-0.716 -2.424,-1.558 -3.614,-2.322Zm-51.416,20.502c-0.336,0 -0.673,0.008 -1.009,0.025c-2.494,0.121 -13.598,0.659 -18.6,0.901c-1.633,0.08 -3.25,0.35 -4.819,0.808c-2.382,0.693 -6.225,1.813 -9.92,2.89c-6.223,1.813 -10.805,7.106 -11.706,13.525c-0.001,0.002 -0.001,0.005 -0.001,0.007c-0.319,2.271 -1.412,4.363 -3.093,5.922c-0.158,0.146 -0.321,0.297 -0.487,0.451c-5.178,4.802 -6.86,12.298 -4.231,18.852c0.553,1.376 1.093,2.722 1.576,3.925c1.233,3.073 3.18,5.808 5.681,7.978c1.002,0.869 2.045,1.774 2.914,2.528c1.356,1.177 2.859,2.173 4.47,2.964c3.75,1.842 10.828,5.318 13.807,6.78c0.905,0.445 1.901,0.676 2.909,0.676c0.001,0 0.001,0 0.002,0c5.481,0 10.28,3.677 11.707,8.969c0.052,0.192 0.101,0.374 0.146,0.542c0.237,0.878 0.357,1.783 0.357,2.692c-0,1.613 -0,4.411 -0,7.062c-0,4.254 1.791,8.312 4.935,11.178c0.489,0.445 0.983,0.895 1.465,1.335c2.734,2.492 4.149,6.116 3.827,9.801c-0,0.01 -0.001,0.021 -0.002,0.032c-0.268,3.072 -2.133,5.776 -4.91,7.118c-0.001,0 -0.001,0.001 -0.002,0.001c-1.115,0.539 -2.406,0.579 -3.552,0.111c-1.146,-0.468 -2.039,-1.4 -2.458,-2.565c-0.742,-2.065 -1.621,-4.511 -2.383,-6.631c-1.161,-3.23 -3.584,-5.85 -6.713,-7.259c-0.642,-0.29 -1.317,-0.594 -2.005,-0.904c-5.77,-2.599 -12.564,-1.028 -16.607,3.838c-0.002,0.002 -0.003,0.003 -0.004,0.004c-2.266,2.727 -2.304,6.671 -0.091,9.442c1.289,1.614 2.594,3.249 3.354,4.199c0.439,0.55 0.968,1.022 1.564,1.395c2.971,1.86 12.377,7.749 14.363,8.992c0.247,0.155 0.481,0.328 0.701,0.518c0.156,0.135 0.364,0.314 0.613,0.53c7.179,6.204 8.253,16.939 2.445,24.442c-0.267,0.346 -0.505,0.653 -0.706,0.912c-0.467,0.604 -1.042,1.116 -1.696,1.51c-0.558,0.335 -1.31,0.788 -2.151,1.294c-4.417,2.658 -6.342,8.065 -4.598,12.917c0.001,0.002 0.002,0.004 0.003,0.007c0.72,2.004 2.264,3.604 4.241,4.396c1.977,0.792 4.199,0.699 6.104,-0.254c0.502,-0.251 0.976,-0.489 1.4,-0.701c1.248,-0.624 2.658,-0.849 4.039,-0.644c2.288,0.341 5.978,0.89 8.769,1.305c0.967,0.144 1.828,0.693 2.366,1.51c0.539,0.816 0.704,1.824 0.455,2.77c-0.113,0.43 -0.226,0.86 -0.333,1.269c-0.424,1.609 -0.158,3.322 0.733,4.727c0.001,0.002 0.002,0.004 0.003,0.005c3.156,4.974 9.449,6.93 14.868,4.622c0.202,-0.086 0.398,-0.17 0.588,-0.251c1.701,-0.725 3.654,-0.535 5.183,0.504c0.001,0.001 0.003,0.002 0.004,0.003c1.464,0.994 2.15,2.798 1.715,4.514c-0.627,2.478 -1.504,5.945 -1.968,7.776c-0.205,0.809 -0.149,1.663 0.16,2.439c0,0.001 0.001,0.002 0.001,0.003c0.283,0.712 0.972,1.179 1.738,1.179c9.94,-0 75.797,-0 110.189,-0c11.505,-0 20.833,-9.327 20.833,-20.833c-0,-36.042 -0,-107.091 -0,-116.418c-0,-0.603 -0.399,-1.134 -0.979,-1.301c-0.001,-0 -0.002,-0 -0.003,-0.001c-0.659,-0.19 -1.342,-0.287 -2.029,-0.287c-1.107,0 -2.85,0 -3.929,0c-0.639,0 -1.276,-0.084 -1.893,-0.251c-0,-0 -0.001,-0 -0.001,-0c-1.932,-0.523 -3.723,-1.471 -5.241,-2.775c-0.357,-0.307 -0.739,-0.635 -1.131,-0.972c-3.491,-3 -7.942,-4.649 -12.545,-4.649c-0.001,-0 -0.001,-0 -0.002,-0c-1.081,-0 -2.158,-0.119 -3.213,-0.355c-1.544,-0.344 -3.912,-0.873 -5.709,-1.274c-1.658,-0.37 -3.265,-0.942 -4.785,-1.702c-0.733,-0.367 -1.583,-0.792 -2.455,-1.229c-3.95,-1.977 -8.429,-2.639 -12.782,-1.891c-0.996,0.172 -1.982,0.341 -2.857,0.491c-2.06,0.355 -4.178,0.107 -6.101,-0.712c-1.142,-0.487 -2.493,-1.062 -3.82,-1.628c-3.297,-1.404 -4.85,-5.199 -3.484,-8.511c0.001,-0.004 0.003,-0.007 0.004,-0.011c1.393,-3.378 0.085,-7.267 -3.066,-9.118c-1.321,-0.776 -2.751,-1.615 -4.131,-2.426c-4.455,-2.617 -9.85,-3.091 -14.693,-1.292c-0.55,0.204 -1.078,0.4 -1.561,0.58c-1.695,0.629 -3.468,1.03 -5.269,1.191c-0.226,0.021 -0.46,0.042 -0.701,0.063c-5.309,0.475 -10.597,-1.102 -14.778,-4.408c-7.21,-5.7 -18.126,-14.331 -20.448,-16.168c-0.296,-0.234 -0.586,-0.476 -0.869,-0.726c-0.656,-0.579 -1.995,-1.762 -3.46,-3.056c-3.807,-3.361 -8.711,-5.217 -13.79,-5.217c-0.174,0 -0.33,0 -0.462,0Z"/></clipPath><g clip-path="url(#_clip5)"><g id="grid3" serif:id="grid" opacity="0.12"><g><path d="M60.03,-14.341l0,269.167" style="fill:none;stroke:#000;stroke-width:0.65px;"/><path d="M104.891,-14.341l0,269.167" style="fill:none;stroke:#000;stroke-width:0.65px;"/><path d="M15.169,-14.341l0,269.167" style="fill:none;stroke:#000;stroke-width:0.65px;"/><path d="M239.475,-14.341l-0,269.167" style="fill:none;stroke:#000;stroke-width:0.65px;"/><path d="M194.614,-14.341l-0,269.167" style="fill:none;stroke:#000;stroke-width:0.65px;"/><path d="M149.752,-14.341l0,269.167" style="fill:none;stroke:#000;stroke-width:0.65px;"/></g><g><path d="M284.336,30.52l-269.167,0" style="fill:none;stroke:#000;stroke-width:0.65px;"/><path d="M284.336,75.381l-269.167,0" style="fill:none;stroke:#000;stroke-width:0.65px;"/><path d="M284.336,254.826l-269.167,-0" style="fill:none;stroke:#000;stroke-width:0.65px;"/><path d="M284.336,209.965l-269.167,-0" style="fill:none;stroke:#000;stroke-width:0.65px;"/><path d="M284.336,165.104l-269.167,-0" style="fill:none;stroke:#000;stroke-width:0.65px;"/><path d="M284.336,120.243l-269.167,-0" style="fill:none;stroke:#000;stroke-width:0.65px;"/></g></g></g></g><path d="M284.336,16.649c-0,-8.219 -3.265,-16.101 -9.077,-21.913c-5.812,-5.812 -13.694,-9.077 -21.913,-9.077l-207.187,0c-8.219,0 -16.102,3.265 -21.913,9.077c-5.812,5.812 -9.077,13.694 -9.077,21.913l0,207.187c0,8.219 3.265,16.102 9.077,21.913c5.811,5.812 13.694,9.077 21.913,9.077l207.187,-0c8.219,-0 16.101,-3.265 21.913,-9.077c5.812,-5.811 9.077,-13.694 9.077,-21.913l-0,-207.187Z" style="fill:none;stroke:#6488b9;stroke-width:13.06px;"/><circle cx="69.42" cy="199.562" r="63.766" style="fill:#fff;fill-opacity:0.4;"/><clipPath id="_clip6"><circle cx="69.42" cy="199.562" r="63.766"/></clipPath><g clip-path="url(#_clip6)"><path d="M69.42,146.639l10.412,42.511l42.511,10.412l-42.511,10.411l-10.412,42.512l-10.411,-42.512l-42.512,-10.411l42.512,-10.412l10.411,-42.511Z" style="fill:#536171;"/><clipPath id="_clip7"><path d="M69.42,146.639l10.412,42.511l42.511,10.412l-42.511,10.411l-10.412,42.512l-10.411,-42.512l-42.512,-10.411l42.512,-10.412l10.411,-42.511Z"/></clipPath><g clip-path="url(#_clip7)"><g opacity="0.5"><path d="M69.42,199.562l0,-52.923l-52.923,52.923l52.923,-0Z" style="fill:#fff;fill-opacity:0.18;"/><path d="M69.42,252.485l0,-52.923l-52.923,52.923l52.923,-0Z" style="fill:#fff;fill-opacity:0.18;"/><path d="M122.343,199.562l0,-52.923l-52.923,52.923l52.923,-0Z" style="fill:#fff;fill-opacity:0.18;"/></g></g></g><path d="M69.42,135.795c35.194,0 63.767,28.573 63.767,63.767c-0,35.194 -28.573,63.766 -63.767,63.766c-35.194,0 -63.766,-28.572 -63.766,-63.766c-0,-35.194 28.572,-63.767 63.766,-63.767Zm0,4.167c32.894,0 59.6,26.706 59.6,59.6c-0,32.894 -26.706,59.6 -59.6,59.6c-32.894,-0 -59.6,-26.706 -59.6,-59.6c0,-32.894 26.706,-59.6 59.6,-59.6Z" style="fill:#536171;"/><clipPath id="_clip8"><path d="M69.42,135.795c35.194,0 63.767,28.573 63.767,63.767c-0,35.194 -28.573,63.766 -63.767,63.766c-35.194,0 -63.766,-28.572 -63.766,-63.766c-0,-35.194 28.572,-63.767 63.766,-63.767Zm0,4.167c32.894,0 59.6,26.706 59.6,59.6c-0,32.894 -26.706,59.6 -59.6,59.6c-32.894,-0 -59.6,-26.706 -59.6,-59.6c0,-32.894 26.706,-59.6 59.6,-59.6Z"/></clipPath><g clip-path="url(#_clip8)"><g><path d="M5.157,135.34l0,128.968l129.051,-128.968l-129.051,0Z" style="fill:#fff;fill-opacity:0.18;"/><path d="M134.208,264.308l0,-128.968l-129.051,128.968l129.051,0Z" style="fill:#fff;fill-opacity:0.18;"/></g></g></g></svg>