<svg height="48" width="48" xmlns="http://www.w3.org/2000/svg" xmlns:xlink="http://www.w3.org/1999/xlink"><clipPath id="a"><rect height="43" ry="1.452703" width="43" x="2" y="3"/></clipPath><rect fill="#5dc4f1" height="43" ry="1.452703" width="43" x="2" y="3"/><g clip-path="url(#a)" fill-rule="evenodd"><path d="m16 32 29-29v43h-19z" fill="#d59f56"/><path d="m23 3 22 21v-21z" fill="#93d950"/><path d="m2 46 14-14 10 14" fill="#de79b9"/></g><path d="m22 10c-.554 0-.95907.447514-1 1l-.171875 2.330078a11.5 11.5 0 0 0 -5.666016 3.269531l-2.103515-1.015625c-.479778-.277-1.088236-.112591-1.365235.367188l-1.5 2.597656c-.2770004.479779-.09277 1.055499.365235 1.367188l1.923828 1.308593a11.5 11.5 0 0 0 -.482422 3.275391 11.5 11.5 0 0 0 .484375 3.273438l-1.925781 1.310546c-.479779.277-.6422355.88741-.365235 1.367188l1.5 2.597656c.277.479779.866303.607985 1.365235.367188l2.097656-1.011719a11.5 11.5 0 0 0 5.671875 3.267578l.171875 2.328125c0 .554.446 1 1 1h3c.554 0 .95907-.447514 1-1l.171875-2.330078a11.5 11.5 0 0 0 5.666016-3.269531l2.103515 1.015625c.479778.277 1.088236.112591 1.365235-.367188l1.5-2.597656c.277001-.479779.09277-1.055499-.365235-1.367188l-1.923828-1.308593a11.5 11.5 0 0 0 .482422-3.275391 11.5 11.5 0 0 0 -.484375-3.273438l1.925781-1.310546c.479778-.277.642236-.88741.365235-1.367188l-1.5-2.597656c-.277-.479779-.866303-.607985-1.365235-.367188l-2.097656 1.011719a11.5 11.5 0 0 0 -5.671875-3.267578l-.171875-2.328125c0-.554-.446-1-1-1zm-5.658203 9.640625h1.902344v3.951172h.613281l1.896484-3.951172h2.328125l-2.648437 4.439453 2.86914 5.279297h-2.308593l-1.921875-4.039063h-.828125v4.039063h-1.902344zm6.908203 0h1.996094l1.607422 7.236328.07422.373047h.03906l.07422-.353516 1.621093-7.255859h1.996094l-2.716797 9.71875h-1.974609z" fill="#fff"/></svg>