<?xml version="1.0" encoding="UTF-8" standalone="no"?>
<svg
   xmlns:dc="http://purl.org/dc/elements/1.1/"
   xmlns:cc="http://creativecommons.org/ns#"
   xmlns:rdf="http://www.w3.org/1999/02/22-rdf-syntax-ns#"
   xmlns:svg="http://www.w3.org/2000/svg"
   xmlns="http://www.w3.org/2000/svg"
   xmlns:sodipodi="http://sodipodi.sourceforge.net/DTD/sodipodi-0.dtd"
   xmlns:inkscape="http://www.inkscape.org/namespaces/inkscape"
   height="48"
   width="48"
   version="1.1"
   id="svg6"
   sodipodi:docname="libinput-gestures.svg"
   inkscape:version="0.92.4 5da689c313, 2019-01-14">
  <metadata
     id="metadata12">
    <rdf:RDF>
      <cc:Work
         rdf:about="">
        <dc:format>image/svg+xml</dc:format>
        <dc:type
           rdf:resource="http://purl.org/dc/dcmitype/StillImage" />
        <dc:title></dc:title>
      </cc:Work>
    </rdf:RDF>
  </metadata>
  <defs
     id="defs10" />
  <sodipodi:namedview
     pagecolor="#ffffff"
     bordercolor="#666666"
     borderopacity="1"
     objecttolerance="10"
     gridtolerance="10"
     guidetolerance="10"
     inkscape:pageopacity="0"
     inkscape:pageshadow="2"
     inkscape:window-width="1920"
     inkscape:window-height="1031"
     id="namedview8"
     showgrid="true"
     inkscape:zoom="13.906433"
     inkscape:cx="46.965533"
     inkscape:cy="17.297072"
     inkscape:window-x="0"
     inkscape:window-y="26"
     inkscape:window-maximized="1"
     inkscape:current-layer="svg6">
    <inkscape:grid
       type="xygrid"
       id="grid824" />
  </sodipodi:namedview>
  <path
     d="M 46.499999,24.385282 A 22.696228,22.696232 0 0 1 23.803771,47.081514 22.696228,22.696232 0 0 1 1.1075423,24.385282 22.696228,22.696232 0 0 1 23.803771,1.6890527 22.696228,22.696232 0 0 1 46.499999,24.385282 Z"
     id="path2"
     inkscape:connector-curvature="0"
     style="opacity:0.98999999;fill:#70939f;stroke-width:1.15035486;fill-opacity:1" />
  <path
     style="opacity:1;fill:#ffffff;fill-opacity:1;stroke:none;stroke-width:0.46127412;stroke-linecap:square;stroke-linejoin:bevel;stroke-miterlimit:4;stroke-dasharray:none;stroke-opacity:1"
     d="m 11.349373,13.935243 c -1.022186,0 -1.8450978,0.822913 -1.8450978,1.845096 v 18.450965 c 0,1.022183 0.8229118,1.845097 1.8450978,1.845097 h 6.624325 l -2.527274,-2.342047 c -0.680519,-0.630641 -0.721771,-1.71852 -0.09118,-2.398986 l 0.680018,-0.733714 c 0.630475,-0.680337 1.718324,-0.721611 2.398628,-0.09118 l 4.72806,4.381383 V 18.165992 c 0,-0.92751 0.769837,-1.697345 1.697345,-1.697345 h 0.84903 c 0.927509,0 1.697346,0.769835 1.697346,1.697345 V 23 c 0.277533,-0.198063 0.597383,-0.340189 0.959305,-0.340189 h 0.480016 c 0.927508,0 1.697345,0.769835 1.697345,1.697344 v 0.118202 c 0.303641,-0.280524 0.700717,-0.462356 1.140209,-0.462356 h 0.299106 c 0.927509,0 1.697345,0.769836 1.697345,1.697344 v 1.345984 c 0.276885,-0.19638 0.595437,-0.337306 0.955705,-0.337306 h 0.114597 c 0.927509,0 1.697345,0.769835 1.697345,1.697345 v 7.650663 c 0.933003,-0.09383 1.656622,-0.877188 1.656622,-1.835727 V 15.780339 c 0,-1.022183 -0.822911,-1.845096 -1.845098,-1.845096 z m 13.509926,3.271442 c -0.531536,0 -0.959306,0.427771 -0.959306,0.959307 v 17.739233 c -0.05508,0.178736 -0.102015,0.36094 -0.140544,0.546322 l -5.827193,-5.399791 c -0.389868,-0.361293 -0.99442,-0.338334 -1.355712,0.05153 l -0.680019,0.733715 c -0.361293,0.389867 -0.338331,0.99478 0.05153,1.356073 l 9.380084,8.692495 c 1.099961,1.140299 2.642706,1.850862 4.352193,1.850862 3.340166,10e-7 6.047735,-2.70793 6.047735,-6.048097 0,-0.165546 -0.0064,-0.329358 -0.01948,-0.491545 v -8.780424 c 0,-0.531536 -0.427769,-0.959306 -0.959306,-0.959306 h -0.114597 c -0.531537,0 -0.959665,0.42777 -0.959665,0.959306 v 3.876864 c -0.01958,0.185748 -0.173956,0.3301 -0.365059,0.3301 -0.204434,0 -0.369019,-0.164583 -0.369019,-0.369019 v -1.660588 -4.88338 c 0,-0.531534 -0.42777,-0.959305 -0.959306,-0.959305 h -0.299107 c -0.531532,0 -0.959666,0.427771 -0.959666,0.959305 v 5.753314 c -0.02028,0.236555 -0.215333,0.421634 -0.457308,0.421634 -0.255547,0 -0.461275,-0.205728 -0.461275,-0.461275 v -0.830293 -6.23657 c 0,-0.531535 -0.427774,-0.959306 -0.959306,-0.959306 h -0.480015 c -0.531537,0 -0.959306,0.427771 -0.959306,0.959306 v 6.23657 0.230276 c 0,0.179055 -0.144196,0.323253 -0.323252,0.323253 h -0.09154 c -0.17905,0 -0.323252,-0.144198 -0.323252,-0.323253 V 30.595527 18.165992 c 10e-7,-0.531536 -0.427768,-0.959307 -0.959305,-0.959307 z"
     id="rect849"
     inkscape:connector-curvature="0" />
</svg>
