<svg height="48" width="48" xmlns="http://www.w3.org/2000/svg"><rect fill="#d8c178" height="42.5" ry="2.5" width="32.5" x="7.5" y="3"/><path d="m28.171875 21.302735c-.154437 0-.269439.09402-.34375.189453-.07431.09543-.127611.207994-.175781.337891-.09634.259794-.16571.593008-.210938.953125-.09046.720234-.09233 1.53176.111328 2.0625.09111.237425.197538.431728.417969.503906.110216.03609.233152.01995.332031-.02344.09888-.04339.183073-.108853.265625-.191406.209761-.20976.268533-.516521.314453-.882813s.05155-.791582.02344-1.203125c-.02811-.411542-.089-.806887-.183596-1.117187-.0473-.155149-.100078-.289203-.177734-.402344-.07766-.11314-.201613-.226562-.373047-.226562zm1.789063 4.509766c-.271516-.0061-.552392.000461-.835938.01758-1.134186.06847-2.314405.322276-3.175781.761718-2.51224 1.281649-3.881794 3.482343-4.011719 5.650391s.997466 4.300368 3.384766 5.384765a.22859008.22859008 0 0 0 .08008.02148c1.971509.878308 3.235564.883128 5.240234-.02734 2.117049-.961515 3.429688-2.613941 3.429688-4.427734 0-1.647193-.682857-3.025214-1.763672-3.876953-1.080815-.851742-2.558785-1.172819-4.111328-.744141-1.611393.444925-2.608934 1.415119-2.984375 2.919922-.198197.794391.157499 1.685676.691406 2.341797.266953.32806.582408.599947.923828.765625.34142.165677.720327.224497 1.070313.08789.174172-.06798.308121-.121727.419921-.197265.0559-.03777.11071-.08307.152344-.160157.04163-.07709.04867-.192269.01758-.273437-.06218-.162336-.173636-.225946-.316406-.31836-.14277-.09241-.331049-.195462-.578125-.326171-.649431-.343564-.938472-.80672-.945312-1.300782-.0068-.494061.282465-1.058136.933593-1.570312.894779-.703832 1.848426-.900089 2.6875-.675781.839074.224307 1.579148.874163 2.023438 1.9375.32894.78726.392258 1.41716.189453 2.03125-.202806.614089-.689898 1.231906-1.521484 1.93164-.956369.80473-1.518945.986328-3.054688.986328-.848897 0-1.350115-.04359-1.769531-.21289-.419417-.169295-.789426-.474971-1.363281-1.048828-.546107-.546107-.855468-.928558-1.03125-1.330078-.175783-.401522-.22945-.843472-.228516-1.539063.0055-3.610671 3.801625-6.300275 7.423828-5.236328.376348.110545.706488.160918.980469.162109.273981.0012.49442-.03512.666015-.169921.0858-.0674.15755-.174604.171875-.292969.01433-.118366-.02435-.230262-.08398-.326172-.119281-.191819-.327352-.351867-.640633-.51953-.519461-.278007-1.255766-.40748-2.070312-.425781zm-10.94336.771484c-.218408 0-.404054.02783-.541016.173828-.06848.073-.107251.177626-.107421.273438-.000171.09581.02762.181893.06836.261718.162941.319303.535419.627036 1.105469.980469.591322.36662 1.118588.598149 1.537109.675781.209261.03882.396901.04724.56836-.02539.171458-.07263.296874-.269111.296874-.46289 0-.154256-.06978-.236684-.142578-.324219-.07279-.08754-.165753-.174106-.27539-.265625-.219278-.18304-.507394-.380876-.814454-.56836-.307061-.187484-.632237-.36304-.925782-.494141-.293544-.1311-.537731-.224609-.769531-.224609zm18.441406 0c-.245851.0012-.484837.119054-.789062.277344-.304226.15829-.645486.368336-.970703.591797-.325217.22346-.63237.4585-.865235.669921-.116432.105711-.215289.204735-.291015.300781-.07573.09605-.146485.178703-.146485.337891 0 .165472.01115.324027.134766.458984.123619.134957.324373.152833.496094.113282.343441-.0791.785339-.335131 1.529297-.794922.622374-.384646 1.073093-.77183 1.302734-1.115234.114821-.171702.202166-.352307.125-.558594-.03858-.103143-.126633-.185067-.220703-.226563-.09407-.0415-.194727-.05526-.304688-.05469zm-14.378906 10.662109c-.07128-.0014-.132541.01352-.193359.0332-.121636.03937-.244963.106269-.382813.191406-.275699.170275-.598947.420574-.914062.697266-.315116.276692-.620869.576935-.853516.851562-.116323.137316-.213248.267669-.287109.390626-.07386.122955-.132813.233353-.132813.382812 0 .09733.01083.187914.04687.275391.03606.08748.105559.172514.197266.21875.183414.09247.367965.0379.546875-.04883.35782-.173463.795829-.552496 1.357422-1.138671.318206-.332135.576848-.664656.74414-.947266.08365-.141305.145944-.267769.179688-.392578.03374-.124809.05462-.287172-.07617-.417969-.06919-.06919-.161146-.09428-.232422-.0957zm9.419922.753906c-.07471.0038-.164503.0356-.226562.09766-.13162.131613-.115457.277074-.0957.408203.01975.131128.0661.273984.13086.433593.129518.319219.33809.702063.603515 1.091797.488582.717402.860186 1.166909 1.199219 1.367188.08476.05007.172023.08821.275391.09375.103367.0055.223676-.03765.298828-.115235.150304-.155177.161196-.348118.154297-.58789-.0079-.272855-.149105-.543515-.337891-.853516-.188785-.31-.437188-.642587-.695312-.943359-.258125-.300773-.523503-.568568-.761719-.751953-.119108-.09169-.228654-.163407-.347656-.207032-.0595-.02181-.122557-.03701-.197266-.0332z" fill="#fff"/><path d="m10 3h13.75v42.5h-13.75c-1.385 0-2.5-1.115-2.5-2.5v-37.5c0-1.385 1.115-2.5 2.5-2.5z" fill="#cdb053"/><path d="m29.991433 13.358366a7.5 7.5 0 0 1 -7.836122 7.133709 7.5 7.5 0 0 1 -7.148003-7.823085 7.5 7.5 0 0 1 7.810023-7.1622737 7.5 7.5 0 0 1 7.17652 7.7969337" fill="#fff"/><text style="font-size:12.563906;font-family:Noto Sans Gurmukhi;letter-spacing:0;word-spacing:0;fill:#cdb053;stroke-width:.314098" x="17.800398" y="17.722334"><tspan fill="#cdb053" font-family="Noto Sans Gurmukhi" font-weight="bold" stroke-width=".314098" x="17.800398" y="17.722334">D</tspan></text></svg>