<?xml version="1.0" encoding="UTF-8" standalone="no"?>
<svg
   xmlns:dc="http://purl.org/dc/elements/1.1/"
   xmlns:cc="http://creativecommons.org/ns#"
   xmlns:rdf="http://www.w3.org/1999/02/22-rdf-syntax-ns#"
   xmlns:svg="http://www.w3.org/2000/svg"
   xmlns="http://www.w3.org/2000/svg"
   xmlns:sodipodi="http://sodipodi.sourceforge.net/DTD/sodipodi-0.dtd"
   xmlns:inkscape="http://www.inkscape.org/namespaces/inkscape"
   height="48"
   width="48"
   version="1.1"
   id="svg24"
   sodipodi:docname="libreoffice3-writer.svg"
   inkscape:version="1.0.2 (e86c870879, 2021-01-15)">
  <metadata
     id="metadata30">
    <rdf:RDF>
      <cc:Work
         rdf:about="">
        <dc:format>image/svg+xml</dc:format>
        <dc:type
           rdf:resource="http://purl.org/dc/dcmitype/StillImage" />
      </cc:Work>
    </rdf:RDF>
  </metadata>
  <defs
     id="defs28" />
  <sodipodi:namedview
     pagecolor="#ffffff"
     bordercolor="#666666"
     borderopacity="1"
     objecttolerance="10"
     gridtolerance="10"
     guidetolerance="10"
     inkscape:pageopacity="0"
     inkscape:pageshadow="2"
     inkscape:window-width="1920"
     inkscape:window-height="1031"
     id="namedview26"
     showgrid="false"
     inkscape:zoom="18.541667"
     inkscape:cx="24"
     inkscape:cy="24"
     inkscape:window-x="0"
     inkscape:window-y="24"
     inkscape:window-maximized="1"
     inkscape:current-layer="svg24" />
  <rect
     fill="#678dcb"
     height="42.5"
     ry="2.5"
     width="32.5"
     x="7.5"
     y="3"
     id="rect2"
     style="fill:#76acd0;fill-opacity:1" />
  <g
     fill="none"
     stroke="#fefefe"
     stroke-linecap="round"
     stroke-width="2"
     id="g16">
    <path
       d="m22.5 23h7.5"
       id="path4" />
    <path
       d="m32.5 23h5"
       id="path6" />
    <path
       d="m22.5 28h10"
       id="path8" />
    <path
       d="m22.5 33h5"
       id="path10" />
    <path
       d="m32.5 33h5"
       id="path12" />
    <path
       d="m22.5 38h12.5"
       id="path14" />
  </g>
  <path
     d="m10 3h13.75v42.5h-13.75c-1.385 0-2.5-1.115-2.5-2.5v-37.5c0-1.385 1.115-2.5 2.5-2.5z"
     fill="#3f6eb9"
     id="path18"
     style="fill:#5182a3;fill-opacity:1" />
  <path
     d="m29.991433 13.358366a7.5 7.5 0 0 1 -7.836122 7.133709 7.5 7.5 0 0 1 -7.148003-7.823085 7.5 7.5 0 0 1 7.810023-7.1622737 7.5 7.5 0 0 1 7.17652 7.7969337"
     fill="#fff"
     id="path20" />
  <path
     d="m19.604918 19.285713h2.092951l.523238-3.908894c.07695-.738689.138504-1.477378.169283-2.185288h.06156c.03078.70791.07695 1.446599.169283 2.185288l.523238 3.908894h2.154509l.923358-11.4342854h-1.754386l-.323176 6.4019684c-.04617.938751-.04617 1.66205-.06156 2.646968h-.06156c-.12311-.984918-.215446-1.723607-.338561-2.646968l-.46168-3.477992h-1.385042l-.507848 3.477992c-.138504.938751-.215451 1.692829-.323176 2.646968h-.06156c-.03078-.954139-.04617-1.708217-.09234-2.646968l-.307781-6.4019684h-1.923668z"
     fill="#3f6eb9"
     id="path22"
     style="fill:#5182a3;fill-opacity:1" />
</svg>
