<svg height="48" width="48" xmlns="http://www.w3.org/2000/svg"><path d="m12.071428 3h31.475869c.804798 0 1.452703.6479055 1.452703 1.4527029v40.0945941c0 .804798-.647905 1.452703-1.452703 1.452703h-40.0945941c-.8047974 0-1.4527029-.647905-1.4527029-1.452703v-31.475868z" fill="#e6e7e7"/><path d="m45 25v19.547297c0 .804798-.647905 1.452703-1.452703 1.452703h-40.0945941c-.8047974 0-1.4527029-.647905-1.4527029-1.452703v-19.547297z" fill="#e5d56d"/><path d="m10.618725 13.071428h-8.618725l10.071427-10.071428v8.618726c0 .804797-.647905 1.452702-1.452702 1.452702z" fill="#c2c4c4"/><path d="m16.285715 35.339411c0 4.58573 3.266251 8.025028 8.111551 8.025028 4.04496 0 6.229671-2.595697 6.229671-2.595697l-1.946772-2.768742s-1.773726 1.90351-4.109853 1.90351c-2.855266 0-4.369422-2.357757-4.369422-4.650622 0-2.227973 1.406002-4.412684 4.369422-4.412684 2.14145 0 3.871914 1.579049 3.871914 1.579049l1.752095-2.855266s-1.968403-2.184711-5.797055-2.184711c-4.650623 0-8.111551 3.460928-8.111551 7.960135z" fill="#fff"/><path d="m25.546875 3.5410156c-.154437 0-.269439.094021-.34375.1894532-.07431.095432-.127611.2079936-.175781.3378906-.09634.259794-.16571.593008-.210938.953125-.09046.720234-.09233 1.5317605.111328 2.0625.09111.2374252.197538.4317282.417969.5039062.110216.036089.233152.0199535.332031-.0234375.09888-.04339.183073-.1088527.265625-.1914062.209761-.2097601.268533-.5165206.314453-.8828125.04592-.366292.051548-.7915823.023438-1.203125-.02811-.4115428-.089-.8068882-.183594-1.1171875-.0473-.1551497-.100078-.289203-.177734-.4023438-.07766-.1131408-.201613-.2265625-.373047-.2265625zm1.789063 4.5097656c-.271516-.0061005-.552392.0004613-.835938.0175782-1.134186.068468-2.314405.3222768-3.175781.7617187-2.51224 1.2816489-3.881794 3.4823429-4.011719 5.6503909s.997466 4.300368 3.384766 5.384765a.22859008.22859008 0 0 0 .080078.021485c1.971509.878308 3.235564.883128 5.240234-.027344 2.117049-.961515 3.429688-2.613941 3.429688-4.427734 0-1.647193-.682857-3.025214-1.763672-3.876953-1.080815-.851742-2.558785-1.172819-4.111328-.744141-1.611393.444925-2.608934 1.415119-2.984375 2.919922-.198197.794391.157499 1.685676.691406 2.341797.266953.32806.582408.599947.923828.765625.34142.165677.720327.224497 1.070313.08789.174172-.06798.308121-.121727.419921-.197265.0559-.03777.11071-.08307.152344-.160157.04163-.07709.048668-.192269.017578-.273437-.06218-.162336-.173636-.225946-.316406-.31836-.14277-.092409-.331049-.195462-.578125-.326171-.649431-.343564-.938472-.80672-.945312-1.300782-.0068-.494061.282465-1.058136.933593-1.570312.894779-.703832 1.848426-.900089 2.6875-.675781.839074.224307 1.579148.874163 2.023438 1.9375.32894.78726.392258 1.41716.189453 2.03125-.202806.614089-.689898 1.231906-1.521484 1.93164-.956369.80473-1.518945.986328-3.054688.986328-.848897 0-1.350115-.04359-1.769531-.21289-.419417-.169295-.789426-.474971-1.363281-1.048828-.546107-.546107-.855468-.928558-1.03125-1.330078-.175783-.401522-.22945-.843472-.228516-1.539063.0055-3.610671 3.801625-6.3002755 7.423828-5.2363281.376348.1105445.706488.1609179.980469.1621093.273981.00119.49442-.035118.666015-.1699218.0858-.067402.15755-.1746034.171875-.2929688.01433-.1183654-.024354-.2302614-.083984-.3261718-.119273-.19182-.327344-.3518677-.640625-.5195313-.519461-.278007-1.255766-.4074796-2.070312-.4257813zm-10.94336.7714844c-.218408 0-.404054.0278269-.541016.1738282-.068479.073-.107251.1776257-.107421.2734374-.000171.0958121.027619.1818931.068359.2617188.162941.3193028.535419.627036 1.105469.980469.591322.36662 1.118588.598149 1.537109.675781.209261.03882.396901.047239.56836-.025391.171458-.07263.296874-.269111.296874-.46289 0-.154256-.06978-.236684-.142578-.324219-.07279-.08754-.165753-.174106-.27539-.265625-.219277-.1830391-.507393-.3808751-.814453-.5683594-.307061-.1874842-.632237-.3630399-.925782-.4941406-.293544-.1311007-.537731-.2246094-.769531-.2246094zm18.441406 0c-.245851.00123-.484837.1190537-.789062.2773438-.304226.15829-.645486.3683364-.970703.5917968-.325217.2234606-.63237.4585008-.865235.6699218-.116432.105711-.215289.204735-.291015.300781-.07573.09605-.146485.178703-.146485.337891 0 .165472.01115.324027.134766.458984.123619.134957.324373.152833.496094.113282.343441-.0791.785339-.335131 1.529297-.794922.622374-.384646 1.073093-.77183 1.302734-1.1152346.114821-.1717021.202166-.3523069.125-.5585938-.038583-.1031434-.126633-.1850673-.220703-.2265625-.09407-.0414951-.194727-.0552592-.304688-.0546875zm-14.378906 10.6621094c-.07128-.0014-.132541.013523-.193359.033203-.121636.03937-.244963.106269-.382813.191406-.275699.170275-.598947.420574-.914062.697266-.315116.276692-.620869.576935-.853516.851562-.116323.137316-.213248.267669-.287109.390626-.07386.122955-.132813.233353-.132813.382812 0 .09733.010825.187914.046875.275391.03606.08748.105559.172514.197266.21875.183414.09247.367965.037901.546875-.048829.35782-.173463.795829-.552496 1.357422-1.138671.318206-.332135.576848-.664656.74414-.947266.08365-.141305.145944-.267769.179688-.392578.03374-.124809.054618-.287172-.076172-.417969-.06919-.06919-.161146-.094283-.232422-.095703zm9.419922.753906c-.07471.0038-.164503.035596-.226562.097657-.13162.131613-.115457.277074-.095704.408203.01975.131128.0661.273984.13086.433593.129518.319219.33809.702063.603515 1.091797.488582.717402.860186 1.166909 1.199219 1.367188.08476.05007.172023.08821.275391.09375.103367.0055.223676-.03765.298828-.115235.150304-.155177.161196-.348118.154297-.58789-.0079-.272855-.149105-.543515-.337891-.853516-.188785-.31-.437188-.642587-.695312-.943359-.258125-.300773-.523503-.568568-.761719-.751953-.119108-.09169-.228654-.163407-.347656-.207032-.0595-.02181-.122557-.037013-.197266-.033203z" fill="#999"/></svg>