<?xml version="1.0" encoding="UTF-8" standalone="no"?>
<svg
   xmlns:dc="http://purl.org/dc/elements/1.1/"
   xmlns:cc="http://creativecommons.org/ns#"
   xmlns:rdf="http://www.w3.org/1999/02/22-rdf-syntax-ns#"
   xmlns:svg="http://www.w3.org/2000/svg"
   xmlns="http://www.w3.org/2000/svg"
   xmlns:sodipodi="http://sodipodi.sourceforge.net/DTD/sodipodi-0.dtd"
   xmlns:inkscape="http://www.inkscape.org/namespaces/inkscape"
   height="48"
   width="48"
   version="1.1"
   id="svg6"
   sodipodi:docname="updates-notifier.svg"
   inkscape:version="1.0.2 (e86c870879, 2021-01-15)">
  <metadata
     id="metadata12">
    <rdf:RDF>
      <cc:Work
         rdf:about="">
        <dc:format>image/svg+xml</dc:format>
        <dc:type
           rdf:resource="http://purl.org/dc/dcmitype/StillImage" />
        <dc:title></dc:title>
      </cc:Work>
    </rdf:RDF>
  </metadata>
  <defs
     id="defs10">
    <linearGradient
       gradientUnits="userSpaceOnUse"
       gradientTransform="matrix(0.0920001,0,0,0.09064843,-21.193131,1.5846311)"
       y2="269.48999"
       y1="235.14999"
       x2="657.65002"
       x1="319.20999"
       id="a-12">
      <stop
         id="stop1076"
         offset="0"
         stop-color="#e54c18" />
      <stop
         id="stop1078"
         offset="1"
         stop-color="#fec350" />
    </linearGradient>
    <clipPath
       clipPathUnits="userSpaceOnUse"
       id="clipPath2217">
      <path
         style="color:#000000;font-style:normal;font-variant:normal;font-weight:normal;font-stretch:normal;font-size:medium;line-height:normal;font-family:sans-serif;font-variant-ligatures:normal;font-variant-position:normal;font-variant-caps:normal;font-variant-numeric:normal;font-variant-alternates:normal;font-feature-settings:normal;text-indent:0;text-align:start;text-decoration:none;text-decoration-line:none;text-decoration-style:solid;text-decoration-color:#000000;letter-spacing:normal;word-spacing:normal;text-transform:none;writing-mode:lr-tb;direction:ltr;text-orientation:mixed;dominant-baseline:auto;baseline-shift:baseline;text-anchor:start;white-space:normal;shape-padding:0;clip-rule:nonzero;display:inline;overflow:visible;visibility:visible;opacity:1;isolation:auto;mix-blend-mode:normal;color-interpolation:sRGB;color-interpolation-filters:linearRGB;solid-color:#000000;solid-opacity:1;vector-effect:none;fill:#7642ff;fill-opacity:1;fill-rule:nonzero;stroke:none;stroke-width:0.264583;stroke-linecap:butt;stroke-linejoin:miter;stroke-miterlimit:4;stroke-dasharray:none;stroke-dashoffset:0;stroke-opacity:1;color-rendering:auto;image-rendering:auto;shape-rendering:auto;text-rendering:auto;enable-background:accumulate"
         d="m 18.922876,12.836426 c -0.151653,-0.0053 -0.306422,0.0049 -0.461987,0.03101 l -8.06049,1.353406 c -1.2445295,0.20901 -2.0822869,1.38425 -1.8732708,2.62878 l 1.0883056,6.478675 c 0.2090155,1.244531 1.3842532,2.079696 2.6287802,1.870686 l 8.06049,-1.353405 c 1.244527,-0.20902 2.082285,-1.38425 1.87327,-2.62878 l -0.105937,-0.626836 2.916101,1.087789 c 0.811126,0.30258 1.656298,-0.396368 1.512052,-1.250053 l -0.5333,-3.177583 -0.533301,-3.179651 c -0.10527,-0.628037 -0.713271,-1.045659 -1.337903,-0.921908 -0.184381,0.03664 -0.356036,0.118584 -0.500227,0.238228 l -2.400371,1.982309 -0.10542,-0.63097 c -0.182889,-1.088964 -1.105227,-1.864769 -2.166792,-1.901692 z m -3.503146,3.205489 c 1.297033,0.02967 2.457256,0.90182 2.814816,2.194181 0.07048,0.251117 0.09577,0.376891 0.105419,0.609782 v 0.0021 0.0016 c 0.09427,1.529836 -0.980819,2.88115 -2.492354,3.135209 -1.631756,0.274048 -3.173285,-0.823393 -3.447334,-2.455148 -0.273949,-1.631165 0.824367,-3.172468 2.455147,-3.447334 6.61e-4,-1.12e-4 0.0014,1.12e-4 0.0021,0 0.188942,-0.03139 0.37695,-0.04455 0.56224,-0.04031 z"
         id="path2219"
         inkscape:connector-curvature="0" />
    </clipPath>
    <linearGradient
       id="b"
       gradientUnits="userSpaceOnUse"
       x1="322.07379"
       x2="396.89325"
       y1="45.190372"
       y2="45.190372">
      <stop
         offset="0"
         stop-color="#fc7333"
         id="stop7-3" />
      <stop
         offset=".5"
         stop-color="#d54161"
         id="stop9-6" />
      <stop
         offset=".80304003"
         stop-color="#a65495"
         id="stop11" />
      <stop
         offset="1"
         stop-color="#6c69d2"
         id="stop13" />
    </linearGradient>
    <linearGradient
       id="c"
       gradientTransform="rotate(-120,263.68262,31.544566)"
       gradientUnits="userSpaceOnUse"
       x1="163.20628"
       x2="238.02574"
       y1="55.287792"
       y2="55.287792">
      <stop
         offset="0"
         stop-color="#55d4a2"
         id="stop16" />
      <stop
         offset=".5"
         stop-color="#86d149"
         id="stop18" />
      <stop
         offset=".80304003"
         stop-color="#e9d730"
         id="stop20" />
      <stop
         offset="1"
         stop-color="#fc822f"
         id="stop22" />
    </linearGradient>
    <linearGradient
       id="d"
       gradientTransform="rotate(120,269.80025,123.50909)"
       gradientUnits="userSpaceOnUse"
       x1="163.20628"
       x2="238.02574"
       y1="55.287792"
       y2="55.287792">
      <stop
         offset="0"
         stop-color="#5078f4"
         id="stop25" />
      <stop
         offset=".5"
         stop-color="#54b7fc"
         id="stop27" />
      <stop
         offset=".80304003"
         stop-color="#5edaf2"
         id="stop29" />
      <stop
         offset="1"
         stop-color="#52d5ad"
         id="stop31" />
    </linearGradient>
  </defs>
  <sodipodi:namedview
     pagecolor="#ffffff"
     bordercolor="#666666"
     borderopacity="1"
     objecttolerance="10"
     gridtolerance="10"
     guidetolerance="10"
     inkscape:pageopacity="0"
     inkscape:pageshadow="2"
     inkscape:window-width="1920"
     inkscape:window-height="1031"
     id="namedview8"
     showgrid="true"
     inkscape:zoom="13.110938"
     inkscape:cx="17.764492"
     inkscape:cy="17.650812"
     inkscape:window-x="0"
     inkscape:window-y="24"
     inkscape:window-maximized="1"
     inkscape:current-layer="svg6"
     inkscape:document-rotation="0">
    <inkscape:grid
       type="xygrid"
       id="grid837" />
  </sodipodi:namedview>
  <circle
     cx="23.940615"
     cy="31.534513"
     fill="#74a2f3"
     opacity=".99"
     r="13.232998"
     transform="matrix(1.75830584759 0 0 1.75830608345 -18.15909274367 -30.97874795549)"
     id="circle2"
     style="fill:#8eacd8;fill-opacity:1" />
  <ellipse
     cx="23.935829"
     cy="24.468578"
     fill="#74a2f3"
     opacity="0.99"
     id="circle846"
     style="fill:#ffffff;fill-opacity:0.31997341;stroke-width:1.534"
     rx="20.299435"
     ry="20.299437" />
  <path
     id="path67"
     style="fill:#fcfcfc;fill-opacity:1;stroke:none;stroke-width:0.308414;stroke-opacity:0.088083"
     d="M 23.71501,5.3401892 16.657088,13.304439 26.425695,18.073031 25.76462,15 C 27.312061,14.208464 38.083191,15.666022 39.091231,26.986021 39.744111,21.648003 39.53306,14.741117 31.959549,10.378928 29.918935,9.203578 27.375996,8.3528532 24.227643,8.0213702 Z M 18.403359,9.834947 c -4.949296,2.103596 -10.8258967,5.740089 -10.8169224,14.480035 0.00245,2.354897 0.537539,4.982519 1.8246411,7.874816 l -2.0652838,1.784073 10.4259941,2.129824 -0.75512,-10.842739 -2.330819,2.107695 C 13.226636,26.424298 9.1039769,16.367934 18.403359,9.834947 Z m 18.753513,13.939742 -9.012566,6.075991 2.990973,0.963492 c -0.08823,1.73589 -6.735774,10.335614 -17.043199,5.548605 4.296418,3.234421 10.383159,6.504815 17.947683,2.127058 2.038187,-1.179546 4.046933,-2.957366 5.908187,-5.518179 l 2.577916,0.897107 z" />
</svg>
