<?xml version="1.0" encoding="UTF-8" standalone="no"?>
<svg
   xmlns:dc="http://purl.org/dc/elements/1.1/"
   xmlns:cc="http://creativecommons.org/ns#"
   xmlns:rdf="http://www.w3.org/1999/02/22-rdf-syntax-ns#"
   xmlns:svg="http://www.w3.org/2000/svg"
   xmlns="http://www.w3.org/2000/svg"
   xmlns:sodipodi="http://sodipodi.sourceforge.net/DTD/sodipodi-0.dtd"
   xmlns:inkscape="http://www.inkscape.org/namespaces/inkscape"
   width="48"
   height="48"
   viewBox="0 0 48 48"
   version="1.1"
   id="svg8"
   inkscape:version="1.0.1 (3bc2e813f5, 2020-09-07)"
   sodipodi:docname="matlab.svg">
  <defs
     id="defs2">
    <inkscape:path-effect
       effect="offset"
       id="path-effect928"
       is_visible="true"
       lpeversion="1"
       linejoin_type="miter"
       unit="px"
       offset="-0.80012598"
       miter_limit="4"
       attempt_force_join="true"
       update_on_knot_move="true" />
    <inkscape:path-effect
       effect="offset"
       id="path-effect926"
       is_visible="true"
       lpeversion="1"
       linejoin_type="round"
       unit="mm"
       offset="-0.2646"
       miter_limit="4"
       attempt_force_join="true"
       update_on_knot_move="true" />
    <inkscape:path-effect
       effect="offset"
       id="path-effect924"
       is_visible="true"
       lpeversion="1"
       linejoin_type="round"
       unit="mm"
       offset="-0.2646"
       miter_limit="4"
       attempt_force_join="true"
       update_on_knot_move="true" />
  </defs>
  <sodipodi:namedview
     id="base"
     pagecolor="#ffffff"
     bordercolor="#666666"
     borderopacity="1.0"
     inkscape:pageopacity="0.0"
     inkscape:pageshadow="2"
     inkscape:zoom="17.4375"
     inkscape:cx="24"
     inkscape:cy="24"
     inkscape:document-units="px"
     inkscape:current-layer="layer1"
     inkscape:document-rotation="0"
     showgrid="false"
     units="px"
     inkscape:window-width="1841"
     inkscape:window-height="1023"
     inkscape:window-x="79"
     inkscape:window-y="25"
     inkscape:window-maximized="1" />
  <metadata
     id="metadata5">
    <rdf:RDF>
      <cc:Work
         rdf:about="">
        <dc:format>image/svg+xml</dc:format>
        <dc:type
           rdf:resource="http://purl.org/dc/dcmitype/StillImage" />
        <dc:title />
      </cc:Work>
    </rdf:RDF>
  </metadata>
  <g
     inkscape:label="Layer 1"
     inkscape:groupmode="layer"
     id="layer1">
    <circle
       style="opacity:0.99;fill:#d66769;fill-opacity:0.992157;stroke:none;stroke-width:3.17799;stroke-linejoin:round;stroke-miterlimit:4;stroke-dasharray:none;stroke-opacity:0.992157"
       id="path930"
       cx="24"
       cy="24"
       r="22.695999" />
    <g
       id="g940"
       transform="matrix(0.88937187,0,0,0.88937187,2.5169791,2.7100324)">
      <path
         id="path901"
         style="fill:#ffffff;fill-opacity:1;stroke:none;stroke-width:1.88976;stroke-linecap:butt;stroke-linejoin:miter;stroke-miterlimit:4;stroke-dasharray:none;stroke-opacity:0.992157"
         d="m 30.201172,8.1269531 c -1.137024,0.6732281 -1.792305,2.4890969 -2.354754,3.8689609 -2.603866,6.388098 -5.186709,13.170885 -10.324744,17.909022 -0.134996,0.12449 -0.816099,0.688477 -1.177155,0.935188 1.564765,1.062249 3.104481,3.461434 3.971658,5.104694 0.580412,1.273996 1.326588,3.856211 1.685776,3.846198 1.521493,-0.02898 2.719485,-1.339432 3.798107,-2.312153 2.577113,-2.324086 4.297659,-5.561331 7.27313,-7.449235 1.694137,-0.917684 3.879637,-0.638379 5.322486,0.627046 0.967404,0.692756 1.777823,1.570476 2.629715,2.394107 C 38.125324,26.354284 36.067236,19.336264 33.412322,12.54749 32.817361,11.026139 31.4775,8.7479358 30.924158,8.2989541 30.74609,8.1544697 30.393836,8.0128776 30.201172,8.1269531 Z"
         sodipodi:nodetypes="ssscccscccsss" />
      <path
         id="path903"
         style="fill:#ffffff;fill-opacity:0.612767;stroke:none;stroke-width:1.88976;stroke-linecap:butt;stroke-linejoin:round;stroke-miterlimit:4;stroke-dasharray:none;stroke-opacity:0.992157"
         d="m 20.179688,18.550781 c -1.169721,0.657956 -2.029381,1.740005 -2.75,2.84375 1.364431,1.063973 0,0 1.364431,1.063973 l 1.567209,1.230949 c 1.624802,-2.450276 5.266061,-8.751807 4.128906,-7.775391 -2.306573,1.980535 -2.889932,2.105878 -4.310546,2.636719 z"
         sodipodi:nodetypes="ccccsc" />
      <path
         id="path905"
         style="fill:#ffffff;fill-opacity:0.607131;stroke:none;stroke-width:1.88976;stroke-linecap:butt;stroke-linejoin:miter;stroke-miterlimit:4;stroke-dasharray:none;stroke-opacity:0.992157"
         d="m 7.2851562,26.128906 c 2.0950521,1.492188 4.1901038,2.984375 6.2851558,4.476563 2.363732,-1.254885 4.270116,-3.224236 5.792969,-5.398438 -1.119791,-0.876302 -2.239583,-1.752604 -3.359375,-2.628906 -2.90625,1.183594 -5.8125,2.367188 -8.7187498,3.550781 z" />
    </g>
  </g>
</svg>
