<svg height="48" width="48" xmlns="http://www.w3.org/2000/svg"><path d="m44.322082 27.405077a19.729762 19.729765 0 0 1 -19.729762 19.729765 19.729762 19.729765 0 0 1 -19.7297621-19.729765 19.729762 19.729765 0 0 1 19.7297621-19.7297632 19.729762 19.729765 0 0 1 19.729762 19.7297632z" fill="#d38d5f" opacity=".99" transform="matrix(1.1503549 0 0 1.1503549 -4.486125 -7.525565)"/><path d="m19.318359 3.3105469a21.196228 21.196231 0 0 0 -16.7109371 20.6894531 21.196228 21.196231 0 0 0 2.6796875 10.267578c1.2901801 1.199753 2.6309164 2.310585 4.0136718 3.232422 8.9999998 6 25.4996098-7.5 14.0996098-13.5 3.9 4.5-2.09961 7.5-5.09961 7.5-5.1 0-7.5-7.5-6-13.5 1.00768-4.03072 4.6872-10.7003246 7.017578-14.6894531zm4.082032 20.6894531c-3.9-4.5 2.099609-7.5 5.099609-7.5 5.1 0 7.5 7.5 6 13.5-1.025567 4.102267-4.816332 10.935682-7.136719 14.894531a21.196228 21.196231 0 0 0 17.636719-20.894531 21.196228 21.196231 0 0 0 -1.910156-8.728516c-1.753803-1.798461-3.632402-3.466523-5.589844-4.771484-9-6-25.499609 7.5-14.099609 13.5z" fill="#fff" fill-rule="evenodd"/></svg>