<?xml version="1.0" encoding="UTF-8" standalone="no"?>
<svg
   xmlns:dc="http://purl.org/dc/elements/1.1/"
   xmlns:cc="http://creativecommons.org/ns#"
   xmlns:rdf="http://www.w3.org/1999/02/22-rdf-syntax-ns#"
   xmlns:svg="http://www.w3.org/2000/svg"
   xmlns="http://www.w3.org/2000/svg"
   xmlns:sodipodi="http://sodipodi.sourceforge.net/DTD/sodipodi-0.dtd"
   xmlns:inkscape="http://www.inkscape.org/namespaces/inkscape"
   height="48"
   width="48"
   version="1.1"
   id="svg24"
   sodipodi:docname="mendeley-desktop.svg"
   inkscape:version="0.92.4 5da689c313, 2019-01-14">
  <metadata
     id="metadata30">
    <rdf:RDF>
      <cc:Work
         rdf:about="">
        <dc:format>image/svg+xml</dc:format>
        <dc:type
           rdf:resource="http://purl.org/dc/dcmitype/StillImage" />
        <dc:title></dc:title>
      </cc:Work>
    </rdf:RDF>
  </metadata>
  <defs
     id="defs28">
    <filter
       filterUnits="objectBoundingBox"
       color-interpolation-filters="sRGB"
       y="-200%"
       x="-200%"
       height="400%"
       width="400%"
       id="CUXOqXYxAz1upxKXOfcFWw6SUkcHsA6M">
      <feGaussianBlur
         id="feGaussianBlur842"
         stdDeviation="4.294"
         in="SourceGraphic" />
      <feOffset
         id="feOffset844"
         result="pf_100_offsetBlur"
         dy="4"
         dx="0" />
      <feFlood
         id="feFlood846"
         flood-opacity=".4" />
      <feComposite
         id="feComposite848"
         result="pf_100_dropShadow"
         operator="in"
         in2="pf_100_offsetBlur" />
      <feBlend
         id="feBlend850"
         mode="normal"
         in2="pf_100_dropShadow"
         in="SourceGraphic" />
    </filter>
    <filter
       filterUnits="objectBoundingBox"
       color-interpolation-filters="sRGB"
       y="-200%"
       x="-200%"
       height="400%"
       width="400%"
       id="xQLwWnSc4ktkOevubHIuszw8GKokWMOB">
      <feGaussianBlur
         id="feGaussianBlur820"
         stdDeviation="4.294"
         in="SourceGraphic" />
      <feOffset
         id="feOffset822"
         result="pf_100_offsetBlur"
         dy="4"
         dx="0" />
      <feFlood
         id="feFlood824"
         flood-opacity=".4" />
      <feComposite
         id="feComposite826"
         result="pf_100_dropShadow"
         operator="in"
         in2="pf_100_offsetBlur" />
      <feBlend
         id="feBlend828"
         mode="normal"
         in2="pf_100_dropShadow"
         in="SourceGraphic" />
    </filter>
    <filter
       filterUnits="objectBoundingBox"
       color-interpolation-filters="sRGB"
       y="-200%"
       x="-200%"
       height="400%"
       width="400%"
       id="rfiM2UKhDFqEmewc6CcgvSlIEpvfKKxO">
      <feGaussianBlur
         id="feGaussianBlur855"
         stdDeviation="4.294" />
    </filter>
  </defs>
  <sodipodi:namedview
     pagecolor="#ffffff"
     bordercolor="#666666"
     borderopacity="1"
     objecttolerance="10"
     gridtolerance="10"
     guidetolerance="10"
     inkscape:pageopacity="0"
     inkscape:pageshadow="2"
     inkscape:window-width="1920"
     inkscape:window-height="1023"
     id="namedview26"
     showgrid="true"
     inkscape:zoom="3.4766083"
     inkscape:cx="-29.500419"
     inkscape:cy="24"
     inkscape:window-x="0"
     inkscape:window-y="31"
     inkscape:window-maximized="1"
     inkscape:current-layer="svg24">
    <inkscape:grid
       type="xygrid"
       id="grid840" />
  </sodipodi:namedview>
  <path
     d="m44.322082 27.405077a19.729762 19.729765 0 0 1 -19.729762 19.729765 19.729762 19.729765 0 0 1 -19.7297621-19.729765 19.729762 19.729765 0 0 1 19.7297621-19.7297632 19.729762 19.729765 0 0 1 19.729762 19.7297632z"
     fill="#299595"
     opacity=".99"
     transform="matrix(1.1503549 0 0 1.1503549 -4.486125 -7.525565)"
     id="path2"
     style="fill:#b9754b;fill-opacity:1" />
  <path
     id="path864-9"
     d="m 16.150857,13.835714 c -1.179081,0.03735 -2.317633,0.581789 -3.189849,1.406754 -0.886225,0.838225 -1.521431,1.99041 -1.650302,3.229444 -0.06425,0.61877 -0.0019,1.252294 0.195922,1.84006 0.197602,0.587579 0.531734,1.129213 0.975874,1.547578 0.523331,0.492887 1.17852,0.80442 1.779734,1.190288 0.3007,0.192186 0.58926,0.407532 0.838412,0.668824 0.248965,0.259984 0.457027,0.570022 0.571143,0.917976 0.101416,0.308731 0.124389,0.641929 0.07975,0.964108 -0.04613,0.323672 -0.160622,0.636326 -0.328342,0.912559 -0.33544,0.552466 -0.876699,0.954582 -1.470442,1.169929 -0.688435,0.249151 -1.446536,0.261291 -2.110317,0.575438 -0.525198,0.249152 -0.96747,0.682459 -1.242956,1.209151 -0.275487,0.526692 -0.384373,1.282178 -0.317323,1.877975 0.07863,0.700015 0.40249,1.364731 0.885852,1.859112 0.483361,0.494194 1.122862,0.816373 1.792994,0.923392 0.982971,0.15558 2.372168,-0.170708 3.086004,-0.889587 0.357479,-0.358785 0.628109,-0.808342 0.78126,-1.301229 0.151658,-0.491579 0.182662,-1.158909 0.08386,-1.665243 -0.07583,-0.387362 -0.222069,-0.754366 -0.358785,-1.122489 -0.138024,-0.367004 -0.26951,-0.743533 -0.302008,-1.136124 -0.05808,-0.694598 -0.142506,-1.40003 0.301634,-1.9228 0.442832,-0.522583 1.064404,-1.205228 1.718287,-1.356885 0.422474,-0.0988 0.861197,-0.121961 1.28778,-0.04464 0.426397,0.07583 0.839346,0.250459 1.184684,0.519968 0.345338,0.27063 0.621571,0.976435 0.774536,1.397602 0.154272,0.419672 0.181354,0.893508 0.05827,1.3242 -0.124576,0.441339 -0.731579,0.82179 -1.005011,1.184684 -0.272124,0.362895 -0.55919,0.727097 -0.72168,1.156482 -0.178739,0.472529 -0.196482,1.004637 -0.07452,1.496029 0.123268,0.49158 0.380451,0.941136 0.720373,1.306646 0.375034,0.404918 1.189165,0.706925 1.705025,0.87203 0.517167,0.166599 1.043859,0.196295 1.584186,0.196295 0.540326,0 1.104932,-0.0297 1.622099,-0.196295 0.515859,-0.165105 1.32943,-0.467112 1.704465,-0.87203 0.339922,-0.36551 0.597105,-0.815066 0.720373,-1.306646 0.121961,-0.491392 0.104218,-1.0235 -0.07452,-1.496029 -0.16249,-0.429385 -0.449556,-0.793587 -0.72168,-1.156482 -0.273432,-0.362894 -0.879875,-0.743345 -1.004451,-1.184684 -0.123268,-0.430692 -0.09619,-0.904528 0.05827,-1.3242 0.152965,-0.421167 0.429198,-1.126972 0.774536,-1.397602 0.345151,-0.269509 0.758287,-0.44414 1.184684,-0.519968 0.426583,-0.07732 0.865306,-0.05416 1.28778,0.04464 0.653883,0.151657 1.275454,0.834302 1.718286,1.356885 0.443953,0.52277 0.359907,1.228202 0.301635,1.9228 -0.0325,0.392591 -0.163798,0.76912 -0.301822,1.136124 -0.136902,0.368123 -0.283143,0.735127 -0.358972,1.122489 -0.0988,0.506334 -0.06761,1.173664 0.08405,1.665243 0.152965,0.492887 0.423782,0.942444 0.78126,1.301229 0.713649,0.718879 2.103033,1.045353 3.086004,0.889587 0.670319,-0.107019 1.30926,-0.429198 1.792621,-0.923392 0.483549,-0.494381 0.807035,-1.159097 0.885665,-1.859112 0.06761,-0.595797 -0.04203,-1.351283 -0.316949,-1.877975 -0.276234,-0.526692 -0.717571,-0.959999 -1.242956,-1.209151 -0.663408,-0.314147 -1.421695,-0.326287 -2.110877,-0.575438 -0.592996,-0.215347 -1.134629,-0.617463 -1.470442,-1.169929 -0.166599,-0.276233 -0.28165,-0.588887 -0.327782,-0.912559 -0.04464,-0.322179 -0.02167,-0.655377 0.07994,-0.964108 0.113743,-0.347954 0.322179,-0.657992 0.57133,-0.917976 0.249152,-0.261292 0.537712,-0.476638 0.838225,-0.668824 0.601214,-0.385868 1.25659,-0.697401 1.779174,-1.190288 0.44414,-0.418365 0.778645,-0.959999 0.976248,-1.547578 0.197789,-0.587766 0.259984,-1.22129 0.196295,-1.84006 -0.128498,-1.239034 -0.76501,-2.391219 -1.650489,-3.229444 -0.872035,-0.824965 -2.010774,-1.3694 -3.190041,-1.406754 -0.589074,-0.01886 -1.180762,0.08704 -1.723703,0.325167 -0.542941,0.238132 -1.037135,0.609244 -1.412356,1.081587 -0.430506,0.541633 -0.701322,1.198317 -0.949166,1.850893 -0.247658,0.654069 -0.482055,1.322893 -0.857089,1.906551 -0.61877,0.964107 -1.596325,1.602862 -2.710784,1.602862 -1.114271,0 -2.091826,-0.638755 -2.710596,-1.602862 -0.375222,-0.583658 -0.609431,-1.252482 -0.857089,-1.906551 -0.247844,-0.652576 -0.518661,-1.30926 -0.949353,-1.850893 -0.375035,-0.472343 -0.869229,-0.843455 -1.41217,-1.081587 -0.542941,-0.238132 -1.134629,-0.344031 -1.723702,-0.325167 z m 7.65291,8.12133 c 0.747829,0 1.354085,0.606257 1.354085,1.354085 0,0.747828 -0.606256,1.354084 -1.354085,1.354084 -0.747641,0 -1.353897,-0.606256 -1.353897,-1.354084 0,-0.747828 0.606256,-1.354085 1.353897,-1.354085 z"
     inkscape:connector-curvature="0"
     style="isolation:isolate;fill:#ffffff;stroke-width:0.18677025" />
</svg>
