<?xml version="1.0" encoding="UTF-8" standalone="no"?>
<svg
   xmlns:dc="http://purl.org/dc/elements/1.1/"
   xmlns:cc="http://creativecommons.org/ns#"
   xmlns:rdf="http://www.w3.org/1999/02/22-rdf-syntax-ns#"
   xmlns:svg="http://www.w3.org/2000/svg"
   xmlns="http://www.w3.org/2000/svg"
   xmlns:sodipodi="http://sodipodi.sourceforge.net/DTD/sodipodi-0.dtd"
   xmlns:inkscape="http://www.inkscape.org/namespaces/inkscape"
   height="48"
   width="48"
   version="1.1"
   id="svg6"
   sodipodi:docname="microsoft-edge.svg"
   inkscape:version="1.0.2 (e86c870879, 2021-01-15)">
  <metadata
     id="metadata12">
    <rdf:RDF>
      <cc:Work
         rdf:about="">
        <dc:format>image/svg+xml</dc:format>
        <dc:type
           rdf:resource="http://purl.org/dc/dcmitype/StillImage" />
        <dc:title></dc:title>
      </cc:Work>
    </rdf:RDF>
  </metadata>
  <defs
     id="defs10" />
  <sodipodi:namedview
     pagecolor="#ffffff"
     bordercolor="#666666"
     borderopacity="1"
     objecttolerance="10"
     gridtolerance="10"
     guidetolerance="10"
     inkscape:pageopacity="0"
     inkscape:pageshadow="2"
     inkscape:window-width="1920"
     inkscape:window-height="1030"
     id="namedview8"
     showgrid="true"
     inkscape:zoom="9.2708334"
     inkscape:cx="27.219378"
     inkscape:cy="51.071471"
     inkscape:window-x="0"
     inkscape:window-y="24"
     inkscape:window-maximized="1"
     inkscape:current-layer="svg6"
     inkscape:document-rotation="0">
    <inkscape:grid
       type="xygrid"
       id="grid837" />
  </sodipodi:namedview>
  <circle
     cx="23.940615"
     cy="31.534513"
     fill="#74a2f3"
     opacity=".99"
     r="13.232998"
     transform="matrix(1.75830584759 0 0 1.75830608345 -18.15909274367 -30.97874795549)"
     id="circle2"
     style="fill:#9dded5;fill-opacity:1" />
  <circle
     style="opacity:1;fill:#5a9de3;fill-opacity:1;stroke-width:0.870016;stroke-dasharray:0.870016, 1.74002999999999997"
     id="path847"
     cx="23.935829"
     cy="24.468578"
     r="18.136539" />
  <path
     id="path835"
     style="fill:#ffffff;fill-opacity:0.382241;stroke-width:15.8655;stroke-linecap:round;stroke-linejoin:round"
     d="M 23.935547 4.0039062 A 20.464066 20.464066 0 0 0 3.4726562 24.46875 A 20.464066 20.464066 0 0 0 23.935547 44.933594 A 20.464066 20.464066 0 0 0 44.400391 24.46875 A 20.464066 20.464066 0 0 0 23.935547 4.0039062 z M 23.898438 8.7265625 A 15.741128 15.741128 0 0 1 23.935547 8.7265625 A 15.741128 15.741128 0 0 1 39.677734 24.46875 A 15.741128 15.741128 0 0 1 23.935547 40.208984 A 15.741128 15.741128 0 0 1 8.1953125 24.46875 A 15.741128 15.741128 0 0 1 23.898438 8.7265625 z " />
  <g
     id="g858"
     transform="translate(0.60460188,-0.56419049)">
    <path
       class="cls-5"
       d="m 26.110744,26.765933 c -0.09257,0.11998 -0.377147,0.285682 -0.377147,0.646787 0,0.298245 0.19429,0.58507 0.539437,0.826184 1.643432,1.142724 4.741791,0.991879 4.749811,0.991879 1.217767,-0.0029 2.412399,-0.33243 3.45949,-0.954167 2.149232,-1.254775 3.472657,-2.906658 3.477751,-5.395132 0.02971,-2.560862 -0.914342,-4.263461 -1.296064,-5.017691 -2.421719,-4.736535 -7.649044,-7.460489 -13.333408,-7.460489 -7.999612,-7.69e-4 -14.516229,6.423422 -14.628929,14.420866 0.05486,-4.175468 4.205756,-8.04946 9.143419,-8.04946 0.400007,0 2.681203,0.03886 4.800038,1.150689 1.867426,0.980499 2.845758,2.666084 3.525811,3.839694 0.988411,1.864715 1.03089,3.577339 -0.05943,5.00084 z"
       fill="#5ae2b5"
       id="path4"
       style="fill:#ffffff;fill-opacity:1;stroke-width:0.541832" />
    <path
       class="cls-1"
       d="m 35.109495,32.17613 c -1.401992,1.379342 -3.576688,1.706771 -5.307518,1.715278 -5.408083,0 -10.11926,-4.158401 -10.11926,-8.931563 0.0141,-1.303595 0.732504,-2.497578 1.87772,-3.120738 -4.891499,0.20569 -6.148713,5.302208 -6.148713,8.288408 0,8.442288 7.782337,9.298384 9.458224,9.298384 0.904048,0 2.267514,-0.262827 3.085735,-0.521075 l 0.14972,-0.05027 c 3.148912,-1.088431 5.833367,-3.216422 7.611119,-6.033842 0.25396,-0.400073 -0.193745,-0.874625 -0.607991,-0.64451 z"
       fill="#0b5ead"
       id="path6"
       style="fill:#e8f9f7;fill-opacity:0.992157;stroke-width:0.541832" />
    <path
       class="cls-3"
       d="m 20.346191,37.989989 c -1.019348,-0.63259 -1.902806,-1.461538 -2.598898,-2.438516 -3.377728,-4.62703 -1.32581,-11.18125 3.813686,-13.712149 0.356579,-0.167979 0.965707,-0.471941 1.776071,-0.457084 1.157246,0.0085 2.243836,0.558195 2.936081,1.485487 C 26.734654,23.483844 26.989108,24.230327 27,25 c 0,-0.02399 2.795475,-9.09628 -9.143419,-9.09628 -5.017258,0 -9.143421,4.760593 -9.143421,8.937523 -0.0198,2.209375 0.452999,4.395452 1.384057,6.399039 3.149453,6.718721 10.831769,10.015768 17.871796,7.668551 -2.410179,0.759812 -5.471423,0.425729 -7.613827,-0.914179 z"
       fill="#008ef5"
       id="path8"
       style="fill:#c2ddfa;fill-opacity:1;stroke-width:0.541832" />
  </g>
</svg>
