<?xml version="1.0" encoding="UTF-8" standalone="no"?>
<svg
   xmlns:dc="http://purl.org/dc/elements/1.1/"
   xmlns:cc="http://creativecommons.org/ns#"
   xmlns:rdf="http://www.w3.org/1999/02/22-rdf-syntax-ns#"
   xmlns:svg="http://www.w3.org/2000/svg"
   xmlns="http://www.w3.org/2000/svg"
   xmlns:sodipodi="http://sodipodi.sourceforge.net/DTD/sodipodi-0.dtd"
   xmlns:inkscape="http://www.inkscape.org/namespaces/inkscape"
   height="48"
   width="48"
   version="1.1"
   id="svg6"
   sodipodi:docname="MidnightCommander.svg"
   inkscape:version="0.92.1 r15371">
  <metadata
     id="metadata12">
    <rdf:RDF>
      <cc:Work
         rdf:about="">
        <dc:format>image/svg+xml</dc:format>
        <dc:type
           rdf:resource="http://purl.org/dc/dcmitype/StillImage" />
        <dc:title></dc:title>
      </cc:Work>
    </rdf:RDF>
  </metadata>
  <defs
     id="defs10" />
  <sodipodi:namedview
     pagecolor="#ffffff"
     bordercolor="#666666"
     borderopacity="1"
     objecttolerance="10"
     gridtolerance="10"
     guidetolerance="10"
     inkscape:pageopacity="0"
     inkscape:pageshadow="2"
     inkscape:window-width="1920"
     inkscape:window-height="1025"
     id="namedview8"
     showgrid="false"
     inkscape:zoom="6.9532167"
     inkscape:cx="17.930075"
     inkscape:cy="23.878803"
     inkscape:window-x="0"
     inkscape:window-y="29"
     inkscape:window-maximized="1"
     inkscape:current-layer="svg6" />
  <path
     d="m1.996094 5.888227c-.554 0-1 .446-1 1v4 32c0 .554.446 1 1 1h42l.656393-.690979c.381556-.40166.658631.146694.343607-.309021v-1.283203-30.716797c0-.554-.446-1-1-1h-25l-2.074219-3c-.315024-.4557149-.446-1-1-1z"
     fill="#e5e5e5"
     id="path2"
     style="fill:#a86d96;fill-opacity:1" />
  <path
     d="m19.996094 12c-.554 0-.715199.524812-1 1l-2.996094 5h-14.003906c-.554 0-1 .446-1 1v23.888227c0 .01318.0073.02405.0078.03711-.169125.345773.170691.708979.582032.873047.000999.000449.0029-.000446.0039 0 .124539.05545.260703.08984.406268.08984h.01953 41.980469c.1385 0 .270906-.02766.390625-.07813s.226031-.124469.316406-.214844c.180751-.180745.29297-.430026.29297-.707026v-23.888224-6c0-.554-.446-1-1-1z"
     fill="#5c9ce4"
     id="path4"
     style="fill:#e9b682;fill-opacity:0.80303031" />
  <text
     xml:space="preserve"
     style="font-style:normal;font-variant:normal;font-weight:bold;font-stretch:condensed;font-size:20.73103142px;line-height:1.25;font-family:'Roboto Condensed';-inkscape-font-specification:'Roboto Condensed, Bold Condensed';letter-spacing:0px;word-spacing:0px;fill:#a86d96;fill-opacity:1;stroke:none;stroke-width:0.5182758"
     x="9.9046469"
     y="38.27412"
     id="text4491"><tspan
       sodipodi:role="line"
       id="tspan4489"
       x="9.9046469"
       y="38.27412"
       style="fill:#a86d96;fill-opacity:1;stroke-width:0.5182758">MC</tspan></text>
</svg>
