<svg height="48" width="48" xmlns="http://www.w3.org/2000/svg"><circle cx="23.940615" cy="31.534513" fill="#8f3c4b" opacity=".99" r="13.232998" transform="matrix(1.72140702696 0 0 1.72140725788 -17.2289093957 -30.06939350282)"/><path d="m22.206309 7.63532-.353874 4.933464a11.842162 11.842162 0 0 0 -4.591152 1.912786l-3.744623-3.247343-2.514144 2.514148 3.238092 3.735367a11.842162 11.842162 0 0 0 -1.896599 4.600405l-4.9404023.353876v3.552649l4.9334663.353876a11.842162 11.842162 0 0 0 1.912783 4.591152l-3.24734 3.744622 2.514144 2.514146 3.735368-3.238093a11.842162 11.842162 0 0 0 4.600407 1.896598l.353874 4.940401h3.552648l.353875-4.933463a11.842162 11.842162 0 0 0 4.591151-1.912786l3.744623 3.247343 2.514151-2.514146-3.238098-3.73537a11.842162 11.842162 0 0 0 1.896598-4.600404l4.940402-.353876v-3.552649l-4.933466-.353876a11.842162 11.842162 0 0 0 -1.912782-4.591151l3.247346-3.744621-2.514151-2.514148-3.735368 3.238093a11.842162 11.842162 0 0 0 -4.600406-1.896598l-.353875-4.940402zm-.71238 6.483122a4.1447567 4.1447567 0 0 1 4.144753 4.144756 4.1447567 4.1447567 0 0 1 -4.144753 4.144757 4.1447567 4.1447567 0 0 1 -4.144753-4.144757 4.1447567 4.1447567 0 0 1 4.144753-4.144756z" fill="#fff" stroke-width="1.184216"/></svg>