<?xml version="1.0" encoding="UTF-8" standalone="no"?>
<svg
   xmlns:dc="http://purl.org/dc/elements/1.1/"
   xmlns:cc="http://creativecommons.org/ns#"
   xmlns:rdf="http://www.w3.org/1999/02/22-rdf-syntax-ns#"
   xmlns:svg="http://www.w3.org/2000/svg"
   xmlns="http://www.w3.org/2000/svg"
   xmlns:sodipodi="http://sodipodi.sourceforge.net/DTD/sodipodi-0.dtd"
   xmlns:inkscape="http://www.inkscape.org/namespaces/inkscape"
   height="48"
   width="48"
   version="1.1"
   id="svg6"
   sodipodi:docname="minitube.svg"
   inkscape:version="1.0.2 (e86c870879, 2021-01-15)">
  <metadata
     id="metadata12">
    <rdf:RDF>
      <cc:Work
         rdf:about="">
        <dc:format>image/svg+xml</dc:format>
        <dc:type
           rdf:resource="http://purl.org/dc/dcmitype/StillImage" />
        <dc:title></dc:title>
      </cc:Work>
    </rdf:RDF>
  </metadata>
  <defs
     id="defs10" />
  <sodipodi:namedview
     pagecolor="#ffffff"
     bordercolor="#666666"
     borderopacity="1"
     objecttolerance="10"
     gridtolerance="10"
     guidetolerance="10"
     inkscape:pageopacity="0"
     inkscape:pageshadow="2"
     inkscape:window-width="1920"
     inkscape:window-height="1031"
     id="namedview8"
     showgrid="false"
     inkscape:zoom="9.2708333"
     inkscape:cx="27.251969"
     inkscape:cy="38.272552"
     inkscape:window-x="0"
     inkscape:window-y="24"
     inkscape:window-maximized="1"
     inkscape:current-layer="svg6" />
  <circle
     cx="23.940615"
     cy="31.534513"
     fill="#74a2f3"
     opacity=".99"
     r="13.232998"
     transform="matrix(1.75830584759 0 0 1.75830608345 -18.15909274367 -30.97874795549)"
     id="circle2"
     style="fill:#abb97c;fill-opacity:1" />
  <rect
     style="fill:#ffffff;fill-opacity:0.56527925"
     id="rect837"
     width="25.465061"
     height="27.351192"
     x="11.2033"
     y="10.792983"
     rx="3.57162"
     ry="3.22891" />
  <rect
     style="fill:#ffffff;fill-opacity:1"
     id="rect839"
     width="20.537069"
     height="16.145861"
     x="13.667296"
     y="13.417751"
     rx="3.57162"
     ry="3.22891" />
  <path
     id="rect841"
     style="fill:#ffffff;fill-opacity:1"
     d="m 16.593058,31.080078 c -1.587946,0 -2.867188,1.277288 -2.867188,2.865234 0,1.587947 1.279242,2.867188 2.867188,2.867188 1.587946,0 2.865234,-1.279241 2.865234,-2.867188 0,-1.587946 -1.277288,-2.865234 -2.865234,-2.865234 z m 14.6875,0 c -1.587946,0 -2.867188,1.277288 -2.867188,2.865234 0,1.587947 1.279242,2.867188 2.867188,2.867188 1.587946,0 2.865234,-1.279241 2.865234,-2.867188 0,-1.587946 -1.277288,-2.865234 -2.865234,-2.865234 z" />
</svg>
