<?xml version="1.0" encoding="UTF-8" standalone="no"?>
<svg
   xmlns:dc="http://purl.org/dc/elements/1.1/"
   xmlns:cc="http://creativecommons.org/ns#"
   xmlns:rdf="http://www.w3.org/1999/02/22-rdf-syntax-ns#"
   xmlns:svg="http://www.w3.org/2000/svg"
   xmlns="http://www.w3.org/2000/svg"
   xmlns:sodipodi="http://sodipodi.sourceforge.net/DTD/sodipodi-0.dtd"
   xmlns:inkscape="http://www.inkscape.org/namespaces/inkscape"
   sodipodi:docname="ms-office.svg"
   inkscape:version="1.1-dev (1:0.92.0+devel+202004260039+9758c7a)"
   id="svg5184"
   version="1.1"
   viewBox="0 0 12.7 12.7"
   height="48"
   width="48">
  <defs
     id="defs5178" />
  <sodipodi:namedview
     inkscape:window-maximized="1"
     inkscape:window-y="30"
     inkscape:window-x="0"
     inkscape:window-height="1024"
     inkscape:window-width="1920"
     inkscape:measure-end="30,1"
     inkscape:measure-start="45,1"
     units="px"
     showgrid="true"
     inkscape:current-layer="layer1"
     inkscape:document-units="mm"
     inkscape:cy="24.852649"
     inkscape:cx="18.221116"
     inkscape:zoom="2.8"
     inkscape:pageshadow="2"
     inkscape:pageopacity="0.0"
     borderopacity="1.0"
     bordercolor="#666666"
     pagecolor="#ffffff"
     id="base">
    <inkscape:grid
       id="grid5729"
       type="xygrid" />
  </sodipodi:namedview>
  <metadata
     id="metadata5181">
    <rdf:RDF>
      <cc:Work
         rdf:about="">
        <dc:format>image/svg+xml</dc:format>
        <dc:type
           rdf:resource="http://purl.org/dc/dcmitype/StillImage" />
      </cc:Work>
    </rdf:RDF>
  </metadata>
  <g
     transform="translate(0,-284.29998)"
     id="layer1"
     inkscape:groupmode="layer"
     inkscape:label="Capa 1">
    <rect
       ry="0.52916902"
       rx="0.52916902"
       y="285.09372"
       x="0.52916664"
       height="11.641677"
       width="11.377084"
       id="rect5731"
       style="opacity:1;fill:#b05b5b;fill-opacity:1;stroke:none;stroke-width:1;stroke-miterlimit:4;stroke-dasharray:none;stroke-opacity:1" />
    <path
       sodipodi:nodetypes="ssssccsss"
       inkscape:connector-curvature="0"
       id="rect5739"
       transform="matrix(0.26458333,0,0,0.26458333,0,284.29998)"
       d="M 4,3 C 2.8919949,3 2,3.8919937 2,5 v 40 c 0,1.108006 0.8919949,2 2,2 h 6 L 45,13 45,5 C 45,3.8919937 44.108006,3 43,3 Z"
       style="opacity:1;fill:#c48585;fill-opacity:1;stroke:none;stroke-width:3.77952766;stroke-miterlimit:4;stroke-dasharray:none;stroke-opacity:1" />
    <path
       id="path926"
       transform="matrix(0.26458333,0,0,0.26458333,0,284.29998)"
       d="M 4 3 C 2.8919949 3 2 3.8919937 2 5 L 2 32.886719 L 24.433594 32.978516 L 45 13 L 45 5 C 45 3.8919937 44.108006 3 43 3 L 4 3 z "
       style="opacity:1;fill:#e0a0a0;fill-opacity:1;stroke:none;stroke-width:3.77952766;stroke-miterlimit:4;stroke-dasharray:none;stroke-opacity:1" />
    <path
       transform="matrix(0.26458333,0,0,0.26458333,0,284.29998)"
       id="path924"
       d="M 4 3 C 2.8919949 3 2 3.8919937 2 5 L 2 18.125 L 39.837891 18.015625 L 45 13 L 45 5 C 45 3.8919937 44.108006 3 43 3 L 4 3 z "
       style="opacity:1;fill:#ffffff;fill-opacity:0.32291666;stroke:none;stroke-width:3.77952766;stroke-miterlimit:4;stroke-dasharray:none;stroke-opacity:1" />
    <path
       transform="matrix(0.26458333,0,0,0.26458333,0,284.29998)"
       id="rect820"
       d="M 4 3 C 2.8919949 3 2 3.8919937 2 5 L 2 45 C 2 46.108006 2.8919949 47 4 47 L 10 47 L 23.5 33.884766 L 23.5 3 L 4 3 z "
       style="opacity:1;fill:#f1a9a9;fill-opacity:0;stroke:none;stroke-width:3.77952766;stroke-miterlimit:4;stroke-dasharray:none;stroke-opacity:1" />
    <path
       sodipodi:nodetypes="cccccccccccc"
       inkscape:connector-curvature="0"
       id="path885-3"
       d="m 7.2772931,295.28093 c 0,0 0.8339552,-0.22934 0.8443797,-0.27104 0.010432,-0.0417 0.031273,-2.29338 0.031273,-2.29338 l 1.6366375,-0.3857 v 3.34625 l -2.3871966,-0.33358 2.4184694,0.87565 1.3438479,-0.42171 -0.0095,-3.81061 -1.3656027,-0.40655 -2.4810167,0.9382 z"
       style="fill:#ffffff;fill-opacity:1;stroke:none;stroke-width:0.0447251px;stroke-linecap:butt;stroke-linejoin:miter;stroke-opacity:1" />
  </g>
</svg>
