<svg height="48" width="48" xmlns="http://www.w3.org/2000/svg"><path d="m44.322082 27.405077a19.729762 19.729765 0 0 1 -19.729762 19.729765 19.729762 19.729765 0 0 1 -19.7297621-19.729765 19.729762 19.729765 0 0 1 19.7297621-19.7297632 19.729762 19.729765 0 0 1 19.729762 19.7297632z" fill="#669d81" opacity=".99" transform="matrix(1.1503549 0 0 1.1503549 -4.486125 -7.525565)"/><g fill="#fff"><path d="m19.433594 33.416016c-1.804082 7.055587 1.141104 7.883127 4.866406 8.883984-2.4-3-1.407255-7.769027-2.4-8.1-.05467 1.271028-.115415 2.883587.01602 4.225779.07897.806431.343558 1.606528.732422 2.390625-1.205209-.594114-2.19137-1.250079-2.6875-2.023437-.530651-.827168-.551609-1.837133-.265626-2.996094.274114-.391167.641281.073284 1.004684.503127.249759-1.068949-.7253-1.981386-1.266406-2.883984z"/><path d="m17.833984 3.7285156-.08203.7441406c-1.503417 13.5307438.222351 20.9387718 1.501952 28.5683598l1.446094.558984c-.0707-.421548-.93131-.594436-1.009466-1.019481-1.303246-7.087648-2.727129-15.025356-1.503034-27.111769 4.625304 8.678969 2.075918 18.228322 2.5625 27.544922l.5-.02734c-.496144-9.499688 2.351353-19.509399-3.035156-28.6132851z"/><path d="m22.861328 9.3769531c-.373244.07904-.714054.2605543-.984375.5332031-.540642.5452978-.852277 1.3598858-1.039062 2.3671878-.37357 2.014603-.216912 4.863446.429687 8.068359 1.293198 6.409826 6.394922 13.84581 11.732422 18.654297-5.666016-7.871094-12.798507-17.121635-11.177734-26.541016.166262-.896625.455801-1.531258.765625-1.84375.309823-.312491.590902-.395542 1.130859-.208984 2.407033 1.476486 3.58125 3.39375.88125 5.19375.771801-.111704 2.259477-.814172 2.413672-1.453516.154195-.639343.04292-1.334598-.259766-1.935546-.959694-1.90535-1.994618-2.503184-2.708984-2.7500005-.404575-.1397823-.81035-.1630241-1.183594-.083984z" fill-opacity=".386364"/><path d="m33.714844 13.951172c-2.752849.565579-7.284883 5.076868-10.167969 2.761719 2.939479 3.856205 7.368926-.611413 10.304687-1.771485 2.148438.058594-.851562 3.058594-.667967 3.523438.944396-.373034 1.762245-.850244 2.300781-1.44336.269268-.296558.475902-.630773.546875-1.013672.07097-.382898-.02068-.801986-.259766-1.15039-.502684-.732543-1.322816-1.057016-2.056641-.90625z" fill-opacity=".386364"/><path d="m20.863281 29.490234c-2.752849-.565579-7.284883-5.076868-10.167969-2.761719 2.939479-3.856205 7.368926.611413 10.304688 1.771485 2.148438-.05859-.851563-3.058594-.667968-3.523438.944397.373034 1.762246.850244 2.300782 1.44336.269268.296558.475902.630773.546875 1.013672.07097.382898-.02068.801986-.259766 1.15039-.502684.732543-1.322816 1.057016-2.056642.90625z" fill-opacity=".386364"/><path d="m25.978516 24.14653s.09129-.298308.287109-.634765c.195823-.336457.486518-.660005.783203-.759766.296685-.09976.683607-.08473 1.367188.527344.68358.612071 1.578499 1.826921 2.636718 3.943359 1.567082 3.134164 3.986466 4.36995 5.97461 4.767578 1.988144.397629 3.59375-.0059 3.59375-.0059-4.621094-.48438-7.050952-2.090737-8.673828-5.207072-3.447266-8.777308-7.724909-3.387085-5.96875-2.630778z" fill-opacity=".386364"/></g></svg>