<svg height="48" width="48" xmlns="http://www.w3.org/2000/svg"><path d="m44.322082 27.405077a19.729762 19.729765 0 0 1 -19.729762 19.729765 19.729762 19.729765 0 0 1 -19.7297621-19.729765 19.729762 19.729765 0 0 1 19.7297621-19.7297632 19.729762 19.729765 0 0 1 19.729762 19.7297632z" fill="#5995b6" opacity=".99" transform="matrix(1.1503549 0 0 1.1503549 -4.486125 -7.525565)"/><path d="m27.920265 10.315613c-.947312-.569093-1.969917-.962613-3.080151-1.102046-2.412311-.302959-5.034953.269726-6.451188 3.409956 0 0-2.640992.130406-3.626922.651694-.644707.360653-.822971 1.559281.104166 1.633083 4.188158.627901 7.982826 2.715271 10.458068 5.561924.02784 2.316195-.24977 5.202251-1.780478 7.27875 1.946982-.02753 3.318902-.999952 4.497796-2.073077.796208 5.426508-2.012469 9.563052-5.370584 11.948093-1.472955-2.159089-2.766594-2.473493-5.088276-2.69074-.966931-.09009-1.075025-.292842-.626388.751855.997882 2.414978 2.116517 3.561627 3.945532 3.566947-1.074103 1.540763-.964722 2.555417-.54825 4.273701.224764.925437.05822 1.184654.916125.426081 1.780894-1.468842 2.548624-2.384063 2.210302-4.810456 7.507989-.806713 12.885649-5.886687 12.519983-15.141378 1.207353.07861 1.885573-.104934 4.00438.825938.579876.267595 1.167931.864445.530271-.440804-1.17108-2.4795-4.444615-4.04353-5.744095-6.154817-1.859731-2.901717-4.028348-6.207412-6.870291-7.914704z" fill="#fff"/></svg>