<?xml version="1.0" encoding="UTF-8" standalone="no"?>
<svg
   xmlns:dc="http://purl.org/dc/elements/1.1/"
   xmlns:cc="http://creativecommons.org/ns#"
   xmlns:rdf="http://www.w3.org/1999/02/22-rdf-syntax-ns#"
   xmlns:svg="http://www.w3.org/2000/svg"
   xmlns="http://www.w3.org/2000/svg"
   xmlns:sodipodi="http://sodipodi.sourceforge.net/DTD/sodipodi-0.dtd"
   xmlns:inkscape="http://www.inkscape.org/namespaces/inkscape"
   height="48"
   width="48"
   version="1.1"
   id="svg18"
   sodipodi:docname="netease-cloud-music.svg"
   inkscape:version="0.92.1 r15371">
  <metadata
     id="metadata24">
    <rdf:RDF>
      <cc:Work
         rdf:about="">
        <dc:format>image/svg+xml</dc:format>
        <dc:type
           rdf:resource="http://purl.org/dc/dcmitype/StillImage" />
        <dc:title></dc:title>
      </cc:Work>
    </rdf:RDF>
  </metadata>
  <defs
     id="defs22" />
  <sodipodi:namedview
     pagecolor="#ffffff"
     bordercolor="#666666"
     borderopacity="1"
     objecttolerance="10"
     gridtolerance="10"
     guidetolerance="10"
     inkscape:pageopacity="0"
     inkscape:pageshadow="2"
     inkscape:window-width="1920"
     inkscape:window-height="1040"
     id="namedview20"
     showgrid="true"
     inkscape:zoom="2.4583334"
     inkscape:cx="23.586444"
     inkscape:cy="23.080299"
     inkscape:window-x="0"
     inkscape:window-y="0"
     inkscape:window-maximized="1"
     inkscape:current-layer="svg18">
    <inkscape:grid
       type="xygrid"
       id="grid834" />
  </sodipodi:namedview>
  <circle
     cx="23.940615"
     cy="31.534513"
     fill="#6c6753"
     opacity=".99"
     r="13.232998"
     transform="matrix(1.72140702696 0 0 1.72140725788 -17.2289093957 -30.06939350282)"
     id="circle2"
     style="fill:#ac9d93" />
  <path
     id="path11150-2"
     d="m 26.666364,25.104448 c 0,1.252419 -1.057515,2.270489 -2.357581,2.270489 -1.442064,0 -2.237251,-1.265882 -2.36589,-2.439518 -0.245708,-2.239355 0.969359,-3.45864 2.032038,-4.085849 0.431284,-0.254008 0.905083,-0.452025 1.39957,-0.597169 0,0 1.145659,3.511443 1.234749,4.056819 0.09849,0.600281 0.05599,0.795187 0.05599,0.795187 m 5.629521,-7.04266 c -1.266937,-0.793114 -2.819968,-1.228541 -4.419702,-1.306272 l -0.357678,-1.261675 0.01146,0.01239 c -0.01451,-0.03836 -0.02592,-0.07465 -0.03836,-0.110934 l -0.105755,-0.373232 c -0.243636,-1.079286 0.19906,-1.593528 0.42714,-1.778019 0.0394,-0.02799 0.0788,-0.05703 0.1213,-0.08501 1.047113,-0.668704 2.52861,0.403294 2.611599,0.466541 0.659374,0.612714 1.865112,0.764084 2.516197,0.136854 0.657302,-0.632416 0.501788,-1.817463 -0.154472,-2.450878 -1.023265,-0.985947 -4.167681,-2.5670007 -6.839445,-0.850134 -2.403231,1.542724 -2.451929,3.713603 -2.055914,4.969178 l 0.480014,1.697134 c -0.804515,0.222905 -1.572701,0.541179 -2.277745,0.956917 -2.631269,1.551981 -3.950057,4.178095 -3.62136,7.188864 0.341089,3.094706 2.742236,5.343422 5.715561,5.343422 3.154871,0 5.723869,-2.473703 5.723869,-5.513399 -0.0425,-0.724691 -0.03422,-0.717434 -0.133741,-1.365385 -0.09953,-0.632415 -1.069925,-3.606845 -1.069925,-3.606845 0.596127,0.132706 1.152915,0.349389 1.633919,0.649003 5.427359,3.397423 3.168334,8.805113 3.067779,9.040409 -1.49392,3.455484 -4.755551,5.518656 -8.943008,5.659602 -2.729719,0.09331 -5.345525,-0.889525 -7.365046,-2.767059 -2.129438,-1.980183 -3.350722,-4.753449 -3.350722,-7.608651 0,-4.300423 2.808502,-8.206935 6.9887,-9.717474 0.870867,-0.314129 1.572703,-1.209924 1.091698,-2.250819 -0.378408,-0.81799 -1.403777,-1.098955 -2.275642,-0.783785 -5.486472,1.982287 -9.173149,7.107979 -9.173149,12.752435 0,3.730224 1.596579,7.354738 4.379206,9.94246 2.567,2.385559 5.870074,3.683522 9.351433,3.682576 0.157586,0 0.317245,-0.0021 0.474831,-0.0083 5.480264,-0.185575 9.940356,-3.046007 11.926744,-7.637682 1.242005,-2.788832 1.933587,-9.09952 -4.334607,-13.022755"
     inkscape:connector-curvature="0"
     style="fill:#ffffff;stroke-width:0.80640948" />
</svg>
