<svg height="48" width="48" xmlns="http://www.w3.org/2000/svg"><path d="m44.322082 27.405077a19.729762 19.729765 0 0 1 -19.729762 19.729765 19.729762 19.729765 0 0 1 -19.7297621-19.729765 19.729762 19.729765 0 0 1 19.7297621-19.7297632 19.729762 19.729765 0 0 1 19.729762 19.7297632z" fill="#79828b" opacity=".99" transform="matrix(1.1503549 0 0 1.1503549 -4.486125 -7.525565)"/><path d="m44.322082 27.405077c0 10.896448-8.833315 19.729765-19.729762 19.729765v-39.4595282c10.896446 0 19.729761 8.8333152 19.729762 19.7297632z" fill="#66c769" opacity=".99" transform="matrix(1.1503549 0 0 1.1503549 -4.486125 -7.525565)"/><path d="m22.799191 13.530865v.29583c0-.09838.0079-.193628.0157-.289486-.0046-.0015-.01129-.0048-.0157-.0063m1.032081 2.734766c-.128281.000819-.257367.0019-.387054.0063-.215481.0073-.430757.02749-.645027.0441-.0018.000201-.0014-.000101-.0032 0-7.299024.587833-13.6123463 6.771467-13.6123463 6.771467s3.5740253 10.344986 13.6154313 11.293494c.482008.04652.980929.0881 1.491532.0881 5.297052 0 14.640463-2.713319 18.649978-6.069649-.588337-.596392-3.454705-1.957431-4.153504-2.517274-4.216432 3.639976-8.575847 6.715076-14.597166 6.715076-.482408 0-.944881-.03153-1.39084-.0881-7.368565-.927166-9.886846-9.053127-9.886846-9.053127s3.295817-4.867398 9.886846-5.370853c.212054-.0148.426825-.02145.645027-.02829.09324-.0029.184665-.006.276897-.0063 5.811481-.01813 9.612965 5.125771 9.612965 5.125771s-4.228818 5.881357-8.763133 5.881357c-.652576 0-1.244945-.118711-1.771556-.295827-3.139543-1.054937-4.153504-4.707303-4.153504-4.707303s1.822507-2.180261 4.153504-1.900542c2.322939.280729 2.803841 1.312004 4.200724 3.640986l3.099368-2.634074s-2.262623-2.967264-6.085758-2.967264c-.415853 0-.824258.03062-1.214334.0724-4.441477.480196-7.107774 3.436585-7.107774 3.436585s1.53896 5.794763 7.107774 6.787574c.521478.09223 1.074673.147915 1.667743.147915 6.4704 0 12.681016-7.548699 12.681016-7.548699s-5.235926-6.87417-13.316373-6.821811" fill="#fff" fill-rule="evenodd" stroke-width=".100691"/></svg>