<?xml version="1.0" encoding="UTF-8" standalone="no"?>
<svg
   xmlns:dc="http://purl.org/dc/elements/1.1/"
   xmlns:cc="http://creativecommons.org/ns#"
   xmlns:rdf="http://www.w3.org/1999/02/22-rdf-syntax-ns#"
   xmlns:svg="http://www.w3.org/2000/svg"
   xmlns="http://www.w3.org/2000/svg"
   xmlns:sodipodi="http://sodipodi.sourceforge.net/DTD/sodipodi-0.dtd"
   xmlns:inkscape="http://www.inkscape.org/namespaces/inkscape"
   height="48"
   width="48"
   version="1.1"
   id="svg10"
   sodipodi:docname="odio.svg"
   inkscape:version="0.92.4 5da689c313, 2019-01-14">
  <metadata
     id="metadata16">
    <rdf:RDF>
      <cc:Work
         rdf:about="">
        <dc:format>image/svg+xml</dc:format>
        <dc:type
           rdf:resource="http://purl.org/dc/dcmitype/StillImage" />
        <dc:title></dc:title>
      </cc:Work>
    </rdf:RDF>
  </metadata>
  <defs
     id="defs14">
    <filter
       y="0%"
       x="0%"
       height="100%"
       width="100%"
       id="alpha">
      <feColorMatrix
         id="feColorMatrix929"
         values="0 0 0 0 1 0 0 0 0 1 0 0 0 0 1 0 0 0 1 0"
         in="SourceGraphic" />
    </filter>
    <mask
       id="mask0">
      <g
         id="g934"
         filter="url(#alpha)">
        <rect
           id="rect932"
           style="fill-opacity:.2;fill:rgb(0%,0%,0%)"
           height="384"
           width="384" />
      </g>
    </mask>
    <clipPath
       id="clip1">
      <rect
         id="rect937"
         height="384"
         width="384" />
    </clipPath>
    <g
       clip-path="url(#clip1)"
       id="surface5">
      <path
         id="path940"
         style="fill:rgb(100%,100%,100%)"
         d="m162.49219 24.035156c-13.507813 0.222656-27.109376 3.160156-37.09375 8.109375-9.898438 4.90625-18.738282 14.425781-27.078126 29.167969-2.140624 3.78125-4.636718 7.363281-5.554687 7.96875s-4.285156 1.453125-7.464844 1.882812c-11.070312-0.371093-23.210937-2.757812-34.96875-5.140624 0 0-7.496093-1.949219-8.332031 6.152343 0.035156 1.367188 0.257812 2.65625 0.46875 3.953125 1.8125-5.617187 7.863281-4.105468 7.863281-4.105468 11.757813 2.382812 23.898438 4.769531 34.96875 5.140624 3.179688-0.429687 6.546875-1.277343 7.464844-1.882812s3.414063-4.199219 5.554687-7.980469c8.339844-14.738281 17.179688-24.25 27.078126-29.15625 11.414062-5.65625 27.554687-8.683593 42.871093-8.039062 18.414063 0.777343 34.054688 7.144531 46.832031 19.066406 8.777344 8.195313 14.589844 10.25 22.941407 8.097656 2.28125-0.589843 3.175781-0.746093 4.058593-0.855469 1.191407-1.652343 1.953126-3.363281 1.953126-4.816406 0-1.84375-0.136719-1.84375-6.011719-0.328125-8.351563 2.152344-14.164063 0.097657-22.941407-8.097656-12.777343-11.921875-28.417968-18.289063-46.832031-19.066406-1.914062-0.082031-3.84375-0.101563-5.777343-0.070313zm77.929687 40.328125c-0.410156 0.402344-0.800781 0.816407-1.269531 1.191407l-2.726563 2.203124 0.855469 0.503907c0.253906-0.042969 0.460938-0.101563 0.726562-0.136719 3.835938-0.554688 4.546876-1.980469 2.414063-3.761719zm-8.214844 11.644531c-0.457031 0.335938-0.785156 0.683594-0.785156 1.019532 0 0.398437 0.542969 3.835937 1.203125 7.636718 0.582031 3.355469 0.792969 7.929688 0.835938 12.710938 0.238281-6.9375-0.007813-13.949219-0.835938-18.710938-0.226562-1.316406-0.234375-1.535156-0.417969-2.65625zm-170.49609 34.195313c-5.027344 3.300781-7.902344 8.210937-13.792969 12.808594-0.917969 1.726562-0.429688 3.367187 1.171875 4.921875 6.414062-5.457032 9.296875-11.167969 16.910156-13.921875-1.464844-1.246094-2.851562-2.539063-4.289062-3.808594zm256.28906 45.820313c-5.183594 0-8.507812 3.1875-14.089844 10.699218-6.519531 8.789063-15.25 15.429688-21.347656 18.539063-9.554688 4.871093-16.882812 4.003906-34.152344-4.042969-18.273437-8.519531-30.953125-11.582031-49.15625-13.195312-1.289062-0.113282-2.777344-0.066407-4.242187-0.082032-3.976563 2.703125-8.339844 5.644532-9.011719 6.070313 0.847656 0 8.28125-0.433594 13.253906 0.011719 18.203125 1.613281 30.882813 4.675781 49.15625 13.195312 17.269532 8.046875 24.597656 8.914062 34.152344 4.042969 6.097656-3.109375 14.828125-9.75 21.347656-18.539063 5.582032-7.511718 8.90625-10.699218 14.089844-10.699218 5.074219 0 8.71875 3.347656 12.5625 9.210937 5.445312 8.304687 8.414062 14.230469 10.527344 28.699219 0.597656 4.132812 0.8125 10.640625 0.824218 17.445312 0.195313-8.976562-0.046874-18.070312-0.824218-23.445312-2.113282-14.46875-5.082032-20.394532-10.527344-28.699219-3.84375-5.863281-7.488281-9.210937-12.5625-9.210937zm-216 3.371093c-0.253906 5.238281-1.375 10.058594-4.625 16.363281-3.75 7.273438-7.84375 13.054688-15.941406 21.960938-14.582032 16.054688-24.941406 33.121094-29.496094 48.597656-1.648438 5.597656-2.285156 11.917969-2.039062 18.570313 0.222656-4.449219 0.894531-8.679688 2.039062-12.570313 4.554688-15.476562 14.914062-32.542968 29.496094-48.597656 8.097656-8.90625 12.191406-14.6875 15.941406-21.960938 4.433594-8.605468 4.96875-14.449218 4.625-22.363281z" />
    </g>
    <mask
       id="mask1">
      <g
         id="g945"
         filter="url(#alpha)">
        <rect
           id="rect943"
           style="fill-opacity:.2;fill:rgb(0%,0%,0%)"
           height="384"
           width="384" />
      </g>
    </mask>
    <clipPath
       id="clip2">
      <rect
         id="rect948"
         height="384"
         width="384" />
    </clipPath>
    <g
       clip-path="url(#clip2)"
       id="surface8">
      <path
         id="path951"
         style="fill:rgb(0%,0%,0%)"
         d="m243.25781 56.179688c-0.171874-0.011719-0.917968 0.210937-1.171874 0.246093-0.796876 1.09375-1.75 2.175781-2.929688 3.128907l-2.730469 2.203124 2.753907 1.640626c0.574218 0.339843 0.863281 0.640624 1.242187 0.960937 2.210937-2.1875 3.632813-4.71875 3.632813-6.761719 0-0.921875-0.027344-1.375-0.796876-1.417968zm-5.988281 12.082031c-3.363281 0.589843-5.847656 1.722656-5.847656 2.765625 0 0.257812 0.441406 2.878906 0.785156 4.980468 1.066407-0.785156 3.167969-1.507812 5.800781-1.886718 4.515626-0.652344 4.96875-2.46875 1.171876-4.722656zm-194.80078 7.859375c-0.199219 0.617187-0.386719 1.253906-0.46875 2.050781 0.355469 13.265625 9.480469 22.996094 19.710938 32.027344 1.269531-0.832031 2.652343-1.601563 4.289062-2.1875-10.800781-9.210938-21.386719-18.847657-23.53125-31.890625zm190.99219 21.246094c-0.230469 6.667968-0.914063 13.25-1.992188 17.625-3.410156 13.835937-8.582031 23.582031-17.402344 32.835937-6.867187 6.238281-26.257812 19.042969-28.070312 20.183594 0.632812 0 4.851562-0.136719 9.035156-0.082031 6.734375-4.582032 14.722656-10.179688 19.03125-14.097657 8.820312-9.25 13.996094-18.996093 17.402344-32.835937 1.414062-5.71875 2.066406-15.097656 1.992187-23.625zm-184.37109 30.574218c-0.414063 0.355469-0.71875 0.714844-1.171875 1.066406-1.417969 2.675782 0.214843 5.175782 4.804687 7.394532 5.921875 2.855468 11.992188 3.625 24.390625 3.035156 12.695313-0.609375 14.386719 1.269531 18.492188 4.664062 4.328125 3.601563 6.027343 7 6.394531 14.894532 0.007812 0.140625-0.003906 0.261718 0 0.398437 0.101562-2.035156 0.109375-4.132812 0-6.410156-0.367188-7.894531-2.066406-11.28125-6.394531-14.882813-4.105469-3.394531-5.796875-5.285156-18.492188-4.675781-12.398437 0.589844-18.46875-0.167969-24.390625-3.023437-1.621094-0.785156-2.753906-1.605469-3.632812-2.460938zm292.82422 89.4375c-0.175781 8.300782-0.71875 16.507813-1.617187 21.457032-11.171875 61.597656-50.480469 103.0625-110.49609 116.56641-16.195312 3.644531-22.71875 4.300781-45.160156 4.535156-11.644531 0.125-22.519531 0.085938-24.15625-0.082031v-0.011719c-37.652344-3.851562-63.890625-14.621094-83.273437-34.191406-7.828126-7.910156-13.144532-15.179688-17.5625-24.023438-5.847657-11.691406-9.1875-24.296875-9.75-35.90625-0.496094 13.167969 2.875 28.160156 9.75 41.90625 4.417968 8.84375 9.734374 16.117188 17.566406 24.023438 19.378906 19.570312 45.613281 30.355468 83.273437 34.207031 1.632813 0.167969 12.507813 0.203125 24.152344 0.082031 22.445313-0.234375 28.964844-0.890625 45.164063-4.535156 60.011718-13.5 99.324218-54.96875 110.49609-116.56641 1.121094-6.183594 1.640625-17.246094 1.617188-27.457032z" />
    </g>
    <linearGradient
       gradientUnits="userSpaceOnUse"
       y2="249.017"
       y1="515.328"
       x2="249.882"
       x1="-248.932"
       id="linearGradient1117">
      <stop
         id="stop954"
         offset="0"
         style="stop-color:#4aaee6" />
      <stop
         id="stop956"
         offset="1"
         style="stop-color:#357af0" />
    </linearGradient>
  </defs>
  <sodipodi:namedview
     pagecolor="#ffffff"
     bordercolor="#666666"
     borderopacity="1"
     objecttolerance="10"
     gridtolerance="10"
     guidetolerance="10"
     inkscape:pageopacity="0"
     inkscape:pageshadow="2"
     inkscape:window-width="1920"
     inkscape:window-height="1027"
     id="namedview12"
     showgrid="true"
     inkscape:zoom="6.9532167"
     inkscape:cx="-31.637952"
     inkscape:cy="17.41766"
     inkscape:window-x="0"
     inkscape:window-y="30"
     inkscape:window-maximized="1"
     inkscape:current-layer="svg10">
    <inkscape:grid
       type="xygrid"
       id="grid823" />
  </sodipodi:namedview>
  <g
     fill="#626c97"
     opacity=".99"
     transform="matrix(1.1503549 0 0 1.1503549 -4.486125 -7.525565)"
     id="g6"
     style="fill:#7092b9;fill-opacity:1">
    <path
       d="m44.322082 27.405077a19.729762 19.729765 0 0 1 -19.729762 19.729765 19.729762 19.729765 0 0 1 -19.7297621-19.729765 19.729762 19.729765 0 0 1 19.7297621-19.7297632 19.729762 19.729765 0 0 1 19.729762 19.7297632z"
       id="path2"
       style="fill:#7092b9;fill-opacity:1" />
    <path
       d="m44.322082 27.405077a19.729762 19.729765 0 0 1 -19.729762 19.729765 19.729762 19.729765 0 0 1 -19.7297621-19.729765 19.729762 19.729765 0 0 1 19.7297621-19.7297632 19.729762 19.729765 0 0 1 19.729762 19.7297632z"
       id="path4"
       style="fill:#7092b9;fill-opacity:1" />
  </g>
  <path
     style="opacity:1;fill:#ffffff;fill-opacity:1;stroke:none;stroke-width:5.08007002;stroke-linecap:round;stroke-linejoin:round;stroke-miterlimit:4;stroke-dasharray:none;stroke-dashoffset:0;stroke-opacity:1;paint-order:fill markers stroke"
     d="M 23.804688 6.2363281 C 13.634224 6.2363284 5.3886722 14.48188 5.3886719 24.652344 L 42.21875 24.652344 C 42.21875 14.48188 33.975152 6.2363281 23.804688 6.2363281 z M 15.882812 13.203125 C 16.120365 13.203125 16.309859 13.36101 16.451172 13.679688 C 16.592485 13.996266 16.664063 14.460358 16.664062 15.068359 L 16.664062 16.052734 C 16.664062 16.662832 16.592485 17.124826 16.451172 17.441406 C 16.311077 17.75589 16.123053 17.914063 15.886719 17.914062 C 15.647948 17.914062 15.45772 17.75589 15.316406 17.441406 C 15.175093 17.124826 15.105469 16.662832 15.105469 16.052734 L 15.105469 15.068359 C 15.105469 14.460358 15.174358 13.996266 15.314453 13.679688 C 15.455766 13.36101 15.645261 13.203125 15.882812 13.203125 z M 21.039062 13.203125 C 21.282706 13.203125 21.472935 13.323206 21.609375 13.566406 C 21.745815 13.809607 21.814453 14.141236 21.814453 14.560547 C 21.814453 14.841485 21.775967 15.10279 21.699219 15.341797 C 21.623689 15.580804 21.496219 15.891578 21.318359 16.277344 L 20.970703 17.132812 L 21.871094 17.132812 L 21.871094 17.847656 L 20.298828 17.847656 L 20.298828 17.240234 L 21.025391 15.658203 C 21.12163 15.423389 21.189049 15.218936 21.230469 15.044922 C 21.273106 14.870908 21.294922 14.712879 21.294922 14.570312 C 21.294922 14.375334 21.272371 14.219113 21.228516 14.099609 C 21.18466 13.980106 21.121901 13.919922 21.039062 13.919922 C 20.953787 13.919922 20.888089 13.992056 20.841797 14.136719 C 20.796723 14.281381 20.773438 14.470264 20.773438 14.705078 L 20.267578 14.705078 L 20.263672 14.689453 C 20.258799 14.274335 20.327437 13.923947 20.46875 13.636719 C 20.610063 13.347394 20.800292 13.203125 21.039062 13.203125 z M 24.798828 13.203125 C 25.036381 13.203125 25.225874 13.36101 25.367188 13.679688 C 25.508501 13.996266 25.580078 14.460358 25.580078 15.068359 L 25.580078 16.052734 C 25.580078 16.662832 25.508501 17.124826 25.367188 17.441406 C 25.227092 17.75589 25.039069 17.914063 24.802734 17.914062 C 24.563964 17.914062 24.373735 17.75589 24.232422 17.441406 C 24.091109 17.124826 24.021484 16.662832 24.021484 16.052734 L 24.021484 15.068359 C 24.021484 14.460358 24.090374 13.996266 24.230469 13.679688 C 24.371782 13.36101 24.561276 13.203125 24.798828 13.203125 z M 30.230469 13.203125 C 30.471676 13.203125 30.664844 13.316397 30.808594 13.544922 C 30.952344 13.77135 31.023438 14.092696 31.023438 14.507812 C 31.023438 14.715371 30.991817 14.90773 30.929688 15.085938 C 30.867558 15.262048 30.78225 15.399509 30.673828 15.498047 C 30.798086 15.586102 30.893201 15.723563 30.958984 15.910156 C 31.024768 16.094653 31.058594 16.314533 31.058594 16.570312 C 31.058594 16.987527 30.980151 17.31568 30.824219 17.554688 C 30.669505 17.793695 30.470941 17.914062 30.228516 17.914062 C 30.015327 17.914062 29.833182 17.800503 29.679688 17.576172 C 29.526192 17.349744 29.45094 17.028686 29.457031 16.609375 L 29.460938 16.589844 L 29.964844 16.589844 C 29.964844 16.765954 29.993273 16.912033 30.046875 17.027344 C 30.100477 17.142654 30.16691 17.199219 30.246094 17.199219 C 30.336242 17.199219 30.406601 17.142654 30.458984 17.027344 C 30.512586 16.909937 30.539062 16.753573 30.539062 16.558594 C 30.539062 16.315393 30.513321 16.138461 30.460938 16.027344 C 30.409772 15.91413 30.333534 15.857422 30.232422 15.857422 L 29.972656 15.857422 L 29.972656 15.164062 L 30.232422 15.164062 C 30.325006 15.164063 30.394379 15.107355 30.439453 14.994141 C 30.484527 14.880927 30.505859 14.722897 30.505859 14.519531 C 30.505859 14.341324 30.484527 14.197055 30.439453 14.085938 C 30.394379 13.97482 30.330151 13.919922 30.246094 13.919922 C 30.177874 13.919922 30.118306 13.969821 30.068359 14.068359 C 30.019631 14.166897 29.994141 14.29574 29.994141 14.455078 L 29.492188 14.455078 L 29.488281 14.435547 C 29.48219 14.072843 29.551564 13.777353 29.695312 13.548828 C 29.840281 13.318207 30.018499 13.203125 30.230469 13.203125 z M 34.003906 13.203125 C 34.241459 13.203125 34.430952 13.36101 34.572266 13.679688 C 34.713579 13.996266 34.785156 14.460358 34.785156 15.068359 L 34.785156 16.052734 C 34.785156 16.662832 34.713579 17.124826 34.572266 17.441406 C 34.43217 17.75589 34.244147 17.914063 34.007812 17.914062 C 33.769042 17.914062 33.578813 17.75589 33.4375 17.441406 C 33.296187 17.124826 33.226562 16.662832 33.226562 16.052734 L 33.226562 15.068359 C 33.226562 14.460358 33.295452 13.996266 33.435547 13.679688 C 33.57686 13.36101 33.766354 13.203125 34.003906 13.203125 z M 12.476562 13.265625 L 12.476562 17.847656 L 11.957031 17.847656 L 11.957031 14.203125 L 11.464844 14.220703 L 11.464844 13.576172 L 12.476562 13.265625 z M 14.339844 13.265625 L 14.339844 17.847656 L 13.822266 17.847656 L 13.822266 14.203125 L 13.328125 14.220703 L 13.328125 13.576172 L 14.339844 13.265625 z M 23.257812 13.265625 L 23.257812 17.847656 L 22.738281 17.847656 L 22.738281 14.203125 L 22.244141 14.220703 L 22.244141 13.576172 L 23.257812 13.265625 z M 32.460938 13.265625 L 32.460938 17.847656 L 31.943359 17.847656 L 31.943359 14.203125 L 31.449219 14.220703 L 31.449219 13.576172 L 32.460938 13.265625 z M 15.876953 13.941406 C 15.795332 13.930923 15.733309 14.009866 15.689453 14.179688 C 15.645597 14.349508 15.623047 14.619288 15.623047 14.988281 L 15.623047 16.125 C 15.623047 16.498187 15.646332 16.769489 15.691406 16.941406 C 15.73648 17.111227 15.799239 17.190314 15.880859 17.177734 L 15.892578 17.177734 C 15.972981 17.190314 16.034269 17.111227 16.078125 16.941406 C 16.121981 16.771585 16.144531 16.500283 16.144531 16.125 L 16.144531 14.988281 C 16.144531 14.619288 16.121246 14.349507 16.076172 14.179688 C 16.031098 14.009867 15.969074 13.930923 15.888672 13.941406 L 15.876953 13.941406 z M 24.794922 13.941406 C 24.713301 13.930923 24.649325 14.009866 24.605469 14.179688 C 24.561613 14.349508 24.541016 14.619288 24.541016 14.988281 L 24.541016 16.125 C 24.541016 16.498187 24.562348 16.769489 24.607422 16.941406 C 24.652496 17.111227 24.717207 17.190314 24.798828 17.177734 L 24.808594 17.177734 C 24.888996 17.190314 24.952238 17.111227 24.996094 16.941406 C 25.03995 16.771585 25.060547 16.500283 25.060547 16.125 L 25.060547 14.988281 C 25.060547 14.619288 25.039215 14.349507 24.994141 14.179688 C 24.949067 14.009867 24.88509 13.930923 24.804688 13.941406 L 24.794922 13.941406 z M 33.998047 13.941406 C 33.916426 13.930923 33.854403 14.009866 33.810547 14.179688 C 33.766691 14.349508 33.744141 14.619288 33.744141 14.988281 L 33.744141 16.125 C 33.744141 16.498187 33.767426 16.769489 33.8125 16.941406 C 33.857574 17.111227 33.920332 17.190314 34.001953 17.177734 L 34.013672 17.177734 C 34.094074 17.190314 34.155363 17.111227 34.199219 16.941406 C 34.243075 16.771585 34.265625 16.500283 34.265625 16.125 L 34.265625 14.988281 C 34.265625 14.619288 34.24234 14.349507 34.197266 14.179688 C 34.152192 14.009867 34.090168 13.930923 34.009766 13.941406 L 33.998047 13.941406 z "
     id="path836" />
  <path
     style="fill:#7092b9;stroke:#7092b9;stroke-width:1px;stroke-linecap:butt;stroke-linejoin:miter;stroke-opacity:1;fill-opacity:1"
     d="M 8,25 V 22"
     id="path839"
     inkscape:connector-curvature="0" />
  <path
     style="fill:#7092b9;stroke:#7092b9;stroke-width:1px;stroke-linecap:butt;stroke-linejoin:miter;stroke-opacity:1;fill-opacity:1"
     d="M 11,25 V 22"
     id="path841"
     inkscape:connector-curvature="0" />
  <path
     style="fill:#7092b9;stroke:#7092b9;stroke-width:1px;stroke-linecap:butt;stroke-linejoin:miter;stroke-opacity:1;fill-opacity:1"
     d="M 14,25 V 19"
     id="path843"
     inkscape:connector-curvature="0"
     sodipodi:nodetypes="cc" />
  <path
     style="fill:#7092b9;stroke:#7092b9;stroke-width:1px;stroke-linecap:butt;stroke-linejoin:miter;stroke-opacity:1;fill-opacity:1"
     d="M 17,25 V 22"
     id="path845"
     inkscape:connector-curvature="0" />
  <path
     style="fill:#7092b9;stroke:#7092b9;stroke-width:1px;stroke-linecap:butt;stroke-linejoin:miter;stroke-opacity:1;fill-opacity:1"
     d="M 20,25 V 22"
     id="path847"
     inkscape:connector-curvature="0" />
  <path
     style="fill:#7092b9;stroke:#7092b9;stroke-width:1px;stroke-linecap:butt;stroke-linejoin:miter;stroke-opacity:1;fill-opacity:1"
     d="M 23,25 V 19"
     id="path849"
     inkscape:connector-curvature="0"
     sodipodi:nodetypes="cc" />
  <path
     style="fill:#7092b9;stroke:#7092b9;stroke-width:1px;stroke-linecap:butt;stroke-linejoin:miter;stroke-opacity:1;fill-opacity:1"
     d="M 26,25 V 22"
     id="path851"
     inkscape:connector-curvature="0" />
  <path
     style="fill:#7092b9;stroke:#7092b9;stroke-width:1px;stroke-linecap:butt;stroke-linejoin:miter;stroke-opacity:1;fill-opacity:1"
     d="M 29,25 V 22"
     id="path853"
     inkscape:connector-curvature="0" />
  <path
     style="fill:#7092b9;stroke:#7092b9;stroke-width:1px;stroke-linecap:butt;stroke-linejoin:miter;stroke-opacity:1;fill-opacity:1"
     d="M 32,25 V 19"
     id="path855"
     inkscape:connector-curvature="0"
     sodipodi:nodetypes="cc" />
  <path
     style="fill:#7092b9;stroke:#7092b9;stroke-width:1px;stroke-linecap:butt;stroke-linejoin:miter;stroke-opacity:1;fill-opacity:1"
     d="M 35,25 V 22"
     id="path857"
     inkscape:connector-curvature="0" />
  <path
     style="fill:#7092b9;stroke:#7092b9;stroke-width:1px;stroke-linecap:butt;stroke-linejoin:miter;stroke-opacity:1;fill-opacity:1"
     d="M 38,25 V 22"
     id="path859"
     inkscape:connector-curvature="0" />
  <path
     style="fill:#7092b9;stroke:#7092b9;stroke-width:1px;stroke-linecap:butt;stroke-linejoin:miter;stroke-opacity:1;fill-opacity:1"
     d="M 41,25 V 21"
     id="path861"
     inkscape:connector-curvature="0"
     sodipodi:nodetypes="cc" />
  <circle
     style="opacity:1;fill:#ffffff;fill-opacity:1;stroke:none;stroke-width:4;stroke-linecap:round;stroke-linejoin:round;stroke-miterlimit:4;stroke-dasharray:none;stroke-dashoffset:0;stroke-opacity:1;paint-order:fill markers stroke"
     id="path877"
     cx="23.80377"
     cy="33.840477"
     r="4.7033896" />
</svg>
