<svg height="48" width="48" xmlns="http://www.w3.org/2000/svg"><path d="m44.322082 27.405077a19.729762 19.729765 0 0 1 -19.729762 19.729765 19.729762 19.729765 0 0 1 -19.7297621-19.729765 19.729762 19.729765 0 0 1 19.7297621-19.7297632 19.729762 19.729765 0 0 1 19.729762 19.7297632z" fill="#788bb6" opacity=".99" transform="matrix(1.1503549 0 0 1.1503549 -4.486125 -7.525565)"/><g fill="#fff"><path d="m10.5 20.1 13.5-6 13.5 6-13.5 4.5z"/><path d="m10.5 24.6 13.5-6 13.5 6-13.5 4.5z" fill-opacity=".633721"/><path d="m10.5 29.1 13.5-6 13.5 6-13.5 4.5z" fill-opacity=".575581"/></g></svg>