<svg height="48" width="48" xmlns="http://www.w3.org/2000/svg"><rect fill="#50b77e" height="42.5" ry="2.5" width="32.5" x="7.5" y="3"/><path d="m10.5 4h26.5c1.108 0 2 .892 2 2v16.857143 7.642857c0 1.108-.892 2-2 2h-26.5c-1.108 0-2-.892-2-2v-24.5c0-1.108.892-2 2-2z" fill="#fff"/><path d="m40 22.928572v1.321428 18.75c0 1.385-1.115 2.5-2.5 2.5h-27.5c-1.385 0-2.5-1.115-2.5-2.5v-18.75-1.178571z" fill="#50b77e"/><path d="m33.75 27.8125c-1.25.0625-2.5.4375-3.75 1.1875-3-1-5-.5-7.5.5 3.5 0 5.5 0 7.5 1.5 1.964289-1.101337 4.149534-2.52339 7.5-2.5-1.25-.5-2.5-.75-3.75-.6875zm-1.519531 5.177734c-2.036133-.107422-4.730469.322266-7.230469 2.509766-4.356073-2.010383-9-2-12.5.5 4.528257-.703915 9.004479 1.035826 12.5 2.5 2-3 6.5-5 10-5-.5625-.1875-1.547852-.445312-2.769531-.509766z" fill="#fff"/><path d="m15 8v12.5h17.5v-12.5z" fill="none" stroke="#50b77e" stroke-width="2"/><g fill="#50b77e"><path d="m22.5 8h2.5v12.5h-2.5z"/><path d="m15 13h17.5v2.5h-17.5z"/></g></svg>