<svg height="48" width="48" xmlns="http://www.w3.org/2000/svg"><g fill="#ce6f62" opacity=".99" transform="matrix(1.1503549 0 0 1.1503549 -4.486125 -7.525565)"><path d="m44.322082 27.405077a19.729762 19.729765 0 0 1 -19.729762 19.729765 19.729762 19.729765 0 0 1 -19.7297621-19.729765 19.729762 19.729765 0 0 1 19.7297621-19.7297632 19.729762 19.729765 0 0 1 19.729762 19.7297632z"/><path d="m44.322082 27.405077a19.729762 19.729765 0 0 1 -19.729762 19.729765 19.729762 19.729765 0 0 1 -19.7297621-19.729765 19.729762 19.729765 0 0 1 19.7297621-19.7297632 19.729762 19.729765 0 0 1 19.729762 19.7297632z"/></g><g fill="#fff" transform="translate(.010028 .251997)"><path d="m129.5 188.333-71.833 49.334 25-83.667-67.667-51.667 85.333-2 30.167-81 27.5 81 85 2.334-67.181 52.009 23.848 82.991z" fill-opacity=".321429" transform="matrix(.1728288 0 0 .1728288 1.498828 .256186)"/><path d="m14.576265 21.168471c-.05755.288106 2.9571 3.415616 3.226195 3.341299.148633-.04096 2.419603-2.131496 2.419603-2.131496l5.933732 6.394665s-1.613011.921695-3.3413.748866c-1.728287-.172829-2.747977-.879525-4.723929-3.053193-.576211-.633763-1.440356.40321-1.440356.40321l-1.036972-.05755s-1.267354.460762-.864144 1.267353c.244379.48876-5.9589648 2.545596-3.571853 5.300141 2.246774 2.592432 5.069587-2.76526 5.472969-3.053367.403382-.288105 3.686957 6.567495 12.846884 2.419604 0 0 1.259058 1.312807 1.382631 1.322658.179395.01452 3.283747-2.748495 3.283747-2.993394 0-.208778-1.728289-1.843392-1.728289-1.843392s4.14789-4.896932-.543719-11.975308c-.343757-.518659-2.117671-2.867921-4.504264-4.415258-1.384186-.897327-3.143756-1.952101-5.840231-2.8511569-.864144-.2881051 1.034207 1.2789339 3.122325 3.3869269 1.221208 1.23296 2.334054 2.730695 3.099512 3.756607 2.707708 3.629405 2.358594 6.988679 1.325079 8.641439 0 0-3.081884-3.309671-5.87618-6.337113 0 0 2.56357-2.53488 2.419603-2.707708-.451774-.542511-.404938-.578286-.921868-.921698 0 0-.619765.192878-1.55978.228481-1.326635.05029-3.119733-.04096-3.221703.05945-.346521.34151-5.271278 4.637862-5.357692 5.069933z"/></g></svg>