<?xml version="1.0" encoding="UTF-8" standalone="no"?>
<svg
   xmlns:dc="http://purl.org/dc/elements/1.1/"
   xmlns:cc="http://creativecommons.org/ns#"
   xmlns:rdf="http://www.w3.org/1999/02/22-rdf-syntax-ns#"
   xmlns:svg="http://www.w3.org/2000/svg"
   xmlns="http://www.w3.org/2000/svg"
   xmlns:sodipodi="http://sodipodi.sourceforge.net/DTD/sodipodi-0.dtd"
   xmlns:inkscape="http://www.inkscape.org/namespaces/inkscape"
   height="48"
   width="48"
   version="1.1"
   id="svg8"
   sodipodi:docname="opera.svg"
   inkscape:version="0.92.1 r15371">
  <metadata
     id="metadata14">
    <rdf:RDF>
      <cc:Work
         rdf:about="">
        <dc:format>image/svg+xml</dc:format>
        <dc:type
           rdf:resource="http://purl.org/dc/dcmitype/StillImage" />
      </cc:Work>
    </rdf:RDF>
  </metadata>
  <defs
     id="defs12" />
  <sodipodi:namedview
     pagecolor="#ffffff"
     bordercolor="#666666"
     borderopacity="1"
     objecttolerance="10"
     gridtolerance="10"
     guidetolerance="10"
     inkscape:pageopacity="0"
     inkscape:pageshadow="2"
     inkscape:window-width="814"
     inkscape:window-height="480"
     id="namedview10"
     showgrid="false"
     inkscape:zoom="4.9166667"
     inkscape:cx="24"
     inkscape:cy="24"
     inkscape:window-x="0"
     inkscape:window-y="0"
     inkscape:window-maximized="0"
     inkscape:current-layer="svg8" />
  <circle
     cx="23.940615"
     cy="31.534513"
     fill="#fa706b"
     opacity=".99"
     r="13.232998"
     transform="matrix(1.72140702696 0 0 1.72140725788 -17.2289093957 -30.06939350282)"
     id="circle2"
     style="fill:#e791a8;fill-opacity:1" />
  <path
     d="m24.458984 9.095703a14.906854 14.642858 0 0 0 -14.90625 14.642579 14.906854 14.642858 0 0 0 14.90625 14.642578 14.906854 14.642858 0 0 0 14.90625-14.642578 14.906854 14.642858 0 0 0 -14.90625-14.642579zm.101563 4.283204a7.5606599 10.353553 0 0 1 7.560547 10.353515 7.5606599 10.353553 0 0 1 -7.560547 10.353516 7.5606599 10.353553 0 0 1 -7.560547-10.353516 7.5606599 10.353553 0 0 1 7.560547-10.353515z"
     fill="#fff"
     fill-opacity=".464789"
     id="path4" />
  <path
     d="m24.474609 9.085938a14.889087 14.661675 0 0 0 -14.888672 14.662109 14.889087 14.661675 0 0 0 14.888672 14.66211 14.889087 14.661675 0 0 0 9.525391-3.410157 11.959643 12.388832 0 0 1 -5.080078 1.1875 11.959643 12.388832 0 0 1 -11.960938-12.388672 11.959643 12.388832 0 0 1 11.960938-12.388671 11.959643 12.388832 0 0 1 5.382812 1.339843 14.889087 14.661675 0 0 0 -9.828125-3.664062z"
     fill="#f0ffff"
     id="path6" />
</svg>
