<svg height="48" width="48" xmlns="http://www.w3.org/2000/svg"><circle cx="23.940615" cy="31.534513" fill="#6ba4fa" opacity=".99" r="13.232998" transform="matrix(1.72140702696 0 0 1.72140725788 -17.2289093957 -30.06939350282)"/><path d="m24.458984 9.095703a14.906854 14.642858 0 0 0 -14.90625 14.642579 14.906854 14.642858 0 0 0 14.90625 14.642578 14.906854 14.642858 0 0 0 14.90625-14.642578 14.906854 14.642858 0 0 0 -14.90625-14.642579zm.101563 4.283204a7.5606599 10.353553 0 0 1 7.560547 10.353515 7.5606599 10.353553 0 0 1 -7.560547 10.353516 7.5606599 10.353553 0 0 1 -7.560547-10.353516 7.5606599 10.353553 0 0 1 7.560547-10.353515z" fill="#fff" fill-opacity=".464789"/><path d="m24.474609 9.085938a14.889087 14.661675 0 0 0 -14.888672 14.662109 14.889087 14.661675 0 0 0 14.888672 14.66211 14.889087 14.661675 0 0 0 9.525391-3.410157 11.959643 12.388832 0 0 1 -5.080078 1.1875 11.959643 12.388832 0 0 1 -11.960938-12.388672 11.959643 12.388832 0 0 1 11.960938-12.388671 11.959643 12.388832 0 0 1 5.382812 1.339843 14.889087 14.661675 0 0 0 -9.828125-3.664062z" fill="#f0ffff"/></svg>