<svg height="48" width="48" xmlns="http://www.w3.org/2000/svg"><path d="m45 4v40.547297c0 .804798-.647905 1.452703-1.452703 1.452703h-40.0945941c-.8047974 0-1.4527029-.647905-1.4527029-1.452703v-40.547297l2.6875 4 2.6875-4 2.6875 4 2.6875-4 2.6875 4 2.6875-4 2.6875 4 2.6875-4 2.6875 4 2.6875-4 2.6875 4 2.6875-4 2.6875 4 2.6875-4 2.6875 4z" fill="#6f8a91"/><path d="m4 24h12v12h-12z" fill="#fff" fill-opacity=".440415"/><g fill="none" stroke="#fff" stroke-linecap="round" stroke-width="2.1"><path d="m20 32h8"/><path d="m33 32h3"/><path d="m39 32h2"/><path d="m20 36h13"/><path d="m36 36h3"/><path d="m4 40h23"/></g><text style="font-size:16.191881;font-family:Abyssinica SIL;letter-spacing:0;word-spacing:0;fill:#fff;stroke-width:.404797" x="4.09719" y="21.88682"><tspan fill="#fff" stroke-width=".404797" x="4.09719" y="21.88682">News</tspan></text></svg>