<?xml version="1.0" encoding="UTF-8" standalone="no"?>
<svg
   xmlns:dc="http://purl.org/dc/elements/1.1/"
   xmlns:cc="http://creativecommons.org/ns#"
   xmlns:rdf="http://www.w3.org/1999/02/22-rdf-syntax-ns#"
   xmlns:svg="http://www.w3.org/2000/svg"
   xmlns="http://www.w3.org/2000/svg"
   xmlns:xlink="http://www.w3.org/1999/xlink"
   xmlns:sodipodi="http://sodipodi.sourceforge.net/DTD/sodipodi-0.dtd"
   xmlns:inkscape="http://www.inkscape.org/namespaces/inkscape"
   version="1.1"
   preserveAspectRatio="xMidYMid meet"
   viewBox="0 0 480 480"
   width="48"
   height="48"
   id="svg81"
   sodipodi:docname="org.kde.marble.svg"
   inkscape:version="0.92.3 (2405546, 2018-03-11)">
  <metadata
     id="metadata85">
    <rdf:RDF>
      <cc:Work
         rdf:about="">
        <dc:format>image/svg+xml</dc:format>
        <dc:type
           rdf:resource="http://purl.org/dc/dcmitype/StillImage" />
        <dc:title></dc:title>
      </cc:Work>
    </rdf:RDF>
  </metadata>
  <sodipodi:namedview
     pagecolor="#ffffff"
     bordercolor="#666666"
     borderopacity="1"
     objecttolerance="10"
     gridtolerance="10"
     guidetolerance="10"
     inkscape:pageopacity="0"
     inkscape:pageshadow="2"
     inkscape:window-width="1918"
     inkscape:window-height="1020"
     id="namedview83"
     showgrid="false"
     inkscape:zoom="11.313709"
     inkscape:cx="-8.4444273"
     inkscape:cy="23.800027"
     inkscape:window-x="0"
     inkscape:window-y="30"
     inkscape:window-maximized="1"
     inkscape:current-layer="svg81" />
  <defs
     id="defs11">
    <path
       d="M 470.44,566.69 C 427.92,590.72 223.32,590.81 180.55,566.94 119.76,533 72.58,478.37 48.99,412.86 38.23,382.99 67.95,160.48 124.9,108.12 177.35,59.88 247.94,30.34 325.58,30.34 c 161.93,0 290.83,128.52 290.83,287.06 0,106.71 -58.4,199.82 -145.97,249.29 z"
       id="c8j5TY2yQ"
       inkscape:connector-curvature="0" />
    <path
       d="m 303.58,126.72 c 10.64,0 19.27,-8.43 19.27,-18.83 0,-10.4 -8.63,-18.83 -19.27,-18.83 -3.86,0 -34.7,0 -38.56,0 -10.64,0 -19.27,8.43 -19.27,18.83 0,10.4 8.63,18.83 19.27,18.83 7.72,0 30.85,0 38.56,0 z"
       id="bFZqX3lTF"
       inkscape:connector-curvature="0" />
    <path
       d="m 204.95,501.27 c 10.64,0 19.28,-8.43 19.28,-18.83 0,-10.4 -8.64,-18.83 -19.28,-18.83 -3.86,0 -34.7,0 -38.55,0 -10.65,0 -19.28,8.43 -19.28,18.83 0,10.4 8.63,18.83 19.28,18.83 7.71,0 30.84,0 38.55,0 z"
       id="cKERSkAeb"
       inkscape:connector-curvature="0" />
    <path
       d="m 46.97,409.12 c 17.8,0 160.2,0 178,0 21.5,0 38.93,-16.85 38.93,-37.65 0,-20.8 -17.43,-37.65 -38.93,-37.65 -5.83,0 -52.55,0 -58.39,0 -10.75,0 -19.46,-8.43 -19.46,-18.83 0,-10.4 8.71,-18.83 19.46,-18.83 5.84,0 52.56,0 58.39,0 21.5,0 38.93,-16.86 38.93,-37.65 0,-20.8 -17.43,-37.66 -38.93,-37.66 -9.73,0 -87.58,0 -97.31,0 -10.76,0 -19.47,-8.43 -19.47,-18.82 0,-10.4 8.71,-18.83 19.47,-18.83 3.89,0 35.03,0 38.92,0 21.5,0 38.93,-16.86 38.93,-37.65 0,-20.8 -17.43,-37.66 -38.93,-37.66 -4.27,0 -38.48,0 -42.75,0 -57.5,51.58 -93.49,125.27 -93.49,207.1 0,33.01 5.87,64.69 16.63,94.13 z"
       id="a29DGWoP7"
       inkscape:connector-curvature="0" />
    <path
       d="m 469.67,567.61 c -4.35,-21.89 -24.03,-38.41 -47.66,-38.41 -1.94,0 -17.48,0 -19.43,0 0,-21 -17.39,-38.03 -38.85,-38.03 -7.77,0 -69.94,0 -77.71,0 -21.46,0 -38.85,17.03 -38.85,38.03 -1.95,0 -17.49,0 -19.43,0 -23.63,0 -43.31,16.52 -47.66,38.41 42.65,23.95 92.09,37.65 144.79,37.65 52.71,0 102.15,-13.7 144.8,-37.65 z"
       id="b6m8VAKUkP"
       inkscape:connector-curvature="0" />
    <path
       d="m 404.05,552.4 c 10.64,0 19.28,-8.43 19.28,-18.83 0,-10.4 -8.63,-18.83 -19.28,-18.83 -3.86,0 -34.7,0 -38.55,0 -10.65,0 -19.28,8.43 -19.28,18.83 0,10.4 8.63,18.83 19.28,18.83 7.71,0 30.84,0 38.55,0 z"
       id="a1FY8i5Bh"
       inkscape:connector-curvature="0" />
    <path
       d="m 423.38,151.06 c 3.51,0 31.59,0 35.1,0 9.69,0 17.55,8.29 17.55,18.52 0,10.23 -7.86,18.52 -17.55,18.52 -7.02,0 -63.17,0 -70.19,0 -19.39,0 -35.1,16.59 -35.1,37.04 0,20.46 15.71,37.05 35.1,37.05 15.79,0 142.14,0 157.93,0 9.69,0 17.55,8.29 17.55,18.52 0,10.23 -7.86,18.52 -17.55,18.52 -7.02,0 -63.17,0 -70.19,0 -19.39,0 -35.1,16.58 -35.1,37.04 0,20.45 15.71,37.04 35.1,37.04 7.02,0 63.17,0 70.19,0 9.69,0 17.55,8.29 17.55,18.52 0,10.23 -7.86,18.52 -17.55,18.52 -3.51,0 -31.59,0 -35.09,0 -19.39,0 -35.1,16.58 -35.1,37.04 0,20.46 15.71,37.04 35.1,37.04 5.26,0 47.39,0 52.65,0 33.05,-46.43 52.63,-104.14 52.63,-166.68 0,-102.92 -53.03,-192.77 -131.82,-240.77 -6.12,0 -55.09,0 -61.21,0 -19.38,0 -35.09,16.58 -35.09,37.04 0,20.46 15.71,37.04 35.09,37.04 z"
       id="c7GwQZUIj"
       inkscape:connector-curvature="0" />
    <path
       d="m 344.3,229.58 20,90.56 h -40 -40 l 20,-90.56 20,-90.56 z"
       id="czlIFIfmG"
       inkscape:connector-curvature="0" />
    <path
       d="m 344.3,410.71 20,-90.57 h -40 -40 l 20,90.57 20,90.56 z"
       id="g3s5fX1Q8e"
       inkscape:connector-curvature="0" />
  </defs>
  <g
     id="g1060"
     transform="matrix(0.75522388,0,0,0.75522388,576.18384,72.644023)">
    <circle
       r="296.10095"
       cy="224.55765"
       cx="-444.59338"
       id="path970"
       style="opacity:1;fill:#76b3e4;fill-opacity:1;stroke:none;stroke-width:3.66120219;stroke-linecap:butt;stroke-linejoin:round;stroke-miterlimit:4;stroke-dasharray:none;stroke-opacity:1" />
    <circle
       r="267.28589"
       cy="224.55765"
       cx="-444.59338"
       id="path968"
       style="opacity:1;fill:#ffffff;fill-opacity:0.45197742;stroke:none;stroke-width:4.8383913;stroke-linecap:butt;stroke-linejoin:round;stroke-miterlimit:4;stroke-dasharray:none;stroke-opacity:1" />
    <path
       inkscape:connector-curvature="0"
       id="rect992"
       d="m -336.64062,-15 c -20.21585,0 -36.48438,16.2685205 -36.48438,36.48438 0,20.01476 15.96261,36.12573 35.89844,36.44531 h 31.79687 c 10.58914,0 19.1211,8.53195 19.1211,19.12109 0,10.58914 -8.53196,19.1211 -19.1211,19.1211 h -17.4414 c 0.002,0.023 -0.002,0.055 0,0.078 h -49.39453 c -20.21585,0 -36.48438,16.26853 -36.48438,36.48438 0,20.21581 16.26854,36.5039 36.48438,36.5039 h 81.30859 c 0.067,-6.8e-4 0.1285,-0.02 0.1953,-0.02 h 72.96875 c 10.58914,0 19.10156,8.53196 19.10156,19.12109 0,10.58914 -8.51242,19.1211 -19.10156,19.1211 h -43.65234 v 0.0396 h -22.94922 c -20.21584,0 -36.48438,16.26853 -36.48438,36.48438 0,20.21582 16.26854,36.5039 36.48438,36.5039 h 36.44531 30.3125 c 10.58914,0 19.12108,8.51243 19.1211,19.10156 -2e-5,10.58914 -8.53196,19.1211 -19.1211,19.1211 h -23.24219 v 0.039 h -9.51171 c -20.21585,0 -36.48438,16.26853 -36.48438,36.48438 0,20.21582 16.26854,36.5039 36.48438,36.5039 h 14.04296 A 267.28589,267.28589 0 0 0 -177.30469,224.55078 267.28589,267.28589 0 0 0 -326.79688,-15 Z m -161.03516,10.7421905 c -10.65035,0 -19.21875,8.56839 -19.21875,19.2187495 0,10.65035 8.5684,19.21875 19.21875,19.21875 h 39.0039 c 10.65036,0 19.23829,-8.5684 19.23829,-19.21875 0,-10.6503595 -8.58793,-19.2187495 -19.23829,-19.2187495 z M -610.95703,15.37109 a 267.28589,267.28589 0 0 0 -100.91797,209.17969 267.28589,267.28589 0 0 0 16.5625,92.07031 h 159.16016 c 20.77345,0 37.5,-16.72655 37.5,-37.5 0,-20.6396 -16.52211,-37.24731 -37.10938,-37.46093 h -60.66406 c -10.47162,0 -18.90625,-8.43463 -18.90625,-18.90625 v -0.3906 c 0,-10.47162 8.43463,-18.90625 18.90625,-18.90625 h 60.54687 c 20.58728,-0.2136 37.10938,-16.82133 37.10938,-37.46094 0,-20.77345 -16.72655,-37.5 -37.5,-37.5 h -0.9375 c -0.067,6.9e-4 -0.1285,0.02 -0.1953,0.02 h -97.94922 c -10.47163,0 -18.90625,-8.43463 -18.90625,-18.90624 v -0.3906 c 0,-10.47162 8.43462,-18.90625 18.90625,-18.90625 h 44.76562 c -0.02,-0.1214 -0.019,-0.2499 -0.039,-0.3711 18.71804,-2.13472 33.22266,-17.76251 33.22266,-37.07032 0,-20.77345 -16.72655,-37.5 -37.5,-37.5 z m 16.05469,356.89453 c -10.65036,10e-6 -19.21875,8.58793 -19.21875,19.23829 0,10.65035 8.56839,19.21875 19.21875,19.21875 h 39.0039 c 10.65036,0 19.23828,-8.5684 19.23828,-19.21875 0,-10.65036 -8.58792,-19.23828 -19.23828,-19.23829 z m 197.10937,49.49219 c -10.65035,0 -19.21875,8.58793 -19.21875,19.23828 0,10.65036 8.5684,19.21875 19.21875,19.21875 h 39.00391 c 10.65035,0 19.21875,-8.56839 19.21875,-19.21875 0,-10.65035 -8.5684,-19.23828 -19.21875,-19.23828 z"
       style="opacity:1;fill:#ffffff;fill-opacity:1;stroke:none;stroke-width:4;stroke-linecap:butt;stroke-linejoin:round;stroke-miterlimit:4;stroke-dasharray:none;stroke-opacity:1" />
    <g
       transform="translate(7.3566162,-190.58735)"
       id="g1050">
      <g
         id="g71"
         transform="translate(-776.25,95)">
        <use
           xlink:href="#czlIFIfmG"
           id="use69"
           style="opacity:1;fill:#536c88;fill-opacity:1"
           x="0"
           y="0"
           width="100%"
           height="100%" />
      </g>
      <g
         id="g75"
         transform="translate(-776.25,95)">
        <use
           xlink:href="#g3s5fX1Q8e"
           id="use73"
           style="opacity:1;fill:#e0c165;fill-opacity:1"
           x="0"
           y="0"
           width="100%"
           height="100%" />
      </g>
    </g>
  </g>
</svg>
