<?xml version="1.0" encoding="UTF-8" standalone="no"?>
<svg
   xmlns:dc="http://purl.org/dc/elements/1.1/"
   xmlns:cc="http://creativecommons.org/ns#"
   xmlns:rdf="http://www.w3.org/1999/02/22-rdf-syntax-ns#"
   xmlns:svg="http://www.w3.org/2000/svg"
   xmlns="http://www.w3.org/2000/svg"
   xmlns:sodipodi="http://sodipodi.sourceforge.net/DTD/sodipodi-0.dtd"
   xmlns:inkscape="http://www.inkscape.org/namespaces/inkscape"
   height="48"
   width="48"
   version="1.1"
   id="svg12"
   sodipodi:docname="org.gnome.IconPreview.svg"
   inkscape:version="0.92.3 (2405546, 2018-03-11)">
  <metadata
     id="metadata18">
    <rdf:RDF>
      <cc:Work
         rdf:about="">
        <dc:format>image/svg+xml</dc:format>
        <dc:type
           rdf:resource="http://purl.org/dc/dcmitype/StillImage" />
        <dc:title></dc:title>
      </cc:Work>
    </rdf:RDF>
  </metadata>
  <defs
     id="defs16" />
  <sodipodi:namedview
     pagecolor="#ffffff"
     bordercolor="#666666"
     borderopacity="1"
     objecttolerance="10"
     gridtolerance="10"
     guidetolerance="10"
     inkscape:pageopacity="0"
     inkscape:pageshadow="2"
     inkscape:window-width="1920"
     inkscape:window-height="1017"
     id="namedview14"
     showgrid="true"
     inkscape:zoom="2"
     inkscape:cx="7.9354163"
     inkscape:cy="20.447288"
     inkscape:window-x="0"
     inkscape:window-y="30"
     inkscape:window-maximized="1"
     inkscape:current-layer="svg12">
    <inkscape:grid
       type="xygrid"
       id="grid828" />
  </sodipodi:namedview>
  <path
     inkscape:connector-curvature="0"
     style="fill:#48759b;fill-opacity:1"
     d="M 3.452703,46 H 43.5473 C 44.35209,46 45,45.352094 45,44.547297 V 4.452703 C 45,3.647906 44.35209,3 43.5473,3 H 3.452703 C 2.647906,3 2,3.647906 2,4.452703 V 44.547297 C 2,45.352094 2.647906,46 3.452703,46 Z"
     id="rect2-2" />
  <path
     style="fill:#ffffff;stroke:none;stroke-width:1px;stroke-linecap:butt;stroke-linejoin:miter;stroke-opacity:1;fill-opacity:0.15555556"
     d="M 4,5 H 43 V 44 H 4 Z"
     id="path938"
     inkscape:connector-curvature="0" />
  <circle
     style="fill:#ffffff;fill-opacity:1;stroke:none;stroke-width:5.6692915;stroke-linecap:round;stroke-linejoin:round;stroke-miterlimit:4;stroke-dasharray:none;stroke-opacity:1"
     id="path926"
     cx="23.5"
     cy="24.5"
     r="13.649941" />
  <path
     style="fill:#ffffff;fill-opacity:1;stroke:none;stroke-width:1px;stroke-linecap:butt;stroke-linejoin:miter;stroke-opacity:1"
     d="M 4 5 L 4 44 L 13.855469 34.144531 A 13.649941 13.649941 0 0 1 9.8496094 24.5 A 13.649941 13.649941 0 0 1 23.5 10.849609 A 13.649941 13.649941 0 0 1 33.144531 14.855469 L 43 5 L 4 5 z "
     id="path940" />
  <path
     style="fill:#648aaa;fill-opacity:1;stroke:none;stroke-width:5.6692915;stroke-linecap:round;stroke-linejoin:round;stroke-miterlimit:4;stroke-dasharray:none;stroke-opacity:1"
     d="M 23.5 10.849609 A 13.649941 13.649941 0 0 0 9.8496094 24.5 A 13.649941 13.649941 0 0 0 13.855469 34.144531 L 33.144531 14.855469 A 13.649941 13.649941 0 0 0 23.5 10.849609 z "
     id="circle946" />
</svg>
