<svg height="48" width="48" xmlns="http://www.w3.org/2000/svg"><g fill="#c28b64" opacity=".99" transform="matrix(1.1503549 0 0 1.1503549 -4.486125 -7.525565)"><path d="m44.322082 27.405077a19.729762 19.729765 0 0 1 -19.729762 19.729765 19.729762 19.729765 0 0 1 -19.7297621-19.729765 19.729762 19.729765 0 0 1 19.7297621-19.7297632 19.729762 19.729765 0 0 1 19.729762 19.7297632z"/><path d="m44.322082 27.405077a19.729762 19.729765 0 0 1 -19.729762 19.729765 19.729762 19.729765 0 0 1 -19.7297621-19.729765 19.729762 19.729765 0 0 1 19.7297621-19.7297632 19.729762 19.729765 0 0 1 19.729762 19.7297632z"/></g><path d="m23.803772 6.6157098c-8.566205 0-15.3839072 7.8688922-15.3839072 17.3842912s6.8177022 17.384291 15.3839072 17.384291c8.566204 0 15.383906-7.868892 15.383906-17.384291s-6.817702-17.3842912-15.383906-17.3842912zm0 2.190897c7.216389 0 13.193009 6.7166352 13.193009 15.1933942s-5.97662 15.193394-13.193009 15.193394c-.622567 0-1.235591-.05111-1.836662-.147908.316434-3.354529 1.074022-7.529715 3.156484-9.857176 1.146036-1.280866 3.324651-.958299 4.849517-1.751266 1.801607-.93688 4.092612-1.678187 4.984403-3.502533.619251-1.26681.710124-3.153828-.206699-4.225142-.86464-1.010335-2.668732-.323066-3.906815-.808377-2.07375-.812881-3.526228-3.070279-5.720406-3.453416-.542743-.09477-1.102632-.144445-1.667918-.149396-2.018875-.01768-4.107951.534197-5.741429 1.631265-2.967666 1.99313-5.114344 6.120414-6.897158 9.767687-.135318-.873978-.206327-1.77513-.206327-2.697132 0-8.476759 5.97662-15.1933942 13.19301-15.1933942zm-4.305142 9.7935472c-1.0141 1.024211-.749663 2.09554.392188 3.199276-3.425449-1.177881-1.68553-2.181006-.392188-3.199276zm6.662738.494143c.723369 0 1.309775.394492 1.309775.881121 0 .48663-.586406.881122-1.309775.881122-.72337 0-1.309776-.394492-1.309776-.881122 0-.486629.586406-.881121 1.309776-.881121z" fill="#fff"/></svg>