<svg height="48" width="48" xmlns="http://www.w3.org/2000/svg"><path d="m44.322082 27.405077a19.729762 19.729765 0 0 1 -19.729762 19.729765 19.729762 19.729765 0 0 1 -19.7297621-19.729765 19.729762 19.729765 0 0 1 19.7297621-19.7297632 19.729762 19.729765 0 0 1 19.729762 19.7297632z" fill="#3e8896" opacity=".99" transform="matrix(1.1503549 0 0 1.1503549 -4.486125 -7.525565)"/><g fill="#fff"><path d="m16.395263 9.636595c-6.092577 0-11.063397 4.970819-11.063397 11.063397 0 6.092576 4.97082 11.063395 11.063397 11.063395 6.092573 0 11.063398-4.970819 11.063398-11.063395 0-6.092578-4.970825-11.063397-11.063398-11.063397zm0 2.966145c4.48949 0 8.097056 3.607762 8.097056 8.097252 0 4.489489-3.607566 8.097054-8.097056 8.097054-4.489489 0-8.097252-3.607565-8.097252-8.097054 0-4.48949 3.607763-8.097252 8.097252-8.097252zm10.604737 14.39726c-.501962.859303-1.0217 1.704991-1.822246 2.340351l11.077963 8.507892c.649049.512824 1.592045.395822 2.095866-.260239.503825-.656061.373778-1.597604-.289172-2.092328z"/><path d="m13.817724 15.601696c-.440816 0-.854412.112428-1.214017.309928l11.396293 11.088376 11.39629-11.088376c-.359603-.1975-.773199-.309928-1.214015-.309928zm-2.19095 1.275019c-.207269.366117-.326017.789554-.326017 1.241948v11.44076c0 1.394399 1.122568 2.516967 2.516967 2.516967h20.364551c1.3944 0 2.516968-1.122568 2.516968-2.516967v-11.44076c0-.452394-.118747-.875831-.326017-1.241948l-11.894592 11.573044a.68651422.68651422 0 0 1 -.957268 0z" fill-opacity=".472727"/></g></svg>