<?xml version="1.0" encoding="UTF-8" standalone="no"?><!DOCTYPE svg PUBLIC "-//W3C//DTD SVG 1.1//EN" "http://www.w3.org/Graphics/SVG/1.1/DTD/svg11.dtd"><svg width="100%" height="100%" viewBox="0 0 1024 1024" version="1.1" xmlns="http://www.w3.org/2000/svg" xmlns:xlink="http://www.w3.org/1999/xlink" xml:space="preserve" xmlns:serif="http://www.serif.com/" style="fill-rule:evenodd;clip-rule:evenodd;stroke-linecap:round;stroke-linejoin:round;stroke-miterlimit:1.5;"><circle cx="512" cy="512" r="493.842" style="fill:#ffc883;"/><g><g><clipPath id="_clip1"><path d="M197.366,788.351l-45.75,-63.78l90.489,-64.909l45.75,63.78l-90.489,64.909Z"/></clipPath><g clip-path="url(#_clip1)"><path d="M185.32,771.557c-5.047,-33.759 37.469,-98.039 76.99,-126.388c39.52,-28.348 77.635,2.261 95.94,27.779c-22.2,4.329 -66.711,2.921 -93.995,25.107c-25.435,20.683 -63.372,54.13 -78.935,73.502Z" style="fill:#b59369;"/></g><clipPath id="_clip2"><path d="M292.107,834.588l-71.713,-48.957l54.07,-79.203l71.713,48.957l-54.07,79.203Z"/></clipPath><g clip-path="url(#_clip2)"><path d="M273.224,821.697c-16.833,-34.936 8.563,-125.996 42.653,-175.931c34.09,-49.936 86.314,-34.048 115.006,-14.461c-23.02,15.235 -68.008,37.792 -95.206,71.997c-23.386,29.41 -55.428,80.881 -62.453,118.395Z" style="fill:#b59369;"/></g><clipPath id="_clip3"><path d="M357.011,817.176l-79.418,-35.104l27.348,-61.871l79.418,35.104l-27.348,61.871Z"/></clipPath><g clip-path="url(#_clip3)"><path d="M334.22,803.818c-16.932,-28.25 -25.575,-91.996 -8.333,-131.004c17.242,-39.008 69.54,-28.48 101.315,-14.435c-16.822,12.278 -51.72,30.782 -67.055,57.616c-13.185,23.073 -26.509,55.261 -25.927,87.823Z" style="fill:#b59369;"/></g><path d="M658.34,838.404c15.406,-32.07 -7.721,-112.831 -38.822,-156.296c-31.102,-43.464 -78.823,-27.059 -105.05,-8.292c21.017,12.746 64.436,29.371 86.915,60.786c22.479,31.414 51.676,79.797 56.957,103.802Z" style="fill:#b59369;"/><path d="M709.423,820.202c29.659,-68.773 8.68,-120.453 -18.143,-174.639c-26.824,-54.187 -82.346,-36.9 -113.48,-21.488c20.68,18.285 67.677,48.118 95.723,81.632c30.031,35.887 33.9,86.963 35.9,114.495Z" style="fill:#b59369;"/><path d="M796.404,732.594c7.504,-32.997 -18.61,-112.85 -57.882,-150.523c-39.271,-37.674 -86.939,-11.484 -107.701,10.159c22.831,9.434 67.939,6.923 96.323,34.153c28.384,27.229 58.886,83.791 69.26,106.211Z" style="fill:#b59369;"/></g><path d="M610.503,88.092c96.704,52.931 131.718,234.958 85.469,335.383" style="fill:none;stroke:#b59369;stroke-width:5.49px;"/><path d="M739.776,120.55c60.236,85.545 40.567,213.07 -16.608,305.816" style="fill:none;stroke:#b59369;stroke-width:5.49px;"/><path d="M854.669,416.057c-18.233,1.167 -49.151,8.744 -69.951,19.681c-23.465,12.339 -59.105,46 -63.662,44.181c0.848,-1.814 34.758,-42.029 34.758,-42.029c-2.732,-0.944 -50.033,13.902 -61.012,21.729c-22.1,15.756 -47.416,47.971 -32.96,70.968c14.456,22.997 42.303,23.326 67.86,15.476c66.268,-20.353 137.429,-124.404 124.967,-130.006Z" style="fill:#b59369;"/><path d="M541.158,284.325c1.041,12.963 -0.106,40.564 -6.929,54.028c-7.698,15.19 -34.255,25.64 -32.234,29.171c1.419,-0.36 30.169,-12.966 30.169,-12.966c1.089,2.097 -4.356,32.011 -9.671,38.835c-10.697,13.736 -34.766,27.519 -55.541,13.945c-20.775,-13.575 -24.125,-33.664 -20.403,-50.979c9.652,-44.894 88.561,-81.777 94.609,-72.034Z" style="fill:#b59369;"/><path d="M601.288,436.181c6.889,-4.448 6.99,-87.093 -1.855,-107.428c-6.268,-14.409 -13.237,-17.896 -24.188,-15.498c-10.952,2.398 -17.896,13.236 -15.498,24.188c1.109,5.069 6.099,12.692 14.478,16.246c38.024,16.128 26.44,58.516 27.063,82.492Z" style="fill:#b59369;"/><path d="M629.768,445.92c8.586,-2.522 34.808,-75.535 30.651,-108.714c-1.47,-11.731 -3.802,-21.849 -12.811,-23.385c-9.009,-1.536 -18.015,6.429 -19.836,17.818c-1.934,12.096 6.27,22.426 11.445,28.655c22.37,26.924 -5.412,69.549 -9.449,85.626Z" style="fill:#b59369;"/></g><g><path d="M317.724,411.396c0,0 27.516,-31.857 51.772,-39.549c57.702,-18.297 104.235,-5.666 168.513,40.836c21.12,15.279 42.818,39.806 67.11,49.264c24.78,9.647 83.218,8.448 83.218,8.448c9.631,8.424 3.471,125.999 -31.948,203.811c-24.519,53.868 -75.593,95.642 -120.715,112.533c-102.693,38.445 -168.198,-17.274 -168.198,-17.274c0,0 52.7,-3.073 84.505,-21.081c45.187,-25.585 75.337,-77.326 73.789,-146.3c-1.682,-74.987 -39.159,-138.659 -73.637,-159.175c-66.308,-39.456 -134.409,-31.513 -134.409,-31.513Z" style="fill:#ffe6c6;"/><path d="M216.752,566.037c-28.238,7.428 -43.783,41.516 -34.693,76.075c3.994,15.18 34.73,45.487 66.333,51.684c23.78,4.662 112.356,2.247 139.135,-37.671c34.115,-50.855 19.388,-101.84 -11.818,-129.097c-52.508,-45.866 -113.693,-43.887 -147.821,-22.59c-14.065,8.225 -41.206,57.968 -38.302,65.09c20.497,-25.386 114.39,-36.628 109.633,51.747c-2.186,40.602 -43.898,42.586 -43.898,42.586c0,0 35.41,-15.109 29.085,-59.251c-3.664,-25.567 -27.47,-49.144 -67.654,-38.573Z" style="fill:#ffe6c6;"/><path d="M264.807,479.37c14.51,-8.514 86.693,-2.107 123.231,32.781c40.714,38.876 46.68,76.987 38.338,113.882c-10.162,44.946 -35.412,61.744 -69.188,73.824c-22.511,8.052 -80.642,9.958 -80.642,9.958c-2.185,5.275 46.473,48.824 79.718,47.557c34.913,-1.33 88.619,-14.661 123.155,-65.115c46.834,-68.418 19.017,-174.001 -21.827,-212.349c-55.054,-51.69 -151.704,-59.3 -169.988,-51.565c-15.804,6.686 -22.797,51.027 -22.797,51.027Z" style="fill:#ffe6c6;"/></g></svg>