<?xml version="1.0" encoding="UTF-8" standalone="no"?>
<svg
   xmlns:dc="http://purl.org/dc/elements/1.1/"
   xmlns:cc="http://creativecommons.org/ns#"
   xmlns:rdf="http://www.w3.org/1999/02/22-rdf-syntax-ns#"
   xmlns:svg="http://www.w3.org/2000/svg"
   xmlns="http://www.w3.org/2000/svg"
   xmlns:sodipodi="http://sodipodi.sourceforge.net/DTD/sodipodi-0.dtd"
   xmlns:inkscape="http://www.inkscape.org/namespaces/inkscape"
   height="48"
   width="48"
   version="1.1"
   id="svg12"
   sodipodi:docname="phpstorm.svg"
   inkscape:version="0.92.5 (2060ec1f9f, 2020-04-08)">
  <metadata
     id="metadata18">
    <rdf:RDF>
      <cc:Work
         rdf:about="">
        <dc:format>image/svg+xml</dc:format>
        <dc:type
           rdf:resource="http://purl.org/dc/dcmitype/StillImage" />
        <dc:title></dc:title>
      </cc:Work>
    </rdf:RDF>
  </metadata>
  <defs
     id="defs16" />
  <sodipodi:namedview
     pagecolor="#ffffff"
     bordercolor="#666666"
     borderopacity="1"
     objecttolerance="10"
     gridtolerance="10"
     guidetolerance="10"
     inkscape:pageopacity="0"
     inkscape:pageshadow="2"
     inkscape:window-width="1920"
     inkscape:window-height="1025"
     id="namedview14"
     showgrid="true"
     inkscape:zoom="13.906433"
     inkscape:cx="18.451536"
     inkscape:cy="27.461102"
     inkscape:window-x="0"
     inkscape:window-y="30"
     inkscape:window-maximized="1"
     inkscape:current-layer="svg12">
    <inkscape:grid
       type="xygrid"
       id="grid828" />
  </sodipodi:namedview>
  <rect
     fill="#47b472"
     height="43"
     ry="1.452703"
     width="43"
     x="2"
     y="3"
     id="rect2"
     style="fill:#b47991;fill-opacity:1" />
  <path
     d="m23.5 3h20.047297c.804798 0 1.452703.6479055 1.452703 1.4527029v20.0472971h-21.5z"
     fill="#6da1c8"
     id="path4"
     style="fill:#8c6dc8;fill-opacity:1" />
  <path
     d="m45 24.5v20.047297c0 .804798-.647905 1.452703-1.452703 1.452703h-40.0945941c-.8047974 0-1.4527029-.647905-1.4527029-1.452703v-20.047297z"
     fill="#6dc8bd"
     id="path6"
     style="fill:#a98bdc;fill-opacity:1" />
  <path
     d="m45 24.5v20.047297c0 .804798-.647905 1.452703-1.452703 1.452703h-20.047297v-21.5z"
     fill="#d5bf56"
     id="path8"
     style="fill:#a27bb7;fill-opacity:1" />
  <path
     style="fill:#ffffff"
     d="M 9 10 L 9 39 L 38 39 L 38 10 L 9 10 z M 28.570312 15.341797 C 29.1651 15.341797 29.777613 15.416622 30.40625 15.566406 C 31.034888 15.708307 31.685264 15.925113 32.357422 16.216797 L 32.357422 19.953125 C 31.762635 19.51954 31.181008 19.19339 30.615234 18.972656 C 30.049461 18.751922 29.514629 18.640625 29.011719 18.640625 C 28.344396 18.640625 27.852357 18.790276 27.533203 19.089844 C 27.214049 19.389412 27.054687 19.85566 27.054688 20.486328 C 27.054688 20.959329 27.160277 21.329622 27.373047 21.597656 C 27.590652 21.857807 27.983054 22.082284 28.548828 22.271484 L 29.738281 22.662109 C 30.942364 23.056278 31.798895 23.654882 32.306641 24.458984 C 32.814386 25.263087 33.066406 26.406601 33.066406 27.888672 C 33.066406 29.835862 32.712797 31.286348 32.001953 32.240234 C 31.295945 33.186237 30.215303 33.658203 28.759766 33.658203 C 28.073101 33.658203 27.382907 33.552694 26.691406 33.339844 C 25.999905 33.126993 25.308687 32.810396 24.617188 32.392578 L 24.617188 28.550781 C 25.308687 29.149916 25.975997 29.602705 26.619141 29.910156 C 27.267121 30.209724 27.890611 30.359375 28.490234 30.359375 C 29.099529 30.359375 29.566635 30.194383 29.890625 29.863281 C 30.214615 29.532181 30.376953 29.058261 30.376953 28.443359 C 30.376953 27.891524 30.26541 27.465583 30.042969 27.166016 C 29.825363 26.866448 29.38812 26.599783 28.730469 26.363281 L 27.648438 25.972656 C 26.565247 25.594255 25.772441 24.989862 25.269531 24.162109 C 24.771457 23.334358 24.523437 22.219644 24.523438 20.816406 C 24.523438 19.058417 24.87007 17.705769 25.566406 16.759766 C 26.262743 15.813763 27.264682 15.341797 28.570312 15.341797 z M 13.933594 15.660156 L 18.568359 15.660156 C 19.946526 15.660156 21.003259 16.160923 21.738281 17.162109 C 22.478139 18.155413 22.847656 19.575216 22.847656 21.419922 C 22.847656 23.272511 22.478139 24.699985 21.738281 25.701172 C 21.003259 26.694474 19.946526 27.189453 18.568359 27.189453 L 16.724609 27.189453 L 16.724609 33.316406 L 13.933594 33.316406 L 13.933594 15.660156 z M 16.724609 18.960938 L 16.724609 23.890625 L 18.269531 23.890625 C 18.811127 23.890625 19.230415 23.677654 19.525391 23.251953 C 19.820367 22.818369 19.966797 22.208258 19.966797 21.419922 C 19.966797 20.631585 19.820367 20.023358 19.525391 19.597656 C 19.230415 19.171955 18.811127 18.960938 18.269531 18.960938 L 16.724609 18.960938 z "
     id="path10" />
  <g
     aria-label="IJ"
     style="font-style:normal;font-variant:normal;font-weight:bold;font-stretch:condensed;font-size:26.59427071px;line-height:1.25;font-family:'Roboto Condensed';-inkscape-font-specification:'Roboto Condensed,  Bold Condensed';letter-spacing:0px;word-spacing:0px;fill:#000000;fill-opacity:1;stroke:none;stroke-width:0.66485679"
     id="text832" />
  <g
     aria-label="PS"
     transform="scale(0.7832001,1.2768129)"
     style="font-style:normal;font-variant:normal;font-weight:bold;font-stretch:normal;font-size:18.96728706px;line-height:1.25;font-family:sans-serif;-inkscape-font-specification:'sans-serif Bold';letter-spacing:0px;word-spacing:0px;fill:#000000;fill-opacity:1;stroke:none;stroke-width:0.47418216"
     id="text820" />
</svg>
