<svg height="48" width="48" xmlns="http://www.w3.org/2000/svg"><g fill="#ac9393" opacity=".99" transform="matrix(1.1503549 0 0 1.1503549 -4.486125 -7.525565)"><path d="m44.322082 27.405077a19.729762 19.729765 0 0 1 -19.729762 19.729765 19.729762 19.729765 0 0 1 -19.7297621-19.729765 19.729762 19.729765 0 0 1 19.7297621-19.7297632 19.729762 19.729765 0 0 1 19.729762 19.7297632z" fill="#80c778"/><path d="m44.322082 27.405077c0 10.896448-8.833315 19.729765-19.729762 19.729765s-19.7297621-8.833317-19.7297621-19.729765h19.7297621z" fill="#80c7f3"/><path d="m24.59232 7.6753138c10.896446 0 19.729761 8.8333152 19.729762 19.7297632 0 10.896448-8.833315 19.729765-19.729762 19.729765" fill="#ffc778"/><path d="m10.641272 13.454028c3.570385-3.5703853 8.502825-5.7787142 13.951048-5.7787142 10.896446.0000001 19.729761 8.8333152 19.729762 19.7297632h-19.729762z" fill="#4dc778"/><path d="m24.59232 27.529263v-19.8539492c10.896446 0 19.729761 8.8333152 19.729762 19.7297632" fill="#ffc778"/></g><path d="m46.5 24a22.696228 22.696232 0 0 1 -22.696229 22.696232 22.696228 22.696232 0 0 1 -22.6962282-22.696232 22.696228 22.696232 0 0 1 22.6962282-22.69623 22.696228 22.696232 0 0 1 22.696229 22.69623z" fill="#80c778"/><path d="m46.5 24c0 12.534782-10.161447 22.696232-22.696229 22.696232-12.534781 0-22.6962282-10.16145-22.6962282-22.696232h22.6962282z" fill="#80c7f3"/><path d="m23.803771 1.30377c12.53478 0 22.696228 10.161447 22.696229 22.69623 0 12.534782-10.161447 22.696232-22.696229 22.696232" fill="#e17760"/><path d="m23.803771 24.142858v-22.839088c12.53478 0 22.696228 10.161447 22.696229 22.69623" fill="#ffc778"/><path d="m28.557857 10.749909c-2.756124-.73962-4.642333 3.04596-5.084631 7.263295-1.119724-4.975755-4.236369-9.0927479-7.534596-5.395814-1.224929 1.376228-1.508231 2.489981-1.322288 3.382009-.908975-.08048-1.985202.331375-3.211683 1.703723-2.908496 3.25825 1.170246 5.984169 6.010869 6.713074-4.786158 1.192167-8.5667309 4.223034-4.96706 7.422481 1.380687 1.223826 2.497294 1.508851 3.390903 1.324177-.07993.907094.332489 1.981516 1.70851 3.206512 3.195748 2.842413 5.874424-.989264 6.670073-5.678459 1.336854 4.566823 4.444707 8.066333 7.287833 4.877594 1.224012-1.374211 1.509785-2.488197 1.324685-3.380122.90921.08141 1.984667-.329991 3.213019-1.703447 3.207358-3.595099-.91922-6.174024-5.821645-6.806032 4.732262-1.274516 8.484575-4.44791 5.210965-7.355357-1.377894-1.223532-2.495823-1.509225-3.389291-1.325233.08063-.907377-.330376-1.98069-1.708235-3.207846-.624431-.555033-1.21917-.890744-1.777428-1.040555zm-4.819452 13.210818c.0047.03197.0057.06435.01493.09625-.0089-.0015-.01842-.0014-.02727-.0029.0055-.03018.0071-.06303.01237-.09338z" fill="#fff" stroke-width=".697905"/></svg>