<svg height="48" width="48" xmlns="http://www.w3.org/2000/svg" xmlns:xlink="http://www.w3.org/1999/xlink"><clipPath id="a"><rect height="43" ry="1.452703" width="43" x="2" y="3"/></clipPath><rect fill="#6297d6" height="43" ry="1.452703" width="43" x="2" y="3"/><path clip-path="url(#a)" d="m17 6v1h-1v1h-2v1h-1v1 1h-1v1 1h2v1 1h1v1 1 1 1h1v1h1v-1-1h1v-1h1v-1-1h1v-1-1-1-1-1h1v-1-1h-1v1h-1v-1h-1v-1h1v-1zm-7 1v1h-1v1h1v1 1 1h1v-1-1h1v-1-1h1v-1zm-1 2h-1v1 1h1v-1zm29 0v1 1h1v-1-1zm1 2v1h1v-1zm-35 1v1h1v-1zm4 0v1h1v-1zm1 1v1h1v-1zm-3 0v1h1v-1zm31 0v1h1 1v1h-2v-1h-1v1h-1v1 2h-1v-1-1-1h-1v1 1h-1-1v1h-1v1h-1-1v-1h1v-1h-1v-1h-1v1h-1v1h1v1 1 1h-1v1h-2v1h-1v1h-1v1h2v-1h.599609v.199219h.201172v.201172h.199219v.199218h.199219v.201172h.201172v.199219h.199218v-.199219h.201172v-.201172h-.201172-.199218v-.199218h-.201172v-.201172h-.199219v-.199219h1v1h1v-1h2v1h-1-1v1h1v1h1v1h1v1h1 1v-1h-1v-1h1 1v1h1v1h1v1h1v-1-1h2v1h1v-1h2v-1h1v-1-1h1v-1h1v-1h1v-1h-1v-1h1v-1h2v-1h2v1h1v-1h1v-1-1h-4v-1h-1v-1h-1v1h-2v-1h-3v-1-1h-1-1zm12 7h-1v1h1zm-1 1h-1v1h1zm-9 8v1h1v-1zm-10-1h-1v-1h-3v-1h-3v1h-1v1 1 1 1h1 2v1h1v1 1 1 1h1v1h2v-1-1h1v-1-1-1h1v-1h1v-1h-2v-1zm-3.400391-3v.199219h.201172v-.199219zm.400391-7h-1v1h1zm-1 1h-1v1h1zm-21-5v1h1v-1zm1 1v1h1 1v-1h-1zm5 0v1h1 1v-1h-1zm2 1v1 1h1v-1-1zm-14 0v1 1 1 1h1 1 1 1v1h1v1 1h1v1 1 1h1v1 1h1v1h1v1h1 1 1v-1-1h-1v1h-1v-1-1h1 1 1v-1-1h1v-1-1h1 1v-1-1h-1v-1h-1v-1h-1v1 1 1h-1v-1h-1-1v-1h1v-1-1h1 1v-1h-1-1v-1h-1v1h-1-1-1-1v-1h-1v1h-1-1v-1h-1-1zm12 14v1h1v1h-1v1h1v1h1v1 1 1 1 1 1h-1v1h1v1h1v-1-1-1-1h1v-1h1v-1h1v-1h1v-1h1v-1h-1v-1h-1-1v-1h-1v-1h-1-1-1zm10-12v1h1v-1zm2 3v1h1v-1zm8 2h1v1 1 1h-1v-1-1zm12 11v1h-1v1 1h4v1h1v-1h1v-1h-1v-1-1h-1v1h-1v-1z" fill="#fcfcfc" fill-opacity=".588652"/><path d="m14 6c-1.108 0-2 .892-2 2v10c0 1.108.892 2 2 2h5l4 4 4-4h5c1.108 0 2-.892 2-2v-10c0-1.108-.892-2-2-2z" fill="#fffbfc"/><g fill="#6297d6" transform="matrix(.28591229 0 0 .28591229 28.757496 17.221408)"><path d="m-43.25-4.0707071-1.306818 8.1818182h-5.596591l6.051136-35.5965911h7.386364l5.965909 35.5965911h-5.625l-1.278409-8.1818182zm2.8125-19.2613639-1.988636 14.0340912h3.977272z"/><path d="m-27.028409-16.371843h15.909091v5.397727h-15.909091z"/><path d="m8.2627841-31.48548v5.369318l-9.8863636 24.886364h9.8863636v5.3409091h-15.6818182v-5.3409091l9.9147727-24.886364h-9.9147727v-5.369318z"/></g></svg>