<?xml version="1.0" encoding="UTF-8" standalone="no"?>
<svg
   xmlns:dc="http://purl.org/dc/elements/1.1/"
   xmlns:cc="http://creativecommons.org/ns#"
   xmlns:rdf="http://www.w3.org/1999/02/22-rdf-syntax-ns#"
   xmlns:svg="http://www.w3.org/2000/svg"
   xmlns="http://www.w3.org/2000/svg"
   xmlns:sodipodi="http://sodipodi.sourceforge.net/DTD/sodipodi-0.dtd"
   xmlns:inkscape="http://www.inkscape.org/namespaces/inkscape"
   height="48"
   width="48"
   version="1.1"
   id="svg10"
   sodipodi:docname="xfce4-notifyd.svg"
   inkscape:version="0.92.3 (2405546, 2018-03-11)">
  <metadata
     id="metadata16">
    <rdf:RDF>
      <cc:Work
         rdf:about="">
        <dc:format>image/svg+xml</dc:format>
        <dc:type
           rdf:resource="http://purl.org/dc/dcmitype/StillImage" />
      </cc:Work>
    </rdf:RDF>
  </metadata>
  <defs
     id="defs14" />
  <sodipodi:namedview
     pagecolor="#ffffff"
     bordercolor="#666666"
     borderopacity="1"
     objecttolerance="10"
     gridtolerance="10"
     guidetolerance="10"
     inkscape:pageopacity="0"
     inkscape:pageshadow="2"
     inkscape:window-width="842"
     inkscape:window-height="480"
     id="namedview12"
     showgrid="false"
     inkscape:zoom="4.9166667"
     inkscape:cx="24"
     inkscape:cy="24"
     inkscape:window-x="0"
     inkscape:window-y="25"
     inkscape:window-maximized="0"
     inkscape:current-layer="svg10" />
  <path
     d="m3.1425781 5.1425781c-1.0288571 0-1.8574219.8285648-1.8574219 1.8574219v30.714844c0 1.028857.8285648 1.857422 1.8574219 1.857422h14.7031249l5.369141 7.570312 5.367187-7.570312h16.417969c1.028857 0 1.857422-.828565 1.857422-1.857422v-30.714844c0-1.0288571-.828565-1.8574219-1.857422-1.8574219z"
     fill="#939dac"
     id="path2"
     style="fill:#698490;fill-opacity:1" />
  <g
     fill="#fff"
     transform="matrix(1.2946429 0 0 1.2946429 -7.553903 -2.79201)"
     id="g8">
    <path
       d="m24.501953 12.142578a1.4270508 1.5 0 0 0 -1.427734 1.5 1.4270508 1.5 0 0 0 1.427734 1.5 1.4270508 1.5 0 0 0 1.425781-1.5 1.4270508 1.5 0 0 0 -1.425781-1.5zm0 13a1.4270515 1.5000008 0 0 0 -1.427734 1.5 1.4270515 1.5000008 0 0 0 1.427734 1.5 1.4270515 1.5000008 0 0 0 1.425781-1.5 1.4270515 1.5000008 0 0 0 -1.425781-1.5z"
       fill-opacity=".565543"
       id="path4" />
    <path
       d="m24.427734 14.142578a4.5 4 0 0 0 -4.5 4s-1 6-2 6c0 0-1 0-1 1s1 1 1 1h13s1 0 1-1-1-1-1-1c-1 0-2-6-2-6a4.5 4 0 0 0 -4.5-4z"
       id="path6" />
  </g>
</svg>
