<svg height="48" width="48" xmlns="http://www.w3.org/2000/svg"><path d="m44.322082 27.405077a19.729762 19.729765 0 0 1 -19.729762 19.729765 19.729762 19.729765 0 0 1 -19.7297621-19.729765 19.729762 19.729765 0 0 1 19.7297621-19.7297632 19.729762 19.729765 0 0 1 19.729762 19.7297632z" fill="#ec725f" opacity=".99" transform="matrix(1.1503549 0 0 1.1503549 -4.486125 -7.525565)"/><path d="m23.999721 8.000837a6 6 0 0 0 -6 6 6 6 0 0 0 6 6 6 6 0 0 0 6-6 6 6 0 0 0 -6-6zm0 13.427734c-7.676857 0-13.857422 6.180566-13.857422 13.857422h27.714844c0-7.676856-6.180565-13.857422-13.857422-13.857422z" fill="#fff"/><circle cx="33.107143" cy="32.964287" fill="#fff" r="8.25" stroke="#ec725f" stroke-linecap="round" stroke-width="1.6"/><g fill="#ec725f" transform="translate(.142857)"><path d="m32.099609 28.5c-.3324 0-.599609.267209-.599609.599609v.572266a3.6550763 3.6550763 0 0 0 -.630859.363281l-.496094-.285156c-.287867-.1662-.654113-.06716-.820313.220703l-.90039 1.558594c-.1662.287867-.06716.654112.220703.820312l.490234.283203a3.6550763 3.6550763 0 0 0 -.017578.367188 3.6550763 3.6550763 0 0 0 .02148.365234l-.494141.285157c-.287867.1662-.386903.532445-.220703.820312l.90039 1.558594c.1662.287867.532446.386903.820313.220703l.494141-.285156a3.6550763 3.6550763 0 0 0 .632817.365234v.570313c0 .3324.267209.599609.599609.599609h1.800782c.3324 0 .599609-.267209.599609-.599609v-.572266a3.6550763 3.6550763 0 0 0 .630859-.363281l.496094.285156c.287867.1662.654113.06716.820313-.220703l.90039-1.558594c.1662-.287867.06716-.654112-.220703-.820312l-.490234-.283203a3.6550763 3.6550763 0 0 0 .017578-.367188 3.6550763 3.6550763 0 0 0 -.021485-.365234l.494141-.285157c.287867-.1662.386903-.532445.220703-.820312l-.90039-1.558594c-.1662-.287867-.532446-.386903-.820313-.220703l-.494141.285156a3.6550763 3.6550763 0 0 0 -.632812-.365234v-.570313c0-.3324-.267209-.599609-.599609-.599609z"/><circle cx="33" cy="33" r="2.109933" stroke="#fff" stroke-linecap="round" stroke-width=".7"/></g></svg>