<svg height="48" width="48" xmlns="http://www.w3.org/2000/svg"><path d="m3.453125 2c-.8047974 0-1.453125.6483276-1.453125 1.453125v33.09375c0 .804797.6483276 1.453125 1.453125 1.453125h8.546875v6h24v-6h8.546875c.804797 0 1.453125-.648328 1.453125-1.453125v-33.09375c0-.8047974-.648328-1.453125-1.453125-1.453125z" fill="#566171"/><rect fill="#ff9b85" height="30" ry="2" width="40" x="4" y="4"/><g transform="translate(.2 .25)"><path d="m16.608594 11.4c-.281679 0-.508594.226915-.508594.508594v11.582812c0 .281679.226915.508594.508594.508594h2.991406v2.1h8.4v-2.1h2.991406c.281679 0 .508594-.226915.508594-.508594v-11.582812c0-.281679-.226915-.508594-.508594-.508594z" fill="#fff"/><rect fill="#ff9b85" height="10.5" ry=".7" width="14" x="16.799999" y="12.1"/></g></svg>