<svg height="48" width="48" xmlns="http://www.w3.org/2000/svg"><path d="m44.322082 27.405077a19.729762 19.729765 0 0 1 -19.729762 19.729765 19.729762 19.729765 0 0 1 -19.7297621-19.729765 19.729762 19.729765 0 0 1 19.7297621-19.7297632 19.729762 19.729765 0 0 1 19.729762 19.7297632z" fill="#4874b4" opacity=".99" transform="matrix(1.1503549 0 0 1.1503549 -4.486125 -7.525565)"/><path d="m24.749412 10.857703-6.304662.420351.446956.866713 2.547522 1.366286 1.839252-1.996515 1.759441-.131249zm5.14707.354726-6.442412.685804c-1.283176 1.236747-3.955378 4.164744-5.445631-.536819l-2.451747.891546c.902588 4.59644-1.414245 4.723509-3.120407 4.160341l-.817052 2.52624c2.063885 3.676114.85314 4.664005-.743148 5.572151l.668656 2.600731c3.042086.521875 2.793825 4.59339 2.154369 5.349268l1.932072 1.931479 1.145173-.519671c-.315954-1.19454-.880124-3.919915-1.282331-6.518088-.407279-2.673887-.96749-7.276903 2.220581-8.725664 1.859671-.396707 4.101489.293842 5.139388 2.475986.651366 1.369475 1.18679 3.010122 1.132759 4.568277-.156968 2.966159-3.139965 5.991706-6.497987 3.741176l.817052 4.235426 1.761214 3.281806 2.548114.20988c.142892-1.38943.250722-5.447533 4.977984-2.228863l6.092416-1.783089 1.560203-2.97201-5.86953 1.560203c-1.044753-.946973-3.649588-3.903656.743149-6.98396l6.612091-1.411809-.37128-4.160343-6.315302 1.039938c-4.406546.4633-4.755231-3.974383-3.938049-6.315303l6.315302-.594166zm2.207577 2.69237-5.673839.42035-.157262 3.204949c1.071825.57192 2.218956 1.017857 2.889241 2.259011l4.728497-.8407c-1.659358-.992724-2.503457-2.513359-1.786637-5.04361zm-13.049773 7.24291a3.4362614 2.4332444 81.987304 0 0 -.242985.01714 3.4362614 2.4332444 81.987304 0 0 -1.930299 3.741768 3.4362614 2.4332444 81.987304 0 0 2.888057 3.063648 3.4362614 2.4332444 81.987304 0 0 1.930892-3.741765 3.4362614 2.4332444 81.987304 0 0 -2.645665-3.080795zm16.096868 3.106808-5.095638 1.208432c-.358462 1.120968-.824383 2.202871-1.943896 3.047094l1.474475 2.683501 5.460417-1.527685c-1.02076-1.720395-2.498848-3.404823.104642-5.411342zm-10.065937 9.674554c-.431588.843448-.857018 1.690129-2.061546 2.098794l.111738 1.02161 5.980677-1.875908v-.520264l-1.615776.483019z" fill="#fff"/></svg>