<?xml version="1.0" encoding="UTF-8" standalone="no"?>
<svg
   xmlns:dc="http://purl.org/dc/elements/1.1/"
   xmlns:cc="http://creativecommons.org/ns#"
   xmlns:rdf="http://www.w3.org/1999/02/22-rdf-syntax-ns#"
   xmlns:svg="http://www.w3.org/2000/svg"
   xmlns="http://www.w3.org/2000/svg"
   xmlns:sodipodi="http://sodipodi.sourceforge.net/DTD/sodipodi-0.dtd"
   xmlns:inkscape="http://www.inkscape.org/namespaces/inkscape"
   height="48"
   width="48"
   version="1.1"
   id="svg6"
   sodipodi:docname="protonmail.svg"
   inkscape:version="1.0.2 (e86c870879, 2021-01-15)">
  <metadata
     id="metadata12">
    <rdf:RDF>
      <cc:Work
         rdf:about="">
        <dc:format>image/svg+xml</dc:format>
        <dc:type
           rdf:resource="http://purl.org/dc/dcmitype/StillImage" />
        <dc:title></dc:title>
      </cc:Work>
    </rdf:RDF>
  </metadata>
  <defs
     id="defs10">
    <linearGradient
       gradientUnits="userSpaceOnUse"
       gradientTransform="matrix(0.0920001,0,0,0.09064843,-21.193131,1.5846311)"
       y2="269.48999"
       y1="235.14999"
       x2="657.65002"
       x1="319.20999"
       id="a-12">
      <stop
         id="stop1076"
         offset="0"
         stop-color="#e54c18" />
      <stop
         id="stop1078"
         offset="1"
         stop-color="#fec350" />
    </linearGradient>
  </defs>
  <sodipodi:namedview
     pagecolor="#ffffff"
     bordercolor="#666666"
     borderopacity="1"
     objecttolerance="10"
     gridtolerance="10"
     guidetolerance="10"
     inkscape:pageopacity="0"
     inkscape:pageshadow="2"
     inkscape:window-width="1920"
     inkscape:window-height="1031"
     id="namedview8"
     showgrid="true"
     inkscape:zoom="4.6354166"
     inkscape:cx="-3.608325"
     inkscape:cy="11.400818"
     inkscape:window-x="0"
     inkscape:window-y="24"
     inkscape:window-maximized="1"
     inkscape:current-layer="svg6"
     inkscape:document-rotation="0">
    <inkscape:grid
       type="xygrid"
       id="grid837" />
  </sodipodi:namedview>
  <circle
     cx="23.940615"
     cy="31.534513"
     fill="#74a2f3"
     opacity=".99"
     r="13.232998"
     transform="matrix(1.75830584759 0 0 1.75830608345 -18.15909274367 -30.97874795549)"
     id="circle2"
     style="fill:#aa8dbf;fill-opacity:1" />
  <ellipse
     cx="23.935829"
     cy="24.468578"
     fill="#74a2f3"
     opacity="0.99"
     id="circle846"
     style="fill:#ffffff;fill-opacity:0.31997341;stroke-width:1.534"
     rx="20.299435"
     ry="20.299437" />
  <path
     id="rect861"
     style="fill:#ffffff;fill-opacity:1;stroke-width:8.1337;stroke-linecap:round;stroke-linejoin:round;stroke-opacity:0.03;paint-order:stroke markers fill"
     d="m 23.936163,11.694822 c -5.266465,0 -9.539717,4.100843 -9.813656,9.296696 -0.0088,0.167607 -0.01349,0.336585 -0.0139,0.50637 h -6.61e-4 v 0.02449 1.882507 1.123282 l 0.806219,0.465993 2.815153,1.625019 4.24491,2.450435 c 1.231598,0.801336 2.510994,0.800031 3.952335,-0.0053 l 4.332943,-2.500742 2.719837,-1.569417 0.784377,-0.453417 v -1.135858 -1.882506 -0.02449 h -6.8e-4 c -0.01319,-5.433183 -4.39053,-9.803109 -9.826878,-9.803109 z m 0.05163,3.293724 c 3.589404,0 6.479557,2.889493 6.479557,6.478894 v 0.03045 H 17.508897 v -0.03045 c 0,-3.589401 2.889494,-6.478894 6.478896,-6.478894 z m -9.879852,13.235795 v 6.78e-4 3.124933 3.984771 c 0,1.056588 0.85107,1.90766 1.907657,1.90766 h 15.84112 c 1.056588,0 1.906997,-0.851072 1.906997,-1.90766 v -3.984771 -3.112358 -6.77e-4 l -5.391355,3.11302 h -6.44e-4 l -2.435213,1.405922 c -1.451462,0.686624 -2.713332,0.687087 -3.968886,0.0079 l -2.44845,-1.413826 h 0.0013 z" />
</svg>
