<svg height="48" width="48" xmlns="http://www.w3.org/2000/svg"><path d="m44.322082 27.405077a19.729762 19.729765 0 0 1 -19.729762 19.729765 19.729762 19.729765 0 0 1 -19.7297621-19.729765 19.729762 19.729765 0 0 1 19.7297621-19.7297632 19.729762 19.729765 0 0 1 19.729762 19.7297632z" fill="#83774d" opacity=".99" transform="matrix(1.1503549 0 0 1.1503549 -4.486125 -7.525565)"/><path d="m23.804688 6.6757812a16.881218 16.881218 0 0 0 -16.882813 16.8828128 16.881218 16.881218 0 0 0 16.882813 16.880859 16.881218 16.881218 0 0 0 3.847656-.462891l1.847656 2.773438c.5.75.500065.749179 1.429688.191406l5.669921-3.40039c.900735-.540441.90097-.541123.277344-1.476563l-1.498047-2.246094a16.881218 16.881218 0 0 0 5.306641-12.259765 16.881218 16.881218 0 0 0 -16.880859-16.8828128zm-4.117188 1.4375c.61389.522397.499687.3046756 1.324219.2070313.940658-.6124021 1.378344 1.4506291 1.769531.2988281 1.152714.14956 2.374923.5241776 3.464844.9003906 1.098115.241085 2.132966.8736408 2.867187 1.7402348l-.019531.009765.537109.714844c.070686.124203.127397.253417.185547.382813.21862 1.857153 2.282804 1.83234 3.664063 2.503906 1.182278.418611 2.607924 1.056106 2.753906 2.482422-.297942-.065097-1.451174-1.418634-2.359375-1.550782-.550208-.034359-1.137464-.189382-1.6875-.394531l-3.1875-.589844v-.009765c-.159525-.01867-.31758-.046611-.476562-.082032v.021485l-4.511719-.560547c.073898.05072.154965.118577.228515.185547l4.625.900391v-.009766l.320313.083984 1.292969.289063c.25686.023871.517747.065535.726562.103515 1.319103.362729 2.877358.483585 3.960938 1.40625-.283249.542037-1.86318.234053-2.648438.164063-.096812-.01896-.203241-.034451-.300781-.050781-.01585-.00271-.034921-.009019-.050781-.011719-2.939057-.434648-5.130237-.945106-7.433594 1.080078-1.526433 1.342087-2.891087 3.898777-2.841797 5.164063.210205 5.114969 2.569363 7.536086 3.466797 12.115234.101122 1.299475.313803 2.98.476562 4.037109-1.477898-3.14554-3.746422-6.136496-6.333984-9.644531-1.314385-1.547533-2.616238-3.173144-4.181641-4.458984-.555606-.428587-.724823-1.069701-.777343-1.748047-.049318-2.406095.071001-5.258888.560546-7.699219.383377-1.911068.951214-3.422475 2.117188-5.236328.174413-.344787.380975-.655747.675781-.8906251.144951.0893041.24499.1301971.3125.1542971l.103516.009765h.009765c.139922-.1459072-1.36745-1.7184215.03125-1.0957028.054803-.8272903 1.317068-.1982265 1.335938-.921875zm6.080078 2.8593748c-.543053.016767-.96425.252982-1.083984.658203-.191572.648359.45699 1.485459 1.455078 1.888672.998085.403212 1.964675.21281 2.15625-.435547.191577-.648358-.456992-1.49913-1.455078-1.902343-.374287-.151205-.746433-.219095-1.072266-.208985z" fill="#fff"/></svg>