<?xml version="1.0" encoding="UTF-8" standalone="no"?>
<svg
   xmlns:dc="http://purl.org/dc/elements/1.1/"
   xmlns:cc="http://creativecommons.org/ns#"
   xmlns:rdf="http://www.w3.org/1999/02/22-rdf-syntax-ns#"
   xmlns:svg="http://www.w3.org/2000/svg"
   xmlns="http://www.w3.org/2000/svg"
   xmlns:sodipodi="http://sodipodi.sourceforge.net/DTD/sodipodi-0.dtd"
   xmlns:inkscape="http://www.inkscape.org/namespaces/inkscape"
   height="48"
   width="48"
   version="1.1"
   id="svg6"
   sodipodi:docname="qt-config.svg"
   inkscape:version="1.0.2 (e86c870879, 2021-01-15)">
  <metadata
     id="metadata12">
    <rdf:RDF>
      <cc:Work
         rdf:about="">
        <dc:format>image/svg+xml</dc:format>
        <dc:type
           rdf:resource="http://purl.org/dc/dcmitype/StillImage" />
        <dc:title></dc:title>
      </cc:Work>
    </rdf:RDF>
  </metadata>
  <defs
     id="defs10" />
  <sodipodi:namedview
     pagecolor="#ffffff"
     bordercolor="#666666"
     borderopacity="1"
     objecttolerance="10"
     gridtolerance="10"
     guidetolerance="10"
     inkscape:pageopacity="0"
     inkscape:pageshadow="2"
     inkscape:window-width="1920"
     inkscape:window-height="1031"
     id="namedview8"
     showgrid="false"
     inkscape:zoom="9.2708333"
     inkscape:cx="21.209156"
     inkscape:cy="23.294292"
     inkscape:window-x="0"
     inkscape:window-y="24"
     inkscape:window-maximized="1"
     inkscape:current-layer="svg6" />
  <path
     d="m44.322082 27.405077a19.729762 19.729765 0 0 1 -19.729762 19.729765 19.729762 19.729765 0 0 1 -19.7297621-19.729765 19.729762 19.729765 0 0 1 19.7297621-19.7297632 19.729762 19.729765 0 0 1 19.729762 19.7297632z"
     fill="#59b6a4"
     opacity=".99"
     transform="matrix(1.1503549 0 0 1.1503549 -4.486125 -7.525565)"
     id="path2" />
  <path
     id="path849-2-7"
     d="m 20.341937,12.235774 c -0.253497,-0.03228 -0.514405,-0.05105 -0.784755,-0.05748 -2.244322,-0.05325 -3.94241,0.758778 -5.084457,2.432556 -1.141911,1.66424 -1.748145,4.09351 -1.82406,7.291705 -0.07751,3.265336 0.41245,5.770004 1.473584,7.505689 0.742246,1.214005 1.754677,2.01331 3.036047,2.402319 0,0 0.262019,-0.0089 0.276697,0.271473 0.35828,3.619551 2.612368,3.681092 5.183139,3.742112 0,0 0.333382,0.0081 0.341254,-0.323732 l 0.04698,-1.990589 c 0.0078,-0.331822 -0.323932,-0.339594 -0.323932,-0.339594 -1.284432,-0.03048 -1.620677,0.04579 -1.934096,-1.249652 0.437598,-0.09741 0.845795,-0.23493 1.225417,-0.41748 0.857215,-0.421682 1.571402,-1.046374 2.142463,-1.878518 0.571165,-0.841689 1.004629,-1.881893 1.299544,-3.124096 0.305059,-1.241996 0.478473,-2.66959 0.516744,-4.283117 0.07682,-3.236628 -0.423983,-5.704175 -1.506523,-7.401911 -0.947029,-1.493896 -2.309522,-2.353869 -4.084076,-2.579692 z m -0.51269,1.598231 c 0.312381,0.07009 0.56719,0.235175 0.786405,0.497382 0.172538,0.198998 0.323072,0.457855 0.460168,0.767362 0.07624,0.227417 0.151632,0.468667 0.210596,0.741814 0.159087,0.737243 0.262441,1.629457 0.309309,2.684564 0.04676,1.053337 0.05136,2.252898 0.01961,3.59078 -0.032,1.347524 -0.09307,2.556627 -0.190191,3.625701 -0.09709,1.061163 -0.243993,1.961649 -0.438331,2.70913 -0.07293,0.277503 -0.156961,0.529398 -0.246693,0.761552 -0.01464,0.02995 -0.0284,0.06346 -0.04333,0.0924 -0.138494,0.268562 -0.288042,0.493885 -0.451599,0.674092 -0.310003,0.354113 -0.676385,0.512613 -1.144746,0.501497 -0.468374,-0.01118 -0.824947,-0.18812 -1.117772,-0.556551 -0.286074,-0.373891 -0.515711,-0.913872 -0.677484,-1.632983 -0.162111,-0.730931 -0.26292,-1.623163 -0.310531,-2.674604 -0.0475,-1.063034 -0.06064,-2.270558 -0.02879,-3.612121 0.03159,-1.331948 0.100841,-2.513765 0.198199,-3.55396 0.09719,-1.03819 0.241179,-1.910577 0.436692,-2.613304 0.195321,-0.700571 0.453093,-1.220665 0.753997,-1.560219 0.308529,-0.335334 0.67185,-0.492729 1.142302,-0.481576 0.117621,0.0029 0.228022,0.01561 0.332159,0.03901 z m 12.486909,1.689509 -2.570113,-0.06076 c -1.090681,3.958281 -0.424774,3.918803 -2.417163,3.871511 l -0.04986,2.357497 1.355679,0.03147 c 0,0 -0.13206,5.275859 -0.171449,6.935031 0,0 -0.406161,1.981655 1.23056,3.016539 1.684189,1.064888 4.912801,0.164724 4.980518,0.118779 l 0.05573,-2.323081 c 0,0 -0.818085,0.2411 -1.349178,0.176556 -0.418547,-0.0099 -0.753133,-0.173786 -1.002514,-0.49356 -0.249401,-0.319761 -0.366006,-0.789826 -0.351328,-1.407673 l 0.147027,-5.939007 2.74144,0.06492 0.05131,-2.355634 -2.743101,-0.06512 z"
     style="fill:#ffffff;fill-opacity:1;stroke-width:0.147288;enable-background:new"
     inkscape:connector-curvature="0" />
</svg>
