<svg height="48" width="48" xmlns="http://www.w3.org/2000/svg"><circle cx="23.940615" cy="31.534513" fill="#66b8cc" opacity=".99" r="13.232998" transform="matrix(1.72140702696 0 0 1.72140725788 -17.2289093957 -30.06939350282)"/><g fill="#fff" fill-rule="evenodd"><path d="m8.5351562 10.662109a20.253994 20.759072 0 0 0 -5.109375 13.753907 20.253994 20.759072 0 0 0 1.7363282 8.345703c8.3114766-4.634484 18.4549856-7.673318 30.8378906-8.761719-9.1634-4.400088-18.109725-9.970044-27.4648438-13.337891z"/><path d="m16.837891 27.607422c-1.748894.001407-3.561942.160156-5.410157.535156-2.9964083.607967-5.5793361.282175-7.7382809-.457031a20.253994 20.759072 0 0 0 7.7636719 13.248047c11.245468 1.013688 23.126039-.63637 30.546875-8.933594 0 0-4.000675 2.000713-8.390625-.087891-2.818222-1.340823-9.192944-4.310783-16.771484-4.304687z" fill-opacity=".682482"/></g></svg>