<?xml version="1.0" encoding="UTF-8" standalone="no"?>
<svg
   xmlns:dc="http://purl.org/dc/elements/1.1/"
   xmlns:cc="http://creativecommons.org/ns#"
   xmlns:rdf="http://www.w3.org/1999/02/22-rdf-syntax-ns#"
   xmlns:svg="http://www.w3.org/2000/svg"
   xmlns="http://www.w3.org/2000/svg"
   xmlns:sodipodi="http://sodipodi.sourceforge.net/DTD/sodipodi-0.dtd"
   xmlns:inkscape="http://www.inkscape.org/namespaces/inkscape"
   inkscape:version="1.0.2 (e86c870879, 2021-01-15)"
   sodipodi:docname="qutebrowser.svg"
   id="svg81"
   height="48"
   width="48"
   viewBox="0 0 480 480"
   preserveAspectRatio="xMidYMid meet"
   version="1.1">
  <metadata
     id="metadata85">
    <rdf:RDF>
      <cc:Work
         rdf:about="">
        <dc:format>image/svg+xml</dc:format>
        <dc:type
           rdf:resource="http://purl.org/dc/dcmitype/StillImage" />
      </cc:Work>
    </rdf:RDF>
  </metadata>
  <sodipodi:namedview
     inkscape:current-layer="svg81"
     inkscape:window-maximized="1"
     inkscape:window-y="24"
     inkscape:window-x="0"
     inkscape:cy="22.610315"
     inkscape:cx="62.213002"
     inkscape:zoom="8.0000004"
     showgrid="false"
     id="namedview83"
     inkscape:window-height="1031"
     inkscape:window-width="1920"
     inkscape:pageshadow="2"
     inkscape:pageopacity="0"
     guidetolerance="10"
     gridtolerance="10"
     objecttolerance="10"
     borderopacity="1"
     bordercolor="#666666"
     pagecolor="#ffffff"
     inkscape:document-rotation="0" />
  <defs
     id="defs11">
    <path
       inkscape:connector-curvature="0"
       id="c8j5TY2yQ"
       d="M 470.44,566.69 C 427.92,590.72 223.32,590.81 180.55,566.94 119.76,533 72.58,478.37 48.99,412.86 38.23,382.99 67.95,160.48 124.9,108.12 177.35,59.88 247.94,30.34 325.58,30.34 c 161.93,0 290.83,128.52 290.83,287.06 0,106.71 -58.4,199.82 -145.97,249.29 z" />
    <path
       inkscape:connector-curvature="0"
       id="bFZqX3lTF"
       d="m 303.58,126.72 c 10.64,0 19.27,-8.43 19.27,-18.83 0,-10.4 -8.63,-18.83 -19.27,-18.83 -3.86,0 -34.7,0 -38.56,0 -10.64,0 -19.27,8.43 -19.27,18.83 0,10.4 8.63,18.83 19.27,18.83 7.72,0 30.85,0 38.56,0 z" />
    <path
       inkscape:connector-curvature="0"
       id="cKERSkAeb"
       d="m 204.95,501.27 c 10.64,0 19.28,-8.43 19.28,-18.83 0,-10.4 -8.64,-18.83 -19.28,-18.83 -3.86,0 -34.7,0 -38.55,0 -10.65,0 -19.28,8.43 -19.28,18.83 0,10.4 8.63,18.83 19.28,18.83 7.71,0 30.84,0 38.55,0 z" />
    <path
       inkscape:connector-curvature="0"
       id="a29DGWoP7"
       d="m 46.97,409.12 c 17.8,0 160.2,0 178,0 21.5,0 38.93,-16.85 38.93,-37.65 0,-20.8 -17.43,-37.65 -38.93,-37.65 -5.83,0 -52.55,0 -58.39,0 -10.75,0 -19.46,-8.43 -19.46,-18.83 0,-10.4 8.71,-18.83 19.46,-18.83 5.84,0 52.56,0 58.39,0 21.5,0 38.93,-16.86 38.93,-37.65 0,-20.8 -17.43,-37.66 -38.93,-37.66 -9.73,0 -87.58,0 -97.31,0 -10.76,0 -19.47,-8.43 -19.47,-18.82 0,-10.4 8.71,-18.83 19.47,-18.83 3.89,0 35.03,0 38.92,0 21.5,0 38.93,-16.86 38.93,-37.65 0,-20.8 -17.43,-37.66 -38.93,-37.66 -4.27,0 -38.48,0 -42.75,0 -57.5,51.58 -93.49,125.27 -93.49,207.1 0,33.01 5.87,64.69 16.63,94.13 z" />
    <path
       inkscape:connector-curvature="0"
       id="b6m8VAKUkP"
       d="m 469.67,567.61 c -4.35,-21.89 -24.03,-38.41 -47.66,-38.41 -1.94,0 -17.48,0 -19.43,0 0,-21 -17.39,-38.03 -38.85,-38.03 -7.77,0 -69.94,0 -77.71,0 -21.46,0 -38.85,17.03 -38.85,38.03 -1.95,0 -17.49,0 -19.43,0 -23.63,0 -43.31,16.52 -47.66,38.41 42.65,23.95 92.09,37.65 144.79,37.65 52.71,0 102.15,-13.7 144.8,-37.65 z" />
    <path
       inkscape:connector-curvature="0"
       id="a1FY8i5Bh"
       d="m 404.05,552.4 c 10.64,0 19.28,-8.43 19.28,-18.83 0,-10.4 -8.63,-18.83 -19.28,-18.83 -3.86,0 -34.7,0 -38.55,0 -10.65,0 -19.28,8.43 -19.28,18.83 0,10.4 8.63,18.83 19.28,18.83 7.71,0 30.84,0 38.55,0 z" />
    <path
       inkscape:connector-curvature="0"
       id="c7GwQZUIj"
       d="m 423.38,151.06 c 3.51,0 31.59,0 35.1,0 9.69,0 17.55,8.29 17.55,18.52 0,10.23 -7.86,18.52 -17.55,18.52 -7.02,0 -63.17,0 -70.19,0 -19.39,0 -35.1,16.59 -35.1,37.04 0,20.46 15.71,37.05 35.1,37.05 15.79,0 142.14,0 157.93,0 9.69,0 17.55,8.29 17.55,18.52 0,10.23 -7.86,18.52 -17.55,18.52 -7.02,0 -63.17,0 -70.19,0 -19.39,0 -35.1,16.58 -35.1,37.04 0,20.45 15.71,37.04 35.1,37.04 7.02,0 63.17,0 70.19,0 9.69,0 17.55,8.29 17.55,18.52 0,10.23 -7.86,18.52 -17.55,18.52 -3.51,0 -31.59,0 -35.09,0 -19.39,0 -35.1,16.58 -35.1,37.04 0,20.46 15.71,37.04 35.1,37.04 5.26,0 47.39,0 52.65,0 33.05,-46.43 52.63,-104.14 52.63,-166.68 0,-102.92 -53.03,-192.77 -131.82,-240.77 -6.12,0 -55.09,0 -61.21,0 -19.38,0 -35.09,16.58 -35.09,37.04 0,20.46 15.71,37.04 35.09,37.04 z" />
    <path
       inkscape:connector-curvature="0"
       id="czlIFIfmG"
       d="m 344.3,229.58 20,90.56 h -40 -40 l 20,-90.56 20,-90.56 z" />
    <path
       inkscape:connector-curvature="0"
       id="g3s5fX1Q8e"
       d="m 344.3,410.71 20,-90.57 h -40 -40 l 20,90.57 20,90.56 z" />
  </defs>
  <circle
     r="223.62251"
     cy="242.23532"
     cx="240.41631"
     id="path970"
     style="fill:#76b3e4;fill-opacity:1;stroke:none;stroke-width:2.76503;stroke-linecap:butt;stroke-linejoin:round;stroke-miterlimit:4;stroke-dasharray:none;stroke-opacity:1" />
  <circle
     r="201.86069"
     cy="242.23532"
     cx="240.41631"
     id="path968"
     style="fill:#ffffff;fill-opacity:0.55551666;stroke:none;stroke-width:3.65407;stroke-linecap:butt;stroke-linejoin:round;stroke-miterlimit:4;stroke-dasharray:none;stroke-opacity:1" />
  <path
     inkscape:connector-curvature="0"
     id="rect992"
     d="m 321.9448,61.315665 c -15.26749,0 -27.55387,12.286375 -27.55387,27.553875 0,15.11562 12.05534,27.28301 27.11136,27.52437 h 24.01375 c 7.99718,0 14.44072,6.44353 14.44072,14.4407 0,7.99717 -6.44354,14.44071 -14.44072,14.44071 h -13.17216 c 0.002,0.0174 -0.002,0.0415 0,0.0589 h -37.30393 c -15.26749,0 -27.55387,12.28638 -27.55387,27.55388 0,15.26746 12.28639,27.56861 27.55387,27.56861 h 61.40619 c 0.0506,-5.1e-4 0.097,-0.0151 0.1475,-0.0151 h 55.10774 c 7.99717,0 14.42595,6.44354 14.42595,14.4407 0,7.99717 -6.42878,14.44071 -14.42595,14.44071 h -32.96729 v 0.0299 h -17.3318 c -15.26748,0 -27.55387,12.28638 -27.55387,27.55388 0,15.26747 12.28639,27.56861 27.55387,27.56861 h 27.52437 22.89272 c 7.99718,0 14.4407,6.42879 14.44072,14.42596 -2e-5,7.99717 -6.44354,14.44071 -14.44072,14.44071 h -17.55305 v 0.0294 h -7.18347 c -15.2675,0 -27.55388,12.28638 -27.55388,27.55388 0,15.26747 12.28639,27.56861 27.55388,27.56861 h 10.60558 A 201.86069,201.86069 0 0 0 442.2791,242.23013 201.86069,201.86069 0 0 0 329.37903,61.315665 Z m -121.61759,8.112759 c -8.0434,0 -14.51446,6.471052 -14.51446,14.514458 0,8.043399 6.47106,14.514459 14.51446,14.514459 h 29.45667 c 8.04341,0 14.52922,-6.47106 14.52922,-14.514459 0,-8.043406 -6.48581,-14.514458 -14.52922,-14.514458 z M 114.7745,84.252637 A 201.86069,201.86069 0 0 0 38.55884,242.23013 201.86069,201.86069 0 0 0 51.067236,311.76383 H 171.26879 c 15.68861,0 28.3209,-12.63229 28.3209,-28.32089 0,-15.58752 -12.4779,-28.13006 -28.02589,-28.29139 h -45.81495 c -7.90842,0 -14.27845,-6.37004 -14.27845,-14.27845 v -0.295 c 0,-7.90841 6.37003,-14.27845 14.27845,-14.27845 h 45.72644 c 15.54801,-0.16131 28.02589,-12.70387 28.02589,-28.29139 0,-15.68861 -12.63229,-28.3209 -28.3209,-28.3209 h -0.70802 c -0.0506,5.2e-4 -0.097,0.0151 -0.14749,0.0151 H 96.351177 c -7.908425,0 -14.278451,-6.37004 -14.278451,-14.27845 v -0.29499 c 0,-7.90842 6.370026,-14.27845 14.278451,-14.27845 h 33.808063 c -0.0151,-0.0917 -0.0144,-0.18873 -0.0294,-0.28026 14.13631,-1.6122 25.09054,-13.41468 25.09054,-27.99639 0,-15.68861 -12.63229,-28.3209 -28.32089,-28.3209 z m 12.12489,269.535273 c -8.04341,10e-6 -14.51446,6.48581 -14.51446,14.52921 0,8.0434 6.47105,14.51446 14.51446,14.51446 h 29.45667 c 8.04341,0 14.52921,-6.47106 14.52921,-14.51446 0,-8.0434 -6.4858,-14.5292 -14.52921,-14.52921 z m 148.8617,37.37768 c -8.0434,0 -14.51446,6.48581 -14.51446,14.52921 0,8.04341 6.47106,14.51446 14.51446,14.51446 h 29.45668 c 8.0434,0 14.51446,-6.47105 14.51446,-14.51446 0,-8.0434 -6.47106,-14.52921 -14.51446,-14.52921 z"
     style="fill:#ffffff;fill-opacity:1;stroke:none;stroke-width:3.0209;stroke-linecap:butt;stroke-linejoin:round;stroke-miterlimit:4;stroke-dasharray:none;stroke-opacity:1" />
  <path
     inkscape:label="qutebrowser-letterform-classical"
     sodipodi:nodetypes="cccccssccsccccssccsccccsccccc"
     inkscape:connector-curvature="0"
     id="qutebrowser-letterform-classical-clone-3"
     d="M 284.64949,126.86008 244.437,150.84407 v 61.34227 l 40.21249,-23.984 z m -69.90412,5.36582 c -36.87168,-0.20243 -106.72021,10.44621 -107.02961,89.51557 -0.37531,95.91795 71.50521,74.01925 87.79657,64.33948 31.32425,-18.4976 63.59655,-38.06753 93.1588,-55.38819 16.09901,-9.41716 46.24355,-15.54795 46.24355,28.68551 0,44.23347 -32.73064,57.94868 -50.26519,57.00086 V 241.67638 L 244.437,265.40933 v 85.25022 c 2.16589,0.44429 10.36294,1.52322 21.65019,1.58519 36.87168,0.2024 106.72026,-10.44622 107.02966,-89.51557 0.37531,-95.91796 -71.50522,-74.01926 -87.79663,-64.33948 -31.32425,18.49765 -63.59649,38.06757 -93.15874,55.38818 -16.09901,9.41716 -46.24355,15.54797 -46.24355,-28.6855 0,-44.23348 32.73064,-57.94867 50.26514,-57.00087 v 74.70275 l 40.21254,-23.73296 v -85.25021 c -2.16589,-0.44427 -10.363,-1.52321 -21.65024,-1.58518 z m 21.65024,140.0584 -40.21254,23.98399 v 61.34227 l 40.21254,-23.984 z"
     style="display:inline;fill:#6d91cf;fill-opacity:1;fill-rule:evenodd;stroke-width:0.469143">
    <title
       id="title4559-6">qutebrowser-letterform-classical</title>
  </path>
</svg>
