<svg height="48" width="48" xmlns="http://www.w3.org/2000/svg"><path d="m44.322082 27.405077a19.729762 19.729765 0 0 1 -19.729762 19.729765 19.729762 19.729765 0 0 1 -19.7297621-19.729765 19.729762 19.729765 0 0 1 19.7297621-19.7297632 19.729762 19.729765 0 0 1 19.729762 19.7297632z" fill="#7076a9" opacity=".99" transform="matrix(1.1503549 0 0 1.1503549 -4.486125 -7.525565)"/><path d="m33.337866 40.148505c-2.793524 1.652859-6.053026 2.601495-9.534094 2.601495-10.355339 0-18.75-8.394661-18.75-18.75s8.394661-18.75 18.75-18.75 18.75 8.394661 18.75 18.75" fill="none" stroke="#fff" stroke-linecap="round" stroke-linejoin="round" stroke-width="2.6"/><path d="m45.6 24h-6.3l3.3 4.5z" fill="#fff" fill-opacity=".996078"/><g fill="none" stroke="#fff"><path d="m16.5 18h12v16.5h-12z" stroke-linecap="round" stroke-linejoin="round"/><path d="m18 17.859574v-1.359574h12v16.5h-1.715729" stroke-linejoin="round"/><path d="m19.5 16.622137v-1.622137h12v16.5h-1.536351" stroke-linejoin="round"/><path d="m18 21h4.5" stroke-linecap="round" stroke-width=".7"/><path d="m18 22.5h3" stroke-linecap="round" stroke-width=".5"/><path d="m22.2 22.5h2.4" stroke-linecap="round" stroke-width=".5"/><path d="m26.1 22.5h.9" stroke-linecap="round" stroke-width=".5"/><path d="m18 23.4h1.5" stroke-linecap="round" stroke-width=".5"/><path d="m21 23.4h3.9" stroke-linecap="round" stroke-width=".5"/><path d="m18 24.3h4.2" stroke-linecap="round" stroke-width=".5"/><path d="m23.7 24.3h1.2" stroke-linecap="round" stroke-width=".5"/><path d="m18 25.2h5.7" stroke-linecap="round" stroke-width=".5"/><path d="m18 26.1h1.5" stroke-linecap="round" stroke-width=".5"/><path d="m20.7 26.1h5.1" stroke-linecap="round" stroke-width=".5"/><path d="m18 27h1.5" stroke-linecap="round" stroke-width=".5"/><path d="m21 27h3.9" stroke-linecap="round" stroke-width=".5"/><path d="m18 27.9h4.2" stroke-linecap="round" stroke-width=".5"/><path d="m23.7 27.9h1.2" stroke-linecap="round" stroke-width=".5"/></g></svg>