<svg height="48" width="48" xmlns="http://www.w3.org/2000/svg"><path d="m44.322082 27.405077a19.729762 19.729765 0 0 1 -19.729762 19.729765 19.729762 19.729765 0 0 1 -19.7297621-19.729765 19.729762 19.729765 0 0 1 19.7297621-19.7297632 19.729762 19.729765 0 0 1 19.729762 19.7297632z" fill="#ec9d72" opacity=".99" transform="matrix(1.1503549 0 0 1.1503549 -4.486125 -7.525565)"/><path d="m24.864814 10.502041a1.1248624 1.1248624 0 0 0 -1.054452.988549l-1.001731 8.048991a12.372248 8.9979977 0 0 0 -7.539338 2.46039 3.3742494 3.3742494 0 0 0 -2.71302-1.372985 3.3742494 3.3742494 0 0 0 -3.3742492 3.374249 3.3742494 3.3742494 0 0 0 2.3878972 3.222672 12.372248 8.9979977 0 0 0 -.138397 1.276327 12.372248 8.9979977 0 0 0 12.372248 8.997999 12.372248 8.9979977 0 0 0 12.372248-8.997999 12.372248 8.9979977 0 0 0 -.138398-1.27413 3.3742494 3.3742494 0 0 0 2.387897-3.224869 3.3742494 3.3742494 0 0 0 -3.374249-3.374249 3.3742494 3.3742494 0 0 0 -2.708626 1.368592 12.372248 8.9979977 0 0 0 -7.271332-2.434029l.830381-6.660628 4.813139.687592a2.2494995 2.2494995 0 0 0 2.086938 1.414724 2.2494995 2.2494995 0 0 0 2.2495-2.2495 2.2494995 2.2494995 0 0 0 -2.2495-2.2495 2.2494995 2.2494995 0 0 0 -1.766208.861137l-5.946676-.845759a1.1248624 1.1248624 0 0 0 -.224072-.01758zm-5.560042 13.499194a2.2494995 2.2494995 0 0 1 2.2495 2.2495 2.2494995 2.2494995 0 0 1 -2.2495 2.249499 2.2494995 2.2494995 0 0 1 -2.249499-2.249499 2.2494995 2.2494995 0 0 1 2.249499-2.2495zm8.997999 0a2.2494995 2.2494995 0 0 1 2.249499 2.2495 2.2494995 2.2494995 0 0 1 -2.249499 2.249499 2.2494995 2.2494995 0 0 1 -2.2495-2.249499 2.2494995 2.2494995 0 0 1 2.2495-2.2495zm1.100586 6.715547a1.1287873 1.1287873 0 0 1 1.032484 1.662961c.000001 0-.475851.862755-1.511383 1.553121-1.035531.690366-2.685925 1.311476-5.122883 1.311476-2.436959 0-4.087352-.62111-5.122885-1.311476-1.035531-.690366-1.502594-1.553121-1.502594-1.553121a1.1248624 1.1248624 0 0 1 .905071-1.64319 1.1248624 1.1248624 0 0 1 .114233-.0044 1.1248624 1.1248624 0 0 1 .990746.634868s.08653.264163.738117.698575c.651594.43437 1.815271.938024 3.877312.938024 2.06204 0 3.225722-.503654 3.877311-.938024.651593-.434326.740314-.698575.740314-.698575a1.1287873 1.1287873 0 0 1 .984157-.650246z" fill="#fff" stroke-width="1.12475"/></svg>