<svg height="48" width="48" xmlns="http://www.w3.org/2000/svg"><path d="m44.322082 27.405077a19.729762 19.729765 0 0 1 -19.729762 19.729765 19.729762 19.729765 0 0 1 -19.7297621-19.729765 19.729762 19.729765 0 0 1 19.7297621-19.7297632 19.729762 19.729765 0 0 1 19.729762 19.7297632z" fill="#c36b6b" opacity=".99" transform="matrix(1.1503549 0 0 1.1503549 -4.486125 -7.525565)"/><path d="m33.337866 40.148505c-2.793524 1.652859-6.053026 2.601495-9.534094 2.601495-10.355339 0-18.75-8.394661-18.75-18.75s8.394661-18.75 18.75-18.75 18.75 8.394661 18.75 18.75" fill="none" stroke="#fff" stroke-linecap="round" stroke-linejoin="round" stroke-width="2.6"/><path d="m45.6 24h-6.3l3.3 4.5z" fill="#fff" fill-opacity=".996078"/></svg>