<svg height="48" width="48" xmlns="http://www.w3.org/2000/svg"><path d="m44.322082 27.405077a19.729762 19.729765 0 0 1 -19.729762 19.729765 19.729762 19.729765 0 0 1 -19.7297621-19.729765 19.729762 19.729765 0 0 1 19.7297621-19.7297632 19.729762 19.729765 0 0 1 19.729762 19.7297632z" fill="#69aee7" opacity=".99" transform="matrix(1.1503549 0 0 1.1503549 -4.486125 -7.525565)"/><path d="m15 27 4.5 13.5 4.5 1.5 4.5-1.5 4.5-13.5z" fill="#bcdaf4"/><path d="m15 27 1.5 4.5 7.5 1.5 7.5-1.5 1.5-4.5z" fill="#fff" fill-opacity=".588957"/><path d="m13.5 9 6 13.5 3 1.5h3l3-1.5 4.5-13.5h1.5l-1.5 18-9 1.5h-1.5l-7.5-1.5-3-18z" fill="#fcfeff"/><path d="m27 30 3-.9v1.5l-3 .9z" fill="#69aee7"/><path d="m18 29.1 3 .9v1.5l-3-.9z" fill="#69aee7"/><path d="m18 36 1.5 4.5 4.5 1.5 4.5-1.5 1.5-4.5-6 1.5z" fill="#fff" fill-opacity=".337423"/></svg>