<?xml version="1.0" encoding="UTF-8" standalone="no"?>
<svg
   xmlns:dc="http://purl.org/dc/elements/1.1/"
   xmlns:cc="http://creativecommons.org/ns#"
   xmlns:rdf="http://www.w3.org/1999/02/22-rdf-syntax-ns#"
   xmlns:svg="http://www.w3.org/2000/svg"
   xmlns="http://www.w3.org/2000/svg"
   xmlns:sodipodi="http://sodipodi.sourceforge.net/DTD/sodipodi-0.dtd"
   xmlns:inkscape="http://www.inkscape.org/namespaces/inkscape"
   height="48"
   width="48"
   version="1.1"
   id="svg12"
   sodipodi:docname="resharper.svg"
   inkscape:version="1.0.2 (e86c870879, 2021-01-15)">
  <metadata
     id="metadata18">
    <rdf:RDF>
      <cc:Work
         rdf:about="">
        <dc:format>image/svg+xml</dc:format>
        <dc:type
           rdf:resource="http://purl.org/dc/dcmitype/StillImage" />
        <dc:title></dc:title>
      </cc:Work>
    </rdf:RDF>
  </metadata>
  <defs
     id="defs16" />
  <sodipodi:namedview
     pagecolor="#ffffff"
     bordercolor="#666666"
     borderopacity="1"
     objecttolerance="10"
     gridtolerance="10"
     guidetolerance="10"
     inkscape:pageopacity="0"
     inkscape:pageshadow="2"
     inkscape:window-width="1920"
     inkscape:window-height="1031"
     id="namedview14"
     showgrid="true"
     inkscape:zoom="13.906433"
     inkscape:cx="33.56165"
     inkscape:cy="16.549755"
     inkscape:window-x="0"
     inkscape:window-y="24"
     inkscape:window-maximized="1"
     inkscape:current-layer="svg12"
     inkscape:document-rotation="0">
    <inkscape:grid
       type="xygrid"
       id="grid828" />
  </sodipodi:namedview>
  <rect
     fill="#47b472"
     height="43"
     ry="1.452703"
     width="43"
     x="2"
     y="3"
     id="rect2"
     style="fill:#b49b79;fill-opacity:1" />
  <path
     d="m23.5 3h20.047297c.804798 0 1.452703.6479055 1.452703 1.4527029v20.0472971h-21.5z"
     fill="#6da1c8"
     id="path4"
     style="fill:#c8846d;fill-opacity:1" />
  <path
     d="m45 24.5v20.047297c0 .804798-.647905 1.452703-1.452703 1.452703h-40.0945941c-.8047974 0-1.4527029-.647905-1.4527029-1.452703v-20.047297z"
     fill="#6dc8bd"
     id="path6"
     style="fill:#dccb8b;fill-opacity:1" />
  <path
     d="m45 24.5v20.047297c0 .804798-.647905 1.452703-1.452703 1.452703h-20.047297v-21.5z"
     fill="#d5bf56"
     id="path8"
     style="fill:#b79b7b;fill-opacity:1" />
  <path
     id="path10"
     style="fill:#ffffff"
     d="M 9 10 L 9 39 L 38 39 L 38 10 L 9 10 z M 31.675781 15.570312 C 33.130797 15.59767 33.102566 15.565036 33.072266 17.179688 L 33.050781 18.287109 L 34.363281 18.355469 L 35.675781 18.421875 L 35.699219 19.546875 C 35.728775 20.947553 35.618467 21.050004 34.097656 21.021484 L 33 21 L 32.978516 22.113281 C 32.967001 22.725713 32.915981 23.333058 32.863281 23.462891 C 32.786901 23.651005 32.519111 23.694481 31.523438 23.675781 C 30.06792 23.648432 30.096503 23.681822 30.126953 22.060547 L 30.148438 20.947266 L 28.984375 20.921875 C 28.344086 20.910595 27.734229 20.842554 27.628906 20.771484 C 27.491566 20.680695 27.456336 20.305282 27.503906 19.457031 L 27.570312 18.271484 L 28.884766 18.251953 L 30.199219 18.232422 L 30.220703 17.125 C 30.250956 15.510657 30.220803 15.542993 31.675781 15.570312 z M 13.552734 16.619141 C 15.22584 16.573851 18.345861 16.675947 19.195312 16.851562 C 20.25868 17.069125 20.815633 17.344809 21.470703 17.984375 C 23.282188 19.752803 22.906577 23.241878 20.779297 24.404297 C 20.443951 24.587624 20.166963 24.805902 20.164062 24.888672 C 20.161046 24.971185 20.724798 25.906615 21.417969 26.96875 C 22.202281 28.170492 22.643977 28.987586 22.585938 29.130859 C 22.457323 29.448031 19.990436 29.416526 19.544922 29.091797 C 19.378877 28.970874 18.763013 28.114925 18.175781 27.189453 L 17.107422 25.505859 L 16.078125 25.486328 L 15.046875 25.466797 L 15.017578 27.107422 C 14.993277 28.398544 14.935194 28.7985 14.746094 28.980469 C 14.57452 29.145552 14.219769 29.20425 13.503906 29.1875 C 11.835572 29.148534 11.9646 29.731905 12.09375 22.857422 C 12.202191 17.08754 12.2177 16.860794 12.5 16.716797 C 12.59825 16.666572 12.995033 16.634237 13.552734 16.619141 z M 15.164062 19.28125 L 15.132812 20.960938 L 15.101562 22.640625 L 16.916016 22.625 L 18.730469 22.609375 L 19.177734 22.126953 C 19.795818 21.460296 19.811477 20.643939 19.21875 19.955078 L 18.789062 19.457031 L 16.976562 19.369141 L 15.164062 19.28125 z M 27.042969 22.388672 C 28.49797 22.41601 28.469773 22.383305 28.439453 23.998047 L 28.417969 25.105469 L 29.730469 25.173828 L 31.042969 25.242188 L 31.019531 26.517578 L 30.996094 27.794922 L 29.681641 27.8125 L 28.367188 27.832031 L 28.345703 28.939453 C 28.334325 29.548698 28.283139 30.153604 28.230469 30.283203 C 28.154085 30.471316 27.886289 30.512841 26.890625 30.494141 C 25.435668 30.466818 25.463801 30.501393 25.494141 28.886719 L 25.515625 27.777344 L 24.203125 27.710938 L 22.890625 27.642578 L 22.914062 26.365234 L 22.9375 25.089844 L 24.251953 25.072266 L 25.566406 25.052734 L 25.587891 23.945312 C 25.618315 22.330297 25.587986 22.361332 27.042969 22.388672 z " />
  <g
     aria-label="IJ"
     style="font-style:normal;font-variant:normal;font-weight:bold;font-stretch:condensed;font-size:26.59427071px;line-height:1.25;font-family:'Roboto Condensed';-inkscape-font-specification:'Roboto Condensed,  Bold Condensed';letter-spacing:0px;word-spacing:0px;fill:#000000;fill-opacity:1;stroke:none;stroke-width:0.66485679"
     id="text832" />
  <g
     aria-label="DG"
     transform="scale(0.80125772,1.2480379)"
     id="text838"
     style="font-style:normal;font-variant:normal;font-weight:bold;font-stretch:normal;font-size:16.9032px;line-height:1.25;font-family:'DejaVu Sans';-inkscape-font-specification:'DejaVu Sans Bold';fill:#000000;fill-opacity:1;stroke:none;stroke-width:0.42258" />
</svg>
