<?xml version="1.0" encoding="UTF-8" standalone="no"?>
<svg
   xmlns:dc="http://purl.org/dc/elements/1.1/"
   xmlns:cc="http://creativecommons.org/ns#"
   xmlns:rdf="http://www.w3.org/1999/02/22-rdf-syntax-ns#"
   xmlns:svg="http://www.w3.org/2000/svg"
   xmlns="http://www.w3.org/2000/svg"
   xmlns:sodipodi="http://sodipodi.sourceforge.net/DTD/sodipodi-0.dtd"
   xmlns:inkscape="http://www.inkscape.org/namespaces/inkscape"
   height="48"
   width="48"
   id="svg2"
   version="1.1"
   inkscape:version="0.91 r13725"
   sodipodi:docname="rosamp.svg">
  <metadata
     id="metadata33">
    <rdf:RDF>
      <cc:Work
         rdf:about="">
        <dc:format>image/svg+xml</dc:format>
        <dc:type
           rdf:resource="http://purl.org/dc/dcmitype/StillImage" />
      </cc:Work>
    </rdf:RDF>
  </metadata>
  <defs
     id="defs31" />
  <sodipodi:namedview
     pagecolor="#ffffff"
     bordercolor="#666666"
     borderopacity="1"
     objecttolerance="10"
     gridtolerance="10"
     guidetolerance="10"
     inkscape:pageopacity="0"
     inkscape:pageshadow="2"
     inkscape:window-width="1920"
     inkscape:window-height="1025"
     id="namedview29"
     showgrid="false"
     inkscape:zoom="4.9166667"
     inkscape:cx="24"
     inkscape:cy="24"
     inkscape:window-x="0"
     inkscape:window-y="26"
     inkscape:window-maximized="1"
     inkscape:current-layer="svg2" />
  <rect
     fill="#588f66"
     height="43"
     ry="1.452703"
     width="43"
     x="2"
     y="3"
     id="rect7" />
  <path
     d="m3.4527029 3h40.0945941c.804798 0 1.452703.6479055 1.452703 1.4527029v8.5455121l-43 .151523v-8.6970351c0-.8047974.6479055-1.4527029 1.4527029-1.4527029z"
     fill="#3c4147"
     id="path9" />
  <path
     style="color:#000000;font-style:normal;font-variant:normal;font-weight:normal;font-stretch:normal;font-size:medium;line-height:normal;font-family:sans-serif;text-indent:0;text-align:start;text-decoration:none;text-decoration-line:none;text-decoration-style:solid;text-decoration-color:#000000;letter-spacing:normal;word-spacing:normal;text-transform:none;direction:ltr;block-progression:tb;writing-mode:lr-tb;baseline-shift:baseline;text-anchor:start;white-space:normal;clip-rule:nonzero;display:inline;overflow:visible;visibility:visible;opacity:1;isolation:auto;mix-blend-mode:normal;color-interpolation:sRGB;color-interpolation-filters:linearRGB;solid-color:#000000;solid-opacity:1;fill:#ffffff;fill-opacity:1;fill-rule:nonzero;stroke:none;stroke-width:3;stroke-linecap:square;stroke-linejoin:miter;stroke-miterlimit:4;stroke-dasharray:none;stroke-dashoffset:0;stroke-opacity:1;color-rendering:auto;image-rendering:auto;shape-rendering:auto;text-rendering:auto;enable-background:accumulate"
     d="M 7.3847656 3 L 5.3847656 8 L 7.4375 13.130859 L 10.662109 13.119141 L 10.392578 12.443359 L 8.6152344 8 L 10.392578 3.5566406 L 10.615234 3 L 7.3847656 3 z M 14.384766 3 L 12.384766 8 L 14.427734 13.105469 L 17.652344 13.095703 L 17.392578 12.443359 L 15.615234 8 L 17.392578 3.5566406 L 17.615234 3 L 14.384766 3 z M 21.384766 3 L 19.384766 8 L 21.417969 13.082031 L 24.642578 13.070312 L 24.392578 12.443359 L 22.615234 8 L 24.392578 3.5566406 L 24.615234 3 L 21.384766 3 z M 28.384766 3 L 26.384766 8 L 28.408203 13.056641 L 31.632812 13.044922 L 31.392578 12.443359 L 29.615234 8 L 31.392578 3.5566406 L 31.615234 3 L 28.384766 3 z M 35.384766 3 L 33.384766 8 L 35.398438 13.03125 L 38.623047 13.021484 L 38.392578 12.443359 L 36.615234 8 L 38.392578 3.5566406 L 38.615234 3 L 35.384766 3 z M 42.384766 3 L 40.384766 8 L 42.386719 13.007812 L 45 12.998047 L 45 11.460938 L 43.615234 8 L 45 4.5390625 L 45 4.453125 C 45 3.6483276 44.351673 3 43.546875 3 L 42.384766 3 z "
     id="path13" />
  <path
     d="m2 8h43"
     fill="#3c4147"
     fill-rule="evenodd"
     stroke="#3c4147"
     stroke-width=".8"
     id="path25" />
  <path
     d="m23.262695 18.091102c-.0052.0205-.01115.03808-.01631.05852l.03577-.0033c-.006-.01944-.01365-.03575-.01951-.05526zm-.117022.409587c-2.306563 8.663153-7.135286 10.381211-7.135286 16.11372 0 4.136399 3.353215 7.489613 7.489613 7.489613.158197 0 .305842-.03585.4616-.0455 1.642705-3.436335 2.012086-6.702178 1.76838-9.908133-.347936-4.577117-1.896255-9.039786-2.584307-13.649689zm.789921 1.540833c.758 3.994959 1.97921 7.958484 2.291743 12.069849.242025 3.183841-.121952 6.462499-1.693614 9.888629 3.642135-.508034 6.455889-3.603526 6.455889-7.385591 0-5.375668-4.248859-7.221651-7.054018-14.572887z"
     fill="#fff"
     opacity=".97"
     id="path27" />
</svg>
