<svg height="48" width="48" xmlns="http://www.w3.org/2000/svg"><path d="m44.322082 27.405077a19.729762 19.729765 0 0 1 -19.729762 19.729765 19.729762 19.729765 0 0 1 -19.7297621-19.729765 19.729762 19.729765 0 0 1 19.7297621-19.7297632 19.729762 19.729765 0 0 1 19.729762 19.7297632z" fill="#659bac" opacity=".99" transform="matrix(1.1503549 0 0 1.1503549 -4.486125 -7.525565)"/><path d="m31.464844 8.9609375c-1.817565.0847488-3.52515.7955623-4.595703 2.2695315 0 0-.001953.001953-.001953.001953-1.45922 2.036921-2.229078 4.432131-2.867188 6.765625v.001953c-.8822 3.267526-2.372807 6.360351-4.248047 9.185547-2.996006 4.491626-6.795986 8.528861-11.3867186 11.318359a21.196228 21.196231 0 0 0 1.1015625 1.072266c2.1905511-1.295621 4.1788811-2.991868 6.0976561-4.529297 2.73093-.267511 5.424413-.801022 8.064453-1.505859.0013-.000492.002607-.001445.003906-.001954 3.710271-1.043024 8.018862-2.48821 10.550782-5.615234 2.52389-3.095161 2.933729-6.903011 2.011718-10.634766-.313519-1.491298-1.970099-3.019491-3.599609-3.341796-.0438-.15412.013893-.828953-.029297-.984375.35334-.387138 1.08698-.682167 1.4375-1.189453.38951-.56372.717228-.961622.517578-1.734376-.01073-.0408395-.028474-.0787217-.052734-.1132808-.42967-.619809-1.512623-.9616296-2.220703-.9628906-.262589-.0130218-.523551-.0140601-.783203-.0019531z" fill="#fff"/></svg>