<svg height="48" width="48" xmlns="http://www.w3.org/2000/svg"><path d="m44.322082 27.405077a19.729762 19.729765 0 0 1 -19.729762 19.729765 19.729762 19.729765 0 0 1 -19.7297621-19.729765 19.729762 19.729765 0 0 1 19.7297621-19.7297632 19.729762 19.729765 0 0 1 19.729762 19.7297632z" fill="#d29363" opacity=".99" transform="matrix(1.1503549 0 0 1.1503549 -4.486125 -7.525565)"/><path d="m16.107343 12.455358v2.565476h3.848214v2.565476h-6.41369v6.413691h-2.565477v-3.848215h-2.5654757v10.261905h2.5654757v-3.848214h2.565477v3.848214l5.130952 5.130952h11.544642l2.565477-2.565476 2.565476.02052v1.262728h2.565476l1.282738-1.282739v-10.2619l-1.282738-1.282738h-2.565476v1.282738h-.962054l-5.130952-5.130953h-6.734375v-2.565476h3.848214v-2.565476zm0 7.696428h11.544642l5.130953 5.130953h3.848214v5.130952h-5.130952l-2.565477 2.565476h-8.658482l-4.168898-4.168898z" fill="#fff" stroke-width="1.282738"/></svg>