<svg height="48" width="48" xmlns="http://www.w3.org/2000/svg"><path d="m44.322082 27.405077a19.729762 19.729765 0 0 1 -19.729762 19.729765 19.729762 19.729765 0 0 1 -19.7297621-19.729765 19.729762 19.729765 0 0 1 19.7297621-19.7297632 19.729762 19.729765 0 0 1 19.729762 19.7297632z" fill="#ac6596" opacity=".99" transform="matrix(1.1503549 0 0 1.1503549 -4.486125 -7.525565)"/><g fill="#fff"><path d="m16.107422 12.455078v2.566406h3.847656v2.564454h-6.414062v6.414062h-2.564454v-3.847656h-2.5664058v10.261718h2.5664058v-3.847656h2.564454v3.847656l5.130859 5.13086h7.787109v-.550781c-.000388-.44242.358362-.80117.800782-.800782h.859375c.03905-.107006.0799-.212297.125-.316406l-.603516-.603515c-.085972-.08577-.142846-.187847-.181641-.294922h-7.183593l-4.167969-4.167969v-8.658203h11.544922l5.130859 5.130859h3.847656v4.994141c.309144-.195692.716668-.173661.986329.095703l1.580078 1.578125v-9.232422l-1.283204-1.283203h-2.566406v1.283203h-.960937l-5.13086-5.132812h-6.734375v-2.564454h3.847657v-2.566406zm19.457031 17.958984v.388672c.117267.044862.232173.092322.345703.144532l.535156-.533204zm-4.101562.03711-.421875.421875.076172.074219c.113654-.052245.228322-.101605.345703-.146485z" stroke-width="1.282738"/><path d="m33.51317 37.99574c-.96741 0-1.75123-.78305-1.75123-1.75123s.7838-1.75123 1.75123-1.75123c.9677 0 1.75123.78305 1.75123 1.75123s-.78355 1.75123-1.75123 1.75123zm6.2544-.50035v-2.50176h-1.39348c-.11233-.46783-.28895-.91064-.52287-1.31842l.96895-.96818-1.76874-1.76875-.94892.94817c-.41154-.25018-.86035-.44031-1.33844-.5629v-1.33343h-2.50176v1.33343c-.47783.12259-.9269.31272-1.33815.5629l-.94892-.94817-1.76874 1.76875.96895.96818c-.23392.40778-.41054.85059-.52287 1.31842h-1.39377v2.50176h1.4363c.12359.44782.30722.86811.54263 1.25589l-1.0312 1.03072 1.76874 1.76874 1.05151-1.05074c.38302.22016.79756.38778 1.23558.50286v1.49605h2.50176v-1.49605c.43806-.11508.85285-.2827 1.23587-.50286l1.05151 1.05074 1.76874-1.76874-1.03121-1.03072c.23542-.38778.41905-.80807.54264-1.25589h1.436" stroke-width=".962215"/></g></svg>