<svg height="48" width="48" xmlns="http://www.w3.org/2000/svg"><path d="m23.804688 1.3046875a22.696228 22.696232 0 0 0 -22.6972661 22.6953125 22.696228 22.696232 0 0 0 2.2558593 9.818359l-1.8632812 11.181641 10.541016-1.621094a22.696228 22.696232 0 0 0 11.763672 3.316406 22.696228 22.696232 0 0 0 22.695312-22.695312 22.696228 22.696232 0 0 0 -22.695312-22.6953125z" fill="#5a98d8"/><path d="m23.771029 4.5c-10.829636-.0006021-19.6092228 8.77817-19.6096282 19.607807.00614 2.938085.6724426 5.837235 1.9496761 8.483186l-1.6110769 9.659179 9.107591-1.399907c3.062061 1.866515 6.577349 2.857571 10.163438 2.865351 10.828925-.000404 19.607403-8.778882 19.607807-19.607809-.000405-10.828926-8.778883-19.6074033-19.607807-19.607807z" fill="#fff"/><path d="m24.046335 9c-8.192059-.0004555-14.8333628 6.640232-14.8336695 14.832292.00465 2.222509.508668 4.415566 1.4748295 6.417092l-1.2186967 7.306669 6.8894217-1.058957c2.316291 1.411923 4.975425 2.161605 7.688115 2.16749 8.191522-.000306 14.831987-6.64077 14.832292-14.832294-.000306-8.191523-6.640771-14.8319866-14.832292-14.832292z" fill="none" stroke="#5a98d8" stroke-dasharray="2 4" stroke-linecap="round" stroke-width="2"/></svg>