<?xml version="1.0" encoding="UTF-8" standalone="no"?>
<svg
   xmlns:dc="http://purl.org/dc/elements/1.1/"
   xmlns:cc="http://creativecommons.org/ns#"
   xmlns:rdf="http://www.w3.org/1999/02/22-rdf-syntax-ns#"
   xmlns:svg="http://www.w3.org/2000/svg"
   xmlns="http://www.w3.org/2000/svg"
   xmlns:sodipodi="http://sodipodi.sourceforge.net/DTD/sodipodi-0.dtd"
   xmlns:inkscape="http://www.inkscape.org/namespaces/inkscape"
   height="48"
   width="48"
   version="1.1"
   id="svg18"
   sodipodi:docname="simplenote.svg"
   inkscape:version="0.92.4 (5da689c313, 2019-01-14)">
  <metadata
     id="metadata24">
    <rdf:RDF>
      <cc:Work
         rdf:about="">
        <dc:format>image/svg+xml</dc:format>
        <dc:type
           rdf:resource="http://purl.org/dc/dcmitype/StillImage" />
        <dc:title></dc:title>
      </cc:Work>
    </rdf:RDF>
  </metadata>
  <defs
     id="defs22" />
  <sodipodi:namedview
     pagecolor="#ffffff"
     bordercolor="#666666"
     borderopacity="1"
     objecttolerance="10"
     gridtolerance="10"
     guidetolerance="10"
     inkscape:pageopacity="0"
     inkscape:pageshadow="2"
     inkscape:window-width="1920"
     inkscape:window-height="1026"
     id="namedview20"
     showgrid="true"
     inkscape:zoom="3.4766083"
     inkscape:cx="30.84927"
     inkscape:cy="23.080299"
     inkscape:window-x="0"
     inkscape:window-y="30"
     inkscape:window-maximized="1"
     inkscape:current-layer="svg18">
    <inkscape:grid
       type="xygrid"
       id="grid834" />
  </sodipodi:namedview>
  <circle
     cx="23.940615"
     cy="31.534513"
     fill="#6c6753"
     opacity=".99"
     r="13.232998"
     transform="matrix(1.72140702696 0 0 1.72140725788 -17.2289093957 -30.06939350282)"
     id="circle2"
     style="fill:#5688a9;fill-opacity:1" />
  <g
     id="g4558"
     transform="matrix(0.20524264,0,0,0.20524264,10.721035,11.043603)">
    <circle
       id="circle4544"
       r="59.876759"
       cy="64.171577"
       cx="64.614243"
       style="fill:url(#a);stroke:#ffffff;stroke-width:5.61155891" />
    <path
       id="path4546"
       d="M 81.897398,122.30618 C 90.914084,109.91385 94.303277,98.835277 92.654297,88.472656 90.429634,74.492289 80.482389,65.834959 72.609375,58.396484 64.736361,50.95801 58.679083,44.624497 57.175781,38.173828 55.67248,31.723159 57.094889,22.377439 70.939453,5.4765625 L 44.944122,7.8109686 C 37.424101,20.872861 35.30602,32.452052 37.697266,42.712891 40.967216,56.744248 51.040731,65.531726 58.875,72.933594 c 7.834269,7.401868 13.171616,13.304019 14.027344,18.68164 0.855728,5.377622 -1.32226,14.250036 -16.867188,30.230466 8.41097,3.65728 17.059119,3.35309 25.862242,0.46048 z"
       inkscape:connector-curvature="0"
       style="fill:#ffffff" />
  </g>
</svg>
