<?xml version="1.0" encoding="UTF-8" standalone="no"?>
<svg
   xmlns:dc="http://purl.org/dc/elements/1.1/"
   xmlns:cc="http://creativecommons.org/ns#"
   xmlns:rdf="http://www.w3.org/1999/02/22-rdf-syntax-ns#"
   xmlns:svg="http://www.w3.org/2000/svg"
   xmlns="http://www.w3.org/2000/svg"
   xmlns:xlink="http://www.w3.org/1999/xlink"
   xmlns:sodipodi="http://sodipodi.sourceforge.net/DTD/sodipodi-0.dtd"
   xmlns:inkscape="http://www.inkscape.org/namespaces/inkscape"
   height="48"
   width="48"
   version="1.1"
   id="svg6"
   sodipodi:docname="snes.svg"
   inkscape:version="0.92.4 (5da689c313, 2019-01-14)">
  <metadata
     id="metadata12">
    <rdf:RDF>
      <cc:Work
         rdf:about="">
        <dc:format>image/svg+xml</dc:format>
        <dc:type
           rdf:resource="http://purl.org/dc/dcmitype/StillImage" />
        <dc:title></dc:title>
      </cc:Work>
    </rdf:RDF>
  </metadata>
  <defs
     id="defs10">
    <linearGradient
       gradientUnits="userSpaceOnUse"
       y2="8.2220001"
       x2="-42.945"
       y1="20.17"
       x1="-42.740002"
       id="8">
      <stop
         id="stop2"
         stop-color="#ceb270" />
      <stop
         id="stop4"
         stop-color="#ffe6b5"
         offset="1" />
    </linearGradient>
    <linearGradient
       gradientUnits="userSpaceOnUse"
       y2="7.8340001"
       x2="-46.459999"
       y1="14.902"
       x1="-46.349998"
       id="5"
       xlink:href="#6"
       gradientTransform="matrix(0.98074528,0,0,0.98074528,63.41346,24.106693)" />
    <linearGradient
       gradientUnits="userSpaceOnUse"
       y2="8.3509998"
       x2="-39.27"
       y1="14.978"
       x1="-39.02"
       id="7"
       xlink:href="#6"
       gradientTransform="matrix(0.98074528,0,0,0.98074528,63.41346,24.106693)" />
    <linearGradient
       id="6">
      <stop
         id="stop9"
         stop-color="#141414" />
      <stop
         id="stop11"
         stop-color="#2d2d2f"
         offset="1" />
    </linearGradient>
    <linearGradient
       gradientUnits="userSpaceOnUse"
       y2="-4.1500001"
       x2="-56.150002"
       y1="5.5110002"
       x1="-58.804001"
       id="4"
       xlink:href="#1"
       gradientTransform="matrix(0.98074528,0,0,0.98074528,63.41346,24.106693)" />
    <linearGradient
       gradientUnits="userSpaceOnUse"
       y2="-13.524"
       x2="-43.470001"
       y1="9.6630001"
       x1="-43.715"
       id="3"
       gradientTransform="matrix(0.98074528,0,0,0.98074528,63.41346,24.106693)">
      <stop
         id="stop15"
         stop-color="#c52828" />
      <stop
         id="stop17"
         stop-color="#ff5454"
         offset="1" />
    </linearGradient>
    <linearGradient
       gradientUnits="userSpaceOnUse"
       y2="-4.658"
       x2="-28.01"
       y1="6.02"
       x1="-26.599001"
       id="0"
       xlink:href="#1" />
    <linearGradient
       gradientUnits="userSpaceOnUse"
       y2="-11.173"
       x2="-43.473999"
       y1="4.7930002"
       x1="-43.299999"
       id="2"
       xlink:href="#1"
       gradientTransform="matrix(0.98074528,0,0,0.98074528,63.41346,24.106693)" />
    <linearGradient
       id="1">
      <stop
         id="stop22"
         stop-color="#e0e0e0" />
      <stop
         id="stop24"
         stop-color="#fcf9f9"
         offset="1" />
    </linearGradient>
  </defs>
  <sodipodi:namedview
     pagecolor="#ffffff"
     bordercolor="#666666"
     borderopacity="1"
     objecttolerance="10"
     gridtolerance="10"
     guidetolerance="10"
     inkscape:pageopacity="0"
     inkscape:pageshadow="2"
     inkscape:window-width="1920"
     inkscape:window-height="1023"
     id="namedview8"
     showgrid="false"
     inkscape:zoom="6.9532167"
     inkscape:cx="2.6440678"
     inkscape:cy="24"
     inkscape:window-x="0"
     inkscape:window-y="29"
     inkscape:window-maximized="1"
     inkscape:current-layer="svg6" />
  <circle
     cx="23.940615"
     cy="31.534513"
     fill="#74a2f3"
     opacity=".99"
     r="13.232998"
     transform="matrix(1.75830584759 0 0 1.75830608345 -18.15909274367 -30.97874795549)"
     id="circle2"
     style="fill:#dc8b98;fill-opacity:1" />
  <g
     id="g902"
     transform="translate(2.3450207,-2.0734131)">
    <path
       id="path29"
       d="m 21.609375,10.796875 c -6.679247,0 -11.149571,3.788111 -13.7226562,8.140625 2.1656382,3.423845 1.2135201,10.150328 -2.2832032,12.177734 1.0430281,3.746675 3.8644436,5.462161 6.1152344,6.292969 h 0.002 c 1.936325,0.374611 3.827579,0.635963 5.699219,0.802735 -0.124677,-0.506601 -0.160156,-1.193308 -0.160156,-1.917969 0,-1.452484 0.118703,-2.681641 0.908203,-2.681641 0.789504,0 0.822265,1.264313 0.822265,2.716797 0,0.772264 -0.04171,1.485587 -0.1875,1.990234 1.881227,0.11544 3.748423,0.121922 5.619141,0.01563 -0.149785,-0.505398 -0.193359,-1.225086 -0.193359,-2.005859 0,-1.452484 0.03081,-2.716797 0.820312,-2.716797 0.7895,0 0.910156,1.229157 0.910156,2.681641 0,0.734316 -0.03527,1.429048 -0.164062,1.9375 1.883649,-0.162395 3.777654,-0.426264 5.707031,-0.822266 2.693797,-0.99339 6.211928,-3.244341 6.507813,-8.746094 -0.05112,0.846227 -0.189021,1.673731 -0.433594,2.455079 -3.502242,-2.02622 -4.455554,-8.764701 -2.283203,-12.1875 0.119193,0.160963 0.23438,0.364947 0.351562,0.548828 C 33.12856,14.902958 28.564513,10.796875 21.609375,10.796875 Z M 5.6035156,31.115234 c -0.037748,-0.135594 -0.078364,-0.267216 -0.1113281,-0.408203 0.035872,0.136962 0.065368,0.275805 0.1074219,0.410157 0.00124,-7.18e-4 0.00267,-0.0012 0.00391,-0.002 z M 21.609375,13.220703 c 4.278011,0 7.744141,3.361221 7.744141,7.507813 0,4.146591 -3.46711,7.507812 -7.744141,7.507812 -4.27801,0 -7.746094,-3.361221 -7.746094,-7.507812 0,-4.146592 3.469064,-7.507813 7.746094,-7.507813 z m 16.423828,14.589844 c 0.0017,0.284443 -0.0065,0.568171 -0.02344,0.849609 0.01311,-0.2444 0.0293,-0.486703 0.0293,-0.74414 0,-0.03356 -0.0056,-0.0716 -0.0059,-0.105469 z"
       style="fill:#ffffff;fill-opacity:0.66666667;stroke-width:0.98074526"
       inkscape:connector-curvature="0" />
    <path
       id="path31"
       d="m 21.609375,32.220703 c -5.67263,0 -8.454447,2.290327 -9.060547,3.138672 -0.02648,1.495636 0.26768,3.72332 1.388672,4.941406 1.505444,1.629998 4.841445,1.986328 7.671875,1.986328 2.830431,0 6.166431,-0.35633 7.671875,-1.986328 1.120992,-1.213182 1.415152,-3.441847 1.388672,-4.941406 -0.6061,-0.848345 -3.386935,-3.138672 -9.060547,-3.138672 z m -3.441406,1.390625 c 0.789504,0 0.822265,1.264313 0.822265,2.716797 0,1.452483 -0.137521,2.71875 -0.865234,2.71875 -0.727713,0 -0.865234,-1.301422 -0.865234,-2.753906 0,-1.452484 0.118703,-2.681641 0.908203,-2.681641 z m 6.880859,0 c 0.7895,0 0.910156,1.229157 0.910156,2.681641 0,1.452484 -0.137521,2.753906 -0.865234,2.753906 -0.727713,0 -0.865234,-1.266267 -0.865234,-2.71875 0,-1.452484 0.03081,-2.716797 0.820312,-2.716797 z"
       style="fill:#ffffff;fill-opacity:1;stroke-width:0.98074526"
       inkscape:connector-curvature="0" />
    <g
       transform="matrix(0.98074528,0,0,0.98074528,63.41346,24.106693)"
       style="fill-rule:evenodd"
       id="g43">
      <path
         id="path39"
         transform="matrix(1.0196327,0,0,1.0196327,-64.65844,-24.579974)"
         d="m 7.8828125,18.929688 c -1.8722427,2.528361 -3.5875943,8.020313 -2.2832031,12.1875 3.5022414,-2.02622 4.4555536,-8.764699 2.2832031,-12.1875 z m 27.4101565,0 c -2.172351,3.422801 -1.219039,10.16128 2.283203,12.1875 1.304391,-4.167187 -0.410961,-9.659139 -2.283203,-12.1875 z"
         style="opacity:0.95;fill:#e0e0e0;fill-opacity:0.39583333;stroke-width:0.98074526"
         inkscape:connector-curvature="0" />
    </g>
  </g>
</svg>
