<?xml version="1.0" encoding="UTF-8" standalone="no"?>
<svg
   xmlns:dc="http://purl.org/dc/elements/1.1/"
   xmlns:cc="http://creativecommons.org/ns#"
   xmlns:rdf="http://www.w3.org/1999/02/22-rdf-syntax-ns#"
   xmlns:svg="http://www.w3.org/2000/svg"
   xmlns="http://www.w3.org/2000/svg"
   xmlns:xlink="http://www.w3.org/1999/xlink"
   xmlns:sodipodi="http://sodipodi.sourceforge.net/DTD/sodipodi-0.dtd"
   xmlns:inkscape="http://www.inkscape.org/namespaces/inkscape"
   version="1.1"
   preserveAspectRatio="xMidYMid meet"
   viewBox="0 0 640 640"
   width="64"
   height="64"
   id="svg22"
   sodipodi:docname="soulseek.svg"
   inkscape:version="0.92.4 5da689c313, 2019-01-14">
  <metadata
     id="metadata26">
    <rdf:RDF>
      <cc:Work
         rdf:about="">
        <dc:format>image/svg+xml</dc:format>
        <dc:type
           rdf:resource="http://purl.org/dc/dcmitype/StillImage" />
      </cc:Work>
    </rdf:RDF>
  </metadata>
  <sodipodi:namedview
     pagecolor="#ffffff"
     bordercolor="#666666"
     borderopacity="1"
     objecttolerance="10"
     gridtolerance="10"
     guidetolerance="10"
     inkscape:pageopacity="0"
     inkscape:pageshadow="2"
     inkscape:window-width="1850"
     inkscape:window-height="1048"
     id="namedview24"
     showgrid="false"
     inkscape:zoom="3.6875"
     inkscape:cx="-15.216545"
     inkscape:cy="59.318081"
     inkscape:window-x="70"
     inkscape:window-y="32"
     inkscape:window-maximized="1"
     inkscape:current-layer="svg22" />
  <defs
     id="defs4">
    <path
       d="M616.72 321.71C616.72 486.1 484.02 619.56 320.57 619.56C157.12 619.56 24.42 486.1 24.42 321.71C24.42 157.32 157.12 23.85 320.57 23.85C484.02 23.85 616.72 157.32 616.72 321.71Z"
       id="a1DbOXU8Ob" />
    <path
       d="M445.69 164.03C430.33 190.16 418.06 220.21 407.4 251.99C403.31 264.1 399.45 276.14 395.25 288.74C395.15 289.22 394.92 289.3 394.92 289.3C394.55 288.97 394.55 288.97 394.18 288.64C393.81 288.31 393.21 288.06 392.84 287.73C385.63 281.56 378.04 275.06 370.46 268.57C370.09 268.24 369.62 268.39 369.75 268.8C369.71 271.06 370.51 273.49 371.64 275.36C375.3 281.8 379.31 287.67 383.21 294.03C385.71 297.7 388.31 300.89 390.58 304.63C391.08 305.37 391.61 306.99 391.4 307.96C385.11 335.61 378.82 363.26 372.53 390.9C371.92 393.8 370.74 394.18 368.7 393.5C361.74 391.29 354.92 386.34 348.3 380.43C339.22 371.72 330.13 363.03 321.15 353.84C319.18 351.79 317.28 348.38 315.41 345.84C308.61 334.6 301.17 325.36 292.34 320.62C291.74 320.37 291.24 319.63 290.74 318.9C282.13 306.9 272.88 296.91 263.63 286.91C257.59 280.36 251.51 272.92 244.83 268.37C238.74 264.08 232.72 261.56 226.77 257.67C215.5 251.03 204.46 244.32 193.32 238.08C186.06 234.17 178.73 231.63 171.5 228.61C152.6 220.88 133.95 213.96 115.24 208.41C100.24 203.89 86.6 204.31 73.29 207.32C64.81 209.2 56.45 211.48 48.24 214.17C48 214.25 48 214.25 48.37 214.58C50.04 214.93 51.62 215.76 53.29 216.11C84.59 225.17 116.22 236.82 147.86 255.65C166.89 266.94 185.98 280 204.59 296.35C217.09 307.53 228.84 321.19 240.48 335.34C259.94 359.05 278.93 382.92 296.4 410.88C301.8 419.44 307.43 427.92 311.59 438.23C312.89 441.4 314.18 444.57 315.37 448.22C316.67 451.38 317.69 456.89 318.05 460.36C318.63 466.91 318.98 473.53 318.96 479.82C318.8 485.71 317.78 490.53 314.42 492.98C304.08 499.5 292.94 503.6 280.87 504.85C278.63 505.14 276.22 504.13 273.94 503.53C272.5 503.1 271.33 503.49 271.52 505.67C271.58 507.44 272.51 510.28 273.25 510.94C275.45 512.91 278.13 514.73 280.54 515.74C283.78 516.92 286.84 515.92 289.39 514.19C298.66 507.57 308.43 501.67 319.53 499.84C322.95 499.17 325.63 497.84 328.29 495.62C328.31 495.61 328.5 495.55 328.52 495.55C328.76 495.47 329.08 498.06 329.07 501.2C328.93 503.94 328.42 506.36 327.18 508.11C320 520.33 311.55 530.28 301.61 538.03C300 539.45 297.75 539.74 295.64 540.43C294.46 540.81 293.42 541.6 294.08 543.63C294.62 545.25 295.78 548.02 296.62 548.19C299.03 549.2 301.54 549.72 303.78 549.44C306.73 548.92 309.02 546.38 310.81 543.1C317.28 531.1 324.02 519.92 332.89 512.08C335.55 509.86 337.7 506.91 339.36 503.23C341.68 498.42 344.01 493.62 346.34 488.82C347.32 486.25 348.93 484.83 350.91 483.73C358.97 479.75 366.49 474.14 373.39 467.4C373.96 466.76 374.66 466.53 375.37 466.3C389.02 462.73 400.37 454.53 410.93 443.89C414.36 440.07 416.66 434.38 417.25 427.45C417.45 426.49 417.66 425.52 418.23 424.89C419.14 423.69 420.18 422.9 420.85 421.79C422.3 419.07 422.08 416 419.81 412.25C419.68 411.84 419.41 411.03 419.65 410.95C422.65 405.04 425.55 399.6 429.95 396.36C434.12 393.2 440.27 396.13 444.44 403.29C446.84 407.45 448.94 409.9 451.95 411.16C453.99 411.84 456.07 413.41 458.04 415.46C466.29 423.98 475.28 430.02 484.04 436.13C498.38 445.8 512.96 455.4 527.17 464.67C528.51 465.58 529.71 466.08 530.92 466.58C532.62 467.82 533.67 467.03 534.07 465.1C534.72 463.1 534.29 460.99 533.39 459.04C532.62 457.49 531.76 456.43 530.65 455.45C516.26 440.85 501.87 426.26 487.71 411.58C484.26 408.22 481.06 404.78 477.72 400.93C476.49 399.54 475.72 398 474.72 396.53C474.35 396.2 474.09 395.39 474.32 395.31C474.56 395.23 474.66 394.75 475.03 395.08C475.26 395 475.86 395.25 476.1 395.18C493.71 399.74 511.18 407.05 529.15 415.08C534.93 417.68 540.96 420.2 546.61 422.39C547.22 422.64 548.29 422.74 548.16 422.33C547.99 421.04 548.17 419.19 547.8 418.86C545.93 416.33 544.19 414.2 542.36 412.56C536.37 407.78 530.39 403 524.17 398.3C502.95 381.9 481.73 365.5 460.27 349.18C458.8 347.86 457.93 346.8 457.13 344.37C454.48 336.26 451.4 333.22 446.41 333.06C444.5 332.79 442.93 331.95 441.09 330.31C436.05 325.22 430.77 320.21 425.36 314.8C424.99 314.47 424.73 313.66 424.83 313.18C426.2 304.65 427.46 296.6 428.6 288.15C429.97 279.62 431.33 271.09 432.7 262.56C432.88 260.71 432.95 259.34 432.05 257.39C431.02 255.03 431.33 253.59 432.87 253.53C434.17 253.55 435.48 253.57 437.15 253.92C437.39 253.85 437.62 253.77 437.36 252.96C436.19 250.2 435.16 247.84 434 245.08C433.87 244.67 433.97 244.19 434.34 244.52C435.17 244.69 436.14 245.28 437.22 245.37C437.58 245.7 437.69 245.22 437.32 244.89C436.19 243.02 435.18 241.55 434.32 240.49C432.95 238.69 432.79 237.39 432.96 235.54C437.65 206.17 445.31 180.32 457.27 158.89C467.66 139.78 480.71 125.64 495.65 114.91C498.2 113.18 500.49 110.63 502.54 108.16C503.12 107.53 503.55 106.49 503.99 105.44C504.1 104.96 503.96 104.56 503.73 104.63C501.76 102.59 500.35 103.05 498.84 103.99C478.21 118.82 460.62 138.94 445.69 164.03Z"
       id="b1dt6wvBOt" />
  </defs>
  <g
     id="g20">
    <g
       id="g18">
      <g
         id="g8"
         style="fill:#7171a3;fill-opacity:1">
        <use
           xlink:href="#a1DbOXU8Ob"
           id="use6"
           style="fill:#7171a3;fill-opacity:1"
           fill-opacity="1"
           fill="#a4a4a4"
           opacity="1" />
      </g>
      <g
         id="g864"
         transform="matrix(0.38619685,0,0,0.45329233,580.00047,728.83841)"
         inkscape:transform-center-x="268.08362"
         inkscape:transform-center-y="-71.276312"
         style="fill-opacity:1;fill:#ffffff">
        <path
           style="fill:#ffffff;stroke-width:1.94903743;fill-opacity:1"
           d="m -747.94564,-479.40727 c -1.6295,-1.89645 -3.54351,-5.39771 -4.25337,-7.78058 -2.12095,-7.11968 -7.41336,-7.04591 -23.8335,0.33228 -8.51395,3.82565 -17.59076,6.95571 -20.17067,6.95571 -5.53128,0 -10.05178,-4.73602 -11.83478,-12.39899 -0.70421,-3.02653 -2.52581,-5.99121 -4.048,-6.58818 -1.52219,-0.59695 -9.52444,1.21432 -17.78281,4.02505 -18.08781,6.1562 -20.14461,6.2484 -24.69741,1.10701 -3.4483,-3.894 -3.4301,-4.24539 0.6652,-12.8599 6.1944,-13.03031 5.7109,-15.2839 -3.0196,-14.07451 -3.9765,0.55083 -12.1265,2.53699 -18.1112,4.4137 -14.0374,4.40189 -20.9301,2.88688 -20.9301,-4.60043 0,-7.19832 3.7588,-12.33842 15.4204,-21.08698 10.0613,-7.54797 10.8674,-10.83931 2.6547,-10.83931 -20.0164,0 -15.0558,-17.72069 9.8951,-35.34831 7.9447,-5.61292 14.445,-10.7161 14.445,-11.34038 0,-0.62428 -3.7836,-0.60507 -8.408,0.0427 -5.7242,0.80183 -9.5704,0.30286 -12.0498,-1.56322 -3.569,-2.68625 -3.5683,-2.8816 0.038,-9.78122 2.024,-3.87213 6.3619,-9.10694 9.6398,-11.63292 10.8955,-8.39618 74.86848,-47.6625 111.03396,-68.15213 34.92648,-19.78768 44.42482,-26.33604 41.91726,-28.8987 -0.68627,-0.70135 -11.90767,-2.03217 -24.93645,-2.95738 -13.02875,-0.92522 -26.30042,-2.26733 -29.49258,-2.98252 -7.79372,-1.74612 -62.26907,-24.08405 -68.40746,-28.05087 -13.44923,-8.6913 -74.22943,-61.04969 -83.31693,-71.77237 -41.4804,-48.94421 -91.33812,-114.54707 -93.38302,-122.87363 -0.728,-2.96453 0.1791,-8.05159 2.2882,-12.83141 3.0349,-6.87822 3.1613,-8.74053 0.9612,-14.16296 -4.1362,-10.1941 -4.5561,-18.32281 -1.4112,-27.31898 1.8206,-5.2079 3.4097,-19.1223 4.1189,-36.0642 1.098,-26.2347 1.3873,-27.7813 5.91042,-31.5995 3.7767,-3.1881 4.7464,-5.825 4.7099,-12.8072 -0.025,-4.8358 -0.7612,-11.9348 -1.6354,-15.7755 -0.8742,-3.8407 -0.8814,-8.9389 -0.016,-11.3295 1.3074,-3.6118 3.0603,-4.3464 10.3718,-4.3464 11.204,0 12.1224,-2.3917 6.9402,-18.0742 -9.8096,-29.6862 -3.3353,-26.7029 36.0163,16.5964 49.957,54.9685 45.9332,51.6944 102.21872,83.1743 26.50421,14.8235 28.92126,15.7496 62.6589,24.007 36.99514,9.05475 98.81401,18.12873 101.91511,14.95948 1.07069,-1.09423 -0.96478,-7.56058 -5.16527,-16.40918 l -6.9323,-14.6034 1.26562,-20.8765 c 1.12765,-18.601 0.84138,-21.7264 -2.62626,-28.6729 -5.66284,-11.344 -20.23591,-27.1309 -30.74154,-33.3019 -17.37213,-10.2044 -21.48433,-17.7637 -15.6863,-28.8355 1.63881,-3.1295 1.36107,-5.7596 -1.2278,-11.6269 -3.1989,-7.2498 -3.19028,-7.8232 0.1965,-13.0666 1.94821,-3.0163 5.5189,-9.4535 7.93485,-14.3049 l 4.39266,-8.8209 -4.93162,-7.2727 c -5.6913,-8.393 -4.28693,-14.1484 3.96908,-16.2661 6.45319,-1.6552 7.89485,-8.4337 4.88078,-22.9488 -3.04125,-14.6459 -1.19821,-17.6398 10.85923,-17.6398 10.22923,0 10.69276,-2.2688 2.89824,-14.1862 -7.17527,-10.9705 -8.87308,-16.7891 -5.94945,-20.3893 3.39601,-4.1818 11.07508,-3.4789 22.76826,2.0842 5.67228,2.6986 11.09469,4.9066 12.04978,4.9066 4.32821,0 0.9438,-9.487 -7.646,-21.4327 -20.39463,-28.3627 -18.91115,-33.209 6.77069,-22.1189 7.2686,3.1387 20.15633,7.6497 28.63938,10.0243 33.49536,9.3762 64.4537,30.7824 105.07416,72.6537 l 31.81144,32.791 8.49036,20.6885 c 4.66971,11.3787 18.91474,40.9663 31.65562,65.7503 25.59638,49.7907 25.78734,50.7214 10.76652,52.47 -10.79212,1.2564 -11.43772,4.362 -3.78691,18.2164 9.87836,17.8882 6.46175,29.0718 -8.88147,29.0718 -8.31937,0 -9.24005,2.336 -4.5912,11.6488 6.88978,13.80183 7.95679,13.81399 39.6098,0.4513 10.60381,-4.4765 37.93273,-15.4932 60.73093,-24.4815 37.2534,-14.6873 45.76213,-18.9677 84.01815,-42.2662 23.41178,-14.2582 56.15973,-36.1437 72.77326,-48.6345 16.61352,-12.4908 32.76941,-24.065 35.90201,-25.7206 12.13815,-6.4148 15.99104,-2.0983 10.71924,12.009 -3.70803,9.9228 -2.80062,11.9519 5.77168,12.9067 7.79319,0.868 8.49799,7.0977 2.07104,18.3055 -6.32479,11.0296 -6.22382,13.1167 0.83309,17.2206 3.17446,1.846 5.77172,4.9108 5.77172,6.8106 0,1.8997 -3.47034,8.5101 -7.71187,14.6897 -8.88349,12.9426 -9.18435,14.6645 -3.62014,20.7175 5.27812,5.7418 4.0869,10.5368 -6.06286,24.4049 -5.71591,7.8099 -7.6074,12.0335 -6.82423,15.238 3.57632,14.63295 4.27537,12.50955 -11.42213,34.69604 -4.14716,5.86148 -6.77403,11.85858 -6.77403,15.46493 0,15.0834 -12.08706,28.51351 -74.91978,83.2444 -65.85092,57.35989 -131.28876,108.41029 -169.88186,132.53092 l -33.78948,21.11835 -51.09111,51.39836 c -67.06426,67.46757 -142.22269,139.57811 -168.69704,161.85591 -34.50718,29.03729 -39.68237,31.84144 -45.74433,24.78637 z"
           id="path878"
           inkscape:connector-curvature="0" />
      </g>
    </g>
  </g>
</svg>
