<svg height="48" width="48" xmlns="http://www.w3.org/2000/svg"><path d="m44.322082 27.405077a19.729762 19.729765 0 0 1 -19.729762 19.729765 19.729762 19.729765 0 0 1 -19.7297621-19.729765 19.729762 19.729765 0 0 1 19.7297621-19.7297632 19.729762 19.729765 0 0 1 19.729762 19.7297632z" fill="#5995b6" opacity=".99" transform="matrix(1.1503549 0 0 1.1503549 -4.486125 -7.525565)"/><g fill="#fff"><path d="m32.5 11a7 7 0 0 0 -7 7 7 7 0 0 0 7 7 7 7 0 0 0 7-7 7 7 0 0 0 -7-7zm0 2a5 5 0 0 1 5 5 5 5 0 0 1 -5 5 5 5 0 0 1 -5-5 5 5 0 0 1 5-5z"/><path d="m19.5 25a6 6 0 0 0 -6 6 6 6 0 0 0 6 6 6 6 0 0 0 6-6 6 6 0 0 0 -6-6zm0 2a4 4 0 0 1 4 4 4 4 0 0 1 -4 4 4 4 0 0 1 -4-4 4 4 0 0 1 4-4z"/><circle cx="32.5" cy="18" r="4"/><path d="m20.236 26.113282 7.264-11.113282-.765246 2.976512 1.758606 4.178281 3.718575 1.632529 3.288066-.787321-11.209156 8-1.369855-4z"/><path d="m6.5605467 22.771484a20 20 0 0 0 -.06055 1.228516 20 20 0 0 0 .773438 5.482422l11.1289063 4.3125c1.549699.600563 3.280296-.163192 3.880859-1.712891.600564-1.549699-.163191-3.280296-1.712891-3.880859z"/></g></svg>