<?xml version="1.0" encoding="UTF-8" standalone="no"?>
<!DOCTYPE svg PUBLIC "-//W3C//DTD SVG 1.1//EN" "http://www.w3.org/Graphics/SVG/1.1/DTD/svg11.dtd">
<svg version="1.1" xmlns="http://www.w3.org/2000/svg" xmlns:xlink="http://www.w3.org/1999/xlink" preserveAspectRatio="xMidYMid meet" viewBox="0 0 640 640" width="64" height="64"><defs><path d="M630.67 319.44C630.67 486.56 491.97 622.25 321.12 622.25C150.28 622.25 11.57 486.56 11.57 319.44C11.57 152.31 150.28 16.63 321.12 16.63C491.97 16.63 630.67 152.31 630.67 319.44Z" id="gTsaZgvTV"></path><path d="M301.64 330.47C305.99 334.5 310.66 336.54 315.51 336.54C320.34 336.54 325 334.51 329.34 330.51C361.79 300.66 472.08 205.01 534.94 150.64C538.85 147.27 539.45 141.33 536.28 137.2C528.96 127.66 518.04 122.18 506.33 122.18C468.17 122.18 162.84 122.18 124.68 122.18C112.98 122.18 102.05 127.66 94.73 137.2C91.56 141.33 92.16 147.27 96.07 150.64C158.93 205.01 269.22 300.65 301.64 330.47Z" id="b1VTzweRH9"></path><path d="M531.92 170.8C461.19 239.98 370.92 328.67 342.52 358.2C326.58 374.8 304.45 374.8 288.47 358.18C258.2 326.7 156.83 227.26 99.09 170.79C96.21 167.98 92.17 167.36 88.76 169.18C85.34 171.01 83.15 174.96 83.15 179.32C83.15 207.41 83.15 432.16 83.15 460.26C83.15 484.9 100.51 504.94 121.87 504.94C160.6 504.94 470.41 504.94 509.14 504.94C530.5 504.94 547.87 484.9 547.87 460.26C547.87 432.16 547.87 207.41 547.87 179.32C547.87 174.96 545.67 171 542.25 169.18C538.82 167.34 534.78 167.98 531.92 170.8Z" id="a1gcnz8CI9"></path><path d="M394.92 369.82C394.82 357.53 392.24 347.21 387.15 338.92C382.06 330.6 375.1 324.09 366.19 319.33C357.31 314.6 343.61 310.03 325.11 305.7C306.6 301.34 294.93 297.14 290.11 293.01C286.33 289.76 284.42 285.86 284.38 281.27C284.34 276.22 286.31 272.18 290.32 269.14C296.52 264.39 305.14 261.99 316.16 261.89C326.84 261.8 334.88 263.92 340.25 268.25C343.55 270.9 346.14 274.62 348.06 279.41C350.5 285.53 356.37 289.44 362.75 289.1C363.66 289.05 370.89 288.65 371.79 288.59C381.93 288.05 388.59 277.47 385.06 267.61C381.88 258.81 376.76 251.26 369.64 244.97C357.63 234.38 339.8 229.16 316.22 229.37C301.78 229.49 289.45 231.86 279.28 236.47C269.11 241.08 261.35 247.71 255.97 256.38C250.62 265.04 247.97 274.35 248.05 284.23C248.19 299.63 254.07 312.61 265.7 323.2C273.96 330.72 288.31 337.03 308.7 342.07C324.54 346 334.7 348.73 339.15 350.28C345.66 352.63 350.25 355.38 352.88 358.6C355.5 361.79 356.86 365.7 356.9 370.29C356.97 377.46 353.91 383.74 347.78 389.16C341.62 394.58 332.46 397.3 320.21 397.41C308.67 397.51 299.46 394.59 292.62 388.65C288.01 384.63 284.41 379.04 281.82 371.9C279.44 365.24 272.99 361.13 266.17 361.86C265.4 361.95 259.27 362.62 258.5 362.71C248.98 363.74 242.89 373.58 245.81 382.98C249.81 395.83 256.28 406.19 265.19 413.99C278.02 425.25 296.33 430.78 320.09 430.57C336.4 430.43 350.03 427.94 360.91 423.12C371.93 418.29 380.33 410.98 386.22 401.22C392.11 391.45 395.02 380.98 394.92 369.82Z" id="afru3a7d"></path></defs><g><g><g><use xlink:href="#gTsaZgvTV" opacity="1" fill="#6f5e78" fill-opacity="1"></use></g><g><use xlink:href="#b1VTzweRH9" opacity="1" fill="#322439" fill-opacity="1"></use><g><use xlink:href="#b1VTzweRH9" opacity="1" fill-opacity="0" stroke="#000000" stroke-width="1" stroke-opacity="0"></use></g></g><g><use xlink:href="#a1gcnz8CI9" opacity="1" fill="#322439" fill-opacity="1"></use><g><use xlink:href="#a1gcnz8CI9" opacity="1" fill-opacity="0" stroke="#000000" stroke-width="1" stroke-opacity="0"></use></g></g><g><use xlink:href="#afru3a7d" opacity="1" fill="#a897b1" fill-opacity="1"></use><g><use xlink:href="#afru3a7d" opacity="1" fill-opacity="0" stroke="#000000" stroke-width="1" stroke-opacity="0"></use></g></g></g></g></svg>