<svg height="48" width="48" xmlns="http://www.w3.org/2000/svg"><path d="m24.109375 2.546875c-6.6256.1760329-11.987425 5.4448974-12.279297 12.066406-.223185 5.081776 2.624681 9.801272 7.22461 11.972657h-9.5585942c-3.693522 0-6.6679688 2.972493-6.6679688 6.666015v12.929688h21.617187 21.617188v-12.929688c0-3.693522-2.972494-6.666015-6.666016-6.666015h-9.576172c4.226971-1.987895 7.011188-6.146941 7.238282-10.8125l.0039-.0918c.282059-6.958884-5.123667-12.8321278-12.082025-13.1269505-.290188-.0126225-.580726-.0152282-.871094-.0078125z" fill="#f5b57e"/><path d="m19.054688 26.585938-5.197266 5.55664 5.857422 1.572266-3.28711 3.570312 4.640625 8.896485h3.376953 3.361329l4.640625-8.896485-3.28711-3.570312 5.857422-1.572266-5.197266-5.55664zm5.517578.611328 2.875 2.875-1.4375 1.4375-.392578.392578 1.167968 9.294922-2.222656 3.802734-2.347656-3.802734 1.328125-9.279297-.408203-.408203-1.4375-1.4375z" fill="#fff" fill-opacity=".964789" fill-rule="evenodd"/></svg>