<?xml version="1.0" encoding="UTF-8" standalone="no"?>
<svg
   xmlns:dc="http://purl.org/dc/elements/1.1/"
   xmlns:cc="http://creativecommons.org/ns#"
   xmlns:rdf="http://www.w3.org/1999/02/22-rdf-syntax-ns#"
   xmlns:svg="http://www.w3.org/2000/svg"
   xmlns="http://www.w3.org/2000/svg"
   xmlns:sodipodi="http://sodipodi.sourceforge.net/DTD/sodipodi-0.dtd"
   xmlns:inkscape="http://www.inkscape.org/namespaces/inkscape"
   sodipodi:docname="teams-for-linux.svg"
   inkscape:version="1.1-dev (1:0.92.0+devel+202004260039+9758c7a)"
   id="svg5184"
   version="1.1"
   viewBox="0 0 12.7 12.7"
   height="48"
   width="48">
  <defs
     id="defs5178" />
  <sodipodi:namedview
     inkscape:window-maximized="1"
     inkscape:window-y="30"
     inkscape:window-x="0"
     inkscape:window-height="1024"
     inkscape:window-width="1920"
     inkscape:measure-end="30,1"
     inkscape:measure-start="45,1"
     units="px"
     showgrid="true"
     inkscape:current-layer="layer1"
     inkscape:document-units="mm"
     inkscape:cy="25.653181"
     inkscape:cx="12.96588"
     inkscape:zoom="2.8"
     inkscape:pageshadow="2"
     inkscape:pageopacity="0.0"
     borderopacity="1.0"
     bordercolor="#666666"
     pagecolor="#ffffff"
     id="base">
    <inkscape:grid
       id="grid5729"
       type="xygrid" />
  </sodipodi:namedview>
  <metadata
     id="metadata5181">
    <rdf:RDF>
      <cc:Work
         rdf:about="">
        <dc:format>image/svg+xml</dc:format>
        <dc:type
           rdf:resource="http://purl.org/dc/dcmitype/StillImage" />
      </cc:Work>
    </rdf:RDF>
  </metadata>
  <g
     transform="translate(0,-284.29998)"
     id="layer1"
     inkscape:groupmode="layer"
     inkscape:label="Capa 1">
    <rect
       ry="0.52916902"
       rx="0.52916902"
       y="285.09372"
       x="0.52916664"
       height="11.641677"
       width="11.377084"
       id="rect5731"
       style="opacity:1;fill:#817395;fill-opacity:1;stroke:none;stroke-width:1;stroke-miterlimit:4;stroke-dasharray:none;stroke-opacity:1" />
    <path
       sodipodi:nodetypes="ssssccsss"
       inkscape:connector-curvature="0"
       id="rect5739"
       transform="matrix(0.26458333,0,0,0.26458333,0,284.29998)"
       d="M 4,3 C 2.8919949,3 2,3.8919937 2,5 v 40 c 0,1.108006 0.8919949,2 2,2 h 6 L 45,13 45,5 C 45,3.8919937 44.108006,3 43,3 Z"
       style="opacity:1;fill:#a998c3;fill-opacity:1;stroke:none;stroke-width:3.77952766;stroke-miterlimit:4;stroke-dasharray:none;stroke-opacity:1" />
    <g
       transform="translate(0.62316321,0.50828325)"
       id="g930">
      <path
         transform="matrix(0.26458333,0,0,0.26458333,-0.62316321,283.7917)"
         d="M 30.841797 11.130859 A 4.0789474 4.0789474 0 0 0 26.763672 15.210938 A 4.0789474 4.0789474 0 0 0 30.841797 19.289062 A 4.0789474 4.0789474 0 0 0 34.921875 15.210938 A 4.0789474 4.0789474 0 0 0 30.841797 11.130859 z M 26.355469 20.921875 C 25.677548 20.921875 25.130859 21.466673 25.130859 22.144531 L 25.130859 22.552734 L 25.130859 30.005859 L 25.130859 30.710938 A 5.7105267 5.7105267 0 0 0 25.349609 32.089844 L 36.306641 21.445312 C 36.084996 21.135953 35.739382 20.921875 35.328125 20.921875 L 26.355469 20.921875 z "
         style="fill:#ffffff;fill-opacity:0.55610394;stroke-width:0.815788"
         id="path834-5" />
      <path
         transform="matrix(0.26458333,0,0,0.26458333,-0.62316321,283.7917)"
         d="M 19.421875 7.8691406 A 5.7105267 5.7105267 0 0 0 13.710938 13.578125 A 5.7105267 5.7105267 0 0 0 19.421875 19.289062 A 5.7105267 5.7105267 0 0 0 25.130859 13.578125 A 5.7105267 5.7105267 0 0 0 19.421875 7.8691406 z M 12.486328 20.921875 C 11.35646 20.921875 10.447266 21.831048 10.447266 22.960938 L 10.447266 25 L 10.447266 31.933594 L 10.447266 33.158203 A 8.9736847 8.9736847 0 0 0 15.855469 41.3125 L 28.394531 29.130859 L 28.394531 25 L 28.394531 22.960938 C 28.394531 21.831048 27.485337 20.921875 26.355469 20.921875 L 12.486328 20.921875 z "
         style="fill:#ffffff;fill-opacity:1;stroke-width:0.815788"
         id="circle848-7" />
    </g>
    <path
       d="m 7.9375,292.23747 v 1.05834 h 1.0583334 v 2.64583 h 1.0583336 v -2.64583 H 11.1125 v -1.05834 z"
       style="fill:#ffffff;fill-opacity:1;stroke-width:0.264583"
       id="rect856-6" />
  </g>
</svg>
