<?xml version="1.0" encoding="UTF-8" standalone="no"?>
<svg
   xmlns:dc="http://purl.org/dc/elements/1.1/"
   xmlns:cc="http://creativecommons.org/ns#"
   xmlns:rdf="http://www.w3.org/1999/02/22-rdf-syntax-ns#"
   xmlns:svg="http://www.w3.org/2000/svg"
   xmlns="http://www.w3.org/2000/svg"
   xmlns:sodipodi="http://sodipodi.sourceforge.net/DTD/sodipodi-0.dtd"
   xmlns:inkscape="http://www.inkscape.org/namespaces/inkscape"
   height="48"
   width="48"
   version="1.1"
   id="svg18"
   sodipodi:docname="com.teeworlds.Teeworlds.svg"
   inkscape:version="0.92.3 (2405546, 2018-03-11)">
  <metadata
     id="metadata24">
    <rdf:RDF>
      <cc:Work
         rdf:about="">
        <dc:format>image/svg+xml</dc:format>
        <dc:type
           rdf:resource="http://purl.org/dc/dcmitype/StillImage" />
        <dc:title></dc:title>
      </cc:Work>
    </rdf:RDF>
  </metadata>
  <defs
     id="defs22" />
  <sodipodi:namedview
     pagecolor="#ffffff"
     bordercolor="#666666"
     borderopacity="1"
     objecttolerance="10"
     gridtolerance="10"
     guidetolerance="10"
     inkscape:pageopacity="0"
     inkscape:pageshadow="2"
     inkscape:window-width="842"
     inkscape:window-height="480"
     id="namedview20"
     showgrid="true"
     inkscape:zoom="4.9166667"
     inkscape:cx="24"
     inkscape:cy="24"
     inkscape:window-x="0"
     inkscape:window-y="25"
     inkscape:window-maximized="0"
     inkscape:current-layer="svg18">
    <inkscape:grid
       type="xygrid"
       id="grid834" />
  </sodipodi:namedview>
  <g
     fill="#cd884b"
     opacity=".99"
     transform="matrix(1.1503549 0 0 1.1503549 -4.486125 -7.525565)"
     id="g6">
    <path
       d="m44.322082 27.405077a19.729762 19.729765 0 0 1 -19.729762 19.729765 19.729762 19.729765 0 0 1 -19.7297621-19.729765 19.729762 19.729765 0 0 1 19.7297621-19.7297632 19.729762 19.729765 0 0 1 19.729762 19.7297632z"
       id="path2" />
    <path
       d="m44.322082 27.405077a19.729762 19.729765 0 0 1 -19.729762 19.729765 19.729762 19.729765 0 0 1 -19.7297621-19.729765 19.729762 19.729765 0 0 1 19.7297621-19.7297632 19.729762 19.729765 0 0 1 19.729762 19.7297632z"
       id="path4" />
  </g>
  <path
     d="m23.90625 7.0664064a14.472272 14.472272 0 0 0 -14.4726562 14.4707036 14.472272 14.472272 0 0 0 2.3476562 7.894531c-.791516.810279-1.28125 1.917085-1.28125 3.144531v.599609c0 2.493 2.007 4.5 4.5 4.5h7.5c1.041066 0 1.985295-.363902 2.746094-.953125.538734.22711 1.130656.353516 1.753906.353516h7.5c2.493 0 4.5-2.007 4.5-4.5 0-1.752932-1.003189-3.248579-2.458984-3.992188a14.472272 14.472272 0 0 0 1.83789-7.046874 14.472272 14.472272 0 0 0 -14.472656-14.4707036z"
     fill="#fff"
     fill-opacity=".704545"
     id="path8" />
  <path
     d="m23.90625 7.0664064a14.472272 14.472272 0 0 0 -10.097656 4.1230466 17.25 14.25 0 0 0 -.308594 2.636719 17.25 14.25 0 0 0 17.25 14.25 17.25 14.25 0 0 0 6.539062-1.076172 14.472272 14.472272 0 0 0 1.089844-5.46289 14.472272 14.472272 0 0 0 -14.472656-14.4707036z"
     fill="#fff"
     fill-opacity=".9"
     id="path10" />
  <g
     fill="#cd884b"
     id="g16">
    <path
       d="m23.90625 6.5664064c-8.263035 0-14.9726563 6.7076676-14.9726562 14.9707036 0 2.882686.8239948 5.571787 2.2382812 7.857421-.721279.866618-1.171875 1.966041-1.171875 3.181641v.599609c0 2.761352 2.238649 5 5 5h7.5c1.575692 0 2.964388-.743779 3.880859-1.882812 7.085129-1.182937 12.498047-7.33731 12.498047-14.755859 0-8.263036-6.709621-14.9707036-14.972656-14.9707036zm0 1c7.722595 0 13.972656 6.2481076 13.972656 13.9707036 0 6.620785-4.598215 12.146184-10.77539 13.591796.255187-.600349.396484-1.259669.396484-1.953125v-.599609c0-2.761351-2.238649-5-5-5h-7.5c-1.176667 0-2.243582.423305-3.097656 1.103516-1.245725-2.090586-1.9687503-4.529914-1.9687502-7.142578 0-7.722596 6.2500612-13.9707036 13.9726562-13.9707036zm-8.90625 21.0097656h7.5c2.224649 0 4 1.775351 4 4v.599609c0 2.224649-1.775351 4-4 4h-7.5c-2.224649 0-4-1.775351-4-4v-.599609c0-2.224649 1.775351-4 4-4z"
       id="path12" />
    <path
       d="m19.089844 14.576172a1.5 3 0 0 0 -1.5 3 1.5 3 0 0 0 1.5 3 1.5 3 0 0 0 1.5-3 1.5 3 0 0 0 -1.5-3zm10.253906 0a1.5 3 0 0 0 -1.5 3 1.5 3 0 0 0 1.5 3 1.5 3 0 0 0 1.5-3 1.5 3 0 0 0 -1.5-3z"
       id="path14" />
  </g>
</svg>
