<svg height="48" width="48" xmlns="http://www.w3.org/2000/svg"><circle cx="23.940615" cy="31.534513" fill="#53676c" opacity=".99" r="13.232998" transform="matrix(1.75830584759 0 0 1.75830608345 -18.15909274367 -30.97874795549)"/><path d="m15.351391 18.125863a.90008998.90008998 0 0 0 -.533203 1.615235l5.964844 4.722656-5.964844 4.722656a.90008998.90008998 0 1 0 1.117188 1.410156l6.857422-5.427734a.90008998.90008998 0 0 0 0-1.41211l-6.857422-5.427734a.90008998.90008998 0 0 0 -.583985-.203125zm8.882813 10.884766a.9003905.9003905 0 1 0 0 1.800781h8.285156a.9003905.9003905 0 1 0 0-1.800781z" fill="#fff" fill-rule="evenodd"/></svg>