<svg height="48" width="48" xmlns="http://www.w3.org/2000/svg"><path d="m44.322082 27.405077a19.729762 19.729765 0 0 1 -19.729762 19.729765 19.729762 19.729765 0 0 1 -19.7297621-19.729765 19.729762 19.729765 0 0 1 19.7297621-19.7297632 19.729762 19.729765 0 0 1 19.729762 19.7297632z" fill="#9faf83" opacity=".99" transform="matrix(1.1503549 0 0 1.1503549 -4.486125 -7.525565)"/><g transform="translate(-.946229 -.986327)"><path d="m22.5 23.486328v3.511719c-1.830484.868274-2.998018 2.712308-3 4.738281 0 2.899495 2.350505 5.25 5.25 5.25s5.25-2.350505 5.25-5.25c-.0027-2.025267-1.170152-3.868357-3-4.736328v-3.513672z" fill="#fff" fill-opacity=".368613"/><path d="m24 12.986328c-.831 0-1.5.669-1.5 1.5v12.511719a5.25 5.25 0 0 0 -3 4.738281 5.25 5.25 0 0 0 5.25 5.25 5.25 5.25 0 0 0 5.25-5.25 5.25 5.25 0 0 0 -3-4.736328v-12.513672c0-.831-.669-1.5-1.5-1.5z" fill="none" stroke="#fff" stroke-linecap="round" stroke-linejoin="round" stroke-width="2"/></g></svg>