<svg height="48" width="48" xmlns="http://www.w3.org/2000/svg"><path d="m44.322082 27.405077a19.729762 19.729765 0 0 1 -19.729762 19.729765 19.729762 19.729765 0 0 1 -19.7297621-19.729765 19.729762 19.729765 0 0 1 19.7297621-19.7297632 19.729762 19.729765 0 0 1 19.729762 19.7297632z" fill="#de816d" opacity=".99" transform="matrix(1.1503549 0 0 1.1503549 -4.486125 -7.525565)"/><g fill="#fff"><path d="m23.400391 8.5976562c-4.406778 0-8.421056 1.7941038-11.314453 4.6874998-2.3305752 2.330575-3.9479297 5.388377-4.4889596 8.792757-.130656.82214 1.4030216 1.064883 1.4030216 1.922087l2.398438.599609c0-3.325896 1.341567-6.31227 3.515624-8.486328 2.174059-2.174057 5.160432-3.515625 8.486329-3.515625 6.651795 0 12.001953 5.350158 12.001953 12.001953.000001 6.651795-5.350159 12.001953-12.001953 12.001953-2.770798 0-5.305947-.931117-7.332076-2.498995-1.068315-1.102567-4.218667 1.53721-3.021395 2.697081 2.791287 2.36936 6.415677 3.801914 10.353471 3.801914 8.813555 0 16.001954-7.188397 16.001953-16.001953 0-8.813555-7.188398-16.0019528-16.001953-16.0019528z"/><path d="m3.6 21h12.9l-6.45 7.5z"/></g></svg>