<?xml version="1.0" encoding="UTF-8" standalone="no"?>
<svg
   xmlns:dc="http://purl.org/dc/elements/1.1/"
   xmlns:cc="http://creativecommons.org/ns#"
   xmlns:rdf="http://www.w3.org/1999/02/22-rdf-syntax-ns#"
   xmlns:svg="http://www.w3.org/2000/svg"
   xmlns="http://www.w3.org/2000/svg"
   xmlns:sodipodi="http://sodipodi.sourceforge.net/DTD/sodipodi-0.dtd"
   xmlns:inkscape="http://www.inkscape.org/namespaces/inkscape"
   height="48"
   width="48"
   version="1.1"
   id="svg10"
   sodipodi:docname="tootle.svg"
   inkscape:version="0.92.4 5da689c313, 2019-01-14">
  <metadata
     id="metadata16">
    <rdf:RDF>
      <cc:Work
         rdf:about="">
        <dc:format>image/svg+xml</dc:format>
        <dc:type
           rdf:resource="http://purl.org/dc/dcmitype/StillImage" />
        <dc:title></dc:title>
      </cc:Work>
    </rdf:RDF>
  </metadata>
  <defs
     id="defs14">
    <filter
       filterUnits="objectBoundingBox"
       color-interpolation-filters="sRGB"
       y="-200%"
       x="-200%"
       height="400%"
       width="400%"
       id="xPHBR2KRsqNJJmxgfSMnWsjFL63MuKr0">
      <feGaussianBlur
         id="feGaussianBlur823"
         stdDeviation="4.294"
         in="SourceGraphic" />
      <feOffset
         id="feOffset825"
         result="pf_100_offsetBlur"
         dy="4"
         dx="0" />
      <feFlood
         id="feFlood827"
         flood-opacity=".4" />
      <feComposite
         id="feComposite829"
         result="pf_100_dropShadow"
         operator="in"
         in2="pf_100_offsetBlur" />
      <feBlend
         id="feBlend831"
         mode="normal"
         in2="pf_100_dropShadow"
         in="SourceGraphic" />
    </filter>
    <filter
       filterUnits="objectBoundingBox"
       color-interpolation-filters="sRGB"
       y="-200%"
       x="-200%"
       height="400%"
       width="400%"
       id="2JmMAOqgjSUXbdZfecnmpMzAW6swRgvN">
      <feGaussianBlur
         id="feGaussianBlur858"
         stdDeviation="4.294" />
    </filter>
  </defs>
  <sodipodi:namedview
     pagecolor="#ffffff"
     bordercolor="#666666"
     borderopacity="1"
     objecttolerance="10"
     gridtolerance="10"
     guidetolerance="10"
     inkscape:pageopacity="0"
     inkscape:pageshadow="2"
     inkscape:window-width="1920"
     inkscape:window-height="1023"
     id="namedview12"
     showgrid="false"
     inkscape:zoom="1.7383042"
     inkscape:cx="24"
     inkscape:cy="24"
     inkscape:window-x="0"
     inkscape:window-y="31"
     inkscape:window-maximized="1"
     inkscape:current-layer="svg10" />
  <g
     fill="#c185b1"
     opacity=".99"
     transform="matrix(1.1503549 0 0 1.1503549 -4.486125 -7.525565)"
     id="g6"
     style="fill:#6f9087;fill-opacity:1">
    <path
       d="m44.322082 27.405077a19.729762 19.729765 0 0 1 -19.729762 19.729765 19.729762 19.729765 0 0 1 -19.7297621-19.729765 19.729762 19.729765 0 0 1 19.7297621-19.7297632 19.729762 19.729765 0 0 1 19.729762 19.7297632z"
       id="path2"
       style="fill:#6f9087;fill-opacity:1" />
    <path
       d="m44.322082 27.405077a19.729762 19.729765 0 0 1 -19.729762 19.729765 19.729762 19.729765 0 0 1 -19.7297621-19.729765 19.729762 19.729765 0 0 1 19.7297621-19.7297632 19.729762 19.729765 0 0 1 19.729762 19.7297632z"
       id="path4"
       style="fill:#6f9087;fill-opacity:1" />
  </g>
  <path
     id="path867-9"
     d="m 39.856343,21.274993 -4.265894,-8.02264 c -0.006,-0.0096 -0.01196,-0.01794 -0.01993,-0.02641 -0.0299,-0.03684 -0.06339,-0.06989 -0.100862,-0.09628 -0.15209,-0.108496 -0.358756,-0.13112 -0.537577,-0.03971 -0.104848,0.05392 -0.181989,0.138894 -0.226959,0.236945 -0.006,0.0084 -0.01,0.01894 -0.01395,0.02928 l -2.306006,5.429553 -4.575615,2.344826 c -0.0297,0.01515 -0.0606,0.03106 -0.0893,0.04704 l -1.555902,0.797804 -1.355993,0.694639 -0.35475,-0.666462 c -0.201006,-0.377603 -0.674239,-0.523809 -1.058949,-0.326576 -0.383593,0.196341 -0.53357,0.661803 -0.332783,1.039408 l 0.354969,0.666242 -1.309847,0.671123 -1.130808,-2.126516 2.029992,-1.040298 c 0.521153,-0.268005 0.723275,-0.899636 0.451048,-1.411243 -0.04326,-0.08298 -0.09807,-0.157511 -0.160662,-0.222747 l -0.09229,-0.08763 c -0.321263,-0.269115 -0.788496,-0.33523 -1.184727,-0.132236 l -5.995074,3.071642 c -0.522029,0.268005 -0.724151,0.899416 -0.451924,1.412132 0.04325,0.08009 0.09428,0.152868 0.15488,0.216979 0.0309,0.03504 0.06538,0.067 0.100862,0.0954 0.321243,0.267118 0.787599,0.333232 1.182953,0.130223 l 2.028895,-1.039186 1.131027,2.126518 -1.445392,0.741009 -0.354771,-0.666243 c -0.200986,-0.376717 -0.676212,-0.523144 -1.058928,-0.326798 -0.100862,0.05191 -0.185578,0.121791 -0.252912,0.204998 -0.185578,0.231176 -0.227856,0.555978 -0.07993,0.834412 l 0.35497,0.666463 -2.201278,1.127931 c -0.0297,0.01395 -0.0606,0.03018 -0.0903,0.04527 L 9.7985534,30.359458 8.0099318,29.978081 c -0.00399,-0.002 -0.00997,-0.002 -0.013953,-0.0028 -0.050032,-0.0096 -0.1026557,-0.002 -0.150894,0.02175 -0.1066423,0.05458 -0.1528872,0.178381 -0.1106289,0.285976 l 1.9619005,3.687959 c 0.004,0.0066 0.01,0.01395 0.01595,0.01973 l 0.002,0.0028 0.0289,0.02663 c 0.06917,0.05657 0.169232,0.06877 0.255802,0.02551 0.04824,-0.02551 0.08372,-0.06345 0.1048476,-0.109594 0.0018,-0.004 0.004,-0.0076 0.006,-0.01216 l 0.718391,-1.689677 2.098343,-1.076015 c 0.008,0.585263 0.15189,1.177182 0.446163,1.731164 1.007003,1.892678 3.387101,2.626142 5.316171,1.637761 0.0297,-0.01515 0.0606,-0.03106 0.0895,-0.04726 l 2.201278,-1.12793 0.411539,0.774064 c 0.19991,0.376496 0.676013,0.522923 1.05871,0.326577 0.383813,-0.196341 0.53379,-0.662691 0.332804,-1.039408 l -0.41156,-0.772956 1.445193,-0.741009 1.200255,2.256969 c 0.279762,0.525807 0.938473,0.728585 1.474256,0.453924 0.149897,-0.07632 0.274001,-0.182149 0.367388,-0.305721 0.245157,-0.319921 0.296186,-0.761863 0.09508,-1.140355 l -1.200255,-2.256969 1.309847,-0.671123 0.41156,0.773177 c 0.200109,0.376495 0.675116,0.523809 1.058709,0.326576 0.38471,-0.197238 0.532913,-0.66358 0.332784,-1.039408 l -0.41154,-0.773843 3.036796,-1.556562 c 0.209657,-0.11049 0.404902,-0.236059 0.585716,-0.376717 1.456933,-1.129039 1.937701,-3.149065 1.048284,-4.821657 -0.294413,-0.553095 -0.70685,-1.007239 -1.190508,-1.349792 l 1.431878,-0.733464 5.890147,1.252615 c 0.01196,0.0028 0.02113,0.0056 0.03169,0.0066 0.108636,0.01973 0.224089,0.0064 0.32792,-0.04726 0.230727,-0.117147 0.329894,-0.386037 0.238481,-0.621205 z m -22.131518,11.3432 c -0.01395,0.0084 -0.02591,0.01395 -0.04046,0.02175 -0.867471,0.444605 -1.935728,0.115154 -2.387652,-0.736348 -0.452144,-0.850386 -0.117407,-1.899113 0.748111,-2.342831 l 2.293588,-1.175187 1.637528,3.07918 z m 3.641807,-1.866056 -1.637548,-3.079179 0.09608,-0.04814 1.350231,-0.69198 1.637528,3.07918 -0.307708,0.157751 z m 3.383134,-1.733161 -1.637768,-3.079179 1.309848,-0.671124 1.637767,3.07918 z m 5.432421,-2.787434 c -0.01993,0.01216 -0.03827,0.02352 -0.0586,0.03305 l -2.673395,1.370646 -1.637767,-3.07918 1.993395,-1.022325 0.638518,-0.326577 c 0.03369,-0.01714 0.06837,-0.03305 0.102855,-0.04903 0.846402,-0.370059 1.850315,-0.03305 2.284937,0.784493 0.383813,0.719267 0.201883,1.580968 -0.3876,2.098342 -0.07874,0.07078 -0.166442,0.134888 -0.26246,0.190581 z"
     inkscape:connector-curvature="0"
     style="isolation:isolate;fill:#ffffff;fill-opacity:1;stroke-width:0.22185887" />
</svg>
