<?xml version="1.0" encoding="UTF-8" standalone="no"?>
<!-- Created with Inkscape (http://www.inkscape.org/) -->

<svg
   xmlns:dc="http://purl.org/dc/elements/1.1/"
   xmlns:cc="http://creativecommons.org/ns#"
   xmlns:rdf="http://www.w3.org/1999/02/22-rdf-syntax-ns#"
   xmlns:svg="http://www.w3.org/2000/svg"
   xmlns="http://www.w3.org/2000/svg"
   xmlns:xlink="http://www.w3.org/1999/xlink"
   xmlns:sodipodi="http://sodipodi.sourceforge.net/DTD/sodipodi-0.dtd"
   xmlns:inkscape="http://www.inkscape.org/namespaces/inkscape"
   width="48"
   height="48"
   viewBox="0 0 48 48.000001"
   id="svg4232"
   version="1.1"
   inkscape:version="0.92.4 5da689c313, 2019-01-14"
   sodipodi:docname="tribler.svg">
  <defs
     id="defs4234">
    <radialGradient
       id="radial0"
       gradientUnits="userSpaceOnUse"
       cx="450.908936"
       cy="189.579361"
       fx="450.908936"
       fy="189.579361"
       r="21.166656"
       gradientTransform="matrix(3.57049e-7,-0.102549,-0.288309,-1.33269e-7,78.984696,88.973262)">
      <stop
         offset="0"
         style="stop-color:rgb(0%,0%,0%);stop-opacity:0.313726;"
         id="stop822" />
      <stop
         offset="0.222222"
         style="stop-color:rgb(0%,0%,0%);stop-opacity:0.27451;"
         id="stop824" />
      <stop
         offset="1"
         style="stop-color:rgb(0%,0%,0%);stop-opacity:0;"
         id="stop826" />
    </radialGradient>
    <radialGradient
       id="radial1"
       gradientUnits="userSpaceOnUse"
       cx="450.908936"
       cy="189.579361"
       fx="450.908936"
       fy="189.579361"
       r="21.166656"
       gradientTransform="matrix(-3.57049e-7,0.102549,0.288309,1.33269e-7,-31.685907,-4.375346)">
      <stop
         offset="0"
         style="stop-color:rgb(0%,0%,0%);stop-opacity:0.313726;"
         id="stop829" />
      <stop
         offset="0.222222"
         style="stop-color:rgb(0%,0%,0%);stop-opacity:0.27451;"
         id="stop831" />
      <stop
         offset="1"
         style="stop-color:rgb(0%,0%,0%);stop-opacity:0;"
         id="stop833" />
    </radialGradient>
    <radialGradient
       id="radial2"
       gradientUnits="userSpaceOnUse"
       cx="450.908936"
       cy="189.579361"
       fx="450.908936"
       fy="189.579361"
       r="21.166656"
       gradientTransform="matrix(-3.57049e-7,-0.102549,0.288309,-1.33269e-7,-31.685907,88.973262)">
      <stop
         offset="0"
         style="stop-color:rgb(0%,0%,0%);stop-opacity:0.313726;"
         id="stop836" />
      <stop
         offset="0.222222"
         style="stop-color:rgb(0%,0%,0%);stop-opacity:0.27451;"
         id="stop838" />
      <stop
         offset="1"
         style="stop-color:rgb(0%,0%,0%);stop-opacity:0;"
         id="stop840" />
    </radialGradient>
    <radialGradient
       id="radial3"
       gradientUnits="userSpaceOnUse"
       cx="450.908936"
       cy="189.579361"
       fx="450.908936"
       fy="189.579361"
       r="21.166656"
       gradientTransform="matrix(3.57049e-7,0.102549,-0.288309,1.33269e-7,78.984692,-4.375346)">
      <stop
         offset="0"
         style="stop-color:rgb(0%,0%,0%);stop-opacity:0.313726;"
         id="stop843" />
      <stop
         offset="0.222222"
         style="stop-color:rgb(0%,0%,0%);stop-opacity:0.27451;"
         id="stop845" />
      <stop
         offset="1"
         style="stop-color:rgb(0%,0%,0%);stop-opacity:0;"
         id="stop847" />
    </radialGradient>
    <linearGradient
       id="linear0"
       gradientUnits="userSpaceOnUse"
       x1="255.323059"
       y1="233.5"
       x2="255.323044"
       y2="254.666656"
       gradientTransform="matrix(0.0273881,0,0,0.082039,16.656575,23.142854)">
      <stop
         offset="0"
         style="stop-color:rgb(0%,0%,0%);stop-opacity:0.27451;"
         id="stop850" />
      <stop
         offset="1"
         style="stop-color:rgb(0%,0%,0%);stop-opacity:0;"
         id="stop852" />
    </linearGradient>
    <linearGradient
       id="linear1"
       gradientUnits="userSpaceOnUse"
       x1="254"
       y1="233.5"
       x2="254"
       y2="-168.666672"
       gradientTransform="matrix(0.093759,0,0,0.093759,0,20.158175)">
      <stop
         offset="0"
         style="stop-color:rgb(100%,43.921569%,26.274511%);stop-opacity:1;"
         id="stop855" />
      <stop
         offset="1"
         style="stop-color:rgb(100%,54.11765%,39.607844%);stop-opacity:1;"
         id="stop857" />
    </linearGradient>
    <linearGradient
       id="linear2"
       gradientUnits="userSpaceOnUse"
       x1="254"
       y1="148.833328"
       x2="254"
       y2="-84"
       gradientTransform="matrix(0.093759,0,0,0.093759,0,20.158175)">
      <stop
         offset="0"
         style="stop-color:rgb(74.117649%,74.117649%,74.117649%);stop-opacity:1;"
         id="stop860" />
      <stop
         offset="1"
         style="stop-color:rgb(87.843138%,87.843138%,87.843138%);stop-opacity:1;"
         id="stop862" />
    </linearGradient>
    <linearGradient
       id="linear2-3"
       gradientUnits="userSpaceOnUse"
       x1="254"
       y1="148.83333"
       x2="254"
       y2="-84"
       gradientTransform="matrix(0.08461253,0,0,0.08461253,-19.162897,21.468351)">
      <stop
         offset="0"
         style="stop-color:rgb(74.117649%,74.117649%,74.117649%);stop-opacity:1;"
         id="stop860-6" />
      <stop
         offset="1"
         style="stop-color:rgb(87.843138%,87.843138%,87.843138%);stop-opacity:1;"
         id="stop862-7" />
    </linearGradient>
    <radialGradient
       id="radial0-1"
       gradientUnits="userSpaceOnUse"
       cx="450.908936"
       cy="189.579361"
       fx="450.908936"
       fy="189.579361"
       r="21.166656"
       gradientTransform="matrix(3.57049e-7,-0.102549,-0.288309,-1.33269e-7,78.984696,88.973262)">
      <stop
         offset="0"
         style="stop-color:rgb(0%,0%,0%);stop-opacity:0.313726;"
         id="stop822-2" />
      <stop
         offset="0.222222"
         style="stop-color:rgb(0%,0%,0%);stop-opacity:0.27451;"
         id="stop824-7" />
      <stop
         offset="1"
         style="stop-color:rgb(0%,0%,0%);stop-opacity:0;"
         id="stop826-0" />
    </radialGradient>
    <radialGradient
       id="radial1-9"
       gradientUnits="userSpaceOnUse"
       cx="450.908936"
       cy="189.579361"
       fx="450.908936"
       fy="189.579361"
       r="21.166656"
       gradientTransform="matrix(-3.57049e-7,0.102549,0.288309,1.33269e-7,-31.685907,-4.375346)">
      <stop
         offset="0"
         style="stop-color:rgb(0%,0%,0%);stop-opacity:0.313726;"
         id="stop829-3" />
      <stop
         offset="0.222222"
         style="stop-color:rgb(0%,0%,0%);stop-opacity:0.27451;"
         id="stop831-6" />
      <stop
         offset="1"
         style="stop-color:rgb(0%,0%,0%);stop-opacity:0;"
         id="stop833-0" />
    </radialGradient>
    <radialGradient
       id="radial2-6"
       gradientUnits="userSpaceOnUse"
       cx="450.908936"
       cy="189.579361"
       fx="450.908936"
       fy="189.579361"
       r="21.166656"
       gradientTransform="matrix(-3.57049e-7,-0.102549,0.288309,-1.33269e-7,-31.685907,88.973262)">
      <stop
         offset="0"
         style="stop-color:rgb(0%,0%,0%);stop-opacity:0.313726;"
         id="stop836-2" />
      <stop
         offset="0.222222"
         style="stop-color:rgb(0%,0%,0%);stop-opacity:0.27451;"
         id="stop838-6" />
      <stop
         offset="1"
         style="stop-color:rgb(0%,0%,0%);stop-opacity:0;"
         id="stop840-1" />
    </radialGradient>
    <radialGradient
       id="radial3-8"
       gradientUnits="userSpaceOnUse"
       cx="450.908936"
       cy="189.579361"
       fx="450.908936"
       fy="189.579361"
       r="21.166656"
       gradientTransform="matrix(3.57049e-7,0.102549,-0.288309,1.33269e-7,78.984692,-4.375346)">
      <stop
         offset="0"
         style="stop-color:rgb(0%,0%,0%);stop-opacity:0.313726;"
         id="stop843-7" />
      <stop
         offset="0.222222"
         style="stop-color:rgb(0%,0%,0%);stop-opacity:0.27451;"
         id="stop845-9" />
      <stop
         offset="1"
         style="stop-color:rgb(0%,0%,0%);stop-opacity:0;"
         id="stop847-2" />
    </radialGradient>
    <radialGradient
       id="radial0-3"
       gradientUnits="userSpaceOnUse"
       cx="450.908936"
       cy="189.579361"
       fx="450.908936"
       fy="189.579361"
       r="21.166656"
       gradientTransform="matrix(3.57049e-7,-0.102549,-0.288309,-1.33269e-7,78.984696,88.973262)">
      <stop
         offset="0"
         style="stop-color:rgb(0%,0%,0%);stop-opacity:0.313726;"
         id="stop822-6" />
      <stop
         offset="0.222222"
         style="stop-color:rgb(0%,0%,0%);stop-opacity:0.27451;"
         id="stop824-75" />
      <stop
         offset="1"
         style="stop-color:rgb(0%,0%,0%);stop-opacity:0;"
         id="stop826-3" />
    </radialGradient>
    <radialGradient
       id="radial1-5"
       gradientUnits="userSpaceOnUse"
       cx="450.908936"
       cy="189.579361"
       fx="450.908936"
       fy="189.579361"
       r="21.166656"
       gradientTransform="matrix(-3.57049e-7,0.102549,0.288309,1.33269e-7,-31.685907,-4.375346)">
      <stop
         offset="0"
         style="stop-color:rgb(0%,0%,0%);stop-opacity:0.313726;"
         id="stop829-6" />
      <stop
         offset="0.222222"
         style="stop-color:rgb(0%,0%,0%);stop-opacity:0.27451;"
         id="stop831-2" />
      <stop
         offset="1"
         style="stop-color:rgb(0%,0%,0%);stop-opacity:0;"
         id="stop833-9" />
    </radialGradient>
    <radialGradient
       id="radial2-1"
       gradientUnits="userSpaceOnUse"
       cx="450.908936"
       cy="189.579361"
       fx="450.908936"
       fy="189.579361"
       r="21.166656"
       gradientTransform="matrix(-3.57049e-7,-0.102549,0.288309,-1.33269e-7,-31.685907,88.973262)">
      <stop
         offset="0"
         style="stop-color:rgb(0%,0%,0%);stop-opacity:0.313726;"
         id="stop836-27" />
      <stop
         offset="0.222222"
         style="stop-color:rgb(0%,0%,0%);stop-opacity:0.27451;"
         id="stop838-0" />
      <stop
         offset="1"
         style="stop-color:rgb(0%,0%,0%);stop-opacity:0;"
         id="stop840-9" />
    </radialGradient>
    <radialGradient
       id="radial3-3"
       gradientUnits="userSpaceOnUse"
       cx="450.908936"
       cy="189.579361"
       fx="450.908936"
       fy="189.579361"
       r="21.166656"
       gradientTransform="matrix(3.57049e-7,0.102549,-0.288309,1.33269e-7,78.984692,-4.375346)">
      <stop
         offset="0"
         style="stop-color:rgb(0%,0%,0%);stop-opacity:0.313726;"
         id="stop843-6" />
      <stop
         offset="0.222222"
         style="stop-color:rgb(0%,0%,0%);stop-opacity:0.27451;"
         id="stop845-0" />
      <stop
         offset="1"
         style="stop-color:rgb(0%,0%,0%);stop-opacity:0;"
         id="stop847-6" />
    </radialGradient>
    <radialGradient
       id="radial0-7"
       gradientUnits="userSpaceOnUse"
       cx="450.908936"
       cy="189.579361"
       fx="450.908936"
       fy="189.579361"
       r="21.166656"
       gradientTransform="matrix(3.57049e-7,-0.102549,-0.288309,-1.33269e-7,78.984696,88.973262)">
      <stop
         offset="0"
         style="stop-color:rgb(0%,0%,0%);stop-opacity:0.313726;"
         id="stop822-5" />
      <stop
         offset="0.222222"
         style="stop-color:rgb(0%,0%,0%);stop-opacity:0.27451;"
         id="stop824-9" />
      <stop
         offset="1"
         style="stop-color:rgb(0%,0%,0%);stop-opacity:0;"
         id="stop826-2" />
    </radialGradient>
    <radialGradient
       id="radial1-2"
       gradientUnits="userSpaceOnUse"
       cx="450.908936"
       cy="189.579361"
       fx="450.908936"
       fy="189.579361"
       r="21.166656"
       gradientTransform="matrix(-3.57049e-7,0.102549,0.288309,1.33269e-7,-31.685907,-4.375346)">
      <stop
         offset="0"
         style="stop-color:rgb(0%,0%,0%);stop-opacity:0.313726;"
         id="stop829-8" />
      <stop
         offset="0.222222"
         style="stop-color:rgb(0%,0%,0%);stop-opacity:0.27451;"
         id="stop831-9" />
      <stop
         offset="1"
         style="stop-color:rgb(0%,0%,0%);stop-opacity:0;"
         id="stop833-7" />
    </radialGradient>
    <radialGradient
       id="radial2-3"
       gradientUnits="userSpaceOnUse"
       cx="450.908936"
       cy="189.579361"
       fx="450.908936"
       fy="189.579361"
       r="21.166656"
       gradientTransform="matrix(-3.57049e-7,-0.102549,0.288309,-1.33269e-7,-31.685907,88.973262)">
      <stop
         offset="0"
         style="stop-color:rgb(0%,0%,0%);stop-opacity:0.313726;"
         id="stop836-6" />
      <stop
         offset="0.222222"
         style="stop-color:rgb(0%,0%,0%);stop-opacity:0.27451;"
         id="stop838-1" />
      <stop
         offset="1"
         style="stop-color:rgb(0%,0%,0%);stop-opacity:0;"
         id="stop840-2" />
    </radialGradient>
    <radialGradient
       id="radial3-9"
       gradientUnits="userSpaceOnUse"
       cx="450.908936"
       cy="189.579361"
       fx="450.908936"
       fy="189.579361"
       r="21.166656"
       gradientTransform="matrix(3.57049e-7,0.102549,-0.288309,1.33269e-7,78.984692,-4.375346)">
      <stop
         offset="0"
         style="stop-color:rgb(0%,0%,0%);stop-opacity:0.313726;"
         id="stop843-3" />
      <stop
         offset="0.222222"
         style="stop-color:rgb(0%,0%,0%);stop-opacity:0.27451;"
         id="stop845-1" />
      <stop
         offset="1"
         style="stop-color:rgb(0%,0%,0%);stop-opacity:0;"
         id="stop847-9" />
    </radialGradient>
    <linearGradient
       id="linearGradient3866">
      <stop
         style="stop-color:#000000;stop-opacity:0.52083331"
         offset="0"
         id="stop3868" />
      <stop
         style="stop-color:#2883c3;stop-opacity:0;"
         offset="1"
         id="stop3870" />
    </linearGradient>
    <linearGradient
       id="linearGradient3874">
      <stop
         style="stop-color:#000d0e;stop-opacity:0.84105963;"
         offset="0"
         id="stop3876" />
      <stop
         style="stop-color:#000000;stop-opacity:0;"
         offset="1"
         id="stop3878" />
    </linearGradient>
    <clipPath
       id="clipPath892"
       clipPathUnits="userSpaceOnUse">
      <path
         inkscape:connector-curvature="0"
         id="path894"
         d="M 38.524123,20.232391 V 51.2388 h 3.597154 V 20.232391 Z M 14.125746,21.0025 V 52.010565 H 17.7229 V 21.0025 Z M 5.9924018,21.259203 V 52.267267 H 9.591212 V 21.259203 Z m 24.3983772,1.37129 v 31.006409 h 3.597153 V 22.630493 Z m -20.330877,1.626338 v 31.008065 h 3.597154 V 24.256831 Z m 24.396721,0.08612 v 31.008065 h 3.598809 V 24.342951 Z M 1.9265577,25.798705 V 56.80677 H 5.5237118 V 25.798705 Z m 16.2650323,0.08612 v 31.008064 h 3.597155 V 25.884825 Z m 24.398377,0 v 31.008064 h 3.597154 V 25.884825 Z m -16.265033,2.22752 v 31.006408 h 3.597155 V 28.112345 Z M 22.25909,30.76715 v 31.008065 h 3.597155 V 30.76715 Z"
         style="fill:#ffffff;fill-opacity:0.25520833;stroke:none;stroke-width:1.52630627;stroke-linecap:round;stroke-linejoin:round;stroke-miterlimit:4;stroke-dasharray:none;stroke-opacity:1" />
    </clipPath>
    <clipPath
       clipPathUnits="userSpaceOnUse"
       id="clipPath3881">
      <circle
         r="103.5"
         cy="152.5"
         cx="539.5"
         style="fill:#008dff;fill-opacity:1;fill-rule:evenodd;stroke:none"
         id="path3883"
         transform="translate(-412,-17)" />
    </clipPath>
    <linearGradient
       id="linearGradient4019">
      <stop
         offset="0"
         style="stop-color:#adcce1;stop-opacity:1;"
         id="stop4021" />
      <stop
         offset="0.26238"
         style="stop-color:#6bbfe1;stop-opacity:1;"
         id="stop4023" />
      <stop
         offset="0.74620908"
         style="stop-color:#2596d1;stop-opacity:1;"
         id="stop4025" />
      <stop
         offset="1"
         style="stop-color:#2372c0;stop-opacity:1;"
         id="stop4027" />
    </linearGradient>
    <linearGradient
       id="linearGradient4085">
      <stop
         offset="0"
         style="stop-color:#ffffff;stop-opacity:1"
         id="stop4087" />
      <stop
         offset="0.06316455"
         style="stop-color:#ffffff;stop-opacity:0.2"
         id="stop4089" />
      <stop
         offset="0.95056331"
         style="stop-color:#ffffff;stop-opacity:0.2"
         id="stop4091" />
      <stop
         offset="1"
         style="stop-color:#ffffff;stop-opacity:0.39215687"
         id="stop4093" />
    </linearGradient>
    <filter
       style="color-interpolation-filters:sRGB"
       id="filter3174">
      <feGaussianBlur
         stdDeviation="1.71"
         id="feGaussianBlur3176" />
    </filter>
    <linearGradient
       gradientTransform="scale(1.0058652,0.994169)"
       gradientUnits="userSpaceOnUse"
       id="ButtonShadow"
       y2="7.0165396"
       x2="45.447727"
       y1="92.539597"
       x1="45.447727">
      <stop
         offset="0"
         style="stop-color:#000000;stop-opacity:1"
         id="stop3750" />
      <stop
         offset="1"
         style="stop-color:#000000;stop-opacity:0.58823532"
         id="stop3752" />
    </linearGradient>
    <linearGradient
       id="linearGradient5048-8-7">
      <stop
         offset="0"
         style="stop-color:#000000;stop-opacity:0"
         id="stop5050-4-2" />
      <stop
         offset="0.5"
         style="stop-color:#000000;stop-opacity:1"
         id="stop5056-7-4" />
      <stop
         offset="1"
         style="stop-color:#000000;stop-opacity:0"
         id="stop5052-0-1-7" />
    </linearGradient>
    <linearGradient
       id="linearGradient5060-29-0">
      <stop
         offset="0"
         style="stop-color:#000000;stop-opacity:1"
         id="stop5062-9-7" />
      <stop
         offset="1"
         style="stop-color:#000000;stop-opacity:0"
         id="stop5064-08-2" />
    </linearGradient>
    <linearGradient
       id="linearGradient3851">
      <stop
         id="stop3853"
         style="stop-color:#5b8da7;stop-opacity:1;"
         offset="0" />
      <stop
         id="stop3855"
         style="stop-color:#1c3447;stop-opacity:1;"
         offset="1" />
    </linearGradient>
    <filter
       style="color-interpolation-filters:sRGB"
       id="filter3174-0">
      <feGaussianBlur
         stdDeviation="1.71"
         id="feGaussianBlur3176-9" />
    </filter>
    <clipPath
       id="clipPath916"
       clipPathUnits="userSpaceOnUse">
      <g
         id="g920"
         inkscape:label="circulo"
         style="display:inline;opacity:0.98999999;fill:#126136;fill-opacity:1"
         transform="matrix(1.1503549,0,0,1.1503549,-4.4861245,-7.5255648)">
        <path
           style="fill:#126136;fill-opacity:1;stroke:none;stroke-width:1.4909519"
           d="M 44.322082,27.405077 A 19.729762,19.729765 0 0 1 24.59232,47.134842 19.729762,19.729765 0 0 1 4.8625579,27.405077 19.729762,19.729765 0 0 1 24.59232,7.6753138 19.729762,19.729765 0 0 1 44.322082,27.405077 Z"
           id="path918"
           inkscape:connector-curvature="0" />
      </g>
    </clipPath>
    <clipPath
       clipPathUnits="userSpaceOnUse"
       id="clipPath3866">
      <circle
         r="312"
         cy="449"
         cx="1132"
         id="path3868"
         style="fill:#44abb1;fill-opacity:1;fill-rule:evenodd;stroke:none"
         transform="matrix(0.68724124,0,0,0.68724124,-521.35527,-47.661719)" />
    </clipPath>
    <linearGradient
       inkscape:collect="always"
       id="linearGradient4118">
      <stop
         style="stop-color:#0eb474;stop-opacity:1;"
         offset="0"
         id="stop4120" />
      <stop
         style="stop-color:#0eb474;stop-opacity:0;"
         offset="1"
         id="stop4122" />
    </linearGradient>
    <linearGradient
       id="linearGradient3837"
       inkscape:collect="always">
      <stop
         id="stop3839"
         offset="0"
         style="stop-color:#7db257;stop-opacity:1;" />
      <stop
         id="stop3841"
         offset="1"
         style="stop-color:#7db257;stop-opacity:0;" />
    </linearGradient>
    <linearGradient
       gradientUnits="userSpaceOnUse"
       y2="356.66208"
       x2="316.05505"
       y1="546.63525"
       x1="502.83536"
       id="linearGradient3843"
       xlink:href="#linearGradient3837"
       inkscape:collect="always" />
    <clipPath
       id="clipPath3847"
       clipPathUnits="userSpaceOnUse">
      <circle
         r="260.2153"
         cy="342.29437"
         cx="322.4407"
         style="fill:url(#linearGradient3843);fill-opacity:1;fill-rule:evenodd;stroke:none"
         id="path3849"
         transform="matrix(0.88586957,0,0,0.88586957,-24.010886,495.98978)" />
    </clipPath>
    <clipPath
       clipPathUnits="userSpaceOnUse"
       id="clipPath3344">
      <circle
         r="260.2153"
         cy="342.29437"
         cx="322.4407"
         transform="matrix(0.09964174,0,0,0.09964174,-8.1283951,-10.106867)"
         id="path3346"
         style="fill:#0eb474;fill-opacity:1;fill-rule:evenodd;stroke:none" />
    </clipPath>
    <linearGradient
       inkscape:collect="always"
       xlink:href="#linearGradient4118"
       id="linearGradient4124"
       x1="62.225403"
       y1="342.29437"
       x2="582.65601"
       y2="342.29437"
       gradientUnits="userSpaceOnUse" />
    <clipPath
       id="clipPath932"
       clipPathUnits="userSpaceOnUse">
      <g
         id="g936"
         inkscape:label="circulo"
         style="display:inline;opacity:0.98999999;fill:#32b6a1;fill-opacity:1"
         transform="matrix(1.1503549,0,0,1.1503549,-4.4861245,-7.5255648)">
        <path
           style="fill:#32b6a1;fill-opacity:1;stroke:none;stroke-width:1.4909519"
           d="M 44.322082,27.405077 A 19.729762,19.729765 0 0 1 24.59232,47.134842 19.729762,19.729765 0 0 1 4.8625579,27.405077 19.729762,19.729765 0 0 1 24.59232,7.6753138 19.729762,19.729765 0 0 1 44.322082,27.405077 Z"
           id="path934"
           inkscape:connector-curvature="0" />
      </g>
    </clipPath>
    <clipPath
       id="clipPath942"
       clipPathUnits="userSpaceOnUse">
      <g
         id="g946"
         inkscape:label="circulo"
         style="display:inline;opacity:0.98999999;fill:#32b6a1;fill-opacity:1"
         transform="matrix(1.1503549,0,0,1.1503549,-4.4861245,-7.5255648)">
        <path
           style="fill:#32b6a1;fill-opacity:1;stroke:none;stroke-width:1.4909519"
           d="M 44.322082,27.405077 A 19.729762,19.729765 0 0 1 24.59232,47.134842 19.729762,19.729765 0 0 1 4.8625579,27.405077 19.729762,19.729765 0 0 1 24.59232,7.6753138 19.729762,19.729765 0 0 1 44.322082,27.405077 Z"
           id="path944"
           inkscape:connector-curvature="0" />
      </g>
    </clipPath>
    <linearGradient
       id="linearGradient3822">
      <stop
         id="stop3824"
         style="stop-color:#e6e6e6;stop-opacity:1"
         offset="0" />
      <stop
         id="stop3826"
         style="stop-color:#f5f5f5;stop-opacity:1"
         offset="1" />
    </linearGradient>
    <linearGradient
       id="linearGradient3737">
      <stop
         id="stop3739"
         style="stop-color:#ffffff;stop-opacity:1"
         offset="0" />
      <stop
         id="stop3741"
         style="stop-color:#ffffff;stop-opacity:0"
         offset="1" />
    </linearGradient>
    <linearGradient
       id="linearGradient3700">
      <stop
         id="stop3702"
         style="stop-color:#f05517;stop-opacity:1"
         offset="0" />
      <stop
         id="stop3704"
         style="stop-color:#f37340;stop-opacity:1"
         offset="1" />
    </linearGradient>
    <filter
       id="filter3174-7"
       style="color-interpolation-filters:sRGB">
      <feGaussianBlur
         id="feGaussianBlur3176-5"
         stdDeviation="1.71" />
    </filter>
    <linearGradient
       x1="36.357143"
       y1="6"
       x2="36.357143"
       y2="63.893143"
       id="linearGradient3188"
       xlink:href="#linearGradient3737"
       gradientUnits="userSpaceOnUse" />
    <filter
       x="-0.192"
       y="-0.192"
       width="1.3839999"
       height="1.3839999"
       id="filter3794"
       style="color-interpolation-filters:sRGB">
      <feGaussianBlur
         id="feGaussianBlur3796"
         stdDeviation="5.28" />
    </filter>
    <linearGradient
       x1="48"
       y1="20.220806"
       x2="48"
       y2="138.66119"
       id="linearGradient3613"
       xlink:href="#linearGradient3737"
       gradientUnits="userSpaceOnUse" />
    <radialGradient
       cx="48"
       cy="90.171875"
       r="42"
       fx="48"
       fy="90.171875"
       id="radialGradient3619"
       xlink:href="#linearGradient3737"
       gradientUnits="userSpaceOnUse"
       gradientTransform="matrix(1.1573129,0,0,0.99590774,-7.5510206,0.19713193)" />
    <clipPath
       id="clipPath3613">
      <rect
         width="84"
         height="84"
         rx="6"
         ry="6"
         x="6"
         y="6"
         id="rect3615"
         style="fill:#ffffff;fill-opacity:1;fill-rule:nonzero;stroke:none" />
    </clipPath>
    <linearGradient
       x1="48"
       y1="90"
       x2="48"
       y2="5.9877172"
       id="linearGradient3617"
       xlink:href="#linearGradient3822"
       gradientUnits="userSpaceOnUse" />
    <linearGradient
       x1="45.447727"
       y1="92.539597"
       x2="45.447727"
       y2="7.0165396"
       id="ButtonShadow-0"
       gradientUnits="userSpaceOnUse"
       gradientTransform="matrix(1.0058652,0,0,0.994169,100,0)">
      <stop
         id="stop3750-8"
         style="stop-color:#000000;stop-opacity:1"
         offset="0" />
      <stop
         id="stop3752-5"
         style="stop-color:#000000;stop-opacity:0.58823532"
         offset="1" />
    </linearGradient>
    <linearGradient
       x1="32.251034"
       y1="6.1317081"
       x2="32.251034"
       y2="90.238609"
       id="linearGradient3780"
       xlink:href="#ButtonShadow-0"
       gradientUnits="userSpaceOnUse"
       gradientTransform="matrix(1.0238095,0,0,1.0119048,-1.1428571,-98.071429)" />
    <linearGradient
       x1="32.251034"
       y1="6.1317081"
       x2="32.251034"
       y2="90.238609"
       id="linearGradient3721"
       xlink:href="#ButtonShadow-0"
       gradientUnits="userSpaceOnUse"
       gradientTransform="translate(0,-97)" />
    <linearGradient
       gradientTransform="matrix(3.6907816,0,0,3.6907816,86.006062,-394.23151)"
       x1="47.973103"
       y1="79.776169"
       x2="47.973103"
       y2="16.436062"
       id="linearGradient3067"
       xlink:href="#linearGradient3700"
       gradientUnits="userSpaceOnUse" />
    <clipPath
       id="clipPath1109"
       clipPathUnits="userSpaceOnUse">
      <g
         id="g1113"
         inkscape:label="circulo"
         style="display:inline;opacity:0.98999999;fill:#fa6e31;fill-opacity:1"
         transform="matrix(12.332308,0,0,12.332308,-47.545312,-534.58518)">
        <path
           style="fill:#fa6e31;fill-opacity:1;stroke:none;stroke-width:1.4909519"
           d="M 44.322082,27.405077 A 19.729762,19.729765 0 0 1 24.59232,47.134842 19.729762,19.729765 0 0 1 4.8625579,27.405077 19.729762,19.729765 0 0 1 24.59232,7.6753138 19.729762,19.729765 0 0 1 44.322082,27.405077 Z"
           id="path1111"
           inkscape:connector-curvature="0" />
      </g>
    </clipPath>
  </defs>
  <sodipodi:namedview
     id="base"
     pagecolor="#ffffff"
     bordercolor="#666666"
     borderopacity="1.0"
     inkscape:pageopacity="0.0"
     inkscape:pageshadow="2"
     inkscape:zoom="1.979899"
     inkscape:cx="-14.225597"
     inkscape:cy="11.73817"
     inkscape:document-units="px"
     inkscape:current-layer="layer1"
     showgrid="true"
     units="px"
     inkscape:window-width="1920"
     inkscape:window-height="1014"
     inkscape:window-x="0"
     inkscape:window-y="29"
     inkscape:window-maximized="1">
    <inkscape:grid
       type="xygrid"
       id="grid4780"
       spacingx="0.1"
       spacingy="0.1" />
  </sodipodi:namedview>
  <metadata
     id="metadata4237">
    <rdf:RDF>
      <cc:Work
         rdf:about="">
        <dc:format>image/svg+xml</dc:format>
        <dc:type
           rdf:resource="http://purl.org/dc/dcmitype/StillImage" />
        <dc:title></dc:title>
      </cc:Work>
    </rdf:RDF>
  </metadata>
  <g
     inkscape:label="Capa 1"
     inkscape:groupmode="layer"
     id="layer1"
     transform="translate(0,-1004.3622)">
    <path
       id="path4322"
       d="m 3.5830609,1008.3443 39.9999651,0 c 0.83101,0 1.500018,0.669 1.500018,1.5 l 0,20.0893 0,19.9107 c 0,0.831 -0.669008,1.5 -1.500018,1.5 l -39.9999651,0 c -0.8310097,0 -1.5000174,-0.669 -1.5000174,-1.5 l 0,-19.9554 0,-20.0446 c 0,-0.831 0.6690077,-1.5 1.5000174,-1.5 z"
       style="opacity:1;fill:#796a57;fill-opacity:1;stroke:none;stroke-width:6;stroke-linecap:round;stroke-linejoin:round;stroke-miterlimit:4;stroke-dasharray:none;stroke-dashoffset:0;stroke-opacity:1;paint-order:fill markers stroke"
       inkscape:connector-curvature="0"
       sodipodi:nodetypes="ssscsssscss" />
    <path
       sodipodi:nodetypes="sssccccsscss"
       inkscape:connector-curvature="0"
       style="opacity:1;fill:#bd8e6c;fill-opacity:1;stroke:none;stroke-width:6;stroke-linecap:round;stroke-linejoin:round;stroke-miterlimit:4;stroke-dasharray:none;stroke-dashoffset:0;stroke-opacity:1;paint-order:fill markers stroke"
       d="m 3.5830609,1008.3443 39.9999651,0 c 0.83101,0 1.500018,0.669 1.500018,1.5 l 0,20.0893 0,6.5818 -15.031006,14.8289 -6.468995,0 -19.9999821,0 c -0.8310097,0 -1.5000174,-0.669 -1.5000174,-1.5 l 0,-19.9554 0,-20.0446 c 0,-0.831 0.6690077,-1.5 1.5000174,-1.5 z"
       id="path4377" />
    <path
       style="fill:#ffffff;fill-opacity:1;stroke-width:0.06104508"
       d="m 14.615806,1042.6574 c -1.044331,-0.2809 -1.949623,-1.243 -2.142643,-2.2773 -0.0401,-0.2149 -0.06137,-5.6486 -0.06137,-15.6733 v -15.3446 h 11.171249 11.171252 l -0.0011,15.3071 c -9.22e-4,13.0603 -0.01397,15.3677 -0.08863,15.7203 -0.232365,1.0966 -1.081335,1.9841 -2.176997,2.2756 -0.493745,0.1314 -17.381492,0.1231 -17.871798,0 z m 9.310074,-3.2557 c 0.480298,-0.218 0.748894,-0.7336 0.753298,-1.4459 0.006,-0.9738 -0.462837,-1.5505 -1.260366,-1.5505 -0.295948,0 -0.413101,0.033 -0.647924,0.1817 l -0.286654,0.1818 v -0.7311 -0.7313 h -0.48836 -0.48836 v 2.0756 2.0756 h 0.48836 0.48836 v -0.1939 -0.1938 l 0.137789,0.1297 c 0.338313,0.3178 0.868419,0.4 1.303857,0.2023 z m -1.194751,-0.7867 c -0.302267,-0.3023 -0.318404,-1.0451 -0.02899,-1.3344 0.196873,-0.1968 0.587412,-0.1976 0.783472,0 0.288114,0.288 0.255241,1.1018 -0.05533,1.3695 -0.221442,0.1911 -0.487301,0.1783 -0.699147,-0.033 z m 6.265674,0.816 c 0.653414,-0.1381 0.629707,-0.1165 0.629707,-0.5529 v -0.3831 l -0.361295,0.1463 c -0.721309,0.2914 -1.30464,0.2493 -1.557922,-0.1114 -0.194963,-0.2784 -0.163367,-0.2881 0.988275,-0.3059 l 1.083552,-0.017 -0.01811,-0.3662 c -0.02641,-0.5345 -0.264126,-0.9806 -0.649539,-1.2189 -0.250969,-0.1547 -0.374814,-0.1886 -0.764324,-0.2064 -0.556897,-0.025 -0.876688,0.052 -1.205985,0.2902 -0.372185,0.2696 -0.53672,0.6563 -0.534974,1.2572 0.0012,0.4048 0.02727,0.5343 0.152608,0.7575 0.386901,0.689 1.16681,0.937 2.237993,0.7115 z m -1.384783,-1.8895 c 0,-0.05 0.07111,-0.1736 0.158046,-0.2769 0.131352,-0.1563 0.202359,-0.1879 0.420551,-0.1879 0.305423,0 0.511699,0.1413 0.534966,0.3663 0.01563,0.1514 0.01281,0.153 -0.548889,0.1702 -0.462506,0.017 -0.564667,0 -0.564667,-0.072 z m -10.743933,1.5497 v -0.3662 h -0.309239 c -0.534957,0 -0.545392,-0.017 -0.545392,-0.8569 v -0.7304 h 0.48836 0.488362 v -0.3356 -0.3358 h -0.488362 -0.48836 v -0.4273 -0.4274 h -0.485571 -0.485572 l -0.01805,0.4121 -0.01804,0.412 -0.228919,0.02 -0.228919,0.018 v 0.3283 0.3285 l 0.228919,0.018 0.228919,0.018 0.03052,0.8851 c 0.03172,0.9197 0.06874,1.0572 0.329528,1.2237 0.167624,0.1065 0.512262,0.163 1.059249,0.1728 h 0.442578 z m 1.526126,-0.5493 c 0.03222,-0.934 0.07289,-1.0849 0.339851,-1.2598 0.115836,-0.077 0.239876,-0.091 0.516734,-0.067 l 0.364317,0.033 v -0.4216 -0.4214 h -0.31126 c -0.348176,0 -0.685419,0.1347 -0.820186,0.3268 -0.0864,0.123 -0.08946,0.1214 -0.08946,-0.072 v -0.1992 l -0.503622,0.018 -0.503621,0.018 -0.01647,1.4028 c -0.009,0.7714 -0.0027,1.4388 0.0143,1.4829 0.02262,0.06 0.156432,0.075 0.504803,0.063 l 0.474024,-0.018 z m 2.624939,-0.58 v -1.4956 h -0.48836 -0.48836 v 1.4549 c 0,0.8001 0.01831,1.4732 0.0407,1.4956 0.02239,0.022 0.242145,0.04 0.48836,0.04 h 0.447664 z m 5.06674,-0.5799 v -2.0756 h -0.48836 -0.48836 v 2.0349 c 0,1.1191 0.01831,2.0531 0.0407,2.0755 0.02238,0.022 0.242144,0.04 0.48836,0.04 h 0.447662 z m 5.139068,1.2056 c 0.02789,-0.9761 0.09646,-1.1953 0.415033,-1.3273 0.122072,-0.05 0.304854,-0.065 0.521763,-0.038 l 0.333871,0.04 v -0.4279 -0.4277 h -0.339765 c -0.371544,0 -0.519814,0.056 -0.774307,0.2935 l -0.167876,0.1563 v -0.1946 -0.1945 h -0.488357 -0.488363 v 1.4549 c 0,0.8001 0.01831,1.4731 0.0407,1.4956 0.02239,0.022 0.239094,0.04 0.481573,0.04 h 0.440875 z m -10.205808,-2.8843 v -0.3969 h -0.48836 -0.48836 v 0.3969 0.3968 h 0.48836 0.48836 z m -1.479203,-2.9293 c 0.796977,-0.5992 1.942029,-1.9462 2.673598,-3.1451 0.698419,-1.1446 1.125871,-2.19 1.556721,-3.8072 0.235919,-0.8856 0.351426,-1.1371 0.522109,-1.1371 0.136143,0 0.203002,0.2063 0.455883,1.407 0.315857,1.4998 0.863154,3.0607 1.310001,3.736 0.202691,0.3064 0.338788,0.2977 1.103742,-0.07 1.010142,-0.4858 2.037188,-1.2261 2.037188,-1.4684 0,-0.03 -0.165879,-0.3695 -0.368614,-0.7555 -0.873825,-1.6638 -1.188373,-3.1199 -1.271402,-5.8853 -0.04083,-1.3601 -0.0546,-1.4933 -0.170242,-1.6483 l -0.125814,-0.1685 -3.353797,-0.017 c -2.80901,-0.017 -3.372932,0 -3.471598,0.07 -0.153588,0.1114 -0.200836,0.6657 -0.2073,2.4284 -0.0053,1.4661 -0.05648,1.9559 -0.308045,2.9519 -0.343641,1.3607 -0.93309,2.5717 -2.103202,4.3211 -0.355223,0.531 -0.645862,1.002 -0.645862,1.0468 0,0.143 0.349691,0.7522 0.693169,1.2084 0.385458,0.512 1.086161,1.2049 1.218417,1.2049 0.04994,0 0.254714,-0.1231 0.45505,-0.2737 z m 7.483008,-14.4614 c 0.431456,-0.2112 0.967541,-0.7827 1.100745,-1.1737 0.241619,-0.7091 0.05927,-1.5806 -0.443107,-2.1178 -0.536961,-0.5739 -1.130608,-0.7657 -2.004002,-0.6473 -0.789791,0.1065 -0.941166,0.053 -1.600909,-0.5791 -0.618685,-0.592 -0.835737,-0.7334 -1.317817,-0.859 -1.228108,-0.32 -2.627059,0.2754 -3.140715,1.3365 -0.07138,0.148 -0.17364,0.4831 -0.227223,0.7459 -0.245931,1.2059 0.321106,2.4102 1.385218,2.9419 0.784793,0.3922 1.453405,0.4035 2.563719,0.043 0.82769,-0.2684 0.92844,-0.2626 1.521822,0.09 0.584686,0.3475 0.864575,0.429 1.388364,0.4042 0.321162,-0.017 0.527423,-0.065 0.773905,-0.185 z"
       id="path1001-2"
       inkscape:connector-curvature="0" />
  </g>
</svg>
