<?xml version="1.0" encoding="UTF-8" standalone="no"?>
<!-- Created with Inkscape (http://www.inkscape.org/) -->

<svg
   xmlns:dc="http://purl.org/dc/elements/1.1/"
   xmlns:cc="http://creativecommons.org/ns#"
   xmlns:rdf="http://www.w3.org/1999/02/22-rdf-syntax-ns#"
   xmlns:svg="http://www.w3.org/2000/svg"
   xmlns="http://www.w3.org/2000/svg"
   xmlns:sodipodi="http://sodipodi.sourceforge.net/DTD/sodipodi-0.dtd"
   xmlns:inkscape="http://www.inkscape.org/namespaces/inkscape"
   width="210mm"
   height="210mm"
   viewBox="0 0 210 210"
   version="1.1"
   id="svg4600"
   inkscape:version="0.92.4 5da689c313, 2019-01-14"
   sodipodi:docname="tromcloud.svg"
   inkscape:export-filename="/home/tio/Downloads/trade-free fav 2.png"
   inkscape:export-xdpi="31.447618"
   inkscape:export-ydpi="31.447618">
  <defs
     id="defs4594">
    <filter
       style="color-interpolation-filters:sRGB"
       inkscape:label="Drop Shadow"
       id="filter4423">
      <feFlood
         flood-opacity="0.45098"
         flood-color="rgb(0,0,0)"
         result="flood"
         id="feFlood4425" />
      <feComposite
         in="flood"
         in2="SourceGraphic"
         operator="in"
         result="composite1"
         id="feComposite4427" />
      <feGaussianBlur
         in="composite1"
         stdDeviation="5.46448"
         result="blur"
         id="feGaussianBlur4429" />
      <feOffset
         dx="-2.2"
         dy="4.9"
         result="offset"
         id="feOffset4431" />
      <feComposite
         in="SourceGraphic"
         in2="offset"
         operator="over"
         result="composite2"
         id="feComposite4433" />
    </filter>
  </defs>
  <sodipodi:namedview
     id="base"
     pagecolor="#ffffff"
     bordercolor="#666666"
     borderopacity="1.0"
     inkscape:pageopacity="0.0"
     inkscape:pageshadow="2"
     inkscape:zoom="0.49497475"
     inkscape:cx="247.23788"
     inkscape:cy="529.27124"
     inkscape:document-units="mm"
     inkscape:current-layer="layer1"
     showgrid="false"
     inkscape:window-width="1851"
     inkscape:window-height="1048"
     inkscape:window-x="69"
     inkscape:window-y="32"
     inkscape:window-maximized="1" />
  <metadata
     id="metadata4597">
    <rdf:RDF>
      <cc:Work
         rdf:about="">
        <dc:format>image/svg+xml</dc:format>
        <dc:type
           rdf:resource="http://purl.org/dc/dcmitype/StillImage" />
        <dc:title></dc:title>
      </cc:Work>
    </rdf:RDF>
  </metadata>
  <g
     inkscape:label="Layer 1"
     inkscape:groupmode="layer"
     id="layer1"
     transform="translate(0,-87)">
    <circle
       style="fill:#5e854e;fill-opacity:1;stroke:#40633e;stroke-width:15.10618782;stroke-linecap:square;stroke-miterlimit:4;stroke-dasharray:none;stroke-dashoffset:0;stroke-opacity:1;paint-order:stroke markers fill"
       id="path825"
       cx="105.3203"
       cy="193.31017"
       r="95.358665" />
    <g
       transform="matrix(1.0996824,0,0,1.0940063,-6.3361283,17.988544)"
       style="clip-rule:evenodd;fill:#f2f2f2;fill-opacity:1;fill-rule:evenodd;image-rendering:optimizeQuality;shape-rendering:geometricPrecision;text-rendering:geometricPrecision"
       id="        _x0020_1"
       inkscape:export-xdpi="361"
       inkscape:export-ydpi="361">
      <metadata
         id="CorelCorpID_0Corel-Layer" />
      <path
         inkscape:connector-curvature="0"
         class="fil0"
         d="m 84.5257,204.917 c -0.0177,0.006 -0.0355,0.0122 -0.0533,0.0183 0.1754,0.1525 2.6365,1.555 2.7652,1.555 0.1441,0 0.2881,0 0.4321,0 -0.0845,-1.0148 -0.6913,-2.5571 -0.6913,-3.2826 0,-1.2018 0.7619,-5.3904 1.3826,-5.615 0,-0.6431 0.9503,-2.114 1.2546,-2.7196 0.2603,-0.5181 1.1362,-2.2907 1.6834,-2.2907 0.0289,0 0.0577,0 0.0865,0 0.1991,0 0.2592,0.0601 0.2592,0.2591 0,0.0288 0,0.0576 0,0.0864 0,0.8367 -2.3311,2.7755 -2.3435,4.3067 -0.4245,0.316 -0.567,1.3609 -0.7001,1.8939 -0.0878,0.3519 -0.2401,1.4654 -0.2401,1.9196 0,0.0287 0,0.0575 0,0.0863 0,3.0016 0.9146,6.1554 2.3981,7.6233 0.3777,0.3738 0.8659,0.9065 1.2852,1.2204 0.5592,0.4185 0.9847,0.5877 1.5546,0.9511 0.8599,0.5483 2.4736,1.176 3.8355,1.176 5e-4,0.0517 0.001,0.1034 0.0015,0.1552 0.806,0.0634 1.612,0.1269 2.418,0.1904 5.0069,0.4434 8.1596,-3.536 10.5352,-5.8814 0.6796,-0.671 1.1472,-1.5558 2.0915,-1.9692 0.8069,-0.3532 1.8139,-1.1378 2.4309,-1.7163 0.8156,-0.7648 1.2665,-1.2091 1.9517,-2.1091 0.6847,-0.8993 0.9336,-1.8434 1.4831,-2.6638 0,-0.4062 -0.0323,-0.6598 0.2593,-0.7775 0,-0.5471 0,-1.0942 0,-1.6413 0,-1.4118 -0.1279,-1.2669 -0.5504,-2.4733 -0.1541,-0.4401 -1.0051,-2.0622 -1.0051,-2.2778 0,-0.2016 0,-0.4032 0,-0.6047 0,-0.8381 0.9006,-2.615 1.2632,-3.2292 0.1111,-0.1882 0.894,-1.0054 1.0701,-1.1763 0.22,-0.2136 0.7286,-1.3108 0.7132,-1.6439 -0.0319,-0.3482 -0.0639,-0.6964 -0.0959,-1.0445 -0.0618,-0.083 -0.1236,-0.1659 -0.1854,-0.2488 0,-0.5828 -0.5563,-1.4904 -0.8412,-1.8369 -0.2414,-0.2938 -1.1009,-1.1865 -1.4919,-1.1865 -0.1152,0 -0.2304,0 -0.3457,0 -0.6272,-1.5539 -6.9987,-1.7317 -8.382,-2.765 -0.8641,-0.0862 -1.7282,-0.1724 -2.5924,-0.2585 -0.8024,-0.2542 -0.6921,-1.6597 -0.9506,-1.9004 -0.178,-0.2311 -0.7225,-0.1793 -0.7779,-0.1747 -0.5218,0.054 -1.0437,0.1081 -1.5656,0.1622 -0.0829,0.0617 -0.1658,0.1235 -0.2488,0.1853 -0.5271,0 -3.0245,0.3548 -3.0245,0.6046 0,0.6746 1.8072,1.3942 2.4035,1.6574 0.4412,0.1949 2.5612,1.1865 2.8677,1.1933 0.0555,0.2077 0.6649,0.6911 0.7777,0.6911 0.3096,0 0.936,0.6151 1.2051,0.8685 0.3198,0.3012 0.6145,0.6289 0.9356,0.9652 0.2871,0.3007 1.4887,1.8206 1.4887,2.2264 0,1.7092 -1.2307,-0.5849 -1.7068,-1.0581 -0.2943,-0.2926 -1.6285,-1.4742 -1.6634,-1.7926 -0.278,-0.0304 -1.1931,-0.9081 -1.6135,-1.1513 -0.5767,-0.3336 -1.1832,-0.7298 -1.7563,-1.0086 -0.406,-0.1974 -0.4477,-0.3205 -0.9172,-0.4653 -0.2425,-0.0748 -0.7169,-0.3243 -0.9311,-0.4513 -0.3533,-0.2094 -2.7516,-1.4155 -3.2503,-1.4155 -0.0576,0 -0.1152,0 -0.1729,0 -0.2803,0 -1.5959,0.6047 -1.6418,0.6047 -0.7191,0 -1.2995,-0.4319 -2.0739,-0.4319 -0.1152,0 -0.2304,0 -0.3457,0 -1.1078,0 -3.0021,0.4808 -3.8535,0.8125 -2.2969,0.8948 -3.7629,1.9495 -5.9313,2.8819 -0.7215,0.3102 -1.8638,1.5415 -2.313,1.6614 0.3738,-1.6039 4.2293,-3.6951 5.4842,-4.2791 0.4194,-0.1951 0.5585,-0.2761 0.925,-0.4574 0.7476,-0.37 1.1723,-0.4268 1.9633,-0.7153 0.2921,-0.1065 4.5481,-1.8045 3.3797,-1.8045 -0.0127,0 -0.9578,-0.2614 -1.2439,-0.3114 -0.5051,-0.0881 -1.0841,-0.0357 -1.6087,-0.0332 -0.9765,0.005 -2.0755,-0.1737 -3.1099,-0.1737 -0.5509,-0.1686 -6.5248,-1.3556 -7.0859,-3.4554 0.4998,0.1164 1.281,0.8161 1.7389,1.026 1.3438,0.6164 2.8107,1.3402 4.3036,1.6122 0.3002,0.1374 1.1249,0.2989 1.4755,0.2989 0.4609,0 0.9218,0 1.3826,0 0.2333,0 0.2382,-0.0413 0.432,-0.0864 -0.0164,-0.739 -0.9003,-0.8348 -1.3994,-1.0692 -0.5476,-0.1716 -1.0953,-0.3431 -1.643,-0.5146 0.0492,-0.2257 1.7196,0.0749 2.0065,0.1054 0.2556,0.051 2.2945,0.5543 2.5914,0.6146 0.4015,0.3882 1.2296,0.0602 1.7282,0.4319 0.5222,0 2.9263,0.7825 3.2399,0.994 0.819,0.5524 2.9958,0.1198 4.0372,0.2834 0.4649,0.0731 3.5092,-0.1 4.0085,-0.1889 0.5349,-0.0951 1.5749,-0.0911 1.95,-0.2103 0.464,-0.1475 1.2457,-0.4438 1.6275,-0.5327 -0.0333,-1.4936 -5.6252,-2.7023 -5.7897,-3.1098 -0.5413,0 -2.214,-0.5925 -2.8719,-0.7572 -1.3332,-0.3337 -2.5615,-0.6599 -3.7923,-0.8716 -0.0829,-0.0618 -0.1659,-0.1236 -0.2489,-0.1853 -0.8249,0 -1.3019,-0.1437 -2.0406,-0.2924 -0.3252,-0.0655 -1.8384,-0.3987 -2.0208,-0.3987 -1.3054,0 -2.4999,-0.5066 -3.9726,-0.5206 -0.8159,-0.008 -2.6329,-0.0547 -2.854,-0.6023 -0.5021,0 -2.5342,-0.62 -3.1079,-0.7805 -0.416,-0.1163 -2.9363,-0.5153 -3.3731,-0.5153 -0.4038,-0.0105 -0.8077,-0.021 -1.2116,-0.0314 -0.9787,0.068 -1.9574,0.1361 -2.9362,0.2042 0,0.0863 0,0.1727 0,0.2591 0,0.4057 1.7015,0.8104 1.8147,1.123 1.1495,0 1.8883,0.6911 2.7652,0.6911 0.1152,0 0.2304,0 0.3456,0 0.2565,0.6351 2.1613,-0.004 2.2462,0.8266 -0.9538,-0.0122 -1.9076,-0.0244 -2.8614,-0.0366 -0.0874,-0.0423 -0.1748,-0.0846 -0.2622,-0.1269 -0.9173,-0.1923 -1.8346,-0.3845 -2.7519,-0.5767 -1.1238,-0.7523 -4.2342,-1.0248 -4.2342,-2.9371 0,-0.1771 0.1472,-0.3832 0.1728,-0.6911 0.4369,-0.0363 0.6046,-0.2591 0.7777,-0.2591 0.2881,0 0.5761,0 0.8641,0 0.3651,0 1.3519,0.424 1.7258,0.5207 0.4907,0.1269 1.5252,0.1703 2.1628,0.1703 0.0865,0 0.1729,0 0.2593,0 0,0.0576 0,0.1152 0,0.1728 1.0416,0 2.3883,0.1432 3.3765,0.2527 0.7248,0.0804 0.9355,0.0673 1.5836,0.231 0.2717,0.0687 1.4143,0.3802 1.5208,0.3802 0.0865,0 0.1729,0 0.2593,0 0,0.0575 0,0.1151 0,0.1727 0.1152,0 0.2304,0 0.3456,0 0.0279,0 1.0917,0.526 1.2949,0.606 0.6457,0.2542 1.1467,0.0832 1.7486,0.2388 0.6982,0.1805 2.7317,0.2782 3.6207,0.2657 0.083,0.0617 0.166,0.1235 0.2489,0.1853 2.3329,0 9.9468,1.2367 12.357,2.8507 0.6761,0 4.4289,1.6834 5.2459,2.0121 0.6489,0.2612 1.4774,1.1397 2.0708,1.558 1.0764,0.7588 1.5596,0.1444 2.9665,0.1444 0.3,-0.2008 1.8225,-0.6565 2.364,-0.9193 0.5761,-0.2795 1.5522,-0.9604 1.9784,-1.3914 0.9285,-0.9389 2.225,-2.7293 2.225,-4.5137 0,-0.3904 0.1952,-2.3323 -0.1729,-2.3323 0,-1.1035 -0.4601,-1.3842 -0.5184,-1.555 -0.208,-0.2169 -0.0512,-0.0662 -0.2593,-0.3455 -0.1414,-0.7029 -2.6268,-3.3249 -3.2134,-3.7848 -0.6757,-0.5296 -1.2704,-1.0482 -2.0364,-1.506 -0.1309,-0.0783 -2.4409,-1.3838 -2.4409,-0.5833 0,0.0863 0,0.1727 0,0.2591 0,0.5593 0.2592,0.893 0.2592,1.0366 -4e-4,0.2566 -9e-4,0.5132 -0.001,0.7699 -0.2011,0.0313 -0.4023,0.0626 -0.6035,0.094 -0.054,-0.6504 -2.2459,-2.4746 -2.8169,-2.9718 -0.4218,-0.3674 -0.9839,-0.7008 -1.3235,-1.0093 -0.1902,-0.1727 -1.1977,-0.8536 -1.4002,-0.9326 -0.1757,-0.0686 -1.5143,-0.6965 -1.5645,-0.7684 -0.1295,-0.1857 -0.1602,-0.4691 -0.3884,-0.7348 -0.1717,-0.2 -0.4145,-0.3689 -0.6298,-0.4934 -0.4335,-0.2507 -1.1782,-0.4213 -1.8591,-0.4617 -1.204,-0.0713 -2.8925,0.2885 -4.2861,0.2759 -0.0832,0.0589 -0.1665,0.1179 -0.2498,0.1769 -0.3453,0.0316 -0.6906,0.0632 -1.036,0.0948 -0.7495,0.007 -1.4991,0.0134 -2.2487,0.0201 -0.4314,-0.0355 -0.8628,-0.071 -1.2943,-0.1065 -0.0886,-0.2195 -0.9739,-0.5656 -1.2025,-0.7847 -0.4083,-0.3911 -0.6628,-0.585 -1.2453,-0.8283 -0.6022,-0.2514 -0.5754,-0.4252 -1.4247,-0.649 -0.315,-0.0829 -1.3619,-0.2836 -1.4851,-0.5886 -0.631,0 -0.6334,-0.1728 -1.1233,-0.1728 -0.8353,0 -1.6706,0 -2.506,0 -0.5393,0 -0.8987,0.2638 -1.7279,0.2595 -0.6919,-0.004 -1.254,0.011 -1.8828,0.1047 -0.5813,0.0867 -1.1883,0.2464 -1.6693,0.318 -0.8776,0.1308 -0.7951,0.5124 -1.4602,0.5272 -0.1142,0.2157 -1.2025,0.9454 -1.4784,1.2 -0.487,0.4497 -1.1099,0.6974 -1.6843,1.0805 -0.908,0.6057 -2.4108,1.6718 -3.0245,2.5052 -0.2292,0.3112 -0.3446,0.3809 -0.5927,0.7032 -0.1733,0.225 -0.4449,0.6485 -0.5855,0.7968 -0.4439,0.4684 -0.617,1.3302 -0.9455,1.8192 -0.5257,1.1711 -1.713,2.9888 -1.713,4.248 0,0.6202 -0.4608,1.1518 -0.6913,1.7277 -0.1728,0.5759 -0.3456,1.1518 -0.5185,1.7277 -0.0864,0.3167 -0.1728,0.6334 -0.2593,0.9502 -0.0026,0.2012 -0.0052,0.4025 -0.0079,0.6038 -0.2278,2.1887 -0.4556,4.3774 -0.6834,6.5661 -0.0576,0 -0.1152,0 -0.1728,0 0,0.1727 0,0.3455 0,0.5183 0,1.6567 -0.5049,5.0857 -0.7592,6.7565 -0.1744,1.1456 -0.3493,2.2617 -0.4479,3.3531 -0.0891,0.9855 -0.5211,2.4113 -0.5211,3.28 0,1.8887 0.1528,3.3736 0.432,5.3558 0,0.1439 0,0.2879 0,0.4319 0.18,0.0727 0.787,1.7143 0.9246,2.0128 0.3631,0.7875 0.722,1.2264 1.1493,1.8745 0.7622,1.1558 1.936,2.1616 3.0954,2.9526 0.316,0.2156 1.5511,1.0669 1.8657,1.1583 0.5565,0.1618 0.5838,0.1728 1.033,0.4359 0.3368,0.1973 0.812,0.2461 1.166,0.3893 0.9047,0.3659 3.7279,1.0839 4.9378,1.1108 0.0963,-0.2385 1.02,-0.4863 1.2771,-0.7101 0.3994,-0.3478 0.7586,-0.5042 1.4871,-0.5002 1.5179,0.008 2.4897,-0.2582 3.8031,-0.2582 0.4033,0 0.8066,0 1.2098,0 0.2334,0 0.2383,0.0412 0.4321,0.0864 0,0.1151 0,0.2303 0,0.3455 0,0.2435 -0.2753,0.3848 -0.4263,0.5133 -0.6184,0.074 -1.4379,0.4975 -1.5802,1.0303 0.0158,-0.0324 0.0316,-0.0648 0.0473,-0.0971 0.7573,0.3755 1.5145,0.7511 2.2717,1.1267 z m 29.4136,-93.5358 c 0,0.4303 -3.1946,9.975 -3.4314,10.3682 -0.0372,0.4312 -0.0744,0.8624 -0.1116,1.2936 -1.3677,0.9156 -2.2942,3.6142 -2.8174,5.4765 -0.2625,0.9348 -2.1081,5.8196 -2.1081,6.1854 0,0.2015 0,0.4031 0,0.6047 0,0.9307 3.3701,0.3554 3.3701,1.123 0,0.0864 0,0.1728 0,0.2592 -0.3654,0.0851 -0.7351,0.1286 -0.7717,0.4803 0.43,0.0702 0.8601,0.1404 1.2902,0.2107 0,0.144 0,0.288 0,0.432 -0.3551,0.0295 -0.1931,0.0863 -0.5185,0.0863 -1.374,0 -1.9469,-0.1674 -2.8442,0.6122 -0.366,0.318 -0.6048,0.4896 -0.9355,0.8788 -0.3062,0.3604 -0.4774,0.9423 -0.7138,1.1006 0,0.5084 -0.4751,1.7834 -0.5185,2.5915 -0.0606,1.1315 -0.2502,1.5669 -0.0354,2.7997 0.1996,1.1452 0.2179,1.5919 0.6254,2.4846 0.1317,0.2885 0.3655,0.7922 0.5534,1.0017 0.2338,0.2606 0.8368,0.4521 0.9305,0.7111 0.3168,0 0.6337,0 0.9506,0 0.8337,0 2.1724,-0.9308 2.7486,-1.3124 0.4313,-0.2856 0.7159,-0.6314 1.0765,-0.9971 1.2891,-1.3071 3.0879,-4.9012 3.0879,-6.4153 0,-0.2036 -0.8585,-1.1032 -1.058,-1.2747 -0.3588,-0.3086 -1.1762,-0.5836 -1.1887,-1.1441 0.1013,-0.0268 0.2355,-0.0863 0.2592,-0.0863 0.9367,0 1.5729,0.9502 1.9011,0.9502 1.1965,0 2.1642,-1.7678 2.6963,-2.5741 0.426,-0.6457 1.6244,-2.8068 1.7058,-3.7094 0.3714,-1.3542 0.7429,-2.7083 1.1144,-4.0624 0.1198,-0.4675 0.2397,-0.935 0.3596,-1.4024 -0.525,-0.7837 -2.4415,-1.338 -3.4583,-1.7259 -0.6321,-0.2412 -1.1673,-0.4946 -1.9483,-0.6439 -0.6267,-0.1198 -1.7657,-0.2777 -1.7657,-0.9128 0,-0.7545 0.7406,-0.6047 1.2098,-0.6047 0.2016,0 0.4032,0 0.6049,0 0.2362,-0.8844 2.4313,-0.5183 3.4565,-0.5183 0.1271,0.3148 1.1241,0.5746 1.5015,0.6586 0.6905,0.1537 1.0982,0.4644 1.6958,0.4644 0.1756,0 0.5276,-0.4951 0.6913,-0.6047 0,-0.8791 0.7005,-4.0361 1.1234,-4.3192 0,-0.5811 1.8727,-4.7428 2.1427,-5.6326 0.4798,-1.5812 1.6594,-4.3533 1.6594,-6.202 0,-2.1547 -2.0688,-4.1465 -4.1478,-4.1465 -0.2881,0 -0.5761,0 -0.8641,0 -0.9124,0 -2.261,0.5181 -2.8524,0.8631 -1.5239,0.889 -0.9369,0.6581 -1.9656,1.836 -0.2811,0.3218 -1.2462,1.8488 -1.4502,2.2648 -0.1958,0.3992 -1.0264,2.4614 -1.2497,2.5516 z m -23.1587,-8.4657 c -0.5362,0.8004 -0.8642,6.933 -0.8337,8.5923 0.1914,0.1593 0.3829,0.3186 0.5744,0.478 0.0864,0 0.1728,0 0.2593,0 0.1937,0 0.1897,0.0684 0.3461,0.1666 0.5183,0.0308 1.0366,0.0617 1.555,0.0926 0,1.2193 -1.4812,0.8148 -1.8147,2.246 -0.5385,0.0448 -1.9283,1.0801 -2.0776,1.5513 -0.3218,1.0157 -0.6016,1.6589 -0.6012,3.0271 8e-4,2.4835 -0.3704,4.4936 -0.3362,6.997 -0.0016,0.8787 -0.4589,3.5493 0.0531,4.8296 0.1707,0.4268 0.4491,0.6991 0.888,0.6991 0.144,0 0.288,0 0.432,0 0,0.0863 0,0.1727 0,0.2591 0,0.4227 -1.4932,1.1283 -1.8452,1.87 -0.2595,0.5469 -0.7472,2.2328 -0.7472,2.9676 -0.0213,0.8664 -0.0426,1.7329 -0.0639,2.5994 0.1365,1.0915 0.273,2.1831 0.4096,3.2747 0.3844,0.5739 0.554,1.0143 1.1694,1.4225 0.4102,0.2722 1.3007,0.6507 1.9415,0.6507 0.2016,0 0.4032,0 0.6049,0 2.6764,0 5.0983,-4.8781 5.0983,-7.6882 0.0524,-5e-4 0.1049,-9e-4 0.1574,-10e-4 0.0339,-0.4891 0.0679,-0.9782 0.1019,-1.4672 0,-0.0864 0,-0.1728 0,-0.2592 0,-1.4814 -0.1079,-2.235 -1.648,-2.4133 -0.2332,-0.027 -1.2313,0.0529 -1.5435,0.0867 -0.8903,0.0965 -1.8427,0.4262 -2.8574,0.4262 -0.1415,0 -0.2593,-0.0517 -0.2593,-0.1728 0,-0.6024 1.3032,-1.151 1.8322,-1.2782 1.5731,-0.3783 2.5132,-0.7086 4.1303,-0.7086 0.0589,0.1458 0.4542,0.3455 0.6049,0.3455 1.0615,0 0.1601,-0.9502 -0.4321,-0.9502 -0.7783,-0.004 -1.5565,-0.007 -2.3347,-0.0103 -0.662,0.0898 -1.324,0.1796 -1.9859,0.2694 -0.1979,0.0305 -0.2333,-0.0626 -0.5185,-0.0864 0,-0.1152 0,-0.2304 0,-0.3455 0.4833,-0.129 1.1491,-0.9502 2.1603,-0.9502 1.4953,0 3.4566,0.7765 3.4566,-0.9503 0,-0.2128 1.0493,-2.568 1.1764,-3.2295 0.2089,-1.0868 0.8111,-2.607 0.7985,-3.6916 0.0618,-0.0829 0.1236,-0.1658 0.1854,-0.2487 0,-1.2782 0.3212,-2.2958 0.0378,-3.5796 -0.4251,-1.9253 -1.4464,-1.9755 -1.5952,-2.3642 -0.345,-0.0344 -0.69,-0.0688 -1.035,-0.1031 -1.6393,-0.1902 -3.7914,0.4319 -5.2581,0.429 -0.0332,-0.1718 -0.0664,-0.3436 -0.0995,-0.5154 0.9152,-0.4841 1.381,-0.6047 2.7652,-0.6047 0.5001,0 3.0245,0.3946 3.0245,0.0864 0,-0.5841 -2.6247,-0.8091 -3.2837,-0.8639 0,-0.0864 0,-0.1728 0,-0.2591 0,-0.4224 1.4765,-0.432 1.8146,-0.432 0.5453,0 1.1399,0.1397 1.4695,0.3451 0.6204,0.3867 0.5756,0.3309 1.3822,0.5188 0.3102,-0.5861 1.0076,-1.3663 1.2032,-2.0798 0.2123,-0.7742 0.6144,-1.4624 0.8374,-2.4455 0.385,-1.6981 0.811,-3.8388 0.811,-5.8408 0,-0.1152 0,-0.2304 0,-0.3456 0,-1.1587 -0.221,-2.8075 -0.4353,-3.7976 -0.2417,-1.1169 -1.7265,-2.1039 -1.8114,-2.422 -0.5633,-0.0126 -1.1445,-0.6911 -1.8147,-0.6911 -0.6913,0 -1.3826,0 -2.0739,0 -0.3094,0 -1.5084,0.6613 -1.7454,0.8468 -0.3425,0.2681 -0.9265,1.1026 -1.1523,1.5259 -0.4121,0.7724 -1.0773,3.0742 -1.0773,4.1925 z m 51.5885,13.9943 c -0.144,0 -0.288,0 -0.432,0 -1.4117,0 -3.2006,1.1947 -3.9698,1.9057 -0.4022,0.3718 -2.1399,2.8043 -2.4818,3.3932 -0.2149,0.3702 -0.9319,1.4595 -1.2039,1.7334 -0.1754,0.1766 -0.8896,1.5271 -1.0894,1.848 -0.3675,0.59 -1.7975,3.4347 -1.7975,4.1637 -0.4278,0.2863 -1.7594,2.5314 -1.8147,3.1962 0.2085,0.005 2.034,0.4567 2.2993,0.5521 0.0201,0.007 0.9349,0.4321 1.0012,0.4677 0.3732,0.2006 0.6577,0.5709 0.8473,0.6215 0,0.0864 0,0.1728 0,0.2592 -1.3037,0.1084 -1.7816,-0.6047 -2.7652,-0.6047 0.1776,0.7621 1.1234,1.052 1.1234,1.6413 0,0.0863 0,0.1727 0,0.2591 -0.1441,0 -0.2881,0 -0.4321,0 -0.9855,0 -2.4851,-1.2957 -3.2837,-1.2957 -0.3269,0 -3.0103,4.0547 -3.4298,4.605 -0.5614,0.7365 -2.9811,4.2287 -3.0458,5.0601 0.3726,0.176 0.7453,0.3521 1.118,0.5282 0,0.1727 0,0.3455 0,0.5183 -0.3018,0.0703 -0.291,0.1728 -0.6049,0.1728 -0.0864,0 -0.1728,0 -0.2592,0 -1.3537,0 -1.5259,-0.8398 -1.5554,0.8638 -1.4072,0.117 -3.2549,3.6284 -3.8901,4.6633 -0.5156,0.8402 -1.4676,2.1509 -1.4676,3.4568 0,0.1152 0,0.2304 0,0.3456 0,1.3728 1.4006,2.8507 2.7653,2.8507 0.203,0.009 0.406,0.018 0.6091,0.0271 0.4882,-0.0667 0.9765,-0.1333 1.4648,-0.1999 0.1228,-0.3041 0.4277,-0.1955 0.7798,-0.4298 0.2882,-0.1917 0.4659,-0.3157 0.7437,-0.5523 0.2716,-0.2314 1.2955,-0.9658 1.3281,-1.2639 0.5126,-0.0426 1.4452,-0.9943 1.8167,-1.2937 0.0392,-0.0317 0.6333,-0.6913 0.7422,-0.813 0.1821,-0.2032 0.3791,-0.8221 0.3791,-1.1759 0,-0.1152 0,-0.2304 0,-0.3455 0,-0.3874 -0.2468,-0.4821 -0.2592,-1.0367 -0.5147,-0.1373 -0.4593,-0.9383 -0.8505,-1.2108 -0.0334,-0.3739 -0.0667,-0.7477 -0.1,-1.1215 -0.2602,-0.3885 -1.3826,-1.2723 -1.3826,-1.6413 0,-0.1991 0.0601,-0.2592 0.2592,-0.2592 0.1728,0 0.3456,0 0.5185,0 0.9775,0 1.5122,1.0019 2.2639,1.2786 0.9591,0.3531 1.691,1.5721 2.0567,1.5721 0.5086,0 1.7029,-1.1682 2.0753,-1.4671 0.677,-0.5434 1.0623,-1.3038 1.6084,-2.0204 0.4879,-0.6402 2.4516,-3.874 2.4516,-4.719 0,-0.2138 -1.186,-1.5247 -1.2097,-2.5915 1.0271,0.0854 1.2901,1.6413 1.7282,1.6413 0.1669,0 0.3457,-0.1541 0.3457,-0.2592 0,-1.1951 -1.5168,-1.9725 -1.7283,-2.7643 0.1054,-0.0592 0.0924,-0.0864 0.2593,-0.0864 0.3404,0 1.8913,1.0576 1.9875,1.2958 0.0864,0 0.1728,0 0.2592,0 0.1921,0 0.3569,0.2591 1.0369,0.2591 0.0538,-0.1483 0.4349,-0.4667 0.6173,-0.7651 0.2387,-0.3904 0.4197,-0.507 0.4197,-1.0489 0.4084,-0.6097 0.4889,-1.5396 0.7916,-2.0593 0.1391,-0.2387 0.3629,-0.7418 0.4799,-0.9025 0.2545,-0.3493 0.2221,-0.6727 0.4432,-1.0254 0.5652,-0.9018 1.2006,-3.0971 1.961,-3.741 0.5294,-0.4483 0.949,-0.0592 1.7324,-1.1189 0.3602,-0.4873 0.7914,-1.2126 1.1001,-1.751 0.3698,-0.6451 0.6829,-1.1761 0.9958,-1.8552 0.2316,-0.5028 0.5773,-1.8257 0.7716,-2.1489 0.0643,-0.4597 0.1286,-0.9193 0.1929,-1.3789 0,-0.0288 0,-0.0576 0,-0.0864 0,-1.0253 -0.3787,-2.2232 -0.884,-2.7445 -0.4952,-0.5108 -1.3027,-1.4019 -2.2269,-1.4019 -0.0864,0 -0.1728,0 -0.2592,0 0,-0.0576 0,-0.1152 0,-0.1728 -0.3169,0 -0.6338,0 -0.9506,0 0,0.0576 0,0.1152 0,0.1728 z m 0.7777,68.2435 c -0.3784,0.008 -2.5265,1.3843 -2.7744,1.6321 -0.0854,0.0853 -0.2574,0.4048 -0.4875,0.6357 -0.2074,0.2081 -0.3796,0.3356 -0.6114,0.5117 -1.8418,1.3994 -0.6933,-0.1879 -1.8299,-0.1879 -0.5322,0 -1.1355,0.9448 -1.4176,1.3472 -0.224,0.3195 -1.3577,0.9738 -1.8661,0.9852 0.0131,-0.589 0.1728,-0.2696 0.1728,-0.6047 0,-0.0576 0,-0.1152 0,-0.1728 0,-0.1669 -0.1541,-0.3455 -0.2592,-0.3455 -1.1895,0 -1.9026,2.5082 -2.4974,2.3609 -1.2371,-0.1834 -2.4741,-0.3668 -3.7111,-0.5502 -0.004,0.0299 -0.009,0.0598 -0.0133,0.0897 -0.0607,-0.0284 -0.1214,-0.0568 -0.182,-0.0852 -1.466,0.1723 -2.9319,0.3447 -4.3978,0.5171 -1.0131,0.6782 -2.7653,2.5411 -2.7653,4.1465 -0.304,0.4538 -0.3456,0.983 -0.3456,1.7277 0,0.6722 0.2592,1.0877 0.2592,1.814 0.5081,0.3401 0.0666,0.5555 0.5337,0.7623 0.2225,0.0984 0.7542,0.3812 0.9378,0.3828 0.3448,-0.0362 0.6896,-0.0724 1.0345,-0.1085 1.1053,-0.7399 2.4361,-1.2112 4.0269,-1.503 0.7562,-0.1387 1.7099,-0.2718 2.386,-0.3791 0.4903,-0.0777 2.1306,-0.4502 2.3148,-0.4502 0.1726,0 0.4917,0.0855 0.5471,-0.0929 1.4491,-0.5477 1.1215,-0.5666 1.9244,-1.7557 0.3169,-0.4693 0.3069,-1.0465 0.8122,-1.0885 0.0452,0.1937 0.0864,0.1986 0.0864,0.4319 -0.004,0.0281 -0.009,0.0563 -0.0128,0.0845 -0.1398,1.1236 -0.2795,2.2472 -0.4192,3.3709 -0.0402,0.2725 0.0616,0.3077 0.0926,0.5886 0.0843,0.0341 0.1686,0.0683 0.253,0.1025 0.5774,-0.1345 1.2361,-0.4756 2.0732,-0.4179 1.8725,0.0817 3.745,0.1634 5.6176,0.2451 1.0491,0 1.8214,0.1728 3.0244,0.1728 1.1341,0 2.652,-0.6911 3.7262,-0.6786 0.0829,-0.0618 0.1658,-0.1236 0.2488,-0.1853 1.175,0 3.7016,-1.4693 4.4226,-2.0577 1.1157,-0.9103 2.2312,-2.3455 2.2312,-4.3347 0,-2.623 -1.2734,-4.3948 -2.9225,-5.3714 -1.0369,-0.614 -1.3957,-1.0189 -2.7764,-1.3709 -1.0575,-0.2696 -2.0188,-0.7731 -3.4609,-0.7731 -0.4044,-0.007 -0.8088,-0.0149 -1.2131,-0.0223 -0.9207,0.2089 -1.8413,0.4179 -2.7619,0.6269 z M 65.2887,112.5042 v 1.6413 c 0,1.6562 1.2463,1.9004 2.5924,1.9004 0.5771,0 1.7283,-0.3289 1.7283,0.3455 -0.2749,0.3944 -0.0966,0.2904 -0.8272,0.4689 -0.589,0.1439 -1.0769,0.2222 -1.6788,0.2222 -0.1985,0 -0.9505,-0.4791 -0.9505,0 0,0.5243 0.1305,1.3822 0.6913,1.3822 0.3467,0 1.0069,-0.6911 1.2962,-0.6911 0.3077,0 0.3456,0.0739 0.3456,0.3455 0,0.3711 -0.4356,0.4135 -0.7279,0.5681 -1.3146,0.6954 -1.1371,3.3622 -1.346,4.7014 v 1.123 c 0,1.5354 0.5088,3.7263 1.1052,4.6829 0.6506,1.0432 1.3711,2.9189 2.9562,2.9189 0.8609,0 1.5445,-0.4319 1.9011,-0.4319 1.7937,0 0.0732,1.123 -0.6049,1.123 -0.5515,0 -1.5554,0.5849 -1.5554,1.2093 0,0.7243 0.9227,6.5731 1.1096,7.0109 0.1033,0.2419 0.3897,1.2609 0.4503,1.5367 0.1486,0.6761 0.2941,0.9708 0.5333,1.5402 0.2058,0.4899 0.3683,0.8299 0.9011,1.0859 0.4972,0.2389 0.8879,0.4882 1.5856,0.4882 h 0.3456 c 0.5773,0 2.058,-1.1164 2.2644,-1.5372 0.3955,-0.8063 0.7614,-1.9582 0.7622,-3.1254 9e-4,-1.3507 0.1398,-2.5202 0.0041,-3.7229 -0.0745,-0.66 -0.0672,-1.0873 -0.1962,-1.7043 -0.2688,-1.2852 -0.5783,-2.3366 -0.847,-3.6453 h -0.1728 c 0,-0.8924 -0.4844,-1.3266 -0.7657,-1.8261 -0.4459,-0.7919 0.0744,-1.4489 0.0744,-2.1476 0,-0.7471 -0.2403,-2.5983 -0.3834,-3.3313 -0.2189,-1.122 -0.4893,-1.9121 -0.7933,-2.9214 -0.28,-0.9295 -0.6867,-1.7791 -1.0349,-2.68 -0.1862,-0.4819 -0.3581,-0.8947 -0.5297,-1.2845 -0.2513,-0.5711 -0.1058,-0.9799 -0.2312,-1.6693 -0.1975,-1.0851 -0.0631,-2.561 -0.1391,-3.5756 -0.095,-1.2692 -0.1684,-2.3992 -0.2562,-3.4583 -0.1601,-1.9299 -1.7398,-3.7122 -3.8045,-3.7122 -3.0103,0 -3.8022,4.0857 -3.8022,7.1699 z m 40.787,62.4558 v 0.0864 c 0,0.3352 0.1597,0.0157 0.1728,0.6047 0.4213,0.1124 0.5302,0.601 1.3168,0.8432 0.5891,0.1814 1.3432,0.0534 2.054,0.1063 1.4276,0.1063 2.0887,0.8645 3.5422,0.8645 h 2.4196 c 0.4233,0 0.6429,-0.1201 0.8452,-0.3644 0.0695,-0.084 0.3646,-0.7772 0.3646,-0.8449 v -0.3456 c 0,-0.3001 -0.1728,-0.1318 -0.1728,-0.4319 v -0.2591 c -0.3484,-0.0812 -0.4029,-0.2592 -0.6049,-0.2592 -0.6184,0 -1.1614,0.3455 -1.2962,0.3455 h -0.6913 c -0.9746,0 -1.6949,-0.6774 -2.4213,-0.622 l -1.2214,0.089 -0.3323,0.2739 c -0.5936,0 -0.666,0.1728 -1.037,0.1728 -0.3929,0 -1.5425,-0.3587 -1.6418,-0.6047 h -0.9506 c -0.2023,0 -0.3456,0.1433 -0.3456,0.3455 z m -3.8886,-8.4657 0.001,0.2488 0.7762,0.0968 h 0.3457 c 1.4647,0 1.7932,-1.278 2.6027,-1.2942 l -0.0968,0.7759 -0.0221,0.3474 0.1085,1.3803 c 0.3401,0.5075 0.9879,2.4187 1.6419,2.4187 h 0.2592 c 0.1991,0 0.2593,-0.0601 0.2593,-0.2591 v -0.2592 c 0,-1.5836 -2.2171,-2.9467 -1.3826,-4.5784 0,-1.4491 0.8406,-2.1442 0.8641,-3.1962 -0.0882,0.0646 -0.8217,1.183 -1.0129,1.4063 -0.3878,0.4529 -0.7889,0.811 -1.2283,1.1908 -0.6407,0.5536 -2.0108,1.6975 -3.1164,1.7221 z m -10.1967,-3.8873 0.2663,1.9831 0.425,0.8676 c 0.2703,0.0225 0.3069,0.0864 0.6048,0.0864 0.3529,0 0.5185,-0.5743 0.5185,-0.9502 v -1.123 c 0,-0.3367 -0.4259,-0.8704 -0.4354,-1.638 -0.0088,-0.7171 0.0561,-1.393 -0.0831,-1.9902 -0.7377,0.0614 -1.4316,1.8472 -1.2961,2.7643 z m -9.7647,-3.3689 -0.0199,1.3842 0.1063,1.1209 c 0.449,0.3006 0.0936,0.3292 0.7777,0.6911 0.517,-0.1204 0.6913,-0.2301 0.6913,-0.8639 v -0.6047 c 0,-0.4143 -0.2951,-1.2326 -0.3289,-1.6594 -0.0346,-0.4366 0.2425,-1.0468 0.2425,-1.7095 0.4649,-0.1876 0.0403,-0.915 -0.8464,0.1041 -0.1868,0.2146 -0.6226,1.1397 -0.6226,1.5372 z"
         id="path10-6"
         style="fill:#f2f2f2;fill-opacity:1" />
    </g>
  </g>
</svg>
