<svg height="48" width="48" xmlns="http://www.w3.org/2000/svg"><path d="m44.322082 27.405077a19.729762 19.729765 0 0 1 -19.729762 19.729765 19.729762 19.729765 0 0 1 -19.7297621-19.729765 19.729762 19.729765 0 0 1 19.7297621-19.7297632 19.729762 19.729765 0 0 1 19.729762 19.7297632z" fill="#5995b6" opacity=".99" transform="matrix(1.1503549 0 0 1.1503549 -4.486125 -7.525565)"/><g transform="matrix(.06878486 0 0 .06878486 7.40503 8.291427)"><path d="m153.85216 446.48632c-17.42227-1.11702-39.79672-4.80261-59.543975-9.80828-23.462085-5.94733-56.845017-19.71203-63.945843-26.36664l-2.992853-2.80478 18.557045-1.11715c10.206374-.61444 21.042295-1.43767 24.079823-1.82941 34.702303-4.47541 60.947673-14.24913 83.765893-31.19424 9.33873-6.93507 10.90034-10.09262 5.414-10.94704-1.82919-.28488-6.48885-1.01622-10.35479-1.62523-25.26928-3.98066-51.788707-19.65747-65.243288-38.56822-4.878962-6.8575-11.27471-19.28087-10.384439-20.17114.321306-.32131 3.649582-.0504 7.396185.60207 8.219027 1.43128 18.894044.7159 27.061742-1.81352 8.77856-2.71859 8.31527-4.75212-2.00828-8.81515-37.892314-14.91322-57.808213-40.84822-62.26392-81.08164-.35169-3.1756-.352283-5.77382-.001-5.77382.350948 0 6.113785 1.86349 12.806307 4.14109 9.319155 3.17149 13.82286 4.1707 19.235162 4.2676 9.923638.17766 9.9119-1.29823-.09328-11.72833-27.914869-29.10048-36.308286-60.60763-25.807046-96.87438 1.394331-4.81542 3.423992-10.766996 4.510362-13.225718l1.975227-4.470402 12.267485 12.103869c29.70442 29.308241 56.160243 48.822371 85.569803 63.117301 30.22893 14.6932 60.14861 22.59161 86.85823 22.92945l12.55177.15877-.20958-3.01243c-.11528-1.65683-.51595-7.34688-.8904-12.64455-1.70343-24.09987 7.24902-51.01331 23.63471-71.052148 9.23075-11.288742 29.42397-23.070155 47.77875-27.875769 19.65772-5.146748 46.3669-3.000854 63.48248 5.100368 9.55194 4.521175 15.10993 8.425733 23.95923 16.83171l7.28961 6.924406 7.34825-2.16034c17.90955-5.265307 33.21477-11.742188 44.33335-18.761033l3.97995-2.512436-.60838 3.748986c-.33461 2.061943-2.50928 7.586276-4.8326 12.276297-4.21612 8.510929-7.86105 12.814549-22.25002 26.270859-3.19256 2.98562-5.64302 5.92191-5.44545 6.52507 1.10434 3.3716 17.15828.65107 34.6668-5.8747 6.45054-2.40423 11.89572-4.21232 12.10041-4.01796.7709.73199-9.12601 13.56546-16.53532 21.44159-4.23509 4.50194-12.61083 12.50323-18.61273 17.78065l-10.91255 9.59529-.02 11.71221c-.11816 69.33204-29.59628 140.2356-79.72215 191.75523-33.10869 34.02929-70.5866 56.72483-114.65736 69.43317-26.58983 7.6675-63.07196 11.34769-93.28704 9.41047z" fill="#fff" fill-opacity=".514286"/><path d="m149.60627 446.15535c-1.65-.22475-7.94615-.55158-13.17115-1.13642-21.60659-2.41847-51.509295-9.98014-71.520617-17.65709-7.980149-3.06143-18.534364-7.33279-26.229106-11.4772-10.324166-5.56063-15.922672-10.43239-7.273619-7.45668 15.488004 5.32865 49.406682 13.31772 69.717702 16.18295 18.92949 2.67034 58.69876 2.43487 77.38764-.4582 58.85243-9.11047 104.78009-32.33749 146.56498-74.12238 21.96482-21.96481 37.82103-43.66632 51.69328-70.74968 16.97589-33.14273 25.88296-64.5274 29.32122-103.3153 3.46419-39.08037-7.22277-79.480691-26.38258-99.735044-1.6831-1.77926-4.14895-3.488564-3.78047-3.857044 1.09005-1.090052 14.99871 4.645311 22.56522 9.734553 3.86009 2.596299 9.70426 7.451362 12.98705 10.789028 3.83415 3.898257 6.78251 6.068483 8.24433 6.068483 6.71023 0 39.32681-12.697879 50.98391-20.4503l3.15161-2.095943-.35306 2.64297c-1.90667 14.272981-9.2938 22.936237-22.21396 34.876367-5.86207 5.41742-10.83644 10.54976-10.46656 11.18261 1.10261 1.88654 2.79641 1.94422 10.91363.80967 7.17182-1.00241 21.45374-5.43743 30.67494-9.33969 2.14695-.90855 5.12493-1.38932 5.32869-1.18555.20377.20377-1.92641 3.48687-4.49936 7.00283-6.03662 8.24908-18.71618 23.38999-31.85966 33.04593l-9.89382 8.72336-.14381 12.83841c-.62379 55.68411-19.51323 114.31527-54.95054 161.70439-43.38505 58.01736-102.70945 95.2584-172.78021 105.30931-9.93696 1.42535-57.01584 3.07913-64.01568 2.12566z" fill="#3c81ef"/><path d="m154.03029 446.44378c-17.42227-1.11702-39.79672-4.80261-59.543977-9.80828-23.46208-5.94733-56.84501-19.71203-63.94584-26.36664l-2.99285-2.80478 18.55704-1.11715c10.20638-.61444 21.0423-1.43767 24.07982-1.82941 97.467927-12.34977 185.550967-140.61866 183.046527-221.98111-.11528-1.65683-.51595-7.34688-.8904-12.64455-1.70343-24.09987 7.24902-51.01331 23.63471-71.052144 9.23075-11.288742 29.42397-23.070155 47.77875-27.875769 19.65772-5.146748 46.3669-3.000854 63.48248 5.100368 9.55194 4.521175 15.10993 8.425733 23.95923 16.83171l7.28961 6.924406 7.34825-2.16034c17.1111-5.030557 31.65376-10.756748 44.33335-18.761033l3.97995-2.512436-.60838 3.748986c-.33461 2.061943-1.76352 7.586276-4.08684 12.276297-4.21612 8.510925-8.60681 12.814545-22.99578 26.270855-3.19256 2.98562-5.64302 5.92191-5.44545 6.52507 1.10434 3.3716 17.15828.65107 34.6668-5.8747 6.45054-2.40423 11.89572-4.21232 12.10041-4.01796.7709.73199-9.12601 13.56546-16.53532 21.44159-4.23509 4.50194-12.61083 12.50323-18.61273 17.78065l-10.91255 9.59529-.02 11.71221c-.11816 69.33204-29.59628 140.2356-79.72215 191.75523-33.10869 34.02929-70.5866 56.72483-114.65736 69.43317-26.58983 7.6675-63.07196 11.34769-93.28704 9.41047z" fill="#fff"/></g></svg>