<?xml version="1.0" encoding="UTF-8" standalone="no"?>
<svg
   xmlns:dc="http://purl.org/dc/elements/1.1/"
   xmlns:cc="http://creativecommons.org/ns#"
   xmlns:rdf="http://www.w3.org/1999/02/22-rdf-syntax-ns#"
   xmlns:svg="http://www.w3.org/2000/svg"
   xmlns="http://www.w3.org/2000/svg"
   xmlns:sodipodi="http://sodipodi.sourceforge.net/DTD/sodipodi-0.dtd"
   xmlns:inkscape="http://www.inkscape.org/namespaces/inkscape"
   height="48"
   width="48"
   version="1.1"
   id="svg24"
   sodipodi:docname="ubuntu.svg"
   inkscape:version="0.92.4 5da689c313, 2019-01-14">
  <metadata
     id="metadata30">
    <rdf:RDF>
      <cc:Work
         rdf:about="">
        <dc:format>image/svg+xml</dc:format>
        <dc:type
           rdf:resource="http://purl.org/dc/dcmitype/StillImage" />
        <dc:title></dc:title>
      </cc:Work>
    </rdf:RDF>
  </metadata>
  <defs
     id="defs28">
    <filter
       filterUnits="objectBoundingBox"
       color-interpolation-filters="sRGB"
       y="-200%"
       x="-200%"
       height="400%"
       width="400%"
       id="CUXOqXYxAz1upxKXOfcFWw6SUkcHsA6M">
      <feGaussianBlur
         id="feGaussianBlur842"
         stdDeviation="4.294"
         in="SourceGraphic" />
      <feOffset
         id="feOffset844"
         result="pf_100_offsetBlur"
         dy="4"
         dx="0" />
      <feFlood
         id="feFlood846"
         flood-opacity=".4" />
      <feComposite
         id="feComposite848"
         result="pf_100_dropShadow"
         operator="in"
         in2="pf_100_offsetBlur" />
      <feBlend
         id="feBlend850"
         mode="normal"
         in2="pf_100_dropShadow"
         in="SourceGraphic" />
    </filter>
    <filter
       filterUnits="objectBoundingBox"
       color-interpolation-filters="sRGB"
       y="-200%"
       x="-200%"
       height="400%"
       width="400%"
       id="xQLwWnSc4ktkOevubHIuszw8GKokWMOB">
      <feGaussianBlur
         id="feGaussianBlur820"
         stdDeviation="4.294"
         in="SourceGraphic" />
      <feOffset
         id="feOffset822"
         result="pf_100_offsetBlur"
         dy="4"
         dx="0" />
      <feFlood
         id="feFlood824"
         flood-opacity=".4" />
      <feComposite
         id="feComposite826"
         result="pf_100_dropShadow"
         operator="in"
         in2="pf_100_offsetBlur" />
      <feBlend
         id="feBlend828"
         mode="normal"
         in2="pf_100_dropShadow"
         in="SourceGraphic" />
    </filter>
    <filter
       filterUnits="objectBoundingBox"
       color-interpolation-filters="sRGB"
       y="-200%"
       x="-200%"
       height="400%"
       width="400%"
       id="rfiM2UKhDFqEmewc6CcgvSlIEpvfKKxO">
      <feGaussianBlur
         id="feGaussianBlur855"
         stdDeviation="4.294" />
    </filter>
    <filter
       filterUnits="objectBoundingBox"
       color-interpolation-filters="sRGB"
       y="-200%"
       x="-200%"
       height="400%"
       width="400%"
       id="JFkuPJKJm7rgOlRFPGs5rUpwdxfkSEUd">
      <feGaussianBlur
         id="feGaussianBlur1145"
         stdDeviation="4.294"
         in="SourceGraphic" />
      <feOffset
         id="feOffset1147"
         result="pf_100_offsetBlur"
         dy="4"
         dx="0" />
      <feFlood
         id="feFlood1149"
         flood-opacity=".4" />
      <feComposite
         id="feComposite1151"
         result="pf_100_dropShadow"
         operator="in"
         in2="pf_100_offsetBlur" />
      <feBlend
         id="feBlend1153"
         mode="normal"
         in2="pf_100_dropShadow"
         in="SourceGraphic" />
    </filter>
    <filter
       filterUnits="objectBoundingBox"
       color-interpolation-filters="sRGB"
       y="-200%"
       x="-200%"
       height="400%"
       width="400%"
       id="FQ2oZsLCWXJxOyQOTG0CyO2GWAfFnqoR">
      <feGaussianBlur
         id="feGaussianBlur1367"
         stdDeviation="4.294"
         in="SourceGraphic" />
      <feOffset
         id="feOffset1369"
         result="pf_100_offsetBlur"
         dy="4"
         dx="0" />
      <feFlood
         id="feFlood1371"
         flood-opacity=".4" />
      <feComposite
         id="feComposite1373"
         result="pf_100_dropShadow"
         operator="in"
         in2="pf_100_offsetBlur" />
      <feBlend
         id="feBlend1375"
         mode="normal"
         in2="pf_100_dropShadow"
         in="SourceGraphic" />
    </filter>
    <filter
       filterUnits="objectBoundingBox"
       color-interpolation-filters="sRGB"
       y="-200%"
       x="-200%"
       height="400%"
       width="400%"
       id="4qeLAbS979MaUd9pa29v2OQxd8o6LU2a">
      <feGaussianBlur
         id="feGaussianBlur1471"
         stdDeviation="4.294"
         in="SourceGraphic" />
      <feOffset
         id="feOffset1473"
         result="pf_100_offsetBlur"
         dy="4"
         dx="0" />
      <feFlood
         id="feFlood1475"
         flood-opacity=".4" />
      <feComposite
         id="feComposite1477"
         result="pf_100_dropShadow"
         operator="in"
         in2="pf_100_offsetBlur" />
      <feBlend
         id="feBlend1479"
         mode="normal"
         in2="pf_100_dropShadow"
         in="SourceGraphic" />
    </filter>
    <filter
       filterUnits="objectBoundingBox"
       color-interpolation-filters="sRGB"
       y="-200%"
       x="-200%"
       height="400%"
       width="400%"
       id="pKCSE4Vb7WjpDuaY5QNTgWgVEiSyvNA9">
      <feGaussianBlur
         id="feGaussianBlur1506"
         stdDeviation="4.294" />
    </filter>
  </defs>
  <sodipodi:namedview
     pagecolor="#ffffff"
     bordercolor="#666666"
     borderopacity="1"
     objecttolerance="10"
     gridtolerance="10"
     guidetolerance="10"
     inkscape:pageopacity="0"
     inkscape:pageshadow="2"
     inkscape:window-width="1920"
     inkscape:window-height="1023"
     id="namedview26"
     showgrid="true"
     inkscape:zoom="9.8333332"
     inkscape:cx="19.367577"
     inkscape:cy="3.2526599"
     inkscape:window-x="0"
     inkscape:window-y="31"
     inkscape:window-maximized="1"
     inkscape:current-layer="svg24">
    <inkscape:grid
       type="xygrid"
       id="grid840" />
  </sodipodi:namedview>
  <path
     d="m44.322082 27.405077a19.729762 19.729765 0 0 1 -19.729762 19.729765 19.729762 19.729765 0 0 1 -19.7297621-19.729765 19.729762 19.729765 0 0 1 19.7297621-19.7297632 19.729762 19.729765 0 0 1 19.729762 19.7297632z"
     fill="#299595"
     opacity=".99"
     transform="matrix(1.1503549 0 0 1.1503549 -4.486125 -7.525565)"
     id="path2"
     style="fill:#c29f7a;fill-opacity:1" />
  <path
     style="fill:#ffffff;stroke-width:0.980434"
     inkscape:connector-curvature="0"
     d="m 31.012366,9.4138675 c -0.133408,-0.00835 -0.264913,-0.00716 -0.394468,0.0019 -0.863723,0.06098 -1.663601,0.539484 -2.129405,1.3461365 -0.742601,1.289272 -0.298082,2.927479 0.993866,3.672805 1.289271,0.742581 2.930224,0.310945 3.672805,-0.982395 0.745218,-1.285251 0.318435,-2.953852 -0.970856,-3.6977085 -0.363348,-0.208968 -0.771709,-0.315786 -1.171913,-0.340846 z m -7.075598,2.8570845 c -1.863806,0 -3.60692,0.440244 -5.170223,1.215935 l 1.872826,3.381714 c 1.008671,-0.471001 2.11411,-0.748729 3.297495,-0.748729 4.119392,0 7.519343,3.152195 7.874064,7.182858 l 3.824086,-0.04787 c -0.190636,-2.970422 -1.49026,-5.6424 -3.48515,-7.604151 -1.027201,0.385311 -2.19382,0.326249 -3.217001,-0.26809 -1.023182,-0.591692 -1.670464,-1.580656 -1.847923,-2.667468 -0.998082,-0.274031 -2.06401,-0.444254 -3.148076,-0.444254 z m -6.491554,1.976163 c -2.361474,1.576539 -4.100569,3.996054 -4.831286,6.820882 0.855115,0.694932 1.369176,1.733996 1.369176,2.924047 0,1.182012 -0.512728,2.259705 -1.369176,2.958559 0.730708,2.823454 2.469812,5.232872 4.831286,6.80941 l 1.975575,-3.322692 c -2.026558,-1.424277 -3.34534,-3.779672 -3.34534,-6.445571 1e-6,-2.668644 1.318782,-5.021196 3.34534,-6.445571 z m -7.242174,7.054519 c -1.4918292,0 -2.6904104,1.198581 -2.6904104,2.69041 0,1.486535 1.1985812,2.69041 2.6904104,2.69041 1.493103,0 2.703842,-1.203875 2.703842,-2.69041 0,-1.491829 -1.210739,-2.69041 -2.703842,-2.69041 z m 21.607792,3.404755 c -0.354751,4.024094 -3.754672,7.182857 -7.874064,7.182857 -1.184757,0 -2.288824,-0.265942 -3.297495,-0.737237 l -1.872826,3.356811 c 1.563303,0.778367 3.306515,1.204463 5.170223,1.204463 1.084164,0 2.149994,-0.144702 3.148076,-0.421282 0.17738,-1.085439 0.823349,-2.071266 1.847923,-2.665605 1.025926,-0.591594 2.189898,-0.649018 3.217001,-0.258511 1.994889,-1.964399 3.294357,-4.631082 3.48515,-7.604151 z M 30.62931,33.21048 c -0.390369,0.03324 -0.784406,0.163105 -1.14701,0.373408 -1.29182,0.740032 -1.736447,2.37471 -0.993866,3.661334 0.745277,1.293291 2.405201,1.726839 3.695747,0.984258 1.29084,-0.743954 1.716054,-2.385397 0.970855,-3.674668 -0.465784,-0.806603 -1.277015,-1.283487 -2.140876,-1.344273 -0.129711,-0.01078 -0.254893,-0.01078 -0.384899,0 z"
     id="path1666" />
  <path
     id="path1664"
     d="m 31.012366,9.4138675 c -0.133408,-0.00835 -0.264913,-0.00716 -0.394468,0.0019 -0.863723,0.06098 -1.663601,0.539484 -2.129405,1.3461365 -0.742601,1.289272 -0.298082,2.927479 0.993866,3.672805 1.289271,0.742581 2.930224,0.310945 3.672805,-0.982395 0.745218,-1.285251 0.318435,-2.953852 -0.970856,-3.6977085 -0.363348,-0.208968 -0.771709,-0.315786 -1.171913,-0.340846 z m -7.075598,2.8570845 c -1.863806,0 -3.60692,0.440244 -5.170223,1.215935 l 1.872826,3.381714 c 1.008671,-0.471001 2.11411,-0.748729 3.297495,-0.748729 4.119392,0 7.519343,3.152195 7.874064,7.182858 l 3.824086,-0.04787 c -0.190636,-2.970422 -1.49026,-5.6424 -3.48515,-7.604151 -1.027201,0.385311 -2.19382,0.326249 -3.217001,-0.26809 -1.023182,-0.591692 -1.670464,-1.580656 -1.847923,-2.667468 -0.998082,-0.274031 -2.06401,-0.444254 -3.148076,-0.444254 z m -6.491554,1.976163 c -2.361474,1.576539 -4.100569,3.996054 -4.831286,6.820882 0.855115,0.694932 1.369176,1.733996 1.369176,2.924047 0,1.182012 -0.512728,2.259705 -1.369176,2.958559 0.730708,2.823454 2.469812,5.232872 4.831286,6.80941 l 1.975575,-3.322692 c -2.026558,-1.424277 -3.34534,-3.779672 -3.34534,-6.445571 1e-6,-2.668644 1.318782,-5.021196 3.34534,-6.445571 z m -7.242174,7.054519 c -1.491829,0 -2.6904102,1.198581 -2.6904102,2.69041 0,1.486535 1.1985812,2.69041 2.6904102,2.69041 1.493103,0 2.703842,-1.203875 2.703842,-2.69041 0,-1.491829 -1.210739,-2.69041 -2.703842,-2.69041 z m 21.607792,3.404755 c -0.354751,4.024094 -3.754672,7.182857 -7.874064,7.182857 -1.184757,0 -2.288824,-0.265942 -3.297495,-0.737237 l -1.872826,3.356811 c 1.563303,0.778367 3.306515,1.204463 5.170223,1.204463 1.084164,0 2.149994,-0.144702 3.148076,-0.421282 0.17738,-1.085439 0.823349,-2.071266 1.847923,-2.665605 1.025926,-0.591594 2.189898,-0.649018 3.217001,-0.258511 1.994889,-1.964399 3.294357,-4.631082 3.48515,-7.604151 z M 30.62931,33.21048 c -0.390369,0.03324 -0.784406,0.163105 -1.14701,0.373408 -1.29182,0.740032 -1.736447,2.37471 -0.993866,3.661334 0.745277,1.293291 2.405201,1.726839 3.695747,0.984258 1.29084,-0.743954 1.716054,-2.385397 0.970855,-3.674668 -0.465784,-0.806603 -1.277015,-1.283487 -2.140876,-1.344273 -0.129711,-0.01078 -0.254893,-0.01078 -0.384899,0 z"
     inkscape:connector-curvature="0"
     style="fill:#ffffff;stroke-width:0.980434" />
</svg>
