<svg height="48" width="48" xmlns="http://www.w3.org/2000/svg"><rect fill="#b0663f" height="34" ry="1.717172" transform="rotate(-90)" width="34" x="-41.009861" y="7"/><rect fill="#ce7f56" height="34" ry="1.717172" transform="matrix(.70710678 -.70710678 .70710678 .70710678 0 0)" width="34" x="-17.006973" y="16.948099"/><path d="m31.001436 9.511138c-.133408-.00835-.264913-.00716-.394468.0019-.863723.06098-1.663601.539484-2.129405 1.346136-.742601 1.289272-.298082 2.927479.993866 3.672805 1.289271.742581 2.930224.310945 3.672805-.982395.745218-1.285251.318435-2.953852-.970856-3.697708-.363348-.208968-.771709-.315786-1.171913-.340846zm-7.075598 2.857084c-1.863806 0-3.60692.440244-5.170223 1.215935l1.872826 3.381714c1.008671-.471001 2.11411-.748729 3.297495-.748729 4.119392 0 7.519343 3.152195 7.874064 7.182858l3.824086-.04787c-.190636-2.970422-1.49026-5.6424-3.48515-7.604151-1.027201.385311-2.19382.326249-3.217001-.26809-1.023182-.591692-1.670464-1.580656-1.847923-2.667468-.998082-.274031-2.06401-.444254-3.148076-.444254zm-6.491554 1.976163c-2.361474 1.576539-4.100569 3.996054-4.831286 6.820882.855115.694932 1.369176 1.733996 1.369176 2.924047 0 1.182012-.512728 2.259705-1.369176 2.958559.730708 2.823454 2.469812 5.232872 4.831286 6.80941l1.975575-3.322692c-2.026558-1.424277-3.34534-3.779672-3.34534-6.445571.000001-2.668644 1.318782-5.021196 3.34534-6.445571zm-7.242174 7.054519c-1.491829 0-2.69041 1.198581-2.69041 2.69041 0 1.486535 1.198581 2.69041 2.69041 2.69041 1.493103 0 2.703842-1.203875 2.703842-2.69041 0-1.491829-1.210739-2.69041-2.703842-2.69041zm21.607792 3.404755c-.354751 4.024094-3.754672 7.182857-7.874064 7.182857-1.184757 0-2.288824-.265942-3.297495-.737237l-1.872826 3.356811c1.563303.778367 3.306515 1.204463 5.170223 1.204463 1.084164 0 2.149994-.144702 3.148076-.421282.17738-1.085439.823349-2.071266 1.847923-2.665605 1.025926-.591594 2.189898-.649018 3.217001-.258511 1.994889-1.964399 3.294357-4.631082 3.48515-7.604151zm-1.181522 8.504091c-.390369.03324-.784406.163105-1.14701.373408-1.29182.740032-1.736447 2.37471-.993866 3.661334.745277 1.293291 2.405201 1.726839 3.695747.984258 1.29084-.743954 1.716054-2.385397.970855-3.674668-.465784-.806603-1.277015-1.283487-2.140876-1.344273-.129711-.01078-.254893-.01078-.384899 0z" fill="#fff" stroke-width=".980434"/></svg>