<svg height="48" width="48" xmlns="http://www.w3.org/2000/svg" xmlns:xlink="http://www.w3.org/1999/xlink"><clipPath id="a"><rect height="444.87802" ry="63.543999" width="449.48022" x="33.749367" y="33.372604"/></clipPath><path d="m44.322082 27.405077a19.729762 19.729765 0 0 1 -19.729762 19.729765 19.729762 19.729765 0 0 1 -19.7297621-19.729765 19.729762 19.729765 0 0 1 19.7297621-19.7297632 19.729762 19.729765 0 0 1 19.729762 19.7297632z" fill="#30a498" opacity=".99" transform="matrix(1.1503549 0 0 1.1503549 -4.486125 -7.525565)"/><path clip-path="url(#a)" d="m217.63285 406.05857c-17.03973-2.12642-21.18816-4.3758-37.9962-20.6026-20.17274-19.47513-26.45598-22.41572-47.8963-22.41572-28.14484 0-42.668907-10.50354-47.142473-34.09256-1.466124-7.73085-2.665678-38.79466-2.665678-69.03069v-54.9746h26.349631 26.34965v52.69928 52.69928h11.49423 11.49422l1.30848-71.80277c1.43723-78.86803 2.07575-82.40459 18.19162-100.75977 16.19361-18.44372 23.7628-20.18665 98.30888-22.63727 36.326-1.19417 85.17521-2.22776 108.55376-2.29686l42.50655-.12564 1.88394 22.61667c1.03617 12.43918 1.06026 31.92185.0534 43.29484l-1.83043 20.67814-16.43504 1.76005c-20.33824 2.17803-68.81657.68151-71.70404-2.21352-1.17125-1.17431-2.58778-14.51383-3.14783-29.64334l-1.01826-27.50824h-44.44785-44.44784l-.70642 62.58041-.70644 62.58039-20.42683 1.31749-20.42681 1.31748 41.10665 51.38181c22.60865 28.25998 42.42176 51.38179 44.02914 51.38179s22.33471-23.12181 46.06075-51.38179l43.13824-51.38181-18.76241-.77639c-17.54223-.72591-18.93451-1.22896-21.40819-7.73527-1.45517-3.82736-2.29498-12.96385-1.86627-20.3033l.77948-13.34447 47.07959-.7208 47.07961-.7208-1.81736 56.05505c-2.24625 69.28353-4.32669 84.05841-13.53649 96.13306-9.34456 12.25138-27.56202 23.50653-43.62228 26.95084-12.0148 2.5767-134.75952 3.39228-153.75647 1.02163z" fill="#fff" transform="matrix(.07120899 0 0 .07120899 5.563675 5.479094)"/></svg>