<svg height="48" width="48" xmlns="http://www.w3.org/2000/svg"><circle cx="23.940615" cy="31.534513" fill="#369b8f" opacity=".99" r="13.232998" transform="matrix(1.75830584759 0 0 1.75830608345 -18.15909274367 -30.97874795549)"/><path d="m23.477665 8.7982051-2.084648 4.5939519h1.643454v17.465845c-.558268-.863366-1.3509-1.582586-2.101192-2.222524-.626945-.534729-1.235231-1.019975-1.665516-1.466977-.430285-.447003-.654036-.839353-.656277-1.16917-.0059-.878605.0145-1.434924.02759-2.222524 1.209249-.102785 2.161859-1.113521 2.161859-2.349369 0-1.304115-1.056283-2.360398-2.360398-2.360398s-2.365916 1.056283-2.365916 2.360398c0 1.128981.794111 2.072081 1.853028 2.30525-.01294.802781-.03927 1.362645-.03306 2.272159.0044.627435.378492 1.159439.860333 1.66.48184.500559 1.09977.991743 1.715148 1.516609 1.212275 1.033968 2.377764 2.186616 2.564447 3.639867v2.283189c-1.238899.190827-2.18943 1.255587-2.18943 2.547907 0 1.427184 1.159321 2.581004 2.586508 2.581004 1.427188 0 2.580999-1.15382 2.580999-2.581004 0-1.318458-.985462-2.400838-2.261132-2.558936v-2.28319h.0052c-.0015-.0132-.0037-.02546-.0052-.0386v-3.430298h.01102c0-1.491973.785436-2.374387 1.869565-3.248305 1.084136-.87392 2.455663-1.677431 3.397216-2.956014l.0052-.0055.0052-.0055c.107268-.161601.113976-.282537.137872-.441196.02389-.158658.03853-.342168.04962-.551495.02226-.41865.02167-.925517.01657-1.428371-.0052-.502855-.01531-.999487-.02759-1.384253-.0059-.177367-.0074-.202112-.01102-.325381h1.786843v-3.910062h-3.904587v3.9101h1.4008c.0037.118843.0052.165129.01102.347441.0122.381971.02803.872982.03306 1.367707.0052.494725-.0015.993095-.02204 1.384253-.01035.195578-.02588.364502-.04408.485316-.01316.08736-.03949.153623-.03861.159933-.827621 1.107574-2.110814 1.883585-3.242792 2.79608-.539698.435053-1.0486.916211-1.433889 1.489036v-13.633054h1.709639l-1.985382-4.5939529z" fill="#fcffff" fill-opacity=".719858"/><g fill="none" stroke="#fff" stroke-opacity=".968085" stroke-width="3"><path d="m28.714286 32.571429h9.702901"/><path d="m33.565736 37.42288v-9.702901"/></g></svg>