<svg height="48" width="48" xmlns="http://www.w3.org/2000/svg"><rect fill="#af6162" height="34" ry="1.717172" transform="rotate(-90)" width="34" x="-41.009861" y="7"/><rect fill="#dfad66" height="34" ry="1.717172" transform="matrix(.70710678 -.70710678 .70710678 .70710678 0 0)" width="34" x="-17.006973" y="16.948099"/><path d="m21.5 13.009862-.255859 2.804688a8.656599 8.656599 0 0 0 -1.095703.447265l-2.158204-1.798828-3.537109 3.537109 1.802734 2.164063a8.656599 8.656599 0 0 0 -.453125 1.089844l-2.802734.255859v5l2.804688.255859a8.656599 8.656599 0 0 0 .447265 1.095703l-1.798828 2.158204 3.537109 3.537109 2.164063-1.802734a8.656599 8.656599 0 0 0 1.089844.453125l.255859 2.802734h5l.255859-2.804688a8.656599 8.656599 0 0 0 1.095703-.447265l2.158204 1.798828 3.537109-3.537109-1.802734-2.164063a8.656599 8.656599 0 0 0 .453125-1.089844l2.802734-.255859v-5l-2.804688-.255859a8.656599 8.656599 0 0 0 -.447265-1.095703l1.798828-2.158204-3.537109-3.537109-2.164063 1.802734a8.656599 8.656599 0 0 0 -1.089844-.453125l-.255859-2.802734zm2.5 6.142578a4.8571429 4.8571429 0 0 1 4.857422 4.857422 4.8571429 4.8571429 0 0 1 -4.857422 4.857422 4.8571429 4.8571429 0 0 1 -4.857422-4.857422 4.8571429 4.8571429 0 0 1 4.857422-4.857422z" fill="#fff"/></svg>