<?xml version="1.0" encoding="UTF-8" standalone="no"?>
<!-- Created with Inkscape (http://www.inkscape.org/) -->

<svg
   xmlns:dc="http://purl.org/dc/elements/1.1/"
   xmlns:cc="http://creativecommons.org/ns#"
   xmlns:rdf="http://www.w3.org/1999/02/22-rdf-syntax-ns#"
   xmlns:svg="http://www.w3.org/2000/svg"
   xmlns="http://www.w3.org/2000/svg"
   xmlns:xlink="http://www.w3.org/1999/xlink"
   xmlns:sodipodi="http://sodipodi.sourceforge.net/DTD/sodipodi-0.dtd"
   xmlns:inkscape="http://www.inkscape.org/namespaces/inkscape"
   width="48"
   height="48"
   viewBox="0 0 48 48.000001"
   id="svg4232"
   version="1.1"
   inkscape:version="0.92.4 5da689c313, 2019-01-14"
   sodipodi:docname="victor-vran.svg">
  <defs
     id="defs4234">
    <color-profile
       name="NTSC-RGB"
       xlink:href="/usr/share/color/icc/colord/NTSC-RGB.icc"
       id="color-profile3" />
    <color-profile
       name="Apple-RGB"
       xlink:href="/usr/share/color/icc/colord/AppleRGB.icc"
       id="color-profile5" />
    <color-profile
       name="Compatible-with-Adobe-RGB--1998-"
       xlink:href="/usr/share/color/icc/colord/AdobeRGB1998.icc"
       id="color-profile7" />
    <radialGradient
       id="radial0"
       gradientUnits="userSpaceOnUse"
       cx="450.908936"
       cy="189.579361"
       fx="450.908936"
       fy="189.579361"
       r="21.166656"
       gradientTransform="matrix(3.57049e-7,-0.102549,-0.288309,-1.33269e-7,78.984696,88.973262)">
      <stop
         offset="0"
         style="stop-color:rgb(0%,0%,0%);stop-opacity:0.313726;"
         id="stop822" />
      <stop
         offset="0.222222"
         style="stop-color:rgb(0%,0%,0%);stop-opacity:0.27451;"
         id="stop824" />
      <stop
         offset="1"
         style="stop-color:rgb(0%,0%,0%);stop-opacity:0;"
         id="stop826" />
    </radialGradient>
    <radialGradient
       id="radial1"
       gradientUnits="userSpaceOnUse"
       cx="450.908936"
       cy="189.579361"
       fx="450.908936"
       fy="189.579361"
       r="21.166656"
       gradientTransform="matrix(-3.57049e-7,0.102549,0.288309,1.33269e-7,-31.685907,-4.375346)">
      <stop
         offset="0"
         style="stop-color:rgb(0%,0%,0%);stop-opacity:0.313726;"
         id="stop829" />
      <stop
         offset="0.222222"
         style="stop-color:rgb(0%,0%,0%);stop-opacity:0.27451;"
         id="stop831" />
      <stop
         offset="1"
         style="stop-color:rgb(0%,0%,0%);stop-opacity:0;"
         id="stop833" />
    </radialGradient>
    <radialGradient
       id="radial2"
       gradientUnits="userSpaceOnUse"
       cx="450.908936"
       cy="189.579361"
       fx="450.908936"
       fy="189.579361"
       r="21.166656"
       gradientTransform="matrix(-3.57049e-7,-0.102549,0.288309,-1.33269e-7,-31.685907,88.973262)">
      <stop
         offset="0"
         style="stop-color:rgb(0%,0%,0%);stop-opacity:0.313726;"
         id="stop836" />
      <stop
         offset="0.222222"
         style="stop-color:rgb(0%,0%,0%);stop-opacity:0.27451;"
         id="stop838" />
      <stop
         offset="1"
         style="stop-color:rgb(0%,0%,0%);stop-opacity:0;"
         id="stop840" />
    </radialGradient>
    <radialGradient
       id="radial3"
       gradientUnits="userSpaceOnUse"
       cx="450.908936"
       cy="189.579361"
       fx="450.908936"
       fy="189.579361"
       r="21.166656"
       gradientTransform="matrix(3.57049e-7,0.102549,-0.288309,1.33269e-7,78.984692,-4.375346)">
      <stop
         offset="0"
         style="stop-color:rgb(0%,0%,0%);stop-opacity:0.313726;"
         id="stop843" />
      <stop
         offset="0.222222"
         style="stop-color:rgb(0%,0%,0%);stop-opacity:0.27451;"
         id="stop845" />
      <stop
         offset="1"
         style="stop-color:rgb(0%,0%,0%);stop-opacity:0;"
         id="stop847" />
    </radialGradient>
    <linearGradient
       id="linear0"
       gradientUnits="userSpaceOnUse"
       x1="255.323059"
       y1="233.5"
       x2="255.323044"
       y2="254.666656"
       gradientTransform="matrix(0.0273881,0,0,0.082039,16.656575,23.142854)">
      <stop
         offset="0"
         style="stop-color:rgb(0%,0%,0%);stop-opacity:0.27451;"
         id="stop850" />
      <stop
         offset="1"
         style="stop-color:rgb(0%,0%,0%);stop-opacity:0;"
         id="stop852" />
    </linearGradient>
    <linearGradient
       id="linear1"
       gradientUnits="userSpaceOnUse"
       x1="254"
       y1="233.5"
       x2="254"
       y2="-168.666672"
       gradientTransform="matrix(0.093759,0,0,0.093759,0,20.158175)">
      <stop
         offset="0"
         style="stop-color:rgb(100%,43.921569%,26.274511%);stop-opacity:1;"
         id="stop855" />
      <stop
         offset="1"
         style="stop-color:rgb(100%,54.11765%,39.607844%);stop-opacity:1;"
         id="stop857" />
    </linearGradient>
    <linearGradient
       id="linear2"
       gradientUnits="userSpaceOnUse"
       x1="254"
       y1="148.833328"
       x2="254"
       y2="-84"
       gradientTransform="matrix(0.093759,0,0,0.093759,0,20.158175)">
      <stop
         offset="0"
         style="stop-color:rgb(74.117649%,74.117649%,74.117649%);stop-opacity:1;"
         id="stop860" />
      <stop
         offset="1"
         style="stop-color:rgb(87.843138%,87.843138%,87.843138%);stop-opacity:1;"
         id="stop862" />
    </linearGradient>
    <linearGradient
       id="linear2-3"
       gradientUnits="userSpaceOnUse"
       x1="254"
       y1="148.83333"
       x2="254"
       y2="-84"
       gradientTransform="matrix(0.08461253,0,0,0.08461253,-19.162897,21.468351)">
      <stop
         offset="0"
         style="stop-color:rgb(74.117649%,74.117649%,74.117649%);stop-opacity:1;"
         id="stop860-6" />
      <stop
         offset="1"
         style="stop-color:rgb(87.843138%,87.843138%,87.843138%);stop-opacity:1;"
         id="stop862-7" />
    </linearGradient>
    <radialGradient
       id="radial0-1"
       gradientUnits="userSpaceOnUse"
       cx="450.908936"
       cy="189.579361"
       fx="450.908936"
       fy="189.579361"
       r="21.166656"
       gradientTransform="matrix(3.57049e-7,-0.102549,-0.288309,-1.33269e-7,78.984696,88.973262)">
      <stop
         offset="0"
         style="stop-color:rgb(0%,0%,0%);stop-opacity:0.313726;"
         id="stop822-2" />
      <stop
         offset="0.222222"
         style="stop-color:rgb(0%,0%,0%);stop-opacity:0.27451;"
         id="stop824-7" />
      <stop
         offset="1"
         style="stop-color:rgb(0%,0%,0%);stop-opacity:0;"
         id="stop826-0" />
    </radialGradient>
    <radialGradient
       id="radial1-9"
       gradientUnits="userSpaceOnUse"
       cx="450.908936"
       cy="189.579361"
       fx="450.908936"
       fy="189.579361"
       r="21.166656"
       gradientTransform="matrix(-3.57049e-7,0.102549,0.288309,1.33269e-7,-31.685907,-4.375346)">
      <stop
         offset="0"
         style="stop-color:rgb(0%,0%,0%);stop-opacity:0.313726;"
         id="stop829-3" />
      <stop
         offset="0.222222"
         style="stop-color:rgb(0%,0%,0%);stop-opacity:0.27451;"
         id="stop831-6" />
      <stop
         offset="1"
         style="stop-color:rgb(0%,0%,0%);stop-opacity:0;"
         id="stop833-0" />
    </radialGradient>
    <radialGradient
       id="radial2-6"
       gradientUnits="userSpaceOnUse"
       cx="450.908936"
       cy="189.579361"
       fx="450.908936"
       fy="189.579361"
       r="21.166656"
       gradientTransform="matrix(-3.57049e-7,-0.102549,0.288309,-1.33269e-7,-31.685907,88.973262)">
      <stop
         offset="0"
         style="stop-color:rgb(0%,0%,0%);stop-opacity:0.313726;"
         id="stop836-2" />
      <stop
         offset="0.222222"
         style="stop-color:rgb(0%,0%,0%);stop-opacity:0.27451;"
         id="stop838-6" />
      <stop
         offset="1"
         style="stop-color:rgb(0%,0%,0%);stop-opacity:0;"
         id="stop840-1" />
    </radialGradient>
    <radialGradient
       id="radial3-8"
       gradientUnits="userSpaceOnUse"
       cx="450.908936"
       cy="189.579361"
       fx="450.908936"
       fy="189.579361"
       r="21.166656"
       gradientTransform="matrix(3.57049e-7,0.102549,-0.288309,1.33269e-7,78.984692,-4.375346)">
      <stop
         offset="0"
         style="stop-color:rgb(0%,0%,0%);stop-opacity:0.313726;"
         id="stop843-7" />
      <stop
         offset="0.222222"
         style="stop-color:rgb(0%,0%,0%);stop-opacity:0.27451;"
         id="stop845-9" />
      <stop
         offset="1"
         style="stop-color:rgb(0%,0%,0%);stop-opacity:0;"
         id="stop847-2" />
    </radialGradient>
    <radialGradient
       id="radial0-3"
       gradientUnits="userSpaceOnUse"
       cx="450.908936"
       cy="189.579361"
       fx="450.908936"
       fy="189.579361"
       r="21.166656"
       gradientTransform="matrix(3.57049e-7,-0.102549,-0.288309,-1.33269e-7,78.984696,88.973262)">
      <stop
         offset="0"
         style="stop-color:rgb(0%,0%,0%);stop-opacity:0.313726;"
         id="stop822-6" />
      <stop
         offset="0.222222"
         style="stop-color:rgb(0%,0%,0%);stop-opacity:0.27451;"
         id="stop824-75" />
      <stop
         offset="1"
         style="stop-color:rgb(0%,0%,0%);stop-opacity:0;"
         id="stop826-3" />
    </radialGradient>
    <radialGradient
       id="radial1-5"
       gradientUnits="userSpaceOnUse"
       cx="450.908936"
       cy="189.579361"
       fx="450.908936"
       fy="189.579361"
       r="21.166656"
       gradientTransform="matrix(-3.57049e-7,0.102549,0.288309,1.33269e-7,-31.685907,-4.375346)">
      <stop
         offset="0"
         style="stop-color:rgb(0%,0%,0%);stop-opacity:0.313726;"
         id="stop829-6" />
      <stop
         offset="0.222222"
         style="stop-color:rgb(0%,0%,0%);stop-opacity:0.27451;"
         id="stop831-2" />
      <stop
         offset="1"
         style="stop-color:rgb(0%,0%,0%);stop-opacity:0;"
         id="stop833-9" />
    </radialGradient>
    <radialGradient
       id="radial2-1"
       gradientUnits="userSpaceOnUse"
       cx="450.908936"
       cy="189.579361"
       fx="450.908936"
       fy="189.579361"
       r="21.166656"
       gradientTransform="matrix(-3.57049e-7,-0.102549,0.288309,-1.33269e-7,-31.685907,88.973262)">
      <stop
         offset="0"
         style="stop-color:rgb(0%,0%,0%);stop-opacity:0.313726;"
         id="stop836-27" />
      <stop
         offset="0.222222"
         style="stop-color:rgb(0%,0%,0%);stop-opacity:0.27451;"
         id="stop838-0" />
      <stop
         offset="1"
         style="stop-color:rgb(0%,0%,0%);stop-opacity:0;"
         id="stop840-9" />
    </radialGradient>
    <radialGradient
       id="radial3-3"
       gradientUnits="userSpaceOnUse"
       cx="450.908936"
       cy="189.579361"
       fx="450.908936"
       fy="189.579361"
       r="21.166656"
       gradientTransform="matrix(3.57049e-7,0.102549,-0.288309,1.33269e-7,78.984692,-4.375346)">
      <stop
         offset="0"
         style="stop-color:rgb(0%,0%,0%);stop-opacity:0.313726;"
         id="stop843-6" />
      <stop
         offset="0.222222"
         style="stop-color:rgb(0%,0%,0%);stop-opacity:0.27451;"
         id="stop845-0" />
      <stop
         offset="1"
         style="stop-color:rgb(0%,0%,0%);stop-opacity:0;"
         id="stop847-6" />
    </radialGradient>
    <radialGradient
       id="radial0-7"
       gradientUnits="userSpaceOnUse"
       cx="450.908936"
       cy="189.579361"
       fx="450.908936"
       fy="189.579361"
       r="21.166656"
       gradientTransform="matrix(3.57049e-7,-0.102549,-0.288309,-1.33269e-7,78.984696,88.973262)">
      <stop
         offset="0"
         style="stop-color:rgb(0%,0%,0%);stop-opacity:0.313726;"
         id="stop822-5" />
      <stop
         offset="0.222222"
         style="stop-color:rgb(0%,0%,0%);stop-opacity:0.27451;"
         id="stop824-9" />
      <stop
         offset="1"
         style="stop-color:rgb(0%,0%,0%);stop-opacity:0;"
         id="stop826-2" />
    </radialGradient>
    <radialGradient
       id="radial1-2"
       gradientUnits="userSpaceOnUse"
       cx="450.908936"
       cy="189.579361"
       fx="450.908936"
       fy="189.579361"
       r="21.166656"
       gradientTransform="matrix(-3.57049e-7,0.102549,0.288309,1.33269e-7,-31.685907,-4.375346)">
      <stop
         offset="0"
         style="stop-color:rgb(0%,0%,0%);stop-opacity:0.313726;"
         id="stop829-8" />
      <stop
         offset="0.222222"
         style="stop-color:rgb(0%,0%,0%);stop-opacity:0.27451;"
         id="stop831-9" />
      <stop
         offset="1"
         style="stop-color:rgb(0%,0%,0%);stop-opacity:0;"
         id="stop833-7" />
    </radialGradient>
    <radialGradient
       id="radial2-3"
       gradientUnits="userSpaceOnUse"
       cx="450.908936"
       cy="189.579361"
       fx="450.908936"
       fy="189.579361"
       r="21.166656"
       gradientTransform="matrix(-3.57049e-7,-0.102549,0.288309,-1.33269e-7,-31.685907,88.973262)">
      <stop
         offset="0"
         style="stop-color:rgb(0%,0%,0%);stop-opacity:0.313726;"
         id="stop836-6" />
      <stop
         offset="0.222222"
         style="stop-color:rgb(0%,0%,0%);stop-opacity:0.27451;"
         id="stop838-1" />
      <stop
         offset="1"
         style="stop-color:rgb(0%,0%,0%);stop-opacity:0;"
         id="stop840-2" />
    </radialGradient>
    <radialGradient
       id="radial3-9"
       gradientUnits="userSpaceOnUse"
       cx="450.908936"
       cy="189.579361"
       fx="450.908936"
       fy="189.579361"
       r="21.166656"
       gradientTransform="matrix(3.57049e-7,0.102549,-0.288309,1.33269e-7,78.984692,-4.375346)">
      <stop
         offset="0"
         style="stop-color:rgb(0%,0%,0%);stop-opacity:0.313726;"
         id="stop843-3" />
      <stop
         offset="0.222222"
         style="stop-color:rgb(0%,0%,0%);stop-opacity:0.27451;"
         id="stop845-1" />
      <stop
         offset="1"
         style="stop-color:rgb(0%,0%,0%);stop-opacity:0;"
         id="stop847-9" />
    </radialGradient>
    <linearGradient
       id="linearGradient3866">
      <stop
         style="stop-color:#000000;stop-opacity:0.52083331"
         offset="0"
         id="stop3868" />
      <stop
         style="stop-color:#2883c3;stop-opacity:0;"
         offset="1"
         id="stop3870" />
    </linearGradient>
    <linearGradient
       id="linearGradient3874">
      <stop
         style="stop-color:#000d0e;stop-opacity:0.84105963;"
         offset="0"
         id="stop3876" />
      <stop
         style="stop-color:#000000;stop-opacity:0;"
         offset="1"
         id="stop3878" />
    </linearGradient>
    <clipPath
       id="clipPath892"
       clipPathUnits="userSpaceOnUse">
      <path
         inkscape:connector-curvature="0"
         id="path894"
         d="M 38.524123,20.232391 V 51.2388 h 3.597154 V 20.232391 Z M 14.125746,21.0025 V 52.010565 H 17.7229 V 21.0025 Z M 5.9924018,21.259203 V 52.267267 H 9.591212 V 21.259203 Z m 24.3983772,1.37129 v 31.006409 h 3.597153 V 22.630493 Z m -20.330877,1.626338 v 31.008065 h 3.597154 V 24.256831 Z m 24.396721,0.08612 v 31.008065 h 3.598809 V 24.342951 Z M 1.9265577,25.798705 V 56.80677 H 5.5237118 V 25.798705 Z m 16.2650323,0.08612 v 31.008064 h 3.597155 V 25.884825 Z m 24.398377,0 v 31.008064 h 3.597154 V 25.884825 Z m -16.265033,2.22752 v 31.006408 h 3.597155 V 28.112345 Z M 22.25909,30.76715 v 31.008065 h 3.597155 V 30.76715 Z"
         style="fill:#ffffff;fill-opacity:0.25520833;stroke:none;stroke-width:1.52630627;stroke-linecap:round;stroke-linejoin:round;stroke-miterlimit:4;stroke-dasharray:none;stroke-opacity:1" />
    </clipPath>
    <clipPath
       clipPathUnits="userSpaceOnUse"
       id="clipPath3881">
      <circle
         r="103.5"
         cy="152.5"
         cx="539.5"
         style="fill:#008dff;fill-opacity:1;fill-rule:evenodd;stroke:none"
         id="path3883"
         transform="translate(-412,-17)" />
    </clipPath>
    <linearGradient
       id="linearGradient4019">
      <stop
         offset="0"
         style="stop-color:#adcce1;stop-opacity:1;"
         id="stop4021" />
      <stop
         offset="0.26238"
         style="stop-color:#6bbfe1;stop-opacity:1;"
         id="stop4023" />
      <stop
         offset="0.74620908"
         style="stop-color:#2596d1;stop-opacity:1;"
         id="stop4025" />
      <stop
         offset="1"
         style="stop-color:#2372c0;stop-opacity:1;"
         id="stop4027" />
    </linearGradient>
    <linearGradient
       id="linearGradient4085">
      <stop
         offset="0"
         style="stop-color:#ffffff;stop-opacity:1"
         id="stop4087" />
      <stop
         offset="0.06316455"
         style="stop-color:#ffffff;stop-opacity:0.2"
         id="stop4089" />
      <stop
         offset="0.95056331"
         style="stop-color:#ffffff;stop-opacity:0.2"
         id="stop4091" />
      <stop
         offset="1"
         style="stop-color:#ffffff;stop-opacity:0.39215687"
         id="stop4093" />
    </linearGradient>
    <filter
       style="color-interpolation-filters:sRGB"
       id="filter3174">
      <feGaussianBlur
         stdDeviation="1.71"
         id="feGaussianBlur3176" />
    </filter>
    <linearGradient
       gradientTransform="scale(1.0058652,0.994169)"
       gradientUnits="userSpaceOnUse"
       id="ButtonShadow"
       y2="7.0165396"
       x2="45.447727"
       y1="92.539597"
       x1="45.447727">
      <stop
         offset="0"
         style="stop-color:#000000;stop-opacity:1"
         id="stop3750" />
      <stop
         offset="1"
         style="stop-color:#000000;stop-opacity:0.58823532"
         id="stop3752" />
    </linearGradient>
    <linearGradient
       id="linearGradient5048-8-7">
      <stop
         offset="0"
         style="stop-color:#000000;stop-opacity:0"
         id="stop5050-4-2" />
      <stop
         offset="0.5"
         style="stop-color:#000000;stop-opacity:1"
         id="stop5056-7-4" />
      <stop
         offset="1"
         style="stop-color:#000000;stop-opacity:0"
         id="stop5052-0-1-7" />
    </linearGradient>
    <linearGradient
       id="linearGradient5060-29-0">
      <stop
         offset="0"
         style="stop-color:#000000;stop-opacity:1"
         id="stop5062-9-7" />
      <stop
         offset="1"
         style="stop-color:#000000;stop-opacity:0"
         id="stop5064-08-2" />
    </linearGradient>
    <linearGradient
       id="linearGradient3851">
      <stop
         id="stop3853"
         style="stop-color:#5b8da7;stop-opacity:1;"
         offset="0" />
      <stop
         id="stop3855"
         style="stop-color:#1c3447;stop-opacity:1;"
         offset="1" />
    </linearGradient>
    <filter
       style="color-interpolation-filters:sRGB"
       id="filter3174-0">
      <feGaussianBlur
         stdDeviation="1.71"
         id="feGaussianBlur3176-9" />
    </filter>
    <clipPath
       id="clipPath916"
       clipPathUnits="userSpaceOnUse">
      <g
         id="g920"
         inkscape:label="circulo"
         style="display:inline;opacity:0.98999999;fill:#126136;fill-opacity:1"
         transform="matrix(1.1503549,0,0,1.1503549,-4.4861245,-7.5255648)">
        <path
           style="fill:#126136;fill-opacity:1;stroke:none;stroke-width:1.4909519"
           d="M 44.322082,27.405077 A 19.729762,19.729765 0 0 1 24.59232,47.134842 19.729762,19.729765 0 0 1 4.8625579,27.405077 19.729762,19.729765 0 0 1 24.59232,7.6753138 19.729762,19.729765 0 0 1 44.322082,27.405077 Z"
           id="path918"
           inkscape:connector-curvature="0" />
      </g>
    </clipPath>
    <clipPath
       clipPathUnits="userSpaceOnUse"
       id="clipPath3866">
      <circle
         r="312"
         cy="449"
         cx="1132"
         id="path3868"
         style="fill:#44abb1;fill-opacity:1;fill-rule:evenodd;stroke:none"
         transform="matrix(0.68724124,0,0,0.68724124,-521.35527,-47.661719)" />
    </clipPath>
    <linearGradient
       inkscape:collect="always"
       id="linearGradient4118">
      <stop
         style="stop-color:#0eb474;stop-opacity:1;"
         offset="0"
         id="stop4120" />
      <stop
         style="stop-color:#0eb474;stop-opacity:0;"
         offset="1"
         id="stop4122" />
    </linearGradient>
    <linearGradient
       id="linearGradient3837"
       inkscape:collect="always">
      <stop
         id="stop3839"
         offset="0"
         style="stop-color:#7db257;stop-opacity:1;" />
      <stop
         id="stop3841"
         offset="1"
         style="stop-color:#7db257;stop-opacity:0;" />
    </linearGradient>
    <linearGradient
       gradientUnits="userSpaceOnUse"
       y2="356.66208"
       x2="316.05505"
       y1="546.63525"
       x1="502.83536"
       id="linearGradient3843"
       xlink:href="#linearGradient3837"
       inkscape:collect="always" />
    <clipPath
       id="clipPath3847"
       clipPathUnits="userSpaceOnUse">
      <circle
         r="260.2153"
         cy="342.29437"
         cx="322.4407"
         style="fill:url(#linearGradient3843);fill-opacity:1;fill-rule:evenodd;stroke:none"
         id="path3849"
         transform="matrix(0.88586957,0,0,0.88586957,-24.010886,495.98978)" />
    </clipPath>
    <clipPath
       clipPathUnits="userSpaceOnUse"
       id="clipPath3344">
      <circle
         r="260.2153"
         cy="342.29437"
         cx="322.4407"
         transform="matrix(0.09964174,0,0,0.09964174,-8.1283951,-10.106867)"
         id="path3346"
         style="fill:#0eb474;fill-opacity:1;fill-rule:evenodd;stroke:none" />
    </clipPath>
    <linearGradient
       inkscape:collect="always"
       xlink:href="#linearGradient4118"
       id="linearGradient4124"
       x1="62.225403"
       y1="342.29437"
       x2="582.65601"
       y2="342.29437"
       gradientUnits="userSpaceOnUse" />
    <clipPath
       id="clipPath932"
       clipPathUnits="userSpaceOnUse">
      <g
         id="g936"
         inkscape:label="circulo"
         style="display:inline;opacity:0.98999999;fill:#32b6a1;fill-opacity:1"
         transform="matrix(1.1503549,0,0,1.1503549,-4.4861245,-7.5255648)">
        <path
           style="fill:#32b6a1;fill-opacity:1;stroke:none;stroke-width:1.4909519"
           d="M 44.322082,27.405077 A 19.729762,19.729765 0 0 1 24.59232,47.134842 19.729762,19.729765 0 0 1 4.8625579,27.405077 19.729762,19.729765 0 0 1 24.59232,7.6753138 19.729762,19.729765 0 0 1 44.322082,27.405077 Z"
           id="path934"
           inkscape:connector-curvature="0" />
      </g>
    </clipPath>
    <clipPath
       id="clipPath942"
       clipPathUnits="userSpaceOnUse">
      <g
         id="g946"
         inkscape:label="circulo"
         style="display:inline;opacity:0.98999999;fill:#32b6a1;fill-opacity:1"
         transform="matrix(1.1503549,0,0,1.1503549,-4.4861245,-7.5255648)">
        <path
           style="fill:#32b6a1;fill-opacity:1;stroke:none;stroke-width:1.4909519"
           d="M 44.322082,27.405077 A 19.729762,19.729765 0 0 1 24.59232,47.134842 19.729762,19.729765 0 0 1 4.8625579,27.405077 19.729762,19.729765 0 0 1 24.59232,7.6753138 19.729762,19.729765 0 0 1 44.322082,27.405077 Z"
           id="path944"
           inkscape:connector-curvature="0" />
      </g>
    </clipPath>
    <linearGradient
       id="linearGradient3822">
      <stop
         id="stop3824"
         style="stop-color:#e6e6e6;stop-opacity:1"
         offset="0" />
      <stop
         id="stop3826"
         style="stop-color:#f5f5f5;stop-opacity:1"
         offset="1" />
    </linearGradient>
    <linearGradient
       id="linearGradient3737">
      <stop
         id="stop3739"
         style="stop-color:#ffffff;stop-opacity:1"
         offset="0" />
      <stop
         id="stop3741"
         style="stop-color:#ffffff;stop-opacity:0"
         offset="1" />
    </linearGradient>
    <linearGradient
       id="linearGradient3700">
      <stop
         id="stop3702"
         style="stop-color:#f05517;stop-opacity:1"
         offset="0" />
      <stop
         id="stop3704"
         style="stop-color:#f37340;stop-opacity:1"
         offset="1" />
    </linearGradient>
    <filter
       id="filter3174-7"
       style="color-interpolation-filters:sRGB">
      <feGaussianBlur
         id="feGaussianBlur3176-5"
         stdDeviation="1.71" />
    </filter>
    <linearGradient
       x1="36.357143"
       y1="6"
       x2="36.357143"
       y2="63.893143"
       id="linearGradient3188"
       xlink:href="#linearGradient3737"
       gradientUnits="userSpaceOnUse" />
    <filter
       x="-0.192"
       y="-0.192"
       width="1.3839999"
       height="1.3839999"
       id="filter3794"
       style="color-interpolation-filters:sRGB">
      <feGaussianBlur
         id="feGaussianBlur3796"
         stdDeviation="5.28" />
    </filter>
    <linearGradient
       x1="48"
       y1="20.220806"
       x2="48"
       y2="138.66119"
       id="linearGradient3613"
       xlink:href="#linearGradient3737"
       gradientUnits="userSpaceOnUse" />
    <radialGradient
       cx="48"
       cy="90.171875"
       r="42"
       fx="48"
       fy="90.171875"
       id="radialGradient3619"
       xlink:href="#linearGradient3737"
       gradientUnits="userSpaceOnUse"
       gradientTransform="matrix(1.1573129,0,0,0.99590774,-7.5510206,0.19713193)" />
    <clipPath
       id="clipPath3613">
      <rect
         width="84"
         height="84"
         rx="6"
         ry="6"
         x="6"
         y="6"
         id="rect3615"
         style="fill:#ffffff;fill-opacity:1;fill-rule:nonzero;stroke:none" />
    </clipPath>
    <linearGradient
       x1="48"
       y1="90"
       x2="48"
       y2="5.9877172"
       id="linearGradient3617"
       xlink:href="#linearGradient3822"
       gradientUnits="userSpaceOnUse" />
    <linearGradient
       x1="45.447727"
       y1="92.539597"
       x2="45.447727"
       y2="7.0165396"
       id="ButtonShadow-0"
       gradientUnits="userSpaceOnUse"
       gradientTransform="matrix(1.0058652,0,0,0.994169,100,0)">
      <stop
         id="stop3750-8"
         style="stop-color:#000000;stop-opacity:1"
         offset="0" />
      <stop
         id="stop3752-5"
         style="stop-color:#000000;stop-opacity:0.58823532"
         offset="1" />
    </linearGradient>
    <linearGradient
       x1="32.251034"
       y1="6.1317081"
       x2="32.251034"
       y2="90.238609"
       id="linearGradient3780"
       xlink:href="#ButtonShadow-0"
       gradientUnits="userSpaceOnUse"
       gradientTransform="matrix(1.0238095,0,0,1.0119048,-1.1428571,-98.071429)" />
    <linearGradient
       x1="32.251034"
       y1="6.1317081"
       x2="32.251034"
       y2="90.238609"
       id="linearGradient3721"
       xlink:href="#ButtonShadow-0"
       gradientUnits="userSpaceOnUse"
       gradientTransform="translate(0,-97)" />
    <linearGradient
       gradientTransform="matrix(3.6907816,0,0,3.6907816,86.006062,-394.23151)"
       x1="47.973103"
       y1="79.776169"
       x2="47.973103"
       y2="16.436062"
       id="linearGradient3067"
       xlink:href="#linearGradient3700"
       gradientUnits="userSpaceOnUse" />
    <clipPath
       id="clipPath1109"
       clipPathUnits="userSpaceOnUse">
      <g
         id="g1113"
         inkscape:label="circulo"
         style="display:inline;opacity:0.98999999;fill:#fa6e31;fill-opacity:1"
         transform="matrix(12.332308,0,0,12.332308,-47.545312,-534.58518)">
        <path
           style="fill:#fa6e31;fill-opacity:1;stroke:none;stroke-width:1.4909519"
           d="M 44.322082,27.405077 A 19.729762,19.729765 0 0 1 24.59232,47.134842 19.729762,19.729765 0 0 1 4.8625579,27.405077 19.729762,19.729765 0 0 1 24.59232,7.6753138 19.729762,19.729765 0 0 1 44.322082,27.405077 Z"
           id="path1111"
           inkscape:connector-curvature="0" />
      </g>
    </clipPath>
    <filter
       filterUnits="objectBoundingBox"
       color-interpolation-filters="sRGB"
       y="-200%"
       x="-200%"
       height="400%"
       width="400%"
       id="JL0PC5maDbkAjO55cpfF0OHpA8bDli6c">
      <feGaussianBlur
         id="feGaussianBlur987"
         stdDeviation="4.294"
         in="SourceGraphic" />
      <feOffset
         id="feOffset989"
         result="pf_100_offsetBlur"
         dy="4"
         dx="0" />
      <feFlood
         id="feFlood991"
         flood-opacity=".4" />
      <feComposite
         id="feComposite993"
         result="pf_100_dropShadow"
         operator="in"
         in2="pf_100_offsetBlur" />
      <feBlend
         id="feBlend995"
         mode="normal"
         in2="pf_100_dropShadow"
         in="SourceGraphic" />
    </filter>
  </defs>
  <sodipodi:namedview
     id="base"
     pagecolor="#ffffff"
     bordercolor="#666666"
     borderopacity="1.0"
     inkscape:pageopacity="0.0"
     inkscape:pageshadow="2"
     inkscape:zoom="2.8284271"
     inkscape:cx="-22.910342"
     inkscape:cy="12.397271"
     inkscape:document-units="px"
     inkscape:current-layer="layer1"
     showgrid="true"
     units="px"
     inkscape:window-width="1920"
     inkscape:window-height="1024"
     inkscape:window-x="0"
     inkscape:window-y="30"
     inkscape:window-maximized="1">
    <inkscape:grid
       type="xygrid"
       id="grid4780" />
  </sodipodi:namedview>
  <metadata
     id="metadata4237">
    <rdf:RDF>
      <cc:Work
         rdf:about="">
        <dc:format>image/svg+xml</dc:format>
        <dc:type
           rdf:resource="http://purl.org/dc/dcmitype/StillImage" />
        <dc:title></dc:title>
      </cc:Work>
    </rdf:RDF>
  </metadata>
  <g
     inkscape:label="Capa 1"
     inkscape:groupmode="layer"
     id="layer1"
     transform="translate(0,-1004.3622)">
    <circle
       style="opacity:1;fill:#82a2b0;fill-opacity:1;stroke:none;stroke-width:6;stroke-linecap:round;stroke-linejoin:round;stroke-miterlimit:4;stroke-dasharray:none;stroke-dashoffset:0;stroke-opacity:1;paint-order:fill markers stroke"
       id="path4782"
       cx="23.446428"
       cy="1028.804"
       r="22.5" />
    <path
       id="path1007-1"
       d="m 23.447675,1014.1106 a 14.761822,14.761822 0 0 0 -14.7618225,14.7618 14.761822,14.761822 0 0 0 9.5721335,13.8012 c -0.0072,-0.21 -0.0081,-0.48 -0.02218,-0.6365 -0.04342,-0.4895 0.07523,-2.6752 0.181866,-3.3401 0.03679,-0.2297 0.170442,-0.6824 0.297189,-1.0046 0.25136,-0.6393 0.534821,-1.5978 0.636519,-2.1624 0.03559,-0.197 0.126054,-0.5743 0.201817,-0.8384 0.116164,-0.4036 0.129813,-0.579 0.09093,-1.1155 -0.03558,-0.4907 -0.0216,-0.7084 0.05766,-0.9537 0.133992,-0.4179 0.127179,-0.5632 -0.02952,-0.938 -0.08176,-0.1941 -0.130586,-0.4746 -0.132857,-0.7426 l -0.0044,-0.4302 -0.126418,0.164 c -0.06961,0.091 -0.173156,0.349 -0.230648,0.5745 -0.252825,0.9901 -0.640856,1.5654 -1.7654,2.6281 -0.406518,0.3839 -0.764413,0.767 -0.796196,0.8516 -0.438381,1.1674 -0.480168,1.3344 -0.445785,1.7831 0.01895,0.2473 0.05499,0.5178 0.07984,0.601 0.06092,0.2042 -0.141566,0.2889 -0.306058,0.1287 -0.06829,-0.066 -0.168205,-0.095 -0.230648,-0.07 -0.08903,0.037 -0.103298,0.116 -0.07762,0.4037 0.03823,0.4295 0.05837,0.4587 0.339329,0.4501 0.182638,0 0.229841,0.025 0.290535,0.1996 0.04055,0.1168 0.0469,0.2085 0.01331,0.2085 -0.0334,0 -0.0621,0.094 -0.0621,0.2152 0,0.2064 -0.01056,0.2151 -0.29275,0.2151 -0.254641,0 -0.298779,0.022 -0.317152,0.1597 -0.01364,0.1022 -0.07379,0.1706 -0.168557,0.1841 -0.196242,0.031 -0.734038,-0.5482 -0.942577,-1.0136 -0.209742,-0.4684 -0.170658,-1.1906 0.110896,-2.0914 0.110986,-0.3548 0.236825,-0.8393 0.281667,-1.0757 0.106024,-0.5597 0.231794,-0.8118 0.428036,-0.8649 0.121932,-0.032 0.235178,-0.2126 0.487923,-0.7718 0.181173,-0.4009 0.399217,-0.939 0.483484,-1.1954 0.182411,-0.5546 0.381468,-0.8856 0.913745,-1.5192 0.218362,-0.2601 0.433373,-0.5955 0.479056,-0.7474 0.04572,-0.1542 0.220984,-0.5996 0.388122,-0.9936 l 0.303844,-0.7164 0.04214,-1.2907 c 0.02375,-0.7097 0.07626,-1.4062 0.11755,-1.5458 0.04113,-0.14 0.240027,-0.4684 0.441344,-0.7319 0.216601,-0.2829 0.365934,-0.5491 0.365934,-0.6498 0,-0.2025 0.310123,-0.6859 0.5478,-0.8539 0.09289,-0.065 0.255016,-0.1409 0.359291,-0.1664 0.373781,-0.091 0.423619,-0.1173 0.492353,-0.255 0.05539,-0.1125 0.026,-0.2313 -0.139727,-0.5832 -0.114835,-0.2441 -0.249202,-0.5083 -0.299404,-0.5856 -0.08022,-0.1238 -0.07564,-0.152 0.03993,-0.2395 0.07238,-0.056 0.317686,-0.1422 0.545586,-0.1908 0.387055,-0.086 0.416329,-0.101 0.43469,-0.2993 0.01773,-0.1899 -0.02151,-0.2361 -0.399205,-0.4747 -0.870482,-0.5501 -1.183898,-0.9086 -1.179924,-1.344 0.0049,-0.4902 0.266008,-0.7683 1.015761,-1.0822 0.38106,-0.159 0.481213,-0.2321 0.499007,-0.366 0.01225,-0.091 0.04861,-0.1978 0.08206,-0.2351 0.03341,-0.039 0.0621,-0.2031 0.0621,-0.3659 0,-0.4907 0.141748,-1.1343 0.290535,-1.3129 0.27591,-0.3315 0.494601,-0.4024 1.204224,-0.3993 0.557282,0 0.710373,0.028 0.951445,0.1619 0.324465,0.1825 0.388634,0.3118 0.609902,1.2287 0.08082,0.3351 0.201169,0.6615 0.268358,0.7252 0.06719,0.064 0.139693,0.195 0.161904,0.2905 0.03041,0.13 0.13959,0.2153 0.43913,0.3438 0.774621,0.3321 1.189803,0.9184 1.046817,1.4771 -0.124181,0.4853 -0.758996,1.0357 -1.193209,1.0357 -0.07009,0 -0.126418,0.05 -0.126418,0.109 0,0.058 0.04146,0.1068 0.09093,0.1068 0.0638,0 0.101425,0.1534 0.130846,0.53 0.02294,0.2923 0.07657,0.6162 0.119764,0.7186 0.07563,0.1791 0.100028,0.1844 0.649815,0.1841 0.486527,-2e-4 0.646909,0.032 1.10004,0.2284 0.292284,0.1259 0.556055,0.2713 0.585499,0.3239 0.02943,0.053 0.194448,0.1732 0.365946,0.2683 0.434667,0.2408 1.057128,0.9566 1.532504,1.761 0.221382,0.3745 0.464952,0.757 0.538931,0.8494 0.07397,0.091 0.133073,0.2154 0.133073,0.275 0,0.06 0.06868,0.2103 0.150809,0.3349 0.08237,0.1257 0.153738,0.3457 0.159677,0.4946 0.01377,0.35 0.275376,0.9405 0.935922,2.1114 0.410424,0.7276 0.545064,1.0326 0.581071,1.3151 0.02583,0.2025 0.06519,1.2176 0.08872,2.2555 0.04114,1.8156 0.04953,1.8939 0.190734,2.0559 0.14663,0.1687 0.146301,0.1685 0.08649,1.9251 -0.03294,0.9664 -0.08939,1.8422 -0.126418,1.9473 -0.03703,0.1056 -0.157554,0.2406 -0.266145,0.3016 -0.108556,0.06 -0.213842,0.1687 -0.235087,0.2417 -0.02125,0.073 -0.21969,0.2249 -0.441345,0.3393 -0.221654,0.1155 -0.418066,0.2325 -0.43469,0.2618 -0.01662,0.029 0.09612,0.3206 0.248396,0.6475 0.1576,0.3387 0.346142,0.6153 0.587725,0.9115 a 14.761822,14.761822 0 0 0 6.380514,-12.2636 14.761822,14.761822 0 0 0 -14.761822,-14.7619 z m 3.981036,14.001 c -0.02691,0 -0.04182,0.1682 -0.03327,0.3749 0.0129,0.3045 -0.01647,0.424 -0.150809,0.6231 -0.09132,0.137 -0.303639,0.5382 -0.472401,0.896 l -0.306058,0.6498 1.26418,2.688 c 1.394538,2.9624 1.531596,3.2247 1.672287,3.2247 0.05296,0 0.21215,-0.1836 0.354852,-0.4103 h 0.0023 c 0.142712,-0.2267 0.364435,-0.5504 0.494577,-0.7185 0.161733,-0.2085 0.263317,-0.4354 0.319367,-0.7164 0.04509,-0.2262 0.102379,-0.444 0.128632,-0.4834 0.164674,-0.247 0.132186,-0.5412 -0.144155,-1.3019 -0.316823,-0.8725 -0.447283,-1.5365 -0.452438,-2.2933 l -0.0044,-0.5145 -0.470175,-0.2018 c -0.374462,-0.1618 -0.589338,-0.3233 -1.055686,-0.794 -0.322205,-0.3254 -0.632578,-0.5921 -0.689741,-0.5921 -0.05719,0 -0.138568,-0.072 -0.181865,-0.1597 -0.07975,-0.1635 -0.185591,-0.2664 -0.275013,-0.2684 z m -0.181866,6.7955 c -0.09375,-0.077 -0.08021,0.207 -0.06876,0.7628 0.01317,0.6299 0.221882,1.6323 0.350412,1.6789 0.04479,0.016 0.156816,0.1135 0.25061,0.2152 l 0.170772,0.184 0.08649,2.79 c 0.03628,1.1953 0.07767,1.8475 0.113109,2.3088 a 14.761822,14.761822 0 0 0 2.98961,-1.3906 c -0.81056,-0.4665 -1.544995,-1.3967 -2.086981,-2.7102 -0.177335,-0.4298 -0.671334,-1.5237 -1.0956,-2.4307 -0.416908,-0.891 -0.615954,-1.3308 -0.709703,-1.4082 z m 3.118265,1.9316 c -0.04407,-0.02 -0.08524,-0.011 -0.139726,0.02 -0.30054,0.1739 -0.292409,0.3602 0.04658,1.1378 0.211151,0.4844 0.33649,0.6958 0.372588,0.6343 0.02981,-0.052 0.05259,-0.3881 0.05322,-0.7496 8.31e-4,-0.6031 -0.0114,-0.6743 -0.168557,-0.8761 -0.07148,-0.092 -0.120048,-0.1452 -0.164117,-0.1664 z m -7.673649,3.6018 c -0.06636,0 -0.09527,0.082 -0.09536,0.2683 -2.14e-4,0.2648 -0.207188,1.5185 -0.337114,2.0427 -0.01987,0.081 -0.08801,0.5087 -0.139727,0.8161 a 14.761822,14.761822 0 0 0 1.137796,0.058 c -0.0025,-0.484 -0.148901,-1.349 -0.294964,-1.7233 -0.07478,-0.1913 -0.10373,-0.4373 -0.09093,-0.7806 0.01952,-0.5266 -0.02102,-0.6809 -0.17964,-0.6809 z"
       inkscape:connector-curvature="0"
       style="fill:#ffffff;stroke-width:1.13552475" />
  </g>
</svg>
