<?xml version="1.0" encoding="UTF-8" standalone="no"?>
<svg
   xmlns:dc="http://purl.org/dc/elements/1.1/"
   xmlns:cc="http://creativecommons.org/ns#"
   xmlns:rdf="http://www.w3.org/1999/02/22-rdf-syntax-ns#"
   xmlns:svg="http://www.w3.org/2000/svg"
   xmlns="http://www.w3.org/2000/svg"
   xmlns:sodipodi="http://sodipodi.sourceforge.net/DTD/sodipodi-0.dtd"
   xmlns:inkscape="http://www.inkscape.org/namespaces/inkscape"
   height="48"
   width="48"
   version="1.1"
   id="svg48"
   sodipodi:docname="vide-card.svg"
   inkscape:version="0.92.4 5da689c313, 2019-01-14">
  <metadata
     id="metadata54">
    <rdf:RDF>
      <cc:Work
         rdf:about="">
        <dc:format>image/svg+xml</dc:format>
        <dc:type
           rdf:resource="http://purl.org/dc/dcmitype/StillImage" />
        <dc:title></dc:title>
      </cc:Work>
    </rdf:RDF>
  </metadata>
  <defs
     id="defs52" />
  <sodipodi:namedview
     pagecolor="#ffffff"
     bordercolor="#666666"
     borderopacity="1"
     objecttolerance="10"
     gridtolerance="10"
     guidetolerance="10"
     inkscape:pageopacity="0"
     inkscape:pageshadow="2"
     inkscape:window-width="1920"
     inkscape:window-height="1024"
     id="namedview50"
     showgrid="false"
     inkscape:zoom="9.8333333"
     inkscape:cx="24"
     inkscape:cy="24"
     inkscape:window-x="0"
     inkscape:window-y="30"
     inkscape:window-maximized="1"
     inkscape:current-layer="svg48" />
  <rect
     fill="#86915a"
     height="43"
     ry="1.452703"
     width="43"
     x="2"
     y="3"
     id="rect2"
     style="fill:#767cb2;fill-opacity:1" />
  <path
     d="m 14,14 c -1.108,0 -2,0.892 -2,2 v 18 c 0,1.108 0.892,2 2,2 h 18 c 1.108,0 2,-0.892 2,-2 V 16 c 0,-1.108 -0.892,-2 -2,-2 z"
     id="path4"
     inkscape:connector-curvature="0"
     style="fill:#ffffff"
     sodipodi:nodetypes="sssssssss" />
  <g
     fill="none"
     stroke="#fff"
     stroke-opacity=".632959"
     stroke-width="2"
     id="g46">
    <path
       d="m32 18h6"
       id="path6" />
    <path
       d="m32 22h6"
       id="path8" />
    <path
       d="m32 26h6"
       id="path10" />
    <path
       d="m32 30h6"
       id="path12" />
    <path
       d="m32 34h6"
       id="path14" />
    <path
       d="m30 16v-6"
       id="path16" />
    <path
       d="m26 16v-6"
       id="path18" />
    <path
       d="m22 16v-6"
       id="path20" />
    <path
       d="m18 16v-6"
       id="path22" />
    <path
       d="m14 16v-6"
       id="path24" />
    <path
       d="m14 18h-6"
       id="path26" />
    <path
       d="m14 22h-6"
       id="path28" />
    <path
       d="m14 26h-6"
       id="path30" />
    <path
       d="m14 30h-6"
       id="path32" />
    <path
       d="m14 34h-6"
       id="path34" />
    <path
       d="m16 40v-6"
       id="path36" />
    <path
       d="m20 40v-6"
       id="path38" />
    <path
       d="m24 40v-6"
       id="path40" />
    <path
       d="m28 40v-6"
       id="path42" />
    <path
       d="m32 40v-6"
       id="path44" />
  </g>
  <path
     sodipodi:type="star"
     style="opacity:1;fill:#767cb2;fill-opacity:1;stroke:none;stroke-width:7;stroke-linecap:round;stroke-linejoin:bevel;stroke-miterlimit:4;stroke-dasharray:none;stroke-opacity:1;paint-order:stroke fill markers"
     id="path864"
     sodipodi:sides="3"
     sodipodi:cx="21.864407"
     sodipodi:cy="25.016949"
     sodipodi:r1="5.8046331"
     sodipodi:r2="2.9023166"
     sodipodi:arg1="0"
     sodipodi:arg2="1.0471976"
     inkscape:flatsided="false"
     inkscape:rounded="0"
     inkscape:randomized="0"
     d="m 27.66904,25.016949 -4.353475,2.51348 -4.353475,2.513479 0,-5.026959 0,-5.02696 4.353475,2.51348 z"
     inkscape:transform-center-x="-1.4511583" />
</svg>
