<svg height="48" width="48" xmlns="http://www.w3.org/2000/svg"><g fill="#fff"><path d="m13 36v-2l2-1 1-1h5l1 1 2 1v2z" fill-opacity=".96831" fill-rule="evenodd"/><path d="m23 26.000001a4.5002861 4.5002861 0 0 1 -4.701972 4.280497 4.5002861 4.5002861 0 0 1 -4.289075-4.694149 4.5002861 4.5002861 0 0 1 4.686312-4.297638 4.5002861 4.5002861 0 0 1 4.306185 4.678458"/><path d="m28.000001 18a3 3 0 0 1 -3.134449 2.853483 3 3 0 0 1 -2.859201-3.129234 3 3 0 0 1 3.124009-2.864909 3 3 0 0 1 2.870608 3.118773" fill-opacity=".947183"/><path d="m34.000001 21a2 2 0 0 1 -2.089633 1.902323 2 2 0 0 1 -1.906134-2.086156 2 2 0 0 1 2.082673-1.90994 2 2 0 0 1 1.913738 2.079182" fill-opacity=".950704"/></g><path d="m18 26 7-8 7 3" fill="none" stroke="#fafafa" stroke-width="3"/><path d="m30 24v2l-3 2 1 4h1v-4h2l1 3h1l1-3h2v4h1l1-4-3-2v-2z" fill="#fff" fill-rule="evenodd"/><rect fill="#d0d6d8" height="33" ry="1" width="46" x="1" y="5"/><path d="m2 5c-.554 0-1 .446-1 1v40c0 .284065.1196391.537041.3085938.71875l45.3828122-41.4375c-.179555-.1726705-.421471-.28125-.691406-.28125z" fill="#87b2e5"/><text style="font-weight:bold;font-stretch:condensed;font-size:14.352732;font-family:Roboto Condensed;letter-spacing:0;word-spacing:0;fill:#fff;stroke-width:.358818" x="3.795478" y="27.475168"><tspan fill="#fff" stroke-width=".358818" x="3.795478" y="27.475168">wechat</tspan></text></svg>