<svg height="48" width="48" xmlns="http://www.w3.org/2000/svg"><circle cx="23.940615" cy="31.534513" fill="#dd8e6c" opacity=".99" r="13.232998" transform="matrix(1.72140702696 0 0 1.72140725788 -17.2289093957 -30.06939350282)"/><path d="m23.981882 8.8242507c-.04857 0-.09633.0075-.142787.02405l-5.308639 1.8922933.53357.924352 2.018545-1.164834c.358469-.206962.813583-.08492 1.020545.273548l.792087 1.37225c.206962.358469.08492.813583-.273547 1.020545l-2.018546 1.164835 1.262531 2.186882 2.039587-.754512c.04919-.01825.102615-.01825.151804 0l1.962934.725956 1.245997-2.158326-2.018545-1.164835c-.358469-.206962-.48051-.662076-.273549-1.020545l.792088-1.37225c.206962-.358469.662076-.48051 1.020545-.273548l2.018546 1.164834.550102-.95291-5.228979-1.8637353c-.04646-.01658-.09571-.02405-.144289-.02405zm8.320675 2.9383893-.832669 1.441389 2.020049 1.166337c.358469.206962.48051.662076.273547 1.020545l-.792087 1.37225c-.206962.358469-.662077.480511-1.020545.273549l-2.020048-1.166338-.984473 1.704416 1.808123.66884c.09139.03384.153308.123674.153308.225452 0 2.509413-.631716 5.410981-1.734477 7.959952-.202586.468132-.447139.974262-.725955 1.489485l2.830173 4.902826c1.044723-1.572164 1.873776-3.164497 2.51003-4.579678 2.083042-4.634531 3.278068-9.909899 3.278068-14.472504 0-.185053-.115947-.350286-.288579-.411825zm-16.719508.02856-4.394807 1.566139c-.172629.06154-.288578.226772-.288578.411825 0 4.563303 1.194941 9.838322 3.278069 14.472504.625345 1.391362 1.439164 2.953797 2.458928 4.500018l2.834681-4.91034c-.258681-.48461-.489848-.960773-.680864-1.402311-1.102804-2.54878-1.734476-5.450155-1.734476-7.959952 0-.101778.06042-.191607.151803-.225452l1.729968-.640283-1.001006-1.732973-2.018546 1.166338c-.358469.206962-.813583.08492-1.020545-.273549l-.792088-1.37225c-.206962-.358469-.08492-.813583.273549-1.020545l2.020048-1.166337zm5.816658 18.855288-2.747506 4.758536c1.421489 1.629862 3.118437 3.102636 5.132786 4.15132.06209.0323.129017.0481.196895.0481.06788 0 .136306-.0158.198397-.0481 1.986669-1.034542 3.663122-2.481959 5.072666-4.085188l-2.74901-4.763045c-.689149.759614-1.487623 1.442187-2.416842 1.944898-.03288.01776-.06927.02555-.105211.02555-.03594 0-.07234-.0078-.105211-.02555-.95519-.516626-1.775099-1.221194-2.476964-2.006521z" fill="#fff" stroke-width=".769542"/></svg>