<?xml version="1.0" encoding="UTF-8" standalone="no"?>
<!DOCTYPE svg PUBLIC "-//W3C//DTD SVG 1.1//EN" "http://www.w3.org/Graphics/SVG/1.1/DTD/svg11.dtd">
<svg version="1.1" xmlns="http://www.w3.org/2000/svg" xmlns:xlink="http://www.w3.org/1999/xlink" preserveAspectRatio="xMidYMid meet" viewBox="0 0 640 640" width="64" height="64"><defs><path d="M599.55 324.66C599.55 479.26 474.54 604.77 320.57 604.77C166.6 604.77 41.59 479.26 41.59 324.66C41.59 170.06 166.6 44.55 320.57 44.55C474.54 44.55 599.55 170.06 599.55 324.66Z" id="a2wOmalFVK"></path><path d="M122.53 359.43C132.18 318.29 145.1 279.38 167.72 246.74C184.17 222.99 205.84 207.83 230.35 197.27C253.4 187.35 277.81 182.7 302.73 180.03C317.81 178.42 323.42 172.12 325.15 154.34C327.07 134.67 323.74 114.98 319.51 95.34C317.61 86.51 319.16 84.22 326.6 86.7C339.9 91.14 348.32 102.76 352.84 117.05C359.25 137.31 364.62 157.99 369.3 178.7C372.49 192.81 377.49 203.67 388.41 212.92C408.38 229.81 428.16 247.11 446.62 266.36C447.58 264.89 448.54 263.42 449.5 261.94C450.57 258.09 451.81 253.94 452.7 249.63C453.89 243.84 456.06 242.23 461.11 245.91C476.4 257.06 488.72 283.78 489.04 305.09C489.82 309.22 489.82 313.44 488.89 317.31C502.27 335.6 514.33 354.99 523 377.01C526.98 387.11 528.81 398.19 531.38 408.88C532.83 414.95 533.53 421.18 535 427.24C537.85 439.05 530.41 455.2 520.51 456.17C514.08 456.79 506.76 457.12 500.76 454.2C476.56 442.39 451.42 437.14 426.79 428.55C415.21 424.5 404.05 419.01 393.18 411.6C388.41 409.23 383.92 405.93 379.94 401.85C346.74 416.01 304.73 411.13 276.53 388.58C270.48 383.74 264.97 377.34 260.19 370.71C255.73 364.5 257.03 361.04 263.21 359.17C273.81 355.94 284.46 352.85 295.08 349.7C295.11 349.8 295.33 350.54 295.36 350.63C300.1 349.23 304.84 347.84 309.58 346.45C304.68 345.97 299.82 345.08 295 343.46C288.92 342.4 282.77 339.76 276.26 335.87C262.25 327.5 247.03 320.88 232.02 317.26C214.93 313.13 200.22 315.61 187.47 322.78C185.26 324.48 183.07 326.34 180.89 328.38C179.35 329.82 177.58 330.71 175.69 331.15C168.57 337.35 162.14 345.11 156.32 354C155.25 355.64 154.25 357.33 153.28 359.07C153.74 360.23 154.19 361.39 154.65 362.55C154.74 362.57 154.84 362.6 154.93 362.62C159.46 372.89 167.95 376.56 175.42 381.88C185.06 388.74 193.98 396.36 195.49 410.57C195.98 415.18 195.47 419.86 195.06 424.41C194.93 425.83 193.84 427.83 192.87 427.98C191.89 428.14 189.99 426.6 189.41 425.32C185.08 415.82 178.21 418.37 171.73 416.53C165.72 414.83 160.93 417.23 155.71 416.47C152.68 416.03 149.7 411.27 146.52 408.09C146.42 408.26 146.32 408.44 146.22 408.61C146.04 418.61 139.64 422.31 131.92 422.9C120.28 423.79 113.62 432.63 107.02 441.44C104.66 444.6 104.25 449.86 102.32 456.21C99.97 451.72 97.98 449.02 97.07 446C87.39 413.56 94.07 388.06 116.15 370.34C119.1 367.97 121.54 363.61 122.53 359.43Z" id="a4tXvVMkw7"></path></defs><g><g><g><use xlink:href="#a2wOmalFVK" opacity="1" fill="#94a3ed" fill-opacity="1"></use></g><g><use xlink:href="#a4tXvVMkw7" opacity="1" fill="#dbddea" fill-opacity="1"></use><g><use xlink:href="#a4tXvVMkw7" opacity="1" fill-opacity="0" stroke="#000000" stroke-width="1" stroke-opacity="0"></use></g></g></g></g></svg>