<svg height="48" width="48" xmlns="http://www.w3.org/2000/svg"><path d="m23.804688 1.3046875a22.696228 22.696232 0 0 0 -22.6972661 22.6953125 22.696228 22.696232 0 0 0 2.2558593 9.818359l-1.8632812 11.181641 10.541016-1.621094a22.696228 22.696232 0 0 0 11.763672 3.316406 22.696228 22.696232 0 0 0 22.695312-22.695312 22.696228 22.696232 0 0 0 -22.695312-22.6953125z" fill="#64ae80"/><path d="m23.771029 4.5a19.608538 19.608541 0 0 0 -19.6096282 19.607807 19.608538 19.608541 0 0 0 1.9496761 8.483186l-1.6110769 9.659179 9.107591-1.399907a19.608538 19.608541 0 0 0 10.163438 2.865351 19.608538 19.608541 0 0 0 19.607807-19.607809 19.608538 19.608541 0 0 0 -19.607807-19.607807zm-9.630053 6.775625 1.305245.02184c.416582.0206.977063-.156563 1.530978 1.168714.56536 1.361898 1.925462 4.709284 2.09713 5.048041.171664.341049.283036.739175.05644 1.192379-.228891.455491-.340676.740432-.6863 1.134125-.341048.398268-.714547.887954-1.021259 1.192379-.338764.338759-.692711.707361-.296729 1.387164.39598.682094 1.76174 2.909427 3.782844 4.713084 2.597906 2.31866 4.790575 3.034023 5.470381 3.37507.679803.341046 1.078562.283903 1.474544-.1693.39598-.453203 1.700361-1.985299 2.153564-2.665104.455493-.682092.908396-.568841 1.530978-.342239.624871.226601 3.969563 1.87259 4.649367 2.213637.682092.341047 1.134048.509882 1.303426.793706.171668.283823.172613 1.64593-.395033 3.236717-.567649 1.5885-3.28415 3.040341-4.591113 3.234897-1.171919.173958-2.655583.246049-4.285284-.271244-.986522-.313574-2.254679-.732265-3.877513-1.432669-6.823224-2.945819-11.276911-9.81582-11.617958-10.269024-.338759-.453202-2.7779696-3.687278-2.7779696-7.035946s1.7585356-4.992174 2.3811166-5.674267c.622583-.682095 1.359942-.85196 1.813145-.85196z" fill="#fff"/></svg>