<svg height="48" width="48" xmlns="http://www.w3.org/2000/svg"><rect fill="#bc7162" height="43" ry="1.452703" width="43" x="2" y="3"/><g fill="#fff"><path d="m34.085938 7.8125c-3.83331.019253-7.055277.876464-10.085938 1.695313v13.730468c3.267301-.810451 6.790682-1.65904 10.816407-1.677734 1.355619-.0063 2.771015.09005 4.246093.306641v-13.609375c-1.774465-.324299-3.424474-.453108-4.976562-.445313zm-27.146485.445313v14.18164c5.36082 3.154058 9.749536 2.541661 14.789063 1.355469.0884-.02081.182736-.04523.271484-.06641v-13.693355c-4.773164 1.225545-9.24261 1.853386-15.060547-1.777344zm27.876954 15.302734c-3.939763.01982-7.417607.896913-10.816407 1.736328v13.703125c4.26063-1.151352 8.900309-2.372287 15.0625-1.246093v-13.863282c-1.47844-.233777-2.891319-.336892-4.246093-.330078zm-27.876954 1.160156v13.033204c5.818422 3.631032 10.286992 3.001271 15.060547 1.77539v-13.748047c-4.798225 1.11606-9.655932 1.716756-15.060547-1.060547z" fill-opacity=".263636"/><path d="m34.085938 7.8125c-3.83331.019253-7.055277.876464-10.085938 1.695313v13.730468c3.267301-.810451 6.790682-1.65904 10.816407-1.677734 1.355619-.0063 2.771015.09005 4.246093.306641v-13.609375c-1.774465-.324299-3.424474-.453108-4.976562-.445313zm-27.146485 16.908203v13.033204c5.818422 3.631032 10.286992 3.001271 15.060547 1.77539v-13.748047c-4.798225 1.11606-9.655932 1.716756-15.060547-1.060547z" fill-opacity=".327273"/><path d="m20 16h7v12h-7z"/><path d="m17 29h13l-6 9z"/></g></svg>