<svg height="48" width="48" xmlns="http://www.w3.org/2000/svg"><rect fill="#917c6f" height="43" ry="1.452703" width="43" x="2" y="3"/><g fill="#fff"><path d="m18 9v17h11v-17zm-4 19 10 13 9-13z" fill-opacity=".719149" stroke-width="1.454546"/><path d="m12.165632 19.509478-2.118709-1.41473-2.3665492.94331.6907711-2.452188-1.6284452-1.959223 2.545629-.100805 1.3601153-2.154177.882514 2.389887 2.469042.627868-2.000205 1.577837z" stroke-width=".383641"/><path d="m18.089046 26.542222-1.307319-.872939-1.460244.582056.42623-1.513087-1.004808-1.20891 1.570743-.0622.839239-1.329203.544542 1.474644 1.523487.387418-1.234198.97358z" stroke-width=".23672"/><path d="m34.868131 14.542222-1.307319-.872939-1.460244.582056.42623-1.513087-1.004808-1.20891 1.570743-.0622.839239-1.329203.544542 1.474644 1.523487.387418-1.234198.97358z" stroke-width=".23672"/><path d="m34.917147 28.391154-1.757968-1.173852-1.963611.782698.573158-2.034667-1.351179-1.625638 2.112199-.08364 1.128536-1.787397.732253 1.982974 2.048653.520966-1.659642 1.309187z" stroke-width=".31832"/><path d="m8.9957803 41.939522-1.1598813-.77449-1.2955608.516413.3781606-1.342444-.8914876-1.072571 1.3935974-.05519.7445911-1.179297.4831299 1.308336 1.3516702.343725-1.0950066.863782z" stroke-width=".210023"/><path d="m42.347451 16.599239-1.159881-.77449-1.295561.516412.378161-1.342443-.891488-1.072571 1.393597-.05519.744591-1.179294.48313 1.308337 1.351671.343725-1.095007.863782z" stroke-width=".210023"/><path d="m41.159882 42.774491-1.159881-.77449-1.295561.516412.378161-1.342443-.891488-1.072571 1.393598-.05519.744591-1.179298.48313 1.308337 1.35167.343725-1.095007.863782z" stroke-width=".210023"/><path d="m24.077281 41.600521-1.159882-.77449-1.29556.516413.37816-1.342443-.891487-1.072572 1.393597-.05518.744591-1.179298.48313 1.308336 1.35167.343726-1.095006.863782z" stroke-width=".210023"/><path d="m26.118708 35.414728-2.118709-1.41473-2.366549.94331.690771-2.452187-1.628445-1.959223 2.545629-.100806 1.360115-2.154176.882514 2.389886 2.469042.627869-2.000205 1.577836z" stroke-width=".383641"/><path d="m18.526612 11.939524-1.757969-1.173852-1.96361.782698.573157-2.0346678-1.351179-1.6256374 2.112199-.0836419 1.128536-1.7873972.732254 1.9829741 2.048652.5209652-1.659641 1.3091873z" stroke-width=".31832"/><path d="m24.830581 21.907576-1.159882-.77449-1.295561.516412.378161-1.342443-.891488-1.072571 1.393598-.05519.744591-1.179294.48313 1.308337 1.35167.343725-1.095007.863782z" stroke-width=".210023"/><path d="m9.3073188 30.872939-1.3073184-.872939-1.4602446.582056.4262301-1.513086-1.0048082-1.208911 1.5707431-.0622.839239-1.329203.5445425 1.474644 1.5234867.387418-1.2341976.973581z" stroke-width=".23672"/></g></svg>