<svg height="48" width="48" xmlns="http://www.w3.org/2000/svg" xmlns:xlink="http://www.w3.org/1999/xlink"><clipPath id="a"><path d="m3.4527029 3h40.0945941c.804798 0 1.452703.6479055 1.452703 1.4527029v8.5455121l-43 .151523v-8.6970351c0-.8047974.6479055-1.4527029 1.4527029-1.4527029z"/></clipPath><rect fill="#5cb8cf" height="43" ry="1.452703" width="43" x="2" y="3"/><path d="m3.4527029 3h40.0945941c.804798 0 1.452703.6479055 1.452703 1.4527029v8.5455121l-43 .151523v-8.6970351c0-.8047974.6479055-1.4527029 1.4527029-1.4527029z" fill="#3c4147"/><g clip-path="url(#a)" stroke="#fff" stroke-linecap="square" stroke-width="3"><path d="m9 3-2 5 2 5" fill="#93ac9d" fill-rule="evenodd"/><g fill="none"><path d="m16 3-2 5 2 5"/><path d="m23 3-2 5 2 5"/><path d="m30 3-2 5 2 5"/><path d="m37 3-2 5 2 5"/><path d="m44 3-2 5 2 5"/></g></g><g fill-rule="evenodd"><path d="m2 8h43" fill="#3c4147" stroke="#3c4147" stroke-width=".8"/><path d="m37.335686 35.834433h-2.642386v-12.331135l-6.165568-6.165567v6.165567 12.331135h-2.642385l6.165567 6.165567zm-8.274659 6.165567-6.165568-6.165567h-2.642385-1.383124v6.165567zm-1.790836-24.662269h-10.192797l6.165566 6.165567h2.642387 1.384844zm-7.017117 6.165567-6.165568-6.165567-5.284772 6.165567h2.642386v12.331135l6.165567 6.165567v-6.165567-12.331135z" fill="#fff" fill-opacity=".598592"/><path d="m37.335686 35.834433h-2.642386v-12.331135l-6.165568-6.165567v6.165567 12.331135h-2.642385l6.165567 6.165567zm-17.082612-12.331135-6.165568-6.165567-5.284772 6.165567h2.642386v12.331135l6.165567 6.165567v-6.165567-12.331135z" fill="#fff" fill-opacity=".957747"/></g></svg>