<svg height="48" width="48" xmlns="http://www.w3.org/2000/svg"><path d="m23.804688 1.3046875a22.696228 22.696232 0 0 0 -22.6054692 20.8593745v3.730469a22.696228 22.696232 0 0 0 22.6054692 20.800781 22.696228 22.696232 0 0 0 22.695312-22.695312 22.696228 22.696232 0 0 0 -22.695312-22.6953125z" fill="#d47266"/><path d="m23.78686 5.6840036a1.0425575 1.0468068 0 0 0 -.839844.5175781l-3.121094 5.3671873-5.667968-2.4980465a1.0425575 1.0468068 0 0 0 -1.457032 1.0624995l.617188 6.185547-6.0488283 1.322265a1.0425575 1.0468068 0 0 0 -.5566407 1.720704l4.119141 4.640624-4.1171879 4.640626a1.0425575 1.0468068 0 0 0 .5566407 1.71875l6.0468752 1.322265-.613281 6.185547a1.0425575 1.0468068 0 0 0 1.455078 1.0625l5.667968-2.5 3.123047 5.367188a1.0425575 1.0468068 0 0 0 1.800782-.002l3.123047-5.367187 5.667968 2.5a1.0425575 1.0468068 0 0 0 1.457032-1.064453l-.617188-6.183548 6.048828-1.324219a1.0425575 1.0468068 0 0 0 .556641-1.71875l-4.121094-4.640625 4.119141-4.640625a1.0425575 1.0468068 0 0 0 -.556641-1.71875l-6.048828-1.324219.615234-6.185546a1.0425575 1.0468068 0 0 0 -1.457031-1.0605465l-5.667969 2.4999995-3.123047-5.3671873a1.0425575 1.0468068 0 0 0 -.855468-.5175781 1.0425575 1.0468068 0 0 0 -.105469 0zm-1.339844 9.2792964c1.963706.002 3.491782.492792 4.882813 1.552734-1.77799-.04889-6.821388.984106-8.25 4.882813-.302599.825796-.445107 2.069369-.160157 3.105469.308188 1.120589 1.89639 2.24421 3.210938 2.5 1.799225.350101 3.239543-.759351 3.054687-2.603516-.09405-.938263-1.413835-1.455819-1.359375-1.634766 4.513112-.883035 3.484671 6.649138-1.689453 6.988282-4.104335.000048-6.988222-3.072439-6.988281-7.183594-.000128-4.111285 3.194362-7.607471 7.298828-7.607422zm3.115235 3.480469c4.104335-.000048 6.988222 3.07244 6.988281 7.183593.000127 4.111287-3.192409 7.607471-7.296875 7.607422-1.963706-.002-3.493734-.492792-4.884766-1.552734 1.777991.04889 6.823341-.984105 8.251953-4.882812.302599-.825795.445106-2.067415.160157-3.103516-.308189-1.120588-1.89639-2.246162-3.210938-2.501953-1.799226-.3501-3.241497.761302-3.056641 2.605469.09405.938262 1.415788 1.453865 1.361329 1.632812-4.513112.883035-3.486624-6.649136 1.6875-6.988281z" fill="#fff" fill-rule="evenodd" stroke-width=".915858"/></svg>