<?xml version="1.0" encoding="UTF-8" standalone="no"?>
<svg
   xmlns:dc="http://purl.org/dc/elements/1.1/"
   xmlns:cc="http://creativecommons.org/ns#"
   xmlns:rdf="http://www.w3.org/1999/02/22-rdf-syntax-ns#"
   xmlns:svg="http://www.w3.org/2000/svg"
   xmlns="http://www.w3.org/2000/svg"
   xmlns:sodipodi="http://sodipodi.sourceforge.net/DTD/sodipodi-0.dtd"
   xmlns:inkscape="http://www.inkscape.org/namespaces/inkscape"
   height="48"
   width="48"
   version="1.1"
   id="svg6"
   sodipodi:docname="wps-office-pdfmain.svg"
   inkscape:version="1.0.2 (e86c870879, 2021-01-15)">
  <metadata
     id="metadata12">
    <rdf:RDF>
      <cc:Work
         rdf:about="">
        <dc:format>image/svg+xml</dc:format>
        <dc:type
           rdf:resource="http://purl.org/dc/dcmitype/StillImage" />
        <dc:title></dc:title>
      </cc:Work>
    </rdf:RDF>
  </metadata>
  <defs
     id="defs10">
    <linearGradient
       gradientUnits="userSpaceOnUse"
       gradientTransform="matrix(0.0920001,0,0,0.09064843,-21.193131,1.5846311)"
       y2="269.48999"
       y1="235.14999"
       x2="657.65002"
       x1="319.20999"
       id="a-12">
      <stop
         id="stop1076"
         offset="0"
         stop-color="#e54c18" />
      <stop
         id="stop1078"
         offset="1"
         stop-color="#fec350" />
    </linearGradient>
    <clipPath
       clipPathUnits="userSpaceOnUse"
       id="clipPath2217">
      <path
         style="color:#000000;font-style:normal;font-variant:normal;font-weight:normal;font-stretch:normal;font-size:medium;line-height:normal;font-family:sans-serif;font-variant-ligatures:normal;font-variant-position:normal;font-variant-caps:normal;font-variant-numeric:normal;font-variant-alternates:normal;font-feature-settings:normal;text-indent:0;text-align:start;text-decoration:none;text-decoration-line:none;text-decoration-style:solid;text-decoration-color:#000000;letter-spacing:normal;word-spacing:normal;text-transform:none;writing-mode:lr-tb;direction:ltr;text-orientation:mixed;dominant-baseline:auto;baseline-shift:baseline;text-anchor:start;white-space:normal;shape-padding:0;clip-rule:nonzero;display:inline;overflow:visible;visibility:visible;opacity:1;isolation:auto;mix-blend-mode:normal;color-interpolation:sRGB;color-interpolation-filters:linearRGB;solid-color:#000000;solid-opacity:1;vector-effect:none;fill:#7642ff;fill-opacity:1;fill-rule:nonzero;stroke:none;stroke-width:0.264583;stroke-linecap:butt;stroke-linejoin:miter;stroke-miterlimit:4;stroke-dasharray:none;stroke-dashoffset:0;stroke-opacity:1;color-rendering:auto;image-rendering:auto;shape-rendering:auto;text-rendering:auto;enable-background:accumulate"
         d="m 18.922876,12.836426 c -0.151653,-0.0053 -0.306422,0.0049 -0.461987,0.03101 l -8.06049,1.353406 c -1.2445295,0.20901 -2.0822869,1.38425 -1.8732708,2.62878 l 1.0883056,6.478675 c 0.2090155,1.244531 1.3842532,2.079696 2.6287802,1.870686 l 8.06049,-1.353405 c 1.244527,-0.20902 2.082285,-1.38425 1.87327,-2.62878 l -0.105937,-0.626836 2.916101,1.087789 c 0.811126,0.30258 1.656298,-0.396368 1.512052,-1.250053 l -0.5333,-3.177583 -0.533301,-3.179651 c -0.10527,-0.628037 -0.713271,-1.045659 -1.337903,-0.921908 -0.184381,0.03664 -0.356036,0.118584 -0.500227,0.238228 l -2.400371,1.982309 -0.10542,-0.63097 c -0.182889,-1.088964 -1.105227,-1.864769 -2.166792,-1.901692 z m -3.503146,3.205489 c 1.297033,0.02967 2.457256,0.90182 2.814816,2.194181 0.07048,0.251117 0.09577,0.376891 0.105419,0.609782 v 0.0021 0.0016 c 0.09427,1.529836 -0.980819,2.88115 -2.492354,3.135209 -1.631756,0.274048 -3.173285,-0.823393 -3.447334,-2.455148 -0.273949,-1.631165 0.824367,-3.172468 2.455147,-3.447334 6.61e-4,-1.12e-4 0.0014,1.12e-4 0.0021,0 0.188942,-0.03139 0.37695,-0.04455 0.56224,-0.04031 z"
         id="path2219"
         inkscape:connector-curvature="0" />
    </clipPath>
  </defs>
  <sodipodi:namedview
     pagecolor="#ffffff"
     bordercolor="#666666"
     borderopacity="1"
     objecttolerance="10"
     gridtolerance="10"
     guidetolerance="10"
     inkscape:pageopacity="0"
     inkscape:pageshadow="2"
     inkscape:window-width="1920"
     inkscape:window-height="1031"
     id="namedview8"
     showgrid="true"
     inkscape:zoom="13.110938"
     inkscape:cx="17.764492"
     inkscape:cy="8.4981496"
     inkscape:window-x="0"
     inkscape:window-y="24"
     inkscape:window-maximized="1"
     inkscape:current-layer="svg6"
     inkscape:document-rotation="0">
    <inkscape:grid
       type="xygrid"
       id="grid837" />
  </sodipodi:namedview>
  <circle
     cx="23.940615"
     cy="31.534513"
     fill="#74a2f3"
     opacity=".99"
     r="13.232998"
     transform="matrix(1.75830584759 0 0 1.75830608345 -18.15909274367 -30.97874795549)"
     id="circle2"
     style="fill:#d98a73;fill-opacity:1" />
  <ellipse
     cx="23.935829"
     cy="24.468578"
     fill="#74a2f3"
     opacity="0.99"
     id="circle846"
     style="fill:#ffffff;fill-opacity:0.31997341;stroke-width:1.534"
     rx="20.299435"
     ry="20.299437" />
  <path
     style="color:#000000;font-style:normal;font-variant:normal;font-weight:normal;font-stretch:normal;font-size:medium;line-height:normal;font-family:sans-serif;font-variant-ligatures:normal;font-variant-position:normal;font-variant-caps:normal;font-variant-numeric:normal;font-variant-alternates:normal;font-variant-east-asian:normal;font-feature-settings:normal;font-variation-settings:normal;text-indent:0;text-align:start;text-decoration:none;text-decoration-line:none;text-decoration-style:solid;text-decoration-color:#000000;letter-spacing:normal;word-spacing:normal;text-transform:none;writing-mode:lr-tb;direction:ltr;text-orientation:mixed;dominant-baseline:auto;baseline-shift:baseline;text-anchor:start;white-space:normal;shape-padding:0;shape-margin:0;inline-size:0;clip-rule:nonzero;display:inline;overflow:visible;visibility:visible;isolation:auto;mix-blend-mode:normal;color-interpolation:sRGB;color-interpolation-filters:linearRGB;solid-color:#000000;solid-opacity:1;vector-effect:none;fill:#ffffff;fill-opacity:1;fill-rule:nonzero;stroke:none;stroke-linecap:round;stroke-linejoin:round;stroke-miterlimit:4;stroke-dasharray:none;stroke-dashoffset:0;stroke-opacity:1;color-rendering:auto;image-rendering:auto;shape-rendering:auto;text-rendering:auto;enable-background:accumulate;stop-color:#000000;stop-opacity:1;opacity:1"
     d="M 23 9.1054688 A 2.4905289 2.4905289 0 0 0 20.509766 11.595703 L 20.509766 19 A 2.4902799 2.4902799 0 0 0 23 21.490234 A 2.4902799 2.4902799 0 0 0 25.490234 19 L 25.490234 14.085938 L 29.060547 14.085938 A 2.4905289 2.4905289 0 0 0 29.167969 14.083984 C 29.167969 14.083984 30.400157 14.066736 31.560547 14.644531 C 32.720937 15.222326 33.791016 15.957948 33.791016 19.103516 C 33.791016 22.249086 32.741145 22.926443 31.595703 23.474609 C 30.450261 24.022776 29.216797 23.986328 29.216797 23.986328 A 2.4905289 2.4905289 0 0 0 29.060547 23.980469 L 17.251953 23.980469 A 2.4905289 2.4905289 0 0 0 16.638672 24.056641 C 16.638672 24.056641 15.052743 24.457909 13.568359 25.683594 C 12.083976 26.909279 10.562802 29.207165 10.548828 32.333984 C 10.534917 35.46973 12.078871 37.776883 13.591797 38.974609 C 15.104723 40.172336 16.712891 40.523438 16.712891 40.523438 A 2.4905289 2.4905289 0 0 0 17.251953 40.582031 L 23 40.582031 A 2.4905289 2.4905289 0 0 0 25.490234 38.091797 L 25.490234 33.941406 A 2.4902799 2.4902799 0 0 0 23 31.451172 A 2.4902799 2.4902799 0 0 0 20.509766 33.941406 L 20.509766 35.601562 L 17.681641 35.601562 C 17.594627 35.578443 17.223189 35.495537 16.683594 35.068359 C 16.084828 34.59434 15.521878 34.027855 15.529297 32.355469 C 15.536811 30.674134 16.121678 30.034532 16.738281 29.525391 C 17.281251 29.077049 17.628328 28.99167 17.730469 28.960938 L 29.060547 28.960938 L 28.902344 28.957031 C 28.902344 28.957031 31.280635 29.146674 33.746094 27.966797 C 36.211552 26.786919 38.771484 23.781565 38.771484 19.103516 C 38.771484 14.425467 36.231761 11.405734 33.78125 10.185547 C 31.330739 8.9653595 28.951172 9.1074219 28.951172 9.1074219 L 29.060547 9.1054688 L 23 9.1054688 z "
     id="path8" />
</svg>
