<svg height="48" width="48" xmlns="http://www.w3.org/2000/svg"><rect fill="#d6ac72" height="43" ry="1.452703" width="43" x="2" y="3"/><path d="m16.49997 10.499915a7 7 0 0 0 -7 7 7 7 0 0 0 6.5645 6.9844c.05966-.09489.10813-.18611.17383-.2832.68592-1.0136 1.951-1.9183 3.1973-2.2812 1.247-.363 2.48-.42 4.065-.42a3.0003 3.0003 0 0 1 .43945.0332c.98874.14623 1.4321.04025 1.5508-.0039.11865-.04416.08741.0063.27148-.27148.36815-.55548.93216-2.4934 1.9805-4.9395a3.0003 3.0003 0 0 1 2.7441-1.8574 3.0003 3.0003 0 0 1 2.7715 4.2207c-.79786 1.8617-1.1285 3.7811-2.4414 5.8027a7 7 0 0 0 6.683-6.984 7 7 0 0 0 -7-7 7 7 0 0 0 -6.9824 6.5234 7 7 0 0 0 -.01758 0 7 7 0 0 0 -.02344 0 7 7 0 0 0 -6.977-6.523zm0 4a3 3 0 0 1 3 3 3 3 0 0 1 -3 3 3 3 0 0 1 -3-3 3 3 0 0 1 3-3zm14.301 10.01c-.0136.02081-.0233.04167-.03711.0625-.68064 1.027-1.7863 2.0634-3.1797 2.582-1.2909.48046-2.6837.53365-4.1719.34961-1.2575.0058-2.0048.10599-2.248.17188-.06297.14144-.59502 2.0073-1.916 5.0273a3.0003 3.0003 0 1 1 -5.4961-2.4062c1.0581-2.419 1.1253-3.9059 2.2871-5.7734a7 7 0 0 0 -6.539 6.976 7 7 0 0 0 7 7 7 7 0 0 0 7-7 7 7 0 0 0 -.02344-.47852 7 7 0 0 0 .02344.002 7 7 0 0 0 .01758 0 7 7 0 0 0 -.018.477 7 7 0 0 0 7 7 7 7 0 0 0 7-7 7 7 0 0 0 -6.6992-6.9902zm-.301 3.99a3 3 0 0 1 3 3 3 3 0 0 1 -3 3 3 3 0 0 1 -3-3 3 3 0 0 1 3-3z" fill="#fff"/></svg>