<svg height="48" width="48" xmlns="http://www.w3.org/2000/svg"><path d="m44.322082 27.405077a19.729762 19.729765 0 0 1 -19.729762 19.729765 19.729762 19.729765 0 0 1 -19.7297621-19.729765 19.729762 19.729765 0 0 1 19.7297621-19.7297632 19.729762 19.729765 0 0 1 19.729762 19.7297632z" fill="#d3ae54" opacity=".99" transform="matrix(1.1503549 0 0 1.1503549 -4.486125 -7.525565)"/><path d="m24.270699 10.760634c-.248248.01241-.482132.156449-.5979.39625l-.121996-.0584c-.532652-.25516-1.171027-.03102-1.428762.499929l-3.586712 7.417674c-.123714.256876-.140903.552467-.04725.820517.0945.268901.292032.489582.548908.613289l.112571.05339-.09279.191554c-.123713.256018-.140106.551615-.0465.820517.09365.268043.292169.488787.549045.6125l.953661.457047c.531794.25516 1.170896.03265 1.428631-.499133l.09545-.19673.120273.05671c.531794.255153 1.170099.03089 1.427834-.500061l1.433807-2.961341c.784377.439871 1.607463 1.037864 2.191664 1.823953.807576-.736264 1.879731-1.183046 3.057582-1.183046.117697 0 .2328.0063.346205.0146-.981973-1.792978-2.62107-3.010352-4.07642-3.794723l.63573-1.314474c.123713-.25687.140902-.553263.04725-.821306-.09365-.268902-.291311-.489714-.549046-.613428l-.112534-.05421c.08076-.167529.09113-.359979.03014-.535241-.06016-.175261-.189894-.318676-.356564-.399432l-1.624565-.778307c-.109-.05207-.224874-.07374-.337708-.0681zm5.996745 9.234865c-2.022368 0-3.66928 1.639185-3.66928 3.654679 0 2.015488 1.646912 3.652154 3.66928 3.652154 2.025803 0 3.671799-1.636666 3.671799-3.652154 0-2.015494-1.645138-3.654679-3.671799-3.654679zm-13.673815 6.797348c-.385747 0-.697593.311846-.697593.697586v.949281h1.545588.03265v5.466688c-.01115.005-.02149.0094-.03265.01366-1.717385.689872-3.134046 1.933008-4.002614 3.579938h13.86099c-.762038-1.440743-1.943298-2.56699-3.376309-3.294669-.03265-.01717-.06612-.03177-.09876-.049.03522.01717.06864.03171.103009.04976v-1.142564c2.128899-.39004 3.910734-1.321317 5.218315-2.787834.591933-.66324 1.038634-1.382415 1.377126-2.109229-.0842.005-.169158.0078-.254214.0078-1.175275 0-2.246678-.44682-3.052531-1.177074-.183852.335916-.400341.661529-.668384.961363-.651215.72853-1.5215 1.239682-2.620312 1.5335v-1.052421h.891798v-.949281c0-.385747-.312711-.697593-.69931-.697593z" fill="#fff" stroke-width=".859119"/></svg>