<svg height="48" width="48" xmlns="http://www.w3.org/2000/svg"><rect fill="#5fbcd3" height="43" ry="1.452703" width="43" x="2" y="3"/><path d="m6 8v24h-1v8.546875c0 .804797.6483276 1.453125 1.453125 1.453125h.6113281c-.7807084-.974185-1.206416-2.185178-1.2070312-3.433594-.0006467-3.035677 2.4604169-5.496741 5.4960941-5.496094 3.034914.000434 5.494786 2.46118 5.49414 5.496094-.0023 1.249122-.430078 2.460191-1.21289 3.433594h24.912109c.804797 0 1.453125-.648328 1.453125-1.453125v-10.546875h-14v-22zm2 2h4v4h-4zm6 2h10v2h-10zm-6 4h4v4h-4zm6 2h10v2h-10zm-6 4h4v4h-4zm6 2h10v2h-10zm-6 4h4v4h-4zm6 2h10v2h-10z" fill="#fdfdfe"/></svg>