<svg height="48" width="48" xmlns="http://www.w3.org/2000/svg"><rect fill="#93a7ac" height="43" ry="1.452703" width="43" x="2" y="3"/><path d="m17 39h27v6h-27z" fill-opacity=".483019"/><path d="m45 37v7.547298c0 .804797-.647905 1.452703-1.452703 1.452703h-40.0945941c-.8047974 0-1.4527029-.647906-1.4527029-1.452703v-7.547298z" fill-opacity=".228464"/><path d="m40.884766 5.0234375a2.1060915 2.1060915 0 0 0 -2.107422 2.1054687 2.1060915 2.1060915 0 0 0 2.107422 2.1054688 2.1060915 2.1060915 0 0 0 2.105468-2.1054688 2.1060915 2.1060915 0 0 0 -2.105468-2.1054687zm-34.7617191.0117187a2.1060915 2.1060915 0 0 0 -2.1074219 2.1074219 2.1060915 2.1060915 0 0 0 2.1074219 2.1054688 2.1060915 2.1060915 0 0 0 2.1054687-2.1054688 2.1060915 2.1060915 0 0 0 -2.1054687-2.1074219zm0 25.7597658a2.1060915 2.1060915 0 0 0 -2.1074219 2.105469 2.1060915 2.1060915 0 0 0 2.1074219 2.105468 2.1060915 2.1060915 0 0 0 2.1054687-2.105468 2.1060915 2.1060915 0 0 0 -2.1054687-2.105469zm34.7480471 0a2.1060915 2.1060915 0 0 0 -2.105469 2.105469 2.1060915 2.1060915 0 0 0 2.105469 2.105468 2.1060915 2.1060915 0 0 0 2.107422-2.105468 2.1060915 2.1060915 0 0 0 -2.107422-2.105469z" fill="#fff" fill-opacity=".598592"/><path d="m18 40h10v4h-10z" fill-opacity=".521569"/><path d="m30 40h13v4h-13z" fill-opacity=".520599"/><path d="m19 40v3h2v-3zm3 0v3h2v-3zm3 0v3h2v-3zm6 0v3h2v-3zm3 0v3h2v-3zm3 0v3h2v-3zm3 0v3h2v-3z" fill="#d9ce87"/><path d="m18 43v1h10v-1zm12 0v1h13v-1z" fill="#9e9e9e" fill-opacity=".569288"/><path d="m24 11.000001 10.578837 17.892304-20.784608.21539z" style="fill:#ffd4d1;fill-opacity:.941176;stroke:#ffd4d1;stroke-width:2;stroke-linecap:round;stroke-linejoin:round;stroke-opacity:.941176"/><g fill="#93a7ac"><path d="m24 14c-3 0-1 9-.2 11.6h.4c.8-2.6 2.8-11.6-.2-11.6z" fill-rule="evenodd"/><circle cx="24.045431" cy="27.70203" r="1.5"/></g></svg>