<svg xmlns="http://www.w3.org/2000/svg" width="22" height="22" version="1.1">
 <defs>
  <style id="current-color-scheme" type="text/css">
   .ColorScheme-Text { color:#d3dae3; } .ColorScheme-Highlight { color:#4285f4; }
  </style>
 </defs>
 <path d="M10.5 3.02c-3.047 0-5.5 2.676-5.5 6v4c0 3.324 2.453 6 5.5 6s5.5-2.676 5.5-6v-4c0-3.324-2.453-6-5.5-6zm-.5 2h.5c.208 0 .393.133.469.312l2.875 2.844.406.375-.438.344-2.562 2.125 2.562 2.125.438.344-.406.375-2.875 2.843c-.026.06-.08.112-.125.157a.484.484 0 0 1-.344.156H10v-4.938l-2.156 1.782a.485.485 0 0 1-.344.156H7v-.5c0-.153.079-.283.187-.375L9.75 11.02 7.312 8.989c-.046-.02-.086-.062-.125-.094A.494.494 0 0 1 7 8.52v-.5h.5c.123 0 .225.051.312.125.011.009.022.021.032.031L10 9.957V5.02zm1 1.687v3.25L12.78 8.49 11 6.707zm0 5.375v3.25l1.781-1.78L11 12.081z" style="fill:currentColor" class="ColorScheme-Text"/>
</svg>
