<svg xmlns="http://www.w3.org/2000/svg" width="22" height="22" version="1.1">
 <defs>
  <style id="current-color-scheme" type="text/css">
   .ColorScheme-Text { color:#d3dae3; } .ColorScheme-Highlight { color:#5294e2; }
  </style>
 </defs>
<g style="fill:currentColor" class="ColorScheme-Text">
<path d="M5 10.002v3c0 3 2 5 5 5h2c3 0 4.76-1.566 4.959-4h.541c1.5 0 1.5-1.5 1.5-1.5v-1c0-1.5-1.5-1.5-1.5-1.5H17zm1 1h10v2c0 2.216-1.784 4-4 4h-2c-2.216 0-4-1.784-4-4zm11.5 0c.5-.032.516.531.516.531v1c0 .469-.516.469-.516.469H17l.01-1.984z"/>
<path d="M11.193 3.002c-1.098 1.384-1.428 2.066-1.032 2.947.36.798 1.288 1.206.821 3.053.767-.9 1.376-2.043.774-2.965-.612-.938-.948-1.507-.563-3.035zM8.193 3.002C7.095 4.386 6.765 5.068 7.161 5.949c.36.798 1.288 1.206.821 3.053.767-.9 1.376-2.043.774-2.965-.612-.938-.948-1.507-.563-3.035zM14.193 3.002c-1.098 1.384-1.428 2.066-1.032 2.947.36.798 1.288 1.206.821 3.053.767-.9 1.376-2.043.774-2.965-.612-.938-.948-1.507-.563-3.035z" opacity=".35"/>
<path d="M7 12.002v1c0 1.662 1.338 3 3 3h2c1.662 0 3-1.338 3-3v-1z"/>
</g>
</svg>
