<svg xmlns="http://www.w3.org/2000/svg" width="22" height="22" version="1.1">
 <defs>
  <style id="current-color-scheme" type="text/css">
   .ColorScheme-Text { color:#d3dae3; } .ColorScheme-Highlight { color:#5294e2; }
  </style>
 </defs>
<path d="M11 2.002c-1 0-2 .895-2 2v3s-1 0-1 1h6c0-1-1-1-1-1v-3c0-.138-.005-.276-.031-.407A1.981 1.981 0 0 0 11 2.002zm0 1c.414 0 .754.266.906.625a.94.94 0 0 1 .094.375 1 1 0 1 1-1-1zm-3 1l-3 .002c-1 0-1 1-1 1v13s0 1 1 1h12c1 0 1-1 1-1v-13c0-1-1-1-1-1l-3-.002v1h3v13H5v-13h3z" style="fill:currentColor" class="ColorScheme-Text"/>
<path d="M6 6.002v11h10v-11h-2v.279c.475.267 1 .918 1 1.72v1H7v-1c0-.802.525-1.453 1-1.72V6H6zm4 0v1h2v-1h-2z" opacity=".35" style="fill:currentColor" class="ColorScheme-Text"/>
<path d="M11 2.002c-1 0-2 .895-2 2v3s-1 0-1 1h6c0-1-1-1-1-1v-3c0-.138-.005-.276-.031-.407A1.981 1.981 0 0 0 11 2.002zm0 1c.414 0 .754.266.906.625a.94.94 0 0 1 .094.375 1 1 0 1 1-1-1z" style="fill:currentColor" class="ColorScheme-Text"/>
</svg>
