<svg xmlns="http://www.w3.org/2000/svg" width="22" height="22" version="1.1">
 <defs>
  <style id="current-color-scheme" type="text/css">
   .ColorScheme-Text { color:#d3dae3; } .ColorScheme-Highlight { color:#5294e2; }
  </style>
 </defs>
<path d="M13 3.469V6h-3v1h4V5.531L17.406 8.5 14 11.469V10H9V7.469l-.813.656L3 12.5l5.187 4.375.813.656V15h3v-1H8V15.469L4.594 12.5 8 9.531V11h5V13.531l.062-.031C13.317 12.098 14.528 11 16 11c.043 0 .083-.002.125 0L19 8.5l-5.188-4.375L13 3.469z" style="fill:currentColor" class="ColorScheme-Text" />
<path d="M16 12c-1.108 0-2 .91-2 2.031V15h-1v4h6v-4h-1v-.969c0-1.12-.892-2.031-2-2.031zm0 1c.554 0 1 .442 1 1v1h-2v-1c0-.558.446-1 1-1z" style="fill:currentColor" class="ColorScheme-Text" />
</svg>
