<svg xmlns="http://www.w3.org/2000/svg" width="22" height="22" version="1.1">
 <defs>
  <style id="current-color-scheme" type="text/css">
   .ColorScheme-Text { color:#d3dae3; } .ColorScheme-Highlight { color:#5294e2; }
  </style>
 </defs>
<path d="M12.998 3.466V5.528c.388.224.705.541 1 .876v-.875L17.406 8.5l-1.658 1.56c.15.28.25.596.25.938 0 .042.003.083 0 .125L19 8.5l-5.19-4.377zm0 9.532v.53l.656-.53zM6.998 9.06L3 12.5l5.185 4.373.813.656V14.998c0-.39.132-.712.343-1H7.998v1.468L4.594 12.5l2.81-2.502H7.06zm1 .938v1h1.187c.13-.341.314-.641.5-.875.044-.056.08-.074.125-.125h-.812z" opacity=".35" style="fill:currentColor" class="ColorScheme-Text"/>
<path d="M10.813 6c1.642-.092 3.095 1.17 3.187 2.813 0 1.4-.378 1.921-1.594 2.843-.19.144-.325.25-.375.313-.05.062-.03.033-.03.031.006.528-.473 1-1 1-.53 0-1.008-.472-1-1 0-.502.223-.943.468-1.25a3.82 3.82 0 0 1 .719-.688c.204-.16.46-.384.687-.656.094-.112.13-.307.125-.437v-.031A.988.988 0 0 0 10.938 8c-.564.032-.97.437-.938 1H8c-.092-1.642 1.17-2.908 2.813-3zM11 14a1 1 0 1 1 0 2 1 1 0 0 1 0-2z" style="fill:currentColor" class="ColorScheme-Text"/>
</svg>
