<svg width="22" height="22" version="1.1" xmlns="http://www.w3.org/2000/svg">
 <defs>
  <style id="current-color-scheme" type="text/css">.ColorScheme-Text { color:#d3dae3; } .ColorScheme-Highlight { color:#4285f4; }</style>
 </defs>
 <path d="m11.002 5c-3.0342 4.669e-4 -5.7648 1.0784-8.0293 2.75l3.0332 3.3047c-5.074e-4 -0.018619-0.0058594-0.035943-0.0058594-0.054688 0-0.39577 0.11765-0.76047 0.31445-1.0703l-1.75-1.9297c1.901-1.179 4.006-2 6.375-2 2.394 0 4.5265 0.83625 6.4395 2.0312l-1.7129 1.8613c0.20976 0.31543 0.3328 0.69303 0.33398 1.1016l2.9727-3.2754c-2.2565-1.6536-4.9575-2.7183-7.9688-2.7188h-0.001953zm-3.2324 7.9766 3.2324 3.5234 3.1953-3.5195c-0.065802 0.006479-0.1297 0.019531-0.19727 0.019531h-1.1914l-1.8691 2.0312-1.8418-2.0312h-1.0977c-0.078954 0-0.15395-0.014624-0.23047-0.023438z" class="ColorScheme-Text" fill="currentColor" opacity=".35"/>
 <path class="ColorScheme-Text" d="m8 10a1 1 0 1 0 0 2 1 1 0 0 0 0-2zm3 0a1 1 0 1 0 0 2 1 1 0 0 0 0-2zm3 0a1 1 0 1 0 0 2 1 1 0 0 0 0-2z" fill="currentColor"/>
</svg>
