<svg xmlns="http://www.w3.org/2000/svg" width="22" height="22" version="1.1">
 <defs>
  <style id="current-color-scheme" type="text/css">
   .ColorScheme-Text { color:#d3dae3; } .ColorScheme-Highlight { color:#5294e2; }
  </style>
 </defs>
<path d="M11.034 5C8 5 5.268 6.077 3.003 7.75l8.031 8.75.969-1.069v-1.428h1.014c.02-1.635 1.342-3 2.986-3l.018.002 2.982-3.287C16.746 6.065 14.045 5 11.034 5zm-.062 1c2.393 0 4.524.836 6.437 2.03l-6.437 7L4.597 8c1.9-1.18 4.005-2 6.375-2z" style="fill:currentColor" class="ColorScheme-Text"/>
<path d="M10.972 7.969c-1.488 0-2.85.421-4.094 1.062l4.094 4.5 4.125-4.469c-1.255-.648-2.625-1.093-4.125-1.093zM16.003 12.003c-1.108 0-2 .911-2 2.032v.968h-1v4h6v-4h-1v-.968c0-1.12-.892-2.032-2-2.032zm0 1c.554 0 1 .443 1 1v1h-2v-1c0-.557.446-1 1-1z" style="fill:currentColor" class="ColorScheme-Text"/>
</svg>
