<svg width="22" height="22" version="1.1" xmlns="http://www.w3.org/2000/svg">
 <defs>
  <style id="current-color-scheme" type="text/css">.ColorScheme-Text { color:#d3dae3; } .ColorScheme-Highlight { color:#4285f4; }</style>
 </defs>
 <path d="m5.498 6c-0.831 0-1.5 0.669-1.5 1.5v7c0 0.831 0.669 1.5 1.5 1.5h9.0059a2.5 2.5 0 0 1-0.45312-1h-8.5527c-0.27637 5.54e-4 -0.50055-0.22363-0.5-0.5v-6.9863l5.6914 4.3809c0.016 0.013 0.034781 0.017344 0.050781 0.027344 0.05287 0.02991 0.11027 0.05102 0.16992 0.0625 0.03 6e-3 0.057891 0.007813 0.087891 0.007813s0.05889-0.001813 0.087891-0.007813c0.039709-0.0069 0.078414-0.018736 0.11523-0.035156 0.019-9e-3 0.036687-0.016344 0.054687-0.027344 0.016-0.01 0.035782-0.014344 0.050782-0.027344l5.6914-4.3828v4.541a2.5 2.5 0 0 1 1 0.44727v-5c0-0.831-0.669-1.5-1.5-1.5h-11zm0.47656 1h10.049l-5.0234 3.8711-5.0254-3.8711z" style="fill:currentColor" class="ColorScheme-Text"/>
 <path d="m16.5 13a1.5 1.5 0 0 0-1.5 1.5 1.5 1.5 0 0 0 1.5 1.5 1.5 1.5 0 0 0 1.5-1.5 1.5 1.5 0 0 0-1.5-1.5z" style="fill:currentColor" class="ColorScheme-Highlight"/>
</svg>
