<svg width="22" height="22" version="1.1" xmlns="http://www.w3.org/2000/svg">
 <defs>
  <style id="current-color-scheme" type="text/css">.ColorScheme-Text { color:#d3dae3; } .ColorScheme-Highlight { color:#4285f4; }</style>
 </defs>
 <g transform="translate(3,3)" fill="#d3dae3">
  <path d="m7 0c-2.016 0-4 2.026-4 4v2h1v-2c0-1.662 1.338-3 3-3h2c1.662 0 3 1.338 3 3v2h1v-2c0-1.995-1.964-4-4-4z" color="#d3dae3" overflow="visible"/>
  <path d="m2 7v7.5c0 0.831 0.669 1.5 1.5 1.5h9c0.831 0 1.5-0.669 1.5-1.5v-7.5zm1 1h10v1h-1.25v0.5h1.25v1.5h-1.25v0.5h1.25v1.5h-1.25v0.5h1.25v1c0 0.294-0.206 0.5-0.5 0.5h-9a0.478 0.478 0 0 1-0.5-0.5v-1h1.25v-0.5h-1.25v-1.5h1.25v-0.5h-1.25v-1.5h1.25v-0.5h-1.25zm4.75 1c-0.97 0-1.75 0.78-1.75 1.75 0 0.702 0.406 1.315 1 1.594v1.656h2v-1.656c0.594-0.28 1-0.892 1-1.594 0-0.97-0.78-1.75-1.75-1.75z" color="#d3dae3" overflow="visible"/>
 </g>
</svg>
