<svg xmlns="http://www.w3.org/2000/svg" width="22" height="22" version="1.1">
 <defs>
  <style id="current-color-scheme" type="text/css">
   .ColorScheme-Text { color:#d3dae3; } .ColorScheme-Highlight { color:#5294e2; }
  </style>
 </defs>
<path d="M6 4.002c-1.108 0-2 .892-2 2v10c0 1.108.892 2 2 2h10c1.108 0 2-.892 2-2v-10c0-1.108-.892-2-2-2H6zm0 1h10c.554 0 1 .446 1 1v9c0 .554-.446 1-1 1H6c-.554 0-1-.446-1-1v-9c0-.554.446-1 1-1zm2.496.966c-.778 0-1.39.224-1.834.67C6.22 7.085 6 7.7 6 8.486c0 .784.22 1.4.662 1.846.444.446 1.056.67 1.834.67.78 0 1.39-.224 1.832-.67.442-.447.662-1.062.662-1.846 0-.786-.22-1.401-.662-1.848-.442-.446-1.052-.67-1.832-.67zm0 .907c.384 0 .68.14.89.422.21.281.315.678.315 1.189 0 .509-.104.906-.314 1.187-.21.282-.507.422-.89.422-.382 0-.678-.14-.888-.422-.21-.281-.316-.678-.316-1.187 0-.511.106-.908.316-1.19.21-.281.506-.421.887-.421zm3.568 3.275v4.852h2.077c.645 0 1.127-.115 1.443-.344.316-.23.475-.58.475-1.047 0-.305-.074-.563-.221-.773a1.115 1.115 0 0 0-.625-.432c.21-.08.37-.203.48-.367.11-.167.166-.37.166-.606 0-.448-.151-.775-.455-.978-.3-.204-.787-.305-1.46-.305h-1.88zm1.252.852h.692c.197 0 .345.044.447.132.102.087.154.214.154.381 0 .17-.052.296-.154.383-.102.087-.25.13-.447.13h-.692v-1.026zm-.002 1.879h.735c.253 0 .444.052.57.158.126.104.188.26.188.47 0 .215-.064.377-.192.483-.125.106-.315.158-.566.158h-.735v-1.27z" style="fill:currentColor" class="ColorScheme-Text"/>
</svg>
