<svg xmlns="http://www.w3.org/2000/svg" width="22" height="22" version="1.1">
 <defs>
  <style id="current-color-scheme" type="text/css">
   .ColorScheme-Text { color:#d3dae3; } .ColorScheme-Highlight { color:#5294e2; }
  </style>
 </defs>
 <path d="m11.006 17a2.502 2.502 0 0 1-2.375-3.286c0-0.025 0.017-0.051 0.023-0.076 0.063-0.21 0.998-3.275 2.354-6.023v5e-3c1.448 3 2.368 6.094 2.368 6.094a2.502 2.502 0 0 1-2.375 3.286zm5.495-5a1.5 1.5 0 0 1-1.424-1.97c0-0.016 0.015-0.031 0.015-0.046 0.038-0.127 0.599-1.965 1.412-3.613v2e-3c0.868 1.8 1.42 3.656 1.42 3.656a1.5 1.5 0 0 1-1.425 1.97zm-11 0a1.5 1.5 0 0 1-1.424-1.97c0-0.016 0.015-0.032 0.015-0.046 0.038-0.127 0.599-1.965 1.412-3.613v2e-3c0.868 1.8 1.42 3.656 1.42 3.656a1.5 1.5 0 0 1-1.425 1.97z" style="fill:currentColor" class="ColorScheme-Text" />
</svg>
