<svg xmlns="http://www.w3.org/2000/svg" width="22" height="22" version="1.1">
 <defs>
  <style id="current-color-scheme" type="text/css">
   .ColorScheme-Text { color:#d3dae3; } .ColorScheme-Highlight { color:#5294e2; }
  </style>
 </defs>
 <path style="fill:currentColor" class="ColorScheme-Text" d="m11.641 3.668c-2.158 2e-3 -3.992 1.331-4.868 3.232l-0.061 0.13-0.139 0.01c-1.994 0.144-3.572 1.87-3.572 3.968 0 0.727 0.201 1.403 0.531 1.992h1.201a3.057 3.057 0 0 1-0.732-1.992c0-1.597 1.184-2.866 2.644-2.973l0.723-0.05 0.31-0.663v-4e-3c0.729-1.58 2.213-2.649 3.961-2.65 2.368 2e-3 4.292 1.952 4.405 4.447v0.01l0.05 0.776 0.704 0.296a1.944 1.944 0 0 1 1.195 1.815c0.01 1.114-0.846 1.988-1.871 1.988h-13.123v1h13.122c1.591 0 2.877-1.35 2.877-2.988a2.958 2.958 0 0 0-1.805-2.735l-0.137-0.058-0.01-0.149c-0.135-2.993-2.486-5.4-5.404-5.402zm-8.64 12.332v1h16v-1zm0 2v1h16v-1z"/>
</svg>
