<svg xmlns="http://www.w3.org/2000/svg" width="22" height="22" version="1.1">
 <defs>
  <style id="current-color-scheme" type="text/css">
   .ColorScheme-Text { color:#d3dae3; } .ColorScheme-Highlight { color:#5294e2; }
  </style>
 </defs>
 <path style="fill:currentColor" class="ColorScheme-Text" d="m16.405 6a2.491 2.491 0 0 0-1.816 0.89c-0.46 0.514 0.34 1.186 0.766 0.643a1.495 1.495 0 0 1 1.822-0.375c0.623 0.313 0.946 1.007 0.785 1.686a1.495 1.495 0 0 1-1.459 1.154h-12.008c-0.822 0-1.5 0.678-1.5 1.5a1.508 1.508 0 0 0 1.51 1.502h9.01c0.235 0 0.432 0.155 0.487 0.383a0.495 0.495 0 0 1-0.262 0.562 0.495 0.495 0 0 1-0.608-0.125c-0.425-0.542-1.226 0.13-0.765 0.643a1.499 1.499 0 0 0 1.822 0.377c0.619-0.31 0.945-1.014 0.785-1.688a1.489 1.489 0 0 0-1.293-1.123 0.5 0.5 0 0 0-0.174-0.029h-9.01v-2e-3a0.493 0.493 0 0 1-0.5-0.5c0-0.282 0.218-0.5 0.5-0.5h12.008a0.506 0.506 0 0 0 0.1-8e-3 2.502 2.502 0 0 0 2.334-1.916 2.504 2.504 0 0 0-1.31-2.81 2.496 2.496 0 0 0-1.221-0.264zm-4.705 0.01a1.497 1.497 0 0 0-1.338 0.523c-0.46 0.513 0.34 1.186 0.766 0.643 0.15-0.18 0.398-0.23 0.607-0.125 0.21 0.105 0.316 0.334 0.262 0.562a0.495 0.495 0 0 1-0.486 0.385h-5.01c-0.676-0.01-0.676 1.01 0 1h5.01c0.055 0 0.11-9e-3 0.162-0.027a1.492 1.492 0 0 0 1.295-1.127 1.503 1.503 0 0 0-1.27-1.834z"/>
</svg>
