<svg xmlns="http://www.w3.org/2000/svg" width="22" height="22" version="1.1">
 <defs>
  <style id="current-color-scheme" type="text/css">
   .ColorScheme-Text { color:#d3dae3; } .ColorScheme-Highlight { color:#F04A50; }
  </style>
 </defs>
 <g transform="translate(3.001 3)">
  <g>
   <path style="fill:currentColor" class="ColorScheme-Highlight" d="m6.7994 12.713v-0.14576q0-0.5466 0.14576-0.83813 0.14576-0.32796 0.65592-0.76524 0.51016-0.43728 0.65592-0.69236 0.14576-0.29152 0.14576-0.7288t-0.29152-0.69236q-0.25508-0.25508-0.76524-0.25508-0.5466 0-1.3483 0.3644l-0.29152-0.65592q0.91101-0.43728 1.6398-0.43728 0.87457 0 1.3483 0.47372 0.51016 0.43728 0.51016 1.2025 0 0.51016-0.1822 0.87457-0.1822 0.3644-0.76524 0.87457-0.5466 0.51016-0.69236 0.7288-0.10932 0.21864-0.10932 0.61948v0.07288zm0.94745 1.3847q0 0.32796-0.14576 0.51016-0.14576 0.14576-0.43728 0.14576t-0.43728-0.14576q-0.14576-0.1822-0.14576-0.51016t0.14576-0.47372q0.14576-0.14576 0.43728-0.14576t0.43728 0.14576 0.14576 0.47372z"/>
  </g>
  <path style="fill:currentColor" class="ColorScheme-Text" d="m8.64 0.668c-2.158 2e-3 -3.992 1.331-4.868 3.232l-0.061 0.13-0.139 0.01c-1.994 0.144-3.572 1.87-3.572 3.968 0 2.193 1.716 3.992 3.838 3.992h2.162v-1h-2.162c-1.557 0-2.838-1.321-2.838-2.992 0-1.597 1.184-2.866 2.644-2.973l0.723-0.05 0.31-0.663v-4e-3c0.729-1.58 2.213-2.649 3.961-2.65 2.368 2e-3 4.292 1.952 4.405 4.447v0.01l0.05 0.776 0.704 0.296a1.944 1.944 0 0 1 1.195 1.815c0.01 1.114-0.846 1.988-1.871 1.988h-3.123v1h3.123c1.591 0 2.877-1.35 2.877-2.988a2.958 2.958 0 0 0-1.805-2.735l-0.136-0.058-0.01-0.149c-0.136-2.993-2.487-5.4-5.405-5.402z"/>
 </g>
</svg>
