<svg xmlns="http://www.w3.org/2000/svg" width="22" height="22" version="1.1">
 <defs>
  <style id="current-color-scheme" type="text/css">
   .ColorScheme-Text { color:#d3dae3; } .ColorScheme-Highlight { color:#5294e2; }
  </style>
 </defs>
 <path d="m11.641 5.668c-2.159 2e-3 -3.993 1.331-4.87 3.232l-0.06 0.13-0.139 0.01c-1.994 0.143-3.572 1.87-3.572 3.967 0 2.193 1.716 3.993 3.838 3.993h9.285c1.591 0 2.877-1.35 2.877-2.988a2.958 2.958 0 0 0-1.805-2.735l-0.136-0.058-0.01-0.149c-0.136-2.993-2.487-5.4-5.405-5.402zm0 1c2.368 2e-3 4.291 1.952 4.404 4.447v0.01l0.051 0.775 0.703 0.297a1.944 1.944 0 0 1 1.196 1.815c0.01 1.114-0.846 1.988-1.871 1.988h-9.286c-1.556 0-2.837-1.321-2.837-2.992-1e-3 -1.598 1.184-2.866 2.644-2.973l0.723-0.05 0.31-0.663v-4e-3c0.728-1.58 2.213-2.648 3.961-2.65z" style="fill:currentColor" class="ColorScheme-Text"/>
</svg>
