<svg width="22" height="22" version="1.1" xmlns="http://www.w3.org/2000/svg">
 <defs>
  <style id="current-color-scheme" type="text/css">.ColorScheme-Text { color:#d3dae3; } .ColorScheme-Highlight { color:#5294e2; }</style>
 </defs>
 <g class="ColorScheme-Text" transform="matrix(1.2874 0 0 1.2874 .70086 1.3442)" style="fill:currentColor">
  <path d="m9.399 6.918c-1.349 2e-3 -2.494 0.832-3.041 2.02l-0.04 0.08-0.085 8e-3c-1.247 0.09-2.233 1.168-2.233 2.48 0 1.37 1.072 2.494 2.4 2.494h5.8c0.995 0 1.8-0.843 1.8-1.867a1.85 1.85 0 0 0-1.13-1.71l-0.086-0.036-0.01-0.092c-0.084-1.87-1.551-3.375-3.374-3.377zm0 1c1.272 2e-3 2.316 1.05 2.378 2.422v0.031l0.076 0.705 0.627 0.268c0.305 0.13 0.52 0.413 0.52 0.789 0 0.5-0.37 0.867-0.799 0.867h-5.803c-0.76 0-1.398-0.645-1.398-1.494 0-0.81 0.591-1.432 1.303-1.485l0.672-0.046 0.289-0.616v-4e-3c0.399-0.866 1.193-1.435 2.13-1.437z"/>
  <path d="m9.5 1a3.5 3.5 0 0 0-3.166 2.018 3.5 3.5 0 0 0-3.803 3.04 2 2 0 0 0 0.47 3.942h0.269a3.5 3.25 0 0 1 0.71-1h-0.982c-0.564 0-1-0.436-1-1a0.99 0.99 0 0 1 0.766-0.97l0.67-0.163 0.088-0.683a2.488 2.488 0 0 1 2.71-2.172l0.706 0.072 0.3-0.643a2.496 2.496 0 0 1 2.26-1.441 2.485 2.485 0 0 1 2.498 2.498v2e-3a2.3 2.3 0 0 1-0.033 0.379l-0.16 0.969 0.965 0.18a1.489 1.489 0 0 1 1.229 1.472c0 0.84-0.66 1.5-1.5 1.5h-0.498v1h0.5a2.5 2.5 0 0 0 0.453-4.957c0.03-0.18 0.045-0.361 0.047-0.543a3.5 3.5 0 0 0-3.5-3.5z"/>
 </g>
</svg>
