<svg xmlns="http://www.w3.org/2000/svg" width="22" height="22" version="1.1">
 <defs>
  <style id="current-color-scheme" type="text/css">
   .ColorScheme-Text { color:#d3dae3; } .ColorScheme-Highlight { color:#5294e2; } .ColorScheme-Error { color:#F04A50; }
  </style>
 </defs>
 <g transform="translate(3.001 3)" >
  <path d="m8.64 0.668c-2.158 2e-3 -3.992 1.331-4.868 3.232l-0.061 0.13-0.139 0.01c-1.994 0.144-3.572 1.87-3.572 3.968 0 2.193 1.716 3.992 3.838 3.992h2.162v-1h-2.162c-1.557 0-2.838-1.321-2.838-2.992 0-1.597 1.184-2.866 2.644-2.973l0.723-0.05 0.31-0.663v-4e-3c0.729-1.58 2.213-2.649 3.961-2.65 2.368 2e-3 4.292 1.952 4.405 4.447v0.01l0.05 0.776 0.704 0.296a1.944 1.944 0 0 1 1.195 1.815c0.01 1.114-0.846 1.988-1.871 1.988h-3.123v1h3.123c1.591 0 2.877-1.35 2.877-2.988a2.958 2.958 0 0 0-1.805-2.735l-0.136-0.058-0.01-0.149c-0.136-2.993-2.487-5.4-5.405-5.402z" style="fill:currentColor" class="ColorScheme-Text"/>
  <path style="fill:currentColor" class="ColorScheme-Error" d="m7.291 6v2.662c0 0.793 0.03 1.517 0.086 2.168 0.057 0.642 0.128 1.284 0.213 1.926h0.82c0.085-0.642 0.157-1.284 0.213-1.926 0.057-0.651 0.086-1.375 0.086-2.168v-2.662zm0.71 8.102c-0.294 0-0.524 0.094-0.694 0.283a0.965 0.965 0 0 0-0.256 0.666c0 0.255 0.086 0.477 0.256 0.666s0.4 0.283 0.693 0.283 0.524-0.094 0.694-0.283a0.965 0.965 0 0 0 0.255-0.666 0.965 0.965 0 0 0-0.255-0.666c-0.17-0.19-0.401-0.283-0.694-0.283z"/>
 </g>
</svg>
