<?xml version="1.0" encoding="UTF-8" standalone="no"?>
<svg
   xmlns:dc="http://purl.org/dc/elements/1.1/"
   xmlns:cc="http://creativecommons.org/ns#"
   xmlns:rdf="http://www.w3.org/1999/02/22-rdf-syntax-ns#"
   xmlns:svg="http://www.w3.org/2000/svg"
   xmlns="http://www.w3.org/2000/svg"
   xmlns:sodipodi="http://sodipodi.sourceforge.net/DTD/sodipodi-0.dtd"
   xmlns:inkscape="http://www.inkscape.org/namespaces/inkscape"
   viewBox="0 0 22 22"
   version="1.1"
   id="svg4"
   sodipodi:docname="applications-graphics.svg"
   inkscape:version="0.92.2 (5c3e80d, 2017-08-06)">
  <metadata
     id="metadata10">
    <rdf:RDF>
      <cc:Work
         rdf:about="">
        <dc:format>image/svg+xml</dc:format>
        <dc:type
           rdf:resource="http://purl.org/dc/dcmitype/StillImage" />
        <dc:title />
      </cc:Work>
    </rdf:RDF>
  </metadata>
  <defs
     id="defs8" />
  <sodipodi:namedview
     pagecolor="#ffffff"
     bordercolor="#666666"
     borderopacity="1"
     objecttolerance="10"
     gridtolerance="10"
     guidetolerance="10"
     inkscape:pageopacity="0"
     inkscape:pageshadow="2"
     inkscape:window-width="1360"
     inkscape:window-height="718"
     id="namedview6"
     showgrid="true"
     inkscape:zoom="15.170655"
     inkscape:cx="7.0613963"
     inkscape:cy="9.3614059"
     inkscape:window-x="0"
     inkscape:window-y="24"
     inkscape:window-maximized="1"
     inkscape:current-layer="svg4">
    <inkscape:grid
       type="xygrid"
       id="grid4506" />
  </sodipodi:namedview>
  <path
     style="fill:#535964;fill-opacity:1;stroke:none;stroke-width:1px;stroke-linecap:butt;stroke-linejoin:miter;stroke-opacity:1"
     d="M 8.9765625 1.2089844 C 0.9990605 0.99998514 -1.1778732 8.914199 1.3632812 8.9335938 C 9.9999507 8.9995104 2.00045 12.000015 3.9570312 18.791016 C 5.3239651 23.535439 18.793472 21.42865 20.857422 16.111328 C 23.156088 10.189309 15.326877 1.3753536 8.9765625 1.2089844 z M 5.9433594 3.9003906 A 2.0039771 2.0039771 0 0 1 5.9453125 3.9003906 A 2.0039771 2.0039771 0 0 1 6.0839844 3.9023438 A 2.0039771 2.0039771 0 0 1 8 5.9863281 L 8 6 A 2.0039771 2.0039771 0 0 1 5.90625 7.90625 A 2.0039771 2.0039771 0 0 1 3.9960938 5.8164062 A 2.0039771 2.0039771 0 0 1 5.9433594 3.9003906 z M 13.460938 6 A 1.5 1.5 0 0 1 13.5625 6.0019531 A 1.5 1.5 0 0 1 14.998047 7.5605469 L 14.998047 7.5722656 A 1.5 1.5 0 0 1 13.431641 8.9980469 A 1.5 1.5 0 0 1 12.001953 7.4335938 A 1.5 1.5 0 0 1 13.460938 6 z M 16.460938 10.429688 A 1.5 1.5 0 0 1 16.564453 10.429688 A 1.5 1.5 0 0 1 18 11.988281 L 18 12 A 1.5 1.5 0 0 1 16.433594 13.425781 A 1.5 1.5 0 0 1 15.003906 11.861328 A 1.5 1.5 0 0 1 16.460938 10.429688 z M 13.460938 15.429688 A 1.5 1.5 0 0 1 13.564453 15.429688 A 1.5 1.5 0 0 1 15 16.988281 L 15 17 A 1.5 1.5 0 0 1 13.433594 18.425781 A 1.5 1.5 0 0 1 12.003906 16.861328 A 1.5 1.5 0 0 1 13.460938 15.429688 z "
     id="path4639" />
</svg>
