<?xml version="1.0" encoding="UTF-8" standalone="no"?>
<svg
   xmlns:dc="http://purl.org/dc/elements/1.1/"
   xmlns:cc="http://creativecommons.org/ns#"
   xmlns:rdf="http://www.w3.org/1999/02/22-rdf-syntax-ns#"
   xmlns:svg="http://www.w3.org/2000/svg"
   xmlns="http://www.w3.org/2000/svg"
   xmlns:sodipodi="http://sodipodi.sourceforge.net/DTD/sodipodi-0.dtd"
   xmlns:inkscape="http://www.inkscape.org/namespaces/inkscape"
   viewBox="0 0 22 22"
   version="1.1"
   id="svg4"
   sodipodi:docname="applications-system.svg"
   inkscape:version="0.92.2 (5c3e80d, 2017-08-06)">
  <metadata
     id="metadata10">
    <rdf:RDF>
      <cc:Work
         rdf:about="">
        <dc:format>image/svg+xml</dc:format>
        <dc:type
           rdf:resource="http://purl.org/dc/dcmitype/StillImage" />
        <dc:title />
      </cc:Work>
    </rdf:RDF>
  </metadata>
  <defs
     id="defs8" />
  <sodipodi:namedview
     pagecolor="#ffffff"
     bordercolor="#666666"
     borderopacity="1"
     objecttolerance="10"
     gridtolerance="10"
     guidetolerance="10"
     inkscape:pageopacity="0"
     inkscape:pageshadow="2"
     inkscape:window-width="1360"
     inkscape:window-height="718"
     id="namedview6"
     showgrid="true"
     inkscape:zoom="21.454545"
     inkscape:cx="7.0613963"
     inkscape:cy="9.3614059"
     inkscape:window-x="0"
     inkscape:window-y="24"
     inkscape:window-maximized="1"
     inkscape:current-layer="svg4">
    <inkscape:grid
       type="xygrid"
       id="grid4506" />
  </sodipodi:namedview>
  <path
     style="fill:#535964;fill-opacity:1;stroke:none;stroke-width:3.77952766;stroke-linecap:butt;stroke-linejoin:round;stroke-miterlimit:4;stroke-dasharray:none;stroke-opacity:0.52147241"
     d="M 5,1.1210938 V 3 L 3.671875,1.671875 1.5507812,3.7929688 2.8789062,5.1210938 H 0.99999998 v 3 H 2.8789062 L 1.5507812,9.4492188 3.671875,11.570313 5,10.242188 v 1.878906 h 3 v -1.878906 l 1.328125,1.328125 2.121094,-2.1210942 -1.328125,-1.328125 H 12 v -3 H 10.121094 L 11.449219,3.7929688 9.328125,1.671875 8,3 V 1.1210938 Z m 1.4121093,2.2050781 a 3.297066,3.297066 0 0 1 0.2265626,0 3.297066,3.297066 0 0 1 3.1542968,3.4277344 v 0.025391 A 3.297066,3.297066 0 0 1 6.3476562,9.9140628 3.297066,3.297066 0 0 1 3.2050781,6.4765626 3.297066,3.297066 0 0 1 6.4121093,3.3261719 Z"
     id="rect4603"
     inkscape:connector-curvature="0" />
  <path
     inkscape:connector-curvature="0"
     id="path4618"
     d="m 16.15428,9.5253951 -0.761278,1.7177729 -0.676109,-1.7523436 -2.798596,1.0797866 0.676109,1.752343 -1.717773,-0.761277 -1.2155119,2.742723 1.7177729,0.761278 -1.7523434,0.676109 1.0797864,2.798596 1.752343,-0.676109 -0.761277,1.717773 2.742723,1.215512 0.761278,-1.717773 0.676109,1.752344 2.798596,-1.079787 L 18,18 l 1.717773,0.761277 1.215512,-2.742723 -1.717773,-0.761278 1.752344,-0.676109 -1.079787,-2.798596 -1.752343,0.676109 0.761277,-1.717773 z m 0.397575,2.5881179 a 3.297066,3.297066 0 0 1 0.207133,0.0918 3.297066,3.297066 0 0 1 1.494971,4.411805 l -0.01029,0.02321 a 3.297066,3.297066 0 0 1 -4.419961,1.469991 3.297066,3.297066 0 0 1 -1.4803,-4.415984 3.297066,3.297066 0 0 1 4.208445,-1.580821 z"
     style="fill:#535964;fill-opacity:1;stroke:none;stroke-width:3.77952766;stroke-linecap:butt;stroke-linejoin:round;stroke-miterlimit:4;stroke-dasharray:none;stroke-opacity:0.52147241" />
</svg>
