<?xml version="1.0" encoding="UTF-8" standalone="no"?>
<svg
   xmlns:dc="http://purl.org/dc/elements/1.1/"
   xmlns:cc="http://creativecommons.org/ns#"
   xmlns:rdf="http://www.w3.org/1999/02/22-rdf-syntax-ns#"
   xmlns:svg="http://www.w3.org/2000/svg"
   xmlns="http://www.w3.org/2000/svg"
   xmlns:sodipodi="http://sodipodi.sourceforge.net/DTD/sodipodi-0.dtd"
   xmlns:inkscape="http://www.inkscape.org/namespaces/inkscape"
   viewBox="0 0 22 22"
   version="1.1"
   id="svg4"
   sodipodi:docname="applications-office.svg"
   inkscape:version="0.92.2 (5c3e80d, 2017-08-06)">
  <metadata
     id="metadata10">
    <rdf:RDF>
      <cc:Work
         rdf:about="">
        <dc:format>image/svg+xml</dc:format>
        <dc:type
           rdf:resource="http://purl.org/dc/dcmitype/StillImage" />
        <dc:title />
      </cc:Work>
    </rdf:RDF>
  </metadata>
  <defs
     id="defs8" />
  <sodipodi:namedview
     pagecolor="#ffffff"
     bordercolor="#666666"
     borderopacity="1"
     objecttolerance="10"
     gridtolerance="10"
     guidetolerance="10"
     inkscape:pageopacity="0"
     inkscape:pageshadow="2"
     inkscape:window-width="1360"
     inkscape:window-height="718"
     id="namedview6"
     showgrid="true"
     inkscape:zoom="7.5853273"
     inkscape:cx="-3.4466043"
     inkscape:cy="8.8165506"
     inkscape:window-x="0"
     inkscape:window-y="24"
     inkscape:window-maximized="1"
     inkscape:current-layer="svg4">
    <inkscape:grid
       type="xygrid"
       id="grid4506" />
  </sodipodi:namedview>
  <path
     style="fill:#535964;fill-opacity:0.4770115;stroke:none;stroke-width:3.77952766;stroke-linecap:butt;stroke-linejoin:round;stroke-miterlimit:4;stroke-dasharray:none;stroke-opacity:0.52147241"
     d="m 4,2 h 9 c 0.554,0 1,0.446 1,1 V 5.1271186 L 8.160573,5.1199435 8.0169492,19 H 4 C 3.446,19 3,18.554 3,18 V 3 C 3,2.446 3.446,2 4,2 Z"
     id="rect4768"
     inkscape:connector-curvature="0"
     sodipodi:nodetypes="ssscccssss" />
  <path
     style="fill:#535964;fill-opacity:1;stroke:none;stroke-width:3.77952766;stroke-linecap:butt;stroke-linejoin:round;stroke-miterlimit:4;stroke-dasharray:none;stroke-opacity:0.52147241"
     d="M 8,4 C 7.446,4 7,4.446 7,5 v 15 c 0,0.554 0.446,1 1,1 h 9 c 0.554,0 1,-0.446 1,-1 V 5 C 18,4.446 17.554,4 17,4 Z m 2,2 h 3 l 3,3 v 9 c 0,0.554 -0.446,1 -1,1 H 10 C 9.446,19 9,18.554 9,18 V 7 C 9,6.446 9.446,6 10,6 Z"
     id="rect4766"
     inkscape:connector-curvature="0"
     sodipodi:nodetypes="ssssssssssccssssss" />
</svg>
