<?xml version="1.0" encoding="UTF-8"?>
<svg width="64" height="64" version="1.1" viewBox="0 0 16.933 16.933" xmlns="http://www.w3.org/2000/svg" xmlns:xlink="http://www.w3.org/1999/xlink">
 <defs>
  <filter id="filter20485" x="-.047567" y="-.04844" width="1.0951" height="1.0969" color-interpolation-filters="sRGB">
   <feGaussianBlur stdDeviation="0.30438615"/>
  </filter>
 </defs>
 <g stroke-linecap="round" stroke-linejoin="round">
  <path d="m3.4395 1.0583c-0.73289 0-1.2359 0.35271-1.3126 1.0816l-1.3332 12.564c-0.076641 0.72886 0.59001 1.4358 1.3229 1.4358h12.7c0.73289 0 1.3995-0.7069 1.3229-1.4358l-1.3332-12.564c-0.076646-0.72886-0.57967-1.0816-1.3126-1.0816h-5.027z" filter="url(#filter20485)" opacity=".2" stroke-width=".86547"/>
  <path d="m3.4395 0.79374c-0.73289 0-1.2359 0.35271-1.3126 1.0816l-1.3332 12.564c-0.076641 0.72886 0.59001 1.4358 1.3229 1.4358h12.7c0.73289 0 1.3995-0.7069 1.3229-1.4358l-1.3332-12.564c-0.076646-0.72886-0.57967-1.0816-1.3126-1.0816h-5.027z" fill="#d6dee0" stroke-width=".86547"/>
  <rect x=".793" y="13.228" width="15.346" height="2.6458" rx="1.3229" ry="1.3229" fill="#a1acaf" stroke-width=".83667"/>
 </g>
 <g stroke-linecap="round" stroke-linejoin="round">
  <path d="m2.1166 13.494c-0.58631 0-1.0583 0.47201-1.0583 1.0583s0.47201 1.0583 1.0583 1.0583h12.7c0.58631 0 1.0583-0.47201 1.0583-1.0583s-0.47201-1.0583-1.0583-1.0583zm0 0.13229h12.7c0.51302 0 0.92603 0.41301 0.92603 0.92603s-0.41301 0.92603-0.92603 0.92603h-12.7c-0.51302 0-0.92603-0.41301-0.92603-0.92603s0.41301-0.92603 0.92603-0.92603z" stroke-width=".73532"/>
  <circle cx="14.816" cy="14.551" r=".30612" fill="#333" stroke-width=".91835"/>
  <circle cx="14.816" cy="14.551" r=".26458" fill="#62d346" stroke-width=".79373"/>
  <path transform="scale(.26458)" d="m13 3c-2.77 0-4.6713 1.3331-4.9609 4.0879l-5.0391 47.486c-0.032585 0.30989-0.029012 0.61777 0.0058594 0.92188l5.0332-47.422c0.2896-2.7548 2.1909-4.0879 4.9609-4.0879h19 19c2.77 0 4.6712 1.3331 4.9609 4.0879l5.0332 47.422c0.034869-0.3041 0.038448-0.61199 0.005859-0.92188l-5.0391-47.486c-0.28969-2.7548-2.1909-4.0879-4.9609-4.0879h-19-19z" fill="#fff" opacity=".35"/>
 </g>
</svg>
