<svg xmlns="http://www.w3.org/2000/svg" xmlns:osb="http://www.openswatchbook.org/uri/2009/osb" xmlns:svg="http://www.w3.org/2000/svg" id="svg11300" width="48" height="48" version="1.0" style="display:inline;enable-background:new"><defs id="defs3"><linearGradient id="selected_bg_color" osb:paint="solid"><stop style="stop-color:#5294e2;stop-opacity:1" id="stop4140" offset="0"/></linearGradient></defs><metadata id="metadata4"/><g style="display:inline" id="layer1" transform="translate(0,-252)"><path d="m 29.300605,263.77552 c 1.241756,-1.54604 2.083667,-3.64658 1.851379,-5.77552 -1.788491,0.075 -4.016806,1.24226 -5.307753,2.7433 -1.140333,1.33176 -2.153369,3.50856 -1.890997,5.56043 2.007081,0.1498 4.06267,-1.01559 5.347289,-2.52805 z m 4.525124,13.37571 c -0.0429,-4.5528 3.725274,-6.76334 3.895914,-6.86874 -2.131817,-3.11142 -5.437295,-3.53306 -6.602787,-3.57148 -2.77797,-0.28304 -5.467097,1.6691 -6.884224,1.6691 -1.442242,-2e-4 -3.620284,-1.63532 -5.966007,-1.58882 -3.023559,0.0452 -5.854887,1.79594 -7.404881,4.50706 -3.1909978,5.5412 -0.812151,13.67978 2.252708,18.14795 1.535294,2.1995 3.323745,4.64766 5.669506,4.55092 2.294247,-0.0872 3.149539,-1.45668 5.922504,-1.45668 2.743926,0 3.547704,1.45668 5.941651,1.40982 2.46365,-0.0404 4.013082,-2.20346 5.495181,-4.41206 1.765137,-2.5195 2.477867,-4.98949 2.506307,-5.12105 -0.05492,-0.0204 -4.7754,-1.8156 -4.825872,-7.26602 z" style="display:inline;fill:#fff;fill-opacity:1;fill-rule:evenodd;stroke-width:.40056705;enable-background:new" id="path121"/></g></svg>