<svg width="24" height="24" version="1.1" viewBox="0 0 24 24"><defs><filter id="filter946" width="1.189" height="1.253" x="-.094" y="-.126" color-interpolation-filters="sRGB"><feGaussianBlur stdDeviation=".393"/></filter><linearGradient id="linearGradient866" x1="11" x2="11" y1="21" y2="4" gradientUnits="userSpaceOnUse"><stop offset="0" stop-color="#000" stop-opacity=".35"/><stop offset="1" stop-color="#000" stop-opacity=".1"/></linearGradient></defs><rect width="16" height="16" x="4" y="4" fill="none"/><rect width="20" height="20" x="2" y="2" opacity=".12" rx="4" ry="4"/><rect width="18" height="18" x="3" y="3" fill="#0860f2" rx="3" ry="3"/><rect width="18" height="18" x="3" y="3" fill="#fff" opacity=".1" rx="3" ry="3"/><rect width="18" height="17" x="3" y="4" fill="url(#linearGradient866)" rx="3" ry="3"/><rect width="3" height="1" x="13.79" y="1.183" fill-opacity="0" transform="rotate(45)"/><path fill="#000" d="m15.806 9.1937c-0.30486 0-0.60961 0.1158-0.84321 0.3494l-4.2161 4.2161-1.7633-1.761c-0.42502-0.42502-1.1424-0.39264-1.6095 0.07454-0.46719 0.46718-0.50189 1.1869-0.076923 1.6119l2.6066 2.6042 0.0768 0.07686c0.42502 0.42502 1.1424 0.39032 1.6095-0.07686l5.0593-5.0593c0.46719-0.46719 0.46719-1.2192 0-1.6865-0.2336-0.2336-0.53836-0.3494-0.84321-0.3494z" filter="url(#filter946)" opacity=".15"/><path fill="#fff" d="m15.806 8.2653c-0.30486 0-0.60961 0.1158-0.84321 0.3494l-4.2161 4.2161-1.7633-1.761c-0.42502-0.42502-1.1424-0.39264-1.6095 0.07454-0.46719 0.46718-0.50189 1.1869-0.076923 1.6119l2.6066 2.6042 0.0768 0.07686c0.42502 0.42502 1.1424 0.39032 1.6095-0.07686l5.0593-5.0593c0.46719-0.46719 0.46719-1.2192 0-1.6865-0.2336-0.2336-0.53836-0.3494-0.84321-0.3494z"/></svg>