<svg xmlns="http://www.w3.org/2000/svg" xmlns:svg="http://www.w3.org/2000/svg" id="Foreground" width="42" height="42" enable-background="new 0 0 16 16" version="1.0" viewBox="0 0 30.545 30.545"><metadata id="metadata16"/><defs id="defs5"><filter id="filter879" width="1.096" height="1.096" x="-.048" y="-.048" color-interpolation-filters="sRGB"><feGaussianBlur id="feGaussianBlur2" stdDeviation=".32"/></filter><filter style="color-interpolation-filters:sRGB" id="filter1038" width="1.078" height="1.078" x="-.039" y="-.039"><feGaussianBlur id="feGaussianBlur1040" stdDeviation=".401"/></filter></defs><circle id="circle968" cx="15.273" cy="15.273" r="12.364" fill="#f75a61" stroke-width="0" style="opacity:.1;fill:#000;filter:url(#filter1038)"/><circle id="circle9-3" cx="15.273" cy="14.545" r="12.364" fill="#f75a61" stroke-width="0"/><circle id="circle863" cx="15.273" cy="14.545" r="12.364" fill="#f75a61" stroke-width="0" style="fill:#000;opacity:.15"/><path id="rect835-6" style="fill:#fff;stroke-width:1.48723;stroke-linecap:round;stroke-linejoin:round" d="m 21.186609,8.6314289 c -0.142449,-0.1424492 -0.371808,-0.1424492 -0.514257,0 L 15.272653,14.031127 9.8729549,8.6314289 c -0.1424492,-0.1424492 -0.3718078,-0.1424492 -0.514257,0 -0.1424492,0.1424492 -0.1424492,0.3718078 0,0.514257 l 5.3996981,5.3996981 -5.3996981,5.399699 c -0.1424492,0.142449 -0.1424492,0.371808 0,0.514257 0.1424492,0.142449 0.3718078,0.142449 0.514257,0 l 5.3996981,-5.399699 5.399699,5.399699 c 0.142449,0.142449 0.371808,0.142449 0.514257,0 0.142449,-0.142449 0.142449,-0.371808 0,-0.514257 L 15.78691,14.545384 21.186609,9.1456859 c 0.142449,-0.1424492 0.142449,-0.3718078 0,-0.514257 z"/><path id="circle840" d="M 15.268393,2.1818077 A 12.363577,12.363577 0 0 0 2.909077,14.545385 12.363577,12.363577 0 0 0 2.9147588,14.91186 12.363577,12.363577 0 0 1 15.272654,2.909077 12.363577,12.363577 0 0 1 27.63055,14.906179 12.363577,12.363577 0 0 0 27.63625,14.545385 12.363577,12.363577 0 0 0 15.272673,2.1818077 a 12.363577,12.363577 0 0 0 -0.0043,0 z" style="opacity:.1;fill:#fff;stroke-width:.727269"/></svg>