<svg xmlns="http://www.w3.org/2000/svg" xmlns:svg="http://www.w3.org/2000/svg" id="Foreground" width="42" height="42" enable-background="new 0 0 16 16" version="1.0" viewBox="0 0 30.545 30.545"><metadata id="metadata16"/><defs id="defs5"><filter style="color-interpolation-filters:sRGB" id="filter964" width="1.216" height="1.216" x="-.108" y="-.108"><feGaussianBlur id="feGaussianBlur966" stdDeviation="1.113"/></filter><filter style="color-interpolation-filters:sRGB" id="filter1038" width="1.078" height="1.078" x="-.039" y="-.039"><feGaussianBlur id="feGaussianBlur1040" stdDeviation=".401"/></filter></defs><circle id="circle968" cx="15.273" cy="15.273" r="12.364" fill="#f75a61" stroke-width="0" style="fill:#000;opacity:.05;filter:url(#filter1038)"/><circle id="circle845" cx="15.273" cy="15.273" r="12.364" fill="#f75a61" stroke-width="0" style="fill:#000;filter:url(#filter964);opacity:.15"/><circle id="circle9" cx="15.273" cy="14.545" r="12.364" fill="#f75a61" stroke-width="0"/><path id="rect835" style="opacity:1;fill:#fff;stroke-width:1.48723;stroke-linecap:round;stroke-linejoin:round" d="m 21.186609,8.6314289 c -0.142449,-0.1424492 -0.371808,-0.1424492 -0.514257,0 L 15.272653,14.031127 9.8729549,8.6314289 c -0.1424492,-0.1424492 -0.3718078,-0.1424492 -0.514257,0 -0.1424492,0.1424492 -0.1424492,0.3718078 0,0.514257 l 5.3996981,5.3996981 -5.3996981,5.399699 c -0.1424492,0.142449 -0.1424492,0.371808 0,0.514257 0.1424492,0.142449 0.3718078,0.142449 0.514257,0 l 5.3996981,-5.399699 5.399699,5.399699 c 0.142449,0.142449 0.371808,0.142449 0.514257,0 0.142449,-0.142449 0.142449,-0.371808 0,-0.514257 L 15.78691,14.545384 21.186609,9.1456859 c 0.142449,-0.1424492 0.142449,-0.3718078 0,-0.514257 z"/><path id="circle840" d="M 20.994141 3 A 17 17 0 0 0 4 20 A 17 17 0 0 0 4.0078125 20.503906 A 17 17 0 0 1 21 4 A 17 17 0 0 1 37.992188 20.496094 A 17 17 0 0 0 38 20 A 17 17 0 0 0 21 3 A 17 17 0 0 0 20.994141 3 z" transform="scale(0.72726924)" style="fill:#fff;opacity:.1"/></svg>