<?xml version="1.0" encoding="UTF-8"?>
<svg height="16px" viewBox="0 0 16 16" width="16px" xmlns="http://www.w3.org/2000/svg">
    <path d="m 2.246094 3 c -0.152344 0 -0.257813 0.074219 -0.292969 0.203125 l -1.691406 8.621094 c -0.2265628 0.847656 1.558593 1.855469 2.738281 1.175781 l 2.75 -4 h 4.5 l 2.75 4 c 1.179688 0.679688 2.964844 -0.328125 2.738281 -1.175781 l -1.695312 -8.621094 c -0.035157 -0.128906 -0.136719 -0.203125 -0.289063 -0.203125 z m 2.003906 1 h 0.5 c 0.136719 0 0.25 0.113281 0.25 0.25 v 0.75 h 0.75 c 0.136719 0 0.25 0.113281 0.25 0.25 v 0.5 c 0 0.136719 -0.113281 0.25 -0.25 0.25 h -0.75 v 0.75 c 0 0.136719 -0.113281 0.25 -0.25 0.25 h -0.5 c -0.140625 0 -0.25 -0.113281 -0.25 -0.25 v -0.75 h -0.75 c -0.140625 0 -0.25 -0.113281 -0.25 -0.25 v -0.5 c 0 -0.136719 0.109375 -0.25 0.25 -0.25 h 0.75 v -0.75 c 0 -0.136719 0.109375 -0.25 0.25 -0.25 z m 6.25 0.75 c 0.414062 0 0.75 0.335938 0.75 0.75 s -0.335938 0.75 -0.75 0.75 s -0.75 -0.335938 -0.75 -0.75 s 0.335938 -0.75 0.75 -0.75 z m 2 1 c 0.414062 0 0.75 0.335938 0.75 0.75 s -0.335938 0.75 -0.75 0.75 s -0.75 -0.335938 -0.75 -0.75 s 0.335938 -0.75 0.75 -0.75 z m 0 0" fill="#2e3436"/>
</svg>
