<?xml version="1.0" encoding="UTF-8"?>
<svg height="16px" viewBox="0 0 16 16" width="16px" xmlns="http://www.w3.org/2000/svg">
    <path d="m 0.984375 -0.0117188 c -0.550781 0.00781255 -0.9921875 0.4609378 -0.984375 1.0117188 v 4 s 0.0078125 0.84375 0.574219 1.601562 c 0.449219 0.59375 1.257812 1.117188 2.425781 1.3125 v 1.085938 c -0.550781 0 -1 0.449219 -1 1 v 5 c 0 0.550781 0.449219 1 1 1 h 2 c 0.550781 0 1 -0.449219 1 -1 v -5 c 0 -0.550781 -0.449219 -1 -1 -1 v -1.085938 c 1.167969 -0.195312 1.976562 -0.71875 2.425781 -1.3125 c 0.566407 -0.757812 0.574219 -1.601562 0.574219 -1.601562 v -4 c 0.003906 -0.359375 -0.183594 -0.695312 -0.496094 -0.878906 c -0.3125 -0.1796878 -0.695312 -0.1796878 -1.007812 0 c -0.3125 0.183594 -0.5 0.519531 -0.496094 0.878906 v 3.5 c 0 0.277344 -0.222656 0.5 -0.5 0.5 s -0.5 -0.222656 -0.5 -0.5 v -3.5 c 0.003906 -0.269531 -0.101562 -0.53125 -0.292969 -0.722656 c -0.191406 -0.1914065 -0.453125 -0.2968752 -0.722656 -0.2890628 c -0.550781 0.00781255 -0.992187 0.4609378 -0.984375 1.0117188 v 3.5 c 0 0.277344 -0.222656 0.5 -0.5 0.5 s -0.5 -0.222656 -0.5 -0.5 v -3.5 c 0.003906 -0.269531 -0.101562 -0.53125 -0.292969 -0.722656 c -0.191406 -0.1914065 -0.453125 -0.2968752 -0.722656 -0.2890628 z m 12.984375 0.0117188 c -0.253906 0.0078125 -0.496094 0.113281 -0.675781 0.292969 c -1.734375 1.734375 -2.503907 4.160156 -2.898438 6.136719 c -0.394531 1.976562 -0.394531 3.570312 -0.394531 3.570312 c 0 0.550781 0.449219 1 1 1 h 1 v 4 c 0 0.550781 0.449219 1 1 1 h 1 c 0.550781 0 1 -0.449219 1 -1 v -14 c 0 -0.5625 -0.464844 -1.015625 -1.03125 -1 z m 0 0" fill="#2e3436"/>
</svg>
