<?xml version="1.0" encoding="UTF-8"?>
<svg height="16px" viewBox="0 0 16 16" width="16px" xmlns="http://www.w3.org/2000/svg">
    <path d="m 12.5 0.0234375 c -0.292969 -0.0039063 -0.59375 0.0195313 -0.882812 0.0937505 c -1.867188 0.488281 -2.984376 2.382812 -2.496094 4.234374 c 0.101562 0.386719 0.289062 0.742188 0.5 1.054688 c -0.109375 0.015625 -1.625 2.59375 -1.625 2.59375 l 3.410156 0.023438 l 0.800781 -1.117188 c 0.378907 0.03125 0.78125 0.023438 1.171875 -0.078125 c 1.863282 -0.484375 2.980469 -2.382813 2.496094 -4.234375 c -0.105469 -0.386719 -0.292969 -0.738281 -0.503906 -1.054688 l -1.359375 2.304688 c -0.28125 0.476562 -0.882813 0.632812 -1.355469 0.355469 l -0.875 -0.507813 c -0.476562 -0.277344 -0.636719 -0.875 -0.355469 -1.347656 l 1.363281 -2.3085938 c -0.097656 -0.0039062 -0.195312 -0.0117187 -0.289062 -0.0117187 z m -8.875 0.6914065 c -0.011719 0 -0.019531 0 -0.027344 0.003906 c -0.230468 0.046875 -0.445312 0.132812 -0.65625 0.21875 c -0.019531 0.625 0.085938 1.441406 -0.15625 1.65625 c -0.242187 0.210938 -1.039062 0.035156 -1.652344 -0.03125 c -0.132812 0.238281 -0.238281 0.484375 -0.3125 0.75 c 0.476563 0.394531 1.136719 0.839844 1.152344 1.15625 c 0.015625 0.320312 -0.625 0.804688 -1.058594 1.25 c 0.101563 0.257812 0.25 0.492188 0.40625 0.71875 c 0.605469 -0.125 1.359376 -0.375 1.621094 -0.1875 c 0.261719 0.1875 0.261719 1.003906 0.34375 1.625 c 0.246094 0.074219 0.507813 0.105469 0.777344 0.125 c 0.28125 -0.554688 0.566406 -1.320312 0.875 -1.40625 c 0.316406 -0.089844 0.960938 0.457031 1.5 0.78125 c 0.214844 -0.152344 0.410156 -0.335938 0.589844 -0.53125 c -0.253906 -0.574219 -0.71875 -1.292969 -0.589844 -1.59375 c 0.125 -0.300781 0.96875 -0.46875 1.558594 -0.6875 c 0.003906 -0.074219 0.03125 -0.144531 0.03125 -0.21875 c 0 -0.191406 -0.035156 -0.378906 -0.0625 -0.5625 c -0.605469 -0.160156 -1.464844 -0.242188 -1.621094 -0.53125 c -0.160156 -0.289062 0.238281 -1.0625 0.433594 -1.65625 c -0.199219 -0.179688 -0.417969 -0.335938 -0.652344 -0.46875 c -0.503906 0.375 -1.085938 0.996094 -1.40625 0.9375 c -0.316406 -0.054688 -0.660156 -0.820312 -0.996094 -1.34375 c -0.03125 0.003906 -0.066406 0 -0.097656 -0.003906 z m 0.59375 1.878906 c 0.929688 0 1.6875 0.753906 1.6875 1.6875 s -0.757812 1.6875 -1.6875 1.6875 s -1.683594 -0.753906 -1.683594 -1.6875 s 0.753906 -1.6875 1.683594 -1.6875 z m 8.621094 6.332031 c -0.144532 0 -0.273438 0.023438 -0.359375 0.074219 h -9.050781 c -0.246094 -0.105469 -0.746094 -0.046875 -0.964844 0.179688 l -2.160156 2.113281 c -0.191407 0.175781 -0.30078175 0.484375 -0.304688 0.707031 c -0.0546875 0.886719 1 1.320312 1.636719 0.792969 l 1.363281 -1.332031 l 0.003906 3.539062 c 0 0.570312 0.457032 1 0.996094 1 h 7.992188 c 0.523437 0 0.996093 -0.445312 0.996093 -0.9375 l -0.003906 -3.601562 l 1.335937 1.308593 c 0.636719 0.527344 1.6875 0.09375 1.636719 -0.792969 c -0.003906 -0.222656 -0.113281 -0.53125 -0.300781 -0.703124 l -2.164062 -2.117188 c -0.144532 -0.152344 -0.417969 -0.226562 -0.652344 -0.230469 z m 0 0" fill="#2e3436"/>
</svg>
