<?xml version="1.0" encoding="UTF-8"?>
<svg height="16px" viewBox="0 0 16 16" width="16px" xmlns="http://www.w3.org/2000/svg">
    <path d="m 1.96875 0 c -1.089844 0 -1.96875 0.878906 -1.96875 1.96875 v 12.0625 c 0 1.089844 0.878906 1.96875 1.96875 1.96875 h 12.03125 c 0.554688 0 1 -0.445312 1 -1 v -11 c 0 -0.554688 -0.445312 -1 -1 -1 h -12 c -0.554688 0 -1 -0.445312 -1 -1 s 0.445312 -1 1 -1 h 12 c 0 -0.558594 -0.441406 -1 -1 -1 z m 6.03125 4.0625 c 2.726562 0 4.9375 2.207031 4.9375 4.9375 s -2.210938 4.9375 -4.9375 4.9375 s -4.9375 -2.207031 -4.9375 -4.9375 s 2.210938 -4.9375 4.9375 -4.9375 z m 0 0.96875 c -0.640625 0 -1.246094 0.136719 -1.78125 0.40625 l 0.128906 0.265625 l 0.621094 1.296875 c 0.210938 -0.109375 0.4375 -0.195312 0.675781 -0.242188 c 0.101563 -0.011718 0.214844 -0.023437 0.359375 -0.035156 c 0.035156 0 0.066406 0.003906 0.097656 0.003906 c 0.335938 0.019532 0.644532 0.125 0.929688 0.273438 l 0.71875 -1.5 c -0.007812 -0.003906 -0.015625 -0.007812 -0.027344 -0.011719 l 0.027344 -0.050781 c -0.535156 -0.269531 -1.109375 -0.40625 -1.75 -0.40625 z m -3.5625 2.21875 c -0.265625 0.539062 -0.4375 1.136719 -0.4375 1.78125 c 0 0.660156 0.191406 1.265625 0.46875 1.8125 l 1.527344 -0.777344 c -0.003906 -0.007812 -0.011719 -0.015625 -0.015625 -0.023437 l 0.019531 -0.011719 c -0.117188 -0.226562 -0.207031 -0.46875 -0.253906 -0.726562 c -0.003906 -0.03125 -0.007813 -0.0625 -0.011719 -0.097657 c -0.007813 -0.070312 -0.015625 -0.136719 -0.015625 -0.207031 c 0.039062 -0.4375 0.0625 -0.484375 0.191406 -0.871094 c 0.019532 -0.042968 0.039063 -0.085937 0.058594 -0.128906 l -1.46875 -0.75 c -0.003906 0.007812 -0.007812 0.015625 -0.011719 0.023438 z m 7.09375 0 l -1.5 0.75 c 0.152344 0.304688 0.25 0.640625 0.25 1 c 0 0.375 -0.117188 0.71875 -0.28125 1.03125 l 0.039062 0.019531 c -0.007812 0.011719 -0.011718 0.023438 -0.015624 0.039063 l 1.507812 0.753906 c 0.277344 -0.546875 0.4375 -1.152344 0.4375 -1.8125 c 0 -0.644531 -0.140625 -1.242188 -0.40625 -1.78125 l -0.023438 0.011719 c -0.003906 -0.003907 -0.007812 -0.007813 -0.007812 -0.011719 z m -3.53125 0.46875 c -0.71875 0 -1.28125 0.5625 -1.28125 1.28125 c 0 0.414062 0.191406 0.777344 0.488281 1.007812 c 0.070313 0.058594 0.148438 0.105469 0.230469 0.144532 c 0.011719 0.003906 0.023438 0.011718 0.03125 0.015625 c 0.070312 0.03125 0.136719 0.054687 0.210938 0.070312 c 0.03125 0.011719 0.066406 0.019531 0.097656 0.023438 c 0.050781 0.007812 0.097656 0.011719 0.144531 0.015625 c 0.03125 0.003906 0.058594 0.007812 0.085937 0.011718 c 0.03125 -0.003906 0.0625 -0.007812 0.097657 -0.011718 c 0.023437 -0.003906 0.050781 -0.007813 0.074219 -0.011719 c 0.066406 -0.007813 0.132812 -0.019531 0.199218 -0.039063 c 0.003906 0 0.003906 0 0.007813 -0.003906 c 0.003906 0 0.011719 -0.003906 0.019531 -0.007812 c 0.074219 -0.023438 0.140625 -0.050782 0.210938 -0.085938 c 0.011718 -0.007812 0.023437 -0.011718 0.035156 -0.019531 c 0.03125 -0.019531 0.058594 -0.039063 0.089844 -0.058594 c 0.046874 -0.035156 0.09375 -0.074219 0.140624 -0.113281 c 0.019532 -0.019531 0.035157 -0.039062 0.054688 -0.058594 c 0.046875 -0.050781 0.089844 -0.101562 0.128906 -0.160156 c 0.117188 -0.175781 0.1875 -0.375 0.210938 -0.585938 c 0.003906 -0.042968 0.011718 -0.082031 0.015625 -0.125 c -0.003907 -0.210937 -0.054688 -0.421874 -0.15625 -0.609374 c -0.003907 -0.003907 -0.003907 -0.007813 -0.007813 -0.015626 c -0.015625 -0.023437 -0.03125 -0.050781 -0.046875 -0.074218 c -0.226562 -0.355469 -0.621093 -0.589844 -1.082031 -0.589844 z m 1.03125 3.28125 c -0.3125 0.164062 -0.65625 0.28125 -1.03125 0.28125 c -0.359375 0 -0.695312 -0.097656 -1 -0.25 l -0.75 1.5 c 0.003906 0.003906 0.007812 0.003906 0.015625 0.007812 l -0.046875 0.085938 c 0.535156 0.269531 1.140625 0.4375 1.78125 0.4375 s 1.214844 -0.167969 1.75 -0.4375 l -0.046875 -0.101562 c 0.015625 -0.011719 0.03125 -0.015626 0.046875 -0.023438 z m 0 0" fill="#2e3436"/>
</svg>
