<?xml version="1.0" encoding="UTF-8" standalone="no"?>
<svg
   xmlns:dc="http://purl.org/dc/elements/1.1/"
   xmlns:cc="http://creativecommons.org/ns#"
   xmlns:rdf="http://www.w3.org/1999/02/22-rdf-syntax-ns#"
   xmlns:svg="http://www.w3.org/2000/svg"
   xmlns="http://www.w3.org/2000/svg"
   xmlns:sodipodi="http://sodipodi.sourceforge.net/DTD/sodipodi-0.dtd"
   xmlns:inkscape="http://www.inkscape.org/namespaces/inkscape"
   inkscape:version="1.0 (4035a4fb49, 2020-05-01)"
   sodipodi:docname="nm-device-wwan-symbolic.svg"
   id="svg12"
   version="1.1"
   height="16"
   width="16">
  <metadata
     id="metadata18">
    <rdf:RDF>
      <cc:Work
         rdf:about="">
        <dc:format>image/svg+xml</dc:format>
        <dc:type
           rdf:resource="http://purl.org/dc/dcmitype/StillImage" />
        <dc:title></dc:title>
      </cc:Work>
    </rdf:RDF>
  </metadata>
  <defs
     id="defs16" />
  <sodipodi:namedview
     inkscape:current-layer="svg12"
     inkscape:window-maximized="1"
     inkscape:window-y="0"
     inkscape:window-x="0"
     inkscape:cy="8"
     inkscape:cx="8.0394575"
     inkscape:zoom="50.6875"
     showgrid="false"
     id="namedview14"
     inkscape:window-height="1031"
     inkscape:window-width="1920"
     inkscape:pageshadow="2"
     inkscape:pageopacity="0"
     guidetolerance="10"
     gridtolerance="10"
     objecttolerance="10"
     borderopacity="1"
     bordercolor="#666666"
     pagecolor="#ffffff" />
  <g
     transform="translate(-72,-367.99988)"
     style="enable-background:new"
     id="g4135"
     inkscape:label="network-cellular">
    <rect
       y="367.99988"
       x="72.000114"
       height="16"
       width="16"
       id="rect6303-6"
       style="color:#bebebe;display:inline;overflow:visible;visibility:visible;fill:none;stroke:none;stroke-width:1;marker:none;enable-background:new"
       clip-path="none" />
    <path
       style="display:inline;fill:#2e3436;fill-opacity:1;stroke:none;stroke-width:2;enable-background:new"
       clip-path="none"
       d="m 74,433 c -1.26122,0.98018 -2,2.83336 -2,5 0,2.1266 0.7771,4.00522 2,5 h 1 v -2 c -0.60652,-0.78062 -1,-1.75887 -1,-3 0,-1.24113 0.39348,-2.21122 1,-3 v -2 z m 11,0 v 2 c 0.60652,0.78878 1,1.75887 1,3 0,1.24113 -0.39348,2.21938 -1,3 v 2 h 1 c 1.2229,-0.99478 2,-2.8734 2,-5 0,-2.16664 -0.73878,-4.01982 -2,-5 z m -9,2 c -0.68835,0.78429 -1,1.74267 -1,3 0,1.25733 0.32794,2.1631 1,3 h 1 V 438.375 438 435 Z m 7,0 v 3 0.375 2.625 h 1 c 0.67206,-0.8369 1,-1.74267 1,-3 0,-1.25733 -0.31165,-2.21571 -1,-3 z m -3,1 c -1.10457,0 -2,0.89543 -2,2 0,1.10457 0.89543,2 2,2 1.10457,0 2,-0.89543 2,-2 0,-1.10457 -0.89543,-2 -2,-2 z m 0,5 a 1,1 0 0 0 -1,1 v 6 h 2 v -6 a 1,1 0 0 0 -1,-1 z"
       transform="translate(0,-64)"
       id="path6305-7" />
  </g>
</svg>
