<?xml version="1.0" encoding="UTF-8" standalone="no"?>
<svg
   xmlns:dc="http://purl.org/dc/elements/1.1/"
   xmlns:cc="http://creativecommons.org/ns#"
   xmlns:rdf="http://www.w3.org/1999/02/22-rdf-syntax-ns#"
   xmlns:svg="http://www.w3.org/2000/svg"
   xmlns="http://www.w3.org/2000/svg"
   xmlns:sodipodi="http://sodipodi.sourceforge.net/DTD/sodipodi-0.dtd"
   xmlns:inkscape="http://www.inkscape.org/namespaces/inkscape"
   width="16"
   height="16"
   viewBox="0 0 16 16"
   version="1.1"
   id="svg7"
   sodipodi:docname="xapp-favorites-app-symbolic.svg"
   inkscape:version="1.0.1 (1.0.1+r74)">
  <sodipodi:namedview
     pagecolor="#ffffff"
     bordercolor="#666666"
     borderopacity="1"
     objecttolerance="10"
     gridtolerance="10"
     guidetolerance="10"
     inkscape:pageopacity="0"
     inkscape:pageshadow="2"
     inkscape:window-width="1920"
     inkscape:window-height="1016"
     id="namedview7"
     showgrid="false"
     inkscape:zoom="13.1875"
     inkscape:cx="2.2479171"
     inkscape:cy="4.3486592"
     inkscape:window-x="0"
     inkscape:window-y="0"
     inkscape:window-maximized="1"
     inkscape:current-layer="svg7" />
  <metadata
     id="metadata11">
    <rdf:RDF>
      <cc:Work
         rdf:about="">
        <dc:format>image/svg+xml</dc:format>
        <dc:type
           rdf:resource="http://purl.org/dc/dcmitype/StillImage" />
      </cc:Work>
    </rdf:RDF>
  </metadata>
  <defs
     id="defs3">
    <style
       id="current-color-scheme"
       type="text/css">
   .ColorScheme-Text { color:#404040; } .ColorScheme-Highlight { color:#5294e2; }
  </style>
  </defs>
  <path
     style="display:inline;overflow:visible;visibility:visible;fill:#bebebe;fill-opacity:1;fill-rule:nonzero;stroke:none;stroke-width:0.99227;stroke-linecap:butt;stroke-linejoin:round;stroke-miterlimit:4;stroke-dasharray:none;stroke-dashoffset:0;stroke-opacity:0.498039;marker:none"
     id="path1307-0"
     d="m 8.0000007,0.49606337 c 0.5064395,0 2.1391893,4.28357813 2.5489093,4.59622213 0.409717,0.3126432 4.793178,0.6198528 4.949676,1.125721 0.156499,0.505868 -3.217866,3.4604743 -3.374364,3.9663415 C 11.967724,10.690216 13.409718,15.163661 13,15.476304 12.590282,15.788949 8.5064402,13.331418 7.9999999,13.331418 7.4935603,13.331418 3.4097188,15.788949 3,15.476304 2.5902818,15.163661 4.0322763,10.690215 3.8757779,10.184348 3.7192794,9.6784808 0.34491541,6.7238738 0.50141395,6.2180057 0.6579124,5.7121383 5.0413721,5.4049287 5.4510909,5.0922855 5.8608088,4.7796415 7.4935611,0.49606337 8.0000007,0.49606337 Z" />
</svg>
