<?xml version="1.0" encoding="UTF-8" standalone="no"?>
<!-- Created with Inkscape (http://www.inkscape.org/) -->

<svg
   xmlns:dc="http://purl.org/dc/elements/1.1/"
   xmlns:cc="http://creativecommons.org/ns#"
   xmlns:rdf="http://www.w3.org/1999/02/22-rdf-syntax-ns#"
   xmlns:svg="http://www.w3.org/2000/svg"
   xmlns="http://www.w3.org/2000/svg"
   xmlns:sodipodi="http://sodipodi.sourceforge.net/DTD/sodipodi-0.dtd"
   xmlns:inkscape="http://www.inkscape.org/namespaces/inkscape"
   width="22"
   height="22"
   viewBox="0 0 5.8208332 5.8208335"
   version="1.1"
   id="svg8"
   inkscape:version="0.92.1 r15371"
   sodipodi:docname="system-lock-screen.svg">
  <defs
     id="defs2" />
  <sodipodi:namedview
     id="base"
     pagecolor="#ffffff"
     bordercolor="#666666"
     borderopacity="1.0"
     inkscape:pageopacity="0.0"
     inkscape:pageshadow="2"
     inkscape:zoom="15.999999"
     inkscape:cx="0.71156634"
     inkscape:cy="8.9600532"
     inkscape:document-units="mm"
     inkscape:current-layer="layer1"
     showgrid="true"
     units="px"
     inkscape:window-width="1920"
     inkscape:window-height="1040"
     inkscape:window-x="0"
     inkscape:window-y="0"
     inkscape:window-maximized="1">
    <inkscape:grid
       type="xygrid"
       id="grid10"
       spacingx="0.26458333"
       spacingy="0.26458333" />
  </sodipodi:namedview>
  <metadata
     id="metadata5">
    <rdf:RDF>
      <cc:Work
         rdf:about="">
        <dc:format>image/svg+xml</dc:format>
        <dc:type
           rdf:resource="http://purl.org/dc/dcmitype/StillImage" />
        <dc:title></dc:title>
      </cc:Work>
    </rdf:RDF>
  </metadata>
  <g
     inkscape:label="Capa 1"
     inkscape:groupmode="layer"
     id="layer1"
     transform="translate(0,-291.17915)">
    <path
       style="fill:#e5ecef;fill-opacity:1;stroke:none;stroke-width:4.29921246;stroke-miterlimit:4;stroke-dasharray:none;stroke-opacity:1"
       d="M 2 4 L 2 18 L 6 18 L 6 20 L 16 20 L 16 18 L 20 18 L 20 4 L 2 4 z M 4 6 L 18 6 L 18 16 L 4 16 L 4 6 z "
       transform="matrix(0.26458333,0,0,0.26458333,0,291.17915)"
       id="rect915" />
    <path
       style="fill:#e5ecef;fill-opacity:1;stroke:none;stroke-width:0.99999994px;stroke-linecap:butt;stroke-linejoin:miter;stroke-opacity:1"
       d="M 8 10 L 8 15 L 14 15 L 14 10 L 8 10 z M 11 10.5 A 0.99999994 0.99999994 0 0 1 12 11.5 A 0.99999994 0.99999994 0 0 1 11.578125 12.314453 L 12 14 L 10 14 L 10.421875 12.314453 A 0.99999994 0.99999994 0 0 1 10 11.5 A 0.99999994 0.99999994 0 0 1 11 10.5 z "
       transform="matrix(0.26458333,0,0,0.26458333,0,291.17915)"
       id="path15" />
    <path
       style="fill:none;stroke:#e5ecef;stroke-width:0.2;stroke-linecap:butt;stroke-linejoin:miter;stroke-miterlimit:4;stroke-dasharray:none;stroke-opacity:1"
       d="m 2.3812499,294.08957 c 0,0 -0.2645833,-0.79375 0.5291667,-0.79375 0.79375,0 0.5291667,0.79375 0.5291667,0.79375"
       id="path824"
       inkscape:connector-curvature="0"
       sodipodi:nodetypes="czc" />
  </g>
</svg>
