<?xml version="1.0" encoding="UTF-8" standalone="no"?>
<!-- Created with Inkscape (http://www.inkscape.org/) -->

<svg
   xmlns:dc="http://purl.org/dc/elements/1.1/"
   xmlns:cc="http://creativecommons.org/ns#"
   xmlns:rdf="http://www.w3.org/1999/02/22-rdf-syntax-ns#"
   xmlns:svg="http://www.w3.org/2000/svg"
   xmlns="http://www.w3.org/2000/svg"
   xmlns:sodipodi="http://sodipodi.sourceforge.net/DTD/sodipodi-0.dtd"
   xmlns:inkscape="http://www.inkscape.org/namespaces/inkscape"
   width="16"
   height="16"
   id="svg2"
   version="1.1"
   inkscape:version="0.92+devel unknown"
   sodipodi:docname="maximize_prelight.svg"
   inkscape:export-filename="/home/lara/.themes/Dracula/assets/maximize_prelight.png"
   inkscape:export-xdpi="96"
   inkscape:export-ydpi="96">
  <defs
     id="defs4" />
  <sodipodi:namedview
     id="base"
     pagecolor="#ffffff"
     bordercolor="#666666"
     borderopacity="1.0"
     inkscape:pageopacity="0.0"
     inkscape:pageshadow="2"
     inkscape:zoom="15.213115"
     inkscape:cx="-22.304881"
     inkscape:cy="7.9547456"
     inkscape:document-units="px"
     inkscape:current-layer="g4147"
     showgrid="true"
     fit-margin-top="0"
     fit-margin-left="0"
     fit-margin-right="0"
     fit-margin-bottom="0"
     inkscape:window-width="1366"
     inkscape:window-height="705"
     inkscape:window-x="0"
     inkscape:window-y="0"
     inkscape:window-maximized="1"
     inkscape:document-rotation="0" />
  <metadata
     id="metadata7">
    <rdf:RDF>
      <cc:Work
         rdf:about="">
        <dc:format>image/svg+xml</dc:format>
        <dc:type
           rdf:resource="http://purl.org/dc/dcmitype/StillImage" />
        <dc:title />
      </cc:Work>
    </rdf:RDF>
  </metadata>
  <g
     inkscape:label="Layer 1"
     inkscape:groupmode="layer"
     id="layer1"
     transform="translate(-671.14288,-648.57648)">
    <g
       transform="matrix(0.1265625,0,0,-0.1265625,672.07092,663.09636)"
       inkscape:label="ink_ext_XXXXXX"
       id="g4090">
      <g
         transform="scale(0.1,0.1)"
         id="g4092">
        <path
           id="path4289"
           style="fill:#13c11e;fill-opacity:1;fill-rule:evenodd;stroke:none"
           d="m 558.7771,-37.935173 c 305.45604,0 553.0815,247.625853 553.0815,553.085763 0,305.46122 -247.62546,553.08661 -553.0815,553.08661 -305.46509,0 -553.091393,-247.62539 -553.091393,-553.08661 0,-305.45991 247.626303,-553.085763 553.091393,-553.085763"
           inkscape:connector-curvature="0" />
        <g
           id="g4147"
           transform="matrix(1.3132489,0,0,1.3132489,-9.8625362,-52.033006)">
          <path
             inkscape:connector-curvature="0"
             d="m 433.00051,40.81737 c 215.984,0 391.074,175.0938 391.074,391.0778 0,215.985 -175.09,391.075 -391.074,391.075 -215.988,0 -391.078202,-175.09 -391.078202,-391.075 0,-215.984 175.090202,-391.0778 391.078202,-391.0778"
             style="fill:#50fa7b;fill-opacity:1;fill-rule:evenodd;stroke:none"
             id="path4291" />
          <path
             inkscape:connector-curvature="0"
             d="m 317.36351,650.00117 267.199,0 c 35.579,0 64.692,-29.113 64.692,-64.695 l 0,-267.196 -331.891,331.891 z m 232.324,-436.211 -268.253,0 c -35.583,0 -64.692,29.109 -64.692,64.691 l 0,268.254 332.945,-332.945"
             style="fill:#0b7407;fill-opacity:1;fill-rule:evenodd;stroke:none"
             id="path4293" />
        </g>
      </g>
    </g>
  </g>
</svg>
